<?xml version="1.0" encoding="utf-8" standalone="no"?>
<!DOCTYPE svg PUBLIC "-//W3C//DTD SVG 1.1//EN"
  "http://www.w3.org/Graphics/SVG/1.1/DTD/svg11.dtd">
<!-- Created with matplotlib (http://matplotlib.org/) -->
<svg height="820pt" version="1.1" viewBox="0 0 1440 820" width="1440pt" xmlns="http://www.w3.org/2000/svg" xmlns:xlink="http://www.w3.org/1999/xlink">
 <defs>
  <style type="text/css">
*{stroke-linecap:butt;stroke-linejoin:round;}
  </style>
 </defs>
 <g id="figure_1">
  <g id="patch_1">
   <path d="M 0 820.8 
L 1440 820.8 
L 1440 0 
L 0 0 
z
" style="fill:#ffffff;"/>
  </g>
  <g id="axes_1">
   <g id="patch_2">
    <path d="M 104.425 756 
L 1425.7 756 
L 1425.7 14.3 
L 104.425 14.3 
z
" style="fill:#ffffff;"/>
   </g>
   <g id="matplotlib.axis_1">
    <g id="xtick_1">
     <g id="line2d_1">
      <defs>
       <path d="M 0 0 
L 0 3.5 
" id="mfd973aadff" style="stroke:#000000;stroke-width:0.8;"/>
      </defs>
      <g>
       <use style="stroke:#000000;stroke-width:0.8;" x="164.482955" xlink:href="#mfd973aadff" y="756"/>
      </g>
     </g>
     <g id="text_1">
      <!-- 0 -->
      <defs>
       <path d="M 31.78125 66.40625 
Q 24.171875 66.40625 20.328125 58.90625 
Q 16.5 51.421875 16.5 36.375 
Q 16.5 21.390625 20.328125 13.890625 
Q 24.171875 6.390625 31.78125 6.390625 
Q 39.453125 6.390625 43.28125 13.890625 
Q 47.125 21.390625 47.125 36.375 
Q 47.125 51.421875 43.28125 58.90625 
Q 39.453125 66.40625 31.78125 66.40625 
z
M 31.78125 74.21875 
Q 44.046875 74.21875 50.515625 64.515625 
Q 56.984375 54.828125 56.984375 36.375 
Q 56.984375 17.96875 50.515625 8.265625 
Q 44.046875 -1.421875 31.78125 -1.421875 
Q 19.53125 -1.421875 13.0625 8.265625 
Q 6.59375 17.96875 6.59375 36.375 
Q 6.59375 54.828125 13.0625 64.515625 
Q 19.53125 74.21875 31.78125 74.21875 
z
" id="DejaVuSans-30"/>
      </defs>
      <g transform="translate(156.52983 781.996094)scale(0.25 -0.25)">
       <use xlink:href="#DejaVuSans-30"/>
      </g>
     </g>
    </g>
    <g id="xtick_2">
     <g id="line2d_2">
      <g>
       <use style="stroke:#000000;stroke-width:0.8;" x="364.843103" xlink:href="#mfd973aadff" y="756"/>
      </g>
     </g>
     <g id="text_2">
      <!-- 200 -->
      <defs>
       <path d="M 19.1875 8.296875 
L 53.609375 8.296875 
L 53.609375 0 
L 7.328125 0 
L 7.328125 8.296875 
Q 12.9375 14.109375 22.625 23.890625 
Q 32.328125 33.6875 34.8125 36.53125 
Q 39.546875 41.84375 41.421875 45.53125 
Q 43.3125 49.21875 43.3125 52.78125 
Q 43.3125 58.59375 39.234375 62.25 
Q 35.15625 65.921875 28.609375 65.921875 
Q 23.96875 65.921875 18.8125 64.3125 
Q 13.671875 62.703125 7.8125 59.421875 
L 7.8125 69.390625 
Q 13.765625 71.78125 18.9375 73 
Q 24.125 74.21875 28.421875 74.21875 
Q 39.75 74.21875 46.484375 68.546875 
Q 53.21875 62.890625 53.21875 53.421875 
Q 53.21875 48.921875 51.53125 44.890625 
Q 49.859375 40.875 45.40625 35.40625 
Q 44.1875 33.984375 37.640625 27.21875 
Q 31.109375 20.453125 19.1875 8.296875 
z
" id="DejaVuSans-32"/>
      </defs>
      <g transform="translate(340.983728 781.996094)scale(0.25 -0.25)">
       <use xlink:href="#DejaVuSans-32"/>
       <use x="63.623047" xlink:href="#DejaVuSans-30"/>
       <use x="127.246094" xlink:href="#DejaVuSans-30"/>
      </g>
     </g>
    </g>
    <g id="xtick_3">
     <g id="line2d_3">
      <g>
       <use style="stroke:#000000;stroke-width:0.8;" x="565.203252" xlink:href="#mfd973aadff" y="756"/>
      </g>
     </g>
     <g id="text_3">
      <!-- 400 -->
      <defs>
       <path d="M 37.796875 64.3125 
L 12.890625 25.390625 
L 37.796875 25.390625 
z
M 35.203125 72.90625 
L 47.609375 72.90625 
L 47.609375 25.390625 
L 58.015625 25.390625 
L 58.015625 17.1875 
L 47.609375 17.1875 
L 47.609375 0 
L 37.796875 0 
L 37.796875 17.1875 
L 4.890625 17.1875 
L 4.890625 26.703125 
z
" id="DejaVuSans-34"/>
      </defs>
      <g transform="translate(541.343877 781.996094)scale(0.25 -0.25)">
       <use xlink:href="#DejaVuSans-34"/>
       <use x="63.623047" xlink:href="#DejaVuSans-30"/>
       <use x="127.246094" xlink:href="#DejaVuSans-30"/>
      </g>
     </g>
    </g>
    <g id="xtick_4">
     <g id="line2d_4">
      <g>
       <use style="stroke:#000000;stroke-width:0.8;" x="765.5634" xlink:href="#mfd973aadff" y="756"/>
      </g>
     </g>
     <g id="text_4">
      <!-- 600 -->
      <defs>
       <path d="M 33.015625 40.375 
Q 26.375 40.375 22.484375 35.828125 
Q 18.609375 31.296875 18.609375 23.390625 
Q 18.609375 15.53125 22.484375 10.953125 
Q 26.375 6.390625 33.015625 6.390625 
Q 39.65625 6.390625 43.53125 10.953125 
Q 47.40625 15.53125 47.40625 23.390625 
Q 47.40625 31.296875 43.53125 35.828125 
Q 39.65625 40.375 33.015625 40.375 
z
M 52.59375 71.296875 
L 52.59375 62.3125 
Q 48.875 64.0625 45.09375 64.984375 
Q 41.3125 65.921875 37.59375 65.921875 
Q 27.828125 65.921875 22.671875 59.328125 
Q 17.53125 52.734375 16.796875 39.40625 
Q 19.671875 43.65625 24.015625 45.921875 
Q 28.375 48.1875 33.59375 48.1875 
Q 44.578125 48.1875 50.953125 41.515625 
Q 57.328125 34.859375 57.328125 23.390625 
Q 57.328125 12.15625 50.6875 5.359375 
Q 44.046875 -1.421875 33.015625 -1.421875 
Q 20.359375 -1.421875 13.671875 8.265625 
Q 6.984375 17.96875 6.984375 36.375 
Q 6.984375 53.65625 15.1875 63.9375 
Q 23.390625 74.21875 37.203125 74.21875 
Q 40.921875 74.21875 44.703125 73.484375 
Q 48.484375 72.75 52.59375 71.296875 
z
" id="DejaVuSans-36"/>
      </defs>
      <g transform="translate(741.704025 781.996094)scale(0.25 -0.25)">
       <use xlink:href="#DejaVuSans-36"/>
       <use x="63.623047" xlink:href="#DejaVuSans-30"/>
       <use x="127.246094" xlink:href="#DejaVuSans-30"/>
      </g>
     </g>
    </g>
    <g id="xtick_5">
     <g id="line2d_5">
      <g>
       <use style="stroke:#000000;stroke-width:0.8;" x="965.923549" xlink:href="#mfd973aadff" y="756"/>
      </g>
     </g>
     <g id="text_5">
      <!-- 800 -->
      <defs>
       <path d="M 31.78125 34.625 
Q 24.75 34.625 20.71875 30.859375 
Q 16.703125 27.09375 16.703125 20.515625 
Q 16.703125 13.921875 20.71875 10.15625 
Q 24.75 6.390625 31.78125 6.390625 
Q 38.8125 6.390625 42.859375 10.171875 
Q 46.921875 13.96875 46.921875 20.515625 
Q 46.921875 27.09375 42.890625 30.859375 
Q 38.875 34.625 31.78125 34.625 
z
M 21.921875 38.8125 
Q 15.578125 40.375 12.03125 44.71875 
Q 8.5 49.078125 8.5 55.328125 
Q 8.5 64.0625 14.71875 69.140625 
Q 20.953125 74.21875 31.78125 74.21875 
Q 42.671875 74.21875 48.875 69.140625 
Q 55.078125 64.0625 55.078125 55.328125 
Q 55.078125 49.078125 51.53125 44.71875 
Q 48 40.375 41.703125 38.8125 
Q 48.828125 37.15625 52.796875 32.3125 
Q 56.78125 27.484375 56.78125 20.515625 
Q 56.78125 9.90625 50.3125 4.234375 
Q 43.84375 -1.421875 31.78125 -1.421875 
Q 19.734375 -1.421875 13.25 4.234375 
Q 6.78125 9.90625 6.78125 20.515625 
Q 6.78125 27.484375 10.78125 32.3125 
Q 14.796875 37.15625 21.921875 38.8125 
z
M 18.3125 54.390625 
Q 18.3125 48.734375 21.84375 45.5625 
Q 25.390625 42.390625 31.78125 42.390625 
Q 38.140625 42.390625 41.71875 45.5625 
Q 45.3125 48.734375 45.3125 54.390625 
Q 45.3125 60.0625 41.71875 63.234375 
Q 38.140625 66.40625 31.78125 66.40625 
Q 25.390625 66.40625 21.84375 63.234375 
Q 18.3125 60.0625 18.3125 54.390625 
z
" id="DejaVuSans-38"/>
      </defs>
      <g transform="translate(942.064174 781.996094)scale(0.25 -0.25)">
       <use xlink:href="#DejaVuSans-38"/>
       <use x="63.623047" xlink:href="#DejaVuSans-30"/>
       <use x="127.246094" xlink:href="#DejaVuSans-30"/>
      </g>
     </g>
    </g>
    <g id="xtick_6">
     <g id="line2d_6">
      <g>
       <use style="stroke:#000000;stroke-width:0.8;" x="1166.283698" xlink:href="#mfd973aadff" y="756"/>
      </g>
     </g>
     <g id="text_6">
      <!-- 1000 -->
      <defs>
       <path d="M 12.40625 8.296875 
L 28.515625 8.296875 
L 28.515625 63.921875 
L 10.984375 60.40625 
L 10.984375 69.390625 
L 28.421875 72.90625 
L 38.28125 72.90625 
L 38.28125 8.296875 
L 54.390625 8.296875 
L 54.390625 0 
L 12.40625 0 
z
" id="DejaVuSans-31"/>
      </defs>
      <g transform="translate(1134.471198 781.996094)scale(0.25 -0.25)">
       <use xlink:href="#DejaVuSans-31"/>
       <use x="63.623047" xlink:href="#DejaVuSans-30"/>
       <use x="127.246094" xlink:href="#DejaVuSans-30"/>
       <use x="190.869141" xlink:href="#DejaVuSans-30"/>
      </g>
     </g>
    </g>
    <g id="xtick_7">
     <g id="line2d_7">
      <g>
       <use style="stroke:#000000;stroke-width:0.8;" x="1366.643846" xlink:href="#mfd973aadff" y="756"/>
      </g>
     </g>
     <g id="text_7">
      <!-- 1200 -->
      <g transform="translate(1334.831346 781.996094)scale(0.25 -0.25)">
       <use xlink:href="#DejaVuSans-31"/>
       <use x="63.623047" xlink:href="#DejaVuSans-32"/>
       <use x="127.246094" xlink:href="#DejaVuSans-30"/>
       <use x="190.869141" xlink:href="#DejaVuSans-30"/>
      </g>
     </g>
    </g>
    <g id="text_8">
     <!-- 15-Minute Steps -->
     <defs>
      <path d="M 10.796875 72.90625 
L 49.515625 72.90625 
L 49.515625 64.59375 
L 19.828125 64.59375 
L 19.828125 46.734375 
Q 21.96875 47.46875 24.109375 47.828125 
Q 26.265625 48.1875 28.421875 48.1875 
Q 40.625 48.1875 47.75 41.5 
Q 54.890625 34.8125 54.890625 23.390625 
Q 54.890625 11.625 47.5625 5.09375 
Q 40.234375 -1.421875 26.90625 -1.421875 
Q 22.3125 -1.421875 17.546875 -0.640625 
Q 12.796875 0.140625 7.71875 1.703125 
L 7.71875 11.625 
Q 12.109375 9.234375 16.796875 8.0625 
Q 21.484375 6.890625 26.703125 6.890625 
Q 35.15625 6.890625 40.078125 11.328125 
Q 45.015625 15.765625 45.015625 23.390625 
Q 45.015625 31 40.078125 35.4375 
Q 35.15625 39.890625 26.703125 39.890625 
Q 22.75 39.890625 18.8125 39.015625 
Q 14.890625 38.140625 10.796875 36.28125 
z
" id="DejaVuSans-35"/>
      <path d="M 4.890625 31.390625 
L 31.203125 31.390625 
L 31.203125 23.390625 
L 4.890625 23.390625 
z
" id="DejaVuSans-2d"/>
      <path d="M 9.8125 72.90625 
L 24.515625 72.90625 
L 43.109375 23.296875 
L 61.8125 72.90625 
L 76.515625 72.90625 
L 76.515625 0 
L 66.890625 0 
L 66.890625 64.015625 
L 48.09375 14.015625 
L 38.1875 14.015625 
L 19.390625 64.015625 
L 19.390625 0 
L 9.8125 0 
z
" id="DejaVuSans-4d"/>
      <path d="M 9.421875 54.6875 
L 18.40625 54.6875 
L 18.40625 0 
L 9.421875 0 
z
M 9.421875 75.984375 
L 18.40625 75.984375 
L 18.40625 64.59375 
L 9.421875 64.59375 
z
" id="DejaVuSans-69"/>
      <path d="M 54.890625 33.015625 
L 54.890625 0 
L 45.90625 0 
L 45.90625 32.71875 
Q 45.90625 40.484375 42.875 44.328125 
Q 39.84375 48.1875 33.796875 48.1875 
Q 26.515625 48.1875 22.3125 43.546875 
Q 18.109375 38.921875 18.109375 30.90625 
L 18.109375 0 
L 9.078125 0 
L 9.078125 54.6875 
L 18.109375 54.6875 
L 18.109375 46.1875 
Q 21.34375 51.125 25.703125 53.5625 
Q 30.078125 56 35.796875 56 
Q 45.21875 56 50.046875 50.171875 
Q 54.890625 44.34375 54.890625 33.015625 
z
" id="DejaVuSans-6e"/>
      <path d="M 8.5 21.578125 
L 8.5 54.6875 
L 17.484375 54.6875 
L 17.484375 21.921875 
Q 17.484375 14.15625 20.5 10.265625 
Q 23.53125 6.390625 29.59375 6.390625 
Q 36.859375 6.390625 41.078125 11.03125 
Q 45.3125 15.671875 45.3125 23.6875 
L 45.3125 54.6875 
L 54.296875 54.6875 
L 54.296875 0 
L 45.3125 0 
L 45.3125 8.40625 
Q 42.046875 3.421875 37.71875 1 
Q 33.40625 -1.421875 27.6875 -1.421875 
Q 18.265625 -1.421875 13.375 4.4375 
Q 8.5 10.296875 8.5 21.578125 
z
M 31.109375 56 
z
" id="DejaVuSans-75"/>
      <path d="M 18.3125 70.21875 
L 18.3125 54.6875 
L 36.8125 54.6875 
L 36.8125 47.703125 
L 18.3125 47.703125 
L 18.3125 18.015625 
Q 18.3125 11.328125 20.140625 9.421875 
Q 21.96875 7.515625 27.59375 7.515625 
L 36.8125 7.515625 
L 36.8125 0 
L 27.59375 0 
Q 17.1875 0 13.234375 3.875 
Q 9.28125 7.765625 9.28125 18.015625 
L 9.28125 47.703125 
L 2.6875 47.703125 
L 2.6875 54.6875 
L 9.28125 54.6875 
L 9.28125 70.21875 
z
" id="DejaVuSans-74"/>
      <path d="M 56.203125 29.59375 
L 56.203125 25.203125 
L 14.890625 25.203125 
Q 15.484375 15.921875 20.484375 11.0625 
Q 25.484375 6.203125 34.421875 6.203125 
Q 39.59375 6.203125 44.453125 7.46875 
Q 49.3125 8.734375 54.109375 11.28125 
L 54.109375 2.78125 
Q 49.265625 0.734375 44.1875 -0.34375 
Q 39.109375 -1.421875 33.890625 -1.421875 
Q 20.796875 -1.421875 13.15625 6.1875 
Q 5.515625 13.8125 5.515625 26.8125 
Q 5.515625 40.234375 12.765625 48.109375 
Q 20.015625 56 32.328125 56 
Q 43.359375 56 49.78125 48.890625 
Q 56.203125 41.796875 56.203125 29.59375 
z
M 47.21875 32.234375 
Q 47.125 39.59375 43.09375 43.984375 
Q 39.0625 48.390625 32.421875 48.390625 
Q 24.90625 48.390625 20.390625 44.140625 
Q 15.875 39.890625 15.1875 32.171875 
z
" id="DejaVuSans-65"/>
      <path id="DejaVuSans-20"/>
      <path d="M 53.515625 70.515625 
L 53.515625 60.890625 
Q 47.90625 63.578125 42.921875 64.890625 
Q 37.9375 66.21875 33.296875 66.21875 
Q 25.25 66.21875 20.875 63.09375 
Q 16.5 59.96875 16.5 54.203125 
Q 16.5 49.359375 19.40625 46.890625 
Q 22.3125 44.4375 30.421875 42.921875 
L 36.375 41.703125 
Q 47.40625 39.59375 52.65625 34.296875 
Q 57.90625 29 57.90625 20.125 
Q 57.90625 9.515625 50.796875 4.046875 
Q 43.703125 -1.421875 29.984375 -1.421875 
Q 24.8125 -1.421875 18.96875 -0.25 
Q 13.140625 0.921875 6.890625 3.21875 
L 6.890625 13.375 
Q 12.890625 10.015625 18.65625 8.296875 
Q 24.421875 6.59375 29.984375 6.59375 
Q 38.421875 6.59375 43.015625 9.90625 
Q 47.609375 13.234375 47.609375 19.390625 
Q 47.609375 24.75 44.3125 27.78125 
Q 41.015625 30.8125 33.5 32.328125 
L 27.484375 33.5 
Q 16.453125 35.6875 11.515625 40.375 
Q 6.59375 45.0625 6.59375 53.421875 
Q 6.59375 63.09375 13.40625 68.65625 
Q 20.21875 74.21875 32.171875 74.21875 
Q 37.3125 74.21875 42.625 73.28125 
Q 47.953125 72.359375 53.515625 70.515625 
z
" id="DejaVuSans-53"/>
      <path d="M 18.109375 8.203125 
L 18.109375 -20.796875 
L 9.078125 -20.796875 
L 9.078125 54.6875 
L 18.109375 54.6875 
L 18.109375 46.390625 
Q 20.953125 51.265625 25.265625 53.625 
Q 29.59375 56 35.59375 56 
Q 45.5625 56 51.78125 48.09375 
Q 58.015625 40.1875 58.015625 27.296875 
Q 58.015625 14.40625 51.78125 6.484375 
Q 45.5625 -1.421875 35.59375 -1.421875 
Q 29.59375 -1.421875 25.265625 0.953125 
Q 20.953125 3.328125 18.109375 8.203125 
z
M 48.6875 27.296875 
Q 48.6875 37.203125 44.609375 42.84375 
Q 40.53125 48.484375 33.40625 48.484375 
Q 26.265625 48.484375 22.1875 42.84375 
Q 18.109375 37.203125 18.109375 27.296875 
Q 18.109375 17.390625 22.1875 11.75 
Q 26.265625 6.109375 33.40625 6.109375 
Q 40.53125 6.109375 44.609375 11.75 
Q 48.6875 17.390625 48.6875 27.296875 
z
" id="DejaVuSans-70"/>
      <path d="M 44.28125 53.078125 
L 44.28125 44.578125 
Q 40.484375 46.53125 36.375 47.5 
Q 32.28125 48.484375 27.875 48.484375 
Q 21.1875 48.484375 17.84375 46.4375 
Q 14.5 44.390625 14.5 40.28125 
Q 14.5 37.15625 16.890625 35.375 
Q 19.28125 33.59375 26.515625 31.984375 
L 29.59375 31.296875 
Q 39.15625 29.25 43.1875 25.515625 
Q 47.21875 21.78125 47.21875 15.09375 
Q 47.21875 7.46875 41.1875 3.015625 
Q 35.15625 -1.421875 24.609375 -1.421875 
Q 20.21875 -1.421875 15.453125 -0.5625 
Q 10.6875 0.296875 5.421875 2 
L 5.421875 11.28125 
Q 10.40625 8.6875 15.234375 7.390625 
Q 20.0625 6.109375 24.8125 6.109375 
Q 31.15625 6.109375 34.5625 8.28125 
Q 37.984375 10.453125 37.984375 14.40625 
Q 37.984375 18.0625 35.515625 20.015625 
Q 33.0625 21.96875 24.703125 23.78125 
L 21.578125 24.515625 
Q 13.234375 26.265625 9.515625 29.90625 
Q 5.8125 33.546875 5.8125 39.890625 
Q 5.8125 47.609375 11.28125 51.796875 
Q 16.75 56 26.8125 56 
Q 31.78125 56 36.171875 55.265625 
Q 40.578125 54.546875 44.28125 53.078125 
z
" id="DejaVuSans-73"/>
     </defs>
     <g transform="translate(683.417187 806.392188)scale(0.2 -0.2)">
      <use xlink:href="#DejaVuSans-31"/>
      <use x="63.623047" xlink:href="#DejaVuSans-35"/>
      <use x="127.246094" xlink:href="#DejaVuSans-2d"/>
      <use x="163.330078" xlink:href="#DejaVuSans-4d"/>
      <use x="249.609375" xlink:href="#DejaVuSans-69"/>
      <use x="277.392578" xlink:href="#DejaVuSans-6e"/>
      <use x="340.771484" xlink:href="#DejaVuSans-75"/>
      <use x="404.150391" xlink:href="#DejaVuSans-74"/>
      <use x="443.359375" xlink:href="#DejaVuSans-65"/>
      <use x="504.882812" xlink:href="#DejaVuSans-20"/>
      <use x="536.669922" xlink:href="#DejaVuSans-53"/>
      <use x="600.146484" xlink:href="#DejaVuSans-74"/>
      <use x="639.355469" xlink:href="#DejaVuSans-65"/>
      <use x="700.878906" xlink:href="#DejaVuSans-70"/>
      <use x="764.355469" xlink:href="#DejaVuSans-73"/>
     </g>
    </g>
   </g>
   <g id="matplotlib.axis_2">
    <g id="ytick_1">
     <g id="line2d_8">
      <defs>
       <path d="M 0 0 
L -3.5 0 
" id="m3a1aec73bc" style="stroke:#000000;stroke-width:0.8;"/>
      </defs>
      <g>
       <use style="stroke:#000000;stroke-width:0.8;" x="104.425" xlink:href="#m3a1aec73bc" y="723.85063"/>
      </g>
     </g>
     <g id="text_9">
      <!-- 0 -->
      <g transform="translate(81.51875 733.348677)scale(0.25 -0.25)">
       <use xlink:href="#DejaVuSans-30"/>
      </g>
     </g>
    </g>
    <g id="ytick_2">
     <g id="line2d_9">
      <g>
       <use style="stroke:#000000;stroke-width:0.8;" x="104.425" xlink:href="#m3a1aec73bc" y="581.06763"/>
      </g>
     </g>
     <g id="text_10">
      <!-- 2000 -->
      <g transform="translate(33.8 590.565677)scale(0.25 -0.25)">
       <use xlink:href="#DejaVuSans-32"/>
       <use x="63.623047" xlink:href="#DejaVuSans-30"/>
       <use x="127.246094" xlink:href="#DejaVuSans-30"/>
       <use x="190.869141" xlink:href="#DejaVuSans-30"/>
      </g>
     </g>
    </g>
    <g id="ytick_3">
     <g id="line2d_10">
      <g>
       <use style="stroke:#000000;stroke-width:0.8;" x="104.425" xlink:href="#m3a1aec73bc" y="438.28463"/>
      </g>
     </g>
     <g id="text_11">
      <!-- 4000 -->
      <g transform="translate(33.8 447.782677)scale(0.25 -0.25)">
       <use xlink:href="#DejaVuSans-34"/>
       <use x="63.623047" xlink:href="#DejaVuSans-30"/>
       <use x="127.246094" xlink:href="#DejaVuSans-30"/>
       <use x="190.869141" xlink:href="#DejaVuSans-30"/>
      </g>
     </g>
    </g>
    <g id="ytick_4">
     <g id="line2d_11">
      <g>
       <use style="stroke:#000000;stroke-width:0.8;" x="104.425" xlink:href="#m3a1aec73bc" y="295.50163"/>
      </g>
     </g>
     <g id="text_12">
      <!-- 6000 -->
      <g transform="translate(33.8 304.999677)scale(0.25 -0.25)">
       <use xlink:href="#DejaVuSans-36"/>
       <use x="63.623047" xlink:href="#DejaVuSans-30"/>
       <use x="127.246094" xlink:href="#DejaVuSans-30"/>
       <use x="190.869141" xlink:href="#DejaVuSans-30"/>
      </g>
     </g>
    </g>
    <g id="ytick_5">
     <g id="line2d_12">
      <g>
       <use style="stroke:#000000;stroke-width:0.8;" x="104.425" xlink:href="#m3a1aec73bc" y="152.71863"/>
      </g>
     </g>
     <g id="text_13">
      <!-- 8000 -->
      <g transform="translate(33.8 162.216677)scale(0.25 -0.25)">
       <use xlink:href="#DejaVuSans-38"/>
       <use x="63.623047" xlink:href="#DejaVuSans-30"/>
       <use x="127.246094" xlink:href="#DejaVuSans-30"/>
       <use x="190.869141" xlink:href="#DejaVuSans-30"/>
      </g>
     </g>
    </g>
    <g id="text_14">
     <!-- Bandwidth (kbps) -->
     <defs>
      <path d="M 19.671875 34.8125 
L 19.671875 8.109375 
L 35.5 8.109375 
Q 43.453125 8.109375 47.28125 11.40625 
Q 51.125 14.703125 51.125 21.484375 
Q 51.125 28.328125 47.28125 31.5625 
Q 43.453125 34.8125 35.5 34.8125 
z
M 19.671875 64.796875 
L 19.671875 42.828125 
L 34.28125 42.828125 
Q 41.5 42.828125 45.03125 45.53125 
Q 48.578125 48.25 48.578125 53.8125 
Q 48.578125 59.328125 45.03125 62.0625 
Q 41.5 64.796875 34.28125 64.796875 
z
M 9.8125 72.90625 
L 35.015625 72.90625 
Q 46.296875 72.90625 52.390625 68.21875 
Q 58.5 63.53125 58.5 54.890625 
Q 58.5 48.1875 55.375 44.234375 
Q 52.25 40.28125 46.1875 39.3125 
Q 53.46875 37.75 57.5 32.78125 
Q 61.53125 27.828125 61.53125 20.40625 
Q 61.53125 10.640625 54.890625 5.3125 
Q 48.25 0 35.984375 0 
L 9.8125 0 
z
" id="DejaVuSans-42"/>
      <path d="M 34.28125 27.484375 
Q 23.390625 27.484375 19.1875 25 
Q 14.984375 22.515625 14.984375 16.5 
Q 14.984375 11.71875 18.140625 8.90625 
Q 21.296875 6.109375 26.703125 6.109375 
Q 34.1875 6.109375 38.703125 11.40625 
Q 43.21875 16.703125 43.21875 25.484375 
L 43.21875 27.484375 
z
M 52.203125 31.203125 
L 52.203125 0 
L 43.21875 0 
L 43.21875 8.296875 
Q 40.140625 3.328125 35.546875 0.953125 
Q 30.953125 -1.421875 24.3125 -1.421875 
Q 15.921875 -1.421875 10.953125 3.296875 
Q 6 8.015625 6 15.921875 
Q 6 25.140625 12.171875 29.828125 
Q 18.359375 34.515625 30.609375 34.515625 
L 43.21875 34.515625 
L 43.21875 35.40625 
Q 43.21875 41.609375 39.140625 45 
Q 35.0625 48.390625 27.6875 48.390625 
Q 23 48.390625 18.546875 47.265625 
Q 14.109375 46.140625 10.015625 43.890625 
L 10.015625 52.203125 
Q 14.9375 54.109375 19.578125 55.046875 
Q 24.21875 56 28.609375 56 
Q 40.484375 56 46.34375 49.84375 
Q 52.203125 43.703125 52.203125 31.203125 
z
" id="DejaVuSans-61"/>
      <path d="M 45.40625 46.390625 
L 45.40625 75.984375 
L 54.390625 75.984375 
L 54.390625 0 
L 45.40625 0 
L 45.40625 8.203125 
Q 42.578125 3.328125 38.25 0.953125 
Q 33.9375 -1.421875 27.875 -1.421875 
Q 17.96875 -1.421875 11.734375 6.484375 
Q 5.515625 14.40625 5.515625 27.296875 
Q 5.515625 40.1875 11.734375 48.09375 
Q 17.96875 56 27.875 56 
Q 33.9375 56 38.25 53.625 
Q 42.578125 51.265625 45.40625 46.390625 
z
M 14.796875 27.296875 
Q 14.796875 17.390625 18.875 11.75 
Q 22.953125 6.109375 30.078125 6.109375 
Q 37.203125 6.109375 41.296875 11.75 
Q 45.40625 17.390625 45.40625 27.296875 
Q 45.40625 37.203125 41.296875 42.84375 
Q 37.203125 48.484375 30.078125 48.484375 
Q 22.953125 48.484375 18.875 42.84375 
Q 14.796875 37.203125 14.796875 27.296875 
z
" id="DejaVuSans-64"/>
      <path d="M 4.203125 54.6875 
L 13.1875 54.6875 
L 24.421875 12.015625 
L 35.59375 54.6875 
L 46.1875 54.6875 
L 57.421875 12.015625 
L 68.609375 54.6875 
L 77.59375 54.6875 
L 63.28125 0 
L 52.6875 0 
L 40.921875 44.828125 
L 29.109375 0 
L 18.5 0 
z
" id="DejaVuSans-77"/>
      <path d="M 54.890625 33.015625 
L 54.890625 0 
L 45.90625 0 
L 45.90625 32.71875 
Q 45.90625 40.484375 42.875 44.328125 
Q 39.84375 48.1875 33.796875 48.1875 
Q 26.515625 48.1875 22.3125 43.546875 
Q 18.109375 38.921875 18.109375 30.90625 
L 18.109375 0 
L 9.078125 0 
L 9.078125 75.984375 
L 18.109375 75.984375 
L 18.109375 46.1875 
Q 21.34375 51.125 25.703125 53.5625 
Q 30.078125 56 35.796875 56 
Q 45.21875 56 50.046875 50.171875 
Q 54.890625 44.34375 54.890625 33.015625 
z
" id="DejaVuSans-68"/>
      <path d="M 31 75.875 
Q 24.46875 64.65625 21.28125 53.65625 
Q 18.109375 42.671875 18.109375 31.390625 
Q 18.109375 20.125 21.3125 9.0625 
Q 24.515625 -2 31 -13.1875 
L 23.1875 -13.1875 
Q 15.875 -1.703125 12.234375 9.375 
Q 8.59375 20.453125 8.59375 31.390625 
Q 8.59375 42.28125 12.203125 53.3125 
Q 15.828125 64.359375 23.1875 75.875 
z
" id="DejaVuSans-28"/>
      <path d="M 9.078125 75.984375 
L 18.109375 75.984375 
L 18.109375 31.109375 
L 44.921875 54.6875 
L 56.390625 54.6875 
L 27.390625 29.109375 
L 57.625 0 
L 45.90625 0 
L 18.109375 26.703125 
L 18.109375 0 
L 9.078125 0 
z
" id="DejaVuSans-6b"/>
      <path d="M 48.6875 27.296875 
Q 48.6875 37.203125 44.609375 42.84375 
Q 40.53125 48.484375 33.40625 48.484375 
Q 26.265625 48.484375 22.1875 42.84375 
Q 18.109375 37.203125 18.109375 27.296875 
Q 18.109375 17.390625 22.1875 11.75 
Q 26.265625 6.109375 33.40625 6.109375 
Q 40.53125 6.109375 44.609375 11.75 
Q 48.6875 17.390625 48.6875 27.296875 
z
M 18.109375 46.390625 
Q 20.953125 51.265625 25.265625 53.625 
Q 29.59375 56 35.59375 56 
Q 45.5625 56 51.78125 48.09375 
Q 58.015625 40.1875 58.015625 27.296875 
Q 58.015625 14.40625 51.78125 6.484375 
Q 45.5625 -1.421875 35.59375 -1.421875 
Q 29.59375 -1.421875 25.265625 0.953125 
Q 20.953125 3.328125 18.109375 8.203125 
L 18.109375 0 
L 9.078125 0 
L 9.078125 75.984375 
L 18.109375 75.984375 
z
" id="DejaVuSans-62"/>
      <path d="M 8.015625 75.875 
L 15.828125 75.875 
Q 23.140625 64.359375 26.78125 53.3125 
Q 30.421875 42.28125 30.421875 31.390625 
Q 30.421875 20.453125 26.78125 9.375 
Q 23.140625 -1.703125 15.828125 -13.1875 
L 8.015625 -13.1875 
Q 14.5 -2 17.703125 9.0625 
Q 20.90625 20.125 20.90625 31.390625 
Q 20.90625 42.671875 17.703125 53.65625 
Q 14.5 64.65625 8.015625 75.875 
z
" id="DejaVuSans-29"/>
     </defs>
     <g transform="translate(25.640625 473.065625)rotate(-90)scale(0.2 -0.2)">
      <use xlink:href="#DejaVuSans-42"/>
      <use x="68.603516" xlink:href="#DejaVuSans-61"/>
      <use x="129.882812" xlink:href="#DejaVuSans-6e"/>
      <use x="193.261719" xlink:href="#DejaVuSans-64"/>
      <use x="256.738281" xlink:href="#DejaVuSans-77"/>
      <use x="338.525391" xlink:href="#DejaVuSans-69"/>
      <use x="366.308594" xlink:href="#DejaVuSans-64"/>
      <use x="429.785156" xlink:href="#DejaVuSans-74"/>
      <use x="468.994141" xlink:href="#DejaVuSans-68"/>
      <use x="532.373047" xlink:href="#DejaVuSans-20"/>
      <use x="564.160156" xlink:href="#DejaVuSans-28"/>
      <use x="603.173828" xlink:href="#DejaVuSans-6b"/>
      <use x="661.083984" xlink:href="#DejaVuSans-62"/>
      <use x="724.560547" xlink:href="#DejaVuSans-70"/>
      <use x="788.037109" xlink:href="#DejaVuSans-73"/>
      <use x="840.136719" xlink:href="#DejaVuSans-29"/>
     </g>
    </g>
   </g>
   <g id="line2d_13">
    <path clip-path="url(#p8e6dd9ad8e)" d="M 164.482955 713.76698 
L 165.484755 717.370188 
L 166.486556 710.890374 
L 167.488357 708.164804 
L 168.490158 662.77885 
L 169.491958 658.537245 
L 170.493759 710.934794 
L 171.49556 500.709993 
L 172.49736 549.571606 
L 173.499161 706.671615 
L 174.500962 716.92407 
L 175.502763 715.185287 
L 176.504563 670.820388 
L 177.506364 609.853318 
L 178.508165 719.822879 
L 179.509966 712.078329 
L 180.511766 716.366259 
L 181.513567 715.49751 
L 182.515368 715.387724 
L 183.517169 628.504583 
L 184.518969 721.359224 
L 185.52077 717.478068 
L 186.522571 716.271073 
L 187.524372 721.344631 
L 188.526172 716.40561 
L 189.527973 669.377966 
L 190.529774 690.282033 
L 191.531575 718.461685 
L 193.535176 717.364477 
L 194.536977 714.892739 
L 195.538778 716.429084 
L 196.540578 714.541814 
L 197.542379 719.404053 
L 198.54418 718.025719 
L 199.545981 713.221863 
L 200.547781 719.325358 
L 201.549582 711.64998 
L 202.551383 721.495025 
L 203.553184 715.272227 
L 204.554984 714.336842 
L 205.556785 716.961507 
L 206.558586 629.547856 
L 207.560386 715.626329 
L 208.562187 718.294151 
L 209.563988 709.530445 
L 210.565789 715.032987 
L 211.567589 714.192152 
L 212.56939 647.896421 
L 213.571191 718.771996 
L 214.572992 713.523928 
L 215.574792 715.88905 
L 216.576593 719.979626 
L 217.578394 716.818724 
L 218.580195 712.914723 
L 219.581995 718.589233 
L 220.583796 719.29109 
L 221.585597 702.837413 
L 222.587398 712.867762 
L 223.589198 716.330092 
L 224.590999 588.619266 
L 225.5928 718.44201 
L 226.594601 714.406013 
L 227.596401 720.08687 
L 228.598202 715.375031 
L 229.600003 709.035466 
L 230.601804 692.82357 
L 231.603604 638.770367 
L 232.605405 683.946273 
L 233.607206 718.820228 
L 234.609007 682.928387 
L 235.610807 652.652679 
L 236.612608 689.431674 
L 237.614409 700.158804 
L 238.61621 708.321551 
L 239.61801 687.366082 
L 240.619811 716.2184 
L 241.621612 715.275397 
L 242.623413 695.965424 
L 243.625213 716.804767 
L 244.627014 719.593155 
L 245.628815 711.86384 
L 246.630615 697.482101 
L 247.632416 654.404784 
L 248.634217 588.593244 
L 249.636018 678.899372 
L 250.637818 711.730574 
L 251.639619 687.748741 
L 252.64142 684.759814 
L 253.643221 719.063908 
L 254.645021 715.613636 
L 255.646822 705.687362 
L 256.648623 704.791955 
L 257.650424 698.925159 
L 258.652224 717.297204 
L 259.654025 716.755264 
L 260.655826 719.749267 
L 261.657627 720.47841 
L 262.659427 716.430354 
L 263.661228 479.596514 
L 264.663029 683.433524 
L 265.66483 717.840415 
L 266.66663 717.064311 
L 267.668431 716.521736 
L 268.670232 717.389221 
L 269.672033 719.907278 
L 270.673833 719.437686 
L 271.675634 718.488336 
L 272.677435 721.096503 
L 273.679236 632.318474 
L 274.681036 720.703057 
L 275.682837 686.257451 
L 276.684638 667.263507 
L 277.686439 719.723252 
L 279.69004 720.671331 
L 280.691841 710.621942 
L 281.693641 718.973798 
L 282.695442 697.242861 
L 283.697243 686.547458 
L 284.699044 637.767073 
L 285.700844 715.563505 
L 286.702645 712.629792 
L 288.706247 711.504027 
L 289.708047 665.803315 
L 290.709848 719.779094 
L 291.711649 710.946217 
L 292.71345 569.635474 
L 293.71525 709.516488 
L 294.717051 653.005511 
L 295.718852 714.049369 
L 296.720653 719.511933 
L 297.722453 719.654081 
L 298.724254 650.496342 
L 299.726055 638.063434 
L 300.727856 718.70346 
L 301.729656 721.917662 
L 302.731457 720.490468 
L 303.733258 716.112427 
L 304.735059 641.420419 
L 305.736859 716.007717 
L 306.73866 720.640233 
L 307.740461 649.734195 
L 308.742262 644.547681 
L 309.744062 717.472992 
L 310.745863 721.182173 
L 311.747664 722.027448 
L 312.749465 720.706862 
L 313.751265 666.753929 
L 314.753066 721.339555 
L 315.754867 716.163193 
L 316.756667 600.008909 
L 318.760269 637.213711 
L 319.76207 650.260907 
L 320.76387 714.485336 
L 323.769273 720.675136 
L 324.771073 715.45182 
L 325.772874 646.400055 
L 326.774675 646.934377 
L 327.776476 719.513197 
L 328.778276 639.184752 
L 329.780077 640.990799 
L 330.781878 720.781745 
L 331.783679 644.396652 
L 332.785479 648.313347 
L 333.78728 706.801069 
L 334.789081 720.548852 
L 336.792682 558.798558 
L 337.794483 562.784424 
L 338.796284 715.377573 
L 339.798085 643.625624 
L 340.799885 717.250886 
L 341.801686 500.281009 
L 342.803487 675.47702 
L 343.805288 665.736678 
L 344.807088 639.08576 
L 345.808889 672.328177 
L 346.81069 686.93964 
L 347.812491 715.869374 
L 348.814291 716.868855 
L 349.816092 720.941662 
L 350.817893 715.001254 
L 351.819693 721.239921 
L 352.821494 716.587102 
L 353.823295 718.362051 
L 354.825096 648.040474 
L 355.826896 718.373474 
L 356.828697 717.21217 
L 357.830498 719.418646 
L 358.832299 717.476797 
L 359.834099 719.999929 
L 360.8359 718.870994 
L 361.837701 708.401509 
L 362.839502 572.776064 
L 363.841302 628.679735 
L 364.843103 645.818136 
L 365.844904 593.261298 
L 366.846705 564.573338 
L 367.848505 669.810756 
L 368.850306 642.164162 
L 369.852107 719.609025 
L 370.853908 555.917518 
L 371.855708 719.382472 
L 372.857509 717.888647 
L 373.85931 682.068519 
L 374.861111 605.498115 
L 375.862911 716.115597 
L 376.864712 658.66353 
L 377.866513 629.940666 
L 378.868314 625.577853 
L 379.870114 703.310182 
L 380.871915 643.95878 
L 381.873716 721.731095 
L 382.875517 641.936337 
L 383.877317 519.583364 
L 384.879118 414.358005 
L 385.880919 715.331247 
L 386.88272 640.106816 
L 387.88452 720.048797 
L 388.886321 719.875551 
L 389.888122 715.441661 
L 390.889922 719.082949 
L 391.891723 717.803613 
L 392.893524 715.376937 
L 393.895325 720.329287 
L 394.897125 716.099733 
L 395.898926 586.939502 
L 396.900727 720.265827 
L 398.904328 574.901311 
L 399.906129 715.41818 
L 400.90793 720.824901 
L 401.909731 719.077237 
L 402.911531 632.298806 
L 403.913332 715.772282 
L 404.915133 566.554531 
L 405.916934 620.820323 
L 406.918734 484.878849 
L 407.920535 658.794255 
L 408.922336 717.162674 
L 409.924137 498.101826 
L 410.925937 632.719537 
L 411.927738 717.883571 
L 412.929539 643.456184 
L 413.93134 677.493752 
L 414.93314 415.215973 
L 415.934941 611.518482 
L 416.936742 577.101432 
L 417.938543 690.432426 
L 418.940343 589.356026 
L 419.942144 620.494143 
L 420.943945 718.726305 
L 421.945746 640.721732 
L 422.947546 651.406976 
L 423.949347 504.455348 
L 424.951148 566.029725 
L 425.952948 701.37468 
L 426.954749 679.358812 
L 427.95655 510.779686 
L 428.958351 716.440506 
L 429.960151 714.233402 
L 430.961952 500.751879 
L 431.963753 590.253974 
L 432.965554 627.921393 
L 433.967354 611.984911 
L 434.969155 685.158343 
L 435.970956 712.176056 
L 436.972757 637.678234 
L 437.974557 717.460934 
L 438.976358 717.815035 
L 439.978159 722.286364 
L 440.97996 719.942181 
L 441.98176 651.035741 
L 442.983561 632.894689 
L 443.985362 652.342997 
L 444.987163 717.23121 
L 445.988963 711.973626 
L 446.990764 548.091739 
L 447.992565 714.4168 
L 448.994366 717.400644 
L 449.996166 713.55312 
L 450.997967 719.87301 
L 451.999768 637.482778 
L 453.001569 631.315823 
L 454.003369 630.705348 
L 455.00517 686.789874 
L 456.006971 475.756601 
L 457.008772 587.919943 
L 458.010572 635.970549 
L 459.012373 714.057622 
L 460.014174 715.420086 
L 461.015974 624.638655 
L 462.017775 713.967505 
L 463.019576 712.520642 
L 464.021377 638.125623 
L 465.023177 546.150526 
L 466.024978 691.398274 
L 467.026779 539.954379 
L 468.02858 649.715155 
L 469.03038 637.711231 
L 470.032181 718.436934 
L 471.033982 714.251172 
L 472.035783 575.458478 
L 473.037583 641.011103 
L 474.039384 573.799026 
L 475.041185 719.063908 
L 476.042986 713.541697 
L 477.044786 643.947992 
L 478.046587 715.535583 
L 479.048388 502.635979 
L 480.050189 716.054678 
L 481.051989 717.618944 
L 482.05379 717.264843 
L 483.055591 709.713842 
L 484.057392 662.846115 
L 485.059192 595.530598 
L 486.060993 648.921917 
L 487.062794 503.368291 
L 488.064595 597.301108 
L 489.066395 573.637838 
L 490.068196 605.144014 
L 491.069997 522.967007 
L 492.071798 667.554149 
L 493.073598 598.764469 
L 494.075399 677.481694 
L 495.0772 677.359214 
L 496.079 666.107914 
L 497.080801 489.430772 
L 498.082602 499.789835 
L 499.084403 493.244027 
L 500.086203 506.604711 
L 501.088004 672.179047 
L 502.089805 472.930768 
L 503.091606 615.732173 
L 504.093406 589.802144 
L 505.095207 606.57058 
L 506.097008 674.923022 
L 507.098809 627.833824 
L 508.100609 622.825632 
L 509.10241 591.70909 
L 510.104211 681.263858 
L 511.106012 681.741703 
L 512.107812 678.28699 
L 513.109613 249.135228 
L 514.111414 689.996467 
L 515.113215 687.310875 
L 516.115015 672.502058 
L 517.116816 674.001594 
L 518.118617 673.197568 
L 519.120418 287.260196 
L 520.122218 581.458541 
L 521.124019 633.413149 
L 522.12582 540.010857 
L 523.127621 706.922277 
L 525.131222 568.441808 
L 526.133023 488.6058 
L 527.134824 716.868227 
L 528.136624 714.657946 
L 529.138425 633.911932 
L 530.140226 712.118308 
L 531.142026 706.284516 
L 532.143827 602.409562 
L 533.145628 654.564701 
L 534.147429 314.346445 
L 535.149229 669.558187 
L 536.15103 510.655936 
L 537.152831 673.787105 
L 538.154632 609.959927 
L 539.156432 489.065247 
L 540.158233 496.842794 
L 541.160034 593.272086 
L 542.161835 641.160868 
L 543.163635 552.896858 
L 545.167237 656.863193 
L 546.169038 667.924114 
L 547.170838 493.893847 
L 548.172639 666.141547 
L 549.17444 659.24672 
L 550.176241 660.319177 
L 551.178041 524.217151 
L 552.179842 667.909521 
L 553.181643 589.209431 
L 554.183444 662.540245 
L 555.185244 675.374217 
L 556.187045 691.186955 
L 557.188846 709.773497 
L 558.190647 686.997388 
L 559.192447 703.128055 
L 560.194248 705.473508 
L 561.196049 682.039327 
L 562.19785 627.416898 
L 563.19965 698.142072 
L 564.201451 684.897521 
L 565.203252 562.891668 
L 566.205053 699.583867 
L 567.206853 689.113111 
L 568.208654 716.620099 
L 569.210455 693.990578 
L 570.212255 689.19751 
L 571.214056 718.24719 
L 572.215857 671.063441 
L 573.217658 575.819562 
L 574.219458 422.943389 
L 575.221259 647.530896 
L 576.22306 581.384922 
L 577.224861 682.427697 
L 578.226661 590.118166 
L 579.228462 649.758946 
L 580.230263 608.21544 
L 581.232064 508.379025 
L 582.233864 631.477646 
L 583.235665 455.389398 
L 584.237466 534.162465 
L 585.239267 667.725488 
L 586.241067 375.234199 
L 587.242868 568.943768 
L 588.244669 587.958024 
L 589.24647 595.009598 
L 590.24827 615.996157 
L 591.250071 695.053519 
L 592.251872 654.500613 
L 593.253673 667.136587 
L 594.255473 642.13497 
L 595.257274 656.462765 
L 596.259075 659.718218 
L 597.260876 647.617837 
L 598.262676 669.013705 
L 599.264477 667.531303 
L 601.268079 535.767981 
L 602.269879 652.140567 
L 603.27168 657.508572 
L 604.273481 658.310063 
L 605.275281 659.343177 
L 606.277082 573.924675 
L 607.278883 655.522939 
L 608.280684 670.409809 
L 609.282484 660.67899 
L 610.284285 578.437881 
L 611.286086 643.550742 
L 612.287887 666.660641 
L 613.289687 670.838158 
L 614.291488 670.430748 
L 615.293289 637.143911 
L 616.29509 659.150255 
L 617.29689 589.549576 
L 618.298691 669.328463 
L 619.300492 661.876461 
L 620.302293 660.183376 
L 621.304093 549.410419 
L 622.305894 657.903289 
L 623.307695 711.420891 
L 624.309496 715.972178 
L 625.311296 714.475812 
L 626.313097 715.420722 
L 627.314898 635.087201 
L 628.316699 636.06066 
L 629.318499 685.457866 
L 630.3203 689.43041 
L 631.322101 720.64785 
L 632.323902 645.833999 
L 633.325702 639.89232 
L 634.327503 712.548563 
L 635.329304 714.793112 
L 636.331105 414.248854 
L 637.332905 717.158234 
L 638.334706 702.577869 
L 639.336507 650.812364 
L 640.338307 636.463629 
L 641.340108 637.482143 
L 642.341909 564.945209 
L 643.34371 719.285379 
L 644.34551 718.329054 
L 645.347311 628.438589 
L 646.349112 718.450263 
L 647.350913 714.410453 
L 648.352713 718.808805 
L 649.354514 718.122811 
L 650.356315 719.091194 
L 651.358116 717.571983 
L 652.359916 718.493412 
L 653.361717 715.945528 
L 654.363518 717.325761 
L 655.365319 717.695098 
L 656.367119 718.7904 
L 657.36892 716.616294 
L 658.370721 717.39938 
L 659.372522 718.798653 
L 660.374322 652.939516 
L 661.376123 693.184011 
L 662.377924 574.596069 
L 663.379725 506.337549 
L 664.381525 597.514325 
L 665.383326 604.787377 
L 666.385127 595.59977 
L 667.386928 540.905628 
L 668.388728 547.149371 
L 669.390529 521.294861 
L 670.39233 625.657811 
L 671.394131 587.166684 
L 672.395931 624.758593 
L 673.397732 631.300596 
L 674.399533 601.866987 
L 675.401333 624.108138 
L 676.403134 427.760574 
L 678.406736 613.45462 
L 679.408536 563.556088 
L 680.410337 473.786195 
L 681.412138 533.816609 
L 682.413939 569.730024 
L 683.415739 622.338264 
L 684.41754 623.368207 
L 685.419341 539.090063 
L 686.421142 656.235583 
L 687.422942 652.066955 
L 688.424743 662.967959 
L 689.426544 620.843169 
L 690.428345 605.825567 
L 691.430145 482.088548 
L 692.431946 434.102038 
L 693.433747 441.113004 
L 694.435548 584.722875 
L 695.437348 607.000828 
L 696.439149 358.638367 
L 697.44095 522.961931 
L 698.442751 182.24235 
L 699.444551 357.939051 
L 700.446352 610.791245 
L 701.448153 565.935802 
L 702.449954 498.504788 
L 704.453555 684.474248 
L 705.455356 543.972607 
L 706.457157 480.985 
L 707.458957 552.760422 
L 708.460758 602.283278 
L 709.462559 590.563649 
L 710.46436 509.04408 
L 711.46616 516.494811 
L 712.467961 509.370889 
L 713.469762 487.064379 
L 714.471562 490.817987 
L 715.473363 608.158327 
L 716.475164 545.929683 
L 717.476965 595.280564 
L 718.478765 502.255219 
L 719.480566 575.763085 
L 720.482367 481.1227 
L 721.484168 456.298769 
L 722.485968 599.519634 
L 723.487769 563.151219 
L 724.48957 569.663395 
L 725.491371 527.949813 
L 726.493171 453.12264 
L 727.494972 572.769717 
L 728.496773 547.952761 
L 729.498574 534.950627 
L 730.500374 616.836992 
L 731.502175 608.314432 
L 732.503976 523.240515 
L 733.505777 524.307261 
L 734.507577 598.230147 
L 735.509378 600.394102 
L 736.511179 653.112762 
L 737.51298 542.631082 
L 738.51478 555.352726 
L 739.516581 575.543513 
L 740.518382 579.891098 
L 741.520183 516.621731 
L 742.521983 525.691942 
L 743.523784 301.860236 
L 744.525585 372.78023 
L 745.527386 545.008262 
L 746.529186 547.740807 
L 747.530987 538.10137 
L 748.532788 612.820028 
L 749.534588 613.744633 
L 750.536389 594.644708 
L 751.53819 532.241555 
L 752.539991 670.062054 
L 753.541791 645.670277 
L 754.543592 603.424278 
L 755.545393 400.648938 
L 756.547194 594.559674 
L 757.548994 447.870767 
L 758.550795 537.480742 
L 759.552596 426.563731 
L 760.554397 371.641779 
L 761.556197 261.884801 
L 762.557998 510.45414 
L 763.559799 425.950721 
L 764.5616 204.269005 
L 765.5634 421.948984 
L 766.565201 428.775282 
L 767.567002 151.229882 
L 768.568803 640.560544 
L 769.570603 550.338187 
L 770.572404 525.579615 
L 771.574205 598.912335 
L 772.576006 520.392473 
L 773.577806 584.688607 
L 774.579607 430.761551 
L 775.581408 599.473308 
L 776.583209 592.726976 
L 777.585009 609.870452 
L 778.58681 556.964589 
L 779.588611 529.056545 
L 780.590412 610.913082 
L 781.592212 581.327181 
L 782.594013 652.330939 
L 783.595814 619.245263 
L 784.597614 638.446092 
L 785.599415 611.401721 
L 786.601216 493.170415 
L 787.603017 586.126589 
L 788.604817 520.804323 
L 789.606618 584.656881 
L 790.608419 504.168511 
L 791.61022 597.773876 
L 792.61202 525.443178 
L 793.613821 589.72345 
L 794.615622 644.310347 
L 795.617423 665.763336 
L 796.619223 656.181004 
L 797.621024 665.765235 
L 798.622825 656.523684 
L 799.624626 659.977769 
L 800.626426 645.516071 
L 801.628227 574.168991 
L 802.630028 435.359164 
L 803.631829 561.540627 
L 804.633629 509.624093 
L 805.63543 444.99416 
L 806.637231 586.80116 
L 807.639032 620.427506 
L 808.640832 595.089556 
L 809.642633 517.098305 
L 810.644434 591.7313 
L 811.646235 514.54598 
L 812.648035 589.783104 
L 813.649836 613.759861 
L 814.651637 653.77464 
L 815.653438 610.974008 
L 816.655238 670.872426 
L 819.66064 575.742138 
L 820.662441 406.503676 
L 821.664242 560.444689 
L 822.666043 623.724208 
L 823.667843 604.77215 
L 824.669644 498.55175 
L 825.671445 566.097625 
L 826.673246 432.272516 
L 827.675046 538.152136 
L 828.676847 615.857822 
L 829.678648 393.031936 
L 830.680449 606.800932 
L 831.682249 615.285419 
L 832.68405 472.640126 
L 833.685851 229.798605 
L 834.687652 571.84639 
L 835.689452 512.709476 
L 836.691253 594.438466 
L 837.693054 531.345514 
L 838.694855 546.946298 
L 839.696655 615.946661 
L 840.698456 605.349621 
L 841.700257 600.444233 
L 842.702058 531.236363 
L 843.703858 594.292506 
L 844.705659 470.943864 
L 845.70746 574.213411 
L 846.709261 598.954214 
L 847.711061 434.873701 
L 848.712862 416.726939 
L 849.714663 561.855385 
L 850.716464 323.908465 
L 851.718264 475.356173 
L 852.720065 432.938199 
L 853.721866 551.953227 
L 854.723667 560.398998 
L 855.725467 433.843765 
L 856.727268 377.197622 
L 857.729069 353.505796 
L 858.730869 405.500383 
L 859.73267 589.211337 
L 860.734471 617.547737 
L 861.736272 524.026771 
L 862.738072 615.367276 
L 863.739873 401.458674 
L 864.741674 435.747533 
L 865.743475 434.510083 
L 866.745275 469.245696 
L 867.747076 557.380245 
L 868.748877 614.179322 
L 869.750678 562.072415 
L 870.752478 366.777633 
L 871.754279 503.515522 
L 872.75608 564.159581 
L 873.757881 426.238821 
L 874.759681 411.850735 
L 875.761482 562.433499 
L 876.763283 599.200436 
L 877.765084 607.677941 
L 878.766884 617.916431 
L 879.768685 596.760431 
L 880.770486 625.52391 
L 881.772287 618.987625 
L 882.774087 624.093545 
L 883.775888 597.787205 
L 884.777689 625.336071 
L 885.77949 602.453354 
L 886.78129 538.409146 
L 887.783091 605.350257 
L 888.784892 615.577967 
L 889.786693 480.076265 
L 890.788493 441.645428 
L 891.790294 588.976537 
L 892.792095 587.51888 
L 893.793895 521.574716 
L 894.795696 640.640503 
L 895.797497 543.955473 
L 896.799298 369.718963 
L 897.801098 650.39925 
L 898.802899 478.032876 
L 899.8047 701.269977 
L 900.806501 636.610217 
L 901.808301 616.383891 
L 902.810102 581.013687 
L 903.811903 501.603493 
L 904.813704 579.050263 
L 905.815504 607.54975 
L 906.817305 601.177188 
L 907.819106 520.38422 
L 908.820907 473.164297 
L 909.822707 548.987781 
L 910.824508 518.472198 
L 911.826309 587.881235 
L 912.82811 579.305374 
L 914.831711 387.713433 
L 915.833512 549.468803 
L 916.835313 482.942712 
L 917.837113 340.549353 
L 918.838914 578.791983 
L 919.840715 531.070735 
L 920.842516 388.664682 
L 921.844316 528.676421 
L 922.846117 521.265034 
L 923.847918 606.736208 
L 924.849719 620.577271 
L 925.851519 598.686417 
L 926.85332 613.623425 
L 927.855121 638.665021 
L 928.856921 548.148852 
L 929.858722 605.920125 
L 930.860523 533.819786 
L 931.862324 530.306053 
L 932.864124 471.153277 
L 933.865925 625.535968 
L 934.867726 513.509697 
L 935.869527 600.231015 
L 936.871327 518.505831 
L 937.873128 379.264485 
L 938.874929 429.823624 
L 939.87673 399.693876 
L 940.87853 472.931403 
L 941.880331 618.735692 
L 942.882132 599.885794 
L 943.883933 600.224033 
L 944.885733 594.65359 
L 945.887534 500.084282 
L 946.889335 618.995871 
L 947.891136 605.871257 
L 948.892936 597.339181 
L 949.894737 619.873508 
L 950.896538 593.735973 
L 951.898339 509.101828 
L 952.900139 611.367453 
L 953.90194 539.644697 
L 954.903741 489.506289 
L 955.905542 597.283338 
L 956.907342 603.034002 
L 957.909143 626.409164 
L 958.910944 600.216415 
L 959.912745 596.521191 
L 960.914545 595.108596 
L 961.916346 586.977575 
L 962.918147 523.80403 
L 963.919947 508.125193 
L 964.921748 629.67731 
L 964.921748 629.67731 
" style="fill:none;stroke:#1f77b4;stroke-linecap:square;stroke-width:1.5;"/>
   </g>
   <g id="line2d_14">
    <path clip-path="url(#p8e6dd9ad8e)" d="M 965.923549 608.443258 
L 966.92535 614.975101 
L 967.92715 584.602937 
L 968.928951 534.965855 
L 969.930752 564.807502 
L 971.934353 598.761299 
L 972.936154 666.318597 
L 973.937955 660.399136 
L 974.939756 611.729166 
L 975.941556 658.415401 
L 976.943357 269.422472 
L 977.945158 535.095309 
L 978.946959 611.271632 
L 979.948759 478.026536 
L 980.95056 557.797171 
L 981.952361 604.032212 
L 982.954162 520.117058 
L 983.955962 589.018423 
L 984.957763 592.605767 
L 985.959564 611.798972 
L 986.961365 522.406027 
L 987.963165 631.810802 
L 988.964966 556.737407 
L 989.966767 648.607794 
L 990.968568 548.767574 
L 991.970368 609.371026 
L 992.972169 327.457101 
L 993.97397 549.041089 
L 994.975771 588.284197 
L 995.977571 452.420147 
L 996.979372 585.946368 
L 997.981173 581.805661 
L 998.982974 599.037984 
L 999.984774 581.544839 
L 1000.986575 571.885098 
L 1001.988376 532.318344 
L 1002.990176 567.582568 
L 1003.991977 586.916022 
L 1004.993778 441.003854 
L 1005.995579 547.829654 
L 1006.997379 602.804279 
L 1007.99918 302.913653 
L 1009.000981 517.481598 
L 1010.002782 553.418495 
L 1011.004582 185.611393 
L 1013.008184 590.186067 
L 1014.009985 392.2057 
L 1015.011785 399.270603 
L 1016.013586 383.888748 
L 1017.015387 545.117412 
L 1018.017188 622.035564 
L 1019.018988 501.203073 
L 1020.020789 483.643298 
L 1021.02259 561.009474 
L 1022.024391 604.275893 
L 1023.026191 536.111289 
L 1024.027992 521.280262 
L 1025.029793 530.236247 
L 1026.031594 529.60229 
L 1027.033394 417.702304 
L 1028.035195 391.024728 
L 1029.036996 316.695068 
L 1030.038797 554.635641 
L 1031.040597 435.821781 
L 1032.042398 592.303703 
L 1033.044199 455.492202 
L 1034.046 619.603812 
L 1035.0478 561.261408 
L 1036.049601 518.39668 
L 1037.051402 609.568388 
L 1038.053202 556.564797 
L 1039.055003 597.699629 
L 1040.056804 538.075355 
L 1041.058605 589.111075 
L 1042.060405 596.912738 
L 1043.062206 608.191959 
L 1044.064007 552.485643 
L 1045.065808 595.189183 
L 1046.067608 599.537404 
L 1047.069409 614.298631 
L 1048.07121 508.11377 
L 1049.073011 584.698123 
L 1050.074811 601.342181 
L 1051.076612 541.483742 
L 1052.078413 569.172221 
L 1053.080214 583.575535 
L 1054.082014 586.075822 
L 1055.083815 565.046107 
L 1056.085616 551.280555 
L 1057.087417 616.843339 
L 1058.089217 608.877953 
L 1059.091018 616.097062 
L 1060.092819 599.013233 
L 1061.09462 597.909042 
L 1062.09642 614.973831 
L 1063.098221 604.892716 
L 1064.100022 598.59313 
L 1065.101823 612.630926 
L 1066.103623 613.202058 
L 1067.105424 504.173587 
L 1068.107225 591.217916 
L 1069.109026 459.410803 
L 1070.110826 508.979349 
L 1071.112627 464.745811 
L 1072.114428 592.1019 
L 1073.116228 451.379416 
L 1074.118029 448.959087 
L 1075.11983 620.048024 
L 1076.121631 384.148934 
L 1077.123431 597.224954 
L 1078.125232 605.803992 
L 1079.127033 548.872284 
L 1080.128834 640.244523 
L 1081.130634 602.976889 
L 1082.132435 629.774402 
L 1083.134236 619.594289 
L 1084.136037 601.152436 
L 1085.137837 600.51531 
L 1086.139638 565.270119 
L 1087.141439 615.584307 
L 1088.14324 513.215878 
L 1089.14504 642.828574 
L 1090.146841 619.421685 
L 1091.148642 615.636979 
L 1092.150443 558.516169 
L 1093.152243 551.976708 
L 1094.154044 618.731879 
L 1095.155845 607.82707 
L 1096.157646 619.221789 
L 1097.159446 621.713188 
L 1098.161247 598.103227 
L 1099.163048 633.866877 
L 1100.164849 623.952661 
L 1101.166649 550.3274 
L 1102.16845 605.133226 
L 1103.170251 591.693855 
L 1104.172052 441.344627 
L 1105.173852 609.36595 
L 1106.175653 372.917937 
L 1107.177454 415.933694 
L 1108.179254 339.317607 
L 1109.181055 427.03016 
L 1110.182856 501.072341 
L 1111.184657 527.589999 
L 1112.186457 443.832228 
L 1113.188258 448.336553 
L 1114.190059 612.280629 
L 1115.19186 516.053133 
L 1116.19366 613.964198 
L 1117.195461 380.167509 
L 1118.197262 377.183658 
L 1119.199063 422.07781 
L 1120.200863 474.561664 
L 1121.202664 459.565008 
L 1122.204465 542.070737 
L 1123.206266 609.750514 
L 1124.208066 620.149557 
L 1125.209867 612.343454 
L 1126.211668 611.306528 
L 1127.213469 620.85649 
L 1128.215269 516.676938 
L 1129.21707 453.343475 
L 1130.218871 672.324372 
L 1132.222472 512.316666 
L 1133.224273 660.538742 
L 1134.226074 629.159486 
L 1135.227875 511.178843 
L 1136.229675 625.61085 
L 1137.231476 597.596826 
L 1138.233277 604.214975 
L 1139.235078 602.357525 
L 1140.236878 522.267049 
L 1141.238679 594.725302 
L 1142.24048 595.028002 
L 1143.24228 615.360937 
L 1144.244081 582.756275 
L 1145.245882 492.535188 
L 1146.247683 491.853007 
L 1147.249483 524.854277 
L 1148.251284 599.078592 
L 1149.253085 602.711627 
L 1150.254886 569.541551 
L 1151.256686 507.541367 
L 1152.258487 463.407456 
L 1153.260288 547.173487 
L 1154.262089 618.90576 
L 1155.263889 630.8513 
L 1156.26569 610.619906 
L 1157.267491 622.590197 
L 1158.269292 607.918452 
L 1159.271092 606.199344 
L 1160.272893 473.280429 
L 1161.274694 586.999785 
L 1162.276495 442.491331 
L 1163.278295 602.553616 
L 1164.280096 539.422591 
L 1165.281897 666.576878 
L 1165.281897 666.576878 
" style="fill:none;stroke:#ff7f0e;stroke-linecap:square;stroke-width:1.5;"/>
   </g>
   <g id="line2d_15">
    <path clip-path="url(#p8e6dd9ad8e)" d="M 1166.283698 662.636067 
L 1167.285498 664.070244 
L 1168.287299 712.044061 
L 1169.2891 677.870699 
L 1170.290901 658.362729 
L 1171.292701 654.435247 
L 1172.294502 650.034361 
L 1173.296303 654.376227 
L 1174.298104 655.513415 
L 1175.299904 652.421692 
L 1176.301705 577.496784 
L 1177.303506 532.245361 
L 1178.305307 520.216685 
L 1179.307107 585.647473 
L 1180.308908 615.653478 
L 1181.310709 582.302546 
L 1182.312509 599.986692 
L 1183.31431 711.860028 
L 1184.316111 717.171555 
L 1185.317912 704.435312 
L 1186.319712 715.911895 
L 1187.321513 713.18252 
L 1188.323314 711.855587 
L 1189.325115 716.943738 
L 1190.326915 715.890956 
L 1191.328716 612.063599 
L 1192.330517 566.451727 
L 1193.332318 508.275586 
L 1194.334118 598.214919 
L 1195.335919 717.983198 
L 1196.33772 634.175289 
L 1197.339521 566.439669 
L 1198.341321 629.987627 
L 1199.343122 711.156272 
L 1200.344923 716.051508 
L 1201.346724 569.729389 
L 1202.348524 712.489544 
L 1203.350325 714.916219 
L 1204.352126 713.818382 
L 1205.353927 450.876185 
L 1206.355727 557.872053 
L 1207.357528 557.320597 
L 1208.359329 642.690231 
L 1209.36113 606.092728 
L 1210.36293 684.330837 
L 1211.364731 713.049253 
L 1212.366532 378.557552 
L 1213.368333 616.017103 
L 1214.370133 717.18235 
L 1215.371934 708.331703 
L 1216.373735 660.479729 
L 1217.375535 718.455974 
L 1218.377336 720.906759 
L 1219.379137 716.637233 
L 1221.382738 716.850458 
L 1222.384539 717.283883 
L 1223.38634 714.76709 
L 1224.388141 719.227002 
L 1225.389941 713.782208 
L 1226.391742 674.150088 
L 1227.393543 694.461448 
L 1228.395344 709.83378 
L 1229.397144 685.95031 
L 1230.398945 669.725086 
L 1231.400746 704.250015 
L 1232.402547 705.272977 
L 1233.404347 624.716707 
L 1234.406148 561.869977 
L 1235.407949 632.96259 
L 1236.40975 618.835318 
L 1237.41155 712.920434 
L 1238.413351 625.296092 
L 1239.415152 576.313906 
L 1240.416953 711.979337 
L 1241.418753 633.26973 
L 1242.420554 545.607315 
L 1243.422355 642.606468 
L 1245.425956 634.984397 
L 1246.427757 630.718041 
L 1247.429558 716.681017 
L 1248.431359 715.80655 
L 1249.433159 715.762765 
L 1250.43496 631.732114 
L 1251.436761 501.169433 
L 1253.440362 646.234427 
L 1254.442163 648.524031 
L 1255.443964 716.031197 
L 1257.447565 571.822909 
L 1258.449366 667.424695 
L 1259.451167 609.704824 
L 1260.452967 718.119006 
L 1261.454768 716.519837 
L 1262.456569 690.106881 
L 1263.45837 673.891172 
L 1264.46017 640.707775 
L 1265.461971 654.29881 
L 1266.463772 652.253522 
L 1267.465573 654.963858 
L 1268.467373 650.434153 
L 1269.469174 720.244881 
L 1270.470975 714.087443 
L 1271.472776 706.741421 
L 1272.474576 555.216925 
L 1273.476377 717.969241 
L 1274.478178 711.870187 
L 1275.479979 717.781403 
L 1276.481779 714.103313 
L 1277.48358 715.179575 
L 1278.485381 670.029056 
L 1279.487182 718.672369 
L 1280.488982 48.013636 
L 1281.490783 697.647094 
L 1282.492584 501.901753 
L 1283.494385 643.043705 
L 1284.496185 715.946798 
L 1285.497986 717.085257 
L 1286.499787 640.818824 
L 1287.501587 704.738012 
L 1288.503388 565.722584 
L 1289.505189 620.178114 
L 1290.50699 631.772094 
L 1291.50879 713.364646 
L 1292.510591 715.810998 
L 1293.512392 711.41201 
L 1294.514193 701.162725 
L 1295.515993 718.569565 
L 1296.517794 716.755264 
L 1297.519595 647.976379 
L 1298.521396 568.179722 
L 1299.523196 562.48363 
L 1300.524997 599.129994 
L 1301.526798 551.243117 
L 1302.528599 639.619447 
L 1303.530399 642.276482 
L 1304.5322 637.823558 
L 1305.534001 719.044868 
L 1306.535802 649.003146 
L 1307.537602 716.413221 
L 1308.539403 718.738363 
L 1309.541204 716.673407 
L 1310.543005 717.532639 
L 1311.544805 720.783651 
L 1312.546606 717.929897 
L 1313.548407 645.662659 
L 1314.550208 719.789881 
L 1315.552008 718.714882 
L 1316.553809 648.207366 
L 1317.55561 720.249329 
L 1318.557411 576.643263 
L 1319.559211 721.862455 
L 1320.561012 648.059507 
L 1321.562813 629.309879 
L 1322.564614 639.45826 
L 1323.566414 717.891182 
L 1324.568215 685.406464 
L 1325.570016 515.8837 
L 1327.573617 536.844879 
L 1328.575418 407.378136 
L 1329.577219 646.135428 
L 1330.579019 717.523123 
L 1331.58082 719.009972 
L 1332.582621 715.151654 
L 1333.584422 566.862942 
L 1334.586222 629.038913 
L 1335.588023 528.809052 
L 1336.589824 587.888217 
L 1337.591625 717.700174 
L 1338.593425 719.478929 
L 1339.595226 705.978639 
L 1340.597027 658.852003 
L 1341.598828 480.535069 
L 1342.600628 711.999641 
L 1343.602429 636.928145 
L 1344.60423 715.346474 
L 1345.606031 637.196577 
L 1346.607831 636.716826 
L 1347.609632 638.054546 
L 1348.611433 715.941723 
L 1349.613234 719.131173 
L 1350.615034 644.095216 
L 1351.616835 643.849001 
L 1352.618636 583.835714 
L 1353.620437 717.559297 
L 1354.622237 713.391932 
L 1355.624038 716.314229 
L 1356.625839 716.816825 
L 1357.62764 643.434609 
L 1358.62944 720.393375 
L 1359.631241 714.164867 
L 1360.633042 716.557274 
L 1361.634842 655.742504 
L 1362.636643 630.058698 
L 1363.638444 651.853095 
L 1364.640245 719.135621 
L 1365.642045 647.505509 
L 1365.642045 647.505509 
" style="fill:none;stroke:#2ca02c;stroke-linecap:square;stroke-width:1.5;"/>
   </g>
   <g id="line2d_16">
    <path clip-path="url(#p8e6dd9ad8e)" d="M 211.567589 697.164686 
L 212.56939 695.792382 
L 214.572992 695.876452 
L 215.574792 696.037374 
L 217.578394 698.443254 
L 218.580195 698.484503 
L 219.581995 703.023654 
L 220.583796 706.559476 
L 223.589198 706.418941 
L 224.590999 704.706418 
L 225.5928 706.968682 
L 226.594601 706.855831 
L 227.596401 707.022675 
L 228.598202 707.002025 
L 229.600003 706.867399 
L 230.601804 706.397312 
L 231.603604 706.611183 
L 232.605405 705.831746 
L 233.607206 705.859708 
L 234.609007 705.165069 
L 235.610807 703.733986 
L 236.612608 703.172029 
L 237.614409 703.813297 
L 238.61621 704.18912 
L 239.61801 703.541295 
L 241.621612 703.461839 
L 242.623413 703.06752 
L 245.628815 703.023495 
L 246.630615 702.595503 
L 247.632416 701.370147 
L 248.634217 698.646561 
L 249.636018 697.964257 
L 250.637818 697.760831 
L 252.64142 696.571237 
L 253.643221 696.615037 
L 254.645021 698.408074 
L 257.650424 697.698773 
L 259.654025 697.799342 
L 260.655826 699.296277 
L 262.659427 699.392377 
L 263.661228 694.469616 
L 264.663029 693.708239 
L 268.670232 693.733279 
L 269.672033 694.088901 
L 271.675634 694.270738 
L 272.677435 697.03068 
L 273.679236 695.23644 
L 274.681036 695.367628 
L 275.682837 694.662849 
L 276.684638 693.660526 
L 277.686439 693.883188 
L 278.688239 694.452773 
L 279.69004 696.159043 
L 280.691841 696.714786 
L 281.693641 696.717985 
L 282.695442 697.016204 
L 283.697243 697.722345 
L 284.699044 696.645999 
L 285.700844 696.96693 
L 286.702645 697.056685 
L 287.704446 697.571788 
L 288.706247 697.473572 
L 289.708047 696.442904 
L 290.709848 696.939022 
L 291.711649 696.816969 
L 292.71345 693.69285 
L 293.71525 693.643947 
L 294.717051 692.717352 
L 295.718852 693.959947 
L 296.720653 696.68742 
L 297.722453 697.536476 
L 298.724254 696.260763 
L 299.726055 695.225653 
L 300.727856 695.932812 
L 302.731457 696.093866 
L 303.733258 696.311055 
L 304.735059 694.990814 
L 305.736859 695.346701 
L 306.73866 695.416347 
L 308.742262 692.453375 
L 309.744062 692.390762 
L 310.745863 692.489759 
L 311.747664 697.540403 
L 312.749465 698.316931 
L 313.751265 697.252629 
L 315.754867 697.334227 
L 316.756667 694.888804 
L 317.758468 692.800761 
L 318.760269 691.087762 
L 319.76207 689.666357 
L 320.76387 689.528624 
L 321.765671 691.283586 
L 322.767472 691.245524 
L 323.769273 691.962559 
L 324.771073 692.966482 
L 326.774675 689.913306 
L 327.776476 689.889178 
L 329.780077 686.776257 
L 330.781878 687.266651 
L 331.783679 686.388509 
L 332.785479 686.608223 
L 333.78728 686.425672 
L 334.789081 686.590652 
L 335.790882 685.115532 
L 336.792682 681.934168 
L 337.794483 679.787941 
L 338.796284 679.696243 
L 339.798085 678.293731 
L 340.799885 681.369052 
L 341.801686 677.009979 
L 342.803487 677.478136 
L 343.805288 676.471621 
L 344.807088 674.796076 
L 345.808889 673.81012 
L 346.81069 674.569355 
L 347.812491 676.190312 
L 351.819693 676.124222 
L 352.821494 677.690195 
L 353.823295 677.739243 
L 354.825096 676.226748 
L 356.828697 679.170577 
L 357.830498 679.211111 
L 360.8359 679.053429 
L 361.837701 679.921087 
L 362.839502 676.826014 
L 363.841302 675.003442 
L 364.843103 675.957801 
L 365.844904 675.407386 
L 366.846705 673.894044 
L 367.848505 674.301333 
L 368.850306 672.794642 
L 369.852107 672.858233 
L 370.853908 669.463263 
L 372.857509 669.4871 
L 373.85931 670.230193 
L 374.861111 669.366938 
L 375.862911 669.296154 
L 376.864712 669.701962 
L 377.866513 669.471751 
L 378.868314 667.488337 
L 379.870114 668.715702 
L 380.871915 668.624982 
L 381.873716 668.936024 
L 382.875517 667.298263 
L 383.877317 664.762807 
L 384.879118 661.753629 
L 385.880919 664.931688 
L 386.88272 663.363547 
L 387.88452 664.955697 
L 388.886321 665.010377 
L 389.888122 669.492891 
L 390.889922 670.401348 
L 391.891723 671.486075 
L 392.893524 673.075475 
L 393.895325 674.075498 
L 394.897125 674.683 
L 395.898926 671.996961 
L 396.900727 672.067731 
L 397.902528 670.50743 
L 398.904328 667.588682 
L 399.906129 667.467395 
L 401.909731 667.570582 
L 402.911531 667.242631 
L 403.913332 667.18844 
L 404.915133 664.049739 
L 405.916934 661.995607 
L 406.918734 657.149816 
L 407.920535 655.874698 
L 408.922336 655.839108 
L 409.924137 651.457865 
L 410.925937 652.706687 
L 411.927738 654.5651 
L 412.929539 654.515893 
L 413.93134 656.270736 
L 414.93314 653.159124 
L 416.936742 650.589228 
L 417.938543 649.981382 
L 418.940343 650.678018 
L 419.942144 648.617844 
L 420.943945 648.635296 
L 421.945746 647.773904 
L 422.947546 648.730339 
L 423.949347 644.32075 
L 424.951148 642.390879 
L 425.952948 643.879088 
L 426.954749 644.999525 
L 427.95655 640.988473 
L 428.958351 642.498509 
L 429.960151 642.342307 
L 430.961952 639.400964 
L 431.963753 640.873268 
L 432.965554 645.322505 
L 433.967354 643.169457 
L 434.969155 644.10803 
L 435.970956 643.944015 
L 436.972757 642.231571 
L 440.97996 642.435724 
L 441.98176 640.992108 
L 442.983561 639.25867 
L 443.985362 640.621243 
L 444.987163 640.558022 
L 445.988963 641.931488 
L 446.990764 641.372956 
L 448.994366 641.280755 
L 449.996166 641.165669 
L 450.997967 642.990132 
L 451.999768 641.3591 
L 453.001569 642.708294 
L 454.003369 642.914232 
L 455.00517 647.120712 
L 456.006971 643.307427 
L 457.008772 640.61487 
L 458.010572 643.487135 
L 459.012373 645.181679 
L 460.014174 645.130356 
L 461.015974 644.738324 
L 462.017775 645.498194 
L 463.019576 651.692041 
L 464.021377 652.246357 
L 465.023177 651.601546 
L 466.024978 651.621668 
L 467.026779 650.592467 
L 468.02858 651.201238 
L 469.03038 649.513424 
L 470.032181 651.132491 
L 472.035783 653.920977 
L 473.037583 655.483089 
L 474.039384 652.825263 
L 475.041185 653.652452 
L 476.042986 657.876661 
L 477.044786 656.3664 
L 479.048388 656.432781 
L 480.050189 659.053629 
L 481.051989 660.922328 
L 482.05379 663.11566 
L 483.055591 663.627233 
L 485.059192 661.72145 
L 486.060993 660.293554 
L 487.062794 655.825913 
L 488.064595 653.222054 
L 489.066395 650.174047 
L 490.068196 649.217969 
L 491.069997 646.927809 
L 492.071798 647.244708 
L 493.073598 644.776651 
L 494.075399 644.058069 
L 495.0772 646.751141 
L 496.079 645.744706 
L 499.084403 631.820495 
L 500.086203 629.093869 
L 501.088004 629.945186 
L 502.089805 626.658215 
L 503.091606 625.177847 
L 504.093406 627.553795 
L 505.095207 627.94235 
L 506.097008 628.75386 
L 508.100609 625.02848 
L 511.106012 623.019893 
L 512.107812 623.856589 
L 513.109613 617.66877 
L 514.111414 617.639566 
L 515.113215 620.709493 
L 516.115015 621.18422 
L 517.116816 621.940269 
L 518.118617 620.997782 
L 519.120418 612.102137 
L 520.122218 612.227138 
L 521.124019 612.068847 
L 522.12582 611.364927 
L 523.127621 611.111977 
L 525.131222 607.947998 
L 526.133023 603.220294 
L 527.134824 607.683466 
L 528.136624 607.654367 
L 529.138425 605.910471 
L 531.142026 605.731808 
L 532.143827 604.472713 
L 533.145628 605.70259 
L 534.147429 598.732267 
L 535.149229 602.194557 
L 536.15103 600.389449 
L 537.152831 602.475892 
L 538.154632 602.576224 
L 539.156432 601.869937 
L 540.158233 598.313451 
L 541.160034 598.199026 
L 542.161835 597.442342 
L 543.163635 594.849376 
L 544.165436 593.63736 
L 546.169038 600.628333 
L 547.170838 600.641871 
L 548.172639 603.965555 
L 549.17444 603.696132 
L 550.176241 607.600057 
L 551.178041 605.693494 
L 552.179842 607.320731 
L 554.183444 606.701066 
L 555.185244 607.69149 
L 556.187045 609.115685 
L 557.188846 611.57536 
L 558.190647 611.694808 
L 560.194248 612.706743 
L 561.196049 621.725579 
L 562.19785 620.421838 
L 564.201451 620.905726 
L 565.203252 618.590936 
L 566.205053 619.140651 
L 567.206853 627.512587 
L 568.208654 630.328452 
L 569.210455 631.590482 
L 570.212255 634.698537 
L 571.214056 634.934473 
L 572.215857 635.640442 
L 573.217658 635.794146 
L 575.221259 632.981651 
L 576.22306 630.20513 
L 577.224861 631.215875 
L 578.226661 628.674205 
L 579.228462 627.496589 
L 580.230263 627.617545 
L 581.232064 624.57201 
L 582.233864 631.17891 
L 583.235665 626.71706 
L 584.237466 627.20678 
L 585.239267 627.080496 
L 586.241067 622.190377 
L 587.242868 623.854513 
L 588.244669 625.752746 
L 589.24647 625.788945 
L 590.24827 625.26468 
L 591.250071 628.226277 
L 592.251872 629.196474 
L 593.253673 629.410503 
L 594.255473 628.87323 
L 595.257274 632.260082 
L 597.260876 631.883994 
L 598.262676 632.06513 
L 599.264477 635.050842 
L 600.266278 633.684223 
L 601.268079 632.57086 
L 602.269879 632.3542 
L 603.27168 631.981999 
L 604.273481 631.297064 
L 605.275281 630.246432 
L 606.277082 627.89075 
L 607.278883 626.898977 
L 608.280684 626.168483 
L 609.282484 625.723476 
L 611.286086 623.565761 
L 612.287887 623.185826 
L 613.289687 625.434711 
L 614.291488 624.827354 
L 616.29509 622.547374 
L 617.29689 620.37152 
L 618.298691 619.957582 
L 619.300492 618.783191 
L 620.302293 618.556523 
L 621.304093 618.006333 
L 622.305894 622.901331 
L 623.307695 624.232372 
L 624.309496 627.036274 
L 625.311296 627.703943 
L 626.313097 630.314413 
L 627.314898 630.008751 
L 628.316699 630.58886 
L 629.318499 634.278002 
L 630.3203 635.485352 
L 631.322101 641.011569 
L 632.323902 643.33806 
L 633.325702 642.758202 
L 634.327503 649.785585 
L 635.329304 652.824113 
L 636.331105 649.205172 
L 637.332905 651.749935 
L 638.334706 653.553721 
L 639.336507 652.63203 
L 640.338307 652.256259 
L 641.340108 651.638458 
L 642.341909 650.030338 
L 644.34551 652.560202 
L 645.347311 652.160634 
L 647.350913 654.167211 
L 648.352713 656.594232 
L 649.354514 660.393291 
L 651.358116 663.039416 
L 653.361717 665.472452 
L 654.363518 668.459975 
L 655.365319 669.755228 
L 657.36892 671.928517 
L 658.370721 674.823549 
L 659.372522 676.391213 
L 660.374322 676.105357 
L 661.376123 676.570895 
L 662.377924 674.574339 
L 663.379725 671.849207 
L 664.381525 670.565125 
L 665.383326 670.882579 
L 666.385127 669.346565 
L 668.388728 664.471464 
L 670.39233 663.213942 
L 671.394131 660.625313 
L 673.397732 656.992213 
L 674.399533 654.62651 
L 675.401333 654.39778 
L 676.403134 650.058195 
L 677.404935 646.588145 
L 678.406736 645.005316 
L 680.410337 638.148241 
L 681.412138 635.938331 
L 682.413939 632.962945 
L 683.415739 631.036802 
L 684.41754 635.393455 
L 685.419341 631.683702 
L 686.421142 630.718237 
L 687.422942 630.744375 
L 688.424743 631.296548 
L 689.426544 630.949903 
L 690.428345 631.801577 
L 691.430145 626.859976 
L 692.431946 620.93858 
L 693.433747 617.035964 
L 694.435548 614.249977 
L 695.437348 612.012276 
L 696.439149 604.508725 
L 697.44095 600.442874 
L 698.442751 589.258523 
L 699.444551 581.76617 
L 700.446352 579.522375 
L 701.448153 576.397172 
L 702.449954 571.838402 
L 703.451754 569.186538 
L 704.453555 568.471618 
L 705.455356 564.874875 
L 706.457157 559.949575 
L 707.458957 556.490445 
L 708.460758 555.435107 
L 709.462559 553.297183 
L 710.46436 551.931516 
L 711.46616 552.143126 
L 712.467961 550.306804 
L 714.471562 545.671288 
L 715.473363 547.072386 
L 716.475164 547.046976 
L 717.476965 548.588345 
L 718.478765 546.017457 
L 719.480566 545.779882 
L 720.482367 542.787468 
L 721.484168 539.141597 
L 722.485968 539.092693 
L 723.487769 537.822758 
L 724.48957 540.779066 
L 725.491371 540.967698 
L 726.493171 537.627449 
L 727.494972 537.819399 
L 728.496773 539.364536 
L 729.498574 539.388162 
L 730.500374 540.369557 
L 731.502175 540.077394 
L 732.503976 537.9914 
L 733.505777 537.683425 
L 735.509378 535.398461 
L 736.511179 535.193144 
L 737.51298 533.563726 
L 738.51478 532.512208 
L 739.516581 534.459186 
L 740.518382 537.496459 
L 741.520183 539.069557 
L 742.521983 537.839746 
L 743.523784 531.48265 
L 744.525585 531.777272 
L 745.527386 532.236571 
L 746.529186 539.851122 
L 747.530987 543.604504 
L 748.532788 543.64677 
L 749.534588 544.642787 
L 750.536389 546.645702 
L 751.53819 545.433951 
L 752.539991 545.133697 
L 753.541791 547.252398 
L 754.543592 549.803216 
L 755.545393 546.634227 
L 756.547194 546.473319 
L 757.548994 543.50055 
L 758.550795 544.092981 
L 759.552596 542.219417 
L 760.554397 539.35006 
L 761.556197 534.658819 
L 762.557998 535.067905 
L 763.559799 531.271914 
L 764.5616 524.153983 
L 765.5634 520.542908 
L 766.565201 519.012076 
L 767.567002 510.167635 
L 768.568803 513.489256 
L 769.570603 515.448411 
L 770.572404 513.907994 
L 771.574205 514.653017 
L 772.576006 513.62654 
L 773.577806 514.808598 
L 774.579607 514.342742 
L 775.581408 514.899067 
L 776.583209 515.831863 
L 777.585009 517.392692 
L 778.58681 516.145351 
L 779.588611 514.494145 
L 780.590412 516.320656 
L 782.594013 518.635671 
L 783.595814 519.028404 
L 784.597614 518.722848 
L 785.599415 520.15557 
L 786.601216 518.860105 
L 787.603017 519.080586 
L 788.604817 517.849611 
L 789.606618 519.26701 
L 790.608419 518.818605 
L 791.61022 524.983473 
L 792.61202 528.163951 
L 793.613821 529.095517 
L 794.615622 531.107383 
L 795.617423 533.767007 
L 796.619223 534.670361 
L 797.621024 535.754123 
L 798.622825 537.043269 
L 799.624626 539.70444 
L 800.626426 539.193065 
L 801.628227 537.703455 
L 802.630028 534.202099 
L 803.631829 537.554009 
L 804.633629 535.784517 
L 805.63543 535.724588 
L 806.637231 536.752097 
L 807.639032 540.790926 
L 808.640832 545.446088 
L 809.642633 550.763036 
L 811.646235 554.302044 
L 812.648035 562.333588 
L 813.649836 566.329648 
L 814.651637 571.017135 
L 815.653438 580.595137 
L 816.655238 581.226635 
L 818.65884 584.693168 
L 819.66064 584.210456 
L 820.662441 581.837772 
L 821.664242 581.332691 
L 822.666043 585.352746 
L 823.667843 585.463139 
L 824.669644 583.501155 
L 825.671445 582.589221 
L 826.673246 579.991469 
L 828.676847 580.283976 
L 829.678648 576.361159 
L 830.680449 575.412617 
L 831.682249 575.33012 
L 832.68405 571.875829 
L 833.685851 563.925764 
L 834.687652 565.564847 
L 835.689452 564.035324 
L 836.691253 565.569368 
L 837.693054 564.458715 
L 838.694855 565.349919 
L 839.696655 565.728518 
L 840.698456 567.393236 
L 841.700257 567.616586 
L 842.702058 565.260878 
L 843.703858 563.771902 
L 844.705659 559.912795 
L 845.70746 558.005465 
L 846.709261 556.806101 
L 848.712862 547.349993 
L 849.714663 547.093459 
L 850.716464 544.77157 
L 852.720065 541.378438 
L 853.721866 543.606752 
L 854.723667 543.056707 
L 855.725467 539.169545 
L 856.727268 534.63013 
L 857.729069 531.221953 
L 858.730869 527.342142 
L 859.73267 528.89767 
L 860.734471 529.4761 
L 861.736272 527.606661 
L 862.738072 526.806507 
L 863.739873 522.441605 
L 864.741674 517.543169 
L 865.743475 513.297583 
L 866.745275 510.489927 
L 867.747076 510.107388 
L 868.748877 514.433964 
L 869.750678 514.467875 
L 870.752478 509.114821 
L 871.754279 507.005308 
L 872.75608 508.372138 
L 873.757881 505.458413 
L 874.759681 505.032959 
L 875.761482 505.538821 
L 876.763283 505.191792 
L 877.765084 509.663584 
L 878.766884 509.895156 
L 879.768685 509.509219 
L 880.770486 512.694298 
L 881.772287 520.802403 
L 882.774087 521.890885 
L 883.775888 523.663338 
L 884.777689 524.307038 
L 885.77949 525.788451 
L 887.783091 525.389835 
L 888.784892 525.602926 
L 889.786693 523.09526 
L 890.788493 521.228782 
L 891.790294 521.118033 
L 892.792095 523.546679 
L 893.793895 522.450039 
L 894.795696 523.318504 
L 895.797497 525.591041 
L 896.799298 524.611708 
L 897.801098 526.456372 
L 898.802899 529.667297 
L 900.806501 538.617002 
L 901.808301 539.959307 
L 902.810102 540.38878 
L 903.811903 541.800441 
L 904.813704 546.005704 
L 905.815504 551.298286 
L 906.817305 555.374887 
L 907.819106 553.940988 
L 908.820907 550.933 
L 909.822707 551.453021 
L 910.824508 549.434374 
L 911.826309 553.318177 
L 912.82811 556.308965 
L 913.82991 557.318005 
L 914.831711 555.619416 
L 915.833512 555.454594 
L 916.835313 552.720498 
L 917.837113 548.105434 
L 918.838914 552.5224 
L 919.840715 553.096467 
L 920.842516 549.440323 
L 922.846117 553.853904 
L 923.847918 554.776878 
L 924.849719 555.222228 
L 926.85332 554.945467 
L 927.855121 555.81848 
L 928.856921 554.206499 
L 929.858722 553.93426 
L 930.860523 552.053556 
L 931.862324 550.647699 
L 932.864124 547.435557 
L 933.865925 547.916445 
L 934.867726 547.397707 
L 935.869527 547.291056 
L 937.873128 543.168474 
L 938.874929 542.922187 
L 939.87673 538.978798 
L 940.87853 536.591559 
L 941.880331 538.615746 
L 942.882132 537.766689 
L 943.883933 538.938951 
L 944.885733 543.625089 
L 945.887534 540.493527 
L 946.889335 543.430256 
L 947.891136 541.442783 
L 948.892936 540.624636 
L 949.894737 540.697337 
L 951.898339 541.1186 
L 952.900139 541.791874 
L 953.90194 540.377186 
L 954.903741 538.050709 
L 955.905542 539.652774 
L 956.907342 542.358393 
L 958.910944 545.674343 
L 959.912745 545.854342 
L 960.914545 546.183576 
L 961.916346 548.350942 
L 962.918147 551.186163 
L 963.919947 550.324838 
L 964.921748 553.381808 
L 965.923549 558.962931 
L 966.92535 559.716746 
L 967.92715 560.832001 
L 968.928951 563.879942 
L 969.930752 564.632673 
L 970.932553 565.890802 
L 971.934353 565.724658 
L 972.936154 566.677603 
L 973.937955 567.963284 
L 974.939756 567.923821 
L 975.941556 568.335287 
L 976.943357 562.528487 
L 977.945158 561.05297 
L 978.946959 562.66655 
L 979.948759 561.577394 
L 980.95056 563.382475 
L 981.952361 562.93448 
L 982.954162 563.072133 
L 983.955962 562.838538 
L 984.957763 564.382286 
L 985.959564 569.226755 
L 986.961365 571.155555 
L 987.963165 575.991324 
L 988.964966 577.737283 
L 989.966767 578.359618 
L 990.968568 577.294655 
L 991.970368 577.485218 
L 992.972169 571.918624 
L 993.97397 572.938557 
L 994.975771 572.298731 
L 995.977571 569.101833 
L 996.979372 568.864483 
L 997.981173 568.071402 
L 998.982974 568.181861 
L 999.984774 569.69109 
L 1000.986575 568.868541 
L 1001.988376 568.715909 
L 1002.990176 570.342498 
L 1003.991977 570.126512 
L 1004.993778 566.750884 
L 1005.995579 565.113811 
L 1006.997379 565.167725 
L 1007.99918 559.050901 
L 1009.000981 557.433672 
L 1010.002782 556.734525 
L 1011.004582 549.688845 
L 1012.006383 547.18496 
L 1013.008184 546.362225 
L 1016.013586 533.181887 
L 1017.015387 533.393378 
L 1018.017188 534.585629 
L 1019.018988 532.909542 
L 1021.02259 528.31731 
L 1022.024391 527.148076 
L 1023.026191 525.572703 
L 1024.027992 522.715721 
L 1025.029793 528.149342 
L 1026.031594 528.034904 
L 1027.033394 524.002209 
L 1028.035195 522.189672 
L 1029.036996 517.166711 
L 1030.038797 516.137616 
L 1031.040597 514.381464 
L 1032.042398 514.449908 
L 1033.044199 511.593375 
L 1034.046 511.755976 
L 1035.0478 512.565463 
L 1036.049601 510.202669 
L 1037.051402 511.303314 
L 1038.053202 509.385752 
L 1039.055003 510.40517 
L 1040.056804 508.919843 
L 1041.058605 514.370968 
L 1042.060405 515.368294 
L 1043.062206 515.783039 
L 1044.064007 517.867736 
L 1045.065808 518.060295 
L 1047.069409 518.747637 
L 1048.07121 517.217823 
L 1049.073011 517.484761 
L 1050.074811 518.922757 
L 1051.076612 518.379032 
L 1052.078413 518.009369 
L 1053.080214 520.979612 
L 1054.082014 521.776408 
L 1055.083815 520.989779 
L 1056.085616 526.16409 
L 1057.087417 528.234126 
L 1058.089217 529.389531 
L 1059.091018 538.357983 
L 1060.092819 542.755369 
L 1061.09462 542.916264 
L 1064.100022 556.314069 
L 1065.101823 557.7206 
L 1066.103623 557.536569 
L 1067.105424 557.598454 
L 1068.107225 559.839592 
L 1070.110826 555.737609 
L 1071.112627 554.250828 
L 1072.114428 555.726279 
L 1074.118029 552.403361 
L 1075.11983 556.618897 
L 1076.121631 556.475651 
L 1077.123431 562.320024 
L 1078.125232 563.386031 
L 1079.127033 565.74125 
L 1080.128834 566.740017 
L 1081.130634 569.812615 
L 1082.132435 570.024502 
L 1083.134236 571.239771 
L 1084.136037 572.963849 
L 1085.137837 572.775243 
L 1086.139638 572.956604 
L 1087.141439 573.329201 
L 1088.14324 572.811296 
L 1089.14504 573.93041 
L 1090.146841 574.399347 
L 1092.150443 574.680087 
L 1093.152243 573.779827 
L 1094.154044 574.179712 
L 1095.155845 574.044888 
L 1096.157646 576.359638 
L 1097.159446 577.130786 
L 1098.161247 577.063307 
L 1099.163048 578.987956 
L 1100.164849 580.129215 
L 1101.166649 579.436546 
L 1102.16845 579.833575 
L 1103.170251 580.388736 
L 1104.172052 578.098404 
L 1105.173852 577.942626 
L 1106.175653 573.026792 
L 1107.177454 568.856722 
L 1108.179254 563.446396 
L 1109.181055 559.886419 
L 1110.182856 557.513472 
L 1111.184657 555.902998 
L 1113.188258 549.256014 
L 1114.190059 549.236817 
L 1115.19186 549.484308 
L 1116.19366 549.958189 
L 1117.195461 548.307287 
L 1118.197262 545.561543 
L 1119.199063 544.672626 
L 1120.200863 542.223871 
L 1121.202664 542.394405 
L 1122.204465 544.334231 
L 1123.206266 544.119699 
L 1124.208066 549.036379 
L 1125.209867 549.351348 
L 1126.211668 549.465984 
L 1127.213469 550.965655 
L 1128.215269 548.39133 
L 1129.21707 545.273967 
L 1130.218871 546.160425 
L 1131.220672 545.592519 
L 1132.222472 543.741774 
L 1134.226074 546.32329 
L 1135.227875 544.148176 
L 1136.229675 546.489738 
L 1137.231476 545.54741 
L 1139.235078 544.953948 
L 1140.236878 544.198758 
L 1141.238679 545.089354 
L 1142.24048 544.595523 
L 1143.24228 544.752479 
L 1144.244081 543.992781 
L 1145.245882 541.301572 
L 1147.249483 536.81693 
L 1148.251284 536.298721 
L 1149.253085 537.390059 
L 1150.254886 536.648565 
L 1151.256686 534.895389 
L 1152.258487 535.355031 
L 1153.260288 534.059354 
L 1154.262089 539.184101 
L 1155.263889 543.661551 
L 1156.26569 549.313682 
L 1157.267491 553.38785 
L 1158.269292 555.61381 
L 1159.271092 557.251505 
L 1160.272893 557.865009 
L 1161.274694 560.753826 
L 1162.276495 557.216549 
L 1163.278295 559.018643 
L 1164.280096 557.465693 
L 1166.283698 569.37948 
L 1168.287299 579.368539 
L 1169.2891 583.916574 
L 1170.290901 586.339324 
L 1171.292701 587.270256 
L 1172.294502 587.892856 
L 1174.298104 589.689515 
L 1175.299904 590.347124 
L 1176.301705 591.614204 
L 1177.303506 593.257993 
L 1178.305307 590.089083 
L 1179.307107 589.949764 
L 1180.308908 592.102614 
L 1181.310709 590.472693 
L 1182.312509 589.864927 
L 1183.31431 594.045785 
L 1184.316111 595.953299 
L 1187.321513 602.814975 
L 1188.323314 606.764736 
L 1190.326915 611.828931 
L 1191.328716 611.760237 
L 1192.330517 611.420559 
L 1193.332318 611.748484 
L 1194.334118 613.964357 
L 1195.335919 617.987876 
L 1196.33772 618.719057 
L 1197.339521 617.963391 
L 1198.341321 619.222685 
L 1199.343122 623.464662 
L 1200.344923 628.72808 
L 1201.346724 629.197994 
L 1204.352126 635.048977 
L 1205.353927 631.471602 
L 1207.357528 629.410661 
L 1208.359329 632.940032 
L 1209.36113 633.337802 
L 1210.36293 638.376125 
L 1211.364731 640.678117 
L 1212.366532 637.326762 
L 1213.368333 636.273434 
L 1214.370133 637.409815 
L 1215.371934 638.331928 
L 1216.373735 637.257671 
L 1217.375535 638.103198 
L 1223.38634 645.979069 
L 1224.388141 648.931781 
L 1225.389941 652.713799 
L 1226.391742 655.920745 
L 1227.393543 658.187703 
L 1229.397144 662.309121 
L 1230.398945 663.762004 
L 1232.402547 663.355575 
L 1233.404347 661.694771 
L 1234.406148 658.485564 
L 1235.407949 656.814316 
L 1236.40975 654.876393 
L 1237.41155 654.792575 
L 1238.413351 652.905182 
L 1239.415152 652.160396 
L 1240.416953 655.192221 
L 1241.418753 657.796266 
L 1242.420554 656.700274 
L 1243.422355 655.129926 
L 1244.424156 655.230006 
L 1245.425956 656.658021 
L 1248.431359 656.783234 
L 1249.433159 659.825596 
L 1250.43496 658.143149 
L 1251.436761 653.690091 
L 1252.438561 650.696223 
L 1253.440362 654.766186 
L 1254.442163 656.654769 
L 1255.443964 659.96124 
L 1256.445764 660.050559 
L 1257.447565 659.336604 
L 1258.449366 658.984393 
L 1259.451167 656.831384 
L 1260.452967 663.905581 
L 1261.454768 665.999388 
L 1262.456569 665.435315 
L 1263.45837 664.717804 
L 1264.46017 664.305889 
L 1268.467373 658.872771 
L 1269.469174 658.943488 
L 1271.472776 658.709694 
L 1272.474576 655.292817 
L 1273.476377 655.380047 
L 1274.478178 656.165883 
L 1275.479979 656.651715 
L 1276.481779 656.740664 
L 1277.48358 657.349607 
L 1278.485381 657.355939 
L 1279.487182 657.656405 
L 1280.488982 643.963502 
L 1281.490783 645.482885 
L 1282.492584 644.233547 
L 1283.494385 644.44357 
L 1284.496185 646.466726 
L 1285.497986 646.553493 
L 1286.499787 646.876884 
L 1287.501587 649.552386 
L 1288.503388 646.50537 
L 1289.505189 646.232628 
L 1290.50699 648.027728 
L 1292.510591 651.10252 
L 1294.514193 654.16236 
L 1296.517794 654.221469 
L 1298.521396 651.485245 
L 1299.523196 652.762624 
L 1300.524997 653.367151 
L 1301.526798 651.388165 
L 1302.528599 651.202653 
L 1303.530399 649.666097 
L 1304.5322 649.475389 
L 1305.534001 652.542513 
L 1306.535802 652.158731 
L 1307.537602 654.381822 
L 1309.541204 654.397925 
L 1310.543005 654.969295 
L 1311.544805 655.946222 
L 1312.546606 657.555016 
L 1313.548407 657.375096 
L 1315.552008 660.11025 
L 1317.55561 660.063951 
L 1318.557411 657.200531 
L 1319.559211 657.515552 
L 1320.561012 659.449773 
L 1321.562813 657.602703 
L 1322.564614 656.094121 
L 1323.566414 656.096408 
L 1324.568215 655.498557 
L 1325.570016 651.34656 
L 1326.571816 648.355507 
L 1327.573617 644.567434 
L 1328.575418 652.054195 
L 1329.577219 650.981035 
L 1330.579019 655.473147 
L 1331.58082 657.055777 
L 1332.582621 657.039212 
L 1333.584422 653.90958 
L 1334.586222 653.664165 
L 1335.588023 649.998979 
L 1336.589824 650.460763 
L 1338.593425 654.319698 
L 1339.595226 654.165823 
L 1340.597027 652.979177 
L 1341.598828 648.169241 
L 1342.600628 648.39501 
L 1343.602429 646.694147 
L 1344.60423 646.664797 
L 1345.606031 646.440218 
L 1347.609632 649.442468 
L 1348.611433 651.876046 
L 1349.613234 655.373714 
L 1351.616835 655.49972 
L 1352.618636 654.374973 
L 1353.620437 654.344024 
L 1354.622237 655.685457 
L 1356.625839 655.643363 
L 1357.62764 654.117554 
L 1358.62944 654.177153 
L 1360.633042 654.010665 
L 1361.634842 654.220662 
L 1362.636643 652.351262 
L 1363.638444 650.958308 
L 1364.640245 652.43598 
L 1365.642045 650.920484 
L 1365.642045 650.920484 
" style="fill:none;stroke:#ff0000;stroke-linecap:square;stroke-width:1.5;"/>
   </g>
   <g id="patch_3">
    <path d="M 104.425 756 
L 104.425 14.3 
" style="fill:none;stroke:#000000;stroke-linecap:square;stroke-linejoin:miter;stroke-width:0.8;"/>
   </g>
   <g id="patch_4">
    <path d="M 1425.7 756 
L 1425.7 14.3 
" style="fill:none;stroke:#000000;stroke-linecap:square;stroke-linejoin:miter;stroke-width:0.8;"/>
   </g>
   <g id="patch_5">
    <path d="M 104.425 756 
L 1425.7 756 
" style="fill:none;stroke:#000000;stroke-linecap:square;stroke-linejoin:miter;stroke-width:0.8;"/>
   </g>
   <g id="patch_6">
    <path d="M 104.425 14.3 
L 1425.7 14.3 
" style="fill:none;stroke:#000000;stroke-linecap:square;stroke-linejoin:miter;stroke-width:0.8;"/>
   </g>
   <g id="legend_1">
    <g id="patch_7">
     <path d="M 118.425 147.725 
L 450.371875 147.725 
Q 454.371875 147.725 454.371875 143.725 
L 454.371875 28.3 
Q 454.371875 24.3 450.371875 24.3 
L 118.425 24.3 
Q 114.425 24.3 114.425 28.3 
L 114.425 143.725 
Q 114.425 147.725 118.425 147.725 
z
" style="fill:#ffffff;opacity:0.8;stroke:#cccccc;stroke-linejoin:miter;"/>
    </g>
    <g id="line2d_17">
     <path d="M 122.425 40.496875 
L 162.425 40.496875 
" style="fill:none;stroke:#1f77b4;stroke-linecap:square;stroke-width:1.5;"/>
    </g>
    <g id="line2d_18"/>
    <g id="text_15">
     <!-- Training Data -->
     <defs>
      <path d="M -0.296875 72.90625 
L 61.375 72.90625 
L 61.375 64.59375 
L 35.5 64.59375 
L 35.5 0 
L 25.59375 0 
L 25.59375 64.59375 
L -0.296875 64.59375 
z
" id="DejaVuSans-54"/>
      <path d="M 41.109375 46.296875 
Q 39.59375 47.171875 37.8125 47.578125 
Q 36.03125 48 33.890625 48 
Q 26.265625 48 22.1875 43.046875 
Q 18.109375 38.09375 18.109375 28.8125 
L 18.109375 0 
L 9.078125 0 
L 9.078125 54.6875 
L 18.109375 54.6875 
L 18.109375 46.1875 
Q 20.953125 51.171875 25.484375 53.578125 
Q 30.03125 56 36.53125 56 
Q 37.453125 56 38.578125 55.875 
Q 39.703125 55.765625 41.0625 55.515625 
z
" id="DejaVuSans-72"/>
      <path d="M 45.40625 27.984375 
Q 45.40625 37.75 41.375 43.109375 
Q 37.359375 48.484375 30.078125 48.484375 
Q 22.859375 48.484375 18.828125 43.109375 
Q 14.796875 37.75 14.796875 27.984375 
Q 14.796875 18.265625 18.828125 12.890625 
Q 22.859375 7.515625 30.078125 7.515625 
Q 37.359375 7.515625 41.375 12.890625 
Q 45.40625 18.265625 45.40625 27.984375 
z
M 54.390625 6.78125 
Q 54.390625 -7.171875 48.1875 -13.984375 
Q 42 -20.796875 29.203125 -20.796875 
Q 24.46875 -20.796875 20.265625 -20.09375 
Q 16.0625 -19.390625 12.109375 -17.921875 
L 12.109375 -9.1875 
Q 16.0625 -11.328125 19.921875 -12.34375 
Q 23.78125 -13.375 27.78125 -13.375 
Q 36.625 -13.375 41.015625 -8.765625 
Q 45.40625 -4.15625 45.40625 5.171875 
L 45.40625 9.625 
Q 42.625 4.78125 38.28125 2.390625 
Q 33.9375 0 27.875 0 
Q 17.828125 0 11.671875 7.65625 
Q 5.515625 15.328125 5.515625 27.984375 
Q 5.515625 40.671875 11.671875 48.328125 
Q 17.828125 56 27.875 56 
Q 33.9375 56 38.28125 53.609375 
Q 42.625 51.21875 45.40625 46.390625 
L 45.40625 54.6875 
L 54.390625 54.6875 
z
" id="DejaVuSans-67"/>
      <path d="M 19.671875 64.796875 
L 19.671875 8.109375 
L 31.59375 8.109375 
Q 46.6875 8.109375 53.6875 14.9375 
Q 60.6875 21.78125 60.6875 36.53125 
Q 60.6875 51.171875 53.6875 57.984375 
Q 46.6875 64.796875 31.59375 64.796875 
z
M 9.8125 72.90625 
L 30.078125 72.90625 
Q 51.265625 72.90625 61.171875 64.09375 
Q 71.09375 55.28125 71.09375 36.53125 
Q 71.09375 17.671875 61.125 8.828125 
Q 51.171875 0 30.078125 0 
L 9.8125 0 
z
" id="DejaVuSans-44"/>
     </defs>
     <g transform="translate(178.425 47.496875)scale(0.2 -0.2)">
      <use xlink:href="#DejaVuSans-54"/>
      <use x="60.865234" xlink:href="#DejaVuSans-72"/>
      <use x="101.978516" xlink:href="#DejaVuSans-61"/>
      <use x="163.257812" xlink:href="#DejaVuSans-69"/>
      <use x="191.041016" xlink:href="#DejaVuSans-6e"/>
      <use x="254.419922" xlink:href="#DejaVuSans-69"/>
      <use x="282.203125" xlink:href="#DejaVuSans-6e"/>
      <use x="345.582031" xlink:href="#DejaVuSans-67"/>
      <use x="409.058594" xlink:href="#DejaVuSans-20"/>
      <use x="440.845703" xlink:href="#DejaVuSans-44"/>
      <use x="517.847656" xlink:href="#DejaVuSans-61"/>
      <use x="579.126953" xlink:href="#DejaVuSans-74"/>
      <use x="618.335938" xlink:href="#DejaVuSans-61"/>
     </g>
    </g>
    <g id="line2d_19">
     <path d="M 122.425 69.853125 
L 162.425 69.853125 
" style="fill:none;stroke:#ff7f0e;stroke-linecap:square;stroke-width:1.5;"/>
    </g>
    <g id="line2d_20"/>
    <g id="text_16">
     <!-- Validation Data -->
     <defs>
      <path d="M 28.609375 0 
L 0.78125 72.90625 
L 11.078125 72.90625 
L 34.1875 11.53125 
L 57.328125 72.90625 
L 67.578125 72.90625 
L 39.796875 0 
z
" id="DejaVuSans-56"/>
      <path d="M 9.421875 75.984375 
L 18.40625 75.984375 
L 18.40625 0 
L 9.421875 0 
z
" id="DejaVuSans-6c"/>
      <path d="M 30.609375 48.390625 
Q 23.390625 48.390625 19.1875 42.75 
Q 14.984375 37.109375 14.984375 27.296875 
Q 14.984375 17.484375 19.15625 11.84375 
Q 23.34375 6.203125 30.609375 6.203125 
Q 37.796875 6.203125 41.984375 11.859375 
Q 46.1875 17.53125 46.1875 27.296875 
Q 46.1875 37.015625 41.984375 42.703125 
Q 37.796875 48.390625 30.609375 48.390625 
z
M 30.609375 56 
Q 42.328125 56 49.015625 48.375 
Q 55.71875 40.765625 55.71875 27.296875 
Q 55.71875 13.875 49.015625 6.21875 
Q 42.328125 -1.421875 30.609375 -1.421875 
Q 18.84375 -1.421875 12.171875 6.21875 
Q 5.515625 13.875 5.515625 27.296875 
Q 5.515625 40.765625 12.171875 48.375 
Q 18.84375 56 30.609375 56 
z
" id="DejaVuSans-6f"/>
     </defs>
     <g transform="translate(178.425 76.853125)scale(0.2 -0.2)">
      <use xlink:href="#DejaVuSans-56"/>
      <use x="68.298828" xlink:href="#DejaVuSans-61"/>
      <use x="129.578125" xlink:href="#DejaVuSans-6c"/>
      <use x="157.361328" xlink:href="#DejaVuSans-69"/>
      <use x="185.144531" xlink:href="#DejaVuSans-64"/>
      <use x="248.621094" xlink:href="#DejaVuSans-61"/>
      <use x="309.900391" xlink:href="#DejaVuSans-74"/>
      <use x="349.109375" xlink:href="#DejaVuSans-69"/>
      <use x="376.892578" xlink:href="#DejaVuSans-6f"/>
      <use x="438.074219" xlink:href="#DejaVuSans-6e"/>
      <use x="501.453125" xlink:href="#DejaVuSans-20"/>
      <use x="533.240234" xlink:href="#DejaVuSans-44"/>
      <use x="610.242188" xlink:href="#DejaVuSans-61"/>
      <use x="671.521484" xlink:href="#DejaVuSans-74"/>
      <use x="710.730469" xlink:href="#DejaVuSans-61"/>
     </g>
    </g>
    <g id="line2d_21">
     <path d="M 122.425 99.209375 
L 162.425 99.209375 
" style="fill:none;stroke:#2ca02c;stroke-linecap:square;stroke-width:1.5;"/>
    </g>
    <g id="line2d_22"/>
    <g id="text_17">
     <!-- Testing Data -->
     <g transform="translate(178.425 106.209375)scale(0.2 -0.2)">
      <use xlink:href="#DejaVuSans-54"/>
      <use x="60.818359" xlink:href="#DejaVuSans-65"/>
      <use x="122.341797" xlink:href="#DejaVuSans-73"/>
      <use x="174.441406" xlink:href="#DejaVuSans-74"/>
      <use x="213.650391" xlink:href="#DejaVuSans-69"/>
      <use x="241.433594" xlink:href="#DejaVuSans-6e"/>
      <use x="304.8125" xlink:href="#DejaVuSans-67"/>
      <use x="368.289062" xlink:href="#DejaVuSans-20"/>
      <use x="400.076172" xlink:href="#DejaVuSans-44"/>
      <use x="477.078125" xlink:href="#DejaVuSans-61"/>
      <use x="538.357422" xlink:href="#DejaVuSans-74"/>
      <use x="577.566406" xlink:href="#DejaVuSans-61"/>
     </g>
    </g>
    <g id="line2d_23">
     <path d="M 122.425 128.565625 
L 162.425 128.565625 
" style="fill:none;stroke:#ff0000;stroke-linecap:square;stroke-width:1.5;"/>
    </g>
    <g id="line2d_24"/>
    <g id="text_18">
     <!-- Moving average (48 steps) -->
     <defs>
      <path d="M 2.984375 54.6875 
L 12.5 54.6875 
L 29.59375 8.796875 
L 46.6875 54.6875 
L 56.203125 54.6875 
L 35.6875 0 
L 23.484375 0 
z
" id="DejaVuSans-76"/>
     </defs>
     <g transform="translate(178.425 135.565625)scale(0.2 -0.2)">
      <use xlink:href="#DejaVuSans-4d"/>
      <use x="86.279297" xlink:href="#DejaVuSans-6f"/>
      <use x="147.460938" xlink:href="#DejaVuSans-76"/>
      <use x="206.640625" xlink:href="#DejaVuSans-69"/>
      <use x="234.423828" xlink:href="#DejaVuSans-6e"/>
      <use x="297.802734" xlink:href="#DejaVuSans-67"/>
      <use x="361.279297" xlink:href="#DejaVuSans-20"/>
      <use x="393.066406" xlink:href="#DejaVuSans-61"/>
      <use x="454.345703" xlink:href="#DejaVuSans-76"/>
      <use x="513.525391" xlink:href="#DejaVuSans-65"/>
      <use x="575.048828" xlink:href="#DejaVuSans-72"/>
      <use x="616.162109" xlink:href="#DejaVuSans-61"/>
      <use x="677.441406" xlink:href="#DejaVuSans-67"/>
      <use x="740.917969" xlink:href="#DejaVuSans-65"/>
      <use x="802.441406" xlink:href="#DejaVuSans-20"/>
      <use x="834.228516" xlink:href="#DejaVuSans-28"/>
      <use x="873.242188" xlink:href="#DejaVuSans-34"/>
      <use x="936.865234" xlink:href="#DejaVuSans-38"/>
      <use x="1000.488281" xlink:href="#DejaVuSans-20"/>
      <use x="1032.275391" xlink:href="#DejaVuSans-73"/>
      <use x="1084.375" xlink:href="#DejaVuSans-74"/>
      <use x="1123.583984" xlink:href="#DejaVuSans-65"/>
      <use x="1185.107422" xlink:href="#DejaVuSans-70"/>
      <use x="1248.583984" xlink:href="#DejaVuSans-73"/>
      <use x="1300.683594" xlink:href="#DejaVuSans-29"/>
     </g>
    </g>
   </g>
  </g>
 </g>
 <defs>
  <clipPath id="p8e6dd9ad8e">
   <rect height="741.7" width="1321.275" x="104.425" y="14.3"/>
  </clipPath>
 </defs>
</svg>
