<?xml version="1.0" encoding="utf-8" standalone="no"?>
<!DOCTYPE svg PUBLIC "-//W3C//DTD SVG 1.1//EN"
  "http://www.w3.org/Graphics/SVG/1.1/DTD/svg11.dtd">
<!-- Created with matplotlib (http://matplotlib.org/) -->
<svg height="820pt" version="1.1" viewBox="0 0 1440 820" width="1440pt" xmlns="http://www.w3.org/2000/svg" xmlns:xlink="http://www.w3.org/1999/xlink">
 <defs>
  <style type="text/css">
*{stroke-linecap:butt;stroke-linejoin:round;}
  </style>
 </defs>
 <g id="figure_1">
  <g id="patch_1">
   <path d="M 0 820.8 
L 1440 820.8 
L 1440 0 
L 0 0 
z
" style="fill:#ffffff;"/>
  </g>
  <g id="axes_1">
   <g id="patch_2">
    <path d="M 104.425 756 
L 1425.7 756 
L 1425.7 14.3 
L 104.425 14.3 
z
" style="fill:#ffffff;"/>
   </g>
   <g id="matplotlib.axis_1">
    <g id="xtick_1">
     <g id="line2d_1">
      <defs>
       <path d="M 0 0 
L 0 3.5 
" id="md962c05922" style="stroke:#000000;stroke-width:0.8;"/>
      </defs>
      <g>
       <use style="stroke:#000000;stroke-width:0.8;" x="164.482955" xlink:href="#md962c05922" y="756"/>
      </g>
     </g>
     <g id="text_1">
      <!-- 0 -->
      <defs>
       <path d="M 31.78125 66.40625 
Q 24.171875 66.40625 20.328125 58.90625 
Q 16.5 51.421875 16.5 36.375 
Q 16.5 21.390625 20.328125 13.890625 
Q 24.171875 6.390625 31.78125 6.390625 
Q 39.453125 6.390625 43.28125 13.890625 
Q 47.125 21.390625 47.125 36.375 
Q 47.125 51.421875 43.28125 58.90625 
Q 39.453125 66.40625 31.78125 66.40625 
z
M 31.78125 74.21875 
Q 44.046875 74.21875 50.515625 64.515625 
Q 56.984375 54.828125 56.984375 36.375 
Q 56.984375 17.96875 50.515625 8.265625 
Q 44.046875 -1.421875 31.78125 -1.421875 
Q 19.53125 -1.421875 13.0625 8.265625 
Q 6.59375 17.96875 6.59375 36.375 
Q 6.59375 54.828125 13.0625 64.515625 
Q 19.53125 74.21875 31.78125 74.21875 
z
" id="DejaVuSans-30"/>
      </defs>
      <g transform="translate(156.52983 781.996094)scale(0.25 -0.25)">
       <use xlink:href="#DejaVuSans-30"/>
      </g>
     </g>
    </g>
    <g id="xtick_2">
     <g id="line2d_2">
      <g>
       <use style="stroke:#000000;stroke-width:0.8;" x="364.843103" xlink:href="#md962c05922" y="756"/>
      </g>
     </g>
     <g id="text_2">
      <!-- 200 -->
      <defs>
       <path d="M 19.1875 8.296875 
L 53.609375 8.296875 
L 53.609375 0 
L 7.328125 0 
L 7.328125 8.296875 
Q 12.9375 14.109375 22.625 23.890625 
Q 32.328125 33.6875 34.8125 36.53125 
Q 39.546875 41.84375 41.421875 45.53125 
Q 43.3125 49.21875 43.3125 52.78125 
Q 43.3125 58.59375 39.234375 62.25 
Q 35.15625 65.921875 28.609375 65.921875 
Q 23.96875 65.921875 18.8125 64.3125 
Q 13.671875 62.703125 7.8125 59.421875 
L 7.8125 69.390625 
Q 13.765625 71.78125 18.9375 73 
Q 24.125 74.21875 28.421875 74.21875 
Q 39.75 74.21875 46.484375 68.546875 
Q 53.21875 62.890625 53.21875 53.421875 
Q 53.21875 48.921875 51.53125 44.890625 
Q 49.859375 40.875 45.40625 35.40625 
Q 44.1875 33.984375 37.640625 27.21875 
Q 31.109375 20.453125 19.1875 8.296875 
z
" id="DejaVuSans-32"/>
      </defs>
      <g transform="translate(340.983728 781.996094)scale(0.25 -0.25)">
       <use xlink:href="#DejaVuSans-32"/>
       <use x="63.623047" xlink:href="#DejaVuSans-30"/>
       <use x="127.246094" xlink:href="#DejaVuSans-30"/>
      </g>
     </g>
    </g>
    <g id="xtick_3">
     <g id="line2d_3">
      <g>
       <use style="stroke:#000000;stroke-width:0.8;" x="565.203252" xlink:href="#md962c05922" y="756"/>
      </g>
     </g>
     <g id="text_3">
      <!-- 400 -->
      <defs>
       <path d="M 37.796875 64.3125 
L 12.890625 25.390625 
L 37.796875 25.390625 
z
M 35.203125 72.90625 
L 47.609375 72.90625 
L 47.609375 25.390625 
L 58.015625 25.390625 
L 58.015625 17.1875 
L 47.609375 17.1875 
L 47.609375 0 
L 37.796875 0 
L 37.796875 17.1875 
L 4.890625 17.1875 
L 4.890625 26.703125 
z
" id="DejaVuSans-34"/>
      </defs>
      <g transform="translate(541.343877 781.996094)scale(0.25 -0.25)">
       <use xlink:href="#DejaVuSans-34"/>
       <use x="63.623047" xlink:href="#DejaVuSans-30"/>
       <use x="127.246094" xlink:href="#DejaVuSans-30"/>
      </g>
     </g>
    </g>
    <g id="xtick_4">
     <g id="line2d_4">
      <g>
       <use style="stroke:#000000;stroke-width:0.8;" x="765.5634" xlink:href="#md962c05922" y="756"/>
      </g>
     </g>
     <g id="text_4">
      <!-- 600 -->
      <defs>
       <path d="M 33.015625 40.375 
Q 26.375 40.375 22.484375 35.828125 
Q 18.609375 31.296875 18.609375 23.390625 
Q 18.609375 15.53125 22.484375 10.953125 
Q 26.375 6.390625 33.015625 6.390625 
Q 39.65625 6.390625 43.53125 10.953125 
Q 47.40625 15.53125 47.40625 23.390625 
Q 47.40625 31.296875 43.53125 35.828125 
Q 39.65625 40.375 33.015625 40.375 
z
M 52.59375 71.296875 
L 52.59375 62.3125 
Q 48.875 64.0625 45.09375 64.984375 
Q 41.3125 65.921875 37.59375 65.921875 
Q 27.828125 65.921875 22.671875 59.328125 
Q 17.53125 52.734375 16.796875 39.40625 
Q 19.671875 43.65625 24.015625 45.921875 
Q 28.375 48.1875 33.59375 48.1875 
Q 44.578125 48.1875 50.953125 41.515625 
Q 57.328125 34.859375 57.328125 23.390625 
Q 57.328125 12.15625 50.6875 5.359375 
Q 44.046875 -1.421875 33.015625 -1.421875 
Q 20.359375 -1.421875 13.671875 8.265625 
Q 6.984375 17.96875 6.984375 36.375 
Q 6.984375 53.65625 15.1875 63.9375 
Q 23.390625 74.21875 37.203125 74.21875 
Q 40.921875 74.21875 44.703125 73.484375 
Q 48.484375 72.75 52.59375 71.296875 
z
" id="DejaVuSans-36"/>
      </defs>
      <g transform="translate(741.704025 781.996094)scale(0.25 -0.25)">
       <use xlink:href="#DejaVuSans-36"/>
       <use x="63.623047" xlink:href="#DejaVuSans-30"/>
       <use x="127.246094" xlink:href="#DejaVuSans-30"/>
      </g>
     </g>
    </g>
    <g id="xtick_5">
     <g id="line2d_5">
      <g>
       <use style="stroke:#000000;stroke-width:0.8;" x="965.923549" xlink:href="#md962c05922" y="756"/>
      </g>
     </g>
     <g id="text_5">
      <!-- 800 -->
      <defs>
       <path d="M 31.78125 34.625 
Q 24.75 34.625 20.71875 30.859375 
Q 16.703125 27.09375 16.703125 20.515625 
Q 16.703125 13.921875 20.71875 10.15625 
Q 24.75 6.390625 31.78125 6.390625 
Q 38.8125 6.390625 42.859375 10.171875 
Q 46.921875 13.96875 46.921875 20.515625 
Q 46.921875 27.09375 42.890625 30.859375 
Q 38.875 34.625 31.78125 34.625 
z
M 21.921875 38.8125 
Q 15.578125 40.375 12.03125 44.71875 
Q 8.5 49.078125 8.5 55.328125 
Q 8.5 64.0625 14.71875 69.140625 
Q 20.953125 74.21875 31.78125 74.21875 
Q 42.671875 74.21875 48.875 69.140625 
Q 55.078125 64.0625 55.078125 55.328125 
Q 55.078125 49.078125 51.53125 44.71875 
Q 48 40.375 41.703125 38.8125 
Q 48.828125 37.15625 52.796875 32.3125 
Q 56.78125 27.484375 56.78125 20.515625 
Q 56.78125 9.90625 50.3125 4.234375 
Q 43.84375 -1.421875 31.78125 -1.421875 
Q 19.734375 -1.421875 13.25 4.234375 
Q 6.78125 9.90625 6.78125 20.515625 
Q 6.78125 27.484375 10.78125 32.3125 
Q 14.796875 37.15625 21.921875 38.8125 
z
M 18.3125 54.390625 
Q 18.3125 48.734375 21.84375 45.5625 
Q 25.390625 42.390625 31.78125 42.390625 
Q 38.140625 42.390625 41.71875 45.5625 
Q 45.3125 48.734375 45.3125 54.390625 
Q 45.3125 60.0625 41.71875 63.234375 
Q 38.140625 66.40625 31.78125 66.40625 
Q 25.390625 66.40625 21.84375 63.234375 
Q 18.3125 60.0625 18.3125 54.390625 
z
" id="DejaVuSans-38"/>
      </defs>
      <g transform="translate(942.064174 781.996094)scale(0.25 -0.25)">
       <use xlink:href="#DejaVuSans-38"/>
       <use x="63.623047" xlink:href="#DejaVuSans-30"/>
       <use x="127.246094" xlink:href="#DejaVuSans-30"/>
      </g>
     </g>
    </g>
    <g id="xtick_6">
     <g id="line2d_6">
      <g>
       <use style="stroke:#000000;stroke-width:0.8;" x="1166.283698" xlink:href="#md962c05922" y="756"/>
      </g>
     </g>
     <g id="text_6">
      <!-- 1000 -->
      <defs>
       <path d="M 12.40625 8.296875 
L 28.515625 8.296875 
L 28.515625 63.921875 
L 10.984375 60.40625 
L 10.984375 69.390625 
L 28.421875 72.90625 
L 38.28125 72.90625 
L 38.28125 8.296875 
L 54.390625 8.296875 
L 54.390625 0 
L 12.40625 0 
z
" id="DejaVuSans-31"/>
      </defs>
      <g transform="translate(1134.471198 781.996094)scale(0.25 -0.25)">
       <use xlink:href="#DejaVuSans-31"/>
       <use x="63.623047" xlink:href="#DejaVuSans-30"/>
       <use x="127.246094" xlink:href="#DejaVuSans-30"/>
       <use x="190.869141" xlink:href="#DejaVuSans-30"/>
      </g>
     </g>
    </g>
    <g id="xtick_7">
     <g id="line2d_7">
      <g>
       <use style="stroke:#000000;stroke-width:0.8;" x="1366.643846" xlink:href="#md962c05922" y="756"/>
      </g>
     </g>
     <g id="text_7">
      <!-- 1200 -->
      <g transform="translate(1334.831346 781.996094)scale(0.25 -0.25)">
       <use xlink:href="#DejaVuSans-31"/>
       <use x="63.623047" xlink:href="#DejaVuSans-32"/>
       <use x="127.246094" xlink:href="#DejaVuSans-30"/>
       <use x="190.869141" xlink:href="#DejaVuSans-30"/>
      </g>
     </g>
    </g>
    <g id="text_8">
     <!-- 15-Minute Steps -->
     <defs>
      <path d="M 10.796875 72.90625 
L 49.515625 72.90625 
L 49.515625 64.59375 
L 19.828125 64.59375 
L 19.828125 46.734375 
Q 21.96875 47.46875 24.109375 47.828125 
Q 26.265625 48.1875 28.421875 48.1875 
Q 40.625 48.1875 47.75 41.5 
Q 54.890625 34.8125 54.890625 23.390625 
Q 54.890625 11.625 47.5625 5.09375 
Q 40.234375 -1.421875 26.90625 -1.421875 
Q 22.3125 -1.421875 17.546875 -0.640625 
Q 12.796875 0.140625 7.71875 1.703125 
L 7.71875 11.625 
Q 12.109375 9.234375 16.796875 8.0625 
Q 21.484375 6.890625 26.703125 6.890625 
Q 35.15625 6.890625 40.078125 11.328125 
Q 45.015625 15.765625 45.015625 23.390625 
Q 45.015625 31 40.078125 35.4375 
Q 35.15625 39.890625 26.703125 39.890625 
Q 22.75 39.890625 18.8125 39.015625 
Q 14.890625 38.140625 10.796875 36.28125 
z
" id="DejaVuSans-35"/>
      <path d="M 4.890625 31.390625 
L 31.203125 31.390625 
L 31.203125 23.390625 
L 4.890625 23.390625 
z
" id="DejaVuSans-2d"/>
      <path d="M 9.8125 72.90625 
L 24.515625 72.90625 
L 43.109375 23.296875 
L 61.8125 72.90625 
L 76.515625 72.90625 
L 76.515625 0 
L 66.890625 0 
L 66.890625 64.015625 
L 48.09375 14.015625 
L 38.1875 14.015625 
L 19.390625 64.015625 
L 19.390625 0 
L 9.8125 0 
z
" id="DejaVuSans-4d"/>
      <path d="M 9.421875 54.6875 
L 18.40625 54.6875 
L 18.40625 0 
L 9.421875 0 
z
M 9.421875 75.984375 
L 18.40625 75.984375 
L 18.40625 64.59375 
L 9.421875 64.59375 
z
" id="DejaVuSans-69"/>
      <path d="M 54.890625 33.015625 
L 54.890625 0 
L 45.90625 0 
L 45.90625 32.71875 
Q 45.90625 40.484375 42.875 44.328125 
Q 39.84375 48.1875 33.796875 48.1875 
Q 26.515625 48.1875 22.3125 43.546875 
Q 18.109375 38.921875 18.109375 30.90625 
L 18.109375 0 
L 9.078125 0 
L 9.078125 54.6875 
L 18.109375 54.6875 
L 18.109375 46.1875 
Q 21.34375 51.125 25.703125 53.5625 
Q 30.078125 56 35.796875 56 
Q 45.21875 56 50.046875 50.171875 
Q 54.890625 44.34375 54.890625 33.015625 
z
" id="DejaVuSans-6e"/>
      <path d="M 8.5 21.578125 
L 8.5 54.6875 
L 17.484375 54.6875 
L 17.484375 21.921875 
Q 17.484375 14.15625 20.5 10.265625 
Q 23.53125 6.390625 29.59375 6.390625 
Q 36.859375 6.390625 41.078125 11.03125 
Q 45.3125 15.671875 45.3125 23.6875 
L 45.3125 54.6875 
L 54.296875 54.6875 
L 54.296875 0 
L 45.3125 0 
L 45.3125 8.40625 
Q 42.046875 3.421875 37.71875 1 
Q 33.40625 -1.421875 27.6875 -1.421875 
Q 18.265625 -1.421875 13.375 4.4375 
Q 8.5 10.296875 8.5 21.578125 
z
M 31.109375 56 
z
" id="DejaVuSans-75"/>
      <path d="M 18.3125 70.21875 
L 18.3125 54.6875 
L 36.8125 54.6875 
L 36.8125 47.703125 
L 18.3125 47.703125 
L 18.3125 18.015625 
Q 18.3125 11.328125 20.140625 9.421875 
Q 21.96875 7.515625 27.59375 7.515625 
L 36.8125 7.515625 
L 36.8125 0 
L 27.59375 0 
Q 17.1875 0 13.234375 3.875 
Q 9.28125 7.765625 9.28125 18.015625 
L 9.28125 47.703125 
L 2.6875 47.703125 
L 2.6875 54.6875 
L 9.28125 54.6875 
L 9.28125 70.21875 
z
" id="DejaVuSans-74"/>
      <path d="M 56.203125 29.59375 
L 56.203125 25.203125 
L 14.890625 25.203125 
Q 15.484375 15.921875 20.484375 11.0625 
Q 25.484375 6.203125 34.421875 6.203125 
Q 39.59375 6.203125 44.453125 7.46875 
Q 49.3125 8.734375 54.109375 11.28125 
L 54.109375 2.78125 
Q 49.265625 0.734375 44.1875 -0.34375 
Q 39.109375 -1.421875 33.890625 -1.421875 
Q 20.796875 -1.421875 13.15625 6.1875 
Q 5.515625 13.8125 5.515625 26.8125 
Q 5.515625 40.234375 12.765625 48.109375 
Q 20.015625 56 32.328125 56 
Q 43.359375 56 49.78125 48.890625 
Q 56.203125 41.796875 56.203125 29.59375 
z
M 47.21875 32.234375 
Q 47.125 39.59375 43.09375 43.984375 
Q 39.0625 48.390625 32.421875 48.390625 
Q 24.90625 48.390625 20.390625 44.140625 
Q 15.875 39.890625 15.1875 32.171875 
z
" id="DejaVuSans-65"/>
      <path id="DejaVuSans-20"/>
      <path d="M 53.515625 70.515625 
L 53.515625 60.890625 
Q 47.90625 63.578125 42.921875 64.890625 
Q 37.9375 66.21875 33.296875 66.21875 
Q 25.25 66.21875 20.875 63.09375 
Q 16.5 59.96875 16.5 54.203125 
Q 16.5 49.359375 19.40625 46.890625 
Q 22.3125 44.4375 30.421875 42.921875 
L 36.375 41.703125 
Q 47.40625 39.59375 52.65625 34.296875 
Q 57.90625 29 57.90625 20.125 
Q 57.90625 9.515625 50.796875 4.046875 
Q 43.703125 -1.421875 29.984375 -1.421875 
Q 24.8125 -1.421875 18.96875 -0.25 
Q 13.140625 0.921875 6.890625 3.21875 
L 6.890625 13.375 
Q 12.890625 10.015625 18.65625 8.296875 
Q 24.421875 6.59375 29.984375 6.59375 
Q 38.421875 6.59375 43.015625 9.90625 
Q 47.609375 13.234375 47.609375 19.390625 
Q 47.609375 24.75 44.3125 27.78125 
Q 41.015625 30.8125 33.5 32.328125 
L 27.484375 33.5 
Q 16.453125 35.6875 11.515625 40.375 
Q 6.59375 45.0625 6.59375 53.421875 
Q 6.59375 63.09375 13.40625 68.65625 
Q 20.21875 74.21875 32.171875 74.21875 
Q 37.3125 74.21875 42.625 73.28125 
Q 47.953125 72.359375 53.515625 70.515625 
z
" id="DejaVuSans-53"/>
      <path d="M 18.109375 8.203125 
L 18.109375 -20.796875 
L 9.078125 -20.796875 
L 9.078125 54.6875 
L 18.109375 54.6875 
L 18.109375 46.390625 
Q 20.953125 51.265625 25.265625 53.625 
Q 29.59375 56 35.59375 56 
Q 45.5625 56 51.78125 48.09375 
Q 58.015625 40.1875 58.015625 27.296875 
Q 58.015625 14.40625 51.78125 6.484375 
Q 45.5625 -1.421875 35.59375 -1.421875 
Q 29.59375 -1.421875 25.265625 0.953125 
Q 20.953125 3.328125 18.109375 8.203125 
z
M 48.6875 27.296875 
Q 48.6875 37.203125 44.609375 42.84375 
Q 40.53125 48.484375 33.40625 48.484375 
Q 26.265625 48.484375 22.1875 42.84375 
Q 18.109375 37.203125 18.109375 27.296875 
Q 18.109375 17.390625 22.1875 11.75 
Q 26.265625 6.109375 33.40625 6.109375 
Q 40.53125 6.109375 44.609375 11.75 
Q 48.6875 17.390625 48.6875 27.296875 
z
" id="DejaVuSans-70"/>
      <path d="M 44.28125 53.078125 
L 44.28125 44.578125 
Q 40.484375 46.53125 36.375 47.5 
Q 32.28125 48.484375 27.875 48.484375 
Q 21.1875 48.484375 17.84375 46.4375 
Q 14.5 44.390625 14.5 40.28125 
Q 14.5 37.15625 16.890625 35.375 
Q 19.28125 33.59375 26.515625 31.984375 
L 29.59375 31.296875 
Q 39.15625 29.25 43.1875 25.515625 
Q 47.21875 21.78125 47.21875 15.09375 
Q 47.21875 7.46875 41.1875 3.015625 
Q 35.15625 -1.421875 24.609375 -1.421875 
Q 20.21875 -1.421875 15.453125 -0.5625 
Q 10.6875 0.296875 5.421875 2 
L 5.421875 11.28125 
Q 10.40625 8.6875 15.234375 7.390625 
Q 20.0625 6.109375 24.8125 6.109375 
Q 31.15625 6.109375 34.5625 8.28125 
Q 37.984375 10.453125 37.984375 14.40625 
Q 37.984375 18.0625 35.515625 20.015625 
Q 33.0625 21.96875 24.703125 23.78125 
L 21.578125 24.515625 
Q 13.234375 26.265625 9.515625 29.90625 
Q 5.8125 33.546875 5.8125 39.890625 
Q 5.8125 47.609375 11.28125 51.796875 
Q 16.75 56 26.8125 56 
Q 31.78125 56 36.171875 55.265625 
Q 40.578125 54.546875 44.28125 53.078125 
z
" id="DejaVuSans-73"/>
     </defs>
     <g transform="translate(683.417187 806.392188)scale(0.2 -0.2)">
      <use xlink:href="#DejaVuSans-31"/>
      <use x="63.623047" xlink:href="#DejaVuSans-35"/>
      <use x="127.246094" xlink:href="#DejaVuSans-2d"/>
      <use x="163.330078" xlink:href="#DejaVuSans-4d"/>
      <use x="249.609375" xlink:href="#DejaVuSans-69"/>
      <use x="277.392578" xlink:href="#DejaVuSans-6e"/>
      <use x="340.771484" xlink:href="#DejaVuSans-75"/>
      <use x="404.150391" xlink:href="#DejaVuSans-74"/>
      <use x="443.359375" xlink:href="#DejaVuSans-65"/>
      <use x="504.882812" xlink:href="#DejaVuSans-20"/>
      <use x="536.669922" xlink:href="#DejaVuSans-53"/>
      <use x="600.146484" xlink:href="#DejaVuSans-74"/>
      <use x="639.355469" xlink:href="#DejaVuSans-65"/>
      <use x="700.878906" xlink:href="#DejaVuSans-70"/>
      <use x="764.355469" xlink:href="#DejaVuSans-73"/>
     </g>
    </g>
   </g>
   <g id="matplotlib.axis_2">
    <g id="ytick_1">
     <g id="line2d_8">
      <defs>
       <path d="M 0 0 
L -3.5 0 
" id="md3b76d2c7e" style="stroke:#000000;stroke-width:0.8;"/>
      </defs>
      <g>
       <use style="stroke:#000000;stroke-width:0.8;" x="104.425" xlink:href="#md3b76d2c7e" y="722.3254"/>
      </g>
     </g>
     <g id="text_9">
      <!-- 0 -->
      <g transform="translate(81.51875 731.823446)scale(0.25 -0.25)">
       <use xlink:href="#DejaVuSans-30"/>
      </g>
     </g>
    </g>
    <g id="ytick_2">
     <g id="line2d_9">
      <g>
       <use style="stroke:#000000;stroke-width:0.8;" x="104.425" xlink:href="#md3b76d2c7e" y="600.33798"/>
      </g>
     </g>
     <g id="text_10">
      <!-- 1000 -->
      <g transform="translate(33.8 609.836027)scale(0.25 -0.25)">
       <use xlink:href="#DejaVuSans-31"/>
       <use x="63.623047" xlink:href="#DejaVuSans-30"/>
       <use x="127.246094" xlink:href="#DejaVuSans-30"/>
       <use x="190.869141" xlink:href="#DejaVuSans-30"/>
      </g>
     </g>
    </g>
    <g id="ytick_3">
     <g id="line2d_10">
      <g>
       <use style="stroke:#000000;stroke-width:0.8;" x="104.425" xlink:href="#md3b76d2c7e" y="478.35056"/>
      </g>
     </g>
     <g id="text_11">
      <!-- 2000 -->
      <g transform="translate(33.8 487.848607)scale(0.25 -0.25)">
       <use xlink:href="#DejaVuSans-32"/>
       <use x="63.623047" xlink:href="#DejaVuSans-30"/>
       <use x="127.246094" xlink:href="#DejaVuSans-30"/>
       <use x="190.869141" xlink:href="#DejaVuSans-30"/>
      </g>
     </g>
    </g>
    <g id="ytick_4">
     <g id="line2d_11">
      <g>
       <use style="stroke:#000000;stroke-width:0.8;" x="104.425" xlink:href="#md3b76d2c7e" y="356.36314"/>
      </g>
     </g>
     <g id="text_12">
      <!-- 3000 -->
      <defs>
       <path d="M 40.578125 39.3125 
Q 47.65625 37.796875 51.625 33 
Q 55.609375 28.21875 55.609375 21.1875 
Q 55.609375 10.40625 48.1875 4.484375 
Q 40.765625 -1.421875 27.09375 -1.421875 
Q 22.515625 -1.421875 17.65625 -0.515625 
Q 12.796875 0.390625 7.625 2.203125 
L 7.625 11.71875 
Q 11.71875 9.328125 16.59375 8.109375 
Q 21.484375 6.890625 26.8125 6.890625 
Q 36.078125 6.890625 40.9375 10.546875 
Q 45.796875 14.203125 45.796875 21.1875 
Q 45.796875 27.640625 41.28125 31.265625 
Q 36.765625 34.90625 28.71875 34.90625 
L 20.21875 34.90625 
L 20.21875 43.015625 
L 29.109375 43.015625 
Q 36.375 43.015625 40.234375 45.921875 
Q 44.09375 48.828125 44.09375 54.296875 
Q 44.09375 59.90625 40.109375 62.90625 
Q 36.140625 65.921875 28.71875 65.921875 
Q 24.65625 65.921875 20.015625 65.03125 
Q 15.375 64.15625 9.8125 62.3125 
L 9.8125 71.09375 
Q 15.4375 72.65625 20.34375 73.4375 
Q 25.25 74.21875 29.59375 74.21875 
Q 40.828125 74.21875 47.359375 69.109375 
Q 53.90625 64.015625 53.90625 55.328125 
Q 53.90625 49.265625 50.4375 45.09375 
Q 46.96875 40.921875 40.578125 39.3125 
z
" id="DejaVuSans-33"/>
      </defs>
      <g transform="translate(33.8 365.861187)scale(0.25 -0.25)">
       <use xlink:href="#DejaVuSans-33"/>
       <use x="63.623047" xlink:href="#DejaVuSans-30"/>
       <use x="127.246094" xlink:href="#DejaVuSans-30"/>
       <use x="190.869141" xlink:href="#DejaVuSans-30"/>
      </g>
     </g>
    </g>
    <g id="ytick_5">
     <g id="line2d_12">
      <g>
       <use style="stroke:#000000;stroke-width:0.8;" x="104.425" xlink:href="#md3b76d2c7e" y="234.375721"/>
      </g>
     </g>
     <g id="text_13">
      <!-- 4000 -->
      <g transform="translate(33.8 243.873767)scale(0.25 -0.25)">
       <use xlink:href="#DejaVuSans-34"/>
       <use x="63.623047" xlink:href="#DejaVuSans-30"/>
       <use x="127.246094" xlink:href="#DejaVuSans-30"/>
       <use x="190.869141" xlink:href="#DejaVuSans-30"/>
      </g>
     </g>
    </g>
    <g id="ytick_6">
     <g id="line2d_13">
      <g>
       <use style="stroke:#000000;stroke-width:0.8;" x="104.425" xlink:href="#md3b76d2c7e" y="112.388301"/>
      </g>
     </g>
     <g id="text_14">
      <!-- 5000 -->
      <g transform="translate(33.8 121.886348)scale(0.25 -0.25)">
       <use xlink:href="#DejaVuSans-35"/>
       <use x="63.623047" xlink:href="#DejaVuSans-30"/>
       <use x="127.246094" xlink:href="#DejaVuSans-30"/>
       <use x="190.869141" xlink:href="#DejaVuSans-30"/>
      </g>
     </g>
    </g>
    <g id="text_15">
     <!-- Bandwidth (kbps) -->
     <defs>
      <path d="M 19.671875 34.8125 
L 19.671875 8.109375 
L 35.5 8.109375 
Q 43.453125 8.109375 47.28125 11.40625 
Q 51.125 14.703125 51.125 21.484375 
Q 51.125 28.328125 47.28125 31.5625 
Q 43.453125 34.8125 35.5 34.8125 
z
M 19.671875 64.796875 
L 19.671875 42.828125 
L 34.28125 42.828125 
Q 41.5 42.828125 45.03125 45.53125 
Q 48.578125 48.25 48.578125 53.8125 
Q 48.578125 59.328125 45.03125 62.0625 
Q 41.5 64.796875 34.28125 64.796875 
z
M 9.8125 72.90625 
L 35.015625 72.90625 
Q 46.296875 72.90625 52.390625 68.21875 
Q 58.5 63.53125 58.5 54.890625 
Q 58.5 48.1875 55.375 44.234375 
Q 52.25 40.28125 46.1875 39.3125 
Q 53.46875 37.75 57.5 32.78125 
Q 61.53125 27.828125 61.53125 20.40625 
Q 61.53125 10.640625 54.890625 5.3125 
Q 48.25 0 35.984375 0 
L 9.8125 0 
z
" id="DejaVuSans-42"/>
      <path d="M 34.28125 27.484375 
Q 23.390625 27.484375 19.1875 25 
Q 14.984375 22.515625 14.984375 16.5 
Q 14.984375 11.71875 18.140625 8.90625 
Q 21.296875 6.109375 26.703125 6.109375 
Q 34.1875 6.109375 38.703125 11.40625 
Q 43.21875 16.703125 43.21875 25.484375 
L 43.21875 27.484375 
z
M 52.203125 31.203125 
L 52.203125 0 
L 43.21875 0 
L 43.21875 8.296875 
Q 40.140625 3.328125 35.546875 0.953125 
Q 30.953125 -1.421875 24.3125 -1.421875 
Q 15.921875 -1.421875 10.953125 3.296875 
Q 6 8.015625 6 15.921875 
Q 6 25.140625 12.171875 29.828125 
Q 18.359375 34.515625 30.609375 34.515625 
L 43.21875 34.515625 
L 43.21875 35.40625 
Q 43.21875 41.609375 39.140625 45 
Q 35.0625 48.390625 27.6875 48.390625 
Q 23 48.390625 18.546875 47.265625 
Q 14.109375 46.140625 10.015625 43.890625 
L 10.015625 52.203125 
Q 14.9375 54.109375 19.578125 55.046875 
Q 24.21875 56 28.609375 56 
Q 40.484375 56 46.34375 49.84375 
Q 52.203125 43.703125 52.203125 31.203125 
z
" id="DejaVuSans-61"/>
      <path d="M 45.40625 46.390625 
L 45.40625 75.984375 
L 54.390625 75.984375 
L 54.390625 0 
L 45.40625 0 
L 45.40625 8.203125 
Q 42.578125 3.328125 38.25 0.953125 
Q 33.9375 -1.421875 27.875 -1.421875 
Q 17.96875 -1.421875 11.734375 6.484375 
Q 5.515625 14.40625 5.515625 27.296875 
Q 5.515625 40.1875 11.734375 48.09375 
Q 17.96875 56 27.875 56 
Q 33.9375 56 38.25 53.625 
Q 42.578125 51.265625 45.40625 46.390625 
z
M 14.796875 27.296875 
Q 14.796875 17.390625 18.875 11.75 
Q 22.953125 6.109375 30.078125 6.109375 
Q 37.203125 6.109375 41.296875 11.75 
Q 45.40625 17.390625 45.40625 27.296875 
Q 45.40625 37.203125 41.296875 42.84375 
Q 37.203125 48.484375 30.078125 48.484375 
Q 22.953125 48.484375 18.875 42.84375 
Q 14.796875 37.203125 14.796875 27.296875 
z
" id="DejaVuSans-64"/>
      <path d="M 4.203125 54.6875 
L 13.1875 54.6875 
L 24.421875 12.015625 
L 35.59375 54.6875 
L 46.1875 54.6875 
L 57.421875 12.015625 
L 68.609375 54.6875 
L 77.59375 54.6875 
L 63.28125 0 
L 52.6875 0 
L 40.921875 44.828125 
L 29.109375 0 
L 18.5 0 
z
" id="DejaVuSans-77"/>
      <path d="M 54.890625 33.015625 
L 54.890625 0 
L 45.90625 0 
L 45.90625 32.71875 
Q 45.90625 40.484375 42.875 44.328125 
Q 39.84375 48.1875 33.796875 48.1875 
Q 26.515625 48.1875 22.3125 43.546875 
Q 18.109375 38.921875 18.109375 30.90625 
L 18.109375 0 
L 9.078125 0 
L 9.078125 75.984375 
L 18.109375 75.984375 
L 18.109375 46.1875 
Q 21.34375 51.125 25.703125 53.5625 
Q 30.078125 56 35.796875 56 
Q 45.21875 56 50.046875 50.171875 
Q 54.890625 44.34375 54.890625 33.015625 
z
" id="DejaVuSans-68"/>
      <path d="M 31 75.875 
Q 24.46875 64.65625 21.28125 53.65625 
Q 18.109375 42.671875 18.109375 31.390625 
Q 18.109375 20.125 21.3125 9.0625 
Q 24.515625 -2 31 -13.1875 
L 23.1875 -13.1875 
Q 15.875 -1.703125 12.234375 9.375 
Q 8.59375 20.453125 8.59375 31.390625 
Q 8.59375 42.28125 12.203125 53.3125 
Q 15.828125 64.359375 23.1875 75.875 
z
" id="DejaVuSans-28"/>
      <path d="M 9.078125 75.984375 
L 18.109375 75.984375 
L 18.109375 31.109375 
L 44.921875 54.6875 
L 56.390625 54.6875 
L 27.390625 29.109375 
L 57.625 0 
L 45.90625 0 
L 18.109375 26.703125 
L 18.109375 0 
L 9.078125 0 
z
" id="DejaVuSans-6b"/>
      <path d="M 48.6875 27.296875 
Q 48.6875 37.203125 44.609375 42.84375 
Q 40.53125 48.484375 33.40625 48.484375 
Q 26.265625 48.484375 22.1875 42.84375 
Q 18.109375 37.203125 18.109375 27.296875 
Q 18.109375 17.390625 22.1875 11.75 
Q 26.265625 6.109375 33.40625 6.109375 
Q 40.53125 6.109375 44.609375 11.75 
Q 48.6875 17.390625 48.6875 27.296875 
z
M 18.109375 46.390625 
Q 20.953125 51.265625 25.265625 53.625 
Q 29.59375 56 35.59375 56 
Q 45.5625 56 51.78125 48.09375 
Q 58.015625 40.1875 58.015625 27.296875 
Q 58.015625 14.40625 51.78125 6.484375 
Q 45.5625 -1.421875 35.59375 -1.421875 
Q 29.59375 -1.421875 25.265625 0.953125 
Q 20.953125 3.328125 18.109375 8.203125 
L 18.109375 0 
L 9.078125 0 
L 9.078125 75.984375 
L 18.109375 75.984375 
z
" id="DejaVuSans-62"/>
      <path d="M 8.015625 75.875 
L 15.828125 75.875 
Q 23.140625 64.359375 26.78125 53.3125 
Q 30.421875 42.28125 30.421875 31.390625 
Q 30.421875 20.453125 26.78125 9.375 
Q 23.140625 -1.703125 15.828125 -13.1875 
L 8.015625 -13.1875 
Q 14.5 -2 17.703125 9.0625 
Q 20.90625 20.125 20.90625 31.390625 
Q 20.90625 42.671875 17.703125 53.65625 
Q 14.5 64.65625 8.015625 75.875 
z
" id="DejaVuSans-29"/>
     </defs>
     <g transform="translate(25.640625 473.065625)rotate(-90)scale(0.2 -0.2)">
      <use xlink:href="#DejaVuSans-42"/>
      <use x="68.603516" xlink:href="#DejaVuSans-61"/>
      <use x="129.882812" xlink:href="#DejaVuSans-6e"/>
      <use x="193.261719" xlink:href="#DejaVuSans-64"/>
      <use x="256.738281" xlink:href="#DejaVuSans-77"/>
      <use x="338.525391" xlink:href="#DejaVuSans-69"/>
      <use x="366.308594" xlink:href="#DejaVuSans-64"/>
      <use x="429.785156" xlink:href="#DejaVuSans-74"/>
      <use x="468.994141" xlink:href="#DejaVuSans-68"/>
      <use x="532.373047" xlink:href="#DejaVuSans-20"/>
      <use x="564.160156" xlink:href="#DejaVuSans-28"/>
      <use x="603.173828" xlink:href="#DejaVuSans-6b"/>
      <use x="661.083984" xlink:href="#DejaVuSans-62"/>
      <use x="724.560547" xlink:href="#DejaVuSans-70"/>
      <use x="788.037109" xlink:href="#DejaVuSans-73"/>
      <use x="840.136719" xlink:href="#DejaVuSans-29"/>
     </g>
    </g>
   </g>
   <g id="line2d_14">
    <path clip-path="url(#p68c0ed7955)" d="M 164.482955 721.937211 
L 165.484755 714.317609 
L 166.486556 717.785296 
L 167.488357 720.256493 
L 168.490158 719.614571 
L 169.491958 718.313368 
L 170.493759 714.97362 
L 172.49736 719.731679 
L 173.499161 721.641184 
L 175.502763 719.17433 
L 176.504563 715.601453 
L 177.506364 715.572176 
L 178.508165 717.959872 
L 179.509966 713.65074 
L 180.511766 716.023261 
L 181.513567 717.040368 
L 182.515368 687.713506 
L 183.517169 712.523027 
L 184.518969 687.184349 
L 185.52077 695.315762 
L 186.522571 706.324993 
L 187.524372 702.913676 
L 188.526172 703.000421 
L 189.527973 693.973352 
L 190.529774 698.019004 
L 191.531575 692.242765 
L 192.533375 684.920263 
L 193.535176 708.589079 
L 194.536977 703.449335 
L 195.538778 718.889148 
L 196.540578 719.987584 
L 197.542379 720.529745 
L 198.54418 707.163181 
L 199.545981 713.824231 
L 200.547781 714.752421 
L 201.549582 717.649756 
L 202.551383 716.452657 
L 203.553184 721.155406 
L 204.554984 717.113011 
L 205.556785 721.795157 
L 206.558586 720.555765 
L 207.560386 722.115045 
L 208.562187 720.101435 
L 209.563988 722.208292 
L 210.565789 717.150962 
L 211.567589 720.348667 
L 212.56939 722.186602 
L 213.571191 722.282021 
L 214.572992 722.238654 
L 215.574792 721.002519 
L 216.576593 718.009753 
L 217.578394 721.002519 
L 219.581995 722.143236 
L 220.583796 714.24061 
L 221.585597 720.512398 
L 222.587398 720.568781 
L 223.589198 722.238654 
L 224.590999 722.023956 
L 225.5928 717.841679 
L 226.594601 720.425653 
L 227.596401 722.25383 
L 228.598202 722.105286 
L 229.600003 720.698905 
L 230.601804 720.564438 
L 231.603604 722.282021 
L 232.605405 722.269017 
L 233.607206 720.655526 
L 234.609007 720.632751 
L 235.610807 722.215879 
L 236.612608 721.86347 
L 237.614409 720.599143 
L 238.61621 719.846615 
L 239.61801 714.496515 
L 240.619811 717.97939 
L 241.621612 719.177587 
L 242.623413 719.792404 
L 243.625213 713.910976 
L 245.628815 721.237809 
L 246.630615 721.963231 
L 247.632416 718.203847 
L 248.634217 720.723839 
L 249.636018 719.432395 
L 250.637818 716.123022 
L 251.639619 720.64251 
L 252.64142 717.715898 
L 253.643221 718.762281 
L 254.645021 717.667103 
L 255.646822 721.025282 
L 256.648623 700.72549 
L 257.650424 692.730715 
L 258.652224 698.999234 
L 259.654025 702.001759 
L 260.655826 709.929306 
L 262.659427 677.78861 
L 263.661228 683.869549 
L 264.663029 708.443768 
L 265.66483 714.278573 
L 266.66663 722.147566 
L 267.668431 716.695546 
L 268.670232 721.797328 
L 269.672033 714.974706 
L 270.673833 714.793628 
L 271.675634 711.973279 
L 272.677435 710.141833 
L 273.679236 714.551824 
L 274.681036 722.269017 
L 275.682837 721.845038 
L 276.684638 717.349399 
L 277.686439 717.237707 
L 278.688239 715.03326 
L 279.69004 718.177827 
L 280.691841 710.792441 
L 281.693641 706.394379 
L 282.695442 709.837145 
L 283.697243 695.869854 
L 284.699044 709.242932 
L 285.700844 706.279443 
L 286.702645 704.664878 
L 287.704446 713.000144 
L 288.706247 715.776029 
L 289.708047 717.61072 
L 290.709848 719.12445 
L 291.711649 711.844241 
L 292.71345 713.297245 
L 293.71525 712.512195 
L 294.717051 710.261112 
L 295.718852 710.194971 
L 296.720653 717.956628 
L 297.722453 713.190982 
L 298.724254 717.641083 
L 299.726055 720.599143 
L 300.727856 709.209312 
L 301.729656 720.655526 
L 302.731457 718.894577 
L 303.733258 716.816984 
L 304.735059 718.820835 
L 305.736859 714.893389 
L 306.73866 717.38952 
L 307.740461 717.105424 
L 308.742262 714.192901 
L 309.744062 718.985652 
L 310.745863 717.21603 
L 311.747664 717.30602 
L 312.749465 718.823007 
L 313.751265 718.942286 
L 315.754867 717.129272 
L 316.756667 714.3382 
L 317.758468 718.983481 
L 318.760269 714.730731 
L 319.76207 718.147465 
L 320.76387 719.004085 
L 321.765671 715.549401 
L 322.767472 704.455597 
L 323.769273 697.676353 
L 324.771073 682.925085 
L 325.772874 685.634841 
L 326.774675 683.905328 
L 327.776476 692.883602 
L 328.778276 700.348146 
L 329.780077 684.959299 
L 330.781878 686.277849 
L 331.783679 675.048492 
L 333.78728 700.300437 
L 334.789081 675.726205 
L 335.790882 672.695501 
L 336.792682 693.095042 
L 337.794483 672.567548 
L 338.796284 649.653431 
L 339.798085 659.815789 
L 340.799885 700.14755 
L 341.801686 721.802757 
L 342.803487 693.677337 
L 343.805288 691.310232 
L 344.807088 712.045922 
L 345.808889 720.478778 
L 346.81069 720.78565 
L 347.812491 722.138893 
L 348.814291 720.599143 
L 349.816092 722.182272 
L 350.817893 719.2459 
L 351.819693 722.137807 
L 352.821494 713.509771 
L 353.823295 715.129764 
L 354.825096 722.170341 
L 355.826896 718.958547 
L 356.828697 721.930697 
L 357.830498 720.655526 
L 358.832299 720.464689 
L 359.834099 721.592389 
L 360.8359 721.48504 
L 361.837701 721.983835 
L 362.839502 718.799146 
L 363.841302 716.113263 
L 364.843103 717.792884 
L 365.844904 722.095527 
L 366.846705 722.145395 
L 369.852107 721.812516 
L 370.853908 722.148652 
L 371.855708 718.466254 
L 372.857509 717.359158 
L 373.85931 716.956867 
L 374.861111 707.224979 
L 375.862911 707.100284 
L 376.864712 704.951134 
L 377.866513 708.10113 
L 378.868314 697.830326 
L 379.870114 689.008196 
L 380.871915 688.661215 
L 381.873716 696.825149 
L 382.875517 693.692512 
L 383.877317 688.577714 
L 384.879118 701.99633 
L 385.880919 695.854666 
L 386.88272 699.770194 
L 387.88452 692.730715 
L 388.886321 676.475476 
L 389.888122 688.091936 
L 390.889922 705.743784 
L 391.891723 707.47004 
L 392.893524 710.074606 
L 393.895325 704.114032 
L 394.897125 706.259925 
L 395.898926 722.195276 
L 396.900727 718.800232 
L 397.902528 722.216965 
L 398.904328 718.626741 
L 399.906129 713.560738 
L 400.90793 704.013185 
L 401.909731 705.610415 
L 402.911531 713.32435 
L 403.913332 709.139914 
L 404.915133 702.633922 
L 405.916934 703.891746 
L 406.918734 722.282021 
L 407.920535 722.106359 
L 408.922336 720.473362 
L 409.924137 722.031544 
L 410.925937 700.132363 
L 411.927738 698.578511 
L 412.929539 680.571009 
L 413.93134 683.289425 
L 414.93314 699.463335 
L 415.934941 700.602966 
L 416.936742 700.512963 
L 417.938543 686.57712 
L 418.940343 700.483686 
L 419.942144 687.167003 
L 420.943945 699.554411 
L 421.945746 699.367904 
L 422.947546 690.134823 
L 423.949347 697.801049 
L 424.951148 689.386625 
L 425.952948 703.979577 
L 426.954749 688.670974 
L 427.95655 693.311912 
L 428.958351 703.823433 
L 429.960151 698.039607 
L 430.961952 699.102252 
L 431.963753 688.030125 
L 432.965554 693.571062 
L 433.967354 697.423705 
L 434.969155 696.711299 
L 435.970956 717.402524 
L 436.972757 722.238654 
L 437.974557 720.612159 
L 438.976358 717.83192 
L 439.978159 722.004439 
L 440.97996 722.021785 
L 441.98176 717.54675 
L 442.983561 707.891848 
L 443.985362 722.138893 
L 444.987163 718.275417 
L 445.988963 720.701064 
L 446.990764 720.612159 
L 447.992565 716.105664 
L 448.994366 722.269017 
L 449.996166 722.043474 
L 450.997967 720.655526 
L 451.999768 722.173598 
L 453.001569 722.238654 
L 454.003369 719.332646 
L 455.00517 713.65074 
L 456.006971 719.560347 
L 457.008772 722.238654 
L 458.010572 722.238654 
L 459.012373 714.67652 
L 460.014174 719.332646 
L 461.015974 720.94721 
L 462.017775 718.876132 
L 463.019576 721.071906 
L 464.021377 717.608549 
L 466.024978 720.560107 
L 467.026779 720.599143 
L 468.02858 718.692883 
L 469.03038 721.610822 
L 470.032181 719.146139 
L 471.033982 722.176843 
L 472.035783 715.862774 
L 473.037583 722.045646 
L 474.039384 721.674804 
L 475.041185 718.439149 
L 476.042986 714.613623 
L 477.044786 703.656445 
L 478.046587 714.885789 
L 479.048388 717.456748 
L 480.050189 720.600229 
L 481.051989 722.107445 
L 482.05379 722.232152 
L 483.055591 719.436738 
L 484.057392 717.489282 
L 485.059192 722.213708 
L 486.060993 722.10853 
L 487.062794 721.835279 
L 488.064595 718.421802 
L 489.066395 720.222873 
L 490.068196 722.282021 
L 491.069997 720.742271 
L 492.071798 722.20179 
L 494.075399 722.165999 
L 495.0772 719.545172 
L 496.079 720.117696 
L 497.080801 722.086841 
L 498.082602 722.269017 
L 499.084403 722.242985 
L 500.086203 720.698905 
L 501.088004 722.107445 
L 502.089805 720.78565 
L 503.091606 722.282021 
L 504.093406 720.698905 
L 505.095207 722.257087 
L 506.097008 722.263589 
L 507.098809 720.78565 
L 508.100609 722.282021 
L 509.10241 722.183357 
L 510.104211 721.661788 
L 511.106012 721.626009 
L 512.107812 722.282021 
L 513.109613 722.169256 
L 514.111414 719.545172 
L 515.113215 722.20179 
L 516.115015 722.282021 
L 517.116816 721.839621 
L 518.118617 722.151909 
L 519.120418 720.246734 
L 520.122218 721.669376 
L 521.124019 722.000096 
L 522.12582 721.903592 
L 523.127621 721.691065 
L 524.129421 717.775537 
L 525.131222 717.705053 
L 526.133023 721.210703 
L 527.134824 718.286262 
L 528.136624 719.629746 
L 529.138425 719.728422 
L 530.140226 715.900725 
L 531.142026 719.336976 
L 532.143827 720.585042 
L 533.145628 716.403862 
L 534.147429 718.656018 
L 535.149229 716.955782 
L 536.15103 722.087927 
L 537.152831 719.31963 
L 538.154632 716.152299 
L 539.156432 718.647345 
L 540.158233 719.07674 
L 541.160034 720.515643 
L 542.161835 717.680119 
L 543.163635 697.942017 
L 544.165436 705.040051 
L 545.167237 702.47019 
L 546.169038 710.403167 
L 547.170838 704.21705 
L 548.172639 714.512789 
L 549.17444 707.479799 
L 550.176241 710.791355 
L 551.178041 700.522722 
L 552.179842 700.923927 
L 553.181643 714.508446 
L 554.183444 714.269887 
L 555.185244 719.426979 
L 556.187045 719.901912 
L 557.188846 713.63881 
L 558.190647 715.755426 
L 559.192447 716.988316 
L 560.194248 716.866865 
L 561.196049 717.463249 
L 562.19785 721.617336 
L 563.19965 719.922516 
L 564.201451 572.825206 
L 565.203252 673.367786 
L 566.205053 709.419667 
L 567.206853 715.390012 
L 568.208654 682.639915 
L 569.210455 702.423555 
L 570.212255 706.987519 
L 571.214056 633.306032 
L 572.215857 691.471805 
L 573.217658 672.992601 
L 574.219458 638.267931 
L 575.221259 686.571704 
L 576.22306 710.655815 
L 577.224861 713.874111 
L 578.226661 716.24013 
L 579.228462 722.257087 
L 580.230263 719.159143 
L 581.232064 717.21603 
L 582.233864 722.065164 
L 583.235665 722.225638 
L 584.237466 717.432887 
L 585.239267 722.126963 
L 586.241067 721.809259 
L 587.242868 721.814675 
L 588.244669 717.827589 
L 589.24647 720.779136 
L 590.24827 722.151909 
L 591.250071 722.212634 
L 592.251872 722.144321 
L 593.253673 722.282021 
L 595.257274 722.282021 
L 596.259075 721.046971 
L 597.260876 722.263589 
L 599.264477 722.269017 
L 601.268079 719.24806 
L 602.269879 716.627233 
L 603.27168 719.007342 
L 604.273481 721.700824 
L 605.275281 720.872395 
L 606.277082 717.684461 
L 607.278883 717.154219 
L 608.280684 718.750351 
L 609.282484 720.685889 
L 610.284285 720.742271 
L 611.286086 722.282021 
L 612.287887 720.698905 
L 613.289687 722.184431 
L 614.291488 722.121546 
L 615.293289 715.016999 
L 617.29689 719.905169 
L 618.298691 711.73039 
L 619.300492 714.153865 
L 620.302293 720.587213 
L 621.304093 717.489282 
L 622.305894 718.739506 
L 624.309496 707.689081 
L 625.311296 711.104728 
L 626.313097 722.158411 
L 627.314898 720.426739 
L 628.316699 705.76113 
L 629.318499 706.671974 
L 630.3203 710.592918 
L 631.322101 705.716678 
L 632.323902 690.892767 
L 633.325702 705.26885 
L 634.327503 711.142679 
L 635.329304 699.502371 
L 636.331105 706.469206 
L 637.332905 720.474448 
L 638.334706 705.217884 
L 639.336507 714.171224 
L 640.338307 717.005662 
L 641.340108 721.976247 
L 642.341909 722.225638 
L 643.34371 714.521462 
L 644.34551 708.9957 
L 645.347311 705.076915 
L 646.349112 722.176843 
L 647.350913 719.255659 
L 648.352713 714.641815 
L 649.354514 713.033752 
L 650.356315 705.638606 
L 651.358116 616.891404 
L 652.359916 675.948491 
L 653.361717 715.318442 
L 654.363518 714.062789 
L 655.365319 710.381477 
L 656.367119 715.465913 
L 657.36892 714.675434 
L 658.370721 714.553984 
L 659.372522 719.376012 
L 660.374322 720.523243 
L 661.376123 721.488298 
L 662.377924 719.899753 
L 663.379725 722.167084 
L 664.381525 715.55916 
L 665.383326 711.748822 
L 666.385127 716.901571 
L 667.386928 706.778237 
L 668.388728 716.593613 
L 669.390529 713.982546 
L 670.39233 713.504355 
L 671.394131 718.314453 
L 672.395931 721.064318 
L 673.397732 720.279268 
L 674.399533 720.298786 
L 675.401333 719.033362 
L 676.403134 721.462265 
L 677.404935 720.05697 
L 678.406736 721.67589 
L 679.408536 720.015775 
L 680.410337 720.411551 
L 681.412138 720.592642 
L 682.413939 721.404797 
L 683.415739 721.80383 
L 684.41754 717.106509 
L 685.419341 720.884326 
L 686.421142 718.710229 
L 687.422942 716.256391 
L 688.424743 715.584106 
L 689.426544 717.615063 
L 690.428345 722.223467 
L 691.430145 721.916608 
L 692.431946 722.282021 
L 693.433747 714.725315 
L 694.435548 716.940607 
L 696.439149 722.195276 
L 697.44095 718.916254 
L 698.442751 721.800585 
L 699.444551 719.425893 
L 700.446352 714.902063 
L 701.448153 716.011331 
L 702.449954 721.547937 
L 703.451754 721.660702 
L 704.453555 709.273282 
L 705.455356 722.138893 
L 706.457157 719.65035 
L 707.458957 715.695786 
L 708.460758 717.64434 
L 709.462559 722.186602 
L 711.46616 715.591694 
L 712.467961 715.403016 
L 713.469762 719.029031 
L 714.471562 719.739266 
L 715.473363 711.566646 
L 716.475164 709.181121 
L 717.476965 717.568427 
L 718.478765 720.588299 
L 719.480566 721.843952 
L 720.482367 716.416866 
L 721.484168 715.037603 
L 722.485968 721.939383 
L 723.487769 722.06625 
L 724.48957 718.870716 
L 725.491371 721.314807 
L 726.493171 720.539504 
L 727.494972 717.239878 
L 728.496773 712.421107 
L 729.498574 720.321549 
L 730.500374 719.065896 
L 731.502175 710.795685 
L 732.503976 717.675776 
L 733.505777 709.156175 
L 734.507577 719.029031 
L 735.509378 719.904084 
L 736.511179 715.52121 
L 737.51298 718.802403 
L 739.516581 712.174961 
L 740.518382 720.630592 
L 741.520183 719.097344 
L 742.521983 716.116508 
L 743.523784 657.085442 
L 744.525585 679.470402 
L 745.527386 713.563995 
L 746.529186 709.506425 
L 747.530987 675.935487 
L 748.532788 715.125434 
L 749.534588 677.812459 
L 750.536389 625.509681 
L 751.53819 708.684498 
L 752.539991 706.499569 
L 753.541791 708.467629 
L 754.543592 663.977463 
L 755.545393 719.020358 
L 756.547194 717.600961 
L 757.548994 710.723042 
L 758.550795 695.824316 
L 759.552596 720.34541 
L 760.554397 716.413621 
L 761.556197 707.883175 
L 762.557998 717.214944 
L 763.559799 717.957713 
L 764.5616 712.37014 
L 765.5634 712.036163 
L 766.565201 691.183365 
L 767.567002 719.072398 
L 768.568803 720.373601 
L 769.570603 720.553606 
L 770.572404 722.175758 
L 771.574205 722.193116 
L 772.576006 719.420477 
L 773.577806 721.451433 
L 774.579607 714.444476 
L 775.581408 722.110702 
L 776.583209 718.717829 
L 777.585009 719.242643 
L 778.58681 717.918677 
L 779.588611 710.236178 
L 780.590412 720.786736 
L 781.592212 720.586127 
L 782.594013 712.379899 
L 783.595814 718.894577 
L 784.597614 718.585534 
L 785.599415 719.892153 
L 786.601216 683.224369 
L 787.603017 719.097344 
L 788.604817 721.539264 
L 789.606618 722.177929 
L 790.608419 722.08251 
L 791.61022 718.809991 
L 792.61202 719.050721 
L 793.613821 719.637334 
L 794.615622 698.333451 
L 795.617423 722.269017 
L 797.621024 718.599635 
L 798.622825 722.219136 
L 799.624626 720.398535 
L 800.626426 720.478778 
L 801.628227 722.165999 
L 802.630028 716.166389 
L 803.631829 716.166389 
L 804.633629 722.225638 
L 805.63543 722.157325 
L 806.637231 717.445903 
L 807.639032 720.531916 
L 808.640832 720.618661 
L 809.642633 721.586973 
L 810.644434 720.655526 
L 811.646235 714.113743 
L 812.648035 719.887823 
L 813.649836 722.238654 
L 814.651637 697.906226 
L 815.653438 714.719887 
L 816.655238 720.229387 
L 817.657039 713.66267 
L 818.65884 713.043511 
L 819.66064 720.611074 
L 820.662441 717.374333 
L 821.664242 501.446841 
L 822.666043 319.530527 
L 823.667843 181.347521 
L 824.669644 228.769715 
L 825.671445 104.889051 
L 826.673246 271.027243 
L 827.675046 710.743646 
L 828.676847 642.12599 
L 829.678648 719.1624 
L 830.680449 717.350484 
L 831.682249 718.447822 
L 832.68405 718.933613 
L 833.685851 718.048789 
L 834.687652 718.163726 
L 835.689452 719.793478 
L 836.691253 722.098771 
L 837.693054 597.698709 
L 838.694855 413.92277 
L 839.696655 697.322858 
L 840.698456 706.431256 
L 841.700257 712.465559 
L 842.702058 720.410465 
L 843.703858 720.425653 
L 844.705659 721.549023 
L 845.70746 719.802163 
L 846.709261 722.017455 
L 847.711061 714.097482 
L 848.712862 715.121091 
L 849.714663 716.946023 
L 850.716464 716.544818 
L 851.718264 715.291337 
L 852.720065 703.693309 
L 853.721866 714.301336 
L 854.723667 720.414808 
L 855.725467 721.886245 
L 856.727268 721.53275 
L 857.729069 722.282021 
L 858.730869 717.359158 
L 859.73267 720.600229 
L 860.734471 710.098466 
L 861.736272 720.61649 
L 862.738072 717.380847 
L 863.739873 716.672771 
L 864.741674 706.938724 
L 865.743475 717.319036 
L 866.745275 722.119375 
L 867.747076 695.034911 
L 868.748877 709.453287 
L 869.750678 713.153031 
L 870.752478 720.565524 
L 871.754279 715.136278 
L 872.75608 714.80013 
L 873.757881 719.336976 
L 874.759681 713.359056 
L 875.761482 711.667493 
L 876.763283 719.879149 
L 877.765084 718.346987 
L 878.766884 718.162652 
L 879.768685 714.069291 
L 880.770486 713.466405 
L 881.772287 718.312282 
L 882.774087 715.602539 
L 884.777689 721.848295 
L 885.77949 721.778896 
L 886.78129 718.542167 
L 887.783091 705.41848 
L 888.784892 717.43723 
L 889.786693 718.59855 
L 890.788493 722.228895 
L 891.790294 714.192901 
L 892.792095 722.229981 
L 893.793895 718.121445 
L 895.797497 718.221206 
L 896.799298 720.45926 
L 897.801098 714.131102 
L 898.802899 722.208292 
L 899.8047 714.743747 
L 900.806501 718.820835 
L 901.808301 681.864612 
L 902.810102 658.881097 
L 903.811903 657.90954 
L 904.813704 713.368815 
L 905.815504 716.808311 
L 906.817305 711.418102 
L 907.819106 713.081461 
L 908.820907 713.181223 
L 909.822707 711.308582 
L 910.824508 695.898045 
L 911.826309 717.41121 
L 912.82811 722.068409 
L 913.82991 720.662028 
L 914.831711 720.059142 
L 915.833512 681.022082 
L 916.835313 718.035785 
L 917.837113 713.250621 
L 918.838914 696.095396 
L 919.840715 708.925216 
L 920.842516 708.028474 
L 921.844316 720.389862 
L 922.846117 717.445903 
L 923.847918 708.694257 
L 924.849719 709.84039 
L 925.851519 702.359584 
L 927.855121 712.301828 
L 928.856921 713.954354 
L 929.858722 662.588429 
L 930.860523 636.716251 
L 931.862324 654.413649 
L 932.864124 717.462164 
L 933.865925 720.109022 
L 934.867726 721.864556 
L 935.869527 679.354379 
L 936.871327 705.345836 
L 938.874929 721.42107 
L 939.87673 706.504985 
L 940.87853 722.001181 
L 941.880331 706.070173 
L 942.882132 707.930884 
L 943.883933 720.509141 
L 944.885733 718.669034 
L 945.887534 720.691305 
L 946.889335 711.613282 
L 948.892936 717.745175 
L 949.894737 722.013112 
L 950.896538 721.08275 
L 952.900139 716.650008 
L 953.90194 715.868203 
L 954.903741 710.789184 
L 955.905542 718.260242 
L 956.907342 712.700861 
L 957.909143 718.611566 
L 958.910944 707.448351 
L 959.912745 710.026896 
L 960.914545 717.507714 
L 961.916346 719.072398 
L 962.918147 715.989641 
L 963.919947 716.234702 
L 964.921748 720.491795 
L 964.921748 720.491795 
" style="fill:none;stroke:#1f77b4;stroke-linecap:square;stroke-width:1.5;"/>
   </g>
   <g id="line2d_15">
    <path clip-path="url(#p68c0ed7955)" d="M 965.923549 719.449754 
L 966.92535 704.466441 
L 967.92715 722.220222 
L 968.928951 719.729507 
L 969.930752 715.700129 
L 970.932553 722.105286 
L 971.934353 721.143476 
L 972.936154 718.981322 
L 973.937955 721.462265 
L 974.939756 710.946413 
L 975.941556 720.627335 
L 976.943357 716.441812 
L 977.945158 720.467934 
L 978.946959 720.872395 
L 979.948759 703.285603 
L 980.95056 707.80076 
L 981.952361 720.448416 
L 982.954162 722.282021 
L 983.955962 720.641436 
L 984.957763 713.054356 
L 985.959564 710.442202 
L 986.961365 722.193116 
L 988.964966 722.175758 
L 989.966767 720.951553 
L 990.968568 711.932071 
L 991.970368 720.472277 
L 992.972169 721.965403 
L 993.97397 720.117696 
L 994.975771 722.0966 
L 995.977571 720.499382 
L 996.979372 707.632698 
L 997.981173 722.286364 
L 998.982974 720.698905 
L 999.984774 722.282021 
L 1000.986575 722.182272 
L 1001.988376 714.880373 
L 1002.990176 716.123022 
L 1003.991977 713.463148 
L 1004.993778 715.562417 
L 1005.995579 721.542509 
L 1006.997379 705.890169 
L 1007.99918 719.029031 
L 1009.000981 722.06625 
L 1010.002782 722.267931 
L 1011.004582 717.095665 
L 1012.006383 707.589319 
L 1013.008184 716.289999 
L 1014.009985 719.159143 
L 1015.011785 714.575673 
L 1016.013586 717.586871 
L 1017.015387 710.313164 
L 1018.017188 708.895939 
L 1019.018988 712.589181 
L 1020.020789 711.551471 
L 1021.02259 713.51953 
L 1022.024391 709.662569 
L 1023.026191 720.897329 
L 1024.027992 721.941542 
L 1025.029793 721.954558 
L 1026.031594 720.143728 
L 1027.033394 704.157411 
L 1028.035195 711.572074 
L 1029.036996 722.195276 
L 1030.038797 720.888656 
L 1031.040597 714.843509 
L 1032.042398 720.915762 
L 1033.044199 719.198179 
L 1034.046 719.352164 
L 1035.0478 715.257717 
L 1036.049601 712.219425 
L 1037.051402 720.2218 
L 1038.053202 721.610822 
L 1039.055003 715.963621 
L 1040.056804 719.969139 
L 1041.058605 722.008769 
L 1042.060405 721.684563 
L 1043.062206 720.540589 
L 1044.064007 718.152893 
L 1045.065808 710.697022 
L 1047.069409 720.976487 
L 1048.07121 720.64251 
L 1049.073011 720.729267 
L 1050.074811 716.452657 
L 1051.076612 719.169988 
L 1052.078413 713.133513 
L 1053.080214 713.488094 
L 1054.082014 722.195276 
L 1055.083815 720.698905 
L 1056.085616 720.53083 
L 1057.087417 720.633837 
L 1058.089217 721.162994 
L 1059.091018 722.15408 
L 1060.092819 720.622992 
L 1061.09462 721.862384 
L 1063.098221 719.154812 
L 1064.100022 722.282021 
L 1065.101823 722.260344 
L 1066.103623 721.657445 
L 1067.105424 720.03095 
L 1068.107225 722.203949 
L 1069.109026 722.269017 
L 1070.110826 721.956729 
L 1071.112627 720.64251 
L 1072.114428 720.651195 
L 1074.118029 710.307736 
L 1075.11983 718.961804 
L 1077.123431 722.282021 
L 1078.125232 722.233226 
L 1079.127033 719.065896 
L 1080.128834 722.238654 
L 1081.130634 722.10853 
L 1082.132435 718.948788 
L 1083.134236 698.782364 
L 1084.136037 718.046618 
L 1085.137837 717.462164 
L 1086.139638 722.269017 
L 1087.141439 721.926367 
L 1088.14324 721.392879 
L 1089.14504 718.878304 
L 1090.146841 702.354156 
L 1091.148642 705.027047 
L 1092.150443 715.221938 
L 1093.152243 722.026128 
L 1094.154044 720.170833 
L 1095.155845 716.383258 
L 1097.159446 721.84938 
L 1099.163048 721.907934 
L 1100.164849 720.460346 
L 1101.166649 717.530477 
L 1102.16845 717.334211 
L 1103.170251 712.765929 
L 1104.172052 721.899261 
L 1105.173852 720.362756 
L 1107.177454 720.495052 
L 1108.179254 721.67589 
L 1109.181055 721.683477 
L 1110.182856 720.732512 
L 1111.184657 721.359259 
L 1112.186457 720.373601 
L 1113.188258 716.31386 
L 1114.190059 720.662028 
L 1115.19186 720.534088 
L 1116.19366 716.272652 
L 1117.195461 714.97362 
L 1118.197262 722.053233 
L 1119.199063 720.630592 
L 1120.200863 720.531916 
L 1121.202664 717.052286 
L 1122.204465 712.392916 
L 1123.206266 713.462062 
L 1124.208066 721.47311 
L 1125.209867 721.297448 
L 1126.211668 717.579272 
L 1127.213469 716.02109 
L 1128.215269 719.974568 
L 1129.21707 717.307106 
L 1130.218871 719.745768 
L 1131.220672 716.759516 
L 1132.222472 721.466608 
L 1133.224273 719.60264 
L 1134.226074 721.80383 
L 1135.227875 720.524329 
L 1136.229675 716.055783 
L 1137.231476 720.633837 
L 1138.233277 718.796987 
L 1139.235078 722.19419 
L 1140.236878 722.184431 
L 1141.238679 719.958307 
L 1142.24048 722.07058 
L 1143.24228 719.159143 
L 1144.244081 718.942286 
L 1145.245882 722.282021 
L 1147.249483 718.963963 
L 1148.251284 720.490709 
L 1149.253085 722.282021 
L 1150.254886 720.612159 
L 1151.256686 722.145395 
L 1152.258487 722.282021 
L 1153.260288 718.742763 
L 1154.262089 722.286364 
L 1155.263889 722.056491 
L 1156.26569 720.478778 
L 1157.267491 720.78565 
L 1158.269292 721.644441 
L 1159.271092 718.926013 
L 1160.272893 722.238654 
L 1161.274694 720.655526 
L 1162.276495 720.612159 
L 1163.278295 722.282021 
L 1164.280096 722.160582 
L 1165.281897 722.238654 
L 1165.281897 722.238654 
" style="fill:none;stroke:#ff7f0e;stroke-linecap:square;stroke-width:1.5;"/>
   </g>
   <g id="line2d_16">
    <path clip-path="url(#p68c0ed7955)" d="M 1166.283698 720.698905 
L 1167.285498 716.274824 
L 1168.287299 722.238654 
L 1169.2891 722.161668 
L 1170.290901 720.143728 
L 1171.292701 718.573603 
L 1172.294502 720.350826 
L 1173.296303 717.080477 
L 1174.298104 719.42915 
L 1175.299904 721.045886 
L 1176.301705 722.282021 
L 1177.303506 722.238654 
L 1178.305307 717.445903 
L 1180.308908 703.459094 
L 1181.310709 707.866914 
L 1182.312509 692.321911 
L 1183.31431 696.740576 
L 1184.316111 691.760232 
L 1185.317912 707.517749 
L 1186.319712 712.443882 
L 1187.321513 718.817578 
L 1188.323314 706.854138 
L 1190.326915 721.151063 
L 1191.328716 718.048789 
L 1192.330517 713.706037 
L 1193.332318 711.816049 
L 1194.334118 720.664199 
L 1195.335919 719.070239 
L 1196.33772 720.465775 
L 1197.339521 720.529745 
L 1198.341321 721.990337 
L 1199.343122 715.751095 
L 1200.344923 718.286262 
L 1201.346724 716.136026 
L 1202.348524 708.564133 
L 1203.350325 715.845428 
L 1204.352126 717.011091 
L 1205.353927 720.493966 
L 1206.355727 717.092408 
L 1207.357528 704.984754 
L 1208.359329 715.758683 
L 1209.36113 717.290845 
L 1210.36293 721.70624 
L 1211.364731 718.30578 
L 1212.366532 721.760464 
L 1213.368333 711.546054 
L 1214.370133 715.606869 
L 1215.371934 722.13022 
L 1216.373735 714.050859 
L 1217.375535 722.282021 
L 1218.377336 710.985449 
L 1219.379137 703.820176 
L 1220.380938 721.707326 
L 1221.382738 716.847347 
L 1222.384539 716.876624 
L 1223.38634 720.400706 
L 1224.388141 720.068901 
L 1225.389941 718.003251 
L 1226.391742 718.773126 
L 1227.393543 702.389947 
L 1228.395344 706.660044 
L 1229.397144 720.698905 
L 1230.398945 720.564438 
L 1231.400746 718.332886 
L 1232.402547 717.034939 
L 1233.404347 722.043474 
L 1234.406148 722.061907 
L 1235.407949 720.418053 
L 1236.40975 722.151909 
L 1237.41155 722.263589 
L 1238.413351 716.745427 
L 1239.415152 720.428898 
L 1240.416953 721.075163 
L 1241.418753 722.07058 
L 1242.420554 720.35734 
L 1243.422355 717.217103 
L 1244.424156 720.525402 
L 1245.425956 720.599143 
L 1246.427757 716.012416 
L 1247.429558 715.678439 
L 1248.431359 720.550348 
L 1249.433159 720.118781 
L 1250.43496 721.846123 
L 1251.436761 722.095527 
L 1252.438561 718.67445 
L 1253.440362 722.103114 
L 1254.442163 720.428898 
L 1255.443964 721.900347 
L 1256.445764 720.392033 
L 1257.447565 722.185517 
L 1259.451167 722.186602 
L 1263.45837 722.223467 
L 1264.46017 721.884074 
L 1265.461971 721.848295 
L 1266.463772 722.282021 
L 1267.465573 722.182272 
L 1268.467373 720.655526 
L 1269.469174 722.228895 
L 1270.470975 720.617576 
L 1271.472776 720.698905 
L 1272.474576 721.903592 
L 1273.476377 718.818664 
L 1274.478178 720.435412 
L 1275.479979 720.456016 
L 1276.481779 721.797328 
L 1277.48358 716.158801 
L 1278.485381 720.010347 
L 1279.487182 720.31939 
L 1280.488982 715.080969 
L 1281.490783 716.917831 
L 1282.492584 721.14239 
L 1283.494385 718.158309 
L 1284.496185 715.732663 
L 1285.497986 717.367831 
L 1286.499787 715.632901 
L 1287.501587 717.522889 
L 1288.503388 717.693135 
L 1289.505189 720.533002 
L 1290.50699 721.002519 
L 1291.50879 716.940607 
L 1292.510591 720.324806 
L 1293.512392 716.61856 
L 1294.514193 703.890661 
L 1295.515993 694.386487 
L 1296.517794 713.140015 
L 1297.519595 706.123299 
L 1298.521396 719.043121 
L 1300.524997 701.62766 
L 1301.526798 703.195601 
L 1302.528599 712.267134 
L 1303.530399 710.577743 
L 1304.5322 715.237113 
L 1305.534001 708.226911 
L 1306.535802 707.209804 
L 1307.537602 717.488196 
L 1308.539403 719.445411 
L 1309.541204 718.982408 
L 1310.543005 720.587213 
L 1311.544805 713.535803 
L 1312.546606 716.426625 
L 1313.548407 709.358954 
L 1314.550208 712.926403 
L 1315.552008 718.181084 
L 1316.553809 718.188672 
L 1317.55561 706.206799 
L 1318.557411 719.419391 
L 1319.559211 717.532648 
L 1320.561012 719.072398 
L 1321.562813 713.88387 
L 1322.564614 712.028576 
L 1323.566414 705.675471 
L 1324.568215 706.835705 
L 1325.570016 712.497007 
L 1326.571816 714.471581 
L 1327.573617 715.988556 
L 1328.575418 48.013636 
L 1329.577219 115.784431 
L 1330.579019 86.470585 
L 1331.58082 99.434859 
L 1332.582621 67.478498 
L 1333.584422 509.869938 
L 1334.586222 720.78565 
L 1335.588023 722.161668 
L 1336.589824 720.553606 
L 1337.591625 718.034699 
L 1338.593425 721.907934 
L 1339.595226 722.234312 
L 1340.597027 722.148652 
L 1341.598828 722.188774 
L 1342.600628 720.251077 
L 1343.602429 722.107445 
L 1344.60423 720.05264 
L 1345.606031 720.59047 
L 1346.607831 722.182272 
L 1347.609632 722.167084 
L 1348.611433 720.174078 
L 1349.613234 721.872143 
L 1350.615034 721.580459 
L 1352.618636 715.903982 
L 1353.620437 717.02518 
L 1356.625839 722.221308 
L 1358.62944 722.234312 
L 1359.631241 721.845038 
L 1360.633042 722.133477 
L 1361.634842 722.282021 
L 1362.636643 717.349399 
L 1363.638444 717.28 
L 1364.640245 720.570952 
L 1365.642045 719.051794 
L 1365.642045 719.051794 
" style="fill:none;stroke:#2ca02c;stroke-linecap:square;stroke-width:1.5;"/>
   </g>
   <g id="line2d_17">
    <path clip-path="url(#p68c0ed7955)" d="M 211.567589 712.694132 
L 212.56939 712.699328 
L 214.572992 712.958031 
L 217.578394 712.996164 
L 219.581995 713.232413 
L 221.585597 713.094499 
L 223.589198 713.161615 
L 225.5928 713.342698 
L 226.594601 713.394069 
L 228.598202 713.700009 
L 229.600003 713.776228 
L 230.601804 714.460623 
L 231.603604 714.663935 
L 232.605405 715.394866 
L 233.607206 715.922777 
L 235.610807 716.622985 
L 236.612608 717.015965 
L 238.61621 718.025411 
L 239.61801 718.489031 
L 240.619811 719.177763 
L 241.621612 719.398356 
L 242.623413 719.738837 
L 244.627014 719.589402 
L 245.628815 719.604154 
L 246.630615 719.912488 
L 249.636018 720.165273 
L 255.646822 720.014211 
L 256.648623 719.610546 
L 257.650424 718.99643 
L 261.657627 717.370044 
L 262.659427 716.444001 
L 263.661228 715.670398 
L 265.66483 715.331024 
L 266.66663 715.344059 
L 267.668431 715.230565 
L 268.670232 715.387997 
L 271.675634 714.938451 
L 272.677435 714.690906 
L 274.681036 714.660771 
L 276.684638 714.553174 
L 279.69004 714.280329 
L 282.695442 713.519217 
L 283.697243 712.970342 
L 286.702645 712.092801 
L 292.71345 711.832448 
L 296.720653 711.182369 
L 297.722453 711.052339 
L 299.726055 711.083062 
L 300.727856 710.905841 
L 302.731457 710.970856 
L 303.733258 710.883183 
L 307.740461 712.419683 
L 308.742262 712.508508 
L 309.744062 713.050471 
L 311.747664 714.568468 
L 312.749465 714.784703 
L 313.751265 714.881863 
L 316.756667 714.651239 
L 321.765671 715.067487 
L 322.767472 714.696374 
L 323.769273 714.19286 
L 326.774675 712.168795 
L 327.776476 711.641832 
L 328.778276 711.424242 
L 332.785479 709.595967 
L 333.78728 709.471404 
L 334.789081 708.868515 
L 335.790882 708.028835 
L 336.792682 707.556315 
L 337.794483 706.617915 
L 338.796284 705.170603 
L 339.798085 704.086676 
L 340.799885 703.812724 
L 341.801686 704.006278 
L 343.805288 703.267351 
L 344.807088 703.144211 
L 346.81069 703.361552 
L 347.812491 703.39363 
L 348.814291 703.630918 
L 352.821494 703.670248 
L 354.825096 703.774773 
L 355.826896 703.813379 
L 356.828697 703.974584 
L 360.8359 704.221811 
L 362.839502 704.29968 
L 364.843103 704.350485 
L 368.850306 704.714573 
L 369.852107 704.845054 
L 371.855708 705.646783 
L 373.85931 707.016701 
L 374.861111 707.502528 
L 375.862911 707.798708 
L 376.864712 707.894604 
L 377.866513 708.376725 
L 379.870114 708.908229 
L 381.873716 708.864156 
L 383.877317 709.569333 
L 384.879118 709.754777 
L 385.880919 710.239925 
L 386.88272 711.284024 
L 387.88452 711.969752 
L 388.886321 711.476584 
L 389.888122 710.774275 
L 391.891723 711.362322 
L 392.893524 711.321253 
L 394.897125 710.677701 
L 398.904328 710.629222 
L 403.913332 709.665522 
L 405.916934 708.91426 
L 408.922336 708.941752 
L 409.924137 708.942746 
L 411.927738 708.188547 
L 413.93134 706.604631 
L 416.936742 705.236565 
L 417.938543 704.502494 
L 418.940343 704.051141 
L 419.942144 703.399073 
L 422.947546 702.305659 
L 423.949347 702.111925 
L 424.951148 701.787665 
L 427.95655 701.60064 
L 428.958351 701.91652 
L 431.963753 702.043116 
L 432.965554 701.867589 
L 434.969155 701.83655 
L 435.970956 702.350546 
L 436.972757 703.303946 
L 437.974557 703.981451 
L 441.98176 705.064835 
L 444.987163 705.086725 
L 446.990764 705.096506 
L 447.992565 705.149526 
L 449.996166 705.872211 
L 450.997967 706.024944 
L 451.999768 706.296479 
L 454.003369 707.026596 
L 455.00517 706.846778 
L 457.008772 706.830513 
L 458.010572 706.834828 
L 459.012373 707.137831 
L 460.014174 707.570209 
L 462.017775 709.152769 
L 464.021377 709.957231 
L 465.023177 710.342463 
L 466.024978 711.050441 
L 467.026779 711.469513 
L 468.02858 712.126303 
L 470.032181 712.997858 
L 471.033982 713.6654 
L 472.035783 714.041686 
L 473.037583 714.722082 
L 474.039384 715.090733 
L 475.041185 715.710903 
L 476.042986 716.154689 
L 477.044786 716.15121 
L 479.048388 716.884557 
L 481.051989 718.157609 
L 483.055591 719.147898 
L 490.068196 719.2503 
L 491.069997 719.518017 
L 495.0772 719.608965 
L 497.080801 719.688754 
L 502.089805 719.723339 
L 503.091606 719.903158 
L 509.10241 720.142253 
L 516.115015 720.462154 
L 519.120418 720.48933 
L 520.122218 720.610301 
L 523.127621 720.681867 
L 524.129421 720.74774 
L 525.131222 721.040419 
L 526.133023 721.172188 
L 529.138425 721.119689 
L 530.140226 720.987784 
L 533.145628 720.929162 
L 535.149229 720.755579 
L 537.152831 720.813139 
L 539.156432 720.641792 
L 542.161835 720.448555 
L 543.163635 719.998489 
L 549.17444 718.219325 
L 550.176241 718.011111 
L 552.179842 717.145814 
L 554.183444 716.817848 
L 556.187045 716.739957 
L 558.190647 716.438896 
L 561.196049 716.13142 
L 563.19965 716.127105 
L 564.201451 713.013422 
L 565.203252 712.003592 
L 566.205053 711.738337 
L 567.206853 711.637155 
L 568.208654 710.824041 
L 570.212255 710.105445 
L 571.214056 708.26409 
L 572.215857 707.716096 
L 573.217658 706.784586 
L 574.219458 705.056612 
L 575.221259 704.395892 
L 577.224861 704.08697 
L 582.233864 704.213115 
L 583.235665 704.322903 
L 584.237466 704.225923 
L 590.24827 704.540877 
L 591.250071 705.046514 
L 595.257274 706.43943 
L 596.259075 706.575558 
L 599.264477 707.575991 
L 600.266278 707.987969 
L 602.269879 708.135823 
L 604.273481 708.164558 
L 606.277082 708.355446 
L 610.284285 708.447049 
L 611.286086 708.496205 
L 612.287887 711.576907 
L 613.289687 712.593921 
L 614.291488 712.858543 
L 615.293289 712.850772 
L 616.29509 713.574722 
L 617.29689 713.938923 
L 618.298691 714.037732 
L 619.300492 715.722062 
L 620.302293 716.328633 
L 621.304093 717.255647 
L 622.305894 718.932139 
L 623.307695 719.480336 
L 625.311296 719.360834 
L 626.313097 719.484131 
L 627.314898 719.445999 
L 631.322101 718.364264 
L 632.323902 717.811345 
L 633.325702 717.460134 
L 634.327503 717.237914 
L 635.329304 716.773074 
L 636.331105 716.536441 
L 637.332905 716.530094 
L 638.334706 716.177302 
L 640.338307 715.902717 
L 642.341909 715.895172 
L 644.34551 715.482425 
L 645.347311 715.12437 
L 647.350913 715.0594 
L 650.356315 714.574816 
L 651.358116 712.447401 
L 652.359916 711.494227 
L 659.372522 710.778862 
L 666.385127 710.763048 
L 668.388728 710.52619 
L 670.39233 710.344067 
L 671.394131 710.457176 
L 673.397732 710.926963 
L 675.401333 710.859193 
L 677.404935 711.465154 
L 679.408536 711.993947 
L 680.410337 712.608921 
L 684.41754 713.828185 
L 685.419341 713.836725 
L 686.421142 714.117815 
L 688.424743 714.13164 
L 690.428345 714.040737 
L 691.430145 714.194803 
L 693.433747 714.672609 
L 694.435548 714.563521 
L 695.437348 714.568852 
L 697.44095 714.848768 
L 698.442751 715.185476 
L 699.444551 717.321611 
L 700.446352 718.133144 
L 701.448153 718.147579 
L 703.451754 718.538503 
L 704.453555 718.40949 
L 706.457157 718.671153 
L 709.462559 718.549053 
L 710.46436 718.529783 
L 711.46616 718.392796 
L 712.467961 718.389543 
L 714.471562 718.600333 
L 715.473363 718.700091 
L 716.475164 718.545664 
L 720.482367 718.744661 
L 721.484168 718.63546 
L 725.491371 718.705039 
L 727.494972 718.623533 
L 728.496773 718.457065 
L 730.500374 718.40269 
L 731.502175 718.173354 
L 732.503976 718.185214 
L 733.505777 717.940877 
L 738.51478 717.903648 
L 739.516581 717.700697 
L 740.518382 717.666293 
L 742.521983 717.740208 
L 743.523784 716.439664 
L 744.525585 715.549562 
L 745.527386 715.438057 
L 746.529186 715.181929 
L 747.530987 714.275879 
L 748.532788 714.280532 
L 749.534588 713.484722 
L 750.536389 711.483925 
L 751.53819 711.213588 
L 752.539991 711.155802 
L 753.541791 710.870984 
L 754.543592 709.711132 
L 756.547194 709.77949 
L 757.548994 709.540666 
L 758.550795 709.058364 
L 760.554397 709.178454 
L 761.556197 708.946249 
L 762.557998 708.893659 
L 764.5616 709.093244 
L 765.5634 708.977989 
L 766.565201 708.365386 
L 767.567002 708.307645 
L 770.572404 708.509918 
L 773.577806 708.526861 
L 774.579607 708.399881 
L 777.585009 708.610061 
L 780.590412 708.639316 
L 781.592212 708.87744 
L 782.594013 708.738917 
L 784.597614 708.781725 
L 785.599415 708.804428 
L 786.601216 708.135237 
L 787.603017 708.279453 
L 789.606618 708.362563 
L 790.608419 708.486855 
L 791.61022 709.772783 
L 792.61202 710.597373 
L 793.613821 710.723901 
L 794.615622 710.49113 
L 795.617423 711.456412 
L 796.619223 711.56846 
L 797.621024 712.418193 
L 798.622825 714.432973 
L 801.628227 715.253632 
L 802.630028 716.340901 
L 803.631829 716.281443 
L 804.633629 716.377791 
L 805.63543 716.616005 
L 806.637231 717.066455 
L 808.640832 717.157945 
L 809.642633 717.443441 
L 810.644434 717.51512 
L 811.646235 717.435037 
L 814.651637 717.944267 
L 820.662441 717.441182 
L 821.664242 712.857753 
L 822.666043 704.630379 
L 825.671445 670.358194 
L 826.673246 661.047956 
L 827.675046 661.058528 
L 828.676847 659.419762 
L 829.678648 659.390101 
L 830.680449 659.493655 
L 833.685851 659.453196 
L 834.687652 660.181099 
L 836.691253 660.207258 
L 837.693054 657.613941 
L 838.694855 651.193947 
L 839.696655 650.746298 
L 841.700257 650.333981 
L 842.702058 650.793919 
L 844.705659 650.777292 
L 846.709261 650.798143 
L 849.714663 650.446503 
L 851.718264 650.436157 
L 852.720065 650.050067 
L 853.721866 649.8864 
L 856.727268 649.995511 
L 859.73267 650.076452 
L 860.734471 649.872507 
L 861.736272 649.838712 
L 862.738072 650.244433 
L 863.739873 650.285118 
L 864.741674 650.00823 
L 865.743475 650.084404 
L 866.745275 650.273484 
L 867.747076 649.740648 
L 868.748877 649.575626 
L 869.750678 653.986172 
L 870.752478 662.341067 
L 874.759681 705.603545 
L 875.761482 705.622791 
L 876.763283 707.242649 
L 879.768685 707.151362 
L 880.770486 707.037462 
L 884.777689 706.960587 
L 885.77949 709.545591 
L 886.78129 715.891829 
L 890.788493 716.455433 
L 891.790294 716.325584 
L 893.793895 716.304756 
L 894.795696 716.22447 
L 896.799298 716.421593 
L 897.801098 716.362948 
L 898.802899 716.480937 
L 899.8047 716.469529 
L 900.806501 716.784686 
L 901.808301 716.108921 
L 903.811903 713.494121 
L 906.817305 713.086231 
L 907.819106 712.92959 
L 908.820907 712.993814 
L 909.822707 712.799899 
L 910.824508 712.352341 
L 911.826309 712.367725 
L 912.82811 712.682927 
L 913.82991 712.752573 
L 914.831711 712.709651 
L 915.833512 712.417717 
L 916.835313 712.596519 
L 917.837113 712.598552 
L 918.838914 712.088758 
L 920.842516 711.818285 
L 923.847918 711.86342 
L 924.849719 711.654279 
L 926.85332 711.101563 
L 928.856921 711.074907 
L 929.858722 709.913993 
L 930.860523 708.270529 
L 931.862324 706.932236 
L 933.865925 706.80607 
L 934.867726 706.875286 
L 935.869527 706.332284 
L 936.871327 706.08038 
L 939.87673 705.79703 
L 940.87853 705.792264 
L 942.882132 705.328011 
L 945.887534 705.475051 
L 946.889335 705.254322 
L 948.892936 705.232251 
L 949.894737 706.068678 
L 951.898339 708.632786 
L 953.90194 708.681558 
L 954.903741 708.668456 
L 955.905542 708.776347 
L 956.907342 708.76634 
L 958.910944 709.159116 
L 960.914545 708.910262 
L 962.918147 708.792364 
L 963.919947 709.52596 
L 965.923549 709.706275 
L 967.92715 710.157651 
L 968.928951 710.401423 
L 969.930752 710.30372 
L 970.932553 710.400791 
L 973.937955 711.248558 
L 976.943357 711.543135 
L 977.945158 712.748958 
L 978.946959 714.502211 
L 979.948759 715.520377 
L 980.95056 715.319097 
L 982.954162 715.334865 
L 983.955962 716.195012 
L 984.957763 716.355606 
L 986.961365 716.308122 
L 987.963165 716.635365 
L 988.964966 716.639002 
L 989.966767 716.94903 
L 992.972169 717.100295 
L 993.97397 717.088344 
L 995.977571 717.426317 
L 996.979372 717.215641 
L 999.984774 717.28619 
L 1000.986575 717.401446 
L 1001.988376 717.380866 
L 1002.990176 717.491987 
L 1003.991977 717.392048 
L 1011.004582 717.852393 
L 1013.008184 717.584743 
L 1014.009985 717.578689 
L 1015.011785 717.789298 
L 1017.015387 717.496596 
L 1019.018988 717.15659 
L 1022.024391 716.597142 
L 1023.026191 716.804453 
L 1026.031594 716.939926 
L 1027.033394 716.591698 
L 1028.035195 716.764332 
L 1029.036996 717.064218 
L 1030.038797 717.07339 
L 1031.040597 716.918421 
L 1032.042398 716.924136 
L 1034.046 717.237756 
L 1037.051402 716.84437 
L 1045.065808 716.947698 
L 1046.067608 716.811162 
L 1054.082014 716.812269 
L 1055.083815 717.120784 
L 1057.087417 717.12223 
L 1058.089217 717.09921 
L 1059.091018 717.204594 
L 1060.092819 717.476129 
L 1063.098221 717.714795 
L 1064.100022 717.812611 
L 1068.107225 718.704339 
L 1070.110826 719.142748 
L 1072.114428 719.110557 
L 1074.118029 718.773736 
L 1075.11983 719.082161 
L 1076.121631 719.272506 
L 1078.125232 719.302325 
L 1081.130634 719.478484 
L 1082.132435 719.470081 
L 1083.134236 719.126844 
L 1084.136037 719.248244 
L 1086.139638 719.204464 
L 1088.14324 719.358349 
L 1089.14504 719.293131 
L 1091.148642 718.567216 
L 1092.150443 718.506154 
L 1093.152243 718.742177 
L 1094.154044 718.834639 
L 1096.157646 718.705219 
L 1098.161247 718.841574 
L 1100.164849 719.051257 
L 1101.166649 719.135473 
L 1104.172052 718.89744 
L 1113.188258 718.747599 
L 1116.19366 718.613774 
L 1117.195461 718.461787 
L 1125.209867 718.415115 
L 1129.21707 718.107526 
L 1130.218871 718.12413 
L 1131.220672 718.498654 
L 1134.226074 718.604806 
L 1137.231476 718.500981 
L 1139.235078 719.201188 
L 1140.236878 719.34624 
L 1142.24048 719.342739 
L 1145.245882 719.407889 
L 1148.251284 719.32121 
L 1152.258487 719.691871 
L 1154.262089 719.697247 
L 1157.267491 719.686133 
L 1163.278295 719.819122 
L 1165.281897 720.093142 
L 1168.287299 720.009739 
L 1172.294502 720.360769 
L 1173.296303 720.272915 
L 1176.301705 720.46421 
L 1177.303506 720.56695 
L 1179.307107 720.382388 
L 1180.308908 720.007231 
L 1181.310709 719.762737 
L 1183.31431 718.653035 
L 1184.316111 718.146878 
L 1185.317912 717.873626 
L 1187.321513 717.670924 
L 1188.323314 717.351543 
L 1190.326915 717.207507 
L 1192.330517 717.075286 
L 1193.332318 716.857245 
L 1198.341321 716.851846 
L 1200.344923 716.635387 
L 1201.346724 716.58108 
L 1202.348524 716.2952 
L 1204.352126 716.093559 
L 1206.355727 715.992648 
L 1207.357528 715.702205 
L 1209.36113 715.497109 
L 1211.364731 715.437064 
L 1212.366532 715.428728 
L 1213.368333 715.205965 
L 1214.370133 715.099881 
L 1215.371934 715.221869 
L 1216.373735 715.05129 
L 1217.375535 715.053797 
L 1218.377336 714.862999 
L 1219.379137 714.555636 
L 1221.382738 714.57904 
L 1228.395344 714.309696 
L 1229.397144 714.577029 
L 1230.398945 715.165415 
L 1233.404347 716.444431 
L 1234.406148 716.644806 
L 1235.407949 716.67815 
L 1236.40975 716.996853 
L 1237.41155 717.169759 
L 1238.413351 717.077975 
L 1240.416953 717.281084 
L 1241.418753 717.49472 
L 1245.425956 717.452408 
L 1246.427757 717.327868 
L 1248.431359 717.373523 
L 1249.433159 717.456497 
L 1250.43496 717.733205 
L 1252.438561 717.898069 
L 1254.442163 718.001103 
L 1255.443964 718.353511 
L 1259.451167 718.643954 
L 1260.452967 718.653013 
L 1262.456569 719.012491 
L 1263.45837 719.014434 
L 1264.46017 719.177626 
L 1265.461971 719.16859 
L 1266.463772 719.403935 
L 1267.465573 719.786479 
L 1268.467373 719.764567 
L 1270.470975 719.954619 
L 1274.478178 720.050672 
L 1276.481779 720.742409 
L 1278.485381 720.63628 
L 1280.488982 720.636958 
L 1282.492584 720.511017 
L 1284.496185 720.330205 
L 1286.499787 720.205032 
L 1290.50699 720.05544 
L 1293.512392 719.962571 
L 1294.514193 719.710035 
L 1295.515993 719.266452 
L 1296.517794 719.112071 
L 1297.519595 718.820498 
L 1298.521396 718.762102 
L 1300.524997 718.152662 
L 1301.526798 717.758755 
L 1304.5322 717.245437 
L 1306.535802 716.641531 
L 1309.541204 716.418521 
L 1310.543005 716.385561 
L 1315.552008 715.55241 
L 1316.553809 715.501017 
L 1317.55561 715.167224 
L 1320.561012 715.017315 
L 1322.564614 714.739364 
L 1324.568215 714.119736 
L 1327.573617 713.837832 
L 1329.577219 687.416983 
L 1332.582621 647.799287 
L 1333.584422 643.476414 
L 1336.589824 643.739997 
L 1338.593425 643.706812 
L 1341.598828 643.971141 
L 1342.600628 644.311983 
L 1343.602429 644.889503 
L 1344.60423 645.033516 
L 1345.606031 645.334915 
L 1346.607831 645.400314 
L 1347.609632 645.656103 
L 1349.613234 646.431582 
L 1351.616835 646.793726 
L 1352.618636 646.807619 
L 1355.624038 647.297466 
L 1359.631241 647.630176 
L 1360.633042 647.749068 
L 1361.634842 648.018299 
L 1363.638444 648.091672 
L 1364.640245 648.141303 
L 1365.642045 648.408907 
L 1365.642045 648.408907 
" style="fill:none;stroke:#ff0000;stroke-linecap:square;stroke-width:1.5;"/>
   </g>
   <g id="patch_3">
    <path d="M 104.425 756 
L 104.425 14.3 
" style="fill:none;stroke:#000000;stroke-linecap:square;stroke-linejoin:miter;stroke-width:0.8;"/>
   </g>
   <g id="patch_4">
    <path d="M 1425.7 756 
L 1425.7 14.3 
" style="fill:none;stroke:#000000;stroke-linecap:square;stroke-linejoin:miter;stroke-width:0.8;"/>
   </g>
   <g id="patch_5">
    <path d="M 104.425 756 
L 1425.7 756 
" style="fill:none;stroke:#000000;stroke-linecap:square;stroke-linejoin:miter;stroke-width:0.8;"/>
   </g>
   <g id="patch_6">
    <path d="M 104.425 14.3 
L 1425.7 14.3 
" style="fill:none;stroke:#000000;stroke-linecap:square;stroke-linejoin:miter;stroke-width:0.8;"/>
   </g>
   <g id="legend_1">
    <g id="patch_7">
     <path d="M 118.425 147.725 
L 450.371875 147.725 
Q 454.371875 147.725 454.371875 143.725 
L 454.371875 28.3 
Q 454.371875 24.3 450.371875 24.3 
L 118.425 24.3 
Q 114.425 24.3 114.425 28.3 
L 114.425 143.725 
Q 114.425 147.725 118.425 147.725 
z
" style="fill:#ffffff;opacity:0.8;stroke:#cccccc;stroke-linejoin:miter;"/>
    </g>
    <g id="line2d_18">
     <path d="M 122.425 40.496875 
L 162.425 40.496875 
" style="fill:none;stroke:#1f77b4;stroke-linecap:square;stroke-width:1.5;"/>
    </g>
    <g id="line2d_19"/>
    <g id="text_16">
     <!-- Training Data -->
     <defs>
      <path d="M -0.296875 72.90625 
L 61.375 72.90625 
L 61.375 64.59375 
L 35.5 64.59375 
L 35.5 0 
L 25.59375 0 
L 25.59375 64.59375 
L -0.296875 64.59375 
z
" id="DejaVuSans-54"/>
      <path d="M 41.109375 46.296875 
Q 39.59375 47.171875 37.8125 47.578125 
Q 36.03125 48 33.890625 48 
Q 26.265625 48 22.1875 43.046875 
Q 18.109375 38.09375 18.109375 28.8125 
L 18.109375 0 
L 9.078125 0 
L 9.078125 54.6875 
L 18.109375 54.6875 
L 18.109375 46.1875 
Q 20.953125 51.171875 25.484375 53.578125 
Q 30.03125 56 36.53125 56 
Q 37.453125 56 38.578125 55.875 
Q 39.703125 55.765625 41.0625 55.515625 
z
" id="DejaVuSans-72"/>
      <path d="M 45.40625 27.984375 
Q 45.40625 37.75 41.375 43.109375 
Q 37.359375 48.484375 30.078125 48.484375 
Q 22.859375 48.484375 18.828125 43.109375 
Q 14.796875 37.75 14.796875 27.984375 
Q 14.796875 18.265625 18.828125 12.890625 
Q 22.859375 7.515625 30.078125 7.515625 
Q 37.359375 7.515625 41.375 12.890625 
Q 45.40625 18.265625 45.40625 27.984375 
z
M 54.390625 6.78125 
Q 54.390625 -7.171875 48.1875 -13.984375 
Q 42 -20.796875 29.203125 -20.796875 
Q 24.46875 -20.796875 20.265625 -20.09375 
Q 16.0625 -19.390625 12.109375 -17.921875 
L 12.109375 -9.1875 
Q 16.0625 -11.328125 19.921875 -12.34375 
Q 23.78125 -13.375 27.78125 -13.375 
Q 36.625 -13.375 41.015625 -8.765625 
Q 45.40625 -4.15625 45.40625 5.171875 
L 45.40625 9.625 
Q 42.625 4.78125 38.28125 2.390625 
Q 33.9375 0 27.875 0 
Q 17.828125 0 11.671875 7.65625 
Q 5.515625 15.328125 5.515625 27.984375 
Q 5.515625 40.671875 11.671875 48.328125 
Q 17.828125 56 27.875 56 
Q 33.9375 56 38.28125 53.609375 
Q 42.625 51.21875 45.40625 46.390625 
L 45.40625 54.6875 
L 54.390625 54.6875 
z
" id="DejaVuSans-67"/>
      <path d="M 19.671875 64.796875 
L 19.671875 8.109375 
L 31.59375 8.109375 
Q 46.6875 8.109375 53.6875 14.9375 
Q 60.6875 21.78125 60.6875 36.53125 
Q 60.6875 51.171875 53.6875 57.984375 
Q 46.6875 64.796875 31.59375 64.796875 
z
M 9.8125 72.90625 
L 30.078125 72.90625 
Q 51.265625 72.90625 61.171875 64.09375 
Q 71.09375 55.28125 71.09375 36.53125 
Q 71.09375 17.671875 61.125 8.828125 
Q 51.171875 0 30.078125 0 
L 9.8125 0 
z
" id="DejaVuSans-44"/>
     </defs>
     <g transform="translate(178.425 47.496875)scale(0.2 -0.2)">
      <use xlink:href="#DejaVuSans-54"/>
      <use x="60.865234" xlink:href="#DejaVuSans-72"/>
      <use x="101.978516" xlink:href="#DejaVuSans-61"/>
      <use x="163.257812" xlink:href="#DejaVuSans-69"/>
      <use x="191.041016" xlink:href="#DejaVuSans-6e"/>
      <use x="254.419922" xlink:href="#DejaVuSans-69"/>
      <use x="282.203125" xlink:href="#DejaVuSans-6e"/>
      <use x="345.582031" xlink:href="#DejaVuSans-67"/>
      <use x="409.058594" xlink:href="#DejaVuSans-20"/>
      <use x="440.845703" xlink:href="#DejaVuSans-44"/>
      <use x="517.847656" xlink:href="#DejaVuSans-61"/>
      <use x="579.126953" xlink:href="#DejaVuSans-74"/>
      <use x="618.335938" xlink:href="#DejaVuSans-61"/>
     </g>
    </g>
    <g id="line2d_20">
     <path d="M 122.425 69.853125 
L 162.425 69.853125 
" style="fill:none;stroke:#ff7f0e;stroke-linecap:square;stroke-width:1.5;"/>
    </g>
    <g id="line2d_21"/>
    <g id="text_17">
     <!-- Validation Data -->
     <defs>
      <path d="M 28.609375 0 
L 0.78125 72.90625 
L 11.078125 72.90625 
L 34.1875 11.53125 
L 57.328125 72.90625 
L 67.578125 72.90625 
L 39.796875 0 
z
" id="DejaVuSans-56"/>
      <path d="M 9.421875 75.984375 
L 18.40625 75.984375 
L 18.40625 0 
L 9.421875 0 
z
" id="DejaVuSans-6c"/>
      <path d="M 30.609375 48.390625 
Q 23.390625 48.390625 19.1875 42.75 
Q 14.984375 37.109375 14.984375 27.296875 
Q 14.984375 17.484375 19.15625 11.84375 
Q 23.34375 6.203125 30.609375 6.203125 
Q 37.796875 6.203125 41.984375 11.859375 
Q 46.1875 17.53125 46.1875 27.296875 
Q 46.1875 37.015625 41.984375 42.703125 
Q 37.796875 48.390625 30.609375 48.390625 
z
M 30.609375 56 
Q 42.328125 56 49.015625 48.375 
Q 55.71875 40.765625 55.71875 27.296875 
Q 55.71875 13.875 49.015625 6.21875 
Q 42.328125 -1.421875 30.609375 -1.421875 
Q 18.84375 -1.421875 12.171875 6.21875 
Q 5.515625 13.875 5.515625 27.296875 
Q 5.515625 40.765625 12.171875 48.375 
Q 18.84375 56 30.609375 56 
z
" id="DejaVuSans-6f"/>
     </defs>
     <g transform="translate(178.425 76.853125)scale(0.2 -0.2)">
      <use xlink:href="#DejaVuSans-56"/>
      <use x="68.298828" xlink:href="#DejaVuSans-61"/>
      <use x="129.578125" xlink:href="#DejaVuSans-6c"/>
      <use x="157.361328" xlink:href="#DejaVuSans-69"/>
      <use x="185.144531" xlink:href="#DejaVuSans-64"/>
      <use x="248.621094" xlink:href="#DejaVuSans-61"/>
      <use x="309.900391" xlink:href="#DejaVuSans-74"/>
      <use x="349.109375" xlink:href="#DejaVuSans-69"/>
      <use x="376.892578" xlink:href="#DejaVuSans-6f"/>
      <use x="438.074219" xlink:href="#DejaVuSans-6e"/>
      <use x="501.453125" xlink:href="#DejaVuSans-20"/>
      <use x="533.240234" xlink:href="#DejaVuSans-44"/>
      <use x="610.242188" xlink:href="#DejaVuSans-61"/>
      <use x="671.521484" xlink:href="#DejaVuSans-74"/>
      <use x="710.730469" xlink:href="#DejaVuSans-61"/>
     </g>
    </g>
    <g id="line2d_22">
     <path d="M 122.425 99.209375 
L 162.425 99.209375 
" style="fill:none;stroke:#2ca02c;stroke-linecap:square;stroke-width:1.5;"/>
    </g>
    <g id="line2d_23"/>
    <g id="text_18">
     <!-- Testing Data -->
     <g transform="translate(178.425 106.209375)scale(0.2 -0.2)">
      <use xlink:href="#DejaVuSans-54"/>
      <use x="60.818359" xlink:href="#DejaVuSans-65"/>
      <use x="122.341797" xlink:href="#DejaVuSans-73"/>
      <use x="174.441406" xlink:href="#DejaVuSans-74"/>
      <use x="213.650391" xlink:href="#DejaVuSans-69"/>
      <use x="241.433594" xlink:href="#DejaVuSans-6e"/>
      <use x="304.8125" xlink:href="#DejaVuSans-67"/>
      <use x="368.289062" xlink:href="#DejaVuSans-20"/>
      <use x="400.076172" xlink:href="#DejaVuSans-44"/>
      <use x="477.078125" xlink:href="#DejaVuSans-61"/>
      <use x="538.357422" xlink:href="#DejaVuSans-74"/>
      <use x="577.566406" xlink:href="#DejaVuSans-61"/>
     </g>
    </g>
    <g id="line2d_24">
     <path d="M 122.425 128.565625 
L 162.425 128.565625 
" style="fill:none;stroke:#ff0000;stroke-linecap:square;stroke-width:1.5;"/>
    </g>
    <g id="line2d_25"/>
    <g id="text_19">
     <!-- Moving average (48 steps) -->
     <defs>
      <path d="M 2.984375 54.6875 
L 12.5 54.6875 
L 29.59375 8.796875 
L 46.6875 54.6875 
L 56.203125 54.6875 
L 35.6875 0 
L 23.484375 0 
z
" id="DejaVuSans-76"/>
     </defs>
     <g transform="translate(178.425 135.565625)scale(0.2 -0.2)">
      <use xlink:href="#DejaVuSans-4d"/>
      <use x="86.279297" xlink:href="#DejaVuSans-6f"/>
      <use x="147.460938" xlink:href="#DejaVuSans-76"/>
      <use x="206.640625" xlink:href="#DejaVuSans-69"/>
      <use x="234.423828" xlink:href="#DejaVuSans-6e"/>
      <use x="297.802734" xlink:href="#DejaVuSans-67"/>
      <use x="361.279297" xlink:href="#DejaVuSans-20"/>
      <use x="393.066406" xlink:href="#DejaVuSans-61"/>
      <use x="454.345703" xlink:href="#DejaVuSans-76"/>
      <use x="513.525391" xlink:href="#DejaVuSans-65"/>
      <use x="575.048828" xlink:href="#DejaVuSans-72"/>
      <use x="616.162109" xlink:href="#DejaVuSans-61"/>
      <use x="677.441406" xlink:href="#DejaVuSans-67"/>
      <use x="740.917969" xlink:href="#DejaVuSans-65"/>
      <use x="802.441406" xlink:href="#DejaVuSans-20"/>
      <use x="834.228516" xlink:href="#DejaVuSans-28"/>
      <use x="873.242188" xlink:href="#DejaVuSans-34"/>
      <use x="936.865234" xlink:href="#DejaVuSans-38"/>
      <use x="1000.488281" xlink:href="#DejaVuSans-20"/>
      <use x="1032.275391" xlink:href="#DejaVuSans-73"/>
      <use x="1084.375" xlink:href="#DejaVuSans-74"/>
      <use x="1123.583984" xlink:href="#DejaVuSans-65"/>
      <use x="1185.107422" xlink:href="#DejaVuSans-70"/>
      <use x="1248.583984" xlink:href="#DejaVuSans-73"/>
      <use x="1300.683594" xlink:href="#DejaVuSans-29"/>
     </g>
    </g>
   </g>
  </g>
 </g>
 <defs>
  <clipPath id="p68c0ed7955">
   <rect height="741.7" width="1321.275" x="104.425" y="14.3"/>
  </clipPath>
 </defs>
</svg>
