<?xml version="1.0" encoding="utf-8" standalone="no"?>
<!DOCTYPE svg PUBLIC "-//W3C//DTD SVG 1.1//EN"
  "http://www.w3.org/Graphics/SVG/1.1/DTD/svg11.dtd">
<!-- Created with matplotlib (http://matplotlib.org/) -->
<svg height="820pt" version="1.1" viewBox="0 0 1440 820" width="1440pt" xmlns="http://www.w3.org/2000/svg" xmlns:xlink="http://www.w3.org/1999/xlink">
 <defs>
  <style type="text/css">
*{stroke-linecap:butt;stroke-linejoin:round;}
  </style>
 </defs>
 <g id="figure_1">
  <g id="patch_1">
   <path d="M 0 820.8 
L 1440 820.8 
L 1440 0 
L 0 0 
z
" style="fill:#ffffff;"/>
  </g>
  <g id="axes_1">
   <g id="patch_2">
    <path d="M 104.425 756 
L 1425.7 756 
L 1425.7 14.3 
L 104.425 14.3 
z
" style="fill:#ffffff;"/>
   </g>
   <g id="matplotlib.axis_1">
    <g id="xtick_1">
     <g id="line2d_1">
      <defs>
       <path d="M 0 0 
L 0 3.5 
" id="m3ddbb2ed87" style="stroke:#000000;stroke-width:0.8;"/>
      </defs>
      <g>
       <use style="stroke:#000000;stroke-width:0.8;" x="164.482955" xlink:href="#m3ddbb2ed87" y="756"/>
      </g>
     </g>
     <g id="text_1">
      <!-- 0 -->
      <defs>
       <path d="M 31.78125 66.40625 
Q 24.171875 66.40625 20.328125 58.90625 
Q 16.5 51.421875 16.5 36.375 
Q 16.5 21.390625 20.328125 13.890625 
Q 24.171875 6.390625 31.78125 6.390625 
Q 39.453125 6.390625 43.28125 13.890625 
Q 47.125 21.390625 47.125 36.375 
Q 47.125 51.421875 43.28125 58.90625 
Q 39.453125 66.40625 31.78125 66.40625 
z
M 31.78125 74.21875 
Q 44.046875 74.21875 50.515625 64.515625 
Q 56.984375 54.828125 56.984375 36.375 
Q 56.984375 17.96875 50.515625 8.265625 
Q 44.046875 -1.421875 31.78125 -1.421875 
Q 19.53125 -1.421875 13.0625 8.265625 
Q 6.59375 17.96875 6.59375 36.375 
Q 6.59375 54.828125 13.0625 64.515625 
Q 19.53125 74.21875 31.78125 74.21875 
z
" id="DejaVuSans-30"/>
      </defs>
      <g transform="translate(156.52983 781.996094)scale(0.25 -0.25)">
       <use xlink:href="#DejaVuSans-30"/>
      </g>
     </g>
    </g>
    <g id="xtick_2">
     <g id="line2d_2">
      <g>
       <use style="stroke:#000000;stroke-width:0.8;" x="364.843103" xlink:href="#m3ddbb2ed87" y="756"/>
      </g>
     </g>
     <g id="text_2">
      <!-- 200 -->
      <defs>
       <path d="M 19.1875 8.296875 
L 53.609375 8.296875 
L 53.609375 0 
L 7.328125 0 
L 7.328125 8.296875 
Q 12.9375 14.109375 22.625 23.890625 
Q 32.328125 33.6875 34.8125 36.53125 
Q 39.546875 41.84375 41.421875 45.53125 
Q 43.3125 49.21875 43.3125 52.78125 
Q 43.3125 58.59375 39.234375 62.25 
Q 35.15625 65.921875 28.609375 65.921875 
Q 23.96875 65.921875 18.8125 64.3125 
Q 13.671875 62.703125 7.8125 59.421875 
L 7.8125 69.390625 
Q 13.765625 71.78125 18.9375 73 
Q 24.125 74.21875 28.421875 74.21875 
Q 39.75 74.21875 46.484375 68.546875 
Q 53.21875 62.890625 53.21875 53.421875 
Q 53.21875 48.921875 51.53125 44.890625 
Q 49.859375 40.875 45.40625 35.40625 
Q 44.1875 33.984375 37.640625 27.21875 
Q 31.109375 20.453125 19.1875 8.296875 
z
" id="DejaVuSans-32"/>
      </defs>
      <g transform="translate(340.983728 781.996094)scale(0.25 -0.25)">
       <use xlink:href="#DejaVuSans-32"/>
       <use x="63.623047" xlink:href="#DejaVuSans-30"/>
       <use x="127.246094" xlink:href="#DejaVuSans-30"/>
      </g>
     </g>
    </g>
    <g id="xtick_3">
     <g id="line2d_3">
      <g>
       <use style="stroke:#000000;stroke-width:0.8;" x="565.203252" xlink:href="#m3ddbb2ed87" y="756"/>
      </g>
     </g>
     <g id="text_3">
      <!-- 400 -->
      <defs>
       <path d="M 37.796875 64.3125 
L 12.890625 25.390625 
L 37.796875 25.390625 
z
M 35.203125 72.90625 
L 47.609375 72.90625 
L 47.609375 25.390625 
L 58.015625 25.390625 
L 58.015625 17.1875 
L 47.609375 17.1875 
L 47.609375 0 
L 37.796875 0 
L 37.796875 17.1875 
L 4.890625 17.1875 
L 4.890625 26.703125 
z
" id="DejaVuSans-34"/>
      </defs>
      <g transform="translate(541.343877 781.996094)scale(0.25 -0.25)">
       <use xlink:href="#DejaVuSans-34"/>
       <use x="63.623047" xlink:href="#DejaVuSans-30"/>
       <use x="127.246094" xlink:href="#DejaVuSans-30"/>
      </g>
     </g>
    </g>
    <g id="xtick_4">
     <g id="line2d_4">
      <g>
       <use style="stroke:#000000;stroke-width:0.8;" x="765.5634" xlink:href="#m3ddbb2ed87" y="756"/>
      </g>
     </g>
     <g id="text_4">
      <!-- 600 -->
      <defs>
       <path d="M 33.015625 40.375 
Q 26.375 40.375 22.484375 35.828125 
Q 18.609375 31.296875 18.609375 23.390625 
Q 18.609375 15.53125 22.484375 10.953125 
Q 26.375 6.390625 33.015625 6.390625 
Q 39.65625 6.390625 43.53125 10.953125 
Q 47.40625 15.53125 47.40625 23.390625 
Q 47.40625 31.296875 43.53125 35.828125 
Q 39.65625 40.375 33.015625 40.375 
z
M 52.59375 71.296875 
L 52.59375 62.3125 
Q 48.875 64.0625 45.09375 64.984375 
Q 41.3125 65.921875 37.59375 65.921875 
Q 27.828125 65.921875 22.671875 59.328125 
Q 17.53125 52.734375 16.796875 39.40625 
Q 19.671875 43.65625 24.015625 45.921875 
Q 28.375 48.1875 33.59375 48.1875 
Q 44.578125 48.1875 50.953125 41.515625 
Q 57.328125 34.859375 57.328125 23.390625 
Q 57.328125 12.15625 50.6875 5.359375 
Q 44.046875 -1.421875 33.015625 -1.421875 
Q 20.359375 -1.421875 13.671875 8.265625 
Q 6.984375 17.96875 6.984375 36.375 
Q 6.984375 53.65625 15.1875 63.9375 
Q 23.390625 74.21875 37.203125 74.21875 
Q 40.921875 74.21875 44.703125 73.484375 
Q 48.484375 72.75 52.59375 71.296875 
z
" id="DejaVuSans-36"/>
      </defs>
      <g transform="translate(741.704025 781.996094)scale(0.25 -0.25)">
       <use xlink:href="#DejaVuSans-36"/>
       <use x="63.623047" xlink:href="#DejaVuSans-30"/>
       <use x="127.246094" xlink:href="#DejaVuSans-30"/>
      </g>
     </g>
    </g>
    <g id="xtick_5">
     <g id="line2d_5">
      <g>
       <use style="stroke:#000000;stroke-width:0.8;" x="965.923549" xlink:href="#m3ddbb2ed87" y="756"/>
      </g>
     </g>
     <g id="text_5">
      <!-- 800 -->
      <defs>
       <path d="M 31.78125 34.625 
Q 24.75 34.625 20.71875 30.859375 
Q 16.703125 27.09375 16.703125 20.515625 
Q 16.703125 13.921875 20.71875 10.15625 
Q 24.75 6.390625 31.78125 6.390625 
Q 38.8125 6.390625 42.859375 10.171875 
Q 46.921875 13.96875 46.921875 20.515625 
Q 46.921875 27.09375 42.890625 30.859375 
Q 38.875 34.625 31.78125 34.625 
z
M 21.921875 38.8125 
Q 15.578125 40.375 12.03125 44.71875 
Q 8.5 49.078125 8.5 55.328125 
Q 8.5 64.0625 14.71875 69.140625 
Q 20.953125 74.21875 31.78125 74.21875 
Q 42.671875 74.21875 48.875 69.140625 
Q 55.078125 64.0625 55.078125 55.328125 
Q 55.078125 49.078125 51.53125 44.71875 
Q 48 40.375 41.703125 38.8125 
Q 48.828125 37.15625 52.796875 32.3125 
Q 56.78125 27.484375 56.78125 20.515625 
Q 56.78125 9.90625 50.3125 4.234375 
Q 43.84375 -1.421875 31.78125 -1.421875 
Q 19.734375 -1.421875 13.25 4.234375 
Q 6.78125 9.90625 6.78125 20.515625 
Q 6.78125 27.484375 10.78125 32.3125 
Q 14.796875 37.15625 21.921875 38.8125 
z
M 18.3125 54.390625 
Q 18.3125 48.734375 21.84375 45.5625 
Q 25.390625 42.390625 31.78125 42.390625 
Q 38.140625 42.390625 41.71875 45.5625 
Q 45.3125 48.734375 45.3125 54.390625 
Q 45.3125 60.0625 41.71875 63.234375 
Q 38.140625 66.40625 31.78125 66.40625 
Q 25.390625 66.40625 21.84375 63.234375 
Q 18.3125 60.0625 18.3125 54.390625 
z
" id="DejaVuSans-38"/>
      </defs>
      <g transform="translate(942.064174 781.996094)scale(0.25 -0.25)">
       <use xlink:href="#DejaVuSans-38"/>
       <use x="63.623047" xlink:href="#DejaVuSans-30"/>
       <use x="127.246094" xlink:href="#DejaVuSans-30"/>
      </g>
     </g>
    </g>
    <g id="xtick_6">
     <g id="line2d_6">
      <g>
       <use style="stroke:#000000;stroke-width:0.8;" x="1166.283698" xlink:href="#m3ddbb2ed87" y="756"/>
      </g>
     </g>
     <g id="text_6">
      <!-- 1000 -->
      <defs>
       <path d="M 12.40625 8.296875 
L 28.515625 8.296875 
L 28.515625 63.921875 
L 10.984375 60.40625 
L 10.984375 69.390625 
L 28.421875 72.90625 
L 38.28125 72.90625 
L 38.28125 8.296875 
L 54.390625 8.296875 
L 54.390625 0 
L 12.40625 0 
z
" id="DejaVuSans-31"/>
      </defs>
      <g transform="translate(1134.471198 781.996094)scale(0.25 -0.25)">
       <use xlink:href="#DejaVuSans-31"/>
       <use x="63.623047" xlink:href="#DejaVuSans-30"/>
       <use x="127.246094" xlink:href="#DejaVuSans-30"/>
       <use x="190.869141" xlink:href="#DejaVuSans-30"/>
      </g>
     </g>
    </g>
    <g id="xtick_7">
     <g id="line2d_7">
      <g>
       <use style="stroke:#000000;stroke-width:0.8;" x="1366.643846" xlink:href="#m3ddbb2ed87" y="756"/>
      </g>
     </g>
     <g id="text_7">
      <!-- 1200 -->
      <g transform="translate(1334.831346 781.996094)scale(0.25 -0.25)">
       <use xlink:href="#DejaVuSans-31"/>
       <use x="63.623047" xlink:href="#DejaVuSans-32"/>
       <use x="127.246094" xlink:href="#DejaVuSans-30"/>
       <use x="190.869141" xlink:href="#DejaVuSans-30"/>
      </g>
     </g>
    </g>
    <g id="text_8">
     <!-- 15-Minute Steps -->
     <defs>
      <path d="M 10.796875 72.90625 
L 49.515625 72.90625 
L 49.515625 64.59375 
L 19.828125 64.59375 
L 19.828125 46.734375 
Q 21.96875 47.46875 24.109375 47.828125 
Q 26.265625 48.1875 28.421875 48.1875 
Q 40.625 48.1875 47.75 41.5 
Q 54.890625 34.8125 54.890625 23.390625 
Q 54.890625 11.625 47.5625 5.09375 
Q 40.234375 -1.421875 26.90625 -1.421875 
Q 22.3125 -1.421875 17.546875 -0.640625 
Q 12.796875 0.140625 7.71875 1.703125 
L 7.71875 11.625 
Q 12.109375 9.234375 16.796875 8.0625 
Q 21.484375 6.890625 26.703125 6.890625 
Q 35.15625 6.890625 40.078125 11.328125 
Q 45.015625 15.765625 45.015625 23.390625 
Q 45.015625 31 40.078125 35.4375 
Q 35.15625 39.890625 26.703125 39.890625 
Q 22.75 39.890625 18.8125 39.015625 
Q 14.890625 38.140625 10.796875 36.28125 
z
" id="DejaVuSans-35"/>
      <path d="M 4.890625 31.390625 
L 31.203125 31.390625 
L 31.203125 23.390625 
L 4.890625 23.390625 
z
" id="DejaVuSans-2d"/>
      <path d="M 9.8125 72.90625 
L 24.515625 72.90625 
L 43.109375 23.296875 
L 61.8125 72.90625 
L 76.515625 72.90625 
L 76.515625 0 
L 66.890625 0 
L 66.890625 64.015625 
L 48.09375 14.015625 
L 38.1875 14.015625 
L 19.390625 64.015625 
L 19.390625 0 
L 9.8125 0 
z
" id="DejaVuSans-4d"/>
      <path d="M 9.421875 54.6875 
L 18.40625 54.6875 
L 18.40625 0 
L 9.421875 0 
z
M 9.421875 75.984375 
L 18.40625 75.984375 
L 18.40625 64.59375 
L 9.421875 64.59375 
z
" id="DejaVuSans-69"/>
      <path d="M 54.890625 33.015625 
L 54.890625 0 
L 45.90625 0 
L 45.90625 32.71875 
Q 45.90625 40.484375 42.875 44.328125 
Q 39.84375 48.1875 33.796875 48.1875 
Q 26.515625 48.1875 22.3125 43.546875 
Q 18.109375 38.921875 18.109375 30.90625 
L 18.109375 0 
L 9.078125 0 
L 9.078125 54.6875 
L 18.109375 54.6875 
L 18.109375 46.1875 
Q 21.34375 51.125 25.703125 53.5625 
Q 30.078125 56 35.796875 56 
Q 45.21875 56 50.046875 50.171875 
Q 54.890625 44.34375 54.890625 33.015625 
z
" id="DejaVuSans-6e"/>
      <path d="M 8.5 21.578125 
L 8.5 54.6875 
L 17.484375 54.6875 
L 17.484375 21.921875 
Q 17.484375 14.15625 20.5 10.265625 
Q 23.53125 6.390625 29.59375 6.390625 
Q 36.859375 6.390625 41.078125 11.03125 
Q 45.3125 15.671875 45.3125 23.6875 
L 45.3125 54.6875 
L 54.296875 54.6875 
L 54.296875 0 
L 45.3125 0 
L 45.3125 8.40625 
Q 42.046875 3.421875 37.71875 1 
Q 33.40625 -1.421875 27.6875 -1.421875 
Q 18.265625 -1.421875 13.375 4.4375 
Q 8.5 10.296875 8.5 21.578125 
z
M 31.109375 56 
z
" id="DejaVuSans-75"/>
      <path d="M 18.3125 70.21875 
L 18.3125 54.6875 
L 36.8125 54.6875 
L 36.8125 47.703125 
L 18.3125 47.703125 
L 18.3125 18.015625 
Q 18.3125 11.328125 20.140625 9.421875 
Q 21.96875 7.515625 27.59375 7.515625 
L 36.8125 7.515625 
L 36.8125 0 
L 27.59375 0 
Q 17.1875 0 13.234375 3.875 
Q 9.28125 7.765625 9.28125 18.015625 
L 9.28125 47.703125 
L 2.6875 47.703125 
L 2.6875 54.6875 
L 9.28125 54.6875 
L 9.28125 70.21875 
z
" id="DejaVuSans-74"/>
      <path d="M 56.203125 29.59375 
L 56.203125 25.203125 
L 14.890625 25.203125 
Q 15.484375 15.921875 20.484375 11.0625 
Q 25.484375 6.203125 34.421875 6.203125 
Q 39.59375 6.203125 44.453125 7.46875 
Q 49.3125 8.734375 54.109375 11.28125 
L 54.109375 2.78125 
Q 49.265625 0.734375 44.1875 -0.34375 
Q 39.109375 -1.421875 33.890625 -1.421875 
Q 20.796875 -1.421875 13.15625 6.1875 
Q 5.515625 13.8125 5.515625 26.8125 
Q 5.515625 40.234375 12.765625 48.109375 
Q 20.015625 56 32.328125 56 
Q 43.359375 56 49.78125 48.890625 
Q 56.203125 41.796875 56.203125 29.59375 
z
M 47.21875 32.234375 
Q 47.125 39.59375 43.09375 43.984375 
Q 39.0625 48.390625 32.421875 48.390625 
Q 24.90625 48.390625 20.390625 44.140625 
Q 15.875 39.890625 15.1875 32.171875 
z
" id="DejaVuSans-65"/>
      <path id="DejaVuSans-20"/>
      <path d="M 53.515625 70.515625 
L 53.515625 60.890625 
Q 47.90625 63.578125 42.921875 64.890625 
Q 37.9375 66.21875 33.296875 66.21875 
Q 25.25 66.21875 20.875 63.09375 
Q 16.5 59.96875 16.5 54.203125 
Q 16.5 49.359375 19.40625 46.890625 
Q 22.3125 44.4375 30.421875 42.921875 
L 36.375 41.703125 
Q 47.40625 39.59375 52.65625 34.296875 
Q 57.90625 29 57.90625 20.125 
Q 57.90625 9.515625 50.796875 4.046875 
Q 43.703125 -1.421875 29.984375 -1.421875 
Q 24.8125 -1.421875 18.96875 -0.25 
Q 13.140625 0.921875 6.890625 3.21875 
L 6.890625 13.375 
Q 12.890625 10.015625 18.65625 8.296875 
Q 24.421875 6.59375 29.984375 6.59375 
Q 38.421875 6.59375 43.015625 9.90625 
Q 47.609375 13.234375 47.609375 19.390625 
Q 47.609375 24.75 44.3125 27.78125 
Q 41.015625 30.8125 33.5 32.328125 
L 27.484375 33.5 
Q 16.453125 35.6875 11.515625 40.375 
Q 6.59375 45.0625 6.59375 53.421875 
Q 6.59375 63.09375 13.40625 68.65625 
Q 20.21875 74.21875 32.171875 74.21875 
Q 37.3125 74.21875 42.625 73.28125 
Q 47.953125 72.359375 53.515625 70.515625 
z
" id="DejaVuSans-53"/>
      <path d="M 18.109375 8.203125 
L 18.109375 -20.796875 
L 9.078125 -20.796875 
L 9.078125 54.6875 
L 18.109375 54.6875 
L 18.109375 46.390625 
Q 20.953125 51.265625 25.265625 53.625 
Q 29.59375 56 35.59375 56 
Q 45.5625 56 51.78125 48.09375 
Q 58.015625 40.1875 58.015625 27.296875 
Q 58.015625 14.40625 51.78125 6.484375 
Q 45.5625 -1.421875 35.59375 -1.421875 
Q 29.59375 -1.421875 25.265625 0.953125 
Q 20.953125 3.328125 18.109375 8.203125 
z
M 48.6875 27.296875 
Q 48.6875 37.203125 44.609375 42.84375 
Q 40.53125 48.484375 33.40625 48.484375 
Q 26.265625 48.484375 22.1875 42.84375 
Q 18.109375 37.203125 18.109375 27.296875 
Q 18.109375 17.390625 22.1875 11.75 
Q 26.265625 6.109375 33.40625 6.109375 
Q 40.53125 6.109375 44.609375 11.75 
Q 48.6875 17.390625 48.6875 27.296875 
z
" id="DejaVuSans-70"/>
      <path d="M 44.28125 53.078125 
L 44.28125 44.578125 
Q 40.484375 46.53125 36.375 47.5 
Q 32.28125 48.484375 27.875 48.484375 
Q 21.1875 48.484375 17.84375 46.4375 
Q 14.5 44.390625 14.5 40.28125 
Q 14.5 37.15625 16.890625 35.375 
Q 19.28125 33.59375 26.515625 31.984375 
L 29.59375 31.296875 
Q 39.15625 29.25 43.1875 25.515625 
Q 47.21875 21.78125 47.21875 15.09375 
Q 47.21875 7.46875 41.1875 3.015625 
Q 35.15625 -1.421875 24.609375 -1.421875 
Q 20.21875 -1.421875 15.453125 -0.5625 
Q 10.6875 0.296875 5.421875 2 
L 5.421875 11.28125 
Q 10.40625 8.6875 15.234375 7.390625 
Q 20.0625 6.109375 24.8125 6.109375 
Q 31.15625 6.109375 34.5625 8.28125 
Q 37.984375 10.453125 37.984375 14.40625 
Q 37.984375 18.0625 35.515625 20.015625 
Q 33.0625 21.96875 24.703125 23.78125 
L 21.578125 24.515625 
Q 13.234375 26.265625 9.515625 29.90625 
Q 5.8125 33.546875 5.8125 39.890625 
Q 5.8125 47.609375 11.28125 51.796875 
Q 16.75 56 26.8125 56 
Q 31.78125 56 36.171875 55.265625 
Q 40.578125 54.546875 44.28125 53.078125 
z
" id="DejaVuSans-73"/>
     </defs>
     <g transform="translate(683.417187 806.392188)scale(0.2 -0.2)">
      <use xlink:href="#DejaVuSans-31"/>
      <use x="63.623047" xlink:href="#DejaVuSans-35"/>
      <use x="127.246094" xlink:href="#DejaVuSans-2d"/>
      <use x="163.330078" xlink:href="#DejaVuSans-4d"/>
      <use x="249.609375" xlink:href="#DejaVuSans-69"/>
      <use x="277.392578" xlink:href="#DejaVuSans-6e"/>
      <use x="340.771484" xlink:href="#DejaVuSans-75"/>
      <use x="404.150391" xlink:href="#DejaVuSans-74"/>
      <use x="443.359375" xlink:href="#DejaVuSans-65"/>
      <use x="504.882812" xlink:href="#DejaVuSans-20"/>
      <use x="536.669922" xlink:href="#DejaVuSans-53"/>
      <use x="600.146484" xlink:href="#DejaVuSans-74"/>
      <use x="639.355469" xlink:href="#DejaVuSans-65"/>
      <use x="700.878906" xlink:href="#DejaVuSans-70"/>
      <use x="764.355469" xlink:href="#DejaVuSans-73"/>
     </g>
    </g>
   </g>
   <g id="matplotlib.axis_2">
    <g id="ytick_1">
     <g id="line2d_8">
      <defs>
       <path d="M 0 0 
L -3.5 0 
" id="m5317b7cabc" style="stroke:#000000;stroke-width:0.8;"/>
      </defs>
      <g>
       <use style="stroke:#000000;stroke-width:0.8;" x="104.425" xlink:href="#m5317b7cabc" y="728.189963"/>
      </g>
     </g>
     <g id="text_9">
      <!-- 0 -->
      <g transform="translate(81.51875 737.68801)scale(0.25 -0.25)">
       <use xlink:href="#DejaVuSans-30"/>
      </g>
     </g>
    </g>
    <g id="ytick_2">
     <g id="line2d_9">
      <g>
       <use style="stroke:#000000;stroke-width:0.8;" x="104.425" xlink:href="#m5317b7cabc" y="644.384866"/>
      </g>
     </g>
     <g id="text_10">
      <!-- 1000 -->
      <g transform="translate(33.8 653.882913)scale(0.25 -0.25)">
       <use xlink:href="#DejaVuSans-31"/>
       <use x="63.623047" xlink:href="#DejaVuSans-30"/>
       <use x="127.246094" xlink:href="#DejaVuSans-30"/>
       <use x="190.869141" xlink:href="#DejaVuSans-30"/>
      </g>
     </g>
    </g>
    <g id="ytick_3">
     <g id="line2d_10">
      <g>
       <use style="stroke:#000000;stroke-width:0.8;" x="104.425" xlink:href="#m5317b7cabc" y="560.579768"/>
      </g>
     </g>
     <g id="text_11">
      <!-- 2000 -->
      <g transform="translate(33.8 570.077815)scale(0.25 -0.25)">
       <use xlink:href="#DejaVuSans-32"/>
       <use x="63.623047" xlink:href="#DejaVuSans-30"/>
       <use x="127.246094" xlink:href="#DejaVuSans-30"/>
       <use x="190.869141" xlink:href="#DejaVuSans-30"/>
      </g>
     </g>
    </g>
    <g id="ytick_4">
     <g id="line2d_11">
      <g>
       <use style="stroke:#000000;stroke-width:0.8;" x="104.425" xlink:href="#m5317b7cabc" y="476.774671"/>
      </g>
     </g>
     <g id="text_12">
      <!-- 3000 -->
      <defs>
       <path d="M 40.578125 39.3125 
Q 47.65625 37.796875 51.625 33 
Q 55.609375 28.21875 55.609375 21.1875 
Q 55.609375 10.40625 48.1875 4.484375 
Q 40.765625 -1.421875 27.09375 -1.421875 
Q 22.515625 -1.421875 17.65625 -0.515625 
Q 12.796875 0.390625 7.625 2.203125 
L 7.625 11.71875 
Q 11.71875 9.328125 16.59375 8.109375 
Q 21.484375 6.890625 26.8125 6.890625 
Q 36.078125 6.890625 40.9375 10.546875 
Q 45.796875 14.203125 45.796875 21.1875 
Q 45.796875 27.640625 41.28125 31.265625 
Q 36.765625 34.90625 28.71875 34.90625 
L 20.21875 34.90625 
L 20.21875 43.015625 
L 29.109375 43.015625 
Q 36.375 43.015625 40.234375 45.921875 
Q 44.09375 48.828125 44.09375 54.296875 
Q 44.09375 59.90625 40.109375 62.90625 
Q 36.140625 65.921875 28.71875 65.921875 
Q 24.65625 65.921875 20.015625 65.03125 
Q 15.375 64.15625 9.8125 62.3125 
L 9.8125 71.09375 
Q 15.4375 72.65625 20.34375 73.4375 
Q 25.25 74.21875 29.59375 74.21875 
Q 40.828125 74.21875 47.359375 69.109375 
Q 53.90625 64.015625 53.90625 55.328125 
Q 53.90625 49.265625 50.4375 45.09375 
Q 46.96875 40.921875 40.578125 39.3125 
z
" id="DejaVuSans-33"/>
      </defs>
      <g transform="translate(33.8 486.272717)scale(0.25 -0.25)">
       <use xlink:href="#DejaVuSans-33"/>
       <use x="63.623047" xlink:href="#DejaVuSans-30"/>
       <use x="127.246094" xlink:href="#DejaVuSans-30"/>
       <use x="190.869141" xlink:href="#DejaVuSans-30"/>
      </g>
     </g>
    </g>
    <g id="ytick_5">
     <g id="line2d_12">
      <g>
       <use style="stroke:#000000;stroke-width:0.8;" x="104.425" xlink:href="#m5317b7cabc" y="392.969573"/>
      </g>
     </g>
     <g id="text_13">
      <!-- 4000 -->
      <g transform="translate(33.8 402.46762)scale(0.25 -0.25)">
       <use xlink:href="#DejaVuSans-34"/>
       <use x="63.623047" xlink:href="#DejaVuSans-30"/>
       <use x="127.246094" xlink:href="#DejaVuSans-30"/>
       <use x="190.869141" xlink:href="#DejaVuSans-30"/>
      </g>
     </g>
    </g>
    <g id="ytick_6">
     <g id="line2d_13">
      <g>
       <use style="stroke:#000000;stroke-width:0.8;" x="104.425" xlink:href="#m5317b7cabc" y="309.164475"/>
      </g>
     </g>
     <g id="text_14">
      <!-- 5000 -->
      <g transform="translate(33.8 318.662522)scale(0.25 -0.25)">
       <use xlink:href="#DejaVuSans-35"/>
       <use x="63.623047" xlink:href="#DejaVuSans-30"/>
       <use x="127.246094" xlink:href="#DejaVuSans-30"/>
       <use x="190.869141" xlink:href="#DejaVuSans-30"/>
      </g>
     </g>
    </g>
    <g id="ytick_7">
     <g id="line2d_14">
      <g>
       <use style="stroke:#000000;stroke-width:0.8;" x="104.425" xlink:href="#m5317b7cabc" y="225.359378"/>
      </g>
     </g>
     <g id="text_15">
      <!-- 6000 -->
      <g transform="translate(33.8 234.857425)scale(0.25 -0.25)">
       <use xlink:href="#DejaVuSans-36"/>
       <use x="63.623047" xlink:href="#DejaVuSans-30"/>
       <use x="127.246094" xlink:href="#DejaVuSans-30"/>
       <use x="190.869141" xlink:href="#DejaVuSans-30"/>
      </g>
     </g>
    </g>
    <g id="ytick_8">
     <g id="line2d_15">
      <g>
       <use style="stroke:#000000;stroke-width:0.8;" x="104.425" xlink:href="#m5317b7cabc" y="141.55428"/>
      </g>
     </g>
     <g id="text_16">
      <!-- 7000 -->
      <defs>
       <path d="M 8.203125 72.90625 
L 55.078125 72.90625 
L 55.078125 68.703125 
L 28.609375 0 
L 18.3125 0 
L 43.21875 64.59375 
L 8.203125 64.59375 
z
" id="DejaVuSans-37"/>
      </defs>
      <g transform="translate(33.8 151.052327)scale(0.25 -0.25)">
       <use xlink:href="#DejaVuSans-37"/>
       <use x="63.623047" xlink:href="#DejaVuSans-30"/>
       <use x="127.246094" xlink:href="#DejaVuSans-30"/>
       <use x="190.869141" xlink:href="#DejaVuSans-30"/>
      </g>
     </g>
    </g>
    <g id="ytick_9">
     <g id="line2d_16">
      <g>
       <use style="stroke:#000000;stroke-width:0.8;" x="104.425" xlink:href="#m5317b7cabc" y="57.749182"/>
      </g>
     </g>
     <g id="text_17">
      <!-- 8000 -->
      <g transform="translate(33.8 67.247229)scale(0.25 -0.25)">
       <use xlink:href="#DejaVuSans-38"/>
       <use x="63.623047" xlink:href="#DejaVuSans-30"/>
       <use x="127.246094" xlink:href="#DejaVuSans-30"/>
       <use x="190.869141" xlink:href="#DejaVuSans-30"/>
      </g>
     </g>
    </g>
    <g id="text_18">
     <!-- Bandwidth (kbps) -->
     <defs>
      <path d="M 19.671875 34.8125 
L 19.671875 8.109375 
L 35.5 8.109375 
Q 43.453125 8.109375 47.28125 11.40625 
Q 51.125 14.703125 51.125 21.484375 
Q 51.125 28.328125 47.28125 31.5625 
Q 43.453125 34.8125 35.5 34.8125 
z
M 19.671875 64.796875 
L 19.671875 42.828125 
L 34.28125 42.828125 
Q 41.5 42.828125 45.03125 45.53125 
Q 48.578125 48.25 48.578125 53.8125 
Q 48.578125 59.328125 45.03125 62.0625 
Q 41.5 64.796875 34.28125 64.796875 
z
M 9.8125 72.90625 
L 35.015625 72.90625 
Q 46.296875 72.90625 52.390625 68.21875 
Q 58.5 63.53125 58.5 54.890625 
Q 58.5 48.1875 55.375 44.234375 
Q 52.25 40.28125 46.1875 39.3125 
Q 53.46875 37.75 57.5 32.78125 
Q 61.53125 27.828125 61.53125 20.40625 
Q 61.53125 10.640625 54.890625 5.3125 
Q 48.25 0 35.984375 0 
L 9.8125 0 
z
" id="DejaVuSans-42"/>
      <path d="M 34.28125 27.484375 
Q 23.390625 27.484375 19.1875 25 
Q 14.984375 22.515625 14.984375 16.5 
Q 14.984375 11.71875 18.140625 8.90625 
Q 21.296875 6.109375 26.703125 6.109375 
Q 34.1875 6.109375 38.703125 11.40625 
Q 43.21875 16.703125 43.21875 25.484375 
L 43.21875 27.484375 
z
M 52.203125 31.203125 
L 52.203125 0 
L 43.21875 0 
L 43.21875 8.296875 
Q 40.140625 3.328125 35.546875 0.953125 
Q 30.953125 -1.421875 24.3125 -1.421875 
Q 15.921875 -1.421875 10.953125 3.296875 
Q 6 8.015625 6 15.921875 
Q 6 25.140625 12.171875 29.828125 
Q 18.359375 34.515625 30.609375 34.515625 
L 43.21875 34.515625 
L 43.21875 35.40625 
Q 43.21875 41.609375 39.140625 45 
Q 35.0625 48.390625 27.6875 48.390625 
Q 23 48.390625 18.546875 47.265625 
Q 14.109375 46.140625 10.015625 43.890625 
L 10.015625 52.203125 
Q 14.9375 54.109375 19.578125 55.046875 
Q 24.21875 56 28.609375 56 
Q 40.484375 56 46.34375 49.84375 
Q 52.203125 43.703125 52.203125 31.203125 
z
" id="DejaVuSans-61"/>
      <path d="M 45.40625 46.390625 
L 45.40625 75.984375 
L 54.390625 75.984375 
L 54.390625 0 
L 45.40625 0 
L 45.40625 8.203125 
Q 42.578125 3.328125 38.25 0.953125 
Q 33.9375 -1.421875 27.875 -1.421875 
Q 17.96875 -1.421875 11.734375 6.484375 
Q 5.515625 14.40625 5.515625 27.296875 
Q 5.515625 40.1875 11.734375 48.09375 
Q 17.96875 56 27.875 56 
Q 33.9375 56 38.25 53.625 
Q 42.578125 51.265625 45.40625 46.390625 
z
M 14.796875 27.296875 
Q 14.796875 17.390625 18.875 11.75 
Q 22.953125 6.109375 30.078125 6.109375 
Q 37.203125 6.109375 41.296875 11.75 
Q 45.40625 17.390625 45.40625 27.296875 
Q 45.40625 37.203125 41.296875 42.84375 
Q 37.203125 48.484375 30.078125 48.484375 
Q 22.953125 48.484375 18.875 42.84375 
Q 14.796875 37.203125 14.796875 27.296875 
z
" id="DejaVuSans-64"/>
      <path d="M 4.203125 54.6875 
L 13.1875 54.6875 
L 24.421875 12.015625 
L 35.59375 54.6875 
L 46.1875 54.6875 
L 57.421875 12.015625 
L 68.609375 54.6875 
L 77.59375 54.6875 
L 63.28125 0 
L 52.6875 0 
L 40.921875 44.828125 
L 29.109375 0 
L 18.5 0 
z
" id="DejaVuSans-77"/>
      <path d="M 54.890625 33.015625 
L 54.890625 0 
L 45.90625 0 
L 45.90625 32.71875 
Q 45.90625 40.484375 42.875 44.328125 
Q 39.84375 48.1875 33.796875 48.1875 
Q 26.515625 48.1875 22.3125 43.546875 
Q 18.109375 38.921875 18.109375 30.90625 
L 18.109375 0 
L 9.078125 0 
L 9.078125 75.984375 
L 18.109375 75.984375 
L 18.109375 46.1875 
Q 21.34375 51.125 25.703125 53.5625 
Q 30.078125 56 35.796875 56 
Q 45.21875 56 50.046875 50.171875 
Q 54.890625 44.34375 54.890625 33.015625 
z
" id="DejaVuSans-68"/>
      <path d="M 31 75.875 
Q 24.46875 64.65625 21.28125 53.65625 
Q 18.109375 42.671875 18.109375 31.390625 
Q 18.109375 20.125 21.3125 9.0625 
Q 24.515625 -2 31 -13.1875 
L 23.1875 -13.1875 
Q 15.875 -1.703125 12.234375 9.375 
Q 8.59375 20.453125 8.59375 31.390625 
Q 8.59375 42.28125 12.203125 53.3125 
Q 15.828125 64.359375 23.1875 75.875 
z
" id="DejaVuSans-28"/>
      <path d="M 9.078125 75.984375 
L 18.109375 75.984375 
L 18.109375 31.109375 
L 44.921875 54.6875 
L 56.390625 54.6875 
L 27.390625 29.109375 
L 57.625 0 
L 45.90625 0 
L 18.109375 26.703125 
L 18.109375 0 
L 9.078125 0 
z
" id="DejaVuSans-6b"/>
      <path d="M 48.6875 27.296875 
Q 48.6875 37.203125 44.609375 42.84375 
Q 40.53125 48.484375 33.40625 48.484375 
Q 26.265625 48.484375 22.1875 42.84375 
Q 18.109375 37.203125 18.109375 27.296875 
Q 18.109375 17.390625 22.1875 11.75 
Q 26.265625 6.109375 33.40625 6.109375 
Q 40.53125 6.109375 44.609375 11.75 
Q 48.6875 17.390625 48.6875 27.296875 
z
M 18.109375 46.390625 
Q 20.953125 51.265625 25.265625 53.625 
Q 29.59375 56 35.59375 56 
Q 45.5625 56 51.78125 48.09375 
Q 58.015625 40.1875 58.015625 27.296875 
Q 58.015625 14.40625 51.78125 6.484375 
Q 45.5625 -1.421875 35.59375 -1.421875 
Q 29.59375 -1.421875 25.265625 0.953125 
Q 20.953125 3.328125 18.109375 8.203125 
L 18.109375 0 
L 9.078125 0 
L 9.078125 75.984375 
L 18.109375 75.984375 
z
" id="DejaVuSans-62"/>
      <path d="M 8.015625 75.875 
L 15.828125 75.875 
Q 23.140625 64.359375 26.78125 53.3125 
Q 30.421875 42.28125 30.421875 31.390625 
Q 30.421875 20.453125 26.78125 9.375 
Q 23.140625 -1.703125 15.828125 -13.1875 
L 8.015625 -13.1875 
Q 14.5 -2 17.703125 9.0625 
Q 20.90625 20.125 20.90625 31.390625 
Q 20.90625 42.671875 17.703125 53.65625 
Q 14.5 64.65625 8.015625 75.875 
z
" id="DejaVuSans-29"/>
     </defs>
     <g transform="translate(25.640625 473.065625)rotate(-90)scale(0.2 -0.2)">
      <use xlink:href="#DejaVuSans-42"/>
      <use x="68.603516" xlink:href="#DejaVuSans-61"/>
      <use x="129.882812" xlink:href="#DejaVuSans-6e"/>
      <use x="193.261719" xlink:href="#DejaVuSans-64"/>
      <use x="256.738281" xlink:href="#DejaVuSans-77"/>
      <use x="338.525391" xlink:href="#DejaVuSans-69"/>
      <use x="366.308594" xlink:href="#DejaVuSans-64"/>
      <use x="429.785156" xlink:href="#DejaVuSans-74"/>
      <use x="468.994141" xlink:href="#DejaVuSans-68"/>
      <use x="532.373047" xlink:href="#DejaVuSans-20"/>
      <use x="564.160156" xlink:href="#DejaVuSans-28"/>
      <use x="603.173828" xlink:href="#DejaVuSans-6b"/>
      <use x="661.083984" xlink:href="#DejaVuSans-62"/>
      <use x="724.560547" xlink:href="#DejaVuSans-70"/>
      <use x="788.037109" xlink:href="#DejaVuSans-73"/>
      <use x="840.136719" xlink:href="#DejaVuSans-29"/>
     </g>
    </g>
   </g>
   <g id="line2d_17">
    <path clip-path="url(#p48aa4966b8)" d="M 164.482955 696.518341 
L 165.484755 677.552317 
L 166.486556 672.047252 
L 167.488357 688.872333 
L 168.490158 689.23065 
L 169.491958 688.804551 
L 170.493759 702.296049 
L 171.49556 704.457106 
L 172.49736 689.513727 
L 173.499161 706.73735 
L 174.500962 699.274598 
L 175.502763 687.910627 
L 176.504563 682.065875 
L 177.506364 695.087319 
L 178.508165 699.44593 
L 179.509966 704.986008 
L 180.511766 694.36548 
L 181.513567 702.73631 
L 182.515368 698.143791 
L 183.517169 688.342684 
L 184.518969 692.443553 
L 185.52077 699.170303 
L 186.522571 698.743458 
L 187.524372 688.736761 
L 188.526172 708.475284 
L 189.527973 711.172685 
L 190.529774 712.039791 
L 192.533375 695.692207 
L 193.535176 708.936396 
L 194.536977 708.831355 
L 195.538778 714.067497 
L 196.540578 716.70755 
L 197.542379 711.189823 
L 198.54418 713.737498 
L 199.545981 711.004329 
L 200.547781 716.790233 
L 201.549582 712.230489 
L 202.551383 709.304393 
L 203.553184 715.068692 
L 204.554984 716.057969 
L 205.556785 714.199356 
L 206.558586 693.661517 
L 207.560386 709.421343 
L 209.563988 679.144983 
L 210.565789 674.567364 
L 211.567589 678.234675 
L 212.56939 709.952482 
L 213.571191 661.098954 
L 214.572992 666.992875 
L 215.574792 675.709351 
L 216.576593 689.864585 
L 217.578394 603.049208 
L 218.580195 586.59287 
L 219.581995 706.574207 
L 220.583796 680.365931 
L 221.585597 696.476623 
L 222.587398 692.9434 
L 223.589198 692.976176 
L 224.590999 585.700438 
L 225.5928 497.117336 
L 226.594601 525.534337 
L 227.596401 522.743811 
L 228.598202 537.89429 
L 229.600003 647.344493 
L 230.601804 703.680886 
L 231.603604 667.50986 
L 233.607206 686.017001 
L 234.609007 712.231235 
L 235.610807 701.847599 
L 236.612608 687.910627 
L 237.614409 657.267754 
L 238.61621 686.766411 
L 239.61801 654.028788 
L 240.619811 671.113848 
L 241.621612 693.062587 
L 242.623413 693.841791 
L 243.625213 702.882316 
L 244.627014 705.893341 
L 245.628815 696.094472 
L 246.630615 670.740639 
L 247.632416 690.15362 
L 248.634217 689.547249 
L 249.636018 568.849286 
L 250.637818 688.496148 
L 251.639619 706.64498 
L 252.64142 680.199066 
L 253.643221 708.451441 
L 254.645021 711.430436 
L 255.646822 695.066468 
L 256.648623 707.028615 
L 257.650424 693.795606 
L 258.652224 700.655706 
L 259.654025 709.82659 
L 260.655826 670.102228 
L 261.657627 680.393494 
L 262.659427 715.509691 
L 263.661228 701.748525 
L 264.663029 713.835826 
L 265.66483 711.066906 
L 266.66663 711.123525 
L 267.668431 696.983929 
L 270.673833 711.423731 
L 271.675634 708.876056 
L 272.677435 698.185501 
L 273.679236 682.906156 
L 274.681036 705.876948 
L 275.682837 698.032791 
L 276.684638 692.198465 
L 277.686439 688.244356 
L 278.688239 710.543216 
L 280.691841 697.392897 
L 281.693641 710.473197 
L 282.695442 711.490775 
L 283.697243 693.228714 
L 284.699044 708.62501 
L 285.700844 704.047391 
L 286.702645 694.449662 
L 287.704446 692.817508 
L 288.706247 669.044424 
L 289.708047 697.477817 
L 290.709848 707.257311 
L 291.711649 713.664495 
L 292.71345 672.127705 
L 293.71525 718.528166 
L 294.717051 704.390062 
L 295.718852 711.088511 
L 296.720653 713.589255 
L 297.722453 687.486758 
L 298.724254 713.69205 
L 299.726055 702.939672 
L 300.727856 716.805879 
L 301.729656 688.238397 
L 302.731457 707.810055 
L 303.733258 680.133514 
L 305.736859 689.635152 
L 306.73866 712.982129 
L 307.740461 704.463064 
L 308.742262 697.061398 
L 309.744062 683.887237 
L 310.745863 680.216205 
L 311.747664 698.663006 
L 312.749465 700.906007 
L 313.751265 711.683711 
L 314.753066 689.164351 
L 315.754867 659.755089 
L 316.756667 690.579727 
L 317.758468 682.556043 
L 318.760269 672.864444 
L 319.76207 672.414503 
L 320.76387 703.146763 
L 321.765671 645.844935 
L 322.767472 645.309328 
L 323.769273 681.81632 
L 324.771073 622.462944 
L 325.772874 675.136493 
L 326.774675 685.57451 
L 327.776476 657.900952 
L 328.778276 574.390102 
L 329.780077 617.059191 
L 330.781878 645.523123 
L 331.783679 648.272676 
L 332.785479 659.388585 
L 333.78728 662.410035 
L 334.789081 664.574821 
L 335.790882 675.246001 
L 336.792682 670.999127 
L 337.794483 666.010302 
L 338.796284 694.92865 
L 339.798085 663.316622 
L 340.799885 684.768498 
L 341.801686 683.862657 
L 342.803487 681.665094 
L 343.805288 669.06975 
L 344.807088 668.326306 
L 345.808889 664.343888 
L 346.81069 666.0632 
L 347.812491 670.711584 
L 348.814291 659.352088 
L 349.816092 672.905417 
L 350.817893 661.218142 
L 351.819693 691.456513 
L 352.821494 669.883966 
L 353.823295 676.019245 
L 354.825096 676.563786 
L 356.828697 685.675822 
L 357.830498 694.456367 
L 358.832299 691.817059 
L 359.834099 697.316165 
L 360.8359 706.127249 
L 361.837701 697.161218 
L 362.839502 703.615325 
L 363.841302 701.677014 
L 364.843103 698.761334 
L 365.844904 693.806777 
L 366.846705 700.379334 
L 367.848505 710.454567 
L 368.850306 697.71098 
L 369.852107 698.664497 
L 370.853908 705.748819 
L 372.857509 680.967098 
L 373.85931 691.001359 
L 374.861111 703.630972 
L 375.862911 689.470517 
L 376.864712 688.720369 
L 377.866513 701.505675 
L 378.868314 686.290398 
L 379.870114 698.848491 
L 380.871915 704.635141 
L 381.873716 708.621289 
L 382.875517 702.02266 
L 383.877317 693.581064 
L 384.879118 686.857289 
L 385.880919 686.633806 
L 386.88272 702.481543 
L 387.88452 681.474396 
L 388.886321 684.874276 
L 389.888122 688.943852 
L 390.889922 708.900636 
L 391.891723 694.630681 
L 392.893524 699.876503 
L 393.895325 706.229307 
L 394.897125 695.526834 
L 395.898926 702.698313 
L 396.900727 691.735115 
L 397.902528 700.05976 
L 398.904328 704.004181 
L 399.906129 694.33345 
L 400.90793 711.259096 
L 402.911531 680.383815 
L 403.913332 697.062144 
L 404.915133 688.15124 
L 405.916934 697.827192 
L 406.918734 692.464412 
L 407.920535 656.831968 
L 409.924137 685.722753 
L 411.927738 675.67955 
L 412.929539 679.144237 
L 413.93134 652.206672 
L 414.93314 684.764022 
L 415.934941 692.338511 
L 416.936742 685.256428 
L 417.938543 675.228863 
L 418.940343 677.363848 
L 419.942144 687.158242 
L 420.943945 683.806038 
L 421.945746 688.15869 
L 422.947546 689.583 
L 423.949347 695.2527 
L 424.951148 668.804557 
L 425.952948 684.857884 
L 426.954749 681.735122 
L 427.95655 672.822726 
L 428.958351 662.629797 
L 429.960151 687.232736 
L 430.961952 698.515509 
L 431.963753 690.211731 
L 432.965554 701.639017 
L 433.967354 703.052155 
L 434.969155 705.787553 
L 435.970956 712.707994 
L 436.972757 682.528479 
L 437.974557 705.682521 
L 438.976358 707.20815 
L 439.978159 715.471702 
L 440.97996 707.103855 
L 441.98176 705.296648 
L 442.983561 715.36071 
L 443.985362 708.921495 
L 444.987163 717.715441 
L 445.988963 701.82674 
L 446.990764 683.892449 
L 447.992565 716.586871 
L 448.994366 682.959791 
L 449.996166 702.374272 
L 450.997967 712.693094 
L 451.999768 715.161061 
L 453.001569 718.799326 
L 454.003369 716.391697 
L 455.00517 711.235262 
L 456.006971 715.056029 
L 457.008772 708.000754 
L 458.010572 703.421643 
L 459.012373 708.721109 
L 460.014174 695.36742 
L 461.015974 705.340596 
L 462.017775 717.465894 
L 463.019576 714.731979 
L 464.021377 702.973194 
L 465.023177 702.588068 
L 466.024978 708.205616 
L 467.026779 713.16464 
L 468.02858 719.579266 
L 469.03038 712.965745 
L 470.032181 720.259395 
L 471.033982 713.788895 
L 472.035783 706.180884 
L 473.037583 717.447265 
L 474.039384 714.401234 
L 475.041185 722.286364 
L 476.042986 715.485857 
L 477.044786 715.888121 
L 478.046587 713.295007 
L 479.048388 710.274294 
L 480.050189 712.940419 
L 481.051989 714.871289 
L 482.05379 712.867408 
L 483.055591 712.140357 
L 484.057392 716.832697 
L 485.059192 715.395716 
L 486.060993 717.647651 
L 487.062794 719.088361 
L 488.064595 713.532636 
L 489.066395 713.17954 
L 490.068196 702.722156 
L 491.069997 704.483177 
L 492.071798 714.7372 
L 493.073598 719.324499 
L 494.075399 710.566313 
L 495.0772 714.440715 
L 496.079 708.172093 
L 497.080801 679.501808 
L 498.082602 673.178806 
L 499.084403 647.738561 
L 500.086203 515.421861 
L 501.088004 526.995898 
L 502.089805 678.38068 
L 503.091606 461.906532 
L 504.093406 542.681237 
L 505.095207 518.868664 
L 506.097008 486.221181 
L 507.098809 598.23396 
L 508.100609 626.706088 
L 509.10241 596.964589 
L 510.104211 592.841379 
L 511.106012 631.299354 
L 512.107812 607.133684 
L 513.109613 599.729043 
L 514.111414 619.850454 
L 515.113215 587.978445 
L 516.115015 509.01393 
L 517.116816 510.655764 
L 518.118617 550.442704 
L 519.120418 571.530304 
L 520.122218 573.575148 
L 521.124019 588.927496 
L 522.12582 600.503771 
L 523.127621 548.07381 
L 524.129421 567.192552 
L 525.131222 627.350457 
L 526.133023 545.596163 
L 527.134824 518.69212 
L 528.136624 476.220442 
L 529.138425 469.492192 
L 530.140226 517.258868 
L 531.142026 580.329462 
L 532.143827 603.788185 
L 534.147429 689.687295 
L 535.149229 691.151094 
L 536.15103 696.219626 
L 537.152831 702.868161 
L 538.154632 713.176557 
L 539.156432 688.020135 
L 540.158233 695.140954 
L 541.160034 666.820052 
L 542.161835 703.008208 
L 543.163635 682.501662 
L 544.165436 637.708767 
L 545.167237 608.578861 
L 546.169038 572.688675 
L 547.170838 605.236337 
L 548.172639 679.477974 
L 549.17444 679.191168 
L 550.176241 667.948622 
L 551.178041 639.37369 
L 552.179842 640.676582 
L 553.181643 634.527895 
L 554.183444 668.719629 
L 555.185244 633.163925 
L 556.187045 681.717992 
L 558.190647 447.637314 
L 559.192447 284.429677 
L 560.194248 48.013636 
L 561.196049 158.403949 
L 563.19965 412.927103 
L 564.201451 606.382045 
L 565.203252 687.956812 
L 566.205053 535.412167 
L 567.206853 685.020282 
L 568.208654 661.472164 
L 569.210455 694.913004 
L 570.212255 689.107733 
L 571.214056 688.517745 
L 572.215857 693.155712 
L 573.217658 688.296499 
L 574.219458 700.619201 
L 575.221259 704.246286 
L 576.22306 697.597751 
L 578.226661 692.053951 
L 579.228462 690.409134 
L 580.230263 689.86161 
L 581.232064 698.289796 
L 582.233864 693.647363 
L 583.235665 689.588967 
L 584.237466 688.3263 
L 585.239267 686.13768 
L 586.241067 695.283238 
L 587.242868 699.053353 
L 588.244669 686.948168 
L 589.24647 703.458149 
L 590.24827 691.239734 
L 591.250071 688.639916 
L 592.251872 688.497632 
L 593.253673 697.664795 
L 594.255473 665.675827 
L 595.257274 640.486621 
L 597.260876 661.186858 
L 598.262676 659.541294 
L 599.264477 663.728574 
L 600.266278 621.942229 
L 601.268079 564.603159 
L 602.269879 458.196757 
L 603.27168 629.242592 
L 604.273481 640.467254 
L 605.275281 635.929862 
L 606.277082 643.943121 
L 607.278883 653.469338 
L 608.280684 629.673157 
L 609.282484 641.193568 
L 610.284285 664.87279 
L 611.286086 652.013736 
L 612.287887 627.510617 
L 613.289687 652.170175 
L 614.291488 638.564694 
L 615.293289 616.774623 
L 616.29509 608.271942 
L 617.29689 563.464155 
L 618.298691 603.946861 
L 619.300492 651.671065 
L 620.302293 540.624467 
L 621.304093 594.641143 
L 622.305894 592.897997 
L 623.307695 613.095395 
L 624.309496 627.64396 
L 625.311296 617.10463 
L 626.313097 599.698496 
L 627.314898 630.805457 
L 628.316699 574.811734 
L 629.318499 595.190905 
L 630.3203 621.770898 
L 631.322101 612.963544 
L 632.323902 608.468607 
L 633.325702 614.522688 
L 634.327503 634.396044 
L 635.329304 631.687463 
L 636.331105 635.371158 
L 637.332905 626.092258 
L 638.334706 622.670035 
L 639.336507 635.117882 
L 640.338307 626.534749 
L 642.341909 593.968465 
L 644.34551 656.878899 
L 646.349112 659.145734 
L 647.350913 680.406157 
L 648.352713 643.279384 
L 649.354514 662.430148 
L 651.358116 644.548009 
L 652.359916 657.551577 
L 653.361717 651.742585 
L 654.363518 628.785946 
L 655.365319 629.07349 
L 656.367119 630.381595 
L 657.36892 582.093467 
L 658.370721 559.051163 
L 659.372522 592.246178 
L 660.374322 603.603445 
L 661.376123 607.594797 
L 662.377924 603.836607 
L 663.379725 608.154992 
L 664.381525 574.711168 
L 665.383326 595.598382 
L 666.385127 620.379365 
L 667.386928 432.030199 
L 668.388728 455.634927 
L 669.390529 461.838742 
L 670.39233 483.2772 
L 671.394131 612.150073 
L 672.395931 654.808728 
L 673.397732 691.835681 
L 674.399533 681.3701 
L 675.401333 684.396772 
L 676.403134 689.948021 
L 677.404935 698.162413 
L 678.406736 688.078983 
L 679.408536 681.146626 
L 680.410337 684.456365 
L 681.412138 692.708 
L 682.413939 686.865485 
L 683.415739 660.505246 
L 684.41754 668.741979 
L 685.419341 671.91391 
L 686.421142 666.764925 
L 687.422942 670.432236 
L 688.424743 673.4887 
L 689.426544 651.742585 
L 690.428345 656.390223 
L 691.430145 659.638885 
L 692.431946 682.016707 
L 693.433747 619.376679 
L 694.435548 605.705645 
L 695.437348 579.919001 
L 696.439149 640.532815 
L 697.44095 649.280575 
L 698.442751 659.546515 
L 699.444551 644.305905 
L 700.446352 639.907067 
L 701.448153 619.822153 
L 702.449954 623.797121 
L 703.451754 587.737832 
L 704.453555 600.669889 
L 705.455356 627.419731 
L 706.457157 631.201762 
L 707.458957 621.979481 
L 708.460758 618.012709 
L 709.462559 653.044723 
L 710.46436 655.976041 
L 711.46616 663.381437 
L 712.467961 605.76301 
L 713.469762 579.388616 
L 714.471562 520.403973 
L 715.473363 453.793452 
L 716.475164 468.166211 
L 717.476965 442.430227 
L 718.478765 410.873325 
L 719.480566 500.572335 
L 720.482367 451.633141 
L 721.484168 455.588742 
L 722.485968 443.831448 
L 723.487769 471.570558 
L 724.48957 459.704502 
L 725.491371 468.923063 
L 726.493171 495.905329 
L 727.494972 514.802818 
L 728.496773 609.11596 
L 729.498574 571.005122 
L 730.500374 542.762436 
L 731.502175 574.670942 
L 732.503976 663.952795 
L 733.505777 677.579881 
L 734.507577 639.596427 
L 735.509378 627.52328 
L 736.511179 439.286606 
L 737.51298 473.801634 
L 738.51478 595.848674 
L 739.516581 598.593015 
L 740.518382 661.500473 
L 741.520183 665.897073 
L 742.521983 681.054256 
L 743.523784 706.202489 
L 744.525585 633.934186 
L 745.527386 660.652743 
L 746.529186 648.395593 
L 747.530987 651.000625 
L 748.532788 676.054997 
L 749.534588 676.02222 
L 750.536389 690.384554 
L 751.53819 597.885331 
L 752.539991 196.184032 
L 753.541791 207.660487 
L 754.543592 208.482891 
L 755.545393 310.761616 
L 756.547194 681.965309 
L 757.548994 676.865484 
L 758.550795 659.118171 
L 759.552596 667.67002 
L 760.554397 653.645145 
L 761.556197 676.205477 
L 762.557998 647.629053 
L 763.559799 663.823928 
L 764.5616 653.099104 
L 765.5634 662.427173 
L 766.565201 625.469494 
L 767.567002 638.583315 
L 768.568803 654.974109 
L 769.570603 641.6152 
L 770.572404 685.931335 
L 771.574205 685.52535 
L 772.576006 695.498525 
L 773.577806 672.62234 
L 774.579607 688.344922 
L 775.581408 701.039349 
L 776.583209 685.328684 
L 778.58681 702.676708 
L 779.588611 696.545904 
L 780.590412 705.925371 
L 781.592212 706.593574 
L 782.594013 699.285024 
L 783.595814 699.038452 
L 784.597614 690.418822 
L 785.599415 672.344484 
L 786.601216 675.210987 
L 787.603017 682.477073 
L 788.604817 679.272366 
L 789.606618 700.467237 
L 790.608419 650.348068 
L 791.61022 661.267311 
L 792.61202 660.990938 
L 793.613821 641.776851 
L 794.615622 607.478593 
L 795.617423 601.889346 
L 796.619223 632.476346 
L 797.621024 652.473365 
L 798.622825 639.631441 
L 799.624626 615.984248 
L 800.626426 625.012848 
L 801.628227 608.721883 
L 802.630028 635.470987 
L 803.631829 627.659606 
L 804.633629 593.858211 
L 805.63543 621.181656 
L 806.637231 670.611017 
L 807.639032 614.03252 
L 808.640832 682.872633 
L 809.642633 686.058719 
L 810.644434 682.292333 
L 811.646235 640.39053 
L 812.648035 678.903624 
L 813.649836 681.836434 
L 814.651637 658.266711 
L 815.653438 676.220378 
L 816.655238 626.206233 
L 817.657039 648.724855 
L 818.65884 656.04979 
L 819.66064 581.963846 
L 820.662441 608.58482 
L 821.664242 607.70133 
L 822.666043 682.798139 
L 823.667843 661.755241 
L 824.669644 636.329889 
L 825.671445 650.776404 
L 826.673246 626.82453 
L 827.675046 653.446242 
L 828.676847 625.97307 
L 829.678648 625.763742 
L 830.680449 618.794141 
L 831.682249 644.300692 
L 832.68405 629.792353 
L 833.685851 657.027887 
L 834.687652 654.74243 
L 835.689452 650.388294 
L 836.691253 668.219781 
L 837.693054 647.137394 
L 841.700257 696.157795 
L 842.702058 683.114738 
L 843.703858 676.170463 
L 844.705659 680.468735 
L 845.70746 689.215749 
L 846.709261 692.050968 
L 847.711061 704.498824 
L 848.712862 689.986756 
L 849.714663 703.04918 
L 850.716464 708.09387 
L 851.718264 694.798292 
L 852.720065 694.216491 
L 853.721866 694.542032 
L 854.723667 673.715158 
L 855.725467 673.193706 
L 857.729069 698.835828 
L 858.730869 700.213216 
L 859.73267 660.995405 
L 860.734471 687.801865 
L 861.736272 695.101473 
L 862.738072 691.306778 
L 863.739873 706.948908 
L 864.741674 697.244655 
L 865.743475 708.226475 
L 866.745275 701.529517 
L 867.747076 702.744498 
L 868.748877 697.105345 
L 869.750678 701.898997 
L 870.752478 701.098943 
L 872.75608 694.991228 
L 873.757881 693.27117 
L 874.759681 698.086427 
L 875.761482 691.638278 
L 876.763283 682.173892 
L 877.765084 710.742857 
L 878.766884 703.589254 
L 879.768685 690.535026 
L 880.770486 691.844623 
L 881.772287 670.788316 
L 882.774087 688.227972 
L 883.775888 673.386642 
L 884.777689 681.469183 
L 885.77949 676.145137 
L 886.78129 618.779241 
L 887.783091 641.963083 
L 888.784892 677.965753 
L 889.786693 665.208011 
L 890.788493 671.484828 
L 891.790294 636.517612 
L 892.792095 590.420341 
L 893.793895 555.947022 
L 894.795696 578.830658 
L 895.797497 611.041608 
L 896.799298 673.031309 
L 897.801098 655.57676 
L 898.802899 656.294878 
L 899.8047 637.428674 
L 900.806501 661.542937 
L 901.808301 655.295175 
L 902.810102 560.491119 
L 903.811903 579.510778 
L 904.813704 611.233061 
L 905.815504 636.693418 
L 906.817305 608.501383 
L 907.819106 636.182392 
L 908.820907 616.838692 
L 909.822707 677.608927 
L 911.826309 622.835407 
L 912.82811 675.102971 
L 913.82991 685.743612 
L 914.831711 673.57362 
L 915.833512 699.266402 
L 916.835313 677.443555 
L 917.837113 692.471116 
L 918.838914 678.845522 
L 919.840715 571.782088 
L 920.842516 684.90184 
L 921.844316 697.161964 
L 922.846117 695.820337 
L 923.847918 690.967837 
L 924.849719 673.777736 
L 925.851519 706.990626 
L 926.85332 705.759998 
L 927.855121 708.918512 
L 928.856921 699.265656 
L 929.858722 699.755078 
L 930.860523 702.489731 
L 932.864124 704.340893 
L 933.865925 685.052312 
L 934.867726 701.313484 
L 935.869527 693.996738 
L 938.874929 708.680883 
L 939.87673 697.218583 
L 940.87853 711.579424 
L 941.880331 677.478569 
L 942.882132 690.786818 
L 943.883933 685.089563 
L 944.885733 704.86682 
L 945.887534 697.209641 
L 946.889335 699.323767 
L 947.891136 703.175818 
L 948.892936 680.961877 
L 949.894737 709.580019 
L 950.896538 710.209488 
L 951.898339 701.748525 
L 952.900139 703.819441 
L 953.90194 695.373379 
L 954.903741 705.313778 
L 955.905542 695.566315 
L 956.907342 693.757617 
L 957.909143 692.246887 
L 958.910944 691.426712 
L 959.912745 683.923742 
L 960.914545 692.976176 
L 961.916346 682.448772 
L 962.918147 679.857888 
L 963.919947 681.008062 
L 964.921748 704.216493 
L 964.921748 704.216493 
" style="fill:none;stroke:#1f77b4;stroke-linecap:square;stroke-width:1.5;"/>
   </g>
   <g id="line2d_18">
    <path clip-path="url(#p48aa4966b8)" d="M 965.923549 704.671647 
L 966.92535 703.090898 
L 967.92715 708.604151 
L 968.928951 710.164048 
L 969.930752 704.482432 
L 970.932553 712.241669 
L 971.934353 701.974983 
L 972.936154 705.058265 
L 973.937955 694.209041 
L 974.939756 667.431636 
L 975.941556 703.179539 
L 976.943357 698.032791 
L 977.945158 695.710829 
L 978.946959 700.994648 
L 979.948759 703.753889 
L 980.95056 698.297992 
L 981.952361 691.640516 
L 982.954162 675.535782 
L 983.955962 670.460545 
L 984.957763 690.151391 
L 985.959564 698.019382 
L 986.961365 668.604908 
L 987.963165 669.24481 
L 988.964966 671.148862 
L 989.966767 678.08494 
L 990.968568 668.829137 
L 991.970368 666.636049 
L 992.972169 666.895284 
L 993.97397 682.406308 
L 994.975771 663.557235 
L 995.977571 681.500467 
L 996.979372 704.48839 
L 997.981173 678.673445 
L 998.982974 689.857881 
L 999.984774 676.071389 
L 1000.986575 667.366084 
L 1001.988376 681.257617 
L 1002.990176 679.742421 
L 1003.991977 697.233475 
L 1004.993778 700.094774 
L 1005.995579 712.398845 
L 1006.997379 702.901683 
L 1007.99918 697.286364 
L 1009.000981 682.267753 
L 1010.002782 690.71307 
L 1011.004582 694.486905 
L 1012.006383 710.294407 
L 1013.008184 701.070634 
L 1014.009985 709.19936 
L 1015.011785 699.711131 
L 1016.013586 703.859668 
L 1017.015387 704.8914 
L 1018.017188 709.193393 
L 1019.018988 710.000905 
L 1020.020789 712.246882 
L 1021.02259 711.697866 
L 1022.024391 701.434909 
L 1023.026191 706.454273 
L 1024.027992 707.599981 
L 1025.029793 709.358774 
L 1026.031594 709.919706 
L 1027.033394 697.413748 
L 1028.035195 698.064076 
L 1029.036996 710.260885 
L 1030.038797 702.669266 
L 1031.040597 700.061989 
L 1032.042398 692.892748 
L 1033.044199 702.470363 
L 1034.046 694.512231 
L 1035.0478 701.774597 
L 1036.049601 694.900341 
L 1037.051402 698.708445 
L 1038.053202 700.257163 
L 1040.056804 716.528015 
L 1041.058605 706.992118 
L 1042.060405 702.290836 
L 1043.062206 704.098043 
L 1044.064007 692.282647 
L 1045.065808 712.39587 
L 1046.067608 707.196971 
L 1047.069409 699.868307 
L 1048.07121 705.21545 
L 1049.073011 690.827045 
L 1050.074811 713.791879 
L 1051.076612 709.275337 
L 1052.078413 716.028168 
L 1053.080214 708.924479 
L 1054.082014 714.786361 
L 1055.083815 704.793818 
L 1056.085616 702.200695 
L 1057.087417 711.71425 
L 1058.089217 716.91315 
L 1059.091018 708.704717 
L 1060.092819 713.627244 
L 1062.09642 702.658833 
L 1063.098221 706.216636 
L 1064.100022 708.210828 
L 1065.101823 679.833308 
L 1066.103623 687.88381 
L 1067.105424 708.911808 
L 1068.107225 703.338215 
L 1070.110826 716.273247 
L 1071.112627 709.073459 
L 1072.114428 718.408978 
L 1073.116228 709.970366 
L 1074.118029 715.099976 
L 1075.11983 709.185951 
L 1076.121631 709.350578 
L 1077.123431 711.440115 
L 1078.125232 700.852372 
L 1079.127033 703.370992 
L 1080.128834 688.043969 
L 1081.130634 696.280703 
L 1082.132435 699.326742 
L 1083.134236 675.909737 
L 1084.136037 683.347163 
L 1085.137837 682.250615 
L 1086.139638 674.293229 
L 1087.141439 690.054546 
L 1088.14324 690.423288 
L 1089.14504 677.25434 
L 1090.146841 687.446531 
L 1091.148642 692.014471 
L 1092.150443 690.238548 
L 1093.152243 682.65288 
L 1094.154044 690.736904 
L 1095.155845 696.421496 
L 1096.157646 699.834785 
L 1097.159446 694.946526 
L 1098.161247 687.640213 
L 1099.163048 695.07391 
L 1100.164849 694.19042 
L 1101.166649 694.74614 
L 1102.16845 689.200849 
L 1103.170251 695.28473 
L 1104.172052 691.074362 
L 1105.173852 677.121743 
L 1106.175653 698.824657 
L 1107.177454 700.181931 
L 1108.179254 696.592835 
L 1109.181055 677.051724 
L 1110.182856 653.717401 
L 1111.184657 704.672393 
L 1112.186457 709.072713 
L 1113.188258 703.492417 
L 1114.190059 711.154063 
L 1115.19186 705.719026 
L 1116.19366 710.095513 
L 1117.195461 709.731983 
L 1118.197262 703.579574 
L 1119.199063 699.705918 
L 1120.200863 672.497194 
L 1121.202664 685.215455 
L 1122.204465 685.318996 
L 1123.206266 687.273708 
L 1124.208066 675.726481 
L 1125.209867 685.45011 
L 1126.211668 679.539059 
L 1127.213469 680.534287 
L 1128.215269 679.612808 
L 1129.21707 694.971114 
L 1130.218871 687.179847 
L 1131.220672 691.267298 
L 1132.222472 692.216349 
L 1133.224273 683.402282 
L 1134.226074 677.448768 
L 1135.227875 689.988994 
L 1136.229675 696.113839 
L 1137.231476 698.828378 
L 1139.235078 672.09865 
L 1140.236878 687.502404 
L 1141.238679 669.066774 
L 1142.24048 693.031303 
L 1143.24228 689.775198 
L 1144.244081 682.675976 
L 1145.245882 665.518651 
L 1146.247683 680.213967 
L 1147.249483 684.401238 
L 1148.251284 685.369657 
L 1149.253085 556.270326 
L 1150.254886 365.480755 
L 1151.256686 246.620547 
L 1152.258487 179.447593 
L 1153.260288 312.045879 
L 1154.262089 511.065479 
L 1155.263889 610.370422 
L 1156.26569 672.305003 
L 1157.267491 681.34925 
L 1158.269292 672.88232 
L 1159.271092 649.550981 
L 1160.272893 656.428966 
L 1161.274694 657.246158 
L 1162.276495 677.252111 
L 1163.278295 672.282653 
L 1164.280096 668.152737 
L 1165.281897 669.155415 
L 1165.281897 669.155415 
" style="fill:none;stroke:#ff7f0e;stroke-linecap:square;stroke-width:1.5;"/>
   </g>
   <g id="line2d_19">
    <path clip-path="url(#p48aa4966b8)" d="M 1166.283698 670.190877 
L 1167.285498 669.34463 
L 1169.2891 692.893494 
L 1170.290901 672.126214 
L 1171.292701 624.571849 
L 1172.294502 630.717562 
L 1174.298104 639.206825 
L 1175.299904 634.893662 
L 1176.301705 627.781769 
L 1177.303506 595.447156 
L 1178.305307 623.508086 
L 1179.307107 643.772527 
L 1180.308908 631.682996 
L 1181.310709 632.743776 
L 1182.312509 617.819019 
L 1183.31431 631.725452 
L 1184.316111 580.003183 
L 1185.317912 651.176431 
L 1186.319712 642.863711 
L 1187.321513 651.960101 
L 1188.323314 665.392013 
L 1189.325115 653.855211 
L 1190.326915 661.824522 
L 1191.328716 623.028343 
L 1192.330517 630.976796 
L 1193.332318 597.518072 
L 1194.334118 594.977847 
L 1195.335919 638.649614 
L 1196.33772 631.157815 
L 1197.339521 631.755999 
L 1198.341321 653.074524 
L 1199.343122 598.934939 
L 1200.344923 566.325446 
L 1201.346724 610.152905 
L 1202.348524 607.988128 
L 1203.350325 648.49988 
L 1204.352126 624.794586 
L 1205.353927 635.063501 
L 1206.355727 659.901849 
L 1207.357528 647.731111 
L 1208.359329 622.6164 
L 1209.36113 620.550696 
L 1210.36293 591.449845 
L 1212.366532 597.917361 
L 1213.368333 613.289822 
L 1214.370133 635.191631 
L 1215.371934 641.250924 
L 1216.373735 632.343004 
L 1217.375535 647.164212 
L 1218.377336 638.955041 
L 1219.379137 601.262115 
L 1220.380938 666.66063 
L 1221.382738 680.792038 
L 1222.384539 683.128147 
L 1223.38634 677.568701 
L 1224.388141 696.306783 
L 1225.389941 679.44296 
L 1226.391742 682.319151 
L 1227.393543 600.050855 
L 1228.395344 688.732286 
L 1229.397144 690.723495 
L 1230.398945 689.656748 
L 1231.400746 674.346118 
L 1232.402547 679.83107 
L 1233.404347 695.045609 
L 1234.406148 682.927015 
L 1235.407949 691.40809 
L 1236.40975 688.350135 
L 1237.41155 702.959785 
L 1238.413351 694.88172 
L 1239.415152 696.151836 
L 1240.416953 702.237947 
L 1241.418753 697.056931 
L 1242.420554 701.27102 
L 1243.422355 706.545152 
L 1244.424156 696.7597 
L 1245.425956 699.527128 
L 1246.427757 675.868019 
L 1247.429558 669.734978 
L 1248.431359 692.237945 
L 1249.433159 704.291733 
L 1250.43496 690.342835 
L 1251.436761 690.9656 
L 1252.438561 703.76506 
L 1253.440362 708.002246 
L 1254.442163 686.364147 
L 1255.443964 697.140359 
L 1256.445764 709.888422 
L 1257.447565 701.330614 
L 1258.449366 710.086571 
L 1259.451167 711.174176 
L 1260.452967 695.134249 
L 1261.454768 696.141402 
L 1262.456569 695.897814 
L 1263.45837 705.190861 
L 1264.46017 680.270577 
L 1265.461971 706.116815 
L 1266.463772 664.869069 
L 1267.465573 686.632323 
L 1268.467373 684.215007 
L 1269.469174 680.564834 
L 1270.470975 696.025198 
L 1271.472776 686.289652 
L 1272.474576 630.139491 
L 1273.476377 641.907956 
L 1274.478178 635.833762 
L 1275.479979 656.683733 
L 1276.481779 639.789363 
L 1277.48358 654.136796 
L 1278.485381 660.158846 
L 1279.487182 649.226194 
L 1280.488982 630.007632 
L 1281.490783 567.353458 
L 1282.492584 624.422123 
L 1283.494385 606.382045 
L 1284.496185 616.217411 
L 1285.497986 590.710869 
L 1286.499787 595.229639 
L 1287.501587 597.904698 
L 1288.503388 599.47353 
L 1289.505189 614.53908 
L 1290.50699 636.190588 
L 1291.50879 588.185536 
L 1292.510591 599.5808 
L 1293.512392 539.047448 
L 1294.514193 585.555179 
L 1295.515993 582.734853 
L 1296.517794 597.142625 
L 1297.519595 576.988438 
L 1298.521396 613.488717 
L 1299.523196 591.234558 
L 1300.524997 575.685545 
L 1301.526798 618.995273 
L 1302.528599 624.643368 
L 1303.530399 617.378019 
L 1304.5322 626.838685 
L 1305.534001 629.465321 
L 1306.535802 595.500791 
L 1307.537602 637.495718 
L 1308.539403 639.543538 
L 1309.541204 658.379948 
L 1310.543005 632.591067 
L 1311.544805 626.382785 
L 1312.546606 637.048006 
L 1313.548407 644.539067 
L 1314.550208 621.874448 
L 1315.552008 661.265819 
L 1316.553809 664.131584 
L 1317.55561 655.196092 
L 1318.557411 663.621304 
L 1319.559211 659.148718 
L 1320.561012 667.099399 
L 1321.562813 648.903637 
L 1322.564614 656.600297 
L 1323.566414 644.355811 
L 1324.568215 593.987832 
L 1325.570016 639.326759 
L 1326.571816 660.78161 
L 1327.573617 658.16317 
L 1328.575418 660.980513 
L 1329.577219 662.928512 
L 1330.579019 643.271188 
L 1331.58082 658.199667 
L 1332.582621 648.119967 
L 1333.584422 672.606702 
L 1334.586222 629.990502 
L 1335.588023 616.934783 
L 1336.589824 606.398437 
L 1337.591625 597.278205 
L 1338.593425 614.534605 
L 1339.595226 588.765099 
L 1340.597027 648.672703 
L 1341.598828 620.248998 
L 1342.600628 608.94835 
L 1343.602429 600.271354 
L 1344.60423 624.548015 
L 1345.606031 599.088395 
L 1346.607831 625.493336 
L 1347.609632 637.649919 
L 1348.611433 642.550842 
L 1349.613234 695.786069 
L 1350.615034 676.646476 
L 1351.616835 661.226338 
L 1352.618636 660.520884 
L 1353.620437 673.785186 
L 1354.622237 670.029972 
L 1355.624038 691.034135 
L 1356.625839 696.313488 
L 1357.62764 679.990484 
L 1358.62944 659.465317 
L 1359.631241 671.101185 
L 1360.633042 645.277298 
L 1361.634842 613.675695 
L 1362.636643 632.405581 
L 1363.638444 613.467858 
L 1364.640245 612.580647 
L 1365.642045 629.039222 
L 1365.642045 629.039222 
" style="fill:none;stroke:#2ca02c;stroke-linecap:square;stroke-width:1.5;"/>
   </g>
   <g id="line2d_20">
    <path clip-path="url(#p48aa4966b8)" d="M 211.567589 699.50652 
L 212.56939 699.786398 
L 213.571191 699.44362 
L 214.572992 699.33832 
L 215.574792 699.064092 
L 216.576593 699.077299 
L 217.578394 697.290729 
L 218.580195 694.880246 
L 219.581995 694.924352 
L 222.587398 694.388108 
L 223.589198 694.49364 
L 224.590999 692.486027 
L 225.5928 688.361652 
L 228.598202 677.681965 
L 229.600003 676.527969 
L 230.601804 676.643325 
L 232.605405 675.877704 
L 233.607206 675.603677 
L 235.610807 676.157814 
L 236.612608 675.729384 
L 237.614409 674.606365 
L 238.61621 674.079836 
L 239.61801 673.043384 
L 240.619811 672.531335 
L 243.625213 671.655324 
L 245.628815 671.115541 
L 246.630615 670.219773 
L 247.632416 669.785383 
L 248.634217 669.217821 
L 249.636018 666.230713 
L 250.637818 665.797208 
L 251.639619 665.621714 
L 252.64142 664.874653 
L 253.643221 664.754905 
L 254.645021 665.125091 
L 255.646822 664.826031 
L 257.650424 665.391917 
L 259.654025 666.593589 
L 260.655826 665.763375 
L 261.657627 666.165345 
L 262.659427 667.176112 
L 264.663029 668.217996 
L 265.66483 670.468364 
L 266.66663 673.062753 
L 267.668431 672.862956 
L 268.670232 673.311484 
L 269.672033 673.527468 
L 271.675634 674.243722 
L 272.677435 676.587161 
L 275.682837 687.866753 
L 276.684638 691.081423 
L 277.686439 691.933504 
L 278.688239 692.076469 
L 279.69004 692.839592 
L 281.693641 693.783812 
L 282.695442 693.768386 
L 283.697243 693.588826 
L 284.699044 694.020375 
L 285.700844 694.994951 
L 286.702645 695.155019 
L 287.704446 695.963117 
L 288.706247 695.920004 
L 289.708047 696.011988 
L 291.711649 696.516107 
L 292.71345 695.812656 
L 293.71525 696.280025 
L 294.717051 696.981054 
L 296.720653 697.918073 
L 297.722453 700.389687 
L 298.724254 700.914602 
L 299.726055 700.837408 
L 300.727856 701.60005 
L 301.729656 701.178944 
L 302.731457 701.10352 
L 303.733258 700.792417 
L 304.735059 700.330449 
L 305.736859 700.243773 
L 306.73866 700.500573 
L 307.740461 700.388833 
L 308.742262 700.950482 
L 309.744062 701.023269 
L 310.745863 700.287988 
L 311.747664 700.223706 
L 312.749465 699.954335 
L 313.751265 699.967185 
L 314.753066 699.509702 
L 315.754867 698.734101 
L 316.756667 698.498361 
L 317.758468 697.992364 
L 319.76207 696.42943 
L 320.76387 696.53279 
L 321.765671 695.760681 
L 322.767472 694.498856 
L 323.769273 694.161013 
L 324.771073 692.708189 
L 325.772874 692.435109 
L 326.774675 691.914927 
L 327.776476 690.951619 
L 328.778276 688.389061 
L 329.780077 686.442935 
L 330.781878 685.068609 
L 333.78728 682.238821 
L 334.789081 681.616429 
L 335.790882 681.250356 
L 336.792682 681.291079 
L 337.794483 680.635506 
L 338.796284 680.378659 
L 339.798085 679.329745 
L 340.799885 679.593094 
L 341.801686 678.870896 
L 342.803487 678.397459 
L 344.807088 676.57909 
L 345.808889 676.096947 
L 346.81069 675.10468 
L 347.812491 674.433261 
L 348.814291 673.236307 
L 349.816092 672.91687 
L 350.817893 671.946205 
L 351.819693 672.182101 
L 353.823295 671.586557 
L 354.825096 670.827842 
L 355.826896 670.336433 
L 356.828697 670.099234 
L 358.832299 670.561109 
L 359.834099 670.533049 
L 360.8359 670.641825 
L 361.837701 670.339273 
L 362.839502 670.640335 
L 363.841302 671.513709 
L 365.844904 671.918549 
L 366.846705 672.491776 
L 367.848505 673.284277 
L 368.850306 673.171032 
L 370.853908 675.530595 
L 371.855708 675.758064 
L 372.857509 676.976901 
L 374.861111 677.683595 
L 375.862911 678.341294 
L 376.864712 680.723175 
L 377.866513 682.482477 
L 378.868314 683.331795 
L 380.871915 685.328094 
L 381.873716 686.290829 
L 382.875517 687.070992 
L 385.880919 688.213007 
L 386.88272 688.370359 
L 387.88452 688.748646 
L 389.888122 688.856708 
L 392.893524 690.61393 
L 393.895325 691.486543 
L 397.902528 694.007121 
L 398.904328 694.898497 
L 399.906129 694.958433 
L 400.90793 695.820415 
L 401.909731 696.235778 
L 402.911531 696.315362 
L 403.913332 696.652584 
L 406.918734 696.787867 
L 408.922336 695.205068 
L 409.924137 694.966767 
L 412.929539 693.540482 
L 413.93134 692.673813 
L 416.936742 691.711606 
L 418.940343 690.63201 
L 419.942144 690.515832 
L 420.943945 690.574976 
L 421.945746 690.515754 
L 422.947546 690.223088 
L 423.949347 690.34355 
L 425.952948 689.581808 
L 426.954749 689.486907 
L 427.95655 688.944703 
L 428.958351 688.069592 
L 429.960151 687.623997 
L 431.963753 687.480737 
L 433.967354 688.130738 
L 434.969155 688.199614 
L 435.970956 688.850314 
L 436.972757 688.801443 
L 437.974557 689.150165 
L 438.976358 689.114905 
L 439.978159 689.549093 
L 440.97996 689.699663 
L 441.98176 689.680232 
L 442.983561 690.093438 
L 443.985362 690.223088 
L 444.987163 690.764345 
L 445.988963 690.801157 
L 446.990764 690.382162 
L 447.992565 690.845775 
L 448.994366 690.256206 
L 449.996166 690.389907 
L 450.997967 691.063017 
L 451.999768 691.440077 
L 453.001569 692.078579 
L 455.00517 692.856399 
L 456.006971 694.0694 
L 457.008772 694.84781 
L 458.010572 695.216537 
L 459.012373 695.798889 
L 460.014174 696.209053 
L 461.015974 696.754811 
L 462.017775 698.114378 
L 463.019576 698.73871 
L 464.021377 698.960266 
L 465.023177 699.321342 
L 470.032181 702.705904 
L 471.033982 703.210194 
L 472.035783 703.437864 
L 473.037583 704.451254 
L 474.039384 705.06674 
L 476.042986 706.800373 
L 477.044786 707.909921 
L 478.046587 708.452885 
L 479.048388 708.69786 
L 480.050189 709.171374 
L 482.05379 709.651531 
L 484.057392 709.869813 
L 485.059192 710.554547 
L 487.062794 711.051325 
L 488.064595 711.010927 
L 489.066395 711.137504 
L 490.068196 711.083869 
L 491.069997 710.857254 
L 494.075399 711.194011 
L 495.0772 711.830433 
L 497.080801 711.583084 
L 498.082602 710.974845 
L 499.084403 709.621625 
L 501.088004 701.464487 
L 502.089805 700.672591 
L 503.091606 695.478243 
L 505.095207 687.946849 
L 506.097008 683.42184 
L 507.098809 681.120024 
L 508.100609 679.68958 
L 509.10241 677.431746 
L 510.104211 674.835402 
L 511.106012 673.097222 
L 514.111414 667.116937 
L 515.113215 664.508891 
L 517.116816 655.907322 
L 518.118617 652.369474 
L 520.122218 646.643134 
L 522.12582 641.592775 
L 523.127621 637.963347 
L 524.129421 634.873903 
L 525.131222 633.029368 
L 526.133023 629.535643 
L 527.134824 625.544347 
L 529.138425 615.500617 
L 530.140226 611.425439 
L 531.142026 608.679378 
L 532.143827 606.324284 
L 533.145628 604.922923 
L 535.149229 603.75839 
L 536.15103 603.397702 
L 537.152831 603.182882 
L 538.154632 603.400682 
L 540.158233 602.649446 
L 541.160034 601.555604 
L 542.161835 601.398143 
L 543.163635 600.732746 
L 545.167237 597.787199 
L 546.169038 595.693655 
L 547.170838 594.808192 
L 549.17444 601.396762 
L 550.176241 601.179427 
L 551.178041 604.87666 
L 552.179842 606.91823 
L 553.181643 609.327797 
L 554.183444 613.129848 
L 555.185244 613.857555 
L 556.187045 615.003637 
L 557.188846 614.250912 
L 558.190647 611.225827 
L 559.192447 603.999376 
L 560.194248 592.351041 
L 561.196049 583.156768 
L 562.19785 576.253199 
L 563.19965 572.606296 
L 564.201451 574.634799 
L 565.203252 578.328571 
L 566.205053 578.015434 
L 567.206853 580.379809 
L 568.208654 582.210997 
L 569.210455 584.419028 
L 570.212255 586.264944 
L 572.215857 591.815092 
L 573.217658 593.084801 
L 574.219458 596.314448 
L 575.221259 600.18016 
L 577.224861 609.488888 
L 578.226661 613.130453 
L 579.228462 615.423779 
L 580.230263 617.216975 
L 581.232064 618.261963 
L 582.233864 618.344464 
L 583.235665 618.31192 
L 584.237466 618.147476 
L 586.241067 617.426147 
L 587.242868 617.656005 
L 588.244669 617.485322 
L 589.24647 618.248616 
L 590.24827 618.003439 
L 591.250071 618.13132 
L 592.251872 619.189421 
L 594.255473 622.98261 
L 595.257274 623.716991 
L 596.259075 623.129114 
L 597.260876 622.754024 
L 598.262676 622.578872 
L 599.264477 623.086265 
L 600.266278 622.695966 
L 601.268079 621.239201 
L 602.269879 616.853308 
L 603.27168 616.771613 
L 604.273481 615.912223 
L 605.275281 617.476724 
L 606.277082 621.566429 
L 607.278883 629.254755 
L 608.280684 641.372661 
L 609.282484 651.430779 
L 610.284285 659.272313 
L 611.286086 664.253284 
L 612.287887 664.693463 
L 613.289687 663.947908 
L 614.291488 666.096919 
L 615.293289 664.675135 
L 616.29509 663.566797 
L 617.29689 660.828279 
L 618.298691 659.054094 
L 619.300492 658.286455 
L 620.302293 655.108721 
L 621.304093 653.157567 
L 622.305894 650.913376 
L 623.307695 649.014399 
L 625.311296 645.935586 
L 626.313097 644.011514 
L 627.314898 642.76977 
L 629.318499 638.225005 
L 631.322101 635.131215 
L 633.325702 631.975534 
L 636.331105 628.229074 
L 638.334706 625.188749 
L 639.336507 624.073707 
L 640.338307 622.782813 
L 641.340108 620.967207 
L 642.341909 619.473304 
L 643.34371 619.133319 
L 644.34551 619.250382 
L 646.349112 619.17637 
L 648.352713 619.968344 
L 649.354514 622.006406 
L 650.356315 626.067399 
L 653.361717 627.071617 
L 654.363518 626.755843 
L 655.365319 626.247596 
L 656.367119 626.262355 
L 657.36892 625.031103 
L 658.370721 622.826485 
L 659.372522 621.581328 
L 660.374322 621.083262 
L 661.376123 620.154608 
L 662.377924 619.431106 
L 663.379725 619.251531 
L 664.381525 618.552348 
L 665.383326 619.221811 
L 666.385127 619.564155 
L 667.386928 614.988303 
L 668.388728 613.217688 
L 669.390529 610.450971 
L 670.39233 608.167205 
L 671.394131 608.147511 
L 672.395931 608.713443 
L 674.399533 611.971832 
L 675.401333 613.088318 
L 677.404935 617.63223 
L 679.408536 620.434129 
L 681.412138 623.646068 
L 682.413939 624.739182 
L 684.41754 626.034778 
L 686.421142 627.908039 
L 687.422942 628.643755 
L 689.426544 630.480855 
L 690.428345 631.781309 
L 691.430145 632.520299 
L 692.431946 633.044003 
L 693.433747 632.238729 
L 694.435548 631.125394 
L 695.437348 629.031912 
L 696.439149 628.974692 
L 697.44095 628.700742 
L 698.442751 628.834536 
L 699.444551 628.829492 
L 700.446352 628.461898 
L 701.448153 627.796889 
L 702.449954 627.692955 
L 703.451754 626.831795 
L 704.453555 626.212802 
L 705.455356 627.157099 
L 706.457157 628.660236 
L 707.458957 629.27968 
L 708.460758 629.579873 
L 710.46436 631.612985 
L 711.46616 632.763536 
L 712.467961 633.410449 
L 713.469762 633.072745 
L 714.471562 630.989925 
L 715.473363 631.443326 
L 716.475164 631.704394 
L 717.476965 631.30005 
L 718.478765 629.791636 
L 719.480566 627.4671 
L 720.482367 623.234275 
L 723.487769 608.929863 
L 725.491371 599.357303 
L 726.493171 595.353685 
L 727.494972 591.888189 
L 728.496773 590.318597 
L 729.498574 587.783121 
L 730.500374 584.780974 
L 731.502175 582.992759 
L 732.503976 582.892985 
L 733.505777 583.011026 
L 734.507577 582.445015 
L 735.509378 581.551079 
L 736.511179 576.671868 
L 737.51298 572.964765 
L 739.516581 570.431694 
L 740.518382 570.004272 
L 741.520183 570.973447 
L 742.521983 572.54321 
L 743.523784 575.174116 
L 744.525585 575.036645 
L 745.527386 575.273565 
L 746.529186 575.041254 
L 747.530987 575.180727 
L 748.532788 575.933809 
L 749.534588 577.104644 
L 750.536389 578.491882 
L 751.53819 578.703288 
L 754.543592 552.724872 
L 755.545393 546.241167 
L 756.547194 547.573512 
L 757.548994 548.069778 
L 759.552596 548.224585 
L 760.554397 549.222129 
L 761.556197 551.239147 
L 762.557998 553.88967 
L 763.559799 558.265305 
L 764.5616 562.118073 
L 766.565201 571.172096 
L 767.567002 574.047325 
L 770.572404 587.202894 
L 774.579607 604.825554 
L 775.581408 608.705482 
L 776.583209 610.293247 
L 777.585009 612.856147 
L 778.58681 616.187694 
L 779.588611 618.726756 
L 780.590412 619.601184 
L 781.592212 620.205636 
L 782.594013 621.449149 
L 783.595814 622.939048 
L 784.597614 628.170969 
L 785.599415 632.307279 
L 787.603017 635.708245 
L 788.604817 636.078493 
L 789.606618 636.798704 
L 790.608419 636.158992 
L 791.61022 635.222843 
L 792.61202 635.786525 
L 793.613821 635.393277 
L 794.615622 634.54084 
L 796.619223 632.609799 
L 797.621024 632.119198 
L 798.622825 631.061842 
L 799.624626 631.438903 
L 802.630028 657.623867 
L 803.631829 664.225909 
L 804.633629 662.390344 
L 805.63543 661.230265 
L 806.637231 661.469699 
L 807.639032 660.352251 
L 808.640832 660.961157 
L 809.642633 661.166433 
L 810.644434 661.888584 
L 811.646235 661.400389 
L 812.648035 661.937983 
L 813.649836 662.342342 
L 815.653438 663.809723 
L 816.655238 663.210393 
L 817.657039 663.35851 
L 818.65884 662.735978 
L 819.66064 660.578447 
L 820.662441 658.767745 
L 821.664242 657.415224 
L 822.666043 657.299666 
L 823.667843 656.481247 
L 825.671445 654.559441 
L 826.673246 652.979187 
L 827.675046 652.081277 
L 830.680449 647.054756 
L 832.68405 644.651335 
L 834.687652 643.905811 
L 835.689452 643.237294 
L 836.691253 643.007032 
L 837.693054 641.895994 
L 839.696655 642.311403 
L 840.698456 642.805077 
L 841.700257 643.938014 
L 843.703858 647.06129 
L 844.705659 648.061131 
L 845.70746 648.826598 
L 846.709261 649.918671 
L 847.711061 651.762725 
L 848.712862 653.116348 
L 849.714663 655.0815 
L 851.718264 657.993199 
L 852.720065 660.083997 
L 853.721866 661.612338 
L 854.723667 661.677007 
L 855.725467 662.909532 
L 856.727268 662.977787 
L 858.730869 663.617328 
L 859.73267 664.046597 
L 861.736272 664.508332 
L 863.739873 665.836844 
L 864.741674 667.316811 
L 865.743475 668.556428 
L 866.745275 669.503923 
L 867.747076 672.020186 
L 869.750678 675.826815 
L 870.752478 676.208082 
L 871.754279 676.966906 
L 872.75608 678.189017 
L 873.757881 679.074325 
L 874.759681 680.558948 
L 875.761482 681.354615 
L 876.763283 682.525466 
L 878.766884 686.062429 
L 879.768685 687.025644 
L 880.770486 688.3184 
L 881.772287 688.605075 
L 882.774087 689.302691 
L 883.775888 689.781823 
L 884.777689 690.057852 
L 885.77949 690.66218 
L 886.78129 689.813343 
L 887.783091 689.186915 
L 888.784892 689.046883 
L 889.786693 688.402096 
L 890.788493 688.159806 
L 891.790294 687.333705 
L 892.792095 685.457697 
L 893.793895 682.681265 
L 894.795696 680.322509 
L 895.797497 678.375483 
L 896.799298 678.022245 
L 898.802899 675.954091 
L 899.8047 674.75889 
L 900.806501 674.078191 
L 901.808301 673.260548 
L 902.810102 670.901714 
L 903.811903 668.949986 
L 904.813704 667.389241 
L 905.815504 666.094607 
L 906.817305 664.183944 
L 907.819106 663.667006 
L 908.820907 662.188607 
L 909.822707 661.824179 
L 910.824508 660.945312 
L 911.826309 659.192947 
L 913.82991 658.263269 
L 914.831711 657.680854 
L 915.833512 657.608394 
L 916.835313 657.198773 
L 917.837113 657.002359 
L 918.838914 656.538746 
L 919.840715 653.905482 
L 920.842516 653.695286 
L 921.844316 653.776344 
L 924.849719 653.540247 
L 925.851519 653.462075 
L 926.85332 653.507299 
L 927.855121 653.890288 
L 928.856921 654.044893 
L 929.858722 654.648367 
L 930.860523 654.945487 
L 931.862324 655.571449 
L 932.864124 656.047943 
L 933.865925 656.23351 
L 934.867726 657.952973 
L 935.869527 659.037007 
L 936.871327 659.47582 
L 938.874929 661.052396 
L 939.87673 662.317 
L 942.882132 669.705474 
L 943.883933 671.24814 
L 944.885733 671.91138 
L 946.889335 673.675167 
L 947.891136 675.044899 
L 948.892936 675.44946 
L 949.894737 676.580394 
L 950.896538 679.699527 
L 951.898339 682.246147 
L 952.900139 684.17503 
L 953.90194 685.397529 
L 954.903741 687.414454 
L 955.905542 688.651619 
L 956.907342 690.254097 
L 957.909143 690.559054 
L 958.910944 691.44042 
L 959.912745 692.713093 
L 960.914545 693.085452 
L 961.916346 693.016809 
L 962.918147 693.147732 
L 963.919947 692.767349 
L 964.921748 693.325119 
L 965.923549 693.579297 
L 966.92535 694.084409 
L 967.92715 696.934868 
L 968.928951 697.461164 
L 969.930752 697.613674 
L 971.934353 698.185101 
L 972.936154 698.836778 
L 973.937955 698.570495 
L 974.939756 697.771988 
L 976.943357 697.626741 
L 978.946959 697.511338 
L 979.948759 697.518027 
L 980.95056 697.392134 
L 981.952361 697.529388 
L 983.955962 696.502015 
L 985.959564 696.198982 
L 986.961365 695.364066 
L 987.963165 694.781279 
L 988.964966 693.938975 
L 989.966767 693.951608 
L 991.970368 693.109708 
L 992.972169 692.318635 
L 993.97397 692.010232 
L 994.975771 691.265096 
L 995.977571 690.813526 
L 996.979372 691.303662 
L 997.981173 690.659775 
L 999.984774 689.700843 
L 1000.986575 688.941398 
L 1001.988376 688.647319 
L 1002.990176 688.114583 
L 1004.993778 688.281339 
L 1005.995579 688.701172 
L 1007.99918 689.218622 
L 1009.000981 688.995529 
L 1010.002782 689.167702 
L 1011.004582 689.472473 
L 1012.006383 690.082606 
L 1013.008184 690.017067 
L 1014.009985 690.111394 
L 1018.017188 689.930437 
L 1019.018988 689.883755 
L 1021.02259 690.236078 
L 1022.024391 690.386617 
L 1023.026191 691.199588 
L 1024.027992 691.291681 
L 1026.031594 691.823657 
L 1028.035195 691.630517 
L 1030.038797 692.10951 
L 1032.042398 693.08781 
L 1033.044199 693.344455 
L 1034.046 693.271389 
L 1035.0478 693.962425 
L 1038.053202 695.532994 
L 1039.055003 696.352887 
L 1040.056804 697.392303 
L 1041.058605 698.227654 
L 1042.060405 698.641915 
L 1043.062206 699.486515 
L 1045.065808 699.875883 
L 1046.067608 700.470123 
L 1047.069409 700.678674 
L 1051.076612 703.067678 
L 1052.078413 703.459234 
L 1053.080214 703.643186 
L 1056.085616 703.834727 
L 1058.089217 704.994031 
L 1059.091018 705.290236 
L 1061.09462 705.506406 
L 1062.09642 705.370145 
L 1064.100022 705.596326 
L 1066.103623 704.630332 
L 1067.105424 704.607643 
L 1068.107225 704.422046 
L 1069.109026 704.387949 
L 1070.110826 704.697081 
L 1071.112627 704.751648 
L 1072.114428 704.976835 
L 1074.118029 705.097499 
L 1076.121631 705.577889 
L 1079.127033 705.633542 
L 1081.130634 705.403574 
L 1082.132435 705.503876 
L 1083.134236 704.965025 
L 1085.137837 704.381462 
L 1086.139638 703.840547 
L 1087.141439 703.46285 
L 1089.14504 702.299465 
L 1091.148642 701.738467 
L 1092.150443 701.695882 
L 1093.152243 701.076236 
L 1094.154044 700.733318 
L 1096.157646 700.549412 
L 1097.159446 700.635235 
L 1098.161247 700.090408 
L 1099.163048 699.794545 
L 1100.164849 699.339592 
L 1101.166649 699.04421 
L 1102.16845 698.511179 
L 1104.172052 698.081274 
L 1105.173852 697.360597 
L 1106.175653 696.983753 
L 1107.177454 696.806195 
L 1108.179254 696.451312 
L 1109.181055 695.804181 
L 1110.182856 694.784568 
L 1112.186457 694.770352 
L 1114.190059 695.748047 
L 1115.19186 695.681531 
L 1116.19366 695.822308 
L 1117.195461 695.815449 
L 1119.199063 695.35584 
L 1120.200863 694.399344 
L 1123.206266 692.806675 
L 1124.208066 692.106173 
L 1126.211668 691.120687 
L 1127.213469 690.644922 
L 1128.215269 690.469273 
L 1129.21707 690.44199 
L 1130.218871 690.18893 
L 1131.220672 690.508879 
L 1132.222472 690.693654 
L 1136.229675 690.900575 
L 1137.231476 691.350034 
L 1138.233277 691.293884 
L 1139.235078 690.878971 
L 1140.236878 690.821968 
L 1141.238679 690.538925 
L 1142.24048 690.586725 
L 1143.24228 690.44826 
L 1144.244081 690.090785 
L 1145.245882 689.477704 
L 1148.251284 688.916877 
L 1149.253085 686.031965 
L 1150.254886 679.287796 
L 1151.256686 669.940626 
L 1152.258487 659.281735 
L 1153.260288 651.675987 
L 1154.262089 647.764338 
L 1155.263889 645.893265 
L 1156.26569 645.387268 
L 1157.267491 645.4768 
L 1158.269292 645.876069 
L 1160.272893 643.630962 
L 1161.274694 642.667498 
L 1163.278295 641.264616 
L 1165.281897 639.545463 
L 1167.285498 638.217338 
L 1169.2891 638.564105 
L 1170.290901 638.289256 
L 1171.292701 636.982967 
L 1175.299904 633.202628 
L 1176.301705 632.122814 
L 1177.303506 630.049398 
L 1178.305307 628.722903 
L 1179.307107 627.733429 
L 1180.308908 626.472317 
L 1181.310709 625.416932 
L 1183.31431 622.960822 
L 1184.316111 620.54185 
L 1186.319712 618.676441 
L 1189.325115 617.479348 
L 1190.326915 616.829206 
L 1191.328716 615.438647 
L 1192.330517 614.361581 
L 1193.332318 612.944902 
L 1194.334118 611.169149 
L 1195.335919 610.215991 
L 1196.33772 609.086577 
L 1197.339521 610.659195 
L 1198.341321 616.650732 
L 1201.346724 638.261134 
L 1202.348524 640.280356 
L 1203.350325 641.074719 
L 1205.353927 639.120633 
L 1206.355727 638.850206 
L 1207.357528 638.812292 
L 1209.36113 637.343375 
L 1211.364731 633.93991 
L 1212.366532 632.476673 
L 1213.368333 631.312807 
L 1214.370133 630.583656 
L 1215.371934 629.99837 
L 1217.375535 628.022323 
L 1218.377336 627.331257 
L 1219.379137 626.845638 
L 1220.380938 627.594452 
L 1223.38634 630.353052 
L 1224.388141 631.780656 
L 1225.389941 633.530569 
L 1226.391742 634.755799 
L 1227.393543 633.844931 
L 1229.397144 636.241369 
L 1230.398945 637.737988 
L 1231.400746 638.625919 
L 1232.402547 640.705666 
L 1234.406148 642.45426 
L 1235.407949 643.276093 
L 1236.40975 643.754387 
L 1237.41155 644.777399 
L 1238.413351 645.466091 
L 1240.416953 648.474104 
L 1242.420554 652.762271 
L 1245.425956 656.955366 
L 1246.427757 657.430231 
L 1247.429558 658.905232 
L 1248.431359 661.528409 
L 1249.433159 663.489634 
L 1250.43496 665.205357 
L 1251.436761 666.09006 
L 1253.440362 669.254835 
L 1254.442163 669.806133 
L 1255.443964 670.835492 
L 1257.447565 674.336574 
L 1259.451167 679.23433 
L 1260.452967 681.259682 
L 1261.454768 682.985757 
L 1263.45837 685.582551 
L 1264.46017 686.581042 
L 1265.461971 687.809221 
L 1266.463772 688.349097 
L 1267.465573 690.127643 
L 1268.467373 690.493359 
L 1269.469174 690.488626 
L 1271.472776 690.939001 
L 1272.474576 689.560516 
L 1273.476377 688.778536 
L 1274.478178 687.810091 
L 1275.479979 688.989942 
L 1276.481779 687.970298 
L 1277.48358 687.208075 
L 1279.487182 686.070204 
L 1280.488982 685.032216 
L 1281.490783 682.371962 
L 1282.492584 681.153111 
L 1283.494385 679.381735 
L 1284.496185 677.878969 
L 1286.499787 673.464365 
L 1289.505189 667.557503 
L 1290.50699 666.20166 
L 1291.50879 663.735835 
L 1292.510591 661.711275 
L 1293.512392 658.367948 
L 1296.517794 652.692775 
L 1297.519595 650.040623 
L 1298.521396 648.439496 
L 1299.523196 646.361766 
L 1300.524997 643.693443 
L 1301.526798 641.839131 
L 1302.528599 640.553281 
L 1305.534001 635.664169 
L 1306.535802 633.276966 
L 1307.537602 631.741998 
L 1308.539403 630.583858 
L 1309.541204 629.797161 
L 1310.543005 628.47827 
L 1311.544805 626.836435 
L 1312.546606 625.935965 
L 1313.548407 624.653095 
L 1314.550208 623.757374 
L 1319.559211 621.041468 
L 1320.561012 621.811466 
L 1321.562813 621.957209 
L 1322.564614 622.389846 
L 1323.566414 622.133014 
L 1324.568215 621.178815 
L 1325.570016 620.870273 
L 1326.571816 620.883247 
L 1327.573617 621.069434 
L 1328.575418 621.714702 
L 1329.577219 623.705849 
L 1330.579019 624.098538 
L 1331.58082 625.178072 
L 1332.582621 625.842709 
L 1333.584422 627.548872 
L 1334.586222 628.273056 
L 1335.588023 628.669517 
L 1336.589824 628.813785 
L 1338.593425 628.003018 
L 1339.595226 628.015092 
L 1340.597027 629.03784 
L 1341.598828 630.729539 
L 1345.606031 632.613602 
L 1346.607831 632.863698 
L 1347.609632 633.830685 
L 1348.611433 635.223712 
L 1349.613234 636.82352 
L 1350.615034 637.906918 
L 1351.616835 638.820425 
L 1352.618636 639.522137 
L 1353.620437 640.445468 
L 1354.622237 641.998159 
L 1356.625839 644.29625 
L 1358.62944 645.306349 
L 1359.631241 646.237983 
L 1360.633042 646.409426 
L 1361.634842 645.766439 
L 1362.636643 645.985838 
L 1364.640245 643.916069 
L 1365.642045 643.371135 
L 1365.642045 643.371135 
" style="fill:none;stroke:#ff0000;stroke-linecap:square;stroke-width:1.5;"/>
   </g>
   <g id="patch_3">
    <path d="M 104.425 756 
L 104.425 14.3 
" style="fill:none;stroke:#000000;stroke-linecap:square;stroke-linejoin:miter;stroke-width:0.8;"/>
   </g>
   <g id="patch_4">
    <path d="M 1425.7 756 
L 1425.7 14.3 
" style="fill:none;stroke:#000000;stroke-linecap:square;stroke-linejoin:miter;stroke-width:0.8;"/>
   </g>
   <g id="patch_5">
    <path d="M 104.425 756 
L 1425.7 756 
" style="fill:none;stroke:#000000;stroke-linecap:square;stroke-linejoin:miter;stroke-width:0.8;"/>
   </g>
   <g id="patch_6">
    <path d="M 104.425 14.3 
L 1425.7 14.3 
" style="fill:none;stroke:#000000;stroke-linecap:square;stroke-linejoin:miter;stroke-width:0.8;"/>
   </g>
   <g id="legend_1">
    <g id="patch_7">
     <path d="M 1079.753125 147.725 
L 1411.7 147.725 
Q 1415.7 147.725 1415.7 143.725 
L 1415.7 28.3 
Q 1415.7 24.3 1411.7 24.3 
L 1079.753125 24.3 
Q 1075.753125 24.3 1075.753125 28.3 
L 1075.753125 143.725 
Q 1075.753125 147.725 1079.753125 147.725 
z
" style="fill:#ffffff;opacity:0.8;stroke:#cccccc;stroke-linejoin:miter;"/>
    </g>
    <g id="line2d_21">
     <path d="M 1083.753125 40.496875 
L 1123.753125 40.496875 
" style="fill:none;stroke:#1f77b4;stroke-linecap:square;stroke-width:1.5;"/>
    </g>
    <g id="line2d_22"/>
    <g id="text_19">
     <!-- Training Data -->
     <defs>
      <path d="M -0.296875 72.90625 
L 61.375 72.90625 
L 61.375 64.59375 
L 35.5 64.59375 
L 35.5 0 
L 25.59375 0 
L 25.59375 64.59375 
L -0.296875 64.59375 
z
" id="DejaVuSans-54"/>
      <path d="M 41.109375 46.296875 
Q 39.59375 47.171875 37.8125 47.578125 
Q 36.03125 48 33.890625 48 
Q 26.265625 48 22.1875 43.046875 
Q 18.109375 38.09375 18.109375 28.8125 
L 18.109375 0 
L 9.078125 0 
L 9.078125 54.6875 
L 18.109375 54.6875 
L 18.109375 46.1875 
Q 20.953125 51.171875 25.484375 53.578125 
Q 30.03125 56 36.53125 56 
Q 37.453125 56 38.578125 55.875 
Q 39.703125 55.765625 41.0625 55.515625 
z
" id="DejaVuSans-72"/>
      <path d="M 45.40625 27.984375 
Q 45.40625 37.75 41.375 43.109375 
Q 37.359375 48.484375 30.078125 48.484375 
Q 22.859375 48.484375 18.828125 43.109375 
Q 14.796875 37.75 14.796875 27.984375 
Q 14.796875 18.265625 18.828125 12.890625 
Q 22.859375 7.515625 30.078125 7.515625 
Q 37.359375 7.515625 41.375 12.890625 
Q 45.40625 18.265625 45.40625 27.984375 
z
M 54.390625 6.78125 
Q 54.390625 -7.171875 48.1875 -13.984375 
Q 42 -20.796875 29.203125 -20.796875 
Q 24.46875 -20.796875 20.265625 -20.09375 
Q 16.0625 -19.390625 12.109375 -17.921875 
L 12.109375 -9.1875 
Q 16.0625 -11.328125 19.921875 -12.34375 
Q 23.78125 -13.375 27.78125 -13.375 
Q 36.625 -13.375 41.015625 -8.765625 
Q 45.40625 -4.15625 45.40625 5.171875 
L 45.40625 9.625 
Q 42.625 4.78125 38.28125 2.390625 
Q 33.9375 0 27.875 0 
Q 17.828125 0 11.671875 7.65625 
Q 5.515625 15.328125 5.515625 27.984375 
Q 5.515625 40.671875 11.671875 48.328125 
Q 17.828125 56 27.875 56 
Q 33.9375 56 38.28125 53.609375 
Q 42.625 51.21875 45.40625 46.390625 
L 45.40625 54.6875 
L 54.390625 54.6875 
z
" id="DejaVuSans-67"/>
      <path d="M 19.671875 64.796875 
L 19.671875 8.109375 
L 31.59375 8.109375 
Q 46.6875 8.109375 53.6875 14.9375 
Q 60.6875 21.78125 60.6875 36.53125 
Q 60.6875 51.171875 53.6875 57.984375 
Q 46.6875 64.796875 31.59375 64.796875 
z
M 9.8125 72.90625 
L 30.078125 72.90625 
Q 51.265625 72.90625 61.171875 64.09375 
Q 71.09375 55.28125 71.09375 36.53125 
Q 71.09375 17.671875 61.125 8.828125 
Q 51.171875 0 30.078125 0 
L 9.8125 0 
z
" id="DejaVuSans-44"/>
     </defs>
     <g transform="translate(1139.753125 47.496875)scale(0.2 -0.2)">
      <use xlink:href="#DejaVuSans-54"/>
      <use x="60.865234" xlink:href="#DejaVuSans-72"/>
      <use x="101.978516" xlink:href="#DejaVuSans-61"/>
      <use x="163.257812" xlink:href="#DejaVuSans-69"/>
      <use x="191.041016" xlink:href="#DejaVuSans-6e"/>
      <use x="254.419922" xlink:href="#DejaVuSans-69"/>
      <use x="282.203125" xlink:href="#DejaVuSans-6e"/>
      <use x="345.582031" xlink:href="#DejaVuSans-67"/>
      <use x="409.058594" xlink:href="#DejaVuSans-20"/>
      <use x="440.845703" xlink:href="#DejaVuSans-44"/>
      <use x="517.847656" xlink:href="#DejaVuSans-61"/>
      <use x="579.126953" xlink:href="#DejaVuSans-74"/>
      <use x="618.335938" xlink:href="#DejaVuSans-61"/>
     </g>
    </g>
    <g id="line2d_23">
     <path d="M 1083.753125 69.853125 
L 1123.753125 69.853125 
" style="fill:none;stroke:#ff7f0e;stroke-linecap:square;stroke-width:1.5;"/>
    </g>
    <g id="line2d_24"/>
    <g id="text_20">
     <!-- Validation Data -->
     <defs>
      <path d="M 28.609375 0 
L 0.78125 72.90625 
L 11.078125 72.90625 
L 34.1875 11.53125 
L 57.328125 72.90625 
L 67.578125 72.90625 
L 39.796875 0 
z
" id="DejaVuSans-56"/>
      <path d="M 9.421875 75.984375 
L 18.40625 75.984375 
L 18.40625 0 
L 9.421875 0 
z
" id="DejaVuSans-6c"/>
      <path d="M 30.609375 48.390625 
Q 23.390625 48.390625 19.1875 42.75 
Q 14.984375 37.109375 14.984375 27.296875 
Q 14.984375 17.484375 19.15625 11.84375 
Q 23.34375 6.203125 30.609375 6.203125 
Q 37.796875 6.203125 41.984375 11.859375 
Q 46.1875 17.53125 46.1875 27.296875 
Q 46.1875 37.015625 41.984375 42.703125 
Q 37.796875 48.390625 30.609375 48.390625 
z
M 30.609375 56 
Q 42.328125 56 49.015625 48.375 
Q 55.71875 40.765625 55.71875 27.296875 
Q 55.71875 13.875 49.015625 6.21875 
Q 42.328125 -1.421875 30.609375 -1.421875 
Q 18.84375 -1.421875 12.171875 6.21875 
Q 5.515625 13.875 5.515625 27.296875 
Q 5.515625 40.765625 12.171875 48.375 
Q 18.84375 56 30.609375 56 
z
" id="DejaVuSans-6f"/>
     </defs>
     <g transform="translate(1139.753125 76.853125)scale(0.2 -0.2)">
      <use xlink:href="#DejaVuSans-56"/>
      <use x="68.298828" xlink:href="#DejaVuSans-61"/>
      <use x="129.578125" xlink:href="#DejaVuSans-6c"/>
      <use x="157.361328" xlink:href="#DejaVuSans-69"/>
      <use x="185.144531" xlink:href="#DejaVuSans-64"/>
      <use x="248.621094" xlink:href="#DejaVuSans-61"/>
      <use x="309.900391" xlink:href="#DejaVuSans-74"/>
      <use x="349.109375" xlink:href="#DejaVuSans-69"/>
      <use x="376.892578" xlink:href="#DejaVuSans-6f"/>
      <use x="438.074219" xlink:href="#DejaVuSans-6e"/>
      <use x="501.453125" xlink:href="#DejaVuSans-20"/>
      <use x="533.240234" xlink:href="#DejaVuSans-44"/>
      <use x="610.242188" xlink:href="#DejaVuSans-61"/>
      <use x="671.521484" xlink:href="#DejaVuSans-74"/>
      <use x="710.730469" xlink:href="#DejaVuSans-61"/>
     </g>
    </g>
    <g id="line2d_25">
     <path d="M 1083.753125 99.209375 
L 1123.753125 99.209375 
" style="fill:none;stroke:#2ca02c;stroke-linecap:square;stroke-width:1.5;"/>
    </g>
    <g id="line2d_26"/>
    <g id="text_21">
     <!-- Testing Data -->
     <g transform="translate(1139.753125 106.209375)scale(0.2 -0.2)">
      <use xlink:href="#DejaVuSans-54"/>
      <use x="60.818359" xlink:href="#DejaVuSans-65"/>
      <use x="122.341797" xlink:href="#DejaVuSans-73"/>
      <use x="174.441406" xlink:href="#DejaVuSans-74"/>
      <use x="213.650391" xlink:href="#DejaVuSans-69"/>
      <use x="241.433594" xlink:href="#DejaVuSans-6e"/>
      <use x="304.8125" xlink:href="#DejaVuSans-67"/>
      <use x="368.289062" xlink:href="#DejaVuSans-20"/>
      <use x="400.076172" xlink:href="#DejaVuSans-44"/>
      <use x="477.078125" xlink:href="#DejaVuSans-61"/>
      <use x="538.357422" xlink:href="#DejaVuSans-74"/>
      <use x="577.566406" xlink:href="#DejaVuSans-61"/>
     </g>
    </g>
    <g id="line2d_27">
     <path d="M 1083.753125 128.565625 
L 1123.753125 128.565625 
" style="fill:none;stroke:#ff0000;stroke-linecap:square;stroke-width:1.5;"/>
    </g>
    <g id="line2d_28"/>
    <g id="text_22">
     <!-- Moving average (48 steps) -->
     <defs>
      <path d="M 2.984375 54.6875 
L 12.5 54.6875 
L 29.59375 8.796875 
L 46.6875 54.6875 
L 56.203125 54.6875 
L 35.6875 0 
L 23.484375 0 
z
" id="DejaVuSans-76"/>
     </defs>
     <g transform="translate(1139.753125 135.565625)scale(0.2 -0.2)">
      <use xlink:href="#DejaVuSans-4d"/>
      <use x="86.279297" xlink:href="#DejaVuSans-6f"/>
      <use x="147.460938" xlink:href="#DejaVuSans-76"/>
      <use x="206.640625" xlink:href="#DejaVuSans-69"/>
      <use x="234.423828" xlink:href="#DejaVuSans-6e"/>
      <use x="297.802734" xlink:href="#DejaVuSans-67"/>
      <use x="361.279297" xlink:href="#DejaVuSans-20"/>
      <use x="393.066406" xlink:href="#DejaVuSans-61"/>
      <use x="454.345703" xlink:href="#DejaVuSans-76"/>
      <use x="513.525391" xlink:href="#DejaVuSans-65"/>
      <use x="575.048828" xlink:href="#DejaVuSans-72"/>
      <use x="616.162109" xlink:href="#DejaVuSans-61"/>
      <use x="677.441406" xlink:href="#DejaVuSans-67"/>
      <use x="740.917969" xlink:href="#DejaVuSans-65"/>
      <use x="802.441406" xlink:href="#DejaVuSans-20"/>
      <use x="834.228516" xlink:href="#DejaVuSans-28"/>
      <use x="873.242188" xlink:href="#DejaVuSans-34"/>
      <use x="936.865234" xlink:href="#DejaVuSans-38"/>
      <use x="1000.488281" xlink:href="#DejaVuSans-20"/>
      <use x="1032.275391" xlink:href="#DejaVuSans-73"/>
      <use x="1084.375" xlink:href="#DejaVuSans-74"/>
      <use x="1123.583984" xlink:href="#DejaVuSans-65"/>
      <use x="1185.107422" xlink:href="#DejaVuSans-70"/>
      <use x="1248.583984" xlink:href="#DejaVuSans-73"/>
      <use x="1300.683594" xlink:href="#DejaVuSans-29"/>
     </g>
    </g>
   </g>
  </g>
 </g>
 <defs>
  <clipPath id="p48aa4966b8">
   <rect height="741.7" width="1321.275" x="104.425" y="14.3"/>
  </clipPath>
 </defs>
</svg>
