<?xml version="1.0" encoding="utf-8" standalone="no"?>
<!DOCTYPE svg PUBLIC "-//W3C//DTD SVG 1.1//EN"
  "http://www.w3.org/Graphics/SVG/1.1/DTD/svg11.dtd">
<!-- Created with matplotlib (http://matplotlib.org/) -->
<svg height="756pt" version="1.1" viewBox="0 0 1332 756" width="1332pt" xmlns="http://www.w3.org/2000/svg" xmlns:xlink="http://www.w3.org/1999/xlink">
 <defs>
  <style type="text/css">
*{stroke-linecap:butt;stroke-linejoin:round;}
  </style>
 </defs>
 <g id="figure_1">
  <g id="patch_1">
   <path d="M 0 756 
L 1332 756 
L 1332 0 
L 0 0 
z
" style="fill:#ffffff;"/>
  </g>
  <g id="axes_1">
   <g id="patch_2">
    <path d="M 42.925 728.2 
L 1317.7 728.2 
L 1317.7 14.3 
L 42.925 14.3 
z
" style="fill:#ffffff;"/>
   </g>
   <g id="matplotlib.axis_1">
    <g id="xtick_1">
     <g id="line2d_1">
      <defs>
       <path d="M 0 0 
L 0 3.5 
" id="m841f2b603a" style="stroke:#000000;stroke-width:0.8;"/>
      </defs>
      <g>
       <use style="stroke:#000000;stroke-width:0.8;" x="100.869318" xlink:href="#m841f2b603a" y="728.2"/>
      </g>
     </g>
     <g id="text_1">
      <!-- 0 -->
      <defs>
       <path d="M 31.78125 66.40625 
Q 24.171875 66.40625 20.328125 58.90625 
Q 16.5 51.421875 16.5 36.375 
Q 16.5 21.390625 20.328125 13.890625 
Q 24.171875 6.390625 31.78125 6.390625 
Q 39.453125 6.390625 43.28125 13.890625 
Q 47.125 21.390625 47.125 36.375 
Q 47.125 51.421875 43.28125 58.90625 
Q 39.453125 66.40625 31.78125 66.40625 
z
M 31.78125 74.21875 
Q 44.046875 74.21875 50.515625 64.515625 
Q 56.984375 54.828125 56.984375 36.375 
Q 56.984375 17.96875 50.515625 8.265625 
Q 44.046875 -1.421875 31.78125 -1.421875 
Q 19.53125 -1.421875 13.0625 8.265625 
Q 6.59375 17.96875 6.59375 36.375 
Q 6.59375 54.828125 13.0625 64.515625 
Q 19.53125 74.21875 31.78125 74.21875 
z
" id="DejaVuSans-30"/>
      </defs>
      <g transform="translate(97.688068 742.798437)scale(0.1 -0.1)">
       <use xlink:href="#DejaVuSans-30"/>
      </g>
     </g>
    </g>
    <g id="xtick_2">
     <g id="line2d_2">
      <g>
       <use style="stroke:#000000;stroke-width:0.8;" x="294.017045" xlink:href="#m841f2b603a" y="728.2"/>
      </g>
     </g>
     <g id="text_2">
      <!-- 200 -->
      <defs>
       <path d="M 19.1875 8.296875 
L 53.609375 8.296875 
L 53.609375 0 
L 7.328125 0 
L 7.328125 8.296875 
Q 12.9375 14.109375 22.625 23.890625 
Q 32.328125 33.6875 34.8125 36.53125 
Q 39.546875 41.84375 41.421875 45.53125 
Q 43.3125 49.21875 43.3125 52.78125 
Q 43.3125 58.59375 39.234375 62.25 
Q 35.15625 65.921875 28.609375 65.921875 
Q 23.96875 65.921875 18.8125 64.3125 
Q 13.671875 62.703125 7.8125 59.421875 
L 7.8125 69.390625 
Q 13.765625 71.78125 18.9375 73 
Q 24.125 74.21875 28.421875 74.21875 
Q 39.75 74.21875 46.484375 68.546875 
Q 53.21875 62.890625 53.21875 53.421875 
Q 53.21875 48.921875 51.53125 44.890625 
Q 49.859375 40.875 45.40625 35.40625 
Q 44.1875 33.984375 37.640625 27.21875 
Q 31.109375 20.453125 19.1875 8.296875 
z
" id="DejaVuSans-32"/>
      </defs>
      <g transform="translate(284.473295 742.798437)scale(0.1 -0.1)">
       <use xlink:href="#DejaVuSans-32"/>
       <use x="63.623047" xlink:href="#DejaVuSans-30"/>
       <use x="127.246094" xlink:href="#DejaVuSans-30"/>
      </g>
     </g>
    </g>
    <g id="xtick_3">
     <g id="line2d_3">
      <g>
       <use style="stroke:#000000;stroke-width:0.8;" x="487.164773" xlink:href="#m841f2b603a" y="728.2"/>
      </g>
     </g>
     <g id="text_3">
      <!-- 400 -->
      <defs>
       <path d="M 37.796875 64.3125 
L 12.890625 25.390625 
L 37.796875 25.390625 
z
M 35.203125 72.90625 
L 47.609375 72.90625 
L 47.609375 25.390625 
L 58.015625 25.390625 
L 58.015625 17.1875 
L 47.609375 17.1875 
L 47.609375 0 
L 37.796875 0 
L 37.796875 17.1875 
L 4.890625 17.1875 
L 4.890625 26.703125 
z
" id="DejaVuSans-34"/>
      </defs>
      <g transform="translate(477.621023 742.798437)scale(0.1 -0.1)">
       <use xlink:href="#DejaVuSans-34"/>
       <use x="63.623047" xlink:href="#DejaVuSans-30"/>
       <use x="127.246094" xlink:href="#DejaVuSans-30"/>
      </g>
     </g>
    </g>
    <g id="xtick_4">
     <g id="line2d_4">
      <g>
       <use style="stroke:#000000;stroke-width:0.8;" x="680.3125" xlink:href="#m841f2b603a" y="728.2"/>
      </g>
     </g>
     <g id="text_4">
      <!-- 600 -->
      <defs>
       <path d="M 33.015625 40.375 
Q 26.375 40.375 22.484375 35.828125 
Q 18.609375 31.296875 18.609375 23.390625 
Q 18.609375 15.53125 22.484375 10.953125 
Q 26.375 6.390625 33.015625 6.390625 
Q 39.65625 6.390625 43.53125 10.953125 
Q 47.40625 15.53125 47.40625 23.390625 
Q 47.40625 31.296875 43.53125 35.828125 
Q 39.65625 40.375 33.015625 40.375 
z
M 52.59375 71.296875 
L 52.59375 62.3125 
Q 48.875 64.0625 45.09375 64.984375 
Q 41.3125 65.921875 37.59375 65.921875 
Q 27.828125 65.921875 22.671875 59.328125 
Q 17.53125 52.734375 16.796875 39.40625 
Q 19.671875 43.65625 24.015625 45.921875 
Q 28.375 48.1875 33.59375 48.1875 
Q 44.578125 48.1875 50.953125 41.515625 
Q 57.328125 34.859375 57.328125 23.390625 
Q 57.328125 12.15625 50.6875 5.359375 
Q 44.046875 -1.421875 33.015625 -1.421875 
Q 20.359375 -1.421875 13.671875 8.265625 
Q 6.984375 17.96875 6.984375 36.375 
Q 6.984375 53.65625 15.1875 63.9375 
Q 23.390625 74.21875 37.203125 74.21875 
Q 40.921875 74.21875 44.703125 73.484375 
Q 48.484375 72.75 52.59375 71.296875 
z
" id="DejaVuSans-36"/>
      </defs>
      <g transform="translate(670.76875 742.798437)scale(0.1 -0.1)">
       <use xlink:href="#DejaVuSans-36"/>
       <use x="63.623047" xlink:href="#DejaVuSans-30"/>
       <use x="127.246094" xlink:href="#DejaVuSans-30"/>
      </g>
     </g>
    </g>
    <g id="xtick_5">
     <g id="line2d_5">
      <g>
       <use style="stroke:#000000;stroke-width:0.8;" x="873.460227" xlink:href="#m841f2b603a" y="728.2"/>
      </g>
     </g>
     <g id="text_5">
      <!-- 800 -->
      <defs>
       <path d="M 31.78125 34.625 
Q 24.75 34.625 20.71875 30.859375 
Q 16.703125 27.09375 16.703125 20.515625 
Q 16.703125 13.921875 20.71875 10.15625 
Q 24.75 6.390625 31.78125 6.390625 
Q 38.8125 6.390625 42.859375 10.171875 
Q 46.921875 13.96875 46.921875 20.515625 
Q 46.921875 27.09375 42.890625 30.859375 
Q 38.875 34.625 31.78125 34.625 
z
M 21.921875 38.8125 
Q 15.578125 40.375 12.03125 44.71875 
Q 8.5 49.078125 8.5 55.328125 
Q 8.5 64.0625 14.71875 69.140625 
Q 20.953125 74.21875 31.78125 74.21875 
Q 42.671875 74.21875 48.875 69.140625 
Q 55.078125 64.0625 55.078125 55.328125 
Q 55.078125 49.078125 51.53125 44.71875 
Q 48 40.375 41.703125 38.8125 
Q 48.828125 37.15625 52.796875 32.3125 
Q 56.78125 27.484375 56.78125 20.515625 
Q 56.78125 9.90625 50.3125 4.234375 
Q 43.84375 -1.421875 31.78125 -1.421875 
Q 19.734375 -1.421875 13.25 4.234375 
Q 6.78125 9.90625 6.78125 20.515625 
Q 6.78125 27.484375 10.78125 32.3125 
Q 14.796875 37.15625 21.921875 38.8125 
z
M 18.3125 54.390625 
Q 18.3125 48.734375 21.84375 45.5625 
Q 25.390625 42.390625 31.78125 42.390625 
Q 38.140625 42.390625 41.71875 45.5625 
Q 45.3125 48.734375 45.3125 54.390625 
Q 45.3125 60.0625 41.71875 63.234375 
Q 38.140625 66.40625 31.78125 66.40625 
Q 25.390625 66.40625 21.84375 63.234375 
Q 18.3125 60.0625 18.3125 54.390625 
z
" id="DejaVuSans-38"/>
      </defs>
      <g transform="translate(863.916477 742.798437)scale(0.1 -0.1)">
       <use xlink:href="#DejaVuSans-38"/>
       <use x="63.623047" xlink:href="#DejaVuSans-30"/>
       <use x="127.246094" xlink:href="#DejaVuSans-30"/>
      </g>
     </g>
    </g>
    <g id="xtick_6">
     <g id="line2d_6">
      <g>
       <use style="stroke:#000000;stroke-width:0.8;" x="1066.607955" xlink:href="#m841f2b603a" y="728.2"/>
      </g>
     </g>
     <g id="text_6">
      <!-- 1000 -->
      <defs>
       <path d="M 12.40625 8.296875 
L 28.515625 8.296875 
L 28.515625 63.921875 
L 10.984375 60.40625 
L 10.984375 69.390625 
L 28.421875 72.90625 
L 38.28125 72.90625 
L 38.28125 8.296875 
L 54.390625 8.296875 
L 54.390625 0 
L 12.40625 0 
z
" id="DejaVuSans-31"/>
      </defs>
      <g transform="translate(1053.882955 742.798437)scale(0.1 -0.1)">
       <use xlink:href="#DejaVuSans-31"/>
       <use x="63.623047" xlink:href="#DejaVuSans-30"/>
       <use x="127.246094" xlink:href="#DejaVuSans-30"/>
       <use x="190.869141" xlink:href="#DejaVuSans-30"/>
      </g>
     </g>
    </g>
    <g id="xtick_7">
     <g id="line2d_7">
      <g>
       <use style="stroke:#000000;stroke-width:0.8;" x="1259.755682" xlink:href="#m841f2b603a" y="728.2"/>
      </g>
     </g>
     <g id="text_7">
      <!-- 1200 -->
      <g transform="translate(1247.030682 742.798437)scale(0.1 -0.1)">
       <use xlink:href="#DejaVuSans-31"/>
       <use x="63.623047" xlink:href="#DejaVuSans-32"/>
       <use x="127.246094" xlink:href="#DejaVuSans-30"/>
       <use x="190.869141" xlink:href="#DejaVuSans-30"/>
      </g>
     </g>
    </g>
    <g id="text_8">
     <!-- 15-Minute Steps -->
     <defs>
      <path d="M 10.796875 72.90625 
L 49.515625 72.90625 
L 49.515625 64.59375 
L 19.828125 64.59375 
L 19.828125 46.734375 
Q 21.96875 47.46875 24.109375 47.828125 
Q 26.265625 48.1875 28.421875 48.1875 
Q 40.625 48.1875 47.75 41.5 
Q 54.890625 34.8125 54.890625 23.390625 
Q 54.890625 11.625 47.5625 5.09375 
Q 40.234375 -1.421875 26.90625 -1.421875 
Q 22.3125 -1.421875 17.546875 -0.640625 
Q 12.796875 0.140625 7.71875 1.703125 
L 7.71875 11.625 
Q 12.109375 9.234375 16.796875 8.0625 
Q 21.484375 6.890625 26.703125 6.890625 
Q 35.15625 6.890625 40.078125 11.328125 
Q 45.015625 15.765625 45.015625 23.390625 
Q 45.015625 31 40.078125 35.4375 
Q 35.15625 39.890625 26.703125 39.890625 
Q 22.75 39.890625 18.8125 39.015625 
Q 14.890625 38.140625 10.796875 36.28125 
z
" id="DejaVuSans-35"/>
      <path d="M 4.890625 31.390625 
L 31.203125 31.390625 
L 31.203125 23.390625 
L 4.890625 23.390625 
z
" id="DejaVuSans-2d"/>
      <path d="M 9.8125 72.90625 
L 24.515625 72.90625 
L 43.109375 23.296875 
L 61.8125 72.90625 
L 76.515625 72.90625 
L 76.515625 0 
L 66.890625 0 
L 66.890625 64.015625 
L 48.09375 14.015625 
L 38.1875 14.015625 
L 19.390625 64.015625 
L 19.390625 0 
L 9.8125 0 
z
" id="DejaVuSans-4d"/>
      <path d="M 9.421875 54.6875 
L 18.40625 54.6875 
L 18.40625 0 
L 9.421875 0 
z
M 9.421875 75.984375 
L 18.40625 75.984375 
L 18.40625 64.59375 
L 9.421875 64.59375 
z
" id="DejaVuSans-69"/>
      <path d="M 54.890625 33.015625 
L 54.890625 0 
L 45.90625 0 
L 45.90625 32.71875 
Q 45.90625 40.484375 42.875 44.328125 
Q 39.84375 48.1875 33.796875 48.1875 
Q 26.515625 48.1875 22.3125 43.546875 
Q 18.109375 38.921875 18.109375 30.90625 
L 18.109375 0 
L 9.078125 0 
L 9.078125 54.6875 
L 18.109375 54.6875 
L 18.109375 46.1875 
Q 21.34375 51.125 25.703125 53.5625 
Q 30.078125 56 35.796875 56 
Q 45.21875 56 50.046875 50.171875 
Q 54.890625 44.34375 54.890625 33.015625 
z
" id="DejaVuSans-6e"/>
      <path d="M 8.5 21.578125 
L 8.5 54.6875 
L 17.484375 54.6875 
L 17.484375 21.921875 
Q 17.484375 14.15625 20.5 10.265625 
Q 23.53125 6.390625 29.59375 6.390625 
Q 36.859375 6.390625 41.078125 11.03125 
Q 45.3125 15.671875 45.3125 23.6875 
L 45.3125 54.6875 
L 54.296875 54.6875 
L 54.296875 0 
L 45.3125 0 
L 45.3125 8.40625 
Q 42.046875 3.421875 37.71875 1 
Q 33.40625 -1.421875 27.6875 -1.421875 
Q 18.265625 -1.421875 13.375 4.4375 
Q 8.5 10.296875 8.5 21.578125 
z
M 31.109375 56 
z
" id="DejaVuSans-75"/>
      <path d="M 18.3125 70.21875 
L 18.3125 54.6875 
L 36.8125 54.6875 
L 36.8125 47.703125 
L 18.3125 47.703125 
L 18.3125 18.015625 
Q 18.3125 11.328125 20.140625 9.421875 
Q 21.96875 7.515625 27.59375 7.515625 
L 36.8125 7.515625 
L 36.8125 0 
L 27.59375 0 
Q 17.1875 0 13.234375 3.875 
Q 9.28125 7.765625 9.28125 18.015625 
L 9.28125 47.703125 
L 2.6875 47.703125 
L 2.6875 54.6875 
L 9.28125 54.6875 
L 9.28125 70.21875 
z
" id="DejaVuSans-74"/>
      <path d="M 56.203125 29.59375 
L 56.203125 25.203125 
L 14.890625 25.203125 
Q 15.484375 15.921875 20.484375 11.0625 
Q 25.484375 6.203125 34.421875 6.203125 
Q 39.59375 6.203125 44.453125 7.46875 
Q 49.3125 8.734375 54.109375 11.28125 
L 54.109375 2.78125 
Q 49.265625 0.734375 44.1875 -0.34375 
Q 39.109375 -1.421875 33.890625 -1.421875 
Q 20.796875 -1.421875 13.15625 6.1875 
Q 5.515625 13.8125 5.515625 26.8125 
Q 5.515625 40.234375 12.765625 48.109375 
Q 20.015625 56 32.328125 56 
Q 43.359375 56 49.78125 48.890625 
Q 56.203125 41.796875 56.203125 29.59375 
z
M 47.21875 32.234375 
Q 47.125 39.59375 43.09375 43.984375 
Q 39.0625 48.390625 32.421875 48.390625 
Q 24.90625 48.390625 20.390625 44.140625 
Q 15.875 39.890625 15.1875 32.171875 
z
" id="DejaVuSans-65"/>
      <path id="DejaVuSans-20"/>
      <path d="M 53.515625 70.515625 
L 53.515625 60.890625 
Q 47.90625 63.578125 42.921875 64.890625 
Q 37.9375 66.21875 33.296875 66.21875 
Q 25.25 66.21875 20.875 63.09375 
Q 16.5 59.96875 16.5 54.203125 
Q 16.5 49.359375 19.40625 46.890625 
Q 22.3125 44.4375 30.421875 42.921875 
L 36.375 41.703125 
Q 47.40625 39.59375 52.65625 34.296875 
Q 57.90625 29 57.90625 20.125 
Q 57.90625 9.515625 50.796875 4.046875 
Q 43.703125 -1.421875 29.984375 -1.421875 
Q 24.8125 -1.421875 18.96875 -0.25 
Q 13.140625 0.921875 6.890625 3.21875 
L 6.890625 13.375 
Q 12.890625 10.015625 18.65625 8.296875 
Q 24.421875 6.59375 29.984375 6.59375 
Q 38.421875 6.59375 43.015625 9.90625 
Q 47.609375 13.234375 47.609375 19.390625 
Q 47.609375 24.75 44.3125 27.78125 
Q 41.015625 30.8125 33.5 32.328125 
L 27.484375 33.5 
Q 16.453125 35.6875 11.515625 40.375 
Q 6.59375 45.0625 6.59375 53.421875 
Q 6.59375 63.09375 13.40625 68.65625 
Q 20.21875 74.21875 32.171875 74.21875 
Q 37.3125 74.21875 42.625 73.28125 
Q 47.953125 72.359375 53.515625 70.515625 
z
" id="DejaVuSans-53"/>
      <path d="M 18.109375 8.203125 
L 18.109375 -20.796875 
L 9.078125 -20.796875 
L 9.078125 54.6875 
L 18.109375 54.6875 
L 18.109375 46.390625 
Q 20.953125 51.265625 25.265625 53.625 
Q 29.59375 56 35.59375 56 
Q 45.5625 56 51.78125 48.09375 
Q 58.015625 40.1875 58.015625 27.296875 
Q 58.015625 14.40625 51.78125 6.484375 
Q 45.5625 -1.421875 35.59375 -1.421875 
Q 29.59375 -1.421875 25.265625 0.953125 
Q 20.953125 3.328125 18.109375 8.203125 
z
M 48.6875 27.296875 
Q 48.6875 37.203125 44.609375 42.84375 
Q 40.53125 48.484375 33.40625 48.484375 
Q 26.265625 48.484375 22.1875 42.84375 
Q 18.109375 37.203125 18.109375 27.296875 
Q 18.109375 17.390625 22.1875 11.75 
Q 26.265625 6.109375 33.40625 6.109375 
Q 40.53125 6.109375 44.609375 11.75 
Q 48.6875 17.390625 48.6875 27.296875 
z
" id="DejaVuSans-70"/>
      <path d="M 44.28125 53.078125 
L 44.28125 44.578125 
Q 40.484375 46.53125 36.375 47.5 
Q 32.28125 48.484375 27.875 48.484375 
Q 21.1875 48.484375 17.84375 46.4375 
Q 14.5 44.390625 14.5 40.28125 
Q 14.5 37.15625 16.890625 35.375 
Q 19.28125 33.59375 26.515625 31.984375 
L 29.59375 31.296875 
Q 39.15625 29.25 43.1875 25.515625 
Q 47.21875 21.78125 47.21875 15.09375 
Q 47.21875 7.46875 41.1875 3.015625 
Q 35.15625 -1.421875 24.609375 -1.421875 
Q 20.21875 -1.421875 15.453125 -0.5625 
Q 10.6875 0.296875 5.421875 2 
L 5.421875 11.28125 
Q 10.40625 8.6875 15.234375 7.390625 
Q 20.0625 6.109375 24.8125 6.109375 
Q 31.15625 6.109375 34.5625 8.28125 
Q 37.984375 10.453125 37.984375 14.40625 
Q 37.984375 18.0625 35.515625 20.015625 
Q 33.0625 21.96875 24.703125 23.78125 
L 21.578125 24.515625 
Q 13.234375 26.265625 9.515625 29.90625 
Q 5.8125 33.546875 5.8125 39.890625 
Q 5.8125 47.609375 11.28125 51.796875 
Q 16.75 56 26.8125 56 
Q 31.78125 56 36.171875 55.265625 
Q 40.578125 54.546875 44.28125 53.078125 
z
" id="DejaVuSans-73"/>
     </defs>
     <g transform="translate(639.489844 756.476562)scale(0.1 -0.1)">
      <use xlink:href="#DejaVuSans-31"/>
      <use x="63.623047" xlink:href="#DejaVuSans-35"/>
      <use x="127.246094" xlink:href="#DejaVuSans-2d"/>
      <use x="163.330078" xlink:href="#DejaVuSans-4d"/>
      <use x="249.609375" xlink:href="#DejaVuSans-69"/>
      <use x="277.392578" xlink:href="#DejaVuSans-6e"/>
      <use x="340.771484" xlink:href="#DejaVuSans-75"/>
      <use x="404.150391" xlink:href="#DejaVuSans-74"/>
      <use x="443.359375" xlink:href="#DejaVuSans-65"/>
      <use x="504.882812" xlink:href="#DejaVuSans-20"/>
      <use x="536.669922" xlink:href="#DejaVuSans-53"/>
      <use x="600.146484" xlink:href="#DejaVuSans-74"/>
      <use x="639.355469" xlink:href="#DejaVuSans-65"/>
      <use x="700.878906" xlink:href="#DejaVuSans-70"/>
      <use x="764.355469" xlink:href="#DejaVuSans-73"/>
     </g>
    </g>
   </g>
   <g id="matplotlib.axis_2">
    <g id="ytick_1">
     <g id="line2d_8">
      <defs>
       <path d="M 0 0 
L -3.5 0 
" id="m1223b6ea5a" style="stroke:#000000;stroke-width:0.8;"/>
      </defs>
      <g>
       <use style="stroke:#000000;stroke-width:0.8;" x="42.925" xlink:href="#m1223b6ea5a" y="695.787573"/>
      </g>
     </g>
     <g id="text_9">
      <!-- 0 -->
      <g transform="translate(29.5625 699.586792)scale(0.1 -0.1)">
       <use xlink:href="#DejaVuSans-30"/>
      </g>
     </g>
    </g>
    <g id="ytick_2">
     <g id="line2d_9">
      <g>
       <use style="stroke:#000000;stroke-width:0.8;" x="42.925" xlink:href="#m1223b6ea5a" y="578.37242"/>
      </g>
     </g>
     <g id="text_10">
      <!-- 1000 -->
      <g transform="translate(10.475 582.171639)scale(0.1 -0.1)">
       <use xlink:href="#DejaVuSans-31"/>
       <use x="63.623047" xlink:href="#DejaVuSans-30"/>
       <use x="127.246094" xlink:href="#DejaVuSans-30"/>
       <use x="190.869141" xlink:href="#DejaVuSans-30"/>
      </g>
     </g>
    </g>
    <g id="ytick_3">
     <g id="line2d_10">
      <g>
       <use style="stroke:#000000;stroke-width:0.8;" x="42.925" xlink:href="#m1223b6ea5a" y="460.957267"/>
      </g>
     </g>
     <g id="text_11">
      <!-- 2000 -->
      <g transform="translate(10.475 464.756486)scale(0.1 -0.1)">
       <use xlink:href="#DejaVuSans-32"/>
       <use x="63.623047" xlink:href="#DejaVuSans-30"/>
       <use x="127.246094" xlink:href="#DejaVuSans-30"/>
       <use x="190.869141" xlink:href="#DejaVuSans-30"/>
      </g>
     </g>
    </g>
    <g id="ytick_4">
     <g id="line2d_11">
      <g>
       <use style="stroke:#000000;stroke-width:0.8;" x="42.925" xlink:href="#m1223b6ea5a" y="343.542114"/>
      </g>
     </g>
     <g id="text_12">
      <!-- 3000 -->
      <defs>
       <path d="M 40.578125 39.3125 
Q 47.65625 37.796875 51.625 33 
Q 55.609375 28.21875 55.609375 21.1875 
Q 55.609375 10.40625 48.1875 4.484375 
Q 40.765625 -1.421875 27.09375 -1.421875 
Q 22.515625 -1.421875 17.65625 -0.515625 
Q 12.796875 0.390625 7.625 2.203125 
L 7.625 11.71875 
Q 11.71875 9.328125 16.59375 8.109375 
Q 21.484375 6.890625 26.8125 6.890625 
Q 36.078125 6.890625 40.9375 10.546875 
Q 45.796875 14.203125 45.796875 21.1875 
Q 45.796875 27.640625 41.28125 31.265625 
Q 36.765625 34.90625 28.71875 34.90625 
L 20.21875 34.90625 
L 20.21875 43.015625 
L 29.109375 43.015625 
Q 36.375 43.015625 40.234375 45.921875 
Q 44.09375 48.828125 44.09375 54.296875 
Q 44.09375 59.90625 40.109375 62.90625 
Q 36.140625 65.921875 28.71875 65.921875 
Q 24.65625 65.921875 20.015625 65.03125 
Q 15.375 64.15625 9.8125 62.3125 
L 9.8125 71.09375 
Q 15.4375 72.65625 20.34375 73.4375 
Q 25.25 74.21875 29.59375 74.21875 
Q 40.828125 74.21875 47.359375 69.109375 
Q 53.90625 64.015625 53.90625 55.328125 
Q 53.90625 49.265625 50.4375 45.09375 
Q 46.96875 40.921875 40.578125 39.3125 
z
" id="DejaVuSans-33"/>
      </defs>
      <g transform="translate(10.475 347.341333)scale(0.1 -0.1)">
       <use xlink:href="#DejaVuSans-33"/>
       <use x="63.623047" xlink:href="#DejaVuSans-30"/>
       <use x="127.246094" xlink:href="#DejaVuSans-30"/>
       <use x="190.869141" xlink:href="#DejaVuSans-30"/>
      </g>
     </g>
    </g>
    <g id="ytick_5">
     <g id="line2d_12">
      <g>
       <use style="stroke:#000000;stroke-width:0.8;" x="42.925" xlink:href="#m1223b6ea5a" y="226.126961"/>
      </g>
     </g>
     <g id="text_13">
      <!-- 4000 -->
      <g transform="translate(10.475 229.92618)scale(0.1 -0.1)">
       <use xlink:href="#DejaVuSans-34"/>
       <use x="63.623047" xlink:href="#DejaVuSans-30"/>
       <use x="127.246094" xlink:href="#DejaVuSans-30"/>
       <use x="190.869141" xlink:href="#DejaVuSans-30"/>
      </g>
     </g>
    </g>
    <g id="ytick_6">
     <g id="line2d_13">
      <g>
       <use style="stroke:#000000;stroke-width:0.8;" x="42.925" xlink:href="#m1223b6ea5a" y="108.711808"/>
      </g>
     </g>
     <g id="text_14">
      <!-- 5000 -->
      <g transform="translate(10.475 112.511027)scale(0.1 -0.1)">
       <use xlink:href="#DejaVuSans-35"/>
       <use x="63.623047" xlink:href="#DejaVuSans-30"/>
       <use x="127.246094" xlink:href="#DejaVuSans-30"/>
       <use x="190.869141" xlink:href="#DejaVuSans-30"/>
      </g>
     </g>
    </g>
    <g id="text_15">
     <!-- Bandwidth (kbps) -->
     <defs>
      <path d="M 19.671875 34.8125 
L 19.671875 8.109375 
L 35.5 8.109375 
Q 43.453125 8.109375 47.28125 11.40625 
Q 51.125 14.703125 51.125 21.484375 
Q 51.125 28.328125 47.28125 31.5625 
Q 43.453125 34.8125 35.5 34.8125 
z
M 19.671875 64.796875 
L 19.671875 42.828125 
L 34.28125 42.828125 
Q 41.5 42.828125 45.03125 45.53125 
Q 48.578125 48.25 48.578125 53.8125 
Q 48.578125 59.328125 45.03125 62.0625 
Q 41.5 64.796875 34.28125 64.796875 
z
M 9.8125 72.90625 
L 35.015625 72.90625 
Q 46.296875 72.90625 52.390625 68.21875 
Q 58.5 63.53125 58.5 54.890625 
Q 58.5 48.1875 55.375 44.234375 
Q 52.25 40.28125 46.1875 39.3125 
Q 53.46875 37.75 57.5 32.78125 
Q 61.53125 27.828125 61.53125 20.40625 
Q 61.53125 10.640625 54.890625 5.3125 
Q 48.25 0 35.984375 0 
L 9.8125 0 
z
" id="DejaVuSans-42"/>
      <path d="M 34.28125 27.484375 
Q 23.390625 27.484375 19.1875 25 
Q 14.984375 22.515625 14.984375 16.5 
Q 14.984375 11.71875 18.140625 8.90625 
Q 21.296875 6.109375 26.703125 6.109375 
Q 34.1875 6.109375 38.703125 11.40625 
Q 43.21875 16.703125 43.21875 25.484375 
L 43.21875 27.484375 
z
M 52.203125 31.203125 
L 52.203125 0 
L 43.21875 0 
L 43.21875 8.296875 
Q 40.140625 3.328125 35.546875 0.953125 
Q 30.953125 -1.421875 24.3125 -1.421875 
Q 15.921875 -1.421875 10.953125 3.296875 
Q 6 8.015625 6 15.921875 
Q 6 25.140625 12.171875 29.828125 
Q 18.359375 34.515625 30.609375 34.515625 
L 43.21875 34.515625 
L 43.21875 35.40625 
Q 43.21875 41.609375 39.140625 45 
Q 35.0625 48.390625 27.6875 48.390625 
Q 23 48.390625 18.546875 47.265625 
Q 14.109375 46.140625 10.015625 43.890625 
L 10.015625 52.203125 
Q 14.9375 54.109375 19.578125 55.046875 
Q 24.21875 56 28.609375 56 
Q 40.484375 56 46.34375 49.84375 
Q 52.203125 43.703125 52.203125 31.203125 
z
" id="DejaVuSans-61"/>
      <path d="M 45.40625 46.390625 
L 45.40625 75.984375 
L 54.390625 75.984375 
L 54.390625 0 
L 45.40625 0 
L 45.40625 8.203125 
Q 42.578125 3.328125 38.25 0.953125 
Q 33.9375 -1.421875 27.875 -1.421875 
Q 17.96875 -1.421875 11.734375 6.484375 
Q 5.515625 14.40625 5.515625 27.296875 
Q 5.515625 40.1875 11.734375 48.09375 
Q 17.96875 56 27.875 56 
Q 33.9375 56 38.25 53.625 
Q 42.578125 51.265625 45.40625 46.390625 
z
M 14.796875 27.296875 
Q 14.796875 17.390625 18.875 11.75 
Q 22.953125 6.109375 30.078125 6.109375 
Q 37.203125 6.109375 41.296875 11.75 
Q 45.40625 17.390625 45.40625 27.296875 
Q 45.40625 37.203125 41.296875 42.84375 
Q 37.203125 48.484375 30.078125 48.484375 
Q 22.953125 48.484375 18.875 42.84375 
Q 14.796875 37.203125 14.796875 27.296875 
z
" id="DejaVuSans-64"/>
      <path d="M 4.203125 54.6875 
L 13.1875 54.6875 
L 24.421875 12.015625 
L 35.59375 54.6875 
L 46.1875 54.6875 
L 57.421875 12.015625 
L 68.609375 54.6875 
L 77.59375 54.6875 
L 63.28125 0 
L 52.6875 0 
L 40.921875 44.828125 
L 29.109375 0 
L 18.5 0 
z
" id="DejaVuSans-77"/>
      <path d="M 54.890625 33.015625 
L 54.890625 0 
L 45.90625 0 
L 45.90625 32.71875 
Q 45.90625 40.484375 42.875 44.328125 
Q 39.84375 48.1875 33.796875 48.1875 
Q 26.515625 48.1875 22.3125 43.546875 
Q 18.109375 38.921875 18.109375 30.90625 
L 18.109375 0 
L 9.078125 0 
L 9.078125 75.984375 
L 18.109375 75.984375 
L 18.109375 46.1875 
Q 21.34375 51.125 25.703125 53.5625 
Q 30.078125 56 35.796875 56 
Q 45.21875 56 50.046875 50.171875 
Q 54.890625 44.34375 54.890625 33.015625 
z
" id="DejaVuSans-68"/>
      <path d="M 31 75.875 
Q 24.46875 64.65625 21.28125 53.65625 
Q 18.109375 42.671875 18.109375 31.390625 
Q 18.109375 20.125 21.3125 9.0625 
Q 24.515625 -2 31 -13.1875 
L 23.1875 -13.1875 
Q 15.875 -1.703125 12.234375 9.375 
Q 8.59375 20.453125 8.59375 31.390625 
Q 8.59375 42.28125 12.203125 53.3125 
Q 15.828125 64.359375 23.1875 75.875 
z
" id="DejaVuSans-28"/>
      <path d="M 9.078125 75.984375 
L 18.109375 75.984375 
L 18.109375 31.109375 
L 44.921875 54.6875 
L 56.390625 54.6875 
L 27.390625 29.109375 
L 57.625 0 
L 45.90625 0 
L 18.109375 26.703125 
L 18.109375 0 
L 9.078125 0 
z
" id="DejaVuSans-6b"/>
      <path d="M 48.6875 27.296875 
Q 48.6875 37.203125 44.609375 42.84375 
Q 40.53125 48.484375 33.40625 48.484375 
Q 26.265625 48.484375 22.1875 42.84375 
Q 18.109375 37.203125 18.109375 27.296875 
Q 18.109375 17.390625 22.1875 11.75 
Q 26.265625 6.109375 33.40625 6.109375 
Q 40.53125 6.109375 44.609375 11.75 
Q 48.6875 17.390625 48.6875 27.296875 
z
M 18.109375 46.390625 
Q 20.953125 51.265625 25.265625 53.625 
Q 29.59375 56 35.59375 56 
Q 45.5625 56 51.78125 48.09375 
Q 58.015625 40.1875 58.015625 27.296875 
Q 58.015625 14.40625 51.78125 6.484375 
Q 45.5625 -1.421875 35.59375 -1.421875 
Q 29.59375 -1.421875 25.265625 0.953125 
Q 20.953125 3.328125 18.109375 8.203125 
L 18.109375 0 
L 9.078125 0 
L 9.078125 75.984375 
L 18.109375 75.984375 
z
" id="DejaVuSans-62"/>
      <path d="M 8.015625 75.875 
L 15.828125 75.875 
Q 23.140625 64.359375 26.78125 53.3125 
Q 30.421875 42.28125 30.421875 31.390625 
Q 30.421875 20.453125 26.78125 9.375 
Q 23.140625 -1.703125 15.828125 -13.1875 
L 8.015625 -13.1875 
Q 14.5 -2 17.703125 9.0625 
Q 20.90625 20.125 20.90625 31.390625 
Q 20.90625 42.671875 17.703125 53.65625 
Q 14.5 64.65625 8.015625 75.875 
z
" id="DejaVuSans-29"/>
     </defs>
     <g transform="translate(4.395312 415.207812)rotate(-90)scale(0.1 -0.1)">
      <use xlink:href="#DejaVuSans-42"/>
      <use x="68.603516" xlink:href="#DejaVuSans-61"/>
      <use x="129.882812" xlink:href="#DejaVuSans-6e"/>
      <use x="193.261719" xlink:href="#DejaVuSans-64"/>
      <use x="256.738281" xlink:href="#DejaVuSans-77"/>
      <use x="338.525391" xlink:href="#DejaVuSans-69"/>
      <use x="366.308594" xlink:href="#DejaVuSans-64"/>
      <use x="429.785156" xlink:href="#DejaVuSans-74"/>
      <use x="468.994141" xlink:href="#DejaVuSans-68"/>
      <use x="532.373047" xlink:href="#DejaVuSans-20"/>
      <use x="564.160156" xlink:href="#DejaVuSans-28"/>
      <use x="603.173828" xlink:href="#DejaVuSans-6b"/>
      <use x="661.083984" xlink:href="#DejaVuSans-62"/>
      <use x="724.560547" xlink:href="#DejaVuSans-70"/>
      <use x="788.037109" xlink:href="#DejaVuSans-73"/>
      <use x="840.136719" xlink:href="#DejaVuSans-29"/>
     </g>
    </g>
   </g>
   <g id="LineCollection_1">
    <path clip-path="url(#p26d4bdf62e)" d="M 1066.607955 674.602404 
L 1259.755682 674.602404 
" style="fill:none;stroke:#000000;stroke-width:1.5;"/>
   </g>
   <g id="LineCollection_2">
    <path clip-path="url(#p26d4bdf62e)" d="M 100.869318 682.824859 
L 873.460227 682.824859 
" style="fill:none;stroke:#000000;stroke-width:1.5;"/>
   </g>
   <g id="line2d_14">
    <path clip-path="url(#p26d4bdf62e)" d="M 100.869318 695.413934 
L 101.835057 688.079926 
L 102.800795 691.417639 
L 103.766534 693.796212 
L 104.732273 693.17835 
L 105.698011 691.925918 
L 106.66375 688.711349 
L 108.595227 693.291068 
L 109.560966 695.129003 
L 111.492443 692.75461 
L 112.458182 689.31565 
L 113.42392 689.28747 
L 114.389659 691.585672 
L 115.355398 687.438052 
L 116.321136 689.721648 
L 117.286875 690.700632 
L 118.252614 662.472984 
L 119.218352 686.352608 
L 120.184091 661.963661 
L 121.14983 669.790296 
L 122.115568 680.386885 
L 123.081307 677.103429 
L 124.047045 677.186923 
L 125.012784 668.498201 
L 125.978523 672.392216 
L 126.944261 666.832479 
L 127.91 659.784435 
L 128.875739 682.56611 
L 129.841477 677.61901 
L 130.807216 692.480117 
L 131.772955 693.537382 
L 132.738693 694.059222 
L 133.704432 681.193656 
L 134.67017 687.60504 
L 135.635909 688.49844 
L 136.601648 691.287179 
L 137.567386 690.134949 
L 138.533125 694.661432 
L 139.498864 690.770553 
L 140.464602 695.277204 
L 141.430341 694.084266 
L 142.39608 695.585102 
L 143.361818 693.646965 
L 144.327557 695.674854 
L 145.293295 690.80708 
L 146.259034 693.884931 
L 147.224773 695.653978 
L 148.190511 695.74582 
L 149.15625 695.704079 
L 150.121989 694.514276 
L 151.087727 691.633683 
L 152.053466 694.514276 
L 153.984943 695.612237 
L 154.950682 688.005813 
L 155.91642 694.042525 
L 156.882159 694.096795 
L 157.847898 695.704079 
L 158.813636 695.497428 
L 159.779375 691.471908 
L 160.745114 693.959031 
L 161.710852 695.718685 
L 162.676591 695.575709 
L 163.64233 694.222041 
L 164.608068 694.092615 
L 165.573807 695.74582 
L 166.539545 695.733304 
L 167.505284 694.180289 
L 168.471023 694.158367 
L 169.436761 695.682158 
L 170.4025 695.342957 
L 171.368239 694.126019 
L 172.333977 693.401697 
L 173.299716 688.252127 
L 174.265455 691.604458 
L 175.231193 692.757745 
L 176.196932 693.349518 
L 177.16267 687.688534 
L 179.094148 694.740746 
L 180.059886 695.438979 
L 181.025625 691.820502 
L 181.991364 694.246041 
L 182.957102 693.003002 
L 183.922841 689.81767 
L 184.88858 694.16776 
L 185.854318 691.350842 
L 186.820057 692.358005 
L 187.785795 691.303876 
L 188.751534 694.536186 
L 189.717273 674.997259 
L 190.683011 667.30214 
L 191.64875 673.335706 
L 192.614489 676.225692 
L 193.580227 683.856103 
L 195.511705 652.920087 
L 196.477443 658.773103 
L 197.443182 682.426245 
L 198.40892 688.042353 
L 199.374659 695.616405 
L 200.340398 690.368734 
L 201.306136 695.279294 
L 202.271875 688.712394 
L 203.237614 688.538103 
L 204.203352 685.823465 
L 205.169091 684.060664 
L 206.13483 688.305363 
L 207.100568 695.733304 
L 208.066307 695.325215 
L 209.032045 690.99808 
L 209.997784 690.890574 
L 210.963523 688.768753 
L 211.929261 691.795458 
L 212.895 684.686886 
L 213.860739 680.45367 
L 214.826477 683.767396 
L 215.792216 670.323619 
L 216.757955 683.195455 
L 217.723693 680.343042 
L 218.689432 678.788994 
L 219.65517 686.811842 
L 220.620909 689.483682 
L 221.586648 691.249606 
L 222.552386 692.706599 
L 223.518125 685.699263 
L 224.483864 687.097807 
L 225.449602 686.342181 
L 226.415341 684.175473 
L 227.38108 684.11181 
L 228.346818 691.582549 
L 229.312557 686.995526 
L 230.278295 691.278831 
L 231.244034 694.126019 
L 232.209773 683.163096 
L 233.175511 694.180289 
L 234.14125 692.485342 
L 235.106989 690.485621 
L 236.072727 692.414365 
L 237.038466 688.634125 
L 238.004205 691.036697 
L 238.969943 690.763249 
L 239.935682 687.959892 
L 240.90142 692.573004 
L 241.867159 690.86971 
L 242.832898 690.956327 
L 243.798636 692.416455 
L 244.764375 692.531263 
L 246.695852 690.786204 
L 247.661591 688.099745 
L 248.62733 692.570914 
L 249.593068 688.477564 
L 250.558807 691.766233 
L 251.524545 692.590746 
L 252.490284 689.265549 
L 253.456023 678.587556 
L 254.421761 672.062409 
L 255.3875 657.86404 
L 256.353239 660.47223 
L 257.318977 658.807541 
L 258.284716 667.449297 
L 259.250455 674.634059 
L 260.216193 659.822008 
L 261.181932 661.091137 
L 262.14767 650.282673 
L 264.079148 674.588138 
L 265.044886 650.934984 
L 266.010625 648.017875 
L 266.976364 667.652812 
L 267.942102 647.894719 
L 268.907841 625.839456 
L 269.87358 635.620913 
L 270.839318 674.440981 
L 271.805057 695.284519 
L 272.770795 668.213282 
L 273.736534 665.934899 
L 274.702273 685.893385 
L 275.668011 694.010166 
L 276.63375 694.305535 
L 277.599489 695.608057 
L 278.565227 694.126019 
L 279.530966 695.64981 
L 280.496705 692.823498 
L 281.462443 695.607012 
L 282.428182 687.302367 
L 283.39392 688.86164 
L 284.359659 695.638326 
L 285.325398 692.546915 
L 286.291136 695.407664 
L 287.256875 694.180289 
L 288.222614 693.996604 
L 289.188352 695.082037 
L 290.154091 694.978712 
L 291.11983 695.45881 
L 292.085568 692.393488 
L 293.051307 689.808277 
L 294.017045 691.424942 
L 294.982784 695.566316 
L 295.948523 695.614315 
L 298.845739 695.293913 
L 299.811477 695.61745 
L 300.777216 692.073074 
L 301.742955 691.007473 
L 302.708693 690.620261 
L 303.674432 681.253139 
L 304.64017 681.133117 
L 305.605909 679.06452 
L 306.571648 682.096449 
L 307.537386 672.21061 
L 308.503125 663.719146 
L 309.468864 663.385171 
L 310.434602 671.243109 
L 311.400341 668.227888 
L 312.36608 663.3048 
L 313.331818 676.220467 
L 314.297557 670.309001 
L 315.263295 674.077769 
L 316.229034 667.30214 
L 317.194773 651.656172 
L 318.160511 662.837229 
L 319.12625 679.82746 
L 320.091989 681.489014 
L 321.057727 683.995957 
L 322.023466 678.258794 
L 322.989205 680.324256 
L 323.954943 695.662326 
L 324.920682 692.394533 
L 325.88642 695.683203 
L 326.852159 692.227545 
L 327.817898 687.351423 
L 328.783636 678.161727 
L 329.749375 679.69909 
L 330.715114 687.123896 
L 331.680852 683.096298 
L 332.646591 676.834161 
L 333.61233 678.04484 
L 334.578068 695.74582 
L 335.543807 695.576742 
L 336.509545 694.004953 
L 337.475284 695.504731 
L 338.441023 674.426363 
L 339.406761 672.930752 
L 340.3725 655.598198 
L 341.338239 658.214724 
L 342.303977 673.782412 
L 343.269716 674.879327 
L 344.235455 674.792698 
L 345.201193 661.379191 
L 346.166932 674.764519 
L 347.13267 661.946964 
L 348.098409 673.870074 
L 349.064148 673.690558 
L 350.029886 664.803546 
L 350.995625 672.18243 
L 351.961364 664.083392 
L 352.927102 678.129379 
L 353.892841 663.394564 
L 354.85858 667.861553 
L 355.824318 677.979087 
L 356.790057 672.412048 
L 357.755795 673.434863 
L 358.721534 662.777735 
L 359.687273 668.11099 
L 360.653011 671.81923 
L 361.61875 671.133526 
L 362.584489 691.049214 
L 363.550227 695.704079 
L 364.515966 694.138547 
L 365.481705 691.462515 
L 366.447443 695.478642 
L 367.413182 695.495338 
L 368.37892 691.188034 
L 369.344659 681.895012 
L 370.310398 695.608057 
L 371.276136 691.88939 
L 372.241875 694.22412 
L 373.207614 694.138547 
L 374.173352 689.800962 
L 375.139091 695.733304 
L 376.10483 695.516215 
L 377.070568 694.180289 
L 378.036307 695.641461 
L 379.002045 695.704079 
L 379.967784 692.906992 
L 380.933523 687.438052 
L 381.899261 693.126159 
L 382.865 695.704079 
L 383.830739 695.704079 
L 384.796477 688.425384 
L 385.762216 692.906992 
L 386.727955 694.46104 
L 387.693693 692.467589 
L 388.659432 694.581062 
L 389.62517 691.247516 
L 391.556648 694.088446 
L 392.522386 694.126019 
L 393.488125 692.291208 
L 394.453864 695.099778 
L 395.419602 692.727476 
L 396.385341 695.644585 
L 397.35108 689.567176 
L 398.316818 695.518305 
L 399.282557 695.161363 
L 400.248295 692.046984 
L 401.214034 688.364845 
L 402.179773 677.818358 
L 403.145511 688.62681 
L 404.11125 691.101405 
L 405.076989 694.127064 
L 406.042727 695.577787 
L 407.008466 695.697821 
L 407.974205 693.007182 
L 408.939943 691.13272 
L 409.905682 695.680068 
L 410.87142 695.578832 
L 411.837159 695.315822 
L 412.802898 692.030288 
L 413.768636 693.763852 
L 414.734375 695.74582 
L 415.700114 694.263782 
L 416.665852 695.668596 
L 418.59733 695.634146 
L 419.563068 693.111552 
L 420.528807 693.662617 
L 421.494545 695.557956 
L 422.460284 695.733304 
L 423.426023 695.708247 
L 424.391761 694.222041 
L 425.3575 695.577787 
L 426.323239 694.305535 
L 427.288977 695.74582 
L 428.254716 694.222041 
L 429.220455 695.72182 
L 430.186193 695.728079 
L 431.151932 694.305535 
L 432.11767 695.74582 
L 433.083409 695.650855 
L 434.049148 695.148834 
L 435.014886 695.114397 
L 435.980625 695.74582 
L 436.946364 695.637281 
L 437.912102 693.111552 
L 438.877841 695.668596 
L 439.84358 695.74582 
L 440.809318 695.320002 
L 441.775057 695.620585 
L 442.740795 693.786819 
L 443.706534 695.156138 
L 444.672273 695.474462 
L 445.638011 695.381575 
L 446.60375 695.177014 
L 447.569489 691.408246 
L 448.535227 691.340403 
L 449.500966 694.714657 
L 450.466705 691.899828 
L 451.432443 693.192956 
L 452.398182 693.287933 
L 453.36392 689.603704 
L 454.329659 692.91116 
L 455.295398 694.112446 
L 456.261136 690.087983 
L 457.226875 692.255725 
L 458.192614 690.619216 
L 459.158352 695.559001 
L 460.124091 692.894463 
L 461.08983 689.845849 
L 462.055568 692.247377 
L 463.021307 692.660678 
L 463.987045 694.045649 
L 464.952784 691.316404 
L 465.918523 672.318115 
L 466.884261 679.150104 
L 467.85 676.676566 
L 468.815739 684.312202 
L 469.781477 678.357951 
L 470.747216 688.26779 
L 471.712955 681.498407 
L 472.678693 684.685841 
L 473.644432 674.802092 
L 474.61017 675.188258 
L 475.575909 688.26361 
L 476.541648 688.033993 
L 477.507386 692.997789 
L 478.473125 693.454921 
L 479.438864 687.426569 
L 480.404602 689.463851 
L 481.370341 690.650531 
L 482.33608 690.533632 
L 483.301818 691.107663 
L 484.267557 695.106048 
L 485.233295 693.474753 
L 486.199034 551.890865 
L 487.164773 648.664962 
L 488.130511 683.365566 
L 489.09625 689.112134 
L 490.061989 657.589559 
L 491.027727 676.631678 
L 491.993466 681.024578 
L 492.959205 610.104781 
L 493.924943 666.090416 
L 494.890682 648.30384 
L 495.85642 614.880701 
L 496.822159 661.373978 
L 497.787898 684.555381 
L 498.753636 687.653051 
L 499.719375 689.930388 
L 500.685114 695.72182 
L 501.650852 692.739992 
L 502.616591 690.86971 
L 503.58233 695.537091 
L 504.548068 695.691551 
L 505.513807 691.078439 
L 506.479545 695.596574 
L 507.445284 695.290778 
L 508.411023 695.295991 
L 509.376761 691.458347 
L 510.3425 694.299265 
L 511.308239 695.620585 
L 512.273977 695.679034 
L 513.239716 695.613282 
L 514.205455 695.74582 
L 516.136932 695.74582 
L 517.10267 694.557062 
L 518.068409 695.728079 
L 519.999886 695.733304 
L 521.931364 692.825576 
L 522.897102 690.302982 
L 523.862841 692.593881 
L 524.82858 695.186407 
L 525.794318 694.389029 
L 526.760057 691.320584 
L 527.725795 690.810215 
L 528.691534 692.346522 
L 529.657273 694.209513 
L 530.623011 694.263782 
L 531.58875 695.74582 
L 532.554489 694.222041 
L 533.520227 695.651888 
L 534.485966 695.59136 
L 535.451705 688.753102 
L 537.383182 693.458056 
L 538.34892 685.589679 
L 539.314659 687.922319 
L 540.280398 694.114536 
L 541.246136 691.13272 
L 542.211875 692.336084 
L 544.143352 681.699844 
L 545.109091 684.987469 
L 546.07483 695.626843 
L 547.040568 693.960076 
L 548.006307 679.844157 
L 548.972045 680.72086 
L 549.937784 684.494842 
L 550.903523 679.801371 
L 551.869261 665.533081 
L 552.835 679.370328 
L 553.800739 685.023997 
L 554.766477 673.819984 
L 555.732216 680.525693 
L 556.697955 694.005998 
L 557.663693 679.321272 
L 558.629432 687.939027 
L 559.59517 690.667227 
L 560.560909 695.451507 
L 561.526648 695.691551 
L 562.492386 688.276138 
L 563.458125 682.95749 
L 564.423864 679.185587 
L 565.389602 695.644585 
L 566.355341 692.832891 
L 567.32108 688.39198 
L 568.286818 686.84419 
L 569.252557 679.726225 
L 570.218295 594.305398 
L 571.184034 651.148938 
L 572.149773 689.043246 
L 573.115511 687.834657 
L 574.08125 684.291326 
L 575.046989 689.18519 
L 576.012727 688.424339 
L 576.978466 688.307441 
L 577.944205 692.948733 
L 578.909943 694.052964 
L 579.875682 694.981847 
L 580.84142 693.452843 
L 581.807159 695.635191 
L 582.772898 689.274942 
L 583.738636 685.607421 
L 584.704375 690.567037 
L 585.670114 680.823141 
L 586.635852 690.270622 
L 587.601591 687.757421 
L 588.56733 687.297154 
L 589.533068 691.926963 
L 590.498807 694.573758 
L 591.464545 693.818133 
L 592.430284 693.83692 
L 593.396023 692.618925 
L 594.361761 694.95679 
L 595.3275 693.604168 
L 596.293239 695.162408 
L 597.258977 693.564517 
L 598.224716 693.945458 
L 599.190455 694.119761 
L 600.156193 694.901476 
L 601.121932 695.285553 
L 602.08767 690.764294 
L 603.053409 694.400512 
L 604.019148 692.307904 
L 604.984886 689.94604 
L 605.950625 689.298953 
L 606.916364 691.253786 
L 607.882102 695.689461 
L 608.847841 695.394103 
L 609.81358 695.74582 
L 610.779318 688.472351 
L 611.745057 690.60461 
L 613.676534 695.662326 
L 614.642273 692.506207 
L 615.608011 695.282429 
L 616.57375 692.996744 
L 617.539489 688.642473 
L 618.505227 689.710165 
L 619.470966 695.039251 
L 620.436705 695.147789 
L 621.402443 683.224668 
L 622.368182 695.608057 
L 623.33392 693.212788 
L 624.299659 689.406447 
L 625.265398 691.281966 
L 626.231136 695.653978 
L 628.162614 689.306256 
L 629.128352 689.12465 
L 630.094091 692.614757 
L 631.05983 693.298372 
L 632.025568 685.432073 
L 632.991307 683.135961 
L 633.957045 691.208899 
L 634.922784 694.115581 
L 635.888523 695.32417 
L 636.854261 690.100499 
L 637.82 688.772933 
L 638.785739 695.416024 
L 639.751477 695.538136 
L 640.717216 692.462376 
L 641.682955 694.814859 
L 642.648693 694.068615 
L 643.614432 690.892664 
L 644.58017 686.254507 
L 645.545909 693.858829 
L 646.511648 692.65024 
L 647.477386 684.690009 
L 648.443125 691.312224 
L 649.408864 683.11195 
L 650.374602 692.614757 
L 651.340341 693.457011 
L 652.30608 689.238414 
L 653.271818 692.396623 
L 655.203295 686.017587 
L 656.169034 694.156289 
L 657.134773 692.68051 
L 658.100511 689.8114 
L 659.06625 632.992904 
L 660.031989 654.538843 
L 660.997727 687.354558 
L 661.963466 683.449072 
L 662.929205 651.136422 
L 663.894943 688.857472 
L 664.860682 652.943042 
L 665.82642 602.600649 
L 666.792159 682.657952 
L 667.757898 680.554918 
L 668.723636 682.449211 
L 669.689375 639.626602 
L 670.655114 692.606409 
L 671.620852 691.240213 
L 672.586591 684.620088 
L 673.55233 670.279788 
L 674.518068 693.881796 
L 675.483807 690.097376 
L 676.449545 681.886664 
L 677.415284 690.868665 
L 678.381023 691.583594 
L 679.346761 686.205451 
L 680.3125 685.883992 
L 681.278239 665.812788 
L 682.243977 692.656498 
L 683.209716 693.90893 
L 684.175455 694.082188 
L 685.141193 695.64354 
L 686.106932 695.660248 
L 687.07267 692.991531 
L 688.038409 694.946364 
L 689.004148 688.202037 
L 689.969886 695.580922 
L 690.935625 692.315219 
L 691.901364 692.820363 
L 692.867102 691.546021 
L 693.832841 684.151473 
L 694.79858 694.30658 
L 695.764318 694.113491 
L 696.730057 686.214845 
L 697.695795 692.485342 
L 698.661534 692.187883 
L 699.627273 693.445528 
L 700.593011 658.152106 
L 701.55875 692.68051 
L 702.524489 695.030903 
L 703.490227 695.64563 
L 704.455966 695.553788 
L 705.421705 692.403926 
L 706.387443 692.635634 
L 707.353182 693.20026 
L 708.31892 672.694877 
L 709.284659 695.733304 
L 711.216136 692.201456 
L 712.181875 695.685293 
L 713.147614 693.93293 
L 714.113352 694.010166 
L 715.079091 695.634146 
L 716.04483 689.859411 
L 717.010568 689.859411 
L 717.976307 695.691551 
L 718.942045 695.625798 
L 719.907784 691.090967 
L 720.873523 694.061312 
L 721.839261 694.144806 
L 722.805 695.076824 
L 723.770739 694.180289 
L 724.736477 687.883701 
L 725.702216 693.44136 
L 726.667955 695.704079 
L 727.633693 672.283666 
L 728.599432 688.467126 
L 729.56517 693.770122 
L 730.530909 687.449535 
L 731.496648 686.853583 
L 732.462386 694.137502 
L 733.428125 691.022079 
L 734.393864 483.187865 
L 735.359602 308.090041 
L 736.325341 175.086336 
L 737.29108 220.731077 
L 738.256818 101.493641 
L 739.222557 261.404731 
L 740.188295 684.63992 
L 741.154034 618.594155 
L 742.119773 692.743127 
L 743.085511 690.999125 
L 744.05125 692.055333 
L 745.016989 692.522915 
L 745.982727 691.671256 
L 746.948466 691.781884 
L 747.914205 693.350551 
L 748.879943 695.569439 
L 749.845682 575.832073 
L 750.81142 398.944325 
L 751.777159 671.722163 
L 752.742898 680.489165 
L 753.708636 686.297294 
L 754.674375 693.944413 
L 755.640114 693.959031 
L 756.605852 695.040296 
L 757.571591 693.358911 
L 758.53733 695.49117 
L 759.503068 687.86805 
L 760.468807 688.853292 
L 761.434545 690.609823 
L 762.400284 690.223656 
L 763.366023 689.017157 
L 764.331761 677.853841 
L 765.2975 688.064262 
L 766.263239 693.948593 
L 767.228977 695.364878 
L 768.194716 695.024633 
L 769.160455 695.74582 
L 770.126193 691.007473 
L 771.091932 694.127064 
L 772.05767 684.018923 
L 773.023409 694.142716 
L 773.989148 691.028349 
L 774.954886 690.346813 
L 775.920625 680.977612 
L 776.886364 690.968855 
L 777.852102 695.58927 
L 778.817841 669.519971 
L 779.78358 683.397926 
L 780.749318 686.958998 
L 781.715057 694.09366 
L 782.680795 688.86791 
L 783.646534 688.544361 
L 784.612273 692.91116 
L 785.578011 687.157301 
L 786.54375 685.52914 
L 787.509489 693.433012 
L 788.475227 691.958277 
L 789.440966 691.780851 
L 790.406705 687.840915 
L 791.372443 687.260626 
L 792.338182 691.924873 
L 793.30392 689.316695 
L 795.235398 695.32835 
L 796.201136 695.261553 
L 797.166875 692.146141 
L 798.132614 679.514349 
L 799.098352 691.082619 
L 800.064091 692.200411 
L 801.02983 695.694686 
L 801.995568 687.959892 
L 802.961307 695.695731 
L 803.927045 691.741188 
L 805.858523 691.83721 
L 806.824261 693.991379 
L 807.79 687.90041 
L 808.755739 695.674854 
L 809.721477 688.490092 
L 810.687216 692.414365 
L 811.652955 656.843315 
L 812.618693 634.721255 
L 813.584432 633.786114 
L 814.55017 687.166694 
L 815.515909 690.477273 
L 816.481648 685.289097 
L 817.447386 686.890111 
L 818.413125 686.986133 
L 819.378864 685.183681 
L 820.344602 670.350754 
L 821.310341 691.057574 
L 822.27608 695.540214 
L 823.241818 694.186547 
L 824.207557 693.606258 
L 825.173295 656.032364 
L 826.139034 691.658739 
L 827.104773 687.05293 
L 828.070511 670.540708 
L 829.03625 682.889647 
L 830.001989 682.026517 
L 830.967727 693.924582 
L 831.933466 691.090967 
L 832.899205 682.667345 
L 833.864943 683.770519 
L 834.830682 676.570106 
L 836.762159 686.139699 
L 837.727898 687.730287 
L 838.693636 638.289631 
L 839.659375 613.38718 
L 840.625114 630.421254 
L 841.590852 691.106618 
L 842.556591 693.654269 
L 843.52233 695.344002 
L 844.488068 654.427169 
L 845.453807 679.444429 
L 847.385284 694.917139 
L 848.351023 680.560131 
L 849.316761 695.475507 
L 850.2825 680.141616 
L 851.248239 681.932585 
L 852.213977 694.03939 
L 853.179716 692.268253 
L 854.145455 694.214726 
L 855.111193 685.476961 
L 857.04267 691.379021 
L 858.008409 695.48699 
L 858.974148 694.5915 
L 860.905625 690.324903 
L 861.871364 689.572401 
L 862.837102 684.683751 
L 863.802841 691.874783 
L 864.76858 686.523776 
L 865.734318 692.212939 
L 866.700057 681.468137 
L 867.665795 683.950035 
L 868.631534 691.150461 
L 869.597273 692.656498 
L 870.563011 689.689288 
L 871.52875 689.925163 
L 872.494489 694.022694 
L 872.494489 694.022694 
" style="fill:none;stroke:#1f77b4;stroke-linecap:square;stroke-width:1.5;"/>
   </g>
   <g id="line2d_15">
    <path clip-path="url(#p26d4bdf62e)" d="M 873.460227 693.01971 
L 874.425966 678.597994 
L 875.391705 695.686338 
L 876.357443 693.288978 
L 877.323182 689.410627 
L 878.28892 695.575709 
L 879.254659 694.649949 
L 880.220398 692.568836 
L 881.186136 694.95679 
L 882.151875 684.835087 
L 883.117614 694.153154 
L 884.083352 690.124511 
L 885.049091 693.999728 
L 886.01483 694.389029 
L 886.980568 677.461416 
L 887.946307 681.807338 
L 888.912045 693.980941 
L 889.877784 695.74582 
L 890.843523 694.166727 
L 891.809261 686.864021 
L 892.775 684.349775 
L 893.740739 695.660248 
L 895.672216 695.64354 
L 896.637955 694.46522 
L 897.603693 685.783802 
L 898.569432 694.003908 
L 899.53517 695.441069 
L 900.500909 693.662617 
L 901.466648 695.567349 
L 902.432386 694.029997 
L 903.398125 681.645575 
L 904.363864 695.75 
L 905.329602 694.222041 
L 906.295341 695.74582 
L 907.26108 695.64981 
L 908.226818 688.621597 
L 909.192557 689.81767 
L 910.158295 687.257491 
L 911.124034 689.278077 
L 912.089773 695.034026 
L 913.055511 679.968358 
L 914.02125 692.614757 
L 914.986989 695.538136 
L 915.952727 695.732259 
L 916.918466 690.753856 
L 917.884205 681.603822 
L 918.849943 689.978388 
L 919.815682 692.739992 
L 920.78142 688.328317 
L 921.747159 691.226652 
L 922.712898 684.225574 
L 923.678636 682.861468 
L 924.644375 686.416282 
L 925.610114 685.417467 
L 926.575852 687.31176 
L 927.541591 683.599363 
L 928.50733 694.413029 
L 929.473068 695.418103 
L 930.438807 695.430631 
L 931.404545 693.687673 
L 932.370284 678.300547 
L 933.336023 685.437298 
L 934.301761 695.662326 
L 935.2675 694.404681 
L 936.233239 688.586114 
L 937.198977 694.43077 
L 938.164716 692.777565 
L 939.130455 692.925778 
L 940.096193 688.984797 
L 941.061932 686.060385 
L 942.02767 693.762819 
L 942.993409 695.099778 
L 943.959148 689.664243 
L 944.924886 693.519629 
L 945.890625 695.48281 
L 946.856364 695.170756 
L 947.822102 694.06966 
L 948.787841 691.771458 
L 949.75358 684.595044 
L 951.685057 694.48922 
L 952.650795 694.16776 
L 953.616534 694.251266 
L 954.582273 690.134949 
L 955.548011 692.75043 
L 956.51375 686.940212 
L 957.479489 687.281503 
L 958.445227 695.662326 
L 959.410966 694.222041 
L 960.376705 694.060267 
L 961.342443 694.159412 
L 962.308182 694.668736 
L 963.27392 695.622675 
L 964.239659 694.148974 
L 965.205398 695.341912 
L 967.136875 692.735824 
L 968.102614 695.74582 
L 969.068352 695.724955 
L 970.034091 695.144654 
L 970.99983 693.579123 
L 971.965568 695.670674 
L 972.931307 695.733304 
L 973.897045 695.432721 
L 974.862784 694.16776 
L 975.828523 694.17612 
L 977.76 684.220349 
L 978.725739 692.55005 
L 980.657216 695.74582 
L 981.622955 695.698854 
L 982.588693 692.65024 
L 983.554432 695.704079 
L 984.52017 695.578832 
L 985.485909 692.537521 
L 986.451648 673.126965 
L 987.417386 691.669166 
L 988.383125 691.106618 
L 989.348864 695.733304 
L 990.314602 695.403496 
L 991.280341 694.890004 
L 992.24608 692.469679 
L 993.211818 676.564881 
L 994.177557 679.137588 
L 995.143295 688.950359 
L 996.109034 695.499518 
L 997.074773 693.713763 
L 998.040511 690.068152 
L 999.971989 695.329395 
L 1001.903466 695.385755 
L 1002.869205 693.992424 
L 1003.834943 691.172371 
L 1004.800682 690.983461 
L 1005.76642 686.586405 
L 1006.732159 695.377406 
L 1007.697898 693.898492 
L 1009.629375 694.025829 
L 1010.595114 695.162408 
L 1011.560852 695.169711 
L 1012.526591 694.254389 
L 1013.49233 694.857645 
L 1014.458068 693.90893 
L 1015.423807 690.001354 
L 1016.389545 694.186547 
L 1017.355284 694.063402 
L 1018.321023 689.961691 
L 1019.286761 688.711349 
L 1020.2525 695.525608 
L 1021.218239 694.156289 
L 1022.183977 694.061312 
L 1023.149716 690.712103 
L 1024.115455 686.227373 
L 1025.081193 687.256446 
L 1026.046932 694.967228 
L 1027.01267 694.798151 
L 1027.978409 691.219337 
L 1028.944148 689.719558 
L 1029.909886 693.524854 
L 1030.875625 690.957372 
L 1031.841364 693.30463 
L 1032.807102 690.430307 
L 1033.772841 694.96097 
L 1034.73858 693.166867 
L 1035.704318 695.285553 
L 1036.670057 694.054009 
L 1037.635795 689.752951 
L 1038.601534 694.159412 
L 1039.567273 692.39141 
L 1040.533011 695.661281 
L 1041.49875 695.651888 
L 1042.464489 693.509202 
L 1043.430227 695.542304 
L 1044.395966 692.739992 
L 1045.361705 692.531263 
L 1046.327443 695.74582 
L 1048.25892 692.552128 
L 1049.224659 694.021649 
L 1050.190398 695.74582 
L 1051.156136 694.138547 
L 1052.121875 695.614315 
L 1053.087614 695.74582 
L 1054.053352 692.339219 
L 1055.019091 695.75 
L 1055.98483 695.528743 
L 1056.950568 694.010166 
L 1057.916307 694.305535 
L 1058.882045 695.132138 
L 1059.847784 692.5156 
L 1060.813523 695.704079 
L 1061.779261 694.180289 
L 1062.745 694.138547 
L 1063.710739 695.74582 
L 1064.676477 695.628933 
L 1065.642216 695.704079 
L 1065.642216 695.704079 
" style="fill:none;stroke:#ff7f0e;stroke-linecap:square;stroke-width:1.5;"/>
   </g>
   <g id="line2d_16">
    <path clip-path="url(#p26d4bdf62e)" d="M 1066.607955 694.222041 
L 1067.573693 689.963781 
L 1068.539432 695.704079 
L 1069.50517 695.629978 
L 1070.470909 693.687673 
L 1071.436648 692.176399 
L 1072.402386 693.887009 
L 1073.368125 690.739238 
L 1074.333864 692.999879 
L 1075.299602 694.556017 
L 1076.265341 695.74582 
L 1077.23108 695.704079 
L 1078.196818 691.090967 
L 1080.128295 677.628404 
L 1081.094034 681.871012 
L 1082.059773 666.908658 
L 1083.025511 671.161705 
L 1083.99125 666.368032 
L 1084.956989 681.534935 
L 1085.922727 686.276429 
L 1086.888466 692.41123 
L 1087.854205 680.896196 
L 1089.785682 694.657252 
L 1090.75142 691.671256 
L 1091.717159 687.491276 
L 1092.682898 685.672128 
L 1093.648636 694.188637 
L 1094.614375 692.65442 
L 1095.580114 693.997649 
L 1096.545852 694.059222 
L 1097.511591 695.465069 
L 1098.47733 689.459683 
L 1099.443068 691.899828 
L 1100.408807 689.830186 
L 1101.374545 682.542099 
L 1102.340284 689.55048 
L 1103.306023 690.672452 
L 1104.271761 694.024784 
L 1105.2375 690.750721 
L 1106.203239 679.09688 
L 1107.168977 689.466986 
L 1108.134716 690.94172 
L 1109.100455 695.19162 
L 1110.066193 691.918614 
L 1111.031932 695.243812 
L 1111.99767 685.412253 
L 1112.963409 689.320863 
L 1113.929148 695.599709 
L 1114.894886 687.823174 
L 1115.860625 695.74582 
L 1116.826364 684.87266 
L 1117.792102 677.975952 
L 1118.757841 695.192665 
L 1119.72358 690.514846 
L 1120.689318 690.543025 
L 1121.655057 693.93502 
L 1122.620795 693.615651 
L 1123.586534 691.627425 
L 1124.552273 692.368444 
L 1125.518011 676.59933 
L 1126.48375 680.709377 
L 1127.449489 694.222041 
L 1128.415227 694.092615 
L 1129.380966 691.944704 
L 1130.346705 690.695407 
L 1131.312443 695.516215 
L 1132.278182 695.533956 
L 1133.24392 693.951716 
L 1134.209659 695.620585 
L 1135.175398 695.728079 
L 1136.141136 690.416745 
L 1137.106875 693.962155 
L 1138.072614 694.584197 
L 1139.038352 695.542304 
L 1140.004091 693.893279 
L 1140.96983 690.870743 
L 1141.935568 694.055042 
L 1142.901307 694.126019 
L 1143.867045 689.71121 
L 1144.832784 689.38975 
L 1145.798523 694.079053 
L 1146.764261 693.663662 
L 1147.73 695.32626 
L 1148.695739 695.566316 
L 1149.661477 692.273466 
L 1150.627216 695.573619 
L 1151.592955 693.962155 
L 1152.558693 695.378451 
L 1153.524432 693.926672 
L 1154.49017 695.652933 
L 1156.421648 695.653978 
L 1160.284602 695.689461 
L 1161.250341 695.362788 
L 1162.21608 695.32835 
L 1163.181818 695.74582 
L 1164.147557 695.64981 
L 1165.113295 694.180289 
L 1166.079034 695.694686 
L 1167.044773 694.143761 
L 1168.010511 694.222041 
L 1168.97625 695.381575 
L 1169.941989 692.412275 
L 1170.907727 693.968425 
L 1171.873466 693.988256 
L 1172.839205 695.279294 
L 1173.804943 689.852108 
L 1174.770682 693.559292 
L 1175.73642 693.856751 
L 1176.702159 688.814674 
L 1177.667898 690.582688 
L 1178.633636 694.648904 
L 1179.599375 691.776671 
L 1180.565114 689.441941 
L 1181.530852 691.015821 
L 1182.496591 689.345919 
L 1183.46233 691.165067 
L 1184.428068 691.328932 
L 1185.393807 694.062357 
L 1186.359545 694.514276 
L 1187.325284 690.60461 
L 1188.291023 693.861964 
L 1189.256761 690.294634 
L 1190.2225 678.043795 
L 1191.188239 668.895851 
L 1192.153977 686.94647 
L 1193.119716 680.192751 
L 1194.085455 692.628319 
L 1196.016932 675.865615 
L 1196.98267 677.374787 
L 1197.948409 686.106306 
L 1198.914148 684.480235 
L 1199.879886 688.964966 
L 1200.845625 682.217516 
L 1201.811364 681.238532 
L 1202.777102 691.131675 
L 1203.742841 693.01553 
L 1204.70858 692.569881 
L 1205.674318 694.114536 
L 1206.640057 687.327424 
L 1207.605795 690.109893 
L 1208.571534 683.307129 
L 1209.537273 686.740864 
L 1210.503011 691.798593 
L 1211.46875 691.805896 
L 1212.434489 680.273121 
L 1213.400227 692.990486 
L 1214.365966 691.174461 
L 1215.331705 692.656498 
L 1216.297443 687.662444 
L 1217.263182 685.876689 
L 1218.22892 679.761708 
L 1219.194659 680.878455 
L 1220.160398 686.327563 
L 1221.126136 688.228127 
L 1222.091875 689.688243 
L 1223.057614 46.75 
L 1224.023352 111.980646 
L 1224.989091 83.765526 
L 1225.95483 96.24388 
L 1226.920568 65.48529 
L 1227.886307 491.295252 
L 1228.852045 694.305535 
L 1229.817784 695.629978 
L 1230.783523 694.082188 
L 1231.749261 691.657694 
L 1232.715 695.385755 
L 1233.680739 695.699899 
L 1234.646477 695.61745 
L 1235.612216 695.656068 
L 1236.577955 693.790999 
L 1237.543693 695.577787 
L 1238.509432 693.599999 
L 1239.47517 694.117671 
L 1240.440909 695.64981 
L 1241.406648 695.635191 
L 1242.372386 693.716886 
L 1243.338125 695.351305 
L 1244.303864 695.070554 
L 1246.235341 689.606839 
L 1247.20108 690.686014 
L 1250.098295 695.687382 
L 1252.029773 695.699899 
L 1252.995511 695.325215 
L 1253.96125 695.602844 
L 1254.926989 695.74582 
L 1255.892727 690.99808 
L 1256.858466 690.931282 
L 1257.824205 694.098885 
L 1258.789943 692.636667 
L 1258.789943 692.636667 
" style="fill:none;stroke:#2ca02c;stroke-linecap:square;stroke-width:1.5;"/>
   </g>
   <g id="patch_3">
    <path d="M 42.925 728.2 
L 42.925 14.3 
" style="fill:none;stroke:#000000;stroke-linecap:square;stroke-linejoin:miter;stroke-width:0.8;"/>
   </g>
   <g id="patch_4">
    <path d="M 1317.7 728.2 
L 1317.7 14.3 
" style="fill:none;stroke:#000000;stroke-linecap:square;stroke-linejoin:miter;stroke-width:0.8;"/>
   </g>
   <g id="patch_5">
    <path d="M 42.925 728.2 
L 1317.7 728.2 
" style="fill:none;stroke:#000000;stroke-linecap:square;stroke-linejoin:miter;stroke-width:0.8;"/>
   </g>
   <g id="patch_6">
    <path d="M 42.925 14.3 
L 1317.7 14.3 
" style="fill:none;stroke:#000000;stroke-linecap:square;stroke-linejoin:miter;stroke-width:0.8;"/>
   </g>
  </g>
 </g>
 <defs>
  <clipPath id="p26d4bdf62e">
   <rect height="713.9" width="1274.775" x="42.925" y="14.3"/>
  </clipPath>
 </defs>
</svg>
