<?xml version="1.0" encoding="utf-8" standalone="no"?>
<!DOCTYPE svg PUBLIC "-//W3C//DTD SVG 1.1//EN"
  "http://www.w3.org/Graphics/SVG/1.1/DTD/svg11.dtd">
<!-- Created with matplotlib (http://matplotlib.org/) -->
<svg height="756pt" version="1.1" viewBox="0 0 1332 756" width="1332pt" xmlns="http://www.w3.org/2000/svg" xmlns:xlink="http://www.w3.org/1999/xlink">
 <defs>
  <style type="text/css">
*{stroke-linecap:butt;stroke-linejoin:round;}
  </style>
 </defs>
 <g id="figure_1">
  <g id="patch_1">
   <path d="M 0 756 
L 1332 756 
L 1332 0 
L 0 0 
z
" style="fill:#ffffff;"/>
  </g>
  <g id="axes_1">
   <g id="patch_2">
    <path d="M 55.925 723.2 
L 1317.7 723.2 
L 1317.7 14.3 
L 55.925 14.3 
z
" style="fill:#ffffff;"/>
   </g>
   <g id="matplotlib.axis_1">
    <g id="xtick_1">
     <g id="line2d_1">
      <defs>
       <path d="M 0 0 
L 0 3.5 
" id="m43fdd71b07" style="stroke:#000000;stroke-width:0.8;"/>
      </defs>
      <g>
       <use style="stroke:#000000;stroke-width:0.8;" x="113.278409" xlink:href="#m43fdd71b07" y="723.2"/>
      </g>
     </g>
     <g id="text_1">
      <!-- 0 -->
      <defs>
       <path d="M 31.78125 66.40625 
Q 24.171875 66.40625 20.328125 58.90625 
Q 16.5 51.421875 16.5 36.375 
Q 16.5 21.390625 20.328125 13.890625 
Q 24.171875 6.390625 31.78125 6.390625 
Q 39.453125 6.390625 43.28125 13.890625 
Q 47.125 21.390625 47.125 36.375 
Q 47.125 51.421875 43.28125 58.90625 
Q 39.453125 66.40625 31.78125 66.40625 
z
M 31.78125 74.21875 
Q 44.046875 74.21875 50.515625 64.515625 
Q 56.984375 54.828125 56.984375 36.375 
Q 56.984375 17.96875 50.515625 8.265625 
Q 44.046875 -1.421875 31.78125 -1.421875 
Q 19.53125 -1.421875 13.0625 8.265625 
Q 6.59375 17.96875 6.59375 36.375 
Q 6.59375 54.828125 13.0625 64.515625 
Q 19.53125 74.21875 31.78125 74.21875 
z
" id="DejaVuSans-30"/>
      </defs>
      <g transform="translate(108.506534 741.597656)scale(0.15 -0.15)">
       <use xlink:href="#DejaVuSans-30"/>
      </g>
     </g>
    </g>
    <g id="xtick_2">
     <g id="line2d_2">
      <g>
       <use style="stroke:#000000;stroke-width:0.8;" x="304.615887" xlink:href="#m43fdd71b07" y="723.2"/>
      </g>
     </g>
     <g id="text_2">
      <!-- 200 -->
      <defs>
       <path d="M 19.1875 8.296875 
L 53.609375 8.296875 
L 53.609375 0 
L 7.328125 0 
L 7.328125 8.296875 
Q 12.9375 14.109375 22.625 23.890625 
Q 32.328125 33.6875 34.8125 36.53125 
Q 39.546875 41.84375 41.421875 45.53125 
Q 43.3125 49.21875 43.3125 52.78125 
Q 43.3125 58.59375 39.234375 62.25 
Q 35.15625 65.921875 28.609375 65.921875 
Q 23.96875 65.921875 18.8125 64.3125 
Q 13.671875 62.703125 7.8125 59.421875 
L 7.8125 69.390625 
Q 13.765625 71.78125 18.9375 73 
Q 24.125 74.21875 28.421875 74.21875 
Q 39.75 74.21875 46.484375 68.546875 
Q 53.21875 62.890625 53.21875 53.421875 
Q 53.21875 48.921875 51.53125 44.890625 
Q 49.859375 40.875 45.40625 35.40625 
Q 44.1875 33.984375 37.640625 27.21875 
Q 31.109375 20.453125 19.1875 8.296875 
z
" id="DejaVuSans-32"/>
      </defs>
      <g transform="translate(290.300262 741.597656)scale(0.15 -0.15)">
       <use xlink:href="#DejaVuSans-32"/>
       <use x="63.623047" xlink:href="#DejaVuSans-30"/>
       <use x="127.246094" xlink:href="#DejaVuSans-30"/>
      </g>
     </g>
    </g>
    <g id="xtick_3">
     <g id="line2d_3">
      <g>
       <use style="stroke:#000000;stroke-width:0.8;" x="495.953365" xlink:href="#m43fdd71b07" y="723.2"/>
      </g>
     </g>
     <g id="text_3">
      <!-- 400 -->
      <defs>
       <path d="M 37.796875 64.3125 
L 12.890625 25.390625 
L 37.796875 25.390625 
z
M 35.203125 72.90625 
L 47.609375 72.90625 
L 47.609375 25.390625 
L 58.015625 25.390625 
L 58.015625 17.1875 
L 47.609375 17.1875 
L 47.609375 0 
L 37.796875 0 
L 37.796875 17.1875 
L 4.890625 17.1875 
L 4.890625 26.703125 
z
" id="DejaVuSans-34"/>
      </defs>
      <g transform="translate(481.63774 741.597656)scale(0.15 -0.15)">
       <use xlink:href="#DejaVuSans-34"/>
       <use x="63.623047" xlink:href="#DejaVuSans-30"/>
       <use x="127.246094" xlink:href="#DejaVuSans-30"/>
      </g>
     </g>
    </g>
    <g id="xtick_4">
     <g id="line2d_4">
      <g>
       <use style="stroke:#000000;stroke-width:0.8;" x="687.290844" xlink:href="#m43fdd71b07" y="723.2"/>
      </g>
     </g>
     <g id="text_4">
      <!-- 600 -->
      <defs>
       <path d="M 33.015625 40.375 
Q 26.375 40.375 22.484375 35.828125 
Q 18.609375 31.296875 18.609375 23.390625 
Q 18.609375 15.53125 22.484375 10.953125 
Q 26.375 6.390625 33.015625 6.390625 
Q 39.65625 6.390625 43.53125 10.953125 
Q 47.40625 15.53125 47.40625 23.390625 
Q 47.40625 31.296875 43.53125 35.828125 
Q 39.65625 40.375 33.015625 40.375 
z
M 52.59375 71.296875 
L 52.59375 62.3125 
Q 48.875 64.0625 45.09375 64.984375 
Q 41.3125 65.921875 37.59375 65.921875 
Q 27.828125 65.921875 22.671875 59.328125 
Q 17.53125 52.734375 16.796875 39.40625 
Q 19.671875 43.65625 24.015625 45.921875 
Q 28.375 48.1875 33.59375 48.1875 
Q 44.578125 48.1875 50.953125 41.515625 
Q 57.328125 34.859375 57.328125 23.390625 
Q 57.328125 12.15625 50.6875 5.359375 
Q 44.046875 -1.421875 33.015625 -1.421875 
Q 20.359375 -1.421875 13.671875 8.265625 
Q 6.984375 17.96875 6.984375 36.375 
Q 6.984375 53.65625 15.1875 63.9375 
Q 23.390625 74.21875 37.203125 74.21875 
Q 40.921875 74.21875 44.703125 73.484375 
Q 48.484375 72.75 52.59375 71.296875 
z
" id="DejaVuSans-36"/>
      </defs>
      <g transform="translate(672.975219 741.597656)scale(0.15 -0.15)">
       <use xlink:href="#DejaVuSans-36"/>
       <use x="63.623047" xlink:href="#DejaVuSans-30"/>
       <use x="127.246094" xlink:href="#DejaVuSans-30"/>
      </g>
     </g>
    </g>
    <g id="xtick_5">
     <g id="line2d_5">
      <g>
       <use style="stroke:#000000;stroke-width:0.8;" x="878.628322" xlink:href="#m43fdd71b07" y="723.2"/>
      </g>
     </g>
     <g id="text_5">
      <!-- 800 -->
      <defs>
       <path d="M 31.78125 34.625 
Q 24.75 34.625 20.71875 30.859375 
Q 16.703125 27.09375 16.703125 20.515625 
Q 16.703125 13.921875 20.71875 10.15625 
Q 24.75 6.390625 31.78125 6.390625 
Q 38.8125 6.390625 42.859375 10.171875 
Q 46.921875 13.96875 46.921875 20.515625 
Q 46.921875 27.09375 42.890625 30.859375 
Q 38.875 34.625 31.78125 34.625 
z
M 21.921875 38.8125 
Q 15.578125 40.375 12.03125 44.71875 
Q 8.5 49.078125 8.5 55.328125 
Q 8.5 64.0625 14.71875 69.140625 
Q 20.953125 74.21875 31.78125 74.21875 
Q 42.671875 74.21875 48.875 69.140625 
Q 55.078125 64.0625 55.078125 55.328125 
Q 55.078125 49.078125 51.53125 44.71875 
Q 48 40.375 41.703125 38.8125 
Q 48.828125 37.15625 52.796875 32.3125 
Q 56.78125 27.484375 56.78125 20.515625 
Q 56.78125 9.90625 50.3125 4.234375 
Q 43.84375 -1.421875 31.78125 -1.421875 
Q 19.734375 -1.421875 13.25 4.234375 
Q 6.78125 9.90625 6.78125 20.515625 
Q 6.78125 27.484375 10.78125 32.3125 
Q 14.796875 37.15625 21.921875 38.8125 
z
M 18.3125 54.390625 
Q 18.3125 48.734375 21.84375 45.5625 
Q 25.390625 42.390625 31.78125 42.390625 
Q 38.140625 42.390625 41.71875 45.5625 
Q 45.3125 48.734375 45.3125 54.390625 
Q 45.3125 60.0625 41.71875 63.234375 
Q 38.140625 66.40625 31.78125 66.40625 
Q 25.390625 66.40625 21.84375 63.234375 
Q 18.3125 60.0625 18.3125 54.390625 
z
" id="DejaVuSans-38"/>
      </defs>
      <g transform="translate(864.312697 741.597656)scale(0.15 -0.15)">
       <use xlink:href="#DejaVuSans-38"/>
       <use x="63.623047" xlink:href="#DejaVuSans-30"/>
       <use x="127.246094" xlink:href="#DejaVuSans-30"/>
      </g>
     </g>
    </g>
    <g id="xtick_6">
     <g id="line2d_6">
      <g>
       <use style="stroke:#000000;stroke-width:0.8;" x="1069.9658" xlink:href="#m43fdd71b07" y="723.2"/>
      </g>
     </g>
     <g id="text_6">
      <!-- 1000 -->
      <defs>
       <path d="M 12.40625 8.296875 
L 28.515625 8.296875 
L 28.515625 63.921875 
L 10.984375 60.40625 
L 10.984375 69.390625 
L 28.421875 72.90625 
L 38.28125 72.90625 
L 38.28125 8.296875 
L 54.390625 8.296875 
L 54.390625 0 
L 12.40625 0 
z
" id="DejaVuSans-31"/>
      </defs>
      <g transform="translate(1050.8783 741.597656)scale(0.15 -0.15)">
       <use xlink:href="#DejaVuSans-31"/>
       <use x="63.623047" xlink:href="#DejaVuSans-30"/>
       <use x="127.246094" xlink:href="#DejaVuSans-30"/>
       <use x="190.869141" xlink:href="#DejaVuSans-30"/>
      </g>
     </g>
    </g>
    <g id="xtick_7">
     <g id="line2d_7">
      <g>
       <use style="stroke:#000000;stroke-width:0.8;" x="1261.303278" xlink:href="#m43fdd71b07" y="723.2"/>
      </g>
     </g>
     <g id="text_7">
      <!-- 1200 -->
      <g transform="translate(1242.215778 741.597656)scale(0.15 -0.15)">
       <use xlink:href="#DejaVuSans-31"/>
       <use x="63.623047" xlink:href="#DejaVuSans-32"/>
       <use x="127.246094" xlink:href="#DejaVuSans-30"/>
       <use x="190.869141" xlink:href="#DejaVuSans-30"/>
      </g>
     </g>
    </g>
    <g id="text_8">
     <!-- 15-Minute Steps -->
     <defs>
      <path d="M 10.796875 72.90625 
L 49.515625 72.90625 
L 49.515625 64.59375 
L 19.828125 64.59375 
L 19.828125 46.734375 
Q 21.96875 47.46875 24.109375 47.828125 
Q 26.265625 48.1875 28.421875 48.1875 
Q 40.625 48.1875 47.75 41.5 
Q 54.890625 34.8125 54.890625 23.390625 
Q 54.890625 11.625 47.5625 5.09375 
Q 40.234375 -1.421875 26.90625 -1.421875 
Q 22.3125 -1.421875 17.546875 -0.640625 
Q 12.796875 0.140625 7.71875 1.703125 
L 7.71875 11.625 
Q 12.109375 9.234375 16.796875 8.0625 
Q 21.484375 6.890625 26.703125 6.890625 
Q 35.15625 6.890625 40.078125 11.328125 
Q 45.015625 15.765625 45.015625 23.390625 
Q 45.015625 31 40.078125 35.4375 
Q 35.15625 39.890625 26.703125 39.890625 
Q 22.75 39.890625 18.8125 39.015625 
Q 14.890625 38.140625 10.796875 36.28125 
z
" id="DejaVuSans-35"/>
      <path d="M 4.890625 31.390625 
L 31.203125 31.390625 
L 31.203125 23.390625 
L 4.890625 23.390625 
z
" id="DejaVuSans-2d"/>
      <path d="M 9.8125 72.90625 
L 24.515625 72.90625 
L 43.109375 23.296875 
L 61.8125 72.90625 
L 76.515625 72.90625 
L 76.515625 0 
L 66.890625 0 
L 66.890625 64.015625 
L 48.09375 14.015625 
L 38.1875 14.015625 
L 19.390625 64.015625 
L 19.390625 0 
L 9.8125 0 
z
" id="DejaVuSans-4d"/>
      <path d="M 9.421875 54.6875 
L 18.40625 54.6875 
L 18.40625 0 
L 9.421875 0 
z
M 9.421875 75.984375 
L 18.40625 75.984375 
L 18.40625 64.59375 
L 9.421875 64.59375 
z
" id="DejaVuSans-69"/>
      <path d="M 54.890625 33.015625 
L 54.890625 0 
L 45.90625 0 
L 45.90625 32.71875 
Q 45.90625 40.484375 42.875 44.328125 
Q 39.84375 48.1875 33.796875 48.1875 
Q 26.515625 48.1875 22.3125 43.546875 
Q 18.109375 38.921875 18.109375 30.90625 
L 18.109375 0 
L 9.078125 0 
L 9.078125 54.6875 
L 18.109375 54.6875 
L 18.109375 46.1875 
Q 21.34375 51.125 25.703125 53.5625 
Q 30.078125 56 35.796875 56 
Q 45.21875 56 50.046875 50.171875 
Q 54.890625 44.34375 54.890625 33.015625 
z
" id="DejaVuSans-6e"/>
      <path d="M 8.5 21.578125 
L 8.5 54.6875 
L 17.484375 54.6875 
L 17.484375 21.921875 
Q 17.484375 14.15625 20.5 10.265625 
Q 23.53125 6.390625 29.59375 6.390625 
Q 36.859375 6.390625 41.078125 11.03125 
Q 45.3125 15.671875 45.3125 23.6875 
L 45.3125 54.6875 
L 54.296875 54.6875 
L 54.296875 0 
L 45.3125 0 
L 45.3125 8.40625 
Q 42.046875 3.421875 37.71875 1 
Q 33.40625 -1.421875 27.6875 -1.421875 
Q 18.265625 -1.421875 13.375 4.4375 
Q 8.5 10.296875 8.5 21.578125 
z
M 31.109375 56 
z
" id="DejaVuSans-75"/>
      <path d="M 18.3125 70.21875 
L 18.3125 54.6875 
L 36.8125 54.6875 
L 36.8125 47.703125 
L 18.3125 47.703125 
L 18.3125 18.015625 
Q 18.3125 11.328125 20.140625 9.421875 
Q 21.96875 7.515625 27.59375 7.515625 
L 36.8125 7.515625 
L 36.8125 0 
L 27.59375 0 
Q 17.1875 0 13.234375 3.875 
Q 9.28125 7.765625 9.28125 18.015625 
L 9.28125 47.703125 
L 2.6875 47.703125 
L 2.6875 54.6875 
L 9.28125 54.6875 
L 9.28125 70.21875 
z
" id="DejaVuSans-74"/>
      <path d="M 56.203125 29.59375 
L 56.203125 25.203125 
L 14.890625 25.203125 
Q 15.484375 15.921875 20.484375 11.0625 
Q 25.484375 6.203125 34.421875 6.203125 
Q 39.59375 6.203125 44.453125 7.46875 
Q 49.3125 8.734375 54.109375 11.28125 
L 54.109375 2.78125 
Q 49.265625 0.734375 44.1875 -0.34375 
Q 39.109375 -1.421875 33.890625 -1.421875 
Q 20.796875 -1.421875 13.15625 6.1875 
Q 5.515625 13.8125 5.515625 26.8125 
Q 5.515625 40.234375 12.765625 48.109375 
Q 20.015625 56 32.328125 56 
Q 43.359375 56 49.78125 48.890625 
Q 56.203125 41.796875 56.203125 29.59375 
z
M 47.21875 32.234375 
Q 47.125 39.59375 43.09375 43.984375 
Q 39.0625 48.390625 32.421875 48.390625 
Q 24.90625 48.390625 20.390625 44.140625 
Q 15.875 39.890625 15.1875 32.171875 
z
" id="DejaVuSans-65"/>
      <path id="DejaVuSans-20"/>
      <path d="M 53.515625 70.515625 
L 53.515625 60.890625 
Q 47.90625 63.578125 42.921875 64.890625 
Q 37.9375 66.21875 33.296875 66.21875 
Q 25.25 66.21875 20.875 63.09375 
Q 16.5 59.96875 16.5 54.203125 
Q 16.5 49.359375 19.40625 46.890625 
Q 22.3125 44.4375 30.421875 42.921875 
L 36.375 41.703125 
Q 47.40625 39.59375 52.65625 34.296875 
Q 57.90625 29 57.90625 20.125 
Q 57.90625 9.515625 50.796875 4.046875 
Q 43.703125 -1.421875 29.984375 -1.421875 
Q 24.8125 -1.421875 18.96875 -0.25 
Q 13.140625 0.921875 6.890625 3.21875 
L 6.890625 13.375 
Q 12.890625 10.015625 18.65625 8.296875 
Q 24.421875 6.59375 29.984375 6.59375 
Q 38.421875 6.59375 43.015625 9.90625 
Q 47.609375 13.234375 47.609375 19.390625 
Q 47.609375 24.75 44.3125 27.78125 
Q 41.015625 30.8125 33.5 32.328125 
L 27.484375 33.5 
Q 16.453125 35.6875 11.515625 40.375 
Q 6.59375 45.0625 6.59375 53.421875 
Q 6.59375 63.09375 13.40625 68.65625 
Q 20.21875 74.21875 32.171875 74.21875 
Q 37.3125 74.21875 42.625 73.28125 
Q 47.953125 72.359375 53.515625 70.515625 
z
" id="DejaVuSans-53"/>
      <path d="M 18.109375 8.203125 
L 18.109375 -20.796875 
L 9.078125 -20.796875 
L 9.078125 54.6875 
L 18.109375 54.6875 
L 18.109375 46.390625 
Q 20.953125 51.265625 25.265625 53.625 
Q 29.59375 56 35.59375 56 
Q 45.5625 56 51.78125 48.09375 
Q 58.015625 40.1875 58.015625 27.296875 
Q 58.015625 14.40625 51.78125 6.484375 
Q 45.5625 -1.421875 35.59375 -1.421875 
Q 29.59375 -1.421875 25.265625 0.953125 
Q 20.953125 3.328125 18.109375 8.203125 
z
M 48.6875 27.296875 
Q 48.6875 37.203125 44.609375 42.84375 
Q 40.53125 48.484375 33.40625 48.484375 
Q 26.265625 48.484375 22.1875 42.84375 
Q 18.109375 37.203125 18.109375 27.296875 
Q 18.109375 17.390625 22.1875 11.75 
Q 26.265625 6.109375 33.40625 6.109375 
Q 40.53125 6.109375 44.609375 11.75 
Q 48.6875 17.390625 48.6875 27.296875 
z
" id="DejaVuSans-70"/>
      <path d="M 44.28125 53.078125 
L 44.28125 44.578125 
Q 40.484375 46.53125 36.375 47.5 
Q 32.28125 48.484375 27.875 48.484375 
Q 21.1875 48.484375 17.84375 46.4375 
Q 14.5 44.390625 14.5 40.28125 
Q 14.5 37.15625 16.890625 35.375 
Q 19.28125 33.59375 26.515625 31.984375 
L 29.59375 31.296875 
Q 39.15625 29.25 43.1875 25.515625 
Q 47.21875 21.78125 47.21875 15.09375 
Q 47.21875 7.46875 41.1875 3.015625 
Q 35.15625 -1.421875 24.609375 -1.421875 
Q 20.21875 -1.421875 15.453125 -0.5625 
Q 10.6875 0.296875 5.421875 2 
L 5.421875 11.28125 
Q 10.40625 8.6875 15.234375 7.390625 
Q 20.0625 6.109375 24.8125 6.109375 
Q 31.15625 6.109375 34.5625 8.28125 
Q 37.984375 10.453125 37.984375 14.40625 
Q 37.984375 18.0625 35.515625 20.015625 
Q 33.0625 21.96875 24.703125 23.78125 
L 21.578125 24.515625 
Q 13.234375 26.265625 9.515625 29.90625 
Q 5.8125 33.546875 5.8125 39.890625 
Q 5.8125 47.609375 11.28125 51.796875 
Q 16.75 56 26.8125 56 
Q 31.78125 56 36.171875 55.265625 
Q 40.578125 54.546875 44.28125 53.078125 
z
" id="DejaVuSans-73"/>
     </defs>
     <g transform="translate(645.989844 756.315625)scale(0.1 -0.1)">
      <use xlink:href="#DejaVuSans-31"/>
      <use x="63.623047" xlink:href="#DejaVuSans-35"/>
      <use x="127.246094" xlink:href="#DejaVuSans-2d"/>
      <use x="163.330078" xlink:href="#DejaVuSans-4d"/>
      <use x="249.609375" xlink:href="#DejaVuSans-69"/>
      <use x="277.392578" xlink:href="#DejaVuSans-6e"/>
      <use x="340.771484" xlink:href="#DejaVuSans-75"/>
      <use x="404.150391" xlink:href="#DejaVuSans-74"/>
      <use x="443.359375" xlink:href="#DejaVuSans-65"/>
      <use x="504.882812" xlink:href="#DejaVuSans-20"/>
      <use x="536.669922" xlink:href="#DejaVuSans-53"/>
      <use x="600.146484" xlink:href="#DejaVuSans-74"/>
      <use x="639.355469" xlink:href="#DejaVuSans-65"/>
      <use x="700.878906" xlink:href="#DejaVuSans-70"/>
      <use x="764.355469" xlink:href="#DejaVuSans-73"/>
     </g>
    </g>
   </g>
   <g id="matplotlib.axis_2">
    <g id="ytick_1">
     <g id="line2d_8">
      <defs>
       <path d="M 0 0 
L -3.5 0 
" id="ma08125fa2e" style="stroke:#000000;stroke-width:0.8;"/>
      </defs>
      <g>
       <use style="stroke:#000000;stroke-width:0.8;" x="55.925" xlink:href="#ma08125fa2e" y="696.619799"/>
      </g>
     </g>
     <g id="text_9">
      <!-- 0 -->
      <g transform="translate(39.38125 702.318627)scale(0.15 -0.15)">
       <use xlink:href="#DejaVuSans-30"/>
      </g>
     </g>
    </g>
    <g id="ytick_2">
     <g id="line2d_9">
      <g>
       <use style="stroke:#000000;stroke-width:0.8;" x="55.925" xlink:href="#ma08125fa2e" y="616.520792"/>
      </g>
     </g>
     <g id="text_10">
      <!-- 1000 -->
      <g transform="translate(10.75 622.21962)scale(0.15 -0.15)">
       <use xlink:href="#DejaVuSans-31"/>
       <use x="63.623047" xlink:href="#DejaVuSans-30"/>
       <use x="127.246094" xlink:href="#DejaVuSans-30"/>
       <use x="190.869141" xlink:href="#DejaVuSans-30"/>
      </g>
     </g>
    </g>
    <g id="ytick_3">
     <g id="line2d_10">
      <g>
       <use style="stroke:#000000;stroke-width:0.8;" x="55.925" xlink:href="#ma08125fa2e" y="536.421785"/>
      </g>
     </g>
     <g id="text_11">
      <!-- 2000 -->
      <g transform="translate(10.75 542.120613)scale(0.15 -0.15)">
       <use xlink:href="#DejaVuSans-32"/>
       <use x="63.623047" xlink:href="#DejaVuSans-30"/>
       <use x="127.246094" xlink:href="#DejaVuSans-30"/>
       <use x="190.869141" xlink:href="#DejaVuSans-30"/>
      </g>
     </g>
    </g>
    <g id="ytick_4">
     <g id="line2d_11">
      <g>
       <use style="stroke:#000000;stroke-width:0.8;" x="55.925" xlink:href="#ma08125fa2e" y="456.322777"/>
      </g>
     </g>
     <g id="text_12">
      <!-- 3000 -->
      <defs>
       <path d="M 40.578125 39.3125 
Q 47.65625 37.796875 51.625 33 
Q 55.609375 28.21875 55.609375 21.1875 
Q 55.609375 10.40625 48.1875 4.484375 
Q 40.765625 -1.421875 27.09375 -1.421875 
Q 22.515625 -1.421875 17.65625 -0.515625 
Q 12.796875 0.390625 7.625 2.203125 
L 7.625 11.71875 
Q 11.71875 9.328125 16.59375 8.109375 
Q 21.484375 6.890625 26.8125 6.890625 
Q 36.078125 6.890625 40.9375 10.546875 
Q 45.796875 14.203125 45.796875 21.1875 
Q 45.796875 27.640625 41.28125 31.265625 
Q 36.765625 34.90625 28.71875 34.90625 
L 20.21875 34.90625 
L 20.21875 43.015625 
L 29.109375 43.015625 
Q 36.375 43.015625 40.234375 45.921875 
Q 44.09375 48.828125 44.09375 54.296875 
Q 44.09375 59.90625 40.109375 62.90625 
Q 36.140625 65.921875 28.71875 65.921875 
Q 24.65625 65.921875 20.015625 65.03125 
Q 15.375 64.15625 9.8125 62.3125 
L 9.8125 71.09375 
Q 15.4375 72.65625 20.34375 73.4375 
Q 25.25 74.21875 29.59375 74.21875 
Q 40.828125 74.21875 47.359375 69.109375 
Q 53.90625 64.015625 53.90625 55.328125 
Q 53.90625 49.265625 50.4375 45.09375 
Q 46.96875 40.921875 40.578125 39.3125 
z
" id="DejaVuSans-33"/>
      </defs>
      <g transform="translate(10.75 462.021605)scale(0.15 -0.15)">
       <use xlink:href="#DejaVuSans-33"/>
       <use x="63.623047" xlink:href="#DejaVuSans-30"/>
       <use x="127.246094" xlink:href="#DejaVuSans-30"/>
       <use x="190.869141" xlink:href="#DejaVuSans-30"/>
      </g>
     </g>
    </g>
    <g id="ytick_5">
     <g id="line2d_12">
      <g>
       <use style="stroke:#000000;stroke-width:0.8;" x="55.925" xlink:href="#ma08125fa2e" y="376.22377"/>
      </g>
     </g>
     <g id="text_13">
      <!-- 4000 -->
      <g transform="translate(10.75 381.922598)scale(0.15 -0.15)">
       <use xlink:href="#DejaVuSans-34"/>
       <use x="63.623047" xlink:href="#DejaVuSans-30"/>
       <use x="127.246094" xlink:href="#DejaVuSans-30"/>
       <use x="190.869141" xlink:href="#DejaVuSans-30"/>
      </g>
     </g>
    </g>
    <g id="ytick_6">
     <g id="line2d_13">
      <g>
       <use style="stroke:#000000;stroke-width:0.8;" x="55.925" xlink:href="#ma08125fa2e" y="296.124763"/>
      </g>
     </g>
     <g id="text_14">
      <!-- 5000 -->
      <g transform="translate(10.75 301.823591)scale(0.15 -0.15)">
       <use xlink:href="#DejaVuSans-35"/>
       <use x="63.623047" xlink:href="#DejaVuSans-30"/>
       <use x="127.246094" xlink:href="#DejaVuSans-30"/>
       <use x="190.869141" xlink:href="#DejaVuSans-30"/>
      </g>
     </g>
    </g>
    <g id="ytick_7">
     <g id="line2d_14">
      <g>
       <use style="stroke:#000000;stroke-width:0.8;" x="55.925" xlink:href="#ma08125fa2e" y="216.025755"/>
      </g>
     </g>
     <g id="text_15">
      <!-- 6000 -->
      <g transform="translate(10.75 221.724584)scale(0.15 -0.15)">
       <use xlink:href="#DejaVuSans-36"/>
       <use x="63.623047" xlink:href="#DejaVuSans-30"/>
       <use x="127.246094" xlink:href="#DejaVuSans-30"/>
       <use x="190.869141" xlink:href="#DejaVuSans-30"/>
      </g>
     </g>
    </g>
    <g id="ytick_8">
     <g id="line2d_15">
      <g>
       <use style="stroke:#000000;stroke-width:0.8;" x="55.925" xlink:href="#ma08125fa2e" y="135.926748"/>
      </g>
     </g>
     <g id="text_16">
      <!-- 7000 -->
      <defs>
       <path d="M 8.203125 72.90625 
L 55.078125 72.90625 
L 55.078125 68.703125 
L 28.609375 0 
L 18.3125 0 
L 43.21875 64.59375 
L 8.203125 64.59375 
z
" id="DejaVuSans-37"/>
      </defs>
      <g transform="translate(10.75 141.625576)scale(0.15 -0.15)">
       <use xlink:href="#DejaVuSans-37"/>
       <use x="63.623047" xlink:href="#DejaVuSans-30"/>
       <use x="127.246094" xlink:href="#DejaVuSans-30"/>
       <use x="190.869141" xlink:href="#DejaVuSans-30"/>
      </g>
     </g>
    </g>
    <g id="ytick_9">
     <g id="line2d_16">
      <g>
       <use style="stroke:#000000;stroke-width:0.8;" x="55.925" xlink:href="#ma08125fa2e" y="55.827741"/>
      </g>
     </g>
     <g id="text_17">
      <!-- 8000 -->
      <g transform="translate(10.75 61.526569)scale(0.15 -0.15)">
       <use xlink:href="#DejaVuSans-38"/>
       <use x="63.623047" xlink:href="#DejaVuSans-30"/>
       <use x="127.246094" xlink:href="#DejaVuSans-30"/>
       <use x="190.869141" xlink:href="#DejaVuSans-30"/>
      </g>
     </g>
    </g>
    <g id="text_18">
     <!-- Bandwidth (kbps) -->
     <defs>
      <path d="M 19.671875 34.8125 
L 19.671875 8.109375 
L 35.5 8.109375 
Q 43.453125 8.109375 47.28125 11.40625 
Q 51.125 14.703125 51.125 21.484375 
Q 51.125 28.328125 47.28125 31.5625 
Q 43.453125 34.8125 35.5 34.8125 
z
M 19.671875 64.796875 
L 19.671875 42.828125 
L 34.28125 42.828125 
Q 41.5 42.828125 45.03125 45.53125 
Q 48.578125 48.25 48.578125 53.8125 
Q 48.578125 59.328125 45.03125 62.0625 
Q 41.5 64.796875 34.28125 64.796875 
z
M 9.8125 72.90625 
L 35.015625 72.90625 
Q 46.296875 72.90625 52.390625 68.21875 
Q 58.5 63.53125 58.5 54.890625 
Q 58.5 48.1875 55.375 44.234375 
Q 52.25 40.28125 46.1875 39.3125 
Q 53.46875 37.75 57.5 32.78125 
Q 61.53125 27.828125 61.53125 20.40625 
Q 61.53125 10.640625 54.890625 5.3125 
Q 48.25 0 35.984375 0 
L 9.8125 0 
z
" id="DejaVuSans-42"/>
      <path d="M 34.28125 27.484375 
Q 23.390625 27.484375 19.1875 25 
Q 14.984375 22.515625 14.984375 16.5 
Q 14.984375 11.71875 18.140625 8.90625 
Q 21.296875 6.109375 26.703125 6.109375 
Q 34.1875 6.109375 38.703125 11.40625 
Q 43.21875 16.703125 43.21875 25.484375 
L 43.21875 27.484375 
z
M 52.203125 31.203125 
L 52.203125 0 
L 43.21875 0 
L 43.21875 8.296875 
Q 40.140625 3.328125 35.546875 0.953125 
Q 30.953125 -1.421875 24.3125 -1.421875 
Q 15.921875 -1.421875 10.953125 3.296875 
Q 6 8.015625 6 15.921875 
Q 6 25.140625 12.171875 29.828125 
Q 18.359375 34.515625 30.609375 34.515625 
L 43.21875 34.515625 
L 43.21875 35.40625 
Q 43.21875 41.609375 39.140625 45 
Q 35.0625 48.390625 27.6875 48.390625 
Q 23 48.390625 18.546875 47.265625 
Q 14.109375 46.140625 10.015625 43.890625 
L 10.015625 52.203125 
Q 14.9375 54.109375 19.578125 55.046875 
Q 24.21875 56 28.609375 56 
Q 40.484375 56 46.34375 49.84375 
Q 52.203125 43.703125 52.203125 31.203125 
z
" id="DejaVuSans-61"/>
      <path d="M 45.40625 46.390625 
L 45.40625 75.984375 
L 54.390625 75.984375 
L 54.390625 0 
L 45.40625 0 
L 45.40625 8.203125 
Q 42.578125 3.328125 38.25 0.953125 
Q 33.9375 -1.421875 27.875 -1.421875 
Q 17.96875 -1.421875 11.734375 6.484375 
Q 5.515625 14.40625 5.515625 27.296875 
Q 5.515625 40.1875 11.734375 48.09375 
Q 17.96875 56 27.875 56 
Q 33.9375 56 38.25 53.625 
Q 42.578125 51.265625 45.40625 46.390625 
z
M 14.796875 27.296875 
Q 14.796875 17.390625 18.875 11.75 
Q 22.953125 6.109375 30.078125 6.109375 
Q 37.203125 6.109375 41.296875 11.75 
Q 45.40625 17.390625 45.40625 27.296875 
Q 45.40625 37.203125 41.296875 42.84375 
Q 37.203125 48.484375 30.078125 48.484375 
Q 22.953125 48.484375 18.875 42.84375 
Q 14.796875 37.203125 14.796875 27.296875 
z
" id="DejaVuSans-64"/>
      <path d="M 4.203125 54.6875 
L 13.1875 54.6875 
L 24.421875 12.015625 
L 35.59375 54.6875 
L 46.1875 54.6875 
L 57.421875 12.015625 
L 68.609375 54.6875 
L 77.59375 54.6875 
L 63.28125 0 
L 52.6875 0 
L 40.921875 44.828125 
L 29.109375 0 
L 18.5 0 
z
" id="DejaVuSans-77"/>
      <path d="M 54.890625 33.015625 
L 54.890625 0 
L 45.90625 0 
L 45.90625 32.71875 
Q 45.90625 40.484375 42.875 44.328125 
Q 39.84375 48.1875 33.796875 48.1875 
Q 26.515625 48.1875 22.3125 43.546875 
Q 18.109375 38.921875 18.109375 30.90625 
L 18.109375 0 
L 9.078125 0 
L 9.078125 75.984375 
L 18.109375 75.984375 
L 18.109375 46.1875 
Q 21.34375 51.125 25.703125 53.5625 
Q 30.078125 56 35.796875 56 
Q 45.21875 56 50.046875 50.171875 
Q 54.890625 44.34375 54.890625 33.015625 
z
" id="DejaVuSans-68"/>
      <path d="M 31 75.875 
Q 24.46875 64.65625 21.28125 53.65625 
Q 18.109375 42.671875 18.109375 31.390625 
Q 18.109375 20.125 21.3125 9.0625 
Q 24.515625 -2 31 -13.1875 
L 23.1875 -13.1875 
Q 15.875 -1.703125 12.234375 9.375 
Q 8.59375 20.453125 8.59375 31.390625 
Q 8.59375 42.28125 12.203125 53.3125 
Q 15.828125 64.359375 23.1875 75.875 
z
" id="DejaVuSans-28"/>
      <path d="M 9.078125 75.984375 
L 18.109375 75.984375 
L 18.109375 31.109375 
L 44.921875 54.6875 
L 56.390625 54.6875 
L 27.390625 29.109375 
L 57.625 0 
L 45.90625 0 
L 18.109375 26.703125 
L 18.109375 0 
L 9.078125 0 
z
" id="DejaVuSans-6b"/>
      <path d="M 48.6875 27.296875 
Q 48.6875 37.203125 44.609375 42.84375 
Q 40.53125 48.484375 33.40625 48.484375 
Q 26.265625 48.484375 22.1875 42.84375 
Q 18.109375 37.203125 18.109375 27.296875 
Q 18.109375 17.390625 22.1875 11.75 
Q 26.265625 6.109375 33.40625 6.109375 
Q 40.53125 6.109375 44.609375 11.75 
Q 48.6875 17.390625 48.6875 27.296875 
z
M 18.109375 46.390625 
Q 20.953125 51.265625 25.265625 53.625 
Q 29.59375 56 35.59375 56 
Q 45.5625 56 51.78125 48.09375 
Q 58.015625 40.1875 58.015625 27.296875 
Q 58.015625 14.40625 51.78125 6.484375 
Q 45.5625 -1.421875 35.59375 -1.421875 
Q 29.59375 -1.421875 25.265625 0.953125 
Q 20.953125 3.328125 18.109375 8.203125 
L 18.109375 0 
L 9.078125 0 
L 9.078125 75.984375 
L 18.109375 75.984375 
z
" id="DejaVuSans-62"/>
      <path d="M 8.015625 75.875 
L 15.828125 75.875 
Q 23.140625 64.359375 26.78125 53.3125 
Q 30.421875 42.28125 30.421875 31.390625 
Q 30.421875 20.453125 26.78125 9.375 
Q 23.140625 -1.703125 15.828125 -13.1875 
L 8.015625 -13.1875 
Q 14.5 -2 17.703125 9.0625 
Q 20.90625 20.125 20.90625 31.390625 
Q 20.90625 42.671875 17.703125 53.65625 
Q 14.5 64.65625 8.015625 75.875 
z
" id="DejaVuSans-29"/>
     </defs>
     <g transform="translate(4.670312 412.707812)rotate(-90)scale(0.1 -0.1)">
      <use xlink:href="#DejaVuSans-42"/>
      <use x="68.603516" xlink:href="#DejaVuSans-61"/>
      <use x="129.882812" xlink:href="#DejaVuSans-6e"/>
      <use x="193.261719" xlink:href="#DejaVuSans-64"/>
      <use x="256.738281" xlink:href="#DejaVuSans-77"/>
      <use x="338.525391" xlink:href="#DejaVuSans-69"/>
      <use x="366.308594" xlink:href="#DejaVuSans-64"/>
      <use x="429.785156" xlink:href="#DejaVuSans-74"/>
      <use x="468.994141" xlink:href="#DejaVuSans-68"/>
      <use x="532.373047" xlink:href="#DejaVuSans-20"/>
      <use x="564.160156" xlink:href="#DejaVuSans-28"/>
      <use x="603.173828" xlink:href="#DejaVuSans-6b"/>
      <use x="661.083984" xlink:href="#DejaVuSans-62"/>
      <use x="724.560547" xlink:href="#DejaVuSans-70"/>
      <use x="788.037109" xlink:href="#DejaVuSans-73"/>
      <use x="840.136719" xlink:href="#DejaVuSans-29"/>
     </g>
    </g>
   </g>
   <g id="line2d_17">
    <path clip-path="url(#pe14b98fe4e)" d="M 113.278409 666.348782 
L 114.235096 648.221488 
L 115.191784 642.959872 
L 116.148471 659.040901 
L 117.105159 659.383373 
L 118.061846 658.976117 
L 119.018533 671.870984 
L 119.975221 673.936473 
L 120.931908 659.653931 
L 121.888596 676.115879 
L 122.845283 668.983151 
L 123.80197 658.121725 
L 124.758658 652.535444 
L 125.715345 664.981044 
L 126.672033 669.146905 
L 127.62872 674.441986 
L 128.585407 664.291127 
L 129.542095 672.291776 
L 130.498782 667.902351 
L 131.45547 658.534676 
L 132.412157 662.454192 
L 133.368844 668.883467 
L 134.325532 668.475499 
L 135.282219 658.911325 
L 136.238906 677.776956 
L 137.195594 680.355071 
L 138.152281 681.183831 
L 140.065656 665.559182 
L 141.022343 678.217677 
L 141.979031 678.117281 
L 142.935718 683.121867 
L 143.892406 685.64517 
L 144.849093 680.371451 
L 145.80578 682.806461 
L 146.762468 680.19416 
L 147.719155 685.724196 
L 148.675843 681.366097 
L 149.63253 678.5694 
L 150.589217 684.078786 
L 151.545905 685.024315 
L 152.502592 683.247895 
L 153.45928 663.618295 
L 154.415967 678.681178 
L 156.329342 649.743722 
L 157.286029 645.368538 
L 158.242716 648.87367 
L 159.199404 679.188829 
L 160.156091 632.495738 
L 161.112779 638.129013 
L 162.069466 646.460023 
L 163.026153 659.989274 
L 163.982841 577.01311 
L 164.939528 561.284517 
L 165.896216 675.95995 
L 166.852903 650.910676 
L 167.80959 666.308909 
L 168.766278 662.931935 
L 169.722965 662.963262 
L 170.679653 560.43155 
L 171.63634 475.765834 
L 172.593027 502.926158 
L 173.549715 500.259037 
L 174.506402 514.73952 
L 175.46309 619.349536 
L 176.419777 673.19458 
L 177.376464 638.623136 
L 179.289839 656.31184 
L 180.246526 681.36681 
L 181.203214 671.442366 
L 182.159901 658.121725 
L 183.116589 628.833964 
L 184.073276 657.028109 
L 185.029963 625.738233 
L 185.986651 642.067746 
L 186.943338 663.045852 
L 187.900026 663.790596 
L 188.856713 672.431325 
L 189.8134 675.309194 
L 190.770088 665.943658 
L 191.726775 641.711041 
L 192.683463 660.265527 
L 193.64015 659.685971 
L 194.596837 544.325602 
L 195.553525 658.681353 
L 196.510212 676.027594 
L 197.466899 650.751191 
L 198.423587 677.754168 
L 199.380274 680.601424 
L 200.336962 664.961115 
L 201.293649 676.394263 
L 202.250336 663.746454 
L 203.207024 670.303182 
L 204.163711 679.068505 
L 205.120399 641.100862 
L 206.077086 650.937021 
L 207.033773 684.500283 
L 207.990461 671.347673 
L 208.947148 682.900441 
L 209.903836 680.25397 
L 210.860523 680.308085 
L 211.81721 666.79378 
L 214.687273 680.595016 
L 215.64396 678.160006 
L 216.600647 667.942216 
L 217.557335 653.338565 
L 218.514022 675.293527 
L 219.470709 667.79626 
L 220.427397 662.219943 
L 221.384084 658.440696 
L 222.340772 679.753439 
L 224.254146 667.184664 
L 225.210834 679.686517 
L 226.167521 680.659095 
L 227.124209 663.204632 
L 228.080896 677.920061 
L 229.037583 673.544877 
L 229.994271 664.371586 
L 230.950958 662.81161 
L 231.907646 640.089837 
L 232.864333 667.265828 
L 233.82102 676.612845 
L 234.777708 682.736687 
L 235.734395 643.036767 
L 236.691083 687.385273 
L 237.64777 673.872394 
L 238.604457 680.27462 
L 239.561145 682.664774 
L 240.517832 657.7166 
L 241.474519 682.763023 
L 242.431207 672.486145 
L 243.387894 685.73915 
L 244.344582 658.435 
L 245.301269 677.141146 
L 246.257956 650.688537 
L 248.171331 659.769987 
L 249.128019 682.084497 
L 250.084706 673.942168 
L 251.041393 666.867824 
L 251.998081 654.27626 
L 252.954768 650.767571 
L 253.911456 668.398604 
L 254.868143 670.542414 
L 255.82483 680.843499 
L 256.781518 659.320006 
L 257.738205 631.211302 
L 258.694893 660.672791 
L 259.65158 653.003935 
L 260.608267 643.740926 
L 261.564955 643.310882 
L 262.521642 672.684077 
L 263.478329 617.916293 
L 264.435017 617.404372 
L 265.391704 652.296925 
L 266.348392 595.568317 
L 267.305079 645.912498 
L 268.261766 655.888917 
L 269.218454 629.43916 
L 270.175141 549.621388 
L 271.131829 590.403533 
L 272.088516 617.608713 
L 273.045203 620.236673 
L 274.001891 630.861005 
L 274.958578 633.748839 
L 275.915266 635.817892 
L 276.871953 646.017163 
L 277.82864 641.958098 
L 278.785328 637.189892 
L 279.742015 664.829392 
L 280.698703 634.615334 
L 281.65539 655.118549 
L 282.612077 654.252767 
L 283.568765 652.152387 
L 284.525452 640.114043 
L 285.482139 639.403476 
L 286.438827 635.597172 
L 287.395514 637.240451 
L 288.352202 641.68327 
L 289.308889 630.826122 
L 290.265576 643.780086 
L 291.222264 632.609655 
L 292.178951 661.510802 
L 293.135639 640.892253 
L 294.092326 646.756213 
L 295.049013 647.276672 
L 296.962388 655.985749 
L 297.919076 664.377994 
L 298.875763 661.855404 
L 299.83245 667.111325 
L 300.789138 675.532758 
L 301.745825 666.96323 
L 302.702513 673.131919 
L 303.6592 671.279325 
L 304.615887 668.492584 
L 305.572575 663.757131 
L 306.529262 670.039032 
L 307.485949 679.668711 
L 308.442637 667.488679 
L 309.399324 668.40003 
L 310.356012 675.171063 
L 312.269386 651.485258 
L 313.226074 661.075777 
L 314.182761 673.146873 
L 315.139449 659.612632 
L 316.096136 658.895658 
L 317.052823 671.115562 
L 318.009511 656.573147 
L 318.966198 668.575887 
L 319.922886 674.106636 
L 320.879573 677.916505 
L 321.83626 671.609685 
L 322.792948 663.5414 
L 323.749635 657.114969 
L 324.706323 656.901369 
L 325.66301 672.048275 
L 326.619697 651.970121 
L 327.576385 655.21965 
L 328.533072 659.109258 
L 329.489759 678.183499 
L 330.446447 664.5446 
L 331.403134 669.558438 
L 332.359822 675.630303 
L 333.316509 665.401123 
L 334.273196 672.255459 
L 335.229884 661.777083 
L 336.186571 669.73359 
L 337.143259 673.503578 
L 338.099946 664.260513 
L 339.056633 680.437661 
L 340.970008 650.927769 
L 341.926696 666.868537 
L 342.883383 658.351698 
L 343.84007 667.599753 
L 344.796758 662.474129 
L 345.753445 628.417449 
L 347.66682 656.030604 
L 349.580195 646.431539 
L 350.536882 649.743009 
L 351.493569 623.996697 
L 352.450257 655.114272 
L 353.406944 662.353796 
L 354.363632 655.584902 
L 355.320319 646.000783 
L 356.277006 648.041353 
L 357.233694 657.402612 
L 358.190381 654.198652 
L 359.147069 658.358818 
L 360.103756 659.720141 
L 361.060443 665.139111 
L 362.017131 639.860577 
L 362.973818 655.203983 
L 363.930506 652.219318 
L 364.887193 643.701052 
L 365.84388 633.958882 
L 366.800568 657.473812 
L 367.757255 668.25763 
L 368.713942 660.321068 
L 369.67063 671.243008 
L 370.627317 672.593653 
L 371.584005 675.208085 
L 372.540692 681.822485 
L 373.497379 652.977591 
L 374.454067 675.107697 
L 375.410754 676.565859 
L 376.367442 684.463974 
L 377.324129 676.466176 
L 378.280816 674.738889 
L 379.237504 684.357891 
L 380.194191 678.203435 
L 381.150879 686.608489 
L 382.107566 671.42243 
L 383.064253 654.281242 
L 384.020941 685.529827 
L 384.977628 653.389828 
L 385.934316 671.945749 
L 386.891003 681.808243 
L 387.84769 684.167071 
L 388.804378 687.644441 
L 389.761065 685.343285 
L 390.717752 680.414881 
L 391.67444 684.066683 
L 392.631127 677.323412 
L 393.587815 672.946802 
L 394.544502 678.011911 
L 395.501189 665.248759 
L 396.457877 674.780893 
L 397.414564 686.369978 
L 398.371252 683.756964 
L 399.327939 672.518184 
L 400.284626 672.150089 
L 403.154689 688.389891 
L 404.111376 682.068837 
L 405.068063 689.039942 
L 406.024751 682.855586 
L 406.981438 675.584022 
L 407.938126 686.352172 
L 408.894813 683.440845 
L 409.8515 690.977273 
L 410.808188 684.477503 
L 411.764875 684.861978 
L 412.721562 682.383538 
L 413.67825 679.49641 
L 414.634937 682.044631 
L 415.591625 683.890113 
L 416.548312 681.974849 
L 417.504999 681.27995 
L 418.461687 685.764782 
L 419.418374 684.391348 
L 420.375062 686.543697 
L 421.331749 687.920695 
L 422.288436 682.610659 
L 423.245124 682.273178 
L 424.201811 672.278248 
L 425.158499 673.961392 
L 426.115186 683.761954 
L 427.071873 688.14639 
L 428.028561 679.775515 
L 428.985248 683.47858 
L 429.941936 677.487174 
L 430.898623 650.084767 
L 431.85531 644.041385 
L 432.811998 619.726178 
L 433.768685 493.260883 
L 434.725372 504.323085 
L 435.68206 649.013219 
L 436.638747 442.112148 
L 437.595435 519.314775 
L 438.552122 496.555259 
L 439.508809 465.351537 
L 440.465497 572.410805 
L 441.422184 599.623818 
L 442.378872 571.19757 
L 443.335559 567.256698 
L 444.292246 604.013957 
L 445.248934 580.916959 
L 446.205621 573.839772 
L 447.162309 593.071359 
L 448.118996 562.608817 
L 449.075683 487.136329 
L 450.032371 488.705556 
L 450.989058 526.733009 
L 451.945746 546.888058 
L 452.902433 548.842473 
L 453.85912 563.515899 
L 454.815808 574.580239 
L 455.772495 524.468874 
L 456.729182 542.742133 
L 457.68587 600.239691 
L 458.642557 522.100795 
L 459.599245 496.386523 
L 460.555932 455.793059 
L 461.512619 449.36235 
L 462.469307 495.016653 
L 463.425994 555.298093 
L 464.382682 577.719407 
L 466.296056 659.819824 
L 467.252744 661.21889 
L 468.209431 666.063277 
L 469.166119 672.417796 
L 470.122806 682.270326 
L 471.079493 658.226391 
L 472.036181 665.032307 
L 472.992868 637.963833 
L 473.949556 672.55165 
L 474.906243 652.951959 
L 475.86293 610.139929 
L 476.819618 582.298227 
L 477.776305 547.995202 
L 478.732992 579.103518 
L 479.68968 650.061987 
L 480.646367 649.787864 
L 481.603055 639.042494 
L 482.559742 611.731224 
L 483.516429 612.976499 
L 484.473117 607.099723 
L 485.429804 639.779405 
L 486.386492 605.796072 
L 487.343179 652.202945 
L 489.256554 428.473954 
L 490.213241 272.483805 
L 491.169929 46.522727 
L 492.126616 152.031278 
L 494.039991 395.298724 
L 494.996678 580.198559 
L 495.953365 658.165868 
L 496.910053 512.367164 
L 497.86674 655.359199 
L 498.823428 632.852443 
L 499.780115 664.814438 
L 500.736802 659.265892 
L 501.69349 658.701994 
L 502.650177 663.134858 
L 503.606865 658.490533 
L 504.563552 670.268291 
L 505.520239 673.734976 
L 506.476927 667.380458 
L 508.390302 662.08182 
L 509.346989 660.509741 
L 510.303676 659.98643 
L 511.260364 668.041899 
L 512.217051 663.604767 
L 513.173739 659.725844 
L 514.130426 658.519016 
L 515.087113 656.427183 
L 516.043801 665.168299 
L 517.000488 668.771689 
L 517.957175 657.201828 
L 518.913863 672.981693 
L 519.87055 661.30361 
L 520.827238 658.818763 
L 521.783925 658.682771 
L 522.740612 667.444537 
L 523.6973 636.870209 
L 524.653987 612.794939 
L 526.567362 632.579754 
L 527.524049 631.006962 
L 528.480737 635.009069 
L 529.437424 595.07063 
L 530.394112 540.26725 
L 531.350799 438.566429 
L 532.307486 602.048151 
L 533.264174 612.776428 
L 534.220861 608.439691 
L 535.177549 616.098582 
L 536.134236 625.203524 
L 537.090923 602.459676 
L 538.047611 613.470622 
L 539.004298 636.102684 
L 539.960985 623.812293 
L 540.917673 600.392769 
L 541.87436 623.961813 
L 542.831048 610.958004 
L 543.787735 590.131549 
L 544.744422 582.00488 
L 545.70111 539.178616 
L 546.657797 577.871066 
L 547.614485 623.484776 
L 548.571172 517.348961 
L 549.527859 568.976873 
L 550.484547 567.310813 
L 551.441234 586.615027 
L 552.397922 600.520214 
L 553.354609 590.446963 
L 554.311296 573.810575 
L 555.267984 603.541901 
L 556.224671 550.024374 
L 557.181359 569.502322 
L 558.138046 594.906876 
L 559.094733 586.489007 
L 560.051421 582.192848 
L 561.008108 587.979201 
L 561.964795 606.973703 
L 562.921483 604.384903 
L 563.87817 607.905695 
L 564.834858 599.037133 
L 565.791545 595.76625 
L 566.748232 607.66362 
L 567.70492 599.460056 
L 569.618295 568.333942 
L 571.531669 628.462304 
L 573.445044 630.628894 
L 574.401732 650.949123 
L 575.358419 615.464198 
L 576.315106 633.768063 
L 578.228481 616.676721 
L 579.185169 629.105235 
L 580.141856 623.553132 
L 581.098543 601.611699 
L 582.055231 601.886527 
L 583.011918 603.136784 
L 583.968605 556.984089 
L 584.925293 534.960779 
L 585.88198 566.687819 
L 586.838668 577.542837 
L 587.795355 581.35768 
L 588.752042 577.765688 
L 589.70873 581.893102 
L 590.665417 549.928255 
L 591.622105 569.89178 
L 592.578792 593.57688 
L 593.535479 413.557028 
L 594.492167 436.117891 
L 595.448854 442.047356 
L 596.405542 462.537747 
L 597.362229 585.71151 
L 598.318916 626.483683 
L 599.275604 661.873202 
L 600.232291 651.870438 
L 601.188979 654.763262 
L 602.145666 660.06902 
L 603.102353 667.920149 
L 604.059041 658.282636 
L 605.015728 651.656846 
L 605.972415 654.82022 
L 606.929103 662.706945 
L 607.88579 657.122803 
L 608.842478 631.928285 
L 609.799165 639.800767 
L 610.755852 642.832427 
L 611.71254 637.911144 
L 612.669227 641.416276 
L 613.625915 644.337575 
L 614.582602 623.553132 
L 615.539289 627.995239 
L 616.495977 631.100237 
L 617.452664 652.48845 
L 618.409352 592.618535 
L 619.366039 579.552072 
L 620.322726 554.905784 
L 621.279414 612.839089 
L 622.236101 621.2 
L 623.192788 631.011952 
L 624.149476 616.445323 
L 625.106163 612.241014 
L 626.062851 593.04431 
L 627.019538 596.843494 
L 627.976225 562.378845 
L 628.932913 574.739011 
L 629.8896 600.305901 
L 630.846288 603.920681 
L 631.802975 595.106234 
L 632.759662 591.314884 
L 633.71635 624.797687 
L 634.673037 627.599374 
L 635.629725 634.677282 
L 636.586412 579.6069 
L 637.543099 554.398853 
L 638.499787 498.022673 
L 639.456474 434.357851 
L 640.413162 448.095007 
L 641.369849 423.497139 
L 642.326536 393.33577 
L 643.283224 479.068044 
L 644.239911 432.293075 
L 645.196598 436.073748 
L 646.153286 424.836394 
L 647.109973 451.348805 
L 648.066661 440.007499 
L 649.023348 448.818389 
L 649.980035 474.607426 
L 650.936723 492.669216 
L 651.89341 582.811573 
L 652.850098 546.386101 
L 653.806785 519.392383 
L 654.763472 549.889808 
L 655.72016 635.223373 
L 656.676847 648.247833 
L 657.633535 611.944111 
L 658.590222 600.404872 
L 659.546909 420.492537 
L 660.503597 453.481217 
L 661.460284 570.131003 
L 662.416972 572.753981 
L 663.373659 632.8795 
L 664.330346 637.08167 
L 665.287034 651.568561 
L 666.243721 675.604671 
L 667.200408 606.53227 
L 668.157096 632.069259 
L 669.113783 620.354154 
L 670.070471 622.843984 
L 671.027158 646.790383 
L 671.983845 646.759056 
L 672.940533 660.486248 
L 673.89722 572.077593 
L 674.853908 188.140624 
L 675.810595 199.109558 
L 676.767282 199.895594 
L 677.72397 297.651274 
L 678.680657 652.439325 
L 679.637345 647.565029 
L 680.594032 630.60255 
L 681.550719 638.776213 
L 682.507407 625.371556 
L 683.464094 646.934209 
L 684.420782 619.621513 
L 685.377469 635.100205 
L 686.334156 624.849663 
L 687.290844 633.765219 
L 688.247531 598.441909 
L 689.204218 610.975802 
L 690.160906 626.64175 
L 691.117593 613.873608 
L 692.074281 656.229963 
L 693.030968 655.841931 
L 693.987655 665.374066 
L 694.944343 643.509528 
L 695.90103 658.536814 
L 696.857718 670.66986 
L 697.814405 655.653963 
L 699.72778 672.23481 
L 700.684467 666.375127 
L 701.641155 675.339808 
L 702.597842 675.978461 
L 703.554529 668.993115 
L 704.511217 668.757448 
L 705.467904 660.519 
L 706.424592 643.243959 
L 707.381279 645.983698 
L 708.337966 652.928458 
L 709.294654 649.865472 
L 710.251341 670.123048 
L 711.208028 622.220285 
L 712.164716 632.656649 
L 713.121403 632.392498 
L 714.078091 614.028111 
L 715.034778 581.246615 
L 715.991465 575.90454 
L 716.948153 605.138899 
L 717.90484 624.251596 
L 718.861528 611.977576 
L 719.818215 589.376127 
L 720.774902 598.005458 
L 721.73159 582.434924 
L 722.688277 608.001109 
L 723.644965 600.535169 
L 724.601652 568.228564 
L 725.558339 594.343692 
L 726.515027 641.587151 
L 727.471714 587.51071 
L 728.428402 653.306525 
L 729.385089 656.351713 
L 730.341776 652.751888 
L 731.298464 612.703097 
L 732.255151 649.513036 
L 733.211838 652.316149 
L 734.168526 629.788744 
L 735.125213 646.94845 
L 736.081901 599.146068 
L 737.038588 620.668855 
L 737.995275 627.669861 
L 738.951963 556.8602 
L 739.90865 582.303922 
L 740.865338 581.459502 
L 741.822025 653.235325 
L 742.778712 633.123001 
L 743.7354 608.822028 
L 744.692087 622.629679 
L 745.648775 599.737022 
L 746.605462 625.181449 
L 747.562149 598.923216 
L 748.518837 598.723145 
L 749.475524 592.061759 
L 750.432212 616.44034 
L 751.388899 602.5736 
L 752.345586 628.604704 
L 753.302274 626.420316 
L 754.258961 622.258732 
L 755.215648 639.301662 
L 756.172336 619.151596 
L 759.999085 666.00418 
L 760.955773 653.537923 
L 761.91246 646.900743 
L 762.869148 651.008933 
L 763.825835 659.369131 
L 764.782522 662.078969 
L 765.73921 673.976347 
L 766.695897 660.106042 
L 767.652585 672.59081 
L 768.609272 677.41241 
L 769.565959 664.704798 
L 770.522647 664.148727 
L 771.479334 664.459872 
L 772.436021 644.554019 
L 773.392709 644.055627 
L 775.306084 668.563784 
L 776.262771 669.88026 
L 777.219458 632.396768 
L 778.176146 658.017773 
L 779.132833 664.994573 
L 780.089521 661.367689 
L 781.046208 676.318081 
L 782.002895 667.042976 
L 782.959583 677.53915 
L 783.91627 671.138351 
L 784.872958 672.299602 
L 785.829645 666.909828 
L 786.786332 671.491491 
L 787.74302 670.726818 
L 789.656395 664.889202 
L 790.613082 663.24521 
L 791.569769 667.847523 
L 792.526457 661.684529 
L 793.483144 652.638684 
L 794.439831 679.944251 
L 795.396519 673.107 
L 796.353206 660.630066 
L 797.309894 661.881749 
L 798.266581 641.756609 
L 799.223268 658.425036 
L 800.179956 644.240031 
L 801.136643 651.965139 
L 802.093331 646.876538 
L 803.050018 592.047517 
L 804.006705 614.206107 
L 804.963393 648.61664 
L 805.92008 636.42308 
L 806.876768 642.42232 
L 807.833455 609.00145 
L 808.790142 564.942726 
L 809.74683 531.993912 
L 810.703517 553.86557 
L 811.660205 584.652064 
L 812.616892 643.900411 
L 813.573579 627.21775 
L 814.530267 627.90411 
L 815.486954 609.872222 
L 816.443641 632.920086 
L 817.400329 626.948617 
L 818.357016 536.337056 
L 819.313704 554.515614 
L 820.270391 584.83505 
L 821.227078 609.169481 
L 822.183766 582.224175 
L 823.140453 608.681054 
L 824.097141 590.192785 
L 825.053828 648.275595 
L 826.967203 595.924309 
L 827.92389 645.880458 
L 828.880578 656.050541 
L 829.837265 644.41874 
L 830.793952 668.975317 
L 831.75064 648.117535 
L 832.707327 662.480537 
L 833.664015 649.457504 
L 834.620702 547.128707 
L 835.577389 655.245995 
L 836.534077 666.963943 
L 837.490764 665.681646 
L 838.447451 661.043737 
L 839.404139 644.613829 
L 840.360826 676.357954 
L 841.317514 675.181748 
L 842.274201 678.200584 
L 843.230888 668.974604 
L 844.187576 669.442382 
L 845.144263 672.056101 
L 847.057638 673.8254 
L 848.014325 655.389812 
L 848.971013 670.931871 
L 849.9277 663.938691 
L 852.797762 677.973463 
L 853.75445 667.018058 
L 854.711137 680.743824 
L 855.667825 648.151001 
L 856.624512 660.870723 
L 857.581199 655.425416 
L 858.537887 674.328069 
L 859.494574 667.009511 
L 860.451261 669.030145 
L 861.407949 672.711848 
L 862.364636 651.480268 
L 863.321324 678.832837 
L 864.278011 679.434469 
L 865.234698 671.347673 
L 866.191386 673.327008 
L 867.148073 665.254454 
L 868.104761 674.755261 
L 869.061448 665.438858 
L 870.018135 663.710145 
L 870.974823 662.266224 
L 871.93151 661.482319 
L 872.888198 654.311151 
L 873.844885 662.963262 
L 874.801572 652.901409 
L 875.75826 650.4251 
L 876.714947 651.524411 
L 877.671635 673.706501 
L 877.671635 673.706501 
" style="fill:none;stroke:#000000;stroke-linecap:square;stroke-width:1.5;"/>
   </g>
   <g id="line2d_18">
    <path clip-path="url(#pe14b98fe4e)" d="M 878.628322 674.141527 
L 879.585009 672.630683 
L 880.541697 677.900125 
L 881.498384 679.391039 
L 882.455071 673.960679 
L 883.411759 681.376782 
L 884.368446 671.564117 
L 885.325134 674.511047 
L 886.281821 664.141606 
L 887.238508 638.548371 
L 888.195196 672.715404 
L 889.151883 667.79626 
L 890.108571 665.57698 
L 891.065258 670.627135 
L 892.021945 673.264354 
L 892.978633 668.049733 
L 893.93532 661.686668 
L 894.892008 646.29413 
L 895.848695 641.443334 
L 896.805382 660.263396 
L 897.76207 667.783444 
L 898.718757 639.669757 
L 899.675444 640.281361 
L 900.632132 642.101211 
L 901.588819 648.730557 
L 902.545507 639.88407 
L 903.502194 637.787967 
L 904.458881 638.035738 
L 905.415569 652.860822 
L 906.372256 634.845306 
L 907.328944 651.99504 
L 908.285631 673.966374 
L 909.242318 649.293036 
L 910.199006 659.982866 
L 911.155693 646.80605 
L 912.112381 638.485718 
L 913.069068 651.762929 
L 914.025755 650.314739 
L 914.982443 667.032291 
L 915.93913 669.767056 
L 916.895818 681.527008 
L 917.852505 672.449836 
L 918.809192 667.082842 
L 919.76588 652.728395 
L 920.722567 660.800236 
L 921.679254 664.407182 
L 922.635942 679.515633 
L 923.592629 670.69976 
L 924.549317 678.469012 
L 925.506004 669.400378 
L 926.462691 673.365455 
L 927.419379 674.351562 
L 928.376066 678.463309 
L 929.332754 679.235111 
L 930.289441 681.381764 
L 931.246128 680.857027 
L 932.202816 671.047927 
L 933.159503 675.845321 
L 934.116191 676.940362 
L 935.072878 678.621376 
L 936.029565 679.157503 
L 936.986253 667.204592 
L 937.94294 667.826161 
L 938.899628 679.483594 
L 939.856315 672.227697 
L 940.813002 669.735721 
L 941.76969 662.883523 
L 942.726377 672.03759 
L 943.683064 664.431388 
L 944.639752 671.372592 
L 945.596439 664.802335 
L 946.553127 668.442034 
L 947.509814 669.922263 
L 949.423189 685.473574 
L 950.379876 676.35938 
L 951.336564 671.866002 
L 952.293251 673.593289 
L 953.249938 662.300402 
L 954.206626 681.524164 
L 955.163313 676.555174 
L 956.120001 669.550604 
L 957.076688 674.661281 
L 958.033375 660.909171 
L 958.990063 682.858437 
L 959.94675 678.54163 
L 960.903438 684.995831 
L 961.860125 678.206287 
L 962.816812 683.80894 
L 963.7735 674.258295 
L 964.730187 671.779848 
L 965.686874 680.872687 
L 966.643562 685.841677 
L 967.600249 677.996243 
L 968.556937 682.701083 
L 970.470311 672.217725 
L 971.426999 675.618192 
L 972.383686 677.524196 
L 973.340374 650.401607 
L 974.297061 658.096094 
L 975.253748 678.194176 
L 976.210436 672.867063 
L 978.123811 685.230073 
L 979.080498 678.348679 
L 980.037185 687.271356 
L 980.993873 679.205923 
L 981.95056 684.108687 
L 982.907248 678.456196 
L 983.863935 678.613542 
L 984.820622 680.610675 
L 985.77731 670.491151 
L 986.733997 672.89839 
L 987.690684 658.249171 
L 988.647372 666.121654 
L 989.604059 669.032988 
L 990.560747 646.651547 
L 991.517434 653.76007 
L 992.474121 652.712015 
L 993.430809 645.106526 
L 994.387496 660.170834 
L 995.344184 660.52327 
L 996.300871 647.936688 
L 997.257558 657.678153 
L 998.214246 662.044086 
L 999.170933 660.346699 
L 1000.127621 653.09649 
L 1001.084308 660.823016 
L 1002.040995 666.25622 
L 1002.997683 669.518564 
L 1003.95437 664.846477 
L 1004.911058 657.86327 
L 1005.867745 664.968228 
L 1006.824432 664.123808 
L 1007.78112 664.654953 
L 1008.737807 659.35489 
L 1009.694494 665.169725 
L 1010.651182 661.145551 
L 1011.607869 647.809955 
L 1012.564557 668.553107 
L 1013.521244 669.850359 
L 1014.477931 666.419982 
L 1015.434619 647.743033 
L 1016.391306 625.440617 
L 1017.347994 674.14224 
L 1018.304681 678.347966 
L 1019.261368 673.014446 
L 1020.218056 680.337273 
L 1021.174743 675.142588 
L 1022.131431 679.325534 
L 1023.088118 678.978081 
L 1024.044805 673.097749 
L 1025.001493 669.395396 
L 1025.95818 643.389916 
L 1026.914868 655.545741 
L 1027.871555 655.644703 
L 1028.828242 657.512973 
L 1029.78493 646.476395 
L 1030.741617 655.770018 
L 1031.698304 650.120371 
L 1032.654992 651.071587 
L 1033.611679 650.190858 
L 1034.568367 664.869979 
L 1035.525054 657.423262 
L 1036.481741 661.329955 
L 1037.438429 662.237036 
L 1038.395116 653.812751 
L 1039.351804 648.122518 
L 1040.308491 660.108181 
L 1041.265178 665.962169 
L 1042.221866 668.556663 
L 1044.135241 643.008997 
L 1045.091928 657.731555 
L 1046.048615 640.111199 
L 1047.005303 663.015951 
L 1047.96199 659.90384 
L 1048.918677 653.118565 
L 1049.875365 636.719983 
L 1049.875365 636.719983 
" style="fill:none;stroke:#1f77b4;stroke-linecap:square;stroke-width:1.5;"/>
   </g>
   <g id="line2d_19">
    <path clip-path="url(#pe14b98fe4e)" d="M 1050.832052 650.765432 
L 1051.78874 654.767531 
L 1052.745427 655.693123 
L 1053.702114 532.302917 
L 1054.658802 349.950583 
L 1055.615489 236.346697 
L 1056.572177 172.144315 
L 1057.528864 298.878743 
L 1058.485551 489.097152 
L 1059.442239 584.010559 
L 1060.398926 643.206225 
L 1061.355614 651.85051 
L 1062.312301 643.758011 
L 1063.268988 621.458447 
L 1064.225676 628.032269 
L 1065.182363 628.813322 
L 1066.139051 647.934557 
L 1067.095738 643.184862 
L 1068.052425 639.237583 
L 1069.009113 640.19592 
" style="fill:none;stroke:#ff7f0e;stroke-linecap:square;stroke-width:1.5;"/>
   </g>
   <g id="line2d_20">
    <path clip-path="url(#pe14b98fe4e)" d="M 1069.9658 641.185591 
L 1070.922487 640.376767 
L 1072.835862 662.884236 
L 1073.79255 643.035342 
L 1074.749237 597.583961 
L 1075.705924 603.457893 
L 1077.619299 611.571739 
L 1078.575987 607.449315 
L 1079.532674 600.651929 
L 1080.489361 569.747241 
L 1081.446049 596.56724 
L 1082.402736 615.935533 
L 1083.359424 604.380634 
L 1084.316111 605.394503 
L 1085.272798 591.129759 
L 1086.229486 604.421212 
L 1087.186173 554.986243 
L 1088.142861 623.012015 
L 1089.099548 615.066907 
L 1090.056235 623.761029 
L 1091.012923 636.598946 
L 1091.96961 625.572332 
L 1092.926297 633.189219 
L 1093.882985 596.108713 
L 1094.839672 603.705664 
L 1095.79636 571.726576 
L 1096.753047 569.298687 
L 1097.709734 611.039168 
L 1098.666422 603.878678 
L 1099.623109 604.450408 
L 1100.579797 624.82617 
L 1101.536484 573.080785 
L 1102.493171 541.913373 
L 1103.449859 583.802662 
L 1104.406546 581.733617 
L 1105.363234 620.453829 
L 1106.319921 597.796848 
L 1107.276608 607.611644 
L 1108.233296 631.351572 
L 1109.189983 619.719057 
L 1110.146671 595.714987 
L 1111.103358 593.740634 
L 1112.060045 565.926703 
L 1113.97342 572.108207 
L 1114.930107 586.800856 
L 1115.886795 607.734107 
L 1116.843482 613.525442 
L 1117.80017 605.011454 
L 1118.756857 619.177227 
L 1119.713544 611.331089 
L 1120.670232 575.305047 
L 1121.626919 637.811461 
L 1122.583607 651.317939 
L 1123.540294 653.550739 
L 1124.496981 648.237147 
L 1125.453669 666.14658 
L 1126.410356 650.028522 
L 1127.367044 652.777519 
L 1128.323731 574.147352 
L 1129.280418 658.907048 
L 1130.237106 660.8102 
L 1131.193793 659.790628 
L 1132.150481 645.157076 
L 1133.107168 650.399468 
L 1134.063855 664.941179 
L 1135.020543 653.358502 
L 1135.97723 661.464521 
L 1136.933917 658.541796 
L 1137.890605 672.505368 
L 1138.847292 664.784537 
L 1139.80398 665.998485 
L 1140.760667 671.815452 
L 1141.717354 666.863555 
L 1142.674042 670.891285 
L 1143.630729 675.93218 
L 1144.587417 666.579468 
L 1145.544104 669.224513 
L 1146.500791 646.611674 
L 1147.457479 640.749853 
L 1148.414166 662.257678 
L 1149.370854 673.778414 
L 1150.327541 660.446375 
L 1151.284228 661.041598 
L 1152.240916 673.275032 
L 1153.197603 677.324837 
L 1154.154291 656.643634 
L 1155.110978 666.943293 
L 1156.067665 679.127602 
L 1157.024353 670.948244 
L 1157.98104 679.316988 
L 1158.937727 680.356497 
L 1159.894415 665.025899 
L 1160.851102 665.988513 
L 1161.80779 665.755697 
L 1162.764477 674.63778 
L 1163.721164 650.819539 
L 1164.677852 675.522786 
L 1165.634539 636.099128 
L 1166.591227 656.899951 
L 1167.547914 654.589535 
L 1168.504601 651.100783 
L 1169.461289 665.877448 
L 1170.417976 656.572434 
L 1171.374664 602.905386 
L 1172.331351 614.153418 
L 1173.288038 608.347842 
L 1174.244726 628.27577 
L 1175.201413 612.128515 
L 1176.158101 625.841465 
L 1177.114788 631.597203 
L 1178.071475 621.148023 
L 1179.028163 602.779359 
L 1179.98485 542.895923 
L 1180.941537 597.440856 
L 1181.898225 580.198559 
L 1182.854912 589.598979 
L 1183.8116 565.220406 
L 1184.768287 569.539344 
L 1185.724974 572.096104 
L 1186.681662 573.595558 
L 1187.638349 587.994868 
L 1188.595037 608.688887 
L 1189.551724 562.80675 
L 1190.508411 573.698084 
L 1191.465099 515.841682 
L 1192.421786 560.292715 
L 1193.378474 557.597111 
L 1194.335161 571.367732 
L 1195.291848 552.104818 
L 1196.248536 586.990955 
L 1197.205223 565.720936 
L 1198.16191 550.859543 
L 1199.118598 592.253997 
L 1200.075285 597.652317 
L 1201.031973 590.708262 
L 1201.98866 599.750551 
L 1202.945347 602.26103 
L 1203.902035 569.798504 
L 1204.858722 609.936301 
L 1205.81541 611.89356 
L 1206.772097 629.896974 
L 1207.728784 605.248547 
L 1208.685472 599.314812 
L 1209.642159 609.508388 
L 1210.598847 616.668174 
L 1211.555534 595.005846 
L 1212.512221 632.655223 
L 1213.468909 635.394257 
L 1214.425596 626.853916 
L 1215.382284 634.906542 
L 1216.338971 630.631746 
L 1217.295658 638.230827 
L 1218.252346 620.83973 
L 1219.209033 628.196023 
L 1220.16572 616.493022 
L 1221.122408 568.352453 
L 1222.079095 611.686368 
L 1223.035783 632.192427 
L 1223.99247 629.689782 
L 1224.949157 632.382534 
L 1225.905845 634.244387 
L 1226.862532 615.456364 
L 1227.81922 629.724665 
L 1228.775907 620.090717 
L 1229.732594 643.494581 
L 1230.689282 602.762986 
L 1231.645969 590.284626 
L 1232.602657 580.214227 
L 1233.559344 571.497316 
L 1234.516031 587.990591 
L 1235.472719 563.360683 
L 1236.429406 620.61901 
L 1237.386094 593.452278 
L 1238.342781 582.651375 
L 1239.299468 574.3581 
L 1240.256156 597.561181 
L 1241.212843 573.227455 
L 1242.16953 598.464697 
L 1243.126218 610.083683 
L 1244.082905 614.767873 
L 1245.039593 665.648893 
L 1245.99628 647.355706 
L 1246.952967 632.617488 
L 1247.909655 631.943231 
L 1248.866342 644.620949 
L 1249.82303 641.031801 
L 1250.779717 661.107103 
L 1251.736404 666.152988 
L 1252.693092 650.551832 
L 1253.649779 630.934344 
L 1254.606467 642.055643 
L 1255.563154 617.373758 
L 1256.519841 587.169664 
L 1257.476529 605.071264 
L 1258.433216 586.971019 
L 1259.389904 586.123042 
L 1260.346591 601.853775 
L 1260.346591 601.853775 
" style="fill:none;stroke:#2ca02c;stroke-linecap:square;stroke-width:1.5;"/>
   </g>
   <g id="line2d_21">
    <path clip-path="url(#pe14b98fe4e)" d="M 158.242716 669.204816 
L 159.199404 669.472317 
L 160.156091 669.144697 
L 161.112779 669.044055 
L 162.069466 668.781953 
L 163.026153 668.794576 
L 163.982841 667.087013 
L 164.939528 664.783128 
L 165.896216 664.825284 
L 168.766278 664.312754 
L 169.722965 664.41362 
L 170.679653 662.494788 
L 171.63634 658.552805 
L 174.506402 648.345403 
L 175.46309 647.242439 
L 176.419777 647.352694 
L 178.333152 646.620931 
L 179.289839 646.359022 
L 181.203214 646.888654 
L 182.159901 646.47917 
L 183.116589 645.405814 
L 184.073276 644.902569 
L 185.029963 643.911952 
L 185.986651 643.422547 
L 188.856713 642.585276 
L 190.770088 642.069364 
L 191.726775 641.213209 
L 192.683463 640.798029 
L 193.64015 640.255566 
L 194.596837 637.400556 
L 195.553525 636.986222 
L 196.510212 636.818488 
L 197.466899 636.104465 
L 198.423587 635.990012 
L 199.380274 636.343828 
L 200.336962 636.057993 
L 202.250336 636.598854 
L 204.163711 637.747385 
L 205.120399 636.953885 
L 206.077086 637.338079 
L 207.033773 638.304147 
L 208.947148 639.299956 
L 209.903836 641.450807 
L 210.860523 643.930465 
L 211.81721 643.739503 
L 212.773898 644.168196 
L 213.730585 644.374629 
L 215.64396 645.059208 
L 216.600647 647.299014 
L 219.470709 658.079791 
L 220.427397 661.1523 
L 221.384084 661.966699 
L 222.340772 662.103342 
L 223.297459 662.832718 
L 225.210834 663.735182 
L 226.167521 663.720438 
L 227.124209 663.548818 
L 228.080896 663.961283 
L 229.037583 664.892761 
L 229.994271 665.04575 
L 230.950958 665.818112 
L 231.907646 665.776906 
L 232.864333 665.864822 
L 234.777708 666.346647 
L 235.734395 665.674305 
L 236.691083 666.121005 
L 237.64777 666.791033 
L 239.561145 667.686614 
L 240.517832 670.048927 
L 241.474519 670.550628 
L 242.431207 670.476848 
L 243.387894 671.205764 
L 244.344582 670.803281 
L 245.301269 670.731192 
L 246.257956 670.433847 
L 247.214644 669.992309 
L 248.171331 669.909465 
L 249.128019 670.15491 
L 250.084706 670.048111 
L 251.041393 670.584923 
L 251.998081 670.65449 
L 252.954768 669.951725 
L 253.911456 669.890286 
L 254.868143 669.632827 
L 255.82483 669.645109 
L 256.781518 669.207858 
L 257.738205 668.466556 
L 258.694893 668.24124 
L 259.65158 667.75762 
L 261.564955 666.263804 
L 262.521642 666.362592 
L 263.478329 665.624628 
L 264.435017 664.418604 
L 265.391704 664.095701 
L 266.348392 662.707126 
L 267.305079 662.446122 
L 268.261766 661.948944 
L 269.218454 661.028236 
L 270.175141 658.579001 
L 271.131829 656.718939 
L 272.088516 655.405389 
L 274.958578 652.700742 
L 275.915266 652.105874 
L 276.871953 651.755989 
L 277.82864 651.794911 
L 278.785328 651.168329 
L 279.742015 650.922841 
L 280.698703 649.920313 
L 281.65539 650.172016 
L 282.612077 649.481756 
L 283.568765 649.029256 
L 285.482139 647.2913 
L 286.438827 646.830479 
L 287.395514 645.882092 
L 288.352202 645.240365 
L 289.308889 644.096344 
L 290.265576 643.791033 
L 291.222264 642.863294 
L 292.178951 643.088757 
L 294.092326 642.51955 
L 295.049013 641.794387 
L 296.005701 641.32471 
L 296.962388 641.098 
L 298.875763 641.53945 
L 299.83245 641.512631 
L 300.789138 641.616597 
L 301.745825 641.327425 
L 302.702513 641.615173 
L 303.6592 642.449923 
L 305.572575 642.836861 
L 306.529262 643.384738 
L 307.485949 644.142193 
L 308.442637 644.033955 
L 310.356012 646.289172 
L 311.312699 646.506582 
L 312.269386 647.671518 
L 314.182761 648.34696 
L 315.139449 648.975574 
L 316.096136 651.252122 
L 317.052823 652.933622 
L 318.009511 653.745381 
L 319.922886 655.653399 
L 320.879573 656.573559 
L 321.83626 657.319221 
L 324.706323 658.410733 
L 325.66301 658.561127 
L 326.619697 658.922685 
L 328.533072 659.025968 
L 331.403134 660.705481 
L 332.359822 661.539505 
L 336.186571 663.948615 
L 337.143259 664.800572 
L 338.099946 664.857858 
L 339.056633 665.681721 
L 340.013321 666.078715 
L 340.970008 666.154779 
L 341.926696 666.477089 
L 344.796758 666.60639 
L 346.710132 665.093586 
L 347.66682 664.865823 
L 350.536882 663.502612 
L 351.493569 662.67427 
L 354.363632 661.754615 
L 356.277006 660.722761 
L 357.233694 660.61172 
L 358.190381 660.668249 
L 359.147069 660.611646 
L 360.103756 660.331923 
L 361.060443 660.447058 
L 362.973818 659.719002 
L 363.930506 659.628297 
L 364.887193 659.110072 
L 365.84388 658.27366 
L 366.800568 657.847771 
L 368.713942 657.710846 
L 370.627317 658.332103 
L 371.584005 658.397932 
L 372.540692 659.019856 
L 373.497379 658.973147 
L 374.454067 659.306447 
L 375.410754 659.272747 
L 376.367442 659.687734 
L 377.324129 659.831645 
L 378.280816 659.813074 
L 379.237504 660.208006 
L 380.194191 660.331923 
L 381.150879 660.849243 
L 382.107566 660.884428 
L 383.064253 660.483962 
L 384.020941 660.927073 
L 384.977628 660.363576 
L 385.934316 660.491364 
L 386.891003 661.134707 
L 387.84769 661.495093 
L 388.804378 662.105359 
L 390.717752 662.848782 
L 391.67444 664.008141 
L 392.631127 664.752127 
L 393.587815 665.104548 
L 394.544502 665.661147 
L 395.501189 666.053172 
L 396.457877 666.574795 
L 397.414564 667.874238 
L 398.371252 668.470961 
L 399.327939 668.682719 
L 400.284626 669.027827 
L 405.068063 672.262715 
L 406.024751 672.744703 
L 406.981438 672.962305 
L 407.938126 673.93088 
L 408.894813 674.519148 
L 410.808188 676.176115 
L 411.764875 677.236596 
L 412.721562 677.755549 
L 413.67825 677.98969 
L 414.634937 678.442264 
L 416.548312 678.901187 
L 418.461687 679.109815 
L 419.418374 679.764269 
L 421.331749 680.239078 
L 422.288436 680.200467 
L 423.245124 680.321446 
L 424.201811 680.270183 
L 425.158499 680.053589 
L 428.028561 680.375454 
L 428.985248 680.983732 
L 430.898623 680.747321 
L 431.85531 680.16598 
L 432.811998 678.872604 
L 434.725372 671.076197 
L 435.68206 670.31932 
L 436.638747 665.35468 
L 438.552122 658.156345 
L 439.508809 653.831444 
L 440.465497 651.631421 
L 441.422184 650.264235 
L 442.378872 648.106249 
L 443.335559 645.624722 
L 444.292246 643.96341 
L 447.162309 638.247589 
L 448.118996 635.754878 
L 450.032371 627.533694 
L 450.989058 624.152299 
L 452.902433 618.679194 
L 454.815808 613.852175 
L 455.772495 610.38325 
L 456.729182 607.43043 
L 457.68587 605.667466 
L 458.642557 602.328242 
L 459.599245 598.513453 
L 461.512619 588.913883 
L 462.469307 585.018921 
L 463.425994 582.394299 
L 464.382682 580.143353 
L 465.339369 578.803964 
L 467.252744 577.69093 
L 468.209431 577.346192 
L 469.166119 577.140872 
L 470.122806 577.34904 
L 472.036181 576.631027 
L 472.992868 575.585557 
L 473.949556 575.43506 
L 474.906243 574.799088 
L 476.819618 571.983801 
L 477.776305 569.982839 
L 478.732992 569.136534 
L 480.646367 575.433739 
L 481.603055 575.226016 
L 482.559742 578.759747 
L 483.516429 580.711033 
L 484.473117 583.014042 
L 485.429804 586.647956 
L 486.386492 587.343483 
L 487.343179 588.438881 
L 488.299866 587.719444 
L 489.256554 584.828137 
L 490.213241 577.921258 
L 491.169929 566.788045 
L 492.126616 558.000368 
L 493.083303 551.402094 
L 494.039991 547.916467 
L 494.996678 549.855263 
L 495.953365 553.385687 
L 496.910053 553.086398 
L 497.86674 555.346214 
L 498.823428 557.096421 
L 499.780115 559.206807 
L 500.736802 560.971092 
L 502.650177 566.275797 
L 503.606865 567.489356 
L 504.563552 570.576179 
L 505.520239 574.270939 
L 507.433614 583.16801 
L 508.390302 586.648534 
L 509.346989 588.840443 
L 510.303676 590.55434 
L 511.260364 591.553115 
L 513.173739 591.600863 
L 514.130426 591.443691 
L 516.043801 590.754261 
L 517.000488 590.973955 
L 517.957175 590.81082 
L 518.913863 591.540358 
L 519.87055 591.306024 
L 520.827238 591.428249 
L 521.783925 592.439559 
L 523.6973 596.065003 
L 524.653987 596.766907 
L 525.610675 596.205028 
L 526.567362 595.846525 
L 527.524049 595.679118 
L 528.480737 596.164073 
L 529.437424 595.791035 
L 530.394112 594.398691 
L 531.350799 590.206754 
L 532.307486 590.128673 
L 533.264174 589.307287 
L 534.220861 590.802602 
L 535.177549 594.711448 
L 536.134236 602.059776 
L 537.090923 613.641795 
L 538.047611 623.255115 
L 539.004298 630.749875 
L 539.960985 635.510575 
L 540.917673 635.931288 
L 541.87436 635.218703 
L 542.831048 637.272679 
L 543.787735 635.91377 
L 544.744422 634.854445 
L 545.70111 632.237032 
L 546.657797 630.541307 
L 547.614485 629.807615 
L 548.571172 626.770409 
L 549.527859 624.905541 
L 550.484547 622.760593 
L 551.441234 620.945594 
L 553.354609 618.002935 
L 554.311296 616.163951 
L 555.267984 614.977121 
L 557.181359 610.633337 
L 559.094733 607.676363 
L 561.008108 604.660235 
L 563.87817 601.079453 
L 565.791545 598.17358 
L 566.748232 597.107848 
L 567.70492 595.874041 
L 568.661607 594.138726 
L 569.618295 592.710887 
L 570.574982 592.385937 
L 571.531669 592.497824 
L 573.445044 592.427084 
L 575.358419 593.184035 
L 576.315106 595.131969 
L 577.271794 599.013374 
L 580.141856 599.973182 
L 581.098543 599.671372 
L 582.055231 599.185601 
L 583.011918 599.199708 
L 583.968605 598.022905 
L 584.925293 595.915782 
L 585.88198 594.725689 
L 586.838668 594.249649 
L 587.795355 593.362062 
L 588.752042 592.670556 
L 589.70873 592.498922 
L 590.665417 591.830659 
L 591.622105 592.470516 
L 592.578792 592.797721 
L 593.535479 588.424226 
L 594.492167 586.731912 
L 595.448854 584.087547 
L 596.405542 581.904775 
L 597.362229 581.885951 
L 598.318916 582.426857 
L 600.232291 585.541151 
L 601.188979 586.608263 
L 603.102353 590.951231 
L 605.015728 593.629222 
L 606.929103 596.699121 
L 607.88579 597.743894 
L 609.799165 598.982195 
L 611.71254 600.772615 
L 612.669227 601.475796 
L 614.582602 603.231655 
L 615.539289 604.474599 
L 616.495977 605.180909 
L 617.452664 605.681453 
L 618.409352 604.911791 
L 619.366039 603.84769 
L 620.322726 601.846787 
L 621.279414 601.792098 
L 622.236101 601.530263 
L 623.192788 601.65814 
L 624.149476 601.653319 
L 625.106163 601.301981 
L 626.062851 600.666381 
L 627.019538 600.567043 
L 627.976225 599.743966 
L 628.932913 599.152346 
L 629.8896 600.054884 
L 630.846288 601.491548 
L 631.802975 602.083599 
L 632.759662 602.370516 
L 634.673037 604.313718 
L 635.629725 605.413389 
L 636.586412 606.031694 
L 637.543099 605.708924 
L 638.499787 603.718212 
L 639.456474 604.151562 
L 640.413162 604.401086 
L 641.369849 604.014623 
L 642.326536 602.572915 
L 643.283224 600.351176 
L 644.239911 596.305538 
L 647.109973 582.633706 
L 649.023348 573.484471 
L 649.980035 569.657904 
L 650.936723 566.345662 
L 651.89341 564.845482 
L 652.850098 562.422131 
L 653.806785 559.552747 
L 654.763472 557.843612 
L 655.72016 557.74825 
L 656.676847 557.861071 
L 657.633535 557.320091 
L 658.590222 556.465686 
L 659.546909 551.802248 
L 660.503597 548.259083 
L 662.416972 545.838031 
L 663.373659 545.429512 
L 664.330346 546.355827 
L 665.287034 547.85617 
L 666.243721 550.370731 
L 667.200408 550.239338 
L 668.157096 550.465781 
L 669.113783 550.243744 
L 670.070471 550.377049 
L 671.027158 551.096828 
L 671.983845 552.215885 
L 672.940533 553.541776 
L 673.89722 553.743833 
L 676.767282 528.914254 
L 677.72397 522.717275 
L 678.680657 523.990701 
L 679.637345 524.465021 
L 681.550719 524.612981 
L 682.507407 525.566412 
L 683.464094 527.494231 
L 684.420782 530.027541 
L 685.377469 534.209673 
L 686.334156 537.892062 
L 688.247531 546.545691 
L 689.204218 549.29377 
L 692.074281 561.867563 
L 695.90103 578.710901 
L 696.857718 582.419248 
L 697.814405 583.936798 
L 698.771092 586.386359 
L 699.72778 589.570576 
L 700.684467 591.997354 
L 701.641155 592.833113 
L 702.597842 593.410834 
L 703.554529 594.599355 
L 704.511217 596.023367 
L 705.467904 601.023918 
L 706.424592 604.977309 
L 708.337966 608.227875 
L 709.294654 608.581749 
L 710.251341 609.270111 
L 711.208028 608.658689 
L 712.164716 607.763938 
L 713.121403 608.302693 
L 714.078091 607.926836 
L 715.034778 607.112096 
L 716.948153 605.266451 
L 717.90484 604.797546 
L 718.861528 603.786948 
L 719.818215 604.147335 
L 722.688277 629.174329 
L 723.644965 635.48441 
L 724.601652 633.730019 
L 725.558339 632.621241 
L 726.515027 632.850087 
L 727.471714 631.782056 
L 728.428402 632.364034 
L 729.385089 632.560232 
L 730.341776 633.250448 
L 731.298464 632.783842 
L 732.255151 633.297662 
L 733.211838 633.68414 
L 735.125213 635.086629 
L 736.081901 634.513802 
L 737.038588 634.65537 
L 737.995275 634.060368 
L 738.951963 631.998249 
L 739.90865 630.267621 
L 740.865338 628.974912 
L 741.822025 628.864464 
L 742.778712 628.082238 
L 744.692087 626.245419 
L 745.648775 624.735049 
L 746.605462 623.876847 
L 749.475524 619.072612 
L 751.388899 616.775477 
L 753.302274 616.062922 
L 754.258961 615.423969 
L 755.215648 615.20389 
L 756.172336 614.141985 
L 758.085711 614.539023 
L 759.042398 615.010866 
L 759.999085 616.093701 
L 761.91246 619.078857 
L 762.869148 620.034483 
L 763.825835 620.766098 
L 764.782522 621.809877 
L 765.73921 623.572382 
L 766.695897 624.866144 
L 767.652585 626.744392 
L 769.565959 629.527328 
L 770.522647 631.525664 
L 771.479334 632.986418 
L 772.436021 633.048228 
L 773.392709 634.226247 
L 774.349396 634.291483 
L 776.262771 634.902742 
L 777.219458 635.313027 
L 779.132833 635.754343 
L 781.046208 637.024105 
L 782.002895 638.438624 
L 782.959583 639.623422 
L 783.91627 640.529015 
L 784.872958 642.934003 
L 786.786332 646.572292 
L 787.74302 646.936699 
L 788.699707 647.661965 
L 789.656395 648.830031 
L 790.613082 649.676188 
L 791.569769 651.095157 
L 792.526457 651.855638 
L 793.483144 652.97471 
L 795.396519 656.355259 
L 796.353206 657.275878 
L 797.309894 658.511465 
L 798.266581 658.785463 
L 799.223268 659.452228 
L 800.179956 659.910172 
L 801.136643 660.173994 
L 802.093331 660.751597 
L 803.050018 659.940298 
L 804.006705 659.341573 
L 804.963393 659.207733 
L 805.92008 658.59146 
L 806.876768 658.359885 
L 807.833455 657.570316 
L 808.790142 655.77727 
L 809.74683 653.12362 
L 810.703517 650.869174 
L 811.660205 649.008252 
L 812.616892 648.670634 
L 814.530267 646.693939 
L 815.486954 645.551594 
L 817.400329 644.119513 
L 818.357016 641.864993 
L 819.313704 639.999576 
L 820.270391 638.50785 
L 821.227078 637.270469 
L 822.183766 635.444301 
L 823.140453 634.950223 
L 824.097141 633.537203 
L 825.053828 633.188891 
L 826.010515 632.34889 
L 826.967203 630.674019 
L 828.880578 629.785454 
L 829.837265 629.228796 
L 830.793952 629.15954 
L 831.75064 628.768034 
L 832.707327 628.580305 
L 833.664015 628.137195 
L 834.620702 625.62038 
L 835.577389 625.41948 
L 836.534077 625.496954 
L 839.404139 625.271297 
L 840.360826 625.196582 
L 841.317514 625.239806 
L 842.274201 625.605859 
L 843.230888 625.753626 
L 844.187576 626.330413 
L 845.144263 626.614394 
L 846.100951 627.212674 
L 847.057638 627.668096 
L 848.014325 627.845456 
L 848.971013 629.48888 
L 849.9277 630.524976 
L 850.884388 630.944383 
L 852.797762 632.451238 
L 853.75445 633.659918 
L 856.624512 640.721654 
L 857.581199 642.196099 
L 858.537887 642.830008 
L 860.451261 644.515796 
L 861.407949 645.824955 
L 862.364636 646.211625 
L 863.321324 647.292546 
L 864.278011 650.273742 
L 865.234698 652.707744 
L 866.191386 654.551326 
L 867.148073 655.719763 
L 868.104761 657.647494 
L 869.061448 658.829948 
L 870.018135 660.36156 
L 870.974823 660.653031 
L 871.93151 661.495421 
L 872.888198 662.711813 
L 873.844885 663.067705 
L 874.801572 663.002098 
L 875.75826 663.127231 
L 876.714947 662.76367 
L 877.671635 663.296773 
L 878.628322 663.539711 
L 879.585009 664.022485 
L 880.541697 666.74689 
L 881.498384 667.249912 
L 882.455071 667.395677 
L 884.368446 667.941834 
L 885.325134 668.564692 
L 886.281821 668.310185 
L 887.238508 667.54699 
L 889.151883 667.408166 
L 891.065258 667.297867 
L 892.021945 667.30426 
L 892.978633 667.183934 
L 893.93532 667.315118 
L 895.848695 666.333178 
L 897.76207 666.043546 
L 898.718757 665.245552 
L 899.675444 664.688538 
L 900.632132 663.883483 
L 901.588819 663.895558 
L 903.502194 663.090889 
L 904.458881 662.334799 
L 905.415569 662.040034 
L 906.372256 661.32785 
L 907.328944 660.89625 
L 908.285631 661.36471 
L 909.242318 660.749298 
L 911.155693 659.832772 
L 912.112381 659.106912 
L 913.069068 658.825839 
L 914.025755 658.316661 
L 915.93913 658.476043 
L 916.895818 658.87731 
L 918.809192 659.371877 
L 919.76588 659.15865 
L 920.722567 659.323209 
L 921.679254 659.614502 
L 922.635942 660.197653 
L 923.592629 660.135012 
L 924.549317 660.225168 
L 928.376066 660.052214 
L 929.332754 660.007596 
L 931.246128 660.344338 
L 932.202816 660.48822 
L 933.159503 661.265239 
L 934.116191 661.353259 
L 936.029565 661.86171 
L 937.94294 661.677111 
L 939.856315 662.134922 
L 941.76969 663.069959 
L 942.726377 663.315254 
L 943.683064 663.24542 
L 944.639752 663.905896 
L 947.509814 665.40701 
L 948.466501 666.190646 
L 949.423189 667.184096 
L 950.379876 667.982505 
L 951.336564 668.378446 
L 952.293251 669.185696 
L 954.206626 669.557845 
L 955.163313 670.125806 
L 956.120001 670.325134 
L 959.94675 672.60849 
L 960.903438 672.98273 
L 961.860125 673.158548 
L 964.730187 673.341618 
L 966.643562 674.449654 
L 967.600249 674.73276 
L 969.513624 674.939371 
L 970.470311 674.809136 
L 972.383686 675.025314 
L 974.297061 674.102039 
L 975.253748 674.080353 
L 976.210436 673.902964 
L 977.167123 673.870375 
L 978.123811 674.165837 
L 979.080498 674.21799 
L 980.037185 674.433219 
L 981.95056 674.548547 
L 983.863935 675.007692 
L 986.733997 675.060884 
L 988.647372 674.841086 
L 989.604059 674.936953 
L 990.560747 674.421931 
L 992.474121 673.864175 
L 993.430809 673.347181 
L 994.387496 672.986186 
L 996.300871 671.874249 
L 998.214246 671.33806 
L 999.170933 671.297358 
L 1000.127621 670.705115 
L 1001.084308 670.377362 
L 1002.997683 670.201589 
L 1003.95437 670.283616 
L 1004.911058 669.762883 
L 1005.867745 669.480104 
L 1006.824432 669.04527 
L 1007.78112 668.762951 
L 1008.737807 668.253491 
L 1010.651182 667.842598 
L 1011.607869 667.153791 
L 1012.564557 666.793613 
L 1013.521244 666.623907 
L 1014.477931 666.284717 
L 1015.434619 665.666205 
L 1016.391306 664.691682 
L 1018.304681 664.678095 
L 1020.218056 665.612553 
L 1021.174743 665.548979 
L 1022.131431 665.68353 
L 1023.088118 665.676974 
L 1025.001493 665.23769 
L 1025.95818 664.323494 
L 1028.828242 662.801256 
L 1029.78493 662.131733 
L 1031.698304 661.189828 
L 1032.654992 660.735103 
L 1033.611679 660.567221 
L 1034.568367 660.541144 
L 1035.525054 660.299275 
L 1036.481741 660.605075 
L 1037.438429 660.781679 
L 1041.265178 660.979449 
L 1042.221866 661.409032 
L 1043.178553 661.355366 
L 1044.135241 660.958801 
L 1045.091928 660.904319 
L 1046.048615 660.633792 
L 1047.005303 660.679478 
L 1047.96199 660.547137 
L 1048.918677 660.20547 
L 1049.875365 659.619502 
L 1052.745427 659.083476 
L 1053.702114 656.326142 
L 1054.658802 649.880219 
L 1055.615489 640.946406 
L 1056.572177 630.75888 
L 1057.528864 623.48948 
L 1058.485551 619.750814 
L 1059.442239 617.962485 
L 1060.398926 617.478865 
L 1061.355614 617.564438 
L 1062.312301 617.94605 
L 1064.225676 615.800227 
L 1065.182363 614.879371 
L 1067.095738 613.538528 
L 1069.009113 611.895401 
L 1070.922487 610.626009 
L 1072.835862 610.957441 
L 1073.79255 610.694746 
L 1074.749237 609.446225 
L 1078.575987 605.833063 
L 1079.532674 604.801002 
L 1080.489361 602.819278 
L 1081.446049 601.551444 
L 1082.402736 600.605727 
L 1083.359424 599.400385 
L 1084.316111 598.391672 
L 1086.229486 596.044178 
L 1087.186173 593.732179 
L 1089.099548 591.949264 
L 1091.96961 590.805109 
L 1092.926297 590.183719 
L 1093.882985 588.854654 
L 1094.839672 587.825218 
L 1095.79636 586.471189 
L 1096.753047 584.773965 
L 1097.709734 583.862958 
L 1098.666422 582.78349 
L 1099.623109 584.286563 
L 1100.579797 590.013138 
L 1103.449859 610.667868 
L 1104.406546 612.597794 
L 1105.363234 613.357029 
L 1107.276608 611.489357 
L 1108.233296 611.23089 
L 1109.189983 611.194653 
L 1111.103358 609.790695 
L 1113.016733 606.537741 
L 1113.97342 605.139212 
L 1114.930107 604.026815 
L 1115.886795 603.329909 
L 1116.843482 602.770506 
L 1118.756857 600.881846 
L 1119.713544 600.221341 
L 1120.670232 599.757197 
L 1121.626919 600.472896 
L 1124.496981 603.109503 
L 1125.453669 604.473975 
L 1126.410356 606.146502 
L 1127.367044 607.317549 
L 1128.323731 606.446962 
L 1130.237106 608.737423 
L 1131.193793 610.167857 
L 1132.150481 611.016521 
L 1133.107168 613.004297 
L 1135.020543 614.675563 
L 1135.97723 615.461052 
L 1136.933917 615.918195 
L 1137.890605 616.895966 
L 1138.847292 617.554202 
L 1140.760667 620.429193 
L 1142.674042 624.527726 
L 1145.544104 628.535391 
L 1146.500791 628.989255 
L 1147.457479 630.399027 
L 1148.414166 632.9062 
L 1150.327541 636.420544 
L 1151.284228 637.266123 
L 1153.197603 640.290943 
L 1154.154291 640.817861 
L 1155.110978 641.8017 
L 1157.024353 645.147954 
L 1158.937727 649.829118 
L 1159.894415 651.764903 
L 1160.851102 653.414646 
L 1162.764477 655.896603 
L 1163.721164 656.850938 
L 1164.677852 658.024804 
L 1165.634539 658.540805 
L 1166.591227 660.240699 
L 1167.547914 660.590242 
L 1168.504601 660.585718 
L 1170.417976 661.016176 
L 1171.374664 659.698651 
L 1172.331351 658.951253 
L 1173.288038 658.025635 
L 1174.244726 659.15331 
L 1175.201413 658.178757 
L 1176.158101 657.450242 
L 1178.071475 656.36269 
L 1179.028163 655.370605 
L 1179.98485 652.827995 
L 1180.941537 651.663044 
L 1181.898225 649.970004 
L 1182.854912 648.533695 
L 1184.768287 644.314317 
L 1187.638349 638.668672 
L 1188.595037 637.372788 
L 1189.551724 635.016008 
L 1190.508411 633.08098 
L 1191.465099 629.885504 
L 1194.335161 624.461303 
L 1195.291848 621.926436 
L 1196.248536 620.396115 
L 1197.205223 618.410268 
L 1198.16191 615.859945 
L 1199.118598 614.087636 
L 1200.075285 612.85865 
L 1202.945347 608.185748 
L 1203.902035 605.904113 
L 1204.858722 604.437026 
L 1205.81541 603.330102 
L 1206.772097 602.578195 
L 1207.728784 601.31763 
L 1208.685472 599.748401 
L 1209.642159 598.887752 
L 1210.598847 597.661614 
L 1211.555534 596.805504 
L 1216.338971 594.209703 
L 1217.295658 594.94565 
L 1218.252346 595.084948 
L 1219.209033 595.498452 
L 1220.16572 595.252978 
L 1221.122408 594.340976 
L 1222.079095 594.046078 
L 1223.035783 594.058479 
L 1223.99247 594.236432 
L 1224.949157 594.853165 
L 1225.905845 596.756258 
L 1226.862532 597.131581 
L 1227.81922 598.163375 
L 1228.775907 598.79862 
L 1229.732594 600.429332 
L 1230.689282 601.121491 
L 1231.645969 601.500418 
L 1232.602657 601.638307 
L 1234.516031 600.863394 
L 1235.472719 600.874934 
L 1236.429406 601.852453 
L 1237.386094 603.469341 
L 1241.212843 605.270085 
L 1242.16953 605.509122 
L 1243.126218 606.433345 
L 1244.082905 607.764769 
L 1245.039593 609.293829 
L 1246.952967 611.202425 
L 1247.909655 611.873106 
L 1248.866342 612.755605 
L 1249.82303 614.239632 
L 1251.736404 616.436095 
L 1253.649779 617.401525 
L 1254.606467 618.291959 
L 1255.563154 618.455821 
L 1256.519841 617.841269 
L 1257.476529 618.050965 
L 1259.389904 616.072727 
L 1260.346591 615.551891 
L 1260.346591 615.551891 
" style="fill:none;stroke:#ff0000;stroke-linecap:square;stroke-width:1.5;"/>
   </g>
   <g id="patch_3">
    <path d="M 55.925 723.2 
L 55.925 14.3 
" style="fill:none;stroke:#000000;stroke-linecap:square;stroke-linejoin:miter;stroke-width:0.8;"/>
   </g>
   <g id="patch_4">
    <path d="M 1317.7 723.2 
L 1317.7 14.3 
" style="fill:none;stroke:#000000;stroke-linecap:square;stroke-linejoin:miter;stroke-width:0.8;"/>
   </g>
   <g id="patch_5">
    <path d="M 55.925 723.2 
L 1317.7 723.2 
" style="fill:none;stroke:#000000;stroke-linecap:square;stroke-linejoin:miter;stroke-width:0.8;"/>
   </g>
   <g id="patch_6">
    <path d="M 55.925 14.3 
L 1317.7 14.3 
" style="fill:none;stroke:#000000;stroke-linecap:square;stroke-linejoin:miter;stroke-width:0.8;"/>
   </g>
   <g id="legend_1">
    <g id="patch_7">
     <path d="M 1144.726562 95.690625 
L 1310.7 95.690625 
Q 1312.7 95.690625 1312.7 93.690625 
L 1312.7 21.3 
Q 1312.7 19.3 1310.7 19.3 
L 1144.726562 19.3 
Q 1142.726562 19.3 1142.726562 21.3 
L 1142.726562 93.690625 
Q 1142.726562 95.690625 1144.726562 95.690625 
z
" style="fill:#ffffff;opacity:0.8;stroke:#cccccc;stroke-linejoin:miter;"/>
    </g>
    <g id="line2d_22">
     <path d="M 1146.726562 27.398437 
L 1166.726562 27.398437 
" style="fill:none;stroke:#000000;stroke-linecap:square;stroke-width:1.5;"/>
    </g>
    <g id="line2d_23"/>
    <g id="text_19">
     <!-- Unused Data -->
     <defs>
      <path d="M 8.6875 72.90625 
L 18.609375 72.90625 
L 18.609375 28.609375 
Q 18.609375 16.890625 22.84375 11.734375 
Q 27.09375 6.59375 36.625 6.59375 
Q 46.09375 6.59375 50.34375 11.734375 
Q 54.59375 16.890625 54.59375 28.609375 
L 54.59375 72.90625 
L 64.5 72.90625 
L 64.5 27.390625 
Q 64.5 13.140625 57.4375 5.859375 
Q 50.390625 -1.421875 36.625 -1.421875 
Q 22.796875 -1.421875 15.734375 5.859375 
Q 8.6875 13.140625 8.6875 27.390625 
z
" id="DejaVuSans-55"/>
      <path d="M 19.671875 64.796875 
L 19.671875 8.109375 
L 31.59375 8.109375 
Q 46.6875 8.109375 53.6875 14.9375 
Q 60.6875 21.78125 60.6875 36.53125 
Q 60.6875 51.171875 53.6875 57.984375 
Q 46.6875 64.796875 31.59375 64.796875 
z
M 9.8125 72.90625 
L 30.078125 72.90625 
Q 51.265625 72.90625 61.171875 64.09375 
Q 71.09375 55.28125 71.09375 36.53125 
Q 71.09375 17.671875 61.125 8.828125 
Q 51.171875 0 30.078125 0 
L 9.8125 0 
z
" id="DejaVuSans-44"/>
     </defs>
     <g transform="translate(1174.726562 30.898437)scale(0.1 -0.1)">
      <use xlink:href="#DejaVuSans-55"/>
      <use x="73.193359" xlink:href="#DejaVuSans-6e"/>
      <use x="136.572266" xlink:href="#DejaVuSans-75"/>
      <use x="199.951172" xlink:href="#DejaVuSans-73"/>
      <use x="252.050781" xlink:href="#DejaVuSans-65"/>
      <use x="313.574219" xlink:href="#DejaVuSans-64"/>
      <use x="377.050781" xlink:href="#DejaVuSans-20"/>
      <use x="408.837891" xlink:href="#DejaVuSans-44"/>
      <use x="485.839844" xlink:href="#DejaVuSans-61"/>
      <use x="547.119141" xlink:href="#DejaVuSans-74"/>
      <use x="586.328125" xlink:href="#DejaVuSans-61"/>
     </g>
    </g>
    <g id="line2d_24">
     <path d="M 1146.726562 42.076562 
L 1166.726562 42.076562 
" style="fill:none;stroke:#1f77b4;stroke-linecap:square;stroke-width:1.5;"/>
    </g>
    <g id="line2d_25"/>
    <g id="text_20">
     <!-- Training Data -->
     <defs>
      <path d="M -0.296875 72.90625 
L 61.375 72.90625 
L 61.375 64.59375 
L 35.5 64.59375 
L 35.5 0 
L 25.59375 0 
L 25.59375 64.59375 
L -0.296875 64.59375 
z
" id="DejaVuSans-54"/>
      <path d="M 41.109375 46.296875 
Q 39.59375 47.171875 37.8125 47.578125 
Q 36.03125 48 33.890625 48 
Q 26.265625 48 22.1875 43.046875 
Q 18.109375 38.09375 18.109375 28.8125 
L 18.109375 0 
L 9.078125 0 
L 9.078125 54.6875 
L 18.109375 54.6875 
L 18.109375 46.1875 
Q 20.953125 51.171875 25.484375 53.578125 
Q 30.03125 56 36.53125 56 
Q 37.453125 56 38.578125 55.875 
Q 39.703125 55.765625 41.0625 55.515625 
z
" id="DejaVuSans-72"/>
      <path d="M 45.40625 27.984375 
Q 45.40625 37.75 41.375 43.109375 
Q 37.359375 48.484375 30.078125 48.484375 
Q 22.859375 48.484375 18.828125 43.109375 
Q 14.796875 37.75 14.796875 27.984375 
Q 14.796875 18.265625 18.828125 12.890625 
Q 22.859375 7.515625 30.078125 7.515625 
Q 37.359375 7.515625 41.375 12.890625 
Q 45.40625 18.265625 45.40625 27.984375 
z
M 54.390625 6.78125 
Q 54.390625 -7.171875 48.1875 -13.984375 
Q 42 -20.796875 29.203125 -20.796875 
Q 24.46875 -20.796875 20.265625 -20.09375 
Q 16.0625 -19.390625 12.109375 -17.921875 
L 12.109375 -9.1875 
Q 16.0625 -11.328125 19.921875 -12.34375 
Q 23.78125 -13.375 27.78125 -13.375 
Q 36.625 -13.375 41.015625 -8.765625 
Q 45.40625 -4.15625 45.40625 5.171875 
L 45.40625 9.625 
Q 42.625 4.78125 38.28125 2.390625 
Q 33.9375 0 27.875 0 
Q 17.828125 0 11.671875 7.65625 
Q 5.515625 15.328125 5.515625 27.984375 
Q 5.515625 40.671875 11.671875 48.328125 
Q 17.828125 56 27.875 56 
Q 33.9375 56 38.28125 53.609375 
Q 42.625 51.21875 45.40625 46.390625 
L 45.40625 54.6875 
L 54.390625 54.6875 
z
" id="DejaVuSans-67"/>
     </defs>
     <g transform="translate(1174.726562 45.576562)scale(0.1 -0.1)">
      <use xlink:href="#DejaVuSans-54"/>
      <use x="60.865234" xlink:href="#DejaVuSans-72"/>
      <use x="101.978516" xlink:href="#DejaVuSans-61"/>
      <use x="163.257812" xlink:href="#DejaVuSans-69"/>
      <use x="191.041016" xlink:href="#DejaVuSans-6e"/>
      <use x="254.419922" xlink:href="#DejaVuSans-69"/>
      <use x="282.203125" xlink:href="#DejaVuSans-6e"/>
      <use x="345.582031" xlink:href="#DejaVuSans-67"/>
      <use x="409.058594" xlink:href="#DejaVuSans-20"/>
      <use x="440.845703" xlink:href="#DejaVuSans-44"/>
      <use x="517.847656" xlink:href="#DejaVuSans-61"/>
      <use x="579.126953" xlink:href="#DejaVuSans-74"/>
      <use x="618.335938" xlink:href="#DejaVuSans-61"/>
     </g>
    </g>
    <g id="line2d_26">
     <path d="M 1146.726562 56.754687 
L 1166.726562 56.754687 
" style="fill:none;stroke:#ff7f0e;stroke-linecap:square;stroke-width:1.5;"/>
    </g>
    <g id="line2d_27"/>
    <g id="text_21">
     <!-- Validation Data -->
     <defs>
      <path d="M 28.609375 0 
L 0.78125 72.90625 
L 11.078125 72.90625 
L 34.1875 11.53125 
L 57.328125 72.90625 
L 67.578125 72.90625 
L 39.796875 0 
z
" id="DejaVuSans-56"/>
      <path d="M 9.421875 75.984375 
L 18.40625 75.984375 
L 18.40625 0 
L 9.421875 0 
z
" id="DejaVuSans-6c"/>
      <path d="M 30.609375 48.390625 
Q 23.390625 48.390625 19.1875 42.75 
Q 14.984375 37.109375 14.984375 27.296875 
Q 14.984375 17.484375 19.15625 11.84375 
Q 23.34375 6.203125 30.609375 6.203125 
Q 37.796875 6.203125 41.984375 11.859375 
Q 46.1875 17.53125 46.1875 27.296875 
Q 46.1875 37.015625 41.984375 42.703125 
Q 37.796875 48.390625 30.609375 48.390625 
z
M 30.609375 56 
Q 42.328125 56 49.015625 48.375 
Q 55.71875 40.765625 55.71875 27.296875 
Q 55.71875 13.875 49.015625 6.21875 
Q 42.328125 -1.421875 30.609375 -1.421875 
Q 18.84375 -1.421875 12.171875 6.21875 
Q 5.515625 13.875 5.515625 27.296875 
Q 5.515625 40.765625 12.171875 48.375 
Q 18.84375 56 30.609375 56 
z
" id="DejaVuSans-6f"/>
     </defs>
     <g transform="translate(1174.726562 60.254687)scale(0.1 -0.1)">
      <use xlink:href="#DejaVuSans-56"/>
      <use x="68.298828" xlink:href="#DejaVuSans-61"/>
      <use x="129.578125" xlink:href="#DejaVuSans-6c"/>
      <use x="157.361328" xlink:href="#DejaVuSans-69"/>
      <use x="185.144531" xlink:href="#DejaVuSans-64"/>
      <use x="248.621094" xlink:href="#DejaVuSans-61"/>
      <use x="309.900391" xlink:href="#DejaVuSans-74"/>
      <use x="349.109375" xlink:href="#DejaVuSans-69"/>
      <use x="376.892578" xlink:href="#DejaVuSans-6f"/>
      <use x="438.074219" xlink:href="#DejaVuSans-6e"/>
      <use x="501.453125" xlink:href="#DejaVuSans-20"/>
      <use x="533.240234" xlink:href="#DejaVuSans-44"/>
      <use x="610.242188" xlink:href="#DejaVuSans-61"/>
      <use x="671.521484" xlink:href="#DejaVuSans-74"/>
      <use x="710.730469" xlink:href="#DejaVuSans-61"/>
     </g>
    </g>
    <g id="line2d_28">
     <path d="M 1146.726562 71.432812 
L 1166.726562 71.432812 
" style="fill:none;stroke:#2ca02c;stroke-linecap:square;stroke-width:1.5;"/>
    </g>
    <g id="line2d_29"/>
    <g id="text_22">
     <!-- Testing Data -->
     <g transform="translate(1174.726562 74.932812)scale(0.1 -0.1)">
      <use xlink:href="#DejaVuSans-54"/>
      <use x="60.818359" xlink:href="#DejaVuSans-65"/>
      <use x="122.341797" xlink:href="#DejaVuSans-73"/>
      <use x="174.441406" xlink:href="#DejaVuSans-74"/>
      <use x="213.650391" xlink:href="#DejaVuSans-69"/>
      <use x="241.433594" xlink:href="#DejaVuSans-6e"/>
      <use x="304.8125" xlink:href="#DejaVuSans-67"/>
      <use x="368.289062" xlink:href="#DejaVuSans-20"/>
      <use x="400.076172" xlink:href="#DejaVuSans-44"/>
      <use x="477.078125" xlink:href="#DejaVuSans-61"/>
      <use x="538.357422" xlink:href="#DejaVuSans-74"/>
      <use x="577.566406" xlink:href="#DejaVuSans-61"/>
     </g>
    </g>
    <g id="line2d_30">
     <path d="M 1146.726562 86.110937 
L 1166.726562 86.110937 
" style="fill:none;stroke:#ff0000;stroke-linecap:square;stroke-width:1.5;"/>
    </g>
    <g id="line2d_31"/>
    <g id="text_23">
     <!-- Moving average (48 steps) -->
     <defs>
      <path d="M 2.984375 54.6875 
L 12.5 54.6875 
L 29.59375 8.796875 
L 46.6875 54.6875 
L 56.203125 54.6875 
L 35.6875 0 
L 23.484375 0 
z
" id="DejaVuSans-76"/>
     </defs>
     <g transform="translate(1174.726562 89.610937)scale(0.1 -0.1)">
      <use xlink:href="#DejaVuSans-4d"/>
      <use x="86.279297" xlink:href="#DejaVuSans-6f"/>
      <use x="147.460938" xlink:href="#DejaVuSans-76"/>
      <use x="206.640625" xlink:href="#DejaVuSans-69"/>
      <use x="234.423828" xlink:href="#DejaVuSans-6e"/>
      <use x="297.802734" xlink:href="#DejaVuSans-67"/>
      <use x="361.279297" xlink:href="#DejaVuSans-20"/>
      <use x="393.066406" xlink:href="#DejaVuSans-61"/>
      <use x="454.345703" xlink:href="#DejaVuSans-76"/>
      <use x="513.525391" xlink:href="#DejaVuSans-65"/>
      <use x="575.048828" xlink:href="#DejaVuSans-72"/>
      <use x="616.162109" xlink:href="#DejaVuSans-61"/>
      <use x="677.441406" xlink:href="#DejaVuSans-67"/>
      <use x="740.917969" xlink:href="#DejaVuSans-65"/>
      <use x="802.441406" xlink:href="#DejaVuSans-20"/>
      <use x="834.228516" xlink:href="#DejaVuSans-28"/>
      <use x="873.242188" xlink:href="#DejaVuSans-34"/>
      <use x="936.865234" xlink:href="#DejaVuSans-38"/>
      <use x="1000.488281" xlink:href="#DejaVuSans-20"/>
      <use x="1032.275391" xlink:href="#DejaVuSans-73"/>
      <use x="1084.375" xlink:href="#DejaVuSans-74"/>
      <use x="1123.583984" xlink:href="#DejaVuSans-65"/>
      <use x="1185.107422" xlink:href="#DejaVuSans-70"/>
      <use x="1248.583984" xlink:href="#DejaVuSans-73"/>
      <use x="1300.683594" xlink:href="#DejaVuSans-29"/>
     </g>
    </g>
   </g>
  </g>
 </g>
 <defs>
  <clipPath id="pe14b98fe4e">
   <rect height="708.9" width="1261.775" x="55.925" y="14.3"/>
  </clipPath>
 </defs>
</svg>
