<?xml version="1.0" encoding="utf-8" standalone="no"?>
<!DOCTYPE svg PUBLIC "-//W3C//DTD SVG 1.1//EN"
  "http://www.w3.org/Graphics/SVG/1.1/DTD/svg11.dtd">
<!-- Created with matplotlib (http://matplotlib.org/) -->
<svg height="756pt" version="1.1" viewBox="0 0 1332 756" width="1332pt" xmlns="http://www.w3.org/2000/svg" xmlns:xlink="http://www.w3.org/1999/xlink">
 <defs>
  <style type="text/css">
*{stroke-linecap:butt;stroke-linejoin:round;}
  </style>
 </defs>
 <g id="figure_1">
  <g id="patch_1">
   <path d="M 0 756 
L 1332 756 
L 1332 0 
L 0 0 
z
" style="fill:#ffffff;"/>
  </g>
  <g id="axes_1">
   <g id="patch_2">
    <path d="M 43.175 728.2 
L 1317.7 728.2 
L 1317.7 14.3 
L 43.175 14.3 
z
" style="fill:#ffffff;"/>
   </g>
   <g id="matplotlib.axis_1">
    <g id="xtick_1">
     <g id="line2d_1">
      <defs>
       <path d="M 0 0 
L 0 3.5 
" id="m615cc61b90" style="stroke:#000000;stroke-width:0.8;"/>
      </defs>
      <g>
       <use style="stroke:#000000;stroke-width:0.8;" x="101.107955" xlink:href="#m615cc61b90" y="728.2"/>
      </g>
     </g>
     <g id="text_1">
      <!-- 0 -->
      <defs>
       <path d="M 31.78125 66.40625 
Q 24.171875 66.40625 20.328125 58.90625 
Q 16.5 51.421875 16.5 36.375 
Q 16.5 21.390625 20.328125 13.890625 
Q 24.171875 6.390625 31.78125 6.390625 
Q 39.453125 6.390625 43.28125 13.890625 
Q 47.125 21.390625 47.125 36.375 
Q 47.125 51.421875 43.28125 58.90625 
Q 39.453125 66.40625 31.78125 66.40625 
z
M 31.78125 74.21875 
Q 44.046875 74.21875 50.515625 64.515625 
Q 56.984375 54.828125 56.984375 36.375 
Q 56.984375 17.96875 50.515625 8.265625 
Q 44.046875 -1.421875 31.78125 -1.421875 
Q 19.53125 -1.421875 13.0625 8.265625 
Q 6.59375 17.96875 6.59375 36.375 
Q 6.59375 54.828125 13.0625 64.515625 
Q 19.53125 74.21875 31.78125 74.21875 
z
" id="DejaVuSans-30"/>
      </defs>
      <g transform="translate(97.926705 742.798437)scale(0.1 -0.1)">
       <use xlink:href="#DejaVuSans-30"/>
      </g>
     </g>
    </g>
    <g id="xtick_2">
     <g id="line2d_2">
      <g>
       <use style="stroke:#000000;stroke-width:0.8;" x="294.217803" xlink:href="#m615cc61b90" y="728.2"/>
      </g>
     </g>
     <g id="text_2">
      <!-- 200 -->
      <defs>
       <path d="M 19.1875 8.296875 
L 53.609375 8.296875 
L 53.609375 0 
L 7.328125 0 
L 7.328125 8.296875 
Q 12.9375 14.109375 22.625 23.890625 
Q 32.328125 33.6875 34.8125 36.53125 
Q 39.546875 41.84375 41.421875 45.53125 
Q 43.3125 49.21875 43.3125 52.78125 
Q 43.3125 58.59375 39.234375 62.25 
Q 35.15625 65.921875 28.609375 65.921875 
Q 23.96875 65.921875 18.8125 64.3125 
Q 13.671875 62.703125 7.8125 59.421875 
L 7.8125 69.390625 
Q 13.765625 71.78125 18.9375 73 
Q 24.125 74.21875 28.421875 74.21875 
Q 39.75 74.21875 46.484375 68.546875 
Q 53.21875 62.890625 53.21875 53.421875 
Q 53.21875 48.921875 51.53125 44.890625 
Q 49.859375 40.875 45.40625 35.40625 
Q 44.1875 33.984375 37.640625 27.21875 
Q 31.109375 20.453125 19.1875 8.296875 
z
" id="DejaVuSans-32"/>
      </defs>
      <g transform="translate(284.674053 742.798437)scale(0.1 -0.1)">
       <use xlink:href="#DejaVuSans-32"/>
       <use x="63.623047" xlink:href="#DejaVuSans-30"/>
       <use x="127.246094" xlink:href="#DejaVuSans-30"/>
      </g>
     </g>
    </g>
    <g id="xtick_3">
     <g id="line2d_3">
      <g>
       <use style="stroke:#000000;stroke-width:0.8;" x="487.327652" xlink:href="#m615cc61b90" y="728.2"/>
      </g>
     </g>
     <g id="text_3">
      <!-- 400 -->
      <defs>
       <path d="M 37.796875 64.3125 
L 12.890625 25.390625 
L 37.796875 25.390625 
z
M 35.203125 72.90625 
L 47.609375 72.90625 
L 47.609375 25.390625 
L 58.015625 25.390625 
L 58.015625 17.1875 
L 47.609375 17.1875 
L 47.609375 0 
L 37.796875 0 
L 37.796875 17.1875 
L 4.890625 17.1875 
L 4.890625 26.703125 
z
" id="DejaVuSans-34"/>
      </defs>
      <g transform="translate(477.783902 742.798437)scale(0.1 -0.1)">
       <use xlink:href="#DejaVuSans-34"/>
       <use x="63.623047" xlink:href="#DejaVuSans-30"/>
       <use x="127.246094" xlink:href="#DejaVuSans-30"/>
      </g>
     </g>
    </g>
    <g id="xtick_4">
     <g id="line2d_4">
      <g>
       <use style="stroke:#000000;stroke-width:0.8;" x="680.4375" xlink:href="#m615cc61b90" y="728.2"/>
      </g>
     </g>
     <g id="text_4">
      <!-- 600 -->
      <defs>
       <path d="M 33.015625 40.375 
Q 26.375 40.375 22.484375 35.828125 
Q 18.609375 31.296875 18.609375 23.390625 
Q 18.609375 15.53125 22.484375 10.953125 
Q 26.375 6.390625 33.015625 6.390625 
Q 39.65625 6.390625 43.53125 10.953125 
Q 47.40625 15.53125 47.40625 23.390625 
Q 47.40625 31.296875 43.53125 35.828125 
Q 39.65625 40.375 33.015625 40.375 
z
M 52.59375 71.296875 
L 52.59375 62.3125 
Q 48.875 64.0625 45.09375 64.984375 
Q 41.3125 65.921875 37.59375 65.921875 
Q 27.828125 65.921875 22.671875 59.328125 
Q 17.53125 52.734375 16.796875 39.40625 
Q 19.671875 43.65625 24.015625 45.921875 
Q 28.375 48.1875 33.59375 48.1875 
Q 44.578125 48.1875 50.953125 41.515625 
Q 57.328125 34.859375 57.328125 23.390625 
Q 57.328125 12.15625 50.6875 5.359375 
Q 44.046875 -1.421875 33.015625 -1.421875 
Q 20.359375 -1.421875 13.671875 8.265625 
Q 6.984375 17.96875 6.984375 36.375 
Q 6.984375 53.65625 15.1875 63.9375 
Q 23.390625 74.21875 37.203125 74.21875 
Q 40.921875 74.21875 44.703125 73.484375 
Q 48.484375 72.75 52.59375 71.296875 
z
" id="DejaVuSans-36"/>
      </defs>
      <g transform="translate(670.89375 742.798437)scale(0.1 -0.1)">
       <use xlink:href="#DejaVuSans-36"/>
       <use x="63.623047" xlink:href="#DejaVuSans-30"/>
       <use x="127.246094" xlink:href="#DejaVuSans-30"/>
      </g>
     </g>
    </g>
    <g id="xtick_5">
     <g id="line2d_5">
      <g>
       <use style="stroke:#000000;stroke-width:0.8;" x="873.547348" xlink:href="#m615cc61b90" y="728.2"/>
      </g>
     </g>
     <g id="text_5">
      <!-- 800 -->
      <defs>
       <path d="M 31.78125 34.625 
Q 24.75 34.625 20.71875 30.859375 
Q 16.703125 27.09375 16.703125 20.515625 
Q 16.703125 13.921875 20.71875 10.15625 
Q 24.75 6.390625 31.78125 6.390625 
Q 38.8125 6.390625 42.859375 10.171875 
Q 46.921875 13.96875 46.921875 20.515625 
Q 46.921875 27.09375 42.890625 30.859375 
Q 38.875 34.625 31.78125 34.625 
z
M 21.921875 38.8125 
Q 15.578125 40.375 12.03125 44.71875 
Q 8.5 49.078125 8.5 55.328125 
Q 8.5 64.0625 14.71875 69.140625 
Q 20.953125 74.21875 31.78125 74.21875 
Q 42.671875 74.21875 48.875 69.140625 
Q 55.078125 64.0625 55.078125 55.328125 
Q 55.078125 49.078125 51.53125 44.71875 
Q 48 40.375 41.703125 38.8125 
Q 48.828125 37.15625 52.796875 32.3125 
Q 56.78125 27.484375 56.78125 20.515625 
Q 56.78125 9.90625 50.3125 4.234375 
Q 43.84375 -1.421875 31.78125 -1.421875 
Q 19.734375 -1.421875 13.25 4.234375 
Q 6.78125 9.90625 6.78125 20.515625 
Q 6.78125 27.484375 10.78125 32.3125 
Q 14.796875 37.15625 21.921875 38.8125 
z
M 18.3125 54.390625 
Q 18.3125 48.734375 21.84375 45.5625 
Q 25.390625 42.390625 31.78125 42.390625 
Q 38.140625 42.390625 41.71875 45.5625 
Q 45.3125 48.734375 45.3125 54.390625 
Q 45.3125 60.0625 41.71875 63.234375 
Q 38.140625 66.40625 31.78125 66.40625 
Q 25.390625 66.40625 21.84375 63.234375 
Q 18.3125 60.0625 18.3125 54.390625 
z
" id="DejaVuSans-38"/>
      </defs>
      <g transform="translate(864.003598 742.798437)scale(0.1 -0.1)">
       <use xlink:href="#DejaVuSans-38"/>
       <use x="63.623047" xlink:href="#DejaVuSans-30"/>
       <use x="127.246094" xlink:href="#DejaVuSans-30"/>
      </g>
     </g>
    </g>
    <g id="xtick_6">
     <g id="line2d_6">
      <g>
       <use style="stroke:#000000;stroke-width:0.8;" x="1066.657197" xlink:href="#m615cc61b90" y="728.2"/>
      </g>
     </g>
     <g id="text_6">
      <!-- 1000 -->
      <defs>
       <path d="M 12.40625 8.296875 
L 28.515625 8.296875 
L 28.515625 63.921875 
L 10.984375 60.40625 
L 10.984375 69.390625 
L 28.421875 72.90625 
L 38.28125 72.90625 
L 38.28125 8.296875 
L 54.390625 8.296875 
L 54.390625 0 
L 12.40625 0 
z
" id="DejaVuSans-31"/>
      </defs>
      <g transform="translate(1053.932197 742.798437)scale(0.1 -0.1)">
       <use xlink:href="#DejaVuSans-31"/>
       <use x="63.623047" xlink:href="#DejaVuSans-30"/>
       <use x="127.246094" xlink:href="#DejaVuSans-30"/>
       <use x="190.869141" xlink:href="#DejaVuSans-30"/>
      </g>
     </g>
    </g>
    <g id="xtick_7">
     <g id="line2d_7">
      <g>
       <use style="stroke:#000000;stroke-width:0.8;" x="1259.767045" xlink:href="#m615cc61b90" y="728.2"/>
      </g>
     </g>
     <g id="text_7">
      <!-- 1200 -->
      <g transform="translate(1247.042045 742.798437)scale(0.1 -0.1)">
       <use xlink:href="#DejaVuSans-31"/>
       <use x="63.623047" xlink:href="#DejaVuSans-32"/>
       <use x="127.246094" xlink:href="#DejaVuSans-30"/>
       <use x="190.869141" xlink:href="#DejaVuSans-30"/>
      </g>
     </g>
    </g>
    <g id="text_8">
     <!-- 15-Minute Steps -->
     <defs>
      <path d="M 10.796875 72.90625 
L 49.515625 72.90625 
L 49.515625 64.59375 
L 19.828125 64.59375 
L 19.828125 46.734375 
Q 21.96875 47.46875 24.109375 47.828125 
Q 26.265625 48.1875 28.421875 48.1875 
Q 40.625 48.1875 47.75 41.5 
Q 54.890625 34.8125 54.890625 23.390625 
Q 54.890625 11.625 47.5625 5.09375 
Q 40.234375 -1.421875 26.90625 -1.421875 
Q 22.3125 -1.421875 17.546875 -0.640625 
Q 12.796875 0.140625 7.71875 1.703125 
L 7.71875 11.625 
Q 12.109375 9.234375 16.796875 8.0625 
Q 21.484375 6.890625 26.703125 6.890625 
Q 35.15625 6.890625 40.078125 11.328125 
Q 45.015625 15.765625 45.015625 23.390625 
Q 45.015625 31 40.078125 35.4375 
Q 35.15625 39.890625 26.703125 39.890625 
Q 22.75 39.890625 18.8125 39.015625 
Q 14.890625 38.140625 10.796875 36.28125 
z
" id="DejaVuSans-35"/>
      <path d="M 4.890625 31.390625 
L 31.203125 31.390625 
L 31.203125 23.390625 
L 4.890625 23.390625 
z
" id="DejaVuSans-2d"/>
      <path d="M 9.8125 72.90625 
L 24.515625 72.90625 
L 43.109375 23.296875 
L 61.8125 72.90625 
L 76.515625 72.90625 
L 76.515625 0 
L 66.890625 0 
L 66.890625 64.015625 
L 48.09375 14.015625 
L 38.1875 14.015625 
L 19.390625 64.015625 
L 19.390625 0 
L 9.8125 0 
z
" id="DejaVuSans-4d"/>
      <path d="M 9.421875 54.6875 
L 18.40625 54.6875 
L 18.40625 0 
L 9.421875 0 
z
M 9.421875 75.984375 
L 18.40625 75.984375 
L 18.40625 64.59375 
L 9.421875 64.59375 
z
" id="DejaVuSans-69"/>
      <path d="M 54.890625 33.015625 
L 54.890625 0 
L 45.90625 0 
L 45.90625 32.71875 
Q 45.90625 40.484375 42.875 44.328125 
Q 39.84375 48.1875 33.796875 48.1875 
Q 26.515625 48.1875 22.3125 43.546875 
Q 18.109375 38.921875 18.109375 30.90625 
L 18.109375 0 
L 9.078125 0 
L 9.078125 54.6875 
L 18.109375 54.6875 
L 18.109375 46.1875 
Q 21.34375 51.125 25.703125 53.5625 
Q 30.078125 56 35.796875 56 
Q 45.21875 56 50.046875 50.171875 
Q 54.890625 44.34375 54.890625 33.015625 
z
" id="DejaVuSans-6e"/>
      <path d="M 8.5 21.578125 
L 8.5 54.6875 
L 17.484375 54.6875 
L 17.484375 21.921875 
Q 17.484375 14.15625 20.5 10.265625 
Q 23.53125 6.390625 29.59375 6.390625 
Q 36.859375 6.390625 41.078125 11.03125 
Q 45.3125 15.671875 45.3125 23.6875 
L 45.3125 54.6875 
L 54.296875 54.6875 
L 54.296875 0 
L 45.3125 0 
L 45.3125 8.40625 
Q 42.046875 3.421875 37.71875 1 
Q 33.40625 -1.421875 27.6875 -1.421875 
Q 18.265625 -1.421875 13.375 4.4375 
Q 8.5 10.296875 8.5 21.578125 
z
M 31.109375 56 
z
" id="DejaVuSans-75"/>
      <path d="M 18.3125 70.21875 
L 18.3125 54.6875 
L 36.8125 54.6875 
L 36.8125 47.703125 
L 18.3125 47.703125 
L 18.3125 18.015625 
Q 18.3125 11.328125 20.140625 9.421875 
Q 21.96875 7.515625 27.59375 7.515625 
L 36.8125 7.515625 
L 36.8125 0 
L 27.59375 0 
Q 17.1875 0 13.234375 3.875 
Q 9.28125 7.765625 9.28125 18.015625 
L 9.28125 47.703125 
L 2.6875 47.703125 
L 2.6875 54.6875 
L 9.28125 54.6875 
L 9.28125 70.21875 
z
" id="DejaVuSans-74"/>
      <path d="M 56.203125 29.59375 
L 56.203125 25.203125 
L 14.890625 25.203125 
Q 15.484375 15.921875 20.484375 11.0625 
Q 25.484375 6.203125 34.421875 6.203125 
Q 39.59375 6.203125 44.453125 7.46875 
Q 49.3125 8.734375 54.109375 11.28125 
L 54.109375 2.78125 
Q 49.265625 0.734375 44.1875 -0.34375 
Q 39.109375 -1.421875 33.890625 -1.421875 
Q 20.796875 -1.421875 13.15625 6.1875 
Q 5.515625 13.8125 5.515625 26.8125 
Q 5.515625 40.234375 12.765625 48.109375 
Q 20.015625 56 32.328125 56 
Q 43.359375 56 49.78125 48.890625 
Q 56.203125 41.796875 56.203125 29.59375 
z
M 47.21875 32.234375 
Q 47.125 39.59375 43.09375 43.984375 
Q 39.0625 48.390625 32.421875 48.390625 
Q 24.90625 48.390625 20.390625 44.140625 
Q 15.875 39.890625 15.1875 32.171875 
z
" id="DejaVuSans-65"/>
      <path id="DejaVuSans-20"/>
      <path d="M 53.515625 70.515625 
L 53.515625 60.890625 
Q 47.90625 63.578125 42.921875 64.890625 
Q 37.9375 66.21875 33.296875 66.21875 
Q 25.25 66.21875 20.875 63.09375 
Q 16.5 59.96875 16.5 54.203125 
Q 16.5 49.359375 19.40625 46.890625 
Q 22.3125 44.4375 30.421875 42.921875 
L 36.375 41.703125 
Q 47.40625 39.59375 52.65625 34.296875 
Q 57.90625 29 57.90625 20.125 
Q 57.90625 9.515625 50.796875 4.046875 
Q 43.703125 -1.421875 29.984375 -1.421875 
Q 24.8125 -1.421875 18.96875 -0.25 
Q 13.140625 0.921875 6.890625 3.21875 
L 6.890625 13.375 
Q 12.890625 10.015625 18.65625 8.296875 
Q 24.421875 6.59375 29.984375 6.59375 
Q 38.421875 6.59375 43.015625 9.90625 
Q 47.609375 13.234375 47.609375 19.390625 
Q 47.609375 24.75 44.3125 27.78125 
Q 41.015625 30.8125 33.5 32.328125 
L 27.484375 33.5 
Q 16.453125 35.6875 11.515625 40.375 
Q 6.59375 45.0625 6.59375 53.421875 
Q 6.59375 63.09375 13.40625 68.65625 
Q 20.21875 74.21875 32.171875 74.21875 
Q 37.3125 74.21875 42.625 73.28125 
Q 47.953125 72.359375 53.515625 70.515625 
z
" id="DejaVuSans-53"/>
      <path d="M 18.109375 8.203125 
L 18.109375 -20.796875 
L 9.078125 -20.796875 
L 9.078125 54.6875 
L 18.109375 54.6875 
L 18.109375 46.390625 
Q 20.953125 51.265625 25.265625 53.625 
Q 29.59375 56 35.59375 56 
Q 45.5625 56 51.78125 48.09375 
Q 58.015625 40.1875 58.015625 27.296875 
Q 58.015625 14.40625 51.78125 6.484375 
Q 45.5625 -1.421875 35.59375 -1.421875 
Q 29.59375 -1.421875 25.265625 0.953125 
Q 20.953125 3.328125 18.109375 8.203125 
z
M 48.6875 27.296875 
Q 48.6875 37.203125 44.609375 42.84375 
Q 40.53125 48.484375 33.40625 48.484375 
Q 26.265625 48.484375 22.1875 42.84375 
Q 18.109375 37.203125 18.109375 27.296875 
Q 18.109375 17.390625 22.1875 11.75 
Q 26.265625 6.109375 33.40625 6.109375 
Q 40.53125 6.109375 44.609375 11.75 
Q 48.6875 17.390625 48.6875 27.296875 
z
" id="DejaVuSans-70"/>
      <path d="M 44.28125 53.078125 
L 44.28125 44.578125 
Q 40.484375 46.53125 36.375 47.5 
Q 32.28125 48.484375 27.875 48.484375 
Q 21.1875 48.484375 17.84375 46.4375 
Q 14.5 44.390625 14.5 40.28125 
Q 14.5 37.15625 16.890625 35.375 
Q 19.28125 33.59375 26.515625 31.984375 
L 29.59375 31.296875 
Q 39.15625 29.25 43.1875 25.515625 
Q 47.21875 21.78125 47.21875 15.09375 
Q 47.21875 7.46875 41.1875 3.015625 
Q 35.15625 -1.421875 24.609375 -1.421875 
Q 20.21875 -1.421875 15.453125 -0.5625 
Q 10.6875 0.296875 5.421875 2 
L 5.421875 11.28125 
Q 10.40625 8.6875 15.234375 7.390625 
Q 20.0625 6.109375 24.8125 6.109375 
Q 31.15625 6.109375 34.5625 8.28125 
Q 37.984375 10.453125 37.984375 14.40625 
Q 37.984375 18.0625 35.515625 20.015625 
Q 33.0625 21.96875 24.703125 23.78125 
L 21.578125 24.515625 
Q 13.234375 26.265625 9.515625 29.90625 
Q 5.8125 33.546875 5.8125 39.890625 
Q 5.8125 47.609375 11.28125 51.796875 
Q 16.75 56 26.8125 56 
Q 31.78125 56 36.171875 55.265625 
Q 40.578125 54.546875 44.28125 53.078125 
z
" id="DejaVuSans-73"/>
     </defs>
     <g transform="translate(639.614844 756.476562)scale(0.1 -0.1)">
      <use xlink:href="#DejaVuSans-31"/>
      <use x="63.623047" xlink:href="#DejaVuSans-35"/>
      <use x="127.246094" xlink:href="#DejaVuSans-2d"/>
      <use x="163.330078" xlink:href="#DejaVuSans-4d"/>
      <use x="249.609375" xlink:href="#DejaVuSans-69"/>
      <use x="277.392578" xlink:href="#DejaVuSans-6e"/>
      <use x="340.771484" xlink:href="#DejaVuSans-75"/>
      <use x="404.150391" xlink:href="#DejaVuSans-74"/>
      <use x="443.359375" xlink:href="#DejaVuSans-65"/>
      <use x="504.882812" xlink:href="#DejaVuSans-20"/>
      <use x="536.669922" xlink:href="#DejaVuSans-53"/>
      <use x="600.146484" xlink:href="#DejaVuSans-74"/>
      <use x="639.355469" xlink:href="#DejaVuSans-65"/>
      <use x="700.878906" xlink:href="#DejaVuSans-70"/>
      <use x="764.355469" xlink:href="#DejaVuSans-73"/>
     </g>
    </g>
   </g>
   <g id="matplotlib.axis_2">
    <g id="ytick_1">
     <g id="line2d_8">
      <defs>
       <path d="M 0 0 
L -3.5 0 
" id="m1598c5463a" style="stroke:#000000;stroke-width:0.8;"/>
      </defs>
      <g>
       <use style="stroke:#000000;stroke-width:0.8;" x="43.175" xlink:href="#m1598c5463a" y="719.407325"/>
      </g>
     </g>
     <g id="text_9">
      <!-- 0 -->
      <g transform="translate(29.8125 723.206544)scale(0.1 -0.1)">
       <use xlink:href="#DejaVuSans-30"/>
      </g>
     </g>
    </g>
    <g id="ytick_2">
     <g id="line2d_9">
      <g>
       <use style="stroke:#000000;stroke-width:0.8;" x="43.175" xlink:href="#m1598c5463a" y="623.103573"/>
      </g>
     </g>
     <g id="text_10">
      <!-- 250 -->
      <g transform="translate(17.0875 626.902791)scale(0.1 -0.1)">
       <use xlink:href="#DejaVuSans-32"/>
       <use x="63.623047" xlink:href="#DejaVuSans-35"/>
       <use x="127.246094" xlink:href="#DejaVuSans-30"/>
      </g>
     </g>
    </g>
    <g id="ytick_3">
     <g id="line2d_10">
      <g>
       <use style="stroke:#000000;stroke-width:0.8;" x="43.175" xlink:href="#m1598c5463a" y="526.799821"/>
      </g>
     </g>
     <g id="text_11">
      <!-- 500 -->
      <g transform="translate(17.0875 530.599039)scale(0.1 -0.1)">
       <use xlink:href="#DejaVuSans-35"/>
       <use x="63.623047" xlink:href="#DejaVuSans-30"/>
       <use x="127.246094" xlink:href="#DejaVuSans-30"/>
      </g>
     </g>
    </g>
    <g id="ytick_4">
     <g id="line2d_11">
      <g>
       <use style="stroke:#000000;stroke-width:0.8;" x="43.175" xlink:href="#m1598c5463a" y="430.496068"/>
      </g>
     </g>
     <g id="text_12">
      <!-- 750 -->
      <defs>
       <path d="M 8.203125 72.90625 
L 55.078125 72.90625 
L 55.078125 68.703125 
L 28.609375 0 
L 18.3125 0 
L 43.21875 64.59375 
L 8.203125 64.59375 
z
" id="DejaVuSans-37"/>
      </defs>
      <g transform="translate(17.0875 434.295287)scale(0.1 -0.1)">
       <use xlink:href="#DejaVuSans-37"/>
       <use x="63.623047" xlink:href="#DejaVuSans-35"/>
       <use x="127.246094" xlink:href="#DejaVuSans-30"/>
      </g>
     </g>
    </g>
    <g id="ytick_5">
     <g id="line2d_12">
      <g>
       <use style="stroke:#000000;stroke-width:0.8;" x="43.175" xlink:href="#m1598c5463a" y="334.192316"/>
      </g>
     </g>
     <g id="text_13">
      <!-- 1000 -->
      <g transform="translate(10.725 337.991535)scale(0.1 -0.1)">
       <use xlink:href="#DejaVuSans-31"/>
       <use x="63.623047" xlink:href="#DejaVuSans-30"/>
       <use x="127.246094" xlink:href="#DejaVuSans-30"/>
       <use x="190.869141" xlink:href="#DejaVuSans-30"/>
      </g>
     </g>
    </g>
    <g id="ytick_6">
     <g id="line2d_13">
      <g>
       <use style="stroke:#000000;stroke-width:0.8;" x="43.175" xlink:href="#m1598c5463a" y="237.888564"/>
      </g>
     </g>
     <g id="text_14">
      <!-- 1250 -->
      <g transform="translate(10.725 241.687783)scale(0.1 -0.1)">
       <use xlink:href="#DejaVuSans-31"/>
       <use x="63.623047" xlink:href="#DejaVuSans-32"/>
       <use x="127.246094" xlink:href="#DejaVuSans-35"/>
       <use x="190.869141" xlink:href="#DejaVuSans-30"/>
      </g>
     </g>
    </g>
    <g id="ytick_7">
     <g id="line2d_14">
      <g>
       <use style="stroke:#000000;stroke-width:0.8;" x="43.175" xlink:href="#m1598c5463a" y="141.584812"/>
      </g>
     </g>
     <g id="text_15">
      <!-- 1500 -->
      <g transform="translate(10.725 145.384031)scale(0.1 -0.1)">
       <use xlink:href="#DejaVuSans-31"/>
       <use x="63.623047" xlink:href="#DejaVuSans-35"/>
       <use x="127.246094" xlink:href="#DejaVuSans-30"/>
       <use x="190.869141" xlink:href="#DejaVuSans-30"/>
      </g>
     </g>
    </g>
    <g id="ytick_8">
     <g id="line2d_15">
      <g>
       <use style="stroke:#000000;stroke-width:0.8;" x="43.175" xlink:href="#m1598c5463a" y="45.28106"/>
      </g>
     </g>
     <g id="text_16">
      <!-- 1750 -->
      <g transform="translate(10.725 49.080278)scale(0.1 -0.1)">
       <use xlink:href="#DejaVuSans-31"/>
       <use x="63.623047" xlink:href="#DejaVuSans-37"/>
       <use x="127.246094" xlink:href="#DejaVuSans-35"/>
       <use x="190.869141" xlink:href="#DejaVuSans-30"/>
      </g>
     </g>
    </g>
    <g id="text_17">
     <!-- Bandwidth (kbps) -->
     <defs>
      <path d="M 19.671875 34.8125 
L 19.671875 8.109375 
L 35.5 8.109375 
Q 43.453125 8.109375 47.28125 11.40625 
Q 51.125 14.703125 51.125 21.484375 
Q 51.125 28.328125 47.28125 31.5625 
Q 43.453125 34.8125 35.5 34.8125 
z
M 19.671875 64.796875 
L 19.671875 42.828125 
L 34.28125 42.828125 
Q 41.5 42.828125 45.03125 45.53125 
Q 48.578125 48.25 48.578125 53.8125 
Q 48.578125 59.328125 45.03125 62.0625 
Q 41.5 64.796875 34.28125 64.796875 
z
M 9.8125 72.90625 
L 35.015625 72.90625 
Q 46.296875 72.90625 52.390625 68.21875 
Q 58.5 63.53125 58.5 54.890625 
Q 58.5 48.1875 55.375 44.234375 
Q 52.25 40.28125 46.1875 39.3125 
Q 53.46875 37.75 57.5 32.78125 
Q 61.53125 27.828125 61.53125 20.40625 
Q 61.53125 10.640625 54.890625 5.3125 
Q 48.25 0 35.984375 0 
L 9.8125 0 
z
" id="DejaVuSans-42"/>
      <path d="M 34.28125 27.484375 
Q 23.390625 27.484375 19.1875 25 
Q 14.984375 22.515625 14.984375 16.5 
Q 14.984375 11.71875 18.140625 8.90625 
Q 21.296875 6.109375 26.703125 6.109375 
Q 34.1875 6.109375 38.703125 11.40625 
Q 43.21875 16.703125 43.21875 25.484375 
L 43.21875 27.484375 
z
M 52.203125 31.203125 
L 52.203125 0 
L 43.21875 0 
L 43.21875 8.296875 
Q 40.140625 3.328125 35.546875 0.953125 
Q 30.953125 -1.421875 24.3125 -1.421875 
Q 15.921875 -1.421875 10.953125 3.296875 
Q 6 8.015625 6 15.921875 
Q 6 25.140625 12.171875 29.828125 
Q 18.359375 34.515625 30.609375 34.515625 
L 43.21875 34.515625 
L 43.21875 35.40625 
Q 43.21875 41.609375 39.140625 45 
Q 35.0625 48.390625 27.6875 48.390625 
Q 23 48.390625 18.546875 47.265625 
Q 14.109375 46.140625 10.015625 43.890625 
L 10.015625 52.203125 
Q 14.9375 54.109375 19.578125 55.046875 
Q 24.21875 56 28.609375 56 
Q 40.484375 56 46.34375 49.84375 
Q 52.203125 43.703125 52.203125 31.203125 
z
" id="DejaVuSans-61"/>
      <path d="M 45.40625 46.390625 
L 45.40625 75.984375 
L 54.390625 75.984375 
L 54.390625 0 
L 45.40625 0 
L 45.40625 8.203125 
Q 42.578125 3.328125 38.25 0.953125 
Q 33.9375 -1.421875 27.875 -1.421875 
Q 17.96875 -1.421875 11.734375 6.484375 
Q 5.515625 14.40625 5.515625 27.296875 
Q 5.515625 40.1875 11.734375 48.09375 
Q 17.96875 56 27.875 56 
Q 33.9375 56 38.25 53.625 
Q 42.578125 51.265625 45.40625 46.390625 
z
M 14.796875 27.296875 
Q 14.796875 17.390625 18.875 11.75 
Q 22.953125 6.109375 30.078125 6.109375 
Q 37.203125 6.109375 41.296875 11.75 
Q 45.40625 17.390625 45.40625 27.296875 
Q 45.40625 37.203125 41.296875 42.84375 
Q 37.203125 48.484375 30.078125 48.484375 
Q 22.953125 48.484375 18.875 42.84375 
Q 14.796875 37.203125 14.796875 27.296875 
z
" id="DejaVuSans-64"/>
      <path d="M 4.203125 54.6875 
L 13.1875 54.6875 
L 24.421875 12.015625 
L 35.59375 54.6875 
L 46.1875 54.6875 
L 57.421875 12.015625 
L 68.609375 54.6875 
L 77.59375 54.6875 
L 63.28125 0 
L 52.6875 0 
L 40.921875 44.828125 
L 29.109375 0 
L 18.5 0 
z
" id="DejaVuSans-77"/>
      <path d="M 54.890625 33.015625 
L 54.890625 0 
L 45.90625 0 
L 45.90625 32.71875 
Q 45.90625 40.484375 42.875 44.328125 
Q 39.84375 48.1875 33.796875 48.1875 
Q 26.515625 48.1875 22.3125 43.546875 
Q 18.109375 38.921875 18.109375 30.90625 
L 18.109375 0 
L 9.078125 0 
L 9.078125 75.984375 
L 18.109375 75.984375 
L 18.109375 46.1875 
Q 21.34375 51.125 25.703125 53.5625 
Q 30.078125 56 35.796875 56 
Q 45.21875 56 50.046875 50.171875 
Q 54.890625 44.34375 54.890625 33.015625 
z
" id="DejaVuSans-68"/>
      <path d="M 31 75.875 
Q 24.46875 64.65625 21.28125 53.65625 
Q 18.109375 42.671875 18.109375 31.390625 
Q 18.109375 20.125 21.3125 9.0625 
Q 24.515625 -2 31 -13.1875 
L 23.1875 -13.1875 
Q 15.875 -1.703125 12.234375 9.375 
Q 8.59375 20.453125 8.59375 31.390625 
Q 8.59375 42.28125 12.203125 53.3125 
Q 15.828125 64.359375 23.1875 75.875 
z
" id="DejaVuSans-28"/>
      <path d="M 9.078125 75.984375 
L 18.109375 75.984375 
L 18.109375 31.109375 
L 44.921875 54.6875 
L 56.390625 54.6875 
L 27.390625 29.109375 
L 57.625 0 
L 45.90625 0 
L 18.109375 26.703125 
L 18.109375 0 
L 9.078125 0 
z
" id="DejaVuSans-6b"/>
      <path d="M 48.6875 27.296875 
Q 48.6875 37.203125 44.609375 42.84375 
Q 40.53125 48.484375 33.40625 48.484375 
Q 26.265625 48.484375 22.1875 42.84375 
Q 18.109375 37.203125 18.109375 27.296875 
Q 18.109375 17.390625 22.1875 11.75 
Q 26.265625 6.109375 33.40625 6.109375 
Q 40.53125 6.109375 44.609375 11.75 
Q 48.6875 17.390625 48.6875 27.296875 
z
M 18.109375 46.390625 
Q 20.953125 51.265625 25.265625 53.625 
Q 29.59375 56 35.59375 56 
Q 45.5625 56 51.78125 48.09375 
Q 58.015625 40.1875 58.015625 27.296875 
Q 58.015625 14.40625 51.78125 6.484375 
Q 45.5625 -1.421875 35.59375 -1.421875 
Q 29.59375 -1.421875 25.265625 0.953125 
Q 20.953125 3.328125 18.109375 8.203125 
L 18.109375 0 
L 9.078125 0 
L 9.078125 75.984375 
L 18.109375 75.984375 
z
" id="DejaVuSans-62"/>
      <path d="M 8.015625 75.875 
L 15.828125 75.875 
Q 23.140625 64.359375 26.78125 53.3125 
Q 30.421875 42.28125 30.421875 31.390625 
Q 30.421875 20.453125 26.78125 9.375 
Q 23.140625 -1.703125 15.828125 -13.1875 
L 8.015625 -13.1875 
Q 14.5 -2 17.703125 9.0625 
Q 20.90625 20.125 20.90625 31.390625 
Q 20.90625 42.671875 17.703125 53.65625 
Q 14.5 64.65625 8.015625 75.875 
z
" id="DejaVuSans-29"/>
     </defs>
     <g transform="translate(4.645312 415.207812)rotate(-90)scale(0.1 -0.1)">
      <use xlink:href="#DejaVuSans-42"/>
      <use x="68.603516" xlink:href="#DejaVuSans-61"/>
      <use x="129.882812" xlink:href="#DejaVuSans-6e"/>
      <use x="193.261719" xlink:href="#DejaVuSans-64"/>
      <use x="256.738281" xlink:href="#DejaVuSans-77"/>
      <use x="338.525391" xlink:href="#DejaVuSans-69"/>
      <use x="366.308594" xlink:href="#DejaVuSans-64"/>
      <use x="429.785156" xlink:href="#DejaVuSans-74"/>
      <use x="468.994141" xlink:href="#DejaVuSans-68"/>
      <use x="532.373047" xlink:href="#DejaVuSans-20"/>
      <use x="564.160156" xlink:href="#DejaVuSans-28"/>
      <use x="603.173828" xlink:href="#DejaVuSans-6b"/>
      <use x="661.083984" xlink:href="#DejaVuSans-62"/>
      <use x="724.560547" xlink:href="#DejaVuSans-70"/>
      <use x="788.037109" xlink:href="#DejaVuSans-73"/>
      <use x="840.136719" xlink:href="#DejaVuSans-29"/>
     </g>
    </g>
   </g>
   <g id="LineCollection_1">
    <path clip-path="url(#pd125b21983)" d="M 1066.657197 613.094933 
L 1259.767045 613.094933 
" style="fill:none;stroke:#000000;stroke-width:1.5;"/>
   </g>
   <g id="LineCollection_2">
    <path clip-path="url(#pd125b21983)" d="M 101.107955 598.222745 
L 873.547348 598.222745 
" style="fill:none;stroke:#000000;stroke-width:1.5;"/>
   </g>
   <g id="line2d_16">
    <path clip-path="url(#pd125b21983)" d="M 101.107955 602.990226 
L 102.073504 629.801191 
L 103.039053 632.968505 
L 104.004602 638.796385 
L 104.970152 638.183469 
L 105.935701 651.294455 
L 106.90125 629.770373 
L 107.866799 616.816864 
L 108.832348 650.400756 
L 109.797898 626.842739 
L 110.763447 650.065195 
L 111.728996 662.93311 
L 112.694545 634.779863 
L 113.660095 654.98909 
L 114.625644 667.548833 
L 115.591193 656.72171 
L 116.556742 648.753769 
L 117.522292 655.619148 
L 118.487841 671.531109 
L 119.45339 589.927161 
L 120.418939 593.477958 
L 121.384489 614.574065 
L 122.350038 558.883955 
L 123.315587 488.987115 
L 124.281136 560.938422 
L 125.246686 395.426094 
L 126.212235 618.005021 
L 127.177784 533.68916 
L 129.108883 646.891023 
L 130.074432 627.072135 
L 131.039981 626.109945 
L 132.00553 641.638424 
L 132.97108 636.471381 
L 133.936629 654.69806 
L 134.902178 595.077024 
L 135.867727 402.558581 
L 136.833277 584.825181 
L 137.798826 634.971623 
L 138.764375 545.937302 
L 139.729924 443.918654 
L 140.695473 532.107236 
L 141.661023 594.734645 
L 142.626572 584.212265 
L 143.592121 637.354833 
L 144.55767 464.816145 
L 145.52322 501.560533 
L 146.488769 570.957441 
L 147.454318 624.40818 
L 148.419867 386.218608 
L 149.385417 607.753178 
L 150.350966 620.980614 
L 151.316515 612.392901 
L 152.282064 542.516593 
L 153.247614 641.378173 
L 154.213163 536.585977 
L 155.178712 405.195147 
L 156.144261 559.370173 
L 157.109811 622.343428 
L 158.07536 536.627079 
L 159.040909 639.142231 
L 160.006458 573.980955 
L 160.972008 665.949767 
L 161.937557 575.011636 
L 162.903106 635.385922 
L 163.868655 650.691824 
L 164.834205 567.338153 
L 165.799754 565.876031 
L 166.765303 630.119609 
L 167.730852 473.992852 
L 168.696402 612.673645 
L 169.661951 636.074186 
L 170.6275 619.908869 
L 171.593049 598.107395 
L 172.558598 599.545518 
L 173.524148 622.535149 
L 174.489697 523.108613 
L 175.455246 630.876364 
L 176.420795 449.582201 
L 177.386345 575.443077 
L 178.351894 623.452847 
L 179.317443 538.030995 
L 180.282992 650.664435 
L 181.248542 629.568328 
L 182.214091 539.041106 
L 183.17964 638.087589 
L 184.145189 539.236256 
L 185.110739 608.780431 
L 186.076288 530.857406 
L 187.041837 514.383917 
L 188.007386 636.827512 
L 188.972936 646.370559 
L 189.938485 641.467196 
L 190.904034 576.01489 
L 191.869583 646.860206 
L 192.835133 627.561782 
L 193.800682 637.341119 
L 194.766231 663.254957 
L 195.73178 636.820655 
L 196.69733 424.216216 
L 197.662879 508.443054 
L 198.628428 491.84283 
L 199.593977 566.221877 
L 200.559527 521.064393 
L 201.525076 572.13878 
L 202.490625 495.21219 
L 203.456174 521.163701 
L 204.421723 580.603225 
L 205.387273 615.169838 
L 206.352822 676.064627 
L 207.318371 627.709049 
L 208.28392 531.521709 
L 209.24947 649.681713 
L 210.215019 631.982355 
L 211.180568 551.891879 
L 212.146117 626.212682 
L 213.111667 504.149178 
L 214.077216 630.544232 
L 215.042765 413.995152 
L 216.008314 501.584494 
L 216.973864 649.996704 
L 217.939413 607.626481 
L 218.904962 609.544004 
L 219.870511 629.955277 
L 220.836061 562.369727 
L 221.80161 521.817719 
L 222.767159 537.394081 
L 223.732708 607.544315 
L 224.698258 597.97384 
L 225.663807 578.812398 
L 226.629356 645.113911 
L 227.594905 634.023147 
L 228.560455 637.752028 
L 229.526004 603.592856 
L 230.491553 638.091017 
L 231.457102 620.686117 
L 232.422652 639.433261 
L 233.388201 654.725449 
L 234.35375 551.539176 
L 235.319299 647.582715 
L 236.284848 511.27138 
L 237.250398 546.759081 
L 238.215947 623.812368 
L 239.181496 638.008813 
L 240.147045 500.975006 
L 241.112595 520.115916 
L 242.078144 575.419078 
L 243.043693 404.191893 
L 244.009242 555.25781 
L 244.974792 575.227356 
L 245.940341 623.504196 
L 246.90589 592.741773 
L 247.871439 523.38254 
L 248.836989 557.476649 
L 250.768087 641.182984 
L 251.733636 580.497098 
L 252.699186 574.313087 
L 253.664735 603.500405 
L 254.630284 636.49877 
L 255.595833 562.181395 
L 256.561383 573.12493 
L 257.526932 503.050044 
L 258.492481 629.746374 
L 259.45803 494.678012 
L 260.42358 557.260928 
L 261.389129 548.073974 
L 262.354678 632.136441 
L 263.320227 647.623779 
L 264.285777 576.775035 
L 265.251326 628.616423 
L 266.216875 563.629804 
L 267.182424 563.455186 
L 268.147973 474.804346 
L 271.044621 613.300274 
L 272.01017 631.68104 
L 272.97572 657.358586 
L 273.941269 656.687465 
L 274.906818 610.632892 
L 275.872367 595.549567 
L 276.837917 562.849089 
L 277.803466 526.056779 
L 278.769015 552.354137 
L 279.734564 650.34255 
L 280.700114 585.04433 
L 281.665663 342.516389 
L 282.631212 571.673093 
L 283.596761 445.716337 
L 284.562311 557.997113 
L 285.52786 446.572362 
L 286.493409 597.963594 
L 287.458958 613.98511 
L 288.424508 569.074163 
L 289.390057 613.177006 
L 290.355606 630.86265 
L 291.321155 643.268307 
L 292.286705 658.52964 
L 293.252254 652.783965 
L 294.217803 645.124158 
L 295.183352 670.671617 
L 296.148902 619.775315 
L 297.114451 603.274399 
L 298.08 654.913781 
L 299.045549 646.350027 
L 300.011098 619.333589 
L 300.976648 669.733426 
L 301.942197 602.031464 
L 302.907746 651.065059 
L 303.873295 672.866495 
L 304.838845 583.301463 
L 305.804394 653.540682 
L 306.769943 661.775731 
L 307.735492 620.213613 
L 308.701042 620.189652 
L 309.666591 577.449585 
L 310.63214 565.177521 
L 311.597689 650.678111 
L 312.563239 633.694405 
L 313.528788 632.985609 
L 314.494337 657.913296 
L 315.459886 655.605434 
L 316.425436 664.648588 
L 317.390985 536.418216 
L 318.356534 674.794304 
L 319.322083 642.497877 
L 320.287633 638.881979 
L 321.253182 630.403821 
L 322.218731 644.952968 
L 323.18428 672.349459 
L 324.14983 433.526439 
L 325.115379 388.040251 
L 326.080928 333.315721 
L 327.046477 459.765552 
L 328.012027 457.741902 
L 328.977576 428.578545 
L 329.943125 470.041394 
L 330.908674 370.919563 
L 331.874223 439.7378 
L 332.839773 439.487834 
L 333.805322 458.769155 
L 334.770871 622.53176 
L 335.73642 658.557067 
L 336.70197 641.265189 
L 337.667519 644.68247 
L 338.633068 659.091206 
L 339.598617 640.525576 
L 340.564167 641.340499 
L 341.529716 572.522261 
L 342.495265 685.83368 
L 343.460814 683.15944 
L 344.426364 639.080596 
L 345.391913 665.593636 
L 346.357462 659.577425 
L 347.323011 623.740449 
L 348.288561 661.094324 
L 349.25411 592.056938 
L 350.219659 671.185263 
L 351.185208 659.37199 
L 352.150758 656.279984 
L 353.116307 635.885854 
L 354.081856 623.278191 
L 355.047405 665.117703 
L 356.012955 660.183522 
L 356.978504 560.835724 
L 357.944053 638.121835 
L 358.909602 667.689205 
L 359.875152 533.415233 
L 360.840701 676.290633 
L 361.80625 581.698969 
L 362.771799 679.844896 
L 363.737348 660.611534 
L 364.702898 574.152144 
L 365.668447 674.39368 
L 366.633996 642.025334 
L 367.599545 669.141042 
L 369.530644 615.820428 
L 370.496193 660.26226 
L 371.461742 656.348475 
L 372.427292 657.242174 
L 373.392841 619.203502 
L 374.35839 649.71592 
L 375.323939 676.530313 
L 376.289489 659.61167 
L 377.255038 511.695964 
L 378.220587 649.352971 
L 379.186136 665.771682 
L 380.151686 664.374661 
L 381.117235 654.02351 
L 382.082784 655.475347 
L 383.048333 603.387421 
L 384.013883 648.000442 
L 384.979432 666.30586 
L 385.944981 652.893521 
L 386.91053 666.477088 
L 387.87608 654.136494 
L 388.841629 670.370302 
L 389.807178 666.874283 
L 390.772727 652.403874 
L 391.738277 602.908021 
L 392.703826 650.849339 
L 393.669375 669.151327 
L 394.634924 655.239056 
L 395.600473 661.385393 
L 396.566023 660.604678 
L 397.531572 649.774165 
L 398.497121 681.947323 
L 399.46267 606.198643 
L 400.42822 600.401581 
L 401.393769 651.972433 
L 402.359318 662.104435 
L 403.324867 585.027226 
L 404.290417 638.399189 
L 405.255966 665.905236 
L 406.221515 646.654771 
L 407.187064 661.258696 
L 408.152614 695.75 
L 409.118163 628.609566 
L 410.083712 630.273695 
L 411.049261 671.777646 
L 412.014811 659.734939 
L 412.98036 675.598979 
L 413.945909 683.570349 
L 414.911458 654.96513 
L 415.877008 646.168552 
L 416.842557 659.810287 
L 417.808106 645.363877 
L 418.773655 639.275746 
L 419.739205 666.44966 
L 420.704754 650.585659 
L 421.670303 666.504477 
L 422.635852 673.027438 
L 423.601402 475.533712 
L 424.566951 634.728514 
L 425.5325 628.770509 
L 426.498049 628.222656 
L 427.463598 606.267096 
L 428.429148 659.536361 
L 429.394697 671.435229 
L 430.360246 620.638197 
L 431.325795 625.784669 
L 432.291345 559.359888 
L 433.256894 573.378324 
L 434.222443 669.332802 
L 435.187992 644.894762 
L 436.153542 644.9735 
L 437.119091 506.819989 
L 438.08464 647.048538 
L 439.050189 603.260724 
L 440.015739 532.524963 
L 440.981288 632.328201 
L 441.946837 409.42396 
L 442.912386 412.108485 
L 443.877936 533.528256 
L 444.843485 510.435887 
L 445.809034 531.1108 
L 446.774583 575.41565 
L 447.740133 570.447262 
L 448.705682 639.765393 
L 449.671231 673.013724 
L 451.60233 592.207634 
L 452.567879 643.706566 
L 453.533428 659.22476 
L 454.498977 591.967915 
L 455.464527 661.313473 
L 456.430076 619.925973 
L 457.395625 668.353509 
L 458.361174 630.123038 
L 459.326723 619.932829 
L 460.292273 630.715421 
L 461.257822 628.760224 
L 462.223371 550.61466 
L 463.18892 636.378929 
L 464.15447 632.971934 
L 465.120019 670.555205 
L 466.085568 634.85864 
L 467.051117 650.82195 
L 468.016667 624.260913 
L 468.982216 626.852986 
L 469.947765 607.383372 
L 470.913314 643.446354 
L 471.878864 665.436121 
L 472.844413 682.317129 
L 473.809962 644.357156 
L 474.775511 631.530382 
L 475.741061 593.457426 
L 476.70661 647.726516 
L 477.672159 650.609619 
L 478.637708 649.685103 
L 479.603258 656.557339 
L 480.568807 657.269563 
L 481.534356 564.982332 
L 482.499905 631.948109 
L 483.465455 660.436916 
L 484.431004 609.150238 
L 485.396553 630.420963 
L 486.362102 609.078318 
L 487.327652 668.219955 
L 488.293201 681.104973 
L 489.25875 670.394262 
L 490.224299 676.420758 
L 491.189848 655.944423 
L 492.155398 658.584456 
L 493.120947 645.915158 
L 494.086496 606.058232 
L 495.052045 632.139869 
L 496.017595 621.093598 
L 496.983144 595.922802 
L 497.948693 627.92477 
L 498.914242 645.932262 
L 499.879792 642.244483 
L 500.845341 662.368115 
L 501.81089 659.043286 
L 502.776439 663.953467 
L 503.741989 672.650775 
L 504.707538 644.77835 
L 505.673087 648.551724 
L 506.638636 559.712591 
L 507.604186 642.364323 
L 508.569735 645.47686 
L 509.535284 580.685391 
L 510.500833 675.581837 
L 511.466383 675.424323 
L 512.431932 675.537345 
L 513.397481 649.031124 
L 514.36303 642.720416 
L 515.32858 610.934207 
L 516.294129 639.943478 
L 517.259678 684.826997 
L 518.225227 635.464699 
L 519.190777 656.23892 
L 520.156326 636.59465 
L 521.121875 610.215126 
L 522.087424 575.761496 
L 523.052973 639.498323 
L 524.018523 427.462269 
L 524.984072 660.508798 
L 525.949621 642.412244 
L 526.91517 605.428213 
L 527.88072 412.536497 
L 528.846269 446.236801 
L 529.811818 626.517425 
L 530.777367 648.22302 
L 531.742917 629.647105 
L 532.708466 645.035134 
L 533.674015 642.946422 
L 534.639564 510.589973 
L 535.605114 611.242379 
L 536.570663 515.445377 
L 537.536212 484.152243 
L 538.501761 507.46715 
L 539.467311 550.104481 
L 540.43286 602.736831 
L 541.398409 468.233426 
L 542.363958 667.589897 
L 543.329508 660.231443 
L 544.295057 665.093704 
L 545.260606 588.259604 
L 546.226155 639.991399 
L 547.191705 624.486918 
L 548.157254 643.442925 
L 549.122803 611.742311 
L 550.088352 621.730512 
L 551.053902 626.161332 
L 552.019451 632.478859 
L 552.985 634.814109 
L 553.950549 618.70357 
L 554.916098 612.410004 
L 555.881648 648.764016 
L 556.847197 648.952347 
L 557.812746 646.021285 
L 558.778295 609.544004 
L 559.743845 647.428629 
L 560.709394 560.551512 
L 561.674943 593.635472 
L 562.640492 651.311597 
L 563.606042 664.206862 
L 564.571591 598.864149 
L 565.53714 634.927093 
L 566.502689 642.066436 
L 567.468239 634.985299 
L 568.433788 685.508404 
L 569.399337 655.975241 
L 570.364886 661.628502 
L 571.330436 619.241137 
L 572.295985 651.729324 
L 573.261534 619.326771 
L 574.227083 669.02463 
L 575.192633 623.819225 
L 576.158182 660.594392 
L 577.123731 652.938051 
L 578.08928 612.560662 
L 579.05483 560.839114 
L 580.020379 631.318052 
L 580.985928 651.773855 
L 581.951477 541.461951 
L 582.917027 637.341119 
L 583.882576 647.555327 
L 584.848125 641.645242 
L 585.813674 561.845835 
L 586.779223 662.35783 
L 587.744773 650.147361 
L 588.710322 619.922544 
L 589.675871 616.344321 
L 590.64142 510.497521 
L 591.60697 678.262934 
L 592.572519 646.117165 
L 593.538068 647.435448 
L 594.503617 621.525039 
L 595.469167 586.68107 
L 596.434716 638.63887 
L 597.400265 651.897123 
L 598.365814 633.41705 
L 599.331364 602.493722 
L 600.296913 597.069895 
L 601.262462 633.951227 
L 602.228011 617.333899 
L 603.193561 630.71885 
L 604.15911 652.818211 
L 605.124659 638.025955 
L 606.090208 612.981817 
L 607.055758 630.595581 
L 608.021307 606.623227 
L 608.986856 564.889881 
L 609.952405 609.989159 
L 610.917955 607.62991 
L 611.883504 459.269049 
L 612.849053 253.574519 
L 613.814602 221.956071 
L 614.780152 250.023684 
L 615.745701 288.524653 
L 616.71125 229.465183 
L 617.676799 659.837676 
L 618.642348 651.667689 
L 619.607898 584.239654 
L 620.573447 624.284912 
L 621.538996 508.052677 
L 622.504545 543.129508 
L 623.470095 505.22778 
L 624.435644 560.914462 
L 625.401193 582.513891 
L 626.366742 542.530307 
L 627.332292 445.596497 
L 628.297841 602.428659 
L 629.26339 496.883175 
L 630.228939 494.297959 
L 631.194489 663.563129 
L 632.160038 617.443493 
L 633.125587 584.629993 
L 635.056686 486.983997 
L 636.022235 578.935667 
L 636.987784 640.008502 
L 637.953333 623.295333 
L 638.918883 633.379414 
L 639.884432 615.591033 
L 640.849981 575.905335 
L 641.81553 623.267944 
L 642.78108 639.446974 
L 643.746629 617.398962 
L 644.712178 641.248047 
L 645.677727 661.371679 
L 646.643277 599.07987 
L 647.608826 555.429 
L 648.574375 641.652099 
L 649.539924 669.055447 
L 651.471023 641.984231 
L 652.436572 661.025833 
L 653.402121 627.191975 
L 654.36767 611.225237 
L 655.33322 627.507004 
L 656.298769 622.319429 
L 657.264318 689.340022 
L 658.229867 641.559648 
L 659.195417 624.637576 
L 660.160966 645.661764 
L 661.126515 630.496272 
L 662.092064 656.416967 
L 663.057614 625.73332 
L 664.023163 656.11908 
L 664.988712 611.399893 
L 665.954261 636.635752 
L 666.919811 574.717139 
L 667.88536 614.974689 
L 668.850909 615.186981 
L 669.816458 487.822918 
L 670.782008 654.201557 
L 671.747557 587.848695 
L 672.713106 601.973258 
L 673.678655 582.144085 
L 674.644205 642.559512 
L 675.609754 581.222997 
L 676.575303 598.970276 
L 677.540852 638.597768 
L 678.506402 653.752974 
L 679.471951 627.510432 
L 680.4375 639.570243 
L 681.403049 621.504507 
L 682.368598 558.455942 
L 683.334148 657.718146 
L 684.299697 618.316621 
L 685.265246 634.232011 
L 686.230795 652.020392 
L 687.196345 653.496189 
L 688.161894 656.173857 
L 689.127443 605.527483 
L 690.092992 655.516411 
L 691.058542 644.182538 
L 692.98964 606.205461 
L 693.955189 597.956737 
L 694.920739 643.056015 
L 695.886288 662.88515 
L 696.851837 625.94904 
L 697.817386 656.848407 
L 698.782936 617.063401 
L 699.748485 654.29058 
L 700.714034 607.972327 
L 701.679583 665.864134 
L 702.645133 609.085175 
L 703.610682 626.924906 
L 704.576231 616.919601 
L 705.54178 422.921894 
L 706.50733 361.828488 
L 708.438428 368.402837 
L 709.403977 468.658048 
L 710.369527 678.334853 
L 711.335076 621.223723 
L 712.300625 655.27673 
L 713.266174 613.331092 
L 714.231723 601.240464 
L 715.197273 627.496719 
L 716.162822 355.798602 
L 717.128371 406.167583 
L 718.09392 335.29145 
L 719.05947 339.595612 
L 720.025019 364.160349 
L 720.990568 494.999898 
L 721.956117 576.805852 
L 722.921667 544.036921 
L 723.887216 564.766612 
L 724.852765 497.393354 
L 725.818314 46.75 
L 726.783864 361.112836 
L 727.749413 454.115758 
L 728.714962 308.196312 
L 729.680511 399.675439 
L 730.646061 352.877825 
L 731.61161 343.321064 
L 732.577159 380.154476 
L 733.542708 390.509055 
L 734.508258 415.885287 
L 735.473807 487.186004 
L 736.439356 373.412327 
L 737.404905 294.184733 
L 738.370455 352.634716 
L 739.336004 283.309689 
L 740.301553 345.752195 
L 741.267102 387.372519 
L 742.232652 291.917974 
L 743.198201 496.684559 
L 744.16375 605.383682 
L 745.129299 648.03126 
L 746.094848 641.559648 
L 747.060398 547.046721 
L 748.025947 665.586779 
L 748.991496 632.804134 
L 749.957045 640.501577 
L 750.922595 637.724639 
L 751.888144 637.214422 
L 753.819242 607.828526 
L 754.784792 620.761465 
L 755.750341 616.450486 
L 756.71589 618.104329 
L 757.681439 640.166017 
L 758.646989 607.486109 
L 759.612538 566.838221 
L 760.578087 625.223103 
L 761.543636 654.143351 
L 762.509186 569.721324 
L 763.474735 597.624605 
L 764.440284 599.706461 
L 765.405833 625.592909 
L 766.371383 601.644516 
L 767.336932 597.121244 
L 768.302481 601.124052 
L 769.26803 626.740002 
L 770.23358 613.865269 
L 771.199129 628.383599 
L 772.164678 653.413985 
L 773.130227 651.345842 
L 774.095777 648.654461 
L 776.026875 582.294742 
L 776.992424 647.096458 
L 777.957973 643.405251 
L 778.923523 645.658335 
L 779.889072 645.401512 
L 780.854621 628.859532 
L 781.82017 636.830941 
L 782.78572 531.357338 
L 783.751269 629.427956 
L 785.682367 655.519839 
L 786.647917 641.960271 
L 787.613466 664.42601 
L 788.579015 637.5808 
L 789.544564 634.252543 
L 790.510114 635.584539 
L 791.475663 670.449078 
L 792.441212 560.157745 
L 793.406761 602.914878 
L 794.372311 631.886475 
L 795.33786 576.100485 
L 796.303409 604.548189 
L 797.268958 614.00907 
L 798.234508 613.413258 
L 799.200057 599.305837 
L 800.165606 608.129842 
L 801.131155 569.046774 
L 802.096705 640.460514 
L 803.062254 648.294939 
L 804.027803 644.185966 
L 804.993352 609.26665 
L 805.958902 665.151948 
L 806.924451 614.923301 
L 807.89 629.873072 
L 808.855549 581.86673 
L 809.821098 615.967696 
L 810.786648 483.518757 
L 811.752197 565.400059 
L 812.717746 557.469792 
L 813.683295 564.19137 
L 814.648845 618.347439 
L 816.579943 679.632604 
L 817.545492 521.16713 
L 818.511042 604.917996 
L 819.476591 614.824031 
L 820.44214 502.950736 
L 821.407689 547.057007 
L 822.373239 636.895965 
L 823.338788 640.066747 
L 824.304337 635.646173 
L 825.269886 653.800933 
L 826.235436 632.235749 
L 827.200985 641.645242 
L 828.166534 643.285411 
L 829.132083 599.881117 
L 830.097633 584.886815 
L 831.063182 537.106479 
L 832.99428 654.424134 
L 833.95983 647.616961 
L 834.925379 616.697023 
L 835.890928 615.450622 
L 836.856477 605.352865 
L 837.822027 666.360637 
L 838.787576 607.287492 
L 839.753125 649.527627 
L 840.718674 605.308334 
L 841.684223 583.89038 
L 842.649773 549.515526 
L 843.615322 638.176612 
L 844.580871 665.812784 
L 845.54642 580.661431 
L 846.51197 605.503523 
L 847.477519 562.708716 
L 848.443068 597.063038 
L 849.408617 645.86038 
L 850.374167 571.65938 
L 851.339716 633.595135 
L 852.305265 591.276261 
L 853.270814 588.204788 
L 854.236364 594.087483 
L 855.201913 638.043058 
L 856.167462 635.731768 
L 857.133011 612.742136 
L 858.098561 624.976565 
L 859.06411 641.391886 
L 860.029659 651.393763 
L 860.995208 631.574874 
L 861.960758 626.57906 
L 862.926307 672.613101 
L 863.891856 605.14743 
L 864.857405 629.451916 
L 865.822955 624.819051 
L 866.788504 659.375418 
L 867.754053 623.377499 
L 868.719602 620.175939 
L 869.685152 609.547433 
L 870.650701 625.079302 
L 871.61625 664.792388 
L 872.581799 574.902042 
L 872.581799 574.902042 
" style="fill:none;stroke:#1f77b4;stroke-linecap:square;stroke-width:1.5;"/>
   </g>
   <g id="line2d_17">
    <path clip-path="url(#pd125b21983)" d="M 873.547348 655.187707 
L 874.512898 641.727447 
L 875.478447 664.367804 
L 876.443996 642.891644 
L 877.409545 641.9637 
L 878.375095 638.566951 
L 879.340644 628.181554 
L 880.306193 632.150116 
L 881.271742 644.655081 
L 882.237292 643.88808 
L 883.202841 634.646309 
L 884.16839 623.356967 
L 885.133939 615.995085 
L 886.099489 626.404442 
L 887.065038 606.862908 
L 888.030587 634.488833 
L 888.996136 628.3596 
L 889.961686 650.719213 
L 890.927235 633.471866 
L 891.892784 657.731821 
L 892.858333 623.428848 
L 893.823883 622.538578 
L 894.789432 614.615129 
L 895.754981 659.800002 
L 896.72053 655.019907 
L 897.68608 607.054668 
L 898.651629 608.852312 
L 899.617178 644.158578 
L 900.582727 620.038956 
L 901.548277 650.626761 
L 902.513826 620.100591 
L 903.479375 654.98909 
L 904.444924 643.056015 
L 905.410473 646.552034 
L 906.376023 646.572566 
L 907.341572 607.208754 
L 908.307121 614.4679 
L 909.27267 637.368508 
L 910.23822 634.485405 
L 911.203769 566.738913 
L 912.169318 655.886217 
L 913.134867 621.436015 
L 914.100417 553.069789 
L 915.065966 625.990104 
L 916.031515 598.442955 
L 916.997064 624.07262 
L 917.962614 613.177006 
L 918.928163 663.850769 
L 919.893712 629.284116 
L 920.859261 656.98878 
L 921.824811 642.648535 
L 922.79036 641.015223 
L 923.755909 671.322207 
L 924.721458 639.714044 
L 925.687008 612.118936 
L 926.652557 640.190016 
L 927.618106 597.994411 
L 928.583655 615.183552 
L 929.549205 557.004106 
L 930.514754 615.382169 
L 931.480303 623.01455 
L 932.445852 590.276397 
L 933.411402 631.838554 
L 934.376951 611.934032 
L 935.3425 619.069948 
L 936.308049 639.70033 
L 937.273598 649.431747 
L 938.239148 667.45981 
L 939.204697 630.975673 
L 940.170246 645.048848 
L 941.135795 613.094839 
L 942.101345 606.832091 
L 943.066894 639.878415 
L 944.032443 426.000185 
L 944.997992 408.639816 
L 945.963542 671.414658 
L 946.929091 637.039804 
L 947.89464 632.047418 
L 948.860189 611.666963 
L 949.825739 629.373178 
L 950.791288 620.881306 
L 951.756837 664.271924 
L 952.722386 650.137115 
L 953.687936 638.731322 
L 954.653485 632.170687 
L 955.619034 598.477201 
L 956.584583 641.587036 
L 957.550133 653.475619 
L 958.515682 625.175182 
L 959.481231 638.635442 
L 960.44678 654.026939 
L 961.41233 602.514254 
L 962.377879 645.175545 
L 963.343428 598.364217 
L 964.308977 619.268526 
L 965.274527 651.825204 
L 966.240076 662.511916 
L 967.205625 617.518803 
L 968.171174 606.825234 
L 969.136723 636.745307 
L 970.102273 628.780794 
L 971.067822 639.512037 
L 972.033371 663.552844 
L 972.99892 630.123038 
L 973.96447 625.856589 
L 974.930019 644.740676 
L 975.895568 621.168946 
L 976.861117 644.792025 
L 977.826667 659.12888 
L 978.792216 610.434275 
L 979.757765 642.77866 
L 980.723314 604.483127 
L 981.688864 629.893642 
L 982.654413 671.805035 
L 983.619962 648.572294 
L 984.585511 661.29637 
L 985.551061 652.140233 
L 986.51661 656.879225 
L 987.482159 614.666517 
L 988.447708 615.409558 
L 989.413258 647.449161 
L 990.378807 642.244483 
L 991.344356 652.588777 
L 992.309905 653.811218 
L 993.275455 574.792487 
L 994.241004 639.744861 
L 995.206553 597.881389 
L 996.172102 635.62907 
L 997.137652 578.894603 
L 998.103201 573.686496 
L 999.06875 606.99989 
L 1000.034299 596.446694 
L 1000.999848 635.474984 
L 1001.965398 624.692353 
L 1002.930947 625.63744 
L 1003.896496 616.820292 
L 1004.862045 628.383599 
L 1005.827595 630.886611 
L 1006.793144 520.496008 
L 1007.758693 560.82201 
L 1008.724242 611.269768 
L 1009.689792 634.663451 
L 1010.655341 520.615848 
L 1011.62089 603.099781 
L 1012.586439 675.975604 
L 1014.517538 613.248925 
L 1015.483087 613.16672 
L 1016.448636 647.747048 
L 1017.414186 646.096633 
L 1018.379735 656.31423 
L 1019.345284 532.100379 
L 1020.310833 623.781551 
L 1021.276383 616.614857 
L 1022.241932 599.709889 
L 1023.207481 636.42346 
L 1024.17303 637.262381 
L 1025.13858 635.786546 
L 1026.104129 631.900189 
L 1027.069678 617.833831 
L 1028.035227 621.463404 
L 1029.000777 640.909058 
L 1029.966326 620.234145 
L 1030.931875 605.671322 
L 1031.897424 487.918798 
L 1032.862973 641.265189 
L 1033.828523 631.855658 
L 1034.794072 623.576116 
L 1035.759621 588.656799 
L 1036.72517 665.46012 
L 1037.69072 539.599244 
L 1038.656269 637.635578 
L 1039.621818 659.344601 
L 1040.587367 601.87395 
L 1041.552917 647.031434 
L 1042.518466 654.992519 
L 1043.484015 650.715785 
L 1044.449564 614.539819 
L 1045.415114 627.572067 
L 1046.380663 517.455352 
L 1047.346212 637.858155 
L 1048.311761 627.027642 
L 1049.277311 650.907545 
L 1050.24286 643.196388 
L 1051.208409 580.32587 
L 1052.173958 636.550157 
L 1053.139508 640.05989 
L 1054.105057 631.424217 
L 1055.070606 666.254511 
L 1056.036155 626.401013 
L 1057.001705 648.589398 
L 1057.967254 627.787787 
L 1058.932803 647.435448 
L 1059.898352 657.413402 
L 1060.863902 560.250197 
L 1061.829451 641.254904 
L 1062.795 650.096012 
L 1063.760549 608.49622 
L 1064.726098 601.017925 
L 1065.691648 631.427645 
L 1065.691648 631.427645 
" style="fill:none;stroke:#ff7f0e;stroke-linecap:square;stroke-width:1.5;"/>
   </g>
   <g id="line2d_18">
    <path clip-path="url(#pd125b21983)" d="M 1066.657197 664.37809 
L 1067.622746 665.888133 
L 1068.588295 664.949903 
L 1069.553845 550.847522 
L 1070.519394 650.928077 
L 1071.484943 631.663898 
L 1072.450492 620.778569 
L 1073.416042 595.61463 
L 1074.381591 631.557771 
L 1075.34714 620.449865 
L 1076.312689 621.990725 
L 1077.278239 584.602604 
L 1078.243788 649.164639 
L 1079.209337 637.878726 
L 1080.174886 606.065089 
L 1081.140436 609.348816 
L 1082.105985 633.081489 
L 1083.071534 594.135404 
L 1084.037083 594.840771 
L 1085.002633 609.061214 
L 1085.968182 579.326044 
L 1086.933731 630.537375 
L 1087.89928 568.995425 
L 1088.86483 562.869659 
L 1089.830379 571.748403 
L 1090.795928 571.642276 
L 1091.761477 639.402443 
L 1092.727027 593.892295 
L 1093.692576 589.793607 
L 1094.658125 623.90482 
L 1095.623674 615.981371 
L 1096.589223 587.989067 
L 1097.554773 608.376379 
L 1098.520322 634.273113 
L 1099.485871 495.835391 
L 1100.45142 616.635389 
L 1101.41697 605.126859 
L 1102.382519 634.105313 
L 1103.348068 610.691098 
L 1104.313617 598.870968 
L 1105.279167 601.689047 
L 1106.244716 591.142707 
L 1107.210265 567.427176 
L 1108.175814 622.384492 
L 1109.141364 615.327353 
L 1110.106913 585.123068 
L 1111.072462 621.117558 
L 1112.038011 518.462073 
L 1113.003561 471.130242 
L 1113.96911 602.144448 
L 1114.934659 611.52659 
L 1115.900208 607.934653 
L 1116.865758 640.27561 
L 1117.831307 628.041182 
L 1118.796856 650.537738 
L 1119.762405 662.755025 
L 1120.727955 603.928417 
L 1121.693504 619.432897 
L 1122.659053 642.288975 
L 1123.624602 596.658986 
L 1124.590152 627.346061 
L 1125.555701 644.535241 
L 1126.52125 648.863324 
L 1127.486799 625.322411 
L 1128.452348 635.913243 
L 1129.417898 666.186019 
L 1130.383447 627.784359 
L 1131.348996 626.014103 
L 1132.314545 615.026038 
L 1133.280095 651.715649 
L 1134.245644 590.944129 
L 1135.211193 595.737898 
L 1136.176742 653.390024 
L 1137.142292 624.877257 
L 1138.107841 645.517963 
L 1139.07339 619.018599 
L 1141.004489 672.479585 
L 1141.970038 641.634996 
L 1142.935587 643.192959 
L 1143.901136 639.296317 
L 1144.866686 633.0541 
L 1145.832235 619.658903 
L 1147.763333 645.415226 
L 1148.728883 648.332575 
L 1149.694432 646.110308 
L 1150.659981 582.613199 
L 1151.62553 532.682477 
L 1152.59108 642.655392 
L 1153.556629 624.836193 
L 1154.522178 637.782845 
L 1155.487727 673.140421 
L 1156.453277 627.37006 
L 1157.418826 620.703259 
L 1158.384375 605.34258 
L 1159.349924 666.268186 
L 1160.315473 636.204311 
L 1161.281023 626.921477 
L 1162.246572 633.372557 
L 1163.212121 632.759642 
L 1164.17767 633.060957 
L 1165.14322 651.308168 
L 1166.108769 617.210631 
L 1167.074318 605.322048 
L 1168.039867 633.951227 
L 1169.005417 521.595142 
L 1169.970966 607.763464 
L 1170.936515 641.374744 
L 1171.902064 583.2364 
L 1172.867614 490.295151 
L 1173.833163 617.919426 
L 1175.764261 602.329351 
L 1176.729811 623.216556 
L 1177.69536 561.7842 
L 1178.660909 508.79229 
L 1179.626458 529.891826 
L 1180.592008 504.005377 
L 1181.557557 626.270888 
L 1182.523106 601.747253 
L 1183.488655 548.306798 
L 1184.454205 616.563469 
L 1185.419754 629.818294 
L 1186.385303 541.27362 
L 1187.350852 626.50375 
L 1188.316402 643.525092 
L 1189.281951 634.28336 
L 1190.2475 654.324825 
L 1191.213049 631.338622 
L 1192.178598 626.722899 
L 1193.144148 589.026606 
L 1194.109697 583.489756 
L 1195.075246 590.17027 
L 1196.040795 651.958758 
L 1197.006345 635.423596 
L 1197.971894 623.305579 
L 1198.937443 622.391349 
L 1199.902992 628.873246 
L 1200.868542 591.03997 
L 1201.834091 643.918897 
L 1202.79964 612.759279 
L 1203.765189 651.698507 
L 1204.730739 652.547713 
L 1205.696288 634.444303 
L 1206.661837 619.720537 
L 1207.627386 662.309909 
L 1208.592936 620.14855 
L 1209.558485 610.937635 
L 1210.524034 649.828943 
L 1211.489583 638.789528 
L 1212.455133 615.495153 
L 1213.420682 649.78784 
L 1214.386231 627.602884 
L 1215.35178 577.603671 
L 1216.31733 635.403064 
L 1217.282879 628.606138 
L 1218.248428 647.527899 
L 1219.213977 630.855794 
L 1220.179527 662.76531 
L 1221.145076 557.004106 
L 1222.110625 620.802568 
L 1223.076174 591.76248 
L 1224.041723 605.962352 
L 1225.007273 682.977965 
L 1225.972822 621.727084 
L 1226.938371 633.858776 
L 1227.90392 636.824084 
L 1228.86947 659.149412 
L 1229.835019 598.391606 
L 1230.800568 563.129872 
L 1231.766117 636.283049 
L 1232.731667 470.921379 
L 1233.697216 576.370983 
L 1234.662765 613.755676 
L 1235.628314 630.16414 
L 1236.593864 605.24331 
L 1237.559413 639.888662 
L 1238.524962 593.981318 
L 1239.490511 615.337638 
L 1240.456061 622.079748 
L 1241.42161 633.112306 
L 1242.387159 609.263221 
L 1243.352708 653.893385 
L 1244.318258 570.022639 
L 1245.283807 559.315396 
L 1247.214905 615.642382 
L 1248.180455 631.140005 
L 1249.146004 355.990362 
L 1251.077102 619.083623 
L 1252.042652 626.900945 
L 1253.008201 644.850231 
L 1253.97375 641.494585 
L 1254.939299 617.761912 
L 1255.904848 641.973985 
L 1256.870398 631.893332 
L 1257.835947 599.785237 
L 1258.801496 660.419774 
L 1258.801496 660.419774 
" style="fill:none;stroke:#2ca02c;stroke-linecap:square;stroke-width:1.5;"/>
   </g>
   <g id="patch_3">
    <path d="M 43.175 728.2 
L 43.175 14.3 
" style="fill:none;stroke:#000000;stroke-linecap:square;stroke-linejoin:miter;stroke-width:0.8;"/>
   </g>
   <g id="patch_4">
    <path d="M 1317.7 728.2 
L 1317.7 14.3 
" style="fill:none;stroke:#000000;stroke-linecap:square;stroke-linejoin:miter;stroke-width:0.8;"/>
   </g>
   <g id="patch_5">
    <path d="M 43.175 728.2 
L 1317.7 728.2 
" style="fill:none;stroke:#000000;stroke-linecap:square;stroke-linejoin:miter;stroke-width:0.8;"/>
   </g>
   <g id="patch_6">
    <path d="M 43.175 14.3 
L 1317.7 14.3 
" style="fill:none;stroke:#000000;stroke-linecap:square;stroke-linejoin:miter;stroke-width:0.8;"/>
   </g>
  </g>
 </g>
 <defs>
  <clipPath id="pd125b21983">
   <rect height="713.9" width="1274.525" x="43.175" y="14.3"/>
  </clipPath>
 </defs>
</svg>
