<?xml version="1.0" encoding="utf-8" standalone="no"?>
<!DOCTYPE svg PUBLIC "-//W3C//DTD SVG 1.1//EN"
  "http://www.w3.org/Graphics/SVG/1.1/DTD/svg11.dtd">
<!-- Created with matplotlib (http://matplotlib.org/) -->
<svg height="756pt" version="1.1" viewBox="0 0 1332 756" width="1332pt" xmlns="http://www.w3.org/2000/svg" xmlns:xlink="http://www.w3.org/1999/xlink">
 <defs>
  <style type="text/css">
*{stroke-linecap:butt;stroke-linejoin:round;}
  </style>
 </defs>
 <g id="figure_1">
  <g id="patch_1">
   <path d="M 0 756 
L 1332 756 
L 1332 0 
L 0 0 
z
" style="fill:#ffffff;"/>
  </g>
  <g id="axes_1">
   <g id="patch_2">
    <path d="M 55.925 723.2 
L 1317.7 723.2 
L 1317.7 14.3 
L 55.925 14.3 
z
" style="fill:#ffffff;"/>
   </g>
   <g id="matplotlib.axis_1">
    <g id="xtick_1">
     <g id="line2d_1">
      <defs>
       <path d="M 0 0 
L 0 3.5 
" id="ma63314de08" style="stroke:#000000;stroke-width:0.8;"/>
      </defs>
      <g>
       <use style="stroke:#000000;stroke-width:0.8;" x="113.278409" xlink:href="#ma63314de08" y="723.2"/>
      </g>
     </g>
     <g id="text_1">
      <!-- 0 -->
      <defs>
       <path d="M 31.78125 66.40625 
Q 24.171875 66.40625 20.328125 58.90625 
Q 16.5 51.421875 16.5 36.375 
Q 16.5 21.390625 20.328125 13.890625 
Q 24.171875 6.390625 31.78125 6.390625 
Q 39.453125 6.390625 43.28125 13.890625 
Q 47.125 21.390625 47.125 36.375 
Q 47.125 51.421875 43.28125 58.90625 
Q 39.453125 66.40625 31.78125 66.40625 
z
M 31.78125 74.21875 
Q 44.046875 74.21875 50.515625 64.515625 
Q 56.984375 54.828125 56.984375 36.375 
Q 56.984375 17.96875 50.515625 8.265625 
Q 44.046875 -1.421875 31.78125 -1.421875 
Q 19.53125 -1.421875 13.0625 8.265625 
Q 6.59375 17.96875 6.59375 36.375 
Q 6.59375 54.828125 13.0625 64.515625 
Q 19.53125 74.21875 31.78125 74.21875 
z
" id="DejaVuSans-30"/>
      </defs>
      <g transform="translate(108.506534 741.597656)scale(0.15 -0.15)">
       <use xlink:href="#DejaVuSans-30"/>
      </g>
     </g>
    </g>
    <g id="xtick_2">
     <g id="line2d_2">
      <g>
       <use style="stroke:#000000;stroke-width:0.8;" x="304.615887" xlink:href="#ma63314de08" y="723.2"/>
      </g>
     </g>
     <g id="text_2">
      <!-- 200 -->
      <defs>
       <path d="M 19.1875 8.296875 
L 53.609375 8.296875 
L 53.609375 0 
L 7.328125 0 
L 7.328125 8.296875 
Q 12.9375 14.109375 22.625 23.890625 
Q 32.328125 33.6875 34.8125 36.53125 
Q 39.546875 41.84375 41.421875 45.53125 
Q 43.3125 49.21875 43.3125 52.78125 
Q 43.3125 58.59375 39.234375 62.25 
Q 35.15625 65.921875 28.609375 65.921875 
Q 23.96875 65.921875 18.8125 64.3125 
Q 13.671875 62.703125 7.8125 59.421875 
L 7.8125 69.390625 
Q 13.765625 71.78125 18.9375 73 
Q 24.125 74.21875 28.421875 74.21875 
Q 39.75 74.21875 46.484375 68.546875 
Q 53.21875 62.890625 53.21875 53.421875 
Q 53.21875 48.921875 51.53125 44.890625 
Q 49.859375 40.875 45.40625 35.40625 
Q 44.1875 33.984375 37.640625 27.21875 
Q 31.109375 20.453125 19.1875 8.296875 
z
" id="DejaVuSans-32"/>
      </defs>
      <g transform="translate(290.300262 741.597656)scale(0.15 -0.15)">
       <use xlink:href="#DejaVuSans-32"/>
       <use x="63.623047" xlink:href="#DejaVuSans-30"/>
       <use x="127.246094" xlink:href="#DejaVuSans-30"/>
      </g>
     </g>
    </g>
    <g id="xtick_3">
     <g id="line2d_3">
      <g>
       <use style="stroke:#000000;stroke-width:0.8;" x="495.953365" xlink:href="#ma63314de08" y="723.2"/>
      </g>
     </g>
     <g id="text_3">
      <!-- 400 -->
      <defs>
       <path d="M 37.796875 64.3125 
L 12.890625 25.390625 
L 37.796875 25.390625 
z
M 35.203125 72.90625 
L 47.609375 72.90625 
L 47.609375 25.390625 
L 58.015625 25.390625 
L 58.015625 17.1875 
L 47.609375 17.1875 
L 47.609375 0 
L 37.796875 0 
L 37.796875 17.1875 
L 4.890625 17.1875 
L 4.890625 26.703125 
z
" id="DejaVuSans-34"/>
      </defs>
      <g transform="translate(481.63774 741.597656)scale(0.15 -0.15)">
       <use xlink:href="#DejaVuSans-34"/>
       <use x="63.623047" xlink:href="#DejaVuSans-30"/>
       <use x="127.246094" xlink:href="#DejaVuSans-30"/>
      </g>
     </g>
    </g>
    <g id="xtick_4">
     <g id="line2d_4">
      <g>
       <use style="stroke:#000000;stroke-width:0.8;" x="687.290844" xlink:href="#ma63314de08" y="723.2"/>
      </g>
     </g>
     <g id="text_4">
      <!-- 600 -->
      <defs>
       <path d="M 33.015625 40.375 
Q 26.375 40.375 22.484375 35.828125 
Q 18.609375 31.296875 18.609375 23.390625 
Q 18.609375 15.53125 22.484375 10.953125 
Q 26.375 6.390625 33.015625 6.390625 
Q 39.65625 6.390625 43.53125 10.953125 
Q 47.40625 15.53125 47.40625 23.390625 
Q 47.40625 31.296875 43.53125 35.828125 
Q 39.65625 40.375 33.015625 40.375 
z
M 52.59375 71.296875 
L 52.59375 62.3125 
Q 48.875 64.0625 45.09375 64.984375 
Q 41.3125 65.921875 37.59375 65.921875 
Q 27.828125 65.921875 22.671875 59.328125 
Q 17.53125 52.734375 16.796875 39.40625 
Q 19.671875 43.65625 24.015625 45.921875 
Q 28.375 48.1875 33.59375 48.1875 
Q 44.578125 48.1875 50.953125 41.515625 
Q 57.328125 34.859375 57.328125 23.390625 
Q 57.328125 12.15625 50.6875 5.359375 
Q 44.046875 -1.421875 33.015625 -1.421875 
Q 20.359375 -1.421875 13.671875 8.265625 
Q 6.984375 17.96875 6.984375 36.375 
Q 6.984375 53.65625 15.1875 63.9375 
Q 23.390625 74.21875 37.203125 74.21875 
Q 40.921875 74.21875 44.703125 73.484375 
Q 48.484375 72.75 52.59375 71.296875 
z
" id="DejaVuSans-36"/>
      </defs>
      <g transform="translate(672.975219 741.597656)scale(0.15 -0.15)">
       <use xlink:href="#DejaVuSans-36"/>
       <use x="63.623047" xlink:href="#DejaVuSans-30"/>
       <use x="127.246094" xlink:href="#DejaVuSans-30"/>
      </g>
     </g>
    </g>
    <g id="xtick_5">
     <g id="line2d_5">
      <g>
       <use style="stroke:#000000;stroke-width:0.8;" x="878.628322" xlink:href="#ma63314de08" y="723.2"/>
      </g>
     </g>
     <g id="text_5">
      <!-- 800 -->
      <defs>
       <path d="M 31.78125 34.625 
Q 24.75 34.625 20.71875 30.859375 
Q 16.703125 27.09375 16.703125 20.515625 
Q 16.703125 13.921875 20.71875 10.15625 
Q 24.75 6.390625 31.78125 6.390625 
Q 38.8125 6.390625 42.859375 10.171875 
Q 46.921875 13.96875 46.921875 20.515625 
Q 46.921875 27.09375 42.890625 30.859375 
Q 38.875 34.625 31.78125 34.625 
z
M 21.921875 38.8125 
Q 15.578125 40.375 12.03125 44.71875 
Q 8.5 49.078125 8.5 55.328125 
Q 8.5 64.0625 14.71875 69.140625 
Q 20.953125 74.21875 31.78125 74.21875 
Q 42.671875 74.21875 48.875 69.140625 
Q 55.078125 64.0625 55.078125 55.328125 
Q 55.078125 49.078125 51.53125 44.71875 
Q 48 40.375 41.703125 38.8125 
Q 48.828125 37.15625 52.796875 32.3125 
Q 56.78125 27.484375 56.78125 20.515625 
Q 56.78125 9.90625 50.3125 4.234375 
Q 43.84375 -1.421875 31.78125 -1.421875 
Q 19.734375 -1.421875 13.25 4.234375 
Q 6.78125 9.90625 6.78125 20.515625 
Q 6.78125 27.484375 10.78125 32.3125 
Q 14.796875 37.15625 21.921875 38.8125 
z
M 18.3125 54.390625 
Q 18.3125 48.734375 21.84375 45.5625 
Q 25.390625 42.390625 31.78125 42.390625 
Q 38.140625 42.390625 41.71875 45.5625 
Q 45.3125 48.734375 45.3125 54.390625 
Q 45.3125 60.0625 41.71875 63.234375 
Q 38.140625 66.40625 31.78125 66.40625 
Q 25.390625 66.40625 21.84375 63.234375 
Q 18.3125 60.0625 18.3125 54.390625 
z
" id="DejaVuSans-38"/>
      </defs>
      <g transform="translate(864.312697 741.597656)scale(0.15 -0.15)">
       <use xlink:href="#DejaVuSans-38"/>
       <use x="63.623047" xlink:href="#DejaVuSans-30"/>
       <use x="127.246094" xlink:href="#DejaVuSans-30"/>
      </g>
     </g>
    </g>
    <g id="xtick_6">
     <g id="line2d_6">
      <g>
       <use style="stroke:#000000;stroke-width:0.8;" x="1069.9658" xlink:href="#ma63314de08" y="723.2"/>
      </g>
     </g>
     <g id="text_6">
      <!-- 1000 -->
      <defs>
       <path d="M 12.40625 8.296875 
L 28.515625 8.296875 
L 28.515625 63.921875 
L 10.984375 60.40625 
L 10.984375 69.390625 
L 28.421875 72.90625 
L 38.28125 72.90625 
L 38.28125 8.296875 
L 54.390625 8.296875 
L 54.390625 0 
L 12.40625 0 
z
" id="DejaVuSans-31"/>
      </defs>
      <g transform="translate(1050.8783 741.597656)scale(0.15 -0.15)">
       <use xlink:href="#DejaVuSans-31"/>
       <use x="63.623047" xlink:href="#DejaVuSans-30"/>
       <use x="127.246094" xlink:href="#DejaVuSans-30"/>
       <use x="190.869141" xlink:href="#DejaVuSans-30"/>
      </g>
     </g>
    </g>
    <g id="xtick_7">
     <g id="line2d_7">
      <g>
       <use style="stroke:#000000;stroke-width:0.8;" x="1261.303278" xlink:href="#ma63314de08" y="723.2"/>
      </g>
     </g>
     <g id="text_7">
      <!-- 1200 -->
      <g transform="translate(1242.215778 741.597656)scale(0.15 -0.15)">
       <use xlink:href="#DejaVuSans-31"/>
       <use x="63.623047" xlink:href="#DejaVuSans-32"/>
       <use x="127.246094" xlink:href="#DejaVuSans-30"/>
       <use x="190.869141" xlink:href="#DejaVuSans-30"/>
      </g>
     </g>
    </g>
    <g id="text_8">
     <!-- 15-Minute Steps -->
     <defs>
      <path d="M 10.796875 72.90625 
L 49.515625 72.90625 
L 49.515625 64.59375 
L 19.828125 64.59375 
L 19.828125 46.734375 
Q 21.96875 47.46875 24.109375 47.828125 
Q 26.265625 48.1875 28.421875 48.1875 
Q 40.625 48.1875 47.75 41.5 
Q 54.890625 34.8125 54.890625 23.390625 
Q 54.890625 11.625 47.5625 5.09375 
Q 40.234375 -1.421875 26.90625 -1.421875 
Q 22.3125 -1.421875 17.546875 -0.640625 
Q 12.796875 0.140625 7.71875 1.703125 
L 7.71875 11.625 
Q 12.109375 9.234375 16.796875 8.0625 
Q 21.484375 6.890625 26.703125 6.890625 
Q 35.15625 6.890625 40.078125 11.328125 
Q 45.015625 15.765625 45.015625 23.390625 
Q 45.015625 31 40.078125 35.4375 
Q 35.15625 39.890625 26.703125 39.890625 
Q 22.75 39.890625 18.8125 39.015625 
Q 14.890625 38.140625 10.796875 36.28125 
z
" id="DejaVuSans-35"/>
      <path d="M 4.890625 31.390625 
L 31.203125 31.390625 
L 31.203125 23.390625 
L 4.890625 23.390625 
z
" id="DejaVuSans-2d"/>
      <path d="M 9.8125 72.90625 
L 24.515625 72.90625 
L 43.109375 23.296875 
L 61.8125 72.90625 
L 76.515625 72.90625 
L 76.515625 0 
L 66.890625 0 
L 66.890625 64.015625 
L 48.09375 14.015625 
L 38.1875 14.015625 
L 19.390625 64.015625 
L 19.390625 0 
L 9.8125 0 
z
" id="DejaVuSans-4d"/>
      <path d="M 9.421875 54.6875 
L 18.40625 54.6875 
L 18.40625 0 
L 9.421875 0 
z
M 9.421875 75.984375 
L 18.40625 75.984375 
L 18.40625 64.59375 
L 9.421875 64.59375 
z
" id="DejaVuSans-69"/>
      <path d="M 54.890625 33.015625 
L 54.890625 0 
L 45.90625 0 
L 45.90625 32.71875 
Q 45.90625 40.484375 42.875 44.328125 
Q 39.84375 48.1875 33.796875 48.1875 
Q 26.515625 48.1875 22.3125 43.546875 
Q 18.109375 38.921875 18.109375 30.90625 
L 18.109375 0 
L 9.078125 0 
L 9.078125 54.6875 
L 18.109375 54.6875 
L 18.109375 46.1875 
Q 21.34375 51.125 25.703125 53.5625 
Q 30.078125 56 35.796875 56 
Q 45.21875 56 50.046875 50.171875 
Q 54.890625 44.34375 54.890625 33.015625 
z
" id="DejaVuSans-6e"/>
      <path d="M 8.5 21.578125 
L 8.5 54.6875 
L 17.484375 54.6875 
L 17.484375 21.921875 
Q 17.484375 14.15625 20.5 10.265625 
Q 23.53125 6.390625 29.59375 6.390625 
Q 36.859375 6.390625 41.078125 11.03125 
Q 45.3125 15.671875 45.3125 23.6875 
L 45.3125 54.6875 
L 54.296875 54.6875 
L 54.296875 0 
L 45.3125 0 
L 45.3125 8.40625 
Q 42.046875 3.421875 37.71875 1 
Q 33.40625 -1.421875 27.6875 -1.421875 
Q 18.265625 -1.421875 13.375 4.4375 
Q 8.5 10.296875 8.5 21.578125 
z
M 31.109375 56 
z
" id="DejaVuSans-75"/>
      <path d="M 18.3125 70.21875 
L 18.3125 54.6875 
L 36.8125 54.6875 
L 36.8125 47.703125 
L 18.3125 47.703125 
L 18.3125 18.015625 
Q 18.3125 11.328125 20.140625 9.421875 
Q 21.96875 7.515625 27.59375 7.515625 
L 36.8125 7.515625 
L 36.8125 0 
L 27.59375 0 
Q 17.1875 0 13.234375 3.875 
Q 9.28125 7.765625 9.28125 18.015625 
L 9.28125 47.703125 
L 2.6875 47.703125 
L 2.6875 54.6875 
L 9.28125 54.6875 
L 9.28125 70.21875 
z
" id="DejaVuSans-74"/>
      <path d="M 56.203125 29.59375 
L 56.203125 25.203125 
L 14.890625 25.203125 
Q 15.484375 15.921875 20.484375 11.0625 
Q 25.484375 6.203125 34.421875 6.203125 
Q 39.59375 6.203125 44.453125 7.46875 
Q 49.3125 8.734375 54.109375 11.28125 
L 54.109375 2.78125 
Q 49.265625 0.734375 44.1875 -0.34375 
Q 39.109375 -1.421875 33.890625 -1.421875 
Q 20.796875 -1.421875 13.15625 6.1875 
Q 5.515625 13.8125 5.515625 26.8125 
Q 5.515625 40.234375 12.765625 48.109375 
Q 20.015625 56 32.328125 56 
Q 43.359375 56 49.78125 48.890625 
Q 56.203125 41.796875 56.203125 29.59375 
z
M 47.21875 32.234375 
Q 47.125 39.59375 43.09375 43.984375 
Q 39.0625 48.390625 32.421875 48.390625 
Q 24.90625 48.390625 20.390625 44.140625 
Q 15.875 39.890625 15.1875 32.171875 
z
" id="DejaVuSans-65"/>
      <path id="DejaVuSans-20"/>
      <path d="M 53.515625 70.515625 
L 53.515625 60.890625 
Q 47.90625 63.578125 42.921875 64.890625 
Q 37.9375 66.21875 33.296875 66.21875 
Q 25.25 66.21875 20.875 63.09375 
Q 16.5 59.96875 16.5 54.203125 
Q 16.5 49.359375 19.40625 46.890625 
Q 22.3125 44.4375 30.421875 42.921875 
L 36.375 41.703125 
Q 47.40625 39.59375 52.65625 34.296875 
Q 57.90625 29 57.90625 20.125 
Q 57.90625 9.515625 50.796875 4.046875 
Q 43.703125 -1.421875 29.984375 -1.421875 
Q 24.8125 -1.421875 18.96875 -0.25 
Q 13.140625 0.921875 6.890625 3.21875 
L 6.890625 13.375 
Q 12.890625 10.015625 18.65625 8.296875 
Q 24.421875 6.59375 29.984375 6.59375 
Q 38.421875 6.59375 43.015625 9.90625 
Q 47.609375 13.234375 47.609375 19.390625 
Q 47.609375 24.75 44.3125 27.78125 
Q 41.015625 30.8125 33.5 32.328125 
L 27.484375 33.5 
Q 16.453125 35.6875 11.515625 40.375 
Q 6.59375 45.0625 6.59375 53.421875 
Q 6.59375 63.09375 13.40625 68.65625 
Q 20.21875 74.21875 32.171875 74.21875 
Q 37.3125 74.21875 42.625 73.28125 
Q 47.953125 72.359375 53.515625 70.515625 
z
" id="DejaVuSans-53"/>
      <path d="M 18.109375 8.203125 
L 18.109375 -20.796875 
L 9.078125 -20.796875 
L 9.078125 54.6875 
L 18.109375 54.6875 
L 18.109375 46.390625 
Q 20.953125 51.265625 25.265625 53.625 
Q 29.59375 56 35.59375 56 
Q 45.5625 56 51.78125 48.09375 
Q 58.015625 40.1875 58.015625 27.296875 
Q 58.015625 14.40625 51.78125 6.484375 
Q 45.5625 -1.421875 35.59375 -1.421875 
Q 29.59375 -1.421875 25.265625 0.953125 
Q 20.953125 3.328125 18.109375 8.203125 
z
M 48.6875 27.296875 
Q 48.6875 37.203125 44.609375 42.84375 
Q 40.53125 48.484375 33.40625 48.484375 
Q 26.265625 48.484375 22.1875 42.84375 
Q 18.109375 37.203125 18.109375 27.296875 
Q 18.109375 17.390625 22.1875 11.75 
Q 26.265625 6.109375 33.40625 6.109375 
Q 40.53125 6.109375 44.609375 11.75 
Q 48.6875 17.390625 48.6875 27.296875 
z
" id="DejaVuSans-70"/>
      <path d="M 44.28125 53.078125 
L 44.28125 44.578125 
Q 40.484375 46.53125 36.375 47.5 
Q 32.28125 48.484375 27.875 48.484375 
Q 21.1875 48.484375 17.84375 46.4375 
Q 14.5 44.390625 14.5 40.28125 
Q 14.5 37.15625 16.890625 35.375 
Q 19.28125 33.59375 26.515625 31.984375 
L 29.59375 31.296875 
Q 39.15625 29.25 43.1875 25.515625 
Q 47.21875 21.78125 47.21875 15.09375 
Q 47.21875 7.46875 41.1875 3.015625 
Q 35.15625 -1.421875 24.609375 -1.421875 
Q 20.21875 -1.421875 15.453125 -0.5625 
Q 10.6875 0.296875 5.421875 2 
L 5.421875 11.28125 
Q 10.40625 8.6875 15.234375 7.390625 
Q 20.0625 6.109375 24.8125 6.109375 
Q 31.15625 6.109375 34.5625 8.28125 
Q 37.984375 10.453125 37.984375 14.40625 
Q 37.984375 18.0625 35.515625 20.015625 
Q 33.0625 21.96875 24.703125 23.78125 
L 21.578125 24.515625 
Q 13.234375 26.265625 9.515625 29.90625 
Q 5.8125 33.546875 5.8125 39.890625 
Q 5.8125 47.609375 11.28125 51.796875 
Q 16.75 56 26.8125 56 
Q 31.78125 56 36.171875 55.265625 
Q 40.578125 54.546875 44.28125 53.078125 
z
" id="DejaVuSans-73"/>
     </defs>
     <g transform="translate(645.989844 756.315625)scale(0.1 -0.1)">
      <use xlink:href="#DejaVuSans-31"/>
      <use x="63.623047" xlink:href="#DejaVuSans-35"/>
      <use x="127.246094" xlink:href="#DejaVuSans-2d"/>
      <use x="163.330078" xlink:href="#DejaVuSans-4d"/>
      <use x="249.609375" xlink:href="#DejaVuSans-69"/>
      <use x="277.392578" xlink:href="#DejaVuSans-6e"/>
      <use x="340.771484" xlink:href="#DejaVuSans-75"/>
      <use x="404.150391" xlink:href="#DejaVuSans-74"/>
      <use x="443.359375" xlink:href="#DejaVuSans-65"/>
      <use x="504.882812" xlink:href="#DejaVuSans-20"/>
      <use x="536.669922" xlink:href="#DejaVuSans-53"/>
      <use x="600.146484" xlink:href="#DejaVuSans-74"/>
      <use x="639.355469" xlink:href="#DejaVuSans-65"/>
      <use x="700.878906" xlink:href="#DejaVuSans-70"/>
      <use x="764.355469" xlink:href="#DejaVuSans-73"/>
     </g>
    </g>
   </g>
   <g id="matplotlib.axis_2">
    <g id="ytick_1">
     <g id="line2d_8">
      <defs>
       <path d="M 0 0 
L -3.5 0 
" id="m7a2776eca3" style="stroke:#000000;stroke-width:0.8;"/>
      </defs>
      <g>
       <use style="stroke:#000000;stroke-width:0.8;" x="55.925" xlink:href="#m7a2776eca3" y="692.472363"/>
      </g>
     </g>
     <g id="text_9">
      <!-- 0 -->
      <g transform="translate(39.38125 698.171191)scale(0.15 -0.15)">
       <use xlink:href="#DejaVuSans-30"/>
      </g>
     </g>
    </g>
    <g id="ytick_2">
     <g id="line2d_9">
      <g>
       <use style="stroke:#000000;stroke-width:0.8;" x="55.925" xlink:href="#m7a2776eca3" y="556.003617"/>
      </g>
     </g>
     <g id="text_10">
      <!-- 2000 -->
      <g transform="translate(10.75 561.702445)scale(0.15 -0.15)">
       <use xlink:href="#DejaVuSans-32"/>
       <use x="63.623047" xlink:href="#DejaVuSans-30"/>
       <use x="127.246094" xlink:href="#DejaVuSans-30"/>
       <use x="190.869141" xlink:href="#DejaVuSans-30"/>
      </g>
     </g>
    </g>
    <g id="ytick_3">
     <g id="line2d_10">
      <g>
       <use style="stroke:#000000;stroke-width:0.8;" x="55.925" xlink:href="#m7a2776eca3" y="419.534872"/>
      </g>
     </g>
     <g id="text_11">
      <!-- 4000 -->
      <g transform="translate(10.75 425.2337)scale(0.15 -0.15)">
       <use xlink:href="#DejaVuSans-34"/>
       <use x="63.623047" xlink:href="#DejaVuSans-30"/>
       <use x="127.246094" xlink:href="#DejaVuSans-30"/>
       <use x="190.869141" xlink:href="#DejaVuSans-30"/>
      </g>
     </g>
    </g>
    <g id="ytick_4">
     <g id="line2d_11">
      <g>
       <use style="stroke:#000000;stroke-width:0.8;" x="55.925" xlink:href="#m7a2776eca3" y="283.066126"/>
      </g>
     </g>
     <g id="text_12">
      <!-- 6000 -->
      <g transform="translate(10.75 288.764954)scale(0.15 -0.15)">
       <use xlink:href="#DejaVuSans-36"/>
       <use x="63.623047" xlink:href="#DejaVuSans-30"/>
       <use x="127.246094" xlink:href="#DejaVuSans-30"/>
       <use x="190.869141" xlink:href="#DejaVuSans-30"/>
      </g>
     </g>
    </g>
    <g id="ytick_5">
     <g id="line2d_12">
      <g>
       <use style="stroke:#000000;stroke-width:0.8;" x="55.925" xlink:href="#m7a2776eca3" y="146.597381"/>
      </g>
     </g>
     <g id="text_13">
      <!-- 8000 -->
      <g transform="translate(10.75 152.296209)scale(0.15 -0.15)">
       <use xlink:href="#DejaVuSans-38"/>
       <use x="63.623047" xlink:href="#DejaVuSans-30"/>
       <use x="127.246094" xlink:href="#DejaVuSans-30"/>
       <use x="190.869141" xlink:href="#DejaVuSans-30"/>
      </g>
     </g>
    </g>
    <g id="text_14">
     <!-- Bandwidth (kbps) -->
     <defs>
      <path d="M 19.671875 34.8125 
L 19.671875 8.109375 
L 35.5 8.109375 
Q 43.453125 8.109375 47.28125 11.40625 
Q 51.125 14.703125 51.125 21.484375 
Q 51.125 28.328125 47.28125 31.5625 
Q 43.453125 34.8125 35.5 34.8125 
z
M 19.671875 64.796875 
L 19.671875 42.828125 
L 34.28125 42.828125 
Q 41.5 42.828125 45.03125 45.53125 
Q 48.578125 48.25 48.578125 53.8125 
Q 48.578125 59.328125 45.03125 62.0625 
Q 41.5 64.796875 34.28125 64.796875 
z
M 9.8125 72.90625 
L 35.015625 72.90625 
Q 46.296875 72.90625 52.390625 68.21875 
Q 58.5 63.53125 58.5 54.890625 
Q 58.5 48.1875 55.375 44.234375 
Q 52.25 40.28125 46.1875 39.3125 
Q 53.46875 37.75 57.5 32.78125 
Q 61.53125 27.828125 61.53125 20.40625 
Q 61.53125 10.640625 54.890625 5.3125 
Q 48.25 0 35.984375 0 
L 9.8125 0 
z
" id="DejaVuSans-42"/>
      <path d="M 34.28125 27.484375 
Q 23.390625 27.484375 19.1875 25 
Q 14.984375 22.515625 14.984375 16.5 
Q 14.984375 11.71875 18.140625 8.90625 
Q 21.296875 6.109375 26.703125 6.109375 
Q 34.1875 6.109375 38.703125 11.40625 
Q 43.21875 16.703125 43.21875 25.484375 
L 43.21875 27.484375 
z
M 52.203125 31.203125 
L 52.203125 0 
L 43.21875 0 
L 43.21875 8.296875 
Q 40.140625 3.328125 35.546875 0.953125 
Q 30.953125 -1.421875 24.3125 -1.421875 
Q 15.921875 -1.421875 10.953125 3.296875 
Q 6 8.015625 6 15.921875 
Q 6 25.140625 12.171875 29.828125 
Q 18.359375 34.515625 30.609375 34.515625 
L 43.21875 34.515625 
L 43.21875 35.40625 
Q 43.21875 41.609375 39.140625 45 
Q 35.0625 48.390625 27.6875 48.390625 
Q 23 48.390625 18.546875 47.265625 
Q 14.109375 46.140625 10.015625 43.890625 
L 10.015625 52.203125 
Q 14.9375 54.109375 19.578125 55.046875 
Q 24.21875 56 28.609375 56 
Q 40.484375 56 46.34375 49.84375 
Q 52.203125 43.703125 52.203125 31.203125 
z
" id="DejaVuSans-61"/>
      <path d="M 45.40625 46.390625 
L 45.40625 75.984375 
L 54.390625 75.984375 
L 54.390625 0 
L 45.40625 0 
L 45.40625 8.203125 
Q 42.578125 3.328125 38.25 0.953125 
Q 33.9375 -1.421875 27.875 -1.421875 
Q 17.96875 -1.421875 11.734375 6.484375 
Q 5.515625 14.40625 5.515625 27.296875 
Q 5.515625 40.1875 11.734375 48.09375 
Q 17.96875 56 27.875 56 
Q 33.9375 56 38.25 53.625 
Q 42.578125 51.265625 45.40625 46.390625 
z
M 14.796875 27.296875 
Q 14.796875 17.390625 18.875 11.75 
Q 22.953125 6.109375 30.078125 6.109375 
Q 37.203125 6.109375 41.296875 11.75 
Q 45.40625 17.390625 45.40625 27.296875 
Q 45.40625 37.203125 41.296875 42.84375 
Q 37.203125 48.484375 30.078125 48.484375 
Q 22.953125 48.484375 18.875 42.84375 
Q 14.796875 37.203125 14.796875 27.296875 
z
" id="DejaVuSans-64"/>
      <path d="M 4.203125 54.6875 
L 13.1875 54.6875 
L 24.421875 12.015625 
L 35.59375 54.6875 
L 46.1875 54.6875 
L 57.421875 12.015625 
L 68.609375 54.6875 
L 77.59375 54.6875 
L 63.28125 0 
L 52.6875 0 
L 40.921875 44.828125 
L 29.109375 0 
L 18.5 0 
z
" id="DejaVuSans-77"/>
      <path d="M 54.890625 33.015625 
L 54.890625 0 
L 45.90625 0 
L 45.90625 32.71875 
Q 45.90625 40.484375 42.875 44.328125 
Q 39.84375 48.1875 33.796875 48.1875 
Q 26.515625 48.1875 22.3125 43.546875 
Q 18.109375 38.921875 18.109375 30.90625 
L 18.109375 0 
L 9.078125 0 
L 9.078125 75.984375 
L 18.109375 75.984375 
L 18.109375 46.1875 
Q 21.34375 51.125 25.703125 53.5625 
Q 30.078125 56 35.796875 56 
Q 45.21875 56 50.046875 50.171875 
Q 54.890625 44.34375 54.890625 33.015625 
z
" id="DejaVuSans-68"/>
      <path d="M 31 75.875 
Q 24.46875 64.65625 21.28125 53.65625 
Q 18.109375 42.671875 18.109375 31.390625 
Q 18.109375 20.125 21.3125 9.0625 
Q 24.515625 -2 31 -13.1875 
L 23.1875 -13.1875 
Q 15.875 -1.703125 12.234375 9.375 
Q 8.59375 20.453125 8.59375 31.390625 
Q 8.59375 42.28125 12.203125 53.3125 
Q 15.828125 64.359375 23.1875 75.875 
z
" id="DejaVuSans-28"/>
      <path d="M 9.078125 75.984375 
L 18.109375 75.984375 
L 18.109375 31.109375 
L 44.921875 54.6875 
L 56.390625 54.6875 
L 27.390625 29.109375 
L 57.625 0 
L 45.90625 0 
L 18.109375 26.703125 
L 18.109375 0 
L 9.078125 0 
z
" id="DejaVuSans-6b"/>
      <path d="M 48.6875 27.296875 
Q 48.6875 37.203125 44.609375 42.84375 
Q 40.53125 48.484375 33.40625 48.484375 
Q 26.265625 48.484375 22.1875 42.84375 
Q 18.109375 37.203125 18.109375 27.296875 
Q 18.109375 17.390625 22.1875 11.75 
Q 26.265625 6.109375 33.40625 6.109375 
Q 40.53125 6.109375 44.609375 11.75 
Q 48.6875 17.390625 48.6875 27.296875 
z
M 18.109375 46.390625 
Q 20.953125 51.265625 25.265625 53.625 
Q 29.59375 56 35.59375 56 
Q 45.5625 56 51.78125 48.09375 
Q 58.015625 40.1875 58.015625 27.296875 
Q 58.015625 14.40625 51.78125 6.484375 
Q 45.5625 -1.421875 35.59375 -1.421875 
Q 29.59375 -1.421875 25.265625 0.953125 
Q 20.953125 3.328125 18.109375 8.203125 
L 18.109375 0 
L 9.078125 0 
L 9.078125 75.984375 
L 18.109375 75.984375 
z
" id="DejaVuSans-62"/>
      <path d="M 8.015625 75.875 
L 15.828125 75.875 
Q 23.140625 64.359375 26.78125 53.3125 
Q 30.421875 42.28125 30.421875 31.390625 
Q 30.421875 20.453125 26.78125 9.375 
Q 23.140625 -1.703125 15.828125 -13.1875 
L 8.015625 -13.1875 
Q 14.5 -2 17.703125 9.0625 
Q 20.90625 20.125 20.90625 31.390625 
Q 20.90625 42.671875 17.703125 53.65625 
Q 14.5 64.65625 8.015625 75.875 
z
" id="DejaVuSans-29"/>
     </defs>
     <g transform="translate(4.670312 412.707812)rotate(-90)scale(0.1 -0.1)">
      <use xlink:href="#DejaVuSans-42"/>
      <use x="68.603516" xlink:href="#DejaVuSans-61"/>
      <use x="129.882812" xlink:href="#DejaVuSans-6e"/>
      <use x="193.261719" xlink:href="#DejaVuSans-64"/>
      <use x="256.738281" xlink:href="#DejaVuSans-77"/>
      <use x="338.525391" xlink:href="#DejaVuSans-69"/>
      <use x="366.308594" xlink:href="#DejaVuSans-64"/>
      <use x="429.785156" xlink:href="#DejaVuSans-74"/>
      <use x="468.994141" xlink:href="#DejaVuSans-68"/>
      <use x="532.373047" xlink:href="#DejaVuSans-20"/>
      <use x="564.160156" xlink:href="#DejaVuSans-28"/>
      <use x="603.173828" xlink:href="#DejaVuSans-6b"/>
      <use x="661.083984" xlink:href="#DejaVuSans-62"/>
      <use x="724.560547" xlink:href="#DejaVuSans-70"/>
      <use x="788.037109" xlink:href="#DejaVuSans-73"/>
      <use x="840.136719" xlink:href="#DejaVuSans-29"/>
     </g>
    </g>
   </g>
   <g id="line2d_13">
    <path clip-path="url(#p4f35f55d5f)" d="M 113.278409 682.83464 
L 114.235096 686.278504 
L 115.191784 680.085245 
L 116.148471 677.480207 
L 117.105159 634.101344 
L 118.061846 630.047314 
L 119.018533 680.1277 
L 119.975221 479.199615 
L 120.931908 525.900434 
L 121.888596 676.053051 
L 122.845283 685.852114 
L 123.80197 684.190225 
L 124.758658 641.787263 
L 125.715345 583.516324 
L 126.672033 688.62273 
L 127.62872 681.220665 
L 128.585407 685.318971 
L 129.542095 684.488641 
L 130.498782 684.38371 
L 131.45547 601.342779 
L 132.412157 690.091133 
L 133.368844 686.381613 
L 134.325532 685.227995 
L 135.282219 690.077186 
L 136.238906 685.356582 
L 137.195594 640.408629 
L 138.152281 660.388261 
L 139.108969 687.321732 
L 141.022343 686.273045 
L 141.979031 683.910614 
L 142.935718 685.379018 
L 143.892406 683.575208 
L 144.849093 688.222426 
L 145.80578 686.905045 
L 146.762468 682.313629 
L 147.719155 688.147211 
L 148.675843 680.811259 
L 149.63253 690.220929 
L 150.589217 684.273321 
L 151.545905 683.3793 
L 152.502592 685.887896 
L 153.45928 602.339915 
L 154.415967 684.611763 
L 155.372654 687.161607 
L 156.329342 678.785455 
L 157.286029 684.04466 
L 158.242716 683.24101 
L 159.199404 619.877056 
L 160.156091 687.61832 
L 161.112779 682.602336 
L 162.069466 684.862866 
L 163.026153 688.772545 
L 163.982841 685.751427 
L 164.939528 682.020072 
L 165.896216 687.44364 
L 166.852903 688.114459 
L 167.80959 672.388408 
L 168.766278 681.975187 
L 169.722965 685.284404 
L 170.679653 563.221299 
L 171.63634 687.302927 
L 172.593027 683.445413 
L 173.549715 688.875047 
L 174.506402 684.371578 
L 175.46309 678.312366 
L 176.419777 662.817404 
L 177.376464 611.154581 
L 178.333152 654.332685 
L 179.289839 687.664419 
L 180.246526 653.359813 
L 181.203214 624.42298 
L 182.159901 659.575507 
L 183.116589 669.828254 
L 184.073276 677.630022 
L 185.029963 657.601262 
L 185.986651 685.177651 
L 186.943338 684.27635 
L 187.900026 665.820317 
L 188.856713 685.738087 
L 189.8134 688.403165 
L 190.770088 681.015662 
L 191.726775 667.269922 
L 192.683463 626.097602 
L 193.64015 563.196428 
L 194.596837 649.508972 
L 195.553525 680.888288 
L 196.510212 657.966998 
L 197.466899 655.11025 
L 198.423587 687.897323 
L 199.380274 684.599631 
L 200.336962 675.112324 
L 201.293649 674.256515 
L 202.250336 668.649164 
L 203.207024 686.208748 
L 204.163711 685.690774 
L 205.120399 688.552373 
L 206.077086 689.249271 
L 207.033773 685.380232 
L 207.990461 459.019831 
L 208.947148 653.842612 
L 209.903836 686.727936 
L 210.860523 685.986154 
L 211.81721 685.467572 
L 212.773898 686.296695 
L 213.730585 688.703396 
L 214.687273 688.254571 
L 215.64396 687.347204 
L 216.600647 689.840031 
L 217.557335 604.988009 
L 218.514022 689.463984 
L 219.470709 656.541657 
L 220.427397 638.387677 
L 221.384084 688.527509 
L 223.297459 689.433661 
L 224.254146 679.828684 
L 225.210834 687.811198 
L 226.167521 667.041262 
L 227.124209 656.818839 
L 228.080896 610.195656 
L 229.037583 684.551717 
L 229.994271 681.747741 
L 231.907646 680.67176 
L 232.864333 636.992059 
L 233.82102 688.580882 
L 234.777708 680.138618 
L 235.734395 545.077022 
L 236.691083 678.772115 
L 237.64777 624.760208 
L 238.604457 683.104541 
L 239.561145 688.325535 
L 240.517832 688.461396 
L 241.474519 622.362002 
L 242.431207 610.478911 
L 243.387894 687.552815 
L 244.344582 690.624876 
L 245.301269 689.260796 
L 246.257956 685.076364 
L 247.214644 613.687441 
L 248.171331 684.976285 
L 249.128019 689.403938 
L 250.084706 621.633559 
L 251.041393 616.676407 
L 251.998081 686.376761 
L 252.954768 689.921912 
L 253.911456 690.729807 
L 254.868143 689.467621 
L 255.82483 637.900634 
L 256.781518 690.072335 
L 257.738205 685.124886 
L 258.694893 574.107261 
L 260.608267 609.666765 
L 261.564955 622.136979 
L 262.521642 683.521228 
L 265.391704 689.437298 
L 266.348392 684.444971 
L 267.305079 618.446864 
L 268.261766 618.957557 
L 269.218454 688.326743 
L 270.175141 611.550641 
L 271.131829 613.27682 
L 272.088516 689.539192 
L 273.045203 616.532057 
L 274.001891 620.275545 
L 274.958578 676.17678 
L 275.915266 689.316598 
L 277.82864 534.719344 
L 278.785328 538.528945 
L 279.742015 684.374007 
L 280.698703 615.795126 
L 281.65539 686.164477 
L 282.612077 478.789601 
L 283.568765 646.237966 
L 284.525452 636.928369 
L 285.482139 611.456027 
L 286.438827 643.228373 
L 287.395514 657.193677 
L 288.352202 684.84406 
L 289.308889 685.799341 
L 290.265576 689.692037 
L 291.222264 684.01433 
L 292.178951 689.977107 
L 293.135639 685.530048 
L 294.092326 687.226504 
L 295.049013 620.01474 
L 296.005701 687.237422 
L 296.962388 686.127474 
L 297.919076 688.236373 
L 298.875763 686.380398 
L 299.83245 688.791951 
L 300.789138 687.71294 
L 301.745825 677.706445 
L 302.702513 548.078727 
L 303.6592 601.510185 
L 304.615887 617.890679 
L 305.572575 567.658048 
L 306.529262 540.238748 
L 307.485949 640.822279 
L 308.442637 614.398293 
L 309.399324 688.418334 
L 310.356012 531.965712 
L 311.312699 688.201799 
L 312.269386 686.774035 
L 313.226074 652.537971 
L 314.182761 579.35372 
L 315.139449 685.079394 
L 316.096136 630.168014 
L 317.052823 602.715354 
L 318.009511 598.545477 
L 318.966198 672.840269 
L 319.922886 616.113548 
L 320.879573 690.446559 
L 321.83626 614.180544 
L 322.792948 497.238354 
L 323.749635 396.666347 
L 324.706323 684.32973 
L 325.66301 612.431929 
L 326.619697 688.838657 
L 327.576385 688.673073 
L 328.533072 684.435261 
L 329.489759 687.915521 
L 330.446447 686.692761 
L 331.403134 684.3734 
L 332.359822 689.106743 
L 333.316509 685.064232 
L 334.273196 561.615819 
L 335.229884 689.04609 
L 337.143259 550.109989 
L 338.099946 684.412819 
L 339.056633 689.58044 
L 340.013321 687.910063 
L 340.970008 604.969211 
L 341.926696 684.751261 
L 342.883383 542.132327 
L 343.84007 593.998338 
L 344.796758 464.068567 
L 345.753445 630.292958 
L 346.710132 686.080167 
L 347.66682 476.706788 
L 348.623507 605.371336 
L 349.580195 686.769184 
L 350.536882 615.633179 
L 351.493569 648.165512 
L 352.450257 397.486374 
L 353.406944 585.107849 
L 354.363632 552.212816 
L 355.320319 660.532003 
L 356.277006 563.925478 
L 357.233694 593.686582 
L 358.190381 687.57465 
L 359.147069 613.019652 
L 360.103756 623.232366 
L 361.060443 482.77934 
L 362.017131 541.630729 
L 362.973818 670.99036 
L 363.930506 649.948094 
L 364.887193 488.823998 
L 365.84388 685.389935 
L 366.800568 683.280435 
L 367.757255 479.239648 
L 368.713942 564.783716 
L 369.67063 600.785379 
L 370.627317 585.553652 
L 371.584005 655.491155 
L 372.540692 681.314071 
L 373.497379 610.110746 
L 374.454067 686.365236 
L 375.410754 686.703679 
L 376.367442 690.977273 
L 377.324129 688.736756 
L 378.280816 622.877547 
L 379.237504 605.538742 
L 380.194191 624.126993 
L 381.150879 686.145672 
L 382.107566 681.120592 
L 383.064253 524.48601 
L 384.020941 683.455723 
L 384.977628 686.307612 
L 385.934316 682.630237 
L 386.891003 688.670644 
L 387.84769 609.923933 
L 388.804378 604.029698 
L 389.761065 603.446219 
L 390.717752 657.050535 
L 391.67444 455.349729 
L 392.631127 562.552903 
L 393.587815 608.478579 
L 394.544502 683.112429 
L 395.501189 684.414641 
L 396.457877 597.647812 
L 397.414564 683.026297 
L 398.371252 681.643418 
L 399.327939 610.53835 
L 400.284626 522.630643 
L 401.241314 661.455139 
L 402.198001 516.708506 
L 403.154689 621.615361 
L 404.111376 610.142283 
L 405.068063 687.298075 
L 406.024751 683.297419 
L 406.981438 550.642518 
L 407.938126 613.296226 
L 408.894813 549.056451 
L 409.8515 687.897323 
L 410.808188 682.619319 
L 411.764875 616.103238 
L 412.721562 684.52503 
L 413.67825 481.040428 
L 414.634937 685.021169 
L 415.591625 686.51626 
L 416.548312 686.177817 
L 417.504999 678.960743 
L 418.461687 634.165634 
L 419.418374 569.826994 
L 420.375062 620.857202 
L 421.331749 481.740356 
L 422.288436 571.519206 
L 423.245124 548.902391 
L 424.201811 579.015277 
L 425.158499 500.472363 
L 426.115186 638.665466 
L 427.071873 572.917854 
L 428.028561 648.153988 
L 428.985248 648.036925 
L 429.941936 637.283188 
L 430.898623 468.419191 
L 431.85531 478.320149 
L 432.811998 472.063814 
L 433.768685 484.833652 
L 434.725372 643.085839 
L 435.68206 452.648863 
L 436.638747 589.135199 
L 437.595435 564.351868 
L 438.552122 580.378757 
L 439.508809 645.708468 
L 440.465497 600.701683 
L 441.422184 595.914966 
L 442.378872 566.174483 
L 443.335559 651.768895 
L 444.292246 652.225608 
L 445.248934 648.923671 
L 446.205621 238.750173 
L 447.162309 660.115323 
L 448.118996 657.548496 
L 449.075683 643.394565 
L 450.032371 644.827787 
L 450.989058 644.059318 
L 451.945746 275.18915 
L 452.902433 556.377241 
L 453.85912 606.034274 
L 454.815808 516.762487 
L 455.772495 676.292628 
L 457.68587 543.936143 
L 458.642557 467.630702 
L 459.599245 685.798741 
L 460.555932 683.686205 
L 461.512619 606.511 
L 462.469307 681.258876 
L 463.425994 675.68307 
L 464.382682 576.401751 
L 465.339369 626.250447 
L 466.296056 301.077571 
L 467.252744 640.58088 
L 468.209431 488.70572 
L 469.166119 644.622784 
L 470.122806 583.618218 
L 471.079493 468.069831 
L 472.036181 475.503434 
L 472.992868 567.668358 
L 473.949556 613.439368 
L 474.906243 529.078634 
L 476.819618 628.447293 
L 477.776305 639.01907 
L 478.732992 472.684897 
L 479.68968 637.315333 
L 480.646367 630.725414 
L 481.603055 631.750444 
L 482.559742 501.667222 
L 483.516429 639.005123 
L 484.473117 563.785365 
L 485.429804 633.873291 
L 486.386492 646.139709 
L 487.343179 661.253165 
L 488.299866 679.017759 
L 489.256554 657.248872 
L 490.213241 672.666197 
L 491.169929 674.907928 
L 492.126616 652.51007 
L 493.083303 600.303194 
L 494.039991 667.900708 
L 494.996678 655.241867 
L 495.953365 538.631446 
L 496.910053 669.278742 
L 497.86674 659.271032 
L 498.823428 685.561586 
L 499.780115 663.932804 
L 500.736802 659.351699 
L 501.69349 687.116722 
L 502.650177 642.019567 
L 503.606865 550.987633 
L 504.563552 404.872062 
L 505.520239 619.527696 
L 506.476927 556.306878 
L 507.433614 652.881265 
L 508.390302 564.653914 
L 509.346989 621.657216 
L 510.303676 581.950877 
L 511.260364 486.529501 
L 512.217051 604.184365 
L 513.173739 435.88322 
L 514.130426 511.172727 
L 515.087113 638.829228 
L 516.043801 359.272703 
L 517.000488 544.415906 
L 517.957175 562.589299 
L 518.913863 569.329033 
L 519.87055 589.387509 
L 520.827238 664.948739 
L 521.783925 626.189193 
L 522.740612 638.26637 
L 523.6973 614.370392 
L 524.653987 628.064574 
L 525.610675 631.176061 
L 526.567362 619.610792 
L 527.524049 640.060477 
L 528.480737 638.643631 
L 530.394112 512.707243 
L 531.350799 623.933515 
L 532.307486 629.064132 
L 533.264174 629.830179 
L 534.220861 630.817605 
L 535.177549 549.176543 
L 536.134236 627.166309 
L 537.090923 641.394841 
L 538.047611 632.094346 
L 539.004298 553.490163 
L 539.960985 615.723555 
L 540.917673 637.811472 
L 541.87436 641.804247 
L 542.831048 641.414854 
L 543.787735 609.600052 
L 544.744422 630.633216 
L 545.70111 564.110468 
L 546.657797 640.361315 
L 547.614485 633.238861 
L 548.571172 631.620649 
L 549.527859 525.746374 
L 550.484547 629.441393 
L 551.441234 680.592301 
L 552.397922 684.942318 
L 553.354609 683.512125 
L 554.311296 684.415248 
L 555.267984 607.634295 
L 556.224671 608.564705 
L 557.181359 655.777432 
L 558.138046 659.5743 
L 559.094733 689.411219 
L 560.051421 617.90584 
L 561.008108 612.226919 
L 561.964795 681.670104 
L 562.921483 683.815393 
L 563.87817 396.562023 
L 564.834858 686.075923 
L 565.791545 672.140342 
L 566.748232 622.664048 
L 567.70492 608.949854 
L 568.661607 609.923326 
L 569.618295 540.594174 
L 570.574982 688.109 
L 571.531669 687.194966 
L 572.488357 601.279703 
L 573.445044 687.310815 
L 574.401732 683.449657 
L 575.358419 687.653501 
L 576.315106 686.997844 
L 577.271794 687.923402 
L 578.228481 686.471375 
L 579.185169 687.352056 
L 580.141856 684.916846 
L 581.098543 686.236041 
L 582.055231 686.589045 
L 583.011918 687.635911 
L 583.968605 685.557949 
L 584.925293 686.306405 
L 585.88198 687.643798 
L 586.838668 624.697132 
L 587.795355 663.161906 
L 588.752042 549.818246 
L 589.70873 484.578305 
L 590.665417 571.722995 
L 591.622105 578.674413 
L 592.578792 569.893106 
L 593.535479 517.617689 
L 594.492167 523.585317 
L 595.448854 498.874163 
L 596.405542 598.621899 
L 597.362229 561.832955 
L 598.318916 597.762446 
L 599.275604 604.015144 
L 600.232291 575.88317 
L 601.188979 597.140756 
L 602.145666 409.476218 
L 604.059041 586.958366 
L 605.015728 539.266483 
L 605.972415 453.466461 
L 606.929103 510.842165 
L 607.88579 545.167392 
L 608.842478 595.449151 
L 609.799165 596.433548 
L 610.755852 515.882413 
L 611.71254 627.847438 
L 612.669227 623.863158 
L 613.625915 634.28209 
L 614.582602 594.020173 
L 615.539289 579.66669 
L 616.495977 461.401661 
L 617.452664 415.537245 
L 618.409352 422.238167 
L 619.366039 559.497217 
L 620.322726 580.789978 
L 621.279414 343.410784 
L 622.236101 500.467511 
L 623.192788 174.81548 
L 624.149476 342.742394 
L 625.106163 584.412773 
L 626.062851 541.54096 
L 627.019538 477.09193 
L 628.932913 654.837312 
L 629.8896 520.549037 
L 630.846288 460.346915 
L 631.802975 528.948231 
L 632.759662 576.281051 
L 633.71635 565.079696 
L 634.673037 487.165145 
L 635.629725 494.286385 
L 636.586412 487.477502 
L 637.543099 466.157447 
L 638.499787 469.74506 
L 639.456474 581.89629 
L 640.413162 522.419567 
L 641.369849 569.588016 
L 642.326536 480.676507 
L 643.283224 550.933653 
L 644.239911 460.478525 
L 645.196598 436.752376 
L 646.153286 573.639623 
L 647.109973 538.879519 
L 648.066661 545.103708 
L 649.023348 505.234815 
L 649.980035 433.716704 
L 650.936723 548.072661 
L 651.89341 524.353179 
L 652.850098 511.926034 
L 653.806785 590.19116 
L 654.763472 582.045491 
L 655.72016 500.733775 
L 656.676847 501.753347 
L 657.633535 572.407161 
L 658.590222 574.475419 
L 659.546909 624.862717 
L 660.503597 519.266838 
L 661.460284 531.425896 
L 662.416972 550.723792 
L 663.373659 554.879115 
L 664.330346 494.407692 
L 665.287034 503.076794 
L 666.243721 289.143537 
L 667.200408 356.927255 
L 668.157096 521.538893 
L 669.113783 524.150598 
L 670.070471 514.937442 
L 671.027158 586.351837 
L 671.983845 587.235554 
L 672.940533 568.98028 
L 673.89722 509.336765 
L 674.853908 641.062464 
L 675.810595 617.749358 
L 676.767282 577.371593 
L 677.72397 383.563532 
L 678.680657 568.899006 
L 679.637345 428.697083 
L 680.594032 514.34426 
L 681.550719 408.332302 
L 682.507407 355.839149 
L 683.464094 250.935925 
L 684.420782 488.512849 
L 685.377469 407.746401 
L 686.334156 195.868056 
L 687.290844 403.921633 
L 688.247531 410.446053 
L 689.204218 145.174469 
L 690.160906 612.865592 
L 691.117593 526.633114 
L 692.074281 502.969434 
L 693.030968 573.059181 
L 693.987655 498.011681 
L 694.944343 559.464465 
L 695.90103 412.344484 
L 696.857718 573.595346 
L 697.814405 567.147355 
L 698.771092 583.5327 
L 699.72778 532.966478 
L 700.684467 506.292605 
L 701.641155 584.529222 
L 702.597842 556.25169 
L 703.554529 624.115468 
L 704.511217 592.492931 
L 705.467904 610.844647 
L 706.424592 584.996252 
L 707.381279 471.993458 
L 708.337966 560.838855 
L 709.294654 498.405318 
L 710.251341 559.434141 
L 711.208028 482.505188 
L 712.164716 571.971068 
L 713.121403 502.839031 
L 714.078091 564.276653 
L 715.034778 616.449569 
L 715.991465 636.953848 
L 716.948153 627.795273 
L 717.90484 636.955663 
L 718.861528 628.122798 
L 719.818215 631.424134 
L 720.774902 617.601972 
L 721.73159 549.410055 
L 722.688277 416.738777 
L 723.644965 537.340152 
L 724.601652 487.719508 
L 725.558339 425.947688 
L 726.515027 561.483595 
L 727.471714 593.622892 
L 728.428402 569.405455 
L 729.385089 494.86319 
L 730.341776 566.195711 
L 731.298464 492.423736 
L 732.255151 564.33367 
L 733.211838 587.250109 
L 734.168526 625.495324 
L 735.125213 584.587453 
L 736.081901 641.837 
L 738.951963 550.913633 
L 739.90865 389.159358 
L 740.865338 536.292679 
L 741.822025 596.773805 
L 742.778712 578.659858 
L 743.7354 477.136814 
L 744.692087 541.695627 
L 745.648775 413.78863 
L 746.605462 514.985964 
L 747.562149 589.255292 
L 748.518837 376.283375 
L 749.475524 580.598922 
L 750.432212 588.708202 
L 751.388899 452.371074 
L 752.345586 220.268668 
L 753.302274 547.190165 
L 754.258961 490.668448 
L 755.215648 568.783158 
L 756.172336 508.480349 
L 757.129023 523.391224 
L 758.085711 589.340202 
L 759.042398 579.211792 
L 759.999085 574.523334 
L 760.955773 508.376025 
L 761.91246 568.643653 
L 762.869148 450.749825 
L 763.825835 549.45251 
L 764.782522 573.099207 
L 765.73921 416.274783 
L 766.695897 398.93052 
L 767.652585 537.64099 
L 768.609272 310.216733 
L 769.565959 454.96701 
L 770.522647 414.424875 
L 771.479334 528.176733 
L 772.436021 536.249009 
L 773.392709 415.290393 
L 774.349396 361.149298 
L 775.306084 338.505189 
L 776.262771 388.200433 
L 777.219458 563.787187 
L 778.176146 590.870474 
L 779.132833 501.485261 
L 780.089521 588.78644 
L 781.046208 384.33746 
L 782.002895 417.109972 
L 782.959583 415.927245 
L 783.91627 449.126754 
L 784.872958 533.363753 
L 785.829645 587.65102 
L 786.786332 537.848423 
L 787.74302 351.190109 
L 788.699707 481.881075 
L 789.656395 539.843289 
L 790.613082 408.021761 
L 791.569769 394.269956 
L 792.526457 538.193538 
L 793.483144 573.334541 
L 794.439831 581.437147 
L 795.396519 591.222864 
L 796.353206 571.00244 
L 797.309894 598.493919 
L 798.266581 592.246687 
L 799.223268 597.126809 
L 800.179956 571.983807 
L 801.136643 598.314387 
L 802.093331 576.443606 
L 803.050018 515.231608 
L 804.006705 579.2124 
L 804.963393 588.987813 
L 805.92008 459.478366 
L 806.876768 422.747046 
L 807.833455 563.562771 
L 808.790142 562.169575 
L 809.74683 499.141642 
L 810.703517 612.942015 
L 811.660205 520.532661 
L 812.616892 354.001365 
L 813.573579 622.269203 
L 814.530267 457.525341 
L 815.486954 670.890288 
L 816.443641 609.089959 
L 817.400329 589.758097 
L 818.357016 555.952059 
L 819.313704 480.053602 
L 820.270391 554.075464 
L 821.227078 581.314626 
L 822.183766 575.223875 
L 823.140453 498.003793 
L 824.097141 452.872064 
L 825.053828 525.342427 
L 826.010515 496.176327 
L 826.967203 562.515906 
L 827.92389 554.319293 
L 829.837265 371.200071 
L 830.793952 525.802176 
L 831.75064 462.218051 
L 832.707327 326.121715 
L 833.664015 553.828606 
L 834.620702 508.217721 
L 835.577389 372.109253 
L 836.534077 505.929291 
L 837.490764 498.845655 
L 838.447451 580.537061 
L 839.404139 593.766034 
L 840.360826 572.843253 
L 841.317514 587.119706 
L 842.274201 611.053895 
L 843.230888 524.540598 
L 844.187576 579.757067 
L 845.144263 510.845202 
L 846.100951 507.486856 
L 847.057638 450.949977 
L 848.014325 598.505443 
L 848.971013 491.43328 
L 849.9277 574.319545 
L 850.884388 496.208472 
L 851.841075 363.124758 
L 852.797762 411.448034 
L 853.75445 382.650706 
L 854.711137 452.64947 
L 855.667825 592.005894 
L 856.624512 573.989591 
L 857.581199 574.312871 
L 858.537887 568.988769 
L 859.494574 478.601574 
L 860.451261 592.254568 
L 861.407949 579.71036 
L 862.364636 571.555596 
L 863.321324 593.093393 
L 864.278011 568.111732 
L 865.234698 487.22034 
L 866.191386 584.9635 
L 867.148073 516.412519 
L 868.104761 468.491369 
L 869.061448 571.502223 
L 870.018135 576.998576 
L 870.974823 599.340025 
L 871.93151 574.305591 
L 872.888198 570.77378 
L 873.844885 569.423654 
L 874.801572 561.652209 
L 875.75826 501.27237 
L 876.714947 486.286894 
L 877.671635 602.463644 
L 877.671635 602.463644 
" style="fill:none;stroke:#000000;stroke-linecap:square;stroke-width:1.5;"/>
   </g>
   <g id="line2d_14">
    <path clip-path="url(#p4f35f55d5f)" d="M 878.628322 582.16862 
L 879.585009 588.411608 
L 880.541697 559.382583 
L 881.498384 511.940589 
L 882.455071 540.462557 
L 884.368446 572.914824 
L 885.325134 637.484554 
L 886.281821 631.826867 
L 887.238508 585.309216 
L 888.195196 629.930859 
L 889.151883 258.14026 
L 890.108571 512.064318 
L 891.065258 584.871916 
L 892.021945 457.519282 
L 892.978633 533.762241 
L 893.93532 577.952643 
L 894.892008 497.748446 
L 895.848695 563.602804 
L 896.805382 567.031507 
L 897.76207 585.375936 
L 898.718757 499.936191 
L 899.675444 604.502788 
L 900.632132 532.749343 
L 901.588819 620.556971 
L 902.545507 525.131958 
L 903.502194 583.05536 
L 904.458881 313.608439 
L 905.415569 525.393377 
L 906.372256 562.901048 
L 907.328944 433.045278 
L 908.285631 560.666604 
L 909.242318 556.709011 
L 910.199006 573.179273 
L 911.155693 556.459723 
L 912.112381 547.227162 
L 913.069068 509.410158 
L 914.025755 543.114902 
L 914.982443 561.593377 
L 915.93913 422.133844 
L 916.895818 524.235515 
L 917.852505 576.779012 
L 918.809192 290.150369 
L 919.76588 495.229534 
L 920.722567 529.577202 
L 921.679254 178.035535 
L 923.592629 564.718812 
L 924.549317 375.493678 
L 925.506004 382.246152 
L 926.462691 367.544524 
L 927.419379 521.643216 
L 928.376066 595.159837 
L 929.332754 479.670889 
L 930.289441 462.887656 
L 931.246128 536.832488 
L 932.202816 578.185547 
L 933.159503 513.035368 
L 934.116191 498.86021 
L 935.072878 507.420137 
L 936.029565 506.814215 
L 936.986253 399.862752 
L 937.94294 374.364931 
L 938.899628 303.322332 
L 939.856315 530.740523 
L 940.813002 417.180936 
L 941.76969 566.7428 
L 942.726377 435.981478 
L 943.683064 592.835624 
L 944.639752 537.07328 
L 945.596439 496.104148 
L 946.553127 583.243993 
L 947.509814 532.584366 
L 948.466501 571.900104 
L 949.423189 514.912578 
L 950.379876 563.691359 
L 951.336564 571.148011 
L 952.293251 581.928435 
L 953.249938 528.685604 
L 954.206626 569.500676 
L 955.163313 573.656607 
L 956.120001 587.765053 
L 957.076688 486.275976 
L 958.033375 559.47356 
L 958.990063 575.381572 
L 959.94675 518.170237 
L 960.903438 544.634256 
L 961.860125 558.400616 
L 962.816812 560.790334 
L 963.7735 540.690609 
L 964.730187 527.533808 
L 965.686874 590.197226 
L 966.643562 582.584092 
L 967.600249 589.483952 
L 968.556937 573.155617 
L 969.513624 572.100256 
L 970.470311 588.410393 
L 971.426999 578.775092 
L 972.383686 572.754091 
L 973.340374 586.171098 
L 974.297061 586.716973 
L 975.253748 482.510039 
L 976.210436 565.70503 
L 977.167123 439.726787 
L 978.123811 487.103277 
L 979.080498 444.825867 
L 980.037185 566.549922 
L 980.993873 432.05057 
L 981.95056 429.737275 
L 982.907248 593.260192 
L 983.863935 367.793204 
L 984.820622 571.446421 
L 985.77731 579.64607 
L 986.733997 525.232037 
L 987.690684 612.563546 
L 988.647372 576.943989 
L 989.604059 602.556443 
L 990.560747 592.826522 
L 991.517434 575.200219 
L 992.474121 574.591268 
L 993.430809 540.904715 
L 994.387496 588.993872 
L 995.344184 491.152455 
L 996.300871 615.033323 
L 997.257558 592.661552 
L 998.214246 589.044215 
L 999.170933 534.449443 
L 1000.127621 528.199175 
L 1001.084308 592.002251 
L 1002.040995 581.579682 
L 1002.997683 592.470495 
L 1003.95437 594.851718 
L 1004.911058 572.285853 
L 1005.867745 606.467938 
L 1006.824432 596.992155 
L 1007.78112 526.622804 
L 1008.737807 579.004967 
L 1009.694494 566.159922 
L 1010.651182 422.459547 
L 1011.607869 583.050508 
L 1012.564557 357.058873 
L 1013.521244 398.172354 
L 1014.477931 324.94444 
L 1015.434619 408.778105 
L 1016.391306 479.545938 
L 1017.347994 504.890914 
L 1018.304681 424.83714 
L 1019.261368 429.142271 
L 1020.218056 585.836292 
L 1021.174743 493.864239 
L 1022.131431 587.445409 
L 1023.088118 363.987848 
L 1024.044805 361.135952 
L 1025.001493 404.044762 
L 1025.95818 454.207636 
L 1026.914868 439.874174 
L 1027.871555 518.731273 
L 1028.828242 583.418066 
L 1029.78493 593.357235 
L 1030.741617 585.896339 
L 1031.698304 584.905268 
L 1032.654992 594.032905 
L 1033.611679 494.460457 
L 1034.568367 433.927773 
L 1035.525054 643.224737 
L 1037.438429 490.293009 
L 1038.395116 631.960299 
L 1039.351804 601.96872 
L 1040.308491 489.205503 
L 1041.265178 598.577014 
L 1042.221866 571.801847 
L 1043.178553 578.127323 
L 1044.135241 576.352015 
L 1045.091928 499.803359 
L 1046.048615 569.05731 
L 1047.005303 569.346624 
L 1047.96199 588.78038 
L 1048.918677 557.617585 
L 1049.875365 471.386322 
L 1049.875365 471.386322 
" style="fill:none;stroke:#1f77b4;stroke-linecap:square;stroke-width:1.5;"/>
   </g>
   <g id="line2d_15">
    <path clip-path="url(#p4f35f55d5f)" d="M 1050.832052 470.734308 
L 1051.78874 502.276172 
L 1052.745427 573.218085 
L 1053.702114 576.690457 
L 1054.658802 544.987253 
L 1055.615489 485.728887 
L 1056.572177 443.546698 
L 1057.528864 523.608366 
L 1058.485551 592.168442 
L 1059.442239 603.585718 
L 1060.398926 584.249011 
L 1061.355614 595.689943 
L 1062.312301 581.667022 
L 1063.268988 580.023938 
L 1064.225676 452.983061 
L 1065.182363 561.673437 
L 1066.139051 423.555541 
L 1067.095738 576.539434 
L 1068.052425 516.200235 
L 1069.009113 637.731412 
" style="fill:none;stroke:#ff7f0e;stroke-linecap:square;stroke-width:1.5;"/>
   </g>
   <g id="line2d_16">
    <path clip-path="url(#p4f35f55d5f)" d="M 1069.9658 633.964875 
L 1070.922487 635.335628 
L 1071.879175 681.187912 
L 1072.835862 648.52579 
L 1073.79255 629.880516 
L 1074.749237 626.126718 
L 1075.705924 621.920451 
L 1076.662612 626.070308 
L 1077.619299 627.157207 
L 1078.575987 624.202208 
L 1079.532674 552.590684 
L 1080.489361 509.340402 
L 1081.446049 497.843668 
L 1082.402736 560.380927 
L 1083.359424 589.059984 
L 1084.316111 557.183922 
L 1085.272798 574.086026 
L 1086.229486 681.012018 
L 1087.186173 686.088655 
L 1088.142861 673.915643 
L 1089.099548 684.884701 
L 1090.056235 682.276026 
L 1091.012923 681.007774 
L 1091.96961 685.870912 
L 1092.926297 684.864687 
L 1093.882985 585.62886 
L 1094.839672 542.034069 
L 1095.79636 486.430636 
L 1096.753047 572.392606 
L 1097.709734 686.864405 
L 1098.666422 606.76271 
L 1099.623109 542.022544 
L 1100.579797 602.760239 
L 1101.536484 680.339384 
L 1102.493171 685.01814 
L 1103.449859 545.166784 
L 1104.406546 681.613695 
L 1105.363234 683.933056 
L 1106.319921 682.883769 
L 1107.276608 431.569593 
L 1108.233296 533.833812 
L 1109.189983 533.306743 
L 1110.146671 614.901099 
L 1111.103358 579.922037 
L 1112.060045 654.700243 
L 1113.016733 682.148652 
L 1113.97342 362.449088 
L 1114.930107 589.407529 
L 1115.886795 686.098972 
L 1116.843482 677.639725 
L 1117.80017 631.903897 
L 1118.756857 687.316273 
L 1119.713544 689.658678 
L 1120.670232 685.577962 
L 1122.583607 685.781757 
L 1123.540294 686.196015 
L 1124.496981 683.790522 
L 1125.453669 688.053205 
L 1126.410356 682.849194 
L 1127.367044 644.969715 
L 1128.323731 664.382851 
L 1129.280418 679.075376 
L 1130.237106 656.248099 
L 1131.193793 640.740398 
L 1132.150481 673.738541 
L 1133.107168 674.716264 
L 1134.063855 597.722413 
L 1135.020543 537.654937 
L 1135.97723 605.60364 
L 1136.933917 592.101115 
L 1137.890605 682.02553 
L 1138.847292 598.276176 
L 1139.80398 551.460116 
L 1140.760667 681.126051 
L 1142.674042 522.111454 
L 1143.630729 614.821039 
L 1145.544104 607.536037 
L 1146.500791 603.458351 
L 1147.457479 685.61981 
L 1148.414166 684.784014 
L 1149.370854 684.742166 
L 1150.327541 604.42758 
L 1151.284228 479.638737 
L 1153.197603 618.28856 
L 1154.154291 620.476911 
L 1155.110978 684.998727 
L 1157.024353 547.167723 
L 1157.98104 638.541736 
L 1158.937727 583.374396 
L 1159.894415 686.994207 
L 1160.851102 685.465757 
L 1161.80779 660.220854 
L 1162.764477 644.722249 
L 1163.721164 613.006312 
L 1164.677852 625.996315 
L 1165.634539 624.041475 
L 1166.591227 626.631952 
L 1167.547914 622.302563 
L 1168.504601 689.02607 
L 1169.461289 683.14093 
L 1170.417976 676.11977 
L 1171.374664 531.296101 
L 1172.331351 686.851065 
L 1173.288038 681.021728 
L 1174.244726 686.671534 
L 1175.201413 683.156099 
L 1176.158101 684.184766 
L 1177.114788 641.030926 
L 1178.071475 687.523099 
L 1179.028163 46.522727 
L 1179.98485 667.427619 
L 1180.941537 480.338671 
L 1181.898225 615.238941 
L 1182.854912 684.91806 
L 1183.8116 686.006173 
L 1184.768287 613.112451 
L 1185.724974 674.204957 
L 1186.681662 541.337171 
L 1187.638349 593.384529 
L 1188.595037 604.465791 
L 1189.551724 682.450098 
L 1190.508411 684.788265 
L 1191.465099 680.583813 
L 1192.421786 670.787779 
L 1193.378474 687.424841 
L 1194.335161 685.690774 
L 1195.291848 619.953479 
L 1196.248536 543.685648 
L 1197.205223 538.241453 
L 1198.16191 573.267214 
L 1199.118598 527.498026 
L 1200.075285 611.966113 
L 1201.031973 614.505646 
L 1201.98866 610.249643 
L 1202.945347 687.879125 
L 1203.902035 620.934839 
L 1204.858722 685.363856 
L 1205.81541 687.586175 
L 1206.772097 685.612536 
L 1207.728784 686.433771 
L 1208.685472 689.541014 
L 1209.642159 686.813461 
L 1210.598847 617.742078 
L 1211.555534 688.591192 
L 1212.512221 687.563732 
L 1213.468909 620.174251 
L 1214.425596 689.030321 
L 1215.382284 551.774908 
L 1216.338971 690.572111 
L 1217.295658 620.032931 
L 1218.252346 602.112462 
L 1219.209033 611.812054 
L 1220.16572 686.776458 
L 1221.122408 655.728303 
L 1222.079095 493.702298 
L 1223.99247 513.736517 
L 1224.949157 389.995147 
L 1225.905845 618.193939 
L 1226.862532 686.424675 
L 1227.81922 687.845772 
L 1228.775907 684.15808 
L 1229.732594 542.427099 
L 1230.689282 601.853479 
L 1231.645969 506.056056 
L 1232.602657 562.522579 
L 1233.559344 686.593897 
L 1234.516031 688.29399 
L 1235.472719 675.39072 
L 1236.429406 630.348153 
L 1237.386094 459.916881 
L 1238.342781 681.145457 
L 1239.299468 609.393827 
L 1240.256156 684.344284 
L 1241.212843 609.650389 
L 1242.16953 609.191854 
L 1243.126218 610.470416 
L 1244.082905 684.913209 
L 1245.039593 687.961614 
L 1245.99628 616.243951 
L 1246.952967 616.008625 
L 1247.909655 558.649289 
L 1248.866342 686.45925 
L 1249.82303 682.476177 
L 1250.779717 685.269242 
L 1251.736404 685.749612 
L 1252.693092 615.612558 
L 1253.649779 689.167997 
L 1254.606467 683.21493 
L 1255.563154 685.501539 
L 1256.519841 627.376164 
L 1257.476529 602.828166 
L 1258.433216 623.658755 
L 1259.389904 687.965865 
L 1260.346591 619.503432 
L 1260.346591 619.503432 
" style="fill:none;stroke:#2ca02c;stroke-linecap:square;stroke-width:1.5;"/>
   </g>
   <g id="line2d_17">
    <path clip-path="url(#p4f35f55d5f)" d="M 158.242716 666.966544 
L 159.199404 665.654928 
L 161.112779 665.73528 
L 162.069466 665.889085 
L 163.982841 668.188571 
L 164.939528 668.227995 
L 165.896216 672.566413 
L 166.852903 675.945871 
L 169.722965 675.811551 
L 170.679653 674.17476 
L 171.63634 676.336981 
L 172.593027 676.22912 
L 173.549715 676.388586 
L 175.46309 676.240177 
L 176.419777 675.790878 
L 177.376464 675.995291 
L 178.333152 675.250323 
L 179.289839 675.277048 
L 180.246526 674.613128 
L 181.203214 673.245332 
L 182.159901 672.708226 
L 183.116589 673.321135 
L 184.073276 673.680339 
L 185.029963 673.061162 
L 186.943338 672.98522 
L 187.900026 672.608338 
L 190.770088 672.566261 
L 191.726775 672.157196 
L 192.683463 670.986028 
L 193.64015 668.382887 
L 194.596837 667.730756 
L 195.553525 667.536326 
L 197.466899 666.399339 
L 198.423587 666.441202 
L 199.380274 668.154946 
L 202.250336 667.477012 
L 204.163711 667.573134 
L 205.120399 669.00387 
L 207.033773 669.095721 
L 207.990461 664.390658 
L 208.947148 663.662951 
L 212.773898 663.686883 
L 213.730585 664.026779 
L 215.64396 664.200575 
L 216.600647 666.838465 
L 217.557335 665.123571 
L 218.514022 665.248958 
L 219.470709 664.575345 
L 220.427397 663.617347 
L 221.384084 663.830163 
L 222.340772 664.374559 
L 223.297459 666.005374 
L 224.254146 666.53654 
L 225.210834 666.539598 
L 226.167521 666.824628 
L 227.124209 667.499542 
L 228.080896 666.470795 
L 229.037583 666.777534 
L 229.994271 666.86332 
L 230.950958 667.355643 
L 231.907646 667.261771 
L 232.864333 666.276681 
L 233.82102 666.75086 
L 234.777708 666.634204 
L 235.734395 663.648243 
L 236.691083 663.601502 
L 237.64777 662.715883 
L 238.604457 663.903528 
L 239.561145 666.510384 
L 240.517832 667.321893 
L 241.474519 666.102595 
L 242.431207 665.11326 
L 243.387894 665.789147 
L 245.301269 665.943079 
L 246.257956 666.150663 
L 247.214644 664.888807 
L 248.171331 665.228955 
L 249.128019 665.295522 
L 251.041393 662.463581 
L 251.998081 662.403737 
L 252.954768 662.498355 
L 253.911456 667.325646 
L 254.868143 668.067834 
L 255.82483 667.050598 
L 257.738205 667.128588 
L 258.694893 664.791308 
L 259.65158 662.795604 
L 260.608267 661.158358 
L 261.564955 659.799812 
L 262.521642 659.66817 
L 263.478329 661.345523 
L 264.435017 661.309144 
L 265.391704 661.99447 
L 266.348392 662.953997 
L 268.261766 660.03584 
L 269.218454 660.012779 
L 271.131829 657.03752 
L 272.088516 657.506227 
L 273.045203 656.666919 
L 274.001891 656.876917 
L 274.958578 656.702439 
L 275.915266 656.860123 
L 276.871953 655.450237 
L 277.82864 652.409562 
L 278.785328 650.358247 
L 279.742015 650.270604 
L 280.698703 648.930114 
L 281.65539 651.869436 
L 282.612077 647.703134 
L 283.568765 648.150587 
L 284.525452 647.188583 
L 285.482139 645.587135 
L 286.438827 644.644781 
L 287.395514 645.370441 
L 288.352202 646.919715 
L 292.178951 646.856547 
L 293.135639 648.353268 
L 294.092326 648.400148 
L 295.049013 646.954539 
L 296.962388 649.768184 
L 297.919076 649.806926 
L 300.789138 649.656216 
L 301.745825 650.485504 
L 302.702513 647.527304 
L 303.6592 645.785331 
L 304.615887 646.697485 
L 305.572575 646.171411 
L 306.529262 644.724994 
L 307.485949 645.114271 
L 308.442637 643.67421 
L 309.399324 643.734989 
L 310.356012 640.490154 
L 312.269386 640.512937 
L 313.226074 641.223168 
L 314.182761 640.398088 
L 315.139449 640.330435 
L 316.096136 640.718297 
L 317.052823 640.498267 
L 318.009511 638.602564 
L 318.966198 639.775652 
L 319.922886 639.688944 
L 320.879573 639.986231 
L 321.83626 638.420896 
L 322.792948 635.997565 
L 323.749635 633.121461 
L 324.706323 636.158977 
L 325.66301 634.660184 
L 326.619697 636.181924 
L 327.576385 636.234187 
L 328.533072 640.518471 
L 329.489759 641.386754 
L 330.446447 642.423512 
L 331.403134 643.942624 
L 332.359822 644.898423 
L 333.316509 645.47906 
L 334.273196 642.911805 
L 335.229884 642.979445 
L 336.186571 641.488145 
L 337.143259 638.698472 
L 338.099946 638.582549 
L 340.013321 638.681173 
L 340.970008 638.367724 
L 341.926696 638.315929 
L 342.883383 635.31603 
L 343.84007 633.352738 
L 344.796758 628.721242 
L 345.753445 627.502513 
L 346.710132 627.468496 
L 347.66682 623.281004 
L 348.623507 624.4746 
L 349.580195 626.250829 
L 350.536882 626.203797 
L 351.493569 627.881036 
L 352.450257 624.907029 
L 354.363632 622.45078 
L 355.320319 621.869815 
L 356.277006 622.535644 
L 357.233694 620.566577 
L 358.190381 620.583256 
L 359.147069 619.759958 
L 360.103756 620.674096 
L 361.060443 616.459512 
L 362.017131 614.614985 
L 362.973818 616.037381 
L 363.930506 617.108269 
L 364.887193 613.274597 
L 365.84388 614.717855 
L 366.800568 614.56856 
L 367.757255 611.757292 
L 368.713942 613.164487 
L 369.67063 617.416967 
L 370.627317 615.359132 
L 371.584005 616.256199 
L 372.540692 616.099437 
L 373.497379 614.462721 
L 377.324129 614.657846 
L 378.280816 613.278072 
L 379.237504 611.621291 
L 380.194191 612.923607 
L 381.150879 612.863181 
L 382.107566 614.17591 
L 383.064253 613.642077 
L 384.977628 613.553953 
L 385.934316 613.443957 
L 386.891003 615.187737 
L 387.84769 613.628834 
L 388.804378 614.918363 
L 389.761065 615.115193 
L 390.717752 619.135651 
L 391.67444 615.491001 
L 392.631127 612.917516 
L 393.587815 615.662762 
L 394.544502 617.282368 
L 395.501189 617.233315 
L 396.457877 616.85862 
L 397.414564 617.584886 
L 398.371252 623.504824 
L 399.327939 624.034626 
L 400.284626 623.418331 
L 401.241314 623.437563 
L 402.198001 622.453876 
L 403.154689 623.035726 
L 404.111376 621.422551 
L 405.068063 622.970019 
L 406.981438 625.63519 
L 407.938126 627.128221 
L 408.894813 624.587931 
L 409.8515 625.37854 
L 410.808188 629.415943 
L 411.764875 627.97247 
L 413.67825 628.035915 
L 414.634937 630.540862 
L 415.591625 632.326922 
L 416.548312 634.423259 
L 417.504999 634.912209 
L 419.418374 633.090705 
L 420.375062 631.725954 
L 421.331749 627.455885 
L 422.288436 624.967175 
L 423.245124 622.053959 
L 424.201811 621.140162 
L 425.158499 618.951279 
L 426.115186 619.254164 
L 427.071873 616.895251 
L 428.028561 616.208447 
L 428.985248 618.782424 
L 429.941936 617.820496 
L 432.811998 604.512052 
L 433.768685 601.906004 
L 434.725372 602.719674 
L 435.68206 599.578062 
L 436.638747 598.163159 
L 437.595435 600.434037 
L 438.552122 600.805409 
L 439.508809 601.581032 
L 441.422184 598.020398 
L 444.292246 596.100637 
L 445.248934 596.900331 
L 446.205621 590.986155 
L 447.162309 590.958242 
L 448.118996 593.892408 
L 449.075683 594.346142 
L 450.032371 595.068756 
L 450.989058 594.167949 
L 451.945746 585.665693 
L 452.902433 585.785167 
L 453.85912 585.633876 
L 454.815808 584.961085 
L 455.772495 584.719321 
L 457.68587 581.695262 
L 458.642557 577.17663 
L 459.599245 581.442428 
L 460.555932 581.414616 
L 461.512619 579.74784 
L 463.425994 579.577077 
L 464.382682 578.373663 
L 465.339369 579.549152 
L 466.296056 572.887076 
L 467.252744 576.196254 
L 468.209431 574.470973 
L 469.166119 576.465148 
L 470.122806 576.561042 
L 471.079493 575.88599 
L 472.036181 572.486781 
L 472.992868 572.377416 
L 473.949556 571.654195 
L 474.906243 569.175897 
L 475.86293 568.01748 
L 477.776305 574.699293 
L 478.732992 574.712232 
L 479.68968 577.888933 
L 480.646367 577.631425 
L 481.603055 581.362708 
L 482.559742 579.540458 
L 483.516429 581.095734 
L 485.429804 580.503472 
L 486.386492 581.450098 
L 487.343179 582.81131 
L 488.299866 585.162212 
L 489.256554 585.276378 
L 491.169929 586.243562 
L 492.126616 594.86356 
L 493.083303 593.617474 
L 494.996678 594.079964 
L 495.953365 591.86754 
L 496.910053 592.392945 
L 497.86674 600.394651 
L 498.823428 603.085991 
L 499.780115 604.292211 
L 500.736802 607.262819 
L 501.69349 607.488321 
L 502.650177 608.163071 
L 503.606865 608.309977 
L 505.520239 605.621858 
L 506.476927 602.968123 
L 507.433614 603.93417 
L 508.390302 601.5049 
L 509.346989 600.379361 
L 510.303676 600.494968 
L 511.260364 597.584115 
L 512.217051 603.89884 
L 513.173739 599.634305 
L 514.130426 600.102368 
L 515.087113 599.981669 
L 516.043801 595.307804 
L 517.000488 596.898347 
L 517.957175 598.712636 
L 518.913863 598.747233 
L 519.87055 598.246153 
L 520.827238 601.07678 
L 521.783925 602.004073 
L 522.740612 602.208637 
L 523.6973 601.695123 
L 524.653987 604.932199 
L 526.567362 604.572743 
L 527.524049 604.745869 
L 528.480737 607.599544 
L 529.437424 606.293361 
L 530.394112 605.229234 
L 531.350799 605.022155 
L 532.307486 604.666414 
L 533.264174 604.011768 
L 534.220861 603.007598 
L 535.177549 600.756091 
L 536.134236 599.808177 
L 537.090923 599.109988 
L 538.047611 598.68466 
L 539.960985 596.622365 
L 540.917673 596.259231 
L 541.87436 598.408665 
L 542.831048 597.828167 
L 544.744422 595.649014 
L 545.70111 593.569382 
L 546.657797 593.173749 
L 547.614485 592.051294 
L 548.571172 591.834649 
L 549.527859 591.30879 
L 550.484547 595.987318 
L 551.441234 597.259497 
L 552.397922 599.939402 
L 553.354609 600.577545 
L 554.311296 603.072573 
L 555.267984 602.780428 
L 556.224671 603.334883 
L 557.181359 606.860882 
L 558.138046 608.014839 
L 559.094733 613.296672 
L 560.051421 615.520278 
L 561.008108 614.966064 
L 561.964795 621.682676 
L 562.921483 624.586832 
L 563.87817 621.127931 
L 564.834858 623.560158 
L 565.791545 625.284175 
L 566.748232 624.403244 
L 567.70492 624.044091 
L 568.661607 623.453611 
L 569.618295 621.916606 
L 571.531669 624.334592 
L 572.488357 623.952695 
L 574.401732 625.870536 
L 575.358419 628.190226 
L 576.315106 631.821281 
L 578.228481 634.350387 
L 580.141856 636.675827 
L 581.098543 639.531234 
L 582.055231 640.769207 
L 583.968605 642.846388 
L 584.925293 645.613393 
L 585.88198 647.111731 
L 586.838668 646.838516 
L 587.795355 647.283467 
L 588.752042 645.375205 
L 589.70873 642.770585 
L 590.665417 641.543289 
L 591.622105 641.846704 
L 592.578792 640.378616 
L 594.492167 635.719106 
L 596.405542 634.517195 
L 597.362229 632.043042 
L 599.275604 628.570608 
L 600.232291 626.309523 
L 601.188979 626.090907 
L 602.145666 621.943231 
L 603.102353 618.626636 
L 604.059041 617.113804 
L 605.972415 610.559968 
L 606.929103 608.447786 
L 607.88579 605.603979 
L 608.842478 603.763016 
L 609.799165 607.927006 
L 610.755852 604.381308 
L 611.71254 603.458539 
L 612.669227 603.48352 
L 613.625915 604.011275 
L 614.582602 603.67996 
L 615.539289 604.49397 
L 616.495977 599.770901 
L 617.452664 594.111365 
L 618.409352 590.381333 
L 619.366039 587.71855 
L 620.322726 585.579806 
L 621.279414 578.408083 
L 622.236101 574.522035 
L 623.192788 563.832286 
L 624.149476 556.671266 
L 625.106163 554.526697 
L 626.062851 551.5397 
L 627.019538 547.182531 
L 627.976225 544.64794 
L 628.932913 543.964636 
L 629.8896 540.52695 
L 630.846288 535.819461 
L 631.802975 532.513303 
L 632.759662 531.504635 
L 633.71635 529.461255 
L 634.673037 528.155982 
L 635.629725 528.358234 
L 636.586412 526.603119 
L 638.499787 522.172598 
L 639.456474 523.511736 
L 640.413162 523.487449 
L 641.369849 524.960655 
L 642.326536 522.503459 
L 643.283224 522.27639 
L 644.239911 519.416309 
L 645.196598 515.931668 
L 646.153286 515.884927 
L 647.109973 514.671151 
L 648.066661 517.496724 
L 649.023348 517.677014 
L 649.980035 514.48448 
L 650.936723 514.667942 
L 651.89341 516.144748 
L 652.850098 516.167329 
L 653.806785 517.105324 
L 654.763472 516.826081 
L 655.72016 514.832336 
L 656.676847 514.53798 
L 658.590222 512.354063 
L 659.546909 512.157826 
L 660.503597 510.600465 
L 661.460284 509.595449 
L 662.416972 511.456326 
L 663.373659 514.359282 
L 664.330346 515.862814 
L 665.287034 514.687388 
L 666.243721 508.611421 
L 667.200408 508.893014 
L 668.157096 509.332001 
L 669.113783 516.609816 
L 670.070471 520.197213 
L 671.027158 520.23761 
L 671.983845 521.189581 
L 672.940533 523.103921 
L 673.89722 521.945757 
L 674.853908 521.658781 
L 675.810595 523.683787 
L 676.767282 526.121801 
L 677.72397 523.092953 
L 678.680657 522.939161 
L 679.637345 520.097856 
L 680.594032 520.664088 
L 681.550719 518.873378 
L 682.507407 516.130912 
L 683.464094 511.647131 
L 684.420782 512.038126 
L 685.377469 508.410004 
L 686.334156 501.606847 
L 687.290844 498.155464 
L 688.247531 496.69233 
L 689.204218 488.239013 
L 690.160906 491.413744 
L 691.117593 493.286259 
L 692.074281 491.813964 
L 693.030968 492.52604 
L 693.987655 491.544956 
L 694.944343 492.67474 
L 695.90103 492.229486 
L 696.857718 492.761208 
L 697.814405 493.652754 
L 698.771092 495.144559 
L 699.72778 493.952378 
L 700.684467 492.374193 
L 701.641155 494.119932 
L 703.554529 496.33257 
L 704.511217 496.707935 
L 705.467904 496.415892 
L 706.424592 497.785255 
L 707.381279 496.547079 
L 708.337966 496.757809 
L 709.294654 495.581272 
L 710.251341 496.93599 
L 711.208028 496.507415 
L 712.164716 502.399655 
L 713.121403 505.439484 
L 714.078091 506.329854 
L 715.034778 508.252749 
L 715.991465 510.794757 
L 716.948153 511.658162 
L 717.90484 512.693998 
L 718.861528 513.926133 
L 719.818215 516.46962 
L 720.774902 515.98086 
L 721.73159 514.557125 
L 722.688277 511.210608 
L 723.644965 514.414287 
L 724.601652 512.723048 
L 725.558339 512.665769 
L 726.515027 513.647838 
L 727.471714 517.508059 
L 728.428402 521.957357 
L 729.385089 527.039175 
L 731.298464 530.421679 
L 732.255151 538.098046 
L 733.211838 541.917389 
L 734.168526 546.397582 
L 735.125213 555.552019 
L 736.081901 556.15559 
L 737.995275 559.468824 
L 738.951963 559.007458 
L 739.90865 556.739702 
L 740.865338 556.256956 
L 741.822025 560.099234 
L 742.778712 560.204744 
L 743.7354 558.329525 
L 744.692087 557.457919 
L 745.648775 554.975047 
L 747.562149 555.254619 
L 748.518837 551.505279 
L 749.475524 550.598684 
L 750.432212 550.519836 
L 751.388899 547.218303 
L 752.345586 539.619811 
L 753.302274 541.18641 
L 754.258961 539.724526 
L 755.215648 541.190731 
L 756.172336 540.129194 
L 757.129023 540.980986 
L 758.085711 541.342843 
L 759.042398 542.933942 
L 759.999085 543.147415 
L 760.955773 540.895883 
L 761.91246 539.472754 
L 762.869148 535.784307 
L 763.825835 533.961324 
L 764.782522 532.815 
L 766.695897 523.777066 
L 767.652585 523.531877 
L 768.609272 521.312668 
L 770.522647 518.069589 
L 771.479334 520.199361 
L 772.436021 519.673641 
L 773.392709 515.95838 
L 774.349396 511.61971 
L 775.306084 508.362252 
L 776.262771 504.654017 
L 777.219458 506.140756 
L 778.176146 506.693606 
L 779.132833 504.906838 
L 780.089521 504.14207 
L 781.046208 499.970195 
L 782.002895 495.288382 
L 782.959583 491.230547 
L 783.91627 488.547053 
L 784.872958 488.181431 
L 785.829645 492.316674 
L 786.786332 492.349085 
L 787.74302 487.232758 
L 788.699707 485.216533 
L 789.656395 486.522918 
L 790.613082 483.738046 
L 791.569769 483.331407 
L 792.526457 483.814898 
L 793.483144 483.483216 
L 794.439831 487.757253 
L 795.396519 487.978585 
L 796.353206 487.609715 
L 797.309894 490.653941 
L 798.266581 498.403483 
L 799.223268 499.44383 
L 800.179956 501.1379 
L 801.136643 501.753133 
L 802.093331 503.169035 
L 804.006705 502.788047 
L 804.963393 502.991714 
L 805.92008 500.594944 
L 806.876768 498.811007 
L 807.833455 498.705155 
L 808.790142 501.0264 
L 809.74683 499.978257 
L 810.703517 500.808315 
L 811.660205 502.980354 
L 812.616892 502.04433 
L 813.573579 503.807418 
L 814.530267 506.876347 
L 816.443641 515.430272 
L 817.400329 516.713217 
L 818.357016 517.123697 
L 819.313704 518.47293 
L 820.270391 522.492225 
L 821.227078 527.550755 
L 822.183766 531.447077 
L 823.140453 530.07659 
L 824.097141 527.201623 
L 825.053828 527.698647 
L 826.010515 525.76927 
L 826.967203 529.481321 
L 827.92389 532.339848 
L 828.880578 533.304265 
L 829.837265 531.680793 
L 830.793952 531.52326 
L 831.75064 528.910073 
L 832.707327 524.4991 
L 833.664015 528.720735 
L 834.620702 529.269415 
L 835.577389 525.774956 
L 837.490764 529.993357 
L 838.447451 530.875514 
L 839.404139 531.30117 
L 841.317514 531.036648 
L 842.274201 531.871053 
L 843.230888 530.330359 
L 844.187576 530.070159 
L 845.144263 528.272625 
L 846.100951 526.928939 
L 847.057638 523.858847 
L 848.014325 524.318468 
L 848.971013 523.82267 
L 849.9277 523.720735 
L 851.841075 519.780466 
L 852.797762 519.54507 
L 853.75445 515.776068 
L 854.711137 513.494399 
L 855.667825 515.429071 
L 856.624512 514.617562 
L 857.581199 515.737984 
L 858.537887 520.216888 
L 859.494574 517.223812 
L 860.451261 520.030671 
L 861.407949 518.131089 
L 862.364636 517.349123 
L 863.321324 517.418609 
L 865.234698 517.821242 
L 866.191386 518.464743 
L 867.148073 517.112616 
L 868.104761 514.889022 
L 869.061448 516.420239 
L 870.018135 519.006208 
L 871.93151 522.175518 
L 872.888198 522.347557 
L 873.844885 522.662231 
L 874.801572 524.733751 
L 875.75826 527.44359 
L 876.714947 526.620355 
L 877.671635 529.542138 
L 878.628322 534.876449 
L 879.585009 535.596928 
L 880.541697 536.662863 
L 881.498384 539.576015 
L 882.455071 540.295459 
L 883.411759 541.49795 
L 884.368446 541.339154 
L 885.325134 542.249956 
L 886.281821 543.478782 
L 887.238508 543.441063 
L 888.195196 543.834333 
L 889.151883 538.284326 
L 890.108571 536.87406 
L 891.065258 538.416284 
L 892.021945 537.375292 
L 892.978633 539.100548 
L 893.93532 538.672365 
L 894.892008 538.803931 
L 895.848695 538.580665 
L 896.805382 540.056145 
L 897.76207 544.686378 
L 898.718757 546.529881 
L 899.675444 551.1518 
L 900.632132 552.820547 
L 901.588819 553.415361 
L 902.545507 552.397494 
L 903.502194 552.579629 
L 904.458881 547.259205 
L 905.415569 548.234035 
L 906.372256 547.622503 
L 907.328944 544.56698 
L 908.285631 544.340126 
L 909.242318 543.582118 
L 910.199006 543.687692 
L 911.155693 545.130179 
L 912.112381 544.344006 
L 913.069068 544.198123 
L 914.025755 545.75278 
L 914.982443 545.546346 
L 915.93913 542.319997 
L 916.895818 540.75532 
L 917.852505 540.806849 
L 918.809192 534.960528 
L 919.76588 533.414818 
L 920.722567 532.746588 
L 921.679254 526.012488 
L 922.635942 523.619331 
L 923.592629 522.83298 
L 926.462691 510.235513 
L 927.419379 510.437651 
L 928.376066 511.577177 
L 929.332754 509.975211 
L 931.246128 505.58606 
L 932.202816 504.468533 
L 933.159503 502.962828 
L 934.116191 500.232189 
L 935.072878 505.42552 
L 936.029565 505.316143 
L 936.986253 501.461785 
L 937.94294 499.729403 
L 938.899628 494.928572 
L 939.856315 493.944986 
L 940.813002 492.266496 
L 941.76969 492.331913 
L 942.726377 489.601704 
L 943.683064 489.757114 
L 944.639752 490.530803 
L 945.596439 488.272498 
L 946.553127 489.32447 
L 947.509814 487.491707 
L 948.466501 488.466044 
L 949.423189 487.046403 
L 950.379876 492.256463 
L 951.336564 493.209685 
L 952.293251 493.606089 
L 953.249938 495.598596 
L 954.206626 495.782639 
L 956.120001 496.439584 
L 957.076688 494.977423 
L 958.033375 495.232556 
L 958.990063 496.60696 
L 959.94675 496.08728 
L 960.903438 495.733965 
L 961.860125 498.572856 
L 962.816812 499.334415 
L 963.7735 498.582573 
L 964.730187 503.528061 
L 965.686874 505.506555 
L 966.643562 506.610865 
L 967.600249 515.182707 
L 968.556937 519.385629 
L 969.513624 519.539409 
L 972.383686 532.344726 
L 973.340374 533.689057 
L 974.297061 533.513164 
L 975.253748 533.572313 
L 976.210436 535.714341 
L 978.123811 531.793759 
L 979.080498 530.372727 
L 980.037185 531.78293 
L 981.95056 528.606961 
L 982.907248 532.636074 
L 983.863935 532.499163 
L 984.820622 538.085082 
L 985.77731 539.103947 
L 986.733997 541.355012 
L 987.690684 542.309611 
L 988.647372 545.24633 
L 989.604059 545.448847 
L 990.560747 546.610373 
L 991.517434 548.258207 
L 992.474121 548.077942 
L 993.430809 548.251283 
L 994.387496 548.607403 
L 995.344184 548.112401 
L 996.300871 549.182025 
L 997.257558 549.630224 
L 999.170933 549.898549 
L 1000.127621 549.038101 
L 1001.084308 549.420302 
L 1002.040995 549.29144 
L 1002.997683 551.503826 
L 1003.95437 552.240871 
L 1004.911058 552.176377 
L 1005.867745 554.015912 
L 1006.824432 555.106702 
L 1007.78112 554.444664 
L 1008.737807 554.824135 
L 1009.694494 555.354746 
L 1010.651182 553.165699 
L 1011.607869 553.016809 
L 1012.564557 548.318367 
L 1013.521244 544.332709 
L 1014.477931 539.161643 
L 1015.434619 535.759098 
L 1016.391306 533.491088 
L 1017.347994 531.951834 
L 1019.261368 525.598797 
L 1020.218056 525.58045 
L 1021.174743 525.816996 
L 1022.131431 526.26992 
L 1023.088118 524.692026 
L 1024.044805 522.067706 
L 1025.001493 521.2181 
L 1025.95818 518.877636 
L 1026.914868 519.040628 
L 1027.871555 520.894669 
L 1028.828242 520.689625 
L 1029.78493 525.388876 
L 1030.741617 525.689915 
L 1031.698304 525.799482 
L 1032.654992 527.232834 
L 1033.611679 524.772353 
L 1034.568367 521.792848 
L 1035.525054 522.640104 
L 1036.481741 522.097312 
L 1037.438429 520.328412 
L 1039.351804 522.795767 
L 1040.308491 520.716843 
L 1041.265178 522.954854 
L 1042.221866 522.054199 
L 1044.135241 521.486981 
L 1045.091928 520.765188 
L 1046.048615 521.616399 
L 1047.005303 521.144407 
L 1047.96199 521.294421 
L 1048.918677 520.568319 
L 1049.875365 517.996123 
L 1051.78874 513.709804 
L 1052.745427 513.214511 
L 1053.702114 514.257587 
L 1054.658802 513.548885 
L 1055.615489 511.873238 
L 1056.572177 512.312554 
L 1057.528864 511.074176 
L 1058.485551 515.972292 
L 1059.442239 520.251737 
L 1060.398926 525.653916 
L 1061.355614 529.547912 
L 1062.312301 531.675435 
L 1063.268988 533.240706 
L 1064.225676 533.82708 
L 1065.182363 536.588146 
L 1066.139051 533.207297 
L 1067.095738 534.929697 
L 1068.052425 533.445422 
L 1069.9658 544.832349 
L 1072.835862 558.726573 
L 1073.79255 561.042182 
L 1074.749237 561.931946 
L 1075.705924 562.527013 
L 1077.619299 564.244219 
L 1078.575987 564.872746 
L 1079.532674 566.083793 
L 1080.489361 567.654889 
L 1081.446049 564.626117 
L 1082.402736 564.492959 
L 1083.359424 566.550604 
L 1084.316111 564.992763 
L 1085.272798 564.411874 
L 1086.229486 568.407843 
L 1087.186173 570.231002 
L 1090.056235 576.789235 
L 1091.012923 580.564327 
L 1092.926297 585.40457 
L 1093.882985 585.338913 
L 1094.839672 585.014257 
L 1095.79636 585.32768 
L 1096.753047 587.445561 
L 1097.709734 591.291149 
L 1098.666422 591.989995 
L 1099.623109 591.267747 
L 1100.579797 592.471351 
L 1101.536484 596.525737 
L 1102.493171 601.556392 
L 1103.449859 602.005525 
L 1106.319921 607.597762 
L 1107.276608 604.178588 
L 1109.189983 602.208788 
L 1110.146671 605.58208 
L 1111.103358 605.962259 
L 1112.060045 610.777774 
L 1113.016733 612.977966 
L 1113.97342 609.774817 
L 1114.930107 608.76807 
L 1115.886795 609.854197 
L 1116.843482 610.735532 
L 1117.80017 609.708782 
L 1118.756857 610.516917 
L 1124.496981 618.044495 
L 1125.453669 620.866631 
L 1126.410356 624.481397 
L 1127.367044 627.546523 
L 1128.323731 629.71323 
L 1130.237106 633.652387 
L 1131.193793 635.04102 
L 1133.107168 634.652565 
L 1134.063855 633.065206 
L 1135.020543 629.997919 
L 1135.97723 628.400578 
L 1136.933917 626.548355 
L 1137.890605 626.468243 
L 1138.847292 624.664316 
L 1139.80398 623.952467 
L 1140.760667 626.850217 
L 1141.717354 629.339104 
L 1142.674042 628.29158 
L 1143.630729 626.790676 
L 1144.587417 626.886331 
L 1145.544104 628.251195 
L 1148.414166 628.37087 
L 1149.370854 631.278691 
L 1150.327541 629.670647 
L 1151.284228 625.414515 
L 1152.240916 622.553043 
L 1153.197603 626.443022 
L 1154.154291 628.248086 
L 1155.110978 631.408336 
L 1156.067665 631.493705 
L 1157.024353 630.811323 
L 1157.98104 630.474688 
L 1158.937727 628.416891 
L 1159.894415 635.178247 
L 1160.851102 637.179461 
L 1161.80779 636.640333 
L 1162.764477 635.954552 
L 1163.721164 635.560853 
L 1167.547914 630.368002 
L 1168.504601 630.435592 
L 1170.417976 630.212137 
L 1171.374664 626.946364 
L 1172.331351 627.029736 
L 1173.288038 627.78082 
L 1174.244726 628.245168 
L 1175.201413 628.330183 
L 1176.158101 628.912196 
L 1177.114788 628.918249 
L 1178.071475 629.205427 
L 1179.028163 616.118062 
L 1179.98485 617.570254 
L 1180.941537 616.376165 
L 1181.898225 616.5769 
L 1182.854912 618.510587 
L 1183.8116 618.593517 
L 1184.768287 618.902606 
L 1185.724974 621.45979 
L 1186.681662 618.547522 
L 1187.638349 618.286841 
L 1188.595037 620.002556 
L 1190.508411 622.941373 
L 1192.421786 625.865898 
L 1194.335161 625.922394 
L 1196.248536 623.307173 
L 1197.205223 624.528063 
L 1198.16191 625.105856 
L 1199.118598 623.214387 
L 1200.075285 623.037078 
L 1201.031973 621.568472 
L 1201.98866 621.386198 
L 1202.945347 624.317686 
L 1203.902035 623.950875 
L 1204.858722 626.075656 
L 1206.772097 626.091046 
L 1207.728784 626.637149 
L 1208.685472 627.570873 
L 1209.642159 629.108522 
L 1210.598847 628.936559 
L 1212.512221 631.550757 
L 1214.425596 631.506505 
L 1215.382284 628.769713 
L 1216.338971 629.070804 
L 1217.295658 630.919488 
L 1218.252346 629.1541 
L 1219.209033 627.712232 
L 1220.16572 627.714418 
L 1221.122408 627.143005 
L 1222.079095 623.174621 
L 1223.035783 620.31584 
L 1223.99247 616.695287 
L 1224.949157 623.850962 
L 1225.905845 622.82526 
L 1226.862532 627.118719 
L 1227.81922 628.631361 
L 1228.775907 628.615528 
L 1229.732594 625.624297 
L 1230.689282 625.389736 
L 1231.645969 621.886633 
L 1232.602657 622.327996 
L 1234.516031 626.016279 
L 1235.472719 625.869208 
L 1236.429406 624.735039 
L 1237.386094 620.137812 
L 1238.342781 620.353597 
L 1239.299468 618.72795 
L 1240.256156 618.699899 
L 1241.212843 618.485251 
L 1243.126218 621.354734 
L 1244.082905 623.680692 
L 1245.039593 627.023683 
L 1246.952967 627.144117 
L 1247.909655 626.06911 
L 1248.866342 626.039529 
L 1249.82303 627.32164 
L 1251.736404 627.281407 
L 1252.693092 625.823074 
L 1253.649779 625.880037 
L 1255.563154 625.720912 
L 1256.519841 625.921622 
L 1257.476529 624.134893 
L 1258.433216 622.803539 
L 1259.389904 624.215864 
L 1260.346591 622.767387 
L 1260.346591 622.767387 
" style="fill:none;stroke:#ff0000;stroke-linecap:square;stroke-width:1.5;"/>
   </g>
   <g id="patch_3">
    <path d="M 55.925 723.2 
L 55.925 14.3 
" style="fill:none;stroke:#000000;stroke-linecap:square;stroke-linejoin:miter;stroke-width:0.8;"/>
   </g>
   <g id="patch_4">
    <path d="M 1317.7 723.2 
L 1317.7 14.3 
" style="fill:none;stroke:#000000;stroke-linecap:square;stroke-linejoin:miter;stroke-width:0.8;"/>
   </g>
   <g id="patch_5">
    <path d="M 55.925 723.2 
L 1317.7 723.2 
" style="fill:none;stroke:#000000;stroke-linecap:square;stroke-linejoin:miter;stroke-width:0.8;"/>
   </g>
   <g id="patch_6">
    <path d="M 55.925 14.3 
L 1317.7 14.3 
" style="fill:none;stroke:#000000;stroke-linecap:square;stroke-linejoin:miter;stroke-width:0.8;"/>
   </g>
   <g id="legend_1">
    <g id="patch_7">
     <path d="M 62.925 95.690625 
L 228.898438 95.690625 
Q 230.898438 95.690625 230.898438 93.690625 
L 230.898438 21.3 
Q 230.898438 19.3 228.898438 19.3 
L 62.925 19.3 
Q 60.925 19.3 60.925 21.3 
L 60.925 93.690625 
Q 60.925 95.690625 62.925 95.690625 
z
" style="fill:#ffffff;opacity:0.8;stroke:#cccccc;stroke-linejoin:miter;"/>
    </g>
    <g id="line2d_18">
     <path d="M 64.925 27.398437 
L 84.925 27.398437 
" style="fill:none;stroke:#000000;stroke-linecap:square;stroke-width:1.5;"/>
    </g>
    <g id="line2d_19"/>
    <g id="text_15">
     <!-- Unused Data -->
     <defs>
      <path d="M 8.6875 72.90625 
L 18.609375 72.90625 
L 18.609375 28.609375 
Q 18.609375 16.890625 22.84375 11.734375 
Q 27.09375 6.59375 36.625 6.59375 
Q 46.09375 6.59375 50.34375 11.734375 
Q 54.59375 16.890625 54.59375 28.609375 
L 54.59375 72.90625 
L 64.5 72.90625 
L 64.5 27.390625 
Q 64.5 13.140625 57.4375 5.859375 
Q 50.390625 -1.421875 36.625 -1.421875 
Q 22.796875 -1.421875 15.734375 5.859375 
Q 8.6875 13.140625 8.6875 27.390625 
z
" id="DejaVuSans-55"/>
      <path d="M 19.671875 64.796875 
L 19.671875 8.109375 
L 31.59375 8.109375 
Q 46.6875 8.109375 53.6875 14.9375 
Q 60.6875 21.78125 60.6875 36.53125 
Q 60.6875 51.171875 53.6875 57.984375 
Q 46.6875 64.796875 31.59375 64.796875 
z
M 9.8125 72.90625 
L 30.078125 72.90625 
Q 51.265625 72.90625 61.171875 64.09375 
Q 71.09375 55.28125 71.09375 36.53125 
Q 71.09375 17.671875 61.125 8.828125 
Q 51.171875 0 30.078125 0 
L 9.8125 0 
z
" id="DejaVuSans-44"/>
     </defs>
     <g transform="translate(92.925 30.898437)scale(0.1 -0.1)">
      <use xlink:href="#DejaVuSans-55"/>
      <use x="73.193359" xlink:href="#DejaVuSans-6e"/>
      <use x="136.572266" xlink:href="#DejaVuSans-75"/>
      <use x="199.951172" xlink:href="#DejaVuSans-73"/>
      <use x="252.050781" xlink:href="#DejaVuSans-65"/>
      <use x="313.574219" xlink:href="#DejaVuSans-64"/>
      <use x="377.050781" xlink:href="#DejaVuSans-20"/>
      <use x="408.837891" xlink:href="#DejaVuSans-44"/>
      <use x="485.839844" xlink:href="#DejaVuSans-61"/>
      <use x="547.119141" xlink:href="#DejaVuSans-74"/>
      <use x="586.328125" xlink:href="#DejaVuSans-61"/>
     </g>
    </g>
    <g id="line2d_20">
     <path d="M 64.925 42.076562 
L 84.925 42.076562 
" style="fill:none;stroke:#1f77b4;stroke-linecap:square;stroke-width:1.5;"/>
    </g>
    <g id="line2d_21"/>
    <g id="text_16">
     <!-- Training Data -->
     <defs>
      <path d="M -0.296875 72.90625 
L 61.375 72.90625 
L 61.375 64.59375 
L 35.5 64.59375 
L 35.5 0 
L 25.59375 0 
L 25.59375 64.59375 
L -0.296875 64.59375 
z
" id="DejaVuSans-54"/>
      <path d="M 41.109375 46.296875 
Q 39.59375 47.171875 37.8125 47.578125 
Q 36.03125 48 33.890625 48 
Q 26.265625 48 22.1875 43.046875 
Q 18.109375 38.09375 18.109375 28.8125 
L 18.109375 0 
L 9.078125 0 
L 9.078125 54.6875 
L 18.109375 54.6875 
L 18.109375 46.1875 
Q 20.953125 51.171875 25.484375 53.578125 
Q 30.03125 56 36.53125 56 
Q 37.453125 56 38.578125 55.875 
Q 39.703125 55.765625 41.0625 55.515625 
z
" id="DejaVuSans-72"/>
      <path d="M 45.40625 27.984375 
Q 45.40625 37.75 41.375 43.109375 
Q 37.359375 48.484375 30.078125 48.484375 
Q 22.859375 48.484375 18.828125 43.109375 
Q 14.796875 37.75 14.796875 27.984375 
Q 14.796875 18.265625 18.828125 12.890625 
Q 22.859375 7.515625 30.078125 7.515625 
Q 37.359375 7.515625 41.375 12.890625 
Q 45.40625 18.265625 45.40625 27.984375 
z
M 54.390625 6.78125 
Q 54.390625 -7.171875 48.1875 -13.984375 
Q 42 -20.796875 29.203125 -20.796875 
Q 24.46875 -20.796875 20.265625 -20.09375 
Q 16.0625 -19.390625 12.109375 -17.921875 
L 12.109375 -9.1875 
Q 16.0625 -11.328125 19.921875 -12.34375 
Q 23.78125 -13.375 27.78125 -13.375 
Q 36.625 -13.375 41.015625 -8.765625 
Q 45.40625 -4.15625 45.40625 5.171875 
L 45.40625 9.625 
Q 42.625 4.78125 38.28125 2.390625 
Q 33.9375 0 27.875 0 
Q 17.828125 0 11.671875 7.65625 
Q 5.515625 15.328125 5.515625 27.984375 
Q 5.515625 40.671875 11.671875 48.328125 
Q 17.828125 56 27.875 56 
Q 33.9375 56 38.28125 53.609375 
Q 42.625 51.21875 45.40625 46.390625 
L 45.40625 54.6875 
L 54.390625 54.6875 
z
" id="DejaVuSans-67"/>
     </defs>
     <g transform="translate(92.925 45.576562)scale(0.1 -0.1)">
      <use xlink:href="#DejaVuSans-54"/>
      <use x="60.865234" xlink:href="#DejaVuSans-72"/>
      <use x="101.978516" xlink:href="#DejaVuSans-61"/>
      <use x="163.257812" xlink:href="#DejaVuSans-69"/>
      <use x="191.041016" xlink:href="#DejaVuSans-6e"/>
      <use x="254.419922" xlink:href="#DejaVuSans-69"/>
      <use x="282.203125" xlink:href="#DejaVuSans-6e"/>
      <use x="345.582031" xlink:href="#DejaVuSans-67"/>
      <use x="409.058594" xlink:href="#DejaVuSans-20"/>
      <use x="440.845703" xlink:href="#DejaVuSans-44"/>
      <use x="517.847656" xlink:href="#DejaVuSans-61"/>
      <use x="579.126953" xlink:href="#DejaVuSans-74"/>
      <use x="618.335938" xlink:href="#DejaVuSans-61"/>
     </g>
    </g>
    <g id="line2d_22">
     <path d="M 64.925 56.754687 
L 84.925 56.754687 
" style="fill:none;stroke:#ff7f0e;stroke-linecap:square;stroke-width:1.5;"/>
    </g>
    <g id="line2d_23"/>
    <g id="text_17">
     <!-- Validation Data -->
     <defs>
      <path d="M 28.609375 0 
L 0.78125 72.90625 
L 11.078125 72.90625 
L 34.1875 11.53125 
L 57.328125 72.90625 
L 67.578125 72.90625 
L 39.796875 0 
z
" id="DejaVuSans-56"/>
      <path d="M 9.421875 75.984375 
L 18.40625 75.984375 
L 18.40625 0 
L 9.421875 0 
z
" id="DejaVuSans-6c"/>
      <path d="M 30.609375 48.390625 
Q 23.390625 48.390625 19.1875 42.75 
Q 14.984375 37.109375 14.984375 27.296875 
Q 14.984375 17.484375 19.15625 11.84375 
Q 23.34375 6.203125 30.609375 6.203125 
Q 37.796875 6.203125 41.984375 11.859375 
Q 46.1875 17.53125 46.1875 27.296875 
Q 46.1875 37.015625 41.984375 42.703125 
Q 37.796875 48.390625 30.609375 48.390625 
z
M 30.609375 56 
Q 42.328125 56 49.015625 48.375 
Q 55.71875 40.765625 55.71875 27.296875 
Q 55.71875 13.875 49.015625 6.21875 
Q 42.328125 -1.421875 30.609375 -1.421875 
Q 18.84375 -1.421875 12.171875 6.21875 
Q 5.515625 13.875 5.515625 27.296875 
Q 5.515625 40.765625 12.171875 48.375 
Q 18.84375 56 30.609375 56 
z
" id="DejaVuSans-6f"/>
     </defs>
     <g transform="translate(92.925 60.254687)scale(0.1 -0.1)">
      <use xlink:href="#DejaVuSans-56"/>
      <use x="68.298828" xlink:href="#DejaVuSans-61"/>
      <use x="129.578125" xlink:href="#DejaVuSans-6c"/>
      <use x="157.361328" xlink:href="#DejaVuSans-69"/>
      <use x="185.144531" xlink:href="#DejaVuSans-64"/>
      <use x="248.621094" xlink:href="#DejaVuSans-61"/>
      <use x="309.900391" xlink:href="#DejaVuSans-74"/>
      <use x="349.109375" xlink:href="#DejaVuSans-69"/>
      <use x="376.892578" xlink:href="#DejaVuSans-6f"/>
      <use x="438.074219" xlink:href="#DejaVuSans-6e"/>
      <use x="501.453125" xlink:href="#DejaVuSans-20"/>
      <use x="533.240234" xlink:href="#DejaVuSans-44"/>
      <use x="610.242188" xlink:href="#DejaVuSans-61"/>
      <use x="671.521484" xlink:href="#DejaVuSans-74"/>
      <use x="710.730469" xlink:href="#DejaVuSans-61"/>
     </g>
    </g>
    <g id="line2d_24">
     <path d="M 64.925 71.432812 
L 84.925 71.432812 
" style="fill:none;stroke:#2ca02c;stroke-linecap:square;stroke-width:1.5;"/>
    </g>
    <g id="line2d_25"/>
    <g id="text_18">
     <!-- Testing Data -->
     <g transform="translate(92.925 74.932812)scale(0.1 -0.1)">
      <use xlink:href="#DejaVuSans-54"/>
      <use x="60.818359" xlink:href="#DejaVuSans-65"/>
      <use x="122.341797" xlink:href="#DejaVuSans-73"/>
      <use x="174.441406" xlink:href="#DejaVuSans-74"/>
      <use x="213.650391" xlink:href="#DejaVuSans-69"/>
      <use x="241.433594" xlink:href="#DejaVuSans-6e"/>
      <use x="304.8125" xlink:href="#DejaVuSans-67"/>
      <use x="368.289062" xlink:href="#DejaVuSans-20"/>
      <use x="400.076172" xlink:href="#DejaVuSans-44"/>
      <use x="477.078125" xlink:href="#DejaVuSans-61"/>
      <use x="538.357422" xlink:href="#DejaVuSans-74"/>
      <use x="577.566406" xlink:href="#DejaVuSans-61"/>
     </g>
    </g>
    <g id="line2d_26">
     <path d="M 64.925 86.110937 
L 84.925 86.110937 
" style="fill:none;stroke:#ff0000;stroke-linecap:square;stroke-width:1.5;"/>
    </g>
    <g id="line2d_27"/>
    <g id="text_19">
     <!-- Moving average (48 steps) -->
     <defs>
      <path d="M 2.984375 54.6875 
L 12.5 54.6875 
L 29.59375 8.796875 
L 46.6875 54.6875 
L 56.203125 54.6875 
L 35.6875 0 
L 23.484375 0 
z
" id="DejaVuSans-76"/>
     </defs>
     <g transform="translate(92.925 89.610937)scale(0.1 -0.1)">
      <use xlink:href="#DejaVuSans-4d"/>
      <use x="86.279297" xlink:href="#DejaVuSans-6f"/>
      <use x="147.460938" xlink:href="#DejaVuSans-76"/>
      <use x="206.640625" xlink:href="#DejaVuSans-69"/>
      <use x="234.423828" xlink:href="#DejaVuSans-6e"/>
      <use x="297.802734" xlink:href="#DejaVuSans-67"/>
      <use x="361.279297" xlink:href="#DejaVuSans-20"/>
      <use x="393.066406" xlink:href="#DejaVuSans-61"/>
      <use x="454.345703" xlink:href="#DejaVuSans-76"/>
      <use x="513.525391" xlink:href="#DejaVuSans-65"/>
      <use x="575.048828" xlink:href="#DejaVuSans-72"/>
      <use x="616.162109" xlink:href="#DejaVuSans-61"/>
      <use x="677.441406" xlink:href="#DejaVuSans-67"/>
      <use x="740.917969" xlink:href="#DejaVuSans-65"/>
      <use x="802.441406" xlink:href="#DejaVuSans-20"/>
      <use x="834.228516" xlink:href="#DejaVuSans-28"/>
      <use x="873.242188" xlink:href="#DejaVuSans-34"/>
      <use x="936.865234" xlink:href="#DejaVuSans-38"/>
      <use x="1000.488281" xlink:href="#DejaVuSans-20"/>
      <use x="1032.275391" xlink:href="#DejaVuSans-73"/>
      <use x="1084.375" xlink:href="#DejaVuSans-74"/>
      <use x="1123.583984" xlink:href="#DejaVuSans-65"/>
      <use x="1185.107422" xlink:href="#DejaVuSans-70"/>
      <use x="1248.583984" xlink:href="#DejaVuSans-73"/>
      <use x="1300.683594" xlink:href="#DejaVuSans-29"/>
     </g>
    </g>
   </g>
  </g>
 </g>
 <defs>
  <clipPath id="p4f35f55d5f">
   <rect height="708.9" width="1261.775" x="55.925" y="14.3"/>
  </clipPath>
 </defs>
</svg>
