<?xml version="1.0" encoding="utf-8" standalone="no"?>
<!DOCTYPE svg PUBLIC "-//W3C//DTD SVG 1.1//EN"
  "http://www.w3.org/Graphics/SVG/1.1/DTD/svg11.dtd">
<!-- Created with matplotlib (http://matplotlib.org/) -->
<svg height="756pt" version="1.1" viewBox="0 0 1332 756" width="1332pt" xmlns="http://www.w3.org/2000/svg" xmlns:xlink="http://www.w3.org/1999/xlink">
 <defs>
  <style type="text/css">
*{stroke-linecap:butt;stroke-linejoin:round;}
  </style>
 </defs>
 <g id="figure_1">
  <g id="patch_1">
   <path d="M 0 756 
L 1332 756 
L 1332 0 
L 0 0 
z
" style="fill:#ffffff;"/>
  </g>
  <g id="axes_1">
   <g id="patch_2">
    <path d="M 65.3 723.2 
L 1317.7 723.2 
L 1317.7 14.3 
L 65.3 14.3 
z
" style="fill:#ffffff;"/>
   </g>
   <g id="matplotlib.axis_1">
    <g id="xtick_1">
     <g id="line2d_1">
      <defs>
       <path d="M 0 0 
L 0 3.5 
" id="m80bf943b2a" style="stroke:#000000;stroke-width:0.8;"/>
      </defs>
      <g>
       <use style="stroke:#000000;stroke-width:0.8;" x="122.227273" xlink:href="#m80bf943b2a" y="723.2"/>
      </g>
     </g>
     <g id="text_1">
      <!-- 0 -->
      <defs>
       <path d="M 31.78125 66.40625 
Q 24.171875 66.40625 20.328125 58.90625 
Q 16.5 51.421875 16.5 36.375 
Q 16.5 21.390625 20.328125 13.890625 
Q 24.171875 6.390625 31.78125 6.390625 
Q 39.453125 6.390625 43.28125 13.890625 
Q 47.125 21.390625 47.125 36.375 
Q 47.125 51.421875 43.28125 58.90625 
Q 39.453125 66.40625 31.78125 66.40625 
z
M 31.78125 74.21875 
Q 44.046875 74.21875 50.515625 64.515625 
Q 56.984375 54.828125 56.984375 36.375 
Q 56.984375 17.96875 50.515625 8.265625 
Q 44.046875 -1.421875 31.78125 -1.421875 
Q 19.53125 -1.421875 13.0625 8.265625 
Q 6.59375 17.96875 6.59375 36.375 
Q 6.59375 54.828125 13.0625 64.515625 
Q 19.53125 74.21875 31.78125 74.21875 
z
" id="DejaVuSans-30"/>
      </defs>
      <g transform="translate(117.455398 741.597656)scale(0.15 -0.15)">
       <use xlink:href="#DejaVuSans-30"/>
      </g>
     </g>
    </g>
    <g id="xtick_2">
     <g id="line2d_2">
      <g>
       <use style="stroke:#000000;stroke-width:0.8;" x="312.143112" xlink:href="#m80bf943b2a" y="723.2"/>
      </g>
     </g>
     <g id="text_2">
      <!-- 200 -->
      <defs>
       <path d="M 19.1875 8.296875 
L 53.609375 8.296875 
L 53.609375 0 
L 7.328125 0 
L 7.328125 8.296875 
Q 12.9375 14.109375 22.625 23.890625 
Q 32.328125 33.6875 34.8125 36.53125 
Q 39.546875 41.84375 41.421875 45.53125 
Q 43.3125 49.21875 43.3125 52.78125 
Q 43.3125 58.59375 39.234375 62.25 
Q 35.15625 65.921875 28.609375 65.921875 
Q 23.96875 65.921875 18.8125 64.3125 
Q 13.671875 62.703125 7.8125 59.421875 
L 7.8125 69.390625 
Q 13.765625 71.78125 18.9375 73 
Q 24.125 74.21875 28.421875 74.21875 
Q 39.75 74.21875 46.484375 68.546875 
Q 53.21875 62.890625 53.21875 53.421875 
Q 53.21875 48.921875 51.53125 44.890625 
Q 49.859375 40.875 45.40625 35.40625 
Q 44.1875 33.984375 37.640625 27.21875 
Q 31.109375 20.453125 19.1875 8.296875 
z
" id="DejaVuSans-32"/>
      </defs>
      <g transform="translate(297.827487 741.597656)scale(0.15 -0.15)">
       <use xlink:href="#DejaVuSans-32"/>
       <use x="63.623047" xlink:href="#DejaVuSans-30"/>
       <use x="127.246094" xlink:href="#DejaVuSans-30"/>
      </g>
     </g>
    </g>
    <g id="xtick_3">
     <g id="line2d_3">
      <g>
       <use style="stroke:#000000;stroke-width:0.8;" x="502.058951" xlink:href="#m80bf943b2a" y="723.2"/>
      </g>
     </g>
     <g id="text_3">
      <!-- 400 -->
      <defs>
       <path d="M 37.796875 64.3125 
L 12.890625 25.390625 
L 37.796875 25.390625 
z
M 35.203125 72.90625 
L 47.609375 72.90625 
L 47.609375 25.390625 
L 58.015625 25.390625 
L 58.015625 17.1875 
L 47.609375 17.1875 
L 47.609375 0 
L 37.796875 0 
L 37.796875 17.1875 
L 4.890625 17.1875 
L 4.890625 26.703125 
z
" id="DejaVuSans-34"/>
      </defs>
      <g transform="translate(487.743326 741.597656)scale(0.15 -0.15)">
       <use xlink:href="#DejaVuSans-34"/>
       <use x="63.623047" xlink:href="#DejaVuSans-30"/>
       <use x="127.246094" xlink:href="#DejaVuSans-30"/>
      </g>
     </g>
    </g>
    <g id="xtick_4">
     <g id="line2d_4">
      <g>
       <use style="stroke:#000000;stroke-width:0.8;" x="691.97479" xlink:href="#m80bf943b2a" y="723.2"/>
      </g>
     </g>
     <g id="text_4">
      <!-- 600 -->
      <defs>
       <path d="M 33.015625 40.375 
Q 26.375 40.375 22.484375 35.828125 
Q 18.609375 31.296875 18.609375 23.390625 
Q 18.609375 15.53125 22.484375 10.953125 
Q 26.375 6.390625 33.015625 6.390625 
Q 39.65625 6.390625 43.53125 10.953125 
Q 47.40625 15.53125 47.40625 23.390625 
Q 47.40625 31.296875 43.53125 35.828125 
Q 39.65625 40.375 33.015625 40.375 
z
M 52.59375 71.296875 
L 52.59375 62.3125 
Q 48.875 64.0625 45.09375 64.984375 
Q 41.3125 65.921875 37.59375 65.921875 
Q 27.828125 65.921875 22.671875 59.328125 
Q 17.53125 52.734375 16.796875 39.40625 
Q 19.671875 43.65625 24.015625 45.921875 
Q 28.375 48.1875 33.59375 48.1875 
Q 44.578125 48.1875 50.953125 41.515625 
Q 57.328125 34.859375 57.328125 23.390625 
Q 57.328125 12.15625 50.6875 5.359375 
Q 44.046875 -1.421875 33.015625 -1.421875 
Q 20.359375 -1.421875 13.671875 8.265625 
Q 6.984375 17.96875 6.984375 36.375 
Q 6.984375 53.65625 15.1875 63.9375 
Q 23.390625 74.21875 37.203125 74.21875 
Q 40.921875 74.21875 44.703125 73.484375 
Q 48.484375 72.75 52.59375 71.296875 
z
" id="DejaVuSans-36"/>
      </defs>
      <g transform="translate(677.659165 741.597656)scale(0.15 -0.15)">
       <use xlink:href="#DejaVuSans-36"/>
       <use x="63.623047" xlink:href="#DejaVuSans-30"/>
       <use x="127.246094" xlink:href="#DejaVuSans-30"/>
      </g>
     </g>
    </g>
    <g id="xtick_5">
     <g id="line2d_5">
      <g>
       <use style="stroke:#000000;stroke-width:0.8;" x="881.890629" xlink:href="#m80bf943b2a" y="723.2"/>
      </g>
     </g>
     <g id="text_5">
      <!-- 800 -->
      <defs>
       <path d="M 31.78125 34.625 
Q 24.75 34.625 20.71875 30.859375 
Q 16.703125 27.09375 16.703125 20.515625 
Q 16.703125 13.921875 20.71875 10.15625 
Q 24.75 6.390625 31.78125 6.390625 
Q 38.8125 6.390625 42.859375 10.171875 
Q 46.921875 13.96875 46.921875 20.515625 
Q 46.921875 27.09375 42.890625 30.859375 
Q 38.875 34.625 31.78125 34.625 
z
M 21.921875 38.8125 
Q 15.578125 40.375 12.03125 44.71875 
Q 8.5 49.078125 8.5 55.328125 
Q 8.5 64.0625 14.71875 69.140625 
Q 20.953125 74.21875 31.78125 74.21875 
Q 42.671875 74.21875 48.875 69.140625 
Q 55.078125 64.0625 55.078125 55.328125 
Q 55.078125 49.078125 51.53125 44.71875 
Q 48 40.375 41.703125 38.8125 
Q 48.828125 37.15625 52.796875 32.3125 
Q 56.78125 27.484375 56.78125 20.515625 
Q 56.78125 9.90625 50.3125 4.234375 
Q 43.84375 -1.421875 31.78125 -1.421875 
Q 19.734375 -1.421875 13.25 4.234375 
Q 6.78125 9.90625 6.78125 20.515625 
Q 6.78125 27.484375 10.78125 32.3125 
Q 14.796875 37.15625 21.921875 38.8125 
z
M 18.3125 54.390625 
Q 18.3125 48.734375 21.84375 45.5625 
Q 25.390625 42.390625 31.78125 42.390625 
Q 38.140625 42.390625 41.71875 45.5625 
Q 45.3125 48.734375 45.3125 54.390625 
Q 45.3125 60.0625 41.71875 63.234375 
Q 38.140625 66.40625 31.78125 66.40625 
Q 25.390625 66.40625 21.84375 63.234375 
Q 18.3125 60.0625 18.3125 54.390625 
z
" id="DejaVuSans-38"/>
      </defs>
      <g transform="translate(867.575004 741.597656)scale(0.15 -0.15)">
       <use xlink:href="#DejaVuSans-38"/>
       <use x="63.623047" xlink:href="#DejaVuSans-30"/>
       <use x="127.246094" xlink:href="#DejaVuSans-30"/>
      </g>
     </g>
    </g>
    <g id="xtick_6">
     <g id="line2d_6">
      <g>
       <use style="stroke:#000000;stroke-width:0.8;" x="1071.806468" xlink:href="#m80bf943b2a" y="723.2"/>
      </g>
     </g>
     <g id="text_6">
      <!-- 1000 -->
      <defs>
       <path d="M 12.40625 8.296875 
L 28.515625 8.296875 
L 28.515625 63.921875 
L 10.984375 60.40625 
L 10.984375 69.390625 
L 28.421875 72.90625 
L 38.28125 72.90625 
L 38.28125 8.296875 
L 54.390625 8.296875 
L 54.390625 0 
L 12.40625 0 
z
" id="DejaVuSans-31"/>
      </defs>
      <g transform="translate(1052.718968 741.597656)scale(0.15 -0.15)">
       <use xlink:href="#DejaVuSans-31"/>
       <use x="63.623047" xlink:href="#DejaVuSans-30"/>
       <use x="127.246094" xlink:href="#DejaVuSans-30"/>
       <use x="190.869141" xlink:href="#DejaVuSans-30"/>
      </g>
     </g>
    </g>
    <g id="xtick_7">
     <g id="line2d_7">
      <g>
       <use style="stroke:#000000;stroke-width:0.8;" x="1261.722306" xlink:href="#m80bf943b2a" y="723.2"/>
      </g>
     </g>
     <g id="text_7">
      <!-- 1200 -->
      <g transform="translate(1242.634806 741.597656)scale(0.15 -0.15)">
       <use xlink:href="#DejaVuSans-31"/>
       <use x="63.623047" xlink:href="#DejaVuSans-32"/>
       <use x="127.246094" xlink:href="#DejaVuSans-30"/>
       <use x="190.869141" xlink:href="#DejaVuSans-30"/>
      </g>
     </g>
    </g>
    <g id="text_8">
     <!-- 15-Minute Steps -->
     <defs>
      <path d="M 10.796875 72.90625 
L 49.515625 72.90625 
L 49.515625 64.59375 
L 19.828125 64.59375 
L 19.828125 46.734375 
Q 21.96875 47.46875 24.109375 47.828125 
Q 26.265625 48.1875 28.421875 48.1875 
Q 40.625 48.1875 47.75 41.5 
Q 54.890625 34.8125 54.890625 23.390625 
Q 54.890625 11.625 47.5625 5.09375 
Q 40.234375 -1.421875 26.90625 -1.421875 
Q 22.3125 -1.421875 17.546875 -0.640625 
Q 12.796875 0.140625 7.71875 1.703125 
L 7.71875 11.625 
Q 12.109375 9.234375 16.796875 8.0625 
Q 21.484375 6.890625 26.703125 6.890625 
Q 35.15625 6.890625 40.078125 11.328125 
Q 45.015625 15.765625 45.015625 23.390625 
Q 45.015625 31 40.078125 35.4375 
Q 35.15625 39.890625 26.703125 39.890625 
Q 22.75 39.890625 18.8125 39.015625 
Q 14.890625 38.140625 10.796875 36.28125 
z
" id="DejaVuSans-35"/>
      <path d="M 4.890625 31.390625 
L 31.203125 31.390625 
L 31.203125 23.390625 
L 4.890625 23.390625 
z
" id="DejaVuSans-2d"/>
      <path d="M 9.8125 72.90625 
L 24.515625 72.90625 
L 43.109375 23.296875 
L 61.8125 72.90625 
L 76.515625 72.90625 
L 76.515625 0 
L 66.890625 0 
L 66.890625 64.015625 
L 48.09375 14.015625 
L 38.1875 14.015625 
L 19.390625 64.015625 
L 19.390625 0 
L 9.8125 0 
z
" id="DejaVuSans-4d"/>
      <path d="M 9.421875 54.6875 
L 18.40625 54.6875 
L 18.40625 0 
L 9.421875 0 
z
M 9.421875 75.984375 
L 18.40625 75.984375 
L 18.40625 64.59375 
L 9.421875 64.59375 
z
" id="DejaVuSans-69"/>
      <path d="M 54.890625 33.015625 
L 54.890625 0 
L 45.90625 0 
L 45.90625 32.71875 
Q 45.90625 40.484375 42.875 44.328125 
Q 39.84375 48.1875 33.796875 48.1875 
Q 26.515625 48.1875 22.3125 43.546875 
Q 18.109375 38.921875 18.109375 30.90625 
L 18.109375 0 
L 9.078125 0 
L 9.078125 54.6875 
L 18.109375 54.6875 
L 18.109375 46.1875 
Q 21.34375 51.125 25.703125 53.5625 
Q 30.078125 56 35.796875 56 
Q 45.21875 56 50.046875 50.171875 
Q 54.890625 44.34375 54.890625 33.015625 
z
" id="DejaVuSans-6e"/>
      <path d="M 8.5 21.578125 
L 8.5 54.6875 
L 17.484375 54.6875 
L 17.484375 21.921875 
Q 17.484375 14.15625 20.5 10.265625 
Q 23.53125 6.390625 29.59375 6.390625 
Q 36.859375 6.390625 41.078125 11.03125 
Q 45.3125 15.671875 45.3125 23.6875 
L 45.3125 54.6875 
L 54.296875 54.6875 
L 54.296875 0 
L 45.3125 0 
L 45.3125 8.40625 
Q 42.046875 3.421875 37.71875 1 
Q 33.40625 -1.421875 27.6875 -1.421875 
Q 18.265625 -1.421875 13.375 4.4375 
Q 8.5 10.296875 8.5 21.578125 
z
M 31.109375 56 
z
" id="DejaVuSans-75"/>
      <path d="M 18.3125 70.21875 
L 18.3125 54.6875 
L 36.8125 54.6875 
L 36.8125 47.703125 
L 18.3125 47.703125 
L 18.3125 18.015625 
Q 18.3125 11.328125 20.140625 9.421875 
Q 21.96875 7.515625 27.59375 7.515625 
L 36.8125 7.515625 
L 36.8125 0 
L 27.59375 0 
Q 17.1875 0 13.234375 3.875 
Q 9.28125 7.765625 9.28125 18.015625 
L 9.28125 47.703125 
L 2.6875 47.703125 
L 2.6875 54.6875 
L 9.28125 54.6875 
L 9.28125 70.21875 
z
" id="DejaVuSans-74"/>
      <path d="M 56.203125 29.59375 
L 56.203125 25.203125 
L 14.890625 25.203125 
Q 15.484375 15.921875 20.484375 11.0625 
Q 25.484375 6.203125 34.421875 6.203125 
Q 39.59375 6.203125 44.453125 7.46875 
Q 49.3125 8.734375 54.109375 11.28125 
L 54.109375 2.78125 
Q 49.265625 0.734375 44.1875 -0.34375 
Q 39.109375 -1.421875 33.890625 -1.421875 
Q 20.796875 -1.421875 13.15625 6.1875 
Q 5.515625 13.8125 5.515625 26.8125 
Q 5.515625 40.234375 12.765625 48.109375 
Q 20.015625 56 32.328125 56 
Q 43.359375 56 49.78125 48.890625 
Q 56.203125 41.796875 56.203125 29.59375 
z
M 47.21875 32.234375 
Q 47.125 39.59375 43.09375 43.984375 
Q 39.0625 48.390625 32.421875 48.390625 
Q 24.90625 48.390625 20.390625 44.140625 
Q 15.875 39.890625 15.1875 32.171875 
z
" id="DejaVuSans-65"/>
      <path id="DejaVuSans-20"/>
      <path d="M 53.515625 70.515625 
L 53.515625 60.890625 
Q 47.90625 63.578125 42.921875 64.890625 
Q 37.9375 66.21875 33.296875 66.21875 
Q 25.25 66.21875 20.875 63.09375 
Q 16.5 59.96875 16.5 54.203125 
Q 16.5 49.359375 19.40625 46.890625 
Q 22.3125 44.4375 30.421875 42.921875 
L 36.375 41.703125 
Q 47.40625 39.59375 52.65625 34.296875 
Q 57.90625 29 57.90625 20.125 
Q 57.90625 9.515625 50.796875 4.046875 
Q 43.703125 -1.421875 29.984375 -1.421875 
Q 24.8125 -1.421875 18.96875 -0.25 
Q 13.140625 0.921875 6.890625 3.21875 
L 6.890625 13.375 
Q 12.890625 10.015625 18.65625 8.296875 
Q 24.421875 6.59375 29.984375 6.59375 
Q 38.421875 6.59375 43.015625 9.90625 
Q 47.609375 13.234375 47.609375 19.390625 
Q 47.609375 24.75 44.3125 27.78125 
Q 41.015625 30.8125 33.5 32.328125 
L 27.484375 33.5 
Q 16.453125 35.6875 11.515625 40.375 
Q 6.59375 45.0625 6.59375 53.421875 
Q 6.59375 63.09375 13.40625 68.65625 
Q 20.21875 74.21875 32.171875 74.21875 
Q 37.3125 74.21875 42.625 73.28125 
Q 47.953125 72.359375 53.515625 70.515625 
z
" id="DejaVuSans-53"/>
      <path d="M 18.109375 8.203125 
L 18.109375 -20.796875 
L 9.078125 -20.796875 
L 9.078125 54.6875 
L 18.109375 54.6875 
L 18.109375 46.390625 
Q 20.953125 51.265625 25.265625 53.625 
Q 29.59375 56 35.59375 56 
Q 45.5625 56 51.78125 48.09375 
Q 58.015625 40.1875 58.015625 27.296875 
Q 58.015625 14.40625 51.78125 6.484375 
Q 45.5625 -1.421875 35.59375 -1.421875 
Q 29.59375 -1.421875 25.265625 0.953125 
Q 20.953125 3.328125 18.109375 8.203125 
z
M 48.6875 27.296875 
Q 48.6875 37.203125 44.609375 42.84375 
Q 40.53125 48.484375 33.40625 48.484375 
Q 26.265625 48.484375 22.1875 42.84375 
Q 18.109375 37.203125 18.109375 27.296875 
Q 18.109375 17.390625 22.1875 11.75 
Q 26.265625 6.109375 33.40625 6.109375 
Q 40.53125 6.109375 44.609375 11.75 
Q 48.6875 17.390625 48.6875 27.296875 
z
" id="DejaVuSans-70"/>
      <path d="M 44.28125 53.078125 
L 44.28125 44.578125 
Q 40.484375 46.53125 36.375 47.5 
Q 32.28125 48.484375 27.875 48.484375 
Q 21.1875 48.484375 17.84375 46.4375 
Q 14.5 44.390625 14.5 40.28125 
Q 14.5 37.15625 16.890625 35.375 
Q 19.28125 33.59375 26.515625 31.984375 
L 29.59375 31.296875 
Q 39.15625 29.25 43.1875 25.515625 
Q 47.21875 21.78125 47.21875 15.09375 
Q 47.21875 7.46875 41.1875 3.015625 
Q 35.15625 -1.421875 24.609375 -1.421875 
Q 20.21875 -1.421875 15.453125 -0.5625 
Q 10.6875 0.296875 5.421875 2 
L 5.421875 11.28125 
Q 10.40625 8.6875 15.234375 7.390625 
Q 20.0625 6.109375 24.8125 6.109375 
Q 31.15625 6.109375 34.5625 8.28125 
Q 37.984375 10.453125 37.984375 14.40625 
Q 37.984375 18.0625 35.515625 20.015625 
Q 33.0625 21.96875 24.703125 23.78125 
L 21.578125 24.515625 
Q 13.234375 26.265625 9.515625 29.90625 
Q 5.8125 33.546875 5.8125 39.890625 
Q 5.8125 47.609375 11.28125 51.796875 
Q 16.75 56 26.8125 56 
Q 31.78125 56 36.171875 55.265625 
Q 40.578125 54.546875 44.28125 53.078125 
z
" id="DejaVuSans-73"/>
     </defs>
     <g transform="translate(650.677344 756.315625)scale(0.1 -0.1)">
      <use xlink:href="#DejaVuSans-31"/>
      <use x="63.623047" xlink:href="#DejaVuSans-35"/>
      <use x="127.246094" xlink:href="#DejaVuSans-2d"/>
      <use x="163.330078" xlink:href="#DejaVuSans-4d"/>
      <use x="249.609375" xlink:href="#DejaVuSans-69"/>
      <use x="277.392578" xlink:href="#DejaVuSans-6e"/>
      <use x="340.771484" xlink:href="#DejaVuSans-75"/>
      <use x="404.150391" xlink:href="#DejaVuSans-74"/>
      <use x="443.359375" xlink:href="#DejaVuSans-65"/>
      <use x="504.882812" xlink:href="#DejaVuSans-20"/>
      <use x="536.669922" xlink:href="#DejaVuSans-53"/>
      <use x="600.146484" xlink:href="#DejaVuSans-74"/>
      <use x="639.355469" xlink:href="#DejaVuSans-65"/>
      <use x="700.878906" xlink:href="#DejaVuSans-70"/>
      <use x="764.355469" xlink:href="#DejaVuSans-73"/>
     </g>
    </g>
   </g>
   <g id="matplotlib.axis_2">
    <g id="ytick_1">
     <g id="line2d_8">
      <defs>
       <path d="M 0 0 
L -3.5 0 
" id="m3bc5968f9f" style="stroke:#000000;stroke-width:0.8;"/>
      </defs>
      <g>
       <use style="stroke:#000000;stroke-width:0.8;" x="65.3" xlink:href="#m3bc5968f9f" y="699.386073"/>
      </g>
     </g>
     <g id="text_9">
      <!-- 0 -->
      <g transform="translate(48.75625 705.084901)scale(0.15 -0.15)">
       <use xlink:href="#DejaVuSans-30"/>
      </g>
     </g>
    </g>
    <g id="ytick_2">
     <g id="line2d_9">
      <g>
       <use style="stroke:#000000;stroke-width:0.8;" x="65.3" xlink:href="#m3bc5968f9f" y="570.592359"/>
      </g>
     </g>
     <g id="text_10">
      <!-- 2000 -->
      <g transform="translate(20.125 576.291187)scale(0.15 -0.15)">
       <use xlink:href="#DejaVuSans-32"/>
       <use x="63.623047" xlink:href="#DejaVuSans-30"/>
       <use x="127.246094" xlink:href="#DejaVuSans-30"/>
       <use x="190.869141" xlink:href="#DejaVuSans-30"/>
      </g>
     </g>
    </g>
    <g id="ytick_3">
     <g id="line2d_10">
      <g>
       <use style="stroke:#000000;stroke-width:0.8;" x="65.3" xlink:href="#m3bc5968f9f" y="441.798645"/>
      </g>
     </g>
     <g id="text_11">
      <!-- 4000 -->
      <g transform="translate(20.125 447.497473)scale(0.15 -0.15)">
       <use xlink:href="#DejaVuSans-34"/>
       <use x="63.623047" xlink:href="#DejaVuSans-30"/>
       <use x="127.246094" xlink:href="#DejaVuSans-30"/>
       <use x="190.869141" xlink:href="#DejaVuSans-30"/>
      </g>
     </g>
    </g>
    <g id="ytick_4">
     <g id="line2d_11">
      <g>
       <use style="stroke:#000000;stroke-width:0.8;" x="65.3" xlink:href="#m3bc5968f9f" y="313.004932"/>
      </g>
     </g>
     <g id="text_12">
      <!-- 6000 -->
      <g transform="translate(20.125 318.70376)scale(0.15 -0.15)">
       <use xlink:href="#DejaVuSans-36"/>
       <use x="63.623047" xlink:href="#DejaVuSans-30"/>
       <use x="127.246094" xlink:href="#DejaVuSans-30"/>
       <use x="190.869141" xlink:href="#DejaVuSans-30"/>
      </g>
     </g>
    </g>
    <g id="ytick_5">
     <g id="line2d_12">
      <g>
       <use style="stroke:#000000;stroke-width:0.8;" x="65.3" xlink:href="#m3bc5968f9f" y="184.211218"/>
      </g>
     </g>
     <g id="text_13">
      <!-- 8000 -->
      <g transform="translate(20.125 189.910046)scale(0.15 -0.15)">
       <use xlink:href="#DejaVuSans-38"/>
       <use x="63.623047" xlink:href="#DejaVuSans-30"/>
       <use x="127.246094" xlink:href="#DejaVuSans-30"/>
       <use x="190.869141" xlink:href="#DejaVuSans-30"/>
      </g>
     </g>
    </g>
    <g id="ytick_6">
     <g id="line2d_13">
      <g>
       <use style="stroke:#000000;stroke-width:0.8;" x="65.3" xlink:href="#m3bc5968f9f" y="55.417504"/>
      </g>
     </g>
     <g id="text_14">
      <!-- 10000 -->
      <g transform="translate(10.58125 61.116333)scale(0.15 -0.15)">
       <use xlink:href="#DejaVuSans-31"/>
       <use x="63.623047" xlink:href="#DejaVuSans-30"/>
       <use x="127.246094" xlink:href="#DejaVuSans-30"/>
       <use x="190.869141" xlink:href="#DejaVuSans-30"/>
       <use x="254.492188" xlink:href="#DejaVuSans-30"/>
      </g>
     </g>
    </g>
    <g id="text_15">
     <!-- Bandwidth (kbps) -->
     <defs>
      <path d="M 19.671875 34.8125 
L 19.671875 8.109375 
L 35.5 8.109375 
Q 43.453125 8.109375 47.28125 11.40625 
Q 51.125 14.703125 51.125 21.484375 
Q 51.125 28.328125 47.28125 31.5625 
Q 43.453125 34.8125 35.5 34.8125 
z
M 19.671875 64.796875 
L 19.671875 42.828125 
L 34.28125 42.828125 
Q 41.5 42.828125 45.03125 45.53125 
Q 48.578125 48.25 48.578125 53.8125 
Q 48.578125 59.328125 45.03125 62.0625 
Q 41.5 64.796875 34.28125 64.796875 
z
M 9.8125 72.90625 
L 35.015625 72.90625 
Q 46.296875 72.90625 52.390625 68.21875 
Q 58.5 63.53125 58.5 54.890625 
Q 58.5 48.1875 55.375 44.234375 
Q 52.25 40.28125 46.1875 39.3125 
Q 53.46875 37.75 57.5 32.78125 
Q 61.53125 27.828125 61.53125 20.40625 
Q 61.53125 10.640625 54.890625 5.3125 
Q 48.25 0 35.984375 0 
L 9.8125 0 
z
" id="DejaVuSans-42"/>
      <path d="M 34.28125 27.484375 
Q 23.390625 27.484375 19.1875 25 
Q 14.984375 22.515625 14.984375 16.5 
Q 14.984375 11.71875 18.140625 8.90625 
Q 21.296875 6.109375 26.703125 6.109375 
Q 34.1875 6.109375 38.703125 11.40625 
Q 43.21875 16.703125 43.21875 25.484375 
L 43.21875 27.484375 
z
M 52.203125 31.203125 
L 52.203125 0 
L 43.21875 0 
L 43.21875 8.296875 
Q 40.140625 3.328125 35.546875 0.953125 
Q 30.953125 -1.421875 24.3125 -1.421875 
Q 15.921875 -1.421875 10.953125 3.296875 
Q 6 8.015625 6 15.921875 
Q 6 25.140625 12.171875 29.828125 
Q 18.359375 34.515625 30.609375 34.515625 
L 43.21875 34.515625 
L 43.21875 35.40625 
Q 43.21875 41.609375 39.140625 45 
Q 35.0625 48.390625 27.6875 48.390625 
Q 23 48.390625 18.546875 47.265625 
Q 14.109375 46.140625 10.015625 43.890625 
L 10.015625 52.203125 
Q 14.9375 54.109375 19.578125 55.046875 
Q 24.21875 56 28.609375 56 
Q 40.484375 56 46.34375 49.84375 
Q 52.203125 43.703125 52.203125 31.203125 
z
" id="DejaVuSans-61"/>
      <path d="M 45.40625 46.390625 
L 45.40625 75.984375 
L 54.390625 75.984375 
L 54.390625 0 
L 45.40625 0 
L 45.40625 8.203125 
Q 42.578125 3.328125 38.25 0.953125 
Q 33.9375 -1.421875 27.875 -1.421875 
Q 17.96875 -1.421875 11.734375 6.484375 
Q 5.515625 14.40625 5.515625 27.296875 
Q 5.515625 40.1875 11.734375 48.09375 
Q 17.96875 56 27.875 56 
Q 33.9375 56 38.25 53.625 
Q 42.578125 51.265625 45.40625 46.390625 
z
M 14.796875 27.296875 
Q 14.796875 17.390625 18.875 11.75 
Q 22.953125 6.109375 30.078125 6.109375 
Q 37.203125 6.109375 41.296875 11.75 
Q 45.40625 17.390625 45.40625 27.296875 
Q 45.40625 37.203125 41.296875 42.84375 
Q 37.203125 48.484375 30.078125 48.484375 
Q 22.953125 48.484375 18.875 42.84375 
Q 14.796875 37.203125 14.796875 27.296875 
z
" id="DejaVuSans-64"/>
      <path d="M 4.203125 54.6875 
L 13.1875 54.6875 
L 24.421875 12.015625 
L 35.59375 54.6875 
L 46.1875 54.6875 
L 57.421875 12.015625 
L 68.609375 54.6875 
L 77.59375 54.6875 
L 63.28125 0 
L 52.6875 0 
L 40.921875 44.828125 
L 29.109375 0 
L 18.5 0 
z
" id="DejaVuSans-77"/>
      <path d="M 54.890625 33.015625 
L 54.890625 0 
L 45.90625 0 
L 45.90625 32.71875 
Q 45.90625 40.484375 42.875 44.328125 
Q 39.84375 48.1875 33.796875 48.1875 
Q 26.515625 48.1875 22.3125 43.546875 
Q 18.109375 38.921875 18.109375 30.90625 
L 18.109375 0 
L 9.078125 0 
L 9.078125 75.984375 
L 18.109375 75.984375 
L 18.109375 46.1875 
Q 21.34375 51.125 25.703125 53.5625 
Q 30.078125 56 35.796875 56 
Q 45.21875 56 50.046875 50.171875 
Q 54.890625 44.34375 54.890625 33.015625 
z
" id="DejaVuSans-68"/>
      <path d="M 31 75.875 
Q 24.46875 64.65625 21.28125 53.65625 
Q 18.109375 42.671875 18.109375 31.390625 
Q 18.109375 20.125 21.3125 9.0625 
Q 24.515625 -2 31 -13.1875 
L 23.1875 -13.1875 
Q 15.875 -1.703125 12.234375 9.375 
Q 8.59375 20.453125 8.59375 31.390625 
Q 8.59375 42.28125 12.203125 53.3125 
Q 15.828125 64.359375 23.1875 75.875 
z
" id="DejaVuSans-28"/>
      <path d="M 9.078125 75.984375 
L 18.109375 75.984375 
L 18.109375 31.109375 
L 44.921875 54.6875 
L 56.390625 54.6875 
L 27.390625 29.109375 
L 57.625 0 
L 45.90625 0 
L 18.109375 26.703125 
L 18.109375 0 
L 9.078125 0 
z
" id="DejaVuSans-6b"/>
      <path d="M 48.6875 27.296875 
Q 48.6875 37.203125 44.609375 42.84375 
Q 40.53125 48.484375 33.40625 48.484375 
Q 26.265625 48.484375 22.1875 42.84375 
Q 18.109375 37.203125 18.109375 27.296875 
Q 18.109375 17.390625 22.1875 11.75 
Q 26.265625 6.109375 33.40625 6.109375 
Q 40.53125 6.109375 44.609375 11.75 
Q 48.6875 17.390625 48.6875 27.296875 
z
M 18.109375 46.390625 
Q 20.953125 51.265625 25.265625 53.625 
Q 29.59375 56 35.59375 56 
Q 45.5625 56 51.78125 48.09375 
Q 58.015625 40.1875 58.015625 27.296875 
Q 58.015625 14.40625 51.78125 6.484375 
Q 45.5625 -1.421875 35.59375 -1.421875 
Q 29.59375 -1.421875 25.265625 0.953125 
Q 20.953125 3.328125 18.109375 8.203125 
L 18.109375 0 
L 9.078125 0 
L 9.078125 75.984375 
L 18.109375 75.984375 
z
" id="DejaVuSans-62"/>
      <path d="M 8.015625 75.875 
L 15.828125 75.875 
Q 23.140625 64.359375 26.78125 53.3125 
Q 30.421875 42.28125 30.421875 31.390625 
Q 30.421875 20.453125 26.78125 9.375 
Q 23.140625 -1.703125 15.828125 -13.1875 
L 8.015625 -13.1875 
Q 14.5 -2 17.703125 9.0625 
Q 20.90625 20.125 20.90625 31.390625 
Q 20.90625 42.671875 17.703125 53.65625 
Q 14.5 64.65625 8.015625 75.875 
z
" id="DejaVuSans-29"/>
     </defs>
     <g transform="translate(4.501563 412.707812)rotate(-90)scale(0.1 -0.1)">
      <use xlink:href="#DejaVuSans-42"/>
      <use x="68.603516" xlink:href="#DejaVuSans-61"/>
      <use x="129.882812" xlink:href="#DejaVuSans-6e"/>
      <use x="193.261719" xlink:href="#DejaVuSans-64"/>
      <use x="256.738281" xlink:href="#DejaVuSans-77"/>
      <use x="338.525391" xlink:href="#DejaVuSans-69"/>
      <use x="366.308594" xlink:href="#DejaVuSans-64"/>
      <use x="429.785156" xlink:href="#DejaVuSans-74"/>
      <use x="468.994141" xlink:href="#DejaVuSans-68"/>
      <use x="532.373047" xlink:href="#DejaVuSans-20"/>
      <use x="564.160156" xlink:href="#DejaVuSans-28"/>
      <use x="603.173828" xlink:href="#DejaVuSans-6b"/>
      <use x="661.083984" xlink:href="#DejaVuSans-62"/>
      <use x="724.560547" xlink:href="#DejaVuSans-70"/>
      <use x="788.037109" xlink:href="#DejaVuSans-73"/>
      <use x="840.136719" xlink:href="#DejaVuSans-29"/>
     </g>
    </g>
   </g>
   <g id="line2d_14">
    <path clip-path="url(#p6360f1818a)" d="M 122.227273 620.647321 
L 123.176852 645.814186 
L 124.126431 621.413785 
L 125.07601 612.750264 
L 126.02559 640.809545 
L 126.975169 663.73368 
L 127.924748 655.512063 
L 128.874327 643.37283 
L 129.823906 609.943707 
L 130.773485 599.762132 
L 131.723065 622.946147 
L 132.672644 560.69585 
L 133.622223 604.790239 
L 134.571802 656.122261 
L 135.521381 660.56994 
L 136.470961 672.033147 
L 137.42054 652.267607 
L 138.370119 660.116013 
L 139.319698 673.855726 
L 140.269277 640.237701 
L 141.218857 638.767167 
L 142.168436 652.289361 
L 143.118015 680.373828 
L 144.067594 681.819183 
L 145.017173 681.768812 
L 145.966753 668.849366 
L 146.916332 675.228951 
L 148.81549 634.109986 
L 149.765069 664.819559 
L 150.714649 665.377088 
L 151.664228 654.27393 
L 152.613807 665.259744 
L 153.563386 665.536792 
L 154.512965 676.593018 
L 155.462545 670.023398 
L 156.412124 666.488153 
L 157.361703 674.775597 
L 158.311282 637.017285 
L 159.260861 658.052448 
L 160.210441 616.456657 
L 161.16002 665.474404 
L 162.109599 663.171 
L 163.059178 675.199759 
L 164.008757 654.573305 
L 164.958336 623.288449 
L 165.907916 558.054149 
L 166.857495 670.172226 
L 167.807074 647.058616 
L 168.756653 608.04729 
L 169.706232 600.26929 
L 170.655812 604.855492 
L 171.605391 635.708168 
L 172.55497 637.842138 
L 173.504549 574.246095 
L 174.454128 577.598737 
L 175.403708 537.598842 
L 177.302866 675.626781 
L 178.252445 637.660114 
L 179.202024 654.217834 
L 180.151604 630.416756 
L 181.101183 582.212984 
L 183.000341 649.182856 
L 183.94992 645.77755 
L 184.8995 644.318459 
L 185.849079 651.34831 
L 186.798658 603.21609 
L 187.748237 640.66415 
L 188.697816 647.865728 
L 189.647396 631.565022 
L 191.546554 680.109376 
L 192.496133 648.43528 
L 193.445712 657.148033 
L 194.395292 644.696829 
L 195.344871 584.65434 
L 196.29445 656.118256 
L 197.244029 627.369207 
L 198.193608 636.823238 
L 199.143188 638.863904 
L 200.092767 568.840764 
L 201.042346 687.117467 
L 201.991925 668.528818 
L 202.941504 671.323352 
L 203.891083 634.047592 
L 204.840663 638.901112 
L 205.790242 668.729736 
L 206.739821 635.411086 
L 207.6894 658.564763 
L 208.638979 649.38606 
L 209.588559 646.501654 
L 210.538138 623.321078 
L 211.487717 670.258659 
L 212.437296 646.841097 
L 213.386875 672.075507 
L 214.336455 660.367875 
L 216.235613 653.837744 
L 217.185192 673.570661 
L 218.134771 650.137649 
L 219.084351 648.833684 
L 220.03393 658.087937 
L 220.983509 671.59067 
L 221.933088 667.315292 
L 222.882667 661.717634 
L 223.832247 679.033807 
L 224.781826 682.160918 
L 225.731405 638.00986 
L 226.680984 685.131184 
L 227.630563 673.880339 
L 228.580143 658.853834 
L 229.529722 652.828575 
L 230.479301 688.665284 
L 231.42888 677.089878 
L 232.378459 677.601621 
L 233.328039 690.977273 
L 234.277618 665.162434 
L 235.227197 678.331449 
L 236.176776 657.538992 
L 237.126355 651.99743 
L 238.075934 653.513757 
L 239.025514 686.319519 
L 240.924672 658.991785 
L 241.874251 653.305974 
L 243.77341 683.386461 
L 244.722989 682.917079 
L 245.672568 658.044437 
L 246.622147 674.339991 
L 247.571726 672.019984 
L 248.521306 655.251043 
L 249.470885 660.529866 
L 250.420464 679.893576 
L 251.370043 669.620416 
L 252.319622 639.178161 
L 253.269202 643.392291 
L 254.218781 630.248461 
L 255.16836 672.56607 
L 256.117939 659.593967 
L 257.067518 682.796296 
L 258.017098 648.051191 
L 258.966677 646.565195 
L 259.916256 684.015547 
L 260.865835 676.593591 
L 261.815414 649.645367 
L 262.764994 672.650217 
L 263.714573 652.508593 
L 264.664152 622.316488 
L 265.613731 687.33384 
L 266.56331 686.250833 
L 267.51289 676.429308 
L 268.462469 638.567389 
L 269.412048 661.82582 
L 270.361627 638.482101 
L 271.311206 688.606895 
L 272.260786 661.984378 
L 273.210365 668.954694 
L 274.159944 647.922397 
L 275.109523 648.829105 
L 276.059102 681.108242 
L 277.008681 646.17996 
L 277.958261 668.116105 
L 278.90784 682.614272 
L 279.857419 662.315809 
L 280.806998 671.836241 
L 281.756577 668.038256 
L 282.706157 657.661488 
L 283.655736 665.870516 
L 284.605315 668.228297 
L 285.554894 651.153683 
L 286.504473 648.656232 
L 287.454053 676.960511 
L 288.403632 663.468082 
L 289.353211 622.048023 
L 290.30279 670.533988 
L 291.252369 679.763636 
L 292.201949 680.753918 
L 293.151528 639.669296 
L 294.101107 682.268532 
L 295.050686 658.417076 
L 296.000265 648.290457 
L 296.949845 658.518398 
L 297.899424 643.428926 
L 298.849003 656.402742 
L 299.798582 648.959612 
L 300.748161 662.038755 
L 301.697741 667.00504 
L 302.64732 642.663602 
L 303.596899 621.800166 
L 304.546478 668.538549 
L 305.496057 638.139793 
L 306.445637 682.758521 
L 307.395216 684.695578 
L 308.344795 687.049927 
L 309.294374 675.709209 
L 310.243953 655.459405 
L 311.193532 652.650556 
L 312.143112 684.704736 
L 313.092691 650.551502 
L 314.04227 660.268846 
L 314.991849 682.680671 
L 315.941428 671.547743 
L 316.891008 625.108735 
L 317.840587 688.522754 
L 318.790166 675.190602 
L 319.739745 683.577076 
L 320.689324 676.552377 
L 321.638904 663.244264 
L 322.588483 673.868889 
L 323.538062 658.522403 
L 324.487641 632.214143 
L 325.43722 575.977656 
L 326.3868 638.578838 
L 327.336379 588.081972 
L 328.285958 642.024212 
L 329.235537 622.516833 
L 330.185116 645.636161 
L 331.134696 640.384816 
L 332.084275 665.810408 
L 333.033854 685.152938 
L 333.983433 615.309536 
L 334.933012 670.859122 
L 335.882592 641.631539 
L 336.832171 605.577883 
L 337.78175 613.146948 
L 338.731329 650.273307 
L 339.680908 638.099726 
L 340.630488 645.305876 
L 341.580067 659.554472 
L 342.529646 659.956882 
L 343.479225 635.172959 
L 344.428804 652.184606 
L 345.378384 644.795853 
L 346.327963 676.250143 
L 347.277542 665.118361 
L 348.227121 666.818438 
L 349.1767 678.282791 
L 350.126279 582.248473 
L 351.075859 641.750602 
L 352.025438 640.685903 
L 352.975017 686.906245 
L 353.924596 621.429241 
L 354.874175 623.758404 
L 355.823755 660.627176 
L 356.773334 654.366088 
L 357.722913 673.623324 
L 358.672492 585.728769 
L 360.571651 683.253089 
L 361.52123 685.051616 
L 363.420388 624.532886 
L 364.369967 682.931388 
L 365.319547 644.519377 
L 366.269126 680.880419 
L 367.218705 641.652719 
L 368.168284 678.356635 
L 369.117863 651.323691 
L 370.067443 670.042859 
L 371.017022 668.937519 
L 371.966601 639.538783 
L 372.91618 644.702554 
L 373.865759 672.139048 
L 374.815339 684.330371 
L 375.764918 676.461365 
L 376.714497 665.501876 
L 377.664076 686.827256 
L 378.613655 682.104249 
L 379.563235 672.593548 
L 380.512814 657.911064 
L 381.462393 682.249638 
L 382.411972 686.667552 
L 383.361551 648.246957 
L 384.31113 678.729853 
L 385.26071 622.103546 
L 386.210289 666.761195 
L 387.159868 685.415104 
L 388.109447 668.201392 
L 389.059026 673.488806 
L 390.008606 674.989684 
L 390.958185 684.910232 
L 391.907764 653.711816 
L 392.857343 677.293655 
L 393.806922 685.361867 
L 394.756502 688.257149 
L 395.706081 683.810044 
L 396.65566 680.353221 
L 397.605239 666.292386 
L 398.554818 670.007943 
L 399.504398 639.819837 
L 400.453977 624.267281 
L 401.403556 682.842089 
L 402.353135 655.261919 
L 403.302714 579.595323 
L 404.252294 468.397123 
L 405.201873 680.193517 
L 406.151452 667.302129 
L 407.101031 676.100169 
L 408.05061 689.831872 
L 409.00019 683.372719 
L 409.949769 665.058253 
L 410.899348 680.649736 
L 412.798506 682.068187 
L 413.748086 667.8734 
L 414.697665 656.07189 
L 415.647244 658.951718 
L 416.596823 662.298062 
L 417.546402 683.796882 
L 418.495981 660.694722 
L 419.445561 684.17983 
L 420.39514 670.206569 
L 421.344719 664.319267 
L 422.294298 677.753307 
L 423.243877 652.906424 
L 424.193457 684.451154 
L 425.143036 679.370383 
L 426.092615 673.477929 
L 427.042194 656.885867 
L 427.991773 679.933643 
L 428.941353 686.161534 
L 429.890932 680.975443 
L 430.840511 670.22603 
L 431.79009 682.58794 
L 432.739669 641.25031 
L 433.689249 681.97087 
L 434.638828 654.534377 
L 435.588407 683.291437 
L 436.537986 657.646606 
L 437.487565 676.703497 
L 438.437145 670.44183 
L 440.336303 684.826085 
L 441.285882 678.18892 
L 442.235461 673.806495 
L 443.185041 674.821389 
L 444.13462 679.718416 
L 445.084199 660.599131 
L 446.033778 661.128042 
L 446.983357 679.294826 
L 447.932937 678.80713 
L 448.882516 663.200764 
L 449.832095 679.111083 
L 450.781674 682.677806 
L 451.731253 656.17206 
L 452.680833 652.658567 
L 453.630412 663.644387 
L 454.579991 683.399624 
L 455.52957 662.728522 
L 456.479149 676.314823 
L 457.428728 665.990146 
L 459.327887 680.240456 
L 460.277466 643.938376 
L 461.227045 636.018419 
L 462.176624 645.976176 
L 463.126204 674.88321 
L 464.075783 668.410328 
L 465.025362 663.810956 
L 465.974941 668.908328 
L 466.92452 675.562095 
L 467.8741 673.935862 
L 468.823679 653.202366 
L 469.773258 661.656959 
L 470.722837 677.851191 
L 471.672416 680.651456 
L 472.621996 670.838515 
L 473.571575 683.159211 
L 474.521154 669.283833 
L 475.470733 674.80708 
L 476.420312 675.041202 
L 477.369892 676.895258 
L 478.319471 658.670084 
L 479.26905 666.425185 
L 480.218629 685.357288 
L 481.168208 690.241146 
L 482.117788 680.451104 
L 483.067367 680.083044 
L 484.016946 671.637036 
L 484.966525 677.475113 
L 485.916104 655.188076 
L 486.865684 645.563463 
L 487.815263 671.873443 
L 488.764842 674.337698 
L 489.714421 672.895782 
L 490.664 676.229536 
L 491.613579 681.446538 
L 492.563159 675.012577 
L 493.512738 681.030393 
L 494.462317 676.394965 
L 495.411896 684.075649 
L 496.361475 680.789407 
L 497.311055 683.34696 
L 498.260634 687.990405 
L 499.210213 678.025777 
L 500.159792 685.905666 
L 501.109371 686.779171 
L 502.058951 674.29763 
L 503.00853 679.935363 
L 503.958109 681.530685 
L 504.907688 669.69254 
L 505.857267 684.008103 
L 506.806847 686.972078 
L 507.756426 668.997627 
L 508.706005 688.168424 
L 509.655584 686.580545 
L 510.605163 674.09328 
L 511.554743 683.112845 
L 512.504322 674.096712 
L 513.453901 687.535332 
L 514.40348 684.909659 
L 515.353059 678.882113 
L 516.302639 690.127234 
L 517.252218 684.654931 
L 518.201797 676.309098 
L 519.151376 685.18728 
L 520.100955 682.970309 
L 521.050535 682.867274 
L 522.000114 673.452744 
L 522.949693 677.508316 
L 523.899272 665.084585 
L 524.848851 684.35327 
L 525.798431 684.404215 
L 526.74801 681.978314 
L 528.647168 672.589536 
L 529.596747 673.861451 
L 530.546326 675.709209 
L 531.495906 659.766834 
L 532.445485 683.890186 
L 533.395064 684.198145 
L 534.344643 666.602064 
L 535.294222 660.069647 
L 536.243802 667.240881 
L 537.193381 667.536244 
L 538.14296 655.829758 
L 539.092539 667.923198 
L 540.042118 665.393689 
L 540.991698 659.743368 
L 541.941277 675.641664 
L 542.890856 658.551021 
L 543.840435 663.837861 
L 544.790014 647.772996 
L 545.739594 634.469462 
L 546.689173 656.883574 
L 547.638752 629.730427 
L 548.588331 652.844603 
L 549.53791 646.175381 
L 550.48749 660.25511 
L 551.437069 641.831884 
L 552.386648 553.545223 
L 553.336227 653.903004 
L 554.285806 678.919322 
L 555.235386 683.523839 
L 556.184965 654.94709 
L 557.134544 677.603334 
L 558.084123 665.916882 
L 559.033702 684.072783 
L 559.983282 678.162015 
L 560.932861 685.075088 
L 561.88244 678.053255 
L 562.832019 684.111711 
L 563.781598 662.394226 
L 564.731177 683.804326 
L 565.680757 678.740157 
L 566.630336 680.38757 
L 567.579915 677.219245 
L 568.529494 662.790343 
L 569.479073 690.219393 
L 570.428653 677.522625 
L 571.378232 681.842076 
L 572.327811 685.421402 
L 573.27739 685.511268 
L 574.226969 683.668661 
L 575.176549 682.356684 
L 576.126128 682.986338 
L 577.075707 681.994916 
L 578.025286 684.278853 
L 578.974865 678.184335 
L 579.924445 684.968048 
L 580.874024 685.298333 
L 581.823603 687.998416 
L 582.773182 667.66733 
L 583.722761 669.259793 
L 584.672341 682.021821 
L 585.62192 685.724782 
L 586.571499 686.345278 
L 587.521078 686.543337 
L 588.470657 685.727641 
L 589.420237 685.93543 
L 590.369816 682.666929 
L 591.319395 665.161861 
L 592.268974 681.561023 
L 593.218553 684.059621 
L 594.168133 687.925725 
L 595.117712 685.527296 
L 596.067291 684.492941 
L 597.01687 687.138074 
L 597.966449 686.329249 
L 598.916029 682.552451 
L 599.865608 684.524424 
L 600.815187 683.515828 
L 601.764766 681.415054 
L 602.714345 687.277171 
L 603.663924 681.293705 
L 604.613504 684.293742 
L 605.563083 684.909659 
L 606.512662 682.61026 
L 607.462241 681.206125 
L 608.41182 684.23478 
L 609.3614 686.734524 
L 610.310979 682.930241 
L 611.260558 686.454611 
L 612.210137 687.911982 
L 613.159716 679.269641 
L 614.109296 688.705925 
L 615.058875 685.051049 
L 616.008454 682.581069 
L 616.958033 685.377895 
L 617.907612 680.196956 
L 618.857192 639.027614 
L 619.806771 537.100269 
L 620.75635 528.634799 
L 621.705929 490.943467 
L 622.655508 466.745704 
L 623.605088 578.700638 
L 624.554667 667.889428 
L 625.504246 673.894648 
L 626.453825 657.438817 
L 627.403404 659.705586 
L 628.352984 660.698734 
L 629.302563 652.967099 
L 630.252142 652.095314 
L 631.201721 622.18884 
L 632.1513 644.703121 
L 633.10088 657.547003 
L 634.050459 634.581081 
L 635.000038 646.846822 
L 635.949617 654.247025 
L 636.899196 664.515606 
L 637.848775 648.603568 
L 638.798355 668.02452 
L 639.747934 638.69275 
L 640.697513 643.402021 
L 641.647092 636.577101 
L 642.596671 649.794195 
L 643.546251 670.178518 
L 644.49583 657.974025 
L 645.445409 674.975942 
L 646.394988 674.911835 
L 647.344567 673.584397 
L 648.294147 658.157202 
L 649.243726 647.289872 
L 650.193305 673.873468 
L 651.142884 666.045102 
L 652.092463 674.48424 
L 653.042043 646.61328 
L 653.991622 679.135122 
L 654.941201 684.447148 
L 655.89078 646.782141 
L 656.840359 654.788532 
L 657.789939 659.766267 
L 659.689097 682.013803 
L 660.638676 642.406014 
L 661.588255 637.729946 
L 662.537835 676.609619 
L 663.487414 682.297723 
L 664.436993 664.430312 
L 665.386572 664.760024 
L 666.336151 675.288485 
L 667.285731 675.819682 
L 668.23531 675.792784 
L 669.184889 662.564233 
L 670.134468 679.219836 
L 671.084047 668.308433 
L 672.033627 672.701161 
L 672.983206 679.922193 
L 673.932785 678.912451 
L 674.882364 683.135738 
L 675.831943 673.600425 
L 676.781522 680.283962 
L 677.731102 676.903269 
L 678.680681 664.361054 
L 679.63026 680.451104 
L 680.579839 660.670109 
L 681.529418 687.177002 
L 682.478998 680.455116 
L 683.428577 680.654315 
L 684.378156 684.53988 
L 685.327735 682.715014 
L 686.277314 677.653705 
L 687.226894 684.954306 
L 688.176473 672.468186 
L 689.126052 674.233517 
L 690.075631 671.131591 
L 691.02521 682.907922 
L 691.97479 668.223146 
L 692.924369 683.135738 
L 693.873948 680.301137 
L 694.823527 676.340582 
L 695.773106 673.872894 
L 696.722686 684.739078 
L 697.672265 681.791705 
L 698.621844 682.216441 
L 699.571423 684.98293 
L 700.521002 674.209477 
L 701.470582 668.200246 
L 702.420161 675.564387 
L 703.36974 675.29707 
L 704.319319 678.471693 
L 705.268898 684.123734 
L 706.218478 681.166631 
L 707.168057 669.534549 
L 708.117636 673.524295 
L 709.067215 673.820804 
L 710.016794 659.817211 
L 710.966373 673.271859 
L 711.915953 499.691136 
L 712.865532 517.447494 
L 713.815111 674.639932 
L 714.76469 675.916426 
L 715.714269 509.840081 
L 716.663849 676.30452 
L 717.613428 675.560955 
L 718.563007 498.033413 
L 719.512586 664.781205 
L 720.462165 663.110319 
L 721.411745 668.397159 
L 722.361324 346.075725 
L 723.310903 615.083433 
L 724.260482 664.249428 
L 725.210061 671.358268 
L 726.159641 665.931191 
L 727.10922 672.5987 
L 728.058799 666.370236 
L 729.008378 656.695252 
L 729.957957 664.658709 
L 730.907537 648.282446 
L 731.857116 639.537064 
L 732.806695 667.20138 
L 733.756274 638.286908 
L 734.705853 574.129891 
L 735.655433 673.137341 
L 736.605012 676.119057 
L 737.554591 668.733742 
L 738.50417 677.143682 
L 739.453749 676.709795 
L 740.403329 679.988593 
L 741.352908 678.19006 
L 742.302487 675.625635 
L 743.252066 667.555711 
L 744.201645 660.987798 
L 745.151225 662.282606 
L 746.100804 681.217575 
L 747.050383 663.070824 
L 747.999962 677.560407 
L 748.949541 665.157855 
L 749.89912 656.560733 
L 750.8487 682.741919 
L 752.747858 659.232771 
L 753.697437 682.920511 
L 754.647016 682.453995 
L 755.596596 675.701765 
L 756.546175 676.047505 
L 757.495754 677.963383 
L 758.445333 680.881565 
L 759.394912 658.078207 
L 760.344492 680.212984 
L 761.294071 650.561232 
L 762.24365 669.752069 
L 763.193229 668.236882 
L 764.142808 657.183522 
L 765.092388 673.892362 
L 766.991546 660.39592 
L 767.941125 675.434447 
L 768.890704 665.827583 
L 769.840284 670.329065 
L 770.789863 671.483629 
L 771.739442 674.947324 
L 773.6386 667.601503 
L 774.58818 671.150485 
L 775.537759 678.220397 
L 776.487338 656.805725 
L 777.436917 675.606748 
L 778.386496 675.505999 
L 779.336076 684.393911 
L 781.235234 670.142455 
L 782.184813 682.77283 
L 783.134392 685.322945 
L 784.083971 683.336657 
L 785.033551 673.95189 
L 785.98313 662.158964 
L 786.932709 687.091141 
L 787.882288 683.748223 
L 788.831867 681.676081 
L 789.781447 680.590775 
L 791.680605 688.832999 
L 792.630184 685.238798 
L 793.579763 678.324005 
L 794.529343 686.049342 
L 796.428501 679.550121 
L 797.37808 680.890722 
L 798.327659 679.34863 
L 799.277239 680.437368 
L 800.226818 683.498653 
L 801.176397 673.656521 
L 802.125976 672.523136 
L 803.075555 679.195224 
L 804.025135 672.868877 
L 804.974714 673.634774 
L 805.924293 656.04212 
L 806.873872 658.093089 
L 807.823451 657.591656 
L 808.773031 673.658814 
L 809.72261 503.396383 
L 810.672189 659.624304 
L 811.621768 656.971727 
L 812.571347 650.961929 
L 813.520927 656.379849 
L 814.470506 657.33063 
L 815.420085 647.888048 
L 816.369664 664.81784 
L 817.319243 664.378222 
L 818.268823 668.387428 
L 819.218402 675.702911 
L 820.167981 663.076549 
L 821.11756 671.728054 
L 822.067139 663.113757 
L 823.016718 660.562496 
L 823.966298 683.484344 
L 824.915877 673.056632 
L 825.865456 669.176792 
L 826.815035 680.379553 
L 827.764614 666.674189 
L 828.714194 673.169397 
L 829.663773 676.957652 
L 830.613352 674.022868 
L 831.562931 673.830541 
L 832.51251 678.13339 
L 833.46209 671.934697 
L 834.411669 673.805922 
L 835.361248 677.682329 
L 836.310827 662.322101 
L 837.260406 676.722958 
L 838.209986 684.803765 
L 839.159565 642.178764 
L 840.109144 644.699689 
L 841.058723 673.440148 
L 842.008302 674.404671 
L 842.957882 680.328608 
L 843.907461 681.757362 
L 844.85704 674.923278 
L 845.806619 680.467133 
L 846.756198 681.4391 
L 847.705778 677.459658 
L 848.655357 679.453384 
L 849.604936 686.859879 
L 850.554515 684.684702 
L 851.504094 676.525472 
L 852.453674 680.818025 
L 853.403253 682.418505 
L 854.352832 677.92904 
L 855.302411 674.702326 
L 856.25199 682.542147 
L 857.201569 683.246218 
L 858.151149 685.11287 
L 859.100728 682.90277 
L 860.050307 680.392149 
L 860.999886 682.442545 
L 861.949465 46.522727 
L 863.848624 652.983127 
L 864.798203 502.59443 
L 865.747782 678.370371 
L 866.697361 672.396635 
L 867.646941 681.748205 
L 868.59652 341.918837 
L 869.546099 518.169312 
L 870.495678 537.429407 
L 871.445257 670.848245 
L 872.394837 509.96315 
L 873.344416 561.371875 
L 874.293995 459.801714 
L 875.243574 663.952346 
L 876.193153 506.043242 
L 877.142733 675.65426 
L 878.092312 675.899824 
L 879.041891 681.020089 
L 879.99147 680.08533 
L 880.941049 681.16949 
L 880.941049 681.16949 
" style="fill:none;stroke:#000000;stroke-linecap:square;stroke-width:1.5;"/>
   </g>
   <g id="line2d_15">
    <path clip-path="url(#p6360f1818a)" d="M 881.890629 662.029025 
L 882.840208 675.167703 
L 883.789787 678.236425 
L 885.688945 673.578105 
L 886.638525 666.701087 
L 887.588104 647.853132 
L 888.537683 652.508593 
L 889.487262 623.254679 
L 890.436841 623.68342 
L 891.386421 632.776823 
L 892.336 622.204868 
L 893.285579 636.739091 
L 894.235158 640.454075 
L 895.184737 637.940021 
L 896.134316 627.220379 
L 897.083896 629.135683 
L 898.033475 671.160215 
L 898.983054 654.271064 
L 899.932633 677.043512 
L 900.882212 672.691431 
L 901.831792 669.800727 
L 902.781371 674.289046 
L 903.73095 676.168288 
L 904.680529 665.279778 
L 905.630108 663.712506 
L 906.579688 674.951902 
L 907.529267 671.942135 
L 908.478846 667.507053 
L 909.428425 668.030812 
L 910.378004 662.249977 
L 911.327584 665.892836 
L 912.277163 663.818974 
L 913.226742 672.766415 
L 914.176321 667.26778 
L 915.1259 669.321614 
L 916.07548 668.266652 
L 917.025059 668.552858 
L 917.974638 677.731554 
L 918.924217 683.48663 
L 919.873796 677.350325 
L 920.823376 676.947915 
L 921.772955 684.787164 
L 922.722534 679.31772 
L 923.672113 679.41389 
L 924.621692 688.799229 
L 925.571272 683.073344 
L 926.520851 679.069296 
L 927.47043 679.628544 
L 928.420009 670.723463 
L 929.369588 685.961762 
L 930.319167 683.218166 
L 931.268747 682.930241 
L 932.218326 677.969681 
L 933.167905 685.755119 
L 934.117484 679.601066 
L 935.067063 677.998305 
L 936.016643 681.496909 
L 936.966222 678.853495 
L 937.915801 685.077374 
L 938.86538 686.88106 
L 939.814959 683.480332 
L 940.764539 684.525571 
L 941.714118 680.530673 
L 942.663697 685.366445 
L 943.613276 680.141999 
L 944.562855 686.799778 
L 945.512435 682.964591 
L 946.462014 676.675446 
L 947.411593 681.5055 
L 948.361172 680.183213 
L 949.310751 682.387595 
L 950.260331 688.913714 
L 951.20991 681.151175 
L 952.159489 677.124794 
L 953.109068 680.398447 
L 954.058647 685.604572 
L 955.008227 676.124209 
L 955.957806 678.283937 
L 956.907385 686.581118 
L 957.856964 675.874065 
L 958.806543 680.048701 
L 959.756123 682.041855 
L 960.705702 679.597633 
L 961.655281 682.580496 
L 962.60486 678.09275 
L 963.554439 676.386948 
L 965.453598 689.840456 
L 966.403177 685.67555 
L 967.352756 679.837479 
L 968.302335 679.330889 
L 969.251914 679.072155 
L 971.151073 690.348759 
L 972.100652 677.226683 
L 973.050231 688.438607 
L 973.99981 684.565638 
L 974.94939 685.620601 
L 975.898969 677.96167 
L 976.848548 686.420268 
L 977.798127 685.286883 
L 978.747706 684.935991 
L 979.697286 687.623484 
L 980.646865 677.316555 
L 981.596444 674.665691 
L 982.546023 677.069271 
L 983.495602 678.162588 
L 984.445182 681.516949 
L 985.394761 681.269092 
L 986.34434 687.522742 
L 987.293919 683.32464 
L 988.243498 676.590158 
L 989.193078 683.934259 
L 990.142657 686.685293 
L 991.092236 686.155236 
L 992.041815 525.604431 
L 992.991394 679.599926 
L 993.940974 678.682915 
L 994.890553 683.20729 
L 995.840132 683.03385 
L 996.789711 675.226664 
L 997.73929 674.372614 
L 998.68887 680.824323 
L 999.638449 681.423645 
L 1000.588028 521.011931 
L 1001.537607 608.216725 
L 1002.487186 586.699017 
L 1003.436765 515.6959 
L 1004.386345 682.623429 
L 1005.335924 685.473492 
L 1006.285503 508.625408 
L 1007.235082 534.103097 
L 1008.184661 680.627983 
L 1009.134241 412.301453 
L 1010.08382 627.983411 
L 1011.033399 537.293176 
L 1011.982978 678.603919 
L 1012.932557 528.330846 
L 1013.882137 673.947885 
L 1014.831716 683.425382 
L 1015.781295 677.78765 
L 1016.730874 679.199229 
L 1017.680453 678.773927 
L 1018.630033 686.226787 
L 1019.579612 676.863774 
L 1020.529191 683.726476 
L 1021.47877 679.839192 
L 1022.428349 679.387558 
L 1023.377929 677.922742 
L 1024.327508 679.677775 
L 1025.277087 674.048054 
L 1026.226666 666.980428 
L 1027.176245 683.717886 
L 1028.125825 676.905561 
L 1029.075404 684.008103 
L 1030.024983 679.179195 
L 1030.974562 666.383971 
L 1031.924141 685.244523 
L 1032.873721 678.17747 
L 1033.8233 661.288319 
L 1034.772879 683.980625 
L 1035.722458 679.419615 
L 1036.672037 678.026923 
L 1037.621616 669.753215 
L 1038.571196 679.060132 
L 1039.520775 674.898092 
L 1040.470354 681.237609 
L 1041.419933 676.494561 
L 1042.369512 653.552112 
L 1043.319092 677.435618 
L 1044.268671 684.590824 
L 1045.21825 678.270775 
L 1046.167829 676.92159 
L 1047.117408 681.16777 
L 1048.066988 681.513511 
L 1049.016567 678.494586 
L 1049.966146 665.435477 
L 1050.915725 675.199186 
L 1051.865304 676.023466 
L 1051.865304 676.023466 
" style="fill:none;stroke:#1f77b4;stroke-linecap:square;stroke-width:1.5;"/>
   </g>
   <g id="line2d_16">
    <path clip-path="url(#p6360f1818a)" d="M 1052.814884 673.400653 
L 1053.764463 672.240936 
L 1054.714042 676.977686 
L 1055.663621 683.783719 
L 1056.6132 677.058394 
L 1057.56278 678.630824 
L 1058.512359 673.986233 
L 1059.461938 672.25124 
L 1060.411517 673.300477 
L 1061.361096 669.298142 
L 1062.310676 681.268519 
L 1063.260255 678.793387 
L 1064.209834 678.4259 
L 1065.159413 671.646199 
L 1066.108992 672.141907 
L 1067.058572 676.117917 
L 1068.008151 680.209545 
L 1068.95773 677.089878 
L 1069.907309 527.539196 
L 1070.856888 644.497051 
" style="fill:none;stroke:#ff7f0e;stroke-linecap:square;stroke-width:1.5;"/>
   </g>
   <g id="line2d_17">
    <path clip-path="url(#p6360f1818a)" d="M 1071.806468 525.096694 
L 1072.756047 517.113204 
L 1073.705626 454.436458 
L 1074.655205 672.574081 
L 1075.604784 680.427638 
L 1076.554363 682.910781 
L 1077.503943 562.650082 
L 1078.453522 516.262019 
L 1079.403101 518.015333 
L 1080.35268 682.690975 
L 1081.302259 504.374642 
L 1082.251839 682.174654 
L 1083.201418 670.853397 
L 1084.150997 675.560955 
L 1085.100576 673.321657 
L 1086.050155 666.975276 
L 1086.999735 670.321054 
L 1087.949314 667.630695 
L 1088.898893 671.023404 
L 1089.848472 614.899689 
L 1090.798051 567.647851 
L 1091.747631 632.441393 
L 1092.69721 673.440721 
L 1093.646789 669.720585 
L 1094.596368 525.330243 
L 1095.545947 671.781858 
L 1096.495527 672.689139 
L 1097.445106 675.899824 
L 1098.394685 682.200986 
L 1099.344264 680.454543 
L 1100.293843 672.041738 
L 1101.243423 677.428174 
L 1102.193002 657.042705 
L 1103.142581 670.551736 
L 1104.09216 681.796857 
L 1105.041739 672.736077 
L 1105.991319 680.60509 
L 1106.940898 679.692657 
L 1107.890477 683.22733 
L 1108.840056 683.309185 
L 1109.789635 676.98627 
L 1110.739214 683.62802 
L 1111.688794 677.968535 
L 1112.638373 682.237621 
L 1113.587952 667.944951 
L 1114.537531 676.944483 
L 1115.48711 660.34383 
L 1116.43669 663.749709 
L 1117.386269 656.269943 
L 1118.335848 679.844344 
L 1119.285427 671.77442 
L 1120.235006 680.545555 
L 1121.184586 686.33612 
L 1122.134165 684.61429 
L 1123.083744 683.645761 
L 1124.033323 683.747083 
L 1124.982902 680.992038 
L 1125.932482 686.96578 
L 1126.882061 684.799753 
L 1127.83164 680.759069 
L 1128.781219 688.251425 
L 1129.730798 687.73625 
L 1130.680378 686.823817 
L 1131.629957 678.590756 
L 1132.579536 678.557553 
L 1133.529115 690.310411 
L 1135.428274 676.439611 
L 1136.377853 688.250285 
L 1137.327432 684.633757 
L 1138.277011 679.218696 
L 1139.22659 677.055535 
L 1140.17617 681.91592 
L 1141.125749 685.09169 
L 1142.075328 683.115704 
L 1143.024907 679.186067 
L 1143.974486 677.410433 
L 1144.924066 676.206637 
L 1145.873645 672.299325 
L 1146.823224 685.802631 
L 1147.772803 681.486606 
L 1148.722382 687.655541 
L 1149.671961 676.428162 
L 1150.621541 681.196968 
L 1151.57112 681.250771 
L 1152.520699 679.291961 
L 1153.470278 684.065346 
L 1154.419857 678.142554 
L 1155.369437 679.007475 
L 1156.319016 671.149339 
L 1157.268595 669.939251 
L 1158.218174 670.99536 
L 1159.167753 671.227188 
L 1160.117333 682.140311 
L 1161.066912 683.924529 
L 1162.016491 681.796284 
L 1162.96607 687.760296 
L 1163.915649 680.540403 
L 1164.865229 672.095541 
L 1165.814808 676.013163 
L 1166.764387 686.400807 
L 1167.713966 675.927869 
L 1168.663545 684.808344 
L 1169.613125 682.03613 
L 1170.562704 677.144255 
L 1171.512283 677.109339 
L 1172.461862 665.796672 
L 1173.411441 657.014087 
L 1174.361021 667.68851 
L 1175.3106 659.293446 
L 1176.260179 660.501821 
L 1177.209758 672.720049 
L 1178.159337 647.395773 
L 1179.108917 639.995569 
L 1180.058496 648.490802 
L 1181.008075 676.511736 
L 1181.957654 671.053748 
L 1182.907233 648.26012 
L 1183.856812 641.744878 
L 1184.806392 646.667083 
L 1185.755971 640.21996 
L 1186.70555 656.328905 
L 1187.655129 655.311144 
L 1188.604708 654.06786 
L 1189.554288 669.240333 
L 1190.503867 670.385161 
L 1191.453446 672.741802 
L 1192.403025 678.717257 
L 1193.352604 674.143651 
L 1194.302184 680.71213 
L 1195.251763 678.125953 
L 1196.201342 683.025266 
L 1197.150921 666.479562 
L 1198.1005 675.145376 
L 1199.05008 680.721861 
L 1199.999659 678.907872 
L 1200.949238 681.460847 
L 1201.898817 676.752149 
L 1202.848396 679.625111 
L 1203.797976 670.227749 
L 1204.747555 683.993794 
L 1205.697134 671.448713 
L 1206.646713 676.178592 
L 1207.596292 662.563667 
L 1208.545872 677.848331 
L 1209.495451 664.376509 
L 1210.44503 673.615307 
L 1211.394609 680.350362 
L 1212.344188 676.567832 
L 1213.293768 673.970205 
L 1214.243347 674.09328 
L 1215.192926 680.044116 
L 1216.142505 680.788834 
L 1217.092084 674.600437 
L 1218.041664 673.610155 
L 1218.991243 676.554669 
L 1219.940822 678.852922 
L 1220.890401 675.120764 
L 1221.83998 675.103589 
L 1222.789559 680.765361 
L 1223.739139 679.57588 
L 1224.688718 675.692608 
L 1225.638297 667.255763 
L 1226.587876 675.310805 
L 1227.537455 675.859183 
L 1228.487035 678.017193 
L 1229.436614 667.985019 
L 1230.386193 681.217002 
L 1231.335772 683.466023 
L 1232.285351 663.895677 
L 1233.234931 678.22269 
L 1234.18451 678.899861 
L 1235.134089 677.45336 
L 1236.083668 675.722372 
L 1237.033247 680.858092 
L 1237.982827 681.868408 
L 1238.932406 685.266276 
L 1239.881985 684.944575 
L 1240.831564 683.219886 
L 1241.781143 680.766507 
L 1242.730723 681.783694 
L 1243.680302 679.515778 
L 1244.629881 680.061291 
L 1245.57946 673.330248 
L 1246.529039 680.143719 
L 1247.478619 680.397301 
L 1248.428198 686.397941 
L 1249.377777 675.022881 
L 1250.327356 668.632993 
L 1251.276935 680.623404 
L 1252.226515 681.539843 
L 1253.176094 681.643451 
L 1254.125673 675.212922 
L 1255.075252 672.077227 
L 1256.024831 679.286809 
L 1256.97441 675.231816 
L 1257.92399 682.564467 
L 1258.873569 671.559759 
L 1259.823148 667.515637 
L 1260.772727 645.537138 
L 1260.772727 645.537138 
" style="fill:none;stroke:#2ca02c;stroke-linecap:square;stroke-width:1.5;"/>
   </g>
   <g id="line2d_18">
    <path clip-path="url(#p6360f1818a)" d="M 166.857495 648.096862 
L 167.807074 648.647098 
L 168.756653 647.860287 
L 169.706232 647.419777 
L 171.605391 647.149024 
L 172.55497 646.609617 
L 173.504549 644.916576 
L 175.403708 642.039098 
L 176.353287 642.181772 
L 177.302866 643.279286 
L 178.252445 644.882708 
L 179.202024 645.912449 
L 180.151604 645.376918 
L 181.101183 643.744481 
L 182.050762 642.586674 
L 183.000341 642.522408 
L 183.94992 642.22369 
L 184.8995 641.60833 
L 185.849079 641.839801 
L 186.798658 641.099154 
L 187.748237 640.856962 
L 188.697816 640.17971 
L 189.647396 639.132748 
L 190.596975 638.620102 
L 191.546554 638.854685 
L 192.496133 638.296484 
L 193.445712 638.3737 
L 194.395292 638.594259 
L 195.344871 636.924151 
L 196.29445 636.731258 
L 199.143188 635.022631 
L 200.092767 632.777792 
L 201.042346 633.133919 
L 201.991925 633.176433 
L 203.891083 633.042642 
L 204.840663 632.643656 
L 205.790242 633.732679 
L 206.739821 633.106359 
L 207.6894 633.010396 
L 208.638979 632.472611 
L 209.588559 632.304451 
L 210.538138 632.305131 
L 211.487717 634.642725 
L 212.437296 634.15666 
L 213.386875 634.677845 
L 216.235613 637.974726 
L 217.185192 638.763528 
L 218.134771 639.019684 
L 220.03393 642.250451 
L 220.983509 645.041947 
L 221.933088 646.30663 
L 222.882667 646.016856 
L 223.832247 646.878808 
L 224.781826 647.460955 
L 225.731405 647.619145 
L 226.680984 649.763274 
L 227.630563 650.959565 
L 229.529722 651.30794 
L 230.479301 652.231832 
L 231.42888 652.768115 
L 232.378459 654.317813 
L 233.328039 655.366003 
L 234.277618 655.726351 
L 235.227197 656.700652 
L 236.176776 656.708511 
L 237.126355 656.122845 
L 238.075934 656.228647 
L 239.975093 657.401552 
L 240.924672 658.950249 
L 241.874251 658.89166 
L 244.722989 661.652627 
L 245.672568 663.511037 
L 246.622147 663.24484 
L 247.571726 663.317572 
L 248.521306 662.982733 
L 249.470885 663.534447 
L 250.420464 664.388456 
L 252.319622 664.485493 
L 254.218781 663.7707 
L 255.16836 664.313708 
L 256.117939 665.069393 
L 257.067518 665.330594 
L 258.017098 665.355805 
L 258.966677 664.82434 
L 260.865835 665.720684 
L 262.764994 665.614167 
L 263.714573 665.663562 
L 264.664152 665.11112 
L 265.613731 665.72041 
L 267.51289 666.215705 
L 269.412048 665.374909 
L 270.361627 664.464934 
L 271.311206 665.519038 
L 272.260786 665.036813 
L 273.210365 664.934196 
L 274.159944 664.706457 
L 276.059102 664.465697 
L 277.008681 663.82174 
L 278.90784 663.449896 
L 280.806998 663.255275 
L 283.655736 663.849443 
L 286.504473 662.82657 
L 287.454053 663.319373 
L 288.403632 663.198307 
L 289.353211 661.920423 
L 290.30279 661.662442 
L 291.252369 662.114925 
L 292.201949 662.248549 
L 293.151528 661.574576 
L 294.101107 662.13744 
L 295.050686 662.093424 
L 296.000265 661.435026 
L 296.949845 661.203734 
L 297.899424 661.292291 
L 298.849003 661.563342 
L 299.798582 661.953158 
L 300.748161 661.733839 
L 301.697741 661.888236 
L 302.64732 661.052138 
L 303.596899 660.505242 
L 304.546478 660.96302 
L 305.496057 660.007275 
L 306.445637 660.135711 
L 307.395216 660.865924 
L 308.344795 661.165918 
L 309.294374 661.649264 
L 310.243953 662.339742 
L 311.193532 661.617173 
L 312.143112 661.584963 
L 313.092691 661.045842 
L 314.991849 661.932432 
L 315.941428 662.621299 
L 316.891008 661.298421 
L 317.840587 661.851304 
L 318.790166 661.981219 
L 319.739745 662.724024 
L 320.689324 663.301593 
L 321.638904 662.929426 
L 322.588483 663.506279 
L 323.538062 663.30641 
L 324.487641 662.256408 
L 325.43722 660.457696 
L 326.3868 659.764833 
L 327.336379 658.099078 
L 328.285958 657.773301 
L 329.235537 656.870099 
L 330.185116 656.39943 
L 331.134696 656.175078 
L 332.084275 656.532457 
L 333.033854 656.703133 
L 333.983433 655.699829 
L 334.933012 656.716727 
L 335.882592 656.114593 
L 337.78175 653.160578 
L 338.731329 653.381495 
L 339.680908 652.461311 
L 340.630488 652.188161 
L 341.580067 652.422828 
L 342.529646 652.452797 
L 344.428804 652.19292 
L 345.378384 652.106175 
L 346.327963 652.402245 
L 347.277542 652.362939 
L 348.227121 652.866165 
L 349.1767 654.042887 
L 350.126279 652.245177 
L 351.075859 652.320402 
L 352.025438 651.443889 
L 352.975017 651.489945 
L 353.924596 650.122847 
L 354.874175 649.040538 
L 356.773334 649.183941 
L 357.722913 648.953078 
L 358.672492 647.602604 
L 359.622071 647.045273 
L 360.571651 647.057199 
L 361.52123 647.338529 
L 362.470809 647.986398 
L 363.420388 646.653275 
L 364.369967 646.814542 
L 365.319547 646.00084 
L 366.269126 646.091007 
L 367.218705 645.641183 
L 368.168284 645.734678 
L 369.117863 645.584705 
L 370.067443 646.372803 
L 371.017022 648.309467 
L 371.966601 648.329466 
L 372.91618 649.509061 
L 373.865759 650.136454 
L 374.815339 651.424236 
L 376.714497 652.5897 
L 377.664076 653.027551 
L 378.613655 652.964036 
L 379.563235 654.157453 
L 380.512814 653.887702 
L 381.462393 654.733912 
L 382.411972 656.42328 
L 384.31113 657.747375 
L 385.26071 657.414122 
L 387.159868 658.399871 
L 388.109447 658.571631 
L 389.059026 659.369878 
L 390.008606 659.844984 
L 390.958185 660.6807 
L 391.907764 660.211152 
L 392.857343 660.464804 
L 393.806922 660.851125 
L 394.756502 661.058924 
L 395.706081 663.17479 
L 396.65566 663.979011 
L 397.605239 664.51248 
L 398.554818 664.160432 
L 399.504398 664.543569 
L 400.453977 664.554171 
L 401.403556 665.016982 
L 402.353135 665.035645 
L 403.302714 663.076728 
L 404.252294 660.632319 
L 405.201873 661.604747 
L 406.151452 661.272435 
L 407.101031 661.085947 
L 408.05061 661.786477 
L 409.00019 663.012307 
L 409.949769 662.63995 
L 410.899348 663.392666 
L 411.848927 663.402123 
L 412.798506 664.244112 
L 413.748086 664.025711 
L 414.697665 664.124632 
L 416.596823 663.755244 
L 417.546402 664.677288 
L 419.445561 665.261308 
L 421.344719 664.714102 
L 422.294298 664.96934 
L 423.243877 664.262656 
L 425.143036 664.452734 
L 426.092615 664.777043 
L 427.042194 664.248631 
L 427.991773 664.108342 
L 428.941353 664.898229 
L 429.890932 664.945012 
L 430.840511 665.947563 
L 431.79009 666.277287 
L 432.739669 665.357187 
L 433.689249 665.644052 
L 434.638828 665.249168 
L 435.588407 665.422121 
L 436.537986 664.854129 
L 437.487565 665.333122 
L 442.235461 664.704275 
L 444.13462 665.084264 
L 445.084199 665.517166 
L 446.033778 666.285098 
L 446.983357 666.211197 
L 447.932937 666.701722 
L 448.882516 668.443502 
L 449.832095 672.833376 
L 450.781674 672.885133 
L 451.731253 672.653256 
L 453.630412 671.619317 
L 455.52957 671.571341 
L 456.479149 671.481031 
L 457.428728 671.16136 
L 458.378308 670.970423 
L 459.327887 671.22807 
L 460.277466 670.975288 
L 461.227045 670.497511 
L 462.176624 670.157472 
L 463.126204 669.971771 
L 464.075783 670.132512 
L 465.025362 669.708161 
L 465.974941 669.681114 
L 466.92452 669.91534 
L 468.823679 669.841975 
L 469.773258 669.367096 
L 470.722837 669.335446 
L 471.672416 669.484895 
L 472.621996 669.775575 
L 473.571575 669.842774 
L 474.521154 669.491155 
L 475.470733 669.362648 
L 476.420312 669.462964 
L 477.369892 669.344366 
L 478.319471 669.707278 
L 479.26905 669.38341 
L 480.218629 670.025554 
L 481.168208 670.17034 
L 482.117788 670.645433 
L 484.016946 670.740741 
L 484.966525 670.737557 
L 486.865684 669.440401 
L 489.714421 669.247914 
L 491.613579 669.996849 
L 492.563159 669.907636 
L 493.512738 669.953954 
L 494.462317 670.228833 
L 495.411896 670.332262 
L 496.361475 670.29292 
L 497.311055 670.859064 
L 498.260634 671.595144 
L 499.210213 671.894756 
L 500.159792 671.946965 
L 501.109371 672.44802 
L 502.058951 672.405995 
L 503.958109 672.87626 
L 504.907688 672.656511 
L 505.857267 673.491297 
L 506.806847 674.552832 
L 507.756426 675.032445 
L 511.554743 676.197909 
L 512.504322 676.167381 
L 513.453901 676.450703 
L 514.40348 677.111271 
L 516.302639 677.72588 
L 519.151376 677.965507 
L 520.100955 678.250642 
L 521.050535 678.418563 
L 522.949693 678.398242 
L 523.899272 678.531878 
L 524.848851 678.905379 
L 525.798431 678.885524 
L 527.697589 678.646886 
L 528.647168 678.490771 
L 531.495906 678.595714 
L 532.445485 679.394188 
L 533.395064 679.650952 
L 535.294222 679.222582 
L 537.193381 678.745521 
L 538.14296 678.345879 
L 540.042118 677.843619 
L 540.991698 677.336696 
L 541.941277 677.229452 
L 544.790014 675.579425 
L 545.739594 674.507838 
L 546.689173 673.885013 
L 547.638752 672.956529 
L 548.588331 672.392138 
L 549.53791 671.65557 
L 550.48749 671.458957 
L 551.437069 670.580285 
L 552.386648 667.800559 
L 553.336227 667.486088 
L 554.285806 667.293398 
L 555.235386 667.229717 
L 556.184965 666.830838 
L 559.983282 666.332931 
L 560.932861 666.461951 
L 561.88244 666.21041 
L 562.832019 666.199093 
L 563.781598 665.9092 
L 567.579915 665.819068 
L 568.529494 665.512444 
L 569.479073 666.036086 
L 571.378232 665.840403 
L 573.27739 666.084049 
L 575.176549 666.491849 
L 576.126128 666.643455 
L 577.075707 667.10654 
L 578.025286 667.114638 
L 578.974865 666.98935 
L 579.924445 667.371975 
L 581.823603 668.330021 
L 582.773182 668.332752 
L 584.672341 668.906266 
L 585.62192 669.32983 
L 586.571499 669.884036 
L 587.521078 670.111155 
L 592.268974 673.018196 
L 593.218553 674.150054 
L 597.01687 677.149576 
L 597.966449 679.91591 
L 598.916029 680.512773 
L 599.865608 680.629546 
L 600.815187 680.629379 
L 601.764766 681.180795 
L 602.714345 681.382333 
L 603.663924 681.702684 
L 604.613504 681.707287 
L 605.563083 681.847863 
L 606.512662 681.796513 
L 608.41182 681.864761 
L 609.3614 682.371851 
L 610.310979 682.353641 
L 612.210137 682.671117 
L 613.159716 682.713834 
L 614.109296 683.253742 
L 615.058875 683.146068 
L 616.958033 683.325115 
L 617.907612 683.216272 
L 618.857192 682.247863 
L 620.75635 675.991815 
L 621.705929 671.990922 
L 622.655508 667.506564 
L 623.605088 665.307018 
L 625.504246 664.861845 
L 627.403404 663.692004 
L 628.352984 663.546825 
L 629.302563 663.207394 
L 630.252142 662.583925 
L 631.201721 661.260259 
L 632.1513 660.392714 
L 633.10088 659.788624 
L 634.050459 658.723071 
L 635.000038 657.908725 
L 635.949617 657.316644 
L 636.899196 657.30318 
L 637.848775 656.616566 
L 638.798355 656.282502 
L 640.697513 654.379205 
L 641.647092 653.380958 
L 642.596671 652.602961 
L 643.546251 652.266487 
L 644.49583 651.754437 
L 647.344567 651.213121 
L 649.243726 649.898042 
L 650.193305 649.680953 
L 651.142884 649.287941 
L 652.092463 649.118649 
L 653.042043 648.397965 
L 654.941201 648.244068 
L 656.840359 646.831273 
L 657.789939 646.244904 
L 659.689097 645.924339 
L 661.588255 644.101502 
L 662.537835 643.91883 
L 663.487414 643.962596 
L 664.436993 644.491819 
L 665.386572 647.151397 
L 666.336151 650.206682 
L 667.285731 654.05827 
L 668.23531 658.413417 
L 669.184889 660.160576 
L 670.134468 660.396626 
L 671.084047 660.280246 
L 672.983206 661.019391 
L 673.932785 661.398844 
L 674.882364 662.027357 
L 675.831943 662.47538 
L 676.781522 663.685695 
L 677.731102 664.356532 
L 678.680681 664.498491 
L 679.63026 665.454116 
L 680.579839 665.742102 
L 681.529418 666.428143 
L 682.478998 666.760216 
L 683.428577 667.42794 
L 684.378156 667.77201 
L 685.327735 668.68914 
L 686.277314 669.402717 
L 687.226894 670.410575 
L 688.176473 670.88295 
L 689.126052 670.967429 
L 691.02521 671.406795 
L 691.97479 671.267447 
L 692.924369 671.466434 
L 693.873948 671.927765 
L 694.823527 672.532989 
L 695.773106 672.532977 
L 696.722686 672.922435 
L 697.672265 673.074673 
L 698.621844 673.816406 
L 699.571423 673.938235 
L 700.521002 673.72495 
L 702.420161 674.603991 
L 703.36974 674.92755 
L 704.319319 675.092072 
L 705.268898 675.136029 
L 707.168057 676.606137 
L 708.117636 676.54186 
L 710.016794 676.269151 
L 710.966373 676.446481 
L 712.865532 669.488782 
L 713.815111 669.464764 
L 714.76469 669.742935 
L 715.714269 666.21419 
L 717.613428 666.440354 
L 718.563007 662.651005 
L 719.512586 662.356604 
L 720.462165 661.939408 
L 721.411745 661.831006 
L 722.361324 654.868335 
L 723.310903 653.580421 
L 724.260482 653.578096 
L 725.210061 653.388662 
L 726.159641 653.498268 
L 728.058799 652.901118 
L 729.957957 651.98778 
L 731.857116 650.476338 
L 732.806695 650.106485 
L 733.756274 649.394375 
L 734.705853 647.308883 
L 735.655433 647.35067 
L 736.605012 647.209235 
L 737.554591 647.219872 
L 739.453749 647.020218 
L 741.352908 647.186159 
L 743.252066 646.699713 
L 745.151225 645.784526 
L 746.100804 645.930528 
L 747.050383 645.823665 
L 747.999962 645.865249 
L 748.949541 645.654015 
L 749.89912 645.197537 
L 750.8487 645.168749 
L 752.747858 644.752221 
L 754.647016 645.127833 
L 755.596596 645.458761 
L 756.546175 645.516587 
L 758.445333 652.635469 
L 759.394912 652.290433 
L 760.344492 652.379945 
L 761.294071 655.311635 
L 763.193229 655.022541 
L 764.142808 658.338168 
L 766.041967 658.611354 
L 766.991546 658.444662 
L 767.941125 665.306302 
L 768.890704 666.363472 
L 769.840284 666.490131 
L 770.789863 666.492742 
L 771.739442 666.680579 
L 773.6386 666.68071 
L 775.537759 667.264395 
L 776.487338 667.441964 
L 777.436917 668.193416 
L 778.386496 668.366428 
L 779.336076 669.326991 
L 780.285655 671.477763 
L 781.235234 671.415369 
L 782.184813 671.553989 
L 783.134392 671.899598 
L 784.083971 672.028618 
L 785.033551 671.971162 
L 785.98313 671.599711 
L 788.831867 672.248545 
L 790.731026 673.125941 
L 791.680605 673.284595 
L 792.630184 673.746428 
L 793.579763 673.762336 
L 795.478922 674.743279 
L 796.428501 674.676783 
L 797.37808 674.872943 
L 798.327659 675.292024 
L 802.125976 675.146022 
L 803.075555 675.171685 
L 804.025135 675.004754 
L 804.974714 675.328849 
L 805.924293 674.82529 
L 806.873872 674.982203 
L 807.823451 674.728861 
L 808.773031 674.841818 
L 809.72261 671.63792 
L 811.621768 671.129411 
L 812.571347 670.932869 
L 813.520927 670.535899 
L 814.470506 670.358879 
L 815.420085 669.891358 
L 818.268823 669.470083 
L 819.218402 669.638862 
L 821.11756 669.335398 
L 822.067139 669.466815 
L 823.016718 669.153393 
L 823.966298 669.319609 
L 825.865456 668.912788 
L 826.815035 669.126061 
L 828.714194 668.537473 
L 829.663773 668.404578 
L 830.613352 668.406056 
L 831.562931 668.649214 
L 835.361248 667.991925 
L 836.310827 667.523748 
L 837.260406 667.271455 
L 838.209986 667.262392 
L 840.109144 665.647915 
L 842.008302 665.346669 
L 846.756198 665.369244 
L 849.604936 665.768945 
L 850.554515 665.999152 
L 852.453674 666.899325 
L 853.403253 667.416551 
L 854.352832 667.505514 
L 855.302411 671.074388 
L 857.201569 672.099228 
L 858.151149 672.810706 
L 860.999886 674.563601 
L 861.949465 661.682452 
L 862.899045 655.058306 
L 863.848624 654.737383 
L 864.798203 651.130956 
L 865.747782 651.449577 
L 866.697361 651.463506 
L 867.646941 651.851724 
L 868.59652 645.213314 
L 869.546099 641.769251 
L 870.495678 638.943684 
L 871.445257 638.978506 
L 872.394837 635.428164 
L 873.344416 633.234366 
L 874.293995 628.789206 
L 875.243574 628.518262 
L 876.193153 625.018686 
L 879.041891 625.199427 
L 880.941049 625.402897 
L 882.840208 625.36439 
L 883.789787 625.227571 
L 885.688945 626.533849 
L 886.638525 626.393452 
L 888.537683 625.260711 
L 890.436841 622.974408 
L 891.386421 621.98086 
L 892.336 620.746814 
L 895.184737 618.066819 
L 896.134316 616.869646 
L 897.083896 615.882358 
L 898.033475 615.681154 
L 898.983054 615.094749 
L 900.882212 615.034407 
L 902.781371 614.582353 
L 903.73095 614.396008 
L 905.630108 613.681369 
L 906.579688 613.525314 
L 907.529267 626.554885 
L 908.478846 633.244216 
L 909.428425 633.557709 
L 910.378004 636.883867 
L 912.277163 636.445217 
L 913.226742 636.258096 
L 914.176321 643.036199 
L 915.1259 646.185205 
L 916.07548 648.910981 
L 917.025059 648.863161 
L 917.974638 652.358336 
L 918.924217 654.902393 
L 919.873796 659.434656 
L 920.823376 659.705397 
L 921.772955 663.429229 
L 926.520851 663.759322 
L 927.47043 664.125979 
L 928.420009 664.033391 
L 932.218326 664.774276 
L 933.167905 665.563901 
L 934.117484 666.128328 
L 938.86538 671.787666 
L 940.764539 673.654579 
L 942.663697 675.936684 
L 943.613276 676.123805 
L 944.562855 676.801486 
L 949.310751 677.504056 
L 950.260331 677.99643 
L 951.20991 678.359735 
L 952.159489 678.405004 
L 953.109068 678.581177 
L 954.058647 678.958209 
L 955.008227 679.126821 
L 957.856964 680.143016 
L 958.806543 680.29473 
L 961.655281 681.114812 
L 962.60486 681.31356 
L 964.504019 681.279131 
L 966.403177 681.721168 
L 968.302335 681.618324 
L 972.100652 681.64357 
L 974.94939 682.108384 
L 975.898969 681.998874 
L 980.646865 682.35989 
L 983.495602 682.036343 
L 985.394761 681.878523 
L 987.293919 681.999172 
L 988.243498 681.816333 
L 991.092236 681.959425 
L 992.041815 678.812112 
L 996.789711 678.512309 
L 999.638449 678.376741 
L 1000.588028 675.145236 
L 1001.537607 673.685502 
L 1002.487186 671.604625 
L 1003.436765 668.26758 
L 1005.335924 668.392713 
L 1006.285503 664.830791 
L 1007.235082 661.737512 
L 1008.184661 661.790329 
L 1009.134241 656.288548 
L 1010.08382 655.138647 
L 1011.033399 651.960579 
L 1011.982978 651.813253 
L 1012.932557 648.656865 
L 1013.882137 648.544719 
L 1014.831716 648.635411 
L 1017.680453 648.286774 
L 1018.630033 648.240694 
L 1019.579612 648.080239 
L 1022.428349 647.933378 
L 1025.277087 647.387591 
L 1026.226666 647.172255 
L 1027.176245 647.360842 
L 1028.125825 647.357431 
L 1029.075404 647.479213 
L 1030.024983 647.43051 
L 1030.974562 647.120403 
L 1032.873721 646.965708 
L 1033.8233 646.646919 
L 1034.772879 646.647885 
L 1036.672037 646.327177 
L 1037.621616 649.330277 
L 1040.470354 649.199145 
L 1041.419933 649.06291 
L 1042.369512 648.611357 
L 1044.268671 648.753639 
L 1045.21825 648.687954 
L 1046.167829 651.936072 
L 1047.117408 653.455885 
L 1048.066988 655.431187 
L 1049.016567 658.822826 
L 1049.966146 658.464744 
L 1050.915725 658.250696 
L 1051.865304 661.738155 
L 1052.814884 664.640188 
L 1053.764463 664.465458 
L 1054.714042 669.979546 
L 1055.663621 671.142052 
L 1056.6132 674.053828 
L 1057.56278 674.054388 
L 1058.512359 677.088875 
L 1059.461938 677.053529 
L 1061.361096 676.665728 
L 1063.260255 676.709244 
L 1067.058572 676.119154 
L 1068.95773 676.118928 
L 1069.907309 672.949374 
L 1070.856888 672.333728 
L 1071.806468 669.377817 
L 1072.756047 665.906886 
L 1073.705626 661.272113 
L 1074.655205 661.033904 
L 1075.604784 661.059914 
L 1076.554363 661.404222 
L 1077.503943 658.850171 
L 1079.403101 652.492079 
L 1080.35268 652.465211 
L 1081.302259 648.818441 
L 1083.201418 648.927772 
L 1085.100576 648.82203 
L 1086.050155 648.524898 
L 1086.999735 648.396284 
L 1087.949314 648.689588 
L 1088.898893 648.556 
L 1089.848472 647.104101 
L 1090.798051 644.799457 
L 1091.747631 643.872786 
L 1093.646789 643.46612 
L 1094.596368 640.275196 
L 1095.545947 640.407412 
L 1097.445106 640.352544 
L 1099.344264 640.707001 
L 1101.243423 640.471761 
L 1102.193002 640.054768 
L 1103.142581 639.886454 
L 1104.09216 640.049175 
L 1105.041739 640.059276 
L 1108.840056 640.562895 
L 1109.789635 640.532903 
L 1110.739214 640.782524 
L 1112.638373 641.031406 
L 1113.587952 640.775894 
L 1114.537531 640.772865 
L 1115.48711 643.539628 
L 1116.43669 643.940725 
L 1117.386269 646.673501 
L 1118.335848 650.063733 
L 1119.285427 654.591607 
L 1121.184586 654.880773 
L 1122.134165 654.916263 
L 1123.083744 657.437006 
L 1124.982902 664.321626 
L 1125.932482 664.410685 
L 1126.882061 668.169541 
L 1127.83164 668.14005 
L 1129.730798 668.756161 
L 1131.629957 669.279445 
L 1132.579536 669.451039 
L 1133.529115 669.923533 
L 1134.478694 670.18874 
L 1135.428274 671.470822 
L 1136.377853 673.983373 
L 1137.327432 675.070714 
L 1139.22659 675.3439 
L 1140.17617 678.606101 
L 1142.075328 679.10061 
L 1143.024907 679.169073 
L 1144.924066 678.980772 
L 1145.873645 678.986138 
L 1146.823224 679.160606 
L 1147.772803 679.669854 
L 1148.722382 680.026183 
L 1149.671961 679.914335 
L 1150.621541 680.090604 
L 1153.470278 680.113167 
L 1154.419857 680.005528 
L 1155.369437 680.047637 
L 1157.268595 679.620388 
L 1158.218174 679.386174 
L 1160.117333 679.5628 
L 1162.96607 681.086084 
L 1164.865229 681.107275 
L 1167.713966 680.833231 
L 1169.613125 680.821807 
L 1170.562704 680.741644 
L 1171.512283 680.536302 
L 1173.411441 679.645717 
L 1174.361021 679.217323 
L 1176.260179 678.07639 
L 1177.209758 677.954083 
L 1178.159337 677.30488 
L 1179.108917 676.256654 
L 1180.058496 675.522017 
L 1181.008075 675.523519 
L 1181.957654 675.165258 
L 1185.755971 672.125011 
L 1188.604708 670.423229 
L 1190.503867 670.131738 
L 1191.453446 670.140956 
L 1194.302184 669.695711 
L 1196.201342 669.769171 
L 1197.150921 669.461438 
L 1199.05008 669.305395 
L 1200.949238 669.372451 
L 1204.747555 669.940944 
L 1206.646713 669.556829 
L 1207.596292 669.156149 
L 1208.545872 668.94965 
L 1209.495451 668.612902 
L 1211.394609 668.734922 
L 1212.344188 668.530068 
L 1213.293768 668.489284 
L 1214.243347 668.266053 
L 1215.192926 668.224553 
L 1216.142505 668.300482 
L 1217.092084 668.248213 
L 1218.041664 668.410994 
L 1218.991243 668.818089 
L 1220.890401 669.380417 
L 1221.83998 669.684621 
L 1222.789559 669.852231 
L 1224.688718 671.266338 
L 1225.638297 671.657275 
L 1226.587876 671.632256 
L 1227.537455 671.732369 
L 1230.386193 673.618768 
L 1231.335772 674.519727 
L 1232.285351 674.677368 
L 1234.18451 675.672025 
L 1237.033247 676.123411 
L 1237.982827 676.18906 
L 1238.932406 676.420782 
L 1240.831564 676.615081 
L 1241.781143 676.568024 
L 1242.730723 676.88686 
L 1244.629881 676.964148 
L 1246.529039 676.820507 
L 1249.377777 677.137447 
L 1250.327356 676.817431 
L 1252.226515 677.120263 
L 1253.176094 677.517758 
L 1254.125673 677.462854 
L 1256.024831 677.741442 
L 1256.97441 677.634805 
L 1257.92399 677.759735 
L 1259.823148 677.572484 
L 1260.772727 676.853588 
L 1260.772727 676.853588 
" style="fill:none;stroke:#ff0000;stroke-linecap:square;stroke-width:1.5;"/>
   </g>
   <g id="patch_3">
    <path d="M 65.3 723.2 
L 65.3 14.3 
" style="fill:none;stroke:#000000;stroke-linecap:square;stroke-linejoin:miter;stroke-width:0.8;"/>
   </g>
   <g id="patch_4">
    <path d="M 1317.7 723.2 
L 1317.7 14.3 
" style="fill:none;stroke:#000000;stroke-linecap:square;stroke-linejoin:miter;stroke-width:0.8;"/>
   </g>
   <g id="patch_5">
    <path d="M 65.3 723.2 
L 1317.7 723.2 
" style="fill:none;stroke:#000000;stroke-linecap:square;stroke-linejoin:miter;stroke-width:0.8;"/>
   </g>
   <g id="patch_6">
    <path d="M 65.3 14.3 
L 1317.7 14.3 
" style="fill:none;stroke:#000000;stroke-linecap:square;stroke-linejoin:miter;stroke-width:0.8;"/>
   </g>
   <g id="legend_1">
    <g id="patch_7">
     <path d="M 1144.726562 95.690625 
L 1310.7 95.690625 
Q 1312.7 95.690625 1312.7 93.690625 
L 1312.7 21.3 
Q 1312.7 19.3 1310.7 19.3 
L 1144.726562 19.3 
Q 1142.726562 19.3 1142.726562 21.3 
L 1142.726562 93.690625 
Q 1142.726562 95.690625 1144.726562 95.690625 
z
" style="fill:#ffffff;opacity:0.8;stroke:#cccccc;stroke-linejoin:miter;"/>
    </g>
    <g id="line2d_19">
     <path d="M 1146.726562 27.398437 
L 1166.726562 27.398437 
" style="fill:none;stroke:#000000;stroke-linecap:square;stroke-width:1.5;"/>
    </g>
    <g id="line2d_20"/>
    <g id="text_16">
     <!-- Unused Data -->
     <defs>
      <path d="M 8.6875 72.90625 
L 18.609375 72.90625 
L 18.609375 28.609375 
Q 18.609375 16.890625 22.84375 11.734375 
Q 27.09375 6.59375 36.625 6.59375 
Q 46.09375 6.59375 50.34375 11.734375 
Q 54.59375 16.890625 54.59375 28.609375 
L 54.59375 72.90625 
L 64.5 72.90625 
L 64.5 27.390625 
Q 64.5 13.140625 57.4375 5.859375 
Q 50.390625 -1.421875 36.625 -1.421875 
Q 22.796875 -1.421875 15.734375 5.859375 
Q 8.6875 13.140625 8.6875 27.390625 
z
" id="DejaVuSans-55"/>
      <path d="M 19.671875 64.796875 
L 19.671875 8.109375 
L 31.59375 8.109375 
Q 46.6875 8.109375 53.6875 14.9375 
Q 60.6875 21.78125 60.6875 36.53125 
Q 60.6875 51.171875 53.6875 57.984375 
Q 46.6875 64.796875 31.59375 64.796875 
z
M 9.8125 72.90625 
L 30.078125 72.90625 
Q 51.265625 72.90625 61.171875 64.09375 
Q 71.09375 55.28125 71.09375 36.53125 
Q 71.09375 17.671875 61.125 8.828125 
Q 51.171875 0 30.078125 0 
L 9.8125 0 
z
" id="DejaVuSans-44"/>
     </defs>
     <g transform="translate(1174.726562 30.898437)scale(0.1 -0.1)">
      <use xlink:href="#DejaVuSans-55"/>
      <use x="73.193359" xlink:href="#DejaVuSans-6e"/>
      <use x="136.572266" xlink:href="#DejaVuSans-75"/>
      <use x="199.951172" xlink:href="#DejaVuSans-73"/>
      <use x="252.050781" xlink:href="#DejaVuSans-65"/>
      <use x="313.574219" xlink:href="#DejaVuSans-64"/>
      <use x="377.050781" xlink:href="#DejaVuSans-20"/>
      <use x="408.837891" xlink:href="#DejaVuSans-44"/>
      <use x="485.839844" xlink:href="#DejaVuSans-61"/>
      <use x="547.119141" xlink:href="#DejaVuSans-74"/>
      <use x="586.328125" xlink:href="#DejaVuSans-61"/>
     </g>
    </g>
    <g id="line2d_21">
     <path d="M 1146.726562 42.076562 
L 1166.726562 42.076562 
" style="fill:none;stroke:#1f77b4;stroke-linecap:square;stroke-width:1.5;"/>
    </g>
    <g id="line2d_22"/>
    <g id="text_17">
     <!-- Training Data -->
     <defs>
      <path d="M -0.296875 72.90625 
L 61.375 72.90625 
L 61.375 64.59375 
L 35.5 64.59375 
L 35.5 0 
L 25.59375 0 
L 25.59375 64.59375 
L -0.296875 64.59375 
z
" id="DejaVuSans-54"/>
      <path d="M 41.109375 46.296875 
Q 39.59375 47.171875 37.8125 47.578125 
Q 36.03125 48 33.890625 48 
Q 26.265625 48 22.1875 43.046875 
Q 18.109375 38.09375 18.109375 28.8125 
L 18.109375 0 
L 9.078125 0 
L 9.078125 54.6875 
L 18.109375 54.6875 
L 18.109375 46.1875 
Q 20.953125 51.171875 25.484375 53.578125 
Q 30.03125 56 36.53125 56 
Q 37.453125 56 38.578125 55.875 
Q 39.703125 55.765625 41.0625 55.515625 
z
" id="DejaVuSans-72"/>
      <path d="M 45.40625 27.984375 
Q 45.40625 37.75 41.375 43.109375 
Q 37.359375 48.484375 30.078125 48.484375 
Q 22.859375 48.484375 18.828125 43.109375 
Q 14.796875 37.75 14.796875 27.984375 
Q 14.796875 18.265625 18.828125 12.890625 
Q 22.859375 7.515625 30.078125 7.515625 
Q 37.359375 7.515625 41.375 12.890625 
Q 45.40625 18.265625 45.40625 27.984375 
z
M 54.390625 6.78125 
Q 54.390625 -7.171875 48.1875 -13.984375 
Q 42 -20.796875 29.203125 -20.796875 
Q 24.46875 -20.796875 20.265625 -20.09375 
Q 16.0625 -19.390625 12.109375 -17.921875 
L 12.109375 -9.1875 
Q 16.0625 -11.328125 19.921875 -12.34375 
Q 23.78125 -13.375 27.78125 -13.375 
Q 36.625 -13.375 41.015625 -8.765625 
Q 45.40625 -4.15625 45.40625 5.171875 
L 45.40625 9.625 
Q 42.625 4.78125 38.28125 2.390625 
Q 33.9375 0 27.875 0 
Q 17.828125 0 11.671875 7.65625 
Q 5.515625 15.328125 5.515625 27.984375 
Q 5.515625 40.671875 11.671875 48.328125 
Q 17.828125 56 27.875 56 
Q 33.9375 56 38.28125 53.609375 
Q 42.625 51.21875 45.40625 46.390625 
L 45.40625 54.6875 
L 54.390625 54.6875 
z
" id="DejaVuSans-67"/>
     </defs>
     <g transform="translate(1174.726562 45.576562)scale(0.1 -0.1)">
      <use xlink:href="#DejaVuSans-54"/>
      <use x="60.865234" xlink:href="#DejaVuSans-72"/>
      <use x="101.978516" xlink:href="#DejaVuSans-61"/>
      <use x="163.257812" xlink:href="#DejaVuSans-69"/>
      <use x="191.041016" xlink:href="#DejaVuSans-6e"/>
      <use x="254.419922" xlink:href="#DejaVuSans-69"/>
      <use x="282.203125" xlink:href="#DejaVuSans-6e"/>
      <use x="345.582031" xlink:href="#DejaVuSans-67"/>
      <use x="409.058594" xlink:href="#DejaVuSans-20"/>
      <use x="440.845703" xlink:href="#DejaVuSans-44"/>
      <use x="517.847656" xlink:href="#DejaVuSans-61"/>
      <use x="579.126953" xlink:href="#DejaVuSans-74"/>
      <use x="618.335938" xlink:href="#DejaVuSans-61"/>
     </g>
    </g>
    <g id="line2d_23">
     <path d="M 1146.726562 56.754687 
L 1166.726562 56.754687 
" style="fill:none;stroke:#ff7f0e;stroke-linecap:square;stroke-width:1.5;"/>
    </g>
    <g id="line2d_24"/>
    <g id="text_18">
     <!-- Validation Data -->
     <defs>
      <path d="M 28.609375 0 
L 0.78125 72.90625 
L 11.078125 72.90625 
L 34.1875 11.53125 
L 57.328125 72.90625 
L 67.578125 72.90625 
L 39.796875 0 
z
" id="DejaVuSans-56"/>
      <path d="M 9.421875 75.984375 
L 18.40625 75.984375 
L 18.40625 0 
L 9.421875 0 
z
" id="DejaVuSans-6c"/>
      <path d="M 30.609375 48.390625 
Q 23.390625 48.390625 19.1875 42.75 
Q 14.984375 37.109375 14.984375 27.296875 
Q 14.984375 17.484375 19.15625 11.84375 
Q 23.34375 6.203125 30.609375 6.203125 
Q 37.796875 6.203125 41.984375 11.859375 
Q 46.1875 17.53125 46.1875 27.296875 
Q 46.1875 37.015625 41.984375 42.703125 
Q 37.796875 48.390625 30.609375 48.390625 
z
M 30.609375 56 
Q 42.328125 56 49.015625 48.375 
Q 55.71875 40.765625 55.71875 27.296875 
Q 55.71875 13.875 49.015625 6.21875 
Q 42.328125 -1.421875 30.609375 -1.421875 
Q 18.84375 -1.421875 12.171875 6.21875 
Q 5.515625 13.875 5.515625 27.296875 
Q 5.515625 40.765625 12.171875 48.375 
Q 18.84375 56 30.609375 56 
z
" id="DejaVuSans-6f"/>
     </defs>
     <g transform="translate(1174.726562 60.254687)scale(0.1 -0.1)">
      <use xlink:href="#DejaVuSans-56"/>
      <use x="68.298828" xlink:href="#DejaVuSans-61"/>
      <use x="129.578125" xlink:href="#DejaVuSans-6c"/>
      <use x="157.361328" xlink:href="#DejaVuSans-69"/>
      <use x="185.144531" xlink:href="#DejaVuSans-64"/>
      <use x="248.621094" xlink:href="#DejaVuSans-61"/>
      <use x="309.900391" xlink:href="#DejaVuSans-74"/>
      <use x="349.109375" xlink:href="#DejaVuSans-69"/>
      <use x="376.892578" xlink:href="#DejaVuSans-6f"/>
      <use x="438.074219" xlink:href="#DejaVuSans-6e"/>
      <use x="501.453125" xlink:href="#DejaVuSans-20"/>
      <use x="533.240234" xlink:href="#DejaVuSans-44"/>
      <use x="610.242188" xlink:href="#DejaVuSans-61"/>
      <use x="671.521484" xlink:href="#DejaVuSans-74"/>
      <use x="710.730469" xlink:href="#DejaVuSans-61"/>
     </g>
    </g>
    <g id="line2d_25">
     <path d="M 1146.726562 71.432812 
L 1166.726562 71.432812 
" style="fill:none;stroke:#2ca02c;stroke-linecap:square;stroke-width:1.5;"/>
    </g>
    <g id="line2d_26"/>
    <g id="text_19">
     <!-- Testing Data -->
     <g transform="translate(1174.726562 74.932812)scale(0.1 -0.1)">
      <use xlink:href="#DejaVuSans-54"/>
      <use x="60.818359" xlink:href="#DejaVuSans-65"/>
      <use x="122.341797" xlink:href="#DejaVuSans-73"/>
      <use x="174.441406" xlink:href="#DejaVuSans-74"/>
      <use x="213.650391" xlink:href="#DejaVuSans-69"/>
      <use x="241.433594" xlink:href="#DejaVuSans-6e"/>
      <use x="304.8125" xlink:href="#DejaVuSans-67"/>
      <use x="368.289062" xlink:href="#DejaVuSans-20"/>
      <use x="400.076172" xlink:href="#DejaVuSans-44"/>
      <use x="477.078125" xlink:href="#DejaVuSans-61"/>
      <use x="538.357422" xlink:href="#DejaVuSans-74"/>
      <use x="577.566406" xlink:href="#DejaVuSans-61"/>
     </g>
    </g>
    <g id="line2d_27">
     <path d="M 1146.726562 86.110937 
L 1166.726562 86.110937 
" style="fill:none;stroke:#ff0000;stroke-linecap:square;stroke-width:1.5;"/>
    </g>
    <g id="line2d_28"/>
    <g id="text_20">
     <!-- Moving average (48 steps) -->
     <defs>
      <path d="M 2.984375 54.6875 
L 12.5 54.6875 
L 29.59375 8.796875 
L 46.6875 54.6875 
L 56.203125 54.6875 
L 35.6875 0 
L 23.484375 0 
z
" id="DejaVuSans-76"/>
     </defs>
     <g transform="translate(1174.726562 89.610937)scale(0.1 -0.1)">
      <use xlink:href="#DejaVuSans-4d"/>
      <use x="86.279297" xlink:href="#DejaVuSans-6f"/>
      <use x="147.460938" xlink:href="#DejaVuSans-76"/>
      <use x="206.640625" xlink:href="#DejaVuSans-69"/>
      <use x="234.423828" xlink:href="#DejaVuSans-6e"/>
      <use x="297.802734" xlink:href="#DejaVuSans-67"/>
      <use x="361.279297" xlink:href="#DejaVuSans-20"/>
      <use x="393.066406" xlink:href="#DejaVuSans-61"/>
      <use x="454.345703" xlink:href="#DejaVuSans-76"/>
      <use x="513.525391" xlink:href="#DejaVuSans-65"/>
      <use x="575.048828" xlink:href="#DejaVuSans-72"/>
      <use x="616.162109" xlink:href="#DejaVuSans-61"/>
      <use x="677.441406" xlink:href="#DejaVuSans-67"/>
      <use x="740.917969" xlink:href="#DejaVuSans-65"/>
      <use x="802.441406" xlink:href="#DejaVuSans-20"/>
      <use x="834.228516" xlink:href="#DejaVuSans-28"/>
      <use x="873.242188" xlink:href="#DejaVuSans-34"/>
      <use x="936.865234" xlink:href="#DejaVuSans-38"/>
      <use x="1000.488281" xlink:href="#DejaVuSans-20"/>
      <use x="1032.275391" xlink:href="#DejaVuSans-73"/>
      <use x="1084.375" xlink:href="#DejaVuSans-74"/>
      <use x="1123.583984" xlink:href="#DejaVuSans-65"/>
      <use x="1185.107422" xlink:href="#DejaVuSans-70"/>
      <use x="1248.583984" xlink:href="#DejaVuSans-73"/>
      <use x="1300.683594" xlink:href="#DejaVuSans-29"/>
     </g>
    </g>
   </g>
  </g>
 </g>
 <defs>
  <clipPath id="p6360f1818a">
   <rect height="708.9" width="1252.4" x="65.3" y="14.3"/>
  </clipPath>
 </defs>
</svg>
