<?xml version="1.0" encoding="utf-8" standalone="no"?>
<!DOCTYPE svg PUBLIC "-//W3C//DTD SVG 1.1//EN"
  "http://www.w3.org/Graphics/SVG/1.1/DTD/svg11.dtd">
<!-- Created with matplotlib (http://matplotlib.org/) -->
<svg height="756pt" version="1.1" viewBox="0 0 1332 756" width="1332pt" xmlns="http://www.w3.org/2000/svg" xmlns:xlink="http://www.w3.org/1999/xlink">
 <defs>
  <style type="text/css">
*{stroke-linecap:butt;stroke-linejoin:round;}
  </style>
 </defs>
 <g id="figure_1">
  <g id="patch_1">
   <path d="M 0 756 
L 1332 756 
L 1332 0 
L 0 0 
z
" style="fill:#ffffff;"/>
  </g>
  <g id="axes_1">
   <g id="patch_2">
    <path d="M 55.925 723.2 
L 1317.7 723.2 
L 1317.7 14.3 
L 55.925 14.3 
z
" style="fill:#ffffff;"/>
   </g>
   <g id="matplotlib.axis_1">
    <g id="xtick_1">
     <g id="line2d_1">
      <defs>
       <path d="M 0 0 
L 0 3.5 
" id="mc0ace70a98" style="stroke:#000000;stroke-width:0.8;"/>
      </defs>
      <g>
       <use style="stroke:#000000;stroke-width:0.8;" x="113.278409" xlink:href="#mc0ace70a98" y="723.2"/>
      </g>
     </g>
     <g id="text_1">
      <!-- 0 -->
      <defs>
       <path d="M 31.78125 66.40625 
Q 24.171875 66.40625 20.328125 58.90625 
Q 16.5 51.421875 16.5 36.375 
Q 16.5 21.390625 20.328125 13.890625 
Q 24.171875 6.390625 31.78125 6.390625 
Q 39.453125 6.390625 43.28125 13.890625 
Q 47.125 21.390625 47.125 36.375 
Q 47.125 51.421875 43.28125 58.90625 
Q 39.453125 66.40625 31.78125 66.40625 
z
M 31.78125 74.21875 
Q 44.046875 74.21875 50.515625 64.515625 
Q 56.984375 54.828125 56.984375 36.375 
Q 56.984375 17.96875 50.515625 8.265625 
Q 44.046875 -1.421875 31.78125 -1.421875 
Q 19.53125 -1.421875 13.0625 8.265625 
Q 6.59375 17.96875 6.59375 36.375 
Q 6.59375 54.828125 13.0625 64.515625 
Q 19.53125 74.21875 31.78125 74.21875 
z
" id="DejaVuSans-30"/>
      </defs>
      <g transform="translate(108.506534 741.597656)scale(0.15 -0.15)">
       <use xlink:href="#DejaVuSans-30"/>
      </g>
     </g>
    </g>
    <g id="xtick_2">
     <g id="line2d_2">
      <g>
       <use style="stroke:#000000;stroke-width:0.8;" x="304.615887" xlink:href="#mc0ace70a98" y="723.2"/>
      </g>
     </g>
     <g id="text_2">
      <!-- 200 -->
      <defs>
       <path d="M 19.1875 8.296875 
L 53.609375 8.296875 
L 53.609375 0 
L 7.328125 0 
L 7.328125 8.296875 
Q 12.9375 14.109375 22.625 23.890625 
Q 32.328125 33.6875 34.8125 36.53125 
Q 39.546875 41.84375 41.421875 45.53125 
Q 43.3125 49.21875 43.3125 52.78125 
Q 43.3125 58.59375 39.234375 62.25 
Q 35.15625 65.921875 28.609375 65.921875 
Q 23.96875 65.921875 18.8125 64.3125 
Q 13.671875 62.703125 7.8125 59.421875 
L 7.8125 69.390625 
Q 13.765625 71.78125 18.9375 73 
Q 24.125 74.21875 28.421875 74.21875 
Q 39.75 74.21875 46.484375 68.546875 
Q 53.21875 62.890625 53.21875 53.421875 
Q 53.21875 48.921875 51.53125 44.890625 
Q 49.859375 40.875 45.40625 35.40625 
Q 44.1875 33.984375 37.640625 27.21875 
Q 31.109375 20.453125 19.1875 8.296875 
z
" id="DejaVuSans-32"/>
      </defs>
      <g transform="translate(290.300262 741.597656)scale(0.15 -0.15)">
       <use xlink:href="#DejaVuSans-32"/>
       <use x="63.623047" xlink:href="#DejaVuSans-30"/>
       <use x="127.246094" xlink:href="#DejaVuSans-30"/>
      </g>
     </g>
    </g>
    <g id="xtick_3">
     <g id="line2d_3">
      <g>
       <use style="stroke:#000000;stroke-width:0.8;" x="495.953365" xlink:href="#mc0ace70a98" y="723.2"/>
      </g>
     </g>
     <g id="text_3">
      <!-- 400 -->
      <defs>
       <path d="M 37.796875 64.3125 
L 12.890625 25.390625 
L 37.796875 25.390625 
z
M 35.203125 72.90625 
L 47.609375 72.90625 
L 47.609375 25.390625 
L 58.015625 25.390625 
L 58.015625 17.1875 
L 47.609375 17.1875 
L 47.609375 0 
L 37.796875 0 
L 37.796875 17.1875 
L 4.890625 17.1875 
L 4.890625 26.703125 
z
" id="DejaVuSans-34"/>
      </defs>
      <g transform="translate(481.63774 741.597656)scale(0.15 -0.15)">
       <use xlink:href="#DejaVuSans-34"/>
       <use x="63.623047" xlink:href="#DejaVuSans-30"/>
       <use x="127.246094" xlink:href="#DejaVuSans-30"/>
      </g>
     </g>
    </g>
    <g id="xtick_4">
     <g id="line2d_4">
      <g>
       <use style="stroke:#000000;stroke-width:0.8;" x="687.290844" xlink:href="#mc0ace70a98" y="723.2"/>
      </g>
     </g>
     <g id="text_4">
      <!-- 600 -->
      <defs>
       <path d="M 33.015625 40.375 
Q 26.375 40.375 22.484375 35.828125 
Q 18.609375 31.296875 18.609375 23.390625 
Q 18.609375 15.53125 22.484375 10.953125 
Q 26.375 6.390625 33.015625 6.390625 
Q 39.65625 6.390625 43.53125 10.953125 
Q 47.40625 15.53125 47.40625 23.390625 
Q 47.40625 31.296875 43.53125 35.828125 
Q 39.65625 40.375 33.015625 40.375 
z
M 52.59375 71.296875 
L 52.59375 62.3125 
Q 48.875 64.0625 45.09375 64.984375 
Q 41.3125 65.921875 37.59375 65.921875 
Q 27.828125 65.921875 22.671875 59.328125 
Q 17.53125 52.734375 16.796875 39.40625 
Q 19.671875 43.65625 24.015625 45.921875 
Q 28.375 48.1875 33.59375 48.1875 
Q 44.578125 48.1875 50.953125 41.515625 
Q 57.328125 34.859375 57.328125 23.390625 
Q 57.328125 12.15625 50.6875 5.359375 
Q 44.046875 -1.421875 33.015625 -1.421875 
Q 20.359375 -1.421875 13.671875 8.265625 
Q 6.984375 17.96875 6.984375 36.375 
Q 6.984375 53.65625 15.1875 63.9375 
Q 23.390625 74.21875 37.203125 74.21875 
Q 40.921875 74.21875 44.703125 73.484375 
Q 48.484375 72.75 52.59375 71.296875 
z
" id="DejaVuSans-36"/>
      </defs>
      <g transform="translate(672.975219 741.597656)scale(0.15 -0.15)">
       <use xlink:href="#DejaVuSans-36"/>
       <use x="63.623047" xlink:href="#DejaVuSans-30"/>
       <use x="127.246094" xlink:href="#DejaVuSans-30"/>
      </g>
     </g>
    </g>
    <g id="xtick_5">
     <g id="line2d_5">
      <g>
       <use style="stroke:#000000;stroke-width:0.8;" x="878.628322" xlink:href="#mc0ace70a98" y="723.2"/>
      </g>
     </g>
     <g id="text_5">
      <!-- 800 -->
      <defs>
       <path d="M 31.78125 34.625 
Q 24.75 34.625 20.71875 30.859375 
Q 16.703125 27.09375 16.703125 20.515625 
Q 16.703125 13.921875 20.71875 10.15625 
Q 24.75 6.390625 31.78125 6.390625 
Q 38.8125 6.390625 42.859375 10.171875 
Q 46.921875 13.96875 46.921875 20.515625 
Q 46.921875 27.09375 42.890625 30.859375 
Q 38.875 34.625 31.78125 34.625 
z
M 21.921875 38.8125 
Q 15.578125 40.375 12.03125 44.71875 
Q 8.5 49.078125 8.5 55.328125 
Q 8.5 64.0625 14.71875 69.140625 
Q 20.953125 74.21875 31.78125 74.21875 
Q 42.671875 74.21875 48.875 69.140625 
Q 55.078125 64.0625 55.078125 55.328125 
Q 55.078125 49.078125 51.53125 44.71875 
Q 48 40.375 41.703125 38.8125 
Q 48.828125 37.15625 52.796875 32.3125 
Q 56.78125 27.484375 56.78125 20.515625 
Q 56.78125 9.90625 50.3125 4.234375 
Q 43.84375 -1.421875 31.78125 -1.421875 
Q 19.734375 -1.421875 13.25 4.234375 
Q 6.78125 9.90625 6.78125 20.515625 
Q 6.78125 27.484375 10.78125 32.3125 
Q 14.796875 37.15625 21.921875 38.8125 
z
M 18.3125 54.390625 
Q 18.3125 48.734375 21.84375 45.5625 
Q 25.390625 42.390625 31.78125 42.390625 
Q 38.140625 42.390625 41.71875 45.5625 
Q 45.3125 48.734375 45.3125 54.390625 
Q 45.3125 60.0625 41.71875 63.234375 
Q 38.140625 66.40625 31.78125 66.40625 
Q 25.390625 66.40625 21.84375 63.234375 
Q 18.3125 60.0625 18.3125 54.390625 
z
" id="DejaVuSans-38"/>
      </defs>
      <g transform="translate(864.312697 741.597656)scale(0.15 -0.15)">
       <use xlink:href="#DejaVuSans-38"/>
       <use x="63.623047" xlink:href="#DejaVuSans-30"/>
       <use x="127.246094" xlink:href="#DejaVuSans-30"/>
      </g>
     </g>
    </g>
    <g id="xtick_6">
     <g id="line2d_6">
      <g>
       <use style="stroke:#000000;stroke-width:0.8;" x="1069.9658" xlink:href="#mc0ace70a98" y="723.2"/>
      </g>
     </g>
     <g id="text_6">
      <!-- 1000 -->
      <defs>
       <path d="M 12.40625 8.296875 
L 28.515625 8.296875 
L 28.515625 63.921875 
L 10.984375 60.40625 
L 10.984375 69.390625 
L 28.421875 72.90625 
L 38.28125 72.90625 
L 38.28125 8.296875 
L 54.390625 8.296875 
L 54.390625 0 
L 12.40625 0 
z
" id="DejaVuSans-31"/>
      </defs>
      <g transform="translate(1050.8783 741.597656)scale(0.15 -0.15)">
       <use xlink:href="#DejaVuSans-31"/>
       <use x="63.623047" xlink:href="#DejaVuSans-30"/>
       <use x="127.246094" xlink:href="#DejaVuSans-30"/>
       <use x="190.869141" xlink:href="#DejaVuSans-30"/>
      </g>
     </g>
    </g>
    <g id="xtick_7">
     <g id="line2d_7">
      <g>
       <use style="stroke:#000000;stroke-width:0.8;" x="1261.303278" xlink:href="#mc0ace70a98" y="723.2"/>
      </g>
     </g>
     <g id="text_7">
      <!-- 1200 -->
      <g transform="translate(1242.215778 741.597656)scale(0.15 -0.15)">
       <use xlink:href="#DejaVuSans-31"/>
       <use x="63.623047" xlink:href="#DejaVuSans-32"/>
       <use x="127.246094" xlink:href="#DejaVuSans-30"/>
       <use x="190.869141" xlink:href="#DejaVuSans-30"/>
      </g>
     </g>
    </g>
    <g id="text_8">
     <!-- 15-Minute Steps -->
     <defs>
      <path d="M 10.796875 72.90625 
L 49.515625 72.90625 
L 49.515625 64.59375 
L 19.828125 64.59375 
L 19.828125 46.734375 
Q 21.96875 47.46875 24.109375 47.828125 
Q 26.265625 48.1875 28.421875 48.1875 
Q 40.625 48.1875 47.75 41.5 
Q 54.890625 34.8125 54.890625 23.390625 
Q 54.890625 11.625 47.5625 5.09375 
Q 40.234375 -1.421875 26.90625 -1.421875 
Q 22.3125 -1.421875 17.546875 -0.640625 
Q 12.796875 0.140625 7.71875 1.703125 
L 7.71875 11.625 
Q 12.109375 9.234375 16.796875 8.0625 
Q 21.484375 6.890625 26.703125 6.890625 
Q 35.15625 6.890625 40.078125 11.328125 
Q 45.015625 15.765625 45.015625 23.390625 
Q 45.015625 31 40.078125 35.4375 
Q 35.15625 39.890625 26.703125 39.890625 
Q 22.75 39.890625 18.8125 39.015625 
Q 14.890625 38.140625 10.796875 36.28125 
z
" id="DejaVuSans-35"/>
      <path d="M 4.890625 31.390625 
L 31.203125 31.390625 
L 31.203125 23.390625 
L 4.890625 23.390625 
z
" id="DejaVuSans-2d"/>
      <path d="M 9.8125 72.90625 
L 24.515625 72.90625 
L 43.109375 23.296875 
L 61.8125 72.90625 
L 76.515625 72.90625 
L 76.515625 0 
L 66.890625 0 
L 66.890625 64.015625 
L 48.09375 14.015625 
L 38.1875 14.015625 
L 19.390625 64.015625 
L 19.390625 0 
L 9.8125 0 
z
" id="DejaVuSans-4d"/>
      <path d="M 9.421875 54.6875 
L 18.40625 54.6875 
L 18.40625 0 
L 9.421875 0 
z
M 9.421875 75.984375 
L 18.40625 75.984375 
L 18.40625 64.59375 
L 9.421875 64.59375 
z
" id="DejaVuSans-69"/>
      <path d="M 54.890625 33.015625 
L 54.890625 0 
L 45.90625 0 
L 45.90625 32.71875 
Q 45.90625 40.484375 42.875 44.328125 
Q 39.84375 48.1875 33.796875 48.1875 
Q 26.515625 48.1875 22.3125 43.546875 
Q 18.109375 38.921875 18.109375 30.90625 
L 18.109375 0 
L 9.078125 0 
L 9.078125 54.6875 
L 18.109375 54.6875 
L 18.109375 46.1875 
Q 21.34375 51.125 25.703125 53.5625 
Q 30.078125 56 35.796875 56 
Q 45.21875 56 50.046875 50.171875 
Q 54.890625 44.34375 54.890625 33.015625 
z
" id="DejaVuSans-6e"/>
      <path d="M 8.5 21.578125 
L 8.5 54.6875 
L 17.484375 54.6875 
L 17.484375 21.921875 
Q 17.484375 14.15625 20.5 10.265625 
Q 23.53125 6.390625 29.59375 6.390625 
Q 36.859375 6.390625 41.078125 11.03125 
Q 45.3125 15.671875 45.3125 23.6875 
L 45.3125 54.6875 
L 54.296875 54.6875 
L 54.296875 0 
L 45.3125 0 
L 45.3125 8.40625 
Q 42.046875 3.421875 37.71875 1 
Q 33.40625 -1.421875 27.6875 -1.421875 
Q 18.265625 -1.421875 13.375 4.4375 
Q 8.5 10.296875 8.5 21.578125 
z
M 31.109375 56 
z
" id="DejaVuSans-75"/>
      <path d="M 18.3125 70.21875 
L 18.3125 54.6875 
L 36.8125 54.6875 
L 36.8125 47.703125 
L 18.3125 47.703125 
L 18.3125 18.015625 
Q 18.3125 11.328125 20.140625 9.421875 
Q 21.96875 7.515625 27.59375 7.515625 
L 36.8125 7.515625 
L 36.8125 0 
L 27.59375 0 
Q 17.1875 0 13.234375 3.875 
Q 9.28125 7.765625 9.28125 18.015625 
L 9.28125 47.703125 
L 2.6875 47.703125 
L 2.6875 54.6875 
L 9.28125 54.6875 
L 9.28125 70.21875 
z
" id="DejaVuSans-74"/>
      <path d="M 56.203125 29.59375 
L 56.203125 25.203125 
L 14.890625 25.203125 
Q 15.484375 15.921875 20.484375 11.0625 
Q 25.484375 6.203125 34.421875 6.203125 
Q 39.59375 6.203125 44.453125 7.46875 
Q 49.3125 8.734375 54.109375 11.28125 
L 54.109375 2.78125 
Q 49.265625 0.734375 44.1875 -0.34375 
Q 39.109375 -1.421875 33.890625 -1.421875 
Q 20.796875 -1.421875 13.15625 6.1875 
Q 5.515625 13.8125 5.515625 26.8125 
Q 5.515625 40.234375 12.765625 48.109375 
Q 20.015625 56 32.328125 56 
Q 43.359375 56 49.78125 48.890625 
Q 56.203125 41.796875 56.203125 29.59375 
z
M 47.21875 32.234375 
Q 47.125 39.59375 43.09375 43.984375 
Q 39.0625 48.390625 32.421875 48.390625 
Q 24.90625 48.390625 20.390625 44.140625 
Q 15.875 39.890625 15.1875 32.171875 
z
" id="DejaVuSans-65"/>
      <path id="DejaVuSans-20"/>
      <path d="M 53.515625 70.515625 
L 53.515625 60.890625 
Q 47.90625 63.578125 42.921875 64.890625 
Q 37.9375 66.21875 33.296875 66.21875 
Q 25.25 66.21875 20.875 63.09375 
Q 16.5 59.96875 16.5 54.203125 
Q 16.5 49.359375 19.40625 46.890625 
Q 22.3125 44.4375 30.421875 42.921875 
L 36.375 41.703125 
Q 47.40625 39.59375 52.65625 34.296875 
Q 57.90625 29 57.90625 20.125 
Q 57.90625 9.515625 50.796875 4.046875 
Q 43.703125 -1.421875 29.984375 -1.421875 
Q 24.8125 -1.421875 18.96875 -0.25 
Q 13.140625 0.921875 6.890625 3.21875 
L 6.890625 13.375 
Q 12.890625 10.015625 18.65625 8.296875 
Q 24.421875 6.59375 29.984375 6.59375 
Q 38.421875 6.59375 43.015625 9.90625 
Q 47.609375 13.234375 47.609375 19.390625 
Q 47.609375 24.75 44.3125 27.78125 
Q 41.015625 30.8125 33.5 32.328125 
L 27.484375 33.5 
Q 16.453125 35.6875 11.515625 40.375 
Q 6.59375 45.0625 6.59375 53.421875 
Q 6.59375 63.09375 13.40625 68.65625 
Q 20.21875 74.21875 32.171875 74.21875 
Q 37.3125 74.21875 42.625 73.28125 
Q 47.953125 72.359375 53.515625 70.515625 
z
" id="DejaVuSans-53"/>
      <path d="M 18.109375 8.203125 
L 18.109375 -20.796875 
L 9.078125 -20.796875 
L 9.078125 54.6875 
L 18.109375 54.6875 
L 18.109375 46.390625 
Q 20.953125 51.265625 25.265625 53.625 
Q 29.59375 56 35.59375 56 
Q 45.5625 56 51.78125 48.09375 
Q 58.015625 40.1875 58.015625 27.296875 
Q 58.015625 14.40625 51.78125 6.484375 
Q 45.5625 -1.421875 35.59375 -1.421875 
Q 29.59375 -1.421875 25.265625 0.953125 
Q 20.953125 3.328125 18.109375 8.203125 
z
M 48.6875 27.296875 
Q 48.6875 37.203125 44.609375 42.84375 
Q 40.53125 48.484375 33.40625 48.484375 
Q 26.265625 48.484375 22.1875 42.84375 
Q 18.109375 37.203125 18.109375 27.296875 
Q 18.109375 17.390625 22.1875 11.75 
Q 26.265625 6.109375 33.40625 6.109375 
Q 40.53125 6.109375 44.609375 11.75 
Q 48.6875 17.390625 48.6875 27.296875 
z
" id="DejaVuSans-70"/>
      <path d="M 44.28125 53.078125 
L 44.28125 44.578125 
Q 40.484375 46.53125 36.375 47.5 
Q 32.28125 48.484375 27.875 48.484375 
Q 21.1875 48.484375 17.84375 46.4375 
Q 14.5 44.390625 14.5 40.28125 
Q 14.5 37.15625 16.890625 35.375 
Q 19.28125 33.59375 26.515625 31.984375 
L 29.59375 31.296875 
Q 39.15625 29.25 43.1875 25.515625 
Q 47.21875 21.78125 47.21875 15.09375 
Q 47.21875 7.46875 41.1875 3.015625 
Q 35.15625 -1.421875 24.609375 -1.421875 
Q 20.21875 -1.421875 15.453125 -0.5625 
Q 10.6875 0.296875 5.421875 2 
L 5.421875 11.28125 
Q 10.40625 8.6875 15.234375 7.390625 
Q 20.0625 6.109375 24.8125 6.109375 
Q 31.15625 6.109375 34.5625 8.28125 
Q 37.984375 10.453125 37.984375 14.40625 
Q 37.984375 18.0625 35.515625 20.015625 
Q 33.0625 21.96875 24.703125 23.78125 
L 21.578125 24.515625 
Q 13.234375 26.265625 9.515625 29.90625 
Q 5.8125 33.546875 5.8125 39.890625 
Q 5.8125 47.609375 11.28125 51.796875 
Q 16.75 56 26.8125 56 
Q 31.78125 56 36.171875 55.265625 
Q 40.578125 54.546875 44.28125 53.078125 
z
" id="DejaVuSans-73"/>
     </defs>
     <g transform="translate(645.989844 756.315625)scale(0.1 -0.1)">
      <use xlink:href="#DejaVuSans-31"/>
      <use x="63.623047" xlink:href="#DejaVuSans-35"/>
      <use x="127.246094" xlink:href="#DejaVuSans-2d"/>
      <use x="163.330078" xlink:href="#DejaVuSans-4d"/>
      <use x="249.609375" xlink:href="#DejaVuSans-69"/>
      <use x="277.392578" xlink:href="#DejaVuSans-6e"/>
      <use x="340.771484" xlink:href="#DejaVuSans-75"/>
      <use x="404.150391" xlink:href="#DejaVuSans-74"/>
      <use x="443.359375" xlink:href="#DejaVuSans-65"/>
      <use x="504.882812" xlink:href="#DejaVuSans-20"/>
      <use x="536.669922" xlink:href="#DejaVuSans-53"/>
      <use x="600.146484" xlink:href="#DejaVuSans-74"/>
      <use x="639.355469" xlink:href="#DejaVuSans-65"/>
      <use x="700.878906" xlink:href="#DejaVuSans-70"/>
      <use x="764.355469" xlink:href="#DejaVuSans-73"/>
     </g>
    </g>
   </g>
   <g id="matplotlib.axis_2">
    <g id="ytick_1">
     <g id="line2d_8">
      <defs>
       <path d="M 0 0 
L -3.5 0 
" id="m98078b2642" style="stroke:#000000;stroke-width:0.8;"/>
      </defs>
      <g>
       <use style="stroke:#000000;stroke-width:0.8;" x="55.925" xlink:href="#m98078b2642" y="691.014582"/>
      </g>
     </g>
     <g id="text_9">
      <!-- 0 -->
      <g transform="translate(39.38125 696.713411)scale(0.15 -0.15)">
       <use xlink:href="#DejaVuSans-30"/>
      </g>
     </g>
    </g>
    <g id="ytick_2">
     <g id="line2d_9">
      <g>
       <use style="stroke:#000000;stroke-width:0.8;" x="55.925" xlink:href="#m98078b2642" y="574.42178"/>
      </g>
     </g>
     <g id="text_10">
      <!-- 1000 -->
      <g transform="translate(10.75 580.120608)scale(0.15 -0.15)">
       <use xlink:href="#DejaVuSans-31"/>
       <use x="63.623047" xlink:href="#DejaVuSans-30"/>
       <use x="127.246094" xlink:href="#DejaVuSans-30"/>
       <use x="190.869141" xlink:href="#DejaVuSans-30"/>
      </g>
     </g>
    </g>
    <g id="ytick_3">
     <g id="line2d_10">
      <g>
       <use style="stroke:#000000;stroke-width:0.8;" x="55.925" xlink:href="#m98078b2642" y="457.828977"/>
      </g>
     </g>
     <g id="text_11">
      <!-- 2000 -->
      <g transform="translate(10.75 463.527805)scale(0.15 -0.15)">
       <use xlink:href="#DejaVuSans-32"/>
       <use x="63.623047" xlink:href="#DejaVuSans-30"/>
       <use x="127.246094" xlink:href="#DejaVuSans-30"/>
       <use x="190.869141" xlink:href="#DejaVuSans-30"/>
      </g>
     </g>
    </g>
    <g id="ytick_4">
     <g id="line2d_11">
      <g>
       <use style="stroke:#000000;stroke-width:0.8;" x="55.925" xlink:href="#m98078b2642" y="341.236174"/>
      </g>
     </g>
     <g id="text_12">
      <!-- 3000 -->
      <defs>
       <path d="M 40.578125 39.3125 
Q 47.65625 37.796875 51.625 33 
Q 55.609375 28.21875 55.609375 21.1875 
Q 55.609375 10.40625 48.1875 4.484375 
Q 40.765625 -1.421875 27.09375 -1.421875 
Q 22.515625 -1.421875 17.65625 -0.515625 
Q 12.796875 0.390625 7.625 2.203125 
L 7.625 11.71875 
Q 11.71875 9.328125 16.59375 8.109375 
Q 21.484375 6.890625 26.8125 6.890625 
Q 36.078125 6.890625 40.9375 10.546875 
Q 45.796875 14.203125 45.796875 21.1875 
Q 45.796875 27.640625 41.28125 31.265625 
Q 36.765625 34.90625 28.71875 34.90625 
L 20.21875 34.90625 
L 20.21875 43.015625 
L 29.109375 43.015625 
Q 36.375 43.015625 40.234375 45.921875 
Q 44.09375 48.828125 44.09375 54.296875 
Q 44.09375 59.90625 40.109375 62.90625 
Q 36.140625 65.921875 28.71875 65.921875 
Q 24.65625 65.921875 20.015625 65.03125 
Q 15.375 64.15625 9.8125 62.3125 
L 9.8125 71.09375 
Q 15.4375 72.65625 20.34375 73.4375 
Q 25.25 74.21875 29.59375 74.21875 
Q 40.828125 74.21875 47.359375 69.109375 
Q 53.90625 64.015625 53.90625 55.328125 
Q 53.90625 49.265625 50.4375 45.09375 
Q 46.96875 40.921875 40.578125 39.3125 
z
" id="DejaVuSans-33"/>
      </defs>
      <g transform="translate(10.75 346.935002)scale(0.15 -0.15)">
       <use xlink:href="#DejaVuSans-33"/>
       <use x="63.623047" xlink:href="#DejaVuSans-30"/>
       <use x="127.246094" xlink:href="#DejaVuSans-30"/>
       <use x="190.869141" xlink:href="#DejaVuSans-30"/>
      </g>
     </g>
    </g>
    <g id="ytick_5">
     <g id="line2d_12">
      <g>
       <use style="stroke:#000000;stroke-width:0.8;" x="55.925" xlink:href="#m98078b2642" y="224.643371"/>
      </g>
     </g>
     <g id="text_13">
      <!-- 4000 -->
      <g transform="translate(10.75 230.342199)scale(0.15 -0.15)">
       <use xlink:href="#DejaVuSans-34"/>
       <use x="63.623047" xlink:href="#DejaVuSans-30"/>
       <use x="127.246094" xlink:href="#DejaVuSans-30"/>
       <use x="190.869141" xlink:href="#DejaVuSans-30"/>
      </g>
     </g>
    </g>
    <g id="ytick_6">
     <g id="line2d_13">
      <g>
       <use style="stroke:#000000;stroke-width:0.8;" x="55.925" xlink:href="#m98078b2642" y="108.050568"/>
      </g>
     </g>
     <g id="text_14">
      <!-- 5000 -->
      <g transform="translate(10.75 113.749396)scale(0.15 -0.15)">
       <use xlink:href="#DejaVuSans-35"/>
       <use x="63.623047" xlink:href="#DejaVuSans-30"/>
       <use x="127.246094" xlink:href="#DejaVuSans-30"/>
       <use x="190.869141" xlink:href="#DejaVuSans-30"/>
      </g>
     </g>
    </g>
    <g id="text_15">
     <!-- Bandwidth (kbps) -->
     <defs>
      <path d="M 19.671875 34.8125 
L 19.671875 8.109375 
L 35.5 8.109375 
Q 43.453125 8.109375 47.28125 11.40625 
Q 51.125 14.703125 51.125 21.484375 
Q 51.125 28.328125 47.28125 31.5625 
Q 43.453125 34.8125 35.5 34.8125 
z
M 19.671875 64.796875 
L 19.671875 42.828125 
L 34.28125 42.828125 
Q 41.5 42.828125 45.03125 45.53125 
Q 48.578125 48.25 48.578125 53.8125 
Q 48.578125 59.328125 45.03125 62.0625 
Q 41.5 64.796875 34.28125 64.796875 
z
M 9.8125 72.90625 
L 35.015625 72.90625 
Q 46.296875 72.90625 52.390625 68.21875 
Q 58.5 63.53125 58.5 54.890625 
Q 58.5 48.1875 55.375 44.234375 
Q 52.25 40.28125 46.1875 39.3125 
Q 53.46875 37.75 57.5 32.78125 
Q 61.53125 27.828125 61.53125 20.40625 
Q 61.53125 10.640625 54.890625 5.3125 
Q 48.25 0 35.984375 0 
L 9.8125 0 
z
" id="DejaVuSans-42"/>
      <path d="M 34.28125 27.484375 
Q 23.390625 27.484375 19.1875 25 
Q 14.984375 22.515625 14.984375 16.5 
Q 14.984375 11.71875 18.140625 8.90625 
Q 21.296875 6.109375 26.703125 6.109375 
Q 34.1875 6.109375 38.703125 11.40625 
Q 43.21875 16.703125 43.21875 25.484375 
L 43.21875 27.484375 
z
M 52.203125 31.203125 
L 52.203125 0 
L 43.21875 0 
L 43.21875 8.296875 
Q 40.140625 3.328125 35.546875 0.953125 
Q 30.953125 -1.421875 24.3125 -1.421875 
Q 15.921875 -1.421875 10.953125 3.296875 
Q 6 8.015625 6 15.921875 
Q 6 25.140625 12.171875 29.828125 
Q 18.359375 34.515625 30.609375 34.515625 
L 43.21875 34.515625 
L 43.21875 35.40625 
Q 43.21875 41.609375 39.140625 45 
Q 35.0625 48.390625 27.6875 48.390625 
Q 23 48.390625 18.546875 47.265625 
Q 14.109375 46.140625 10.015625 43.890625 
L 10.015625 52.203125 
Q 14.9375 54.109375 19.578125 55.046875 
Q 24.21875 56 28.609375 56 
Q 40.484375 56 46.34375 49.84375 
Q 52.203125 43.703125 52.203125 31.203125 
z
" id="DejaVuSans-61"/>
      <path d="M 45.40625 46.390625 
L 45.40625 75.984375 
L 54.390625 75.984375 
L 54.390625 0 
L 45.40625 0 
L 45.40625 8.203125 
Q 42.578125 3.328125 38.25 0.953125 
Q 33.9375 -1.421875 27.875 -1.421875 
Q 17.96875 -1.421875 11.734375 6.484375 
Q 5.515625 14.40625 5.515625 27.296875 
Q 5.515625 40.1875 11.734375 48.09375 
Q 17.96875 56 27.875 56 
Q 33.9375 56 38.25 53.625 
Q 42.578125 51.265625 45.40625 46.390625 
z
M 14.796875 27.296875 
Q 14.796875 17.390625 18.875 11.75 
Q 22.953125 6.109375 30.078125 6.109375 
Q 37.203125 6.109375 41.296875 11.75 
Q 45.40625 17.390625 45.40625 27.296875 
Q 45.40625 37.203125 41.296875 42.84375 
Q 37.203125 48.484375 30.078125 48.484375 
Q 22.953125 48.484375 18.875 42.84375 
Q 14.796875 37.203125 14.796875 27.296875 
z
" id="DejaVuSans-64"/>
      <path d="M 4.203125 54.6875 
L 13.1875 54.6875 
L 24.421875 12.015625 
L 35.59375 54.6875 
L 46.1875 54.6875 
L 57.421875 12.015625 
L 68.609375 54.6875 
L 77.59375 54.6875 
L 63.28125 0 
L 52.6875 0 
L 40.921875 44.828125 
L 29.109375 0 
L 18.5 0 
z
" id="DejaVuSans-77"/>
      <path d="M 54.890625 33.015625 
L 54.890625 0 
L 45.90625 0 
L 45.90625 32.71875 
Q 45.90625 40.484375 42.875 44.328125 
Q 39.84375 48.1875 33.796875 48.1875 
Q 26.515625 48.1875 22.3125 43.546875 
Q 18.109375 38.921875 18.109375 30.90625 
L 18.109375 0 
L 9.078125 0 
L 9.078125 75.984375 
L 18.109375 75.984375 
L 18.109375 46.1875 
Q 21.34375 51.125 25.703125 53.5625 
Q 30.078125 56 35.796875 56 
Q 45.21875 56 50.046875 50.171875 
Q 54.890625 44.34375 54.890625 33.015625 
z
" id="DejaVuSans-68"/>
      <path d="M 31 75.875 
Q 24.46875 64.65625 21.28125 53.65625 
Q 18.109375 42.671875 18.109375 31.390625 
Q 18.109375 20.125 21.3125 9.0625 
Q 24.515625 -2 31 -13.1875 
L 23.1875 -13.1875 
Q 15.875 -1.703125 12.234375 9.375 
Q 8.59375 20.453125 8.59375 31.390625 
Q 8.59375 42.28125 12.203125 53.3125 
Q 15.828125 64.359375 23.1875 75.875 
z
" id="DejaVuSans-28"/>
      <path d="M 9.078125 75.984375 
L 18.109375 75.984375 
L 18.109375 31.109375 
L 44.921875 54.6875 
L 56.390625 54.6875 
L 27.390625 29.109375 
L 57.625 0 
L 45.90625 0 
L 18.109375 26.703125 
L 18.109375 0 
L 9.078125 0 
z
" id="DejaVuSans-6b"/>
      <path d="M 48.6875 27.296875 
Q 48.6875 37.203125 44.609375 42.84375 
Q 40.53125 48.484375 33.40625 48.484375 
Q 26.265625 48.484375 22.1875 42.84375 
Q 18.109375 37.203125 18.109375 27.296875 
Q 18.109375 17.390625 22.1875 11.75 
Q 26.265625 6.109375 33.40625 6.109375 
Q 40.53125 6.109375 44.609375 11.75 
Q 48.6875 17.390625 48.6875 27.296875 
z
M 18.109375 46.390625 
Q 20.953125 51.265625 25.265625 53.625 
Q 29.59375 56 35.59375 56 
Q 45.5625 56 51.78125 48.09375 
Q 58.015625 40.1875 58.015625 27.296875 
Q 58.015625 14.40625 51.78125 6.484375 
Q 45.5625 -1.421875 35.59375 -1.421875 
Q 29.59375 -1.421875 25.265625 0.953125 
Q 20.953125 3.328125 18.109375 8.203125 
L 18.109375 0 
L 9.078125 0 
L 9.078125 75.984375 
L 18.109375 75.984375 
z
" id="DejaVuSans-62"/>
      <path d="M 8.015625 75.875 
L 15.828125 75.875 
Q 23.140625 64.359375 26.78125 53.3125 
Q 30.421875 42.28125 30.421875 31.390625 
Q 30.421875 20.453125 26.78125 9.375 
Q 23.140625 -1.703125 15.828125 -13.1875 
L 8.015625 -13.1875 
Q 14.5 -2 17.703125 9.0625 
Q 20.90625 20.125 20.90625 31.390625 
Q 20.90625 42.671875 17.703125 53.65625 
Q 14.5 64.65625 8.015625 75.875 
z
" id="DejaVuSans-29"/>
     </defs>
     <g transform="translate(4.670312 412.707812)rotate(-90)scale(0.1 -0.1)">
      <use xlink:href="#DejaVuSans-42"/>
      <use x="68.603516" xlink:href="#DejaVuSans-61"/>
      <use x="129.882812" xlink:href="#DejaVuSans-6e"/>
      <use x="193.261719" xlink:href="#DejaVuSans-64"/>
      <use x="256.738281" xlink:href="#DejaVuSans-77"/>
      <use x="338.525391" xlink:href="#DejaVuSans-69"/>
      <use x="366.308594" xlink:href="#DejaVuSans-64"/>
      <use x="429.785156" xlink:href="#DejaVuSans-74"/>
      <use x="468.994141" xlink:href="#DejaVuSans-68"/>
      <use x="532.373047" xlink:href="#DejaVuSans-20"/>
      <use x="564.160156" xlink:href="#DejaVuSans-28"/>
      <use x="603.173828" xlink:href="#DejaVuSans-6b"/>
      <use x="661.083984" xlink:href="#DejaVuSans-62"/>
      <use x="724.560547" xlink:href="#DejaVuSans-70"/>
      <use x="788.037109" xlink:href="#DejaVuSans-73"/>
      <use x="840.136719" xlink:href="#DejaVuSans-29"/>
     </g>
    </g>
   </g>
   <g id="line2d_14">
    <path clip-path="url(#p4cee5f50cd)" d="M 113.278409 690.643561 
L 114.235096 683.360918 
L 115.191784 686.675255 
L 116.148471 689.037168 
L 117.105159 688.423634 
L 118.061846 687.179973 
L 119.018533 683.987919 
L 120.931908 688.535563 
L 121.888596 690.360625 
L 123.80197 688.002862 
L 124.758658 684.587987 
L 125.715345 684.560005 
L 126.672033 686.842111 
L 127.62872 682.72354 
L 128.585407 684.991142 
L 129.542095 685.963269 
L 130.498782 657.933322 
L 131.45547 681.645698 
L 132.412157 657.427565 
L 133.368844 665.199385 
L 134.325532 675.721757 
L 135.282219 672.461298 
L 136.238906 672.544207 
L 137.195594 663.91634 
L 138.152281 667.783082 
L 139.108969 662.262284 
L 140.065656 655.263603 
L 141.022343 677.88572 
L 141.979031 672.973269 
L 142.935718 687.730291 
L 143.892406 688.780151 
L 144.849093 689.298336 
L 145.80578 676.522878 
L 146.762468 682.889358 
L 147.719155 683.776501 
L 148.675843 686.545709 
L 149.63253 685.401548 
L 150.589217 689.896329 
L 151.545905 686.0327 
L 152.502592 690.507788 
L 153.45928 689.323206 
L 154.415967 690.81353 
L 155.372654 688.888967 
L 156.329342 690.902653 
L 157.286029 686.068972 
L 158.242716 689.125266 
L 159.199404 690.881923 
L 160.156091 690.973122 
L 161.112779 690.931673 
L 162.069466 689.750203 
L 163.026153 686.889786 
L 163.982841 689.750203 
L 165.896216 690.840474 
L 166.852903 683.287324 
L 167.80959 689.281757 
L 168.766278 689.335646 
L 169.722965 690.931673 
L 170.679653 690.72647 
L 171.63634 686.729144 
L 172.593027 689.198848 
L 173.549715 690.946177 
L 174.506402 690.804202 
L 175.46309 689.460016 
L 176.419777 689.331495 
L 177.376464 690.973122 
L 178.333152 690.960693 
L 179.289839 689.418555 
L 180.246526 689.396787 
L 181.203214 690.909905 
L 182.159901 690.57308 
L 183.116589 689.364666 
L 184.073276 688.645417 
L 185.029963 683.531913 
L 185.986651 686.860766 
L 186.943338 688.005975 
L 187.900026 688.593603 
L 188.856713 682.972267 
L 190.770088 689.975088 
L 191.726775 690.66843 
L 192.683463 687.075296 
L 193.64015 689.483847 
L 194.596837 688.249514 
L 195.553525 685.086491 
L 196.510212 689.406115 
L 197.466899 686.608925 
L 198.423587 687.609035 
L 199.380274 686.562288 
L 200.336962 689.77196 
L 201.293649 670.36988 
L 202.250336 662.728655 
L 203.207024 668.719963 
L 204.163711 671.589708 
L 205.120399 679.166678 
L 207.033773 648.447331 
L 207.990461 654.259354 
L 208.947148 677.746834 
L 209.903836 683.323608 
L 210.860523 690.844613 
L 211.81721 685.633696 
L 212.773898 690.509864 
L 213.730585 683.988957 
L 214.687273 683.815886 
L 215.64396 681.120261 
L 216.600647 679.369806 
L 217.557335 683.584776 
L 218.514022 690.960693 
L 219.470709 690.555463 
L 220.427397 686.258634 
L 221.384084 686.151881 
L 222.340772 684.044921 
L 223.297459 687.050427 
L 224.254146 679.991642 
L 225.210834 675.788075 
L 226.167521 679.078592 
L 227.124209 665.728973 
L 228.080896 678.510657 
L 229.037583 675.678222 
L 229.994271 674.135058 
L 230.950958 682.101716 
L 231.907646 684.754843 
L 232.864333 686.508399 
L 233.82102 687.955187 
L 234.777708 680.996929 
L 235.734395 682.385677 
L 236.691083 681.635344 
L 237.64777 679.483811 
L 238.604457 679.420594 
L 239.561145 686.839009 
L 240.517832 682.284113 
L 241.474519 686.537419 
L 242.431207 689.364666 
L 243.387894 678.478524 
L 244.344582 689.418555 
L 245.301269 687.73548 
L 246.257956 685.749764 
L 247.214644 687.664999 
L 248.171331 683.911236 
L 249.128019 686.296981 
L 250.084706 686.025448 
L 251.041393 683.241725 
L 251.998081 687.822528 
L 252.954768 686.131163 
L 253.911456 686.217173 
L 254.868143 687.667075 
L 255.82483 687.781079 
L 257.738205 686.048242 
L 258.694893 683.380599 
L 259.65158 687.820453 
L 260.608267 683.755771 
L 261.564955 687.021407 
L 262.521642 687.840145 
L 263.478329 684.538237 
L 264.435017 673.935031 
L 265.391704 667.455584 
L 266.348392 653.356658 
L 267.305079 655.94658 
L 268.261766 654.293551 
L 269.218454 662.874781 
L 270.175141 670.009223 
L 271.131829 655.300913 
L 272.088516 656.561153 
L 273.045203 645.828389 
L 274.958578 669.963624 
L 275.915266 646.476132 
L 276.871953 643.579454 
L 277.82864 663.076872 
L 279.742015 621.556367 
L 280.698703 631.269317 
L 281.65539 669.817498 
L 282.612077 690.515052 
L 283.568765 663.633416 
L 284.525452 661.370991 
L 285.482139 681.189692 
L 286.438827 689.249624 
L 287.395514 689.542925 
L 288.352202 690.836324 
L 289.308889 689.364666 
L 290.265576 690.877784 
L 291.222264 688.071267 
L 292.178951 690.835286 
L 293.135639 682.588805 
L 294.092326 684.137158 
L 295.049013 690.866381 
L 296.005701 687.796621 
L 296.962388 690.637335 
L 297.919076 689.418555 
L 298.875763 689.236157 
L 299.83245 690.313988 
L 300.789138 690.211386 
L 301.745825 690.688123 
L 302.702513 687.644269 
L 303.6592 685.077164 
L 304.615887 686.682507 
L 305.572575 690.794875 
L 306.529262 690.842538 
L 309.399324 690.52438 
L 310.356012 690.845651 
L 311.312699 687.326099 
L 312.269386 686.267961 
L 313.226074 685.883461 
L 314.182761 676.581944 
L 315.139449 676.462763 
L 316.096136 674.408654 
L 317.052823 677.419349 
L 318.009511 667.602748 
L 318.966198 659.170756 
L 319.922886 658.83912 
L 320.879573 666.642023 
L 321.83626 663.64792 
L 322.792948 658.759312 
L 323.749635 671.58452 
L 324.706323 665.714457 
L 325.66301 669.45683 
L 326.619697 662.728655 
L 327.576385 647.192268 
L 328.533072 658.295016 
L 329.489759 675.166251 
L 330.446447 676.816167 
L 331.403134 679.305552 
L 332.359822 673.608571 
L 333.316509 675.659567 
L 334.273196 690.890213 
L 335.229884 687.645307 
L 336.186571 690.910943 
L 337.143259 687.479489 
L 338.099946 682.637518 
L 339.056633 673.512184 
L 340.013321 675.03878 
L 340.970008 682.411584 
L 341.926696 678.412195 
L 342.883383 672.193916 
L 343.84007 673.396116 
L 344.796758 690.973122 
L 345.753445 690.805228 
L 346.710132 689.244447 
L 347.66682 690.733722 
L 348.623507 669.802982 
L 349.580195 668.317846 
L 350.536882 651.106685 
L 351.493569 653.704886 
L 352.450257 669.16354 
L 353.406944 670.252774 
L 354.363632 670.166752 
L 355.320319 656.84719 
L 356.277006 670.138769 
L 357.233694 657.410986 
L 358.190381 669.250589 
L 359.147069 669.07233 
L 360.103756 660.247561 
L 361.060443 667.574765 
L 362.017131 659.53245 
L 362.973818 673.480063 
L 363.930506 658.848447 
L 364.887193 663.28415 
L 365.84388 673.330824 
L 366.800568 667.802774 
L 367.757255 668.818426 
L 368.713942 658.235938 
L 369.67063 663.53184 
L 370.627317 667.214109 
L 371.584005 666.533207 
L 372.540692 686.30941 
L 373.497379 690.931673 
L 374.454067 689.377106 
L 375.410754 686.719817 
L 376.367442 690.707815 
L 377.324129 690.724395 
L 378.280816 686.447258 
L 379.237504 677.219322 
L 380.194191 690.836324 
L 381.150879 687.143701 
L 382.107566 689.462079 
L 383.064253 689.377106 
L 384.020941 685.0699 
L 384.977628 690.960693 
L 385.934316 690.745125 
L 386.891003 689.418555 
L 387.84769 690.869494 
L 388.804378 690.931673 
L 389.761065 688.154176 
L 390.717752 682.72354 
L 391.67444 688.371808 
L 392.631127 690.931673 
L 393.587815 690.931673 
L 394.544502 683.703957 
L 395.501189 688.154176 
L 396.457877 689.69734 
L 397.414564 687.717851 
L 398.371252 689.816521 
L 399.327939 686.506323 
L 401.241314 689.327356 
L 402.198001 689.364666 
L 403.154689 687.542705 
L 404.111376 690.331605 
L 405.068063 687.975917 
L 406.024751 690.872596 
L 406.981438 684.837752 
L 407.938126 690.7472 
L 408.894813 690.392758 
L 409.8515 687.300192 
L 410.808188 683.643842 
L 411.764875 673.17122 
L 412.721562 683.903972 
L 413.67825 686.361235 
L 414.634937 689.365704 
L 415.591625 690.806266 
L 416.548312 690.925459 
L 417.504999 688.253665 
L 418.461687 686.392331 
L 419.418374 690.90783 
L 420.375062 690.807304 
L 421.331749 690.546136 
L 422.288436 687.283613 
L 423.245124 689.005036 
L 424.201811 690.973122 
L 425.158499 689.501464 
L 426.115186 690.896439 
L 428.028561 690.862231 
L 428.985248 688.357304 
L 429.941936 688.904509 
L 430.898623 690.786574 
L 431.85531 690.960693 
L 432.811998 690.935812 
L 433.768685 689.460016 
L 434.725372 690.806266 
L 435.68206 689.542925 
L 436.638747 690.973122 
L 437.595435 689.460016 
L 438.552122 690.94929 
L 439.508809 690.955505 
L 440.465497 689.542925 
L 441.422184 690.973122 
L 442.378872 690.878822 
L 443.335559 690.380318 
L 444.292246 690.346121 
L 445.248934 690.973122 
L 446.205621 690.865344 
L 447.162309 688.357304 
L 448.118996 690.896439 
L 449.075683 690.973122 
L 450.032371 690.550287 
L 450.989058 690.848764 
L 451.945746 689.027841 
L 452.902433 690.38757 
L 453.85912 690.703664 
L 455.772495 690.4083 
L 456.729182 686.665927 
L 457.68587 686.59856 
L 458.642557 689.949181 
L 459.599245 687.154066 
L 460.555932 688.438138 
L 461.512619 688.53245 
L 462.469307 684.874024 
L 463.425994 688.158315 
L 464.382682 689.351188 
L 465.339369 685.354911 
L 466.296056 687.507471 
L 467.252744 685.882424 
L 468.209431 690.787611 
L 469.166119 688.141736 
L 470.122806 685.114474 
L 471.079493 687.499181 
L 472.036181 687.909588 
L 472.992868 689.284858 
L 473.949556 686.574728 
L 474.906243 667.7095 
L 475.86293 674.493639 
L 476.819618 672.037425 
L 477.776305 679.619583 
L 478.732992 673.707034 
L 479.68968 683.547466 
L 480.646367 676.825495 
L 481.603055 679.990605 
L 482.559742 670.176079 
L 483.516429 670.559541 
L 484.473117 683.543316 
L 485.429804 683.315307 
L 486.386492 688.244337 
L 487.343179 688.698268 
L 488.299866 682.712137 
L 489.256554 684.735151 
L 490.213241 685.913519 
L 491.169929 685.797439 
L 492.126616 686.36745 
L 493.083303 690.337831 
L 494.039991 688.717961 
L 494.996678 548.125695 
L 495.953365 644.222008 
L 496.910053 678.679577 
L 497.86674 684.385897 
L 498.823428 653.084099 
L 499.780115 671.992851 
L 500.736802 676.354985 
L 501.69349 605.931894 
L 502.650177 661.525418 
L 503.606865 643.863415 
L 504.563552 610.674365 
L 505.520239 656.842013 
L 506.476927 679.861058 
L 507.433614 682.937033 
L 508.390302 685.19842 
L 509.346989 690.94929 
L 510.303676 687.988346 
L 511.260364 686.131163 
L 512.217051 690.765855 
L 513.173739 690.919233 
L 514.130426 686.33843 
L 515.087113 690.824921 
L 516.043801 690.521267 
L 517.000488 690.526443 
L 517.957175 686.715678 
L 518.913863 689.536699 
L 519.87055 690.848764 
L 520.827238 690.906804 
L 521.783925 690.841512 
L 522.740612 690.973122 
L 524.653987 690.973122 
L 525.610675 689.79269 
L 526.567362 690.955505 
L 528.480737 690.960693 
L 530.394112 688.073331 
L 531.350799 685.568404 
L 532.307486 687.843258 
L 533.264174 690.417627 
L 534.220861 689.625834 
L 535.177549 686.578879 
L 536.134236 686.072085 
L 537.090923 687.597632 
L 538.047611 689.447575 
L 539.004298 689.501464 
L 539.960985 690.973122 
L 540.917673 689.460016 
L 541.87436 690.879848 
L 542.831048 690.819744 
L 543.787735 684.029379 
L 545.70111 688.701381 
L 546.657797 680.888113 
L 547.614485 683.204415 
L 548.571172 689.353263 
L 549.527859 686.392331 
L 550.484547 687.587267 
L 552.397922 677.025521 
L 553.354609 680.29012 
L 554.311296 690.854979 
L 555.267984 689.199885 
L 556.224671 675.18283 
L 557.181359 676.053394 
L 558.138046 679.800943 
L 559.094733 675.140344 
L 560.051421 660.971987 
L 561.008108 674.71232 
L 561.964795 680.326392 
L 562.921483 669.20085 
L 563.87817 675.859593 
L 564.834858 689.245485 
L 565.791545 674.663608 
L 566.748232 683.221006 
L 567.70492 685.930099 
L 568.661607 690.680871 
L 569.618295 690.919233 
L 570.574982 683.555756 
L 571.531669 678.274359 
L 572.488357 674.528873 
L 573.445044 690.872596 
L 574.401732 688.080594 
L 575.358419 683.670787 
L 576.315106 682.133837 
L 577.271794 675.065725 
L 578.228481 590.243166 
L 579.185169 646.688587 
L 580.141856 684.317492 
L 581.098543 683.117367 
L 582.055231 679.598853 
L 583.011918 684.458441 
L 583.968605 683.70292 
L 584.925293 683.58684 
L 585.88198 688.195625 
L 586.838668 689.292122 
L 587.795355 690.214499 
L 588.752042 688.696204 
L 589.70873 690.863268 
L 590.665417 684.547564 
L 591.622105 680.90573 
L 592.578792 685.83061 
L 593.535479 676.154958 
L 594.492167 685.536271 
L 595.448854 683.040672 
L 596.405542 682.583629 
L 597.362229 687.181011 
L 598.318916 689.809269 
L 599.275604 689.058936 
L 600.232291 689.077591 
L 601.188979 687.868127 
L 602.145666 690.189618 
L 603.102353 688.846469 
L 604.059041 690.393796 
L 605.015728 688.807096 
L 605.972415 689.18537 
L 606.929103 689.358452 
L 607.88579 690.134692 
L 608.842478 690.516078 
L 609.799165 686.026486 
L 610.755852 689.637237 
L 611.71254 687.559285 
L 612.669227 685.213962 
L 613.625915 684.571408 
L 614.582602 686.51255 
L 615.539289 690.917157 
L 616.495977 690.623868 
L 617.452664 690.973122 
L 618.409352 683.750594 
L 619.366039 685.86792 
L 621.279414 690.890213 
L 622.236101 687.756198 
L 623.192788 690.512977 
L 624.149476 688.2433 
L 625.106163 683.919526 
L 626.062851 684.979739 
L 627.019538 690.271502 
L 627.976225 690.37928 
L 628.932913 678.539666 
L 629.8896 690.836324 
L 630.846288 688.457831 
L 631.802975 684.678148 
L 632.759662 686.540532 
L 633.71635 690.881923 
L 635.629725 684.57866 
L 636.586412 684.398326 
L 637.543099 687.863988 
L 638.499787 688.542815 
L 639.456474 680.73161 
L 640.413162 678.45158 
L 641.369849 686.467976 
L 642.326536 689.354301 
L 643.283224 690.554426 
L 644.239911 685.36734 
L 645.196598 684.049072 
L 646.153286 690.645636 
L 647.109973 690.766893 
L 648.066661 687.712674 
L 649.023348 690.048681 
L 649.980035 689.307664 
L 650.936723 686.153957 
L 651.89341 681.548285 
L 652.850098 689.099347 
L 653.806785 687.899223 
L 654.763472 679.994744 
L 655.72016 686.570578 
L 656.676847 678.427736 
L 657.633535 687.863988 
L 658.590222 688.700344 
L 659.546909 684.511292 
L 660.503597 687.647382 
L 662.416972 681.313024 
L 663.373659 689.394724 
L 664.330346 687.92928 
L 665.287034 685.080265 
L 666.243721 628.659714 
L 667.200408 650.05475 
L 668.157096 682.640631 
L 669.113783 678.762498 
L 670.070471 646.676158 
L 671.027158 684.133019 
L 671.983845 648.470125 
L 672.940533 598.48032 
L 673.89722 677.976919 
L 674.853908 675.888613 
L 675.810595 677.76964 
L 676.767282 635.246951 
L 677.72397 687.855699 
L 678.680657 686.499071 
L 679.637345 679.925313 
L 680.594032 665.685449 
L 681.550719 689.122153 
L 682.507407 685.364239 
L 683.464094 677.211032 
L 684.420782 686.130125 
L 685.377469 686.840047 
L 686.334156 681.499572 
L 687.290844 681.180364 
L 688.247531 661.249734 
L 689.204218 687.905437 
L 690.160906 689.149098 
L 691.117593 689.321142 
L 692.074281 690.871558 
L 693.030968 690.888149 
L 693.987655 688.238123 
L 694.944343 690.179265 
L 695.90103 683.482174 
L 696.857718 690.809379 
L 697.814405 687.566548 
L 698.771092 688.068154 
L 699.72778 686.802737 
L 700.684467 679.459979 
L 701.641155 689.543962 
L 702.597842 689.352226 
L 703.554529 681.508899 
L 704.511217 687.73548 
L 705.467904 687.440104 
L 706.424592 688.688941 
L 707.381279 653.642707 
L 708.337966 687.92928 
L 709.294654 690.263212 
L 710.251341 690.873633 
L 711.208028 690.782434 
L 712.164716 687.654634 
L 713.121403 687.884719 
L 714.078091 688.44539 
L 715.034778 668.083623 
L 715.991465 690.960693 
L 717.90484 687.453582 
L 718.861528 690.913018 
L 719.818215 689.172929 
L 720.774902 689.249624 
L 721.73159 690.862231 
L 722.688277 685.12794 
L 723.644965 685.12794 
L 724.601652 690.919233 
L 725.558339 690.853941 
L 726.515027 686.35087 
L 727.471714 689.300412 
L 728.428402 689.383321 
L 729.385089 690.308811 
L 730.341776 689.418555 
L 731.298464 683.166068 
L 732.255151 688.684802 
L 733.211838 690.931673 
L 734.168526 667.675292 
L 735.125213 683.745406 
L 736.081901 689.011262 
L 737.038588 682.734943 
L 737.995275 682.143164 
L 738.951963 689.376069 
L 739.90865 686.282465 
L 740.865338 479.903877 
L 741.822025 306.032399 
L 742.778712 173.960223 
L 743.7354 219.285279 
L 744.692087 100.882956 
L 745.648775 259.674063 
L 746.605462 679.945005 
L 747.562149 614.36181 
L 748.518837 687.991459 
L 749.475524 686.259671 
L 750.432212 687.308482 
L 751.388899 687.772789 
L 752.345586 686.927095 
L 753.302274 687.036949 
L 754.258961 688.594629 
L 755.215648 690.797976 
L 756.172336 571.899224 
L 757.129023 396.25036 
L 758.085711 667.117722 
L 759.042398 675.823321 
L 759.999085 681.590771 
L 760.955773 689.184332 
L 761.91246 689.198848 
L 762.869148 690.272539 
L 763.825835 688.60293 
L 764.782522 690.720256 
L 765.73921 683.150526 
L 766.695897 684.128868 
L 767.652585 685.873096 
L 768.609272 685.489634 
L 769.565959 684.291585 
L 770.522647 673.206454 
L 771.479334 683.345364 
L 772.436021 689.188483 
L 773.392709 690.594848 
L 774.349396 690.256986 
L 775.306084 690.973122 
L 776.262771 686.267961 
L 777.219458 689.365704 
L 778.176146 679.328358 
L 779.132833 689.381246 
L 780.089521 686.288691 
L 781.046208 685.611928 
L 782.002895 676.308347 
L 782.959583 686.229614 
L 783.91627 690.817669 
L 784.872958 664.930954 
L 785.829645 678.71171 
L 786.786332 682.247841 
L 787.74302 689.332533 
L 788.699707 684.143384 
L 789.656395 683.822101 
L 790.613082 688.158315 
L 791.569769 682.444755 
L 792.526457 680.827997 
L 793.483144 688.676512 
L 794.439831 687.212106 
L 795.396519 687.035923 
L 796.353206 683.123582 
L 797.309894 682.547357 
L 798.266581 687.178936 
L 799.223268 684.589025 
L 801.136643 690.558576 
L 802.093331 690.492247 
L 803.050018 687.398655 
L 804.006705 674.855333 
L 804.963393 686.342581 
L 805.92008 687.452544 
L 806.876768 690.922346 
L 807.833455 683.241725 
L 808.790142 690.923384 
L 809.74683 686.996538 
L 811.660205 687.091888 
L 812.616892 689.230969 
L 813.573579 683.182659 
L 814.530267 690.902653 
L 815.486954 683.768211 
L 816.443641 687.664999 
L 817.400329 652.343082 
L 818.357016 630.37596 
L 819.313704 629.447368 
L 820.270391 682.454082 
L 821.227078 685.741475 
L 822.183766 680.589635 
L 823.140453 682.179436 
L 824.097141 682.274786 
L 825.053828 680.484958 
L 826.010515 665.755918 
L 826.967203 686.317711 
L 827.92389 690.768956 
L 828.880578 689.42477 
L 829.837265 688.848545 
L 830.793952 651.53781 
L 831.75064 686.914666 
L 832.707327 682.341116 
L 833.664015 665.944541 
L 834.620702 678.206991 
L 835.577389 677.349906 
L 836.534077 689.164639 
L 837.490764 686.35087 
L 838.447451 677.986246 
L 839.404139 679.081694 
L 840.360826 671.93171 
L 842.274201 681.43428 
L 843.230888 683.013728 
L 844.187576 633.919343 
L 845.144263 609.191304 
L 846.100951 626.106075 
L 847.057638 686.366412 
L 848.014325 688.896219 
L 848.971013 690.574118 
L 849.9277 649.943858 
L 850.884388 674.785902 
L 852.797762 690.150245 
L 853.75445 675.89379 
L 854.711137 690.704702 
L 855.667825 675.478207 
L 856.624512 677.256632 
L 857.581199 689.278644 
L 858.537887 687.519911 
L 859.494574 689.452752 
L 860.451261 680.776184 
L 862.364636 686.636907 
L 863.321324 690.716105 
L 864.278011 689.826887 
L 866.191386 685.590172 
L 867.148073 684.842941 
L 868.104761 679.988529 
L 869.061448 687.129197 
L 870.018135 681.815667 
L 870.974823 687.464984 
L 871.93151 676.795437 
L 872.888198 679.259953 
L 873.844885 686.409948 
L 874.801572 687.905437 
L 875.75826 684.959009 
L 876.714947 685.193232 
L 877.671635 689.262064 
L 877.671635 689.262064 
" style="fill:none;stroke:#000000;stroke-linecap:square;stroke-width:1.5;"/>
   </g>
   <g id="line2d_15">
    <path clip-path="url(#p4cee5f50cd)" d="M 878.628322 688.266105 
L 879.585009 673.945396 
L 880.541697 690.914056 
L 881.498384 688.533488 
L 882.455071 684.682299 
L 883.411759 690.804202 
L 884.368446 689.884926 
L 885.325134 687.818389 
L 886.281821 690.189618 
L 887.238508 680.138806 
L 888.195196 689.391611 
L 889.151883 685.391183 
L 890.108571 689.239259 
L 891.065258 689.625834 
L 892.021945 672.816778 
L 892.978633 677.132262 
L 893.93532 689.220604 
L 894.892008 690.973122 
L 895.848695 689.405089 
L 896.805382 682.153529 
L 897.76207 679.656893 
L 898.718757 690.888149 
L 900.632132 690.871558 
L 901.588819 689.701491 
L 902.545507 681.080876 
L 903.502194 689.243409 
L 904.458881 690.670505 
L 905.415569 688.904509 
L 906.372256 690.795901 
L 907.328944 689.269316 
L 908.285631 676.971632 
L 909.242318 690.977273 
L 910.199006 689.460016 
L 911.155693 690.973122 
L 912.112381 690.877784 
L 913.069068 683.898795 
L 914.025755 685.086491 
L 914.982443 682.544244 
L 915.93913 684.550677 
L 916.895818 690.266313 
L 917.852505 675.306162 
L 918.809192 687.863988 
L 919.76588 690.766893 
L 920.722567 690.959656 
L 921.679254 686.016121 
L 922.635942 676.930172 
L 923.592629 685.246084 
L 924.549317 687.988346 
L 925.506004 683.60757 
L 926.462691 686.485605 
L 927.419379 679.533561 
L 928.376066 678.179009 
L 929.332754 681.708926 
L 930.289441 680.717106 
L 931.246128 682.598133 
L 932.202816 678.911736 
L 933.159503 689.649665 
L 934.116191 690.6477 
L 935.072878 690.66014 
L 936.029565 688.92939 
L 936.986253 673.650032 
L 937.94294 680.736799 
L 938.899628 690.890213 
L 939.856315 689.641376 
L 940.813002 683.863561 
L 941.76969 689.667283 
L 942.726377 688.025656 
L 943.683064 688.172831 
L 944.639752 684.259452 
L 945.596439 681.355522 
L 946.553127 689.004009 
L 947.509814 690.331605 
L 948.466501 684.93414 
L 949.423189 688.762522 
L 950.379876 690.711954 
L 951.336564 690.402085 
L 952.293251 689.308701 
L 953.249938 687.026596 
L 954.206626 679.900443 
L 956.120001 689.725323 
L 957.076688 689.406115 
L 958.033375 689.489036 
L 958.990063 685.401548 
L 959.94675 687.998711 
L 960.903438 682.229186 
L 961.860125 682.568087 
L 962.816812 690.890213 
L 963.7735 689.460016 
L 964.730187 689.299374 
L 965.686874 689.397825 
L 966.643562 689.903581 
L 967.600249 690.850839 
L 968.556937 689.38746 
L 969.513624 690.572043 
L 971.426999 687.984207 
L 972.383686 690.973122 
L 973.340374 690.952403 
L 974.297061 690.376167 
L 975.253748 688.8216 
L 976.210436 690.898503 
L 977.167123 690.960693 
L 978.123811 690.662216 
L 979.080498 689.406115 
L 980.037185 689.414416 
L 981.95056 679.528372 
L 982.907248 687.799734 
L 984.820622 690.973122 
L 985.77731 690.926485 
L 986.733997 687.899223 
L 987.690684 690.931673 
L 988.647372 690.807304 
L 989.604059 687.787294 
L 990.560747 668.512684 
L 991.517434 686.92502 
L 992.474121 686.366412 
L 993.430809 690.960693 
L 994.387496 690.633196 
L 995.344184 690.1233 
L 996.300871 687.719926 
L 997.257558 671.926522 
L 998.214246 674.48121 
L 999.170933 684.225255 
L 1000.127621 690.728545 
L 1001.084308 688.955297 
L 1002.040995 685.335219 
L 1003.95437 690.559614 
L 1005.867745 690.615579 
L 1006.824432 689.232007 
L 1007.78112 686.431704 
L 1008.737807 686.244118 
L 1009.694494 681.877857 
L 1010.651182 690.607289 
L 1011.607869 689.138732 
L 1013.521244 689.265177 
L 1014.477931 690.393796 
L 1015.434619 690.401048 
L 1016.391306 689.492137 
L 1017.347994 690.091167 
L 1018.304681 689.149098 
L 1019.261368 685.268889 
L 1020.218056 689.42477 
L 1021.174743 689.302487 
L 1022.131431 685.229504 
L 1023.088118 683.987919 
L 1024.044805 690.754452 
L 1025.001493 689.394724 
L 1025.95818 689.300412 
L 1026.914868 685.97466 
L 1027.871555 681.52134 
L 1028.828242 682.543206 
L 1029.78493 690.199983 
L 1030.741617 690.03209 
L 1031.698304 686.478341 
L 1032.654992 684.989066 
L 1033.611679 688.767711 
L 1034.568367 686.218211 
L 1035.525054 688.549029 
L 1036.481741 685.694838 
L 1037.438429 690.193769 
L 1038.395116 688.412231 
L 1039.351804 690.516078 
L 1040.308491 689.29316 
L 1041.265178 685.022225 
L 1042.221866 689.397825 
L 1043.178553 687.642206 
L 1044.135241 690.889175 
L 1045.091928 690.879848 
L 1046.048615 688.752169 
L 1047.005303 690.771032 
L 1047.96199 687.988346 
L 1048.918677 687.781079 
L 1049.875365 690.973122 
L 1049.875365 690.973122 
" style="fill:none;stroke:#1f77b4;stroke-linecap:square;stroke-width:1.5;"/>
   </g>
   <g id="line2d_16">
    <path clip-path="url(#p4cee5f50cd)" d="M 1050.832052 689.394724 
L 1051.78874 687.801798 
L 1052.745427 689.261027 
L 1053.702114 690.973122 
L 1054.658802 689.377106 
L 1055.615489 690.842538 
L 1056.572177 690.973122 
L 1057.528864 687.59038 
L 1058.485551 690.977273 
L 1059.442239 690.757565 
L 1060.398926 689.249624 
L 1061.355614 689.542925 
L 1062.312301 690.363738 
L 1063.268988 687.765526 
L 1064.225676 690.931673 
L 1065.182363 689.418555 
L 1066.139051 689.377106 
L 1067.095738 690.973122 
L 1068.052425 690.857054 
L 1069.009113 690.931673 
" style="fill:none;stroke:#ff7f0e;stroke-linecap:square;stroke-width:1.5;"/>
   </g>
   <g id="line2d_17">
    <path clip-path="url(#p4cee5f50cd)" d="M 1069.9658 689.460016 
L 1070.922487 685.231579 
L 1071.879175 690.931673 
L 1072.835862 690.858092 
L 1073.79255 688.92939 
L 1074.749237 687.428701 
L 1075.705924 689.12733 
L 1076.662612 686.001605 
L 1077.619299 688.246413 
L 1078.575987 689.791652 
L 1079.532674 690.973122 
L 1080.489361 690.931673 
L 1081.446049 686.35087 
L 1083.359424 672.982596 
L 1084.316111 677.19549 
L 1085.272798 662.33793 
L 1086.229486 666.561189 
L 1087.186173 661.80109 
L 1088.142861 676.861767 
L 1089.099548 681.570052 
L 1090.056235 687.661886 
L 1091.012923 676.227502 
L 1092.926297 689.892178 
L 1093.882985 686.927095 
L 1094.839672 682.776391 
L 1095.79636 680.969984 
L 1096.753047 689.426845 
L 1097.709734 687.903373 
L 1098.666422 689.237195 
L 1099.623109 689.298336 
L 1100.579797 690.694337 
L 1101.536484 684.731012 
L 1102.493171 687.154066 
L 1103.449859 685.09892 
L 1104.406546 677.861877 
L 1105.363234 684.821173 
L 1106.319921 685.935287 
L 1107.276608 689.26414 
L 1108.233296 686.013008 
L 1109.189983 674.440787 
L 1110.146671 684.738264 
L 1111.103358 686.202669 
L 1112.060045 690.422804 
L 1113.016733 687.172721 
L 1113.97342 690.474629 
L 1114.930107 680.711929 
L 1115.886795 684.593164 
L 1116.843482 690.828034 
L 1117.80017 683.105964 
L 1118.756857 690.973122 
L 1119.713544 680.176115 
L 1120.670232 673.327711 
L 1121.626919 690.423842 
L 1122.583607 685.778784 
L 1123.540294 685.806767 
L 1124.496981 689.175004 
L 1125.453669 688.857872 
L 1126.410356 686.883571 
L 1127.367044 687.6194 
L 1128.323731 671.96073 
L 1129.280418 676.041991 
L 1130.237106 689.460016 
L 1131.193793 689.331495 
L 1132.150481 687.198628 
L 1133.107168 685.958081 
L 1134.063855 690.745125 
L 1135.020543 690.762742 
L 1135.97723 689.191584 
L 1136.933917 690.848764 
L 1137.890605 690.955505 
L 1138.847292 685.681371 
L 1139.80398 689.201949 
L 1140.760667 689.819634 
L 1141.717354 690.771032 
L 1142.674042 689.133556 
L 1143.630729 686.132189 
L 1144.587417 689.294186 
L 1145.544104 689.364666 
L 1146.500791 684.980777 
L 1147.457479 684.661569 
L 1148.414166 689.318029 
L 1149.370854 688.905547 
L 1150.327541 690.556501 
L 1151.284228 690.794875 
L 1152.240916 687.525088 
L 1153.197603 690.802127 
L 1154.154291 689.201949 
L 1155.110978 690.608326 
L 1156.067665 689.166715 
L 1157.024353 690.880885 
L 1158.937727 690.881923 
L 1162.764477 690.917157 
L 1163.721164 690.592773 
L 1164.677852 690.558576 
L 1165.634539 690.973122 
L 1166.591227 690.877784 
L 1167.547914 689.418555 
L 1168.504601 690.922346 
L 1169.461289 689.382283 
L 1170.417976 689.460016 
L 1171.374664 690.611428 
L 1172.331351 687.662924 
L 1173.288038 689.208175 
L 1174.244726 689.227868 
L 1175.201413 690.509864 
L 1176.158101 685.120688 
L 1177.114788 688.801908 
L 1178.071475 689.097284 
L 1179.028163 684.090521 
L 1179.98485 685.846152 
L 1180.941537 689.883889 
L 1181.898225 687.031772 
L 1182.854912 684.713394 
L 1183.8116 686.276251 
L 1184.768287 684.618045 
L 1185.724974 686.424452 
L 1186.681662 686.587169 
L 1187.638349 689.301449 
L 1188.595037 689.750203 
L 1189.551724 685.86792 
L 1190.508411 689.10246 
L 1191.465099 685.560115 
L 1192.421786 673.395078 
L 1193.378474 664.311205 
L 1194.335161 682.235401 
L 1195.291848 675.528983 
L 1196.248536 687.877455 
L 1198.16191 671.232153 
L 1199.118598 672.730756 
L 1200.075285 681.401121 
L 1201.031973 679.786439 
L 1201.98866 684.239759 
L 1202.945347 677.539567 
L 1203.902035 676.56744 
L 1204.858722 686.391293 
L 1205.81541 688.261955 
L 1206.772097 687.819427 
L 1207.728784 689.353263 
L 1208.685472 682.613686 
L 1209.642159 685.376667 
L 1210.598847 678.621549 
L 1211.555534 682.031235 
L 1212.512221 687.05354 
L 1213.468909 687.060792 
L 1214.425596 675.608791 
L 1215.382284 688.237085 
L 1216.338971 686.433779 
L 1217.295658 687.905437 
L 1218.252346 682.94636 
L 1219.209033 681.173112 
L 1220.16572 675.100959 
L 1221.122408 676.209885 
L 1222.079095 681.620829 
L 1223.035783 683.508081 
L 1223.99247 684.957971 
L 1224.949157 46.522727 
L 1225.905845 111.296512 
L 1226.862532 83.279005 
L 1227.81922 95.669963 
L 1228.775907 65.1268 
L 1229.732594 487.954482 
L 1230.689282 689.542925 
L 1231.645969 690.858092 
L 1232.602657 689.321142 
L 1233.559344 686.913629 
L 1234.516031 690.615579 
L 1235.472719 690.927523 
L 1236.429406 690.845651 
L 1237.386094 690.883998 
L 1238.342781 689.031992 
L 1239.299468 690.806266 
L 1240.256156 688.84233 
L 1241.212843 689.356376 
L 1242.16953 690.877784 
L 1243.126218 690.863268 
L 1244.082905 688.958398 
L 1245.039593 690.58137 
L 1245.99628 690.302585 
L 1247.909655 684.877137 
L 1248.866342 685.948753 
L 1251.736404 690.915094 
L 1253.649779 690.927523 
L 1254.606467 690.555463 
L 1255.563154 690.831147 
L 1256.519841 690.973122 
L 1257.476529 686.258634 
L 1258.433216 686.192304 
L 1259.389904 689.337721 
L 1260.346591 687.885745 
L 1260.346591 687.885745 
" style="fill:none;stroke:#2ca02c;stroke-linecap:square;stroke-width:1.5;"/>
   </g>
   <g id="line2d_18">
    <path clip-path="url(#p4cee5f50cd)" d="M 158.242716 681.809236 
L 159.199404 681.814202 
L 161.112779 682.061465 
L 164.939528 682.228301 
L 165.896216 682.323712 
L 167.80959 682.191898 
L 169.722965 682.256045 
L 171.63634 682.429121 
L 172.593027 682.478219 
L 174.506402 682.77063 
L 175.46309 682.843479 
L 176.419777 683.497607 
L 177.376464 683.691929 
L 178.333152 684.390536 
L 179.289839 684.895102 
L 181.203214 685.564344 
L 182.159901 685.939946 
L 184.073276 686.904751 
L 185.029963 687.347868 
L 185.986651 688.006142 
L 186.943338 688.216981 
L 187.900026 688.542405 
L 189.8134 688.399578 
L 190.770088 688.413677 
L 191.726775 688.708376 
L 194.596837 688.949982 
L 200.336962 688.805601 
L 201.293649 688.419787 
L 202.250336 687.832829 
L 206.077086 686.278366 
L 207.990461 684.653883 
L 209.903836 684.329517 
L 210.860523 684.341976 
L 211.81721 684.233501 
L 212.773898 684.383971 
L 215.64396 683.954305 
L 216.600647 683.717707 
L 218.514022 683.688905 
L 220.427397 683.586066 
L 223.297459 683.325286 
L 226.167521 682.597834 
L 227.124209 682.073231 
L 229.994271 681.234497 
L 235.734395 680.985658 
L 239.561145 680.364327 
L 240.517832 680.240047 
L 242.431207 680.269412 
L 243.387894 680.100028 
L 245.301269 680.162168 
L 246.257956 680.078372 
L 250.084706 681.546924 
L 251.041393 681.63182 
L 251.998081 682.149816 
L 253.911456 683.600684 
L 254.868143 683.807356 
L 255.82483 683.90022 
L 258.694893 683.679794 
L 263.478329 684.077634 
L 264.435017 683.722933 
L 265.391704 683.241686 
L 268.261766 681.307131 
L 269.218454 680.803471 
L 270.175141 680.595504 
L 274.001891 678.84808 
L 274.958578 678.729026 
L 275.915266 678.152798 
L 276.871953 677.350251 
L 277.82864 676.898627 
L 278.785328 676.001726 
L 279.742015 674.618417 
L 280.698703 673.582425 
L 281.65539 673.320588 
L 282.612077 673.505582 
L 284.525452 672.799332 
L 285.482139 672.681638 
L 287.395514 672.889368 
L 288.352202 672.920027 
L 289.308889 673.146822 
L 297.919076 673.50854 
L 302.702513 673.786009 
L 304.615887 673.834568 
L 308.442637 674.182555 
L 309.399324 674.307266 
L 311.312699 675.07354 
L 313.226074 676.382877 
L 314.182761 676.847218 
L 315.139449 677.130301 
L 316.096136 677.221956 
L 317.052823 677.682757 
L 318.966198 678.190756 
L 320.879573 678.148631 
L 322.792948 678.822624 
L 323.749635 678.999867 
L 324.706323 679.463561 
L 325.66301 680.461487 
L 326.619697 681.11689 
L 327.576385 680.645531 
L 328.533072 679.97428 
L 330.446447 680.536322 
L 331.403134 680.497069 
L 333.316509 679.881977 
L 337.143259 679.835642 
L 341.926696 678.914559 
L 343.84007 678.19652 
L 346.710132 678.222796 
L 347.66682 678.223746 
L 349.580195 677.5029 
L 351.493569 675.989029 
L 354.363632 674.681463 
L 355.320319 673.979855 
L 356.277006 673.548461 
L 357.233694 672.92523 
L 360.103756 671.88017 
L 361.060443 671.695003 
L 362.017131 671.385082 
L 364.887193 671.206328 
L 365.84388 671.508239 
L 368.713942 671.629236 
L 369.67063 671.461472 
L 371.584005 671.431806 
L 372.540692 671.923072 
L 373.497379 672.834309 
L 374.454067 673.481853 
L 378.280816 674.517327 
L 381.150879 674.538249 
L 383.064253 674.547598 
L 384.020941 674.598273 
L 385.934316 675.288999 
L 386.891003 675.434977 
L 387.84769 675.694504 
L 389.761065 676.392334 
L 390.717752 676.220468 
L 392.631127 676.204922 
L 393.587815 676.209046 
L 394.544502 676.498649 
L 395.501189 676.911906 
L 397.414564 678.424482 
L 399.327939 679.193368 
L 400.284626 679.561564 
L 401.241314 680.238234 
L 402.198001 680.638773 
L 403.154689 681.266517 
L 405.068063 682.09953 
L 406.024751 682.737552 
L 406.981438 683.097197 
L 407.938126 683.747504 
L 408.894813 684.099852 
L 409.8515 684.692597 
L 410.808188 685.116757 
L 411.764875 685.113432 
L 413.67825 685.814349 
L 415.591625 687.031103 
L 417.504999 687.977599 
L 424.201811 688.075472 
L 425.158499 688.33135 
L 428.985248 688.418276 
L 430.898623 688.494536 
L 435.68206 688.527592 
L 436.638747 688.699459 
L 442.378872 688.927981 
L 449.075683 689.233735 
L 451.945746 689.259709 
L 452.902433 689.37533 
L 455.772495 689.443731 
L 456.729182 689.506691 
L 457.68587 689.786428 
L 459.599245 689.928887 
L 461.512619 689.862191 
L 462.469307 689.73612 
L 465.339369 689.68009 
L 467.252744 689.514183 
L 469.166119 689.569198 
L 471.079493 689.405428 
L 473.949556 689.220737 
L 474.906243 688.790574 
L 480.646367 687.09009 
L 481.603055 686.891083 
L 483.516429 686.064052 
L 485.429804 685.75059 
L 487.343179 685.676143 
L 489.256554 685.388396 
L 492.126616 685.094518 
L 494.039991 685.090394 
L 494.996678 682.114405 
L 495.953365 681.149233 
L 496.910053 680.895708 
L 497.86674 680.799001 
L 498.823428 680.021845 
L 500.736802 679.335028 
L 501.69349 677.575103 
L 502.650177 677.051342 
L 503.606865 676.161026 
L 504.563552 674.509468 
L 505.520239 673.877967 
L 507.433614 673.582706 
L 512.217051 673.703272 
L 513.173739 673.808206 
L 514.130426 673.715514 
L 519.87055 674.01654 
L 520.827238 674.499817 
L 524.653987 675.831133 
L 525.610675 675.961242 
L 528.480737 676.917433 
L 529.437424 677.311193 
L 531.350799 677.452507 
L 533.264174 677.479972 
L 535.177549 677.662418 
L 539.004298 677.74997 
L 539.960985 677.796953 
L 540.917673 680.741418 
L 541.87436 681.713456 
L 542.831048 681.966376 
L 543.787735 681.958949 
L 544.744422 682.650884 
L 545.70111 682.998978 
L 546.657797 683.093418 
L 547.614485 684.703263 
L 548.571172 685.283009 
L 549.527859 686.169029 
L 550.484547 687.771381 
L 551.441234 688.295336 
L 553.354609 688.181118 
L 554.311296 688.298963 
L 555.267984 688.262517 
L 559.094733 687.228619 
L 560.051421 686.700152 
L 561.008108 686.364473 
L 561.964795 686.152079 
L 562.921483 685.707796 
L 563.87817 685.481628 
L 564.834858 685.475561 
L 565.791545 685.13837 
L 567.70492 684.875928 
L 569.618295 684.868717 
L 571.531669 684.474223 
L 572.488357 684.132002 
L 574.401732 684.069905 
L 577.271794 683.606751 
L 578.228481 681.573416 
L 579.185169 680.662394 
L 585.88198 679.978664 
L 592.578792 679.96355 
L 594.492167 679.737166 
L 596.405542 679.563097 
L 597.362229 679.671205 
L 599.275604 680.120216 
L 601.188979 680.055442 
L 603.102353 680.634606 
L 605.015728 681.140015 
L 605.972415 681.727793 
L 609.799165 682.893138 
L 610.755852 682.9013 
L 611.71254 683.16996 
L 613.625915 683.183174 
L 615.539289 683.09629 
L 616.495977 683.243543 
L 618.409352 683.700219 
L 620.322726 683.601051 
L 622.236101 683.868588 
L 623.192788 684.190406 
L 624.149476 686.232075 
L 625.106163 687.00772 
L 626.062851 687.021516 
L 627.976225 687.395153 
L 628.932913 687.271845 
L 630.846288 687.521937 
L 633.71635 687.405236 
L 634.673037 687.386818 
L 635.629725 687.255889 
L 636.586412 687.25278 
L 638.499787 687.454248 
L 639.456474 687.549595 
L 640.413162 687.401997 
L 644.239911 687.592194 
L 645.196598 687.487822 
L 649.023348 687.554324 
L 650.936723 687.476422 
L 651.89341 687.317316 
L 653.806785 687.265346 
L 654.763472 687.046152 
L 655.72016 687.057487 
L 656.676847 686.823956 
L 661.460284 686.788373 
L 662.416972 686.594397 
L 663.373659 686.561514 
L 665.287034 686.63216 
L 666.243721 685.38913 
L 667.200408 684.538391 
L 668.157096 684.431817 
L 669.113783 684.187015 
L 670.070471 683.321033 
L 671.027158 683.325481 
L 671.983845 682.564864 
L 672.940533 680.652548 
L 673.89722 680.394165 
L 674.853908 680.338935 
L 675.810595 680.066712 
L 676.767282 678.958152 
L 678.680657 679.023488 
L 679.637345 678.795225 
L 680.594032 678.334252 
L 682.507407 678.449031 
L 683.464094 678.227094 
L 684.420782 678.17683 
L 686.334156 678.367589 
L 687.290844 678.25743 
L 688.247531 677.671918 
L 689.204218 677.616731 
L 692.074281 677.810059 
L 694.944343 677.826253 
L 695.90103 677.704889 
L 698.771092 677.905774 
L 701.641155 677.933735 
L 702.597842 678.161328 
L 703.554529 678.028931 
L 705.467904 678.069846 
L 706.424592 678.091545 
L 707.381279 677.451948 
L 708.337966 677.589786 
L 710.251341 677.669221 
L 711.208028 677.788016 
L 712.164716 679.017077 
L 713.121403 679.805201 
L 714.078091 679.926133 
L 715.034778 679.703657 
L 715.991465 680.626251 
L 716.948153 680.733344 
L 717.90484 681.545499 
L 718.861528 683.471181 
L 721.73159 684.255548 
L 722.688277 685.294735 
L 723.644965 685.237907 
L 724.601652 685.329993 
L 725.558339 685.557673 
L 726.515027 685.988203 
L 728.428402 686.075647 
L 729.385089 686.348518 
L 730.341776 686.417027 
L 731.298464 686.340485 
L 734.168526 686.827196 
L 739.90865 686.346358 
L 740.865338 681.965621 
L 741.822025 674.102084 
L 744.692087 641.345508 
L 745.648775 632.446994 
L 746.605462 632.457099 
L 747.562149 630.890804 
L 748.518837 630.862455 
L 750.432212 630.952534 
L 752.345586 630.922759 
L 753.302274 631.618473 
L 755.215648 631.643475 
L 756.172336 629.164842 
L 757.129023 623.028757 
L 758.085711 622.600904 
L 759.999085 622.206821 
L 760.955773 622.646419 
L 762.869148 622.630528 
L 764.782522 622.650457 
L 767.652585 622.314367 
L 769.565959 622.304478 
L 770.522647 621.935462 
L 771.479334 621.779033 
L 774.349396 621.883319 
L 777.219458 621.960681 
L 778.176146 621.765755 
L 779.132833 621.733454 
L 780.089521 622.121233 
L 781.046208 622.160119 
L 782.002895 621.895475 
L 783.91627 622.149 
L 784.872958 621.639726 
L 785.829645 621.482002 
L 786.786332 625.697502 
L 787.74302 633.682921 
L 791.569769 675.032213 
L 792.526457 675.050609 
L 793.483144 676.598832 
L 796.353206 676.511582 
L 797.309894 676.402719 
L 801.136643 676.329244 
L 802.093331 678.799932 
L 803.050018 684.865521 
L 806.876768 685.404202 
L 807.833455 685.280095 
L 809.74683 685.260188 
L 810.703517 685.183452 
L 812.616892 685.371858 
L 813.573579 685.315807 
L 814.530267 685.428578 
L 815.486954 685.417675 
L 816.443641 685.718894 
L 817.400329 685.073013 
L 819.313704 682.573847 
L 823.140453 682.034281 
L 824.097141 682.095665 
L 825.053828 681.910326 
L 826.010515 681.48256 
L 826.967203 681.497263 
L 827.92389 681.798526 
L 829.837265 681.824069 
L 830.793952 681.545045 
L 831.75064 681.71594 
L 832.707327 681.717883 
L 833.664015 681.230633 
L 835.577389 680.972121 
L 838.447451 681.01526 
L 839.404139 680.815368 
L 841.317514 680.287095 
L 843.230888 680.261617 
L 844.187576 679.152042 
L 845.144263 677.581256 
L 846.100951 676.302147 
L 848.014325 676.18156 
L 848.971013 676.247715 
L 849.9277 675.728726 
L 850.884388 675.487962 
L 853.75445 675.217143 
L 854.711137 675.212587 
L 856.624512 674.768865 
L 859.494574 674.909402 
L 860.451261 674.698434 
L 862.364636 674.677339 
L 863.321324 675.476777 
L 865.234698 677.927493 
L 867.148073 677.974109 
L 868.104761 677.961586 
L 869.061448 678.064706 
L 870.018135 678.055141 
L 871.93151 678.430548 
L 873.844885 678.192699 
L 875.75826 678.080014 
L 876.714947 678.781169 
L 878.628322 678.95351 
L 880.541697 679.384925 
L 881.498384 679.617916 
L 882.455071 679.524534 
L 883.411759 679.617312 
L 886.281821 680.427589 
L 889.151883 680.709139 
L 890.108571 681.861637 
L 891.065258 683.537357 
L 892.021945 684.510496 
L 892.978633 684.318118 
L 894.892008 684.333189 
L 895.848695 685.155298 
L 896.805382 685.30879 
L 898.718757 685.263405 
L 899.675444 685.576176 
L 900.632132 685.579652 
L 901.588819 685.875971 
L 904.458881 686.020546 
L 905.415569 686.009124 
L 907.328944 686.332151 
L 908.285631 686.130791 
L 911.155693 686.19822 
L 912.112381 686.308379 
L 913.069068 686.288709 
L 914.025755 686.394917 
L 914.982443 686.299397 
L 921.679254 686.739384 
L 923.592629 686.483571 
L 924.549317 686.477784 
L 925.506004 686.679079 
L 927.419379 686.399321 
L 931.246128 685.7746 
L 932.202816 685.539644 
L 933.159503 685.737787 
L 936.029565 685.86727 
L 936.986253 685.53444 
L 937.94294 685.699441 
L 938.899628 685.986065 
L 939.856315 685.994831 
L 940.813002 685.846715 
L 941.76969 685.852177 
L 943.683064 686.151929 
L 946.553127 685.775939 
L 954.206626 685.874697 
L 955.163313 685.7442 
L 962.816812 685.745257 
L 963.7735 686.040129 
L 967.600249 686.120233 
L 968.556937 686.37976 
L 971.426999 686.607871 
L 972.383686 686.701361 
L 976.210436 687.553655 
L 979.080498 687.967602 
L 980.993873 687.815838 
L 981.95056 687.619983 
L 983.863935 688.096696 
L 986.733997 688.209273 
L 989.604059 688.285534 
L 990.560747 687.957476 
L 991.517434 688.073507 
L 993.430809 688.031663 
L 995.344184 688.178743 
L 996.300871 688.116409 
L 998.214246 687.422595 
L 999.170933 687.364234 
L 1000.127621 687.58982 
L 1001.084308 687.678193 
L 1002.997683 687.554496 
L 1004.911058 687.684821 
L 1006.824432 687.885231 
L 1007.78112 687.965723 
L 1010.651182 687.738216 
L 1021.174743 687.585199 
L 1024.044805 687.323751 
L 1030.741617 687.277222 
L 1034.568367 686.983235 
L 1035.525054 686.999104 
L 1036.481741 687.357066 
L 1039.351804 687.458523 
L 1042.221866 687.35929 
L 1044.135241 688.028532 
L 1045.091928 688.16717 
L 1047.005303 688.163823 
L 1049.875365 688.226092 
L 1053.702114 688.237859 
L 1054.658802 688.30313 
L 1055.615489 688.489894 
L 1067.095738 688.619139 
L 1069.009113 688.881041 
L 1071.879175 688.801326 
L 1075.705924 689.136833 
L 1076.662612 689.052865 
L 1079.532674 689.235699 
L 1080.489361 689.333896 
L 1082.402736 689.157496 
L 1083.359424 688.79893 
L 1084.316111 688.565248 
L 1086.229486 687.50462 
L 1087.186173 687.020847 
L 1088.142861 686.759679 
L 1090.056235 686.56594 
L 1091.012923 686.260683 
L 1092.926297 686.123017 
L 1094.839672 685.996643 
L 1095.79636 685.788245 
L 1100.579797 685.783084 
L 1102.493171 685.576197 
L 1103.449859 685.524292 
L 1104.406546 685.251055 
L 1106.319921 685.058331 
L 1108.233296 684.961883 
L 1109.189983 684.684284 
L 1111.103358 684.488257 
L 1113.016733 684.430867 
L 1113.97342 684.4229 
L 1115.886795 684.108596 
L 1116.843482 684.225189 
L 1117.80017 684.062153 
L 1118.756857 684.06455 
L 1121.626919 683.61543 
L 1125.453669 683.503047 
L 1128.323731 683.289618 
L 1129.280418 683.353355 
L 1130.237106 683.608866 
L 1131.193793 684.171232 
L 1134.063855 685.393686 
L 1135.020543 685.585201 
L 1135.97723 685.617069 
L 1136.933917 685.921679 
L 1137.890605 686.086938 
L 1138.847292 685.999213 
L 1140.760667 686.19334 
L 1141.717354 686.397529 
L 1145.544104 686.357088 
L 1146.500791 686.238055 
L 1148.414166 686.281691 
L 1149.370854 686.360996 
L 1150.327541 686.625467 
L 1152.240916 686.78304 
L 1154.154291 686.881518 
L 1155.110978 687.218342 
L 1158.937727 687.49594 
L 1159.894415 687.504598 
L 1161.80779 687.84818 
L 1162.764477 687.850037 
L 1163.721164 688.006012 
L 1164.677852 687.997376 
L 1165.634539 688.222313 
L 1166.591227 688.58794 
L 1167.547914 688.566996 
L 1169.461289 688.748644 
L 1173.288038 688.84045 
L 1175.201413 689.501596 
L 1177.114788 689.40016 
L 1179.028163 689.400808 
L 1180.941537 689.280437 
L 1182.854912 689.10762 
L 1184.768287 688.987983 
L 1188.595037 688.845006 
L 1191.465099 688.756245 
L 1192.421786 688.514876 
L 1193.378474 688.09091 
L 1194.335161 687.943356 
L 1195.291848 687.664677 
L 1196.248536 687.608864 
L 1198.16191 687.026375 
L 1199.118598 686.649888 
L 1201.98866 686.159269 
L 1203.902035 685.58207 
L 1206.772097 685.368922 
L 1207.728784 685.33742 
L 1212.512221 684.541113 
L 1213.468909 684.491993 
L 1214.425596 684.172961 
L 1217.295658 684.029681 
L 1219.209033 683.764022 
L 1221.122408 683.171795 
L 1223.99247 682.902358 
L 1225.905845 657.649911 
L 1228.775907 619.784218 
L 1229.732594 615.652514 
L 1232.602657 615.904441 
L 1234.516031 615.872724 
L 1237.386094 616.125363 
L 1238.342781 616.451132 
L 1239.299468 617.003112 
L 1240.256156 617.140757 
L 1241.212843 617.428827 
L 1242.16953 617.491334 
L 1243.126218 617.735812 
L 1245.039593 618.476997 
L 1246.952967 618.823126 
L 1247.909655 618.836405 
L 1250.779717 619.304589 
L 1254.606467 619.622585 
L 1255.563154 619.73622 
L 1256.519841 619.993545 
L 1258.433216 620.063673 
L 1259.389904 620.111109 
L 1260.346591 620.366879 
L 1260.346591 620.366879 
" style="fill:none;stroke:#ff0000;stroke-linecap:square;stroke-width:1.5;"/>
   </g>
   <g id="patch_3">
    <path d="M 55.925 723.2 
L 55.925 14.3 
" style="fill:none;stroke:#000000;stroke-linecap:square;stroke-linejoin:miter;stroke-width:0.8;"/>
   </g>
   <g id="patch_4">
    <path d="M 1317.7 723.2 
L 1317.7 14.3 
" style="fill:none;stroke:#000000;stroke-linecap:square;stroke-linejoin:miter;stroke-width:0.8;"/>
   </g>
   <g id="patch_5">
    <path d="M 55.925 723.2 
L 1317.7 723.2 
" style="fill:none;stroke:#000000;stroke-linecap:square;stroke-linejoin:miter;stroke-width:0.8;"/>
   </g>
   <g id="patch_6">
    <path d="M 55.925 14.3 
L 1317.7 14.3 
" style="fill:none;stroke:#000000;stroke-linecap:square;stroke-linejoin:miter;stroke-width:0.8;"/>
   </g>
   <g id="legend_1">
    <g id="patch_7">
     <path d="M 62.925 95.690625 
L 228.898438 95.690625 
Q 230.898438 95.690625 230.898438 93.690625 
L 230.898438 21.3 
Q 230.898438 19.3 228.898438 19.3 
L 62.925 19.3 
Q 60.925 19.3 60.925 21.3 
L 60.925 93.690625 
Q 60.925 95.690625 62.925 95.690625 
z
" style="fill:#ffffff;opacity:0.8;stroke:#cccccc;stroke-linejoin:miter;"/>
    </g>
    <g id="line2d_19">
     <path d="M 64.925 27.398437 
L 84.925 27.398437 
" style="fill:none;stroke:#000000;stroke-linecap:square;stroke-width:1.5;"/>
    </g>
    <g id="line2d_20"/>
    <g id="text_16">
     <!-- Unused Data -->
     <defs>
      <path d="M 8.6875 72.90625 
L 18.609375 72.90625 
L 18.609375 28.609375 
Q 18.609375 16.890625 22.84375 11.734375 
Q 27.09375 6.59375 36.625 6.59375 
Q 46.09375 6.59375 50.34375 11.734375 
Q 54.59375 16.890625 54.59375 28.609375 
L 54.59375 72.90625 
L 64.5 72.90625 
L 64.5 27.390625 
Q 64.5 13.140625 57.4375 5.859375 
Q 50.390625 -1.421875 36.625 -1.421875 
Q 22.796875 -1.421875 15.734375 5.859375 
Q 8.6875 13.140625 8.6875 27.390625 
z
" id="DejaVuSans-55"/>
      <path d="M 19.671875 64.796875 
L 19.671875 8.109375 
L 31.59375 8.109375 
Q 46.6875 8.109375 53.6875 14.9375 
Q 60.6875 21.78125 60.6875 36.53125 
Q 60.6875 51.171875 53.6875 57.984375 
Q 46.6875 64.796875 31.59375 64.796875 
z
M 9.8125 72.90625 
L 30.078125 72.90625 
Q 51.265625 72.90625 61.171875 64.09375 
Q 71.09375 55.28125 71.09375 36.53125 
Q 71.09375 17.671875 61.125 8.828125 
Q 51.171875 0 30.078125 0 
L 9.8125 0 
z
" id="DejaVuSans-44"/>
     </defs>
     <g transform="translate(92.925 30.898437)scale(0.1 -0.1)">
      <use xlink:href="#DejaVuSans-55"/>
      <use x="73.193359" xlink:href="#DejaVuSans-6e"/>
      <use x="136.572266" xlink:href="#DejaVuSans-75"/>
      <use x="199.951172" xlink:href="#DejaVuSans-73"/>
      <use x="252.050781" xlink:href="#DejaVuSans-65"/>
      <use x="313.574219" xlink:href="#DejaVuSans-64"/>
      <use x="377.050781" xlink:href="#DejaVuSans-20"/>
      <use x="408.837891" xlink:href="#DejaVuSans-44"/>
      <use x="485.839844" xlink:href="#DejaVuSans-61"/>
      <use x="547.119141" xlink:href="#DejaVuSans-74"/>
      <use x="586.328125" xlink:href="#DejaVuSans-61"/>
     </g>
    </g>
    <g id="line2d_21">
     <path d="M 64.925 42.076562 
L 84.925 42.076562 
" style="fill:none;stroke:#1f77b4;stroke-linecap:square;stroke-width:1.5;"/>
    </g>
    <g id="line2d_22"/>
    <g id="text_17">
     <!-- Training Data -->
     <defs>
      <path d="M -0.296875 72.90625 
L 61.375 72.90625 
L 61.375 64.59375 
L 35.5 64.59375 
L 35.5 0 
L 25.59375 0 
L 25.59375 64.59375 
L -0.296875 64.59375 
z
" id="DejaVuSans-54"/>
      <path d="M 41.109375 46.296875 
Q 39.59375 47.171875 37.8125 47.578125 
Q 36.03125 48 33.890625 48 
Q 26.265625 48 22.1875 43.046875 
Q 18.109375 38.09375 18.109375 28.8125 
L 18.109375 0 
L 9.078125 0 
L 9.078125 54.6875 
L 18.109375 54.6875 
L 18.109375 46.1875 
Q 20.953125 51.171875 25.484375 53.578125 
Q 30.03125 56 36.53125 56 
Q 37.453125 56 38.578125 55.875 
Q 39.703125 55.765625 41.0625 55.515625 
z
" id="DejaVuSans-72"/>
      <path d="M 45.40625 27.984375 
Q 45.40625 37.75 41.375 43.109375 
Q 37.359375 48.484375 30.078125 48.484375 
Q 22.859375 48.484375 18.828125 43.109375 
Q 14.796875 37.75 14.796875 27.984375 
Q 14.796875 18.265625 18.828125 12.890625 
Q 22.859375 7.515625 30.078125 7.515625 
Q 37.359375 7.515625 41.375 12.890625 
Q 45.40625 18.265625 45.40625 27.984375 
z
M 54.390625 6.78125 
Q 54.390625 -7.171875 48.1875 -13.984375 
Q 42 -20.796875 29.203125 -20.796875 
Q 24.46875 -20.796875 20.265625 -20.09375 
Q 16.0625 -19.390625 12.109375 -17.921875 
L 12.109375 -9.1875 
Q 16.0625 -11.328125 19.921875 -12.34375 
Q 23.78125 -13.375 27.78125 -13.375 
Q 36.625 -13.375 41.015625 -8.765625 
Q 45.40625 -4.15625 45.40625 5.171875 
L 45.40625 9.625 
Q 42.625 4.78125 38.28125 2.390625 
Q 33.9375 0 27.875 0 
Q 17.828125 0 11.671875 7.65625 
Q 5.515625 15.328125 5.515625 27.984375 
Q 5.515625 40.671875 11.671875 48.328125 
Q 17.828125 56 27.875 56 
Q 33.9375 56 38.28125 53.609375 
Q 42.625 51.21875 45.40625 46.390625 
L 45.40625 54.6875 
L 54.390625 54.6875 
z
" id="DejaVuSans-67"/>
     </defs>
     <g transform="translate(92.925 45.576562)scale(0.1 -0.1)">
      <use xlink:href="#DejaVuSans-54"/>
      <use x="60.865234" xlink:href="#DejaVuSans-72"/>
      <use x="101.978516" xlink:href="#DejaVuSans-61"/>
      <use x="163.257812" xlink:href="#DejaVuSans-69"/>
      <use x="191.041016" xlink:href="#DejaVuSans-6e"/>
      <use x="254.419922" xlink:href="#DejaVuSans-69"/>
      <use x="282.203125" xlink:href="#DejaVuSans-6e"/>
      <use x="345.582031" xlink:href="#DejaVuSans-67"/>
      <use x="409.058594" xlink:href="#DejaVuSans-20"/>
      <use x="440.845703" xlink:href="#DejaVuSans-44"/>
      <use x="517.847656" xlink:href="#DejaVuSans-61"/>
      <use x="579.126953" xlink:href="#DejaVuSans-74"/>
      <use x="618.335938" xlink:href="#DejaVuSans-61"/>
     </g>
    </g>
    <g id="line2d_23">
     <path d="M 64.925 56.754687 
L 84.925 56.754687 
" style="fill:none;stroke:#ff7f0e;stroke-linecap:square;stroke-width:1.5;"/>
    </g>
    <g id="line2d_24"/>
    <g id="text_18">
     <!-- Validation Data -->
     <defs>
      <path d="M 28.609375 0 
L 0.78125 72.90625 
L 11.078125 72.90625 
L 34.1875 11.53125 
L 57.328125 72.90625 
L 67.578125 72.90625 
L 39.796875 0 
z
" id="DejaVuSans-56"/>
      <path d="M 9.421875 75.984375 
L 18.40625 75.984375 
L 18.40625 0 
L 9.421875 0 
z
" id="DejaVuSans-6c"/>
      <path d="M 30.609375 48.390625 
Q 23.390625 48.390625 19.1875 42.75 
Q 14.984375 37.109375 14.984375 27.296875 
Q 14.984375 17.484375 19.15625 11.84375 
Q 23.34375 6.203125 30.609375 6.203125 
Q 37.796875 6.203125 41.984375 11.859375 
Q 46.1875 17.53125 46.1875 27.296875 
Q 46.1875 37.015625 41.984375 42.703125 
Q 37.796875 48.390625 30.609375 48.390625 
z
M 30.609375 56 
Q 42.328125 56 49.015625 48.375 
Q 55.71875 40.765625 55.71875 27.296875 
Q 55.71875 13.875 49.015625 6.21875 
Q 42.328125 -1.421875 30.609375 -1.421875 
Q 18.84375 -1.421875 12.171875 6.21875 
Q 5.515625 13.875 5.515625 27.296875 
Q 5.515625 40.765625 12.171875 48.375 
Q 18.84375 56 30.609375 56 
z
" id="DejaVuSans-6f"/>
     </defs>
     <g transform="translate(92.925 60.254687)scale(0.1 -0.1)">
      <use xlink:href="#DejaVuSans-56"/>
      <use x="68.298828" xlink:href="#DejaVuSans-61"/>
      <use x="129.578125" xlink:href="#DejaVuSans-6c"/>
      <use x="157.361328" xlink:href="#DejaVuSans-69"/>
      <use x="185.144531" xlink:href="#DejaVuSans-64"/>
      <use x="248.621094" xlink:href="#DejaVuSans-61"/>
      <use x="309.900391" xlink:href="#DejaVuSans-74"/>
      <use x="349.109375" xlink:href="#DejaVuSans-69"/>
      <use x="376.892578" xlink:href="#DejaVuSans-6f"/>
      <use x="438.074219" xlink:href="#DejaVuSans-6e"/>
      <use x="501.453125" xlink:href="#DejaVuSans-20"/>
      <use x="533.240234" xlink:href="#DejaVuSans-44"/>
      <use x="610.242188" xlink:href="#DejaVuSans-61"/>
      <use x="671.521484" xlink:href="#DejaVuSans-74"/>
      <use x="710.730469" xlink:href="#DejaVuSans-61"/>
     </g>
    </g>
    <g id="line2d_25">
     <path d="M 64.925 71.432812 
L 84.925 71.432812 
" style="fill:none;stroke:#2ca02c;stroke-linecap:square;stroke-width:1.5;"/>
    </g>
    <g id="line2d_26"/>
    <g id="text_19">
     <!-- Testing Data -->
     <g transform="translate(92.925 74.932812)scale(0.1 -0.1)">
      <use xlink:href="#DejaVuSans-54"/>
      <use x="60.818359" xlink:href="#DejaVuSans-65"/>
      <use x="122.341797" xlink:href="#DejaVuSans-73"/>
      <use x="174.441406" xlink:href="#DejaVuSans-74"/>
      <use x="213.650391" xlink:href="#DejaVuSans-69"/>
      <use x="241.433594" xlink:href="#DejaVuSans-6e"/>
      <use x="304.8125" xlink:href="#DejaVuSans-67"/>
      <use x="368.289062" xlink:href="#DejaVuSans-20"/>
      <use x="400.076172" xlink:href="#DejaVuSans-44"/>
      <use x="477.078125" xlink:href="#DejaVuSans-61"/>
      <use x="538.357422" xlink:href="#DejaVuSans-74"/>
      <use x="577.566406" xlink:href="#DejaVuSans-61"/>
     </g>
    </g>
    <g id="line2d_27">
     <path d="M 64.925 86.110937 
L 84.925 86.110937 
" style="fill:none;stroke:#ff0000;stroke-linecap:square;stroke-width:1.5;"/>
    </g>
    <g id="line2d_28"/>
    <g id="text_20">
     <!-- Moving average (48 steps) -->
     <defs>
      <path d="M 2.984375 54.6875 
L 12.5 54.6875 
L 29.59375 8.796875 
L 46.6875 54.6875 
L 56.203125 54.6875 
L 35.6875 0 
L 23.484375 0 
z
" id="DejaVuSans-76"/>
     </defs>
     <g transform="translate(92.925 89.610937)scale(0.1 -0.1)">
      <use xlink:href="#DejaVuSans-4d"/>
      <use x="86.279297" xlink:href="#DejaVuSans-6f"/>
      <use x="147.460938" xlink:href="#DejaVuSans-76"/>
      <use x="206.640625" xlink:href="#DejaVuSans-69"/>
      <use x="234.423828" xlink:href="#DejaVuSans-6e"/>
      <use x="297.802734" xlink:href="#DejaVuSans-67"/>
      <use x="361.279297" xlink:href="#DejaVuSans-20"/>
      <use x="393.066406" xlink:href="#DejaVuSans-61"/>
      <use x="454.345703" xlink:href="#DejaVuSans-76"/>
      <use x="513.525391" xlink:href="#DejaVuSans-65"/>
      <use x="575.048828" xlink:href="#DejaVuSans-72"/>
      <use x="616.162109" xlink:href="#DejaVuSans-61"/>
      <use x="677.441406" xlink:href="#DejaVuSans-67"/>
      <use x="740.917969" xlink:href="#DejaVuSans-65"/>
      <use x="802.441406" xlink:href="#DejaVuSans-20"/>
      <use x="834.228516" xlink:href="#DejaVuSans-28"/>
      <use x="873.242188" xlink:href="#DejaVuSans-34"/>
      <use x="936.865234" xlink:href="#DejaVuSans-38"/>
      <use x="1000.488281" xlink:href="#DejaVuSans-20"/>
      <use x="1032.275391" xlink:href="#DejaVuSans-73"/>
      <use x="1084.375" xlink:href="#DejaVuSans-74"/>
      <use x="1123.583984" xlink:href="#DejaVuSans-65"/>
      <use x="1185.107422" xlink:href="#DejaVuSans-70"/>
      <use x="1248.583984" xlink:href="#DejaVuSans-73"/>
      <use x="1300.683594" xlink:href="#DejaVuSans-29"/>
     </g>
    </g>
   </g>
  </g>
 </g>
 <defs>
  <clipPath id="p4cee5f50cd">
   <rect height="708.9" width="1261.775" x="55.925" y="14.3"/>
  </clipPath>
 </defs>
</svg>
