<?xml version="1.0" encoding="utf-8" standalone="no"?>
<!DOCTYPE svg PUBLIC "-//W3C//DTD SVG 1.1//EN"
  "http://www.w3.org/Graphics/SVG/1.1/DTD/svg11.dtd">
<!-- Created with matplotlib (http://matplotlib.org/) -->
<svg height="820pt" version="1.1" viewBox="0 0 1440 820" width="1440pt" xmlns="http://www.w3.org/2000/svg" xmlns:xlink="http://www.w3.org/1999/xlink">
 <defs>
  <style type="text/css">
*{stroke-linecap:butt;stroke-linejoin:round;}
  </style>
 </defs>
 <g id="figure_1">
  <g id="patch_1">
   <path d="M 0 820.8 
L 1440 820.8 
L 1440 0 
L 0 0 
z
" style="fill:#ffffff;"/>
  </g>
  <g id="axes_1">
   <g id="patch_2">
    <path d="M 120.175 756 
L 1425.7 756 
L 1425.7 14.3 
L 120.175 14.3 
z
" style="fill:#ffffff;"/>
   </g>
   <g id="matplotlib.axis_1">
    <g id="xtick_1">
     <g id="line2d_1">
      <defs>
       <path d="M 0 0 
L 0 3.5 
" id="m17d440848d" style="stroke:#000000;stroke-width:0.8;"/>
      </defs>
      <g>
       <use style="stroke:#000000;stroke-width:0.8;" x="179.517045" xlink:href="#m17d440848d" y="756"/>
      </g>
     </g>
     <g id="text_1">
      <!-- 0 -->
      <defs>
       <path d="M 31.78125 66.40625 
Q 24.171875 66.40625 20.328125 58.90625 
Q 16.5 51.421875 16.5 36.375 
Q 16.5 21.390625 20.328125 13.890625 
Q 24.171875 6.390625 31.78125 6.390625 
Q 39.453125 6.390625 43.28125 13.890625 
Q 47.125 21.390625 47.125 36.375 
Q 47.125 51.421875 43.28125 58.90625 
Q 39.453125 66.40625 31.78125 66.40625 
z
M 31.78125 74.21875 
Q 44.046875 74.21875 50.515625 64.515625 
Q 56.984375 54.828125 56.984375 36.375 
Q 56.984375 17.96875 50.515625 8.265625 
Q 44.046875 -1.421875 31.78125 -1.421875 
Q 19.53125 -1.421875 13.0625 8.265625 
Q 6.59375 17.96875 6.59375 36.375 
Q 6.59375 54.828125 13.0625 64.515625 
Q 19.53125 74.21875 31.78125 74.21875 
z
" id="DejaVuSans-30"/>
      </defs>
      <g transform="translate(171.56392 781.996094)scale(0.25 -0.25)">
       <use xlink:href="#DejaVuSans-30"/>
      </g>
     </g>
    </g>
    <g id="xtick_2">
     <g id="line2d_2">
      <g>
       <use style="stroke:#000000;stroke-width:0.8;" x="377.48884" xlink:href="#m17d440848d" y="756"/>
      </g>
     </g>
     <g id="text_2">
      <!-- 200 -->
      <defs>
       <path d="M 19.1875 8.296875 
L 53.609375 8.296875 
L 53.609375 0 
L 7.328125 0 
L 7.328125 8.296875 
Q 12.9375 14.109375 22.625 23.890625 
Q 32.328125 33.6875 34.8125 36.53125 
Q 39.546875 41.84375 41.421875 45.53125 
Q 43.3125 49.21875 43.3125 52.78125 
Q 43.3125 58.59375 39.234375 62.25 
Q 35.15625 65.921875 28.609375 65.921875 
Q 23.96875 65.921875 18.8125 64.3125 
Q 13.671875 62.703125 7.8125 59.421875 
L 7.8125 69.390625 
Q 13.765625 71.78125 18.9375 73 
Q 24.125 74.21875 28.421875 74.21875 
Q 39.75 74.21875 46.484375 68.546875 
Q 53.21875 62.890625 53.21875 53.421875 
Q 53.21875 48.921875 51.53125 44.890625 
Q 49.859375 40.875 45.40625 35.40625 
Q 44.1875 33.984375 37.640625 27.21875 
Q 31.109375 20.453125 19.1875 8.296875 
z
" id="DejaVuSans-32"/>
      </defs>
      <g transform="translate(353.629465 781.996094)scale(0.25 -0.25)">
       <use xlink:href="#DejaVuSans-32"/>
       <use x="63.623047" xlink:href="#DejaVuSans-30"/>
       <use x="127.246094" xlink:href="#DejaVuSans-30"/>
      </g>
     </g>
    </g>
    <g id="xtick_3">
     <g id="line2d_3">
      <g>
       <use style="stroke:#000000;stroke-width:0.8;" x="575.460635" xlink:href="#m17d440848d" y="756"/>
      </g>
     </g>
     <g id="text_3">
      <!-- 400 -->
      <defs>
       <path d="M 37.796875 64.3125 
L 12.890625 25.390625 
L 37.796875 25.390625 
z
M 35.203125 72.90625 
L 47.609375 72.90625 
L 47.609375 25.390625 
L 58.015625 25.390625 
L 58.015625 17.1875 
L 47.609375 17.1875 
L 47.609375 0 
L 37.796875 0 
L 37.796875 17.1875 
L 4.890625 17.1875 
L 4.890625 26.703125 
z
" id="DejaVuSans-34"/>
      </defs>
      <g transform="translate(551.60126 781.996094)scale(0.25 -0.25)">
       <use xlink:href="#DejaVuSans-34"/>
       <use x="63.623047" xlink:href="#DejaVuSans-30"/>
       <use x="127.246094" xlink:href="#DejaVuSans-30"/>
      </g>
     </g>
    </g>
    <g id="xtick_4">
     <g id="line2d_4">
      <g>
       <use style="stroke:#000000;stroke-width:0.8;" x="773.432429" xlink:href="#m17d440848d" y="756"/>
      </g>
     </g>
     <g id="text_4">
      <!-- 600 -->
      <defs>
       <path d="M 33.015625 40.375 
Q 26.375 40.375 22.484375 35.828125 
Q 18.609375 31.296875 18.609375 23.390625 
Q 18.609375 15.53125 22.484375 10.953125 
Q 26.375 6.390625 33.015625 6.390625 
Q 39.65625 6.390625 43.53125 10.953125 
Q 47.40625 15.53125 47.40625 23.390625 
Q 47.40625 31.296875 43.53125 35.828125 
Q 39.65625 40.375 33.015625 40.375 
z
M 52.59375 71.296875 
L 52.59375 62.3125 
Q 48.875 64.0625 45.09375 64.984375 
Q 41.3125 65.921875 37.59375 65.921875 
Q 27.828125 65.921875 22.671875 59.328125 
Q 17.53125 52.734375 16.796875 39.40625 
Q 19.671875 43.65625 24.015625 45.921875 
Q 28.375 48.1875 33.59375 48.1875 
Q 44.578125 48.1875 50.953125 41.515625 
Q 57.328125 34.859375 57.328125 23.390625 
Q 57.328125 12.15625 50.6875 5.359375 
Q 44.046875 -1.421875 33.015625 -1.421875 
Q 20.359375 -1.421875 13.671875 8.265625 
Q 6.984375 17.96875 6.984375 36.375 
Q 6.984375 53.65625 15.1875 63.9375 
Q 23.390625 74.21875 37.203125 74.21875 
Q 40.921875 74.21875 44.703125 73.484375 
Q 48.484375 72.75 52.59375 71.296875 
z
" id="DejaVuSans-36"/>
      </defs>
      <g transform="translate(749.573054 781.996094)scale(0.25 -0.25)">
       <use xlink:href="#DejaVuSans-36"/>
       <use x="63.623047" xlink:href="#DejaVuSans-30"/>
       <use x="127.246094" xlink:href="#DejaVuSans-30"/>
      </g>
     </g>
    </g>
    <g id="xtick_5">
     <g id="line2d_5">
      <g>
       <use style="stroke:#000000;stroke-width:0.8;" x="971.404224" xlink:href="#m17d440848d" y="756"/>
      </g>
     </g>
     <g id="text_5">
      <!-- 800 -->
      <defs>
       <path d="M 31.78125 34.625 
Q 24.75 34.625 20.71875 30.859375 
Q 16.703125 27.09375 16.703125 20.515625 
Q 16.703125 13.921875 20.71875 10.15625 
Q 24.75 6.390625 31.78125 6.390625 
Q 38.8125 6.390625 42.859375 10.171875 
Q 46.921875 13.96875 46.921875 20.515625 
Q 46.921875 27.09375 42.890625 30.859375 
Q 38.875 34.625 31.78125 34.625 
z
M 21.921875 38.8125 
Q 15.578125 40.375 12.03125 44.71875 
Q 8.5 49.078125 8.5 55.328125 
Q 8.5 64.0625 14.71875 69.140625 
Q 20.953125 74.21875 31.78125 74.21875 
Q 42.671875 74.21875 48.875 69.140625 
Q 55.078125 64.0625 55.078125 55.328125 
Q 55.078125 49.078125 51.53125 44.71875 
Q 48 40.375 41.703125 38.8125 
Q 48.828125 37.15625 52.796875 32.3125 
Q 56.78125 27.484375 56.78125 20.515625 
Q 56.78125 9.90625 50.3125 4.234375 
Q 43.84375 -1.421875 31.78125 -1.421875 
Q 19.734375 -1.421875 13.25 4.234375 
Q 6.78125 9.90625 6.78125 20.515625 
Q 6.78125 27.484375 10.78125 32.3125 
Q 14.796875 37.15625 21.921875 38.8125 
z
M 18.3125 54.390625 
Q 18.3125 48.734375 21.84375 45.5625 
Q 25.390625 42.390625 31.78125 42.390625 
Q 38.140625 42.390625 41.71875 45.5625 
Q 45.3125 48.734375 45.3125 54.390625 
Q 45.3125 60.0625 41.71875 63.234375 
Q 38.140625 66.40625 31.78125 66.40625 
Q 25.390625 66.40625 21.84375 63.234375 
Q 18.3125 60.0625 18.3125 54.390625 
z
" id="DejaVuSans-38"/>
      </defs>
      <g transform="translate(947.544849 781.996094)scale(0.25 -0.25)">
       <use xlink:href="#DejaVuSans-38"/>
       <use x="63.623047" xlink:href="#DejaVuSans-30"/>
       <use x="127.246094" xlink:href="#DejaVuSans-30"/>
      </g>
     </g>
    </g>
    <g id="xtick_6">
     <g id="line2d_6">
      <g>
       <use style="stroke:#000000;stroke-width:0.8;" x="1169.376019" xlink:href="#m17d440848d" y="756"/>
      </g>
     </g>
     <g id="text_6">
      <!-- 1000 -->
      <defs>
       <path d="M 12.40625 8.296875 
L 28.515625 8.296875 
L 28.515625 63.921875 
L 10.984375 60.40625 
L 10.984375 69.390625 
L 28.421875 72.90625 
L 38.28125 72.90625 
L 38.28125 8.296875 
L 54.390625 8.296875 
L 54.390625 0 
L 12.40625 0 
z
" id="DejaVuSans-31"/>
      </defs>
      <g transform="translate(1137.563519 781.996094)scale(0.25 -0.25)">
       <use xlink:href="#DejaVuSans-31"/>
       <use x="63.623047" xlink:href="#DejaVuSans-30"/>
       <use x="127.246094" xlink:href="#DejaVuSans-30"/>
       <use x="190.869141" xlink:href="#DejaVuSans-30"/>
      </g>
     </g>
    </g>
    <g id="xtick_7">
     <g id="line2d_7">
      <g>
       <use style="stroke:#000000;stroke-width:0.8;" x="1367.347814" xlink:href="#m17d440848d" y="756"/>
      </g>
     </g>
     <g id="text_7">
      <!-- 1200 -->
      <g transform="translate(1335.535314 781.996094)scale(0.25 -0.25)">
       <use xlink:href="#DejaVuSans-31"/>
       <use x="63.623047" xlink:href="#DejaVuSans-32"/>
       <use x="127.246094" xlink:href="#DejaVuSans-30"/>
       <use x="190.869141" xlink:href="#DejaVuSans-30"/>
      </g>
     </g>
    </g>
    <g id="text_8">
     <!-- 15-Minute Steps -->
     <defs>
      <path d="M 10.796875 72.90625 
L 49.515625 72.90625 
L 49.515625 64.59375 
L 19.828125 64.59375 
L 19.828125 46.734375 
Q 21.96875 47.46875 24.109375 47.828125 
Q 26.265625 48.1875 28.421875 48.1875 
Q 40.625 48.1875 47.75 41.5 
Q 54.890625 34.8125 54.890625 23.390625 
Q 54.890625 11.625 47.5625 5.09375 
Q 40.234375 -1.421875 26.90625 -1.421875 
Q 22.3125 -1.421875 17.546875 -0.640625 
Q 12.796875 0.140625 7.71875 1.703125 
L 7.71875 11.625 
Q 12.109375 9.234375 16.796875 8.0625 
Q 21.484375 6.890625 26.703125 6.890625 
Q 35.15625 6.890625 40.078125 11.328125 
Q 45.015625 15.765625 45.015625 23.390625 
Q 45.015625 31 40.078125 35.4375 
Q 35.15625 39.890625 26.703125 39.890625 
Q 22.75 39.890625 18.8125 39.015625 
Q 14.890625 38.140625 10.796875 36.28125 
z
" id="DejaVuSans-35"/>
      <path d="M 4.890625 31.390625 
L 31.203125 31.390625 
L 31.203125 23.390625 
L 4.890625 23.390625 
z
" id="DejaVuSans-2d"/>
      <path d="M 9.8125 72.90625 
L 24.515625 72.90625 
L 43.109375 23.296875 
L 61.8125 72.90625 
L 76.515625 72.90625 
L 76.515625 0 
L 66.890625 0 
L 66.890625 64.015625 
L 48.09375 14.015625 
L 38.1875 14.015625 
L 19.390625 64.015625 
L 19.390625 0 
L 9.8125 0 
z
" id="DejaVuSans-4d"/>
      <path d="M 9.421875 54.6875 
L 18.40625 54.6875 
L 18.40625 0 
L 9.421875 0 
z
M 9.421875 75.984375 
L 18.40625 75.984375 
L 18.40625 64.59375 
L 9.421875 64.59375 
z
" id="DejaVuSans-69"/>
      <path d="M 54.890625 33.015625 
L 54.890625 0 
L 45.90625 0 
L 45.90625 32.71875 
Q 45.90625 40.484375 42.875 44.328125 
Q 39.84375 48.1875 33.796875 48.1875 
Q 26.515625 48.1875 22.3125 43.546875 
Q 18.109375 38.921875 18.109375 30.90625 
L 18.109375 0 
L 9.078125 0 
L 9.078125 54.6875 
L 18.109375 54.6875 
L 18.109375 46.1875 
Q 21.34375 51.125 25.703125 53.5625 
Q 30.078125 56 35.796875 56 
Q 45.21875 56 50.046875 50.171875 
Q 54.890625 44.34375 54.890625 33.015625 
z
" id="DejaVuSans-6e"/>
      <path d="M 8.5 21.578125 
L 8.5 54.6875 
L 17.484375 54.6875 
L 17.484375 21.921875 
Q 17.484375 14.15625 20.5 10.265625 
Q 23.53125 6.390625 29.59375 6.390625 
Q 36.859375 6.390625 41.078125 11.03125 
Q 45.3125 15.671875 45.3125 23.6875 
L 45.3125 54.6875 
L 54.296875 54.6875 
L 54.296875 0 
L 45.3125 0 
L 45.3125 8.40625 
Q 42.046875 3.421875 37.71875 1 
Q 33.40625 -1.421875 27.6875 -1.421875 
Q 18.265625 -1.421875 13.375 4.4375 
Q 8.5 10.296875 8.5 21.578125 
z
M 31.109375 56 
z
" id="DejaVuSans-75"/>
      <path d="M 18.3125 70.21875 
L 18.3125 54.6875 
L 36.8125 54.6875 
L 36.8125 47.703125 
L 18.3125 47.703125 
L 18.3125 18.015625 
Q 18.3125 11.328125 20.140625 9.421875 
Q 21.96875 7.515625 27.59375 7.515625 
L 36.8125 7.515625 
L 36.8125 0 
L 27.59375 0 
Q 17.1875 0 13.234375 3.875 
Q 9.28125 7.765625 9.28125 18.015625 
L 9.28125 47.703125 
L 2.6875 47.703125 
L 2.6875 54.6875 
L 9.28125 54.6875 
L 9.28125 70.21875 
z
" id="DejaVuSans-74"/>
      <path d="M 56.203125 29.59375 
L 56.203125 25.203125 
L 14.890625 25.203125 
Q 15.484375 15.921875 20.484375 11.0625 
Q 25.484375 6.203125 34.421875 6.203125 
Q 39.59375 6.203125 44.453125 7.46875 
Q 49.3125 8.734375 54.109375 11.28125 
L 54.109375 2.78125 
Q 49.265625 0.734375 44.1875 -0.34375 
Q 39.109375 -1.421875 33.890625 -1.421875 
Q 20.796875 -1.421875 13.15625 6.1875 
Q 5.515625 13.8125 5.515625 26.8125 
Q 5.515625 40.234375 12.765625 48.109375 
Q 20.015625 56 32.328125 56 
Q 43.359375 56 49.78125 48.890625 
Q 56.203125 41.796875 56.203125 29.59375 
z
M 47.21875 32.234375 
Q 47.125 39.59375 43.09375 43.984375 
Q 39.0625 48.390625 32.421875 48.390625 
Q 24.90625 48.390625 20.390625 44.140625 
Q 15.875 39.890625 15.1875 32.171875 
z
" id="DejaVuSans-65"/>
      <path id="DejaVuSans-20"/>
      <path d="M 53.515625 70.515625 
L 53.515625 60.890625 
Q 47.90625 63.578125 42.921875 64.890625 
Q 37.9375 66.21875 33.296875 66.21875 
Q 25.25 66.21875 20.875 63.09375 
Q 16.5 59.96875 16.5 54.203125 
Q 16.5 49.359375 19.40625 46.890625 
Q 22.3125 44.4375 30.421875 42.921875 
L 36.375 41.703125 
Q 47.40625 39.59375 52.65625 34.296875 
Q 57.90625 29 57.90625 20.125 
Q 57.90625 9.515625 50.796875 4.046875 
Q 43.703125 -1.421875 29.984375 -1.421875 
Q 24.8125 -1.421875 18.96875 -0.25 
Q 13.140625 0.921875 6.890625 3.21875 
L 6.890625 13.375 
Q 12.890625 10.015625 18.65625 8.296875 
Q 24.421875 6.59375 29.984375 6.59375 
Q 38.421875 6.59375 43.015625 9.90625 
Q 47.609375 13.234375 47.609375 19.390625 
Q 47.609375 24.75 44.3125 27.78125 
Q 41.015625 30.8125 33.5 32.328125 
L 27.484375 33.5 
Q 16.453125 35.6875 11.515625 40.375 
Q 6.59375 45.0625 6.59375 53.421875 
Q 6.59375 63.09375 13.40625 68.65625 
Q 20.21875 74.21875 32.171875 74.21875 
Q 37.3125 74.21875 42.625 73.28125 
Q 47.953125 72.359375 53.515625 70.515625 
z
" id="DejaVuSans-53"/>
      <path d="M 18.109375 8.203125 
L 18.109375 -20.796875 
L 9.078125 -20.796875 
L 9.078125 54.6875 
L 18.109375 54.6875 
L 18.109375 46.390625 
Q 20.953125 51.265625 25.265625 53.625 
Q 29.59375 56 35.59375 56 
Q 45.5625 56 51.78125 48.09375 
Q 58.015625 40.1875 58.015625 27.296875 
Q 58.015625 14.40625 51.78125 6.484375 
Q 45.5625 -1.421875 35.59375 -1.421875 
Q 29.59375 -1.421875 25.265625 0.953125 
Q 20.953125 3.328125 18.109375 8.203125 
z
M 48.6875 27.296875 
Q 48.6875 37.203125 44.609375 42.84375 
Q 40.53125 48.484375 33.40625 48.484375 
Q 26.265625 48.484375 22.1875 42.84375 
Q 18.109375 37.203125 18.109375 27.296875 
Q 18.109375 17.390625 22.1875 11.75 
Q 26.265625 6.109375 33.40625 6.109375 
Q 40.53125 6.109375 44.609375 11.75 
Q 48.6875 17.390625 48.6875 27.296875 
z
" id="DejaVuSans-70"/>
      <path d="M 44.28125 53.078125 
L 44.28125 44.578125 
Q 40.484375 46.53125 36.375 47.5 
Q 32.28125 48.484375 27.875 48.484375 
Q 21.1875 48.484375 17.84375 46.4375 
Q 14.5 44.390625 14.5 40.28125 
Q 14.5 37.15625 16.890625 35.375 
Q 19.28125 33.59375 26.515625 31.984375 
L 29.59375 31.296875 
Q 39.15625 29.25 43.1875 25.515625 
Q 47.21875 21.78125 47.21875 15.09375 
Q 47.21875 7.46875 41.1875 3.015625 
Q 35.15625 -1.421875 24.609375 -1.421875 
Q 20.21875 -1.421875 15.453125 -0.5625 
Q 10.6875 0.296875 5.421875 2 
L 5.421875 11.28125 
Q 10.40625 8.6875 15.234375 7.390625 
Q 20.0625 6.109375 24.8125 6.109375 
Q 31.15625 6.109375 34.5625 8.28125 
Q 37.984375 10.453125 37.984375 14.40625 
Q 37.984375 18.0625 35.515625 20.015625 
Q 33.0625 21.96875 24.703125 23.78125 
L 21.578125 24.515625 
Q 13.234375 26.265625 9.515625 29.90625 
Q 5.8125 33.546875 5.8125 39.890625 
Q 5.8125 47.609375 11.28125 51.796875 
Q 16.75 56 26.8125 56 
Q 31.78125 56 36.171875 55.265625 
Q 40.578125 54.546875 44.28125 53.078125 
z
" id="DejaVuSans-73"/>
     </defs>
     <g transform="translate(691.292188 806.392188)scale(0.2 -0.2)">
      <use xlink:href="#DejaVuSans-31"/>
      <use x="63.623047" xlink:href="#DejaVuSans-35"/>
      <use x="127.246094" xlink:href="#DejaVuSans-2d"/>
      <use x="163.330078" xlink:href="#DejaVuSans-4d"/>
      <use x="249.609375" xlink:href="#DejaVuSans-69"/>
      <use x="277.392578" xlink:href="#DejaVuSans-6e"/>
      <use x="340.771484" xlink:href="#DejaVuSans-75"/>
      <use x="404.150391" xlink:href="#DejaVuSans-74"/>
      <use x="443.359375" xlink:href="#DejaVuSans-65"/>
      <use x="504.882812" xlink:href="#DejaVuSans-20"/>
      <use x="536.669922" xlink:href="#DejaVuSans-53"/>
      <use x="600.146484" xlink:href="#DejaVuSans-74"/>
      <use x="639.355469" xlink:href="#DejaVuSans-65"/>
      <use x="700.878906" xlink:href="#DejaVuSans-70"/>
      <use x="764.355469" xlink:href="#DejaVuSans-73"/>
     </g>
    </g>
   </g>
   <g id="matplotlib.axis_2">
    <g id="ytick_1">
     <g id="line2d_8">
      <defs>
       <path d="M 0 0 
L -3.5 0 
" id="me5e0344a0a" style="stroke:#000000;stroke-width:0.8;"/>
      </defs>
      <g>
       <use style="stroke:#000000;stroke-width:0.8;" x="120.175" xlink:href="#me5e0344a0a" y="731.084229"/>
      </g>
     </g>
     <g id="text_9">
      <!-- 0 -->
      <g transform="translate(97.26875 740.582276)scale(0.25 -0.25)">
       <use xlink:href="#DejaVuSans-30"/>
      </g>
     </g>
    </g>
    <g id="ytick_2">
     <g id="line2d_9">
      <g>
       <use style="stroke:#000000;stroke-width:0.8;" x="120.175" xlink:href="#me5e0344a0a" y="596.331376"/>
      </g>
     </g>
     <g id="text_10">
      <!-- 2000 -->
      <g transform="translate(49.55 605.829423)scale(0.25 -0.25)">
       <use xlink:href="#DejaVuSans-32"/>
       <use x="63.623047" xlink:href="#DejaVuSans-30"/>
       <use x="127.246094" xlink:href="#DejaVuSans-30"/>
       <use x="190.869141" xlink:href="#DejaVuSans-30"/>
      </g>
     </g>
    </g>
    <g id="ytick_3">
     <g id="line2d_10">
      <g>
       <use style="stroke:#000000;stroke-width:0.8;" x="120.175" xlink:href="#me5e0344a0a" y="461.578523"/>
      </g>
     </g>
     <g id="text_11">
      <!-- 4000 -->
      <g transform="translate(49.55 471.07657)scale(0.25 -0.25)">
       <use xlink:href="#DejaVuSans-34"/>
       <use x="63.623047" xlink:href="#DejaVuSans-30"/>
       <use x="127.246094" xlink:href="#DejaVuSans-30"/>
       <use x="190.869141" xlink:href="#DejaVuSans-30"/>
      </g>
     </g>
    </g>
    <g id="ytick_4">
     <g id="line2d_11">
      <g>
       <use style="stroke:#000000;stroke-width:0.8;" x="120.175" xlink:href="#me5e0344a0a" y="326.825671"/>
      </g>
     </g>
     <g id="text_12">
      <!-- 6000 -->
      <g transform="translate(49.55 336.323717)scale(0.25 -0.25)">
       <use xlink:href="#DejaVuSans-36"/>
       <use x="63.623047" xlink:href="#DejaVuSans-30"/>
       <use x="127.246094" xlink:href="#DejaVuSans-30"/>
       <use x="190.869141" xlink:href="#DejaVuSans-30"/>
      </g>
     </g>
    </g>
    <g id="ytick_5">
     <g id="line2d_12">
      <g>
       <use style="stroke:#000000;stroke-width:0.8;" x="120.175" xlink:href="#me5e0344a0a" y="192.072818"/>
      </g>
     </g>
     <g id="text_13">
      <!-- 8000 -->
      <g transform="translate(49.55 201.570865)scale(0.25 -0.25)">
       <use xlink:href="#DejaVuSans-38"/>
       <use x="63.623047" xlink:href="#DejaVuSans-30"/>
       <use x="127.246094" xlink:href="#DejaVuSans-30"/>
       <use x="190.869141" xlink:href="#DejaVuSans-30"/>
      </g>
     </g>
    </g>
    <g id="ytick_6">
     <g id="line2d_13">
      <g>
       <use style="stroke:#000000;stroke-width:0.8;" x="120.175" xlink:href="#me5e0344a0a" y="57.319965"/>
      </g>
     </g>
     <g id="text_14">
      <!-- 10000 -->
      <g transform="translate(33.64375 66.818012)scale(0.25 -0.25)">
       <use xlink:href="#DejaVuSans-31"/>
       <use x="63.623047" xlink:href="#DejaVuSans-30"/>
       <use x="127.246094" xlink:href="#DejaVuSans-30"/>
       <use x="190.869141" xlink:href="#DejaVuSans-30"/>
       <use x="254.492188" xlink:href="#DejaVuSans-30"/>
      </g>
     </g>
    </g>
    <g id="text_15">
     <!-- Bandwidth (kbps) -->
     <defs>
      <path d="M 19.671875 34.8125 
L 19.671875 8.109375 
L 35.5 8.109375 
Q 43.453125 8.109375 47.28125 11.40625 
Q 51.125 14.703125 51.125 21.484375 
Q 51.125 28.328125 47.28125 31.5625 
Q 43.453125 34.8125 35.5 34.8125 
z
M 19.671875 64.796875 
L 19.671875 42.828125 
L 34.28125 42.828125 
Q 41.5 42.828125 45.03125 45.53125 
Q 48.578125 48.25 48.578125 53.8125 
Q 48.578125 59.328125 45.03125 62.0625 
Q 41.5 64.796875 34.28125 64.796875 
z
M 9.8125 72.90625 
L 35.015625 72.90625 
Q 46.296875 72.90625 52.390625 68.21875 
Q 58.5 63.53125 58.5 54.890625 
Q 58.5 48.1875 55.375 44.234375 
Q 52.25 40.28125 46.1875 39.3125 
Q 53.46875 37.75 57.5 32.78125 
Q 61.53125 27.828125 61.53125 20.40625 
Q 61.53125 10.640625 54.890625 5.3125 
Q 48.25 0 35.984375 0 
L 9.8125 0 
z
" id="DejaVuSans-42"/>
      <path d="M 34.28125 27.484375 
Q 23.390625 27.484375 19.1875 25 
Q 14.984375 22.515625 14.984375 16.5 
Q 14.984375 11.71875 18.140625 8.90625 
Q 21.296875 6.109375 26.703125 6.109375 
Q 34.1875 6.109375 38.703125 11.40625 
Q 43.21875 16.703125 43.21875 25.484375 
L 43.21875 27.484375 
z
M 52.203125 31.203125 
L 52.203125 0 
L 43.21875 0 
L 43.21875 8.296875 
Q 40.140625 3.328125 35.546875 0.953125 
Q 30.953125 -1.421875 24.3125 -1.421875 
Q 15.921875 -1.421875 10.953125 3.296875 
Q 6 8.015625 6 15.921875 
Q 6 25.140625 12.171875 29.828125 
Q 18.359375 34.515625 30.609375 34.515625 
L 43.21875 34.515625 
L 43.21875 35.40625 
Q 43.21875 41.609375 39.140625 45 
Q 35.0625 48.390625 27.6875 48.390625 
Q 23 48.390625 18.546875 47.265625 
Q 14.109375 46.140625 10.015625 43.890625 
L 10.015625 52.203125 
Q 14.9375 54.109375 19.578125 55.046875 
Q 24.21875 56 28.609375 56 
Q 40.484375 56 46.34375 49.84375 
Q 52.203125 43.703125 52.203125 31.203125 
z
" id="DejaVuSans-61"/>
      <path d="M 45.40625 46.390625 
L 45.40625 75.984375 
L 54.390625 75.984375 
L 54.390625 0 
L 45.40625 0 
L 45.40625 8.203125 
Q 42.578125 3.328125 38.25 0.953125 
Q 33.9375 -1.421875 27.875 -1.421875 
Q 17.96875 -1.421875 11.734375 6.484375 
Q 5.515625 14.40625 5.515625 27.296875 
Q 5.515625 40.1875 11.734375 48.09375 
Q 17.96875 56 27.875 56 
Q 33.9375 56 38.25 53.625 
Q 42.578125 51.265625 45.40625 46.390625 
z
M 14.796875 27.296875 
Q 14.796875 17.390625 18.875 11.75 
Q 22.953125 6.109375 30.078125 6.109375 
Q 37.203125 6.109375 41.296875 11.75 
Q 45.40625 17.390625 45.40625 27.296875 
Q 45.40625 37.203125 41.296875 42.84375 
Q 37.203125 48.484375 30.078125 48.484375 
Q 22.953125 48.484375 18.875 42.84375 
Q 14.796875 37.203125 14.796875 27.296875 
z
" id="DejaVuSans-64"/>
      <path d="M 4.203125 54.6875 
L 13.1875 54.6875 
L 24.421875 12.015625 
L 35.59375 54.6875 
L 46.1875 54.6875 
L 57.421875 12.015625 
L 68.609375 54.6875 
L 77.59375 54.6875 
L 63.28125 0 
L 52.6875 0 
L 40.921875 44.828125 
L 29.109375 0 
L 18.5 0 
z
" id="DejaVuSans-77"/>
      <path d="M 54.890625 33.015625 
L 54.890625 0 
L 45.90625 0 
L 45.90625 32.71875 
Q 45.90625 40.484375 42.875 44.328125 
Q 39.84375 48.1875 33.796875 48.1875 
Q 26.515625 48.1875 22.3125 43.546875 
Q 18.109375 38.921875 18.109375 30.90625 
L 18.109375 0 
L 9.078125 0 
L 9.078125 75.984375 
L 18.109375 75.984375 
L 18.109375 46.1875 
Q 21.34375 51.125 25.703125 53.5625 
Q 30.078125 56 35.796875 56 
Q 45.21875 56 50.046875 50.171875 
Q 54.890625 44.34375 54.890625 33.015625 
z
" id="DejaVuSans-68"/>
      <path d="M 31 75.875 
Q 24.46875 64.65625 21.28125 53.65625 
Q 18.109375 42.671875 18.109375 31.390625 
Q 18.109375 20.125 21.3125 9.0625 
Q 24.515625 -2 31 -13.1875 
L 23.1875 -13.1875 
Q 15.875 -1.703125 12.234375 9.375 
Q 8.59375 20.453125 8.59375 31.390625 
Q 8.59375 42.28125 12.203125 53.3125 
Q 15.828125 64.359375 23.1875 75.875 
z
" id="DejaVuSans-28"/>
      <path d="M 9.078125 75.984375 
L 18.109375 75.984375 
L 18.109375 31.109375 
L 44.921875 54.6875 
L 56.390625 54.6875 
L 27.390625 29.109375 
L 57.625 0 
L 45.90625 0 
L 18.109375 26.703125 
L 18.109375 0 
L 9.078125 0 
z
" id="DejaVuSans-6b"/>
      <path d="M 48.6875 27.296875 
Q 48.6875 37.203125 44.609375 42.84375 
Q 40.53125 48.484375 33.40625 48.484375 
Q 26.265625 48.484375 22.1875 42.84375 
Q 18.109375 37.203125 18.109375 27.296875 
Q 18.109375 17.390625 22.1875 11.75 
Q 26.265625 6.109375 33.40625 6.109375 
Q 40.53125 6.109375 44.609375 11.75 
Q 48.6875 17.390625 48.6875 27.296875 
z
M 18.109375 46.390625 
Q 20.953125 51.265625 25.265625 53.625 
Q 29.59375 56 35.59375 56 
Q 45.5625 56 51.78125 48.09375 
Q 58.015625 40.1875 58.015625 27.296875 
Q 58.015625 14.40625 51.78125 6.484375 
Q 45.5625 -1.421875 35.59375 -1.421875 
Q 29.59375 -1.421875 25.265625 0.953125 
Q 20.953125 3.328125 18.109375 8.203125 
L 18.109375 0 
L 9.078125 0 
L 9.078125 75.984375 
L 18.109375 75.984375 
z
" id="DejaVuSans-62"/>
      <path d="M 8.015625 75.875 
L 15.828125 75.875 
Q 23.140625 64.359375 26.78125 53.3125 
Q 30.421875 42.28125 30.421875 31.390625 
Q 30.421875 20.453125 26.78125 9.375 
Q 23.140625 -1.703125 15.828125 -13.1875 
L 8.015625 -13.1875 
Q 14.5 -2 17.703125 9.0625 
Q 20.90625 20.125 20.90625 31.390625 
Q 20.90625 42.671875 17.703125 53.65625 
Q 14.5 64.65625 8.015625 75.875 
z
" id="DejaVuSans-29"/>
     </defs>
     <g transform="translate(25.484375 473.065625)rotate(-90)scale(0.2 -0.2)">
      <use xlink:href="#DejaVuSans-42"/>
      <use x="68.603516" xlink:href="#DejaVuSans-61"/>
      <use x="129.882812" xlink:href="#DejaVuSans-6e"/>
      <use x="193.261719" xlink:href="#DejaVuSans-64"/>
      <use x="256.738281" xlink:href="#DejaVuSans-77"/>
      <use x="338.525391" xlink:href="#DejaVuSans-69"/>
      <use x="366.308594" xlink:href="#DejaVuSans-64"/>
      <use x="429.785156" xlink:href="#DejaVuSans-74"/>
      <use x="468.994141" xlink:href="#DejaVuSans-68"/>
      <use x="532.373047" xlink:href="#DejaVuSans-20"/>
      <use x="564.160156" xlink:href="#DejaVuSans-28"/>
      <use x="603.173828" xlink:href="#DejaVuSans-6b"/>
      <use x="661.083984" xlink:href="#DejaVuSans-62"/>
      <use x="724.560547" xlink:href="#DejaVuSans-70"/>
      <use x="788.037109" xlink:href="#DejaVuSans-73"/>
      <use x="840.136719" xlink:href="#DejaVuSans-29"/>
     </g>
    </g>
   </g>
   <g id="line2d_14">
    <path clip-path="url(#p47d15e2256)" d="M 179.517045 648.702325 
L 180.506904 675.033632 
L 181.496763 649.504252 
L 182.486622 640.439879 
L 183.476481 669.797432 
L 184.46634 693.782241 
L 185.456199 685.180218 
L 186.446058 672.479317 
L 187.435917 637.503467 
L 188.425776 626.850802 
L 189.415635 651.107515 
L 190.405494 585.976967 
L 191.395353 632.111553 
L 192.385212 685.81865 
L 193.375071 690.472118 
L 194.36493 702.465715 
L 195.354789 681.785646 
L 196.344648 689.997188 
L 197.334507 704.372623 
L 198.324366 669.19913 
L 199.314225 667.660555 
L 200.304084 681.808406 
L 201.293943 711.192309 
L 202.283802 712.70454 
L 203.273661 712.651838 
L 204.26352 699.134624 
L 205.253379 705.809384 
L 206.243238 683.013992 
L 207.233097 662.787892 
L 208.222956 694.918362 
L 209.212815 695.501687 
L 210.202674 683.884799 
L 211.192533 695.378914 
L 212.182392 695.668781 
L 213.172251 707.236565 
L 214.16211 700.362977 
L 215.151968 696.66416 
L 216.141827 705.335054 
L 217.131686 665.829709 
L 218.121545 687.838144 
L 219.111404 644.317763 
L 220.101263 695.603507 
L 221.091122 693.193526 
L 222.080981 705.778843 
L 223.07084 684.198025 
L 224.060699 651.465654 
L 225.050558 583.213038 
L 226.040417 700.518691 
L 227.030276 676.335641 
L 228.020135 635.519305 
L 229.009994 627.381425 
L 229.999853 632.179826 
L 230.989712 664.46002 
L 231.979571 666.692727 
L 232.96943 600.154167 
L 233.959289 603.661932 
L 234.949148 561.811287 
L 236.928866 706.225623 
L 237.918725 666.50228 
L 238.908584 683.826107 
L 239.898443 658.92378 
L 240.888302 608.489675 
L 242.86802 678.558167 
L 243.857879 674.995301 
L 244.847738 673.4687 
L 245.837597 680.823814 
L 246.827456 630.46457 
L 247.817315 669.64531 
L 248.807174 677.180097 
L 249.797033 660.125176 
L 251.776751 710.915621 
L 252.766609 677.776001 
L 253.756468 686.891883 
L 254.746327 673.864577 
L 255.736186 611.043989 
L 256.726045 685.81446 
L 257.715904 655.735224 
L 258.705763 665.626683 
L 259.695622 667.761768 
L 260.685481 594.498738 
L 261.67534 718.247969 
L 262.665199 698.799245 
L 263.655058 701.723078 
L 264.644917 662.722611 
L 265.634776 667.800698 
L 266.624635 699.009459 
L 267.614494 664.149192 
L 268.604353 688.374164 
L 269.594212 678.770773 
L 270.584071 675.752909 
L 271.57393 651.499794 
L 272.563789 700.609124 
L 273.553648 676.108057 
L 274.543507 702.510035 
L 275.533366 690.260704 
L 277.513084 683.428431 
L 278.502943 704.074367 
L 279.492802 679.557137 
L 280.482661 678.192838 
L 281.47252 687.875275 
L 282.462379 702.002765 
L 283.452238 697.52957 
L 284.442097 691.672914 
L 285.431956 709.790287 
L 286.421815 713.062086 
L 287.411674 666.868209 
L 288.401533 716.169783 
L 289.391392 704.398374 
L 290.38125 688.67661 
L 291.371109 682.372569 
L 292.360968 719.867402 
L 293.350827 707.756415 
L 294.340686 708.291835 
L 295.330545 722.286364 
L 296.320404 695.277101 
L 297.310263 709.055432 
L 298.300122 687.300932 
L 299.289981 681.502968 
L 300.27984 683.089454 
L 301.269699 717.413101 
L 302.259558 702.247718 
L 303.249417 688.820944 
L 304.239276 682.872057 
L 305.229135 699.584402 
L 306.218994 714.344334 
L 307.208853 713.853234 
L 308.198712 687.829763 
L 309.188571 704.879293 
L 310.17843 702.451943 
L 311.168289 684.907122 
L 312.158148 690.43019 
L 313.148007 710.689836 
L 314.137866 699.941349 
L 315.127725 668.090565 
L 316.117584 672.499679 
L 317.107443 658.747698 
L 318.097302 703.023295 
L 319.087161 689.450988 
L 320.07702 713.726862 
L 321.066879 677.374141 
L 322.056738 675.819389 
L 323.046597 715.002527 
L 324.036456 707.237165 
L 325.026315 679.042078 
L 326.016174 703.111336 
L 327.006032 682.037782 
L 327.995891 650.448722 
L 328.98575 718.474354 
L 329.975609 717.341237 
L 330.965468 707.065281 
L 331.955327 667.451533 
L 332.945186 691.786106 
L 333.935045 667.3623 
L 334.924904 719.806311 
L 335.914763 691.952001 
L 336.904622 699.244825 
L 337.894481 677.239388 
L 338.88434 678.188048 
L 339.874199 711.960704 
L 340.864058 675.41633 
L 341.853917 698.367436 
L 342.843776 713.536416 
L 343.833635 692.298767 
L 344.823494 702.259698 
L 345.813353 698.285984 
L 346.803212 687.429095 
L 347.793071 696.017946 
L 348.78293 698.484819 
L 349.772789 680.620182 
L 350.762648 678.007176 
L 351.752507 707.621062 
L 352.742366 693.504354 
L 353.732225 650.167836 
L 354.722084 700.897192 
L 355.711943 710.553884 
L 356.701802 711.589985 
L 357.691661 668.604425 
L 358.68152 713.174679 
L 359.671379 688.219643 
L 360.661238 677.624478 
L 361.651097 688.325653 
L 362.640956 672.538009 
L 363.630815 686.112109 
L 364.620673 678.324593 
L 365.610532 692.008893 
L 366.600391 697.204963 
L 367.59025 671.737274 
L 368.580109 649.908511 
L 369.569968 698.809425 
L 370.559827 667.004154 
L 371.549686 713.687339 
L 372.539545 715.714022 
L 373.529404 718.177304 
L 374.519263 706.311864 
L 375.509122 685.125125 
L 376.498981 682.186313 
L 377.48884 715.723603 
L 378.478699 679.990138 
L 379.468558 690.157093 
L 380.458417 713.605888 
L 381.448276 701.957851 
L 382.438135 653.370164 
L 383.427994 719.718277 
L 384.417853 705.769262 
L 385.407712 714.543768 
L 386.397571 707.194044 
L 387.38743 693.27018 
L 388.377289 704.386394 
L 389.367148 688.329844 
L 390.357007 660.80433 
L 391.346866 601.965845 
L 392.336725 667.463513 
L 393.326584 614.630214 
L 394.316443 671.0683 
L 395.306302 650.658336 
L 396.296161 674.84737 
L 397.28602 669.353051 
L 398.275879 695.955057 
L 399.265738 716.192543 
L 400.255597 643.117567 
L 401.245455 701.237368 
L 402.235314 670.657459 
L 403.225173 632.935641 
L 404.215032 640.854918 
L 405.204891 679.699072 
L 406.19475 666.962232 
L 407.184609 674.501803 
L 408.174468 689.409666 
L 409.164327 689.830694 
L 410.154186 663.900048 
L 411.144045 681.698804 
L 412.133904 673.968181 
L 413.123763 706.877826 
L 414.113622 695.230989 
L 415.103481 697.009727 
L 416.09334 709.004523 
L 417.083199 608.526806 
L 418.073058 670.782031 
L 419.062917 669.66807 
L 420.052776 718.026974 
L 421.042635 649.520423 
L 422.032494 651.957354 
L 423.022353 690.532002 
L 424.012212 683.981221 
L 425.002071 704.129468 
L 425.99193 612.168131 
L 427.971648 714.20479 
L 428.961507 716.086533 
L 430.941225 652.76767 
L 431.931084 713.868205 
L 432.920943 673.678914 
L 433.910802 711.72234 
L 434.900661 670.679619 
L 435.89052 709.081783 
L 436.880379 680.798056 
L 437.870238 700.383338 
L 438.860096 699.226856 
L 439.849955 668.467873 
L 440.839814 673.870566 
L 441.829673 702.576515 
L 442.819532 715.331917 
L 443.809391 707.098821 
L 444.79925 695.632249 
L 445.789109 717.94433 
L 446.778968 713.002795 
L 447.768827 703.052045 
L 448.758686 687.690219 
L 449.748545 713.154911 
L 450.738404 717.777237 
L 451.728263 677.578965 
L 452.718122 709.47227 
L 453.707981 650.225928 
L 454.69784 696.949836 
L 455.687699 716.466839 
L 456.677558 698.456669 
L 457.667417 703.988725 
L 458.657276 705.559047 
L 459.647135 715.938608 
L 460.636994 683.296677 
L 461.626853 707.969621 
L 462.616712 716.411139 
L 463.606571 719.440383 
L 464.59643 714.787516 
L 465.586289 711.170749 
L 466.576148 696.459335 
L 467.566007 700.346807 
L 468.555866 668.761931 
L 469.545725 652.489776 
L 470.535584 713.774774 
L 471.525443 684.918501 
L 472.515302 605.750897 
L 473.505161 489.407683 
L 474.49502 711.003655 
L 475.484878 697.515798 
L 476.474737 706.720913 
L 477.464596 721.087966 
L 478.454455 714.329956 
L 479.444314 695.1681 
L 480.434173 711.480984 
L 482.413891 712.965064 
L 483.40375 698.113501 
L 484.393609 685.765949 
L 485.383468 688.779022 
L 486.373327 692.280198 
L 487.363186 714.773744 
L 488.353045 690.602673 
L 489.342904 715.174411 
L 490.332763 700.554623 
L 491.322622 694.394922 
L 492.312481 708.45054 
L 493.30234 682.45402 
L 494.292199 715.458288 
L 495.282058 710.142437 
L 496.271917 703.977345 
L 497.261776 686.617587 
L 498.251635 710.731758 
L 499.241494 717.247806 
L 500.231353 711.82176 
L 501.221212 700.574984 
L 502.211071 713.508866 
L 503.20093 670.25859 
L 504.190789 712.863245 
L 505.180648 684.157296 
L 506.170507 714.244913 
L 507.160366 687.413525 
L 508.150225 707.352156 
L 509.140084 700.800769 
L 511.119802 715.850567 
L 512.109661 708.906308 
L 513.099519 704.321113 
L 514.089378 705.382966 
L 515.079237 710.506572 
L 516.069096 690.50266 
L 517.058955 691.056042 
L 518.048814 710.063384 
L 519.038673 709.553122 
L 520.028532 693.224667 
L 521.018391 709.871139 
L 522.00825 713.60289 
L 522.998109 685.870753 
L 523.987968 682.194695 
L 524.977827 693.688817 
L 525.967686 714.358105 
L 526.957545 692.730576 
L 527.947404 706.945499 
L 528.937263 696.143111 
L 530.916981 711.052766 
L 531.90684 673.071031 
L 532.896699 664.784626 
L 533.886558 675.203117 
L 534.876417 705.447647 
L 535.866276 698.675272 
L 536.856135 693.863093 
L 537.845994 699.196314 
L 538.835853 706.157943 
L 539.825712 704.456466 
L 540.815571 682.763655 
L 541.80543 691.609432 
L 542.795289 708.552953 
L 543.785148 711.482783 
L 544.775007 701.215808 
L 545.764866 714.106569 
L 546.754725 699.589193 
L 547.744584 705.367995 
L 548.734443 705.612948 
L 549.724302 707.55279 
L 550.71416 688.484358 
L 551.704019 696.598279 
L 552.693878 716.406349 
L 553.683737 721.516177 
L 554.673596 711.273161 
L 555.663455 710.888071 
L 556.653314 702.051276 
L 557.643173 708.159474 
L 558.633032 684.841241 
L 559.622891 674.771308 
L 560.61275 702.298621 
L 561.602609 704.876895 
L 562.592468 703.368262 
L 563.582327 706.856266 
L 564.572186 712.314653 
L 565.562045 705.583 
L 566.551904 711.879253 
L 567.541763 707.029349 
L 568.531622 715.06541 
L 569.521481 711.627117 
L 570.51134 714.303005 
L 571.501199 719.161297 
L 572.491058 708.735617 
L 573.480917 716.980099 
L 574.470776 717.89402 
L 575.460635 704.834973 
L 576.450494 710.733557 
L 577.440353 712.402693 
L 578.430212 700.016811 
L 579.420071 714.994739 
L 580.40993 718.095853 
L 581.399789 699.289745 
L 582.389648 719.347552 
L 583.379507 717.686204 
L 584.369366 704.621167 
L 585.359225 714.058058 
L 586.349084 704.624759 
L 587.338942 718.685168 
L 588.328801 715.938009 
L 589.31866 709.631575 
L 590.308519 721.396995 
L 591.298378 715.671494 
L 592.288237 706.939509 
L 593.278096 716.228475 
L 594.267955 713.908927 
L 595.257814 713.801125 
L 596.247673 703.950994 
L 597.237532 708.194213 
L 598.227391 695.19565 
L 599.21725 715.355876 
L 600.207109 715.409178 
L 601.196968 712.871034 
L 603.176686 703.047847 
L 604.166545 704.378612 
L 605.156404 706.311864 
L 606.146263 689.631853 
L 607.136122 714.871366 
L 608.125981 715.193573 
L 609.11584 696.783342 
L 610.105699 689.948677 
L 611.095558 697.451716 
L 612.085417 697.760745 
L 613.075276 685.512613 
L 614.065135 698.165603 
L 615.054994 695.519057 
L 616.044853 689.607301 
L 617.034712 706.241193 
L 618.024571 688.359786 
L 619.01443 693.891242 
L 620.004289 677.083074 
L 620.994148 663.164001 
L 621.984007 686.615188 
L 622.973866 658.205696 
L 623.963725 682.389339 
L 624.953583 675.411539 
L 625.943442 690.142721 
L 626.933301 670.867074 
L 627.92316 578.495489 
L 628.913019 683.496711 
L 629.902878 709.670505 
L 630.892737 714.488068 
L 631.882596 684.589105 
L 632.872455 708.293627 
L 633.862314 696.066457 
L 634.852173 715.062411 
L 635.842032 708.878158 
L 636.831891 716.111092 
L 637.82175 708.764366 
L 638.811609 715.10314 
L 639.801468 692.380811 
L 640.791327 714.781533 
L 641.781186 709.48305 
L 642.771045 711.206688 
L 643.760904 707.891767 
L 644.750763 692.795257 
L 645.740622 721.493417 
L 646.730481 708.209185 
L 647.72034 712.728492 
L 648.710199 716.473429 
L 649.700058 716.567453 
L 650.689917 714.639591 
L 651.679776 713.266911 
L 652.669635 713.925697 
L 653.659494 712.888403 
L 654.649353 715.278016 
L 655.639212 708.901511 
L 656.629071 715.999099 
L 657.61893 716.344666 
L 658.608789 719.169678 
L 659.598648 697.897896 
L 660.588507 699.564041 
L 661.578365 712.916553 
L 662.568224 716.790846 
L 663.558083 717.440051 
L 664.547942 717.647274 
L 665.537801 716.793837 
L 666.52766 717.011241 
L 667.517519 713.59151 
L 668.507378 695.276502 
L 669.497237 712.434434 
L 670.487096 715.04864 
L 671.476955 719.093624 
L 672.466814 716.584223 
L 673.456673 715.502009 
L 674.446532 718.269529 
L 675.436391 717.423281 
L 676.42625 713.471735 
L 677.416109 715.534949 
L 678.405968 714.479686 
L 679.395827 712.281712 
L 680.385686 718.415062 
L 681.375545 712.154748 
L 682.365404 715.293593 
L 683.355263 715.938009 
L 684.345122 713.532219 
L 685.334981 712.063116 
L 686.32484 715.231904 
L 687.314699 717.847308 
L 688.304558 713.867005 
L 689.294417 717.554443 
L 690.284276 719.079246 
L 691.274135 710.037033 
L 692.263994 719.909923 
L 693.253853 716.08594 
L 694.243712 713.501677 
L 695.233571 716.427909 
L 696.22343 711.007253 
L 697.213289 667.933053 
L 698.203148 561.289645 
L 699.193006 552.432488 
L 700.182865 512.997221 
L 701.172724 487.679855 
L 702.162583 604.814816 
L 703.152442 698.130271 
L 704.142301 704.413345 
L 705.13216 687.196121 
L 706.122019 689.567771 
L 707.111878 690.606871 
L 708.101737 682.517502 
L 709.091596 681.60538 
L 710.081455 650.315168 
L 711.071314 673.871159 
L 712.061173 687.309313 
L 713.051032 663.280784 
L 714.040891 676.114046 
L 715.03075 683.856649 
L 716.020609 694.600346 
L 717.010468 677.952075 
L 718.000327 698.271613 
L 718.990186 667.582695 
L 719.980045 672.509859 
L 720.969904 665.369157 
L 721.959763 679.197791 
L 722.949622 700.525274 
L 723.939481 687.756093 
L 724.92934 705.544669 
L 725.919199 705.477596 
L 726.909058 704.088739 
L 727.898917 687.947746 
L 728.888776 676.577596 
L 729.878635 704.391185 
L 730.868494 696.20061 
L 731.858353 705.030216 
L 732.848212 675.869699 
L 733.838071 709.89629 
L 734.82793 715.454098 
L 735.817788 676.046374 
L 736.807647 684.423211 
L 737.797506 689.63126 
L 739.777224 712.908165 
L 740.767083 671.467768 
L 741.756942 666.575343 
L 742.746801 707.253935 
L 743.73666 713.205221 
L 744.726519 694.511106 
L 745.716378 694.856073 
L 746.706237 705.871674 
L 747.696096 706.427449 
L 748.685955 706.399305 
L 749.675814 692.558685 
L 750.665673 709.984924 
L 751.655532 698.568662 
L 752.645391 703.164637 
L 753.63525 710.719778 
L 754.625109 709.663316 
L 755.614968 714.08201 
L 756.604827 704.105509 
L 757.594686 711.098286 
L 758.584545 707.561172 
L 759.574404 694.438642 
L 760.564263 711.273161 
L 761.554122 690.576922 
L 762.543981 718.310258 
L 763.53384 711.277359 
L 764.523699 711.485774 
L 765.513558 715.55112 
L 766.503417 713.64182 
L 767.493276 708.346329 
L 768.483135 715.984721 
L 769.472994 702.920883 
L 770.462853 704.767893 
L 771.452712 701.522445 
L 772.442571 713.843653 
L 773.432429 698.479429 
L 774.422288 714.08201 
L 775.412147 711.116255 
L 776.402006 706.97245 
L 777.391865 704.390585 
L 778.381724 715.759535 
L 779.371583 712.67579 
L 780.361442 713.120178 
L 781.351301 716.014669 
L 782.34116 704.742741 
L 783.331019 698.45547 
L 784.320878 706.160342 
L 785.310737 705.880655 
L 786.300596 709.202165 
L 787.290455 715.11572 
L 788.280314 712.021794 
L 789.270173 699.851509 
L 790.260032 704.025856 
L 791.249891 704.336084 
L 792.23975 689.684562 
L 793.229609 703.761741 
L 794.219468 522.149634 
L 795.209327 540.727559 
L 796.199186 705.193112 
L 797.189045 706.528668 
L 798.178904 532.768159 
L 799.168763 706.934719 
L 800.158622 706.15675 
L 801.148481 520.41521 
L 802.13834 694.878233 
L 803.128199 693.130037 
L 804.118058 698.661493 
L 805.107917 361.426612 
L 806.097776 642.881001 
L 807.087635 694.321852 
L 808.077494 701.75961 
L 809.067353 696.081428 
L 810.057212 703.057435 
L 811.04707 696.540787 
L 812.036929 686.418152 
L 813.026788 694.75007 
L 814.016647 677.616096 
L 815.006506 668.466074 
L 815.996365 697.410387 
L 816.986224 667.158075 
L 817.976083 600.032586 
L 818.965942 703.620998 
L 819.955801 706.740675 
L 820.94566 699.01365 
L 821.935519 707.812708 
L 822.925378 707.358746 
L 823.915237 710.78925 
L 824.905096 708.907501 
L 825.894955 706.224423 
L 826.884814 697.781113 
L 827.874673 690.90931 
L 828.864532 692.264028 
L 829.854391 712.075096 
L 830.84425 693.088715 
L 831.834109 708.248714 
L 832.823968 695.272311 
L 833.813827 686.27741 
L 834.803686 713.66997 
L 836.783404 689.07308 
L 837.773263 713.856825 
L 838.763122 713.368723 
L 839.752981 706.304076 
L 840.74284 706.665813 
L 841.732699 708.670336 
L 842.722558 711.723539 
L 843.712417 687.865095 
L 844.702276 711.024023 
L 845.692135 680.000319 
L 846.681994 700.079093 
L 847.671852 698.4938 
L 848.661711 686.929014 
L 849.65157 704.410953 
L 851.631288 690.290047 
L 852.621147 706.024389 
L 853.611006 695.973026 
L 854.600865 700.682786 
L 855.590724 701.890771 
L 856.580583 705.514727 
L 858.560301 697.829024 
L 859.55016 701.542213 
L 860.540019 708.939242 
L 861.529878 686.533737 
L 862.519737 706.204662 
L 863.509596 706.099251 
L 864.499455 715.398397 
L 866.479173 700.487543 
L 867.469032 713.70231 
L 868.458891 716.370417 
L 869.44875 714.292225 
L 870.438609 704.473236 
L 871.428468 692.134665 
L 872.418327 718.220425 
L 873.408186 714.722834 
L 874.398045 712.554816 
L 875.387904 711.419294 
L 877.367622 720.042877 
L 878.357481 716.282376 
L 879.34734 709.047644 
L 880.337199 717.130423 
L 882.316917 710.330491 
L 883.306776 711.73312 
L 884.296635 710.119677 
L 885.286493 711.25879 
L 886.276352 714.461717 
L 887.266211 704.1642 
L 888.25607 702.978375 
L 889.245929 709.959173 
L 890.235788 703.340113 
L 891.225647 704.141447 
L 892.215506 685.734801 
L 893.205365 687.880666 
L 894.195224 687.356032 
L 895.185083 704.166599 
L 896.174942 526.026319 
L 897.164801 689.482729 
L 898.15466 686.70742 
L 899.144519 680.419555 
L 900.134378 686.088156 
L 901.124237 687.082929 
L 902.114096 677.203449 
L 903.103955 694.916563 
L 904.093814 694.456605 
L 905.083673 698.651313 
L 906.073532 706.305275 
L 907.063391 693.094705 
L 908.05325 702.146505 
L 909.043109 693.133635 
L 910.032968 690.464329 
L 911.022827 714.446746 
L 912.012686 703.536555 
L 913.002545 699.4772 
L 913.992404 711.198299 
L 914.982263 696.858803 
L 915.972122 703.654538 
L 916.961981 707.618071 
L 917.95184 704.547498 
L 918.941699 704.346272 
L 919.931558 708.848209 
L 920.921417 702.36271 
L 921.911275 704.320514 
L 922.901134 708.376278 
L 923.890993 692.30535 
L 924.880852 707.372518 
L 925.870711 715.827215 
L 926.86057 671.230003 
L 927.850429 673.867568 
L 928.840288 703.937816 
L 929.830147 704.946966 
L 930.820006 711.144998 
L 931.809865 712.639858 
L 932.799724 705.489569 
L 933.789583 711.289931 
L 934.779442 712.306871 
L 935.769301 708.143304 
L 936.75916 710.229278 
L 937.749019 717.978463 
L 938.738878 715.702642 
L 939.728737 707.165894 
L 940.718596 711.657059 
L 941.708455 713.331592 
L 942.698314 708.634404 
L 943.688173 705.258393 
L 944.678032 713.460955 
L 945.667891 714.197601 
L 946.65775 716.150622 
L 947.647609 713.838263 
L 948.637468 711.211478 
L 949.627327 713.356743 
L 950.617186 48.013636 
L 952.596904 682.534272 
L 953.586763 525.18726 
L 954.576622 709.096155 
L 955.566481 702.846021 
L 956.55634 712.630277 
L 957.546199 357.07739 
L 958.536058 541.482774 
L 959.525916 561.634012 
L 960.515775 701.225988 
L 961.505634 532.896922 
L 962.495493 586.684271 
L 963.485352 480.414574 
L 964.475211 694.011024 
L 965.46507 528.795645 
L 966.454929 706.254372 
L 967.444788 706.511299 
L 968.434647 711.868472 
L 969.424506 710.890463 
L 970.414365 712.024786 
L 970.414365 712.024786 
" style="fill:none;stroke:#1f77b4;stroke-linecap:square;stroke-width:1.5;"/>
   </g>
   <g id="line2d_15">
    <path clip-path="url(#p47d15e2256)" d="M 971.404224 691.998713 
L 972.394083 705.745303 
L 973.383942 708.956012 
L 975.36366 704.082156 
L 976.353519 696.886947 
L 977.343378 677.166918 
L 978.333237 682.037782 
L 979.323096 651.430322 
L 980.312955 651.878901 
L 981.302814 661.393045 
L 982.292673 650.331938 
L 983.282532 665.538643 
L 984.272391 669.425515 
L 985.26225 666.795139 
L 986.252109 655.579511 
L 987.241968 657.583434 
L 988.231827 701.552394 
L 989.221686 683.881801 
L 990.211545 707.707904 
L 991.201404 703.154457 
L 992.191263 700.130003 
L 993.181122 704.825992 
L 994.170981 706.792184 
L 995.16084 695.399875 
L 996.150698 693.760088 
L 997.140557 705.519518 
L 998.130416 702.370492 
L 999.120275 697.730203 
L 1000.110134 698.278196 
L 1001.099993 692.229888 
L 1002.089852 696.041298 
L 1003.079711 693.871481 
L 1004.06957 703.23291 
L 1005.059429 697.479859 
L 1006.049288 699.628722 
L 1007.039147 698.524948 
L 1008.029006 698.824396 
L 1009.018865 708.427781 
L 1010.008724 714.449138 
L 1010.998583 708.028912 
L 1011.988442 707.607884 
L 1012.978301 715.809845 
L 1013.96816 710.087336 
L 1014.958019 710.187956 
L 1015.947878 720.007545 
L 1016.937737 714.016729 
L 1017.927596 709.827418 
L 1018.917455 710.412542 
L 1019.907314 701.095433 
L 1020.897173 717.038791 
L 1021.887032 714.168252 
L 1022.876891 713.867005 
L 1023.86675 708.676925 
L 1024.856609 716.822587 
L 1025.846468 710.383792 
L 1026.836327 708.706874 
L 1027.826186 712.367354 
L 1028.816045 709.601633 
L 1029.805904 716.113484 
L 1030.795763 718.000623 
L 1031.785622 714.442548 
L 1032.775481 715.536149 
L 1033.765339 711.356412 
L 1034.755198 716.41593 
L 1035.745057 710.949754 
L 1036.734916 717.915581 
L 1037.724775 713.902944 
L 1038.714634 707.322807 
L 1039.704493 712.376342 
L 1040.694352 710.992875 
L 1041.684211 713.299251 
L 1042.67407 720.127326 
L 1043.663929 712.005624 
L 1044.653788 707.792946 
L 1045.643647 711.218067 
L 1046.633506 716.665074 
L 1047.623365 706.746065 
L 1048.613224 709.005722 
L 1049.603083 717.686804 
L 1050.592942 706.484348 
L 1051.582801 710.852139 
L 1052.57266 712.937514 
L 1053.562519 710.380201 
L 1054.552378 713.501077 
L 1055.542237 708.805688 
L 1056.532096 707.020961 
L 1058.511814 721.096947 
L 1059.501673 716.739337 
L 1060.491532 710.631145 
L 1061.481391 710.101115 
L 1062.47125 709.83041 
L 1064.450968 721.62877 
L 1065.440827 707.899549 
L 1066.430686 719.630237 
L 1067.420545 715.57807 
L 1068.410404 716.681844 
L 1069.400263 708.668544 
L 1070.390122 717.518511 
L 1071.37998 716.332686 
L 1072.369839 715.965559 
L 1073.359698 718.777399 
L 1074.349557 707.99358 
L 1075.339416 705.220063 
L 1076.329275 707.734854 
L 1077.319134 708.878758 
L 1078.308993 712.388322 
L 1079.298852 712.128997 
L 1080.288711 718.671996 
L 1081.27857 714.279652 
L 1082.268429 707.233574 
L 1083.258288 714.917478 
L 1084.248147 717.795799 
L 1085.238006 717.241217 
L 1086.227865 549.261908 
L 1087.217724 710.3826 
L 1088.207583 709.423159 
L 1089.197442 714.156872 
L 1090.187301 713.975407 
L 1091.17716 705.806993 
L 1092.167019 704.913426 
L 1093.156878 711.663648 
L 1094.146737 712.2907 
L 1095.136596 544.456918 
L 1096.126455 635.696579 
L 1097.116314 613.183272 
L 1098.106173 538.89492 
L 1099.096032 713.545997 
L 1100.085891 716.52793 
L 1101.07575 531.497285 
L 1102.065609 558.153798 
L 1103.055468 711.458224 
L 1104.045327 430.716529 
L 1105.035186 656.377847 
L 1106.025045 561.491478 
L 1107.014904 709.340509 
L 1108.004762 552.114471 
L 1108.994621 704.469045 
L 1109.98448 714.385056 
L 1110.974339 708.486472 
L 1111.964198 709.963363 
L 1112.954057 709.518383 
L 1113.943916 717.316079 
L 1114.933775 707.51985 
L 1115.923634 714.700081 
L 1116.913493 710.632937 
L 1117.903352 710.160406 
L 1118.893211 708.627814 
L 1119.88307 710.464051 
L 1120.872929 704.573849 
L 1121.862788 697.179212 
L 1122.852647 714.691093 
L 1123.842506 707.56357 
L 1124.832365 714.994739 
L 1125.822224 709.942403 
L 1126.812083 696.555158 
L 1127.801942 716.288366 
L 1128.791801 708.894329 
L 1129.78166 691.223736 
L 1130.771519 714.965989 
L 1131.761378 710.193946 
L 1132.751237 708.736816 
L 1133.741096 700.080293 
L 1134.730955 709.81783 
L 1135.720814 705.463218 
L 1136.710673 712.096056 
L 1137.700532 707.133554 
L 1138.690391 683.129583 
L 1139.68025 708.118152 
L 1140.670109 715.604421 
L 1141.659968 708.99195 
L 1142.649827 707.58034 
L 1143.639686 712.022987 
L 1144.629545 712.384724 
L 1145.619403 709.226117 
L 1146.609262 695.562778 
L 1147.599121 705.778243 
L 1148.58898 706.640661 
L 1149.578839 703.896494 
L 1150.568698 702.683118 
L 1151.558557 707.639032 
L 1152.548416 714.759972 
L 1153.538275 707.723475 
L 1154.528134 709.368659 
L 1155.517993 704.509168 
L 1156.507852 702.693898 
L 1157.497711 703.791683 
L 1158.48757 699.604164 
L 1159.477429 712.128397 
L 1160.467288 709.538744 
L 1161.457147 709.154253 
L 1162.447006 702.060863 
L 1163.436865 702.579507 
L 1165.416583 711.020425 
L 1166.406442 707.756415 
L 1167.396301 551.286193 
L 1168.38616 673.655555 
L 1168.38616 673.655555 
" style="fill:none;stroke:#ff7f0e;stroke-linecap:square;stroke-width:1.5;"/>
   </g>
   <g id="line2d_16">
    <path clip-path="url(#p47d15e2256)" d="M 1169.376019 548.730679 
L 1170.365878 540.377801 
L 1171.355737 474.801073 
L 1172.345596 703.031677 
L 1173.335455 711.248609 
L 1174.325314 713.846644 
L 1175.315173 588.021619 
L 1176.305032 539.487233 
L 1177.294891 541.321671 
L 1178.28475 713.616668 
L 1179.274609 527.049841 
L 1180.264468 713.076458 
L 1181.254327 701.231379 
L 1182.244185 706.15675 
L 1183.234044 703.813843 
L 1184.223903 697.173822 
L 1185.213762 700.674405 
L 1186.203621 697.859566 
L 1187.19348 701.409252 
L 1188.183339 642.688756 
L 1189.173198 593.25063 
L 1190.163057 661.042095 
L 1191.152916 703.938415 
L 1192.142775 700.046153 
L 1193.132634 548.975033 
L 1194.122493 702.202798 
L 1195.112352 703.152058 
L 1196.102211 706.511299 
L 1197.09207 713.104008 
L 1198.081929 711.276759 
L 1199.071788 702.474703 
L 1200.061647 708.110364 
L 1201.051506 686.781682 
L 1202.041365 700.91576 
L 1203.031224 712.68118 
L 1204.021083 703.201169 
L 1205.010942 711.434272 
L 1206.000801 710.479622 
L 1206.99066 714.17784 
L 1207.980519 714.263482 
L 1208.970378 707.648013 
L 1209.960237 714.597069 
L 1210.950096 708.675726 
L 1211.939955 713.142338 
L 1212.929814 698.188363 
L 1213.919673 707.604292 
L 1214.909532 690.235546 
L 1215.899391 693.799011 
L 1216.88925 685.973165 
L 1217.879109 710.638327 
L 1218.868968 702.195016 
L 1219.858826 711.371982 
L 1220.848685 717.43047 
L 1221.838544 715.628973 
L 1222.828403 714.615632 
L 1223.818262 714.721642 
L 1224.808121 711.839123 
L 1225.79798 718.089264 
L 1226.787839 715.823017 
L 1227.777698 711.595375 
L 1228.767557 719.434394 
L 1229.757416 718.895382 
L 1230.747275 717.940732 
L 1231.737134 709.326737 
L 1232.726993 709.291998 
L 1233.716852 721.588647 
L 1234.706711 714.728224 
L 1235.69657 707.076061 
L 1236.686429 719.433201 
L 1237.676288 715.649341 
L 1238.666147 709.983731 
L 1239.656006 707.720483 
L 1240.645865 712.805753 
L 1241.635724 716.128461 
L 1242.625583 714.061049 
L 1243.615442 709.949592 
L 1244.605301 708.091801 
L 1245.59516 706.832307 
L 1246.585019 702.744208 
L 1247.574878 716.872297 
L 1248.564737 712.356574 
L 1249.554596 718.810939 
L 1250.544455 707.064082 
L 1251.534314 712.053535 
L 1252.524173 712.109828 
L 1253.514032 710.060386 
L 1254.503891 715.054629 
L 1255.49375 708.857797 
L 1256.483608 709.762737 
L 1257.473467 701.541014 
L 1258.463326 700.274937 
L 1259.453185 701.37991 
L 1260.443044 701.622465 
L 1261.432903 713.040526 
L 1262.422762 714.907297 
L 1263.412621 712.680581 
L 1264.40248 718.920541 
L 1265.392339 711.366592 
L 1266.382198 702.530996 
L 1267.372057 706.629881 
L 1268.361916 717.49815 
L 1269.351775 706.540641 
L 1270.341634 715.832005 
L 1271.331493 712.931524 
L 1272.321352 707.813308 
L 1273.311211 707.776776 
L 1274.30107 695.940685 
L 1275.290929 686.75174 
L 1276.280788 697.920056 
L 1277.270647 689.136562 
L 1278.260506 690.400847 
L 1279.250365 703.184399 
L 1280.240224 676.688397 
L 1281.230083 668.945794 
L 1282.219942 677.834093 
L 1283.209801 707.151523 
L 1284.19966 701.441 
L 1285.189519 677.592737 
L 1286.179378 670.776041 
L 1287.169237 675.925992 
L 1288.159096 669.180568 
L 1289.148955 686.034855 
L 1290.138814 684.970004 
L 1291.128673 683.669194 
L 1292.118532 699.54368 
L 1293.108391 700.741478 
L 1294.098249 703.207159 
L 1295.088108 709.459091 
L 1296.077967 704.673869 
L 1297.067826 711.546265 
L 1298.057685 708.840428 
L 1299.047544 713.966426 
L 1300.037403 696.655172 
L 1301.027262 705.721943 
L 1302.017121 711.556445 
L 1303.00698 709.658526 
L 1303.996839 712.329624 
L 1304.986698 707.403059 
L 1305.976557 710.408951 
L 1306.966416 700.576783 
L 1307.956275 714.979767 
L 1308.946134 701.85424 
L 1309.935993 706.802964 
L 1310.925852 692.558092 
L 1311.915711 708.549961 
L 1312.90557 694.454813 
L 1313.895429 704.121079 
L 1314.885288 711.167758 
L 1315.875147 707.210214 
L 1316.865006 704.492398 
L 1317.854865 704.621167 
L 1318.844724 710.847342 
L 1319.834583 711.626517 
L 1320.824442 705.151791 
L 1321.814301 704.115689 
L 1322.80416 707.196443 
L 1323.794019 709.601033 
L 1324.783878 705.696192 
L 1325.773737 705.678223 
L 1326.763596 711.601958 
L 1327.753455 710.357441 
L 1328.743314 706.294495 
L 1329.733173 697.467287 
L 1330.723032 705.895027 
L 1331.71289 706.468777 
L 1332.702749 708.726635 
L 1333.692608 698.230284 
L 1334.682467 712.074496 
L 1335.672326 714.427577 
L 1336.662185 693.951733 
L 1337.652044 708.94164 
L 1338.641903 709.650144 
L 1339.631762 708.136714 
L 1340.621621 706.325636 
L 1341.61148 711.69898 
L 1342.601339 712.756042 
L 1343.591198 716.311126 
L 1344.581057 715.97454 
L 1345.570916 714.170051 
L 1346.560775 711.603157 
L 1347.550634 712.667409 
L 1348.540493 710.294559 
L 1349.530352 710.865311 
L 1350.520211 703.822831 
L 1351.51007 710.951553 
L 1352.499929 711.216868 
L 1353.489788 717.495152 
L 1354.479647 705.59378 
L 1355.469506 698.908239 
L 1356.459365 711.453434 
L 1357.449224 712.412274 
L 1358.439083 712.520676 
L 1359.428942 705.792614 
L 1360.418801 702.511834 
L 1361.40866 710.054995 
L 1362.398519 705.812383 
L 1363.388378 713.484307 
L 1364.378237 701.970424 
L 1365.368096 697.739184 
L 1366.357955 674.743765 
L 1366.357955 674.743765 
" style="fill:none;stroke:#2ca02c;stroke-linecap:square;stroke-width:1.5;"/>
   </g>
   <g id="line2d_17">
    <path clip-path="url(#p47d15e2256)" d="M 226.040417 677.421925 
L 227.030276 677.997619 
L 228.020135 677.174404 
L 229.009994 676.713512 
L 230.989712 676.430231 
L 231.979571 675.865867 
L 232.96943 674.09449 
L 234.949148 671.083875 
L 235.939007 671.233151 
L 236.928866 672.381445 
L 237.918725 674.059055 
L 238.908584 675.136442 
L 239.898443 674.576132 
L 240.888302 672.868165 
L 241.878161 671.656786 
L 242.86802 671.589547 
L 243.857879 671.277008 
L 244.847738 670.633176 
L 245.837597 670.875357 
L 246.827456 670.100441 
L 247.817315 669.847043 
L 248.807174 669.138455 
L 249.797033 668.043052 
L 250.786892 667.506685 
L 251.776751 667.752123 
L 252.766609 667.168094 
L 253.756468 667.248883 
L 254.746327 667.479648 
L 255.736186 665.732265 
L 256.726045 665.530448 
L 259.695622 663.742764 
L 260.685481 661.394059 
L 261.67534 661.766663 
L 262.665199 661.811144 
L 264.644917 661.671163 
L 265.634776 661.253717 
L 266.624635 662.393127 
L 267.614494 661.737829 
L 268.604353 661.637425 
L 269.594212 661.074757 
L 270.584071 660.898817 
L 271.57393 660.899529 
L 272.563789 663.34528 
L 273.553648 662.836725 
L 274.543507 663.382025 
L 277.513084 666.831449 
L 278.502943 667.656748 
L 279.492802 667.924756 
L 281.47252 671.305007 
L 282.462379 674.225662 
L 283.452238 675.54886 
L 284.442097 675.245679 
L 285.431956 676.147512 
L 286.421815 676.756595 
L 287.411674 676.922104 
L 288.401533 679.16544 
L 289.391392 680.417082 
L 291.371109 680.781576 
L 292.360968 681.748215 
L 293.350827 682.309311 
L 294.340686 683.930713 
L 295.330545 685.027401 
L 296.320404 685.404422 
L 297.310263 686.423803 
L 298.300122 686.432025 
L 299.289981 685.819261 
L 300.27984 685.929958 
L 302.259558 687.157132 
L 303.249417 688.777486 
L 304.239276 688.716186 
L 307.208853 691.6049 
L 308.198712 693.549296 
L 309.188571 693.270782 
L 310.17843 693.34688 
L 311.168289 692.996548 
L 312.158148 693.573789 
L 313.148007 694.467313 
L 315.127725 694.568839 
L 317.107443 693.820973 
L 318.097302 694.389106 
L 319.087161 695.179756 
L 320.07702 695.453042 
L 321.066879 695.479419 
L 322.056738 694.923364 
L 324.036456 695.861182 
L 326.016174 695.749736 
L 327.006032 695.801416 
L 327.995891 695.223414 
L 328.98575 695.860894 
L 329.975609 696.180446 
L 330.965468 696.379107 
L 331.955327 695.874495 
L 332.945186 695.499407 
L 333.935045 694.547329 
L 334.924904 695.650206 
L 335.914763 695.145669 
L 336.904622 695.038303 
L 337.894481 694.800028 
L 339.874199 694.548127 
L 340.864058 693.874375 
L 342.843776 693.485326 
L 344.823494 693.2817 
L 347.793071 693.90336 
L 350.762648 692.83316 
L 351.752507 693.348764 
L 352.742366 693.222097 
L 353.732225 691.885086 
L 354.722084 691.615169 
L 355.711943 692.088588 
L 356.701802 692.228394 
L 357.691661 691.523237 
L 358.68152 692.112145 
L 359.671379 692.066092 
L 360.661238 691.37723 
L 361.651097 691.135237 
L 362.640956 691.227892 
L 363.630815 691.511484 
L 364.620673 691.919336 
L 365.610532 691.689869 
L 366.600391 691.85141 
L 367.59025 690.976627 
L 368.580109 690.404427 
L 369.569968 690.883386 
L 370.559827 689.88342 
L 371.549686 690.017798 
L 372.539545 690.781797 
L 373.529404 691.095671 
L 374.519263 691.601381 
L 375.509122 692.323807 
L 376.498981 691.567806 
L 377.48884 691.534105 
L 378.478699 690.97004 
L 380.458417 691.897651 
L 381.448276 692.618391 
L 382.438135 691.234305 
L 383.427994 691.812769 
L 384.417853 691.948695 
L 385.407712 692.725869 
L 386.397571 693.330161 
L 387.38743 692.940775 
L 388.377289 693.544318 
L 389.367148 693.335202 
L 390.357007 692.236617 
L 391.346866 690.354681 
L 392.336725 689.62976 
L 393.326584 687.886932 
L 394.316443 687.546082 
L 395.306302 686.60109 
L 396.296161 686.108643 
L 397.28602 685.873911 
L 398.275879 686.247825 
L 399.265738 686.426398 
L 400.255597 685.376673 
L 401.245455 686.440622 
L 402.235314 685.810627 
L 404.215032 682.719933 
L 405.204891 682.951072 
L 406.19475 681.988312 
L 407.184609 681.702524 
L 408.174468 681.948049 
L 409.164327 681.979404 
L 411.144045 681.707503 
L 412.133904 681.616744 
L 413.123763 681.926513 
L 414.113622 681.885389 
L 415.103481 682.411898 
L 416.09334 683.643065 
L 417.083199 681.762177 
L 418.073058 681.840883 
L 419.062917 680.923815 
L 420.052776 680.972002 
L 421.042635 679.54165 
L 422.032494 678.409264 
L 424.012212 678.559301 
L 425.002071 678.317757 
L 425.99193 676.904798 
L 426.981789 676.32168 
L 427.971648 676.334158 
L 428.961507 676.628505 
L 429.951366 677.306349 
L 430.941225 675.911545 
L 431.931084 676.080273 
L 432.920943 675.228922 
L 433.910802 675.323261 
L 434.900661 674.852625 
L 435.89052 674.950445 
L 436.880379 674.793533 
L 437.870238 675.618096 
L 438.860096 677.644367 
L 439.849955 677.665291 
L 440.839814 678.899465 
L 441.829673 679.555886 
L 442.819532 680.903252 
L 444.79925 682.122641 
L 445.789109 682.580751 
L 446.778968 682.514298 
L 447.768827 683.762933 
L 448.758686 683.4807 
L 449.748545 684.366064 
L 450.738404 686.133597 
L 451.728263 686.898682 
L 452.718122 687.518957 
L 453.707981 687.170284 
L 455.687699 688.201642 
L 456.677558 688.38135 
L 457.667417 689.216531 
L 458.657276 689.713619 
L 459.647135 690.588003 
L 460.636994 690.096729 
L 461.626853 690.362117 
L 462.616712 690.766313 
L 463.606571 690.983727 
L 464.59643 693.197492 
L 465.586289 694.038923 
L 466.576148 694.597075 
L 467.566007 694.228738 
L 468.555866 694.629603 
L 469.545725 694.640695 
L 470.535584 695.124919 
L 471.525443 695.144446 
L 472.515302 693.094892 
L 473.505161 690.537383 
L 474.49502 691.554804 
L 475.484878 691.207117 
L 476.474737 691.012 
L 477.464596 691.744943 
L 478.454455 693.027491 
L 479.444314 692.637905 
L 480.434173 693.425448 
L 481.424032 693.435343 
L 482.413891 694.316289 
L 483.40375 694.087784 
L 484.393609 694.191281 
L 486.373327 693.804803 
L 487.363186 694.769508 
L 489.342904 695.38055 
L 491.322622 694.808025 
L 492.312481 695.075073 
L 493.30234 694.335691 
L 495.282058 694.534564 
L 496.271917 694.873879 
L 497.261776 694.321018 
L 498.251635 694.174238 
L 499.241494 695.000672 
L 500.231353 695.049619 
L 501.221212 696.098558 
L 502.211071 696.443538 
L 503.20093 695.480866 
L 504.190789 695.781003 
L 505.180648 695.367848 
L 506.170507 695.548804 
L 507.160366 694.954531 
L 508.150225 695.455687 
L 513.099519 694.797744 
L 515.079237 695.195315 
L 516.069096 695.648246 
L 517.058955 696.45171 
L 518.048814 696.37439 
L 519.038673 696.887611 
L 520.028532 698.709981 
L 521.018391 703.30297 
L 522.00825 703.357121 
L 522.998109 703.114515 
L 524.977827 702.032737 
L 526.957545 701.982542 
L 527.947404 701.888052 
L 528.937263 701.553591 
L 529.927122 701.35382 
L 530.916981 701.623388 
L 531.90684 701.35891 
L 532.896699 700.859027 
L 533.886558 700.503254 
L 534.876417 700.308961 
L 535.866276 700.47714 
L 536.856135 700.033154 
L 537.845994 700.004856 
L 538.835853 700.249919 
L 540.815571 700.17316 
L 541.80543 699.676309 
L 542.795289 699.643194 
L 543.785148 699.799558 
L 544.775007 700.103687 
L 545.764866 700.173996 
L 546.754725 699.806108 
L 547.744584 699.671655 
L 548.734443 699.776612 
L 549.724302 699.652527 
L 550.71416 700.032231 
L 551.704019 699.693377 
L 552.693878 700.365233 
L 553.683737 700.516717 
L 554.673596 701.013793 
L 556.653314 701.11351 
L 557.643173 701.110179 
L 559.622891 699.753005 
L 562.592468 699.551612 
L 564.572186 700.3352 
L 565.562045 700.241859 
L 566.551904 700.29032 
L 567.541763 700.577917 
L 568.531622 700.686131 
L 569.521481 700.644969 
L 570.51134 701.237308 
L 571.501199 702.007445 
L 572.491058 702.32092 
L 573.480917 702.375545 
L 574.470776 702.899784 
L 575.460635 702.855814 
L 577.440353 703.347837 
L 578.430212 703.117921 
L 579.420071 703.991332 
L 580.40993 705.101982 
L 581.399789 705.603787 
L 585.359225 706.823176 
L 586.349084 706.791235 
L 587.338942 707.087666 
L 588.328801 707.778798 
L 590.308519 708.421844 
L 593.278096 708.672559 
L 594.267955 708.970887 
L 595.257814 709.146577 
L 597.237532 709.125316 
L 598.227391 709.265134 
L 599.21725 709.655918 
L 600.207109 709.635143 
L 602.186827 709.385464 
L 603.176686 709.222126 
L 606.146263 709.331924 
L 607.136122 710.167342 
L 608.125981 710.435987 
L 610.105699 709.987797 
L 612.085417 709.488662 
L 613.075276 709.070529 
L 615.054994 708.54503 
L 616.044853 708.014653 
L 617.034712 707.902446 
L 620.004289 706.176075 
L 620.994148 705.054906 
L 621.984007 704.403264 
L 622.973866 703.431821 
L 623.963725 702.841316 
L 624.953583 702.070667 
L 625.943442 701.864957 
L 626.933301 700.945631 
L 627.92316 698.03729 
L 628.913019 697.708268 
L 629.902878 697.506663 
L 630.892737 697.440035 
L 631.882596 697.022701 
L 635.842032 696.501756 
L 636.831891 696.636746 
L 637.82175 696.373566 
L 638.811609 696.361725 
L 639.801468 696.058419 
L 643.760904 695.964118 
L 644.750763 695.643306 
L 645.740622 696.191176 
L 647.72034 695.986439 
L 649.700058 696.241359 
L 651.679776 696.668027 
L 652.669635 696.826648 
L 653.659494 697.31116 
L 654.649353 697.319631 
L 655.639212 697.188547 
L 656.629071 697.588875 
L 658.608789 698.591249 
L 659.598648 698.594106 
L 661.578365 699.194156 
L 662.568224 699.637318 
L 663.558083 700.217167 
L 664.547942 700.454794 
L 667.517519 702.289429 
L 669.497237 703.49634 
L 670.487096 704.680568 
L 672.466814 706.303005 
L 673.456673 706.831324 
L 674.446532 707.818875 
L 675.436391 710.713204 
L 676.42625 711.337684 
L 677.416109 711.459859 
L 678.405968 711.459685 
L 679.395827 712.036614 
L 680.385686 712.247477 
L 681.375545 712.58265 
L 682.365404 712.587466 
L 683.355263 712.734547 
L 684.345122 712.68082 
L 686.32484 712.752227 
L 687.314699 713.282779 
L 688.304558 713.263726 
L 690.284276 713.595892 
L 691.274135 713.640585 
L 692.263994 714.205474 
L 693.253853 714.092818 
L 695.233571 714.280149 
L 696.22343 714.166271 
L 697.213289 713.153054 
L 699.193006 706.607546 
L 700.182865 702.421536 
L 701.172724 697.729692 
L 702.162583 695.428375 
L 704.142301 694.962604 
L 706.122019 693.738636 
L 707.111878 693.58674 
L 708.101737 693.231604 
L 709.091596 692.579288 
L 710.081455 691.194378 
L 711.071314 690.286693 
L 712.061173 689.654652 
L 713.051032 688.539796 
L 714.040891 687.687772 
L 715.03075 687.068295 
L 716.020609 687.054209 
L 717.010468 686.335826 
L 718.000327 685.986305 
L 719.980045 683.994945 
L 720.969904 682.95051 
L 721.959763 682.136516 
L 722.949622 681.784474 
L 723.939481 681.248731 
L 726.909058 680.68237 
L 728.888776 679.306443 
L 729.878635 679.07931 
L 730.868494 678.668114 
L 731.858353 678.490989 
L 732.848212 677.73696 
L 734.82793 677.575942 
L 736.807647 676.097779 
L 737.797506 675.484279 
L 739.777224 675.148882 
L 741.756942 673.241704 
L 742.746801 673.05058 
L 743.73666 673.096371 
L 744.726519 673.65008 
L 745.716378 676.432714 
L 746.706237 679.629364 
L 747.696096 683.65916 
L 748.685955 688.215816 
L 749.675814 690.043813 
L 750.665673 690.290785 
L 751.655532 690.169021 
L 753.63525 690.942365 
L 754.625109 691.339374 
L 755.614968 691.996968 
L 756.604827 692.465721 
L 757.594686 693.732036 
L 758.584545 694.433911 
L 759.574404 694.582439 
L 760.564263 695.58228 
L 761.554122 695.88359 
L 762.543981 696.601373 
L 763.53384 696.948811 
L 764.523699 697.64743 
L 765.513558 698.007419 
L 766.503417 698.966985 
L 767.493276 699.713578 
L 768.483135 700.768069 
L 769.472994 701.2623 
L 770.462853 701.350688 
L 772.442571 701.810382 
L 773.432429 701.664587 
L 774.422288 701.87278 
L 775.412147 702.355457 
L 776.402006 702.988683 
L 777.391865 702.988671 
L 778.381724 703.396149 
L 779.371583 703.555431 
L 780.361442 704.331483 
L 781.351301 704.458949 
L 782.34116 704.235796 
L 784.320878 705.155509 
L 785.310737 705.494038 
L 786.300596 705.666172 
L 787.290455 705.712163 
L 788.280314 706.557039 
L 789.270173 707.250292 
L 790.260032 707.18304 
L 792.23975 706.897714 
L 793.229609 707.083248 
L 795.209327 699.803625 
L 796.199186 699.778496 
L 797.189045 700.069537 
L 798.178904 696.377521 
L 800.158622 696.61415 
L 801.148481 692.649471 
L 802.13834 692.341449 
L 803.128199 691.904949 
L 804.118058 691.791532 
L 805.107917 684.506706 
L 806.097776 683.159202 
L 807.087635 683.156769 
L 808.077494 682.95857 
L 809.067353 683.073247 
L 811.04707 682.448468 
L 813.026788 681.492871 
L 815.006506 679.911496 
L 815.996365 679.524531 
L 816.986224 678.779473 
L 817.976083 676.597487 
L 818.965942 676.641207 
L 819.955801 676.493228 
L 820.94566 676.504358 
L 822.925378 676.295466 
L 824.905096 676.469085 
L 826.884814 675.960131 
L 828.864532 675.0026 
L 829.854391 675.155357 
L 830.84425 675.04355 
L 831.834109 675.087057 
L 832.823968 674.86605 
L 833.813827 674.388451 
L 834.803686 674.358331 
L 836.783404 673.922531 
L 838.763122 674.315522 
L 839.752981 674.661762 
L 840.74284 674.722264 
L 842.722558 682.170528 
L 843.712417 681.809528 
L 844.702276 681.903181 
L 845.692135 684.970518 
L 847.671852 684.668047 
L 848.661711 688.137085 
L 850.641429 688.422911 
L 851.631288 688.248506 
L 852.621147 695.427626 
L 853.611006 696.53371 
L 854.600865 696.666229 
L 855.590724 696.668962 
L 856.580583 696.865489 
L 858.560301 696.865626 
L 860.540019 697.476318 
L 861.529878 697.662103 
L 862.519737 698.448323 
L 863.509596 698.629341 
L 864.499455 699.634348 
L 865.489314 701.884633 
L 866.479173 701.819353 
L 867.469032 701.964387 
L 868.458891 702.325986 
L 869.44875 702.460976 
L 870.438609 702.400861 
L 871.428468 702.012224 
L 874.398045 702.691079 
L 876.377763 703.609071 
L 877.367622 703.775066 
L 878.357481 704.258267 
L 879.34734 704.274912 
L 881.327058 705.301242 
L 882.316917 705.231669 
L 883.306776 705.436905 
L 884.296635 705.875376 
L 888.25607 705.722619 
L 889.245929 705.749469 
L 890.235788 705.574815 
L 891.225647 705.913905 
L 892.215506 705.387047 
L 893.205365 705.55122 
L 894.195224 705.286157 
L 895.185083 705.40434 
L 896.174942 702.0522 
L 898.15466 701.520164 
L 899.144519 701.314528 
L 900.134378 700.89919 
L 901.124237 700.71398 
L 902.114096 700.224827 
L 905.083673 699.78406 
L 906.073532 699.960649 
L 908.05325 699.643144 
L 909.043109 699.780642 
L 910.032968 699.452718 
L 911.022827 699.626624 
L 913.002545 699.20098 
L 913.992404 699.424121 
L 915.972122 698.8083 
L 916.961981 698.669255 
L 917.95184 698.670803 
L 918.941699 698.925211 
L 922.901134 698.23751 
L 923.890993 697.747671 
L 924.880852 697.483705 
L 925.870711 697.474222 
L 927.850429 695.785045 
L 929.830147 695.469861 
L 934.779442 695.49348 
L 937.749019 695.911676 
L 938.738878 696.152534 
L 940.718596 697.094357 
L 941.708455 697.635514 
L 942.698314 697.728593 
L 943.688173 701.462595 
L 945.667891 702.534853 
L 946.65775 703.279251 
L 949.627327 705.11325 
L 950.617186 691.636105 
L 951.607045 684.705467 
L 952.596904 684.369695 
L 953.586763 680.596403 
L 954.576622 680.929766 
L 955.566481 680.94434 
L 956.55634 681.35052 
L 957.546199 674.404959 
L 958.536058 670.801542 
L 959.525916 667.845239 
L 960.515775 667.881673 
L 961.505634 664.167061 
L 962.495493 661.871758 
L 963.485352 657.220925 
L 964.475211 656.937445 
L 965.46507 653.275948 
L 968.434647 653.465051 
L 970.414365 653.677936 
L 972.394083 653.637647 
L 973.383942 653.494497 
L 975.36366 654.861216 
L 976.353519 654.714323 
L 978.333237 653.529171 
L 980.312955 651.137084 
L 981.302814 650.097565 
L 982.292673 648.806421 
L 985.26225 646.002426 
L 986.252109 644.749861 
L 987.241968 643.716893 
L 988.231827 643.506379 
L 989.221686 642.892842 
L 991.201404 642.829707 
L 993.181122 642.356737 
L 994.170981 642.16177 
L 996.150698 641.414066 
L 997.140557 641.250791 
L 998.130416 654.883225 
L 999.120275 661.882064 
L 1000.110134 662.210062 
L 1001.099993 665.690117 
L 1003.079711 665.231171 
L 1004.06957 665.035393 
L 1005.059429 672.127111 
L 1006.049288 675.421818 
L 1007.039147 678.273713 
L 1008.029006 678.223679 
L 1009.018865 681.880572 
L 1010.008724 684.54234 
L 1010.998583 689.284306 
L 1011.988442 689.567574 
L 1012.978301 693.463703 
L 1017.927596 693.809069 
L 1018.917455 694.192691 
L 1019.907314 694.095819 
L 1023.86675 694.870984 
L 1024.856609 695.697144 
L 1025.846468 696.287686 
L 1030.795763 702.208876 
L 1032.775481 704.162169 
L 1034.755198 706.549864 
L 1035.745057 706.745643 
L 1036.734916 707.45468 
L 1041.684211 708.189756 
L 1042.67407 708.704912 
L 1043.663929 709.085027 
L 1044.653788 709.13239 
L 1045.643647 709.316715 
L 1046.633506 709.711191 
L 1047.623365 709.887605 
L 1050.592942 710.950818 
L 1051.582801 711.109552 
L 1054.552378 711.967578 
L 1055.542237 712.175521 
L 1057.521955 712.1395 
L 1059.501673 712.601989 
L 1061.481391 712.494387 
L 1065.440827 712.520801 
L 1068.410404 713.007121 
L 1069.400263 712.892544 
L 1074.349557 713.270264 
L 1077.319134 712.931747 
L 1079.298852 712.766625 
L 1081.27857 712.892856 
L 1082.268429 712.701557 
L 1085.238006 712.85127 
L 1086.227865 709.558335 
L 1091.17716 709.24466 
L 1094.146737 709.10282 
L 1095.136596 705.721796 
L 1096.126455 704.194522 
L 1097.116314 702.017365 
L 1098.106173 698.525919 
L 1100.085891 698.656841 
L 1101.07575 694.930114 
L 1102.065609 691.693712 
L 1103.055468 691.748973 
L 1104.045327 685.992631 
L 1105.035186 684.789525 
L 1106.025045 681.464411 
L 1107.014904 681.310269 
L 1108.004762 678.007838 
L 1108.994621 677.890504 
L 1109.98448 677.985392 
L 1112.954057 677.620624 
L 1113.943916 677.572412 
L 1114.933775 677.404532 
L 1117.903352 677.250877 
L 1120.872929 676.679836 
L 1121.862788 676.454537 
L 1122.852647 676.65185 
L 1123.842506 676.648282 
L 1124.832365 676.775698 
L 1125.822224 676.724741 
L 1126.812083 676.400286 
L 1128.791801 676.238433 
L 1129.78166 675.904895 
L 1130.771519 675.905906 
L 1132.751237 675.570359 
L 1133.741096 678.712408 
L 1136.710673 678.57521 
L 1137.700532 678.432671 
L 1138.690391 677.960225 
L 1140.670109 678.10909 
L 1141.659968 678.040366 
L 1142.649827 681.43877 
L 1143.639686 683.028904 
L 1144.629545 685.095601 
L 1145.619403 688.644167 
L 1146.609262 688.269517 
L 1147.599121 688.045565 
L 1148.58898 691.694386 
L 1149.578839 694.730692 
L 1150.568698 694.547877 
L 1151.558557 700.317096 
L 1152.548416 701.53339 
L 1153.538275 704.57989 
L 1154.528134 704.580476 
L 1155.517993 707.755366 
L 1156.507852 707.718384 
L 1158.48757 707.31264 
L 1160.467288 707.358169 
L 1164.426724 706.740777 
L 1166.406442 706.74054 
L 1167.396301 703.424334 
L 1168.38616 702.780203 
L 1169.376019 699.687526 
L 1170.365878 696.055999 
L 1171.355737 691.20678 
L 1172.345596 690.957549 
L 1173.335455 690.984762 
L 1174.325314 691.345001 
L 1175.315173 688.672778 
L 1177.294891 682.020503 
L 1178.28475 681.992392 
L 1179.274609 678.17689 
L 1181.254327 678.29128 
L 1183.234044 678.180646 
L 1184.223903 677.869766 
L 1185.213762 677.735201 
L 1186.203621 678.042075 
L 1187.19348 677.902306 
L 1188.183339 676.38323 
L 1189.173198 673.971953 
L 1190.163057 673.002406 
L 1192.142775 672.576924 
L 1193.132634 669.238359 
L 1194.122493 669.376693 
L 1196.102211 669.319286 
L 1198.081929 669.690143 
L 1200.061647 669.44402 
L 1201.051506 669.007732 
L 1202.041365 668.83163 
L 1203.031224 669.00188 
L 1204.021083 669.012449 
L 1207.980519 669.53937 
L 1208.970378 669.50799 
L 1209.960237 669.769161 
L 1211.939955 670.029558 
L 1212.929814 669.762224 
L 1213.919673 669.759054 
L 1214.909532 672.653833 
L 1215.899391 673.073488 
L 1216.88925 675.932706 
L 1217.879109 679.479801 
L 1218.868968 684.217175 
L 1220.848685 684.51972 
L 1221.838544 684.556852 
L 1222.828403 687.194227 
L 1224.808121 694.397391 
L 1225.79798 694.49057 
L 1226.787839 698.423344 
L 1227.777698 698.392488 
L 1229.757416 699.037106 
L 1231.737134 699.584602 
L 1232.726993 699.764135 
L 1233.716852 700.258491 
L 1234.706711 700.53597 
L 1235.69657 701.877372 
L 1236.686429 704.506175 
L 1237.676288 705.643826 
L 1239.656006 705.929652 
L 1240.645865 709.342792 
L 1242.625583 709.860181 
L 1243.615442 709.931812 
L 1245.59516 709.734798 
L 1246.585019 709.740413 
L 1247.574878 709.922953 
L 1248.564737 710.455763 
L 1249.554596 710.82858 
L 1250.544455 710.711557 
L 1251.534314 710.895981 
L 1254.503891 710.919588 
L 1255.49375 710.806969 
L 1256.483608 710.851026 
L 1258.463326 710.404008 
L 1259.453185 710.158958 
L 1261.432903 710.343756 
L 1264.40248 711.937521 
L 1266.382198 711.959693 
L 1269.351775 711.672969 
L 1271.331493 711.661016 
L 1272.321352 711.577144 
L 1273.311211 711.362301 
L 1275.290929 710.43051 
L 1276.280788 709.982295 
L 1278.260506 708.788572 
L 1279.250365 708.660606 
L 1280.240224 707.981364 
L 1281.230083 706.884638 
L 1282.219942 706.116011 
L 1283.209801 706.117583 
L 1284.19966 705.742745 
L 1288.159096 702.561829 
L 1291.128673 700.781307 
L 1293.108391 700.476329 
L 1294.098249 700.485974 
L 1297.067826 700.020128 
L 1299.047544 700.096988 
L 1300.037403 699.775016 
L 1302.017121 699.611752 
L 1303.996839 699.681911 
L 1307.956275 700.276708 
L 1309.935993 699.87482 
L 1310.925852 699.455601 
L 1311.915711 699.239548 
L 1312.90557 698.887219 
L 1314.885288 699.014885 
L 1315.875147 698.800553 
L 1316.865006 698.757881 
L 1317.854865 698.524322 
L 1318.844724 698.480901 
L 1319.834583 698.560343 
L 1320.824442 698.505656 
L 1321.814301 698.675969 
L 1322.80416 699.1019 
L 1324.783878 699.690246 
L 1325.773737 700.008525 
L 1326.763596 700.18389 
L 1328.743314 701.663427 
L 1329.733173 702.072452 
L 1330.723032 702.046275 
L 1331.71289 702.15102 
L 1334.682467 704.1247 
L 1335.672326 705.067346 
L 1336.662185 705.232281 
L 1338.641903 706.27296 
L 1341.61148 706.745231 
L 1342.601339 706.813918 
L 1343.591198 707.05636 
L 1345.570916 707.25965 
L 1346.560775 707.210415 
L 1347.550634 707.544003 
L 1349.530352 707.624868 
L 1351.51007 707.474581 
L 1354.479647 707.806185 
L 1355.469506 707.471362 
L 1357.449224 707.788206 
L 1358.439083 708.204093 
L 1359.428942 708.146648 
L 1361.40866 708.438126 
L 1362.398519 708.326556 
L 1363.388378 708.457266 
L 1365.368096 708.26135 
L 1366.357955 707.509192 
L 1366.357955 707.509192 
" style="fill:none;stroke:#ff0000;stroke-linecap:square;stroke-width:1.5;"/>
   </g>
   <g id="patch_3">
    <path d="M 120.175 756 
L 120.175 14.3 
" style="fill:none;stroke:#000000;stroke-linecap:square;stroke-linejoin:miter;stroke-width:0.8;"/>
   </g>
   <g id="patch_4">
    <path d="M 1425.7 756 
L 1425.7 14.3 
" style="fill:none;stroke:#000000;stroke-linecap:square;stroke-linejoin:miter;stroke-width:0.8;"/>
   </g>
   <g id="patch_5">
    <path d="M 120.175 756 
L 1425.7 756 
" style="fill:none;stroke:#000000;stroke-linecap:square;stroke-linejoin:miter;stroke-width:0.8;"/>
   </g>
   <g id="patch_6">
    <path d="M 120.175 14.3 
L 1425.7 14.3 
" style="fill:none;stroke:#000000;stroke-linecap:square;stroke-linejoin:miter;stroke-width:0.8;"/>
   </g>
   <g id="legend_1">
    <g id="patch_7">
     <path d="M 1079.753125 147.725 
L 1411.7 147.725 
Q 1415.7 147.725 1415.7 143.725 
L 1415.7 28.3 
Q 1415.7 24.3 1411.7 24.3 
L 1079.753125 24.3 
Q 1075.753125 24.3 1075.753125 28.3 
L 1075.753125 143.725 
Q 1075.753125 147.725 1079.753125 147.725 
z
" style="fill:#ffffff;opacity:0.8;stroke:#cccccc;stroke-linejoin:miter;"/>
    </g>
    <g id="line2d_18">
     <path d="M 1083.753125 40.496875 
L 1123.753125 40.496875 
" style="fill:none;stroke:#1f77b4;stroke-linecap:square;stroke-width:1.5;"/>
    </g>
    <g id="line2d_19"/>
    <g id="text_16">
     <!-- Training Data -->
     <defs>
      <path d="M -0.296875 72.90625 
L 61.375 72.90625 
L 61.375 64.59375 
L 35.5 64.59375 
L 35.5 0 
L 25.59375 0 
L 25.59375 64.59375 
L -0.296875 64.59375 
z
" id="DejaVuSans-54"/>
      <path d="M 41.109375 46.296875 
Q 39.59375 47.171875 37.8125 47.578125 
Q 36.03125 48 33.890625 48 
Q 26.265625 48 22.1875 43.046875 
Q 18.109375 38.09375 18.109375 28.8125 
L 18.109375 0 
L 9.078125 0 
L 9.078125 54.6875 
L 18.109375 54.6875 
L 18.109375 46.1875 
Q 20.953125 51.171875 25.484375 53.578125 
Q 30.03125 56 36.53125 56 
Q 37.453125 56 38.578125 55.875 
Q 39.703125 55.765625 41.0625 55.515625 
z
" id="DejaVuSans-72"/>
      <path d="M 45.40625 27.984375 
Q 45.40625 37.75 41.375 43.109375 
Q 37.359375 48.484375 30.078125 48.484375 
Q 22.859375 48.484375 18.828125 43.109375 
Q 14.796875 37.75 14.796875 27.984375 
Q 14.796875 18.265625 18.828125 12.890625 
Q 22.859375 7.515625 30.078125 7.515625 
Q 37.359375 7.515625 41.375 12.890625 
Q 45.40625 18.265625 45.40625 27.984375 
z
M 54.390625 6.78125 
Q 54.390625 -7.171875 48.1875 -13.984375 
Q 42 -20.796875 29.203125 -20.796875 
Q 24.46875 -20.796875 20.265625 -20.09375 
Q 16.0625 -19.390625 12.109375 -17.921875 
L 12.109375 -9.1875 
Q 16.0625 -11.328125 19.921875 -12.34375 
Q 23.78125 -13.375 27.78125 -13.375 
Q 36.625 -13.375 41.015625 -8.765625 
Q 45.40625 -4.15625 45.40625 5.171875 
L 45.40625 9.625 
Q 42.625 4.78125 38.28125 2.390625 
Q 33.9375 0 27.875 0 
Q 17.828125 0 11.671875 7.65625 
Q 5.515625 15.328125 5.515625 27.984375 
Q 5.515625 40.671875 11.671875 48.328125 
Q 17.828125 56 27.875 56 
Q 33.9375 56 38.28125 53.609375 
Q 42.625 51.21875 45.40625 46.390625 
L 45.40625 54.6875 
L 54.390625 54.6875 
z
" id="DejaVuSans-67"/>
      <path d="M 19.671875 64.796875 
L 19.671875 8.109375 
L 31.59375 8.109375 
Q 46.6875 8.109375 53.6875 14.9375 
Q 60.6875 21.78125 60.6875 36.53125 
Q 60.6875 51.171875 53.6875 57.984375 
Q 46.6875 64.796875 31.59375 64.796875 
z
M 9.8125 72.90625 
L 30.078125 72.90625 
Q 51.265625 72.90625 61.171875 64.09375 
Q 71.09375 55.28125 71.09375 36.53125 
Q 71.09375 17.671875 61.125 8.828125 
Q 51.171875 0 30.078125 0 
L 9.8125 0 
z
" id="DejaVuSans-44"/>
     </defs>
     <g transform="translate(1139.753125 47.496875)scale(0.2 -0.2)">
      <use xlink:href="#DejaVuSans-54"/>
      <use x="60.865234" xlink:href="#DejaVuSans-72"/>
      <use x="101.978516" xlink:href="#DejaVuSans-61"/>
      <use x="163.257812" xlink:href="#DejaVuSans-69"/>
      <use x="191.041016" xlink:href="#DejaVuSans-6e"/>
      <use x="254.419922" xlink:href="#DejaVuSans-69"/>
      <use x="282.203125" xlink:href="#DejaVuSans-6e"/>
      <use x="345.582031" xlink:href="#DejaVuSans-67"/>
      <use x="409.058594" xlink:href="#DejaVuSans-20"/>
      <use x="440.845703" xlink:href="#DejaVuSans-44"/>
      <use x="517.847656" xlink:href="#DejaVuSans-61"/>
      <use x="579.126953" xlink:href="#DejaVuSans-74"/>
      <use x="618.335938" xlink:href="#DejaVuSans-61"/>
     </g>
    </g>
    <g id="line2d_20">
     <path d="M 1083.753125 69.853125 
L 1123.753125 69.853125 
" style="fill:none;stroke:#ff7f0e;stroke-linecap:square;stroke-width:1.5;"/>
    </g>
    <g id="line2d_21"/>
    <g id="text_17">
     <!-- Validation Data -->
     <defs>
      <path d="M 28.609375 0 
L 0.78125 72.90625 
L 11.078125 72.90625 
L 34.1875 11.53125 
L 57.328125 72.90625 
L 67.578125 72.90625 
L 39.796875 0 
z
" id="DejaVuSans-56"/>
      <path d="M 9.421875 75.984375 
L 18.40625 75.984375 
L 18.40625 0 
L 9.421875 0 
z
" id="DejaVuSans-6c"/>
      <path d="M 30.609375 48.390625 
Q 23.390625 48.390625 19.1875 42.75 
Q 14.984375 37.109375 14.984375 27.296875 
Q 14.984375 17.484375 19.15625 11.84375 
Q 23.34375 6.203125 30.609375 6.203125 
Q 37.796875 6.203125 41.984375 11.859375 
Q 46.1875 17.53125 46.1875 27.296875 
Q 46.1875 37.015625 41.984375 42.703125 
Q 37.796875 48.390625 30.609375 48.390625 
z
M 30.609375 56 
Q 42.328125 56 49.015625 48.375 
Q 55.71875 40.765625 55.71875 27.296875 
Q 55.71875 13.875 49.015625 6.21875 
Q 42.328125 -1.421875 30.609375 -1.421875 
Q 18.84375 -1.421875 12.171875 6.21875 
Q 5.515625 13.875 5.515625 27.296875 
Q 5.515625 40.765625 12.171875 48.375 
Q 18.84375 56 30.609375 56 
z
" id="DejaVuSans-6f"/>
     </defs>
     <g transform="translate(1139.753125 76.853125)scale(0.2 -0.2)">
      <use xlink:href="#DejaVuSans-56"/>
      <use x="68.298828" xlink:href="#DejaVuSans-61"/>
      <use x="129.578125" xlink:href="#DejaVuSans-6c"/>
      <use x="157.361328" xlink:href="#DejaVuSans-69"/>
      <use x="185.144531" xlink:href="#DejaVuSans-64"/>
      <use x="248.621094" xlink:href="#DejaVuSans-61"/>
      <use x="309.900391" xlink:href="#DejaVuSans-74"/>
      <use x="349.109375" xlink:href="#DejaVuSans-69"/>
      <use x="376.892578" xlink:href="#DejaVuSans-6f"/>
      <use x="438.074219" xlink:href="#DejaVuSans-6e"/>
      <use x="501.453125" xlink:href="#DejaVuSans-20"/>
      <use x="533.240234" xlink:href="#DejaVuSans-44"/>
      <use x="610.242188" xlink:href="#DejaVuSans-61"/>
      <use x="671.521484" xlink:href="#DejaVuSans-74"/>
      <use x="710.730469" xlink:href="#DejaVuSans-61"/>
     </g>
    </g>
    <g id="line2d_22">
     <path d="M 1083.753125 99.209375 
L 1123.753125 99.209375 
" style="fill:none;stroke:#2ca02c;stroke-linecap:square;stroke-width:1.5;"/>
    </g>
    <g id="line2d_23"/>
    <g id="text_18">
     <!-- Testing Data -->
     <g transform="translate(1139.753125 106.209375)scale(0.2 -0.2)">
      <use xlink:href="#DejaVuSans-54"/>
      <use x="60.818359" xlink:href="#DejaVuSans-65"/>
      <use x="122.341797" xlink:href="#DejaVuSans-73"/>
      <use x="174.441406" xlink:href="#DejaVuSans-74"/>
      <use x="213.650391" xlink:href="#DejaVuSans-69"/>
      <use x="241.433594" xlink:href="#DejaVuSans-6e"/>
      <use x="304.8125" xlink:href="#DejaVuSans-67"/>
      <use x="368.289062" xlink:href="#DejaVuSans-20"/>
      <use x="400.076172" xlink:href="#DejaVuSans-44"/>
      <use x="477.078125" xlink:href="#DejaVuSans-61"/>
      <use x="538.357422" xlink:href="#DejaVuSans-74"/>
      <use x="577.566406" xlink:href="#DejaVuSans-61"/>
     </g>
    </g>
    <g id="line2d_24">
     <path d="M 1083.753125 128.565625 
L 1123.753125 128.565625 
" style="fill:none;stroke:#ff0000;stroke-linecap:square;stroke-width:1.5;"/>
    </g>
    <g id="line2d_25"/>
    <g id="text_19">
     <!-- Moving average (48 steps) -->
     <defs>
      <path d="M 2.984375 54.6875 
L 12.5 54.6875 
L 29.59375 8.796875 
L 46.6875 54.6875 
L 56.203125 54.6875 
L 35.6875 0 
L 23.484375 0 
z
" id="DejaVuSans-76"/>
     </defs>
     <g transform="translate(1139.753125 135.565625)scale(0.2 -0.2)">
      <use xlink:href="#DejaVuSans-4d"/>
      <use x="86.279297" xlink:href="#DejaVuSans-6f"/>
      <use x="147.460938" xlink:href="#DejaVuSans-76"/>
      <use x="206.640625" xlink:href="#DejaVuSans-69"/>
      <use x="234.423828" xlink:href="#DejaVuSans-6e"/>
      <use x="297.802734" xlink:href="#DejaVuSans-67"/>
      <use x="361.279297" xlink:href="#DejaVuSans-20"/>
      <use x="393.066406" xlink:href="#DejaVuSans-61"/>
      <use x="454.345703" xlink:href="#DejaVuSans-76"/>
      <use x="513.525391" xlink:href="#DejaVuSans-65"/>
      <use x="575.048828" xlink:href="#DejaVuSans-72"/>
      <use x="616.162109" xlink:href="#DejaVuSans-61"/>
      <use x="677.441406" xlink:href="#DejaVuSans-67"/>
      <use x="740.917969" xlink:href="#DejaVuSans-65"/>
      <use x="802.441406" xlink:href="#DejaVuSans-20"/>
      <use x="834.228516" xlink:href="#DejaVuSans-28"/>
      <use x="873.242188" xlink:href="#DejaVuSans-34"/>
      <use x="936.865234" xlink:href="#DejaVuSans-38"/>
      <use x="1000.488281" xlink:href="#DejaVuSans-20"/>
      <use x="1032.275391" xlink:href="#DejaVuSans-73"/>
      <use x="1084.375" xlink:href="#DejaVuSans-74"/>
      <use x="1123.583984" xlink:href="#DejaVuSans-65"/>
      <use x="1185.107422" xlink:href="#DejaVuSans-70"/>
      <use x="1248.583984" xlink:href="#DejaVuSans-73"/>
      <use x="1300.683594" xlink:href="#DejaVuSans-29"/>
     </g>
    </g>
   </g>
  </g>
 </g>
 <defs>
  <clipPath id="p47d15e2256">
   <rect height="741.7" width="1305.525" x="120.175" y="14.3"/>
  </clipPath>
 </defs>
</svg>
