<?xml version="1.0" encoding="utf-8" standalone="no"?>
<!DOCTYPE svg PUBLIC "-//W3C//DTD SVG 1.1//EN"
  "http://www.w3.org/Graphics/SVG/1.1/DTD/svg11.dtd">
<!-- Created with matplotlib (http://matplotlib.org/) -->
<svg height="756pt" version="1.1" viewBox="0 0 1332 756" width="1332pt" xmlns="http://www.w3.org/2000/svg" xmlns:xlink="http://www.w3.org/1999/xlink">
 <defs>
  <style type="text/css">
*{stroke-linecap:butt;stroke-linejoin:round;}
  </style>
 </defs>
 <g id="figure_1">
  <g id="patch_1">
   <path d="M 0 756 
L 1332 756 
L 1332 0 
L 0 0 
z
" style="fill:#ffffff;"/>
  </g>
  <g id="axes_1">
   <g id="patch_2">
    <path d="M 49.175 728.2 
L 1317.7 728.2 
L 1317.7 14.3 
L 49.175 14.3 
z
" style="fill:#ffffff;"/>
   </g>
   <g id="matplotlib.axis_1">
    <g id="xtick_1">
     <g id="line2d_1">
      <defs>
       <path d="M 0 0 
L 0 3.5 
" id="mc16ec1a8ab" style="stroke:#000000;stroke-width:0.8;"/>
      </defs>
      <g>
       <use style="stroke:#000000;stroke-width:0.8;" x="106.835227" xlink:href="#mc16ec1a8ab" y="728.2"/>
      </g>
     </g>
     <g id="text_1">
      <!-- 0 -->
      <defs>
       <path d="M 31.78125 66.40625 
Q 24.171875 66.40625 20.328125 58.90625 
Q 16.5 51.421875 16.5 36.375 
Q 16.5 21.390625 20.328125 13.890625 
Q 24.171875 6.390625 31.78125 6.390625 
Q 39.453125 6.390625 43.28125 13.890625 
Q 47.125 21.390625 47.125 36.375 
Q 47.125 51.421875 43.28125 58.90625 
Q 39.453125 66.40625 31.78125 66.40625 
z
M 31.78125 74.21875 
Q 44.046875 74.21875 50.515625 64.515625 
Q 56.984375 54.828125 56.984375 36.375 
Q 56.984375 17.96875 50.515625 8.265625 
Q 44.046875 -1.421875 31.78125 -1.421875 
Q 19.53125 -1.421875 13.0625 8.265625 
Q 6.59375 17.96875 6.59375 36.375 
Q 6.59375 54.828125 13.0625 64.515625 
Q 19.53125 74.21875 31.78125 74.21875 
z
" id="DejaVuSans-30"/>
      </defs>
      <g transform="translate(103.653977 742.798437)scale(0.1 -0.1)">
       <use xlink:href="#DejaVuSans-30"/>
      </g>
     </g>
    </g>
    <g id="xtick_2">
     <g id="line2d_2">
      <g>
       <use style="stroke:#000000;stroke-width:0.8;" x="299.035985" xlink:href="#mc16ec1a8ab" y="728.2"/>
      </g>
     </g>
     <g id="text_2">
      <!-- 200 -->
      <defs>
       <path d="M 19.1875 8.296875 
L 53.609375 8.296875 
L 53.609375 0 
L 7.328125 0 
L 7.328125 8.296875 
Q 12.9375 14.109375 22.625 23.890625 
Q 32.328125 33.6875 34.8125 36.53125 
Q 39.546875 41.84375 41.421875 45.53125 
Q 43.3125 49.21875 43.3125 52.78125 
Q 43.3125 58.59375 39.234375 62.25 
Q 35.15625 65.921875 28.609375 65.921875 
Q 23.96875 65.921875 18.8125 64.3125 
Q 13.671875 62.703125 7.8125 59.421875 
L 7.8125 69.390625 
Q 13.765625 71.78125 18.9375 73 
Q 24.125 74.21875 28.421875 74.21875 
Q 39.75 74.21875 46.484375 68.546875 
Q 53.21875 62.890625 53.21875 53.421875 
Q 53.21875 48.921875 51.53125 44.890625 
Q 49.859375 40.875 45.40625 35.40625 
Q 44.1875 33.984375 37.640625 27.21875 
Q 31.109375 20.453125 19.1875 8.296875 
z
" id="DejaVuSans-32"/>
      </defs>
      <g transform="translate(289.492235 742.798437)scale(0.1 -0.1)">
       <use xlink:href="#DejaVuSans-32"/>
       <use x="63.623047" xlink:href="#DejaVuSans-30"/>
       <use x="127.246094" xlink:href="#DejaVuSans-30"/>
      </g>
     </g>
    </g>
    <g id="xtick_3">
     <g id="line2d_3">
      <g>
       <use style="stroke:#000000;stroke-width:0.8;" x="491.236742" xlink:href="#mc16ec1a8ab" y="728.2"/>
      </g>
     </g>
     <g id="text_3">
      <!-- 400 -->
      <defs>
       <path d="M 37.796875 64.3125 
L 12.890625 25.390625 
L 37.796875 25.390625 
z
M 35.203125 72.90625 
L 47.609375 72.90625 
L 47.609375 25.390625 
L 58.015625 25.390625 
L 58.015625 17.1875 
L 47.609375 17.1875 
L 47.609375 0 
L 37.796875 0 
L 37.796875 17.1875 
L 4.890625 17.1875 
L 4.890625 26.703125 
z
" id="DejaVuSans-34"/>
      </defs>
      <g transform="translate(481.692992 742.798437)scale(0.1 -0.1)">
       <use xlink:href="#DejaVuSans-34"/>
       <use x="63.623047" xlink:href="#DejaVuSans-30"/>
       <use x="127.246094" xlink:href="#DejaVuSans-30"/>
      </g>
     </g>
    </g>
    <g id="xtick_4">
     <g id="line2d_4">
      <g>
       <use style="stroke:#000000;stroke-width:0.8;" x="683.4375" xlink:href="#mc16ec1a8ab" y="728.2"/>
      </g>
     </g>
     <g id="text_4">
      <!-- 600 -->
      <defs>
       <path d="M 33.015625 40.375 
Q 26.375 40.375 22.484375 35.828125 
Q 18.609375 31.296875 18.609375 23.390625 
Q 18.609375 15.53125 22.484375 10.953125 
Q 26.375 6.390625 33.015625 6.390625 
Q 39.65625 6.390625 43.53125 10.953125 
Q 47.40625 15.53125 47.40625 23.390625 
Q 47.40625 31.296875 43.53125 35.828125 
Q 39.65625 40.375 33.015625 40.375 
z
M 52.59375 71.296875 
L 52.59375 62.3125 
Q 48.875 64.0625 45.09375 64.984375 
Q 41.3125 65.921875 37.59375 65.921875 
Q 27.828125 65.921875 22.671875 59.328125 
Q 17.53125 52.734375 16.796875 39.40625 
Q 19.671875 43.65625 24.015625 45.921875 
Q 28.375 48.1875 33.59375 48.1875 
Q 44.578125 48.1875 50.953125 41.515625 
Q 57.328125 34.859375 57.328125 23.390625 
Q 57.328125 12.15625 50.6875 5.359375 
Q 44.046875 -1.421875 33.015625 -1.421875 
Q 20.359375 -1.421875 13.671875 8.265625 
Q 6.984375 17.96875 6.984375 36.375 
Q 6.984375 53.65625 15.1875 63.9375 
Q 23.390625 74.21875 37.203125 74.21875 
Q 40.921875 74.21875 44.703125 73.484375 
Q 48.484375 72.75 52.59375 71.296875 
z
" id="DejaVuSans-36"/>
      </defs>
      <g transform="translate(673.89375 742.798437)scale(0.1 -0.1)">
       <use xlink:href="#DejaVuSans-36"/>
       <use x="63.623047" xlink:href="#DejaVuSans-30"/>
       <use x="127.246094" xlink:href="#DejaVuSans-30"/>
      </g>
     </g>
    </g>
    <g id="xtick_5">
     <g id="line2d_5">
      <g>
       <use style="stroke:#000000;stroke-width:0.8;" x="875.638258" xlink:href="#mc16ec1a8ab" y="728.2"/>
      </g>
     </g>
     <g id="text_5">
      <!-- 800 -->
      <defs>
       <path d="M 31.78125 34.625 
Q 24.75 34.625 20.71875 30.859375 
Q 16.703125 27.09375 16.703125 20.515625 
Q 16.703125 13.921875 20.71875 10.15625 
Q 24.75 6.390625 31.78125 6.390625 
Q 38.8125 6.390625 42.859375 10.171875 
Q 46.921875 13.96875 46.921875 20.515625 
Q 46.921875 27.09375 42.890625 30.859375 
Q 38.875 34.625 31.78125 34.625 
z
M 21.921875 38.8125 
Q 15.578125 40.375 12.03125 44.71875 
Q 8.5 49.078125 8.5 55.328125 
Q 8.5 64.0625 14.71875 69.140625 
Q 20.953125 74.21875 31.78125 74.21875 
Q 42.671875 74.21875 48.875 69.140625 
Q 55.078125 64.0625 55.078125 55.328125 
Q 55.078125 49.078125 51.53125 44.71875 
Q 48 40.375 41.703125 38.8125 
Q 48.828125 37.15625 52.796875 32.3125 
Q 56.78125 27.484375 56.78125 20.515625 
Q 56.78125 9.90625 50.3125 4.234375 
Q 43.84375 -1.421875 31.78125 -1.421875 
Q 19.734375 -1.421875 13.25 4.234375 
Q 6.78125 9.90625 6.78125 20.515625 
Q 6.78125 27.484375 10.78125 32.3125 
Q 14.796875 37.15625 21.921875 38.8125 
z
M 18.3125 54.390625 
Q 18.3125 48.734375 21.84375 45.5625 
Q 25.390625 42.390625 31.78125 42.390625 
Q 38.140625 42.390625 41.71875 45.5625 
Q 45.3125 48.734375 45.3125 54.390625 
Q 45.3125 60.0625 41.71875 63.234375 
Q 38.140625 66.40625 31.78125 66.40625 
Q 25.390625 66.40625 21.84375 63.234375 
Q 18.3125 60.0625 18.3125 54.390625 
z
" id="DejaVuSans-38"/>
      </defs>
      <g transform="translate(866.094508 742.798437)scale(0.1 -0.1)">
       <use xlink:href="#DejaVuSans-38"/>
       <use x="63.623047" xlink:href="#DejaVuSans-30"/>
       <use x="127.246094" xlink:href="#DejaVuSans-30"/>
      </g>
     </g>
    </g>
    <g id="xtick_6">
     <g id="line2d_6">
      <g>
       <use style="stroke:#000000;stroke-width:0.8;" x="1067.839015" xlink:href="#mc16ec1a8ab" y="728.2"/>
      </g>
     </g>
     <g id="text_6">
      <!-- 1000 -->
      <defs>
       <path d="M 12.40625 8.296875 
L 28.515625 8.296875 
L 28.515625 63.921875 
L 10.984375 60.40625 
L 10.984375 69.390625 
L 28.421875 72.90625 
L 38.28125 72.90625 
L 38.28125 8.296875 
L 54.390625 8.296875 
L 54.390625 0 
L 12.40625 0 
z
" id="DejaVuSans-31"/>
      </defs>
      <g transform="translate(1055.114015 742.798437)scale(0.1 -0.1)">
       <use xlink:href="#DejaVuSans-31"/>
       <use x="63.623047" xlink:href="#DejaVuSans-30"/>
       <use x="127.246094" xlink:href="#DejaVuSans-30"/>
       <use x="190.869141" xlink:href="#DejaVuSans-30"/>
      </g>
     </g>
    </g>
    <g id="xtick_7">
     <g id="line2d_7">
      <g>
       <use style="stroke:#000000;stroke-width:0.8;" x="1260.039773" xlink:href="#mc16ec1a8ab" y="728.2"/>
      </g>
     </g>
     <g id="text_7">
      <!-- 1200 -->
      <g transform="translate(1247.314773 742.798437)scale(0.1 -0.1)">
       <use xlink:href="#DejaVuSans-31"/>
       <use x="63.623047" xlink:href="#DejaVuSans-32"/>
       <use x="127.246094" xlink:href="#DejaVuSans-30"/>
       <use x="190.869141" xlink:href="#DejaVuSans-30"/>
      </g>
     </g>
    </g>
    <g id="text_8">
     <!-- 15-Minute Steps -->
     <defs>
      <path d="M 10.796875 72.90625 
L 49.515625 72.90625 
L 49.515625 64.59375 
L 19.828125 64.59375 
L 19.828125 46.734375 
Q 21.96875 47.46875 24.109375 47.828125 
Q 26.265625 48.1875 28.421875 48.1875 
Q 40.625 48.1875 47.75 41.5 
Q 54.890625 34.8125 54.890625 23.390625 
Q 54.890625 11.625 47.5625 5.09375 
Q 40.234375 -1.421875 26.90625 -1.421875 
Q 22.3125 -1.421875 17.546875 -0.640625 
Q 12.796875 0.140625 7.71875 1.703125 
L 7.71875 11.625 
Q 12.109375 9.234375 16.796875 8.0625 
Q 21.484375 6.890625 26.703125 6.890625 
Q 35.15625 6.890625 40.078125 11.328125 
Q 45.015625 15.765625 45.015625 23.390625 
Q 45.015625 31 40.078125 35.4375 
Q 35.15625 39.890625 26.703125 39.890625 
Q 22.75 39.890625 18.8125 39.015625 
Q 14.890625 38.140625 10.796875 36.28125 
z
" id="DejaVuSans-35"/>
      <path d="M 4.890625 31.390625 
L 31.203125 31.390625 
L 31.203125 23.390625 
L 4.890625 23.390625 
z
" id="DejaVuSans-2d"/>
      <path d="M 9.8125 72.90625 
L 24.515625 72.90625 
L 43.109375 23.296875 
L 61.8125 72.90625 
L 76.515625 72.90625 
L 76.515625 0 
L 66.890625 0 
L 66.890625 64.015625 
L 48.09375 14.015625 
L 38.1875 14.015625 
L 19.390625 64.015625 
L 19.390625 0 
L 9.8125 0 
z
" id="DejaVuSans-4d"/>
      <path d="M 9.421875 54.6875 
L 18.40625 54.6875 
L 18.40625 0 
L 9.421875 0 
z
M 9.421875 75.984375 
L 18.40625 75.984375 
L 18.40625 64.59375 
L 9.421875 64.59375 
z
" id="DejaVuSans-69"/>
      <path d="M 54.890625 33.015625 
L 54.890625 0 
L 45.90625 0 
L 45.90625 32.71875 
Q 45.90625 40.484375 42.875 44.328125 
Q 39.84375 48.1875 33.796875 48.1875 
Q 26.515625 48.1875 22.3125 43.546875 
Q 18.109375 38.921875 18.109375 30.90625 
L 18.109375 0 
L 9.078125 0 
L 9.078125 54.6875 
L 18.109375 54.6875 
L 18.109375 46.1875 
Q 21.34375 51.125 25.703125 53.5625 
Q 30.078125 56 35.796875 56 
Q 45.21875 56 50.046875 50.171875 
Q 54.890625 44.34375 54.890625 33.015625 
z
" id="DejaVuSans-6e"/>
      <path d="M 8.5 21.578125 
L 8.5 54.6875 
L 17.484375 54.6875 
L 17.484375 21.921875 
Q 17.484375 14.15625 20.5 10.265625 
Q 23.53125 6.390625 29.59375 6.390625 
Q 36.859375 6.390625 41.078125 11.03125 
Q 45.3125 15.671875 45.3125 23.6875 
L 45.3125 54.6875 
L 54.296875 54.6875 
L 54.296875 0 
L 45.3125 0 
L 45.3125 8.40625 
Q 42.046875 3.421875 37.71875 1 
Q 33.40625 -1.421875 27.6875 -1.421875 
Q 18.265625 -1.421875 13.375 4.4375 
Q 8.5 10.296875 8.5 21.578125 
z
M 31.109375 56 
z
" id="DejaVuSans-75"/>
      <path d="M 18.3125 70.21875 
L 18.3125 54.6875 
L 36.8125 54.6875 
L 36.8125 47.703125 
L 18.3125 47.703125 
L 18.3125 18.015625 
Q 18.3125 11.328125 20.140625 9.421875 
Q 21.96875 7.515625 27.59375 7.515625 
L 36.8125 7.515625 
L 36.8125 0 
L 27.59375 0 
Q 17.1875 0 13.234375 3.875 
Q 9.28125 7.765625 9.28125 18.015625 
L 9.28125 47.703125 
L 2.6875 47.703125 
L 2.6875 54.6875 
L 9.28125 54.6875 
L 9.28125 70.21875 
z
" id="DejaVuSans-74"/>
      <path d="M 56.203125 29.59375 
L 56.203125 25.203125 
L 14.890625 25.203125 
Q 15.484375 15.921875 20.484375 11.0625 
Q 25.484375 6.203125 34.421875 6.203125 
Q 39.59375 6.203125 44.453125 7.46875 
Q 49.3125 8.734375 54.109375 11.28125 
L 54.109375 2.78125 
Q 49.265625 0.734375 44.1875 -0.34375 
Q 39.109375 -1.421875 33.890625 -1.421875 
Q 20.796875 -1.421875 13.15625 6.1875 
Q 5.515625 13.8125 5.515625 26.8125 
Q 5.515625 40.234375 12.765625 48.109375 
Q 20.015625 56 32.328125 56 
Q 43.359375 56 49.78125 48.890625 
Q 56.203125 41.796875 56.203125 29.59375 
z
M 47.21875 32.234375 
Q 47.125 39.59375 43.09375 43.984375 
Q 39.0625 48.390625 32.421875 48.390625 
Q 24.90625 48.390625 20.390625 44.140625 
Q 15.875 39.890625 15.1875 32.171875 
z
" id="DejaVuSans-65"/>
      <path id="DejaVuSans-20"/>
      <path d="M 53.515625 70.515625 
L 53.515625 60.890625 
Q 47.90625 63.578125 42.921875 64.890625 
Q 37.9375 66.21875 33.296875 66.21875 
Q 25.25 66.21875 20.875 63.09375 
Q 16.5 59.96875 16.5 54.203125 
Q 16.5 49.359375 19.40625 46.890625 
Q 22.3125 44.4375 30.421875 42.921875 
L 36.375 41.703125 
Q 47.40625 39.59375 52.65625 34.296875 
Q 57.90625 29 57.90625 20.125 
Q 57.90625 9.515625 50.796875 4.046875 
Q 43.703125 -1.421875 29.984375 -1.421875 
Q 24.8125 -1.421875 18.96875 -0.25 
Q 13.140625 0.921875 6.890625 3.21875 
L 6.890625 13.375 
Q 12.890625 10.015625 18.65625 8.296875 
Q 24.421875 6.59375 29.984375 6.59375 
Q 38.421875 6.59375 43.015625 9.90625 
Q 47.609375 13.234375 47.609375 19.390625 
Q 47.609375 24.75 44.3125 27.78125 
Q 41.015625 30.8125 33.5 32.328125 
L 27.484375 33.5 
Q 16.453125 35.6875 11.515625 40.375 
Q 6.59375 45.0625 6.59375 53.421875 
Q 6.59375 63.09375 13.40625 68.65625 
Q 20.21875 74.21875 32.171875 74.21875 
Q 37.3125 74.21875 42.625 73.28125 
Q 47.953125 72.359375 53.515625 70.515625 
z
" id="DejaVuSans-53"/>
      <path d="M 18.109375 8.203125 
L 18.109375 -20.796875 
L 9.078125 -20.796875 
L 9.078125 54.6875 
L 18.109375 54.6875 
L 18.109375 46.390625 
Q 20.953125 51.265625 25.265625 53.625 
Q 29.59375 56 35.59375 56 
Q 45.5625 56 51.78125 48.09375 
Q 58.015625 40.1875 58.015625 27.296875 
Q 58.015625 14.40625 51.78125 6.484375 
Q 45.5625 -1.421875 35.59375 -1.421875 
Q 29.59375 -1.421875 25.265625 0.953125 
Q 20.953125 3.328125 18.109375 8.203125 
z
M 48.6875 27.296875 
Q 48.6875 37.203125 44.609375 42.84375 
Q 40.53125 48.484375 33.40625 48.484375 
Q 26.265625 48.484375 22.1875 42.84375 
Q 18.109375 37.203125 18.109375 27.296875 
Q 18.109375 17.390625 22.1875 11.75 
Q 26.265625 6.109375 33.40625 6.109375 
Q 40.53125 6.109375 44.609375 11.75 
Q 48.6875 17.390625 48.6875 27.296875 
z
" id="DejaVuSans-70"/>
      <path d="M 44.28125 53.078125 
L 44.28125 44.578125 
Q 40.484375 46.53125 36.375 47.5 
Q 32.28125 48.484375 27.875 48.484375 
Q 21.1875 48.484375 17.84375 46.4375 
Q 14.5 44.390625 14.5 40.28125 
Q 14.5 37.15625 16.890625 35.375 
Q 19.28125 33.59375 26.515625 31.984375 
L 29.59375 31.296875 
Q 39.15625 29.25 43.1875 25.515625 
Q 47.21875 21.78125 47.21875 15.09375 
Q 47.21875 7.46875 41.1875 3.015625 
Q 35.15625 -1.421875 24.609375 -1.421875 
Q 20.21875 -1.421875 15.453125 -0.5625 
Q 10.6875 0.296875 5.421875 2 
L 5.421875 11.28125 
Q 10.40625 8.6875 15.234375 7.390625 
Q 20.0625 6.109375 24.8125 6.109375 
Q 31.15625 6.109375 34.5625 8.28125 
Q 37.984375 10.453125 37.984375 14.40625 
Q 37.984375 18.0625 35.515625 20.015625 
Q 33.0625 21.96875 24.703125 23.78125 
L 21.578125 24.515625 
Q 13.234375 26.265625 9.515625 29.90625 
Q 5.8125 33.546875 5.8125 39.890625 
Q 5.8125 47.609375 11.28125 51.796875 
Q 16.75 56 26.8125 56 
Q 31.78125 56 36.171875 55.265625 
Q 40.578125 54.546875 44.28125 53.078125 
z
" id="DejaVuSans-73"/>
     </defs>
     <g transform="translate(642.614844 756.476562)scale(0.1 -0.1)">
      <use xlink:href="#DejaVuSans-31"/>
      <use x="63.623047" xlink:href="#DejaVuSans-35"/>
      <use x="127.246094" xlink:href="#DejaVuSans-2d"/>
      <use x="163.330078" xlink:href="#DejaVuSans-4d"/>
      <use x="249.609375" xlink:href="#DejaVuSans-69"/>
      <use x="277.392578" xlink:href="#DejaVuSans-6e"/>
      <use x="340.771484" xlink:href="#DejaVuSans-75"/>
      <use x="404.150391" xlink:href="#DejaVuSans-74"/>
      <use x="443.359375" xlink:href="#DejaVuSans-65"/>
      <use x="504.882812" xlink:href="#DejaVuSans-20"/>
      <use x="536.669922" xlink:href="#DejaVuSans-53"/>
      <use x="600.146484" xlink:href="#DejaVuSans-74"/>
      <use x="639.355469" xlink:href="#DejaVuSans-65"/>
      <use x="700.878906" xlink:href="#DejaVuSans-70"/>
      <use x="764.355469" xlink:href="#DejaVuSans-73"/>
     </g>
    </g>
   </g>
   <g id="matplotlib.axis_2">
    <g id="ytick_1">
     <g id="line2d_8">
      <defs>
       <path d="M 0 0 
L -3.5 0 
" id="m923ddd22f2" style="stroke:#000000;stroke-width:0.8;"/>
      </defs>
      <g>
       <use style="stroke:#000000;stroke-width:0.8;" x="49.175" xlink:href="#m923ddd22f2" y="704.218109"/>
      </g>
     </g>
     <g id="text_9">
      <!-- 0 -->
      <g transform="translate(35.8125 708.017327)scale(0.1 -0.1)">
       <use xlink:href="#DejaVuSans-30"/>
      </g>
     </g>
    </g>
    <g id="ytick_2">
     <g id="line2d_9">
      <g>
       <use style="stroke:#000000;stroke-width:0.8;" x="49.175" xlink:href="#m923ddd22f2" y="574.51599"/>
      </g>
     </g>
     <g id="text_10">
      <!-- 2000 -->
      <g transform="translate(16.725 578.315208)scale(0.1 -0.1)">
       <use xlink:href="#DejaVuSans-32"/>
       <use x="63.623047" xlink:href="#DejaVuSans-30"/>
       <use x="127.246094" xlink:href="#DejaVuSans-30"/>
       <use x="190.869141" xlink:href="#DejaVuSans-30"/>
      </g>
     </g>
    </g>
    <g id="ytick_3">
     <g id="line2d_10">
      <g>
       <use style="stroke:#000000;stroke-width:0.8;" x="49.175" xlink:href="#m923ddd22f2" y="444.813871"/>
      </g>
     </g>
     <g id="text_11">
      <!-- 4000 -->
      <g transform="translate(16.725 448.613089)scale(0.1 -0.1)">
       <use xlink:href="#DejaVuSans-34"/>
       <use x="63.623047" xlink:href="#DejaVuSans-30"/>
       <use x="127.246094" xlink:href="#DejaVuSans-30"/>
       <use x="190.869141" xlink:href="#DejaVuSans-30"/>
      </g>
     </g>
    </g>
    <g id="ytick_4">
     <g id="line2d_11">
      <g>
       <use style="stroke:#000000;stroke-width:0.8;" x="49.175" xlink:href="#m923ddd22f2" y="315.111752"/>
      </g>
     </g>
     <g id="text_12">
      <!-- 6000 -->
      <g transform="translate(16.725 318.91097)scale(0.1 -0.1)">
       <use xlink:href="#DejaVuSans-36"/>
       <use x="63.623047" xlink:href="#DejaVuSans-30"/>
       <use x="127.246094" xlink:href="#DejaVuSans-30"/>
       <use x="190.869141" xlink:href="#DejaVuSans-30"/>
      </g>
     </g>
    </g>
    <g id="ytick_5">
     <g id="line2d_12">
      <g>
       <use style="stroke:#000000;stroke-width:0.8;" x="49.175" xlink:href="#m923ddd22f2" y="185.409633"/>
      </g>
     </g>
     <g id="text_13">
      <!-- 8000 -->
      <g transform="translate(16.725 189.208851)scale(0.1 -0.1)">
       <use xlink:href="#DejaVuSans-38"/>
       <use x="63.623047" xlink:href="#DejaVuSans-30"/>
       <use x="127.246094" xlink:href="#DejaVuSans-30"/>
       <use x="190.869141" xlink:href="#DejaVuSans-30"/>
      </g>
     </g>
    </g>
    <g id="ytick_6">
     <g id="line2d_13">
      <g>
       <use style="stroke:#000000;stroke-width:0.8;" x="49.175" xlink:href="#m923ddd22f2" y="55.707514"/>
      </g>
     </g>
     <g id="text_14">
      <!-- 10000 -->
      <g transform="translate(10.3625 59.506732)scale(0.1 -0.1)">
       <use xlink:href="#DejaVuSans-31"/>
       <use x="63.623047" xlink:href="#DejaVuSans-30"/>
       <use x="127.246094" xlink:href="#DejaVuSans-30"/>
       <use x="190.869141" xlink:href="#DejaVuSans-30"/>
       <use x="254.492188" xlink:href="#DejaVuSans-30"/>
      </g>
     </g>
    </g>
    <g id="text_15">
     <!-- Bandwidth (kbps) -->
     <defs>
      <path d="M 19.671875 34.8125 
L 19.671875 8.109375 
L 35.5 8.109375 
Q 43.453125 8.109375 47.28125 11.40625 
Q 51.125 14.703125 51.125 21.484375 
Q 51.125 28.328125 47.28125 31.5625 
Q 43.453125 34.8125 35.5 34.8125 
z
M 19.671875 64.796875 
L 19.671875 42.828125 
L 34.28125 42.828125 
Q 41.5 42.828125 45.03125 45.53125 
Q 48.578125 48.25 48.578125 53.8125 
Q 48.578125 59.328125 45.03125 62.0625 
Q 41.5 64.796875 34.28125 64.796875 
z
M 9.8125 72.90625 
L 35.015625 72.90625 
Q 46.296875 72.90625 52.390625 68.21875 
Q 58.5 63.53125 58.5 54.890625 
Q 58.5 48.1875 55.375 44.234375 
Q 52.25 40.28125 46.1875 39.3125 
Q 53.46875 37.75 57.5 32.78125 
Q 61.53125 27.828125 61.53125 20.40625 
Q 61.53125 10.640625 54.890625 5.3125 
Q 48.25 0 35.984375 0 
L 9.8125 0 
z
" id="DejaVuSans-42"/>
      <path d="M 34.28125 27.484375 
Q 23.390625 27.484375 19.1875 25 
Q 14.984375 22.515625 14.984375 16.5 
Q 14.984375 11.71875 18.140625 8.90625 
Q 21.296875 6.109375 26.703125 6.109375 
Q 34.1875 6.109375 38.703125 11.40625 
Q 43.21875 16.703125 43.21875 25.484375 
L 43.21875 27.484375 
z
M 52.203125 31.203125 
L 52.203125 0 
L 43.21875 0 
L 43.21875 8.296875 
Q 40.140625 3.328125 35.546875 0.953125 
Q 30.953125 -1.421875 24.3125 -1.421875 
Q 15.921875 -1.421875 10.953125 3.296875 
Q 6 8.015625 6 15.921875 
Q 6 25.140625 12.171875 29.828125 
Q 18.359375 34.515625 30.609375 34.515625 
L 43.21875 34.515625 
L 43.21875 35.40625 
Q 43.21875 41.609375 39.140625 45 
Q 35.0625 48.390625 27.6875 48.390625 
Q 23 48.390625 18.546875 47.265625 
Q 14.109375 46.140625 10.015625 43.890625 
L 10.015625 52.203125 
Q 14.9375 54.109375 19.578125 55.046875 
Q 24.21875 56 28.609375 56 
Q 40.484375 56 46.34375 49.84375 
Q 52.203125 43.703125 52.203125 31.203125 
z
" id="DejaVuSans-61"/>
      <path d="M 45.40625 46.390625 
L 45.40625 75.984375 
L 54.390625 75.984375 
L 54.390625 0 
L 45.40625 0 
L 45.40625 8.203125 
Q 42.578125 3.328125 38.25 0.953125 
Q 33.9375 -1.421875 27.875 -1.421875 
Q 17.96875 -1.421875 11.734375 6.484375 
Q 5.515625 14.40625 5.515625 27.296875 
Q 5.515625 40.1875 11.734375 48.09375 
Q 17.96875 56 27.875 56 
Q 33.9375 56 38.25 53.625 
Q 42.578125 51.265625 45.40625 46.390625 
z
M 14.796875 27.296875 
Q 14.796875 17.390625 18.875 11.75 
Q 22.953125 6.109375 30.078125 6.109375 
Q 37.203125 6.109375 41.296875 11.75 
Q 45.40625 17.390625 45.40625 27.296875 
Q 45.40625 37.203125 41.296875 42.84375 
Q 37.203125 48.484375 30.078125 48.484375 
Q 22.953125 48.484375 18.875 42.84375 
Q 14.796875 37.203125 14.796875 27.296875 
z
" id="DejaVuSans-64"/>
      <path d="M 4.203125 54.6875 
L 13.1875 54.6875 
L 24.421875 12.015625 
L 35.59375 54.6875 
L 46.1875 54.6875 
L 57.421875 12.015625 
L 68.609375 54.6875 
L 77.59375 54.6875 
L 63.28125 0 
L 52.6875 0 
L 40.921875 44.828125 
L 29.109375 0 
L 18.5 0 
z
" id="DejaVuSans-77"/>
      <path d="M 54.890625 33.015625 
L 54.890625 0 
L 45.90625 0 
L 45.90625 32.71875 
Q 45.90625 40.484375 42.875 44.328125 
Q 39.84375 48.1875 33.796875 48.1875 
Q 26.515625 48.1875 22.3125 43.546875 
Q 18.109375 38.921875 18.109375 30.90625 
L 18.109375 0 
L 9.078125 0 
L 9.078125 75.984375 
L 18.109375 75.984375 
L 18.109375 46.1875 
Q 21.34375 51.125 25.703125 53.5625 
Q 30.078125 56 35.796875 56 
Q 45.21875 56 50.046875 50.171875 
Q 54.890625 44.34375 54.890625 33.015625 
z
" id="DejaVuSans-68"/>
      <path d="M 31 75.875 
Q 24.46875 64.65625 21.28125 53.65625 
Q 18.109375 42.671875 18.109375 31.390625 
Q 18.109375 20.125 21.3125 9.0625 
Q 24.515625 -2 31 -13.1875 
L 23.1875 -13.1875 
Q 15.875 -1.703125 12.234375 9.375 
Q 8.59375 20.453125 8.59375 31.390625 
Q 8.59375 42.28125 12.203125 53.3125 
Q 15.828125 64.359375 23.1875 75.875 
z
" id="DejaVuSans-28"/>
      <path d="M 9.078125 75.984375 
L 18.109375 75.984375 
L 18.109375 31.109375 
L 44.921875 54.6875 
L 56.390625 54.6875 
L 27.390625 29.109375 
L 57.625 0 
L 45.90625 0 
L 18.109375 26.703125 
L 18.109375 0 
L 9.078125 0 
z
" id="DejaVuSans-6b"/>
      <path d="M 48.6875 27.296875 
Q 48.6875 37.203125 44.609375 42.84375 
Q 40.53125 48.484375 33.40625 48.484375 
Q 26.265625 48.484375 22.1875 42.84375 
Q 18.109375 37.203125 18.109375 27.296875 
Q 18.109375 17.390625 22.1875 11.75 
Q 26.265625 6.109375 33.40625 6.109375 
Q 40.53125 6.109375 44.609375 11.75 
Q 48.6875 17.390625 48.6875 27.296875 
z
M 18.109375 46.390625 
Q 20.953125 51.265625 25.265625 53.625 
Q 29.59375 56 35.59375 56 
Q 45.5625 56 51.78125 48.09375 
Q 58.015625 40.1875 58.015625 27.296875 
Q 58.015625 14.40625 51.78125 6.484375 
Q 45.5625 -1.421875 35.59375 -1.421875 
Q 29.59375 -1.421875 25.265625 0.953125 
Q 20.953125 3.328125 18.109375 8.203125 
L 18.109375 0 
L 9.078125 0 
L 9.078125 75.984375 
L 18.109375 75.984375 
z
" id="DejaVuSans-62"/>
      <path d="M 8.015625 75.875 
L 15.828125 75.875 
Q 23.140625 64.359375 26.78125 53.3125 
Q 30.421875 42.28125 30.421875 31.390625 
Q 30.421875 20.453125 26.78125 9.375 
Q 23.140625 -1.703125 15.828125 -13.1875 
L 8.015625 -13.1875 
Q 14.5 -2 17.703125 9.0625 
Q 20.90625 20.125 20.90625 31.390625 
Q 20.90625 42.671875 17.703125 53.65625 
Q 14.5 64.65625 8.015625 75.875 
z
" id="DejaVuSans-29"/>
     </defs>
     <g transform="translate(4.282813 415.207812)rotate(-90)scale(0.1 -0.1)">
      <use xlink:href="#DejaVuSans-42"/>
      <use x="68.603516" xlink:href="#DejaVuSans-61"/>
      <use x="129.882812" xlink:href="#DejaVuSans-6e"/>
      <use x="193.261719" xlink:href="#DejaVuSans-64"/>
      <use x="256.738281" xlink:href="#DejaVuSans-77"/>
      <use x="338.525391" xlink:href="#DejaVuSans-69"/>
      <use x="366.308594" xlink:href="#DejaVuSans-64"/>
      <use x="429.785156" xlink:href="#DejaVuSans-74"/>
      <use x="468.994141" xlink:href="#DejaVuSans-68"/>
      <use x="532.373047" xlink:href="#DejaVuSans-20"/>
      <use x="564.160156" xlink:href="#DejaVuSans-28"/>
      <use x="603.173828" xlink:href="#DejaVuSans-6b"/>
      <use x="661.083984" xlink:href="#DejaVuSans-62"/>
      <use x="724.560547" xlink:href="#DejaVuSans-70"/>
      <use x="788.037109" xlink:href="#DejaVuSans-73"/>
      <use x="840.136719" xlink:href="#DejaVuSans-29"/>
     </g>
    </g>
   </g>
   <g id="LineCollection_1">
    <path clip-path="url(#pe3cc7185f9)" d="M 1067.839015 672.505577 
L 1260.039773 672.505577 
" style="fill:none;stroke:#000000;stroke-width:1.5;"/>
   </g>
   <g id="LineCollection_2">
    <path clip-path="url(#pe3cc7185f9)" d="M 106.835227 664.173294 
L 875.638258 664.173294 
" style="fill:none;stroke:#000000;stroke-width:1.5;"/>
   </g>
   <g id="line2d_14">
    <path clip-path="url(#pe3cc7185f9)" d="M 106.835227 624.923998 
L 107.796231 650.26837 
L 108.757235 625.695869 
L 109.718239 616.971242 
L 110.679242 645.228431 
L 111.640246 668.314253 
L 112.60125 660.034647 
L 113.562254 647.809795 
L 114.523258 614.14489 
L 115.484261 603.891503 
L 116.445265 627.239039 
L 117.406269 564.549679 
L 118.367273 608.955073 
L 119.328277 660.64915 
L 120.28928 665.128199 
L 121.250284 676.672258 
L 122.211288 656.767308 
L 123.172292 664.67107 
L 124.133295 678.507692 
L 125.094299 644.652553 
L 126.055303 643.171647 
L 127.016307 656.789215 
L 127.977311 685.071767 
L 128.938314 686.527317 
L 129.899318 686.47659 
L 130.860322 673.466022 
L 131.821326 679.890602 
L 133.743333 638.481618 
L 134.704337 669.407791 
L 135.665341 669.969252 
L 136.626345 658.787782 
L 137.587348 669.851081 
L 138.548352 670.130083 
L 139.509356 681.26429 
L 140.47036 674.648334 
L 141.431364 671.088154 
L 142.392367 679.434051 
L 143.353371 641.409423 
L 144.314375 662.59295 
L 145.275379 620.703777 
L 146.236383 670.067255 
L 147.197386 667.747604 
L 148.15839 679.861205 
L 149.119394 659.089268 
L 150.080398 627.583754 
L 151.041402 561.889346 
L 152.002405 674.798212 
L 152.963409 651.521577 
L 153.924413 612.235097 
L 154.885417 604.402237 
L 155.84642 609.020787 
L 156.807424 640.091072 
L 157.768428 642.240094 
L 158.729432 578.195496 
L 159.690436 581.571785 
L 160.651439 541.289763 
L 162.573447 680.291239 
L 163.534451 642.056786 
L 164.495455 658.73129 
L 165.456458 634.762339 
L 166.417462 586.218577 
L 168.33947 653.6608 
L 169.300473 650.231476 
L 170.261477 648.762094 
L 171.222481 655.841527 
L 172.183485 607.369822 
L 173.144489 645.08201 
L 174.105492 652.334382 
L 175.066496 635.918704 
L 176.988504 684.80545 
L 177.949508 652.90795 
L 178.910511 661.682156 
L 179.871515 649.143132 
L 180.832519 588.677152 
L 181.793523 660.645116 
L 182.754527 631.693295 
L 183.71553 641.214007 
L 184.676534 643.269066 
L 185.637538 572.752041 
L 186.598542 691.86297 
L 187.559545 673.143212 
L 188.520549 675.957457 
L 189.481553 638.418784 
L 190.442557 643.306537 
L 191.403561 673.345548 
L 192.364564 639.791895 
L 193.325568 663.108879 
L 194.286572 653.865437 
L 195.247576 650.960687 
L 196.20858 627.616614 
L 197.169583 674.885255 
L 198.130587 651.302524 
L 199.091591 676.714917 
L 200.052595 664.924709 
L 201.974602 658.34852 
L 202.935606 678.220616 
L 203.89661 654.622327 
L 204.857614 653.309164 
L 205.818617 662.62869 
L 206.779621 676.22666 
L 207.740625 671.921127 
L 208.701629 666.283987 
L 209.662633 683.722294 
L 210.623636 686.871462 
L 211.58464 642.408998 
L 212.545644 689.862678 
L 213.506648 678.532478 
L 214.467652 663.399989 
L 215.428655 657.332232 
L 216.389659 693.421704 
L 217.350663 681.764655 
L 218.311667 682.280007 
L 219.27267 695.75 
L 220.233674 669.753084 
L 221.194678 683.014983 
L 222.155682 662.075873 
L 223.116686 656.495226 
L 224.077689 658.022248 
L 225.038693 691.059394 
L 226.960701 663.538913 
L 227.921705 657.812999 
L 228.882708 673.898941 
L 229.843712 688.105649 
L 230.804716 687.632956 
L 231.76572 662.584883 
L 232.726723 678.995372 
L 233.687727 676.659002 
L 234.648731 659.771787 
L 235.609735 665.087842 
L 236.570739 684.588127 
L 237.531742 674.242509 
L 238.492746 643.585539 
L 239.45375 647.829393 
L 240.414754 634.592857 
L 241.375758 677.208939 
L 242.336761 664.145342 
L 243.297765 687.511321 
L 244.258769 652.521153 
L 245.219773 651.024676 
L 246.180777 688.739172 
L 247.14178 681.264867 
L 248.102784 654.126573 
L 249.063788 677.29368 
L 250.024792 657.009994 
L 250.985795 626.604938 
L 251.946799 692.08087 
L 252.907803 690.990224 
L 253.868807 681.099426 
L 254.829811 642.970459 
L 255.790814 666.392937 
L 256.751818 642.884571 
L 257.712822 693.362904 
L 258.673826 666.552613 
L 259.63483 673.572092 
L 260.595833 652.391451 
L 261.556837 653.304554 
L 262.517841 685.811361 
L 263.478845 650.636724 
L 264.439848 672.727589 
L 265.400852 687.328013 
L 266.361856 666.886382 
L 267.32286 676.473963 
L 268.283864 672.64919 
L 269.244867 662.199233 
L 270.205871 670.466161 
L 271.166875 672.840572 
L 272.127879 655.645528 
L 273.088883 653.130461 
L 274.049886 681.634376 
L 275.01089 668.046782 
L 275.971894 626.33458 
L 276.932898 675.162525 
L 277.893902 684.457271 
L 278.854905 685.454538 
L 279.815909 644.080139 
L 280.776913 686.979835 
L 281.737917 662.96015 
L 282.69892 652.762107 
L 283.659924 663.062187 
L 284.620928 647.866286 
L 285.581932 660.931609 
L 286.542936 653.435981 
L 287.503939 666.607374 
L 288.464943 671.608687 
L 289.425947 647.095564 
L 290.386951 626.084975 
L 291.347955 673.153011 
L 292.308958 642.539848 
L 293.269962 687.47328 
L 294.230966 689.424 
L 295.19197 691.794954 
L 296.152973 680.374248 
L 297.113977 659.981619 
L 298.074981 657.152958 
L 299.035985 689.433221 
L 299.996989 655.039099 
L 300.957992 664.824981 
L 301.918996 687.394881 
L 302.88 676.18343 
L 303.841004 629.41688 
L 304.802008 693.278169 
L 305.763011 679.851983 
L 306.724015 688.297608 
L 307.685019 681.223363 
L 308.646023 667.821385 
L 309.607027 678.520948 
L 310.56803 663.06622 
L 311.529034 636.572403 
L 312.490038 579.93927 
L 313.451042 642.98199 
L 314.412045 592.12896 
L 315.373049 646.451664 
L 316.334053 626.806696 
L 317.295057 650.089089 
L 318.256061 644.800705 
L 319.217064 670.405629 
L 320.178068 689.884585 
L 321.139072 619.548565 
L 322.100076 675.489952 
L 323.06108 646.056222 
L 324.022083 609.748273 
L 324.983087 617.370724 
L 325.944091 654.758942 
L 326.905095 642.499498 
L 327.866098 649.756474 
L 328.827102 664.105569 
L 329.788106 664.510817 
L 330.74911 639.552089 
L 331.710114 656.683722 
L 332.671117 649.242854 
L 333.632121 680.918997 
L 334.593125 669.7087 
L 335.554129 671.420768 
L 336.515133 682.965982 
L 337.476136 586.254317 
L 338.43714 646.176125 
L 339.398144 645.103917 
L 340.359148 691.650259 
L 341.320152 625.711433 
L 342.281155 628.057024 
L 343.242159 665.185838 
L 344.203163 658.88059 
L 345.164167 678.273651 
L 346.12517 589.75916 
L 348.047178 687.971336 
L 349.008182 689.782548 
L 350.930189 628.836969 
L 351.891193 687.647366 
L 352.852197 648.964429 
L 353.813201 685.581931 
L 354.774205 646.077551 
L 355.735208 683.040347 
L 356.696212 655.816734 
L 357.657216 674.667932 
L 358.61822 673.554796 
L 359.579223 643.948705 
L 360.540227 649.148898 
L 361.501231 676.778906 
L 362.462235 689.056216 
L 363.423239 681.131709 
L 364.384242 670.094921 
L 365.345246 691.570712 
L 366.30625 686.814393 
L 367.267254 677.236611 
L 368.228258 662.45057 
L 369.189261 686.960807 
L 370.150265 691.409882 
L 371.111269 652.7183 
L 372.072273 683.416197 
L 373.033277 626.390495 
L 373.99428 671.363122 
L 374.955284 690.1486 
L 375.916288 672.813477 
L 376.877292 678.138184 
L 377.838295 679.649648 
L 378.799299 689.640168 
L 379.760303 658.221704 
L 380.721307 681.96987 
L 381.682311 690.094988 
L 382.643314 693.010691 
L 383.604318 688.53222 
L 384.565322 685.051015 
L 385.526326 670.891007 
L 386.48733 674.63277 
L 387.448333 644.231741 
L 388.409337 628.56949 
L 389.370341 687.557437 
L 390.331345 659.78274 
L 391.292348 583.582453 
L 392.253352 471.599952 
L 393.214356 684.890184 
L 394.17536 671.907871 
L 395.136364 680.767966 
L 396.097367 694.59652 
L 397.058371 688.09181 
L 398.019375 669.648168 
L 398.980379 685.349622 
L 400.902386 686.778076 
L 401.86339 672.483171 
L 402.824394 660.598424 
L 403.785398 663.498563 
L 404.746402 666.868509 
L 405.707405 688.518964 
L 406.668409 665.253861 
L 407.629413 688.904614 
L 408.590417 674.832797 
L 409.55142 668.90397 
L 410.512424 682.432764 
L 411.473428 657.410631 
L 412.434432 689.177851 
L 413.395436 684.061245 
L 414.356439 678.12723 
L 415.317443 661.418141 
L 416.278447 684.628478 
L 417.239451 690.900295 
L 418.200455 685.677625 
L 419.161458 674.852395 
L 420.122462 687.301496 
L 421.083466 645.672304 
L 422.04447 686.680073 
L 423.005473 659.050066 
L 423.966477 688.009955 
L 424.927481 662.184246 
L 425.888485 681.375549 
L 426.849489 675.069717 
L 428.771496 689.555427 
L 429.7325 682.871449 
L 430.693504 678.458113 
L 431.654508 679.480166 
L 432.615511 684.411733 
L 433.576515 665.157596 
L 434.537519 665.690237 
L 435.498523 683.985155 
L 436.459527 683.494019 
L 437.42053 667.777578 
L 438.381534 683.800116 
L 439.342538 687.391995 
L 440.303542 660.699299 
L 441.264545 657.161026 
L 442.225549 668.224331 
L 443.186553 688.118904 
L 444.147557 667.302006 
L 445.108561 680.984134 
L 446.069564 670.586635 
L 447.991572 684.937454 
L 448.952576 648.37933 
L 449.91358 640.403512 
L 450.874583 650.431502 
L 451.835587 679.542423 
L 452.796591 673.023887 
L 453.757595 668.392075 
L 454.718598 673.525399 
L 455.679602 680.226096 
L 456.640606 678.588393 
L 457.60161 657.70866 
L 458.562614 666.222885 
L 459.523617 682.531337 
L 460.484621 685.351353 
L 461.445625 675.469199 
L 462.406629 687.876796 
L 463.367633 673.903552 
L 464.328636 679.465756 
L 465.28964 679.701529 
L 466.250644 681.568662 
L 467.211648 663.214943 
L 468.172652 671.024742 
L 469.133655 690.090377 
L 470.094659 695.008681 
L 471.055663 685.149588 
L 472.016667 684.778932 
L 472.97767 676.273353 
L 473.938674 682.152607 
L 474.899678 659.708375 
L 475.860682 650.015878 
L 476.821686 676.511427 
L 477.782689 678.993063 
L 478.743693 677.540977 
L 479.704697 680.898245 
L 480.665701 686.152043 
L 481.626705 679.672703 
L 482.587708 685.732963 
L 483.548712 681.064841 
L 484.509716 688.799698 
L 485.47072 685.490277 
L 486.431723 688.065869 
L 487.392727 692.742065 
L 488.353731 682.707155 
L 489.314735 690.642622 
L 490.275739 691.522288 
L 491.236742 678.952713 
L 492.197746 684.630209 
L 493.15875 686.236784 
L 494.119754 674.315142 
L 495.080758 688.731676 
L 496.041761 691.716556 
L 497.002765 673.615328 
L 497.963769 692.921339 
L 498.924773 691.322261 
L 499.885777 678.746921 
L 500.84678 687.830103 
L 501.807784 678.750378 
L 502.768788 692.283782 
L 503.729792 689.639591 
L 504.690795 683.569531 
L 505.651799 694.893966 
L 506.612803 689.383066 
L 507.573807 680.978368 
L 508.534811 689.91917 
L 509.495814 687.686562 
L 510.456818 687.5828 
L 511.417822 678.101867 
L 512.378826 682.186044 
L 513.33983 669.674686 
L 514.300833 689.079277 
L 515.261837 689.130581 
L 516.222841 686.68757 
L 518.144848 677.232571 
L 519.105852 678.513457 
L 520.066856 680.374248 
L 521.02786 664.319428 
L 521.988864 688.612927 
L 522.949867 688.923058 
L 523.910871 671.202869 
L 524.871875 664.624377 
L 525.832879 671.846191 
L 526.793883 672.143637 
L 527.754886 660.354584 
L 528.71589 672.533321 
L 529.676894 669.985971 
L 530.637898 664.295796 
L 531.598902 680.306226 
L 532.559905 663.09504 
L 533.520909 668.419169 
L 534.481913 652.240996 
L 535.442917 638.84363 
L 536.40392 661.415832 
L 537.364924 634.071169 
L 538.325928 657.348374 
L 539.286932 650.632113 
L 540.247936 664.811148 
L 541.208939 646.25798 
L 542.169943 557.348617 
L 543.130947 658.41424 
L 544.091951 683.607002 
L 545.052955 688.243996 
L 546.013958 659.46569 
L 546.974962 682.281732 
L 547.935966 670.512854 
L 548.89697 688.796812 
L 549.857973 682.844354 
L 550.818977 689.806186 
L 551.779981 682.734827 
L 552.740985 688.836015 
L 553.701989 666.965351 
L 554.662992 688.526461 
L 555.623996 683.426574 
L 556.585 685.085606 
L 557.546004 681.894934 
L 558.507008 667.364263 
L 559.468011 694.986774 
L 560.429015 682.200454 
L 561.390019 686.550371 
L 562.351023 690.154942 
L 563.312027 690.245442 
L 564.27303 688.389839 
L 565.234034 687.068609 
L 566.195038 687.702703 
L 567.156042 686.704289 
L 568.117045 689.004335 
L 569.078049 682.866831 
L 570.039053 689.698391 
L 571.000057 690.031006 
L 571.961061 692.750133 
L 572.922064 672.275648 
L 573.883068 673.879343 
L 574.844072 686.731384 
L 575.805076 690.460462 
L 576.76608 691.085335 
L 577.727083 691.284791 
L 578.688087 690.463342 
L 579.649091 690.672597 
L 580.610095 687.381042 
L 581.571098 669.752507 
L 582.532102 686.267335 
L 583.493106 688.783557 
L 584.45411 692.676929 
L 585.415114 690.261583 
L 586.376117 689.219933 
L 587.337121 691.883723 
L 588.298125 691.069193 
L 589.259129 687.265756 
L 590.220133 689.251638 
L 591.181136 688.235928 
L 592.14214 686.120338 
L 593.103144 692.023801 
L 594.064148 685.998132 
L 595.025152 689.019329 
L 595.986155 689.639591 
L 596.947159 687.323973 
L 597.908163 685.909935 
L 598.869167 688.959951 
L 599.83017 691.477327 
L 600.791174 687.646212 
L 601.752178 691.195439 
L 602.713182 692.66309 
L 603.674186 683.959792 
L 604.635189 693.462632 
L 605.596193 689.781977 
L 606.557197 687.294576 
L 607.518201 690.111129 
L 608.479205 684.893647 
L 609.440208 643.43393 
L 610.401212 540.787673 
L 611.362216 532.262496 
L 612.32322 494.30532 
L 613.284223 469.936886 
L 614.245227 582.681458 
L 615.206231 672.499313 
L 616.167235 678.546888 
L 617.128239 661.974991 
L 618.089242 664.257748 
L 619.050246 665.257901 
L 620.01125 657.471733 
L 620.972254 656.593799 
L 621.933258 626.47639 
L 622.894261 649.149468 
L 623.855265 662.083941 
L 624.816269 638.956036 
L 625.777273 651.308289 
L 626.738277 658.760687 
L 627.69928 669.101694 
L 628.660284 653.077426 
L 629.621288 672.635357 
L 630.582292 643.096705 
L 631.543295 647.839192 
L 632.504299 640.966134 
L 633.465303 654.27645 
L 634.426307 674.804547 
L 635.387311 662.513975 
L 636.348314 679.635809 
L 637.309318 679.57125 
L 638.270322 678.234449 
L 639.231326 662.698444 
L 640.19233 651.754464 
L 641.153333 678.525559 
L 642.114337 670.641978 
L 643.075341 679.140638 
L 644.036345 651.0731 
L 644.997348 683.824325 
L 645.958352 689.173817 
L 646.919356 651.243152 
L 647.88036 659.306013 
L 648.841364 664.318857 
L 650.763371 686.72331 
L 651.724375 646.83616 
L 652.685379 642.12711 
L 653.646383 681.281009 
L 654.607386 687.009232 
L 655.56839 669.015799 
L 656.529394 669.347837 
L 657.490398 679.950557 
L 658.451402 680.4855 
L 659.412405 680.458412 
L 660.373409 667.136558 
L 661.334413 683.909636 
L 662.295417 672.921273 
L 663.25642 677.344984 
L 664.217424 684.616947 
L 665.178428 683.600083 
L 666.139432 687.853158 
L 667.100436 678.25059 
L 668.061439 684.981268 
L 669.022443 681.57673 
L 669.983447 668.946052 
L 670.944451 685.149588 
L 671.905455 665.229075 
L 672.866458 691.922925 
L 673.827462 685.153629 
L 674.788466 685.354232 
L 675.74947 689.267203 
L 676.710473 687.429466 
L 677.671477 682.332458 
L 678.632481 689.684552 
L 679.593485 677.110366 
L 680.554489 678.888147 
L 681.515492 675.764343 
L 682.476496 687.623734 
L 683.4375 672.835384 
L 684.398504 687.853158 
L 685.359508 684.998563 
L 686.320511 681.010074 
L 687.281515 678.524981 
L 688.242519 689.467807 
L 689.203523 686.499645 
L 690.164527 686.927377 
L 691.12553 689.713378 
L 692.086534 678.863938 
L 693.047538 672.812323 
L 694.008542 680.228405 
L 694.969545 679.959202 
L 695.930549 683.156216 
L 696.891553 688.848122 
L 697.852557 685.870162 
L 698.813561 674.156037 
L 699.774564 678.173923 
L 700.735568 678.472523 
L 701.696572 664.370161 
L 702.657576 677.919707 
L 703.61858 503.114688 
L 704.579583 520.996284 
L 705.540587 679.297429 
L 706.501591 680.582926 
L 707.462595 513.335215 
L 708.423598 680.973757 
L 709.384602 680.224948 
L 710.345606 501.445272 
L 711.30661 669.369166 
L 712.267614 667.686495 
L 713.228617 673.010624 
L 714.189621 348.415799 
L 715.150625 619.320867 
L 716.111629 668.833639 
L 717.072633 675.992619 
L 718.033636 670.527263 
L 718.99464 677.241799 
L 719.955644 670.969405 
L 720.916648 661.226182 
L 721.877652 669.245806 
L 722.838655 652.754039 
L 723.799659 643.946974 
L 724.760663 671.806412 
L 725.721667 642.688001 
L 726.68267 578.078472 
L 727.643674 677.78424 
L 728.604678 680.786986 
L 729.565682 673.349582 
L 730.526686 681.818838 
L 731.487689 681.381891 
L 732.448693 684.683815 
L 733.409697 682.872596 
L 734.370701 680.290085 
L 735.331705 672.163242 
L 736.292708 665.549004 
L 737.253712 666.852945 
L 738.214716 685.921465 
L 739.17572 667.646722 
L 740.136723 682.238502 
L 741.097727 669.748474 
L 742.058731 661.090714 
L 743.019735 687.456561 
L 744.941742 663.781599 
L 745.902746 687.636413 
L 746.86375 687.166606 
L 747.824754 680.366752 
L 748.785758 680.71493 
L 749.746761 682.644321 
L 750.707765 685.583085 
L 751.668769 662.618891 
L 752.629773 684.909789 
L 753.590777 655.048898 
L 754.55178 674.375091 
L 755.512784 672.849217 
L 756.473788 661.717895 
L 757.434792 678.544586 
L 759.356799 664.952952 
L 760.317803 680.097548 
L 761.278807 670.422925 
L 762.239811 674.956156 
L 763.200814 676.118864 
L 764.161818 679.606989 
L 766.083826 672.209357 
L 767.04483 675.78337 
L 768.005833 682.903148 
L 768.966837 661.337434 
L 769.927841 680.271064 
L 770.888845 680.169604 
L 771.849848 689.120205 
L 773.771856 674.768231 
L 774.73286 687.48769 
L 775.693864 690.055792 
L 776.654867 688.055493 
L 777.615871 678.604534 
L 778.576875 666.728431 
L 779.537879 691.836459 
L 780.498883 688.469963 
L 781.459886 686.383205 
L 782.42089 685.290244 
L 784.342898 693.590602 
L 785.303902 689.971051 
L 786.264905 683.007487 
L 787.225909 690.787312 
L 789.147917 684.242251 
L 790.10892 685.592307 
L 791.069924 684.039338 
L 792.030928 685.135756 
L 792.991932 688.218632 
L 793.952936 678.307082 
L 794.913939 677.165703 
L 795.874943 683.88485 
L 796.835947 677.513882 
L 797.796951 678.285182 
L 798.757955 660.568443 
L 799.718958 662.633878 
L 800.679962 662.128909 
L 801.640966 678.309391 
L 802.60197 506.846069 
L 803.562973 664.175893 
L 804.523977 661.504607 
L 805.484981 655.452421 
L 806.445985 660.908554 
L 807.406989 661.866041 
L 808.367992 652.356859 
L 809.328996 669.40606 
L 810.29 668.963341 
L 811.251004 673.000826 
L 812.212008 680.367906 
L 813.173011 667.652487 
L 814.134015 676.365013 
L 815.095019 667.689958 
L 816.056023 665.120702 
L 817.017027 688.204223 
L 817.97803 677.702962 
L 818.939034 673.795757 
L 819.900038 685.077532 
L 820.861042 671.275502 
L 821.822045 677.816523 
L 822.783049 681.631496 
L 823.744053 678.676013 
L 824.705057 678.482329 
L 825.666061 682.815528 
L 826.627064 676.573114 
L 827.588068 678.457536 
L 828.549072 682.361285 
L 829.510076 666.892718 
L 830.47108 681.395147 
L 831.432083 689.532949 
L 832.393087 646.607307 
L 833.354091 649.146012 
L 834.315095 678.089182 
L 835.276098 679.060509 
L 836.237102 685.026229 
L 837.198106 686.46506 
L 838.15911 679.582774 
L 839.120114 685.16573 
L 840.081117 686.144553 
L 841.042121 682.137043 
L 842.003125 684.144832 
L 842.964129 691.603566 
L 843.925133 689.413046 
L 844.886136 681.196268 
L 845.84714 685.519097 
L 846.808144 687.130866 
L 847.769148 682.609736 
L 848.730152 679.360263 
L 849.691155 687.25538 
L 850.652159 687.964416 
L 851.613163 689.844235 
L 852.574167 687.618546 
L 853.53517 685.090217 
L 854.496174 687.155075 
L 855.457178 46.75 
L 857.379186 657.487875 
L 858.340189 506.038459 
L 859.301193 683.054179 
L 860.262197 677.03831 
L 861.223201 686.455838 
L 862.184205 344.229592 
L 863.145208 521.723194 
L 864.106212 541.119134 
L 865.067216 675.478998 
L 866.02822 513.459152 
L 866.989223 565.230472 
L 867.950227 462.943918 
L 868.911231 668.534462 
L 869.872235 509.511596 
L 870.833239 680.318911 
L 871.794242 680.566207 
L 872.755246 685.722587 
L 873.71625 684.781234 
L 874.677254 685.873041 
L 874.677254 685.873041 
" style="fill:none;stroke:#1f77b4;stroke-linecap:square;stroke-width:1.5;"/>
   </g>
   <g id="line2d_15">
    <path clip-path="url(#pe3cc7185f9)" d="M 875.638258 666.597575 
L 876.599261 679.828922 
L 877.560265 682.919289 
L 879.482273 678.228113 
L 880.443277 671.30259 
L 881.40428 652.321697 
L 882.365284 657.009994 
L 883.326288 627.549746 
L 884.287292 627.981512 
L 885.248295 637.139052 
L 886.209299 626.492532 
L 887.170303 641.129266 
L 888.131307 644.870453 
L 889.092311 642.338667 
L 890.053314 631.543417 
L 891.014318 633.472231 
L 891.975322 675.793169 
L 892.936326 658.784896 
L 893.89733 681.717962 
L 894.858333 677.335185 
L 895.819337 674.424092 
L 896.780341 678.944068 
L 897.741345 680.836565 
L 898.702348 669.871256 
L 899.663352 668.29293 
L 900.624356 679.6116 
L 901.58536 676.580604 
L 902.546364 672.11424 
L 903.507367 672.641693 
L 904.468371 666.820085 
L 905.429375 670.488638 
L 906.390379 668.400149 
L 907.351383 677.410698 
L 908.312386 671.87328 
L 909.27339 673.9416 
L 910.234394 672.879197 
L 911.195398 673.167421 
L 912.156402 682.410857 
L 913.117405 688.206525 
L 914.078409 682.026939 
L 915.039413 681.621691 
L 916.000417 689.516231 
L 916.96142 684.00821 
L 917.922424 684.105058 
L 918.883428 693.556594 
L 919.844432 687.790324 
L 920.805436 683.758034 
L 921.766439 684.321226 
L 922.727443 675.353337 
L 923.688447 690.699114 
L 924.649451 687.936167 
L 925.610455 687.646212 
L 926.571458 682.650663 
L 927.532462 690.491014 
L 928.493466 684.293555 
L 929.45447 682.679489 
L 930.415473 686.20277 
L 931.376477 683.540712 
L 932.337481 689.808489 
L 933.298485 691.624895 
L 934.259489 688.200182 
L 935.220492 689.252793 
L 936.181496 685.229718 
L 937.1425 690.099599 
L 938.103504 684.838303 
L 939.064508 691.54304 
L 940.025511 687.680803 
L 940.986515 681.3473 
L 941.947519 686.211421 
L 942.908523 684.879808 
L 943.869527 687.099738 
L 944.83053 693.671887 
L 945.791534 685.854597 
L 946.752538 681.799817 
L 947.713542 685.09656 
L 948.674545 690.339405 
L 949.635549 680.792174 
L 950.596553 682.967136 
L 951.557557 691.322839 
L 952.518561 680.540267 
L 953.479564 684.744347 
L 954.440568 686.751559 
L 955.401572 684.290098 
L 956.362576 687.293999 
L 957.32358 682.7746 
L 958.284583 681.056767 
L 960.206591 694.605165 
L 961.167595 690.410884 
L 962.128598 684.531636 
L 963.089602 684.021472 
L 964.050606 683.760913 
L 965.972614 695.117054 
L 966.933617 681.902425 
L 967.894621 693.193429 
L 968.855625 689.293143 
L 969.816629 690.355546 
L 970.777633 682.642596 
L 971.738636 691.160854 
L 972.69964 690.019475 
L 973.660644 689.666108 
L 974.621648 692.372557 
L 975.582652 681.992931 
L 976.543655 679.323369 
L 977.504659 681.743903 
L 978.465663 682.844931 
L 979.426667 686.222951 
L 980.38767 685.973346 
L 981.348674 692.271104 
L 982.309678 688.043392 
L 983.270682 681.261411 
L 984.231686 688.657311 
L 985.192689 691.427748 
L 986.153693 690.893953 
L 987.114697 529.210754 
L 988.075701 684.292407 
L 989.036705 683.368928 
L 989.997708 687.925214 
L 990.958712 687.75055 
L 991.919716 679.8883 
L 992.88072 679.028226 
L 993.841723 685.525439 
L 994.802727 686.128989 
L 995.763731 524.585862 
L 996.724735 612.405727 
L 997.685739 590.736251 
L 998.646742 519.232336 
L 999.607746 687.337235 
L 1000.56875 690.2074 
L 1001.529754 512.111975 
L 1002.490758 537.769362 
L 1003.451761 685.327715 
L 1004.412765 415.108629 
L 1005.373769 632.311831 
L 1006.334773 540.981941 
L 1007.295777 683.289375 
L 1008.25678 531.956399 
L 1009.217784 678.6005 
L 1010.178788 688.144845 
L 1011.139792 682.467349 
L 1012.100795 683.888884 
L 1013.061799 683.460582 
L 1014.022803 690.966009 
L 1014.983807 681.536956 
L 1015.944811 688.448063 
L 1016.905814 684.533361 
L 1017.866818 684.078541 
L 1018.827822 682.603393 
L 1019.788826 684.370805 
L 1020.74983 678.701376 
L 1021.710833 671.583901 
L 1022.671837 688.439411 
L 1023.632841 681.579038 
L 1024.593845 688.731676 
L 1025.554848 683.868709 
L 1026.515852 670.983238 
L 1027.476856 689.976816 
L 1028.43786 682.859918 
L 1029.398864 665.851645 
L 1030.359867 688.704004 
L 1031.320871 684.110824 
L 1032.281875 682.708309 
L 1033.242879 674.376245 
L 1034.203883 683.748806 
L 1035.164886 679.55741 
L 1036.12589 685.94164 
L 1037.086894 681.165139 
L 1038.047898 658.060873 
L 1039.008902 682.112834 
L 1039.969905 689.318506 
L 1040.930909 682.953881 
L 1041.891913 681.59518 
L 1042.852917 685.871309 
L 1043.81392 686.219488 
L 1044.774924 683.179271 
L 1045.735928 670.028053 
L 1046.696932 679.860628 
L 1047.657936 680.690721 
L 1048.618939 678.049409 
L 1049.579943 676.881513 
L 1050.540947 681.651671 
L 1051.501951 688.505709 
L 1052.462955 681.732949 
L 1053.423958 683.31647 
L 1054.384962 678.639119 
L 1055.345966 676.891889 
L 1056.30697 677.948527 
L 1057.267973 673.917962 
L 1058.228977 685.972769 
L 1059.189981 683.48018 
L 1060.150985 683.1101 
L 1061.111989 676.282581 
L 1062.072992 676.781785 
L 1063.995 684.906326 
L 1064.956004 681.764655 
L 1065.917008 531.159165 
L 1066.878011 648.941945 
L 1066.878011 648.941945 
" style="fill:none;stroke:#ff7f0e;stroke-linecap:square;stroke-width:1.5;"/>
   </g>
   <g id="line2d_16">
    <path clip-path="url(#pe3cc7185f9)" d="M 1067.839015 528.699436 
L 1068.800019 520.659636 
L 1069.761023 457.54082 
L 1070.722027 677.217007 
L 1071.68303 685.125957 
L 1072.644034 687.626614 
L 1073.605038 566.517695 
L 1074.566042 519.802448 
L 1075.527045 521.568128 
L 1076.488049 687.405257 
L 1077.449053 507.831228 
L 1078.410057 686.885295 
L 1079.371061 675.484187 
L 1080.332064 680.224948 
L 1081.293068 677.969856 
L 1082.254072 671.578713 
L 1083.215076 674.948089 
L 1084.17608 672.238754 
L 1085.137083 675.655393 
L 1086.098087 619.135827 
L 1087.059091 571.550714 
L 1088.020095 636.801256 
L 1088.981098 678.089759 
L 1089.942102 674.343385 
L 1090.903106 528.934631 
L 1091.86411 676.419196 
L 1092.825114 677.332876 
L 1093.786117 680.566207 
L 1094.747121 686.911812 
L 1095.708125 685.153052 
L 1096.669129 676.680909 
L 1097.630133 682.105337 
L 1098.591136 661.576086 
L 1099.55214 675.180398 
L 1100.513144 686.504833 
L 1101.474148 677.380146 
L 1102.435152 685.30466 
L 1103.396155 684.385792 
L 1104.357159 687.945395 
L 1105.318163 688.027828 
L 1106.279167 681.660316 
L 1107.24017 688.348912 
L 1108.201174 682.649509 
L 1109.162178 686.948706 
L 1110.123182 672.555227 
L 1111.084186 681.618234 
L 1112.045189 664.900494 
L 1113.006193 668.330395 
L 1113.967197 660.797873 
L 1114.928201 684.538549 
L 1115.889205 676.411706 
L 1116.850208 685.244706 
L 1117.811212 691.076113 
L 1118.772216 689.342138 
L 1119.73322 688.366778 
L 1120.694223 688.468815 
L 1121.655227 685.694337 
L 1122.616231 691.710213 
L 1123.577235 689.528909 
L 1124.538239 685.459726 
L 1125.499242 693.004926 
L 1126.460246 692.486118 
L 1127.42125 691.567249 
L 1128.382254 683.276119 
L 1129.343258 683.242682 
L 1130.304261 695.078435 
L 1132.226269 681.109802 
L 1133.187273 693.003778 
L 1134.148277 689.361743 
L 1135.10928 683.908488 
L 1136.070284 681.73007 
L 1137.031288 686.624736 
L 1137.992292 689.822905 
L 1138.953295 687.832983 
L 1139.914299 683.875628 
L 1140.875303 682.087471 
L 1141.836307 680.875184 
L 1142.797311 676.940313 
L 1143.758314 690.538861 
L 1144.719318 686.192394 
L 1145.680322 692.40484 
L 1146.641326 681.098271 
L 1147.60233 685.900713 
L 1148.563333 685.954896 
L 1149.524337 683.982269 
L 1150.485341 688.789322 
L 1151.446345 682.824756 
L 1152.407348 683.695777 
L 1153.368352 675.782216 
L 1154.329356 674.563593 
L 1155.29036 675.627151 
L 1156.251364 675.860615 
L 1157.212367 686.85071 
L 1158.173371 688.647512 
L 1159.134375 686.504256 
L 1160.095379 692.510333 
L 1161.056383 685.239517 
L 1162.017386 676.735092 
L 1162.97839 680.680345 
L 1163.939394 691.141256 
L 1164.900398 680.59445 
L 1165.861402 689.53756 
L 1166.822405 686.745794 
L 1167.783409 681.819415 
L 1168.744413 681.784253 
L 1169.705417 670.391796 
L 1170.66642 661.547266 
L 1171.627424 672.296977 
L 1172.588428 663.842702 
L 1173.549432 665.059599 
L 1174.510436 677.364005 
L 1175.471439 651.861112 
L 1176.432443 644.408713 
L 1177.393447 652.963865 
L 1178.354451 681.182435 
L 1179.315455 675.685951 
L 1180.276458 652.731556 
L 1181.237462 646.17036 
L 1182.198466 651.127283 
L 1183.15947 644.634687 
L 1184.120473 660.857251 
L 1185.081477 659.832312 
L 1186.042481 658.580259 
L 1187.003485 673.859745 
L 1187.964489 675.012648 
L 1188.925492 677.385911 
L 1189.886496 683.403513 
L 1190.8475 678.797648 
L 1191.808504 685.412456 
L 1192.769508 682.808037 
L 1193.730511 687.741906 
L 1194.691515 671.079503 
L 1195.652519 679.806438 
L 1196.613523 685.422255 
L 1197.574527 683.595472 
L 1198.53553 686.166453 
L 1199.496534 681.424544 
L 1200.457538 684.31777 
L 1201.418542 674.854126 
L 1202.379545 688.717266 
L 1203.340549 676.083702 
L 1204.301553 680.846941 
L 1205.262557 667.135988 
L 1206.223561 682.528458 
L 1207.184564 668.961616 
L 1208.145568 678.265577 
L 1209.106572 685.048135 
L 1210.067576 681.238927 
L 1211.02858 678.622978 
L 1211.989583 678.746921 
L 1212.950587 684.73973 
L 1213.911591 685.4897 
L 1214.872595 679.257656 
L 1215.833598 678.260389 
L 1216.794602 681.225671 
L 1217.755606 683.540134 
L 1218.71661 679.781652 
L 1219.677614 679.764357 
L 1220.638617 685.466062 
L 1221.599621 684.268191 
L 1222.560625 680.35753 
L 1223.521629 671.861178 
L 1224.482633 679.973034 
L 1225.443636 680.52528 
L 1226.40464 682.69851 
L 1227.365644 672.595578 
L 1228.326648 685.920888 
L 1229.287652 688.185772 
L 1230.248655 668.477393 
L 1231.209659 682.905456 
L 1232.170663 683.587404 
L 1233.131667 682.1307 
L 1234.09267 680.387504 
L 1235.053674 685.559447 
L 1236.014678 686.576889 
L 1236.975682 689.998723 
L 1237.936686 689.674753 
L 1238.897689 687.937899 
L 1239.858693 685.467216 
L 1240.819697 686.491577 
L 1241.780701 684.207666 
L 1242.741705 684.757026 
L 1243.702708 677.978507 
L 1244.663712 684.840035 
L 1245.624716 685.095405 
L 1246.58572 691.13837 
L 1247.546723 679.683079 
L 1248.507727 673.248122 
L 1249.468731 685.323104 
L 1250.429735 686.246006 
L 1251.390739 686.350345 
L 1252.351742 679.874461 
L 1253.312746 676.716649 
L 1254.27375 683.977081 
L 1255.234754 679.893488 
L 1256.195758 687.277858 
L 1257.156761 676.195531 
L 1258.117765 672.122885 
L 1259.078769 649.989367 
L 1259.078769 649.989367 
" style="fill:none;stroke:#2ca02c;stroke-linecap:square;stroke-width:1.5;"/>
   </g>
   <g id="patch_3">
    <path d="M 49.175 728.2 
L 49.175 14.3 
" style="fill:none;stroke:#000000;stroke-linecap:square;stroke-linejoin:miter;stroke-width:0.8;"/>
   </g>
   <g id="patch_4">
    <path d="M 1317.7 728.2 
L 1317.7 14.3 
" style="fill:none;stroke:#000000;stroke-linecap:square;stroke-linejoin:miter;stroke-width:0.8;"/>
   </g>
   <g id="patch_5">
    <path d="M 49.175 728.2 
L 1317.7 728.2 
" style="fill:none;stroke:#000000;stroke-linecap:square;stroke-linejoin:miter;stroke-width:0.8;"/>
   </g>
   <g id="patch_6">
    <path d="M 49.175 14.3 
L 1317.7 14.3 
" style="fill:none;stroke:#000000;stroke-linecap:square;stroke-linejoin:miter;stroke-width:0.8;"/>
   </g>
  </g>
 </g>
 <defs>
  <clipPath id="pe3cc7185f9">
   <rect height="713.9" width="1268.525" x="49.175" y="14.3"/>
  </clipPath>
 </defs>
</svg>
