<?xml version="1.0" encoding="utf-8" standalone="no"?>
<!DOCTYPE svg PUBLIC "-//W3C//DTD SVG 1.1//EN"
  "http://www.w3.org/Graphics/SVG/1.1/DTD/svg11.dtd">
<!-- Created with matplotlib (http://matplotlib.org/) -->
<svg height="820pt" version="1.1" viewBox="0 0 1440 820" width="1440pt" xmlns="http://www.w3.org/2000/svg" xmlns:xlink="http://www.w3.org/1999/xlink">
 <defs>
  <style type="text/css">
*{stroke-linecap:butt;stroke-linejoin:round;}
  </style>
 </defs>
 <g id="figure_1">
  <g id="patch_1">
   <path d="M 0 820.8 
L 1440 820.8 
L 1440 0 
L 0 0 
z
" style="fill:#ffffff;"/>
  </g>
  <g id="axes_1">
   <g id="patch_2">
    <path d="M 104.3 756 
L 1425.7 756 
L 1425.7 14.3 
L 104.3 14.3 
z
" style="fill:#ffffff;"/>
   </g>
   <g id="matplotlib.axis_1">
    <g id="xtick_1">
     <g id="line2d_1">
      <defs>
       <path d="M 0 0 
L 0 3.5 
" id="ma4fb1efc5a" style="stroke:#000000;stroke-width:0.8;"/>
      </defs>
      <g>
       <use style="stroke:#000000;stroke-width:0.8;" x="164.363636" xlink:href="#ma4fb1efc5a" y="756"/>
      </g>
     </g>
     <g id="text_1">
      <!-- 0 -->
      <defs>
       <path d="M 31.78125 66.40625 
Q 24.171875 66.40625 20.328125 58.90625 
Q 16.5 51.421875 16.5 36.375 
Q 16.5 21.390625 20.328125 13.890625 
Q 24.171875 6.390625 31.78125 6.390625 
Q 39.453125 6.390625 43.28125 13.890625 
Q 47.125 21.390625 47.125 36.375 
Q 47.125 51.421875 43.28125 58.90625 
Q 39.453125 66.40625 31.78125 66.40625 
z
M 31.78125 74.21875 
Q 44.046875 74.21875 50.515625 64.515625 
Q 56.984375 54.828125 56.984375 36.375 
Q 56.984375 17.96875 50.515625 8.265625 
Q 44.046875 -1.421875 31.78125 -1.421875 
Q 19.53125 -1.421875 13.0625 8.265625 
Q 6.59375 17.96875 6.59375 36.375 
Q 6.59375 54.828125 13.0625 64.515625 
Q 19.53125 74.21875 31.78125 74.21875 
z
" id="DejaVuSans-30"/>
      </defs>
      <g transform="translate(156.410511 781.996094)scale(0.25 -0.25)">
       <use xlink:href="#DejaVuSans-30"/>
      </g>
     </g>
    </g>
    <g id="xtick_2">
     <g id="line2d_2">
      <g>
       <use style="stroke:#000000;stroke-width:0.8;" x="364.74274" xlink:href="#ma4fb1efc5a" y="756"/>
      </g>
     </g>
     <g id="text_2">
      <!-- 200 -->
      <defs>
       <path d="M 19.1875 8.296875 
L 53.609375 8.296875 
L 53.609375 0 
L 7.328125 0 
L 7.328125 8.296875 
Q 12.9375 14.109375 22.625 23.890625 
Q 32.328125 33.6875 34.8125 36.53125 
Q 39.546875 41.84375 41.421875 45.53125 
Q 43.3125 49.21875 43.3125 52.78125 
Q 43.3125 58.59375 39.234375 62.25 
Q 35.15625 65.921875 28.609375 65.921875 
Q 23.96875 65.921875 18.8125 64.3125 
Q 13.671875 62.703125 7.8125 59.421875 
L 7.8125 69.390625 
Q 13.765625 71.78125 18.9375 73 
Q 24.125 74.21875 28.421875 74.21875 
Q 39.75 74.21875 46.484375 68.546875 
Q 53.21875 62.890625 53.21875 53.421875 
Q 53.21875 48.921875 51.53125 44.890625 
Q 49.859375 40.875 45.40625 35.40625 
Q 44.1875 33.984375 37.640625 27.21875 
Q 31.109375 20.453125 19.1875 8.296875 
z
" id="DejaVuSans-32"/>
      </defs>
      <g transform="translate(340.883365 781.996094)scale(0.25 -0.25)">
       <use xlink:href="#DejaVuSans-32"/>
       <use x="63.623047" xlink:href="#DejaVuSans-30"/>
       <use x="127.246094" xlink:href="#DejaVuSans-30"/>
      </g>
     </g>
    </g>
    <g id="xtick_3">
     <g id="line2d_3">
      <g>
       <use style="stroke:#000000;stroke-width:0.8;" x="565.121844" xlink:href="#ma4fb1efc5a" y="756"/>
      </g>
     </g>
     <g id="text_3">
      <!-- 400 -->
      <defs>
       <path d="M 37.796875 64.3125 
L 12.890625 25.390625 
L 37.796875 25.390625 
z
M 35.203125 72.90625 
L 47.609375 72.90625 
L 47.609375 25.390625 
L 58.015625 25.390625 
L 58.015625 17.1875 
L 47.609375 17.1875 
L 47.609375 0 
L 37.796875 0 
L 37.796875 17.1875 
L 4.890625 17.1875 
L 4.890625 26.703125 
z
" id="DejaVuSans-34"/>
      </defs>
      <g transform="translate(541.262469 781.996094)scale(0.25 -0.25)">
       <use xlink:href="#DejaVuSans-34"/>
       <use x="63.623047" xlink:href="#DejaVuSans-30"/>
       <use x="127.246094" xlink:href="#DejaVuSans-30"/>
      </g>
     </g>
    </g>
    <g id="xtick_4">
     <g id="line2d_4">
      <g>
       <use style="stroke:#000000;stroke-width:0.8;" x="765.500948" xlink:href="#ma4fb1efc5a" y="756"/>
      </g>
     </g>
     <g id="text_4">
      <!-- 600 -->
      <defs>
       <path d="M 33.015625 40.375 
Q 26.375 40.375 22.484375 35.828125 
Q 18.609375 31.296875 18.609375 23.390625 
Q 18.609375 15.53125 22.484375 10.953125 
Q 26.375 6.390625 33.015625 6.390625 
Q 39.65625 6.390625 43.53125 10.953125 
Q 47.40625 15.53125 47.40625 23.390625 
Q 47.40625 31.296875 43.53125 35.828125 
Q 39.65625 40.375 33.015625 40.375 
z
M 52.59375 71.296875 
L 52.59375 62.3125 
Q 48.875 64.0625 45.09375 64.984375 
Q 41.3125 65.921875 37.59375 65.921875 
Q 27.828125 65.921875 22.671875 59.328125 
Q 17.53125 52.734375 16.796875 39.40625 
Q 19.671875 43.65625 24.015625 45.921875 
Q 28.375 48.1875 33.59375 48.1875 
Q 44.578125 48.1875 50.953125 41.515625 
Q 57.328125 34.859375 57.328125 23.390625 
Q 57.328125 12.15625 50.6875 5.359375 
Q 44.046875 -1.421875 33.015625 -1.421875 
Q 20.359375 -1.421875 13.671875 8.265625 
Q 6.984375 17.96875 6.984375 36.375 
Q 6.984375 53.65625 15.1875 63.9375 
Q 23.390625 74.21875 37.203125 74.21875 
Q 40.921875 74.21875 44.703125 73.484375 
Q 48.484375 72.75 52.59375 71.296875 
z
" id="DejaVuSans-36"/>
      </defs>
      <g transform="translate(741.641573 781.996094)scale(0.25 -0.25)">
       <use xlink:href="#DejaVuSans-36"/>
       <use x="63.623047" xlink:href="#DejaVuSans-30"/>
       <use x="127.246094" xlink:href="#DejaVuSans-30"/>
      </g>
     </g>
    </g>
    <g id="xtick_5">
     <g id="line2d_5">
      <g>
       <use style="stroke:#000000;stroke-width:0.8;" x="965.880052" xlink:href="#ma4fb1efc5a" y="756"/>
      </g>
     </g>
     <g id="text_5">
      <!-- 800 -->
      <defs>
       <path d="M 31.78125 34.625 
Q 24.75 34.625 20.71875 30.859375 
Q 16.703125 27.09375 16.703125 20.515625 
Q 16.703125 13.921875 20.71875 10.15625 
Q 24.75 6.390625 31.78125 6.390625 
Q 38.8125 6.390625 42.859375 10.171875 
Q 46.921875 13.96875 46.921875 20.515625 
Q 46.921875 27.09375 42.890625 30.859375 
Q 38.875 34.625 31.78125 34.625 
z
M 21.921875 38.8125 
Q 15.578125 40.375 12.03125 44.71875 
Q 8.5 49.078125 8.5 55.328125 
Q 8.5 64.0625 14.71875 69.140625 
Q 20.953125 74.21875 31.78125 74.21875 
Q 42.671875 74.21875 48.875 69.140625 
Q 55.078125 64.0625 55.078125 55.328125 
Q 55.078125 49.078125 51.53125 44.71875 
Q 48 40.375 41.703125 38.8125 
Q 48.828125 37.15625 52.796875 32.3125 
Q 56.78125 27.484375 56.78125 20.515625 
Q 56.78125 9.90625 50.3125 4.234375 
Q 43.84375 -1.421875 31.78125 -1.421875 
Q 19.734375 -1.421875 13.25 4.234375 
Q 6.78125 9.90625 6.78125 20.515625 
Q 6.78125 27.484375 10.78125 32.3125 
Q 14.796875 37.15625 21.921875 38.8125 
z
M 18.3125 54.390625 
Q 18.3125 48.734375 21.84375 45.5625 
Q 25.390625 42.390625 31.78125 42.390625 
Q 38.140625 42.390625 41.71875 45.5625 
Q 45.3125 48.734375 45.3125 54.390625 
Q 45.3125 60.0625 41.71875 63.234375 
Q 38.140625 66.40625 31.78125 66.40625 
Q 25.390625 66.40625 21.84375 63.234375 
Q 18.3125 60.0625 18.3125 54.390625 
z
" id="DejaVuSans-38"/>
      </defs>
      <g transform="translate(942.020677 781.996094)scale(0.25 -0.25)">
       <use xlink:href="#DejaVuSans-38"/>
       <use x="63.623047" xlink:href="#DejaVuSans-30"/>
       <use x="127.246094" xlink:href="#DejaVuSans-30"/>
      </g>
     </g>
    </g>
    <g id="xtick_6">
     <g id="line2d_6">
      <g>
       <use style="stroke:#000000;stroke-width:0.8;" x="1166.259155" xlink:href="#ma4fb1efc5a" y="756"/>
      </g>
     </g>
     <g id="text_6">
      <!-- 1000 -->
      <defs>
       <path d="M 12.40625 8.296875 
L 28.515625 8.296875 
L 28.515625 63.921875 
L 10.984375 60.40625 
L 10.984375 69.390625 
L 28.421875 72.90625 
L 38.28125 72.90625 
L 38.28125 8.296875 
L 54.390625 8.296875 
L 54.390625 0 
L 12.40625 0 
z
" id="DejaVuSans-31"/>
      </defs>
      <g transform="translate(1134.446655 781.996094)scale(0.25 -0.25)">
       <use xlink:href="#DejaVuSans-31"/>
       <use x="63.623047" xlink:href="#DejaVuSans-30"/>
       <use x="127.246094" xlink:href="#DejaVuSans-30"/>
       <use x="190.869141" xlink:href="#DejaVuSans-30"/>
      </g>
     </g>
    </g>
    <g id="xtick_7">
     <g id="line2d_7">
      <g>
       <use style="stroke:#000000;stroke-width:0.8;" x="1366.638259" xlink:href="#ma4fb1efc5a" y="756"/>
      </g>
     </g>
     <g id="text_7">
      <!-- 1200 -->
      <g transform="translate(1334.825759 781.996094)scale(0.25 -0.25)">
       <use xlink:href="#DejaVuSans-31"/>
       <use x="63.623047" xlink:href="#DejaVuSans-32"/>
       <use x="127.246094" xlink:href="#DejaVuSans-30"/>
       <use x="190.869141" xlink:href="#DejaVuSans-30"/>
      </g>
     </g>
    </g>
    <g id="text_8">
     <!-- 15-Minute Steps -->
     <defs>
      <path d="M 10.796875 72.90625 
L 49.515625 72.90625 
L 49.515625 64.59375 
L 19.828125 64.59375 
L 19.828125 46.734375 
Q 21.96875 47.46875 24.109375 47.828125 
Q 26.265625 48.1875 28.421875 48.1875 
Q 40.625 48.1875 47.75 41.5 
Q 54.890625 34.8125 54.890625 23.390625 
Q 54.890625 11.625 47.5625 5.09375 
Q 40.234375 -1.421875 26.90625 -1.421875 
Q 22.3125 -1.421875 17.546875 -0.640625 
Q 12.796875 0.140625 7.71875 1.703125 
L 7.71875 11.625 
Q 12.109375 9.234375 16.796875 8.0625 
Q 21.484375 6.890625 26.703125 6.890625 
Q 35.15625 6.890625 40.078125 11.328125 
Q 45.015625 15.765625 45.015625 23.390625 
Q 45.015625 31 40.078125 35.4375 
Q 35.15625 39.890625 26.703125 39.890625 
Q 22.75 39.890625 18.8125 39.015625 
Q 14.890625 38.140625 10.796875 36.28125 
z
" id="DejaVuSans-35"/>
      <path d="M 4.890625 31.390625 
L 31.203125 31.390625 
L 31.203125 23.390625 
L 4.890625 23.390625 
z
" id="DejaVuSans-2d"/>
      <path d="M 9.8125 72.90625 
L 24.515625 72.90625 
L 43.109375 23.296875 
L 61.8125 72.90625 
L 76.515625 72.90625 
L 76.515625 0 
L 66.890625 0 
L 66.890625 64.015625 
L 48.09375 14.015625 
L 38.1875 14.015625 
L 19.390625 64.015625 
L 19.390625 0 
L 9.8125 0 
z
" id="DejaVuSans-4d"/>
      <path d="M 9.421875 54.6875 
L 18.40625 54.6875 
L 18.40625 0 
L 9.421875 0 
z
M 9.421875 75.984375 
L 18.40625 75.984375 
L 18.40625 64.59375 
L 9.421875 64.59375 
z
" id="DejaVuSans-69"/>
      <path d="M 54.890625 33.015625 
L 54.890625 0 
L 45.90625 0 
L 45.90625 32.71875 
Q 45.90625 40.484375 42.875 44.328125 
Q 39.84375 48.1875 33.796875 48.1875 
Q 26.515625 48.1875 22.3125 43.546875 
Q 18.109375 38.921875 18.109375 30.90625 
L 18.109375 0 
L 9.078125 0 
L 9.078125 54.6875 
L 18.109375 54.6875 
L 18.109375 46.1875 
Q 21.34375 51.125 25.703125 53.5625 
Q 30.078125 56 35.796875 56 
Q 45.21875 56 50.046875 50.171875 
Q 54.890625 44.34375 54.890625 33.015625 
z
" id="DejaVuSans-6e"/>
      <path d="M 8.5 21.578125 
L 8.5 54.6875 
L 17.484375 54.6875 
L 17.484375 21.921875 
Q 17.484375 14.15625 20.5 10.265625 
Q 23.53125 6.390625 29.59375 6.390625 
Q 36.859375 6.390625 41.078125 11.03125 
Q 45.3125 15.671875 45.3125 23.6875 
L 45.3125 54.6875 
L 54.296875 54.6875 
L 54.296875 0 
L 45.3125 0 
L 45.3125 8.40625 
Q 42.046875 3.421875 37.71875 1 
Q 33.40625 -1.421875 27.6875 -1.421875 
Q 18.265625 -1.421875 13.375 4.4375 
Q 8.5 10.296875 8.5 21.578125 
z
M 31.109375 56 
z
" id="DejaVuSans-75"/>
      <path d="M 18.3125 70.21875 
L 18.3125 54.6875 
L 36.8125 54.6875 
L 36.8125 47.703125 
L 18.3125 47.703125 
L 18.3125 18.015625 
Q 18.3125 11.328125 20.140625 9.421875 
Q 21.96875 7.515625 27.59375 7.515625 
L 36.8125 7.515625 
L 36.8125 0 
L 27.59375 0 
Q 17.1875 0 13.234375 3.875 
Q 9.28125 7.765625 9.28125 18.015625 
L 9.28125 47.703125 
L 2.6875 47.703125 
L 2.6875 54.6875 
L 9.28125 54.6875 
L 9.28125 70.21875 
z
" id="DejaVuSans-74"/>
      <path d="M 56.203125 29.59375 
L 56.203125 25.203125 
L 14.890625 25.203125 
Q 15.484375 15.921875 20.484375 11.0625 
Q 25.484375 6.203125 34.421875 6.203125 
Q 39.59375 6.203125 44.453125 7.46875 
Q 49.3125 8.734375 54.109375 11.28125 
L 54.109375 2.78125 
Q 49.265625 0.734375 44.1875 -0.34375 
Q 39.109375 -1.421875 33.890625 -1.421875 
Q 20.796875 -1.421875 13.15625 6.1875 
Q 5.515625 13.8125 5.515625 26.8125 
Q 5.515625 40.234375 12.765625 48.109375 
Q 20.015625 56 32.328125 56 
Q 43.359375 56 49.78125 48.890625 
Q 56.203125 41.796875 56.203125 29.59375 
z
M 47.21875 32.234375 
Q 47.125 39.59375 43.09375 43.984375 
Q 39.0625 48.390625 32.421875 48.390625 
Q 24.90625 48.390625 20.390625 44.140625 
Q 15.875 39.890625 15.1875 32.171875 
z
" id="DejaVuSans-65"/>
      <path id="DejaVuSans-20"/>
      <path d="M 53.515625 70.515625 
L 53.515625 60.890625 
Q 47.90625 63.578125 42.921875 64.890625 
Q 37.9375 66.21875 33.296875 66.21875 
Q 25.25 66.21875 20.875 63.09375 
Q 16.5 59.96875 16.5 54.203125 
Q 16.5 49.359375 19.40625 46.890625 
Q 22.3125 44.4375 30.421875 42.921875 
L 36.375 41.703125 
Q 47.40625 39.59375 52.65625 34.296875 
Q 57.90625 29 57.90625 20.125 
Q 57.90625 9.515625 50.796875 4.046875 
Q 43.703125 -1.421875 29.984375 -1.421875 
Q 24.8125 -1.421875 18.96875 -0.25 
Q 13.140625 0.921875 6.890625 3.21875 
L 6.890625 13.375 
Q 12.890625 10.015625 18.65625 8.296875 
Q 24.421875 6.59375 29.984375 6.59375 
Q 38.421875 6.59375 43.015625 9.90625 
Q 47.609375 13.234375 47.609375 19.390625 
Q 47.609375 24.75 44.3125 27.78125 
Q 41.015625 30.8125 33.5 32.328125 
L 27.484375 33.5 
Q 16.453125 35.6875 11.515625 40.375 
Q 6.59375 45.0625 6.59375 53.421875 
Q 6.59375 63.09375 13.40625 68.65625 
Q 20.21875 74.21875 32.171875 74.21875 
Q 37.3125 74.21875 42.625 73.28125 
Q 47.953125 72.359375 53.515625 70.515625 
z
" id="DejaVuSans-53"/>
      <path d="M 18.109375 8.203125 
L 18.109375 -20.796875 
L 9.078125 -20.796875 
L 9.078125 54.6875 
L 18.109375 54.6875 
L 18.109375 46.390625 
Q 20.953125 51.265625 25.265625 53.625 
Q 29.59375 56 35.59375 56 
Q 45.5625 56 51.78125 48.09375 
Q 58.015625 40.1875 58.015625 27.296875 
Q 58.015625 14.40625 51.78125 6.484375 
Q 45.5625 -1.421875 35.59375 -1.421875 
Q 29.59375 -1.421875 25.265625 0.953125 
Q 20.953125 3.328125 18.109375 8.203125 
z
M 48.6875 27.296875 
Q 48.6875 37.203125 44.609375 42.84375 
Q 40.53125 48.484375 33.40625 48.484375 
Q 26.265625 48.484375 22.1875 42.84375 
Q 18.109375 37.203125 18.109375 27.296875 
Q 18.109375 17.390625 22.1875 11.75 
Q 26.265625 6.109375 33.40625 6.109375 
Q 40.53125 6.109375 44.609375 11.75 
Q 48.6875 17.390625 48.6875 27.296875 
z
" id="DejaVuSans-70"/>
      <path d="M 44.28125 53.078125 
L 44.28125 44.578125 
Q 40.484375 46.53125 36.375 47.5 
Q 32.28125 48.484375 27.875 48.484375 
Q 21.1875 48.484375 17.84375 46.4375 
Q 14.5 44.390625 14.5 40.28125 
Q 14.5 37.15625 16.890625 35.375 
Q 19.28125 33.59375 26.515625 31.984375 
L 29.59375 31.296875 
Q 39.15625 29.25 43.1875 25.515625 
Q 47.21875 21.78125 47.21875 15.09375 
Q 47.21875 7.46875 41.1875 3.015625 
Q 35.15625 -1.421875 24.609375 -1.421875 
Q 20.21875 -1.421875 15.453125 -0.5625 
Q 10.6875 0.296875 5.421875 2 
L 5.421875 11.28125 
Q 10.40625 8.6875 15.234375 7.390625 
Q 20.0625 6.109375 24.8125 6.109375 
Q 31.15625 6.109375 34.5625 8.28125 
Q 37.984375 10.453125 37.984375 14.40625 
Q 37.984375 18.0625 35.515625 20.015625 
Q 33.0625 21.96875 24.703125 23.78125 
L 21.578125 24.515625 
Q 13.234375 26.265625 9.515625 29.90625 
Q 5.8125 33.546875 5.8125 39.890625 
Q 5.8125 47.609375 11.28125 51.796875 
Q 16.75 56 26.8125 56 
Q 31.78125 56 36.171875 55.265625 
Q 40.578125 54.546875 44.28125 53.078125 
z
" id="DejaVuSans-73"/>
     </defs>
     <g transform="translate(683.354687 806.392188)scale(0.2 -0.2)">
      <use xlink:href="#DejaVuSans-31"/>
      <use x="63.623047" xlink:href="#DejaVuSans-35"/>
      <use x="127.246094" xlink:href="#DejaVuSans-2d"/>
      <use x="163.330078" xlink:href="#DejaVuSans-4d"/>
      <use x="249.609375" xlink:href="#DejaVuSans-69"/>
      <use x="277.392578" xlink:href="#DejaVuSans-6e"/>
      <use x="340.771484" xlink:href="#DejaVuSans-75"/>
      <use x="404.150391" xlink:href="#DejaVuSans-74"/>
      <use x="443.359375" xlink:href="#DejaVuSans-65"/>
      <use x="504.882812" xlink:href="#DejaVuSans-20"/>
      <use x="536.669922" xlink:href="#DejaVuSans-53"/>
      <use x="600.146484" xlink:href="#DejaVuSans-74"/>
      <use x="639.355469" xlink:href="#DejaVuSans-65"/>
      <use x="700.878906" xlink:href="#DejaVuSans-70"/>
      <use x="764.355469" xlink:href="#DejaVuSans-73"/>
     </g>
    </g>
   </g>
   <g id="matplotlib.axis_2">
    <g id="ytick_1">
     <g id="line2d_8">
      <defs>
       <path d="M 0 0 
L -3.5 0 
" id="me623d9969f" style="stroke:#000000;stroke-width:0.8;"/>
      </defs>
      <g>
       <use style="stroke:#000000;stroke-width:0.8;" x="104.3" xlink:href="#me623d9969f" y="746.864929"/>
      </g>
     </g>
     <g id="text_9">
      <!-- 0 -->
      <g transform="translate(81.39375 756.362976)scale(0.25 -0.25)">
       <use xlink:href="#DejaVuSans-30"/>
      </g>
     </g>
    </g>
    <g id="ytick_2">
     <g id="line2d_9">
      <g>
       <use style="stroke:#000000;stroke-width:0.8;" x="104.3" xlink:href="#me623d9969f" y="646.81101"/>
      </g>
     </g>
     <g id="text_10">
      <!-- 250 -->
      <g transform="translate(49.58125 656.309057)scale(0.25 -0.25)">
       <use xlink:href="#DejaVuSans-32"/>
       <use x="63.623047" xlink:href="#DejaVuSans-35"/>
       <use x="127.246094" xlink:href="#DejaVuSans-30"/>
      </g>
     </g>
    </g>
    <g id="ytick_3">
     <g id="line2d_10">
      <g>
       <use style="stroke:#000000;stroke-width:0.8;" x="104.3" xlink:href="#me623d9969f" y="546.75709"/>
      </g>
     </g>
     <g id="text_11">
      <!-- 500 -->
      <g transform="translate(49.58125 556.255137)scale(0.25 -0.25)">
       <use xlink:href="#DejaVuSans-35"/>
       <use x="63.623047" xlink:href="#DejaVuSans-30"/>
       <use x="127.246094" xlink:href="#DejaVuSans-30"/>
      </g>
     </g>
    </g>
    <g id="ytick_4">
     <g id="line2d_11">
      <g>
       <use style="stroke:#000000;stroke-width:0.8;" x="104.3" xlink:href="#me623d9969f" y="446.703171"/>
      </g>
     </g>
     <g id="text_12">
      <!-- 750 -->
      <defs>
       <path d="M 8.203125 72.90625 
L 55.078125 72.90625 
L 55.078125 68.703125 
L 28.609375 0 
L 18.3125 0 
L 43.21875 64.59375 
L 8.203125 64.59375 
z
" id="DejaVuSans-37"/>
      </defs>
      <g transform="translate(49.58125 456.201218)scale(0.25 -0.25)">
       <use xlink:href="#DejaVuSans-37"/>
       <use x="63.623047" xlink:href="#DejaVuSans-35"/>
       <use x="127.246094" xlink:href="#DejaVuSans-30"/>
      </g>
     </g>
    </g>
    <g id="ytick_5">
     <g id="line2d_12">
      <g>
       <use style="stroke:#000000;stroke-width:0.8;" x="104.3" xlink:href="#me623d9969f" y="346.649252"/>
      </g>
     </g>
     <g id="text_13">
      <!-- 1000 -->
      <g transform="translate(33.675 356.147299)scale(0.25 -0.25)">
       <use xlink:href="#DejaVuSans-31"/>
       <use x="63.623047" xlink:href="#DejaVuSans-30"/>
       <use x="127.246094" xlink:href="#DejaVuSans-30"/>
       <use x="190.869141" xlink:href="#DejaVuSans-30"/>
      </g>
     </g>
    </g>
    <g id="ytick_6">
     <g id="line2d_13">
      <g>
       <use style="stroke:#000000;stroke-width:0.8;" x="104.3" xlink:href="#me623d9969f" y="246.595333"/>
      </g>
     </g>
     <g id="text_14">
      <!-- 1250 -->
      <g transform="translate(33.675 256.093379)scale(0.25 -0.25)">
       <use xlink:href="#DejaVuSans-31"/>
       <use x="63.623047" xlink:href="#DejaVuSans-32"/>
       <use x="127.246094" xlink:href="#DejaVuSans-35"/>
       <use x="190.869141" xlink:href="#DejaVuSans-30"/>
      </g>
     </g>
    </g>
    <g id="ytick_7">
     <g id="line2d_14">
      <g>
       <use style="stroke:#000000;stroke-width:0.8;" x="104.3" xlink:href="#me623d9969f" y="146.541413"/>
      </g>
     </g>
     <g id="text_15">
      <!-- 1500 -->
      <g transform="translate(33.675 156.03946)scale(0.25 -0.25)">
       <use xlink:href="#DejaVuSans-31"/>
       <use x="63.623047" xlink:href="#DejaVuSans-35"/>
       <use x="127.246094" xlink:href="#DejaVuSans-30"/>
       <use x="190.869141" xlink:href="#DejaVuSans-30"/>
      </g>
     </g>
    </g>
    <g id="ytick_8">
     <g id="line2d_15">
      <g>
       <use style="stroke:#000000;stroke-width:0.8;" x="104.3" xlink:href="#me623d9969f" y="46.487494"/>
      </g>
     </g>
     <g id="text_16">
      <!-- 1750 -->
      <g transform="translate(33.675 55.985541)scale(0.25 -0.25)">
       <use xlink:href="#DejaVuSans-31"/>
       <use x="63.623047" xlink:href="#DejaVuSans-37"/>
       <use x="127.246094" xlink:href="#DejaVuSans-35"/>
       <use x="190.869141" xlink:href="#DejaVuSans-30"/>
      </g>
     </g>
    </g>
    <g id="text_17">
     <!-- Bandwidth (kbps) -->
     <defs>
      <path d="M 19.671875 34.8125 
L 19.671875 8.109375 
L 35.5 8.109375 
Q 43.453125 8.109375 47.28125 11.40625 
Q 51.125 14.703125 51.125 21.484375 
Q 51.125 28.328125 47.28125 31.5625 
Q 43.453125 34.8125 35.5 34.8125 
z
M 19.671875 64.796875 
L 19.671875 42.828125 
L 34.28125 42.828125 
Q 41.5 42.828125 45.03125 45.53125 
Q 48.578125 48.25 48.578125 53.8125 
Q 48.578125 59.328125 45.03125 62.0625 
Q 41.5 64.796875 34.28125 64.796875 
z
M 9.8125 72.90625 
L 35.015625 72.90625 
Q 46.296875 72.90625 52.390625 68.21875 
Q 58.5 63.53125 58.5 54.890625 
Q 58.5 48.1875 55.375 44.234375 
Q 52.25 40.28125 46.1875 39.3125 
Q 53.46875 37.75 57.5 32.78125 
Q 61.53125 27.828125 61.53125 20.40625 
Q 61.53125 10.640625 54.890625 5.3125 
Q 48.25 0 35.984375 0 
L 9.8125 0 
z
" id="DejaVuSans-42"/>
      <path d="M 34.28125 27.484375 
Q 23.390625 27.484375 19.1875 25 
Q 14.984375 22.515625 14.984375 16.5 
Q 14.984375 11.71875 18.140625 8.90625 
Q 21.296875 6.109375 26.703125 6.109375 
Q 34.1875 6.109375 38.703125 11.40625 
Q 43.21875 16.703125 43.21875 25.484375 
L 43.21875 27.484375 
z
M 52.203125 31.203125 
L 52.203125 0 
L 43.21875 0 
L 43.21875 8.296875 
Q 40.140625 3.328125 35.546875 0.953125 
Q 30.953125 -1.421875 24.3125 -1.421875 
Q 15.921875 -1.421875 10.953125 3.296875 
Q 6 8.015625 6 15.921875 
Q 6 25.140625 12.171875 29.828125 
Q 18.359375 34.515625 30.609375 34.515625 
L 43.21875 34.515625 
L 43.21875 35.40625 
Q 43.21875 41.609375 39.140625 45 
Q 35.0625 48.390625 27.6875 48.390625 
Q 23 48.390625 18.546875 47.265625 
Q 14.109375 46.140625 10.015625 43.890625 
L 10.015625 52.203125 
Q 14.9375 54.109375 19.578125 55.046875 
Q 24.21875 56 28.609375 56 
Q 40.484375 56 46.34375 49.84375 
Q 52.203125 43.703125 52.203125 31.203125 
z
" id="DejaVuSans-61"/>
      <path d="M 45.40625 46.390625 
L 45.40625 75.984375 
L 54.390625 75.984375 
L 54.390625 0 
L 45.40625 0 
L 45.40625 8.203125 
Q 42.578125 3.328125 38.25 0.953125 
Q 33.9375 -1.421875 27.875 -1.421875 
Q 17.96875 -1.421875 11.734375 6.484375 
Q 5.515625 14.40625 5.515625 27.296875 
Q 5.515625 40.1875 11.734375 48.09375 
Q 17.96875 56 27.875 56 
Q 33.9375 56 38.25 53.625 
Q 42.578125 51.265625 45.40625 46.390625 
z
M 14.796875 27.296875 
Q 14.796875 17.390625 18.875 11.75 
Q 22.953125 6.109375 30.078125 6.109375 
Q 37.203125 6.109375 41.296875 11.75 
Q 45.40625 17.390625 45.40625 27.296875 
Q 45.40625 37.203125 41.296875 42.84375 
Q 37.203125 48.484375 30.078125 48.484375 
Q 22.953125 48.484375 18.875 42.84375 
Q 14.796875 37.203125 14.796875 27.296875 
z
" id="DejaVuSans-64"/>
      <path d="M 4.203125 54.6875 
L 13.1875 54.6875 
L 24.421875 12.015625 
L 35.59375 54.6875 
L 46.1875 54.6875 
L 57.421875 12.015625 
L 68.609375 54.6875 
L 77.59375 54.6875 
L 63.28125 0 
L 52.6875 0 
L 40.921875 44.828125 
L 29.109375 0 
L 18.5 0 
z
" id="DejaVuSans-77"/>
      <path d="M 54.890625 33.015625 
L 54.890625 0 
L 45.90625 0 
L 45.90625 32.71875 
Q 45.90625 40.484375 42.875 44.328125 
Q 39.84375 48.1875 33.796875 48.1875 
Q 26.515625 48.1875 22.3125 43.546875 
Q 18.109375 38.921875 18.109375 30.90625 
L 18.109375 0 
L 9.078125 0 
L 9.078125 75.984375 
L 18.109375 75.984375 
L 18.109375 46.1875 
Q 21.34375 51.125 25.703125 53.5625 
Q 30.078125 56 35.796875 56 
Q 45.21875 56 50.046875 50.171875 
Q 54.890625 44.34375 54.890625 33.015625 
z
" id="DejaVuSans-68"/>
      <path d="M 31 75.875 
Q 24.46875 64.65625 21.28125 53.65625 
Q 18.109375 42.671875 18.109375 31.390625 
Q 18.109375 20.125 21.3125 9.0625 
Q 24.515625 -2 31 -13.1875 
L 23.1875 -13.1875 
Q 15.875 -1.703125 12.234375 9.375 
Q 8.59375 20.453125 8.59375 31.390625 
Q 8.59375 42.28125 12.203125 53.3125 
Q 15.828125 64.359375 23.1875 75.875 
z
" id="DejaVuSans-28"/>
      <path d="M 9.078125 75.984375 
L 18.109375 75.984375 
L 18.109375 31.109375 
L 44.921875 54.6875 
L 56.390625 54.6875 
L 27.390625 29.109375 
L 57.625 0 
L 45.90625 0 
L 18.109375 26.703125 
L 18.109375 0 
L 9.078125 0 
z
" id="DejaVuSans-6b"/>
      <path d="M 48.6875 27.296875 
Q 48.6875 37.203125 44.609375 42.84375 
Q 40.53125 48.484375 33.40625 48.484375 
Q 26.265625 48.484375 22.1875 42.84375 
Q 18.109375 37.203125 18.109375 27.296875 
Q 18.109375 17.390625 22.1875 11.75 
Q 26.265625 6.109375 33.40625 6.109375 
Q 40.53125 6.109375 44.609375 11.75 
Q 48.6875 17.390625 48.6875 27.296875 
z
M 18.109375 46.390625 
Q 20.953125 51.265625 25.265625 53.625 
Q 29.59375 56 35.59375 56 
Q 45.5625 56 51.78125 48.09375 
Q 58.015625 40.1875 58.015625 27.296875 
Q 58.015625 14.40625 51.78125 6.484375 
Q 45.5625 -1.421875 35.59375 -1.421875 
Q 29.59375 -1.421875 25.265625 0.953125 
Q 20.953125 3.328125 18.109375 8.203125 
L 18.109375 0 
L 9.078125 0 
L 9.078125 75.984375 
L 18.109375 75.984375 
z
" id="DejaVuSans-62"/>
      <path d="M 8.015625 75.875 
L 15.828125 75.875 
Q 23.140625 64.359375 26.78125 53.3125 
Q 30.421875 42.28125 30.421875 31.390625 
Q 30.421875 20.453125 26.78125 9.375 
Q 23.140625 -1.703125 15.828125 -13.1875 
L 8.015625 -13.1875 
Q 14.5 -2 17.703125 9.0625 
Q 20.90625 20.125 20.90625 31.390625 
Q 20.90625 42.671875 17.703125 53.65625 
Q 14.5 64.65625 8.015625 75.875 
z
" id="DejaVuSans-29"/>
     </defs>
     <g transform="translate(25.515625 473.065625)rotate(-90)scale(0.2 -0.2)">
      <use xlink:href="#DejaVuSans-42"/>
      <use x="68.603516" xlink:href="#DejaVuSans-61"/>
      <use x="129.882812" xlink:href="#DejaVuSans-6e"/>
      <use x="193.261719" xlink:href="#DejaVuSans-64"/>
      <use x="256.738281" xlink:href="#DejaVuSans-77"/>
      <use x="338.525391" xlink:href="#DejaVuSans-69"/>
      <use x="366.308594" xlink:href="#DejaVuSans-64"/>
      <use x="429.785156" xlink:href="#DejaVuSans-74"/>
      <use x="468.994141" xlink:href="#DejaVuSans-68"/>
      <use x="532.373047" xlink:href="#DejaVuSans-20"/>
      <use x="564.160156" xlink:href="#DejaVuSans-28"/>
      <use x="603.173828" xlink:href="#DejaVuSans-6b"/>
      <use x="661.083984" xlink:href="#DejaVuSans-62"/>
      <use x="724.560547" xlink:href="#DejaVuSans-70"/>
      <use x="788.037109" xlink:href="#DejaVuSans-73"/>
      <use x="840.136719" xlink:href="#DejaVuSans-29"/>
     </g>
    </g>
   </g>
   <g id="line2d_16">
    <path clip-path="url(#p814407575c)" d="M 164.363636 625.914429 
L 165.365532 653.76944 
L 166.367427 657.060093 
L 167.369323 663.114916 
L 168.371218 662.478133 
L 169.373114 676.099674 
L 170.375009 653.737422 
L 171.376905 640.27949 
L 172.378801 675.171173 
L 173.380696 650.695783 
L 174.382592 674.822545 
L 175.384487 688.19155 
L 176.386383 658.941987 
L 177.388278 679.938182 
L 178.390174 692.987014 
L 179.392069 681.738272 
L 180.393965 673.460051 
L 181.39586 680.592775 
L 182.397756 697.124364 
L 183.399651 612.342675 
L 184.401547 616.031743 
L 185.403442 637.949354 
L 186.405338 580.090614 
L 187.407233 507.47192 
L 188.409129 582.225084 
L 189.411024 410.267536 
L 190.41292 641.513915 
L 191.414815 553.914708 
L 193.418606 671.524768 
L 194.420502 650.934112 
L 195.422397 649.934453 
L 196.424293 666.067627 
L 197.426188 660.699374 
L 198.428084 679.635819 
L 199.42998 617.693078 
L 200.431875 417.677769 
L 201.433771 607.042018 
L 202.435666 659.141215 
L 203.437562 566.639805 
L 204.439457 460.648446 
L 205.441353 552.271182 
L 206.443248 617.337366 
L 207.445144 606.405235 
L 208.447039 661.617229 
L 209.448935 482.359707 
L 210.45083 520.534959 
L 211.452726 592.634254 
L 212.454621 648.16642 
L 213.456517 400.701501 
L 214.458412 630.862855 
L 215.460308 644.605381 
L 216.462203 635.683253 
L 217.464099 563.08589 
L 218.465994 665.797242 
L 219.46789 556.92433 
L 220.469785 420.417005 
L 221.471681 580.595766 
L 222.473576 646.021264 
L 223.475472 556.967033 
L 224.477368 663.47423 
L 225.479263 595.775507 
L 226.481159 691.325679 
L 227.483054 596.846324 
L 228.48495 659.571647 
L 229.486845 675.473576 
L 230.488741 588.874027 
L 231.490636 587.354969 
L 232.492532 654.100258 
L 233.494427 491.893764 
L 234.496323 635.97493 
L 235.498218 660.286712 
L 236.500114 643.491901 
L 237.502009 620.841455 
L 238.503905 622.33558 
L 239.5058 646.220452 
L 240.507696 542.922144 
L 241.509591 654.886482 
L 242.511487 466.532537 
L 243.513382 597.294565 
L 244.515278 647.173885 
L 245.517173 558.425619 
L 246.519069 675.445121 
L 247.520964 653.527509 
L 248.52286 559.475064 
L 249.524755 662.378519 
L 250.526651 559.677813 
L 251.528547 631.93011 
L 252.530442 550.972682 
L 253.532338 533.857699 
L 254.534233 661.069374 
L 255.536129 670.984037 
L 256.538024 665.889731 
L 257.53992 597.888645 
L 258.541815 671.492751 
L 259.543711 651.442826 
L 260.545606 661.602981 
L 261.547502 688.52593 
L 262.549397 661.06225 
L 263.551293 440.178775 
L 264.553188 527.685493 
L 265.555084 510.438838 
L 266.556979 587.714282 
L 267.558875 540.798319 
L 268.56077 593.861595 
L 269.562666 513.939405 
L 270.564561 540.901495 
L 271.566457 602.655654 
L 272.568352 638.568328 
L 273.570248 701.834422 
L 274.572143 651.595828 
L 275.574039 551.662854 
L 276.575934 674.424131 
L 277.57783 656.035541 
L 278.579726 572.826259 
L 279.581621 650.041191 
L 280.583517 523.224409 
L 281.585412 654.541416 
L 282.587308 429.559692 
L 283.589203 520.559853 
L 284.591099 674.751387 
L 285.592994 630.731224 
L 286.59489 632.723418 
L 287.596785 653.929526 
L 288.598681 583.712126 
L 289.600576 541.580981 
L 290.602472 557.763902 
L 291.604367 630.645858 
L 292.606263 620.7027 
L 293.608158 600.795092 
L 294.610054 669.678453 
L 295.611949 658.155804 
L 296.613845 662.029891 
L 297.61574 626.540526 
L 298.617636 662.382081 
L 299.619531 644.299416 
L 300.621427 663.776593 
L 301.623322 679.664274 
L 302.625218 572.459822 
L 303.627114 672.243395 
L 304.629009 530.623956 
L 305.630905 567.493585 
L 306.6328 647.547407 
L 307.634696 662.296675 
L 308.636591 519.926631 
L 309.638487 539.812908 
L 310.640382 597.269632 
L 311.642278 419.374684 
L 312.644173 576.323264 
L 313.646069 597.070444 
L 314.647964 647.227234 
L 315.64986 615.266891 
L 316.651755 543.206737 
L 317.653651 578.628506 
L 319.657442 665.594452 
L 320.659337 602.545395 
L 321.661233 596.120573 
L 322.663128 626.444474 
L 323.665024 660.72783 
L 324.666919 583.51646 
L 325.668815 594.886147 
L 326.67071 522.082473 
L 327.672606 653.712489 
L 328.674501 513.384426 
L 329.676397 578.404385 
L 330.678293 568.859682 
L 331.680188 656.195627 
L 332.682084 672.286058 
L 333.683979 598.678391 
L 334.685875 652.538536 
L 335.68777 585.021271 
L 336.689666 584.839853 
L 337.691561 492.736859 
L 340.697248 636.625961 
L 341.699143 655.722492 
L 342.701039 682.399949 
L 343.702934 681.702693 
L 344.70483 633.854708 
L 345.706725 618.184023 
L 346.708621 584.210154 
L 347.710516 545.985114 
L 348.712412 573.306518 
L 349.714307 675.110701 
L 350.716203 607.269701 
L 351.718098 355.297472 
L 352.719994 593.377774 
L 353.721889 462.516133 
L 354.723785 579.169237 
L 355.72568 463.405492 
L 356.727576 620.692054 
L 357.729472 637.337464 
L 358.731367 590.677639 
L 359.733263 636.497892 
L 360.735158 654.872234 
L 361.737054 667.76098 
L 362.738949 683.616604 
L 363.740845 677.647187 
L 364.74274 669.689099 
L 365.744636 696.231403 
L 366.746531 643.353146 
L 367.748427 626.209668 
L 368.750322 679.85994 
L 369.752218 670.962705 
L 370.754113 642.894219 
L 371.756009 695.256677 
L 372.757904 624.918332 
L 373.7598 675.861345 
L 374.761695 698.511751 
L 375.763591 605.458965 
L 376.765486 678.433371 
L 377.767382 686.989102 
L 378.769277 643.808512 
L 379.771173 643.783618 
L 380.773068 599.379209 
L 381.774964 586.629258 
L 382.77686 675.459328 
L 383.778755 657.814259 
L 384.780651 657.077863 
L 385.782546 682.976259 
L 386.784442 680.578527 
L 387.786337 689.97383 
L 388.788233 556.750036 
L 389.790128 700.514631 
L 390.792024 666.960548 
L 391.793919 663.203844 
L 392.795815 654.395537 
L 393.79771 669.511243 
L 394.799606 697.974582 
L 395.801501 449.851548 
L 396.803397 402.594081 
L 397.805292 345.738521 
L 398.807188 477.112439 
L 399.809083 475.009986 
L 400.810979 444.710978 
L 401.812874 487.788432 
L 402.81477 384.806695 
L 403.816665 456.304785 
L 404.818561 456.045086 
L 405.820456 476.077241 
L 406.822352 646.21693 
L 407.824247 683.6451 
L 408.826143 665.679858 
L 409.828039 669.230212 
L 410.829934 684.200039 
L 411.83183 664.911444 
L 412.833725 665.7581 
L 413.835621 594.26001 
L 414.837516 711.983892 
L 415.839412 709.205514 
L 416.841307 663.410195 
L 417.843203 690.955679 
L 418.845098 684.705191 
L 419.846994 647.472686 
L 420.848889 686.28116 
L 421.850785 614.555387 
L 422.85268 696.76505 
L 423.854576 684.491756 
L 424.856471 681.279345 
L 425.858367 660.091046 
L 426.860262 646.992428 
L 427.862158 690.461213 
L 428.864053 685.33489 
L 429.865949 582.118387 
L 430.867844 662.414098 
L 431.86974 693.132853 
L 432.871635 553.630114 
L 433.873531 702.069229 
L 434.875426 603.794068 
L 435.877322 705.761899 
L 436.879218 685.77957 
L 437.881113 595.953362 
L 438.883009 700.098406 
L 439.884904 666.469604 
L 440.8868 694.641226 
L 442.890591 639.244252 
L 443.892486 685.416694 
L 444.894382 681.350503 
L 445.896277 682.279004 
L 446.898173 642.759066 
L 447.900068 674.45967 
L 448.901964 702.318243 
L 449.903859 684.74077 
L 450.905755 531.065074 
L 451.90765 674.082586 
L 452.909546 691.140659 
L 453.911441 689.689237 
L 454.913337 678.935001 
L 455.915232 680.443374 
L 456.917128 626.327091 
L 457.919023 672.677389 
L 458.920919 691.695638 
L 459.922814 677.761009 
L 460.92471 691.873534 
L 461.926606 679.052385 
L 462.928501 695.918354 
L 463.930397 692.286196 
L 464.932292 677.252295 
L 465.934188 625.829023 
L 466.936083 675.637224 
L 467.937979 694.651911 
L 468.939874 680.197882 
L 469.94177 686.583563 
L 470.943665 685.772446 
L 471.945561 674.520182 
L 472.947456 707.946196 
L 473.949352 629.247785 
L 474.951247 623.224979 
L 475.953143 676.804053 
L 476.955038 687.330606 
L 477.956934 607.251931 
L 478.958829 662.702254 
L 479.960725 691.279414 
L 480.96262 671.279316 
L 481.964516 686.451932 
L 482.966411 722.286364 
L 483.968307 652.531413 
L 484.970202 654.260344 
L 485.972098 697.380502 
L 486.973993 684.868839 
L 487.975889 701.350641 
L 488.977785 709.632424 
L 489.97968 679.913289 
L 490.981576 670.774164 
L 491.983471 684.947121 
L 492.985367 669.938153 
L 493.987262 663.612944 
L 494.989158 691.845039 
L 495.991053 675.363277 
L 496.992949 691.901989 
L 497.994844 698.678962 
L 498.99674 493.494627 
L 499.998635 658.888638 
L 501.000531 652.698623 
L 502.002426 652.129436 
L 503.004322 629.318903 
L 504.006217 684.662528 
L 505.008113 697.02475 
L 506.010008 644.249629 
L 507.011904 649.596511 
L 508.013799 580.58508 
L 509.015695 595.149409 
L 510.01759 694.840453 
L 511.019486 669.45077 
L 512.021381 669.532574 
L 513.023277 525.999224 
L 514.025172 671.688416 
L 515.027068 626.19546 
L 516.028964 552.705176 
L 517.030859 656.394855 
L 518.032755 424.810493 
L 519.03465 427.599556 
L 520.036546 553.747538 
L 521.038441 529.755928 
L 522.040337 551.235944 
L 523.042232 597.26607 
L 524.044128 592.104208 
L 525.046023 664.121659 
L 526.047919 698.664714 
L 528.05171 614.711952 
L 529.053605 668.216305 
L 530.055501 684.338794 
L 531.057396 614.462897 
L 532.059292 686.508843 
L 533.061187 643.509671 
L 534.063083 693.823025 
L 535.064978 654.10382 
L 536.066874 643.516795 
L 537.068769 654.719272 
L 538.070665 652.687937 
L 539.07256 571.499304 
L 540.074456 660.603322 
L 541.076352 657.063655 
L 542.078247 696.110457 
L 543.080143 659.023831 
L 544.082038 675.608769 
L 545.083934 648.013418 
L 546.085829 650.706429 
L 547.087725 630.478648 
L 548.08962 667.945959 
L 549.091516 690.792031 
L 550.093411 708.330403 
L 551.095307 668.892229 
L 552.097202 655.565968 
L 553.099098 616.010411 
L 554.100993 672.392796 
L 555.102889 675.38817 
L 556.104784 674.427652 
L 557.10668 681.5675 
L 558.108575 682.307459 
L 559.110471 586.426468 
L 560.112366 655.999962 
L 561.114262 685.598152 
L 562.116157 632.314317 
L 563.118053 654.413347 
L 564.119948 632.239597 
L 565.121844 693.68427 
L 566.123739 707.071044 
L 567.125635 695.943247 
L 568.127531 702.204421 
L 569.129426 680.930717 
L 570.131322 683.673555 
L 571.133217 670.510902 
L 572.135113 629.101906 
L 573.137008 656.199189 
L 574.138904 644.722764 
L 575.140799 618.571792 
L 576.142695 651.819949 
L 577.14459 670.528671 
L 578.146486 666.697287 
L 579.148381 687.604554 
L 580.150277 684.150252 
L 581.152172 689.251641 
L 582.154068 698.287631 
L 583.155963 669.329825 
L 584.157859 673.250138 
L 585.159754 580.951518 
L 586.16165 666.821794 
L 587.163545 670.055536 
L 588.165441 602.74102 
L 589.167336 701.332832 
L 590.169232 701.169184 
L 591.171127 701.286607 
L 592.173023 673.748206 
L 593.174918 667.191753 
L 594.176814 634.167756 
L 595.17871 664.306678 
L 596.180605 710.938008 
L 597.182501 659.653491 
L 598.184396 681.236682 
L 599.186292 660.827443 
L 600.188187 633.420674 
L 601.190083 597.625384 
L 602.191978 663.844189 
L 603.193874 443.551233 
L 604.195769 685.672833 
L 605.197665 666.87158 
L 606.19956 628.447354 
L 607.201456 428.044236 
L 608.203351 463.056864 
L 609.205247 650.357801 
L 610.207142 672.908634 
L 611.209038 653.609353 
L 612.210933 669.596609 
L 613.212829 667.42656 
L 614.214724 529.916015 
L 615.21662 634.487929 
L 616.218515 534.960493 
L 617.220411 502.448773 
L 618.222306 526.671586 
L 619.224202 570.969258 
L 620.226098 625.651167 
L 621.227993 485.91006 
L 622.229889 693.029677 
L 623.231784 685.384677 
L 624.23368 690.43628 
L 625.235575 610.610181 
L 626.237471 664.356465 
L 627.239366 648.248224 
L 628.241262 667.942398 
L 629.243157 635.007329 
L 630.245053 645.384481 
L 631.246948 649.987842 
L 632.248844 656.551379 
L 633.250739 658.977566 
L 634.252635 642.239666 
L 635.25453 635.701023 
L 636.256426 673.470697 
L 637.258321 673.666362 
L 638.260217 670.621161 
L 639.262112 632.723418 
L 640.264008 672.083309 
L 641.265903 581.823108 
L 642.267799 616.195391 
L 643.269694 676.117483 
L 644.27159 689.514903 
L 645.273485 621.627678 
L 646.275381 659.09495 
L 647.277277 666.512307 
L 648.279172 659.155422 
L 649.281068 711.645949 
L 650.282963 680.962734 
L 651.284859 686.836139 
L 652.286754 642.798167 
L 653.28865 676.551477 
L 654.290545 642.887135 
L 655.292441 694.52028 
L 656.294336 647.55453 
L 657.296232 685.76176 
L 658.298127 677.807274 
L 659.300023 635.857547 
L 660.301918 582.121909 
L 661.303814 655.345369 
L 662.305709 676.597742 
L 663.307605 561.99018 
L 664.3095 661.602981 
L 665.311396 672.21494 
L 666.313291 666.074711 
L 667.315187 583.167832 
L 668.317082 687.593868 
L 669.318978 674.907911 
L 670.320873 643.506109 
L 671.322769 639.788545 
L 672.324664 529.819963 
L 673.32656 704.118333 
L 674.328456 670.720775 
L 675.330351 672.090393 
L 676.332247 645.171006 
L 677.334142 608.970177 
L 678.336038 662.951268 
L 679.337933 676.725811 
L 680.339829 657.526104 
L 681.341724 625.398591 
L 682.34362 619.763554 
L 683.345515 658.081083 
L 684.347411 640.816659 
L 685.349306 654.722833 
L 686.351202 677.682767 
L 687.353097 662.314485 
L 688.354993 636.295103 
L 689.356888 654.594764 
L 690.358784 629.688903 
L 691.360679 586.330417 
L 692.362575 633.185907 
L 693.36447 630.734786 
L 694.366366 476.596601 
L 695.368261 262.892115 
L 696.370157 230.042412 
L 697.372052 259.203007 
L 698.373948 299.203243 
L 699.375844 237.843936 
L 700.377739 684.975577 
L 701.379635 676.487442 
L 702.38153 606.43369 
L 703.383426 648.038351 
L 704.385321 527.279914 
L 705.387217 563.722673 
L 706.389112 524.345013 
L 707.391008 582.200191 
L 708.392903 604.640724 
L 709.394799 563.100138 
L 710.396694 462.391626 
L 711.39859 625.330994 
L 712.400485 515.67546 
L 713.402381 512.989573 
L 714.404276 688.846103 
L 715.406172 640.930521 
L 716.408067 606.839229 
L 718.411858 505.390798 
L 719.413754 600.923161 
L 720.415649 664.374235 
L 721.417545 647.010237 
L 722.41944 657.487003 
L 723.421336 639.005924 
L 724.423231 597.774824 
L 725.425127 646.981782 
L 726.427023 663.79084 
L 727.428918 640.884256 
L 728.430814 665.662049 
L 729.432709 686.569316 
L 730.434605 621.851799 
L 731.4365 576.50112 
L 732.438396 666.081835 
L 733.440291 694.552298 
L 735.444082 666.426901 
L 736.445978 686.210002 
L 737.447873 651.058619 
L 738.449769 634.470119 
L 739.451664 651.385915 
L 740.45356 645.996331 
L 741.455455 715.626775 
L 742.457351 665.985783 
L 743.459246 648.404749 
L 744.461142 670.24764 
L 745.463037 654.491589 
L 746.464933 681.421662 
L 747.466828 649.543162 
L 748.468724 681.112175 
L 749.470619 634.651577 
L 750.472515 660.870146 
L 751.47441 596.540359 
L 752.476306 638.365579 
L 753.478202 638.586137 
L 754.480097 506.262388 
L 755.481993 679.119981 
L 756.483888 610.183271 
L 757.485784 624.857859 
L 758.487679 604.256517 
L 759.489575 667.024583 
L 760.49147 603.299561 
L 761.493366 621.737938 
L 762.495261 662.908565 
L 763.497157 678.65393 
L 764.499052 651.389477 
L 765.500948 663.918909 
L 766.502843 645.149674 
L 767.504739 579.645934 
L 768.506634 682.77351 
L 769.50853 641.83765 
L 770.510425 658.3728 
L 771.512321 676.85388 
L 772.514216 678.387146 
L 773.516112 681.169085 
L 774.518007 628.550489 
L 775.519903 680.486037 
L 776.521798 668.710812 
L 778.52559 629.254869 
L 779.527485 620.68493 
L 780.529381 667.540421 
L 781.531276 688.141723 
L 782.533172 649.767283 
L 783.535067 681.869903 
L 784.536963 640.535628 
L 785.538858 679.212471 
L 786.540754 631.090538 
L 787.542649 691.236711 
L 788.544545 632.246721 
L 789.54644 650.781149 
L 790.548336 640.386227 
L 791.550231 438.83405 
L 792.552127 375.361605 
L 794.555918 382.191966 
L 795.557813 486.351218 
L 796.559709 704.193053 
L 797.561604 644.857957 
L 798.5635 680.237023 
L 799.565395 636.657978 
L 800.567291 624.096529 
L 801.569186 651.375229 
L 802.571082 369.096909 
L 803.572977 421.42731 
L 804.574873 347.791187 
L 805.576769 352.262957 
L 806.578664 377.784271 
L 807.58056 513.718846 
L 808.582455 598.710408 
L 809.584351 564.665421 
L 810.586246 586.202348 
L 811.588142 516.205506 
L 812.590037 48.013636 
L 813.591933 374.618084 
L 814.593828 471.242636 
L 815.595724 319.640937 
L 816.597619 414.682355 
L 817.599515 366.062394 
L 818.60141 356.133483 
L 819.603306 394.401226 
L 820.605201 405.159023 
L 821.607097 431.523431 
L 822.608992 505.600671 
L 823.610888 387.396531 
L 824.612783 305.083732 
L 825.614679 365.809818 
L 826.616574 293.785203 
L 827.61847 358.659284 
L 828.620365 401.900347 
L 829.622261 302.728703 
L 830.624156 515.469109 
L 831.626052 628.401089 
L 832.627948 672.709406 
L 833.629843 665.985783 
L 834.631739 567.792426 
L 835.633634 690.948556 
L 836.63553 656.889321 
L 837.637425 664.886511 
L 838.639321 662.001436 
L 839.641216 661.47135 
L 841.645007 630.941137 
L 842.646903 644.377698 
L 843.648798 639.898845 
L 844.650694 641.617091 
L 845.652589 664.537883 
L 846.654485 630.585386 
L 847.65638 588.354627 
L 848.658276 649.013076 
L 849.660171 679.059509 
L 850.662067 591.350002 
L 851.663962 620.339864 
L 852.665858 622.50279 
L 853.667753 649.397284 
L 854.669649 624.516315 
L 855.671544 619.816903 
L 856.67344 623.975584 
L 857.675336 650.589046 
L 858.677231 637.212957 
L 859.679127 652.296646 
L 860.681022 678.30174 
L 861.682918 676.153062 
L 862.684813 673.356875 
L 864.688604 604.413041 
L 865.6905 671.738203 
L 866.692395 667.903256 
L 867.694291 670.244078 
L 868.696186 669.977254 
L 869.698082 652.791112 
L 870.699977 661.072936 
L 871.701873 551.492082 
L 872.703768 653.381671 
L 874.707559 680.489599 
L 875.709455 666.402007 
L 876.71135 689.742586 
L 877.713246 661.851995 
L 878.715141 658.394132 
L 879.717037 659.777998 
L 880.718932 696.000198 
L 881.720828 581.414007 
L 882.722723 625.836146 
L 883.724619 655.935927 
L 884.726515 597.977573 
L 885.72841 627.533061 
L 886.730306 637.362358 
L 887.732201 636.743344 
L 888.734097 622.086566 
L 889.735992 631.254186 
L 890.737888 590.649184 
L 891.739783 664.843848 
L 892.741679 672.983354 
L 893.743574 668.714374 
L 894.74547 632.435263 
L 895.747365 690.496792 
L 896.749261 638.31219 
L 897.751156 653.84412 
L 898.753052 603.968362 
L 899.754947 639.397254 
L 900.756843 501.790618 
L 901.758738 586.860462 
L 902.760634 578.621382 
L 903.762529 585.604706 
L 904.764425 641.869667 
L 906.768216 705.54134 
L 907.770111 540.905057 
L 908.772007 627.917268 
L 909.773902 638.209054 
L 910.775798 521.979298 
L 911.777694 567.803112 
L 912.779589 661.140492 
L 913.781485 664.434747 
L 914.78338 659.842032 
L 915.785276 678.703757 
L 916.787171 656.298803 
L 917.789067 666.074711 
L 918.790962 667.778749 
L 919.792858 622.684248 
L 920.794753 607.106053 
L 921.796649 557.465101 
L 923.80044 679.351226 
L 924.802335 672.278975 
L 925.804231 640.154983 
L 926.806126 638.860045 
L 927.808022 628.369071 
L 928.809917 691.752549 
L 929.811813 630.379035 
L 930.813708 674.264044 
L 931.815604 628.322806 
L 932.817499 606.070815 
L 933.819395 570.357369 
L 934.82129 662.471009 
L 935.823186 691.183362 
L 936.825082 602.716127 
L 937.826977 628.525596 
L 938.828873 584.064315 
L 939.830768 619.75643 
L 940.832664 670.453991 
L 941.834559 593.363527 
L 942.836455 657.711124 
L 943.83835 613.74431 
L 944.840246 610.55323 
L 945.842141 616.665004 
L 946.844037 662.332254 
L 947.845932 659.93096 
L 948.847828 636.046089 
L 949.849723 648.756938 
L 950.851619 665.811489 
L 951.853514 676.202849 
L 952.85541 655.612193 
L 953.857305 650.421836 
L 954.859201 698.24849 
L 955.861096 628.155636 
L 956.862992 653.406564 
L 957.864887 648.59329 
L 958.866783 684.495318 
L 959.868678 647.095603 
L 960.870574 643.769371 
L 961.872469 632.72698 
L 962.874365 648.863676 
L 963.876261 690.123231 
L 964.878156 596.732462 
L 964.878156 596.732462 
" style="fill:none;stroke:#1f77b4;stroke-linecap:square;stroke-width:1.5;"/>
   </g>
   <g id="line2d_17">
    <path clip-path="url(#p814407575c)" d="M 965.880052 680.144533 
L 966.881947 666.160117 
L 967.883843 689.682113 
L 968.885738 667.369649 
L 969.887634 666.405569 
L 970.889529 662.876548 
L 971.891425 652.086733 
L 972.89332 656.209835 
L 973.895216 669.201756 
L 974.897111 668.404887 
L 975.899007 658.803232 
L 976.900902 647.074272 
L 977.902798 639.42571 
L 978.904693 650.240418 
L 979.906589 629.937917 
L 980.908484 658.639624 
L 981.91038 652.271713 
L 982.912275 675.502031 
L 983.914171 657.583055 
L 984.916066 682.787718 
L 985.917962 647.148952 
L 986.919857 646.224013 
L 987.921753 637.992017 
L 988.923648 684.936436 
L 989.925544 679.970199 
L 990.92744 630.137144 
L 991.929335 632.004791 
L 992.931231 668.685918 
L 993.933126 643.627054 
L 994.935022 675.40598 
L 995.936917 643.691088 
L 996.938813 679.938182 
L 997.940708 667.540421 
L 998.942604 671.172578 
L 999.944499 671.19391 
L 1000.946395 630.29723 
L 1001.94829 637.839055 
L 1002.950186 661.631437 
L 1003.952081 658.636062 
L 1004.953977 588.251452 
L 1005.955872 680.870244 
L 1006.957768 645.078516 
L 1007.959663 574.050039 
L 1008.961559 649.809946 
L 1009.963454 621.190083 
L 1010.96535 647.817792 
L 1011.967245 636.497892 
L 1012.969141 689.144944 
L 1013.971036 653.23223 
L 1014.972932 682.015742 
L 1015.974828 667.117073 
L 1016.976723 665.420158 
L 1017.978619 696.907327 
L 1018.980514 664.06831 
L 1019.98241 635.39862 
L 1020.984305 664.562816 
L 1021.986201 620.724071 
L 1022.988096 638.582575 
L 1023.989992 578.137561 
L 1024.991887 638.788927 
L 1025.993783 646.71852 
L 1026.995678 612.70551 
L 1027.997574 655.88614 
L 1028.999469 635.206516 
L 1030.001365 642.620311 
L 1031.00326 664.054062 
L 1032.005156 674.164431 
L 1033.007051 692.894524 
L 1034.008947 654.989657 
L 1035.010842 669.610857 
L 1036.012738 636.412526 
L 1037.014633 629.9059 
L 1038.016529 664.239082 
L 1039.018424 442.032214 
L 1040.02032 423.995814 
L 1041.022215 697.003379 
L 1042.024111 661.289933 
L 1043.026007 656.103137 
L 1044.027902 634.929047 
L 1045.029798 653.32476 
L 1046.031693 644.502206 
L 1047.033589 689.582499 
L 1048.035484 674.897266 
L 1049.03738 663.04732 
L 1050.039275 656.231206 
L 1051.041171 621.225662 
L 1052.043066 666.014238 
L 1053.044962 678.365775 
L 1054.046857 648.96329 
L 1055.048753 662.947706 
L 1056.050648 678.938563 
L 1057.052544 625.419922 
L 1058.054439 669.742488 
L 1059.056335 621.108279 
L 1060.05823 642.826623 
L 1061.060126 676.651091 
L 1062.062021 687.753954 
L 1063.063917 641.008763 
L 1064.065812 629.898776 
L 1065.067708 660.983968 
L 1066.069603 652.709308 
L 1067.071499 663.858437 
L 1068.073394 688.835417 
L 1069.07529 654.10382 
L 1070.077186 649.671231 
L 1071.079081 669.290684 
L 1072.080977 644.801047 
L 1073.082872 669.344033 
L 1074.084768 684.23918 
L 1075.086663 633.648356 
L 1076.088559 667.252266 
L 1077.090454 627.465464 
L 1078.09235 653.865491 
L 1079.094245 697.408957 
L 1080.096141 673.271509 
L 1081.098036 686.491073 
L 1082.099932 676.978387 
L 1083.101827 681.90192 
L 1084.103723 638.045406 
L 1085.105618 638.817382 
L 1086.107514 672.104641 
L 1087.109409 666.697287 
L 1088.111305 677.444398 
L 1089.1132 678.714443 
L 1090.115096 596.618641 
L 1091.116991 664.100327 
L 1092.118887 620.606648 
L 1093.120782 659.824263 
L 1094.122678 600.880498 
L 1095.124574 595.469582 
L 1096.126469 630.080234 
L 1097.128365 619.116085 
L 1098.13026 659.664176 
L 1099.132156 648.461659 
L 1100.134051 649.443548 
L 1101.135947 640.283052 
L 1102.137842 652.296646 
L 1103.139738 654.897127 
L 1104.141633 540.207801 
L 1105.143529 582.104139 
L 1106.145424 634.516384 
L 1107.14732 658.821042 
L 1108.149215 540.332308 
L 1109.151111 626.02825 
L 1110.153006 701.741932 
L 1112.156797 636.572612 
L 1113.158693 636.487206 
L 1114.160588 672.414127 
L 1115.162484 670.699443 
L 1116.164379 681.314924 
L 1117.166275 552.264058 
L 1118.16817 647.515389 
L 1119.170066 640.069617 
L 1120.171961 622.506352 
L 1121.173857 660.649587 
L 1122.175753 661.521177 
L 1123.177648 659.987871 
L 1124.179544 655.950175 
L 1125.181439 641.336059 
L 1126.183335 645.106971 
L 1127.18523 665.309859 
L 1128.187126 643.829843 
L 1129.189021 628.69993 
L 1130.190917 506.362001 
L 1131.192812 665.679858 
L 1132.194708 655.90391 
L 1133.196603 647.301954 
L 1134.198499 611.022843 
L 1135.200394 690.816965 
L 1136.20229 560.054937 
L 1137.204185 661.908906 
L 1138.206081 684.463301 
L 1139.207976 624.754684 
L 1140.209872 671.670647 
L 1141.211767 679.941744 
L 1142.213663 675.49847 
L 1143.215558 637.913775 
L 1144.217454 651.453512 
L 1145.219349 537.048739 
L 1146.221245 662.140151 
L 1147.22314 650.887887 
L 1148.225036 675.697697 
L 1149.226932 667.68626 
L 1150.228827 602.367499 
L 1151.230723 660.781218 
L 1152.232618 664.427623 
L 1153.234514 655.455668 
L 1154.236409 691.642289 
L 1155.238305 650.236856 
L 1156.2402 673.289279 
L 1157.242096 651.677632 
L 1158.243991 672.090393 
L 1159.245887 682.456899 
L 1160.247782 581.510059 
L 1161.249678 665.669172 
L 1162.251573 674.854563 
L 1163.253469 631.634831 
L 1164.255364 623.865324 
L 1165.25726 655.45923 
L 1165.25726 655.45923 
" style="fill:none;stroke:#ff7f0e;stroke-linecap:square;stroke-width:1.5;"/>
   </g>
   <g id="line2d_18">
    <path clip-path="url(#p814407575c)" d="M 1166.259155 689.692799 
L 1167.261051 691.261644 
L 1168.262946 690.286879 
L 1169.264842 571.741234 
L 1170.266737 675.719028 
L 1171.268633 655.704683 
L 1172.270528 644.395468 
L 1173.272424 618.251619 
L 1174.27432 655.594423 
L 1175.276215 644.053964 
L 1176.278111 645.654827 
L 1177.280006 606.810774 
L 1178.281902 673.886921 
L 1179.283797 662.161522 
L 1180.285693 629.10903 
L 1181.287588 632.520629 
L 1182.289484 657.177476 
L 1183.291379 616.714791 
L 1184.293275 617.447626 
L 1185.29517 632.221828 
L 1186.297066 601.328739 
L 1187.298961 654.534292 
L 1188.300857 590.595835 
L 1189.302752 584.231526 
L 1190.304648 593.456017 
L 1191.306543 593.345757 
L 1192.308439 663.744575 
L 1193.310334 616.462215 
L 1194.31223 612.20392 
L 1195.314125 647.643458 
L 1196.316021 639.411462 
L 1197.317916 610.32911 
L 1198.319812 631.510324 
L 1199.321707 658.415503 
L 1200.323603 514.586874 
L 1201.325499 640.090948 
L 1202.327394 628.134265 
L 1203.32929 658.24117 
L 1204.331185 633.91518 
L 1205.333081 621.634762 
L 1206.334976 624.56258 
L 1207.336872 613.605555 
L 1208.338767 588.966517 
L 1209.340663 646.063927 
L 1210.342558 638.731976 
L 1211.344454 607.351505 
L 1212.346349 644.747658 
L 1213.348245 538.094662 
L 1214.35014 488.919682 
L 1215.352036 625.035715 
L 1216.353931 634.783208 
L 1217.355827 631.051397 
L 1218.357722 664.651744 
L 1219.359618 651.940894 
L 1220.361513 675.31349 
L 1221.363409 688.00653 
L 1222.365304 626.889154 
L 1223.3672 642.997395 
L 1224.369095 666.743511 
L 1225.370991 619.336644 
L 1226.372886 651.218705 
L 1227.374782 669.077249 
L 1228.376678 673.573872 
L 1229.378573 649.116252 
L 1230.380469 660.119502 
L 1231.382364 691.571131 
L 1232.38426 651.67407 
L 1233.386155 649.834879 
L 1234.388051 638.418927 
L 1235.389946 676.537269 
L 1236.391842 613.399244 
L 1237.393737 618.379688 
L 1238.395633 678.276847 
L 1239.397528 648.653763 
L 1240.399424 670.098239 
L 1241.401319 642.566963 
L 1243.40511 698.109775 
L 1244.407006 666.064065 
L 1245.408901 667.682698 
L 1246.410797 663.634316 
L 1247.412692 657.149021 
L 1248.414588 643.232201 
L 1250.418379 669.991502 
L 1251.420274 673.022455 
L 1252.42217 670.713651 
L 1253.424066 604.7439 
L 1254.425961 552.868824 
L 1255.427857 667.124197 
L 1256.429752 648.6111 
L 1257.431648 662.061909 
L 1258.433543 698.796345 
L 1259.435439 651.243639 
L 1260.437334 644.317226 
L 1261.43923 628.358386 
L 1262.441125 691.656497 
L 1263.443021 660.421905 
L 1264.444916 650.777587 
L 1265.446812 657.479879 
L 1266.448707 656.843096 
L 1267.450603 657.156145 
L 1268.452498 676.113921 
L 1269.454394 640.68859 
L 1270.456289 628.337054 
L 1271.458185 658.081083 
L 1272.46008 541.349736 
L 1273.461976 630.873541 
L 1274.463871 665.79368 
L 1275.465767 605.391369 
L 1276.467662 508.830892 
L 1277.469558 641.424987 
L 1279.473349 625.227819 
L 1280.475245 646.928393 
L 1281.47714 583.103798 
L 1282.479036 528.048328 
L 1283.480931 549.969502 
L 1284.482827 523.075008 
L 1285.484722 650.101663 
L 1286.486618 624.623053 
L 1287.488513 569.101572 
L 1288.490409 640.016228 
L 1289.492304 653.787209 
L 1290.4942 561.794514 
L 1291.496095 650.343593 
L 1292.497991 668.027764 
L 1293.499886 658.426149 
L 1294.501782 679.24805 
L 1295.503677 655.36674 
L 1296.505573 650.571276 
L 1297.507468 611.40705 
L 1298.509364 605.65459 
L 1299.511259 612.595251 
L 1300.513155 676.789845 
L 1301.51505 659.610788 
L 1302.516946 647.020883 
L 1303.518841 646.071051 
L 1304.520737 652.80536 
L 1305.522632 613.498818 
L 1306.524528 668.436904 
L 1307.526424 636.063898 
L 1308.528319 676.51946 
L 1309.530215 677.401735 
L 1310.53211 658.593359 
L 1311.534006 643.296236 
L 1312.535901 687.544081 
L 1313.537797 643.740915 
L 1314.539692 634.171318 
L 1315.541588 674.577093 
L 1316.543483 663.107792 
L 1317.545379 638.90631 
L 1318.547274 674.53439 
L 1319.54917 651.485529 
L 1320.551065 599.539295 
L 1321.552961 659.589456 
L 1322.554856 652.527851 
L 1323.556752 672.186445 
L 1324.558647 654.86511 
L 1325.560543 688.017216 
L 1326.562438 578.137561 
L 1327.564334 644.420401 
L 1328.566229 614.249462 
L 1329.568125 629.002293 
L 1330.57002 709.016973 
L 1331.571916 645.380919 
L 1332.573812 657.985031 
L 1333.575707 661.065812 
L 1334.577603 684.260511 
L 1335.579498 621.136734 
L 1336.581394 584.501871 
L 1337.583289 660.503709 
L 1338.585185 488.702685 
L 1339.58708 598.258605 
L 1340.588976 637.099096 
L 1341.590871 654.146523 
L 1342.592767 628.25525 
L 1343.594662 664.249728 
L 1344.596558 616.554705 
L 1345.598453 638.742662 
L 1346.600349 645.747317 
L 1347.602244 657.209494 
L 1348.60414 632.431701 
L 1349.606035 678.799809 
L 1350.607931 591.66305 
L 1351.609826 580.538856 
L 1353.613617 639.059272 
L 1354.615513 655.160389 
L 1355.617408 369.296136 
L 1357.621199 642.634519 
L 1358.623095 650.756256 
L 1359.624991 669.404505 
L 1360.626886 665.918187 
L 1361.628782 641.261339 
L 1362.630677 666.416255 
L 1363.632573 655.943051 
L 1364.634468 622.584634 
L 1365.636364 685.580343 
L 1365.636364 685.580343 
" style="fill:none;stroke:#2ca02c;stroke-linecap:square;stroke-width:1.5;"/>
   </g>
   <g id="line2d_19">
    <path clip-path="url(#p814407575c)" d="M 211.452726 620.465258 
L 212.454621 620.928841 
L 213.456517 615.656592 
L 214.458412 615.110816 
L 215.460308 614.725201 
L 216.462203 614.166974 
L 217.464099 611.812521 
L 218.465994 612.063767 
L 219.46789 610.327201 
L 220.469785 605.019823 
L 221.471681 603.559406 
L 222.473576 602.959379 
L 223.475472 600.225535 
L 224.477368 600.319956 
L 225.479263 598.566567 
L 226.481159 598.531956 
L 227.483054 596.763374 
L 228.48495 596.474032 
L 229.486845 596.367382 
L 230.488741 594.112167 
L 231.490636 593.59159 
L 232.492532 594.384684 
L 233.494427 591.341859 
L 234.496323 592.506116 
L 235.498218 595.689757 
L 236.500114 596.966149 
L 237.502009 601.353106 
L 238.503905 600.953557 
L 239.5058 602.876593 
L 240.507696 601.403948 
L 241.509591 601.057317 
L 242.511487 597.215618 
L 243.513382 596.118953 
L 244.515278 595.725334 
L 245.517173 593.594631 
L 246.519069 593.507324 
L 247.520964 594.253875 
L 248.52286 597.207985 
L 249.524755 598.360829 
L 250.526651 596.288675 
L 251.528547 597.64889 
L 252.530442 599.530644 
L 253.532338 599.14703 
L 254.534233 600.058114 
L 255.536129 601.403505 
L 256.538024 601.492516 
L 257.53992 603.899369 
L 258.541815 607.044323 
L 259.543711 608.269501 
L 260.545606 608.54943 
L 261.547502 614.545772 
L 262.549397 615.174926 
L 263.551293 610.916038 
L 264.553188 608.666085 
L 265.555084 607.569271 
L 266.556979 605.942543 
L 267.558875 605.606585 
L 268.56077 609.220014 
L 269.562666 607.831339 
L 270.564561 605.641344 
L 271.566457 606.59319 
L 272.568352 606.074318 
L 273.570248 608.283878 
L 275.574039 606.514851 
L 276.575934 606.824277 
L 278.579726 606.08499 
L 279.581621 607.390953 
L 280.583517 604.664373 
L 281.585412 608.052865 
L 282.587308 603.752548 
L 283.589203 600.841572 
L 284.591099 601.492811 
L 287.596785 602.075867 
L 288.598681 602.925658 
L 289.600576 600.565127 
L 290.602472 602.46578 
L 291.604367 603.160599 
L 292.606263 602.609116 
L 293.608158 603.491813 
L 294.610054 603.371674 
L 295.611949 603.468097 
L 296.613845 605.604656 
L 297.61574 604.858031 
L 298.617636 606.997703 
L 299.619531 607.255397 
L 300.621427 609.605479 
L 301.623322 612.643116 
L 302.625218 610.797083 
L 303.627114 610.82332 
L 304.629009 608.005283 
L 305.630905 607.372053 
L 306.6328 606.873191 
L 307.634696 607.099313 
L 309.638487 601.049535 
L 310.640382 599.720522 
L 311.642278 599.287103 
L 312.644173 600.30039 
L 313.646069 602.105215 
L 314.647964 603.345068 
L 315.64986 604.896497 
L 316.651755 603.841187 
L 317.653651 605.188877 
L 318.655546 606.858666 
L 319.657442 608.169891 
L 320.659337 607.419413 
L 321.661233 605.217041 
L 322.663128 604.693055 
L 323.665024 606.965242 
L 324.666919 605.071332 
L 325.668815 603.797386 
L 326.67071 602.740224 
L 327.672606 602.816709 
L 328.674501 602.61171 
L 329.676397 601.025522 
L 331.680188 606.75335 
L 332.682084 606.701989 
L 333.683979 606.034222 
L 334.685875 606.447037 
L 335.68777 605.011448 
L 336.689666 605.034942 
L 337.691561 604.017357 
L 338.693457 603.69459 
L 339.695352 602.933365 
L 340.697248 603.265099 
L 341.699143 604.40942 
L 342.701039 604.674451 
L 343.702934 605.165012 
L 344.70483 604.578029 
L 345.706725 604.403935 
L 346.708621 602.775353 
L 348.712412 598.842345 
L 349.714307 598.747479 
L 350.716203 599.472685 
L 351.718098 592.869645 
L 352.719994 594.177016 
L 353.721889 591.989986 
L 354.723785 590.565441 
L 355.72568 586.421874 
L 357.729472 590.552915 
L 358.731367 590.415582 
L 359.733263 594.938982 
L 361.737054 598.048139 
L 362.738949 598.806251 
L 363.740845 600.10584 
L 365.744636 605.19095 
L 366.746531 605.65557 
L 367.748427 604.835054 
L 369.752218 608.004985 
L 370.754113 608.347688 
L 371.756009 609.067039 
L 372.757904 609.929578 
L 373.7598 611.616561 
L 374.761695 615.292171 
L 375.763591 614.286889 
L 376.765486 617.725409 
L 377.767382 619.98759 
L 378.769277 621.549024 
L 379.771173 621.290441 
L 380.773068 619.771548 
L 381.774964 619.520525 
L 382.77686 619.998041 
L 384.780651 623.01952 
L 385.782546 626.982841 
L 386.784442 629.864245 
L 387.786337 631.86147 
L 388.788233 630.197388 
L 389.790128 631.130558 
L 391.793919 630.423511 
L 392.795815 630.851445 
L 393.79771 631.920762 
L 394.799606 634.290854 
L 395.801501 632.288072 
L 396.803397 628.731563 
L 397.805292 621.869642 
L 398.807188 619.158033 
L 399.809083 621.652043 
L 400.810979 618.554818 
L 401.812874 619.081325 
L 402.81477 615.032105 
L 403.816665 614.884173 
L 405.820456 608.09444 
L 406.822352 609.251509 
L 407.824247 610.233742 
L 408.826143 610.458901 
L 410.829934 610.501665 
L 411.83183 610.236337 
L 412.833725 610.154441 
L 413.835621 608.030037 
L 414.837516 609.459844 
L 415.839412 611.188925 
L 416.841307 610.846222 
L 417.843203 611.262742 
L 418.845098 612.133804 
L 419.846994 611.138304 
L 420.848889 612.416696 
L 421.850785 611.139489 
L 422.85268 611.103099 
L 423.854576 612.749616 
L 424.856471 612.808907 
L 425.858367 612.248531 
L 426.860262 612.314862 
L 427.862158 613.287312 
L 428.864053 615.078055 
L 429.865949 614.984079 
L 430.867844 614.712303 
L 431.86974 615.448107 
L 432.871635 613.292946 
L 433.873531 613.690716 
L 434.875426 612.09104 
L 435.877322 612.419958 
L 436.879218 615.108073 
L 437.881113 612.929714 
L 438.883009 613.620086 
L 439.884904 613.688122 
L 440.8868 614.526574 
L 441.888695 614.450459 
L 442.890591 613.22691 
L 443.892486 618.134518 
L 444.894382 623.941943 
L 445.896277 630.953203 
L 446.898173 634.404175 
L 447.900068 638.559376 
L 448.901964 643.926194 
L 449.903859 648.029368 
L 450.905755 651.076418 
L 453.911441 664.961529 
L 454.913337 665.643156 
L 455.915232 665.576453 
L 456.917128 664.756604 
L 458.920919 664.984579 
L 459.922814 665.252278 
L 460.92471 665.796349 
L 461.926606 667.562857 
L 463.930397 666.875673 
L 464.932292 667.16405 
L 465.934188 665.807244 
L 466.936083 665.618328 
L 467.937979 666.601229 
L 468.939874 666.474494 
L 469.94177 667.975081 
L 471.945561 667.538327 
L 472.947456 668.093887 
L 473.949352 667.451319 
L 474.951247 666.956164 
L 475.953143 666.671639 
L 476.955038 666.713217 
L 477.956934 667.236832 
L 479.960725 667.204222 
L 480.96262 669.655247 
L 481.964516 669.329887 
L 482.966411 671.798476 
L 483.968307 670.689508 
L 484.970202 670.032857 
L 485.972098 672.145923 
L 486.973993 671.82864 
L 487.975889 672.555328 
L 489.97968 673.16047 
L 490.981576 673.817343 
L 491.983471 673.80756 
L 492.985367 673.569803 
L 493.987262 673.180926 
L 494.989158 674.203551 
L 495.991053 674.222376 
L 496.992949 674.005371 
L 497.994844 674.29575 
L 498.99674 673.513032 
L 499.998635 673.196491 
L 502.002426 671.61312 
L 503.004322 670.579451 
L 504.006217 670.66735 
L 505.008113 672.140218 
L 506.010008 671.547973 
L 507.011904 670.670908 
L 509.015695 666.631323 
L 510.01759 666.960242 
L 512.021381 665.9348 
L 513.023277 662.783694 
L 514.025172 663.739098 
L 515.027068 662.709061 
L 516.028964 659.751838 
L 517.030859 659.255941 
L 519.03465 648.423734 
L 520.036546 645.907637 
L 521.038441 642.19534 
L 522.040337 640.570093 
L 523.042232 640.029283 
L 524.044128 638.264702 
L 525.046023 637.781183 
L 526.047919 639.685616 
L 527.049814 639.585413 
L 528.05171 637.990258 
L 530.055501 637.882421 
L 531.057396 635.636099 
L 532.059292 636.343962 
L 533.061187 636.11999 
L 534.063083 636.045876 
L 535.064978 635.404938 
L 537.068769 633.056042 
L 538.070665 632.488847 
L 539.07256 630.420621 
L 540.074456 629.913459 
L 541.076352 629.64524 
L 542.078247 630.322271 
L 543.080143 629.638496 
L 544.082038 629.643611 
L 546.085829 627.729838 
L 547.087725 630.583671 
L 548.08962 630.772366 
L 549.091516 631.565978 
L 550.093411 632.736832 
L 551.095307 633.561276 
L 552.097202 632.955098 
L 553.099098 631.267299 
L 555.102889 632.390941 
L 557.10668 636.146372 
L 558.108575 635.885268 
L 559.110471 634.155595 
L 560.112366 633.873665 
L 561.114262 637.198643 
L 562.116157 636.378349 
L 563.118053 636.966222 
L 564.119948 638.623189 
L 565.121844 639.400052 
L 567.125635 650.870974 
L 570.131322 659.872417 
L 571.133217 661.398351 
L 572.135113 662.169136 
L 573.137008 662.004085 
L 574.138904 660.880294 
L 575.140799 660.061112 
L 576.142695 660.834195 
L 577.14459 660.88237 
L 578.146486 660.514838 
L 579.148381 662.038623 
L 580.150277 661.989485 
L 581.152172 662.942443 
L 582.154068 663.035456 
L 583.155963 663.352664 
L 584.157859 663.972109 
L 585.159754 662.435281 
L 586.16165 662.729736 
L 587.163545 664.782991 
L 588.165441 663.577526 
L 589.167336 664.499801 
L 590.169232 664.605191 
L 591.171127 665.485665 
L 592.173023 665.446904 
L 593.174918 665.846452 
L 594.176814 665.501897 
L 595.17871 666.206647 
L 596.180605 667.102315 
L 598.184396 665.889143 
L 599.186292 665.721126 
L 601.190083 664.876745 
L 602.191978 664.698649 
L 603.193874 659.868712 
L 604.195769 660.102987 
L 605.197665 659.796822 
L 606.19956 658.674737 
L 607.201456 655.375107 
L 608.203351 651.355459 
L 609.205247 650.621285 
L 610.207142 651.467 
L 611.209038 651.45025 
L 612.210933 652.228521 
L 613.212829 651.681485 
L 614.214724 647.990756 
L 615.21662 646.710436 
L 618.222306 636.23694 
L 619.224202 634.163155 
L 620.226098 634.091265 
L 621.227993 630.543575 
L 622.229889 631.549969 
L 623.231784 632.941904 
L 624.23368 633.746411 
L 625.235575 632.498109 
L 626.237471 632.449342 
L 627.239366 631.629418 
L 628.241262 631.291755 
L 630.245053 629.059516 
L 632.248844 628.308667 
L 633.250739 629.93421 
L 634.252635 629.422082 
L 635.25453 628.706363 
L 636.256426 630.179898 
L 638.260217 628.967096 
L 639.262112 627.538696 
L 640.264008 627.504011 
L 641.265903 625.725498 
L 642.267799 625.351073 
L 643.269694 625.597132 
L 644.27159 625.150817 
L 645.273485 624.358613 
L 646.275381 623.897327 
L 647.277277 624.015761 
L 648.279172 624.551902 
L 649.281068 626.92733 
L 650.282963 627.283967 
L 651.284859 632.352402 
L 652.286754 631.45918 
L 654.290545 631.961673 
L 655.292441 637.513258 
L 656.294336 641.356959 
L 657.296232 642.094541 
L 658.298127 642.196596 
L 659.300023 641.826767 
L 660.301918 640.004377 
L 661.303814 639.752686 
L 662.305709 642.808555 
L 663.307605 641.298186 
L 664.3095 643.936571 
L 665.311396 647.473366 
L 666.313291 650.377598 
L 667.315187 650.631735 
L 668.317082 651.922208 
L 669.318978 655.859663 
L 671.322769 653.878002 
L 672.324664 650.531829 
L 673.32656 652.479916 
L 674.328456 652.612505 
L 675.330351 653.109217 
L 677.334142 652.092373 
L 678.336038 652.458347 
L 679.337933 653.015388 
L 680.339829 653.035695 
L 681.341724 652.336133 
L 682.34362 651.867881 
L 683.345515 652.334132 
L 684.347411 651.65384 
L 685.349306 651.259183 
L 686.351202 651.4063 
L 687.353097 652.02278 
L 688.354993 651.277192 
L 689.356888 652.793269 
L 690.358784 653.074383 
L 691.360679 651.20382 
L 692.362575 650.030299 
L 693.36447 650.22003 
L 694.366366 646.417981 
L 696.370157 629.069373 
L 697.372052 619.643478 
L 698.373948 611.690156 
L 699.375844 602.336151 
L 700.377739 603.214847 
L 701.379635 603.213513 
L 702.38153 602.454067 
L 703.383426 601.485693 
L 705.387217 596.437491 
L 706.389112 593.24036 
L 707.391008 592.122499 
L 708.392903 592.591641 
L 709.394799 590.669865 
L 710.396694 586.207238 
L 711.39859 587.526838 
L 713.402381 581.169486 
L 714.404276 581.64389 
L 715.406172 582.84728 
L 716.408067 581.164891 
L 717.409963 578.675328 
L 718.411858 575.797926 
L 719.413754 574.98823 
L 720.415649 577.791444 
L 721.417545 576.601692 
L 722.41944 576.325989 
L 723.421336 575.636729 
L 724.423231 574.649308 
L 725.425127 575.441217 
L 726.427023 575.458708 
L 727.428918 574.712009 
L 728.430814 574.881508 
L 729.432709 576.155898 
L 730.434605 576.199403 
L 731.4365 574.49982 
L 732.438396 575.026178 
L 733.440291 575.855959 
L 735.444082 576.014488 
L 736.445978 577.054382 
L 737.447873 576.980712 
L 738.449769 577.080321 
L 739.451664 578.435644 
L 740.45356 578.702528 
L 741.455455 580.471111 
L 742.457351 584.416719 
L 743.459246 592.448232 
L 745.463037 609.854353 
L 747.466828 626.394304 
L 748.468724 626.313816 
L 749.470619 625.442236 
L 750.472515 626.576329 
L 751.47441 625.503454 
L 752.476306 627.817738 
L 753.478202 629.377394 
L 754.480097 629.000673 
L 755.481993 631.019835 
L 756.483888 631.135305 
L 757.485784 632.421924 
L 758.487679 635.377442 
L 759.489575 636.246059 
L 760.49147 638.071561 
L 761.493366 640.337152 
L 762.495261 639.796786 
L 763.497157 640.582691 
L 764.499052 641.510821 
L 765.500948 643.771447 
L 766.502843 646.68309 
L 767.504739 646.239814 
L 768.506634 646.623133 
L 769.50853 646.51537 
L 770.510425 646.533825 
L 771.512321 647.322324 
L 772.514216 649.001747 
L 773.516112 649.713983 
L 774.518007 648.979809 
L 775.519903 649.804846 
L 776.521798 649.868362 
L 777.523694 649.100837 
L 778.52559 649.255068 
L 779.527485 650.175564 
L 780.529381 650.205951 
L 781.531276 650.072397 
L 782.533172 649.417971 
L 783.535067 649.7397 
L 784.536963 648.78815 
L 785.538858 649.374689 
L 786.540754 649.304281 
L 787.542649 650.134506 
L 788.544545 649.848056 
L 789.54644 648.497105 
L 790.548336 647.963781 
L 791.550231 643.597725 
L 794.555918 625.477293 
L 795.557813 622.077461 
L 796.559709 622.558312 
L 797.561604 622.770945 
L 798.5635 623.174422 
L 799.565395 624.010206 
L 800.567291 623.712934 
L 801.569186 623.979373 
L 802.571082 621.121759 
L 806.578664 599.889428 
L 807.58056 596.695558 
L 808.582455 596.599951 
L 809.584351 595.41094 
L 810.586246 593.812894 
L 811.588142 590.428552 
L 812.590037 577.858222 
L 813.591933 571.831121 
L 814.593828 568.208058 
L 817.599515 551.460737 
L 819.603306 539.279654 
L 821.607097 528.38645 
L 822.608992 525.824996 
L 823.610888 519.718965 
L 824.612783 512.1434 
L 825.614679 506.228435 
L 826.616574 499.239484 
L 828.620365 488.246448 
L 829.622261 480.21701 
L 830.624156 477.419132 
L 831.626052 476.305198 
L 832.627948 476.975485 
L 833.629843 476.699929 
L 834.631739 475.381218 
L 835.633634 475.375215 
L 836.63553 475.888603 
L 837.637425 476.182464 
L 838.639321 476.632781 
L 839.641216 481.271058 
L 842.646903 497.624019 
L 843.648798 500.822928 
L 844.650694 499.519262 
L 845.652589 499.929261 
L 847.65638 497.888532 
L 849.660171 498.984382 
L 851.663962 507.758667 
L 854.669649 524.812374 
L 855.671544 527.022751 
L 856.67344 527.549108 
L 857.675336 529.339184 
L 858.677231 530.401905 
L 859.679127 533.237137 
L 860.681022 546.368139 
L 861.682918 552.650118 
L 862.684813 556.860831 
L 863.686709 563.509377 
L 864.688604 567.462099 
L 867.694291 586.072275 
L 868.696186 591.589322 
L 869.698082 596.199065 
L 871.701873 602.856728 
L 872.703768 610.112935 
L 873.705664 616.39506 
L 874.707559 624.451402 
L 877.713246 644.341157 
L 878.715141 647.318762 
L 879.717037 647.972447 
L 880.718932 648.457672 
L 881.720828 646.69576 
L 882.722723 647.905004 
L 883.724619 647.175575 
L 884.726515 645.948246 
L 885.72841 645.17005 
L 888.734097 643.6433 
L 889.735992 643.649822 
L 890.737888 642.530478 
L 891.739783 643.050166 
L 892.741679 643.703629 
L 894.74547 643.829179 
L 895.747365 645.95714 
L 896.749261 645.734205 
L 897.751156 645.208885 
L 898.753052 645.471767 
L 899.754947 645.868796 
L 900.756843 643.353959 
L 901.758738 642.051109 
L 902.760634 641.094964 
L 903.762529 640.38221 
L 905.76632 641.2426 
L 906.768216 642.666108 
L 907.770111 640.34545 
L 908.772007 639.295773 
L 909.773902 638.505273 
L 910.775798 635.351573 
L 911.777694 633.873073 
L 912.779589 635.054895 
L 914.78338 634.734798 
L 915.785276 634.911041 
L 916.787171 634.626073 
L 917.789067 634.902815 
L 918.790962 635.042519 
L 919.792858 636.525689 
L 920.794753 635.561614 
L 921.796649 633.272307 
L 922.798544 631.93329 
L 923.80044 632.203065 
L 925.804231 631.387219 
L 926.806126 630.980259 
L 927.808022 630.325906 
L 928.809917 630.237413 
L 930.813708 632.266433 
L 931.815604 631.691159 
L 932.817499 631.859768 
L 933.819395 630.668608 
L 934.82129 631.191705 
L 935.823186 632.325872 
L 936.825082 631.922321 
L 938.828873 631.728291 
L 939.830768 630.78897 
L 940.832664 630.736275 
L 941.834559 629.166465 
L 942.836455 629.693046 
L 943.83835 628.094036 
L 944.840246 627.515724 
L 945.842141 626.741159 
L 946.844037 627.957074 
L 947.845932 628.384859 
L 948.847828 631.181848 
L 949.849723 632.471358 
L 951.853514 636.17528 
L 952.85541 636.461582 
L 953.857305 635.970503 
L 954.859201 635.818568 
L 955.861096 637.636289 
L 956.862992 638.167316 
L 957.864887 638.383654 
L 958.866783 641.769405 
L 959.868678 643.421331 
L 960.870574 643.059433 
L 961.872469 642.398855 
L 962.874365 642.170139 
L 963.876261 642.408045 
L 964.878156 641.167079 
L 965.880052 641.4602 
L 966.881947 641.426479 
L 968.885738 644.077759 
L 969.887634 646.347352 
L 970.889529 647.319431 
L 971.891425 646.751421 
L 972.89332 646.416647 
L 975.899007 648.271351 
L 976.900902 647.340553 
L 977.902798 647.529026 
L 978.904693 647.028534 
L 979.906589 647.062182 
L 980.908484 648.157365 
L 981.91038 649.863914 
L 982.912275 650.135394 
L 983.914171 649.435387 
L 984.916066 651.103546 
L 985.917962 651.491532 
L 986.919857 652.786526 
L 988.923648 653.468151 
L 989.925544 655.272457 
L 990.92744 654.697999 
L 991.929335 655.078426 
L 992.931231 656.289524 
L 993.933126 656.851233 
L 994.935022 657.123602 
L 995.936917 656.785272 
L 996.938813 657.69969 
L 997.940708 658.091013 
L 998.942604 658.202702 
L 999.944499 658.098349 
L 1000.946395 657.570954 
L 1001.94829 657.308813 
L 1002.950186 656.545958 
L 1003.952081 657.180967 
L 1004.953977 655.823568 
L 1005.955872 656.496005 
L 1006.957768 655.674822 
L 1007.959663 654.153039 
L 1008.961559 654.278884 
L 1009.963454 654.038532 
L 1010.96535 654.016743 
L 1011.967245 652.899548 
L 1012.969141 654.824808 
L 1013.971036 654.264135 
L 1014.972932 654.594461 
L 1015.974828 654.124356 
L 1016.976723 654.083742 
L 1017.978619 654.719195 
L 1018.980514 654.744023 
L 1019.98241 654.396354 
L 1020.984305 654.570375 
L 1021.986201 653.560423 
L 1022.988096 652.939125 
L 1023.989992 651.25859 
L 1024.991887 651.085979 
L 1025.993783 651.237912 
L 1026.995678 650.455935 
L 1027.997574 650.996523 
L 1028.999469 650.508333 
L 1031.00326 650.068763 
L 1032.005156 650.414208 
L 1034.008947 650.788115 
L 1035.010842 651.275341 
L 1036.012738 651.242435 
L 1037.014633 650.095965 
L 1038.016529 649.768233 
L 1040.02032 641.51586 
L 1041.022215 642.105807 
L 1042.024111 642.473784 
L 1043.026007 642.071642 
L 1044.027902 641.889099 
L 1046.031693 640.85469 
L 1047.033589 641.23823 
L 1048.035484 641.315383 
L 1049.03738 641.997677 
L 1050.039275 642.380847 
L 1051.041171 641.53906 
L 1052.043066 641.692772 
L 1053.044962 643.570153 
L 1054.046857 642.905425 
L 1055.048753 643.2777 
L 1056.050648 645.462877 
L 1057.052544 644.954752 
L 1058.054439 645.96626 
L 1059.056335 645.409812 
L 1060.05823 645.541661 
L 1061.060126 645.281372 
L 1062.062021 646.000575 
L 1064.065812 644.370881 
L 1065.067708 644.278461 
L 1066.069603 643.357669 
L 1067.071499 643.353296 
L 1068.073394 644.466563 
L 1069.07529 644.248667 
L 1071.079081 645.491485 
L 1072.080977 646.880308 
L 1073.082872 647.516873 
L 1074.084768 648.298553 
L 1075.086663 648.734862 
L 1076.088559 648.971657 
L 1077.090454 648.810385 
L 1078.09235 649.044659 
L 1079.094245 649.739553 
L 1080.096141 649.72095 
L 1081.098036 649.587545 
L 1082.099932 650.045644 
L 1083.101827 650.301708 
L 1084.103723 650.335726 
L 1086.107514 650.685248 
L 1087.109409 655.36577 
L 1088.111305 660.645949 
L 1089.1132 660.264929 
L 1090.115096 658.917611 
L 1091.116991 659.084219 
L 1092.118887 658.785836 
L 1093.120782 658.921242 
L 1094.122678 658.012456 
L 1095.124574 656.05177 
L 1097.128365 654.202848 
L 1098.13026 654.274368 
L 1099.132156 654.841785 
L 1100.134051 654.496562 
L 1101.135947 653.703172 
L 1102.137842 653.772617 
L 1103.139738 653.604897 
L 1104.141633 650.714673 
L 1105.143529 649.81226 
L 1106.145424 649.078383 
L 1107.14732 649.864066 
L 1108.149215 647.728768 
L 1109.151111 646.674125 
L 1110.153006 646.965541 
L 1111.154902 647.560974 
L 1112.156797 647.700012 
L 1113.158693 647.189663 
L 1114.160588 647.60018 
L 1115.162484 647.742701 
L 1116.164379 647.586024 
L 1117.166275 645.464362 
L 1118.16817 645.419449 
L 1119.170066 644.810677 
L 1120.171961 644.346204 
L 1121.173857 644.16507 
L 1122.175753 643.691778 
L 1123.177648 644.240518 
L 1124.179544 644.005058 
L 1125.181439 644.294028 
L 1126.183335 644.111559 
L 1128.187126 642.82946 
L 1129.189021 641.625478 
L 1130.190917 638.07097 
L 1131.192812 637.73301 
L 1132.194708 638.105062 
L 1133.196603 638.281824 
L 1134.198499 637.009287 
L 1135.200394 637.51178 
L 1136.20229 635.066166 
L 1137.204185 634.716051 
L 1138.206081 636.546148 
L 1139.207976 635.726447 
L 1140.209872 636.79028 
L 1141.211767 637.209395 
L 1142.213663 638.763936 
L 1143.215558 639.64819 
L 1144.217454 640.093466 
L 1145.219349 638.38373 
L 1147.22314 638.485859 
L 1149.226932 639.603721 
L 1150.228827 638.56353 
L 1151.230723 638.686115 
L 1152.232618 641.274028 
L 1153.234514 642.802185 
L 1154.236409 643.992308 
L 1155.238305 643.813471 
L 1156.2402 646.583408 
L 1157.242096 647.11777 
L 1158.243991 646.50003 
L 1159.245887 646.7681 
L 1160.247782 645.620963 
L 1161.249678 646.228921 
L 1162.251573 646.279763 
L 1163.253469 645.465917 
L 1164.255364 644.269051 
L 1165.25726 646.41895 
L 1166.259155 647.297646 
L 1167.261051 648.364147 
L 1168.262946 649.776241 
L 1169.264842 647.923984 
L 1170.266737 648.219772 
L 1171.268633 648.130539 
L 1172.270528 647.889816 
L 1173.272424 647.40889 
L 1174.27432 647.627379 
L 1175.276215 647.184548 
L 1176.278111 647.222568 
L 1177.280006 646.766544 
L 1178.281902 650.256647 
L 1179.283797 650.183348 
L 1180.285693 649.625121 
L 1181.287588 649.317177 
L 1182.289484 650.278732 
L 1183.291379 648.734937 
L 1184.293275 649.930618 
L 1185.29517 649.312137 
L 1186.297066 647.580167 
L 1187.298961 648.200575 
L 1188.300857 646.511517 
L 1189.302752 644.517554 
L 1190.304648 642.808336 
L 1191.306543 641.879836 
L 1192.308439 642.1359 
L 1193.310334 643.790347 
L 1194.31223 642.750009 
L 1195.314125 642.682417 
L 1196.316021 641.926453 
L 1197.317916 640.731513 
L 1198.319812 641.338655 
L 1199.321707 641.289369 
L 1200.323603 638.167687 
L 1201.325499 637.847589 
L 1202.327394 636.524505 
L 1203.32929 636.691261 
L 1204.331185 635.870967 
L 1205.333081 635.245074 
L 1206.334976 634.254912 
L 1207.336872 632.820509 
L 1208.338767 632.975851 
L 1209.340663 632.567409 
L 1210.342558 631.814855 
L 1211.344454 631.308952 
L 1212.346349 631.744001 
L 1213.348245 629.298906 
L 1214.35014 625.116133 
L 1215.352036 623.736426 
L 1216.353931 622.580099 
L 1217.355827 623.815728 
L 1218.357722 623.585159 
L 1219.359618 623.506747 
L 1220.361513 624.150872 
L 1221.363409 625.6041 
L 1222.365304 625.006073 
L 1223.3672 624.984061 
L 1224.369095 625.423409 
L 1225.370991 625.684365 
L 1226.372886 625.21211 
L 1227.374782 625.356188 
L 1228.376678 626.282539 
L 1229.378573 626.628281 
L 1230.380469 626.689573 
L 1231.382364 628.24908 
L 1232.38426 628.962131 
L 1233.386155 629.32907 
L 1234.388051 630.101782 
L 1236.391842 631.035248 
L 1237.393737 631.746668 
L 1238.395633 633.513769 
L 1239.397528 634.666019 
L 1240.399424 634.798387 
L 1241.401319 635.342236 
L 1243.40511 637.610718 
L 1244.407006 638.16598 
L 1245.408901 639.360847 
L 1246.410797 640.030096 
L 1247.412692 640.003711 
L 1248.414588 642.683822 
L 1249.416483 643.033418 
L 1250.418379 643.905444 
L 1251.420274 644.213387 
L 1252.42217 644.980022 
L 1253.424066 644.628129 
L 1254.425961 643.134509 
L 1256.429752 645.492077 
L 1257.431648 645.825368 
L 1258.433543 647.076709 
L 1259.435439 647.991128 
L 1260.437334 647.982161 
L 1261.43923 649.862655 
L 1262.441125 654.086339 
L 1263.443021 654.823551 
L 1264.444916 655.156767 
L 1265.446812 655.707361 
L 1266.448707 655.544681 
L 1268.452498 655.670007 
L 1269.454394 654.684217 
L 1270.456289 654.714381 
L 1271.458185 655.028625 
L 1272.46008 652.416255 
L 1274.463871 652.960252 
L 1275.465767 651.633463 
L 1276.467662 648.201317 
L 1277.469558 648.041083 
L 1278.471453 647.491231 
L 1279.473349 646.109079 
L 1280.475245 646.010211 
L 1281.47714 644.61998 
L 1282.479036 642.320592 
L 1283.480931 639.683764 
L 1284.482827 637.802009 
L 1285.484722 638.462883 
L 1286.486618 637.345096 
L 1287.488513 635.687759 
L 1288.490409 635.06105 
L 1289.492304 635.294805 
L 1290.4942 633.027509 
L 1291.496095 632.032381 
L 1292.497991 632.073291 
L 1293.499886 631.880446 
L 1294.501782 632.205732 
L 1295.503677 632.168601 
L 1296.505573 632.321499 
L 1297.507468 631.374322 
L 1299.511259 628.775069 
L 1300.513155 628.901657 
L 1301.51505 630.044717 
L 1302.516946 632.006218 
L 1303.518841 631.567611 
L 1304.520737 631.654991 
L 1305.522632 630.64326 
L 1306.524528 630.010772 
L 1307.526424 629.694527 
L 1308.528319 630.365407 
L 1309.530215 631.387144 
L 1310.53211 630.698328 
L 1311.534006 630.341544 
L 1312.535901 631.107512 
L 1313.537797 630.821284 
L 1314.539692 630.348955 
L 1315.541588 630.711891 
L 1316.543483 630.44093 
L 1317.545379 630.4038 
L 1318.547274 631.366244 
L 1319.54917 631.228837 
L 1320.551065 632.441119 
L 1321.552961 633.039367 
L 1322.554856 632.762996 
L 1323.556752 634.15456 
L 1324.558647 637.19694 
L 1325.560543 638.167611 
L 1326.562438 637.009505 
L 1327.564334 637.409351 
L 1328.566229 636.72854 
L 1329.568125 637.684758 
L 1330.57002 641.454938 
L 1331.571916 643.442676 
L 1332.573812 646.253302 
L 1333.575707 646.481721 
L 1335.579498 648.808234 
L 1336.581394 647.651685 
L 1337.583289 647.791612 
L 1338.585185 646.268866 
L 1339.58708 645.183762 
L 1340.588976 644.539415 
L 1341.590871 644.450256 
L 1342.592767 643.387906 
L 1343.594662 643.572968 
L 1344.596558 642.86429 
L 1345.598453 643.433781 
L 1347.602244 645.19851 
L 1348.60414 644.274382 
L 1349.606035 644.674153 
L 1350.607931 643.520865 
L 1351.609826 642.155611 
L 1352.611722 641.268911 
L 1353.613617 641.80142 
L 1354.615513 641.524826 
L 1355.617408 635.967164 
L 1356.619304 632.356033 
L 1357.621199 631.631716 
L 1358.623095 631.468443 
L 1359.624991 632.012366 
L 1360.626886 631.561826 
L 1361.628782 631.510168 
L 1362.630677 632.181938 
L 1363.632573 631.793729 
L 1364.634468 630.949496 
L 1365.636364 631.921872 
L 1365.636364 631.921872 
" style="fill:none;stroke:#ff0000;stroke-linecap:square;stroke-width:1.5;"/>
   </g>
   <g id="patch_3">
    <path d="M 104.3 756 
L 104.3 14.3 
" style="fill:none;stroke:#000000;stroke-linecap:square;stroke-linejoin:miter;stroke-width:0.8;"/>
   </g>
   <g id="patch_4">
    <path d="M 1425.7 756 
L 1425.7 14.3 
" style="fill:none;stroke:#000000;stroke-linecap:square;stroke-linejoin:miter;stroke-width:0.8;"/>
   </g>
   <g id="patch_5">
    <path d="M 104.3 756 
L 1425.7 756 
" style="fill:none;stroke:#000000;stroke-linecap:square;stroke-linejoin:miter;stroke-width:0.8;"/>
   </g>
   <g id="patch_6">
    <path d="M 104.3 14.3 
L 1425.7 14.3 
" style="fill:none;stroke:#000000;stroke-linecap:square;stroke-linejoin:miter;stroke-width:0.8;"/>
   </g>
   <g id="legend_1">
    <g id="patch_7">
     <path d="M 1079.753125 147.725 
L 1411.7 147.725 
Q 1415.7 147.725 1415.7 143.725 
L 1415.7 28.3 
Q 1415.7 24.3 1411.7 24.3 
L 1079.753125 24.3 
Q 1075.753125 24.3 1075.753125 28.3 
L 1075.753125 143.725 
Q 1075.753125 147.725 1079.753125 147.725 
z
" style="fill:#ffffff;opacity:0.8;stroke:#cccccc;stroke-linejoin:miter;"/>
    </g>
    <g id="line2d_20">
     <path d="M 1083.753125 40.496875 
L 1123.753125 40.496875 
" style="fill:none;stroke:#1f77b4;stroke-linecap:square;stroke-width:1.5;"/>
    </g>
    <g id="line2d_21"/>
    <g id="text_18">
     <!-- Training Data -->
     <defs>
      <path d="M -0.296875 72.90625 
L 61.375 72.90625 
L 61.375 64.59375 
L 35.5 64.59375 
L 35.5 0 
L 25.59375 0 
L 25.59375 64.59375 
L -0.296875 64.59375 
z
" id="DejaVuSans-54"/>
      <path d="M 41.109375 46.296875 
Q 39.59375 47.171875 37.8125 47.578125 
Q 36.03125 48 33.890625 48 
Q 26.265625 48 22.1875 43.046875 
Q 18.109375 38.09375 18.109375 28.8125 
L 18.109375 0 
L 9.078125 0 
L 9.078125 54.6875 
L 18.109375 54.6875 
L 18.109375 46.1875 
Q 20.953125 51.171875 25.484375 53.578125 
Q 30.03125 56 36.53125 56 
Q 37.453125 56 38.578125 55.875 
Q 39.703125 55.765625 41.0625 55.515625 
z
" id="DejaVuSans-72"/>
      <path d="M 45.40625 27.984375 
Q 45.40625 37.75 41.375 43.109375 
Q 37.359375 48.484375 30.078125 48.484375 
Q 22.859375 48.484375 18.828125 43.109375 
Q 14.796875 37.75 14.796875 27.984375 
Q 14.796875 18.265625 18.828125 12.890625 
Q 22.859375 7.515625 30.078125 7.515625 
Q 37.359375 7.515625 41.375 12.890625 
Q 45.40625 18.265625 45.40625 27.984375 
z
M 54.390625 6.78125 
Q 54.390625 -7.171875 48.1875 -13.984375 
Q 42 -20.796875 29.203125 -20.796875 
Q 24.46875 -20.796875 20.265625 -20.09375 
Q 16.0625 -19.390625 12.109375 -17.921875 
L 12.109375 -9.1875 
Q 16.0625 -11.328125 19.921875 -12.34375 
Q 23.78125 -13.375 27.78125 -13.375 
Q 36.625 -13.375 41.015625 -8.765625 
Q 45.40625 -4.15625 45.40625 5.171875 
L 45.40625 9.625 
Q 42.625 4.78125 38.28125 2.390625 
Q 33.9375 0 27.875 0 
Q 17.828125 0 11.671875 7.65625 
Q 5.515625 15.328125 5.515625 27.984375 
Q 5.515625 40.671875 11.671875 48.328125 
Q 17.828125 56 27.875 56 
Q 33.9375 56 38.28125 53.609375 
Q 42.625 51.21875 45.40625 46.390625 
L 45.40625 54.6875 
L 54.390625 54.6875 
z
" id="DejaVuSans-67"/>
      <path d="M 19.671875 64.796875 
L 19.671875 8.109375 
L 31.59375 8.109375 
Q 46.6875 8.109375 53.6875 14.9375 
Q 60.6875 21.78125 60.6875 36.53125 
Q 60.6875 51.171875 53.6875 57.984375 
Q 46.6875 64.796875 31.59375 64.796875 
z
M 9.8125 72.90625 
L 30.078125 72.90625 
Q 51.265625 72.90625 61.171875 64.09375 
Q 71.09375 55.28125 71.09375 36.53125 
Q 71.09375 17.671875 61.125 8.828125 
Q 51.171875 0 30.078125 0 
L 9.8125 0 
z
" id="DejaVuSans-44"/>
     </defs>
     <g transform="translate(1139.753125 47.496875)scale(0.2 -0.2)">
      <use xlink:href="#DejaVuSans-54"/>
      <use x="60.865234" xlink:href="#DejaVuSans-72"/>
      <use x="101.978516" xlink:href="#DejaVuSans-61"/>
      <use x="163.257812" xlink:href="#DejaVuSans-69"/>
      <use x="191.041016" xlink:href="#DejaVuSans-6e"/>
      <use x="254.419922" xlink:href="#DejaVuSans-69"/>
      <use x="282.203125" xlink:href="#DejaVuSans-6e"/>
      <use x="345.582031" xlink:href="#DejaVuSans-67"/>
      <use x="409.058594" xlink:href="#DejaVuSans-20"/>
      <use x="440.845703" xlink:href="#DejaVuSans-44"/>
      <use x="517.847656" xlink:href="#DejaVuSans-61"/>
      <use x="579.126953" xlink:href="#DejaVuSans-74"/>
      <use x="618.335938" xlink:href="#DejaVuSans-61"/>
     </g>
    </g>
    <g id="line2d_22">
     <path d="M 1083.753125 69.853125 
L 1123.753125 69.853125 
" style="fill:none;stroke:#ff7f0e;stroke-linecap:square;stroke-width:1.5;"/>
    </g>
    <g id="line2d_23"/>
    <g id="text_19">
     <!-- Validation Data -->
     <defs>
      <path d="M 28.609375 0 
L 0.78125 72.90625 
L 11.078125 72.90625 
L 34.1875 11.53125 
L 57.328125 72.90625 
L 67.578125 72.90625 
L 39.796875 0 
z
" id="DejaVuSans-56"/>
      <path d="M 9.421875 75.984375 
L 18.40625 75.984375 
L 18.40625 0 
L 9.421875 0 
z
" id="DejaVuSans-6c"/>
      <path d="M 30.609375 48.390625 
Q 23.390625 48.390625 19.1875 42.75 
Q 14.984375 37.109375 14.984375 27.296875 
Q 14.984375 17.484375 19.15625 11.84375 
Q 23.34375 6.203125 30.609375 6.203125 
Q 37.796875 6.203125 41.984375 11.859375 
Q 46.1875 17.53125 46.1875 27.296875 
Q 46.1875 37.015625 41.984375 42.703125 
Q 37.796875 48.390625 30.609375 48.390625 
z
M 30.609375 56 
Q 42.328125 56 49.015625 48.375 
Q 55.71875 40.765625 55.71875 27.296875 
Q 55.71875 13.875 49.015625 6.21875 
Q 42.328125 -1.421875 30.609375 -1.421875 
Q 18.84375 -1.421875 12.171875 6.21875 
Q 5.515625 13.875 5.515625 27.296875 
Q 5.515625 40.765625 12.171875 48.375 
Q 18.84375 56 30.609375 56 
z
" id="DejaVuSans-6f"/>
     </defs>
     <g transform="translate(1139.753125 76.853125)scale(0.2 -0.2)">
      <use xlink:href="#DejaVuSans-56"/>
      <use x="68.298828" xlink:href="#DejaVuSans-61"/>
      <use x="129.578125" xlink:href="#DejaVuSans-6c"/>
      <use x="157.361328" xlink:href="#DejaVuSans-69"/>
      <use x="185.144531" xlink:href="#DejaVuSans-64"/>
      <use x="248.621094" xlink:href="#DejaVuSans-61"/>
      <use x="309.900391" xlink:href="#DejaVuSans-74"/>
      <use x="349.109375" xlink:href="#DejaVuSans-69"/>
      <use x="376.892578" xlink:href="#DejaVuSans-6f"/>
      <use x="438.074219" xlink:href="#DejaVuSans-6e"/>
      <use x="501.453125" xlink:href="#DejaVuSans-20"/>
      <use x="533.240234" xlink:href="#DejaVuSans-44"/>
      <use x="610.242188" xlink:href="#DejaVuSans-61"/>
      <use x="671.521484" xlink:href="#DejaVuSans-74"/>
      <use x="710.730469" xlink:href="#DejaVuSans-61"/>
     </g>
    </g>
    <g id="line2d_24">
     <path d="M 1083.753125 99.209375 
L 1123.753125 99.209375 
" style="fill:none;stroke:#2ca02c;stroke-linecap:square;stroke-width:1.5;"/>
    </g>
    <g id="line2d_25"/>
    <g id="text_20">
     <!-- Testing Data -->
     <g transform="translate(1139.753125 106.209375)scale(0.2 -0.2)">
      <use xlink:href="#DejaVuSans-54"/>
      <use x="60.818359" xlink:href="#DejaVuSans-65"/>
      <use x="122.341797" xlink:href="#DejaVuSans-73"/>
      <use x="174.441406" xlink:href="#DejaVuSans-74"/>
      <use x="213.650391" xlink:href="#DejaVuSans-69"/>
      <use x="241.433594" xlink:href="#DejaVuSans-6e"/>
      <use x="304.8125" xlink:href="#DejaVuSans-67"/>
      <use x="368.289062" xlink:href="#DejaVuSans-20"/>
      <use x="400.076172" xlink:href="#DejaVuSans-44"/>
      <use x="477.078125" xlink:href="#DejaVuSans-61"/>
      <use x="538.357422" xlink:href="#DejaVuSans-74"/>
      <use x="577.566406" xlink:href="#DejaVuSans-61"/>
     </g>
    </g>
    <g id="line2d_26">
     <path d="M 1083.753125 128.565625 
L 1123.753125 128.565625 
" style="fill:none;stroke:#ff0000;stroke-linecap:square;stroke-width:1.5;"/>
    </g>
    <g id="line2d_27"/>
    <g id="text_21">
     <!-- Moving average (48 steps) -->
     <defs>
      <path d="M 2.984375 54.6875 
L 12.5 54.6875 
L 29.59375 8.796875 
L 46.6875 54.6875 
L 56.203125 54.6875 
L 35.6875 0 
L 23.484375 0 
z
" id="DejaVuSans-76"/>
     </defs>
     <g transform="translate(1139.753125 135.565625)scale(0.2 -0.2)">
      <use xlink:href="#DejaVuSans-4d"/>
      <use x="86.279297" xlink:href="#DejaVuSans-6f"/>
      <use x="147.460938" xlink:href="#DejaVuSans-76"/>
      <use x="206.640625" xlink:href="#DejaVuSans-69"/>
      <use x="234.423828" xlink:href="#DejaVuSans-6e"/>
      <use x="297.802734" xlink:href="#DejaVuSans-67"/>
      <use x="361.279297" xlink:href="#DejaVuSans-20"/>
      <use x="393.066406" xlink:href="#DejaVuSans-61"/>
      <use x="454.345703" xlink:href="#DejaVuSans-76"/>
      <use x="513.525391" xlink:href="#DejaVuSans-65"/>
      <use x="575.048828" xlink:href="#DejaVuSans-72"/>
      <use x="616.162109" xlink:href="#DejaVuSans-61"/>
      <use x="677.441406" xlink:href="#DejaVuSans-67"/>
      <use x="740.917969" xlink:href="#DejaVuSans-65"/>
      <use x="802.441406" xlink:href="#DejaVuSans-20"/>
      <use x="834.228516" xlink:href="#DejaVuSans-28"/>
      <use x="873.242188" xlink:href="#DejaVuSans-34"/>
      <use x="936.865234" xlink:href="#DejaVuSans-38"/>
      <use x="1000.488281" xlink:href="#DejaVuSans-20"/>
      <use x="1032.275391" xlink:href="#DejaVuSans-73"/>
      <use x="1084.375" xlink:href="#DejaVuSans-74"/>
      <use x="1123.583984" xlink:href="#DejaVuSans-65"/>
      <use x="1185.107422" xlink:href="#DejaVuSans-70"/>
      <use x="1248.583984" xlink:href="#DejaVuSans-73"/>
      <use x="1300.683594" xlink:href="#DejaVuSans-29"/>
     </g>
    </g>
   </g>
  </g>
 </g>
 <defs>
  <clipPath id="p814407575c">
   <rect height="741.7" width="1321.4" x="104.3" y="14.3"/>
  </clipPath>
 </defs>
</svg>
