<?xml version="1.0" encoding="utf-8" standalone="no"?>
<!DOCTYPE svg PUBLIC "-//W3C//DTD SVG 1.1//EN"
  "http://www.w3.org/Graphics/SVG/1.1/DTD/svg11.dtd">
<!-- Created with matplotlib (http://matplotlib.org/) -->
<svg height="756pt" version="1.1" viewBox="0 0 1332 756" width="1332pt" xmlns="http://www.w3.org/2000/svg" xmlns:xlink="http://www.w3.org/1999/xlink">
 <defs>
  <style type="text/css">
*{stroke-linecap:butt;stroke-linejoin:round;}
  </style>
 </defs>
 <g id="figure_1">
  <g id="patch_1">
   <path d="M 0 756 
L 1332 756 
L 1332 0 
L 0 0 
z
" style="fill:#ffffff;"/>
  </g>
  <g id="axes_1">
   <g id="patch_2">
    <path d="M 42.925 728.2 
L 1317.7 728.2 
L 1317.7 14.3 
L 42.925 14.3 
z
" style="fill:#ffffff;"/>
   </g>
   <g id="matplotlib.axis_1">
    <g id="xtick_1">
     <g id="line2d_1">
      <defs>
       <path d="M 0 0 
L 0 3.5 
" id="mb94778b428" style="stroke:#000000;stroke-width:0.8;"/>
      </defs>
      <g>
       <use style="stroke:#000000;stroke-width:0.8;" x="100.869318" xlink:href="#mb94778b428" y="728.2"/>
      </g>
     </g>
     <g id="text_1">
      <!-- 0 -->
      <defs>
       <path d="M 31.78125 66.40625 
Q 24.171875 66.40625 20.328125 58.90625 
Q 16.5 51.421875 16.5 36.375 
Q 16.5 21.390625 20.328125 13.890625 
Q 24.171875 6.390625 31.78125 6.390625 
Q 39.453125 6.390625 43.28125 13.890625 
Q 47.125 21.390625 47.125 36.375 
Q 47.125 51.421875 43.28125 58.90625 
Q 39.453125 66.40625 31.78125 66.40625 
z
M 31.78125 74.21875 
Q 44.046875 74.21875 50.515625 64.515625 
Q 56.984375 54.828125 56.984375 36.375 
Q 56.984375 17.96875 50.515625 8.265625 
Q 44.046875 -1.421875 31.78125 -1.421875 
Q 19.53125 -1.421875 13.0625 8.265625 
Q 6.59375 17.96875 6.59375 36.375 
Q 6.59375 54.828125 13.0625 64.515625 
Q 19.53125 74.21875 31.78125 74.21875 
z
" id="DejaVuSans-30"/>
      </defs>
      <g transform="translate(97.688068 742.798437)scale(0.1 -0.1)">
       <use xlink:href="#DejaVuSans-30"/>
      </g>
     </g>
    </g>
    <g id="xtick_2">
     <g id="line2d_2">
      <g>
       <use style="stroke:#000000;stroke-width:0.8;" x="294.017045" xlink:href="#mb94778b428" y="728.2"/>
      </g>
     </g>
     <g id="text_2">
      <!-- 200 -->
      <defs>
       <path d="M 19.1875 8.296875 
L 53.609375 8.296875 
L 53.609375 0 
L 7.328125 0 
L 7.328125 8.296875 
Q 12.9375 14.109375 22.625 23.890625 
Q 32.328125 33.6875 34.8125 36.53125 
Q 39.546875 41.84375 41.421875 45.53125 
Q 43.3125 49.21875 43.3125 52.78125 
Q 43.3125 58.59375 39.234375 62.25 
Q 35.15625 65.921875 28.609375 65.921875 
Q 23.96875 65.921875 18.8125 64.3125 
Q 13.671875 62.703125 7.8125 59.421875 
L 7.8125 69.390625 
Q 13.765625 71.78125 18.9375 73 
Q 24.125 74.21875 28.421875 74.21875 
Q 39.75 74.21875 46.484375 68.546875 
Q 53.21875 62.890625 53.21875 53.421875 
Q 53.21875 48.921875 51.53125 44.890625 
Q 49.859375 40.875 45.40625 35.40625 
Q 44.1875 33.984375 37.640625 27.21875 
Q 31.109375 20.453125 19.1875 8.296875 
z
" id="DejaVuSans-32"/>
      </defs>
      <g transform="translate(284.473295 742.798437)scale(0.1 -0.1)">
       <use xlink:href="#DejaVuSans-32"/>
       <use x="63.623047" xlink:href="#DejaVuSans-30"/>
       <use x="127.246094" xlink:href="#DejaVuSans-30"/>
      </g>
     </g>
    </g>
    <g id="xtick_3">
     <g id="line2d_3">
      <g>
       <use style="stroke:#000000;stroke-width:0.8;" x="487.164773" xlink:href="#mb94778b428" y="728.2"/>
      </g>
     </g>
     <g id="text_3">
      <!-- 400 -->
      <defs>
       <path d="M 37.796875 64.3125 
L 12.890625 25.390625 
L 37.796875 25.390625 
z
M 35.203125 72.90625 
L 47.609375 72.90625 
L 47.609375 25.390625 
L 58.015625 25.390625 
L 58.015625 17.1875 
L 47.609375 17.1875 
L 47.609375 0 
L 37.796875 0 
L 37.796875 17.1875 
L 4.890625 17.1875 
L 4.890625 26.703125 
z
" id="DejaVuSans-34"/>
      </defs>
      <g transform="translate(477.621023 742.798437)scale(0.1 -0.1)">
       <use xlink:href="#DejaVuSans-34"/>
       <use x="63.623047" xlink:href="#DejaVuSans-30"/>
       <use x="127.246094" xlink:href="#DejaVuSans-30"/>
      </g>
     </g>
    </g>
    <g id="xtick_4">
     <g id="line2d_4">
      <g>
       <use style="stroke:#000000;stroke-width:0.8;" x="680.3125" xlink:href="#mb94778b428" y="728.2"/>
      </g>
     </g>
     <g id="text_4">
      <!-- 600 -->
      <defs>
       <path d="M 33.015625 40.375 
Q 26.375 40.375 22.484375 35.828125 
Q 18.609375 31.296875 18.609375 23.390625 
Q 18.609375 15.53125 22.484375 10.953125 
Q 26.375 6.390625 33.015625 6.390625 
Q 39.65625 6.390625 43.53125 10.953125 
Q 47.40625 15.53125 47.40625 23.390625 
Q 47.40625 31.296875 43.53125 35.828125 
Q 39.65625 40.375 33.015625 40.375 
z
M 52.59375 71.296875 
L 52.59375 62.3125 
Q 48.875 64.0625 45.09375 64.984375 
Q 41.3125 65.921875 37.59375 65.921875 
Q 27.828125 65.921875 22.671875 59.328125 
Q 17.53125 52.734375 16.796875 39.40625 
Q 19.671875 43.65625 24.015625 45.921875 
Q 28.375 48.1875 33.59375 48.1875 
Q 44.578125 48.1875 50.953125 41.515625 
Q 57.328125 34.859375 57.328125 23.390625 
Q 57.328125 12.15625 50.6875 5.359375 
Q 44.046875 -1.421875 33.015625 -1.421875 
Q 20.359375 -1.421875 13.671875 8.265625 
Q 6.984375 17.96875 6.984375 36.375 
Q 6.984375 53.65625 15.1875 63.9375 
Q 23.390625 74.21875 37.203125 74.21875 
Q 40.921875 74.21875 44.703125 73.484375 
Q 48.484375 72.75 52.59375 71.296875 
z
" id="DejaVuSans-36"/>
      </defs>
      <g transform="translate(670.76875 742.798437)scale(0.1 -0.1)">
       <use xlink:href="#DejaVuSans-36"/>
       <use x="63.623047" xlink:href="#DejaVuSans-30"/>
       <use x="127.246094" xlink:href="#DejaVuSans-30"/>
      </g>
     </g>
    </g>
    <g id="xtick_5">
     <g id="line2d_5">
      <g>
       <use style="stroke:#000000;stroke-width:0.8;" x="873.460227" xlink:href="#mb94778b428" y="728.2"/>
      </g>
     </g>
     <g id="text_5">
      <!-- 800 -->
      <defs>
       <path d="M 31.78125 34.625 
Q 24.75 34.625 20.71875 30.859375 
Q 16.703125 27.09375 16.703125 20.515625 
Q 16.703125 13.921875 20.71875 10.15625 
Q 24.75 6.390625 31.78125 6.390625 
Q 38.8125 6.390625 42.859375 10.171875 
Q 46.921875 13.96875 46.921875 20.515625 
Q 46.921875 27.09375 42.890625 30.859375 
Q 38.875 34.625 31.78125 34.625 
z
M 21.921875 38.8125 
Q 15.578125 40.375 12.03125 44.71875 
Q 8.5 49.078125 8.5 55.328125 
Q 8.5 64.0625 14.71875 69.140625 
Q 20.953125 74.21875 31.78125 74.21875 
Q 42.671875 74.21875 48.875 69.140625 
Q 55.078125 64.0625 55.078125 55.328125 
Q 55.078125 49.078125 51.53125 44.71875 
Q 48 40.375 41.703125 38.8125 
Q 48.828125 37.15625 52.796875 32.3125 
Q 56.78125 27.484375 56.78125 20.515625 
Q 56.78125 9.90625 50.3125 4.234375 
Q 43.84375 -1.421875 31.78125 -1.421875 
Q 19.734375 -1.421875 13.25 4.234375 
Q 6.78125 9.90625 6.78125 20.515625 
Q 6.78125 27.484375 10.78125 32.3125 
Q 14.796875 37.15625 21.921875 38.8125 
z
M 18.3125 54.390625 
Q 18.3125 48.734375 21.84375 45.5625 
Q 25.390625 42.390625 31.78125 42.390625 
Q 38.140625 42.390625 41.71875 45.5625 
Q 45.3125 48.734375 45.3125 54.390625 
Q 45.3125 60.0625 41.71875 63.234375 
Q 38.140625 66.40625 31.78125 66.40625 
Q 25.390625 66.40625 21.84375 63.234375 
Q 18.3125 60.0625 18.3125 54.390625 
z
" id="DejaVuSans-38"/>
      </defs>
      <g transform="translate(863.916477 742.798437)scale(0.1 -0.1)">
       <use xlink:href="#DejaVuSans-38"/>
       <use x="63.623047" xlink:href="#DejaVuSans-30"/>
       <use x="127.246094" xlink:href="#DejaVuSans-30"/>
      </g>
     </g>
    </g>
    <g id="xtick_6">
     <g id="line2d_6">
      <g>
       <use style="stroke:#000000;stroke-width:0.8;" x="1066.607955" xlink:href="#mb94778b428" y="728.2"/>
      </g>
     </g>
     <g id="text_6">
      <!-- 1000 -->
      <defs>
       <path d="M 12.40625 8.296875 
L 28.515625 8.296875 
L 28.515625 63.921875 
L 10.984375 60.40625 
L 10.984375 69.390625 
L 28.421875 72.90625 
L 38.28125 72.90625 
L 38.28125 8.296875 
L 54.390625 8.296875 
L 54.390625 0 
L 12.40625 0 
z
" id="DejaVuSans-31"/>
      </defs>
      <g transform="translate(1053.882955 742.798437)scale(0.1 -0.1)">
       <use xlink:href="#DejaVuSans-31"/>
       <use x="63.623047" xlink:href="#DejaVuSans-30"/>
       <use x="127.246094" xlink:href="#DejaVuSans-30"/>
       <use x="190.869141" xlink:href="#DejaVuSans-30"/>
      </g>
     </g>
    </g>
    <g id="xtick_7">
     <g id="line2d_7">
      <g>
       <use style="stroke:#000000;stroke-width:0.8;" x="1259.755682" xlink:href="#mb94778b428" y="728.2"/>
      </g>
     </g>
     <g id="text_7">
      <!-- 1200 -->
      <g transform="translate(1247.030682 742.798437)scale(0.1 -0.1)">
       <use xlink:href="#DejaVuSans-31"/>
       <use x="63.623047" xlink:href="#DejaVuSans-32"/>
       <use x="127.246094" xlink:href="#DejaVuSans-30"/>
       <use x="190.869141" xlink:href="#DejaVuSans-30"/>
      </g>
     </g>
    </g>
    <g id="text_8">
     <!-- 15-Minute Steps -->
     <defs>
      <path d="M 10.796875 72.90625 
L 49.515625 72.90625 
L 49.515625 64.59375 
L 19.828125 64.59375 
L 19.828125 46.734375 
Q 21.96875 47.46875 24.109375 47.828125 
Q 26.265625 48.1875 28.421875 48.1875 
Q 40.625 48.1875 47.75 41.5 
Q 54.890625 34.8125 54.890625 23.390625 
Q 54.890625 11.625 47.5625 5.09375 
Q 40.234375 -1.421875 26.90625 -1.421875 
Q 22.3125 -1.421875 17.546875 -0.640625 
Q 12.796875 0.140625 7.71875 1.703125 
L 7.71875 11.625 
Q 12.109375 9.234375 16.796875 8.0625 
Q 21.484375 6.890625 26.703125 6.890625 
Q 35.15625 6.890625 40.078125 11.328125 
Q 45.015625 15.765625 45.015625 23.390625 
Q 45.015625 31 40.078125 35.4375 
Q 35.15625 39.890625 26.703125 39.890625 
Q 22.75 39.890625 18.8125 39.015625 
Q 14.890625 38.140625 10.796875 36.28125 
z
" id="DejaVuSans-35"/>
      <path d="M 4.890625 31.390625 
L 31.203125 31.390625 
L 31.203125 23.390625 
L 4.890625 23.390625 
z
" id="DejaVuSans-2d"/>
      <path d="M 9.8125 72.90625 
L 24.515625 72.90625 
L 43.109375 23.296875 
L 61.8125 72.90625 
L 76.515625 72.90625 
L 76.515625 0 
L 66.890625 0 
L 66.890625 64.015625 
L 48.09375 14.015625 
L 38.1875 14.015625 
L 19.390625 64.015625 
L 19.390625 0 
L 9.8125 0 
z
" id="DejaVuSans-4d"/>
      <path d="M 9.421875 54.6875 
L 18.40625 54.6875 
L 18.40625 0 
L 9.421875 0 
z
M 9.421875 75.984375 
L 18.40625 75.984375 
L 18.40625 64.59375 
L 9.421875 64.59375 
z
" id="DejaVuSans-69"/>
      <path d="M 54.890625 33.015625 
L 54.890625 0 
L 45.90625 0 
L 45.90625 32.71875 
Q 45.90625 40.484375 42.875 44.328125 
Q 39.84375 48.1875 33.796875 48.1875 
Q 26.515625 48.1875 22.3125 43.546875 
Q 18.109375 38.921875 18.109375 30.90625 
L 18.109375 0 
L 9.078125 0 
L 9.078125 54.6875 
L 18.109375 54.6875 
L 18.109375 46.1875 
Q 21.34375 51.125 25.703125 53.5625 
Q 30.078125 56 35.796875 56 
Q 45.21875 56 50.046875 50.171875 
Q 54.890625 44.34375 54.890625 33.015625 
z
" id="DejaVuSans-6e"/>
      <path d="M 8.5 21.578125 
L 8.5 54.6875 
L 17.484375 54.6875 
L 17.484375 21.921875 
Q 17.484375 14.15625 20.5 10.265625 
Q 23.53125 6.390625 29.59375 6.390625 
Q 36.859375 6.390625 41.078125 11.03125 
Q 45.3125 15.671875 45.3125 23.6875 
L 45.3125 54.6875 
L 54.296875 54.6875 
L 54.296875 0 
L 45.3125 0 
L 45.3125 8.40625 
Q 42.046875 3.421875 37.71875 1 
Q 33.40625 -1.421875 27.6875 -1.421875 
Q 18.265625 -1.421875 13.375 4.4375 
Q 8.5 10.296875 8.5 21.578125 
z
M 31.109375 56 
z
" id="DejaVuSans-75"/>
      <path d="M 18.3125 70.21875 
L 18.3125 54.6875 
L 36.8125 54.6875 
L 36.8125 47.703125 
L 18.3125 47.703125 
L 18.3125 18.015625 
Q 18.3125 11.328125 20.140625 9.421875 
Q 21.96875 7.515625 27.59375 7.515625 
L 36.8125 7.515625 
L 36.8125 0 
L 27.59375 0 
Q 17.1875 0 13.234375 3.875 
Q 9.28125 7.765625 9.28125 18.015625 
L 9.28125 47.703125 
L 2.6875 47.703125 
L 2.6875 54.6875 
L 9.28125 54.6875 
L 9.28125 70.21875 
z
" id="DejaVuSans-74"/>
      <path d="M 56.203125 29.59375 
L 56.203125 25.203125 
L 14.890625 25.203125 
Q 15.484375 15.921875 20.484375 11.0625 
Q 25.484375 6.203125 34.421875 6.203125 
Q 39.59375 6.203125 44.453125 7.46875 
Q 49.3125 8.734375 54.109375 11.28125 
L 54.109375 2.78125 
Q 49.265625 0.734375 44.1875 -0.34375 
Q 39.109375 -1.421875 33.890625 -1.421875 
Q 20.796875 -1.421875 13.15625 6.1875 
Q 5.515625 13.8125 5.515625 26.8125 
Q 5.515625 40.234375 12.765625 48.109375 
Q 20.015625 56 32.328125 56 
Q 43.359375 56 49.78125 48.890625 
Q 56.203125 41.796875 56.203125 29.59375 
z
M 47.21875 32.234375 
Q 47.125 39.59375 43.09375 43.984375 
Q 39.0625 48.390625 32.421875 48.390625 
Q 24.90625 48.390625 20.390625 44.140625 
Q 15.875 39.890625 15.1875 32.171875 
z
" id="DejaVuSans-65"/>
      <path id="DejaVuSans-20"/>
      <path d="M 53.515625 70.515625 
L 53.515625 60.890625 
Q 47.90625 63.578125 42.921875 64.890625 
Q 37.9375 66.21875 33.296875 66.21875 
Q 25.25 66.21875 20.875 63.09375 
Q 16.5 59.96875 16.5 54.203125 
Q 16.5 49.359375 19.40625 46.890625 
Q 22.3125 44.4375 30.421875 42.921875 
L 36.375 41.703125 
Q 47.40625 39.59375 52.65625 34.296875 
Q 57.90625 29 57.90625 20.125 
Q 57.90625 9.515625 50.796875 4.046875 
Q 43.703125 -1.421875 29.984375 -1.421875 
Q 24.8125 -1.421875 18.96875 -0.25 
Q 13.140625 0.921875 6.890625 3.21875 
L 6.890625 13.375 
Q 12.890625 10.015625 18.65625 8.296875 
Q 24.421875 6.59375 29.984375 6.59375 
Q 38.421875 6.59375 43.015625 9.90625 
Q 47.609375 13.234375 47.609375 19.390625 
Q 47.609375 24.75 44.3125 27.78125 
Q 41.015625 30.8125 33.5 32.328125 
L 27.484375 33.5 
Q 16.453125 35.6875 11.515625 40.375 
Q 6.59375 45.0625 6.59375 53.421875 
Q 6.59375 63.09375 13.40625 68.65625 
Q 20.21875 74.21875 32.171875 74.21875 
Q 37.3125 74.21875 42.625 73.28125 
Q 47.953125 72.359375 53.515625 70.515625 
z
" id="DejaVuSans-53"/>
      <path d="M 18.109375 8.203125 
L 18.109375 -20.796875 
L 9.078125 -20.796875 
L 9.078125 54.6875 
L 18.109375 54.6875 
L 18.109375 46.390625 
Q 20.953125 51.265625 25.265625 53.625 
Q 29.59375 56 35.59375 56 
Q 45.5625 56 51.78125 48.09375 
Q 58.015625 40.1875 58.015625 27.296875 
Q 58.015625 14.40625 51.78125 6.484375 
Q 45.5625 -1.421875 35.59375 -1.421875 
Q 29.59375 -1.421875 25.265625 0.953125 
Q 20.953125 3.328125 18.109375 8.203125 
z
M 48.6875 27.296875 
Q 48.6875 37.203125 44.609375 42.84375 
Q 40.53125 48.484375 33.40625 48.484375 
Q 26.265625 48.484375 22.1875 42.84375 
Q 18.109375 37.203125 18.109375 27.296875 
Q 18.109375 17.390625 22.1875 11.75 
Q 26.265625 6.109375 33.40625 6.109375 
Q 40.53125 6.109375 44.609375 11.75 
Q 48.6875 17.390625 48.6875 27.296875 
z
" id="DejaVuSans-70"/>
      <path d="M 44.28125 53.078125 
L 44.28125 44.578125 
Q 40.484375 46.53125 36.375 47.5 
Q 32.28125 48.484375 27.875 48.484375 
Q 21.1875 48.484375 17.84375 46.4375 
Q 14.5 44.390625 14.5 40.28125 
Q 14.5 37.15625 16.890625 35.375 
Q 19.28125 33.59375 26.515625 31.984375 
L 29.59375 31.296875 
Q 39.15625 29.25 43.1875 25.515625 
Q 47.21875 21.78125 47.21875 15.09375 
Q 47.21875 7.46875 41.1875 3.015625 
Q 35.15625 -1.421875 24.609375 -1.421875 
Q 20.21875 -1.421875 15.453125 -0.5625 
Q 10.6875 0.296875 5.421875 2 
L 5.421875 11.28125 
Q 10.40625 8.6875 15.234375 7.390625 
Q 20.0625 6.109375 24.8125 6.109375 
Q 31.15625 6.109375 34.5625 8.28125 
Q 37.984375 10.453125 37.984375 14.40625 
Q 37.984375 18.0625 35.515625 20.015625 
Q 33.0625 21.96875 24.703125 23.78125 
L 21.578125 24.515625 
Q 13.234375 26.265625 9.515625 29.90625 
Q 5.8125 33.546875 5.8125 39.890625 
Q 5.8125 47.609375 11.28125 51.796875 
Q 16.75 56 26.8125 56 
Q 31.78125 56 36.171875 55.265625 
Q 40.578125 54.546875 44.28125 53.078125 
z
" id="DejaVuSans-73"/>
     </defs>
     <g transform="translate(639.489844 756.476562)scale(0.1 -0.1)">
      <use xlink:href="#DejaVuSans-31"/>
      <use x="63.623047" xlink:href="#DejaVuSans-35"/>
      <use x="127.246094" xlink:href="#DejaVuSans-2d"/>
      <use x="163.330078" xlink:href="#DejaVuSans-4d"/>
      <use x="249.609375" xlink:href="#DejaVuSans-69"/>
      <use x="277.392578" xlink:href="#DejaVuSans-6e"/>
      <use x="340.771484" xlink:href="#DejaVuSans-75"/>
      <use x="404.150391" xlink:href="#DejaVuSans-74"/>
      <use x="443.359375" xlink:href="#DejaVuSans-65"/>
      <use x="504.882812" xlink:href="#DejaVuSans-20"/>
      <use x="536.669922" xlink:href="#DejaVuSans-53"/>
      <use x="600.146484" xlink:href="#DejaVuSans-74"/>
      <use x="639.355469" xlink:href="#DejaVuSans-65"/>
      <use x="700.878906" xlink:href="#DejaVuSans-70"/>
      <use x="764.355469" xlink:href="#DejaVuSans-73"/>
     </g>
    </g>
   </g>
   <g id="matplotlib.axis_2">
    <g id="ytick_1">
     <g id="line2d_8">
      <defs>
       <path d="M 0 0 
L -3.5 0 
" id="mb4ff9944fa" style="stroke:#000000;stroke-width:0.8;"/>
      </defs>
      <g>
       <use style="stroke:#000000;stroke-width:0.8;" x="42.925" xlink:href="#mb4ff9944fa" y="697.255635"/>
      </g>
     </g>
     <g id="text_9">
      <!-- 0 -->
      <g transform="translate(29.5625 701.054854)scale(0.1 -0.1)">
       <use xlink:href="#DejaVuSans-30"/>
      </g>
     </g>
    </g>
    <g id="ytick_2">
     <g id="line2d_9">
      <g>
       <use style="stroke:#000000;stroke-width:0.8;" x="42.925" xlink:href="#mb4ff9944fa" y="559.824351"/>
      </g>
     </g>
     <g id="text_10">
      <!-- 2000 -->
      <g transform="translate(10.475 563.62357)scale(0.1 -0.1)">
       <use xlink:href="#DejaVuSans-32"/>
       <use x="63.623047" xlink:href="#DejaVuSans-30"/>
       <use x="127.246094" xlink:href="#DejaVuSans-30"/>
       <use x="190.869141" xlink:href="#DejaVuSans-30"/>
      </g>
     </g>
    </g>
    <g id="ytick_3">
     <g id="line2d_10">
      <g>
       <use style="stroke:#000000;stroke-width:0.8;" x="42.925" xlink:href="#mb4ff9944fa" y="422.393067"/>
      </g>
     </g>
     <g id="text_11">
      <!-- 4000 -->
      <g transform="translate(10.475 426.192285)scale(0.1 -0.1)">
       <use xlink:href="#DejaVuSans-34"/>
       <use x="63.623047" xlink:href="#DejaVuSans-30"/>
       <use x="127.246094" xlink:href="#DejaVuSans-30"/>
       <use x="190.869141" xlink:href="#DejaVuSans-30"/>
      </g>
     </g>
    </g>
    <g id="ytick_4">
     <g id="line2d_11">
      <g>
       <use style="stroke:#000000;stroke-width:0.8;" x="42.925" xlink:href="#mb4ff9944fa" y="284.961782"/>
      </g>
     </g>
     <g id="text_12">
      <!-- 6000 -->
      <g transform="translate(10.475 288.761001)scale(0.1 -0.1)">
       <use xlink:href="#DejaVuSans-36"/>
       <use x="63.623047" xlink:href="#DejaVuSans-30"/>
       <use x="127.246094" xlink:href="#DejaVuSans-30"/>
       <use x="190.869141" xlink:href="#DejaVuSans-30"/>
      </g>
     </g>
    </g>
    <g id="ytick_5">
     <g id="line2d_12">
      <g>
       <use style="stroke:#000000;stroke-width:0.8;" x="42.925" xlink:href="#mb4ff9944fa" y="147.530498"/>
      </g>
     </g>
     <g id="text_13">
      <!-- 8000 -->
      <g transform="translate(10.475 151.329717)scale(0.1 -0.1)">
       <use xlink:href="#DejaVuSans-38"/>
       <use x="63.623047" xlink:href="#DejaVuSans-30"/>
       <use x="127.246094" xlink:href="#DejaVuSans-30"/>
       <use x="190.869141" xlink:href="#DejaVuSans-30"/>
      </g>
     </g>
    </g>
    <g id="text_14">
     <!-- Bandwidth (kbps) -->
     <defs>
      <path d="M 19.671875 34.8125 
L 19.671875 8.109375 
L 35.5 8.109375 
Q 43.453125 8.109375 47.28125 11.40625 
Q 51.125 14.703125 51.125 21.484375 
Q 51.125 28.328125 47.28125 31.5625 
Q 43.453125 34.8125 35.5 34.8125 
z
M 19.671875 64.796875 
L 19.671875 42.828125 
L 34.28125 42.828125 
Q 41.5 42.828125 45.03125 45.53125 
Q 48.578125 48.25 48.578125 53.8125 
Q 48.578125 59.328125 45.03125 62.0625 
Q 41.5 64.796875 34.28125 64.796875 
z
M 9.8125 72.90625 
L 35.015625 72.90625 
Q 46.296875 72.90625 52.390625 68.21875 
Q 58.5 63.53125 58.5 54.890625 
Q 58.5 48.1875 55.375 44.234375 
Q 52.25 40.28125 46.1875 39.3125 
Q 53.46875 37.75 57.5 32.78125 
Q 61.53125 27.828125 61.53125 20.40625 
Q 61.53125 10.640625 54.890625 5.3125 
Q 48.25 0 35.984375 0 
L 9.8125 0 
z
" id="DejaVuSans-42"/>
      <path d="M 34.28125 27.484375 
Q 23.390625 27.484375 19.1875 25 
Q 14.984375 22.515625 14.984375 16.5 
Q 14.984375 11.71875 18.140625 8.90625 
Q 21.296875 6.109375 26.703125 6.109375 
Q 34.1875 6.109375 38.703125 11.40625 
Q 43.21875 16.703125 43.21875 25.484375 
L 43.21875 27.484375 
z
M 52.203125 31.203125 
L 52.203125 0 
L 43.21875 0 
L 43.21875 8.296875 
Q 40.140625 3.328125 35.546875 0.953125 
Q 30.953125 -1.421875 24.3125 -1.421875 
Q 15.921875 -1.421875 10.953125 3.296875 
Q 6 8.015625 6 15.921875 
Q 6 25.140625 12.171875 29.828125 
Q 18.359375 34.515625 30.609375 34.515625 
L 43.21875 34.515625 
L 43.21875 35.40625 
Q 43.21875 41.609375 39.140625 45 
Q 35.0625 48.390625 27.6875 48.390625 
Q 23 48.390625 18.546875 47.265625 
Q 14.109375 46.140625 10.015625 43.890625 
L 10.015625 52.203125 
Q 14.9375 54.109375 19.578125 55.046875 
Q 24.21875 56 28.609375 56 
Q 40.484375 56 46.34375 49.84375 
Q 52.203125 43.703125 52.203125 31.203125 
z
" id="DejaVuSans-61"/>
      <path d="M 45.40625 46.390625 
L 45.40625 75.984375 
L 54.390625 75.984375 
L 54.390625 0 
L 45.40625 0 
L 45.40625 8.203125 
Q 42.578125 3.328125 38.25 0.953125 
Q 33.9375 -1.421875 27.875 -1.421875 
Q 17.96875 -1.421875 11.734375 6.484375 
Q 5.515625 14.40625 5.515625 27.296875 
Q 5.515625 40.1875 11.734375 48.09375 
Q 17.96875 56 27.875 56 
Q 33.9375 56 38.25 53.625 
Q 42.578125 51.265625 45.40625 46.390625 
z
M 14.796875 27.296875 
Q 14.796875 17.390625 18.875 11.75 
Q 22.953125 6.109375 30.078125 6.109375 
Q 37.203125 6.109375 41.296875 11.75 
Q 45.40625 17.390625 45.40625 27.296875 
Q 45.40625 37.203125 41.296875 42.84375 
Q 37.203125 48.484375 30.078125 48.484375 
Q 22.953125 48.484375 18.875 42.84375 
Q 14.796875 37.203125 14.796875 27.296875 
z
" id="DejaVuSans-64"/>
      <path d="M 4.203125 54.6875 
L 13.1875 54.6875 
L 24.421875 12.015625 
L 35.59375 54.6875 
L 46.1875 54.6875 
L 57.421875 12.015625 
L 68.609375 54.6875 
L 77.59375 54.6875 
L 63.28125 0 
L 52.6875 0 
L 40.921875 44.828125 
L 29.109375 0 
L 18.5 0 
z
" id="DejaVuSans-77"/>
      <path d="M 54.890625 33.015625 
L 54.890625 0 
L 45.90625 0 
L 45.90625 32.71875 
Q 45.90625 40.484375 42.875 44.328125 
Q 39.84375 48.1875 33.796875 48.1875 
Q 26.515625 48.1875 22.3125 43.546875 
Q 18.109375 38.921875 18.109375 30.90625 
L 18.109375 0 
L 9.078125 0 
L 9.078125 75.984375 
L 18.109375 75.984375 
L 18.109375 46.1875 
Q 21.34375 51.125 25.703125 53.5625 
Q 30.078125 56 35.796875 56 
Q 45.21875 56 50.046875 50.171875 
Q 54.890625 44.34375 54.890625 33.015625 
z
" id="DejaVuSans-68"/>
      <path d="M 31 75.875 
Q 24.46875 64.65625 21.28125 53.65625 
Q 18.109375 42.671875 18.109375 31.390625 
Q 18.109375 20.125 21.3125 9.0625 
Q 24.515625 -2 31 -13.1875 
L 23.1875 -13.1875 
Q 15.875 -1.703125 12.234375 9.375 
Q 8.59375 20.453125 8.59375 31.390625 
Q 8.59375 42.28125 12.203125 53.3125 
Q 15.828125 64.359375 23.1875 75.875 
z
" id="DejaVuSans-28"/>
      <path d="M 9.078125 75.984375 
L 18.109375 75.984375 
L 18.109375 31.109375 
L 44.921875 54.6875 
L 56.390625 54.6875 
L 27.390625 29.109375 
L 57.625 0 
L 45.90625 0 
L 18.109375 26.703125 
L 18.109375 0 
L 9.078125 0 
z
" id="DejaVuSans-6b"/>
      <path d="M 48.6875 27.296875 
Q 48.6875 37.203125 44.609375 42.84375 
Q 40.53125 48.484375 33.40625 48.484375 
Q 26.265625 48.484375 22.1875 42.84375 
Q 18.109375 37.203125 18.109375 27.296875 
Q 18.109375 17.390625 22.1875 11.75 
Q 26.265625 6.109375 33.40625 6.109375 
Q 40.53125 6.109375 44.609375 11.75 
Q 48.6875 17.390625 48.6875 27.296875 
z
M 18.109375 46.390625 
Q 20.953125 51.265625 25.265625 53.625 
Q 29.59375 56 35.59375 56 
Q 45.5625 56 51.78125 48.09375 
Q 58.015625 40.1875 58.015625 27.296875 
Q 58.015625 14.40625 51.78125 6.484375 
Q 45.5625 -1.421875 35.59375 -1.421875 
Q 29.59375 -1.421875 25.265625 0.953125 
Q 20.953125 3.328125 18.109375 8.203125 
L 18.109375 0 
L 9.078125 0 
L 9.078125 75.984375 
L 18.109375 75.984375 
z
" id="DejaVuSans-62"/>
      <path d="M 8.015625 75.875 
L 15.828125 75.875 
Q 23.140625 64.359375 26.78125 53.3125 
Q 30.421875 42.28125 30.421875 31.390625 
Q 30.421875 20.453125 26.78125 9.375 
Q 23.140625 -1.703125 15.828125 -13.1875 
L 8.015625 -13.1875 
Q 14.5 -2 17.703125 9.0625 
Q 20.90625 20.125 20.90625 31.390625 
Q 20.90625 42.671875 17.703125 53.65625 
Q 14.5 64.65625 8.015625 75.875 
z
" id="DejaVuSans-29"/>
     </defs>
     <g transform="translate(4.395312 415.207812)rotate(-90)scale(0.1 -0.1)">
      <use xlink:href="#DejaVuSans-42"/>
      <use x="68.603516" xlink:href="#DejaVuSans-61"/>
      <use x="129.882812" xlink:href="#DejaVuSans-6e"/>
      <use x="193.261719" xlink:href="#DejaVuSans-64"/>
      <use x="256.738281" xlink:href="#DejaVuSans-77"/>
      <use x="338.525391" xlink:href="#DejaVuSans-69"/>
      <use x="366.308594" xlink:href="#DejaVuSans-64"/>
      <use x="429.785156" xlink:href="#DejaVuSans-74"/>
      <use x="468.994141" xlink:href="#DejaVuSans-68"/>
      <use x="532.373047" xlink:href="#DejaVuSans-20"/>
      <use x="564.160156" xlink:href="#DejaVuSans-28"/>
      <use x="603.173828" xlink:href="#DejaVuSans-6b"/>
      <use x="661.083984" xlink:href="#DejaVuSans-62"/>
      <use x="724.560547" xlink:href="#DejaVuSans-70"/>
      <use x="788.037109" xlink:href="#DejaVuSans-73"/>
      <use x="840.136719" xlink:href="#DejaVuSans-29"/>
     </g>
    </g>
   </g>
   <g id="LineCollection_1">
    <path clip-path="url(#p903cd197e3)" d="M 1066.607955 629.894369 
L 1259.755682 629.894369 
" style="fill:none;stroke:#000000;stroke-width:1.5;"/>
   </g>
   <g id="LineCollection_2">
    <path clip-path="url(#p903cd197e3)" d="M 100.869318 594.192339 
L 873.460227 594.192339 
" style="fill:none;stroke:#000000;stroke-width:1.5;"/>
   </g>
   <g id="line2d_13">
    <path clip-path="url(#p903cd197e3)" d="M 100.869318 687.549936 
L 101.835057 691.01809 
L 102.800795 684.781149 
L 103.766534 682.157737 
L 104.732273 638.472915 
L 105.698011 634.390292 
L 106.66375 684.823904 
L 107.629489 482.478636 
L 108.595227 529.508844 
L 109.560966 680.720515 
L 110.526705 690.588693 
L 111.492443 688.915082 
L 112.458182 646.213045 
L 113.42392 587.531109 
L 114.389659 693.37885 
L 115.355398 685.924577 
L 116.321136 690.05179 
L 117.286875 689.215603 
L 118.252614 689.109932 
L 119.218352 605.483298 
L 120.184091 694.857611 
L 121.14983 691.121926 
L 122.115568 689.960171 
L 123.081307 694.843565 
L 124.047045 690.089666 
L 125.012784 644.824686 
L 125.978523 664.945238 
L 126.944261 692.068676 
L 128.875739 691.012592 
L 129.841477 688.633499 
L 130.807216 690.112259 
L 131.772955 688.295727 
L 132.738693 692.975723 
L 133.704432 691.64905 
L 134.67017 687.02525 
L 135.635909 692.899978 
L 136.601648 685.512283 
L 137.567386 694.988321 
L 138.533125 688.998764 
L 139.498864 688.098438 
L 140.464602 690.624727 
L 141.430341 606.487467 
L 142.39608 689.339593 
L 143.361818 691.907421 
L 144.327557 683.472191 
L 145.293295 688.768491 
L 146.259034 687.959172 
L 147.224773 624.148301 
L 148.190511 692.367356 
L 149.15625 687.315993 
L 150.121989 689.592467 
L 151.087727 693.529722 
L 152.053466 690.487296 
L 153.019205 686.729622 
L 153.984943 692.191444 
L 154.950682 692.866994 
L 155.91642 677.030024 
L 156.882159 686.684421 
L 157.847898 690.016978 
L 158.813636 567.09294 
L 159.779375 692.049738 
L 160.745114 688.165016 
L 161.710852 693.632947 
L 162.676591 689.097714 
L 163.64233 682.995765 
L 164.608068 667.391515 
L 165.573807 615.364305 
L 166.539545 658.846952 
L 167.505284 692.41378 
L 168.471023 657.867218 
L 169.436761 628.726288 
L 170.4025 664.126752 
L 171.368239 674.451813 
L 172.333977 682.308609 
L 173.299716 662.138582 
L 174.265455 689.909473 
L 175.231193 689.001815 
L 176.196932 670.415608 
L 177.16267 690.473862 
L 178.128409 693.157737 
L 179.094148 685.718128 
L 180.059886 671.875437 
L 181.025625 630.412721 
L 181.991364 567.067894 
L 182.957102 653.989216 
L 183.922841 685.589856 
L 184.88858 662.506898 
L 185.854318 659.630001 
L 186.820057 692.648327 
L 187.785795 689.327376 
L 188.751534 679.773153 
L 189.717273 678.911307 
L 190.683011 673.264407 
L 191.64875 690.947842 
L 192.614489 690.426214 
L 193.580227 693.307997 
L 194.545966 694.009811 
L 195.511705 690.113483 
L 196.477443 462.15652 
L 197.443182 658.353422 
L 198.40892 691.470692 
L 199.374659 690.723678 
L 200.340398 690.201439 
L 201.306136 691.036409 
L 202.271875 693.460086 
L 203.237614 693.008095 
L 204.203352 692.094328 
L 205.169091 694.604737 
L 206.13483 609.154239 
L 207.100568 694.226038 
L 208.066307 661.071504 
L 209.032045 642.78948 
L 209.997784 693.282957 
L 211.929261 694.195501 
L 212.895 684.522778 
L 213.860739 692.561594 
L 214.826477 671.645164 
L 215.792216 661.35064 
L 216.757955 614.398616 
L 217.723693 689.279124 
L 218.689432 686.455371 
L 220.620909 685.371801 
L 221.586648 641.384019 
L 222.552386 693.336707 
L 223.518125 684.834898 
L 224.483864 548.820688 
L 225.449602 683.458757 
L 226.415341 629.065895 
L 227.38108 687.82174 
L 228.346818 693.079559 
L 229.312557 693.216379 
L 230.278295 626.650773 
L 231.244034 614.683869 
L 232.209773 692.301389 
L 233.175511 695.395118 
L 234.14125 694.021417 
L 235.106989 689.807471 
L 236.072727 617.915029 
L 237.038466 689.706686 
L 238.004205 694.165568 
L 238.969943 625.917193 
L 239.935682 620.925077 
L 240.90142 691.11704 
L 241.867159 694.687196 
L 242.832898 695.500789 
L 243.798636 694.229701 
L 244.764375 642.299002 
L 245.730114 694.838679 
L 246.695852 689.856335 
L 247.661591 578.055683 
L 249.593068 613.865995 
L 250.558807 626.424163 
L 251.524545 688.241366 
L 254.421761 694.199164 
L 255.3875 689.171625 
L 256.353239 622.708021 
L 257.318977 623.222316 
L 258.284716 693.080775 
L 259.250455 615.763158 
L 260.216193 617.501512 
L 261.181932 694.301777 
L 262.14767 620.779709 
L 263.113409 624.5496 
L 264.079148 680.845117 
L 265.044886 694.077612 
L 266.976364 538.389956 
L 267.942102 542.226426 
L 268.907841 689.100161 
L 269.87358 620.03758 
L 270.839318 690.903259 
L 271.805057 482.06573 
L 272.770795 650.695139 
L 273.736534 641.319879 
L 274.702273 615.667877 
L 275.668011 647.664319 
L 276.63375 661.728123 
L 277.599489 689.573529 
L 278.565227 690.535548 
L 279.530966 694.4557 
L 280.496705 688.737947 
L 281.462443 694.74278 
L 282.428182 690.264355 
L 283.39392 691.972777 
L 284.359659 624.286955 
L 285.325398 691.983771 
L 286.291136 690.865995 
L 287.256875 692.989768 
L 288.222614 691.120703 
L 289.188352 693.549265 
L 290.154091 692.462644 
L 291.11983 682.38557 
L 292.085568 551.843565 
L 293.051307 605.651885 
L 294.017045 622.147913 
L 294.982784 571.560983 
L 295.948523 543.948289 
L 296.914261 645.241254 
L 297.88 618.630895 
L 298.845739 693.173012 
L 299.811477 535.616902 
L 300.777216 692.95495 
L 301.742955 691.517116 
L 302.708693 657.039579 
L 303.674432 583.339146 
L 304.64017 689.810522 
L 305.605909 634.511843 
L 306.571648 606.865554 
L 307.537386 602.666266 
L 308.503125 677.485073 
L 309.468864 620.358248 
L 310.434602 695.215543 
L 311.400341 618.41161 
L 312.36608 500.644605 
L 313.331818 399.363246 
L 314.297557 689.055571 
L 315.263295 616.650662 
L 316.229034 693.596301 
L 317.194773 693.429548 
L 318.160511 689.161847 
L 319.12625 692.666654 
L 320.091989 691.435269 
L 321.057727 689.099549 
L 322.023466 693.866277 
L 322.989205 689.795254 
L 323.954943 565.476137 
L 324.920682 693.805196 
L 326.852159 553.889154 
L 327.817898 689.139246 
L 328.783636 694.343315 
L 329.749375 692.661156 
L 330.715114 609.135307 
L 331.680852 689.480076 
L 332.646591 545.855224 
L 333.61233 598.087055 
L 334.578068 467.240866 
L 335.543807 634.637668 
L 336.509545 690.818354 
L 337.475284 479.968227 
L 338.441023 609.540269 
L 339.406761 691.512231 
L 340.3725 619.87449 
L 341.338239 652.636281 
L 342.303977 400.189057 
L 343.269716 589.133861 
L 344.235455 556.006812 
L 345.201193 665.089994 
L 346.166932 567.802086 
L 347.13267 597.7731 
L 348.098409 692.323378 
L 349.064148 617.24253 
L 350.029886 627.527276 
L 350.995625 486.083609 
L 351.961364 545.350088 
L 352.927102 675.622116 
L 353.892841 654.431436 
L 354.85858 492.170901 
L 355.824318 690.123254 
L 356.790057 687.998876 
L 357.755795 482.518951 
L 358.721534 568.666377 
L 359.687273 604.921967 
L 360.653011 589.582807 
L 361.61875 660.013592 
L 362.584489 686.018642 
L 363.550227 614.313107 
L 364.515966 691.105434 
L 365.481705 691.446264 
L 366.447443 695.75 
L 367.413182 693.493681 
L 368.37892 627.169954 
L 369.344659 609.708856 
L 370.310398 628.428213 
L 371.276136 690.884321 
L 372.241875 685.823799 
L 373.207614 528.084445 
L 374.173352 688.175399 
L 375.139091 691.047404 
L 376.10483 687.344091 
L 377.070568 693.427102 
L 378.036307 614.124977 
L 379.002045 608.189169 
L 379.967784 607.601574 
L 380.933523 661.583971 
L 381.899261 458.460533 
L 382.865 566.419829 
L 383.830739 612.669428 
L 384.796477 687.829684 
L 385.762216 689.141081 
L 386.727955 601.76227 
L 387.693693 687.742944 
L 388.659432 686.350312 
L 389.62517 614.743727 
L 390.590909 526.215991 
L 391.556648 666.019641 
L 392.522386 520.252085 
L 393.488125 625.898866 
L 394.453864 614.344867 
L 395.419602 692.044853 
L 396.385341 688.015979 
L 397.35108 554.425439 
L 398.316818 617.521055 
L 399.282557 552.828185 
L 400.248295 692.648327 
L 401.214034 687.333097 
L 402.179773 620.347865 
L 403.145511 689.252249 
L 404.11125 484.332433 
L 405.076989 689.751887 
L 406.042727 691.257522 
L 407.008466 690.916693 
L 407.974205 683.648715 
L 408.939943 638.537659 
L 409.905682 573.745226 
L 410.87142 625.13536 
L 411.837159 485.037297 
L 412.802898 575.449374 
L 413.768636 552.673038 
L 414.734375 582.998316 
L 415.700114 503.901424 
L 416.665852 643.069229 
L 417.631591 576.857887 
L 418.59733 652.624675 
L 419.563068 652.506786 
L 420.528807 641.677201 
L 421.494545 471.622176 
L 422.460284 481.592967 
L 423.426023 475.292505 
L 424.391761 488.152411 
L 425.3575 647.520779 
L 426.323239 455.740617 
L 427.288977 593.189616 
L 428.254716 568.231483 
L 429.220455 584.371413 
L 430.186193 650.161906 
L 431.151932 604.83768 
L 432.11767 600.017202 
L 433.083409 570.066953 
L 434.049148 656.265078 
L 435.014886 656.725012 
L 435.980625 653.399787 
L 436.946364 240.333261 
L 437.912102 664.670375 
L 438.877841 662.085444 
L 439.84358 647.831683 
L 440.809318 649.275014 
L 441.775057 648.501124 
L 442.740795 277.029249 
L 443.706534 560.20061 
L 444.672273 610.207883 
L 445.638011 520.306446 
L 446.60375 680.961782 
L 448.535227 547.671763 
L 449.500966 470.828125 
L 450.466705 690.534943 
L 451.432443 688.407507 
L 452.398182 610.687972 
L 453.36392 685.963058 
L 454.329659 680.347925 
L 455.295398 580.366356 
L 456.261136 630.566644 
L 457.226875 303.100265 
L 458.192614 644.998152 
L 459.158352 492.05179 
L 460.124091 649.068564 
L 461.08983 587.633723 
L 462.055568 471.270352 
L 463.021307 478.756385 
L 463.987045 571.571366 
L 464.952784 617.665207 
L 465.918523 532.709461 
L 467.85 632.778986 
L 468.815739 643.425327 
L 469.781477 475.917969 
L 470.747216 641.709573 
L 471.712955 635.073174 
L 472.678693 636.105434 
L 473.644432 505.104711 
L 474.61017 643.411281 
L 475.575909 567.660985 
L 476.541648 638.243253 
L 477.507386 650.596189 
L 478.473125 665.816243 
L 479.438864 683.706134 
L 480.404602 661.783707 
L 481.370341 677.309773 
L 482.33608 679.567315 
L 483.301818 657.011481 
L 484.267557 604.436381 
L 485.233295 672.510672 
L 486.199034 659.762546 
L 487.164773 542.329651 
L 488.130511 673.898426 
L 489.09625 663.820129 
L 490.061989 690.296115 
L 491.027727 668.514782 
L 491.993466 663.901365 
L 492.959205 691.86222 
L 493.924943 646.446987 
L 494.890682 554.772989 
L 495.85642 407.626838 
L 496.822159 623.796477 
L 497.787898 560.129751 
L 498.753636 657.385294 
L 499.719375 568.53566 
L 500.685114 625.941016 
L 501.650852 585.954621 
L 502.616591 489.860221 
L 503.58233 608.344926 
L 504.548068 438.856723 
L 505.513807 514.67726 
L 506.479545 643.234146 
L 507.445284 361.705858 
L 508.411023 548.154909 
L 509.376761 566.456482 
L 510.3425 573.243753 
L 511.308239 593.443706 
L 512.273977 669.537882 
L 513.239716 630.504958 
L 514.205455 642.667318 
L 515.171193 618.602797 
L 516.136932 632.393566 
L 517.10267 635.527 
L 518.068409 623.880159 
L 519.034148 644.474079 
L 519.999886 643.04724 
L 521.931364 516.222599 
L 522.897102 628.23337 
L 523.862841 633.400175 
L 524.82858 634.171625 
L 525.794318 635.166016 
L 526.760057 552.949124 
L 527.725795 631.488966 
L 528.691534 645.817854 
L 529.657273 636.451761 
L 530.623011 557.293169 
L 531.58875 619.965504 
L 532.554489 642.209211 
L 533.520227 646.230148 
L 534.485966 645.838008 
L 535.451705 613.798811 
L 536.417443 634.980325 
L 537.383182 567.988381 
L 538.34892 644.777039 
L 539.314659 637.604349 
L 540.280398 635.974723 
L 541.246136 529.353698 
L 542.211875 633.780097 
L 543.177614 685.291782 
L 544.143352 689.672479 
L 545.109091 688.2322 
L 546.07483 689.141692 
L 547.040568 611.819189 
L 548.006307 612.756161 
L 548.972045 660.301888 
L 549.937784 664.125536 
L 550.903523 694.1729 
L 551.869261 622.163182 
L 552.835 616.444205 
L 553.800739 686.377186 
L 554.766477 688.537606 
L 555.732216 399.258187 
L 556.697955 690.81408 
L 557.663693 676.780209 
L 558.629432 626.95495 
L 559.59517 613.144027 
L 560.560909 614.124365 
L 561.526648 544.306222 
L 562.492386 692.861497 
L 563.458125 691.941016 
L 564.423864 605.419777 
L 565.389602 692.057682 
L 566.355341 688.16929 
L 567.32108 692.402785 
L 568.286818 691.742504 
L 569.252557 692.67459 
L 570.218295 691.212321 
L 571.184034 692.099214 
L 572.149773 689.646828 
L 573.115511 690.975328 
L 574.08125 691.330821 
L 575.046989 692.385071 
L 576.012727 690.292453 
L 576.978466 691.046188 
L 577.944205 692.393014 
L 578.909943 629.002374 
L 579.875682 667.738446 
L 580.84142 553.595354 
L 581.807159 487.895263 
L 582.772898 575.6546 
L 583.738636 582.655047 
L 584.704375 573.811805 
L 585.670114 521.167679 
L 586.635852 527.177398 
L 587.601591 502.291953 
L 588.56733 602.743227 
L 589.533068 565.694804 
L 590.498807 601.877712 
L 591.464545 608.174511 
L 592.430284 579.844117 
L 593.396023 601.251637 
L 594.361761 412.263467 
L 596.293239 590.997429 
L 597.258977 542.969167 
L 598.224716 456.563981 
L 599.190455 514.344367 
L 600.156193 548.911695 
L 601.121932 599.548101 
L 602.08767 600.539441 
L 603.053409 519.420165 
L 604.019148 632.174899 
L 604.984886 628.162517 
L 605.950625 638.654936 
L 606.916364 598.109044 
L 607.882102 583.654324 
L 608.847841 464.55515 
L 609.81358 418.367244 
L 610.779318 425.115429 
L 611.745057 563.342592 
L 612.710795 584.785535 
L 613.676534 345.732061 
L 614.642273 503.896539 
L 615.608011 175.947625 
L 616.57375 345.058957 
L 617.539489 588.433882 
L 618.505227 545.259686 
L 619.470966 480.356085 
L 621.402443 659.355138 
L 622.368182 524.119703 
L 623.33392 463.492964 
L 624.299659 532.578138 
L 625.265398 580.244805 
L 626.231136 568.964445 
L 627.196875 490.500349 
L 628.162614 497.671815 
L 629.128352 490.814908 
L 630.094091 469.344479 
L 631.05983 472.957396 
L 632.025568 585.899649 
L 632.991307 526.003426 
L 633.957045 573.504563 
L 634.922784 483.965945 
L 635.888523 554.718628 
L 636.854261 463.625503 
L 637.82 439.732009 
L 638.785739 577.584747 
L 639.751477 542.579473 
L 640.717216 548.847563 
L 641.682955 508.697467 
L 642.648693 436.674926 
L 643.614432 551.837456 
L 644.58017 527.950676 
L 645.545909 515.435881 
L 646.511648 594.253025 
L 647.477386 586.049903 
L 648.443125 504.164681 
L 649.408864 505.191444 
L 650.374602 576.343591 
L 651.340341 578.426438 
L 652.30608 629.169126 
L 653.271818 522.828461 
L 654.237557 535.073279 
L 655.203295 554.507286 
L 656.169034 558.691917 
L 657.134773 497.793978 
L 658.100511 506.524225 
L 659.06625 291.082058 
L 660.031989 359.343867 
L 660.997727 525.11654 
L 661.963466 527.746666 
L 662.929205 518.468529 
L 663.894943 590.386622 
L 664.860682 591.276572 
L 665.82642 572.892541 
L 666.792159 512.828349 
L 667.757898 645.483133 
L 668.723636 622.005596 
L 669.689375 581.343039 
L 670.655114 386.168015 
L 671.620852 572.810693 
L 672.586591 431.619901 
L 673.55233 517.871163 
L 674.518068 411.111484 
L 675.483807 358.248087 
L 676.449545 252.604961 
L 677.415284 491.857558 
L 678.381023 410.52145 
L 679.346761 197.148689 
L 680.3125 406.669705 
L 681.278239 413.240143 
L 682.243977 146.09755 
L 683.209716 617.087384 
L 684.175455 530.246692 
L 685.141193 506.416108 
L 686.106932 577.000211 
L 687.07267 501.423387 
L 688.038409 563.309608 
L 689.004148 415.151963 
L 689.969886 577.540157 
L 690.935625 571.046687 
L 691.901364 587.547601 
L 692.867102 536.624727 
L 693.832841 509.762717 
L 694.79858 588.551152 
L 695.764318 560.074174 
L 696.730057 628.416607 
L 697.695795 596.57103 
L 698.661534 615.052185 
L 699.627273 589.021476 
L 700.593011 475.221652 
L 701.55875 564.693693 
L 702.524489 501.819801 
L 703.490227 563.279071 
L 704.455966 485.807524 
L 705.421705 575.904423 
L 706.387443 506.284785 
L 707.353182 568.155738 
L 708.31892 620.696639 
L 709.284659 641.345538 
L 710.250398 632.122366 
L 711.216136 641.347366 
L 712.181875 632.452201 
L 713.147614 635.776822 
L 714.113352 621.85717 
L 715.079091 553.184283 
L 716.04483 419.577251 
L 717.010568 541.029249 
L 717.976307 491.058622 
L 718.942045 428.851114 
L 719.907784 565.34298 
L 720.873523 597.708961 
L 721.839261 573.320715 
L 722.805 498.252689 
L 723.770739 570.088331 
L 724.736477 495.796029 
L 725.702216 568.213157 
L 726.667955 591.291229 
L 727.633693 629.806196 
L 728.599432 588.609794 
L 729.56517 646.263132 
L 732.462386 554.698466 
L 733.428125 391.803309 
L 734.393864 539.974388 
L 735.359602 600.882098 
L 736.325341 582.64039 
L 737.29108 480.401286 
L 738.256818 545.415444 
L 739.222557 416.606296 
L 740.188295 518.517393 
L 741.154034 593.310555 
L 742.119773 378.836509 
L 743.085511 584.593131 
L 744.05125 592.759607 
L 745.016989 455.460868 
L 745.982727 221.721402 
L 746.948466 550.948736 
L 747.914205 494.028361 
L 748.879943 572.694028 
L 749.845682 511.965892 
L 750.81142 526.981937 
L 751.777159 593.396065 
L 752.742898 583.196218 
L 753.708636 578.47469 
L 754.674375 511.860833 
L 755.640114 572.553539 
L 756.605852 453.828185 
L 757.571591 553.227038 
L 758.53733 577.040519 
L 759.503068 419.109984 
L 760.468807 401.643389 
L 761.434545 541.332209 
L 762.400284 312.303887 
L 763.366023 458.075114 
L 764.331761 417.247028 
L 765.2975 531.801198 
L 766.263239 539.93041 
L 767.228977 418.118651 
L 768.194716 363.595689 
L 769.160455 340.791867 
L 770.126193 390.837621 
L 771.091932 567.66282 
L 772.05767 594.93713 
L 773.023409 504.921467 
L 773.989148 592.838396 
L 774.954886 386.947401 
L 775.920625 419.951064 
L 776.886364 418.759995 
L 777.852102 452.193666 
L 778.817841 537.024803 
L 779.78358 591.694968 
L 780.749318 541.541104 
L 781.715057 353.566256 
L 782.680795 485.179009 
L 783.646534 543.550041 
L 784.612273 410.798752 
L 785.578011 396.949953 
L 786.54375 541.888654 
L 787.509489 577.277512 
L 788.475227 585.437268 
L 789.440966 595.292005 
L 790.406705 574.928963 
L 791.372443 602.614344 
L 792.338182 596.323049 
L 793.30392 601.237592 
L 794.269659 575.917252 
L 795.235398 602.433546 
L 796.201136 580.408506 
L 797.166875 518.764769 
L 798.132614 583.196829 
L 799.098352 593.04119 
L 800.064091 462.61829 
L 801.02983 425.627897 
L 801.995568 567.436821 
L 802.961307 566.033799 
L 803.927045 502.561318 
L 804.892784 617.164345 
L 805.858523 524.103212 
L 806.824261 356.397341 
L 807.79 626.55732 
L 808.755739 460.65149 
L 809.721477 675.521338 
L 810.687216 613.285121 
L 811.652955 593.816907 
L 812.618693 559.772429 
L 813.584432 483.338646 
L 814.55017 557.882598 
L 815.515909 585.313882 
L 816.481648 579.180173 
L 817.447386 501.415444 
L 818.413125 455.965392 
L 819.378864 528.946902 
L 820.344602 499.575087 
L 821.310341 566.382572 
L 822.27608 558.128147 
L 824.207557 373.717352 
L 825.173295 529.409894 
L 826.139034 465.377298 
L 827.104773 328.32105 
L 828.070511 557.633999 
L 829.03625 511.701412 
L 830.001989 374.632947 
L 830.967727 509.396841 
L 831.933466 502.263243 
L 832.899205 584.530833 
L 833.864943 597.853113 
L 834.830682 576.78276 
L 835.79642 591.159907 
L 836.762159 615.262908 
L 837.727898 528.139417 
L 838.693636 583.745338 
L 839.659375 514.347425 
L 840.625114 510.965392 
L 841.590852 454.029748 
L 842.556591 602.62595 
L 843.52233 494.798588 
L 844.488068 578.269464 
L 845.453807 499.607459 
L 846.419545 365.585082 
L 847.385284 414.249191 
L 848.351023 385.248751 
L 849.316761 455.741228 
L 850.2825 596.080558 
L 851.248239 577.937183 
L 852.213977 578.262744 
L 853.179716 572.901089 
L 854.145455 481.876377 
L 855.111193 596.330986 
L 856.076932 583.698302 
L 857.04267 575.48602 
L 858.008409 597.175728 
L 858.974148 572.017866 
L 859.939886 490.555933 
L 860.905625 588.988493 
L 861.871364 519.95401 
L 862.837102 471.694863 
L 863.802841 575.432271 
L 864.76858 580.967391 
L 865.734318 603.466418 
L 866.700057 578.255412 
L 867.665795 574.69869 
L 868.631534 573.339041 
L 869.597273 565.512783 
L 870.563011 504.707074 
L 871.52875 489.615903 
L 872.494489 606.612069 
L 872.494489 606.612069 
" style="fill:none;stroke:#1f77b4;stroke-linecap:square;stroke-width:1.5;"/>
   </g>
   <g id="line2d_14">
    <path clip-path="url(#p903cd197e3)" d="M 873.460227 586.1739 
L 874.425966 592.460921 
L 875.391705 563.22715 
L 876.357443 515.450538 
L 877.323182 544.173676 
L 879.254659 576.854836 
L 880.220398 641.879988 
L 881.186136 636.182396 
L 882.151875 589.336647 
L 883.117614 634.273015 
L 884.083352 259.860109 
L 885.049091 515.57514 
L 886.01483 588.896262 
L 886.980568 460.645388 
L 887.946307 537.426103 
L 888.912045 581.928187 
L 889.877784 501.158296 
L 890.843523 567.477136 
L 891.809261 570.930022 
L 892.775 589.403837 
L 893.740739 503.361471 
L 894.706477 608.665595 
L 895.672216 536.40606 
L 896.637955 624.833011 
L 897.603693 528.734948 
L 898.569432 587.066894 
L 899.53517 315.719515 
L 900.500909 528.998212 
L 901.466648 566.77043 
L 902.432386 435.998764 
L 903.398125 564.520227 
L 904.363864 560.53472 
L 905.329602 577.12115 
L 906.295341 560.283674 
L 907.26108 550.985994 
L 908.226818 512.902259 
L 909.192557 546.844729 
L 910.158295 565.453536 
L 911.124034 425.01037 
L 912.089773 527.832183 
L 913.055511 580.746278 
L 914.02125 292.095991 
L 914.986989 498.621617 
L 915.952727 533.211545 
L 916.918466 179.190392 
L 918.849943 568.601015 
L 919.815682 378.041243 
L 920.78142 384.841342 
L 921.747159 370.036021 
L 922.712898 525.2216 
L 923.678636 599.256747 
L 924.644375 482.953234 
L 925.610114 466.051625 
L 926.575852 540.518004 
L 927.541591 582.162734 
L 928.50733 516.553039 
L 929.473068 502.2779 
L 930.438807 510.898202 
L 931.404545 510.288007 
L 932.370284 402.582196 
L 933.336023 376.904535 
L 934.301761 305.360859 
L 935.2675 534.383072 
L 936.233239 420.022528 
L 937.198977 570.639279 
L 938.164716 438.955673 
L 939.130455 596.916141 
L 940.096193 540.760495 
L 941.061932 499.5024 
L 942.02767 587.256858 
L 942.993409 536.239919 
L 943.959148 575.832959 
L 944.924886 518.443489 
L 945.890625 567.566316 
L 946.856364 575.075561 
L 947.822102 585.932021 
L 948.787841 532.313659 
L 949.75358 573.416607 
L 950.719318 577.60185 
L 951.685057 591.809806 
L 952.650795 489.604908 
L 953.616534 563.318768 
L 954.582273 579.338982 
L 955.548011 521.724125 
L 956.51375 548.374799 
L 957.479489 562.238256 
L 958.445227 564.644829 
L 959.410966 544.403338 
L 960.376705 531.153739 
L 961.342443 594.259134 
L 962.308182 586.592303 
L 963.27392 593.540828 
L 964.239659 577.097326 
L 965.205398 576.034522 
L 966.171136 592.459698 
L 967.136875 582.756437 
L 968.102614 576.692969 
L 969.068352 590.204608 
L 970.034091 590.754333 
L 970.99983 485.812409 
L 971.965568 569.59419 
L 972.931307 442.727399 
L 973.897045 490.438044 
L 974.862784 447.862444 
L 975.828523 570.445041 
L 976.794261 434.997041 
L 977.76 432.667429 
L 978.725739 597.343703 
L 979.691477 370.286456 
L 980.657216 575.376075 
L 981.622955 583.633558 
L 982.588693 528.835733 
L 983.554432 616.783207 
L 984.52017 580.912419 
L 985.485909 606.705522 
L 986.451648 596.906974 
L 987.417386 579.156349 
L 988.383125 578.543103 
L 989.348864 544.618954 
L 990.314602 593.047292 
L 991.280341 494.515781 
L 992.24608 619.270404 
L 993.211818 596.74084 
L 994.177557 593.09799 
L 995.143295 538.118152 
L 996.109034 531.823799 
L 997.074773 596.076889 
L 998.040511 585.580808 
L 999.00625 596.548436 
L 999.971989 598.946454 
L 1000.937727 576.221429 
L 1001.903466 610.644605 
L 1002.869205 601.101988 
L 1003.834943 530.236309 
L 1004.800682 582.987934 
L 1005.76642 570.052289 
L 1006.732159 425.33837 
L 1007.697898 587.062008 
L 1008.663636 359.476413 
L 1009.629375 400.879876 
L 1010.595114 327.135472 
L 1011.560852 411.56043 
L 1012.526591 482.827402 
L 1013.49233 508.35114 
L 1014.458068 427.732732 
L 1015.423807 432.068229 
L 1016.389545 589.867441 
L 1017.355284 497.246692 
L 1018.321023 591.487907 
L 1019.286761 366.45426 
L 1020.2525 363.582248 
L 1021.218239 406.793702 
L 1022.183977 457.310384 
L 1023.149716 442.875825 
L 1024.115455 522.289119 
L 1025.081193 587.432159 
L 1026.046932 597.441431 
L 1027.01267 589.927911 
L 1027.978409 588.929851 
L 1028.944148 598.121867 
L 1029.909886 497.847116 
L 1030.875625 436.887484 
L 1031.841364 647.660657 
L 1033.772841 493.650274 
L 1034.73858 636.316769 
L 1035.704318 606.113654 
L 1036.670057 492.555097 
L 1037.635795 602.698026 
L 1038.601534 575.734008 
L 1039.567273 582.104099 
L 1040.533011 580.316269 
L 1041.49875 503.227702 
L 1042.464489 572.970114 
L 1043.430227 573.261468 
L 1044.395966 592.832294 
L 1045.361705 561.449703 
L 1046.327443 474.610234 
L 1047.293182 473.953622 
L 1048.25892 505.717957 
L 1049.224659 577.160236 
L 1050.190398 580.657099 
L 1051.156136 548.730286 
L 1052.121875 489.05396 
L 1053.087614 446.574252 
L 1054.053352 527.20061 
L 1055.019091 596.244253 
L 1055.98483 607.742056 
L 1056.950568 588.268964 
L 1057.916307 599.790592 
L 1058.882045 585.668764 
L 1059.847784 584.014092 
L 1060.813523 456.077172 
L 1061.779261 565.53416 
L 1062.745 426.442095 
L 1063.710739 580.505011 
L 1064.676477 519.740229 
L 1065.642216 642.128587 
L 1065.642216 642.128587 
" style="fill:none;stroke:#ff7f0e;stroke-linecap:square;stroke-width:1.5;"/>
   </g>
   <g id="line2d_15">
    <path clip-path="url(#p903cd197e3)" d="M 1066.607955 638.335484 
L 1067.573693 639.715905 
L 1068.539432 685.891594 
L 1069.50517 652.999099 
L 1070.470909 634.222316 
L 1071.436648 630.442042 
L 1072.402386 626.206108 
L 1073.368125 630.385235 
L 1074.333864 631.479799 
L 1075.299602 628.503959 
L 1076.265341 556.387346 
L 1077.23108 512.832011 
L 1078.196818 501.254189 
L 1079.162557 564.232535 
L 1080.128295 593.113871 
L 1081.094034 561.01298 
L 1082.059773 578.034298 
L 1083.025511 685.714458 
L 1083.99125 690.826902 
L 1084.956989 678.568032 
L 1085.922727 689.614456 
L 1086.888466 686.987381 
L 1087.854205 685.710184 
L 1088.819943 690.607624 
L 1089.785682 689.594302 
L 1090.75142 589.658546 
L 1091.717159 545.756273 
L 1092.682898 489.760659 
L 1093.648636 576.328934 
L 1094.614375 691.608123 
L 1095.580114 610.941457 
L 1096.545852 545.744667 
L 1097.511591 606.910755 
L 1098.47733 685.03708 
L 1099.443068 689.748836 
L 1100.408807 548.911084 
L 1101.374545 686.320379 
L 1102.340284 688.656099 
L 1103.306023 687.599411 
L 1104.271761 434.512671 
L 1105.2375 537.498178 
L 1106.203239 536.967391 
L 1107.168977 619.137247 
L 1108.134716 583.911472 
L 1109.100455 659.217102 
L 1110.066193 686.85911 
L 1111.031932 364.904646 
L 1111.99767 593.463867 
L 1112.963409 690.837292 
L 1113.929148 682.31838 
L 1114.894886 636.259969 
L 1115.860625 692.063179 
L 1116.826364 694.422105 
L 1117.792102 690.312607 
L 1119.72358 690.51784 
L 1120.689318 690.935019 
L 1121.655057 688.512559 
L 1122.620795 692.805308 
L 1123.586534 687.564593 
L 1124.552273 649.417942 
L 1125.518011 668.968003 
L 1126.48375 683.764157 
L 1127.449489 660.775875 
L 1128.415227 645.158796 
L 1129.380966 678.38968 
L 1130.346705 679.3743 
L 1131.312443 601.837397 
L 1132.278182 541.346254 
L 1133.24392 609.774212 
L 1134.209659 596.176451 
L 1135.175398 686.735119 
L 1136.141136 602.395066 
L 1137.106875 555.248803 
L 1138.072614 685.829296 
L 1140.004091 525.69314 
L 1140.96983 619.056623 
L 1142.901307 611.720239 
L 1143.867045 607.613792 
L 1144.832784 690.35475 
L 1145.798523 689.513059 
L 1146.764261 689.470916 
L 1147.73 608.589856 
L 1148.695739 482.920855 
L 1150.627216 622.548601 
L 1151.592955 624.752387 
L 1152.558693 689.729287 
L 1154.49017 550.926136 
L 1155.455909 642.944626 
L 1156.421648 587.388181 
L 1157.387386 691.738841 
L 1158.353125 690.199611 
L 1159.318864 664.776651 
L 1160.284602 649.168731 
L 1161.250341 617.229096 
L 1162.21608 630.31072 
L 1163.181818 628.342092 
L 1164.147557 630.95084 
L 1165.113295 626.590915 
L 1166.079034 693.785035 
L 1167.044773 687.858386 
L 1168.010511 680.787705 
L 1168.97625 534.942568 
L 1169.941989 691.59469 
L 1170.907727 685.724237 
L 1171.873466 691.413892 
L 1172.839205 687.873662 
L 1173.804943 688.909585 
L 1174.770682 645.451373 
L 1175.73642 692.271463 
L 1176.702159 46.75 
L 1177.667898 672.034246 
L 1178.633636 483.625727 
L 1179.599375 619.477472 
L 1180.565114 689.648051 
L 1181.530852 690.743839 
L 1182.496591 617.335983 
L 1183.46233 678.859386 
L 1184.428068 545.05446 
L 1185.393807 597.468917 
L 1186.359545 608.628337 
L 1187.325284 687.162682 
L 1188.291023 689.51734 
L 1189.256761 685.283233 
L 1190.2225 675.418107 
L 1191.188239 692.172512 
L 1192.153977 690.426214 
L 1193.119716 624.225262 
L 1194.085455 547.419501 
L 1195.051193 541.936907 
L 1196.016932 577.209711 
L 1196.98267 531.117704 
L 1197.948409 616.18156 
L 1198.914148 618.739005 
L 1199.879886 614.452984 
L 1200.845625 692.630001 
L 1201.811364 625.213544 
L 1202.777102 690.096991 
L 1203.742841 692.334984 
L 1204.70858 690.347425 
L 1205.674318 691.174452 
L 1206.640057 694.303611 
L 1207.605795 691.55682 
L 1208.571534 621.998264 
L 1209.537273 693.34709 
L 1210.503011 692.312383 
L 1211.46875 624.447592 
L 1212.434489 693.789316 
L 1213.400227 555.565816 
L 1214.365966 695.34198 
L 1215.331705 624.305275 
L 1216.297443 606.25841 
L 1217.263182 616.026414 
L 1218.22892 691.519556 
L 1219.194659 660.252413 
L 1220.160398 497.083609 
L 1222.091875 517.259134 
L 1223.057614 392.644993 
L 1224.023352 622.453313 
L 1224.989091 691.165292 
L 1225.95483 692.596412 
L 1226.920568 688.88271 
L 1227.886307 546.152075 
L 1228.852045 605.9976 
L 1229.817784 509.524501 
L 1230.783523 566.389292 
L 1231.749261 691.335707 
L 1232.715 693.047792 
L 1233.680739 680.053513 
L 1234.646477 634.693252 
L 1235.612216 463.059898 
L 1236.577955 685.848839 
L 1237.543693 613.591132 
L 1238.509432 689.070228 
L 1239.47517 613.849503 
L 1240.440909 613.387734 
L 1241.406648 614.675314 
L 1242.372386 689.643165 
L 1243.338125 692.713071 
L 1244.303864 620.489571 
L 1245.269602 620.252584 
L 1246.235341 562.488683 
L 1247.20108 691.200111 
L 1248.166818 687.188945 
L 1249.132557 690.00171 
L 1250.098295 690.485468 
L 1251.064034 619.853724 
L 1252.029773 693.927964 
L 1252.995511 687.932909 
L 1253.96125 690.235645 
L 1254.926989 631.700301 
L 1255.892727 606.979162 
L 1256.858466 627.956673 
L 1257.824205 692.717352 
L 1258.789943 623.772041 
L 1258.789943 623.772041 
" style="fill:none;stroke:#2ca02c;stroke-linecap:square;stroke-width:1.5;"/>
   </g>
   <g id="patch_3">
    <path d="M 42.925 728.2 
L 42.925 14.3 
" style="fill:none;stroke:#000000;stroke-linecap:square;stroke-linejoin:miter;stroke-width:0.8;"/>
   </g>
   <g id="patch_4">
    <path d="M 1317.7 728.2 
L 1317.7 14.3 
" style="fill:none;stroke:#000000;stroke-linecap:square;stroke-linejoin:miter;stroke-width:0.8;"/>
   </g>
   <g id="patch_5">
    <path d="M 42.925 728.2 
L 1317.7 728.2 
" style="fill:none;stroke:#000000;stroke-linecap:square;stroke-linejoin:miter;stroke-width:0.8;"/>
   </g>
   <g id="patch_6">
    <path d="M 42.925 14.3 
L 1317.7 14.3 
" style="fill:none;stroke:#000000;stroke-linecap:square;stroke-linejoin:miter;stroke-width:0.8;"/>
   </g>
  </g>
 </g>
 <defs>
  <clipPath id="p903cd197e3">
   <rect height="713.9" width="1274.775" x="42.925" y="14.3"/>
  </clipPath>
 </defs>
</svg>
