<?xml version="1.0" encoding="utf-8" standalone="no"?>
<!DOCTYPE svg PUBLIC "-//W3C//DTD SVG 1.1//EN"
  "http://www.w3.org/Graphics/SVG/1.1/DTD/svg11.dtd">
<!-- Created with matplotlib (http://matplotlib.org/) -->
<svg height="756pt" version="1.1" viewBox="0 0 1332 756" width="1332pt" xmlns="http://www.w3.org/2000/svg" xmlns:xlink="http://www.w3.org/1999/xlink">
 <defs>
  <style type="text/css">
*{stroke-linecap:butt;stroke-linejoin:round;}
  </style>
 </defs>
 <g id="figure_1">
  <g id="patch_1">
   <path d="M 0 756 
L 1332 756 
L 1332 0 
L 0 0 
z
" style="fill:#ffffff;"/>
  </g>
  <g id="axes_1">
   <g id="patch_2">
    <path d="M 42.925 728.2 
L 1317.7 728.2 
L 1317.7 14.3 
L 42.925 14.3 
z
" style="fill:#ffffff;"/>
   </g>
   <g id="matplotlib.axis_1">
    <g id="xtick_1">
     <g id="line2d_1">
      <defs>
       <path d="M 0 0 
L 0 3.5 
" id="m7180996468" style="stroke:#000000;stroke-width:0.8;"/>
      </defs>
      <g>
       <use style="stroke:#000000;stroke-width:0.8;" x="100.869318" xlink:href="#m7180996468" y="728.2"/>
      </g>
     </g>
     <g id="text_1">
      <!-- 0 -->
      <defs>
       <path d="M 31.78125 66.40625 
Q 24.171875 66.40625 20.328125 58.90625 
Q 16.5 51.421875 16.5 36.375 
Q 16.5 21.390625 20.328125 13.890625 
Q 24.171875 6.390625 31.78125 6.390625 
Q 39.453125 6.390625 43.28125 13.890625 
Q 47.125 21.390625 47.125 36.375 
Q 47.125 51.421875 43.28125 58.90625 
Q 39.453125 66.40625 31.78125 66.40625 
z
M 31.78125 74.21875 
Q 44.046875 74.21875 50.515625 64.515625 
Q 56.984375 54.828125 56.984375 36.375 
Q 56.984375 17.96875 50.515625 8.265625 
Q 44.046875 -1.421875 31.78125 -1.421875 
Q 19.53125 -1.421875 13.0625 8.265625 
Q 6.59375 17.96875 6.59375 36.375 
Q 6.59375 54.828125 13.0625 64.515625 
Q 19.53125 74.21875 31.78125 74.21875 
z
" id="DejaVuSans-30"/>
      </defs>
      <g transform="translate(97.688068 742.798437)scale(0.1 -0.1)">
       <use xlink:href="#DejaVuSans-30"/>
      </g>
     </g>
    </g>
    <g id="xtick_2">
     <g id="line2d_2">
      <g>
       <use style="stroke:#000000;stroke-width:0.8;" x="294.017045" xlink:href="#m7180996468" y="728.2"/>
      </g>
     </g>
     <g id="text_2">
      <!-- 200 -->
      <defs>
       <path d="M 19.1875 8.296875 
L 53.609375 8.296875 
L 53.609375 0 
L 7.328125 0 
L 7.328125 8.296875 
Q 12.9375 14.109375 22.625 23.890625 
Q 32.328125 33.6875 34.8125 36.53125 
Q 39.546875 41.84375 41.421875 45.53125 
Q 43.3125 49.21875 43.3125 52.78125 
Q 43.3125 58.59375 39.234375 62.25 
Q 35.15625 65.921875 28.609375 65.921875 
Q 23.96875 65.921875 18.8125 64.3125 
Q 13.671875 62.703125 7.8125 59.421875 
L 7.8125 69.390625 
Q 13.765625 71.78125 18.9375 73 
Q 24.125 74.21875 28.421875 74.21875 
Q 39.75 74.21875 46.484375 68.546875 
Q 53.21875 62.890625 53.21875 53.421875 
Q 53.21875 48.921875 51.53125 44.890625 
Q 49.859375 40.875 45.40625 35.40625 
Q 44.1875 33.984375 37.640625 27.21875 
Q 31.109375 20.453125 19.1875 8.296875 
z
" id="DejaVuSans-32"/>
      </defs>
      <g transform="translate(284.473295 742.798437)scale(0.1 -0.1)">
       <use xlink:href="#DejaVuSans-32"/>
       <use x="63.623047" xlink:href="#DejaVuSans-30"/>
       <use x="127.246094" xlink:href="#DejaVuSans-30"/>
      </g>
     </g>
    </g>
    <g id="xtick_3">
     <g id="line2d_3">
      <g>
       <use style="stroke:#000000;stroke-width:0.8;" x="487.164773" xlink:href="#m7180996468" y="728.2"/>
      </g>
     </g>
     <g id="text_3">
      <!-- 400 -->
      <defs>
       <path d="M 37.796875 64.3125 
L 12.890625 25.390625 
L 37.796875 25.390625 
z
M 35.203125 72.90625 
L 47.609375 72.90625 
L 47.609375 25.390625 
L 58.015625 25.390625 
L 58.015625 17.1875 
L 47.609375 17.1875 
L 47.609375 0 
L 37.796875 0 
L 37.796875 17.1875 
L 4.890625 17.1875 
L 4.890625 26.703125 
z
" id="DejaVuSans-34"/>
      </defs>
      <g transform="translate(477.621023 742.798437)scale(0.1 -0.1)">
       <use xlink:href="#DejaVuSans-34"/>
       <use x="63.623047" xlink:href="#DejaVuSans-30"/>
       <use x="127.246094" xlink:href="#DejaVuSans-30"/>
      </g>
     </g>
    </g>
    <g id="xtick_4">
     <g id="line2d_4">
      <g>
       <use style="stroke:#000000;stroke-width:0.8;" x="680.3125" xlink:href="#m7180996468" y="728.2"/>
      </g>
     </g>
     <g id="text_4">
      <!-- 600 -->
      <defs>
       <path d="M 33.015625 40.375 
Q 26.375 40.375 22.484375 35.828125 
Q 18.609375 31.296875 18.609375 23.390625 
Q 18.609375 15.53125 22.484375 10.953125 
Q 26.375 6.390625 33.015625 6.390625 
Q 39.65625 6.390625 43.53125 10.953125 
Q 47.40625 15.53125 47.40625 23.390625 
Q 47.40625 31.296875 43.53125 35.828125 
Q 39.65625 40.375 33.015625 40.375 
z
M 52.59375 71.296875 
L 52.59375 62.3125 
Q 48.875 64.0625 45.09375 64.984375 
Q 41.3125 65.921875 37.59375 65.921875 
Q 27.828125 65.921875 22.671875 59.328125 
Q 17.53125 52.734375 16.796875 39.40625 
Q 19.671875 43.65625 24.015625 45.921875 
Q 28.375 48.1875 33.59375 48.1875 
Q 44.578125 48.1875 50.953125 41.515625 
Q 57.328125 34.859375 57.328125 23.390625 
Q 57.328125 12.15625 50.6875 5.359375 
Q 44.046875 -1.421875 33.015625 -1.421875 
Q 20.359375 -1.421875 13.671875 8.265625 
Q 6.984375 17.96875 6.984375 36.375 
Q 6.984375 53.65625 15.1875 63.9375 
Q 23.390625 74.21875 37.203125 74.21875 
Q 40.921875 74.21875 44.703125 73.484375 
Q 48.484375 72.75 52.59375 71.296875 
z
" id="DejaVuSans-36"/>
      </defs>
      <g transform="translate(670.76875 742.798437)scale(0.1 -0.1)">
       <use xlink:href="#DejaVuSans-36"/>
       <use x="63.623047" xlink:href="#DejaVuSans-30"/>
       <use x="127.246094" xlink:href="#DejaVuSans-30"/>
      </g>
     </g>
    </g>
    <g id="xtick_5">
     <g id="line2d_5">
      <g>
       <use style="stroke:#000000;stroke-width:0.8;" x="873.460227" xlink:href="#m7180996468" y="728.2"/>
      </g>
     </g>
     <g id="text_5">
      <!-- 800 -->
      <defs>
       <path d="M 31.78125 34.625 
Q 24.75 34.625 20.71875 30.859375 
Q 16.703125 27.09375 16.703125 20.515625 
Q 16.703125 13.921875 20.71875 10.15625 
Q 24.75 6.390625 31.78125 6.390625 
Q 38.8125 6.390625 42.859375 10.171875 
Q 46.921875 13.96875 46.921875 20.515625 
Q 46.921875 27.09375 42.890625 30.859375 
Q 38.875 34.625 31.78125 34.625 
z
M 21.921875 38.8125 
Q 15.578125 40.375 12.03125 44.71875 
Q 8.5 49.078125 8.5 55.328125 
Q 8.5 64.0625 14.71875 69.140625 
Q 20.953125 74.21875 31.78125 74.21875 
Q 42.671875 74.21875 48.875 69.140625 
Q 55.078125 64.0625 55.078125 55.328125 
Q 55.078125 49.078125 51.53125 44.71875 
Q 48 40.375 41.703125 38.8125 
Q 48.828125 37.15625 52.796875 32.3125 
Q 56.78125 27.484375 56.78125 20.515625 
Q 56.78125 9.90625 50.3125 4.234375 
Q 43.84375 -1.421875 31.78125 -1.421875 
Q 19.734375 -1.421875 13.25 4.234375 
Q 6.78125 9.90625 6.78125 20.515625 
Q 6.78125 27.484375 10.78125 32.3125 
Q 14.796875 37.15625 21.921875 38.8125 
z
M 18.3125 54.390625 
Q 18.3125 48.734375 21.84375 45.5625 
Q 25.390625 42.390625 31.78125 42.390625 
Q 38.140625 42.390625 41.71875 45.5625 
Q 45.3125 48.734375 45.3125 54.390625 
Q 45.3125 60.0625 41.71875 63.234375 
Q 38.140625 66.40625 31.78125 66.40625 
Q 25.390625 66.40625 21.84375 63.234375 
Q 18.3125 60.0625 18.3125 54.390625 
z
" id="DejaVuSans-38"/>
      </defs>
      <g transform="translate(863.916477 742.798437)scale(0.1 -0.1)">
       <use xlink:href="#DejaVuSans-38"/>
       <use x="63.623047" xlink:href="#DejaVuSans-30"/>
       <use x="127.246094" xlink:href="#DejaVuSans-30"/>
      </g>
     </g>
    </g>
    <g id="xtick_6">
     <g id="line2d_6">
      <g>
       <use style="stroke:#000000;stroke-width:0.8;" x="1066.607955" xlink:href="#m7180996468" y="728.2"/>
      </g>
     </g>
     <g id="text_6">
      <!-- 1000 -->
      <defs>
       <path d="M 12.40625 8.296875 
L 28.515625 8.296875 
L 28.515625 63.921875 
L 10.984375 60.40625 
L 10.984375 69.390625 
L 28.421875 72.90625 
L 38.28125 72.90625 
L 38.28125 8.296875 
L 54.390625 8.296875 
L 54.390625 0 
L 12.40625 0 
z
" id="DejaVuSans-31"/>
      </defs>
      <g transform="translate(1053.882955 742.798437)scale(0.1 -0.1)">
       <use xlink:href="#DejaVuSans-31"/>
       <use x="63.623047" xlink:href="#DejaVuSans-30"/>
       <use x="127.246094" xlink:href="#DejaVuSans-30"/>
       <use x="190.869141" xlink:href="#DejaVuSans-30"/>
      </g>
     </g>
    </g>
    <g id="xtick_7">
     <g id="line2d_7">
      <g>
       <use style="stroke:#000000;stroke-width:0.8;" x="1259.755682" xlink:href="#m7180996468" y="728.2"/>
      </g>
     </g>
     <g id="text_7">
      <!-- 1200 -->
      <g transform="translate(1247.030682 742.798437)scale(0.1 -0.1)">
       <use xlink:href="#DejaVuSans-31"/>
       <use x="63.623047" xlink:href="#DejaVuSans-32"/>
       <use x="127.246094" xlink:href="#DejaVuSans-30"/>
       <use x="190.869141" xlink:href="#DejaVuSans-30"/>
      </g>
     </g>
    </g>
    <g id="text_8">
     <!-- 15-Minute Steps -->
     <defs>
      <path d="M 10.796875 72.90625 
L 49.515625 72.90625 
L 49.515625 64.59375 
L 19.828125 64.59375 
L 19.828125 46.734375 
Q 21.96875 47.46875 24.109375 47.828125 
Q 26.265625 48.1875 28.421875 48.1875 
Q 40.625 48.1875 47.75 41.5 
Q 54.890625 34.8125 54.890625 23.390625 
Q 54.890625 11.625 47.5625 5.09375 
Q 40.234375 -1.421875 26.90625 -1.421875 
Q 22.3125 -1.421875 17.546875 -0.640625 
Q 12.796875 0.140625 7.71875 1.703125 
L 7.71875 11.625 
Q 12.109375 9.234375 16.796875 8.0625 
Q 21.484375 6.890625 26.703125 6.890625 
Q 35.15625 6.890625 40.078125 11.328125 
Q 45.015625 15.765625 45.015625 23.390625 
Q 45.015625 31 40.078125 35.4375 
Q 35.15625 39.890625 26.703125 39.890625 
Q 22.75 39.890625 18.8125 39.015625 
Q 14.890625 38.140625 10.796875 36.28125 
z
" id="DejaVuSans-35"/>
      <path d="M 4.890625 31.390625 
L 31.203125 31.390625 
L 31.203125 23.390625 
L 4.890625 23.390625 
z
" id="DejaVuSans-2d"/>
      <path d="M 9.8125 72.90625 
L 24.515625 72.90625 
L 43.109375 23.296875 
L 61.8125 72.90625 
L 76.515625 72.90625 
L 76.515625 0 
L 66.890625 0 
L 66.890625 64.015625 
L 48.09375 14.015625 
L 38.1875 14.015625 
L 19.390625 64.015625 
L 19.390625 0 
L 9.8125 0 
z
" id="DejaVuSans-4d"/>
      <path d="M 9.421875 54.6875 
L 18.40625 54.6875 
L 18.40625 0 
L 9.421875 0 
z
M 9.421875 75.984375 
L 18.40625 75.984375 
L 18.40625 64.59375 
L 9.421875 64.59375 
z
" id="DejaVuSans-69"/>
      <path d="M 54.890625 33.015625 
L 54.890625 0 
L 45.90625 0 
L 45.90625 32.71875 
Q 45.90625 40.484375 42.875 44.328125 
Q 39.84375 48.1875 33.796875 48.1875 
Q 26.515625 48.1875 22.3125 43.546875 
Q 18.109375 38.921875 18.109375 30.90625 
L 18.109375 0 
L 9.078125 0 
L 9.078125 54.6875 
L 18.109375 54.6875 
L 18.109375 46.1875 
Q 21.34375 51.125 25.703125 53.5625 
Q 30.078125 56 35.796875 56 
Q 45.21875 56 50.046875 50.171875 
Q 54.890625 44.34375 54.890625 33.015625 
z
" id="DejaVuSans-6e"/>
      <path d="M 8.5 21.578125 
L 8.5 54.6875 
L 17.484375 54.6875 
L 17.484375 21.921875 
Q 17.484375 14.15625 20.5 10.265625 
Q 23.53125 6.390625 29.59375 6.390625 
Q 36.859375 6.390625 41.078125 11.03125 
Q 45.3125 15.671875 45.3125 23.6875 
L 45.3125 54.6875 
L 54.296875 54.6875 
L 54.296875 0 
L 45.3125 0 
L 45.3125 8.40625 
Q 42.046875 3.421875 37.71875 1 
Q 33.40625 -1.421875 27.6875 -1.421875 
Q 18.265625 -1.421875 13.375 4.4375 
Q 8.5 10.296875 8.5 21.578125 
z
M 31.109375 56 
z
" id="DejaVuSans-75"/>
      <path d="M 18.3125 70.21875 
L 18.3125 54.6875 
L 36.8125 54.6875 
L 36.8125 47.703125 
L 18.3125 47.703125 
L 18.3125 18.015625 
Q 18.3125 11.328125 20.140625 9.421875 
Q 21.96875 7.515625 27.59375 7.515625 
L 36.8125 7.515625 
L 36.8125 0 
L 27.59375 0 
Q 17.1875 0 13.234375 3.875 
Q 9.28125 7.765625 9.28125 18.015625 
L 9.28125 47.703125 
L 2.6875 47.703125 
L 2.6875 54.6875 
L 9.28125 54.6875 
L 9.28125 70.21875 
z
" id="DejaVuSans-74"/>
      <path d="M 56.203125 29.59375 
L 56.203125 25.203125 
L 14.890625 25.203125 
Q 15.484375 15.921875 20.484375 11.0625 
Q 25.484375 6.203125 34.421875 6.203125 
Q 39.59375 6.203125 44.453125 7.46875 
Q 49.3125 8.734375 54.109375 11.28125 
L 54.109375 2.78125 
Q 49.265625 0.734375 44.1875 -0.34375 
Q 39.109375 -1.421875 33.890625 -1.421875 
Q 20.796875 -1.421875 13.15625 6.1875 
Q 5.515625 13.8125 5.515625 26.8125 
Q 5.515625 40.234375 12.765625 48.109375 
Q 20.015625 56 32.328125 56 
Q 43.359375 56 49.78125 48.890625 
Q 56.203125 41.796875 56.203125 29.59375 
z
M 47.21875 32.234375 
Q 47.125 39.59375 43.09375 43.984375 
Q 39.0625 48.390625 32.421875 48.390625 
Q 24.90625 48.390625 20.390625 44.140625 
Q 15.875 39.890625 15.1875 32.171875 
z
" id="DejaVuSans-65"/>
      <path id="DejaVuSans-20"/>
      <path d="M 53.515625 70.515625 
L 53.515625 60.890625 
Q 47.90625 63.578125 42.921875 64.890625 
Q 37.9375 66.21875 33.296875 66.21875 
Q 25.25 66.21875 20.875 63.09375 
Q 16.5 59.96875 16.5 54.203125 
Q 16.5 49.359375 19.40625 46.890625 
Q 22.3125 44.4375 30.421875 42.921875 
L 36.375 41.703125 
Q 47.40625 39.59375 52.65625 34.296875 
Q 57.90625 29 57.90625 20.125 
Q 57.90625 9.515625 50.796875 4.046875 
Q 43.703125 -1.421875 29.984375 -1.421875 
Q 24.8125 -1.421875 18.96875 -0.25 
Q 13.140625 0.921875 6.890625 3.21875 
L 6.890625 13.375 
Q 12.890625 10.015625 18.65625 8.296875 
Q 24.421875 6.59375 29.984375 6.59375 
Q 38.421875 6.59375 43.015625 9.90625 
Q 47.609375 13.234375 47.609375 19.390625 
Q 47.609375 24.75 44.3125 27.78125 
Q 41.015625 30.8125 33.5 32.328125 
L 27.484375 33.5 
Q 16.453125 35.6875 11.515625 40.375 
Q 6.59375 45.0625 6.59375 53.421875 
Q 6.59375 63.09375 13.40625 68.65625 
Q 20.21875 74.21875 32.171875 74.21875 
Q 37.3125 74.21875 42.625 73.28125 
Q 47.953125 72.359375 53.515625 70.515625 
z
" id="DejaVuSans-53"/>
      <path d="M 18.109375 8.203125 
L 18.109375 -20.796875 
L 9.078125 -20.796875 
L 9.078125 54.6875 
L 18.109375 54.6875 
L 18.109375 46.390625 
Q 20.953125 51.265625 25.265625 53.625 
Q 29.59375 56 35.59375 56 
Q 45.5625 56 51.78125 48.09375 
Q 58.015625 40.1875 58.015625 27.296875 
Q 58.015625 14.40625 51.78125 6.484375 
Q 45.5625 -1.421875 35.59375 -1.421875 
Q 29.59375 -1.421875 25.265625 0.953125 
Q 20.953125 3.328125 18.109375 8.203125 
z
M 48.6875 27.296875 
Q 48.6875 37.203125 44.609375 42.84375 
Q 40.53125 48.484375 33.40625 48.484375 
Q 26.265625 48.484375 22.1875 42.84375 
Q 18.109375 37.203125 18.109375 27.296875 
Q 18.109375 17.390625 22.1875 11.75 
Q 26.265625 6.109375 33.40625 6.109375 
Q 40.53125 6.109375 44.609375 11.75 
Q 48.6875 17.390625 48.6875 27.296875 
z
" id="DejaVuSans-70"/>
      <path d="M 44.28125 53.078125 
L 44.28125 44.578125 
Q 40.484375 46.53125 36.375 47.5 
Q 32.28125 48.484375 27.875 48.484375 
Q 21.1875 48.484375 17.84375 46.4375 
Q 14.5 44.390625 14.5 40.28125 
Q 14.5 37.15625 16.890625 35.375 
Q 19.28125 33.59375 26.515625 31.984375 
L 29.59375 31.296875 
Q 39.15625 29.25 43.1875 25.515625 
Q 47.21875 21.78125 47.21875 15.09375 
Q 47.21875 7.46875 41.1875 3.015625 
Q 35.15625 -1.421875 24.609375 -1.421875 
Q 20.21875 -1.421875 15.453125 -0.5625 
Q 10.6875 0.296875 5.421875 2 
L 5.421875 11.28125 
Q 10.40625 8.6875 15.234375 7.390625 
Q 20.0625 6.109375 24.8125 6.109375 
Q 31.15625 6.109375 34.5625 8.28125 
Q 37.984375 10.453125 37.984375 14.40625 
Q 37.984375 18.0625 35.515625 20.015625 
Q 33.0625 21.96875 24.703125 23.78125 
L 21.578125 24.515625 
Q 13.234375 26.265625 9.515625 29.90625 
Q 5.8125 33.546875 5.8125 39.890625 
Q 5.8125 47.609375 11.28125 51.796875 
Q 16.75 56 26.8125 56 
Q 31.78125 56 36.171875 55.265625 
Q 40.578125 54.546875 44.28125 53.078125 
z
" id="DejaVuSans-73"/>
     </defs>
     <g transform="translate(639.489844 756.476562)scale(0.1 -0.1)">
      <use xlink:href="#DejaVuSans-31"/>
      <use x="63.623047" xlink:href="#DejaVuSans-35"/>
      <use x="127.246094" xlink:href="#DejaVuSans-2d"/>
      <use x="163.330078" xlink:href="#DejaVuSans-4d"/>
      <use x="249.609375" xlink:href="#DejaVuSans-69"/>
      <use x="277.392578" xlink:href="#DejaVuSans-6e"/>
      <use x="340.771484" xlink:href="#DejaVuSans-75"/>
      <use x="404.150391" xlink:href="#DejaVuSans-74"/>
      <use x="443.359375" xlink:href="#DejaVuSans-65"/>
      <use x="504.882812" xlink:href="#DejaVuSans-20"/>
      <use x="536.669922" xlink:href="#DejaVuSans-53"/>
      <use x="600.146484" xlink:href="#DejaVuSans-74"/>
      <use x="639.355469" xlink:href="#DejaVuSans-65"/>
      <use x="700.878906" xlink:href="#DejaVuSans-70"/>
      <use x="764.355469" xlink:href="#DejaVuSans-73"/>
     </g>
    </g>
   </g>
   <g id="matplotlib.axis_2">
    <g id="ytick_1">
     <g id="line2d_8">
      <defs>
       <path d="M 0 0 
L -3.5 0 
" id="m9785ff4ecb" style="stroke:#000000;stroke-width:0.8;"/>
      </defs>
      <g>
       <use style="stroke:#000000;stroke-width:0.8;" x="42.925" xlink:href="#m9785ff4ecb" y="701.432324"/>
      </g>
     </g>
     <g id="text_9">
      <!-- 0 -->
      <g transform="translate(29.5625 705.231543)scale(0.1 -0.1)">
       <use xlink:href="#DejaVuSans-30"/>
      </g>
     </g>
    </g>
    <g id="ytick_2">
     <g id="line2d_9">
      <g>
       <use style="stroke:#000000;stroke-width:0.8;" x="42.925" xlink:href="#m9785ff4ecb" y="620.768364"/>
      </g>
     </g>
     <g id="text_10">
      <!-- 1000 -->
      <g transform="translate(10.475 624.567583)scale(0.1 -0.1)">
       <use xlink:href="#DejaVuSans-31"/>
       <use x="63.623047" xlink:href="#DejaVuSans-30"/>
       <use x="127.246094" xlink:href="#DejaVuSans-30"/>
       <use x="190.869141" xlink:href="#DejaVuSans-30"/>
      </g>
     </g>
    </g>
    <g id="ytick_3">
     <g id="line2d_10">
      <g>
       <use style="stroke:#000000;stroke-width:0.8;" x="42.925" xlink:href="#m9785ff4ecb" y="540.104404"/>
      </g>
     </g>
     <g id="text_11">
      <!-- 2000 -->
      <g transform="translate(10.475 543.903623)scale(0.1 -0.1)">
       <use xlink:href="#DejaVuSans-32"/>
       <use x="63.623047" xlink:href="#DejaVuSans-30"/>
       <use x="127.246094" xlink:href="#DejaVuSans-30"/>
       <use x="190.869141" xlink:href="#DejaVuSans-30"/>
      </g>
     </g>
    </g>
    <g id="ytick_4">
     <g id="line2d_11">
      <g>
       <use style="stroke:#000000;stroke-width:0.8;" x="42.925" xlink:href="#m9785ff4ecb" y="459.440444"/>
      </g>
     </g>
     <g id="text_12">
      <!-- 3000 -->
      <defs>
       <path d="M 40.578125 39.3125 
Q 47.65625 37.796875 51.625 33 
Q 55.609375 28.21875 55.609375 21.1875 
Q 55.609375 10.40625 48.1875 4.484375 
Q 40.765625 -1.421875 27.09375 -1.421875 
Q 22.515625 -1.421875 17.65625 -0.515625 
Q 12.796875 0.390625 7.625 2.203125 
L 7.625 11.71875 
Q 11.71875 9.328125 16.59375 8.109375 
Q 21.484375 6.890625 26.8125 6.890625 
Q 36.078125 6.890625 40.9375 10.546875 
Q 45.796875 14.203125 45.796875 21.1875 
Q 45.796875 27.640625 41.28125 31.265625 
Q 36.765625 34.90625 28.71875 34.90625 
L 20.21875 34.90625 
L 20.21875 43.015625 
L 29.109375 43.015625 
Q 36.375 43.015625 40.234375 45.921875 
Q 44.09375 48.828125 44.09375 54.296875 
Q 44.09375 59.90625 40.109375 62.90625 
Q 36.140625 65.921875 28.71875 65.921875 
Q 24.65625 65.921875 20.015625 65.03125 
Q 15.375 64.15625 9.8125 62.3125 
L 9.8125 71.09375 
Q 15.4375 72.65625 20.34375 73.4375 
Q 25.25 74.21875 29.59375 74.21875 
Q 40.828125 74.21875 47.359375 69.109375 
Q 53.90625 64.015625 53.90625 55.328125 
Q 53.90625 49.265625 50.4375 45.09375 
Q 46.96875 40.921875 40.578125 39.3125 
z
" id="DejaVuSans-33"/>
      </defs>
      <g transform="translate(10.475 463.239663)scale(0.1 -0.1)">
       <use xlink:href="#DejaVuSans-33"/>
       <use x="63.623047" xlink:href="#DejaVuSans-30"/>
       <use x="127.246094" xlink:href="#DejaVuSans-30"/>
       <use x="190.869141" xlink:href="#DejaVuSans-30"/>
      </g>
     </g>
    </g>
    <g id="ytick_5">
     <g id="line2d_12">
      <g>
       <use style="stroke:#000000;stroke-width:0.8;" x="42.925" xlink:href="#m9785ff4ecb" y="378.776484"/>
      </g>
     </g>
     <g id="text_13">
      <!-- 4000 -->
      <g transform="translate(10.475 382.575703)scale(0.1 -0.1)">
       <use xlink:href="#DejaVuSans-34"/>
       <use x="63.623047" xlink:href="#DejaVuSans-30"/>
       <use x="127.246094" xlink:href="#DejaVuSans-30"/>
       <use x="190.869141" xlink:href="#DejaVuSans-30"/>
      </g>
     </g>
    </g>
    <g id="ytick_6">
     <g id="line2d_13">
      <g>
       <use style="stroke:#000000;stroke-width:0.8;" x="42.925" xlink:href="#m9785ff4ecb" y="298.112524"/>
      </g>
     </g>
     <g id="text_14">
      <!-- 5000 -->
      <g transform="translate(10.475 301.911743)scale(0.1 -0.1)">
       <use xlink:href="#DejaVuSans-35"/>
       <use x="63.623047" xlink:href="#DejaVuSans-30"/>
       <use x="127.246094" xlink:href="#DejaVuSans-30"/>
       <use x="190.869141" xlink:href="#DejaVuSans-30"/>
      </g>
     </g>
    </g>
    <g id="ytick_7">
     <g id="line2d_14">
      <g>
       <use style="stroke:#000000;stroke-width:0.8;" x="42.925" xlink:href="#m9785ff4ecb" y="217.448564"/>
      </g>
     </g>
     <g id="text_15">
      <!-- 6000 -->
      <g transform="translate(10.475 221.247782)scale(0.1 -0.1)">
       <use xlink:href="#DejaVuSans-36"/>
       <use x="63.623047" xlink:href="#DejaVuSans-30"/>
       <use x="127.246094" xlink:href="#DejaVuSans-30"/>
       <use x="190.869141" xlink:href="#DejaVuSans-30"/>
      </g>
     </g>
    </g>
    <g id="ytick_8">
     <g id="line2d_15">
      <g>
       <use style="stroke:#000000;stroke-width:0.8;" x="42.925" xlink:href="#m9785ff4ecb" y="136.784604"/>
      </g>
     </g>
     <g id="text_16">
      <!-- 7000 -->
      <defs>
       <path d="M 8.203125 72.90625 
L 55.078125 72.90625 
L 55.078125 68.703125 
L 28.609375 0 
L 18.3125 0 
L 43.21875 64.59375 
L 8.203125 64.59375 
z
" id="DejaVuSans-37"/>
      </defs>
      <g transform="translate(10.475 140.583822)scale(0.1 -0.1)">
       <use xlink:href="#DejaVuSans-37"/>
       <use x="63.623047" xlink:href="#DejaVuSans-30"/>
       <use x="127.246094" xlink:href="#DejaVuSans-30"/>
       <use x="190.869141" xlink:href="#DejaVuSans-30"/>
      </g>
     </g>
    </g>
    <g id="ytick_9">
     <g id="line2d_16">
      <g>
       <use style="stroke:#000000;stroke-width:0.8;" x="42.925" xlink:href="#m9785ff4ecb" y="56.120644"/>
      </g>
     </g>
     <g id="text_17">
      <!-- 8000 -->
      <g transform="translate(10.475 59.919862)scale(0.1 -0.1)">
       <use xlink:href="#DejaVuSans-38"/>
       <use x="63.623047" xlink:href="#DejaVuSans-30"/>
       <use x="127.246094" xlink:href="#DejaVuSans-30"/>
       <use x="190.869141" xlink:href="#DejaVuSans-30"/>
      </g>
     </g>
    </g>
    <g id="text_18">
     <!-- Bandwidth (kbps) -->
     <defs>
      <path d="M 19.671875 34.8125 
L 19.671875 8.109375 
L 35.5 8.109375 
Q 43.453125 8.109375 47.28125 11.40625 
Q 51.125 14.703125 51.125 21.484375 
Q 51.125 28.328125 47.28125 31.5625 
Q 43.453125 34.8125 35.5 34.8125 
z
M 19.671875 64.796875 
L 19.671875 42.828125 
L 34.28125 42.828125 
Q 41.5 42.828125 45.03125 45.53125 
Q 48.578125 48.25 48.578125 53.8125 
Q 48.578125 59.328125 45.03125 62.0625 
Q 41.5 64.796875 34.28125 64.796875 
z
M 9.8125 72.90625 
L 35.015625 72.90625 
Q 46.296875 72.90625 52.390625 68.21875 
Q 58.5 63.53125 58.5 54.890625 
Q 58.5 48.1875 55.375 44.234375 
Q 52.25 40.28125 46.1875 39.3125 
Q 53.46875 37.75 57.5 32.78125 
Q 61.53125 27.828125 61.53125 20.40625 
Q 61.53125 10.640625 54.890625 5.3125 
Q 48.25 0 35.984375 0 
L 9.8125 0 
z
" id="DejaVuSans-42"/>
      <path d="M 34.28125 27.484375 
Q 23.390625 27.484375 19.1875 25 
Q 14.984375 22.515625 14.984375 16.5 
Q 14.984375 11.71875 18.140625 8.90625 
Q 21.296875 6.109375 26.703125 6.109375 
Q 34.1875 6.109375 38.703125 11.40625 
Q 43.21875 16.703125 43.21875 25.484375 
L 43.21875 27.484375 
z
M 52.203125 31.203125 
L 52.203125 0 
L 43.21875 0 
L 43.21875 8.296875 
Q 40.140625 3.328125 35.546875 0.953125 
Q 30.953125 -1.421875 24.3125 -1.421875 
Q 15.921875 -1.421875 10.953125 3.296875 
Q 6 8.015625 6 15.921875 
Q 6 25.140625 12.171875 29.828125 
Q 18.359375 34.515625 30.609375 34.515625 
L 43.21875 34.515625 
L 43.21875 35.40625 
Q 43.21875 41.609375 39.140625 45 
Q 35.0625 48.390625 27.6875 48.390625 
Q 23 48.390625 18.546875 47.265625 
Q 14.109375 46.140625 10.015625 43.890625 
L 10.015625 52.203125 
Q 14.9375 54.109375 19.578125 55.046875 
Q 24.21875 56 28.609375 56 
Q 40.484375 56 46.34375 49.84375 
Q 52.203125 43.703125 52.203125 31.203125 
z
" id="DejaVuSans-61"/>
      <path d="M 45.40625 46.390625 
L 45.40625 75.984375 
L 54.390625 75.984375 
L 54.390625 0 
L 45.40625 0 
L 45.40625 8.203125 
Q 42.578125 3.328125 38.25 0.953125 
Q 33.9375 -1.421875 27.875 -1.421875 
Q 17.96875 -1.421875 11.734375 6.484375 
Q 5.515625 14.40625 5.515625 27.296875 
Q 5.515625 40.1875 11.734375 48.09375 
Q 17.96875 56 27.875 56 
Q 33.9375 56 38.25 53.625 
Q 42.578125 51.265625 45.40625 46.390625 
z
M 14.796875 27.296875 
Q 14.796875 17.390625 18.875 11.75 
Q 22.953125 6.109375 30.078125 6.109375 
Q 37.203125 6.109375 41.296875 11.75 
Q 45.40625 17.390625 45.40625 27.296875 
Q 45.40625 37.203125 41.296875 42.84375 
Q 37.203125 48.484375 30.078125 48.484375 
Q 22.953125 48.484375 18.875 42.84375 
Q 14.796875 37.203125 14.796875 27.296875 
z
" id="DejaVuSans-64"/>
      <path d="M 4.203125 54.6875 
L 13.1875 54.6875 
L 24.421875 12.015625 
L 35.59375 54.6875 
L 46.1875 54.6875 
L 57.421875 12.015625 
L 68.609375 54.6875 
L 77.59375 54.6875 
L 63.28125 0 
L 52.6875 0 
L 40.921875 44.828125 
L 29.109375 0 
L 18.5 0 
z
" id="DejaVuSans-77"/>
      <path d="M 54.890625 33.015625 
L 54.890625 0 
L 45.90625 0 
L 45.90625 32.71875 
Q 45.90625 40.484375 42.875 44.328125 
Q 39.84375 48.1875 33.796875 48.1875 
Q 26.515625 48.1875 22.3125 43.546875 
Q 18.109375 38.921875 18.109375 30.90625 
L 18.109375 0 
L 9.078125 0 
L 9.078125 75.984375 
L 18.109375 75.984375 
L 18.109375 46.1875 
Q 21.34375 51.125 25.703125 53.5625 
Q 30.078125 56 35.796875 56 
Q 45.21875 56 50.046875 50.171875 
Q 54.890625 44.34375 54.890625 33.015625 
z
" id="DejaVuSans-68"/>
      <path d="M 31 75.875 
Q 24.46875 64.65625 21.28125 53.65625 
Q 18.109375 42.671875 18.109375 31.390625 
Q 18.109375 20.125 21.3125 9.0625 
Q 24.515625 -2 31 -13.1875 
L 23.1875 -13.1875 
Q 15.875 -1.703125 12.234375 9.375 
Q 8.59375 20.453125 8.59375 31.390625 
Q 8.59375 42.28125 12.203125 53.3125 
Q 15.828125 64.359375 23.1875 75.875 
z
" id="DejaVuSans-28"/>
      <path d="M 9.078125 75.984375 
L 18.109375 75.984375 
L 18.109375 31.109375 
L 44.921875 54.6875 
L 56.390625 54.6875 
L 27.390625 29.109375 
L 57.625 0 
L 45.90625 0 
L 18.109375 26.703125 
L 18.109375 0 
L 9.078125 0 
z
" id="DejaVuSans-6b"/>
      <path d="M 48.6875 27.296875 
Q 48.6875 37.203125 44.609375 42.84375 
Q 40.53125 48.484375 33.40625 48.484375 
Q 26.265625 48.484375 22.1875 42.84375 
Q 18.109375 37.203125 18.109375 27.296875 
Q 18.109375 17.390625 22.1875 11.75 
Q 26.265625 6.109375 33.40625 6.109375 
Q 40.53125 6.109375 44.609375 11.75 
Q 48.6875 17.390625 48.6875 27.296875 
z
M 18.109375 46.390625 
Q 20.953125 51.265625 25.265625 53.625 
Q 29.59375 56 35.59375 56 
Q 45.5625 56 51.78125 48.09375 
Q 58.015625 40.1875 58.015625 27.296875 
Q 58.015625 14.40625 51.78125 6.484375 
Q 45.5625 -1.421875 35.59375 -1.421875 
Q 29.59375 -1.421875 25.265625 0.953125 
Q 20.953125 3.328125 18.109375 8.203125 
L 18.109375 0 
L 9.078125 0 
L 9.078125 75.984375 
L 18.109375 75.984375 
z
" id="DejaVuSans-62"/>
      <path d="M 8.015625 75.875 
L 15.828125 75.875 
Q 23.140625 64.359375 26.78125 53.3125 
Q 30.421875 42.28125 30.421875 31.390625 
Q 30.421875 20.453125 26.78125 9.375 
Q 23.140625 -1.703125 15.828125 -13.1875 
L 8.015625 -13.1875 
Q 14.5 -2 17.703125 9.0625 
Q 20.90625 20.125 20.90625 31.390625 
Q 20.90625 42.671875 17.703125 53.65625 
Q 14.5 64.65625 8.015625 75.875 
z
" id="DejaVuSans-29"/>
     </defs>
     <g transform="translate(4.395312 415.207812)rotate(-90)scale(0.1 -0.1)">
      <use xlink:href="#DejaVuSans-42"/>
      <use x="68.603516" xlink:href="#DejaVuSans-61"/>
      <use x="129.882812" xlink:href="#DejaVuSans-6e"/>
      <use x="193.261719" xlink:href="#DejaVuSans-64"/>
      <use x="256.738281" xlink:href="#DejaVuSans-77"/>
      <use x="338.525391" xlink:href="#DejaVuSans-69"/>
      <use x="366.308594" xlink:href="#DejaVuSans-64"/>
      <use x="429.785156" xlink:href="#DejaVuSans-74"/>
      <use x="468.994141" xlink:href="#DejaVuSans-68"/>
      <use x="532.373047" xlink:href="#DejaVuSans-20"/>
      <use x="564.160156" xlink:href="#DejaVuSans-28"/>
      <use x="603.173828" xlink:href="#DejaVuSans-6b"/>
      <use x="661.083984" xlink:href="#DejaVuSans-62"/>
      <use x="724.560547" xlink:href="#DejaVuSans-70"/>
      <use x="788.037109" xlink:href="#DejaVuSans-73"/>
      <use x="840.136719" xlink:href="#DejaVuSans-29"/>
     </g>
    </g>
   </g>
   <g id="LineCollection_1">
    <path clip-path="url(#p841e9f6e03)" d="M 1066.607955 623.003645 
L 1259.755682 623.003645 
" style="fill:none;stroke:#000000;stroke-width:1.5;"/>
   </g>
   <g id="LineCollection_2">
    <path clip-path="url(#p841e9f6e03)" d="M 100.869318 633.66342 
L 873.460227 633.66342 
" style="fill:none;stroke:#000000;stroke-width:1.5;"/>
   </g>
   <g id="line2d_17">
    <path clip-path="url(#p841e9f6e03)" d="M 100.869318 670.9478 
L 101.835057 652.692651 
L 102.800795 647.393924 
L 103.766534 663.588376 
L 104.732273 663.933263 
L 105.698011 663.523135 
L 106.66375 676.508951 
L 107.629489 678.589009 
L 108.595227 664.205729 
L 109.560966 680.783786 
L 110.526705 673.600749 
L 111.492443 662.662716 
L 112.458182 657.037034 
L 113.42392 669.570415 
L 114.389659 673.765659 
L 115.355398 679.098087 
L 116.321136 668.875632 
L 117.286875 676.932711 
L 118.252614 672.512326 
L 119.218352 663.078579 
L 120.184091 667.025741 
L 121.14983 673.500363 
L 122.115568 673.089517 
L 123.081307 663.457886 
L 124.047045 682.456579 
L 125.012784 685.052878 
L 125.978523 685.887484 
L 127.91 670.152631 
L 128.875739 682.900409 
L 129.841477 682.799304 
L 130.807216 687.839189 
L 131.772955 690.380289 
L 132.738693 685.069374 
L 133.704432 687.521558 
L 134.67017 684.890832 
L 135.635909 690.459872 
L 136.601648 686.071035 
L 137.567386 683.254612 
L 138.533125 688.802857 
L 139.498864 689.755054 
L 140.464602 687.966105 
L 141.430341 668.198055 
L 142.39608 683.367179 
L 144.327557 654.225621 
L 145.293295 649.819578 
L 146.259034 653.349433 
L 147.224773 683.878411 
L 148.190511 636.855984 
L 149.15625 642.528992 
L 150.121989 650.918762 
L 151.087727 664.543437 
L 152.053466 580.982027 
L 153.019205 565.142497 
L 153.984943 680.626758 
L 154.950682 655.400806 
L 155.91642 670.907646 
L 156.882159 667.506853 
L 157.847898 667.538401 
L 158.813636 564.283515 
L 159.779375 479.020636 
L 160.745114 506.372527 
L 161.710852 503.686594 
L 162.676591 518.269211 
L 163.64233 623.61706 
L 164.608068 677.841883 
L 165.573807 643.0266 
L 167.505284 660.840066 
L 168.471023 686.071753 
L 169.436761 676.07731 
L 170.4025 662.662716 
L 171.368239 633.168383 
L 172.333977 661.561387 
L 173.299716 630.050818 
L 174.265455 646.495505 
L 175.231193 667.621574 
L 176.196932 668.371571 
L 177.16267 677.073244 
L 178.128409 679.971411 
L 179.094148 670.539818 
L 180.059886 646.136284 
L 181.025625 664.821639 
L 181.991364 664.237995 
L 182.957102 548.063969 
L 183.922841 663.226291 
L 184.88858 680.694878 
L 185.854318 655.240196 
L 186.820057 682.43363 
L 187.785795 685.300968 
L 188.751534 669.550346 
L 189.717273 681.064134 
L 190.683011 668.327117 
L 191.64875 674.930091 
L 192.614489 683.757237 
L 193.580227 645.521802 
L 194.545966 655.427337 
L 195.511705 689.227327 
L 196.477443 675.981949 
L 197.443182 687.616201 
L 198.40892 684.951064 
L 199.374659 685.005561 
L 200.340398 671.395937 
L 203.237614 685.294515 
L 204.203352 682.842331 
L 205.169091 672.552473 
L 206.13483 657.84582 
L 207.100568 679.955634 
L 208.066307 672.405487 
L 209.032045 666.78984 
L 209.997784 662.983936 
L 210.963523 684.447003 
L 212.895 671.789577 
L 213.860739 684.379608 
L 214.826477 685.359046 
L 215.792216 667.781474 
L 216.757955 682.600694 
L 217.723693 678.194651 
L 218.689432 668.956659 
L 219.65517 667.38568 
L 220.620909 644.503646 
L 221.586648 671.871314 
L 222.552386 681.284258 
L 223.518125 687.451292 
L 224.483864 647.471362 
L 225.449602 692.132665 
L 226.415341 678.524478 
L 227.38108 684.971859 
L 228.346818 687.378872 
L 229.312557 662.254734 
L 230.278295 687.477814 
L 231.244034 677.128451 
L 232.209773 690.474932 
L 233.175511 662.978201 
L 234.14125 681.816285 
L 235.106989 655.177101 
L 237.038466 664.322603 
L 238.004205 686.794502 
L 238.969943 678.594744 
L 239.935682 671.470503 
L 240.90142 658.790128 
L 241.867159 655.256692 
L 242.832898 673.01208 
L 243.798636 675.171011 
L 244.764375 685.544751 
L 245.730114 663.869449 
L 246.695852 635.562489 
L 247.661591 665.231775 
L 248.62733 657.50883 
L 249.593068 648.180486 
L 250.558807 647.74741 
L 251.524545 677.327779 
L 252.490284 622.173708 
L 253.456023 621.658176 
L 254.421761 656.796833 
L 255.3875 599.668108 
L 256.353239 650.367375 
L 257.318977 660.41416 
L 258.284716 633.777848 
L 259.250455 553.397107 
L 260.216193 594.466896 
L 261.181932 621.863958 
L 262.14767 624.510454 
L 263.113409 635.209722 
L 264.079148 638.117924 
L 265.044886 640.201571 
L 266.010625 650.472779 
L 266.976364 646.385084 
L 267.942102 641.583247 
L 268.907841 669.417694 
L 269.87358 638.99053 
L 270.839318 659.638358 
L 271.805057 658.76647 
L 272.770795 656.651275 
L 273.736534 644.528022 
L 274.702273 643.812444 
L 275.668011 639.979293 
L 276.63375 641.634162 
L 277.599489 646.108318 
L 278.565227 635.174593 
L 279.530966 648.219923 
L 280.496705 636.970705 
L 281.462443 666.075697 
L 282.428182 645.311721 
L 283.39392 651.217041 
L 284.359659 651.741171 
L 286.291136 660.511675 
L 287.256875 668.963112 
L 288.222614 666.42273 
L 289.188352 671.715721 
L 290.154091 680.196553 
L 291.11983 671.566582 
L 292.085568 677.77878 
L 293.051307 675.913119 
L 294.017045 673.106723 
L 294.982784 668.33787 
L 295.948523 674.664078 
L 296.914261 684.361677 
L 297.88 672.095737 
L 298.845739 673.013516 
L 299.811477 679.832306 
L 301.742955 655.979441 
L 302.708693 665.637603 
L 303.674432 677.793839 
L 304.64017 664.164139 
L 305.605909 663.442108 
L 306.571648 675.748201 
L 307.537386 661.103216 
L 308.503125 673.190613 
L 309.468864 678.760371 
L 310.434602 682.597112 
L 311.400341 676.245809 
L 312.36608 668.120617 
L 313.331818 661.648859 
L 314.297557 661.433753 
L 315.263295 676.687493 
L 316.229034 656.467724 
L 317.194773 659.740172 
L 318.160511 663.657214 
L 319.12625 682.865989 
L 320.091989 669.130893 
L 321.057727 674.180094 
L 322.023466 680.294785 
L 322.989205 669.993457 
L 323.954943 676.896138 
L 324.920682 666.343857 
L 325.88642 674.356482 
L 326.852159 678.15306 
L 327.817898 668.844802 
L 328.783636 685.136051 
L 330.715114 655.41802 
L 331.680852 671.471221 
L 332.646591 662.894311 
L 333.61233 672.207594 
L 334.578068 667.045819 
L 335.543807 632.74893 
L 337.475284 660.556847 
L 339.406761 650.890078 
L 340.3725 654.224903 
L 341.338239 628.296998 
L 342.303977 659.634051 
L 343.269716 666.924637 
L 344.235455 660.108 
L 345.201193 650.456283 
L 346.166932 652.511246 
L 347.13267 661.938531 
L 348.098409 658.711973 
L 349.064148 662.901482 
L 350.029886 664.272406 
L 350.995625 669.729597 
L 351.961364 644.272769 
L 352.927102 659.724395 
L 353.892841 656.718678 
L 354.85858 648.140332 
L 355.824318 638.329449 
L 356.790057 662.010234 
L 357.755795 672.870111 
L 358.721534 664.877571 
L 359.687273 675.876546 
L 360.653011 677.236718 
L 361.61875 679.869589 
L 362.584489 686.530642 
L 363.550227 657.482299 
L 364.515966 679.768493 
L 365.481705 681.23694 
L 366.447443 689.190762 
L 367.413182 681.136554 
L 368.37892 679.397084 
L 369.344659 689.08393 
L 370.310398 682.886067 
L 371.276136 691.350402 
L 372.241875 676.057233 
L 373.207614 658.795146 
L 374.173352 690.264133 
L 375.139091 657.897445 
L 376.10483 676.584243 
L 377.070568 686.5163 
L 378.036307 688.891765 
L 379.002045 692.393661 
L 379.967784 690.076275 
L 380.933523 685.11311 
L 381.899261 688.790668 
L 382.865 681.999836 
L 383.830739 677.592357 
L 384.796477 682.693191 
L 385.762216 669.840018 
L 386.727955 679.439384 
L 387.693693 691.110209 
L 388.659432 688.478765 
L 389.62517 677.160716 
L 390.590909 676.790025 
L 391.556648 682.197019 
L 392.522386 686.970172 
L 393.488125 693.144369 
L 394.453864 686.778732 
L 395.419602 693.799005 
L 396.385341 687.571029 
L 397.35108 680.248178 
L 398.316818 691.092277 
L 399.282557 688.160417 
L 400.248295 695.75 
L 401.214034 689.204386 
L 402.179773 689.591573 
L 403.145511 687.095652 
L 404.11125 684.18816 
L 405.076989 686.754355 
L 406.042727 688.612853 
L 407.008466 686.684081 
L 407.974205 685.984281 
L 408.939943 690.500744 
L 409.905682 689.117624 
L 410.87142 691.285153 
L 411.837159 692.671863 
L 412.802898 687.324375 
L 413.768636 686.984514 
L 414.734375 676.919087 
L 415.700114 678.614103 
L 416.665852 688.48379 
L 417.631591 692.89915 
L 418.59733 684.469234 
L 419.563068 688.198418 
L 420.528807 682.164753 
L 421.494545 654.569072 
L 422.460284 648.483065 
L 423.426023 623.996358 
L 424.391761 496.639081 
L 425.3575 507.779306 
L 426.323239 653.489966 
L 427.288977 445.129585 
L 428.254716 522.876736 
L 429.220455 499.956693 
L 430.186193 468.532886 
L 431.151932 576.347262 
L 432.11767 603.752213 
L 433.083409 575.125469 
L 434.049148 571.156802 
L 435.014886 608.173316 
L 435.980625 584.913411 
L 436.946364 577.786307 
L 437.912102 597.153538 
L 438.877841 566.476139 
L 439.84358 490.471329 
L 440.809318 492.051625 
L 441.775057 530.347291 
L 442.740795 550.644498 
L 443.706534 552.612698 
L 444.672273 567.389618 
L 445.638011 578.531997 
L 446.60375 528.067188 
L 447.569489 546.469331 
L 448.535227 604.37243 
L 449.500966 525.682406 
L 450.466705 499.786766 
L 451.432443 458.906989 
L 452.398182 452.430923 
L 453.36392 498.407235 
L 454.329659 559.11385 
L 455.295398 581.693306 
L 457.226875 664.372792 
L 458.192614 665.781726 
L 459.158352 670.660282 
L 460.124091 677.05962 
L 461.08983 686.981642 
L 462.055568 662.76812 
L 463.021307 669.62204 
L 463.987045 642.362647 
L 464.952784 677.194418 
L 465.918523 657.456487 
L 466.884261 614.342496 
L 467.85 586.304421 
L 468.815739 551.759451 
L 469.781477 583.087179 
L 470.747216 654.546131 
L 471.712955 654.270075 
L 472.678693 643.448916 
L 473.644432 615.945014 
L 474.61017 617.199073 
L 475.575909 611.280847 
L 476.541648 644.191024 
L 477.507386 609.968 
L 478.473125 656.70219 
L 480.404602 431.395198 
L 481.370341 274.304822 
L 482.33608 46.75 
L 483.301818 153.002722 
L 485.233295 397.985977 
L 486.199034 584.189944 
L 487.164773 662.70717 
L 488.130511 515.880121 
L 489.09625 659.880705 
L 490.061989 637.215205 
L 491.027727 669.402634 
L 491.993466 663.814953 
L 492.959205 663.247078 
L 493.924943 667.711207 
L 494.890682 663.034126 
L 495.85642 674.894954 
L 496.822159 678.38609 
L 497.787898 671.986752 
L 499.719375 666.650743 
L 500.685114 665.067575 
L 501.650852 664.540573 
L 502.616591 672.652859 
L 503.58233 668.184431 
L 504.548068 664.278149 
L 505.513807 663.06281 
L 506.479545 660.956222 
L 507.445284 669.758991 
L 508.411023 673.387797 
L 509.376761 661.736331 
L 510.3425 677.627494 
L 511.308239 665.867044 
L 512.273977 663.36467 
L 513.239716 663.227719 
L 514.205455 672.051283 
L 515.171193 641.261309 
L 516.136932 617.016232 
L 518.068409 636.940593 
L 519.034148 635.356708 
L 519.999886 639.387042 
L 520.965625 599.166911 
L 521.931364 543.976992 
L 522.897102 441.558857 
L 523.862841 606.193645 
L 524.82858 616.99759 
L 525.794318 612.630266 
L 526.760057 620.343176 
L 527.725795 629.512337 
L 528.691534 606.608072 
L 529.657273 617.696681 
L 530.623011 640.488371 
L 531.58875 628.111293 
L 532.554489 604.526587 
L 533.520227 628.261869 
L 534.485966 615.166341 
L 535.451705 594.192993 
L 536.417443 586.009005 
L 537.383182 542.88068 
L 538.34892 581.846035 
L 539.314659 627.781466 
L 540.280398 520.897057 
L 541.246136 572.889109 
L 542.211875 571.211299 
L 543.177614 590.651668 
L 544.143352 604.654932 
L 545.109091 594.510632 
L 546.07483 577.756905 
L 547.040568 607.697931 
L 548.006307 553.802935 
L 548.972045 573.418265 
L 549.937784 599.002001 
L 550.903523 590.524759 
L 551.869261 586.1983 
L 552.835 592.025464 
L 553.800739 611.153938 
L 554.766477 608.546879 
L 555.732216 612.092504 
L 556.697955 603.16139 
L 557.663693 599.867437 
L 558.629432 611.848721 
L 559.59517 603.587296 
L 561.526648 572.241644 
L 563.458125 632.794102 
L 565.389602 634.975974 
L 566.355341 655.439525 
L 567.32108 619.704318 
L 568.286818 638.137283 
L 570.218295 620.925393 
L 571.184034 633.441568 
L 572.149773 627.850305 
L 573.115511 605.754115 
L 574.08125 606.030881 
L 575.046989 607.289957 
L 576.012727 560.811738 
L 576.978466 538.633093 
L 577.944205 570.583911 
L 578.909943 581.51549 
L 579.875682 585.357241 
L 580.84142 581.739914 
L 581.807159 585.896439 
L 582.772898 553.706138 
L 583.738636 573.810469 
L 584.704375 597.662625 
L 585.670114 416.37306 
L 586.635852 439.093049 
L 587.601591 445.064336 
L 588.56733 465.699249 
L 589.533068 589.741779 
L 590.498807 630.801525 
L 591.464545 666.440653 
L 592.430284 656.367338 
L 593.396023 659.280565 
L 594.361761 664.623746 
L 595.3275 672.53025 
L 596.293239 662.824762 
L 597.258977 656.152239 
L 598.224716 659.337925 
L 599.190455 667.280276 
L 600.156193 661.656748 
L 601.121932 636.284529 
L 602.08767 644.212538 
L 603.053409 647.26558 
L 604.019148 642.309586 
L 604.984886 645.839441 
L 605.950625 648.781344 
L 606.916364 627.850305 
L 607.882102 632.323743 
L 608.847841 635.450641 
L 609.81358 656.989709 
L 610.779318 596.697521 
L 611.745057 583.538897 
L 612.710795 558.718774 
L 613.676534 617.060694 
L 614.642273 625.480575 
L 615.608011 635.361733 
L 616.57375 620.692363 
L 617.539489 616.4584 
L 618.505227 597.126298 
L 619.470966 600.952278 
L 620.436705 566.244544 
L 621.402443 578.691889 
L 622.368182 604.439107 
L 623.33392 608.079383 
L 624.299659 599.202766 
L 625.265398 595.384674 
L 626.231136 629.103637 
L 627.196875 631.925085 
L 628.162614 639.052916 
L 629.128352 583.594112 
L 630.094091 558.208268 
L 631.05983 501.434457 
L 632.025568 437.320595 
L 632.991307 451.154642 
L 633.957045 426.38328 
L 634.922784 396.009177 
L 635.888523 482.346137 
L 636.854261 435.241256 
L 637.82 439.048595 
L 638.785739 427.731982 
L 639.751477 454.43139 
L 640.717216 443.010091 
L 641.682955 451.883126 
L 642.648693 477.854058 
L 643.614432 496.04324 
L 644.58017 586.821388 
L 645.545909 550.139001 
L 646.511648 522.954891 
L 647.477386 553.66742 
L 648.443125 639.602858 
L 649.408864 652.719181 
L 650.374602 616.159403 
L 651.340341 604.538775 
L 652.30608 423.357486 
L 653.271818 456.578842 
L 654.237557 574.05138 
L 655.203295 576.692858 
L 656.169034 637.242453 
L 657.134773 641.474262 
L 658.100511 656.063332 
L 659.06625 680.268973 
L 660.031989 610.709391 
L 660.997727 636.426497 
L 661.963466 624.628764 
L 662.929205 627.136155 
L 663.894943 651.251452 
L 664.860682 651.219904 
L 665.82642 665.043917 
L 666.792159 576.0117 
L 667.757898 189.366753 
L 668.723636 200.413053 
L 669.689375 201.204633 
L 670.655114 299.649801 
L 671.620852 656.940238 
L 672.586591 652.031561 
L 673.55233 634.949443 
L 674.518068 643.180757 
L 675.483807 629.681554 
L 676.449545 651.396292 
L 677.415284 623.890955 
L 678.381023 639.478821 
L 679.346761 629.15598 
L 680.3125 638.134419 
L 681.278239 602.561968 
L 682.243977 615.184264 
L 683.209716 630.960707 
L 684.175455 618.102509 
L 685.141193 660.757611 
L 686.106932 660.366843 
L 687.07267 669.966209 
L 688.038409 647.947456 
L 689.004148 663.080733 
L 689.969886 675.299355 
L 690.935625 660.177549 
L 692.867102 676.875343 
L 693.832841 670.974331 
L 694.79858 680.002241 
L 695.764318 680.645399 
L 696.730057 673.610784 
L 697.695795 673.373454 
L 698.661534 665.0769 
L 699.627273 647.680015 
L 700.593011 650.439077 
L 701.55875 657.43282 
L 702.524489 654.34823 
L 703.490227 674.748686 
L 704.455966 626.508057 
L 705.421705 637.01803 
L 706.387443 636.752017 
L 707.353182 618.258102 
L 708.31892 585.245392 
L 709.284659 579.865638 
L 710.250398 609.306193 
L 711.216136 628.553695 
L 712.181875 616.193104 
L 713.147614 593.432243 
L 714.113352 602.122438 
L 715.079091 586.442082 
L 716.04483 612.18859 
L 717.010568 604.669991 
L 717.976307 572.135522 
L 718.942045 598.434845 
L 719.907784 646.011521 
L 720.873523 591.553669 
L 721.839261 657.813554 
L 722.805 660.88022 
L 723.770739 657.255005 
L 724.736477 616.923742 
L 725.702216 653.993309 
L 726.667955 656.816193 
L 727.633693 634.129897 
L 728.599432 651.410634 
L 729.56517 603.271093 
L 730.530909 624.945684 
L 731.496648 631.99607 
L 732.462386 560.686975 
L 733.428125 586.310156 
L 734.393864 585.459781 
L 735.359602 657.741852 
L 736.325341 637.487672 
L 737.29108 613.015299 
L 738.256818 626.920338 
L 739.222557 603.866215 
L 740.188295 629.490106 
L 741.154034 603.04667 
L 742.119773 602.845187 
L 743.085511 596.136817 
L 744.05125 620.687345 
L 745.016989 606.722801 
L 745.982727 632.937507 
L 746.948466 630.737712 
L 747.914205 626.546775 
L 748.879943 643.709912 
L 749.845682 623.417724 
L 753.708636 670.600768 
L 754.674375 658.046584 
L 755.640114 651.362591 
L 756.605852 655.499757 
L 757.571591 663.91892 
L 758.53733 666.647871 
L 759.503068 678.629163 
L 760.468807 664.661029 
L 761.434545 677.233854 
L 762.400284 682.089462 
L 763.366023 669.292221 
L 764.331761 668.732228 
L 765.2975 669.045567 
L 766.263239 648.999314 
L 767.228977 648.497407 
L 769.160455 673.178425 
L 770.126193 674.504186 
L 771.091932 636.756316 
L 772.05767 662.558031 
L 773.023409 669.584039 
L 773.989148 665.931575 
L 774.954886 680.987414 
L 775.920625 671.646891 
L 776.886364 682.217096 
L 777.852102 675.77115 
L 778.817841 676.940592 
L 779.78358 671.512803 
L 780.749318 676.126782 
L 781.715057 675.356715 
L 783.646534 669.477926 
L 784.612273 667.822338 
L 785.578011 672.457112 
L 786.54375 666.250649 
L 787.509489 657.141002 
L 788.475227 684.639161 
L 789.440966 677.753685 
L 790.406705 665.188749 
L 791.372443 666.44926 
L 792.338182 646.182174 
L 793.30392 662.968167 
L 794.269659 648.683112 
L 795.235398 656.462707 
L 796.201136 651.338214 
L 797.166875 596.122475 
L 798.132614 618.437353 
L 799.098352 653.09059 
L 800.064091 640.811027 
L 801.02983 646.85258 
L 801.995568 613.195987 
L 802.961307 568.826509 
L 803.927045 535.6453 
L 804.892784 557.671224 
L 805.858523 588.674861 
L 806.824261 648.341096 
L 807.79 631.54077 
L 808.755739 632.231971 
L 809.721477 614.072901 
L 810.687216 637.283326 
L 811.652955 631.269739 
L 812.618693 540.019078 
L 813.584432 558.325852 
L 814.55017 588.859137 
L 815.515909 613.365203 
L 816.481648 586.229847 
L 817.447386 612.873331 
L 818.413125 594.254661 
L 819.378864 652.747139 
L 821.310341 600.026611 
L 822.27608 650.33511 
L 823.241818 660.576924 
L 824.207557 648.863081 
L 825.173295 673.59286 
L 826.139034 652.587965 
L 827.104773 667.052272 
L 828.070511 653.937385 
L 829.03625 550.886844 
L 830.001989 659.766703 
L 830.967727 671.5673 
L 831.933466 670.275958 
L 832.899205 665.605338 
L 833.864943 649.059546 
L 834.830682 681.027569 
L 835.79642 679.843067 
L 836.762159 682.883195 
L 837.727898 673.592143 
L 838.693636 674.06322 
L 839.659375 676.695374 
L 841.590852 678.477152 
L 842.556591 659.911535 
L 843.52233 675.563215 
L 844.488068 668.520711 
L 847.385284 682.654472 
L 848.351023 671.621796 
L 849.316761 685.444372 
L 850.2825 652.621667 
L 851.248239 665.431104 
L 852.213977 659.94739 
L 853.179716 678.983367 
L 854.145455 671.613189 
L 855.111193 673.648075 
L 856.076932 677.355745 
L 857.04267 655.974416 
L 858.008409 683.519908 
L 858.974148 684.125783 
L 859.939886 675.981949 
L 860.905625 677.975245 
L 861.871364 669.845753 
L 862.837102 679.413572 
L 863.802841 670.031458 
L 864.76858 668.290552 
L 865.734318 666.836447 
L 866.700057 666.047013 
L 867.665795 658.825266 
L 868.631534 667.538401 
L 869.597273 657.40558 
L 870.563011 654.911805 
L 871.52875 656.01887 
L 872.494489 678.357414 
L 872.494489 678.357414 
" style="fill:none;stroke:#1f77b4;stroke-linecap:square;stroke-width:1.5;"/>
   </g>
   <g id="line2d_18">
    <path clip-path="url(#p841e9f6e03)" d="M 873.460227 678.795508 
L 874.425966 677.274009 
L 875.391705 682.580616 
L 876.357443 684.082047 
L 877.323182 678.613385 
L 878.28892 686.081795 
L 879.254659 676.19992 
L 880.220398 679.167635 
L 881.186136 668.725057 
L 882.151875 642.951308 
L 883.117614 677.359327 
L 884.083352 672.405487 
L 885.049091 670.170555 
L 886.01483 675.256329 
L 886.980568 677.912149 
L 887.946307 672.660748 
L 888.912045 666.252803 
L 889.877784 650.751699 
L 890.843523 645.866689 
L 891.809261 664.819493 
L 892.775 672.392581 
L 893.740739 644.080604 
L 894.706477 644.696521 
L 895.672216 646.529206 
L 896.637955 653.205311 
L 897.603693 644.296428 
L 898.569432 642.185541 
L 899.53517 642.435059 
L 900.500909 657.364708 
L 901.466648 639.222125 
L 902.432386 656.492819 
L 903.398125 678.619121 
L 904.363864 653.771757 
L 905.329602 664.536984 
L 906.295341 651.26723 
L 907.26108 642.888213 
L 908.226818 656.259071 
L 909.192557 654.800666 
L 910.158295 671.63613 
L 911.124034 674.390183 
L 912.089773 686.23308 
L 913.055511 677.091886 
L 914.02125 671.687037 
L 914.986989 657.231346 
L 915.952727 665.360119 
L 916.918466 668.992506 
L 917.884205 684.20752 
L 918.849943 675.329467 
L 919.815682 683.153516 
L 920.78142 674.02092 
L 921.747159 678.013963 
L 922.712898 679.007025 
L 923.678636 683.147773 
L 924.644375 683.925018 
L 925.610114 686.086813 
L 926.575852 685.558375 
L 927.541591 675.680089 
L 928.50733 680.51132 
L 929.473068 681.614085 
L 930.438807 683.306955 
L 931.404545 683.846863 
L 932.370284 671.809646 
L 933.336023 672.435599 
L 934.301761 684.175254 
L 935.2675 676.86818 
L 936.233239 674.358628 
L 937.198977 667.4581 
L 938.164716 676.676732 
L 939.130455 669.016883 
L 940.096193 676.007044 
L 941.061932 669.390446 
L 942.02767 673.055816 
L 942.993409 674.546486 
L 944.924886 690.207483 
L 945.890625 681.029005 
L 946.856364 676.503934 
L 947.822102 678.243404 
L 948.787841 666.870866 
L 949.75358 686.230217 
L 950.719318 681.22618 
L 951.685057 674.172205 
L 952.650795 679.318929 
L 953.616534 665.469822 
L 954.582273 687.573901 
L 955.548011 683.226646 
L 956.51375 689.72637 
L 957.479489 682.888938 
L 958.445227 688.531108 
L 959.410966 678.9131 
L 960.376705 676.417172 
L 961.342443 685.574145 
L 962.308182 690.578182 
L 963.27392 682.677413 
L 964.239659 687.415437 
L 966.171136 676.858138 
L 967.136875 680.282589 
L 968.102614 682.202036 
L 969.068352 654.888146 
L 970.034091 662.636904 
L 970.99983 682.876742 
L 971.965568 677.512056 
L 973.897045 689.962264 
L 974.862784 683.032335 
L 975.828523 692.017945 
L 976.794261 683.895624 
L 977.76 688.832969 
L 978.725739 683.14061 
L 979.691477 683.299066 
L 980.657216 685.310285 
L 981.622955 675.119386 
L 982.588693 677.543604 
L 983.554432 662.791061 
L 984.52017 670.71907 
L 985.485909 673.650939 
L 986.451648 651.111637 
L 987.417386 658.270298 
L 988.383125 657.21485 
L 989.348864 649.555718 
L 990.314602 664.726278 
L 991.280341 665.081199 
L 992.24608 652.405842 
L 993.211818 662.216016 
L 994.177557 666.612742 
L 995.143295 664.903384 
L 996.109034 657.602037 
L 997.074773 665.38306 
L 998.040511 670.854585 
L 999.00625 674.13994 
L 999.971989 669.4349 
L 1000.937727 662.402438 
L 1001.903466 669.557509 
L 1002.869205 668.707133 
L 1003.834943 669.242024 
L 1004.800682 663.904578 
L 1005.76642 669.760427 
L 1006.732159 665.70787 
L 1007.697898 652.278216 
L 1008.663636 673.167673 
L 1009.629375 674.474074 
L 1010.595114 671.019503 
L 1011.560852 652.210821 
L 1012.526591 629.751103 
L 1013.49233 678.796226 
L 1014.458068 683.031617 
L 1015.423807 677.660478 
L 1016.389545 685.034954 
L 1017.355284 679.80363 
L 1018.321023 684.01608 
L 1019.286761 683.666176 
L 1020.2525 677.744368 
L 1021.218239 674.015903 
L 1022.183977 647.827001 
L 1023.149716 660.068563 
L 1024.115455 660.168224 
L 1025.081193 662.04967 
L 1026.046932 650.935249 
L 1027.01267 660.294423 
L 1027.978409 654.604927 
L 1028.944148 655.562852 
L 1029.909886 654.675912 
L 1030.875625 669.458566 
L 1031.841364 661.959327 
L 1032.807102 665.893574 
L 1033.772841 666.807053 
L 1034.73858 658.32335 
L 1035.704318 652.592983 
L 1036.670057 664.663183 
L 1037.635795 670.55846 
L 1038.601534 673.171254 
L 1040.533011 647.443395 
L 1041.49875 662.269794 
L 1042.464489 644.525159 
L 1043.430227 667.591462 
L 1044.395966 664.457401 
L 1045.361705 657.624268 
L 1046.327443 641.110024 
L 1047.293182 655.254538 
L 1048.25892 659.284865 
L 1049.224659 660.216985 
L 1050.190398 535.956486 
L 1051.156136 352.317987 
L 1052.121875 237.912833 
L 1053.087614 173.25762 
L 1054.053352 300.885928 
L 1055.019091 492.445983 
L 1055.98483 588.028831 
L 1056.950568 647.642014 
L 1057.916307 656.347269 
L 1058.882045 648.197692 
L 1059.847784 625.740846 
L 1060.813523 632.361034 
L 1061.779261 633.147596 
L 1062.745 652.403696 
L 1063.710739 647.620501 
L 1064.676477 643.645381 
L 1065.642216 644.610477 
L 1065.642216 644.610477 
" style="fill:none;stroke:#ff7f0e;stroke-linecap:square;stroke-width:1.5;"/>
   </g>
   <g id="line2d_19">
    <path clip-path="url(#p841e9f6e03)" d="M 1066.607955 645.607129 
L 1067.573693 644.7926 
L 1069.50517 667.458818 
L 1070.470909 647.469926 
L 1071.436648 601.697968 
L 1072.402386 607.613331 
L 1074.333864 615.784404 
L 1075.299602 611.632905 
L 1076.265341 604.787575 
L 1077.23108 573.664911 
L 1078.196818 600.674076 
L 1079.162557 620.178977 
L 1080.128295 608.542579 
L 1081.094034 609.5636 
L 1082.059773 595.198244 
L 1083.025511 608.583444 
L 1083.99125 558.799801 
L 1084.956989 627.305372 
L 1085.922727 619.304225 
L 1086.888466 628.059668 
L 1087.854205 640.988133 
L 1088.819943 629.883747 
L 1089.785682 637.554357 
L 1090.75142 600.212316 
L 1091.717159 607.862848 
L 1092.682898 575.658206 
L 1093.648636 573.213193 
L 1094.614375 615.248078 
L 1095.580114 608.037083 
L 1096.545852 608.612846 
L 1097.511591 629.132321 
L 1098.47733 577.021967 
L 1099.443068 545.634725 
L 1100.408807 587.819468 
L 1101.374545 585.735829 
L 1102.340284 624.729142 
L 1103.306023 601.912357 
L 1104.271761 611.796378 
L 1105.2375 635.703748 
L 1106.203239 623.989187 
L 1107.168977 599.815812 
L 1108.134716 597.827534 
L 1109.100455 569.817426 
L 1111.031932 576.042529 
L 1111.99767 590.838808 
L 1112.963409 611.919705 
L 1113.929148 617.751887 
L 1114.894886 609.177848 
L 1115.860625 623.443536 
L 1116.826364 615.542057 
L 1117.792102 579.261917 
L 1118.757841 642.2092 
L 1119.72358 655.810942 
L 1120.689318 658.05949 
L 1121.655057 652.708421 
L 1122.620795 670.744172 
L 1123.586534 654.51243 
L 1124.552273 657.280817 
L 1125.518011 578.096056 
L 1126.48375 663.453578 
L 1127.449489 665.370154 
L 1128.415227 664.34339 
L 1129.380966 649.606625 
L 1130.346705 654.885993 
L 1131.312443 669.530269 
L 1132.278182 657.865897 
L 1133.24392 666.02909 
L 1134.209659 663.08575 
L 1135.175398 677.14781 
L 1136.141136 669.372522 
L 1137.106875 670.595033 
L 1138.072614 676.453027 
L 1139.038352 671.466204 
L 1140.004091 675.522342 
L 1140.96983 680.598792 
L 1141.935568 671.180113 
L 1142.901307 673.843814 
L 1143.867045 651.071483 
L 1144.832784 645.168317 
L 1145.798523 666.82784 
L 1146.764261 678.429834 
L 1147.73 665.003762 
L 1148.695739 665.603184 
L 1149.661477 677.922902 
L 1150.627216 682.001272 
L 1151.592955 661.1742 
L 1152.558693 671.546505 
L 1153.524432 683.816751 
L 1154.49017 675.579703 
L 1155.455909 684.007473 
L 1156.421648 685.054314 
L 1157.387386 669.615587 
L 1158.353125 670.58499 
L 1159.318864 670.350532 
L 1160.284602 679.295262 
L 1161.250341 655.309027 
L 1162.21608 680.18651 
L 1163.181818 640.48479 
L 1164.147557 661.432325 
L 1165.113295 659.105613 
L 1166.079034 655.592254 
L 1167.044773 670.473141 
L 1168.010511 661.102498 
L 1168.97625 607.056927 
L 1169.941989 618.384292 
L 1170.907727 612.537769 
L 1171.873466 632.606252 
L 1172.839205 616.345108 
L 1173.804943 630.154777 
L 1174.770682 635.951112 
L 1175.73642 625.428232 
L 1176.702159 606.93001 
L 1177.667898 546.624206 
L 1178.633636 601.553854 
L 1179.599375 584.189944 
L 1180.565114 593.656667 
L 1181.530852 569.106147 
L 1182.496591 573.455548 
L 1183.46233 576.030341 
L 1184.428068 577.540371 
L 1185.393807 592.041242 
L 1186.359545 612.88122 
L 1187.325284 566.675467 
L 1188.291023 577.64362 
L 1189.256761 519.379147 
L 1190.2225 564.1437 
L 1191.188239 561.429083 
L 1192.153977 575.296832 
L 1193.119716 555.898053 
L 1194.085455 591.030248 
L 1195.051193 569.610208 
L 1196.016932 554.643994 
L 1196.98267 596.330411 
L 1197.948409 601.766807 
L 1198.914148 594.773774 
L 1199.879886 603.87984 
L 1200.845625 606.408026 
L 1201.811364 573.716536 
L 1202.777102 614.137432 
L 1203.742841 616.108496 
L 1204.70858 634.238891 
L 1205.674318 609.416614 
L 1206.640057 603.441028 
L 1207.605795 613.706501 
L 1208.571534 620.916786 
L 1209.537273 599.10167 
L 1210.503011 637.016594 
L 1211.46875 639.774947 
L 1212.434489 631.17437 
L 1213.400227 639.283792 
L 1214.365966 634.978845 
L 1215.331705 642.631524 
L 1216.297443 625.117765 
L 1217.263182 632.525943 
L 1218.22892 620.740398 
L 1219.194659 572.260285 
L 1220.160398 615.899842 
L 1221.126136 636.550534 
L 1222.091875 634.030237 
L 1223.057614 636.741982 
L 1224.023352 638.616967 
L 1224.989091 619.696429 
L 1225.95483 634.065366 
L 1226.920568 624.363468 
L 1227.886307 647.932404 
L 1228.852045 606.913522 
L 1229.817784 594.34715 
L 1230.783523 584.205722 
L 1231.749261 575.42733 
L 1232.715 592.036934 
L 1233.680739 567.233307 
L 1234.646477 624.895487 
L 1235.612216 597.537144 
L 1236.577955 586.66006 
L 1237.543693 578.308291 
L 1238.509432 601.675027 
L 1239.47517 577.169671 
L 1240.440909 602.584917 
L 1241.406648 614.285853 
L 1242.372386 619.003082 
L 1243.338125 670.242975 
L 1244.303864 651.820762 
L 1245.269602 636.978594 
L 1246.235341 636.299581 
L 1247.20108 649.066717 
L 1248.166818 645.452254 
L 1249.132557 665.669151 
L 1250.098295 670.750625 
L 1251.064034 655.039432 
L 1252.029773 635.283578 
L 1252.995511 646.483317 
L 1253.96125 621.627347 
L 1254.926989 591.210218 
L 1255.892727 609.23808 
L 1256.858466 591.010171 
L 1257.824205 590.156214 
L 1258.789943 605.997898 
L 1258.789943 605.997898 
" style="fill:none;stroke:#2ca02c;stroke-linecap:square;stroke-width:1.5;"/>
   </g>
   <g id="patch_3">
    <path d="M 42.925 728.2 
L 42.925 14.3 
" style="fill:none;stroke:#000000;stroke-linecap:square;stroke-linejoin:miter;stroke-width:0.8;"/>
   </g>
   <g id="patch_4">
    <path d="M 1317.7 728.2 
L 1317.7 14.3 
" style="fill:none;stroke:#000000;stroke-linecap:square;stroke-linejoin:miter;stroke-width:0.8;"/>
   </g>
   <g id="patch_5">
    <path d="M 42.925 728.2 
L 1317.7 728.2 
" style="fill:none;stroke:#000000;stroke-linecap:square;stroke-linejoin:miter;stroke-width:0.8;"/>
   </g>
   <g id="patch_6">
    <path d="M 42.925 14.3 
L 1317.7 14.3 
" style="fill:none;stroke:#000000;stroke-linecap:square;stroke-linejoin:miter;stroke-width:0.8;"/>
   </g>
  </g>
 </g>
 <defs>
  <clipPath id="p841e9f6e03">
   <rect height="713.9" width="1274.775" x="42.925" y="14.3"/>
  </clipPath>
 </defs>
</svg>
