<?xml version="1.0" encoding="utf-8" standalone="no"?>
<!DOCTYPE svg PUBLIC "-//W3C//DTD SVG 1.1//EN"
  "http://www.w3.org/Graphics/SVG/1.1/DTD/svg11.dtd">
<!-- Created with matplotlib (http://matplotlib.org/) -->
<svg height="756pt" version="1.1" viewBox="0 0 1332 756" width="1332pt" xmlns="http://www.w3.org/2000/svg" xmlns:xlink="http://www.w3.org/1999/xlink">
 <defs>
  <style type="text/css">
*{stroke-linecap:butt;stroke-linejoin:round;}
  </style>
 </defs>
 <g id="figure_1">
  <g id="patch_1">
   <path d="M 0 756 
L 1332 756 
L 1332 0 
L 0 0 
z
" style="fill:#ffffff;"/>
  </g>
  <g id="axes_1">
   <g id="patch_2">
    <path d="M 55.925 723.2 
L 1317.7 723.2 
L 1317.7 14.3 
L 55.925 14.3 
z
" style="fill:#ffffff;"/>
   </g>
   <g id="matplotlib.axis_1">
    <g id="xtick_1">
     <g id="line2d_1">
      <defs>
       <path d="M 0 0 
L 0 3.5 
" id="m3c108b5543" style="stroke:#000000;stroke-width:0.8;"/>
      </defs>
      <g>
       <use style="stroke:#000000;stroke-width:0.8;" x="113.278409" xlink:href="#m3c108b5543" y="723.2"/>
      </g>
     </g>
     <g id="text_1">
      <!-- 0 -->
      <defs>
       <path d="M 31.78125 66.40625 
Q 24.171875 66.40625 20.328125 58.90625 
Q 16.5 51.421875 16.5 36.375 
Q 16.5 21.390625 20.328125 13.890625 
Q 24.171875 6.390625 31.78125 6.390625 
Q 39.453125 6.390625 43.28125 13.890625 
Q 47.125 21.390625 47.125 36.375 
Q 47.125 51.421875 43.28125 58.90625 
Q 39.453125 66.40625 31.78125 66.40625 
z
M 31.78125 74.21875 
Q 44.046875 74.21875 50.515625 64.515625 
Q 56.984375 54.828125 56.984375 36.375 
Q 56.984375 17.96875 50.515625 8.265625 
Q 44.046875 -1.421875 31.78125 -1.421875 
Q 19.53125 -1.421875 13.0625 8.265625 
Q 6.59375 17.96875 6.59375 36.375 
Q 6.59375 54.828125 13.0625 64.515625 
Q 19.53125 74.21875 31.78125 74.21875 
z
" id="DejaVuSans-30"/>
      </defs>
      <g transform="translate(108.506534 741.597656)scale(0.15 -0.15)">
       <use xlink:href="#DejaVuSans-30"/>
      </g>
     </g>
    </g>
    <g id="xtick_2">
     <g id="line2d_2">
      <g>
       <use style="stroke:#000000;stroke-width:0.8;" x="304.615887" xlink:href="#m3c108b5543" y="723.2"/>
      </g>
     </g>
     <g id="text_2">
      <!-- 200 -->
      <defs>
       <path d="M 19.1875 8.296875 
L 53.609375 8.296875 
L 53.609375 0 
L 7.328125 0 
L 7.328125 8.296875 
Q 12.9375 14.109375 22.625 23.890625 
Q 32.328125 33.6875 34.8125 36.53125 
Q 39.546875 41.84375 41.421875 45.53125 
Q 43.3125 49.21875 43.3125 52.78125 
Q 43.3125 58.59375 39.234375 62.25 
Q 35.15625 65.921875 28.609375 65.921875 
Q 23.96875 65.921875 18.8125 64.3125 
Q 13.671875 62.703125 7.8125 59.421875 
L 7.8125 69.390625 
Q 13.765625 71.78125 18.9375 73 
Q 24.125 74.21875 28.421875 74.21875 
Q 39.75 74.21875 46.484375 68.546875 
Q 53.21875 62.890625 53.21875 53.421875 
Q 53.21875 48.921875 51.53125 44.890625 
Q 49.859375 40.875 45.40625 35.40625 
Q 44.1875 33.984375 37.640625 27.21875 
Q 31.109375 20.453125 19.1875 8.296875 
z
" id="DejaVuSans-32"/>
      </defs>
      <g transform="translate(290.300262 741.597656)scale(0.15 -0.15)">
       <use xlink:href="#DejaVuSans-32"/>
       <use x="63.623047" xlink:href="#DejaVuSans-30"/>
       <use x="127.246094" xlink:href="#DejaVuSans-30"/>
      </g>
     </g>
    </g>
    <g id="xtick_3">
     <g id="line2d_3">
      <g>
       <use style="stroke:#000000;stroke-width:0.8;" x="495.953365" xlink:href="#m3c108b5543" y="723.2"/>
      </g>
     </g>
     <g id="text_3">
      <!-- 400 -->
      <defs>
       <path d="M 37.796875 64.3125 
L 12.890625 25.390625 
L 37.796875 25.390625 
z
M 35.203125 72.90625 
L 47.609375 72.90625 
L 47.609375 25.390625 
L 58.015625 25.390625 
L 58.015625 17.1875 
L 47.609375 17.1875 
L 47.609375 0 
L 37.796875 0 
L 37.796875 17.1875 
L 4.890625 17.1875 
L 4.890625 26.703125 
z
" id="DejaVuSans-34"/>
      </defs>
      <g transform="translate(481.63774 741.597656)scale(0.15 -0.15)">
       <use xlink:href="#DejaVuSans-34"/>
       <use x="63.623047" xlink:href="#DejaVuSans-30"/>
       <use x="127.246094" xlink:href="#DejaVuSans-30"/>
      </g>
     </g>
    </g>
    <g id="xtick_4">
     <g id="line2d_4">
      <g>
       <use style="stroke:#000000;stroke-width:0.8;" x="687.290844" xlink:href="#m3c108b5543" y="723.2"/>
      </g>
     </g>
     <g id="text_4">
      <!-- 600 -->
      <defs>
       <path d="M 33.015625 40.375 
Q 26.375 40.375 22.484375 35.828125 
Q 18.609375 31.296875 18.609375 23.390625 
Q 18.609375 15.53125 22.484375 10.953125 
Q 26.375 6.390625 33.015625 6.390625 
Q 39.65625 6.390625 43.53125 10.953125 
Q 47.40625 15.53125 47.40625 23.390625 
Q 47.40625 31.296875 43.53125 35.828125 
Q 39.65625 40.375 33.015625 40.375 
z
M 52.59375 71.296875 
L 52.59375 62.3125 
Q 48.875 64.0625 45.09375 64.984375 
Q 41.3125 65.921875 37.59375 65.921875 
Q 27.828125 65.921875 22.671875 59.328125 
Q 17.53125 52.734375 16.796875 39.40625 
Q 19.671875 43.65625 24.015625 45.921875 
Q 28.375 48.1875 33.59375 48.1875 
Q 44.578125 48.1875 50.953125 41.515625 
Q 57.328125 34.859375 57.328125 23.390625 
Q 57.328125 12.15625 50.6875 5.359375 
Q 44.046875 -1.421875 33.015625 -1.421875 
Q 20.359375 -1.421875 13.671875 8.265625 
Q 6.984375 17.96875 6.984375 36.375 
Q 6.984375 53.65625 15.1875 63.9375 
Q 23.390625 74.21875 37.203125 74.21875 
Q 40.921875 74.21875 44.703125 73.484375 
Q 48.484375 72.75 52.59375 71.296875 
z
" id="DejaVuSans-36"/>
      </defs>
      <g transform="translate(672.975219 741.597656)scale(0.15 -0.15)">
       <use xlink:href="#DejaVuSans-36"/>
       <use x="63.623047" xlink:href="#DejaVuSans-30"/>
       <use x="127.246094" xlink:href="#DejaVuSans-30"/>
      </g>
     </g>
    </g>
    <g id="xtick_5">
     <g id="line2d_5">
      <g>
       <use style="stroke:#000000;stroke-width:0.8;" x="878.628322" xlink:href="#m3c108b5543" y="723.2"/>
      </g>
     </g>
     <g id="text_5">
      <!-- 800 -->
      <defs>
       <path d="M 31.78125 34.625 
Q 24.75 34.625 20.71875 30.859375 
Q 16.703125 27.09375 16.703125 20.515625 
Q 16.703125 13.921875 20.71875 10.15625 
Q 24.75 6.390625 31.78125 6.390625 
Q 38.8125 6.390625 42.859375 10.171875 
Q 46.921875 13.96875 46.921875 20.515625 
Q 46.921875 27.09375 42.890625 30.859375 
Q 38.875 34.625 31.78125 34.625 
z
M 21.921875 38.8125 
Q 15.578125 40.375 12.03125 44.71875 
Q 8.5 49.078125 8.5 55.328125 
Q 8.5 64.0625 14.71875 69.140625 
Q 20.953125 74.21875 31.78125 74.21875 
Q 42.671875 74.21875 48.875 69.140625 
Q 55.078125 64.0625 55.078125 55.328125 
Q 55.078125 49.078125 51.53125 44.71875 
Q 48 40.375 41.703125 38.8125 
Q 48.828125 37.15625 52.796875 32.3125 
Q 56.78125 27.484375 56.78125 20.515625 
Q 56.78125 9.90625 50.3125 4.234375 
Q 43.84375 -1.421875 31.78125 -1.421875 
Q 19.734375 -1.421875 13.25 4.234375 
Q 6.78125 9.90625 6.78125 20.515625 
Q 6.78125 27.484375 10.78125 32.3125 
Q 14.796875 37.15625 21.921875 38.8125 
z
M 18.3125 54.390625 
Q 18.3125 48.734375 21.84375 45.5625 
Q 25.390625 42.390625 31.78125 42.390625 
Q 38.140625 42.390625 41.71875 45.5625 
Q 45.3125 48.734375 45.3125 54.390625 
Q 45.3125 60.0625 41.71875 63.234375 
Q 38.140625 66.40625 31.78125 66.40625 
Q 25.390625 66.40625 21.84375 63.234375 
Q 18.3125 60.0625 18.3125 54.390625 
z
" id="DejaVuSans-38"/>
      </defs>
      <g transform="translate(864.312697 741.597656)scale(0.15 -0.15)">
       <use xlink:href="#DejaVuSans-38"/>
       <use x="63.623047" xlink:href="#DejaVuSans-30"/>
       <use x="127.246094" xlink:href="#DejaVuSans-30"/>
      </g>
     </g>
    </g>
    <g id="xtick_6">
     <g id="line2d_6">
      <g>
       <use style="stroke:#000000;stroke-width:0.8;" x="1069.9658" xlink:href="#m3c108b5543" y="723.2"/>
      </g>
     </g>
     <g id="text_6">
      <!-- 1000 -->
      <defs>
       <path d="M 12.40625 8.296875 
L 28.515625 8.296875 
L 28.515625 63.921875 
L 10.984375 60.40625 
L 10.984375 69.390625 
L 28.421875 72.90625 
L 38.28125 72.90625 
L 38.28125 8.296875 
L 54.390625 8.296875 
L 54.390625 0 
L 12.40625 0 
z
" id="DejaVuSans-31"/>
      </defs>
      <g transform="translate(1050.8783 741.597656)scale(0.15 -0.15)">
       <use xlink:href="#DejaVuSans-31"/>
       <use x="63.623047" xlink:href="#DejaVuSans-30"/>
       <use x="127.246094" xlink:href="#DejaVuSans-30"/>
       <use x="190.869141" xlink:href="#DejaVuSans-30"/>
      </g>
     </g>
    </g>
    <g id="xtick_7">
     <g id="line2d_7">
      <g>
       <use style="stroke:#000000;stroke-width:0.8;" x="1261.303278" xlink:href="#m3c108b5543" y="723.2"/>
      </g>
     </g>
     <g id="text_7">
      <!-- 1200 -->
      <g transform="translate(1242.215778 741.597656)scale(0.15 -0.15)">
       <use xlink:href="#DejaVuSans-31"/>
       <use x="63.623047" xlink:href="#DejaVuSans-32"/>
       <use x="127.246094" xlink:href="#DejaVuSans-30"/>
       <use x="190.869141" xlink:href="#DejaVuSans-30"/>
      </g>
     </g>
    </g>
    <g id="text_8">
     <!-- 15-Minute Steps -->
     <defs>
      <path d="M 10.796875 72.90625 
L 49.515625 72.90625 
L 49.515625 64.59375 
L 19.828125 64.59375 
L 19.828125 46.734375 
Q 21.96875 47.46875 24.109375 47.828125 
Q 26.265625 48.1875 28.421875 48.1875 
Q 40.625 48.1875 47.75 41.5 
Q 54.890625 34.8125 54.890625 23.390625 
Q 54.890625 11.625 47.5625 5.09375 
Q 40.234375 -1.421875 26.90625 -1.421875 
Q 22.3125 -1.421875 17.546875 -0.640625 
Q 12.796875 0.140625 7.71875 1.703125 
L 7.71875 11.625 
Q 12.109375 9.234375 16.796875 8.0625 
Q 21.484375 6.890625 26.703125 6.890625 
Q 35.15625 6.890625 40.078125 11.328125 
Q 45.015625 15.765625 45.015625 23.390625 
Q 45.015625 31 40.078125 35.4375 
Q 35.15625 39.890625 26.703125 39.890625 
Q 22.75 39.890625 18.8125 39.015625 
Q 14.890625 38.140625 10.796875 36.28125 
z
" id="DejaVuSans-35"/>
      <path d="M 4.890625 31.390625 
L 31.203125 31.390625 
L 31.203125 23.390625 
L 4.890625 23.390625 
z
" id="DejaVuSans-2d"/>
      <path d="M 9.8125 72.90625 
L 24.515625 72.90625 
L 43.109375 23.296875 
L 61.8125 72.90625 
L 76.515625 72.90625 
L 76.515625 0 
L 66.890625 0 
L 66.890625 64.015625 
L 48.09375 14.015625 
L 38.1875 14.015625 
L 19.390625 64.015625 
L 19.390625 0 
L 9.8125 0 
z
" id="DejaVuSans-4d"/>
      <path d="M 9.421875 54.6875 
L 18.40625 54.6875 
L 18.40625 0 
L 9.421875 0 
z
M 9.421875 75.984375 
L 18.40625 75.984375 
L 18.40625 64.59375 
L 9.421875 64.59375 
z
" id="DejaVuSans-69"/>
      <path d="M 54.890625 33.015625 
L 54.890625 0 
L 45.90625 0 
L 45.90625 32.71875 
Q 45.90625 40.484375 42.875 44.328125 
Q 39.84375 48.1875 33.796875 48.1875 
Q 26.515625 48.1875 22.3125 43.546875 
Q 18.109375 38.921875 18.109375 30.90625 
L 18.109375 0 
L 9.078125 0 
L 9.078125 54.6875 
L 18.109375 54.6875 
L 18.109375 46.1875 
Q 21.34375 51.125 25.703125 53.5625 
Q 30.078125 56 35.796875 56 
Q 45.21875 56 50.046875 50.171875 
Q 54.890625 44.34375 54.890625 33.015625 
z
" id="DejaVuSans-6e"/>
      <path d="M 8.5 21.578125 
L 8.5 54.6875 
L 17.484375 54.6875 
L 17.484375 21.921875 
Q 17.484375 14.15625 20.5 10.265625 
Q 23.53125 6.390625 29.59375 6.390625 
Q 36.859375 6.390625 41.078125 11.03125 
Q 45.3125 15.671875 45.3125 23.6875 
L 45.3125 54.6875 
L 54.296875 54.6875 
L 54.296875 0 
L 45.3125 0 
L 45.3125 8.40625 
Q 42.046875 3.421875 37.71875 1 
Q 33.40625 -1.421875 27.6875 -1.421875 
Q 18.265625 -1.421875 13.375 4.4375 
Q 8.5 10.296875 8.5 21.578125 
z
M 31.109375 56 
z
" id="DejaVuSans-75"/>
      <path d="M 18.3125 70.21875 
L 18.3125 54.6875 
L 36.8125 54.6875 
L 36.8125 47.703125 
L 18.3125 47.703125 
L 18.3125 18.015625 
Q 18.3125 11.328125 20.140625 9.421875 
Q 21.96875 7.515625 27.59375 7.515625 
L 36.8125 7.515625 
L 36.8125 0 
L 27.59375 0 
Q 17.1875 0 13.234375 3.875 
Q 9.28125 7.765625 9.28125 18.015625 
L 9.28125 47.703125 
L 2.6875 47.703125 
L 2.6875 54.6875 
L 9.28125 54.6875 
L 9.28125 70.21875 
z
" id="DejaVuSans-74"/>
      <path d="M 56.203125 29.59375 
L 56.203125 25.203125 
L 14.890625 25.203125 
Q 15.484375 15.921875 20.484375 11.0625 
Q 25.484375 6.203125 34.421875 6.203125 
Q 39.59375 6.203125 44.453125 7.46875 
Q 49.3125 8.734375 54.109375 11.28125 
L 54.109375 2.78125 
Q 49.265625 0.734375 44.1875 -0.34375 
Q 39.109375 -1.421875 33.890625 -1.421875 
Q 20.796875 -1.421875 13.15625 6.1875 
Q 5.515625 13.8125 5.515625 26.8125 
Q 5.515625 40.234375 12.765625 48.109375 
Q 20.015625 56 32.328125 56 
Q 43.359375 56 49.78125 48.890625 
Q 56.203125 41.796875 56.203125 29.59375 
z
M 47.21875 32.234375 
Q 47.125 39.59375 43.09375 43.984375 
Q 39.0625 48.390625 32.421875 48.390625 
Q 24.90625 48.390625 20.390625 44.140625 
Q 15.875 39.890625 15.1875 32.171875 
z
" id="DejaVuSans-65"/>
      <path id="DejaVuSans-20"/>
      <path d="M 53.515625 70.515625 
L 53.515625 60.890625 
Q 47.90625 63.578125 42.921875 64.890625 
Q 37.9375 66.21875 33.296875 66.21875 
Q 25.25 66.21875 20.875 63.09375 
Q 16.5 59.96875 16.5 54.203125 
Q 16.5 49.359375 19.40625 46.890625 
Q 22.3125 44.4375 30.421875 42.921875 
L 36.375 41.703125 
Q 47.40625 39.59375 52.65625 34.296875 
Q 57.90625 29 57.90625 20.125 
Q 57.90625 9.515625 50.796875 4.046875 
Q 43.703125 -1.421875 29.984375 -1.421875 
Q 24.8125 -1.421875 18.96875 -0.25 
Q 13.140625 0.921875 6.890625 3.21875 
L 6.890625 13.375 
Q 12.890625 10.015625 18.65625 8.296875 
Q 24.421875 6.59375 29.984375 6.59375 
Q 38.421875 6.59375 43.015625 9.90625 
Q 47.609375 13.234375 47.609375 19.390625 
Q 47.609375 24.75 44.3125 27.78125 
Q 41.015625 30.8125 33.5 32.328125 
L 27.484375 33.5 
Q 16.453125 35.6875 11.515625 40.375 
Q 6.59375 45.0625 6.59375 53.421875 
Q 6.59375 63.09375 13.40625 68.65625 
Q 20.21875 74.21875 32.171875 74.21875 
Q 37.3125 74.21875 42.625 73.28125 
Q 47.953125 72.359375 53.515625 70.515625 
z
" id="DejaVuSans-53"/>
      <path d="M 18.109375 8.203125 
L 18.109375 -20.796875 
L 9.078125 -20.796875 
L 9.078125 54.6875 
L 18.109375 54.6875 
L 18.109375 46.390625 
Q 20.953125 51.265625 25.265625 53.625 
Q 29.59375 56 35.59375 56 
Q 45.5625 56 51.78125 48.09375 
Q 58.015625 40.1875 58.015625 27.296875 
Q 58.015625 14.40625 51.78125 6.484375 
Q 45.5625 -1.421875 35.59375 -1.421875 
Q 29.59375 -1.421875 25.265625 0.953125 
Q 20.953125 3.328125 18.109375 8.203125 
z
M 48.6875 27.296875 
Q 48.6875 37.203125 44.609375 42.84375 
Q 40.53125 48.484375 33.40625 48.484375 
Q 26.265625 48.484375 22.1875 42.84375 
Q 18.109375 37.203125 18.109375 27.296875 
Q 18.109375 17.390625 22.1875 11.75 
Q 26.265625 6.109375 33.40625 6.109375 
Q 40.53125 6.109375 44.609375 11.75 
Q 48.6875 17.390625 48.6875 27.296875 
z
" id="DejaVuSans-70"/>
      <path d="M 44.28125 53.078125 
L 44.28125 44.578125 
Q 40.484375 46.53125 36.375 47.5 
Q 32.28125 48.484375 27.875 48.484375 
Q 21.1875 48.484375 17.84375 46.4375 
Q 14.5 44.390625 14.5 40.28125 
Q 14.5 37.15625 16.890625 35.375 
Q 19.28125 33.59375 26.515625 31.984375 
L 29.59375 31.296875 
Q 39.15625 29.25 43.1875 25.515625 
Q 47.21875 21.78125 47.21875 15.09375 
Q 47.21875 7.46875 41.1875 3.015625 
Q 35.15625 -1.421875 24.609375 -1.421875 
Q 20.21875 -1.421875 15.453125 -0.5625 
Q 10.6875 0.296875 5.421875 2 
L 5.421875 11.28125 
Q 10.40625 8.6875 15.234375 7.390625 
Q 20.0625 6.109375 24.8125 6.109375 
Q 31.15625 6.109375 34.5625 8.28125 
Q 37.984375 10.453125 37.984375 14.40625 
Q 37.984375 18.0625 35.515625 20.015625 
Q 33.0625 21.96875 24.703125 23.78125 
L 21.578125 24.515625 
Q 13.234375 26.265625 9.515625 29.90625 
Q 5.8125 33.546875 5.8125 39.890625 
Q 5.8125 47.609375 11.28125 51.796875 
Q 16.75 56 26.8125 56 
Q 31.78125 56 36.171875 55.265625 
Q 40.578125 54.546875 44.28125 53.078125 
z
" id="DejaVuSans-73"/>
     </defs>
     <g transform="translate(645.989844 756.315625)scale(0.1 -0.1)">
      <use xlink:href="#DejaVuSans-31"/>
      <use x="63.623047" xlink:href="#DejaVuSans-35"/>
      <use x="127.246094" xlink:href="#DejaVuSans-2d"/>
      <use x="163.330078" xlink:href="#DejaVuSans-4d"/>
      <use x="249.609375" xlink:href="#DejaVuSans-69"/>
      <use x="277.392578" xlink:href="#DejaVuSans-6e"/>
      <use x="340.771484" xlink:href="#DejaVuSans-75"/>
      <use x="404.150391" xlink:href="#DejaVuSans-74"/>
      <use x="443.359375" xlink:href="#DejaVuSans-65"/>
      <use x="504.882812" xlink:href="#DejaVuSans-20"/>
      <use x="536.669922" xlink:href="#DejaVuSans-53"/>
      <use x="600.146484" xlink:href="#DejaVuSans-74"/>
      <use x="639.355469" xlink:href="#DejaVuSans-65"/>
      <use x="700.878906" xlink:href="#DejaVuSans-70"/>
      <use x="764.355469" xlink:href="#DejaVuSans-73"/>
     </g>
    </g>
   </g>
   <g id="matplotlib.axis_2">
    <g id="ytick_1">
     <g id="line2d_8">
      <defs>
       <path d="M 0 0 
L -3.5 0 
" id="mb50ddf4b87" style="stroke:#000000;stroke-width:0.8;"/>
      </defs>
      <g>
       <use style="stroke:#000000;stroke-width:0.8;" x="55.925" xlink:href="#mb50ddf4b87" y="714.468907"/>
      </g>
     </g>
     <g id="text_9">
      <!-- 0 -->
      <g transform="translate(39.38125 720.167735)scale(0.15 -0.15)">
       <use xlink:href="#DejaVuSans-30"/>
      </g>
     </g>
    </g>
    <g id="ytick_2">
     <g id="line2d_9">
      <g>
       <use style="stroke:#000000;stroke-width:0.8;" x="55.925" xlink:href="#mb50ddf4b87" y="618.839645"/>
      </g>
     </g>
     <g id="text_10">
      <!-- 250 -->
      <g transform="translate(20.29375 624.538473)scale(0.15 -0.15)">
       <use xlink:href="#DejaVuSans-32"/>
       <use x="63.623047" xlink:href="#DejaVuSans-35"/>
       <use x="127.246094" xlink:href="#DejaVuSans-30"/>
      </g>
     </g>
    </g>
    <g id="ytick_3">
     <g id="line2d_10">
      <g>
       <use style="stroke:#000000;stroke-width:0.8;" x="55.925" xlink:href="#mb50ddf4b87" y="523.210383"/>
      </g>
     </g>
     <g id="text_11">
      <!-- 500 -->
      <g transform="translate(20.29375 528.909212)scale(0.15 -0.15)">
       <use xlink:href="#DejaVuSans-35"/>
       <use x="63.623047" xlink:href="#DejaVuSans-30"/>
       <use x="127.246094" xlink:href="#DejaVuSans-30"/>
      </g>
     </g>
    </g>
    <g id="ytick_4">
     <g id="line2d_11">
      <g>
       <use style="stroke:#000000;stroke-width:0.8;" x="55.925" xlink:href="#mb50ddf4b87" y="427.581122"/>
      </g>
     </g>
     <g id="text_12">
      <!-- 750 -->
      <defs>
       <path d="M 8.203125 72.90625 
L 55.078125 72.90625 
L 55.078125 68.703125 
L 28.609375 0 
L 18.3125 0 
L 43.21875 64.59375 
L 8.203125 64.59375 
z
" id="DejaVuSans-37"/>
      </defs>
      <g transform="translate(20.29375 433.27995)scale(0.15 -0.15)">
       <use xlink:href="#DejaVuSans-37"/>
       <use x="63.623047" xlink:href="#DejaVuSans-35"/>
       <use x="127.246094" xlink:href="#DejaVuSans-30"/>
      </g>
     </g>
    </g>
    <g id="ytick_5">
     <g id="line2d_12">
      <g>
       <use style="stroke:#000000;stroke-width:0.8;" x="55.925" xlink:href="#mb50ddf4b87" y="331.95186"/>
      </g>
     </g>
     <g id="text_13">
      <!-- 1000 -->
      <g transform="translate(10.75 337.650688)scale(0.15 -0.15)">
       <use xlink:href="#DejaVuSans-31"/>
       <use x="63.623047" xlink:href="#DejaVuSans-30"/>
       <use x="127.246094" xlink:href="#DejaVuSans-30"/>
       <use x="190.869141" xlink:href="#DejaVuSans-30"/>
      </g>
     </g>
    </g>
    <g id="ytick_6">
     <g id="line2d_13">
      <g>
       <use style="stroke:#000000;stroke-width:0.8;" x="55.925" xlink:href="#mb50ddf4b87" y="236.322598"/>
      </g>
     </g>
     <g id="text_14">
      <!-- 1250 -->
      <g transform="translate(10.75 242.021427)scale(0.15 -0.15)">
       <use xlink:href="#DejaVuSans-31"/>
       <use x="63.623047" xlink:href="#DejaVuSans-32"/>
       <use x="127.246094" xlink:href="#DejaVuSans-35"/>
       <use x="190.869141" xlink:href="#DejaVuSans-30"/>
      </g>
     </g>
    </g>
    <g id="ytick_7">
     <g id="line2d_14">
      <g>
       <use style="stroke:#000000;stroke-width:0.8;" x="55.925" xlink:href="#mb50ddf4b87" y="140.693337"/>
      </g>
     </g>
     <g id="text_15">
      <!-- 1500 -->
      <g transform="translate(10.75 146.392165)scale(0.15 -0.15)">
       <use xlink:href="#DejaVuSans-31"/>
       <use x="63.623047" xlink:href="#DejaVuSans-35"/>
       <use x="127.246094" xlink:href="#DejaVuSans-30"/>
       <use x="190.869141" xlink:href="#DejaVuSans-30"/>
      </g>
     </g>
    </g>
    <g id="ytick_8">
     <g id="line2d_15">
      <g>
       <use style="stroke:#000000;stroke-width:0.8;" x="55.925" xlink:href="#mb50ddf4b87" y="45.064075"/>
      </g>
     </g>
     <g id="text_16">
      <!-- 1750 -->
      <g transform="translate(10.75 50.762903)scale(0.15 -0.15)">
       <use xlink:href="#DejaVuSans-31"/>
       <use x="63.623047" xlink:href="#DejaVuSans-37"/>
       <use x="127.246094" xlink:href="#DejaVuSans-35"/>
       <use x="190.869141" xlink:href="#DejaVuSans-30"/>
      </g>
     </g>
    </g>
    <g id="text_17">
     <!-- Bandwidth (kbps) -->
     <defs>
      <path d="M 19.671875 34.8125 
L 19.671875 8.109375 
L 35.5 8.109375 
Q 43.453125 8.109375 47.28125 11.40625 
Q 51.125 14.703125 51.125 21.484375 
Q 51.125 28.328125 47.28125 31.5625 
Q 43.453125 34.8125 35.5 34.8125 
z
M 19.671875 64.796875 
L 19.671875 42.828125 
L 34.28125 42.828125 
Q 41.5 42.828125 45.03125 45.53125 
Q 48.578125 48.25 48.578125 53.8125 
Q 48.578125 59.328125 45.03125 62.0625 
Q 41.5 64.796875 34.28125 64.796875 
z
M 9.8125 72.90625 
L 35.015625 72.90625 
Q 46.296875 72.90625 52.390625 68.21875 
Q 58.5 63.53125 58.5 54.890625 
Q 58.5 48.1875 55.375 44.234375 
Q 52.25 40.28125 46.1875 39.3125 
Q 53.46875 37.75 57.5 32.78125 
Q 61.53125 27.828125 61.53125 20.40625 
Q 61.53125 10.640625 54.890625 5.3125 
Q 48.25 0 35.984375 0 
L 9.8125 0 
z
" id="DejaVuSans-42"/>
      <path d="M 34.28125 27.484375 
Q 23.390625 27.484375 19.1875 25 
Q 14.984375 22.515625 14.984375 16.5 
Q 14.984375 11.71875 18.140625 8.90625 
Q 21.296875 6.109375 26.703125 6.109375 
Q 34.1875 6.109375 38.703125 11.40625 
Q 43.21875 16.703125 43.21875 25.484375 
L 43.21875 27.484375 
z
M 52.203125 31.203125 
L 52.203125 0 
L 43.21875 0 
L 43.21875 8.296875 
Q 40.140625 3.328125 35.546875 0.953125 
Q 30.953125 -1.421875 24.3125 -1.421875 
Q 15.921875 -1.421875 10.953125 3.296875 
Q 6 8.015625 6 15.921875 
Q 6 25.140625 12.171875 29.828125 
Q 18.359375 34.515625 30.609375 34.515625 
L 43.21875 34.515625 
L 43.21875 35.40625 
Q 43.21875 41.609375 39.140625 45 
Q 35.0625 48.390625 27.6875 48.390625 
Q 23 48.390625 18.546875 47.265625 
Q 14.109375 46.140625 10.015625 43.890625 
L 10.015625 52.203125 
Q 14.9375 54.109375 19.578125 55.046875 
Q 24.21875 56 28.609375 56 
Q 40.484375 56 46.34375 49.84375 
Q 52.203125 43.703125 52.203125 31.203125 
z
" id="DejaVuSans-61"/>
      <path d="M 45.40625 46.390625 
L 45.40625 75.984375 
L 54.390625 75.984375 
L 54.390625 0 
L 45.40625 0 
L 45.40625 8.203125 
Q 42.578125 3.328125 38.25 0.953125 
Q 33.9375 -1.421875 27.875 -1.421875 
Q 17.96875 -1.421875 11.734375 6.484375 
Q 5.515625 14.40625 5.515625 27.296875 
Q 5.515625 40.1875 11.734375 48.09375 
Q 17.96875 56 27.875 56 
Q 33.9375 56 38.25 53.625 
Q 42.578125 51.265625 45.40625 46.390625 
z
M 14.796875 27.296875 
Q 14.796875 17.390625 18.875 11.75 
Q 22.953125 6.109375 30.078125 6.109375 
Q 37.203125 6.109375 41.296875 11.75 
Q 45.40625 17.390625 45.40625 27.296875 
Q 45.40625 37.203125 41.296875 42.84375 
Q 37.203125 48.484375 30.078125 48.484375 
Q 22.953125 48.484375 18.875 42.84375 
Q 14.796875 37.203125 14.796875 27.296875 
z
" id="DejaVuSans-64"/>
      <path d="M 4.203125 54.6875 
L 13.1875 54.6875 
L 24.421875 12.015625 
L 35.59375 54.6875 
L 46.1875 54.6875 
L 57.421875 12.015625 
L 68.609375 54.6875 
L 77.59375 54.6875 
L 63.28125 0 
L 52.6875 0 
L 40.921875 44.828125 
L 29.109375 0 
L 18.5 0 
z
" id="DejaVuSans-77"/>
      <path d="M 54.890625 33.015625 
L 54.890625 0 
L 45.90625 0 
L 45.90625 32.71875 
Q 45.90625 40.484375 42.875 44.328125 
Q 39.84375 48.1875 33.796875 48.1875 
Q 26.515625 48.1875 22.3125 43.546875 
Q 18.109375 38.921875 18.109375 30.90625 
L 18.109375 0 
L 9.078125 0 
L 9.078125 75.984375 
L 18.109375 75.984375 
L 18.109375 46.1875 
Q 21.34375 51.125 25.703125 53.5625 
Q 30.078125 56 35.796875 56 
Q 45.21875 56 50.046875 50.171875 
Q 54.890625 44.34375 54.890625 33.015625 
z
" id="DejaVuSans-68"/>
      <path d="M 31 75.875 
Q 24.46875 64.65625 21.28125 53.65625 
Q 18.109375 42.671875 18.109375 31.390625 
Q 18.109375 20.125 21.3125 9.0625 
Q 24.515625 -2 31 -13.1875 
L 23.1875 -13.1875 
Q 15.875 -1.703125 12.234375 9.375 
Q 8.59375 20.453125 8.59375 31.390625 
Q 8.59375 42.28125 12.203125 53.3125 
Q 15.828125 64.359375 23.1875 75.875 
z
" id="DejaVuSans-28"/>
      <path d="M 9.078125 75.984375 
L 18.109375 75.984375 
L 18.109375 31.109375 
L 44.921875 54.6875 
L 56.390625 54.6875 
L 27.390625 29.109375 
L 57.625 0 
L 45.90625 0 
L 18.109375 26.703125 
L 18.109375 0 
L 9.078125 0 
z
" id="DejaVuSans-6b"/>
      <path d="M 48.6875 27.296875 
Q 48.6875 37.203125 44.609375 42.84375 
Q 40.53125 48.484375 33.40625 48.484375 
Q 26.265625 48.484375 22.1875 42.84375 
Q 18.109375 37.203125 18.109375 27.296875 
Q 18.109375 17.390625 22.1875 11.75 
Q 26.265625 6.109375 33.40625 6.109375 
Q 40.53125 6.109375 44.609375 11.75 
Q 48.6875 17.390625 48.6875 27.296875 
z
M 18.109375 46.390625 
Q 20.953125 51.265625 25.265625 53.625 
Q 29.59375 56 35.59375 56 
Q 45.5625 56 51.78125 48.09375 
Q 58.015625 40.1875 58.015625 27.296875 
Q 58.015625 14.40625 51.78125 6.484375 
Q 45.5625 -1.421875 35.59375 -1.421875 
Q 29.59375 -1.421875 25.265625 0.953125 
Q 20.953125 3.328125 18.109375 8.203125 
L 18.109375 0 
L 9.078125 0 
L 9.078125 75.984375 
L 18.109375 75.984375 
z
" id="DejaVuSans-62"/>
      <path d="M 8.015625 75.875 
L 15.828125 75.875 
Q 23.140625 64.359375 26.78125 53.3125 
Q 30.421875 42.28125 30.421875 31.390625 
Q 30.421875 20.453125 26.78125 9.375 
Q 23.140625 -1.703125 15.828125 -13.1875 
L 8.015625 -13.1875 
Q 14.5 -2 17.703125 9.0625 
Q 20.90625 20.125 20.90625 31.390625 
Q 20.90625 42.671875 17.703125 53.65625 
Q 14.5 64.65625 8.015625 75.875 
z
" id="DejaVuSans-29"/>
     </defs>
     <g transform="translate(4.670312 412.707812)rotate(-90)scale(0.1 -0.1)">
      <use xlink:href="#DejaVuSans-42"/>
      <use x="68.603516" xlink:href="#DejaVuSans-61"/>
      <use x="129.882812" xlink:href="#DejaVuSans-6e"/>
      <use x="193.261719" xlink:href="#DejaVuSans-64"/>
      <use x="256.738281" xlink:href="#DejaVuSans-77"/>
      <use x="338.525391" xlink:href="#DejaVuSans-69"/>
      <use x="366.308594" xlink:href="#DejaVuSans-64"/>
      <use x="429.785156" xlink:href="#DejaVuSans-74"/>
      <use x="468.994141" xlink:href="#DejaVuSans-68"/>
      <use x="532.373047" xlink:href="#DejaVuSans-20"/>
      <use x="564.160156" xlink:href="#DejaVuSans-28"/>
      <use x="603.173828" xlink:href="#DejaVuSans-6b"/>
      <use x="661.083984" xlink:href="#DejaVuSans-62"/>
      <use x="724.560547" xlink:href="#DejaVuSans-70"/>
      <use x="788.037109" xlink:href="#DejaVuSans-73"/>
      <use x="840.136719" xlink:href="#DejaVuSans-29"/>
     </g>
    </g>
   </g>
   <g id="line2d_16">
    <path clip-path="url(#p6690bc3822)" d="M 113.278409 598.867168 
L 114.235096 625.490354 
L 115.191784 628.635486 
L 116.148471 634.422548 
L 117.105159 633.813925 
L 118.061846 646.833084 
L 119.018533 625.459753 
L 119.975221 612.596967 
L 120.931908 645.945645 
L 121.888596 622.552623 
L 122.845283 645.612434 
L 123.80197 658.390225 
L 124.758658 630.434158 
L 125.715345 650.501843 
L 126.672033 662.973621 
L 127.62872 652.222329 
L 128.585407 644.310193 
L 129.542095 651.127488 
L 130.498782 666.928005 
L 131.45547 585.895594 
L 132.412157 589.421521 
L 133.368844 610.369876 
L 134.325532 555.069808 
L 135.282219 485.66251 
L 136.238906 557.109886 
L 137.195594 392.75677 
L 138.152281 613.776803 
L 139.108969 530.051471 
L 141.022343 642.460494 
L 141.979031 622.780412 
L 142.935718 621.824961 
L 143.892406 637.244682 
L 144.849093 632.113828 
L 145.80578 650.212852 
L 146.762468 591.009388 
L 147.719155 399.839302 
L 148.675843 580.829347 
L 149.63253 630.624575 
L 150.589217 542.21383 
L 151.545905 440.909699 
L 152.502592 528.480627 
L 153.45928 590.669407 
L 154.415967 580.220724 
L 155.372654 632.991093 
L 156.329342 461.660828 
L 157.286029 498.147867 
L 158.242716 567.058733 
L 159.199404 620.135116 
L 160.156091 383.613771 
L 161.112779 603.596762 
L 162.069466 616.731555 
L 163.026153 608.203988 
L 163.982841 538.817079 
L 164.939528 636.986254 
L 165.896216 532.928 
L 166.852903 402.457402 
L 167.80959 555.552621 
L 168.766278 618.084824 
L 169.722965 532.968814 
L 170.679653 634.765972 
L 171.63634 570.061071 
L 172.593027 661.385754 
L 173.549715 571.084534 
L 174.506402 631.035972 
L 175.46309 646.234675 
L 176.419777 563.464794 
L 177.376464 562.012913 
L 178.333152 625.806543 
L 179.289839 470.773264 
L 180.246526 608.482767 
L 181.203214 631.719415 
L 182.159901 615.667317 
L 183.116589 594.018535 
L 184.073276 595.446586 
L 185.029963 618.275203 
L 185.986651 519.545029 
L 186.943338 626.557998 
L 187.900026 446.533579 
L 188.856713 571.512953 
L 189.8134 619.186473 
L 190.770088 534.362897 
L 191.726775 646.207478 
L 192.683463 625.259123 
L 193.64015 535.365934 
L 194.596837 633.718717 
L 195.553525 535.559717 
L 196.510212 604.61682 
L 197.466899 527.23955 
L 198.423587 510.881438 
L 199.380274 632.467465 
L 200.336962 641.943675 
L 201.293649 637.074654 
L 202.250336 572.080761 
L 203.207024 642.429892 
L 204.163711 623.26663 
L 205.120399 632.977475 
L 206.077086 658.709818 
L 207.033773 632.460656 
L 207.990461 421.345252 
L 208.947148 504.982184 
L 209.903836 488.498224 
L 210.860523 562.356337 
L 211.81721 517.515125 
L 212.773898 568.231798 
L 213.730585 491.843986 
L 214.687273 517.613738 
L 215.64396 576.63696 
L 216.600647 610.961477 
L 217.557335 671.429772 
L 218.514022 623.412866 
L 219.470709 527.899201 
L 220.427397 645.231638 
L 221.384084 627.656242 
L 222.340772 548.126702 
L 223.297459 621.926979 
L 224.254146 500.718381 
L 225.210834 626.228191 
L 226.167521 411.195775 
L 227.124209 498.171659 
L 228.080896 645.544423 
L 229.037583 603.470952 
L 229.994271 605.375045 
L 230.950958 625.643361 
L 231.907646 558.531166 
L 232.864333 518.263176 
L 233.82102 533.730444 
L 234.777708 603.389361 
L 235.734395 593.885916 
L 236.691083 574.858677 
L 237.64777 640.695828 
L 238.604457 629.682741 
L 239.561145 633.385506 
L 240.517832 599.465578 
L 241.474519 633.722121 
L 242.431207 616.439121 
L 243.387894 635.054964 
L 244.344582 650.240049 
L 245.301269 547.77647 
L 246.257956 643.147341 
L 247.214644 507.790701 
L 248.171331 543.029854 
L 249.128019 619.543477 
L 250.084706 633.640492 
L 251.041393 497.566441 
L 251.998081 516.573292 
L 252.954768 571.489122 
L 253.911456 401.461175 
L 254.868143 551.46906 
L 255.82483 571.298744 
L 256.781518 619.237463 
L 257.738205 588.690493 
L 258.694893 519.817037 
L 259.65158 553.672358 
L 261.564955 636.792432 
L 262.521642 576.531577 
L 263.478329 570.390878 
L 264.435017 599.373773 
L 265.391704 632.141025 
L 266.348392 558.344153 
L 267.305079 569.211042 
L 268.261766 499.626945 
L 269.218454 625.435922 
L 270.175141 491.313549 
L 271.131829 553.458148 
L 272.088516 544.335538 
L 273.045203 627.809249 
L 274.001891 643.188118 
L 274.958578 572.835582 
L 275.915266 624.313885 
L 276.871953 559.782418 
L 277.82864 559.609023 
L 278.785328 471.579074 
L 281.65539 609.105007 
L 282.612077 627.357038 
L 283.568765 652.854744 
L 284.525452 652.188323 
L 285.482139 606.456306 
L 286.438827 591.478622 
L 287.395514 559.00717 
L 288.352202 522.472546 
L 289.308889 548.585723 
L 290.265576 645.887846 
L 291.222264 581.046961 
L 292.178951 340.217633 
L 293.135639 567.769373 
L 294.092326 442.694791 
L 295.049013 554.189177 
L 296.005701 443.54482 
L 296.962388 593.875741 
L 297.919076 609.785046 
L 298.875763 565.188646 
L 299.83245 608.982602 
L 300.789138 626.54438 
L 301.745825 638.86315 
L 302.702513 654.017596 
L 303.6592 648.312163 
L 304.615887 640.706003 
L 305.572575 666.074533 
L 306.529262 615.534698 
L 307.485949 599.149351 
L 308.442637 650.427061 
L 309.399324 641.923287 
L 310.356012 615.096066 
L 311.312699 665.142913 
L 312.269386 597.915121 
L 313.226074 646.605295 
L 314.182761 668.254039 
L 315.139449 579.316301 
L 316.096136 649.063579 
L 317.052823 657.240952 
L 318.009511 615.969926 
L 318.966198 615.946133 
L 319.922886 573.505408 
L 320.879573 561.319295 
L 321.83626 646.221057 
L 322.792948 629.356301 
L 323.749635 628.65247 
L 324.706323 653.405569 
L 325.66301 651.113871 
L 326.619697 660.093688 
L 327.576385 532.761413 
L 328.533072 670.168345 
L 329.489759 638.098116 
L 330.446447 634.507543 
L 331.403134 626.088764 
L 332.359822 640.536012 
L 333.316509 667.740624 
L 334.273196 430.590269 
L 335.229884 385.422656 
L 336.186571 331.081404 
L 337.143259 456.645609 
L 338.099946 454.636132 
L 339.056633 425.677028 
L 340.013321 466.84948 
L 340.970008 368.421877 
L 341.926696 436.758127 
L 342.883383 436.509911 
L 343.84007 455.65619 
L 344.796758 618.271837 
L 345.753445 654.044831 
L 346.710132 636.874062 
L 347.66682 640.267409 
L 348.623507 654.575229 
L 349.580195 636.139629 
L 350.536882 636.948844 
L 351.493569 568.612594 
L 352.450257 681.130404 
L 353.406944 678.474894 
L 354.363632 634.704769 
L 355.320319 661.032117 
L 356.277006 655.058042 
L 357.233694 619.472061 
L 358.190381 656.564318 
L 359.147069 588.010454 
L 360.103756 666.584581 
L 361.060443 654.854046 
L 362.017131 651.783696 
L 362.973818 631.532402 
L 363.930506 619.01304 
L 364.887193 660.559517 
L 365.84388 655.659895 
L 366.800568 557.007907 
L 367.757255 633.752723 
L 368.713942 663.11301 
L 369.67063 529.779463 
L 370.627317 671.654195 
L 371.584005 577.72503 
L 372.540692 675.183565 
L 373.497379 656.084909 
L 374.454067 570.231062 
L 375.410754 669.770528 
L 376.367442 637.628883 
L 377.324129 664.554678 
L 379.237504 611.60751 
L 380.194191 655.738081 
L 381.150879 651.851708 
L 382.107566 652.739147 
L 383.064253 614.96689 
L 384.020941 645.265606 
L 384.977628 671.892197 
L 385.934316 655.092048 
L 386.891003 508.212311 
L 387.84769 644.905198 
L 388.804378 661.208916 
L 389.761065 659.82168 
L 390.717752 649.543026 
L 391.67444 650.984695 
L 392.631127 599.261581 
L 393.587815 643.562143 
L 394.544502 661.739353 
L 395.501189 648.420951 
L 396.457877 661.909382 
L 397.414564 649.655218 
L 398.371252 665.775328 
L 399.327939 662.303795 
L 400.284626 647.934733 
L 401.241314 598.785539 
L 402.198001 646.391086 
L 403.154689 664.564891 
L 404.111376 650.750059 
L 405.068063 656.853348 
L 406.024751 656.0781 
L 406.981438 645.323442 
L 407.938126 677.271266 
L 408.894813 602.053114 
L 409.8515 596.296653 
L 410.808188 647.506314 
L 411.764875 657.567354 
L 412.721562 581.029977 
L 413.67825 634.028135 
L 414.634937 661.341535 
L 415.591625 642.225896 
L 416.548312 656.727538 
L 417.504999 690.977273 
L 418.461687 624.307076 
L 419.418374 625.95955 
L 420.375062 667.172816 
L 421.331749 655.214453 
L 422.288436 670.967385 
L 423.245124 678.882925 
L 424.201811 650.478051 
L 425.158499 641.743083 
L 426.115186 655.289274 
L 427.071873 640.944043 
L 428.028561 634.898552 
L 428.985248 661.882146 
L 429.941936 646.129253 
L 430.898623 661.936579 
L 431.85531 668.413854 
L 432.811998 472.303332 
L 433.768685 630.383168 
L 434.725372 624.466892 
L 435.68206 623.922876 
L 436.638747 602.121087 
L 437.595435 655.017266 
L 438.552122 666.832797 
L 439.508809 616.391536 
L 440.465497 621.501964 
L 441.422184 555.542407 
L 442.378872 569.462662 
L 443.335559 664.745095 
L 444.292246 640.478214 
L 445.248934 640.5564 
L 446.205621 503.370487 
L 447.162309 642.616905 
L 448.118996 599.135771 
L 449.075683 528.895428 
L 450.032371 627.999666 
L 450.989058 406.656598 
L 451.945746 409.322321 
L 452.902433 529.891694 
L 453.85912 506.961059 
L 454.815808 527.49117 
L 455.772495 571.485718 
L 456.729182 566.552128 
L 457.68587 635.38477 
L 458.642557 668.400237 
L 460.555932 588.160095 
L 461.512619 639.29834 
L 462.469307 654.707848 
L 463.425994 587.922055 
L 464.382682 656.781932 
L 465.339369 615.6843 
L 466.296056 663.77266 
L 467.252744 625.809947 
L 468.209431 615.691109 
L 469.166119 626.398182 
L 470.122806 624.456679 
L 471.079493 546.858429 
L 472.036181 632.022024 
L 472.992868 628.63889 
L 473.949556 665.958937 
L 474.906243 630.512382 
L 475.86293 646.363889 
L 476.819618 619.988879 
L 477.776305 622.562798 
L 478.732992 603.229545 
L 479.68968 639.03995 
L 480.646367 660.875706 
L 481.603055 677.638483 
L 482.559742 639.944373 
L 483.516429 627.207435 
L 484.473117 589.401133 
L 485.429804 643.290135 
L 486.386492 646.153045 
L 487.343179 645.235004 
L 488.299866 652.059109 
L 489.256554 652.766344 
L 490.213241 561.125473 
L 491.169929 627.622237 
L 492.126616 655.911514 
L 493.083303 604.984036 
L 494.039991 626.105786 
L 494.996678 604.91262 
L 495.953365 663.640042 
L 496.910053 676.434816 
L 497.86674 665.799121 
L 498.823428 671.783409 
L 499.780115 651.450486 
L 500.736802 654.072028 
L 501.69349 641.491463 
L 502.650177 601.913687 
L 503.606865 627.812654 
L 504.563552 616.843748 
L 505.520239 591.849242 
L 506.476927 623.627076 
L 507.433614 641.508447 
L 508.390302 637.846496 
L 509.346989 657.829187 
L 510.303676 654.527644 
L 511.260364 659.403436 
L 512.217051 668.039829 
L 513.173739 640.362617 
L 514.130426 644.109563 
L 515.087113 555.89264 
L 516.043801 637.965498 
L 517.000488 641.056235 
L 517.957175 576.718551 
L 518.913863 670.950363 
L 519.87055 670.793952 
L 520.827238 670.906183 
L 521.783925 644.585605 
L 522.740612 638.319096 
L 523.6973 606.755511 
L 524.653987 635.561607 
L 525.610675 680.130772 
L 526.567362 631.114196 
L 527.524049 651.74292 
L 528.480737 632.236234 
L 529.437424 606.041466 
L 530.394112 571.829142 
L 531.350799 635.119571 
L 532.307486 424.568571 
L 533.264174 655.982892 
L 534.220861 638.013083 
L 535.177549 601.28808 
L 536.134236 409.747336 
L 537.090923 443.21161 
L 538.047611 622.229588 
L 539.004298 643.783161 
L 539.960985 625.337348 
L 540.917673 640.617603 
L 541.87436 638.543519 
L 542.831048 507.114066 
L 543.787735 607.061525 
L 544.744422 511.935464 
L 545.70111 480.8615 
L 546.657797 504.013115 
L 547.614485 546.351823 
L 548.571172 598.615548 
L 549.527859 465.054175 
L 550.484547 663.014397 
L 551.441234 655.70748 
L 552.397922 660.535686 
L 553.354609 584.239716 
L 554.311296 635.609193 
L 555.267984 620.213302 
L 556.224671 639.036545 
L 557.181359 607.557955 
L 558.138046 617.476201 
L 559.094733 621.875989 
L 560.051421 628.149269 
L 561.008108 630.468163 
L 561.964795 614.470459 
L 562.921483 608.220972 
L 563.87817 644.320368 
L 564.834858 644.507381 
L 565.791545 641.596847 
L 566.748232 605.375045 
L 567.70492 642.994334 
L 568.661607 556.725686 
L 569.618295 589.577933 
L 570.574982 646.850106 
L 571.531669 659.655056 
L 572.488357 594.76999 
L 573.445044 630.580356 
L 574.401732 637.669697 
L 575.358419 630.638154 
L 576.315106 680.807407 
L 577.271794 651.481087 
L 578.228481 657.094754 
L 579.185169 615.004262 
L 580.141856 647.264908 
L 581.098543 615.089295 
L 582.055231 664.439082 
L 583.011918 619.550285 
L 583.968605 656.067887 
L 584.925293 648.46517 
L 585.88198 608.370574 
L 586.838668 557.011273 
L 587.795355 626.996592 
L 588.752042 647.309127 
L 589.70873 537.769824 
L 590.665417 632.977475 
L 591.622105 643.120144 
L 592.578792 637.251453 
L 593.535479 558.010943 
L 594.492167 657.818974 
L 595.448854 645.694025 
L 596.405542 615.680896 
L 597.362229 612.127733 
L 598.318916 507.022262 
L 599.275604 673.612682 
L 600.232291 641.692055 
L 601.188979 643.001105 
L 602.145666 617.272167 
L 603.102353 582.672238 
L 604.059041 634.266137 
L 605.015728 647.431532 
L 605.972415 629.080889 
L 606.929103 598.374142 
L 607.88579 592.988302 
L 608.842478 629.611325 
L 609.799165 613.110381 
L 610.755852 626.401586 
L 611.71254 648.346169 
L 612.669227 633.657514 
L 613.625915 608.78878 
L 614.582602 626.279181 
L 615.539289 602.474724 
L 616.495977 561.033669 
L 617.452664 605.817082 
L 618.409352 603.474356 
L 619.366039 456.152582 
L 620.322726 251.898693 
L 621.279414 220.501693 
L 622.236101 248.372727 
L 623.192788 286.604043 
L 624.149476 227.958213 
L 625.106163 655.316471 
L 626.062851 647.203705 
L 627.019538 580.247921 
L 627.976225 620.01271 
L 628.932913 504.594541 
L 629.8896 539.425702 
L 630.846288 501.789429 
L 631.802975 557.086093 
L 632.759662 578.534245 
L 633.71635 538.830697 
L 634.673037 442.57579 
L 635.629725 598.309535 
L 636.586412 493.503268 
L 637.543099 490.936158 
L 638.499787 659.015831 
L 639.456474 613.219207 
L 640.413162 580.635526 
L 642.326536 483.673422 
L 643.283224 574.981082 
L 644.239911 635.626176 
L 645.196598 619.030062 
L 646.153286 629.043517 
L 647.109973 611.379721 
L 648.066661 571.971974 
L 649.023348 619.002865 
L 649.980035 635.068581 
L 650.936723 613.174988 
L 651.89341 636.85704 
L 652.850098 656.83973 
L 653.806785 594.984199 
L 654.763472 551.63905 
L 655.72016 637.258262 
L 656.676847 664.469683 
L 658.590222 637.588068 
L 659.546909 656.496306 
L 660.503597 622.899413 
L 661.460284 607.044503 
L 662.416972 623.212236 
L 663.373659 618.060993 
L 664.330346 684.612189 
L 665.287034 637.166458 
L 666.243721 620.362905 
L 667.200408 641.239843 
L 668.157096 626.180568 
L 669.113783 651.919719 
L 670.070471 621.450974 
L 671.027158 651.623919 
L 671.983845 607.217936 
L 672.940533 632.277048 
L 673.89722 570.7921 
L 674.853908 610.767694 
L 675.810595 610.978499 
L 676.767282 484.506467 
L 677.72397 649.719826 
L 678.680657 583.831685 
L 679.637345 597.857323 
L 680.594032 578.167028 
L 681.550719 638.159319 
L 682.507407 577.252392 
L 683.464094 594.875373 
L 684.420782 634.225322 
L 685.377469 649.274384 
L 686.334156 623.21564 
L 687.290844 635.190987 
L 688.247531 617.251779 
L 689.204218 554.644793 
L 690.160906 653.211785 
L 691.117593 614.086221 
L 692.074281 629.890142 
L 693.030968 647.553938 
L 693.987655 649.019399 
L 694.944343 651.678313 
L 695.90103 601.386655 
L 696.857718 651.025471 
L 697.814405 639.770978 
L 699.72778 602.059885 
L 700.684467 593.868932 
L 701.641155 638.652345 
L 702.597842 658.342601 
L 703.554529 621.665184 
L 704.511217 652.348138 
L 705.467904 612.841778 
L 706.424592 649.808225 
L 707.381279 603.814376 
L 708.337966 661.30072 
L 709.294654 604.919429 
L 710.251341 622.634214 
L 711.208028 612.698984 
L 712.164716 420.059995 
L 713.121403 359.394475 
L 715.034778 365.922778 
L 715.991465 465.475823 
L 716.948153 673.684098 
L 717.90484 616.972962 
L 718.861528 650.787469 
L 719.818215 609.135608 
L 720.774902 597.129661 
L 721.73159 623.202023 
L 722.688277 353.40682 
L 723.644965 403.423028 
L 724.601652 333.043296 
L 725.558339 337.317312 
L 726.515027 361.710003 
L 727.471714 491.633181 
L 728.428402 572.866184 
L 729.385089 540.326759 
L 730.341776 560.911264 
L 731.298464 494.009874 
L 732.255151 46.522727 
L 733.211838 358.683834 
L 734.168526 451.035384 
L 735.125213 306.137927 
L 736.081901 396.976354 
L 737.038588 350.5065 
L 737.995275 341.016673 
L 738.951963 377.592111 
L 739.90865 387.874169 
L 740.865338 413.072671 
L 741.822025 483.874013 
L 742.778712 370.897183 
L 743.7354 292.224481 
L 744.692087 350.265093 
L 745.648775 281.425604 
L 746.605462 343.430776 
L 747.562149 384.759601 
L 748.518837 289.973598 
L 749.475524 493.306042 
L 750.432212 601.243861 
L 751.388899 643.592744 
L 752.345586 637.166458 
L 753.302274 543.315479 
L 754.258961 661.025308 
L 755.215648 628.472266 
L 756.172336 636.115798 
L 757.129023 633.358309 
L 758.085711 632.851665 
L 759.999085 603.671582 
L 760.955773 616.513942 
L 761.91246 612.233155 
L 762.869148 613.875415 
L 763.825835 635.782587 
L 764.782522 603.331563 
L 765.73921 562.968364 
L 766.695897 620.94433 
L 767.652585 649.662027 
L 768.609272 565.831274 
L 769.565959 593.539126 
L 770.522647 595.606401 
L 771.479334 621.311547 
L 772.436021 597.530883 
L 773.392709 593.039291 
L 774.349396 597.014064 
L 775.306084 622.450606 
L 776.262771 609.666045 
L 777.219458 624.082692 
L 778.176146 648.937769 
L 779.132833 646.884112 
L 780.089521 644.21158 
L 782.002895 578.316631 
L 782.959583 642.66449 
L 783.91627 638.999135 
L 784.872958 641.236439 
L 785.829645 640.981415 
L 786.786332 624.555291 
L 787.74302 632.47087 
L 788.699707 527.735981 
L 789.656395 625.119734 
L 791.569769 651.028875 
L 792.526457 637.564275 
L 793.483144 659.87267 
L 794.439831 633.215477 
L 795.396519 629.91053 
L 796.353206 631.233197 
L 797.309894 665.853553 
L 798.266581 556.334677 
L 799.223268 598.792348 
L 800.179956 627.561034 
L 801.136643 572.165757 
L 802.093331 600.41422 
L 803.050018 609.808838 
L 804.006705 609.217199 
L 804.963393 595.208584 
L 805.92008 603.970787 
L 806.876768 565.161449 
L 807.833455 636.075022 
L 808.790142 643.854577 
L 809.74683 639.774382 
L 810.703517 605.099633 
L 811.660205 660.593523 
L 812.616892 610.716666 
L 813.573579 625.561732 
L 814.530267 577.891616 
L 815.486954 611.753746 
L 816.443641 480.232451 
L 817.400329 561.540275 
L 818.357016 553.665549 
L 819.313704 560.340051 
L 820.270391 614.116822 
L 822.183766 674.972759 
L 823.140453 517.617143 
L 824.097141 600.781436 
L 825.053828 610.618092 
L 826.010515 499.528332 
L 826.967203 543.325693 
L 827.92389 632.535439 
L 828.880578 635.684013 
L 829.837265 631.2944 
L 830.793952 649.322008 
L 831.75064 627.907862 
L 832.707327 637.251453 
L 833.664015 638.880134 
L 834.620702 595.779835 
L 835.577389 580.89055 
L 836.534077 533.444857 
L 838.447451 649.940844 
L 839.404139 643.181347 
L 840.360826 612.477966 
L 841.317514 611.240294 
L 842.274201 601.21326 
L 843.230888 661.793747 
L 844.187576 603.134337 
L 845.144263 645.078632 
L 846.100951 601.169041 
L 847.057638 579.901093 
L 848.014325 545.766993 
L 848.971013 633.807116 
L 849.9277 661.249731 
L 850.884388 576.694759 
L 851.841075 601.362862 
L 852.797762 558.867781 
L 853.75445 592.981493 
L 854.711137 641.437069 
L 855.667825 567.755756 
L 856.624512 629.257726 
L 857.581199 587.235245 
L 858.537887 584.185284 
L 859.494574 590.026778 
L 860.451261 633.674498 
L 861.407949 631.379396 
L 862.364636 608.550778 
L 863.321324 620.69952 
L 864.278011 636.999871 
L 865.234698 646.931697 
L 866.191386 627.251616 
L 867.148073 622.29079 
L 868.104761 668.002419 
L 869.061448 601.009263 
L 870.018135 625.143526 
L 870.974823 620.543108 
L 871.93151 654.85745 
L 872.888198 619.111653 
L 873.844885 615.932516 
L 874.801572 605.37845 
L 875.75826 620.801537 
L 876.714947 660.236482 
L 877.671635 570.975708 
L 877.671635 570.975708 
" style="fill:none;stroke:#000000;stroke-linecap:square;stroke-width:1.5;"/>
   </g>
   <g id="line2d_17">
    <path clip-path="url(#p6690bc3822)" d="M 878.628322 650.699069 
L 879.585009 637.333082 
L 880.541697 659.814871 
L 881.498384 638.489125 
L 882.455071 637.56768 
L 883.411759 634.194721 
L 884.368446 623.882061 
L 885.325134 627.822829 
L 886.281821 640.240212 
L 887.238508 639.478582 
L 888.195196 630.301539 
L 889.151883 619.091265 
L 890.108571 611.780943 
L 891.065258 622.117396 
L 892.021945 602.712726 
L 892.978633 630.145166 
L 893.93532 624.058861 
L 894.892008 646.261871 
L 895.848695 629.135321 
L 896.805382 653.225365 
L 897.76207 619.162643 
L 898.718757 618.278607 
L 899.675444 610.410653 
L 900.632132 655.279061 
L 901.588819 650.532445 
L 902.545507 602.903143 
L 903.502194 604.688198 
L 904.458881 639.747185 
L 905.415569 615.796493 
L 906.372256 646.170067 
L 907.328944 615.857695 
L 908.285631 650.501843 
L 909.242318 638.652345 
L 910.199006 642.123879 
L 911.155693 642.144267 
L 912.112381 603.05615 
L 913.069068 610.264455 
L 914.025755 633.004672 
L 914.982443 630.141762 
L 915.93913 562.869751 
L 916.895818 651.392687 
L 917.852505 617.183767 
L 918.809192 549.296363 
L 919.76588 621.70596 
L 920.722567 594.351745 
L 921.679254 619.801905 
L 922.635942 608.982602 
L 923.592629 659.301457 
L 924.549317 624.976902 
L 925.506004 652.487528 
L 926.462691 638.247719 
L 927.419379 636.625846 
L 928.376066 666.720566 
L 929.332754 635.33378 
L 930.289441 607.931942 
L 931.246128 635.806418 
L 932.202816 593.906343 
L 933.159503 610.975095 
L 934.116191 553.203124 
L 935.072878 611.17232 
L 936.029565 618.751245 
L 936.986253 586.242384 
L 937.94294 627.513449 
L 938.899628 607.748334 
L 939.856315 614.834271 
L 940.813002 635.320163 
L 941.76969 644.983423 
L 942.726377 662.885221 
L 943.683064 626.656611 
L 944.639752 640.631221 
L 945.596439 608.901011 
L 946.553127 602.682125 
L 947.509814 635.497 
L 948.466501 423.116727 
L 949.423189 405.877946 
L 950.379876 666.81237 
L 951.336564 632.67827 
L 952.293251 627.720849 
L 953.249938 607.483135 
L 954.206626 625.06534 
L 955.163313 616.632943 
L 956.120001 659.719663 
L 957.076688 645.68385 
L 958.033375 634.357941 
L 958.990063 627.843255 
L 959.94675 594.385751 
L 960.903438 637.193655 
L 961.860125 648.998972 
L 962.816812 620.896745 
L 963.7735 634.262733 
L 964.730187 649.546431 
L 965.686874 598.39453 
L 966.643562 640.75703 
L 967.600249 594.273559 
L 968.556937 615.031458 
L 969.513624 647.360116 
L 970.470311 657.971981 
L 971.426999 613.29399 
L 972.383686 602.675316 
L 973.340374 632.385836 
L 974.297061 624.477105 
L 975.253748 635.133188 
L 976.210436 659.005618 
L 977.167123 625.809947 
L 978.123811 621.57338 
L 979.080498 640.325207 
L 980.037185 616.918568 
L 980.993873 640.376196 
L 981.95056 654.612639 
L 982.907248 606.25908 
L 983.863935 638.376933 
L 984.820622 600.349613 
L 985.77731 625.582158 
L 986.733997 667.200013 
L 987.690684 644.129989 
L 988.647372 656.764948 
L 989.604059 647.672939 
L 990.560747 652.37874 
L 991.517434 610.46168 
L 992.474121 611.199517 
L 993.430809 643.014723 
L 994.387496 637.846496 
L 995.344184 648.118341 
L 996.300871 649.332221 
L 997.257558 570.86692 
L 998.214246 635.364382 
L 999.170933 593.794112 
L 1000.127621 631.277416 
L 1001.084308 574.940306 
L 1002.040995 569.768675 
L 1002.997683 602.84875 
L 1003.95437 592.369466 
L 1004.911058 631.12441 
L 1005.867745 620.417298 
L 1006.824432 621.355766 
L 1007.78112 612.600371 
L 1008.737807 624.082692 
L 1009.694494 626.568173 
L 1010.651182 516.950722 
L 1011.607869 556.994289 
L 1012.564557 607.088722 
L 1013.521244 630.318561 
L 1014.477931 517.069723 
L 1015.434619 598.975956 
L 1016.391306 671.341372 
L 1018.304681 609.054018 
L 1019.261368 608.972388 
L 1020.218056 643.310523 
L 1021.174743 641.671667 
L 1022.131431 651.817702 
L 1023.088118 528.473818 
L 1024.044805 619.512875 
L 1025.001493 612.396375 
L 1025.95818 595.609806 
L 1026.914868 632.066243 
L 1027.871555 632.899289 
L 1028.828242 631.433789 
L 1029.78493 627.574651 
L 1030.741617 613.606812 
L 1031.698304 617.210964 
L 1032.654992 636.520425 
L 1033.611679 615.990314 
L 1034.568367 601.529487 
L 1035.525054 484.601676 
L 1036.481741 636.874062 
L 1037.438429 627.530432 
L 1038.395116 619.308879 
L 1039.351804 584.634129 
L 1040.308491 660.899537 
L 1041.265178 535.920163 
L 1042.221866 633.269871 
L 1043.178553 654.826849 
L 1044.135241 597.75871 
L 1045.091928 642.599921 
L 1046.048615 650.505248 
L 1047.005303 646.258467 
L 1047.96199 610.33587 
L 1048.918677 623.276843 
L 1049.875365 513.931361 
L 1049.875365 513.931361 
" style="fill:none;stroke:#1f77b4;stroke-linecap:square;stroke-width:1.5;"/>
   </g>
   <g id="line2d_18">
    <path clip-path="url(#p6690bc3822)" d="M 1050.832052 633.49089 
L 1051.78874 622.736232 
L 1052.745427 646.448884 
L 1053.702114 638.791734 
L 1054.658802 576.361548 
L 1055.615489 632.192053 
L 1056.572177 635.677204 
L 1057.528864 627.102013 
L 1058.485551 661.688363 
L 1059.442239 622.113991 
L 1060.398926 644.146973 
L 1061.355614 623.491052 
L 1062.312301 643.001105 
L 1063.268988 652.909176 
L 1064.225676 556.426481 
L 1065.182363 636.863848 
L 1066.139051 645.643035 
L 1067.095738 604.334599 
L 1068.052425 596.908681 
L 1069.009113 627.105418 
" style="fill:none;stroke:#ff7f0e;stroke-linecap:square;stroke-width:1.5;"/>
   </g>
   <g id="line2d_19">
    <path clip-path="url(#p6690bc3822)" d="M 1069.9658 659.825084 
L 1070.922487 661.324551 
L 1071.879175 660.392893 
L 1072.835862 547.08966 
L 1073.79255 646.469272 
L 1074.749237 627.340015 
L 1075.705924 616.530925 
L 1076.662612 591.543229 
L 1077.619299 627.234632 
L 1078.575987 616.204523 
L 1079.532674 617.734592 
L 1080.489361 580.608329 
L 1081.446049 644.718186 
L 1082.402736 633.511316 
L 1083.359424 601.920495 
L 1084.316111 605.181224 
L 1085.272798 628.747678 
L 1086.229486 590.074363 
L 1087.186173 590.77479 
L 1088.142861 604.895637 
L 1089.099548 575.368725 
L 1090.056235 626.221383 
L 1091.012923 565.110459 
L 1091.96961 559.027597 
L 1092.926297 567.844156 
L 1093.882985 567.738772 
L 1094.839672 635.024362 
L 1095.79636 589.832957 
L 1096.753047 585.762975 
L 1097.709734 619.635281 
L 1098.666422 611.767326 
L 1099.623109 583.971074 
L 1100.579797 604.215598 
L 1101.536484 629.930956 
L 1102.493171 492.462822 
L 1103.449859 612.416763 
L 1104.406546 600.988837 
L 1105.363234 629.764332 
L 1106.319921 606.514104 
L 1107.276608 594.77676 
L 1108.233296 597.575102 
L 1109.189983 587.102627 
L 1110.146671 563.553194 
L 1111.103358 618.125601 
L 1112.060045 611.117888 
L 1113.016733 581.125147 
L 1113.97342 616.86754 
L 1114.930107 514.931032 
L 1115.886795 467.930703 
L 1116.843482 598.027313 
L 1117.80017 607.343746 
L 1118.756857 603.776965 
L 1119.713544 635.891414 
L 1120.670232 623.742672 
L 1121.626919 646.081668 
L 1122.583607 658.213387 
L 1123.540294 599.798788 
L 1124.496981 615.194678 
L 1125.453669 637.890677 
L 1126.410356 592.580271 
L 1127.367044 623.05242 
L 1128.323731 640.121211 
L 1129.280418 644.418981 
L 1130.237106 621.042943 
L 1131.193793 631.559599 
L 1132.150481 661.620352 
L 1133.107168 623.487648 
L 1134.063855 621.729791 
L 1135.020543 610.818683 
L 1135.97723 647.251328 
L 1136.933917 586.905439 
L 1137.890605 591.665634 
L 1138.847292 648.913977 
L 1139.80398 620.600907 
L 1140.760667 641.09705 
L 1141.717354 614.783281 
L 1143.630729 667.869839 
L 1144.587417 637.241278 
L 1145.544104 638.78833 
L 1146.500791 634.918979 
L 1147.457479 628.720481 
L 1148.414166 615.419101 
L 1150.327541 640.995033 
L 1151.284228 643.891949 
L 1152.240916 641.685246 
L 1153.197603 578.632858 
L 1154.154291 529.05184 
L 1155.110978 638.254527 
L 1156.067665 620.56013 
L 1157.024353 633.416108 
L 1157.98104 668.526047 
L 1158.937727 623.076251 
L 1159.894415 616.456143 
L 1160.851102 601.203046 
L 1161.80779 661.701943 
L 1162.764477 631.848629 
L 1163.721164 622.63081 
L 1164.677852 629.036708 
L 1165.634539 628.428085 
L 1166.591227 628.72729 
L 1167.547914 646.846702 
L 1168.504601 612.987976 
L 1169.461289 601.182658 
L 1170.417976 629.611325 
L 1171.374664 518.042157 
L 1172.331351 603.606975 
L 1173.288038 636.982849 
L 1174.244726 579.251694 
L 1175.201413 486.961385 
L 1176.158101 613.691807 
L 1178.071475 598.210922 
L 1179.028163 618.951837 
L 1179.98485 557.94974 
L 1180.941537 505.328974 
L 1181.898225 526.280733 
L 1182.854912 500.575588 
L 1183.8116 621.984777 
L 1184.768287 597.6329 
L 1185.724974 544.566731 
L 1186.681662 612.345347 
L 1187.638349 625.507338 
L 1188.595037 537.582811 
L 1189.551724 622.216008 
L 1190.508411 639.118136 
L 1191.465099 629.941131 
L 1192.421786 649.842231 
L 1193.378474 627.017018 
L 1194.335161 622.433622 
L 1195.291848 585.001346 
L 1196.248536 579.503275 
L 1197.205223 586.137001 
L 1198.16191 647.492735 
L 1199.118598 631.073382 
L 1200.075285 619.040237 
L 1201.031973 618.132409 
L 1201.98866 624.568909 
L 1202.945347 587.000609 
L 1203.902035 639.509183 
L 1204.858722 608.5678 
L 1205.81541 647.234306 
L 1206.772097 648.077565 
L 1207.728784 630.100947 
L 1208.685472 615.480304 
L 1209.642159 657.771389 
L 1210.598847 615.905319 
L 1211.555534 606.758915 
L 1212.512221 645.377836 
L 1213.468909 634.415739 
L 1214.425596 611.284513 
L 1215.382284 645.337022 
L 1216.338971 623.307444 
L 1217.295658 573.658415 
L 1218.252346 631.052994 
L 1219.209033 624.303672 
L 1220.16572 643.092909 
L 1221.122408 626.537571 
L 1222.079095 658.2236 
L 1223.035783 553.203124 
L 1223.99247 616.554756 
L 1224.949157 587.718058 
L 1225.905845 601.818478 
L 1226.862532 678.294691 
L 1227.81922 617.472797 
L 1228.775907 629.519521 
L 1229.732594 632.464061 
L 1230.689282 654.633028 
L 1231.645969 594.300756 
L 1232.602657 559.285987 
L 1233.559344 631.926816 
L 1234.516031 467.723302 
L 1235.472719 572.43436 
L 1236.429406 609.557219 
L 1237.386094 625.850762 
L 1238.342781 601.104472 
L 1239.299468 635.507175 
L 1240.256156 589.921356 
L 1241.212843 611.128102 
L 1242.16953 617.822991 
L 1243.126218 628.77828 
L 1244.082905 605.096228 
L 1245.039593 649.413812 
L 1245.99628 566.130479 
L 1246.952967 555.498227 
L 1248.866342 611.430711 
L 1249.82303 626.819792 
L 1250.779717 353.597237 
L 1252.693092 614.84785 
L 1253.649779 622.610422 
L 1254.606467 640.433995 
L 1255.563154 637.101851 
L 1256.519841 613.535396 
L 1257.476529 637.577893 
L 1258.433216 627.567843 
L 1259.389904 595.684626 
L 1260.346591 655.894492 
L 1260.346591 655.894492 
" style="fill:none;stroke:#2ca02c;stroke-linecap:square;stroke-width:1.5;"/>
   </g>
   <g id="line2d_20">
    <path clip-path="url(#p6690bc3822)" d="M 158.242716 593.658974 
L 159.199404 594.102057 
L 160.156091 589.062961 
L 161.112779 588.541321 
L 162.069466 588.172759 
L 163.026153 587.639218 
L 163.982841 585.388885 
L 164.939528 585.62902 
L 165.896216 583.96925 
L 166.852903 578.896578 
L 167.80959 577.500745 
L 168.766278 576.927253 
L 169.722965 574.314307 
L 170.679653 574.404553 
L 171.63634 572.728704 
L 172.593027 572.695623 
L 173.549715 571.005253 
L 174.506402 570.728706 
L 175.46309 570.626773 
L 176.419777 568.471289 
L 177.376464 567.973733 
L 178.333152 568.731755 
L 179.289839 565.823492 
L 180.246526 566.936262 
L 181.203214 569.979114 
L 182.159901 571.19906 
L 183.116589 575.392014 
L 184.073276 575.010134 
L 185.029963 576.848129 
L 185.986651 575.440608 
L 186.943338 575.109306 
L 187.900026 571.437497 
L 188.856713 570.38933 
L 189.8134 570.013117 
L 190.770088 567.97664 
L 191.726775 567.893194 
L 192.683463 568.60673 
L 193.64015 571.430202 
L 194.596837 572.532064 
L 195.553525 570.551546 
L 196.510212 571.851608 
L 197.466899 573.650147 
L 198.423587 573.283497 
L 199.380274 574.15429 
L 200.336962 575.440185 
L 201.293649 575.525259 
L 202.250336 577.825674 
L 203.207024 580.83155 
L 204.163711 582.002548 
L 205.120399 582.270097 
L 206.077086 588.001264 
L 207.033773 588.602595 
L 207.990461 584.532047 
L 208.947148 582.381593 
L 209.903836 581.333284 
L 210.860523 579.778494 
L 211.81721 579.457392 
L 212.773898 582.911026 
L 213.730585 581.583762 
L 214.687273 579.490615 
L 215.64396 580.400368 
L 216.600647 579.904441 
L 217.557335 582.016289 
L 219.470709 580.325492 
L 220.427397 580.621235 
L 222.340772 579.914641 
L 223.297459 581.162851 
L 224.254146 578.556848 
L 225.210834 581.795492 
L 226.167521 577.685346 
L 227.124209 574.903101 
L 228.080896 575.525541 
L 230.950958 576.082813 
L 231.907646 576.895024 
L 232.864333 574.638882 
L 233.82102 576.455483 
L 234.777708 577.119575 
L 235.734395 576.59248 
L 236.691083 577.436142 
L 237.64777 577.321316 
L 238.604457 577.413475 
L 239.561145 579.455549 
L 240.517832 578.741942 
L 241.474519 580.786992 
L 242.431207 581.03329 
L 243.387894 583.279444 
L 244.344582 586.182749 
L 245.301269 584.418353 
L 246.257956 584.443429 
L 247.214644 581.750014 
L 249.128019 580.667986 
L 250.084706 580.884108 
L 251.998081 575.101867 
L 252.954768 573.831627 
L 253.911456 573.417376 
L 254.868143 574.385852 
L 255.82483 576.110863 
L 256.781518 577.295886 
L 257.738205 578.778707 
L 258.694893 577.770066 
L 259.65158 579.058157 
L 260.608267 580.654103 
L 261.564955 581.907342 
L 262.521642 581.190053 
L 263.478329 579.085076 
L 264.435017 578.584261 
L 265.391704 580.755966 
L 266.348392 578.94581 
L 267.305079 577.728202 
L 268.261766 576.71779 
L 269.218454 576.790893 
L 270.175141 576.594959 
L 271.131829 575.078916 
L 273.045203 580.553445 
L 274.001891 580.504355 
L 274.958578 579.866118 
L 275.915266 580.260677 
L 276.871953 578.888574 
L 277.82864 578.91103 
L 278.785328 577.938444 
L 279.742015 577.629951 
L 280.698703 576.90239 
L 281.65539 577.219454 
L 282.612077 578.31317 
L 283.568765 578.566481 
L 284.525452 579.035347 
L 285.482139 578.474322 
L 286.438827 578.307927 
L 287.395514 576.751365 
L 289.308889 572.992286 
L 290.265576 572.901615 
L 291.222264 573.59475 
L 292.178951 567.283715 
L 293.135639 568.53327 
L 294.092326 566.442957 
L 295.049013 565.081409 
L 296.005701 561.121082 
L 297.919076 565.069437 
L 298.875763 564.938178 
L 299.83245 569.261541 
L 301.745825 572.233202 
L 302.702513 572.957788 
L 303.6592 574.199906 
L 305.572575 579.060138 
L 306.529262 579.504212 
L 307.485949 578.719981 
L 309.399324 581.749728 
L 310.356012 582.077276 
L 311.312699 582.764816 
L 312.269386 583.589211 
L 313.226074 585.201591 
L 314.182761 588.714655 
L 315.139449 587.75383 
L 316.096136 591.040289 
L 317.052823 593.202431 
L 318.009511 594.694814 
L 318.966198 594.447666 
L 319.922886 592.995942 
L 320.879573 592.75602 
L 321.83626 593.212419 
L 323.749635 596.10028 
L 324.706323 599.888332 
L 325.66301 602.642313 
L 326.619697 604.551215 
L 327.576385 602.960723 
L 328.533072 603.852626 
L 330.446447 603.176846 
L 331.403134 603.585856 
L 332.359822 604.607885 
L 333.316509 606.873165 
L 334.273196 604.958951 
L 335.229884 601.55972 
L 336.186571 595.001253 
L 337.143259 592.409558 
L 338.099946 594.793277 
L 339.056633 591.83302 
L 340.013321 592.336242 
L 340.970008 588.46609 
L 341.926696 588.324701 
L 343.84007 581.835228 
L 345.753445 583.879924 
L 346.710132 584.095126 
L 348.623507 584.135999 
L 349.580195 583.882404 
L 350.536882 583.80413 
L 351.493569 581.773673 
L 352.450257 583.14025 
L 353.406944 584.792866 
L 354.363632 584.465318 
L 355.320319 584.863419 
L 356.277006 585.69596 
L 357.233694 584.744484 
L 358.190381 585.966342 
L 359.147069 584.745616 
L 360.103756 584.710836 
L 361.060443 586.284539 
L 362.017131 586.341208 
L 362.973818 585.805613 
L 363.930506 585.869011 
L 364.887193 586.798457 
L 365.84388 588.510009 
L 366.800568 588.420188 
L 367.757255 588.160431 
L 368.713942 588.863696 
L 369.67063 586.803842 
L 370.627317 587.184021 
L 371.584005 585.655087 
L 372.540692 585.96946 
L 373.497379 588.538699 
L 374.454067 586.456672 
L 375.410754 587.116514 
L 376.367442 587.181542 
L 377.324129 587.982915 
L 378.280816 587.910166 
L 379.237504 586.740726 
L 380.194191 591.431306 
L 381.150879 596.981911 
L 382.107566 603.683114 
L 383.064253 606.981474 
L 384.020941 610.952921 
L 384.977628 616.082404 
L 385.934316 620.004124 
L 386.891003 622.916425 
L 389.761065 636.187499 
L 390.717752 636.838982 
L 391.67444 636.77523 
L 392.631127 635.991636 
L 394.544502 636.209529 
L 395.501189 636.46539 
L 396.457877 636.985401 
L 397.414564 638.673789 
L 399.327939 638.016994 
L 400.284626 638.292618 
L 401.241314 636.995814 
L 402.198001 636.815253 
L 403.154689 637.754687 
L 404.111376 637.633556 
L 405.068063 639.067783 
L 406.981438 638.650344 
L 407.938126 639.181335 
L 408.894813 638.567183 
L 409.8515 638.093925 
L 410.808188 637.821984 
L 411.764875 637.861722 
L 412.721562 638.362182 
L 414.634937 638.331014 
L 415.591625 640.673648 
L 416.548312 640.362676 
L 417.504999 642.722098 
L 418.461687 641.662171 
L 419.418374 641.034559 
L 420.375062 643.054179 
L 421.331749 642.750928 
L 422.288436 643.44548 
L 424.201811 644.02386 
L 425.158499 644.651684 
L 426.115186 644.642334 
L 427.071873 644.415091 
L 428.028561 644.043412 
L 428.985248 645.020813 
L 429.941936 645.038806 
L 430.898623 644.831397 
L 431.85531 645.108935 
L 432.811998 644.360831 
L 433.768685 644.058289 
L 435.68206 642.544938 
L 436.638747 641.556981 
L 437.595435 641.640993 
L 438.552122 643.048727 
L 439.508809 642.482672 
L 440.465497 641.644393 
L 442.378872 637.78345 
L 443.335559 638.097823 
L 445.248934 637.117729 
L 446.205621 634.105974 
L 447.162309 635.019127 
L 448.118996 634.034642 
L 449.075683 631.208194 
L 450.032371 630.734228 
L 451.945746 620.38105 
L 452.902433 617.976222 
L 453.85912 614.428093 
L 454.815808 612.874719 
L 455.772495 612.357824 
L 456.729182 610.671279 
L 457.68587 610.209142 
L 458.642557 612.029356 
L 459.599245 611.933584 
L 460.555932 610.408971 
L 462.469307 610.305903 
L 463.425994 608.15892 
L 464.382682 608.835479 
L 465.339369 608.621412 
L 466.296056 608.550575 
L 467.252744 607.937981 
L 469.166119 605.69296 
L 470.122806 605.150848 
L 471.079493 603.174084 
L 472.036181 602.68935 
L 472.992868 602.432993 
L 473.949556 603.080084 
L 474.906243 602.426547 
L 475.86293 602.431435 
L 477.776305 600.602295 
L 478.732992 603.329924 
L 479.68968 603.510274 
L 480.646367 604.268791 
L 481.603055 605.387866 
L 482.559742 606.175851 
L 483.516429 605.596479 
L 484.473117 603.98332 
L 486.386492 605.057271 
L 488.299866 608.646627 
L 489.256554 608.397069 
L 490.213241 606.743887 
L 491.169929 606.474425 
L 492.126616 609.652364 
L 493.083303 608.868345 
L 494.039991 609.430221 
L 494.996678 611.013912 
L 495.953365 611.75642 
L 497.86674 622.720066 
L 500.736802 631.323441 
L 501.69349 632.781894 
L 502.650177 633.518593 
L 503.606865 633.360841 
L 504.563552 632.286747 
L 505.520239 631.503792 
L 506.476927 632.242687 
L 507.433614 632.288731 
L 508.390302 631.937453 
L 509.346989 633.393851 
L 510.303676 633.346887 
L 511.260364 634.257702 
L 512.217051 634.346602 
L 513.173739 634.649782 
L 514.130426 635.241834 
L 515.087113 633.772968 
L 516.043801 634.054402 
L 517.000488 636.016856 
L 517.957175 634.8647 
L 518.913863 635.746189 
L 519.87055 635.846919 
L 520.827238 636.688456 
L 521.783925 636.651409 
L 522.740612 637.033288 
L 523.6973 636.70397 
L 524.653987 637.377554 
L 525.610675 638.233613 
L 527.524049 637.074091 
L 528.480737 636.913505 
L 530.394112 636.106464 
L 531.350799 635.936244 
L 532.307486 631.319901 
L 533.264174 631.543815 
L 534.220861 631.251189 
L 535.177549 630.178726 
L 536.134236 627.025014 
L 537.090923 623.183126 
L 538.047611 622.481419 
L 539.004298 623.289735 
L 539.960985 623.273725 
L 540.917673 624.017579 
L 541.87436 623.494735 
L 542.831048 619.967219 
L 543.787735 618.743519 
L 546.657797 608.733189 
L 547.614485 606.751114 
L 548.571172 606.682402 
L 549.527859 603.291601 
L 550.484547 604.253489 
L 551.441234 605.583869 
L 552.397922 606.352799 
L 553.354609 605.1597 
L 554.311296 605.113089 
L 555.267984 604.329425 
L 556.224671 604.006694 
L 558.138046 601.873171 
L 560.051421 601.155527 
L 561.008108 602.709183 
L 561.964795 602.219703 
L 562.921483 601.535635 
L 563.87817 602.944007 
L 565.791545 601.784838 
L 566.748232 600.419606 
L 567.70492 600.386455 
L 568.661607 598.686592 
L 569.618295 598.328726 
L 570.574982 598.563903 
L 571.531669 598.137325 
L 572.488357 597.380154 
L 573.445044 596.939268 
L 574.401732 597.052465 
L 575.358419 597.564896 
L 576.315106 599.835276 
L 577.271794 600.176141 
L 578.228481 605.020437 
L 579.185169 604.166715 
L 581.098543 604.646987 
L 582.055231 609.953065 
L 583.011918 613.626787 
L 583.968605 614.331752 
L 584.925293 614.429294 
L 585.88198 614.075819 
L 586.838668 612.334021 
L 587.795355 612.09346 
L 588.752042 615.01419 
L 589.70873 613.570613 
L 590.665417 616.092322 
L 591.622105 619.47271 
L 592.578792 622.248509 
L 593.535479 622.491407 
L 594.492167 623.724812 
L 595.448854 627.488142 
L 597.362229 625.594116 
L 598.318916 622.39592 
L 599.275604 624.257857 
L 600.232291 624.384583 
L 601.188979 624.859329 
L 603.102353 623.887452 
L 604.059041 624.237242 
L 605.015728 624.769649 
L 605.972415 624.789058 
L 606.929103 624.120432 
L 607.88579 623.672888 
L 608.842478 624.11852 
L 609.799165 623.468312 
L 610.755852 623.091108 
L 611.71254 623.231719 
L 612.669227 623.820937 
L 613.625915 623.108321 
L 614.582602 624.557352 
L 615.539289 624.826035 
L 616.495977 623.038193 
L 617.452664 621.916568 
L 618.409352 622.097909 
L 619.366039 618.463998 
L 621.279414 601.882592 
L 622.236101 592.873536 
L 623.192788 585.271931 
L 624.149476 576.331586 
L 625.106163 577.171424 
L 626.062851 577.170149 
L 627.019538 576.444287 
L 627.976225 575.518738 
L 629.8896 570.693781 
L 630.846288 567.638036 
L 631.802975 566.56961 
L 632.759662 567.018005 
L 633.71635 565.181215 
L 634.673037 560.915937 
L 635.629725 562.177181 
L 637.543099 556.100969 
L 638.499787 556.554394 
L 639.456474 557.704566 
L 640.413162 556.096577 
L 641.369849 553.717109 
L 642.326536 550.966954 
L 643.283224 550.193065 
L 644.239911 552.872313 
L 645.196598 551.735175 
L 646.153286 551.471664 
L 647.109973 550.812885 
L 648.066661 549.869131 
L 649.023348 550.626019 
L 649.980035 550.642737 
L 650.936723 549.929059 
L 651.89341 550.091062 
L 652.850098 551.309095 
L 653.806785 551.350676 
L 654.763472 549.726254 
L 655.72016 550.229335 
L 656.676847 551.02242 
L 658.590222 551.173939 
L 659.546909 552.167846 
L 660.503597 552.097434 
L 661.460284 552.192638 
L 662.416972 553.488025 
L 663.373659 553.743106 
L 664.330346 555.433478 
L 665.287034 559.2046 
L 666.243721 566.880938 
L 668.157096 583.517313 
L 670.070471 599.325822 
L 671.027158 599.248894 
L 671.983845 598.415857 
L 672.940533 599.499797 
L 673.89722 598.474367 
L 674.853908 600.686308 
L 675.810595 602.176991 
L 676.767282 601.81693 
L 677.72397 603.746799 
L 678.680657 603.857163 
L 679.637345 605.086884 
L 680.594032 607.911701 
L 681.550719 608.741905 
L 682.507407 610.486679 
L 683.464094 612.652079 
L 684.420782 612.13561 
L 686.334156 613.773845 
L 687.290844 615.9345 
L 688.247531 618.717382 
L 689.204218 618.29371 
L 690.160906 618.660077 
L 691.117593 618.55708 
L 692.074281 618.574718 
L 693.030968 619.328347 
L 693.987655 620.933502 
L 694.944343 621.614241 
L 695.90103 620.912534 
L 696.857718 621.701085 
L 697.814405 621.761793 
L 698.771092 621.02821 
L 699.72778 621.17562 
L 700.684467 622.055409 
L 701.641155 622.084453 
L 702.597842 621.956805 
L 703.554529 621.331319 
L 704.511217 621.63882 
L 705.467904 620.729351 
L 706.424592 621.289951 
L 707.381279 621.222657 
L 708.337966 622.016167 
L 709.294654 621.742385 
L 710.251341 620.451177 
L 711.208028 619.941438 
L 712.164716 615.76846 
L 715.034778 598.449364 
L 715.991465 595.199881 
L 716.948153 595.659468 
L 717.90484 595.862698 
L 718.861528 596.248332 
L 719.818215 597.047155 
L 720.774902 596.763029 
L 721.73159 597.017686 
L 722.688277 594.286443 
L 726.515027 573.993064 
L 727.471714 570.940436 
L 728.428402 570.849056 
L 729.385089 569.712627 
L 730.341776 568.185251 
L 731.298464 564.950574 
L 732.255151 552.936138 
L 733.211838 547.175572 
L 734.168526 543.712731 
L 737.038588 527.706022 
L 738.951963 516.06362 
L 740.865338 505.652143 
L 741.822025 503.203963 
L 742.778712 497.367957 
L 743.7354 490.127405 
L 744.692087 484.474016 
L 745.648775 477.794135 
L 747.562149 467.287242 
L 748.518837 459.612887 
L 749.475524 456.938739 
L 750.432212 455.874066 
L 751.388899 456.514711 
L 752.345586 456.251341 
L 753.302274 454.990947 
L 754.258961 454.98521 
L 755.215648 455.475894 
L 756.172336 455.75676 
L 757.129023 456.187163 
L 758.085711 460.620322 
L 760.955773 476.250111 
L 761.91246 479.307555 
L 762.869148 478.061541 
L 763.825835 478.453408 
L 765.73921 476.502926 
L 767.652585 477.550315 
L 769.565959 485.936576 
L 772.436021 502.236123 
L 773.392709 504.34875 
L 774.349396 504.851831 
L 775.306084 506.562744 
L 776.262771 507.578469 
L 777.219458 510.288319 
L 778.176146 522.838633 
L 779.132833 528.842805 
L 780.089521 532.867309 
L 781.046208 539.221838 
L 782.002895 542.99976 
L 784.872958 560.786943 
L 785.829645 566.060011 
L 786.786332 570.465899 
L 788.699707 576.829142 
L 789.656395 583.764459 
L 790.613082 589.768772 
L 791.569769 597.46884 
L 794.439831 616.479016 
L 795.396519 619.324943 
L 796.353206 619.949721 
L 797.309894 620.413488 
L 798.266581 618.729492 
L 799.223268 619.88526 
L 800.179956 619.188088 
L 801.136643 618.015036 
L 802.093331 617.271253 
L 804.963393 615.81202 
L 805.92008 615.818254 
L 806.876768 614.74841 
L 807.833455 615.245116 
L 808.790142 615.869682 
L 810.703517 615.989679 
L 811.660205 618.023536 
L 812.616892 617.81046 
L 813.573579 617.30837 
L 814.530267 617.559628 
L 815.486954 617.939099 
L 816.443641 615.535475 
L 817.400329 614.29024 
L 818.357016 613.376379 
L 819.313704 612.695145 
L 821.227078 613.517485 
L 822.183766 614.878042 
L 823.140453 612.66001 
L 824.097141 611.656753 
L 825.053828 610.901211 
L 826.010515 607.886976 
L 826.967203 606.47386 
L 827.92389 607.603418 
L 829.837265 607.297476 
L 830.793952 607.465926 
L 831.75064 607.19356 
L 832.707327 607.458063 
L 833.664015 607.59159 
L 834.620702 609.00917 
L 835.577389 608.087729 
L 836.534077 605.899661 
L 837.490764 604.619858 
L 838.447451 604.877704 
L 840.360826 604.097936 
L 841.317514 603.708973 
L 842.274201 603.083558 
L 843.230888 602.998978 
L 845.144263 604.938269 
L 846.100951 604.388436 
L 847.057638 604.549588 
L 848.014325 603.411105 
L 848.971013 603.911069 
L 849.9277 604.99508 
L 850.884388 604.609375 
L 852.797762 604.423925 
L 853.75445 603.526143 
L 854.711137 603.475779 
L 855.667825 601.975391 
L 856.624512 602.478684 
L 857.581199 600.950387 
L 858.537887 600.39765 
L 859.494574 599.657338 
L 860.451261 600.819481 
L 861.407949 601.228349 
L 862.364636 603.901648 
L 863.321324 605.134132 
L 865.234698 608.674256 
L 866.191386 608.947898 
L 867.148073 608.478535 
L 868.104761 608.33332 
L 869.061448 610.070655 
L 870.018135 610.578199 
L 870.974823 610.78497 
L 871.93151 614.020993 
L 872.888198 615.599868 
L 873.844885 615.253973 
L 874.801572 614.622608 
L 875.75826 614.404006 
L 876.714947 614.631391 
L 877.671635 613.445305 
L 878.628322 613.725463 
L 879.585009 613.693233 
L 881.498384 616.227267 
L 882.455071 618.396492 
L 883.411759 619.325583 
L 884.368446 618.782692 
L 885.325134 618.462722 
L 888.195196 620.235406 
L 889.151883 619.345771 
L 890.108571 619.525909 
L 891.065258 619.04755 
L 892.021945 619.07971 
L 892.978633 620.126461 
L 893.93532 621.757542 
L 894.892008 622.017016 
L 895.848695 621.347966 
L 896.805382 622.942353 
L 897.76207 623.313182 
L 898.718757 624.550908 
L 900.632132 625.20239 
L 901.588819 626.926904 
L 902.545507 626.37785 
L 903.502194 626.741454 
L 904.458881 627.898993 
L 905.415569 628.435862 
L 906.372256 628.696187 
L 907.328944 628.372818 
L 908.285631 629.246798 
L 909.242318 629.620816 
L 910.199006 629.727566 
L 911.155693 629.627828 
L 912.112381 629.123755 
L 913.069068 628.873207 
L 914.025755 628.144087 
L 914.982443 628.751014 
L 915.93913 627.453644 
L 916.895818 628.096343 
L 917.852505 627.311475 
L 918.809192 625.85699 
L 919.76588 625.97727 
L 920.722567 625.747547 
L 921.679254 625.726721 
L 922.635942 624.658932 
L 923.592629 626.499052 
L 924.549317 625.963173 
L 925.506004 626.278891 
L 926.462691 625.829575 
L 927.419379 625.790757 
L 928.376066 626.398109 
L 929.332754 626.421839 
L 930.289441 626.089545 
L 931.246128 626.25587 
L 932.202816 625.290581 
L 933.159503 624.696758 
L 934.116191 623.090541 
L 935.072878 622.925563 
L 936.029565 623.070778 
L 936.986253 622.323382 
L 937.94294 622.840063 
L 938.899628 622.373463 
L 940.813002 621.953332 
L 941.76969 622.2835 
L 943.683064 622.640872 
L 944.639752 623.106551 
L 945.596439 623.0751 
L 946.553127 621.979331 
L 947.509814 621.666092 
L 949.423189 613.778662 
L 950.379876 614.34252 
L 951.336564 614.694223 
L 952.293251 614.309865 
L 953.249938 614.135395 
L 955.163313 613.14673 
L 956.120001 613.513309 
L 957.076688 613.58705 
L 958.033375 614.239171 
L 958.990063 614.605396 
L 959.94675 613.800835 
L 960.903438 613.947749 
L 961.860125 615.742108 
L 962.816812 615.106776 
L 963.7735 615.462588 
L 964.730187 617.551131 
L 965.686874 617.065476 
L 966.643562 618.032253 
L 967.600249 617.500412 
L 968.556937 617.62643 
L 969.513624 617.377652 
L 970.470311 618.06505 
L 972.383686 616.507426 
L 973.340374 616.419092 
L 974.297061 615.53902 
L 975.253748 615.534841 
L 976.210436 616.598876 
L 977.167123 616.390616 
L 979.080498 617.578474 
L 980.037185 618.905879 
L 980.993873 619.514293 
L 981.95056 620.261405 
L 982.907248 620.67842 
L 983.863935 620.904742 
L 984.820622 620.750602 
L 985.77731 620.974517 
L 986.733997 621.63868 
L 988.647372 621.493395 
L 989.604059 621.931235 
L 990.560747 622.175975 
L 991.517434 622.208489 
L 993.430809 622.542554 
L 994.387496 627.016091 
L 995.344184 632.062765 
L 996.300871 631.698596 
L 997.257558 630.410859 
L 998.214246 630.570099 
L 999.170933 630.284911 
L 1000.127621 630.41433 
L 1001.084308 629.545733 
L 1002.040995 627.671754 
L 1003.95437 625.904596 
L 1004.911058 625.972954 
L 1005.867745 626.515278 
L 1006.824432 626.185322 
L 1007.78112 625.427017 
L 1008.737807 625.493391 
L 1009.694494 625.333088 
L 1010.651182 622.570677 
L 1011.607869 621.708172 
L 1012.564557 621.006749 
L 1013.521244 621.757687 
L 1014.477931 619.716817 
L 1015.434619 618.708814 
L 1016.391306 618.987343 
L 1017.347994 619.556444 
L 1018.304681 619.689333 
L 1019.261368 619.201553 
L 1020.218056 619.593916 
L 1021.174743 619.730135 
L 1022.131431 619.580386 
L 1023.088118 617.55255 
L 1024.044805 617.509623 
L 1025.001493 616.927772 
L 1025.95818 616.48384 
L 1026.914868 616.310716 
L 1027.871555 615.858354 
L 1028.828242 616.382827 
L 1029.78493 616.15778 
L 1030.741617 616.433972 
L 1031.698304 616.259572 
L 1033.611679 615.03417 
L 1034.568367 613.883432 
L 1035.525054 610.486114 
L 1036.481741 610.163099 
L 1037.438429 610.518698 
L 1038.395116 610.687643 
L 1039.351804 609.471381 
L 1040.308491 609.951653 
L 1041.265178 607.614191 
L 1042.221866 607.279558 
L 1043.178553 609.028724 
L 1044.135241 608.245272 
L 1045.091928 609.26206 
L 1046.048615 609.66264 
L 1047.005303 611.148435 
L 1047.96199 611.993585 
L 1048.918677 612.41917 
L 1049.875365 610.785043 
L 1051.78874 610.882655 
L 1053.702114 611.951082 
L 1054.658802 610.956892 
L 1055.615489 611.074056 
L 1056.572177 613.547524 
L 1057.528864 615.008102 
L 1058.485551 616.145594 
L 1059.442239 615.974666 
L 1060.398926 618.622109 
L 1061.355614 619.13284 
L 1062.312301 618.542417 
L 1063.268988 618.798633 
L 1064.225676 617.702226 
L 1065.182363 618.283298 
L 1066.139051 618.331892 
L 1067.095738 617.554036 
L 1068.052425 616.410099 
L 1069.009113 618.464924 
L 1069.9658 619.304761 
L 1070.922487 620.324098 
L 1071.879175 621.673746 
L 1072.835862 619.9034 
L 1073.79255 620.186108 
L 1074.749237 620.100821 
L 1075.705924 619.870744 
L 1076.662612 619.411086 
L 1077.619299 619.619912 
L 1078.575987 619.196664 
L 1079.532674 619.233003 
L 1080.489361 618.797146 
L 1081.446049 622.132907 
L 1082.402736 622.062849 
L 1083.359424 621.529309 
L 1084.316111 621.234983 
L 1085.272798 622.154015 
L 1086.229486 620.678491 
L 1087.186173 621.821295 
L 1088.142861 621.230166 
L 1089.099548 619.574788 
L 1090.056235 620.16776 
L 1091.012923 618.553397 
L 1091.96961 616.647612 
L 1092.926297 615.013981 
L 1093.882985 614.126541 
L 1094.839672 614.371281 
L 1095.79636 615.952564 
L 1096.753047 614.958233 
L 1097.709734 614.89363 
L 1098.666422 614.171097 
L 1099.623109 613.029 
L 1100.579797 613.609293 
L 1101.536484 613.562187 
L 1102.493171 610.578554 
L 1103.449859 610.272611 
L 1104.406546 609.008037 
L 1105.363234 609.16742 
L 1106.319921 608.383401 
L 1107.276608 607.785187 
L 1108.233296 606.838812 
L 1109.189983 605.467842 
L 1110.146671 605.616315 
L 1111.103358 605.225935 
L 1112.060045 604.506661 
L 1113.016733 604.023131 
L 1113.97342 604.438941 
L 1114.930107 602.101974 
L 1115.886795 598.104175 
L 1116.843482 596.785482 
L 1117.80017 595.680292 
L 1118.756857 596.861277 
L 1119.713544 596.640905 
L 1120.670232 596.56596 
L 1121.626919 597.181601 
L 1122.583607 598.570563 
L 1123.540294 597.998982 
L 1124.496981 597.977944 
L 1125.453669 598.397862 
L 1126.410356 598.647278 
L 1127.367044 598.195908 
L 1128.323731 598.333614 
L 1129.280418 599.218999 
L 1130.237106 599.549452 
L 1131.193793 599.608033 
L 1132.150481 601.098575 
L 1133.107168 601.780093 
L 1134.063855 602.130804 
L 1135.020543 602.869345 
L 1136.933917 603.761531 
L 1137.890605 604.44149 
L 1138.847292 606.130445 
L 1139.80398 607.231739 
L 1140.760667 607.358253 
L 1141.717354 607.878052 
L 1143.630729 610.046215 
L 1144.587417 610.576922 
L 1145.544104 611.718949 
L 1146.500791 612.358602 
L 1147.457479 612.333384 
L 1148.414166 614.894973 
L 1149.370854 615.229109 
L 1150.327541 616.062571 
L 1151.284228 616.356897 
L 1152.240916 617.089629 
L 1153.197603 616.753298 
L 1154.154291 615.32573 
L 1156.067665 617.579039 
L 1157.024353 617.897591 
L 1157.98104 619.093594 
L 1158.937727 619.967576 
L 1159.894415 619.959005 
L 1160.851102 621.756338 
L 1161.80779 625.793239 
L 1162.764477 626.49785 
L 1163.721164 626.816331 
L 1164.677852 627.342575 
L 1165.634539 627.187089 
L 1167.547914 627.306874 
L 1168.504601 626.364678 
L 1169.461289 626.393508 
L 1170.417976 626.693855 
L 1171.374664 624.197011 
L 1173.288038 624.716951 
L 1174.244726 623.448836 
L 1175.201413 620.16847 
L 1176.158101 620.015321 
L 1177.114788 619.489785 
L 1178.071475 618.168756 
L 1179.028163 618.07426 
L 1179.98485 616.745509 
L 1180.941537 614.547806 
L 1181.898225 612.027586 
L 1182.854912 610.229047 
L 1183.8116 610.860696 
L 1184.768287 609.79234 
L 1185.724974 608.208295 
L 1186.681662 607.609301 
L 1187.638349 607.832719 
L 1188.595037 605.665689 
L 1189.551724 604.714567 
L 1190.508411 604.753669 
L 1191.465099 604.569352 
L 1192.421786 604.880253 
L 1193.378474 604.844764 
L 1194.335161 604.9909 
L 1195.291848 604.08561 
L 1197.205223 601.601303 
L 1198.16191 601.722293 
L 1199.118598 602.814804 
L 1200.075285 604.689562 
L 1201.031973 604.270351 
L 1201.98866 604.353867 
L 1202.945347 603.386878 
L 1203.902035 602.78236 
L 1204.858722 602.4801 
L 1205.81541 603.121312 
L 1206.772097 604.097865 
L 1207.728784 603.43951 
L 1208.685472 603.098504 
L 1209.642159 603.830599 
L 1210.598847 603.557028 
L 1211.555534 603.105587 
L 1212.512221 603.452474 
L 1213.468909 603.193495 
L 1214.425596 603.158007 
L 1215.382284 604.077889 
L 1216.338971 603.946558 
L 1217.295658 605.10523 
L 1218.252346 605.677022 
L 1219.209033 605.412873 
L 1220.16572 606.742898 
L 1221.122408 609.650735 
L 1222.079095 610.578481 
L 1223.035783 609.47159 
L 1223.99247 609.853753 
L 1224.949157 609.203049 
L 1225.905845 610.116981 
L 1226.862532 613.720434 
L 1227.81922 615.620269 
L 1228.775907 618.306601 
L 1229.732594 618.524919 
L 1231.645969 620.748547 
L 1232.602657 619.643144 
L 1233.559344 619.776883 
L 1234.516031 618.321476 
L 1235.472719 617.284359 
L 1236.429406 616.668506 
L 1237.386094 616.58329 
L 1238.342781 615.56792 
L 1239.299468 615.744799 
L 1240.256156 615.06746 
L 1241.212843 615.611767 
L 1243.126218 617.298455 
L 1244.082905 616.415194 
L 1245.039593 616.797286 
L 1245.99628 615.695 
L 1246.952967 614.390121 
L 1247.909655 613.542633 
L 1248.866342 614.051593 
L 1249.82303 613.787231 
L 1250.779717 608.475344 
L 1251.736404 605.023907 
L 1252.693092 604.331622 
L 1253.649779 604.175569 
L 1254.606467 604.695437 
L 1255.563154 604.264822 
L 1256.519841 604.215449 
L 1257.476529 604.857511 
L 1258.433216 604.486469 
L 1259.389904 603.679571 
L 1260.346591 604.608946 
L 1260.346591 604.608946 
" style="fill:none;stroke:#ff0000;stroke-linecap:square;stroke-width:1.5;"/>
   </g>
   <g id="patch_3">
    <path d="M 55.925 723.2 
L 55.925 14.3 
" style="fill:none;stroke:#000000;stroke-linecap:square;stroke-linejoin:miter;stroke-width:0.8;"/>
   </g>
   <g id="patch_4">
    <path d="M 1317.7 723.2 
L 1317.7 14.3 
" style="fill:none;stroke:#000000;stroke-linecap:square;stroke-linejoin:miter;stroke-width:0.8;"/>
   </g>
   <g id="patch_5">
    <path d="M 55.925 723.2 
L 1317.7 723.2 
" style="fill:none;stroke:#000000;stroke-linecap:square;stroke-linejoin:miter;stroke-width:0.8;"/>
   </g>
   <g id="patch_6">
    <path d="M 55.925 14.3 
L 1317.7 14.3 
" style="fill:none;stroke:#000000;stroke-linecap:square;stroke-linejoin:miter;stroke-width:0.8;"/>
   </g>
   <g id="legend_1">
    <g id="patch_7">
     <path d="M 1144.726562 95.690625 
L 1310.7 95.690625 
Q 1312.7 95.690625 1312.7 93.690625 
L 1312.7 21.3 
Q 1312.7 19.3 1310.7 19.3 
L 1144.726562 19.3 
Q 1142.726562 19.3 1142.726562 21.3 
L 1142.726562 93.690625 
Q 1142.726562 95.690625 1144.726562 95.690625 
z
" style="fill:#ffffff;opacity:0.8;stroke:#cccccc;stroke-linejoin:miter;"/>
    </g>
    <g id="line2d_21">
     <path d="M 1146.726562 27.398437 
L 1166.726562 27.398437 
" style="fill:none;stroke:#000000;stroke-linecap:square;stroke-width:1.5;"/>
    </g>
    <g id="line2d_22"/>
    <g id="text_18">
     <!-- Unused Data -->
     <defs>
      <path d="M 8.6875 72.90625 
L 18.609375 72.90625 
L 18.609375 28.609375 
Q 18.609375 16.890625 22.84375 11.734375 
Q 27.09375 6.59375 36.625 6.59375 
Q 46.09375 6.59375 50.34375 11.734375 
Q 54.59375 16.890625 54.59375 28.609375 
L 54.59375 72.90625 
L 64.5 72.90625 
L 64.5 27.390625 
Q 64.5 13.140625 57.4375 5.859375 
Q 50.390625 -1.421875 36.625 -1.421875 
Q 22.796875 -1.421875 15.734375 5.859375 
Q 8.6875 13.140625 8.6875 27.390625 
z
" id="DejaVuSans-55"/>
      <path d="M 19.671875 64.796875 
L 19.671875 8.109375 
L 31.59375 8.109375 
Q 46.6875 8.109375 53.6875 14.9375 
Q 60.6875 21.78125 60.6875 36.53125 
Q 60.6875 51.171875 53.6875 57.984375 
Q 46.6875 64.796875 31.59375 64.796875 
z
M 9.8125 72.90625 
L 30.078125 72.90625 
Q 51.265625 72.90625 61.171875 64.09375 
Q 71.09375 55.28125 71.09375 36.53125 
Q 71.09375 17.671875 61.125 8.828125 
Q 51.171875 0 30.078125 0 
L 9.8125 0 
z
" id="DejaVuSans-44"/>
     </defs>
     <g transform="translate(1174.726562 30.898437)scale(0.1 -0.1)">
      <use xlink:href="#DejaVuSans-55"/>
      <use x="73.193359" xlink:href="#DejaVuSans-6e"/>
      <use x="136.572266" xlink:href="#DejaVuSans-75"/>
      <use x="199.951172" xlink:href="#DejaVuSans-73"/>
      <use x="252.050781" xlink:href="#DejaVuSans-65"/>
      <use x="313.574219" xlink:href="#DejaVuSans-64"/>
      <use x="377.050781" xlink:href="#DejaVuSans-20"/>
      <use x="408.837891" xlink:href="#DejaVuSans-44"/>
      <use x="485.839844" xlink:href="#DejaVuSans-61"/>
      <use x="547.119141" xlink:href="#DejaVuSans-74"/>
      <use x="586.328125" xlink:href="#DejaVuSans-61"/>
     </g>
    </g>
    <g id="line2d_23">
     <path d="M 1146.726562 42.076562 
L 1166.726562 42.076562 
" style="fill:none;stroke:#1f77b4;stroke-linecap:square;stroke-width:1.5;"/>
    </g>
    <g id="line2d_24"/>
    <g id="text_19">
     <!-- Training Data -->
     <defs>
      <path d="M -0.296875 72.90625 
L 61.375 72.90625 
L 61.375 64.59375 
L 35.5 64.59375 
L 35.5 0 
L 25.59375 0 
L 25.59375 64.59375 
L -0.296875 64.59375 
z
" id="DejaVuSans-54"/>
      <path d="M 41.109375 46.296875 
Q 39.59375 47.171875 37.8125 47.578125 
Q 36.03125 48 33.890625 48 
Q 26.265625 48 22.1875 43.046875 
Q 18.109375 38.09375 18.109375 28.8125 
L 18.109375 0 
L 9.078125 0 
L 9.078125 54.6875 
L 18.109375 54.6875 
L 18.109375 46.1875 
Q 20.953125 51.171875 25.484375 53.578125 
Q 30.03125 56 36.53125 56 
Q 37.453125 56 38.578125 55.875 
Q 39.703125 55.765625 41.0625 55.515625 
z
" id="DejaVuSans-72"/>
      <path d="M 45.40625 27.984375 
Q 45.40625 37.75 41.375 43.109375 
Q 37.359375 48.484375 30.078125 48.484375 
Q 22.859375 48.484375 18.828125 43.109375 
Q 14.796875 37.75 14.796875 27.984375 
Q 14.796875 18.265625 18.828125 12.890625 
Q 22.859375 7.515625 30.078125 7.515625 
Q 37.359375 7.515625 41.375 12.890625 
Q 45.40625 18.265625 45.40625 27.984375 
z
M 54.390625 6.78125 
Q 54.390625 -7.171875 48.1875 -13.984375 
Q 42 -20.796875 29.203125 -20.796875 
Q 24.46875 -20.796875 20.265625 -20.09375 
Q 16.0625 -19.390625 12.109375 -17.921875 
L 12.109375 -9.1875 
Q 16.0625 -11.328125 19.921875 -12.34375 
Q 23.78125 -13.375 27.78125 -13.375 
Q 36.625 -13.375 41.015625 -8.765625 
Q 45.40625 -4.15625 45.40625 5.171875 
L 45.40625 9.625 
Q 42.625 4.78125 38.28125 2.390625 
Q 33.9375 0 27.875 0 
Q 17.828125 0 11.671875 7.65625 
Q 5.515625 15.328125 5.515625 27.984375 
Q 5.515625 40.671875 11.671875 48.328125 
Q 17.828125 56 27.875 56 
Q 33.9375 56 38.28125 53.609375 
Q 42.625 51.21875 45.40625 46.390625 
L 45.40625 54.6875 
L 54.390625 54.6875 
z
" id="DejaVuSans-67"/>
     </defs>
     <g transform="translate(1174.726562 45.576562)scale(0.1 -0.1)">
      <use xlink:href="#DejaVuSans-54"/>
      <use x="60.865234" xlink:href="#DejaVuSans-72"/>
      <use x="101.978516" xlink:href="#DejaVuSans-61"/>
      <use x="163.257812" xlink:href="#DejaVuSans-69"/>
      <use x="191.041016" xlink:href="#DejaVuSans-6e"/>
      <use x="254.419922" xlink:href="#DejaVuSans-69"/>
      <use x="282.203125" xlink:href="#DejaVuSans-6e"/>
      <use x="345.582031" xlink:href="#DejaVuSans-67"/>
      <use x="409.058594" xlink:href="#DejaVuSans-20"/>
      <use x="440.845703" xlink:href="#DejaVuSans-44"/>
      <use x="517.847656" xlink:href="#DejaVuSans-61"/>
      <use x="579.126953" xlink:href="#DejaVuSans-74"/>
      <use x="618.335938" xlink:href="#DejaVuSans-61"/>
     </g>
    </g>
    <g id="line2d_25">
     <path d="M 1146.726562 56.754687 
L 1166.726562 56.754687 
" style="fill:none;stroke:#ff7f0e;stroke-linecap:square;stroke-width:1.5;"/>
    </g>
    <g id="line2d_26"/>
    <g id="text_20">
     <!-- Validation Data -->
     <defs>
      <path d="M 28.609375 0 
L 0.78125 72.90625 
L 11.078125 72.90625 
L 34.1875 11.53125 
L 57.328125 72.90625 
L 67.578125 72.90625 
L 39.796875 0 
z
" id="DejaVuSans-56"/>
      <path d="M 9.421875 75.984375 
L 18.40625 75.984375 
L 18.40625 0 
L 9.421875 0 
z
" id="DejaVuSans-6c"/>
      <path d="M 30.609375 48.390625 
Q 23.390625 48.390625 19.1875 42.75 
Q 14.984375 37.109375 14.984375 27.296875 
Q 14.984375 17.484375 19.15625 11.84375 
Q 23.34375 6.203125 30.609375 6.203125 
Q 37.796875 6.203125 41.984375 11.859375 
Q 46.1875 17.53125 46.1875 27.296875 
Q 46.1875 37.015625 41.984375 42.703125 
Q 37.796875 48.390625 30.609375 48.390625 
z
M 30.609375 56 
Q 42.328125 56 49.015625 48.375 
Q 55.71875 40.765625 55.71875 27.296875 
Q 55.71875 13.875 49.015625 6.21875 
Q 42.328125 -1.421875 30.609375 -1.421875 
Q 18.84375 -1.421875 12.171875 6.21875 
Q 5.515625 13.875 5.515625 27.296875 
Q 5.515625 40.765625 12.171875 48.375 
Q 18.84375 56 30.609375 56 
z
" id="DejaVuSans-6f"/>
     </defs>
     <g transform="translate(1174.726562 60.254687)scale(0.1 -0.1)">
      <use xlink:href="#DejaVuSans-56"/>
      <use x="68.298828" xlink:href="#DejaVuSans-61"/>
      <use x="129.578125" xlink:href="#DejaVuSans-6c"/>
      <use x="157.361328" xlink:href="#DejaVuSans-69"/>
      <use x="185.144531" xlink:href="#DejaVuSans-64"/>
      <use x="248.621094" xlink:href="#DejaVuSans-61"/>
      <use x="309.900391" xlink:href="#DejaVuSans-74"/>
      <use x="349.109375" xlink:href="#DejaVuSans-69"/>
      <use x="376.892578" xlink:href="#DejaVuSans-6f"/>
      <use x="438.074219" xlink:href="#DejaVuSans-6e"/>
      <use x="501.453125" xlink:href="#DejaVuSans-20"/>
      <use x="533.240234" xlink:href="#DejaVuSans-44"/>
      <use x="610.242188" xlink:href="#DejaVuSans-61"/>
      <use x="671.521484" xlink:href="#DejaVuSans-74"/>
      <use x="710.730469" xlink:href="#DejaVuSans-61"/>
     </g>
    </g>
    <g id="line2d_27">
     <path d="M 1146.726562 71.432812 
L 1166.726562 71.432812 
" style="fill:none;stroke:#2ca02c;stroke-linecap:square;stroke-width:1.5;"/>
    </g>
    <g id="line2d_28"/>
    <g id="text_21">
     <!-- Testing Data -->
     <g transform="translate(1174.726562 74.932812)scale(0.1 -0.1)">
      <use xlink:href="#DejaVuSans-54"/>
      <use x="60.818359" xlink:href="#DejaVuSans-65"/>
      <use x="122.341797" xlink:href="#DejaVuSans-73"/>
      <use x="174.441406" xlink:href="#DejaVuSans-74"/>
      <use x="213.650391" xlink:href="#DejaVuSans-69"/>
      <use x="241.433594" xlink:href="#DejaVuSans-6e"/>
      <use x="304.8125" xlink:href="#DejaVuSans-67"/>
      <use x="368.289062" xlink:href="#DejaVuSans-20"/>
      <use x="400.076172" xlink:href="#DejaVuSans-44"/>
      <use x="477.078125" xlink:href="#DejaVuSans-61"/>
      <use x="538.357422" xlink:href="#DejaVuSans-74"/>
      <use x="577.566406" xlink:href="#DejaVuSans-61"/>
     </g>
    </g>
    <g id="line2d_29">
     <path d="M 1146.726562 86.110937 
L 1166.726562 86.110937 
" style="fill:none;stroke:#ff0000;stroke-linecap:square;stroke-width:1.5;"/>
    </g>
    <g id="line2d_30"/>
    <g id="text_22">
     <!-- Moving average (48 steps) -->
     <defs>
      <path d="M 2.984375 54.6875 
L 12.5 54.6875 
L 29.59375 8.796875 
L 46.6875 54.6875 
L 56.203125 54.6875 
L 35.6875 0 
L 23.484375 0 
z
" id="DejaVuSans-76"/>
     </defs>
     <g transform="translate(1174.726562 89.610937)scale(0.1 -0.1)">
      <use xlink:href="#DejaVuSans-4d"/>
      <use x="86.279297" xlink:href="#DejaVuSans-6f"/>
      <use x="147.460938" xlink:href="#DejaVuSans-76"/>
      <use x="206.640625" xlink:href="#DejaVuSans-69"/>
      <use x="234.423828" xlink:href="#DejaVuSans-6e"/>
      <use x="297.802734" xlink:href="#DejaVuSans-67"/>
      <use x="361.279297" xlink:href="#DejaVuSans-20"/>
      <use x="393.066406" xlink:href="#DejaVuSans-61"/>
      <use x="454.345703" xlink:href="#DejaVuSans-76"/>
      <use x="513.525391" xlink:href="#DejaVuSans-65"/>
      <use x="575.048828" xlink:href="#DejaVuSans-72"/>
      <use x="616.162109" xlink:href="#DejaVuSans-61"/>
      <use x="677.441406" xlink:href="#DejaVuSans-67"/>
      <use x="740.917969" xlink:href="#DejaVuSans-65"/>
      <use x="802.441406" xlink:href="#DejaVuSans-20"/>
      <use x="834.228516" xlink:href="#DejaVuSans-28"/>
      <use x="873.242188" xlink:href="#DejaVuSans-34"/>
      <use x="936.865234" xlink:href="#DejaVuSans-38"/>
      <use x="1000.488281" xlink:href="#DejaVuSans-20"/>
      <use x="1032.275391" xlink:href="#DejaVuSans-73"/>
      <use x="1084.375" xlink:href="#DejaVuSans-74"/>
      <use x="1123.583984" xlink:href="#DejaVuSans-65"/>
      <use x="1185.107422" xlink:href="#DejaVuSans-70"/>
      <use x="1248.583984" xlink:href="#DejaVuSans-73"/>
      <use x="1300.683594" xlink:href="#DejaVuSans-29"/>
     </g>
    </g>
   </g>
  </g>
 </g>
 <defs>
  <clipPath id="p6690bc3822">
   <rect height="708.9" width="1261.775" x="55.925" y="14.3"/>
  </clipPath>
 </defs>
</svg>
