<?xml version="1.0" encoding="utf-8" standalone="no"?>
<!DOCTYPE svg PUBLIC "-//W3C//DTD SVG 1.1//EN"
  "http://www.w3.org/Graphics/SVG/1.1/DTD/svg11.dtd">
<!-- Created with matplotlib (http://matplotlib.org/) -->
<svg height="756pt" version="1.1" viewBox="0 0 1332 756" width="1332pt" xmlns="http://www.w3.org/2000/svg" xmlns:xlink="http://www.w3.org/1999/xlink">
 <defs>
  <style type="text/css">
*{stroke-linecap:butt;stroke-linejoin:round;}
  </style>
 </defs>
 <g id="figure_1">
  <g id="patch_1">
   <path d="M 0 756 
L 1332 756 
L 1332 0 
L 0 0 
z
" style="fill:#ffffff;"/>
  </g>
  <g id="axes_1">
   <g id="patch_2">
    <path d="M 166.5 661.5 
L 1198.8 661.5 
L 1198.8 90.72 
L 166.5 90.72 
z
" style="fill:#ffffff;"/>
   </g>
   <g id="matplotlib.axis_1">
    <g id="xtick_1">
     <g id="line2d_1">
      <defs>
       <path d="M 0 0 
L 0 3.5 
" id="ma8ee6fcbf8" style="stroke:#000000;stroke-width:0.8;"/>
      </defs>
      <g>
       <use style="stroke:#000000;stroke-width:0.8;" x="218.115" xlink:href="#ma8ee6fcbf8" y="661.5"/>
      </g>
     </g>
     <g id="text_1">
      <!-- 0 -->
      <defs>
       <path d="M 31.78125 66.40625 
Q 24.171875 66.40625 20.328125 58.90625 
Q 16.5 51.421875 16.5 36.375 
Q 16.5 21.390625 20.328125 13.890625 
Q 24.171875 6.390625 31.78125 6.390625 
Q 39.453125 6.390625 43.28125 13.890625 
Q 47.125 21.390625 47.125 36.375 
Q 47.125 51.421875 43.28125 58.90625 
Q 39.453125 66.40625 31.78125 66.40625 
z
M 31.78125 74.21875 
Q 44.046875 74.21875 50.515625 64.515625 
Q 56.984375 54.828125 56.984375 36.375 
Q 56.984375 17.96875 50.515625 8.265625 
Q 44.046875 -1.421875 31.78125 -1.421875 
Q 19.53125 -1.421875 13.0625 8.265625 
Q 6.59375 17.96875 6.59375 36.375 
Q 6.59375 54.828125 13.0625 64.515625 
Q 19.53125 74.21875 31.78125 74.21875 
z
" id="DejaVuSans-30"/>
      </defs>
      <g transform="translate(211.7525 683.696875)scale(0.2 -0.2)">
       <use xlink:href="#DejaVuSans-30"/>
      </g>
     </g>
    </g>
    <g id="xtick_2">
     <g id="line2d_2">
      <g>
       <use style="stroke:#000000;stroke-width:0.8;" x="335.421818" xlink:href="#ma8ee6fcbf8" y="661.5"/>
      </g>
     </g>
     <g id="text_2">
      <!-- 25 -->
      <defs>
       <path d="M 19.1875 8.296875 
L 53.609375 8.296875 
L 53.609375 0 
L 7.328125 0 
L 7.328125 8.296875 
Q 12.9375 14.109375 22.625 23.890625 
Q 32.328125 33.6875 34.8125 36.53125 
Q 39.546875 41.84375 41.421875 45.53125 
Q 43.3125 49.21875 43.3125 52.78125 
Q 43.3125 58.59375 39.234375 62.25 
Q 35.15625 65.921875 28.609375 65.921875 
Q 23.96875 65.921875 18.8125 64.3125 
Q 13.671875 62.703125 7.8125 59.421875 
L 7.8125 69.390625 
Q 13.765625 71.78125 18.9375 73 
Q 24.125 74.21875 28.421875 74.21875 
Q 39.75 74.21875 46.484375 68.546875 
Q 53.21875 62.890625 53.21875 53.421875 
Q 53.21875 48.921875 51.53125 44.890625 
Q 49.859375 40.875 45.40625 35.40625 
Q 44.1875 33.984375 37.640625 27.21875 
Q 31.109375 20.453125 19.1875 8.296875 
z
" id="DejaVuSans-32"/>
       <path d="M 10.796875 72.90625 
L 49.515625 72.90625 
L 49.515625 64.59375 
L 19.828125 64.59375 
L 19.828125 46.734375 
Q 21.96875 47.46875 24.109375 47.828125 
Q 26.265625 48.1875 28.421875 48.1875 
Q 40.625 48.1875 47.75 41.5 
Q 54.890625 34.8125 54.890625 23.390625 
Q 54.890625 11.625 47.5625 5.09375 
Q 40.234375 -1.421875 26.90625 -1.421875 
Q 22.3125 -1.421875 17.546875 -0.640625 
Q 12.796875 0.140625 7.71875 1.703125 
L 7.71875 11.625 
Q 12.109375 9.234375 16.796875 8.0625 
Q 21.484375 6.890625 26.703125 6.890625 
Q 35.15625 6.890625 40.078125 11.328125 
Q 45.015625 15.765625 45.015625 23.390625 
Q 45.015625 31 40.078125 35.4375 
Q 35.15625 39.890625 26.703125 39.890625 
Q 22.75 39.890625 18.8125 39.015625 
Q 14.890625 38.140625 10.796875 36.28125 
z
" id="DejaVuSans-35"/>
      </defs>
      <g transform="translate(322.696818 683.696875)scale(0.2 -0.2)">
       <use xlink:href="#DejaVuSans-32"/>
       <use x="63.623047" xlink:href="#DejaVuSans-35"/>
      </g>
     </g>
    </g>
    <g id="xtick_3">
     <g id="line2d_3">
      <g>
       <use style="stroke:#000000;stroke-width:0.8;" x="452.728636" xlink:href="#ma8ee6fcbf8" y="661.5"/>
      </g>
     </g>
     <g id="text_3">
      <!-- 50 -->
      <g transform="translate(440.003636 683.696875)scale(0.2 -0.2)">
       <use xlink:href="#DejaVuSans-35"/>
       <use x="63.623047" xlink:href="#DejaVuSans-30"/>
      </g>
     </g>
    </g>
    <g id="xtick_4">
     <g id="line2d_4">
      <g>
       <use style="stroke:#000000;stroke-width:0.8;" x="570.035455" xlink:href="#ma8ee6fcbf8" y="661.5"/>
      </g>
     </g>
     <g id="text_4">
      <!-- 75 -->
      <defs>
       <path d="M 8.203125 72.90625 
L 55.078125 72.90625 
L 55.078125 68.703125 
L 28.609375 0 
L 18.3125 0 
L 43.21875 64.59375 
L 8.203125 64.59375 
z
" id="DejaVuSans-37"/>
      </defs>
      <g transform="translate(557.310455 683.696875)scale(0.2 -0.2)">
       <use xlink:href="#DejaVuSans-37"/>
       <use x="63.623047" xlink:href="#DejaVuSans-35"/>
      </g>
     </g>
    </g>
    <g id="xtick_5">
     <g id="line2d_5">
      <g>
       <use style="stroke:#000000;stroke-width:0.8;" x="687.342273" xlink:href="#ma8ee6fcbf8" y="661.5"/>
      </g>
     </g>
     <g id="text_5">
      <!-- 100 -->
      <defs>
       <path d="M 12.40625 8.296875 
L 28.515625 8.296875 
L 28.515625 63.921875 
L 10.984375 60.40625 
L 10.984375 69.390625 
L 28.421875 72.90625 
L 38.28125 72.90625 
L 38.28125 8.296875 
L 54.390625 8.296875 
L 54.390625 0 
L 12.40625 0 
z
" id="DejaVuSans-31"/>
      </defs>
      <g transform="translate(668.254773 683.696875)scale(0.2 -0.2)">
       <use xlink:href="#DejaVuSans-31"/>
       <use x="63.623047" xlink:href="#DejaVuSans-30"/>
       <use x="127.246094" xlink:href="#DejaVuSans-30"/>
      </g>
     </g>
    </g>
    <g id="xtick_6">
     <g id="line2d_6">
      <g>
       <use style="stroke:#000000;stroke-width:0.8;" x="804.649091" xlink:href="#ma8ee6fcbf8" y="661.5"/>
      </g>
     </g>
     <g id="text_6">
      <!-- 125 -->
      <g transform="translate(785.561591 683.696875)scale(0.2 -0.2)">
       <use xlink:href="#DejaVuSans-31"/>
       <use x="63.623047" xlink:href="#DejaVuSans-32"/>
       <use x="127.246094" xlink:href="#DejaVuSans-35"/>
      </g>
     </g>
    </g>
    <g id="xtick_7">
     <g id="line2d_7">
      <g>
       <use style="stroke:#000000;stroke-width:0.8;" x="921.955909" xlink:href="#ma8ee6fcbf8" y="661.5"/>
      </g>
     </g>
     <g id="text_7">
      <!-- 150 -->
      <g transform="translate(902.868409 683.696875)scale(0.2 -0.2)">
       <use xlink:href="#DejaVuSans-31"/>
       <use x="63.623047" xlink:href="#DejaVuSans-35"/>
       <use x="127.246094" xlink:href="#DejaVuSans-30"/>
      </g>
     </g>
    </g>
    <g id="xtick_8">
     <g id="line2d_8">
      <g>
       <use style="stroke:#000000;stroke-width:0.8;" x="1039.262727" xlink:href="#ma8ee6fcbf8" y="661.5"/>
      </g>
     </g>
     <g id="text_8">
      <!-- 175 -->
      <g transform="translate(1020.175227 683.696875)scale(0.2 -0.2)">
       <use xlink:href="#DejaVuSans-31"/>
       <use x="63.623047" xlink:href="#DejaVuSans-37"/>
       <use x="127.246094" xlink:href="#DejaVuSans-35"/>
      </g>
     </g>
    </g>
    <g id="xtick_9">
     <g id="line2d_9">
      <g>
       <use style="stroke:#000000;stroke-width:0.8;" x="1156.569545" xlink:href="#ma8ee6fcbf8" y="661.5"/>
      </g>
     </g>
     <g id="text_9">
      <!-- 200 -->
      <g transform="translate(1137.482045 683.696875)scale(0.2 -0.2)">
       <use xlink:href="#DejaVuSans-32"/>
       <use x="63.623047" xlink:href="#DejaVuSans-30"/>
       <use x="127.246094" xlink:href="#DejaVuSans-30"/>
      </g>
     </g>
    </g>
    <g id="text_10">
     <!-- 15-Minute Steps -->
     <defs>
      <path d="M 4.890625 31.390625 
L 31.203125 31.390625 
L 31.203125 23.390625 
L 4.890625 23.390625 
z
" id="DejaVuSans-2d"/>
      <path d="M 9.8125 72.90625 
L 24.515625 72.90625 
L 43.109375 23.296875 
L 61.8125 72.90625 
L 76.515625 72.90625 
L 76.515625 0 
L 66.890625 0 
L 66.890625 64.015625 
L 48.09375 14.015625 
L 38.1875 14.015625 
L 19.390625 64.015625 
L 19.390625 0 
L 9.8125 0 
z
" id="DejaVuSans-4d"/>
      <path d="M 9.421875 54.6875 
L 18.40625 54.6875 
L 18.40625 0 
L 9.421875 0 
z
M 9.421875 75.984375 
L 18.40625 75.984375 
L 18.40625 64.59375 
L 9.421875 64.59375 
z
" id="DejaVuSans-69"/>
      <path d="M 54.890625 33.015625 
L 54.890625 0 
L 45.90625 0 
L 45.90625 32.71875 
Q 45.90625 40.484375 42.875 44.328125 
Q 39.84375 48.1875 33.796875 48.1875 
Q 26.515625 48.1875 22.3125 43.546875 
Q 18.109375 38.921875 18.109375 30.90625 
L 18.109375 0 
L 9.078125 0 
L 9.078125 54.6875 
L 18.109375 54.6875 
L 18.109375 46.1875 
Q 21.34375 51.125 25.703125 53.5625 
Q 30.078125 56 35.796875 56 
Q 45.21875 56 50.046875 50.171875 
Q 54.890625 44.34375 54.890625 33.015625 
z
" id="DejaVuSans-6e"/>
      <path d="M 8.5 21.578125 
L 8.5 54.6875 
L 17.484375 54.6875 
L 17.484375 21.921875 
Q 17.484375 14.15625 20.5 10.265625 
Q 23.53125 6.390625 29.59375 6.390625 
Q 36.859375 6.390625 41.078125 11.03125 
Q 45.3125 15.671875 45.3125 23.6875 
L 45.3125 54.6875 
L 54.296875 54.6875 
L 54.296875 0 
L 45.3125 0 
L 45.3125 8.40625 
Q 42.046875 3.421875 37.71875 1 
Q 33.40625 -1.421875 27.6875 -1.421875 
Q 18.265625 -1.421875 13.375 4.4375 
Q 8.5 10.296875 8.5 21.578125 
z
M 31.109375 56 
z
" id="DejaVuSans-75"/>
      <path d="M 18.3125 70.21875 
L 18.3125 54.6875 
L 36.8125 54.6875 
L 36.8125 47.703125 
L 18.3125 47.703125 
L 18.3125 18.015625 
Q 18.3125 11.328125 20.140625 9.421875 
Q 21.96875 7.515625 27.59375 7.515625 
L 36.8125 7.515625 
L 36.8125 0 
L 27.59375 0 
Q 17.1875 0 13.234375 3.875 
Q 9.28125 7.765625 9.28125 18.015625 
L 9.28125 47.703125 
L 2.6875 47.703125 
L 2.6875 54.6875 
L 9.28125 54.6875 
L 9.28125 70.21875 
z
" id="DejaVuSans-74"/>
      <path d="M 56.203125 29.59375 
L 56.203125 25.203125 
L 14.890625 25.203125 
Q 15.484375 15.921875 20.484375 11.0625 
Q 25.484375 6.203125 34.421875 6.203125 
Q 39.59375 6.203125 44.453125 7.46875 
Q 49.3125 8.734375 54.109375 11.28125 
L 54.109375 2.78125 
Q 49.265625 0.734375 44.1875 -0.34375 
Q 39.109375 -1.421875 33.890625 -1.421875 
Q 20.796875 -1.421875 13.15625 6.1875 
Q 5.515625 13.8125 5.515625 26.8125 
Q 5.515625 40.234375 12.765625 48.109375 
Q 20.015625 56 32.328125 56 
Q 43.359375 56 49.78125 48.890625 
Q 56.203125 41.796875 56.203125 29.59375 
z
M 47.21875 32.234375 
Q 47.125 39.59375 43.09375 43.984375 
Q 39.0625 48.390625 32.421875 48.390625 
Q 24.90625 48.390625 20.390625 44.140625 
Q 15.875 39.890625 15.1875 32.171875 
z
" id="DejaVuSans-65"/>
      <path id="DejaVuSans-20"/>
      <path d="M 53.515625 70.515625 
L 53.515625 60.890625 
Q 47.90625 63.578125 42.921875 64.890625 
Q 37.9375 66.21875 33.296875 66.21875 
Q 25.25 66.21875 20.875 63.09375 
Q 16.5 59.96875 16.5 54.203125 
Q 16.5 49.359375 19.40625 46.890625 
Q 22.3125 44.4375 30.421875 42.921875 
L 36.375 41.703125 
Q 47.40625 39.59375 52.65625 34.296875 
Q 57.90625 29 57.90625 20.125 
Q 57.90625 9.515625 50.796875 4.046875 
Q 43.703125 -1.421875 29.984375 -1.421875 
Q 24.8125 -1.421875 18.96875 -0.25 
Q 13.140625 0.921875 6.890625 3.21875 
L 6.890625 13.375 
Q 12.890625 10.015625 18.65625 8.296875 
Q 24.421875 6.59375 29.984375 6.59375 
Q 38.421875 6.59375 43.015625 9.90625 
Q 47.609375 13.234375 47.609375 19.390625 
Q 47.609375 24.75 44.3125 27.78125 
Q 41.015625 30.8125 33.5 32.328125 
L 27.484375 33.5 
Q 16.453125 35.6875 11.515625 40.375 
Q 6.59375 45.0625 6.59375 53.421875 
Q 6.59375 63.09375 13.40625 68.65625 
Q 20.21875 74.21875 32.171875 74.21875 
Q 37.3125 74.21875 42.625 73.28125 
Q 47.953125 72.359375 53.515625 70.515625 
z
" id="DejaVuSans-53"/>
      <path d="M 18.109375 8.203125 
L 18.109375 -20.796875 
L 9.078125 -20.796875 
L 9.078125 54.6875 
L 18.109375 54.6875 
L 18.109375 46.390625 
Q 20.953125 51.265625 25.265625 53.625 
Q 29.59375 56 35.59375 56 
Q 45.5625 56 51.78125 48.09375 
Q 58.015625 40.1875 58.015625 27.296875 
Q 58.015625 14.40625 51.78125 6.484375 
Q 45.5625 -1.421875 35.59375 -1.421875 
Q 29.59375 -1.421875 25.265625 0.953125 
Q 20.953125 3.328125 18.109375 8.203125 
z
M 48.6875 27.296875 
Q 48.6875 37.203125 44.609375 42.84375 
Q 40.53125 48.484375 33.40625 48.484375 
Q 26.265625 48.484375 22.1875 42.84375 
Q 18.109375 37.203125 18.109375 27.296875 
Q 18.109375 17.390625 22.1875 11.75 
Q 26.265625 6.109375 33.40625 6.109375 
Q 40.53125 6.109375 44.609375 11.75 
Q 48.6875 17.390625 48.6875 27.296875 
z
" id="DejaVuSans-70"/>
      <path d="M 44.28125 53.078125 
L 44.28125 44.578125 
Q 40.484375 46.53125 36.375 47.5 
Q 32.28125 48.484375 27.875 48.484375 
Q 21.1875 48.484375 17.84375 46.4375 
Q 14.5 44.390625 14.5 40.28125 
Q 14.5 37.15625 16.890625 35.375 
Q 19.28125 33.59375 26.515625 31.984375 
L 29.59375 31.296875 
Q 39.15625 29.25 43.1875 25.515625 
Q 47.21875 21.78125 47.21875 15.09375 
Q 47.21875 7.46875 41.1875 3.015625 
Q 35.15625 -1.421875 24.609375 -1.421875 
Q 20.21875 -1.421875 15.453125 -0.5625 
Q 10.6875 0.296875 5.421875 2 
L 5.421875 11.28125 
Q 10.40625 8.6875 15.234375 7.390625 
Q 20.0625 6.109375 24.8125 6.109375 
Q 31.15625 6.109375 34.5625 8.28125 
Q 37.984375 10.453125 37.984375 14.40625 
Q 37.984375 18.0625 35.515625 20.015625 
Q 33.0625 21.96875 24.703125 23.78125 
L 21.578125 24.515625 
Q 13.234375 26.265625 9.515625 29.90625 
Q 5.8125 33.546875 5.8125 39.890625 
Q 5.8125 47.609375 11.28125 51.796875 
Q 16.75 56 26.8125 56 
Q 31.78125 56 36.171875 55.265625 
Q 40.578125 54.546875 44.28125 53.078125 
z
" id="DejaVuSans-73"/>
     </defs>
     <g transform="translate(601.004687 707.053125)scale(0.2 -0.2)">
      <use xlink:href="#DejaVuSans-31"/>
      <use x="63.623047" xlink:href="#DejaVuSans-35"/>
      <use x="127.246094" xlink:href="#DejaVuSans-2d"/>
      <use x="163.330078" xlink:href="#DejaVuSans-4d"/>
      <use x="249.609375" xlink:href="#DejaVuSans-69"/>
      <use x="277.392578" xlink:href="#DejaVuSans-6e"/>
      <use x="340.771484" xlink:href="#DejaVuSans-75"/>
      <use x="404.150391" xlink:href="#DejaVuSans-74"/>
      <use x="443.359375" xlink:href="#DejaVuSans-65"/>
      <use x="504.882812" xlink:href="#DejaVuSans-20"/>
      <use x="536.669922" xlink:href="#DejaVuSans-53"/>
      <use x="600.146484" xlink:href="#DejaVuSans-74"/>
      <use x="639.355469" xlink:href="#DejaVuSans-65"/>
      <use x="700.878906" xlink:href="#DejaVuSans-70"/>
      <use x="764.355469" xlink:href="#DejaVuSans-73"/>
     </g>
    </g>
   </g>
   <g id="matplotlib.axis_2">
    <g id="ytick_1">
     <g id="line2d_10">
      <defs>
       <path d="M 0 0 
L -3.5 0 
" id="mf10f8d18b1" style="stroke:#000000;stroke-width:0.8;"/>
      </defs>
      <g>
       <use style="stroke:#000000;stroke-width:0.8;" x="166.5" xlink:href="#mf10f8d18b1" y="655.520687"/>
      </g>
     </g>
     <g id="text_11">
      <!-- 0 -->
      <g transform="translate(146.775 663.119124)scale(0.2 -0.2)">
       <use xlink:href="#DejaVuSans-30"/>
      </g>
     </g>
    </g>
    <g id="ytick_2">
     <g id="line2d_11">
      <g>
       <use style="stroke:#000000;stroke-width:0.8;" x="166.5" xlink:href="#mf10f8d18b1" y="584.688484"/>
      </g>
     </g>
     <g id="text_12">
      <!-- 500 -->
      <g transform="translate(121.325 592.286921)scale(0.2 -0.2)">
       <use xlink:href="#DejaVuSans-35"/>
       <use x="63.623047" xlink:href="#DejaVuSans-30"/>
       <use x="127.246094" xlink:href="#DejaVuSans-30"/>
      </g>
     </g>
    </g>
    <g id="ytick_3">
     <g id="line2d_12">
      <g>
       <use style="stroke:#000000;stroke-width:0.8;" x="166.5" xlink:href="#mf10f8d18b1" y="513.856281"/>
      </g>
     </g>
     <g id="text_13">
      <!-- 1000 -->
      <g transform="translate(108.6 521.454718)scale(0.2 -0.2)">
       <use xlink:href="#DejaVuSans-31"/>
       <use x="63.623047" xlink:href="#DejaVuSans-30"/>
       <use x="127.246094" xlink:href="#DejaVuSans-30"/>
       <use x="190.869141" xlink:href="#DejaVuSans-30"/>
      </g>
     </g>
    </g>
    <g id="ytick_4">
     <g id="line2d_13">
      <g>
       <use style="stroke:#000000;stroke-width:0.8;" x="166.5" xlink:href="#mf10f8d18b1" y="443.024077"/>
      </g>
     </g>
     <g id="text_14">
      <!-- 1500 -->
      <g transform="translate(108.6 450.622515)scale(0.2 -0.2)">
       <use xlink:href="#DejaVuSans-31"/>
       <use x="63.623047" xlink:href="#DejaVuSans-35"/>
       <use x="127.246094" xlink:href="#DejaVuSans-30"/>
       <use x="190.869141" xlink:href="#DejaVuSans-30"/>
      </g>
     </g>
    </g>
    <g id="ytick_5">
     <g id="line2d_14">
      <g>
       <use style="stroke:#000000;stroke-width:0.8;" x="166.5" xlink:href="#mf10f8d18b1" y="372.191874"/>
      </g>
     </g>
     <g id="text_15">
      <!-- 2000 -->
      <g transform="translate(108.6 379.790312)scale(0.2 -0.2)">
       <use xlink:href="#DejaVuSans-32"/>
       <use x="63.623047" xlink:href="#DejaVuSans-30"/>
       <use x="127.246094" xlink:href="#DejaVuSans-30"/>
       <use x="190.869141" xlink:href="#DejaVuSans-30"/>
      </g>
     </g>
    </g>
    <g id="ytick_6">
     <g id="line2d_15">
      <g>
       <use style="stroke:#000000;stroke-width:0.8;" x="166.5" xlink:href="#mf10f8d18b1" y="301.359671"/>
      </g>
     </g>
     <g id="text_16">
      <!-- 2500 -->
      <g transform="translate(108.6 308.958109)scale(0.2 -0.2)">
       <use xlink:href="#DejaVuSans-32"/>
       <use x="63.623047" xlink:href="#DejaVuSans-35"/>
       <use x="127.246094" xlink:href="#DejaVuSans-30"/>
       <use x="190.869141" xlink:href="#DejaVuSans-30"/>
      </g>
     </g>
    </g>
    <g id="ytick_7">
     <g id="line2d_16">
      <g>
       <use style="stroke:#000000;stroke-width:0.8;" x="166.5" xlink:href="#mf10f8d18b1" y="230.527468"/>
      </g>
     </g>
     <g id="text_17">
      <!-- 3000 -->
      <defs>
       <path d="M 40.578125 39.3125 
Q 47.65625 37.796875 51.625 33 
Q 55.609375 28.21875 55.609375 21.1875 
Q 55.609375 10.40625 48.1875 4.484375 
Q 40.765625 -1.421875 27.09375 -1.421875 
Q 22.515625 -1.421875 17.65625 -0.515625 
Q 12.796875 0.390625 7.625 2.203125 
L 7.625 11.71875 
Q 11.71875 9.328125 16.59375 8.109375 
Q 21.484375 6.890625 26.8125 6.890625 
Q 36.078125 6.890625 40.9375 10.546875 
Q 45.796875 14.203125 45.796875 21.1875 
Q 45.796875 27.640625 41.28125 31.265625 
Q 36.765625 34.90625 28.71875 34.90625 
L 20.21875 34.90625 
L 20.21875 43.015625 
L 29.109375 43.015625 
Q 36.375 43.015625 40.234375 45.921875 
Q 44.09375 48.828125 44.09375 54.296875 
Q 44.09375 59.90625 40.109375 62.90625 
Q 36.140625 65.921875 28.71875 65.921875 
Q 24.65625 65.921875 20.015625 65.03125 
Q 15.375 64.15625 9.8125 62.3125 
L 9.8125 71.09375 
Q 15.4375 72.65625 20.34375 73.4375 
Q 25.25 74.21875 29.59375 74.21875 
Q 40.828125 74.21875 47.359375 69.109375 
Q 53.90625 64.015625 53.90625 55.328125 
Q 53.90625 49.265625 50.4375 45.09375 
Q 46.96875 40.921875 40.578125 39.3125 
z
" id="DejaVuSans-33"/>
      </defs>
      <g transform="translate(108.6 238.125905)scale(0.2 -0.2)">
       <use xlink:href="#DejaVuSans-33"/>
       <use x="63.623047" xlink:href="#DejaVuSans-30"/>
       <use x="127.246094" xlink:href="#DejaVuSans-30"/>
       <use x="190.869141" xlink:href="#DejaVuSans-30"/>
      </g>
     </g>
    </g>
    <g id="ytick_8">
     <g id="line2d_17">
      <g>
       <use style="stroke:#000000;stroke-width:0.8;" x="166.5" xlink:href="#mf10f8d18b1" y="159.695265"/>
      </g>
     </g>
     <g id="text_18">
      <!-- 3500 -->
      <g transform="translate(108.6 167.293702)scale(0.2 -0.2)">
       <use xlink:href="#DejaVuSans-33"/>
       <use x="63.623047" xlink:href="#DejaVuSans-35"/>
       <use x="127.246094" xlink:href="#DejaVuSans-30"/>
       <use x="190.869141" xlink:href="#DejaVuSans-30"/>
      </g>
     </g>
    </g>
    <g id="text_19">
     <!-- Bandwidth (kbps) -->
     <defs>
      <path d="M 19.671875 34.8125 
L 19.671875 8.109375 
L 35.5 8.109375 
Q 43.453125 8.109375 47.28125 11.40625 
Q 51.125 14.703125 51.125 21.484375 
Q 51.125 28.328125 47.28125 31.5625 
Q 43.453125 34.8125 35.5 34.8125 
z
M 19.671875 64.796875 
L 19.671875 42.828125 
L 34.28125 42.828125 
Q 41.5 42.828125 45.03125 45.53125 
Q 48.578125 48.25 48.578125 53.8125 
Q 48.578125 59.328125 45.03125 62.0625 
Q 41.5 64.796875 34.28125 64.796875 
z
M 9.8125 72.90625 
L 35.015625 72.90625 
Q 46.296875 72.90625 52.390625 68.21875 
Q 58.5 63.53125 58.5 54.890625 
Q 58.5 48.1875 55.375 44.234375 
Q 52.25 40.28125 46.1875 39.3125 
Q 53.46875 37.75 57.5 32.78125 
Q 61.53125 27.828125 61.53125 20.40625 
Q 61.53125 10.640625 54.890625 5.3125 
Q 48.25 0 35.984375 0 
L 9.8125 0 
z
" id="DejaVuSans-42"/>
      <path d="M 34.28125 27.484375 
Q 23.390625 27.484375 19.1875 25 
Q 14.984375 22.515625 14.984375 16.5 
Q 14.984375 11.71875 18.140625 8.90625 
Q 21.296875 6.109375 26.703125 6.109375 
Q 34.1875 6.109375 38.703125 11.40625 
Q 43.21875 16.703125 43.21875 25.484375 
L 43.21875 27.484375 
z
M 52.203125 31.203125 
L 52.203125 0 
L 43.21875 0 
L 43.21875 8.296875 
Q 40.140625 3.328125 35.546875 0.953125 
Q 30.953125 -1.421875 24.3125 -1.421875 
Q 15.921875 -1.421875 10.953125 3.296875 
Q 6 8.015625 6 15.921875 
Q 6 25.140625 12.171875 29.828125 
Q 18.359375 34.515625 30.609375 34.515625 
L 43.21875 34.515625 
L 43.21875 35.40625 
Q 43.21875 41.609375 39.140625 45 
Q 35.0625 48.390625 27.6875 48.390625 
Q 23 48.390625 18.546875 47.265625 
Q 14.109375 46.140625 10.015625 43.890625 
L 10.015625 52.203125 
Q 14.9375 54.109375 19.578125 55.046875 
Q 24.21875 56 28.609375 56 
Q 40.484375 56 46.34375 49.84375 
Q 52.203125 43.703125 52.203125 31.203125 
z
" id="DejaVuSans-61"/>
      <path d="M 45.40625 46.390625 
L 45.40625 75.984375 
L 54.390625 75.984375 
L 54.390625 0 
L 45.40625 0 
L 45.40625 8.203125 
Q 42.578125 3.328125 38.25 0.953125 
Q 33.9375 -1.421875 27.875 -1.421875 
Q 17.96875 -1.421875 11.734375 6.484375 
Q 5.515625 14.40625 5.515625 27.296875 
Q 5.515625 40.1875 11.734375 48.09375 
Q 17.96875 56 27.875 56 
Q 33.9375 56 38.25 53.625 
Q 42.578125 51.265625 45.40625 46.390625 
z
M 14.796875 27.296875 
Q 14.796875 17.390625 18.875 11.75 
Q 22.953125 6.109375 30.078125 6.109375 
Q 37.203125 6.109375 41.296875 11.75 
Q 45.40625 17.390625 45.40625 27.296875 
Q 45.40625 37.203125 41.296875 42.84375 
Q 37.203125 48.484375 30.078125 48.484375 
Q 22.953125 48.484375 18.875 42.84375 
Q 14.796875 37.203125 14.796875 27.296875 
z
" id="DejaVuSans-64"/>
      <path d="M 4.203125 54.6875 
L 13.1875 54.6875 
L 24.421875 12.015625 
L 35.59375 54.6875 
L 46.1875 54.6875 
L 57.421875 12.015625 
L 68.609375 54.6875 
L 77.59375 54.6875 
L 63.28125 0 
L 52.6875 0 
L 40.921875 44.828125 
L 29.109375 0 
L 18.5 0 
z
" id="DejaVuSans-77"/>
      <path d="M 54.890625 33.015625 
L 54.890625 0 
L 45.90625 0 
L 45.90625 32.71875 
Q 45.90625 40.484375 42.875 44.328125 
Q 39.84375 48.1875 33.796875 48.1875 
Q 26.515625 48.1875 22.3125 43.546875 
Q 18.109375 38.921875 18.109375 30.90625 
L 18.109375 0 
L 9.078125 0 
L 9.078125 75.984375 
L 18.109375 75.984375 
L 18.109375 46.1875 
Q 21.34375 51.125 25.703125 53.5625 
Q 30.078125 56 35.796875 56 
Q 45.21875 56 50.046875 50.171875 
Q 54.890625 44.34375 54.890625 33.015625 
z
" id="DejaVuSans-68"/>
      <path d="M 31 75.875 
Q 24.46875 64.65625 21.28125 53.65625 
Q 18.109375 42.671875 18.109375 31.390625 
Q 18.109375 20.125 21.3125 9.0625 
Q 24.515625 -2 31 -13.1875 
L 23.1875 -13.1875 
Q 15.875 -1.703125 12.234375 9.375 
Q 8.59375 20.453125 8.59375 31.390625 
Q 8.59375 42.28125 12.203125 53.3125 
Q 15.828125 64.359375 23.1875 75.875 
z
" id="DejaVuSans-28"/>
      <path d="M 9.078125 75.984375 
L 18.109375 75.984375 
L 18.109375 31.109375 
L 44.921875 54.6875 
L 56.390625 54.6875 
L 27.390625 29.109375 
L 57.625 0 
L 45.90625 0 
L 18.109375 26.703125 
L 18.109375 0 
L 9.078125 0 
z
" id="DejaVuSans-6b"/>
      <path d="M 48.6875 27.296875 
Q 48.6875 37.203125 44.609375 42.84375 
Q 40.53125 48.484375 33.40625 48.484375 
Q 26.265625 48.484375 22.1875 42.84375 
Q 18.109375 37.203125 18.109375 27.296875 
Q 18.109375 17.390625 22.1875 11.75 
Q 26.265625 6.109375 33.40625 6.109375 
Q 40.53125 6.109375 44.609375 11.75 
Q 48.6875 17.390625 48.6875 27.296875 
z
M 18.109375 46.390625 
Q 20.953125 51.265625 25.265625 53.625 
Q 29.59375 56 35.59375 56 
Q 45.5625 56 51.78125 48.09375 
Q 58.015625 40.1875 58.015625 27.296875 
Q 58.015625 14.40625 51.78125 6.484375 
Q 45.5625 -1.421875 35.59375 -1.421875 
Q 29.59375 -1.421875 25.265625 0.953125 
Q 20.953125 3.328125 18.109375 8.203125 
L 18.109375 0 
L 9.078125 0 
L 9.078125 75.984375 
L 18.109375 75.984375 
z
" id="DejaVuSans-62"/>
      <path d="M 8.015625 75.875 
L 15.828125 75.875 
Q 23.140625 64.359375 26.78125 53.3125 
Q 30.421875 42.28125 30.421875 31.390625 
Q 30.421875 20.453125 26.78125 9.375 
Q 23.140625 -1.703125 15.828125 -13.1875 
L 8.015625 -13.1875 
Q 14.5 -2 17.703125 9.0625 
Q 20.90625 20.125 20.90625 31.390625 
Q 20.90625 42.671875 17.703125 53.65625 
Q 14.5 64.65625 8.015625 75.875 
z
" id="DejaVuSans-29"/>
     </defs>
     <g transform="translate(100.440625 464.025625)rotate(-90)scale(0.2 -0.2)">
      <use xlink:href="#DejaVuSans-42"/>
      <use x="68.603516" xlink:href="#DejaVuSans-61"/>
      <use x="129.882812" xlink:href="#DejaVuSans-6e"/>
      <use x="193.261719" xlink:href="#DejaVuSans-64"/>
      <use x="256.738281" xlink:href="#DejaVuSans-77"/>
      <use x="338.525391" xlink:href="#DejaVuSans-69"/>
      <use x="366.308594" xlink:href="#DejaVuSans-64"/>
      <use x="429.785156" xlink:href="#DejaVuSans-74"/>
      <use x="468.994141" xlink:href="#DejaVuSans-68"/>
      <use x="532.373047" xlink:href="#DejaVuSans-20"/>
      <use x="564.160156" xlink:href="#DejaVuSans-28"/>
      <use x="603.173828" xlink:href="#DejaVuSans-6b"/>
      <use x="661.083984" xlink:href="#DejaVuSans-62"/>
      <use x="724.560547" xlink:href="#DejaVuSans-70"/>
      <use x="788.037109" xlink:href="#DejaVuSans-73"/>
      <use x="840.136719" xlink:href="#DejaVuSans-29"/>
     </g>
    </g>
   </g>
   <g id="line2d_18">
    <path clip-path="url(#p19b0987a1b)" d="M 218.115 272.107544 
L 222.807273 254.54494 
L 227.499545 116.664545 
L 232.191818 596.537918 
L 236.884091 613.814686 
L 241.576364 619.277265 
L 246.268636 354.719935 
L 250.960909 252.672448 
L 255.653182 256.529502 
L 260.345455 618.793722 
L 265.037727 226.521822 
L 269.73 617.657885 
L 274.422273 592.752645 
L 279.114545 603.108639 
L 283.806818 598.182486 
L 288.499091 584.221303 
L 293.191364 591.581562 
L 297.883636 585.663135 
L 302.575909 593.126639 
L 307.268182 469.662029 
L 311.960455 365.714354 
L 316.652727 508.251413 
L 321.345 598.444409 
L 326.037273 590.260612 
L 330.729545 272.621318 
L 335.421818 594.795134 
L 340.114091 596.79103 
L 344.806364 603.854105 
L 349.498636 617.715812 
L 354.190909 613.873873 
L 358.883182 595.366835 
L 363.575455 607.216269 
L 368.267727 562.370985 
L 372.96 592.089032 
L 377.652273 616.826783 
L 382.344545 596.894289 
L 387.036818 614.205056 
L 391.729091 612.197827 
L 396.421364 619.973631 
L 401.113636 620.1537 
L 405.805909 606.24414 
L 410.498182 620.855095 
L 415.190455 608.404989 
L 419.882727 617.796405 
L 424.575 586.354457 
L 429.267273 606.152214 
L 433.959545 569.633014 
L 438.651818 577.125489 
L 443.344091 560.671012 
L 448.036364 612.531518 
L 452.728636 594.778772 
L 457.420909 614.074087 
L 462.113182 626.812551 
L 466.805455 623.024756 
L 471.497727 620.894123 
L 476.19 621.117018 
L 480.882273 615.056289 
L 485.574545 628.197717 
L 490.266818 623.43275 
L 494.959091 614.54379 
L 499.651364 631.025962 
L 504.343636 629.892647 
L 509.035909 627.885418 
L 513.728182 609.773793 
L 518.420455 609.700751 
L 523.112727 635.555455 
L 527.805 621.130859 
L 532.497273 605.041565 
L 537.189545 631.023454 
L 541.881818 623.067581 
L 546.574091 611.155177 
L 551.266364 606.396514 
L 555.958636 617.088706 
L 560.650909 624.074971 
L 565.343182 619.72807 
L 570.035455 611.083396 
L 574.727727 607.177241 
L 579.42 604.529051 
L 584.112273 595.933493 
L 588.804545 625.638946 
L 593.496818 616.144272 
L 598.189091 629.715099 
L 602.881364 605.016377 
L 607.573636 615.507108 
L 612.265909 615.625468 
L 616.958182 611.316349 
L 621.650455 621.817152 
L 626.342727 608.787809 
L 631.035 610.690518 
L 635.727273 593.403678 
L 640.419545 590.741648 
L 645.111818 593.064944 
L 649.804091 593.574936 
L 654.496364 617.582335 
L 659.188636 621.507375 
L 663.880909 616.825522 
L 668.573182 629.945544 
L 673.265455 614.062754 
L 677.957727 595.485196 
L 682.65 604.103435 
L 687.342273 626.954853 
L 692.034545 603.9158 
L 696.726818 623.451648 
L 701.419091 617.353151 
L 706.111364 606.591685 
L 710.803636 606.514875 
L 715.495909 581.628532 
L 720.188182 562.308029 
L 724.880455 585.790321 
L 729.572727 567.322312 
L 734.265 569.980573 
L 738.957273 596.859029 
L 743.649545 541.149033 
L 748.341818 524.869583 
L 753.034091 543.557952 
L 757.726364 605.200229 
L 762.418636 593.193391 
L 767.110909 543.050481 
L 771.803182 528.717826 
L 776.495455 539.546016 
L 781.187727 525.363213 
L 785.88 560.80072 
L 790.572273 558.561785 
L 795.264545 555.826727 
L 799.956818 589.204122 
L 804.649091 591.722589 
L 809.341364 596.906883 
L 814.033636 610.052079 
L 818.725909 599.990761 
L 823.418182 614.440531 
L 828.110455 608.751288 
L 832.802727 619.529116 
L 837.495 583.130799 
L 842.187273 602.194422 
L 846.879545 614.461936 
L 851.571818 610.471406 
L 856.264091 616.087606 
L 860.956364 605.729105 
L 865.648636 612.049235 
L 870.340909 591.376304 
L 875.033182 621.659749 
L 879.725455 594.062262 
L 884.417727 604.467356 
L 889.11 574.516356 
L 893.802273 608.140559 
L 898.494545 578.504365 
L 903.186818 598.828476 
L 907.879091 613.644688 
L 912.571364 605.323633 
L 917.263636 599.609202 
L 921.955909 599.879951 
L 926.648182 612.970989 
L 931.340455 614.609267 
L 936.032727 600.995629 
L 940.725 598.817142 
L 945.417273 605.294677 
L 950.109545 610.350523 
L 954.801818 602.140278 
L 959.494091 602.102496 
L 964.186364 614.55763 
L 968.878636 611.940933 
L 973.570909 603.398258 
L 978.263182 584.838336 
L 982.955455 602.558344 
L 987.647727 603.764701 
L 992.34 608.512031 
L 997.032273 586.442601 
L 1001.724545 615.55118 
L 1006.416818 620.498724 
L 1011.109091 577.446599 
L 1015.801364 608.964096 
L 1020.493636 610.453783 
L 1025.185909 607.271674 
L 1029.878182 603.463735 
L 1034.570455 614.761627 
L 1039.262727 616.984186 
L 1043.955 624.459037 
L 1048.647273 623.751339 
L 1053.339545 619.957254 
L 1058.031818 614.560152 
L 1062.724091 616.797826 
L 1067.416364 611.808718 
L 1072.108636 613.008771 
L 1076.800909 598.201384 
L 1081.493182 613.190101 
L 1086.185455 613.747947 
L 1090.877727 626.948549 
L 1095.57 601.924948 
L 1100.262273 587.868056 
L 1104.954545 614.245345 
L 1109.646818 616.261386 
L 1114.339091 616.48931 
L 1119.031364 602.343014 
L 1123.723636 595.444906 
L 1128.415909 611.305016 
L 1133.108182 602.384578 
L 1137.800455 618.515422 
L 1142.492727 594.306548 
L 1147.185 585.410023 
L 1151.877273 537.060287 
L 1151.877273 537.060287 
" style="fill:none;stroke:#1f77b4;stroke-linecap:square;stroke-width:1.5;"/>
   </g>
   <g id="line2d_19">
    <path clip-path="url(#p19b0987a1b)" d="M 213.422727 528.588174 
L 218.115 473.449165 
L 222.807273 431.697258 
L 227.499545 365.010386 
L 232.191818 456.367849 
L 236.884091 512.849255 
L 241.576364 548.48801 
L 246.268636 503.276262 
L 250.960909 450.935819 
L 255.653182 417.375262 
L 260.345455 489.684236 
L 265.037727 435.523029 
L 269.73 498.379906 
L 274.422273 531.056907 
L 279.114545 553.137469 
L 283.806818 567.168744 
L 288.499091 571.174803 
L 293.191364 575.934627 
L 297.883636 577.203098 
L 302.575909 579.987109 
L 307.268182 551.996091 
L 311.960455 509.551546 
L 316.652727 517.943571 
L 321.345 544.160887 
L 326.037273 558.803066 
L 330.729545 491.911534 
L 335.421818 527.093081 
L 340.114091 548.645915 
L 344.806364 564.41426 
L 349.498636 577.736523 
L 354.190909 585.099707 
L 358.883182 585.002123 
L 363.575455 588.044776 
L 368.267727 579.088844 
L 372.96 580.738818 
L 377.652273 587.891505 
L 382.344545 587.025919 
L 387.036818 590.840101 
L 391.729091 592.821413 
L 396.421364 595.782613 
L 401.113636 597.734949 
L 405.805909 595.631736 
L 410.498182 597.811006 
L 415.190455 596.202328 
L 419.882727 597.464113 
L 424.575 590.718954 
L 429.267273 591.322634 
L 433.959545 582.998687 
L 438.651818 579.138883 
L 443.344091 573.166261 
L 448.036364 581.905381 
L 452.728636 583.047128 
L 457.420909 588.369398 
L 462.113182 594.706519 
L 466.805455 597.686526 
L 471.497727 599.002653 
L 476.19 599.867413 
L 480.882273 598.930749 
L 485.574545 601.554209 
L 490.266818 601.996631 
L 494.959091 600.012029 
L 499.651364 603.238998 
L 504.343636 604.46316 
L 509.035909 604.893594 
L 513.728182 600.766696 
L 518.420455 598.242454 
L 523.112727 602.99343 
L 527.805 602.376742 
L 532.497273 598.112192 
L 537.189545 601.865066 
L 541.881818 602.184703 
L 546.574091 599.633626 
L 551.266364 596.717642 
L 555.958636 597.570117 
L 560.650909 599.99978 
L 565.343182 600.179154 
L 570.035455 598.367977 
L 574.727727 596.174063 
L 579.42 594.361351 
L 584.112273 591.025766 
L 588.804545 596.407288 
L 593.496818 597.137484 
L 598.189091 601.163808 
L 602.881364 597.346984 
L 607.573636 597.808768 
L 612.265909 597.907469 
L 616.958182 597.16009 
L 621.650455 599.04412 
L 626.342727 597.229555 
L 631.035 596.380898 
L 635.727273 591.86847 
L 640.419545 588.293063 
L 645.111818 586.922795 
L 649.804091 586.011015 
L 654.496364 591.572391 
L 659.188636 595.619984 
L 663.880909 597.219223 
L 668.573182 601.036217 
L 673.265455 599.87272 
L 677.957727 594.279875 
L 682.65 593.302634 
L 687.342273 598.059853 
L 692.034545 595.556717 
L 696.726818 598.572333 
L 701.419091 599.189798 
L 706.111364 596.625919 
L 710.803636 595.356278 
L 715.495909 588.204512 
L 720.188182 579.447665 
L 724.880455 579.552049 
L 729.572727 575.580941 
L 734.265 573.377322 
L 738.957273 578.744803 
L 748.341818 558.369333 
L 753.034091 556.650564 
L 757.726364 571.179921 
L 762.418636 576.240791 
L 767.110909 567.599374 
L 771.803182 558.08476 
L 776.495455 556.021049 
L 781.187727 550.63294 
L 785.88 556.508992 
L 790.572273 559.15784 
L 795.264545 560.544254 
L 799.956818 569.016093 
L 804.649091 575.207231 
L 809.341364 579.824698 
L 814.033636 586.223188 
L 818.725909 587.227307 
L 823.418182 591.762859 
L 828.110455 592.728325 
L 832.802727 596.331238 
L 837.495 589.148987 
L 842.187273 589.923641 
L 846.879545 593.045852 
L 851.571818 594.326981 
L 856.264091 596.097031 
L 860.956364 595.028628 
L 865.648636 595.507518 
L 870.340909 591.205957 
L 875.033182 595.538913 
L 879.725455 591.808394 
L 884.417727 591.749257 
L 889.11 585.101766 
L 893.802273 588.758309 
L 898.494545 583.541544 
L 903.186818 585.300645 
L 907.879091 590.619693 
L 912.571364 591.178499 
L 917.263636 590.629838 
L 921.955909 589.881039 
L 926.648182 593.185137 
L 931.340455 595.084449 
L 936.032727 593.343865 
L 940.725 591.032749 
L 945.417273 592.043649 
L 950.109545 593.426839 
L 954.801818 592.663292 
L 959.494091 591.699962 
L 964.186364 594.706925 
L 968.878636 595.38502 
L 973.570909 594.207584 
L 978.263182 588.317808 
L 982.955455 589.733688 
L 987.647727 590.400131 
L 992.34 592.495681 
L 997.032273 587.731869 
L 1001.724545 592.643063 
L 1006.416818 596.313939 
L 1011.109091 588.782141 
L 1015.801364 591.069873 
L 1020.493636 592.763577 
L 1025.185909 593.620009 
L 1029.878182 592.575715 
L 1034.570455 595.406469 
L 1039.262727 597.045109 
L 1043.955 600.507181 
L 1048.647273 601.797761 
L 1053.339545 602.210973 
L 1058.031818 600.558051 
L 1062.724091 600.696589 
L 1067.416364 599.088592 
L 1072.108636 598.427657 
L 1076.800909 594.653808 
L 1081.493182 595.823072 
L 1086.185455 597.127991 
L 1090.877727 600.718973 
L 1095.57 597.208562 
L 1100.262273 590.894443 
L 1104.954545 594.361417 
L 1109.646818 596.4049 
L 1114.339091 598.27194 
L 1119.031364 595.199656 
L 1123.723636 592.333909 
L 1128.415909 593.901463 
L 1133.108182 593.264188 
L 1137.800455 596.31741 
L 1142.492727 592.780673 
L 1147.185 587.663213 
L 1147.185 587.663213 
" style="fill:none;stroke:#ff0000;stroke-linecap:square;stroke-width:1.5;"/>
   </g>
   <g id="line2d_20">
    <path clip-path="url(#p19b0987a1b)" d="M 222.807273 412.815716 
L 227.499545 372.77017 
L 232.191818 495.971564 
L 236.884091 590.928483 
L 241.576364 596.668088 
L 246.268636 499.181131 
L 250.960909 423.844927 
L 255.653182 410.739983 
L 260.345455 527.014832 
L 265.037727 455.754627 
L 274.422273 587.140893 
L 279.114545 586.001348 
L 283.806818 586.236243 
L 288.499091 579.839781 
L 293.191364 579.81372 
L 297.883636 579.045616 
L 302.575909 580.701371 
L 307.268182 535.732986 
L 311.960455 477.345704 
L 316.652727 508.024124 
L 321.345 567.09806 
L 326.037273 582.217752 
L 330.729545 466.269266 
L 335.421818 521.557035 
L 340.114091 583.984844 
L 344.806364 587.123842 
L 349.498636 593.970676 
L 354.190909 595.37639 
L 358.883182 587.371889 
L 363.575455 588.129444 
L 368.267727 573.292618 
L 372.96 575.56275 
L 377.652273 591.170223 
L 382.344545 588.576784 
L 387.036818 591.154071 
L 391.729091 593.986784 
L 396.421364 596.600325 
L 401.113636 598.307043 
L 405.805909 592.908828 
L 410.498182 595.694245 
L 415.190455 593.898629 
L 419.882727 594.954916 
L 424.575 584.688929 
L 429.267273 585.855179 
L 433.959545 575.860329 
L 438.651818 571.338031 
L 443.344091 566.598923 
L 448.036364 583.023075 
L 457.420909 590.663031 
L 462.113182 599.66997 
L 466.805455 600.877338 
L 471.497727 599.240658 
L 476.19 598.87846 
L 480.882273 596.552653 
L 485.574545 600.420076 
L 490.266818 601.330891 
L 494.959091 596.838904 
L 499.651364 601.420205 
L 504.343636 604.473841 
L 509.035909 603.442109 
L 513.728182 595.90736 
L 518.420455 592.088356 
L 523.112727 602.169754 
L 527.805 601.984472 
L 532.497273 592.643925 
L 537.189545 599.41054 
L 541.881818 601.785978 
L 546.574091 595.436613 
L 551.266364 591.091072 
L 555.958636 594.258526 
L 560.650909 599.234303 
L 565.343182 599.005093 
L 570.035455 594.7084 
L 574.727727 591.37974 
L 579.42 589.53819 
L 584.112273 585.659668 
L 588.804545 595.395205 
L 593.496818 597.930016 
L 598.189091 601.245057 
L 602.881364 594.429559 
L 607.573636 593.354175 
L 612.265909 595.597114 
L 616.958182 593.940266 
L 621.650455 597.135103 
L 626.342727 594.249482 
L 631.035 592.267724 
L 635.727273 585.952763 
L 640.419545 581.369452 
L 645.111818 581.717569 
L 649.804091 582.390267 
L 654.496364 591.772633 
L 659.188636 598.333086 
L 663.880909 597.327021 
L 668.573182 601.479693 
L 673.265455 598.021185 
L 677.957727 587.45691 
L 682.65 586.950177 
L 687.342273 597.623826 
L 692.034545 593.421635 
L 696.726818 596.217908 
L 701.419091 597.942942 
L 706.111364 592.459434 
L 710.803636 590.187378 
L 715.495909 580.546105 
L 720.188182 568.119896 
L 724.880455 573.154101 
L 729.572727 570.861202 
L 734.265 568.164659 
L 738.957273 578.92907 
L 743.649545 563.136238 
L 748.341818 546.163582 
L 753.034091 549.929378 
L 757.726364 576.736808 
L 762.418636 584.738703 
L 767.110909 563.127963 
L 771.803182 547.951455 
L 776.495455 549.189851 
L 781.187727 546.037775 
L 785.88 556.419223 
L 790.572273 562.555936 
L 795.264545 561.084715 
L 799.956818 573.14318 
L 804.649091 580.886648 
L 809.341364 583.397625 
L 814.033636 589.546763 
L 818.725909 588.373807 
L 823.418182 591.890568 
L 828.110455 592.692734 
L 832.802727 595.703168 
L 837.495 583.797556 
L 842.187273 583.666994 
L 846.879545 592.358469 
L 851.571818 593.367469 
L 856.264091 594.721703 
L 860.956364 591.859341 
L 865.648636 592.158034 
L 870.340909 585.448248 
L 875.033182 592.89585 
L 879.725455 588.478785 
L 884.417727 586.796645 
L 889.11 577.392352 
L 893.802273 584.182049 
L 898.494545 579.675307 
L 903.186818 581.424686 
L 907.879091 591.339426 
L 912.571364 591.192323 
L 917.263636 587.246437 
L 921.955909 586.169812 
L 926.648182 591.29695 
L 931.340455 594.668834 
L 936.032727 589.710017 
L 940.725 586.045255 
L 945.417273 588.100617 
L 950.109545 591.407219 
L 954.801818 589.269966 
L 959.494091 587.553025 
L 964.186364 592.376475 
L 968.878636 593.960391 
L 973.570909 590.089076 
L 978.263182 581.144487 
L 982.955455 584.158189 
L 987.647727 588.283391 
L 992.34 590.374774 
L 997.032273 582.812321 
L 1001.724545 589.502713 
L 1006.416818 597.510708 
L 1011.109091 581.797878 
L 1015.801364 585.101804 
L 1020.493636 592.212408 
L 1025.185909 591.285286 
L 1029.878182 589.144393 
L 1034.570455 592.739884 
L 1039.262727 595.97127 
L 1043.955 599.362673 
L 1048.647273 600.664695 
L 1053.339545 599.02667 
L 1058.031818 596.114984 
L 1062.724091 595.856203 
L 1067.416364 594.377753 
L 1072.108636 593.801533 
L 1076.800909 588.2925 
L 1081.493182 591.032466 
L 1086.185455 594.378799 
L 1090.877727 599.65435 
L 1095.57 592.642848 
L 1100.262273 582.009899 
L 1104.954545 589.293567 
L 1109.646818 595.580686 
L 1114.339091 596.092844 
L 1123.723636 585.019852 
L 1128.415909 589.728517 
L 1133.108182 589.563083 
L 1137.800455 593.974441 
L 1142.492727 587.921768 
L 1147.185 579.504728 
L 1151.877273 559.326232 
L 1151.877273 559.326232 
" style="fill:none;stroke:#008000;stroke-linecap:square;stroke-width:1.5;"/>
   </g>
   <g id="patch_3">
    <path d="M 166.5 661.5 
L 166.5 90.72 
" style="fill:none;stroke:#000000;stroke-linecap:square;stroke-linejoin:miter;stroke-width:0.8;"/>
   </g>
   <g id="patch_4">
    <path d="M 1198.8 661.5 
L 1198.8 90.72 
" style="fill:none;stroke:#000000;stroke-linecap:square;stroke-linejoin:miter;stroke-width:0.8;"/>
   </g>
   <g id="patch_5">
    <path d="M 166.5 661.5 
L 1198.8 661.5 
" style="fill:none;stroke:#000000;stroke-linecap:square;stroke-linejoin:miter;stroke-width:0.8;"/>
   </g>
   <g id="patch_6">
    <path d="M 166.5 90.72 
L 1198.8 90.72 
" style="fill:none;stroke:#000000;stroke-linecap:square;stroke-linejoin:miter;stroke-width:0.8;"/>
   </g>
   <g id="legend_1">
    <g id="patch_7">
     <path d="M 939.471875 194.78875 
L 1184.8 194.78875 
Q 1188.8 194.78875 1188.8 190.78875 
L 1188.8 104.72 
Q 1188.8 100.72 1184.8 100.72 
L 939.471875 100.72 
Q 935.471875 100.72 935.471875 104.72 
L 935.471875 190.78875 
Q 935.471875 194.78875 939.471875 194.78875 
z
" style="fill:#ffffff;opacity:0.8;stroke:#cccccc;stroke-linejoin:miter;"/>
    </g>
    <g id="line2d_21">
     <path d="M 943.471875 116.916875 
L 983.471875 116.916875 
" style="fill:none;stroke:#1f77b4;stroke-linecap:square;stroke-width:1.5;"/>
    </g>
    <g id="line2d_22"/>
    <g id="text_20">
     <!-- Real values -->
     <defs>
      <path d="M 44.390625 34.1875 
Q 47.5625 33.109375 50.5625 29.59375 
Q 53.5625 26.078125 56.59375 19.921875 
L 66.609375 0 
L 56 0 
L 46.6875 18.703125 
Q 43.0625 26.03125 39.671875 28.421875 
Q 36.28125 30.8125 30.421875 30.8125 
L 19.671875 30.8125 
L 19.671875 0 
L 9.8125 0 
L 9.8125 72.90625 
L 32.078125 72.90625 
Q 44.578125 72.90625 50.734375 67.671875 
Q 56.890625 62.453125 56.890625 51.90625 
Q 56.890625 45.015625 53.6875 40.46875 
Q 50.484375 35.9375 44.390625 34.1875 
z
M 19.671875 64.796875 
L 19.671875 38.921875 
L 32.078125 38.921875 
Q 39.203125 38.921875 42.84375 42.21875 
Q 46.484375 45.515625 46.484375 51.90625 
Q 46.484375 58.296875 42.84375 61.546875 
Q 39.203125 64.796875 32.078125 64.796875 
z
" id="DejaVuSans-52"/>
      <path d="M 9.421875 75.984375 
L 18.40625 75.984375 
L 18.40625 0 
L 9.421875 0 
z
" id="DejaVuSans-6c"/>
      <path d="M 2.984375 54.6875 
L 12.5 54.6875 
L 29.59375 8.796875 
L 46.6875 54.6875 
L 56.203125 54.6875 
L 35.6875 0 
L 23.484375 0 
z
" id="DejaVuSans-76"/>
     </defs>
     <g transform="translate(999.471875 123.916875)scale(0.2 -0.2)">
      <use xlink:href="#DejaVuSans-52"/>
      <use x="69.419922" xlink:href="#DejaVuSans-65"/>
      <use x="130.943359" xlink:href="#DejaVuSans-61"/>
      <use x="192.222656" xlink:href="#DejaVuSans-6c"/>
      <use x="220.005859" xlink:href="#DejaVuSans-20"/>
      <use x="251.792969" xlink:href="#DejaVuSans-76"/>
      <use x="310.972656" xlink:href="#DejaVuSans-61"/>
      <use x="372.251953" xlink:href="#DejaVuSans-6c"/>
      <use x="400.035156" xlink:href="#DejaVuSans-75"/>
      <use x="463.414062" xlink:href="#DejaVuSans-65"/>
      <use x="524.9375" xlink:href="#DejaVuSans-73"/>
     </g>
    </g>
    <g id="line2d_23">
     <path d="M 943.471875 146.273125 
L 983.471875 146.273125 
" style="fill:none;stroke:#ff0000;stroke-linecap:square;stroke-width:1.5;"/>
    </g>
    <g id="line2d_24"/>
    <g id="text_21">
     <!-- ARIMA Predictions -->
     <defs>
      <path d="M 34.1875 63.1875 
L 20.796875 26.90625 
L 47.609375 26.90625 
z
M 28.609375 72.90625 
L 39.796875 72.90625 
L 67.578125 0 
L 57.328125 0 
L 50.6875 18.703125 
L 17.828125 18.703125 
L 11.1875 0 
L 0.78125 0 
z
" id="DejaVuSans-41"/>
      <path d="M 9.8125 72.90625 
L 19.671875 72.90625 
L 19.671875 0 
L 9.8125 0 
z
" id="DejaVuSans-49"/>
      <path d="M 19.671875 64.796875 
L 19.671875 37.40625 
L 32.078125 37.40625 
Q 38.96875 37.40625 42.71875 40.96875 
Q 46.484375 44.53125 46.484375 51.125 
Q 46.484375 57.671875 42.71875 61.234375 
Q 38.96875 64.796875 32.078125 64.796875 
z
M 9.8125 72.90625 
L 32.078125 72.90625 
Q 44.34375 72.90625 50.609375 67.359375 
Q 56.890625 61.8125 56.890625 51.125 
Q 56.890625 40.328125 50.609375 34.8125 
Q 44.34375 29.296875 32.078125 29.296875 
L 19.671875 29.296875 
L 19.671875 0 
L 9.8125 0 
z
" id="DejaVuSans-50"/>
      <path d="M 41.109375 46.296875 
Q 39.59375 47.171875 37.8125 47.578125 
Q 36.03125 48 33.890625 48 
Q 26.265625 48 22.1875 43.046875 
Q 18.109375 38.09375 18.109375 28.8125 
L 18.109375 0 
L 9.078125 0 
L 9.078125 54.6875 
L 18.109375 54.6875 
L 18.109375 46.1875 
Q 20.953125 51.171875 25.484375 53.578125 
Q 30.03125 56 36.53125 56 
Q 37.453125 56 38.578125 55.875 
Q 39.703125 55.765625 41.0625 55.515625 
z
" id="DejaVuSans-72"/>
      <path d="M 48.78125 52.59375 
L 48.78125 44.1875 
Q 44.96875 46.296875 41.140625 47.34375 
Q 37.3125 48.390625 33.40625 48.390625 
Q 24.65625 48.390625 19.8125 42.84375 
Q 14.984375 37.3125 14.984375 27.296875 
Q 14.984375 17.28125 19.8125 11.734375 
Q 24.65625 6.203125 33.40625 6.203125 
Q 37.3125 6.203125 41.140625 7.25 
Q 44.96875 8.296875 48.78125 10.40625 
L 48.78125 2.09375 
Q 45.015625 0.34375 40.984375 -0.53125 
Q 36.96875 -1.421875 32.421875 -1.421875 
Q 20.0625 -1.421875 12.78125 6.34375 
Q 5.515625 14.109375 5.515625 27.296875 
Q 5.515625 40.671875 12.859375 48.328125 
Q 20.21875 56 33.015625 56 
Q 37.15625 56 41.109375 55.140625 
Q 45.0625 54.296875 48.78125 52.59375 
z
" id="DejaVuSans-63"/>
      <path d="M 30.609375 48.390625 
Q 23.390625 48.390625 19.1875 42.75 
Q 14.984375 37.109375 14.984375 27.296875 
Q 14.984375 17.484375 19.15625 11.84375 
Q 23.34375 6.203125 30.609375 6.203125 
Q 37.796875 6.203125 41.984375 11.859375 
Q 46.1875 17.53125 46.1875 27.296875 
Q 46.1875 37.015625 41.984375 42.703125 
Q 37.796875 48.390625 30.609375 48.390625 
z
M 30.609375 56 
Q 42.328125 56 49.015625 48.375 
Q 55.71875 40.765625 55.71875 27.296875 
Q 55.71875 13.875 49.015625 6.21875 
Q 42.328125 -1.421875 30.609375 -1.421875 
Q 18.84375 -1.421875 12.171875 6.21875 
Q 5.515625 13.875 5.515625 27.296875 
Q 5.515625 40.765625 12.171875 48.375 
Q 18.84375 56 30.609375 56 
z
" id="DejaVuSans-6f"/>
     </defs>
     <g transform="translate(999.471875 153.273125)scale(0.2 -0.2)">
      <use xlink:href="#DejaVuSans-41"/>
      <use x="68.408203" xlink:href="#DejaVuSans-52"/>
      <use x="137.890625" xlink:href="#DejaVuSans-49"/>
      <use x="167.382812" xlink:href="#DejaVuSans-4d"/>
      <use x="253.662109" xlink:href="#DejaVuSans-41"/>
      <use x="322.070312" xlink:href="#DejaVuSans-20"/>
      <use x="353.857422" xlink:href="#DejaVuSans-50"/>
      <use x="414.144531" xlink:href="#DejaVuSans-72"/>
      <use x="455.226562" xlink:href="#DejaVuSans-65"/>
      <use x="516.75" xlink:href="#DejaVuSans-64"/>
      <use x="580.226562" xlink:href="#DejaVuSans-69"/>
      <use x="608.009766" xlink:href="#DejaVuSans-63"/>
      <use x="662.990234" xlink:href="#DejaVuSans-74"/>
      <use x="702.199219" xlink:href="#DejaVuSans-69"/>
      <use x="729.982422" xlink:href="#DejaVuSans-6f"/>
      <use x="791.164062" xlink:href="#DejaVuSans-6e"/>
      <use x="854.542969" xlink:href="#DejaVuSans-73"/>
     </g>
    </g>
    <g id="line2d_25">
     <path d="M 943.471875 175.629375 
L 983.471875 175.629375 
" style="fill:none;stroke:#008000;stroke-linecap:square;stroke-width:1.5;"/>
    </g>
    <g id="line2d_26"/>
    <g id="text_22">
     <!-- LSTM Predictions -->
     <defs>
      <path d="M 9.8125 72.90625 
L 19.671875 72.90625 
L 19.671875 8.296875 
L 55.171875 8.296875 
L 55.171875 0 
L 9.8125 0 
z
" id="DejaVuSans-4c"/>
      <path d="M -0.296875 72.90625 
L 61.375 72.90625 
L 61.375 64.59375 
L 35.5 64.59375 
L 35.5 0 
L 25.59375 0 
L 25.59375 64.59375 
L -0.296875 64.59375 
z
" id="DejaVuSans-54"/>
     </defs>
     <g transform="translate(999.471875 182.629375)scale(0.2 -0.2)">
      <use xlink:href="#DejaVuSans-4c"/>
      <use x="55.712891" xlink:href="#DejaVuSans-53"/>
      <use x="119.189453" xlink:href="#DejaVuSans-54"/>
      <use x="180.273438" xlink:href="#DejaVuSans-4d"/>
      <use x="266.552734" xlink:href="#DejaVuSans-20"/>
      <use x="298.339844" xlink:href="#DejaVuSans-50"/>
      <use x="358.626953" xlink:href="#DejaVuSans-72"/>
      <use x="399.708984" xlink:href="#DejaVuSans-65"/>
      <use x="461.232422" xlink:href="#DejaVuSans-64"/>
      <use x="524.708984" xlink:href="#DejaVuSans-69"/>
      <use x="552.492188" xlink:href="#DejaVuSans-63"/>
      <use x="607.472656" xlink:href="#DejaVuSans-74"/>
      <use x="646.681641" xlink:href="#DejaVuSans-69"/>
      <use x="674.464844" xlink:href="#DejaVuSans-6f"/>
      <use x="735.646484" xlink:href="#DejaVuSans-6e"/>
      <use x="799.025391" xlink:href="#DejaVuSans-73"/>
     </g>
    </g>
   </g>
  </g>
 </g>
 <defs>
  <clipPath id="p19b0987a1b">
   <rect height="570.78" width="1032.3" x="166.5" y="90.72"/>
  </clipPath>
 </defs>
</svg>
