<?xml version="1.0" encoding="utf-8" standalone="no"?>
<!DOCTYPE svg PUBLIC "-//W3C//DTD SVG 1.1//EN"
  "http://www.w3.org/Graphics/SVG/1.1/DTD/svg11.dtd">
<!-- Created with matplotlib (http://matplotlib.org/) -->
<svg height="756pt" version="1.1" viewBox="0 0 1332 756" width="1332pt" xmlns="http://www.w3.org/2000/svg" xmlns:xlink="http://www.w3.org/1999/xlink">
 <defs>
  <style type="text/css">
*{stroke-linecap:butt;stroke-linejoin:round;}
  </style>
 </defs>
 <g id="figure_1">
  <g id="patch_1">
   <path d="M 0 756 
L 1332 756 
L 1332 0 
L 0 0 
z
" style="fill:#ffffff;"/>
  </g>
  <g id="axes_1">
   <g id="patch_2">
    <path d="M 166.5 661.5 
L 1198.8 661.5 
L 1198.8 90.72 
L 166.5 90.72 
z
" style="fill:#ffffff;"/>
   </g>
   <g id="matplotlib.axis_1">
    <g id="xtick_1">
     <g id="line2d_1">
      <defs>
       <path d="M 0 0 
L 0 3.5 
" id="m4f25e2d294" style="stroke:#000000;stroke-width:0.8;"/>
      </defs>
      <g>
       <use style="stroke:#000000;stroke-width:0.8;" x="218.115" xlink:href="#m4f25e2d294" y="661.5"/>
      </g>
     </g>
     <g id="text_1">
      <!-- 0 -->
      <defs>
       <path d="M 31.78125 66.40625 
Q 24.171875 66.40625 20.328125 58.90625 
Q 16.5 51.421875 16.5 36.375 
Q 16.5 21.390625 20.328125 13.890625 
Q 24.171875 6.390625 31.78125 6.390625 
Q 39.453125 6.390625 43.28125 13.890625 
Q 47.125 21.390625 47.125 36.375 
Q 47.125 51.421875 43.28125 58.90625 
Q 39.453125 66.40625 31.78125 66.40625 
z
M 31.78125 74.21875 
Q 44.046875 74.21875 50.515625 64.515625 
Q 56.984375 54.828125 56.984375 36.375 
Q 56.984375 17.96875 50.515625 8.265625 
Q 44.046875 -1.421875 31.78125 -1.421875 
Q 19.53125 -1.421875 13.0625 8.265625 
Q 6.59375 17.96875 6.59375 36.375 
Q 6.59375 54.828125 13.0625 64.515625 
Q 19.53125 74.21875 31.78125 74.21875 
z
" id="DejaVuSans-30"/>
      </defs>
      <g transform="translate(213.343125 679.897656)scale(0.15 -0.15)">
       <use xlink:href="#DejaVuSans-30"/>
      </g>
     </g>
    </g>
    <g id="xtick_2">
     <g id="line2d_2">
      <g>
       <use style="stroke:#000000;stroke-width:0.8;" x="335.421818" xlink:href="#m4f25e2d294" y="661.5"/>
      </g>
     </g>
     <g id="text_2">
      <!-- 25 -->
      <defs>
       <path d="M 19.1875 8.296875 
L 53.609375 8.296875 
L 53.609375 0 
L 7.328125 0 
L 7.328125 8.296875 
Q 12.9375 14.109375 22.625 23.890625 
Q 32.328125 33.6875 34.8125 36.53125 
Q 39.546875 41.84375 41.421875 45.53125 
Q 43.3125 49.21875 43.3125 52.78125 
Q 43.3125 58.59375 39.234375 62.25 
Q 35.15625 65.921875 28.609375 65.921875 
Q 23.96875 65.921875 18.8125 64.3125 
Q 13.671875 62.703125 7.8125 59.421875 
L 7.8125 69.390625 
Q 13.765625 71.78125 18.9375 73 
Q 24.125 74.21875 28.421875 74.21875 
Q 39.75 74.21875 46.484375 68.546875 
Q 53.21875 62.890625 53.21875 53.421875 
Q 53.21875 48.921875 51.53125 44.890625 
Q 49.859375 40.875 45.40625 35.40625 
Q 44.1875 33.984375 37.640625 27.21875 
Q 31.109375 20.453125 19.1875 8.296875 
z
" id="DejaVuSans-32"/>
       <path d="M 10.796875 72.90625 
L 49.515625 72.90625 
L 49.515625 64.59375 
L 19.828125 64.59375 
L 19.828125 46.734375 
Q 21.96875 47.46875 24.109375 47.828125 
Q 26.265625 48.1875 28.421875 48.1875 
Q 40.625 48.1875 47.75 41.5 
Q 54.890625 34.8125 54.890625 23.390625 
Q 54.890625 11.625 47.5625 5.09375 
Q 40.234375 -1.421875 26.90625 -1.421875 
Q 22.3125 -1.421875 17.546875 -0.640625 
Q 12.796875 0.140625 7.71875 1.703125 
L 7.71875 11.625 
Q 12.109375 9.234375 16.796875 8.0625 
Q 21.484375 6.890625 26.703125 6.890625 
Q 35.15625 6.890625 40.078125 11.328125 
Q 45.015625 15.765625 45.015625 23.390625 
Q 45.015625 31 40.078125 35.4375 
Q 35.15625 39.890625 26.703125 39.890625 
Q 22.75 39.890625 18.8125 39.015625 
Q 14.890625 38.140625 10.796875 36.28125 
z
" id="DejaVuSans-35"/>
      </defs>
      <g transform="translate(325.878068 679.897656)scale(0.15 -0.15)">
       <use xlink:href="#DejaVuSans-32"/>
       <use x="63.623047" xlink:href="#DejaVuSans-35"/>
      </g>
     </g>
    </g>
    <g id="xtick_3">
     <g id="line2d_3">
      <g>
       <use style="stroke:#000000;stroke-width:0.8;" x="452.728636" xlink:href="#m4f25e2d294" y="661.5"/>
      </g>
     </g>
     <g id="text_3">
      <!-- 50 -->
      <g transform="translate(443.184886 679.897656)scale(0.15 -0.15)">
       <use xlink:href="#DejaVuSans-35"/>
       <use x="63.623047" xlink:href="#DejaVuSans-30"/>
      </g>
     </g>
    </g>
    <g id="xtick_4">
     <g id="line2d_4">
      <g>
       <use style="stroke:#000000;stroke-width:0.8;" x="570.035455" xlink:href="#m4f25e2d294" y="661.5"/>
      </g>
     </g>
     <g id="text_4">
      <!-- 75 -->
      <defs>
       <path d="M 8.203125 72.90625 
L 55.078125 72.90625 
L 55.078125 68.703125 
L 28.609375 0 
L 18.3125 0 
L 43.21875 64.59375 
L 8.203125 64.59375 
z
" id="DejaVuSans-37"/>
      </defs>
      <g transform="translate(560.491705 679.897656)scale(0.15 -0.15)">
       <use xlink:href="#DejaVuSans-37"/>
       <use x="63.623047" xlink:href="#DejaVuSans-35"/>
      </g>
     </g>
    </g>
    <g id="xtick_5">
     <g id="line2d_5">
      <g>
       <use style="stroke:#000000;stroke-width:0.8;" x="687.342273" xlink:href="#m4f25e2d294" y="661.5"/>
      </g>
     </g>
     <g id="text_5">
      <!-- 100 -->
      <defs>
       <path d="M 12.40625 8.296875 
L 28.515625 8.296875 
L 28.515625 63.921875 
L 10.984375 60.40625 
L 10.984375 69.390625 
L 28.421875 72.90625 
L 38.28125 72.90625 
L 38.28125 8.296875 
L 54.390625 8.296875 
L 54.390625 0 
L 12.40625 0 
z
" id="DejaVuSans-31"/>
      </defs>
      <g transform="translate(673.026648 679.897656)scale(0.15 -0.15)">
       <use xlink:href="#DejaVuSans-31"/>
       <use x="63.623047" xlink:href="#DejaVuSans-30"/>
       <use x="127.246094" xlink:href="#DejaVuSans-30"/>
      </g>
     </g>
    </g>
    <g id="xtick_6">
     <g id="line2d_6">
      <g>
       <use style="stroke:#000000;stroke-width:0.8;" x="804.649091" xlink:href="#m4f25e2d294" y="661.5"/>
      </g>
     </g>
     <g id="text_6">
      <!-- 125 -->
      <g transform="translate(790.333466 679.897656)scale(0.15 -0.15)">
       <use xlink:href="#DejaVuSans-31"/>
       <use x="63.623047" xlink:href="#DejaVuSans-32"/>
       <use x="127.246094" xlink:href="#DejaVuSans-35"/>
      </g>
     </g>
    </g>
    <g id="xtick_7">
     <g id="line2d_7">
      <g>
       <use style="stroke:#000000;stroke-width:0.8;" x="921.955909" xlink:href="#m4f25e2d294" y="661.5"/>
      </g>
     </g>
     <g id="text_7">
      <!-- 150 -->
      <g transform="translate(907.640284 679.897656)scale(0.15 -0.15)">
       <use xlink:href="#DejaVuSans-31"/>
       <use x="63.623047" xlink:href="#DejaVuSans-35"/>
       <use x="127.246094" xlink:href="#DejaVuSans-30"/>
      </g>
     </g>
    </g>
    <g id="xtick_8">
     <g id="line2d_8">
      <g>
       <use style="stroke:#000000;stroke-width:0.8;" x="1039.262727" xlink:href="#m4f25e2d294" y="661.5"/>
      </g>
     </g>
     <g id="text_8">
      <!-- 175 -->
      <g transform="translate(1024.947102 679.897656)scale(0.15 -0.15)">
       <use xlink:href="#DejaVuSans-31"/>
       <use x="63.623047" xlink:href="#DejaVuSans-37"/>
       <use x="127.246094" xlink:href="#DejaVuSans-35"/>
      </g>
     </g>
    </g>
    <g id="xtick_9">
     <g id="line2d_9">
      <g>
       <use style="stroke:#000000;stroke-width:0.8;" x="1156.569545" xlink:href="#m4f25e2d294" y="661.5"/>
      </g>
     </g>
     <g id="text_9">
      <!-- 200 -->
      <g transform="translate(1142.25392 679.897656)scale(0.15 -0.15)">
       <use xlink:href="#DejaVuSans-32"/>
       <use x="63.623047" xlink:href="#DejaVuSans-30"/>
       <use x="127.246094" xlink:href="#DejaVuSans-30"/>
      </g>
     </g>
    </g>
    <g id="text_10">
     <!-- 15-Minute Steps -->
     <defs>
      <path d="M 4.890625 31.390625 
L 31.203125 31.390625 
L 31.203125 23.390625 
L 4.890625 23.390625 
z
" id="DejaVuSans-2d"/>
      <path d="M 9.8125 72.90625 
L 24.515625 72.90625 
L 43.109375 23.296875 
L 61.8125 72.90625 
L 76.515625 72.90625 
L 76.515625 0 
L 66.890625 0 
L 66.890625 64.015625 
L 48.09375 14.015625 
L 38.1875 14.015625 
L 19.390625 64.015625 
L 19.390625 0 
L 9.8125 0 
z
" id="DejaVuSans-4d"/>
      <path d="M 9.421875 54.6875 
L 18.40625 54.6875 
L 18.40625 0 
L 9.421875 0 
z
M 9.421875 75.984375 
L 18.40625 75.984375 
L 18.40625 64.59375 
L 9.421875 64.59375 
z
" id="DejaVuSans-69"/>
      <path d="M 54.890625 33.015625 
L 54.890625 0 
L 45.90625 0 
L 45.90625 32.71875 
Q 45.90625 40.484375 42.875 44.328125 
Q 39.84375 48.1875 33.796875 48.1875 
Q 26.515625 48.1875 22.3125 43.546875 
Q 18.109375 38.921875 18.109375 30.90625 
L 18.109375 0 
L 9.078125 0 
L 9.078125 54.6875 
L 18.109375 54.6875 
L 18.109375 46.1875 
Q 21.34375 51.125 25.703125 53.5625 
Q 30.078125 56 35.796875 56 
Q 45.21875 56 50.046875 50.171875 
Q 54.890625 44.34375 54.890625 33.015625 
z
" id="DejaVuSans-6e"/>
      <path d="M 8.5 21.578125 
L 8.5 54.6875 
L 17.484375 54.6875 
L 17.484375 21.921875 
Q 17.484375 14.15625 20.5 10.265625 
Q 23.53125 6.390625 29.59375 6.390625 
Q 36.859375 6.390625 41.078125 11.03125 
Q 45.3125 15.671875 45.3125 23.6875 
L 45.3125 54.6875 
L 54.296875 54.6875 
L 54.296875 0 
L 45.3125 0 
L 45.3125 8.40625 
Q 42.046875 3.421875 37.71875 1 
Q 33.40625 -1.421875 27.6875 -1.421875 
Q 18.265625 -1.421875 13.375 4.4375 
Q 8.5 10.296875 8.5 21.578125 
z
M 31.109375 56 
z
" id="DejaVuSans-75"/>
      <path d="M 18.3125 70.21875 
L 18.3125 54.6875 
L 36.8125 54.6875 
L 36.8125 47.703125 
L 18.3125 47.703125 
L 18.3125 18.015625 
Q 18.3125 11.328125 20.140625 9.421875 
Q 21.96875 7.515625 27.59375 7.515625 
L 36.8125 7.515625 
L 36.8125 0 
L 27.59375 0 
Q 17.1875 0 13.234375 3.875 
Q 9.28125 7.765625 9.28125 18.015625 
L 9.28125 47.703125 
L 2.6875 47.703125 
L 2.6875 54.6875 
L 9.28125 54.6875 
L 9.28125 70.21875 
z
" id="DejaVuSans-74"/>
      <path d="M 56.203125 29.59375 
L 56.203125 25.203125 
L 14.890625 25.203125 
Q 15.484375 15.921875 20.484375 11.0625 
Q 25.484375 6.203125 34.421875 6.203125 
Q 39.59375 6.203125 44.453125 7.46875 
Q 49.3125 8.734375 54.109375 11.28125 
L 54.109375 2.78125 
Q 49.265625 0.734375 44.1875 -0.34375 
Q 39.109375 -1.421875 33.890625 -1.421875 
Q 20.796875 -1.421875 13.15625 6.1875 
Q 5.515625 13.8125 5.515625 26.8125 
Q 5.515625 40.234375 12.765625 48.109375 
Q 20.015625 56 32.328125 56 
Q 43.359375 56 49.78125 48.890625 
Q 56.203125 41.796875 56.203125 29.59375 
z
M 47.21875 32.234375 
Q 47.125 39.59375 43.09375 43.984375 
Q 39.0625 48.390625 32.421875 48.390625 
Q 24.90625 48.390625 20.390625 44.140625 
Q 15.875 39.890625 15.1875 32.171875 
z
" id="DejaVuSans-65"/>
      <path id="DejaVuSans-20"/>
      <path d="M 53.515625 70.515625 
L 53.515625 60.890625 
Q 47.90625 63.578125 42.921875 64.890625 
Q 37.9375 66.21875 33.296875 66.21875 
Q 25.25 66.21875 20.875 63.09375 
Q 16.5 59.96875 16.5 54.203125 
Q 16.5 49.359375 19.40625 46.890625 
Q 22.3125 44.4375 30.421875 42.921875 
L 36.375 41.703125 
Q 47.40625 39.59375 52.65625 34.296875 
Q 57.90625 29 57.90625 20.125 
Q 57.90625 9.515625 50.796875 4.046875 
Q 43.703125 -1.421875 29.984375 -1.421875 
Q 24.8125 -1.421875 18.96875 -0.25 
Q 13.140625 0.921875 6.890625 3.21875 
L 6.890625 13.375 
Q 12.890625 10.015625 18.65625 8.296875 
Q 24.421875 6.59375 29.984375 6.59375 
Q 38.421875 6.59375 43.015625 9.90625 
Q 47.609375 13.234375 47.609375 19.390625 
Q 47.609375 24.75 44.3125 27.78125 
Q 41.015625 30.8125 33.5 32.328125 
L 27.484375 33.5 
Q 16.453125 35.6875 11.515625 40.375 
Q 6.59375 45.0625 6.59375 53.421875 
Q 6.59375 63.09375 13.40625 68.65625 
Q 20.21875 74.21875 32.171875 74.21875 
Q 37.3125 74.21875 42.625 73.28125 
Q 47.953125 72.359375 53.515625 70.515625 
z
" id="DejaVuSans-53"/>
      <path d="M 18.109375 8.203125 
L 18.109375 -20.796875 
L 9.078125 -20.796875 
L 9.078125 54.6875 
L 18.109375 54.6875 
L 18.109375 46.390625 
Q 20.953125 51.265625 25.265625 53.625 
Q 29.59375 56 35.59375 56 
Q 45.5625 56 51.78125 48.09375 
Q 58.015625 40.1875 58.015625 27.296875 
Q 58.015625 14.40625 51.78125 6.484375 
Q 45.5625 -1.421875 35.59375 -1.421875 
Q 29.59375 -1.421875 25.265625 0.953125 
Q 20.953125 3.328125 18.109375 8.203125 
z
M 48.6875 27.296875 
Q 48.6875 37.203125 44.609375 42.84375 
Q 40.53125 48.484375 33.40625 48.484375 
Q 26.265625 48.484375 22.1875 42.84375 
Q 18.109375 37.203125 18.109375 27.296875 
Q 18.109375 17.390625 22.1875 11.75 
Q 26.265625 6.109375 33.40625 6.109375 
Q 40.53125 6.109375 44.609375 11.75 
Q 48.6875 17.390625 48.6875 27.296875 
z
" id="DejaVuSans-70"/>
      <path d="M 44.28125 53.078125 
L 44.28125 44.578125 
Q 40.484375 46.53125 36.375 47.5 
Q 32.28125 48.484375 27.875 48.484375 
Q 21.1875 48.484375 17.84375 46.4375 
Q 14.5 44.390625 14.5 40.28125 
Q 14.5 37.15625 16.890625 35.375 
Q 19.28125 33.59375 26.515625 31.984375 
L 29.59375 31.296875 
Q 39.15625 29.25 43.1875 25.515625 
Q 47.21875 21.78125 47.21875 15.09375 
Q 47.21875 7.46875 41.1875 3.015625 
Q 35.15625 -1.421875 24.609375 -1.421875 
Q 20.21875 -1.421875 15.453125 -0.5625 
Q 10.6875 0.296875 5.421875 2 
L 5.421875 11.28125 
Q 10.40625 8.6875 15.234375 7.390625 
Q 20.0625 6.109375 24.8125 6.109375 
Q 31.15625 6.109375 34.5625 8.28125 
Q 37.984375 10.453125 37.984375 14.40625 
Q 37.984375 18.0625 35.515625 20.015625 
Q 33.0625 21.96875 24.703125 23.78125 
L 21.578125 24.515625 
Q 13.234375 26.265625 9.515625 29.90625 
Q 5.8125 33.546875 5.8125 39.890625 
Q 5.8125 47.609375 11.28125 51.796875 
Q 16.75 56 26.8125 56 
Q 31.78125 56 36.171875 55.265625 
Q 40.578125 54.546875 44.28125 53.078125 
z
" id="DejaVuSans-73"/>
     </defs>
     <g transform="translate(641.827344 694.615625)scale(0.1 -0.1)">
      <use xlink:href="#DejaVuSans-31"/>
      <use x="63.623047" xlink:href="#DejaVuSans-35"/>
      <use x="127.246094" xlink:href="#DejaVuSans-2d"/>
      <use x="163.330078" xlink:href="#DejaVuSans-4d"/>
      <use x="249.609375" xlink:href="#DejaVuSans-69"/>
      <use x="277.392578" xlink:href="#DejaVuSans-6e"/>
      <use x="340.771484" xlink:href="#DejaVuSans-75"/>
      <use x="404.150391" xlink:href="#DejaVuSans-74"/>
      <use x="443.359375" xlink:href="#DejaVuSans-65"/>
      <use x="504.882812" xlink:href="#DejaVuSans-20"/>
      <use x="536.669922" xlink:href="#DejaVuSans-53"/>
      <use x="600.146484" xlink:href="#DejaVuSans-74"/>
      <use x="639.355469" xlink:href="#DejaVuSans-65"/>
      <use x="700.878906" xlink:href="#DejaVuSans-70"/>
      <use x="764.355469" xlink:href="#DejaVuSans-73"/>
     </g>
    </g>
   </g>
   <g id="matplotlib.axis_2">
    <g id="ytick_1">
     <g id="line2d_10">
      <defs>
       <path d="M 0 0 
L -3.5 0 
" id="macdacd026f" style="stroke:#000000;stroke-width:0.8;"/>
      </defs>
      <g>
       <use style="stroke:#000000;stroke-width:0.8;" x="166.5" xlink:href="#macdacd026f" y="655.520687"/>
      </g>
     </g>
     <g id="text_11">
      <!-- 0 -->
      <g transform="translate(149.95625 661.219515)scale(0.15 -0.15)">
       <use xlink:href="#DejaVuSans-30"/>
      </g>
     </g>
    </g>
    <g id="ytick_2">
     <g id="line2d_11">
      <g>
       <use style="stroke:#000000;stroke-width:0.8;" x="166.5" xlink:href="#macdacd026f" y="584.688484"/>
      </g>
     </g>
     <g id="text_12">
      <!-- 500 -->
      <g transform="translate(130.86875 590.387312)scale(0.15 -0.15)">
       <use xlink:href="#DejaVuSans-35"/>
       <use x="63.623047" xlink:href="#DejaVuSans-30"/>
       <use x="127.246094" xlink:href="#DejaVuSans-30"/>
      </g>
     </g>
    </g>
    <g id="ytick_3">
     <g id="line2d_12">
      <g>
       <use style="stroke:#000000;stroke-width:0.8;" x="166.5" xlink:href="#macdacd026f" y="513.856281"/>
      </g>
     </g>
     <g id="text_13">
      <!-- 1000 -->
      <g transform="translate(121.325 519.555109)scale(0.15 -0.15)">
       <use xlink:href="#DejaVuSans-31"/>
       <use x="63.623047" xlink:href="#DejaVuSans-30"/>
       <use x="127.246094" xlink:href="#DejaVuSans-30"/>
       <use x="190.869141" xlink:href="#DejaVuSans-30"/>
      </g>
     </g>
    </g>
    <g id="ytick_4">
     <g id="line2d_13">
      <g>
       <use style="stroke:#000000;stroke-width:0.8;" x="166.5" xlink:href="#macdacd026f" y="443.024077"/>
      </g>
     </g>
     <g id="text_14">
      <!-- 1500 -->
      <g transform="translate(121.325 448.722905)scale(0.15 -0.15)">
       <use xlink:href="#DejaVuSans-31"/>
       <use x="63.623047" xlink:href="#DejaVuSans-35"/>
       <use x="127.246094" xlink:href="#DejaVuSans-30"/>
       <use x="190.869141" xlink:href="#DejaVuSans-30"/>
      </g>
     </g>
    </g>
    <g id="ytick_5">
     <g id="line2d_14">
      <g>
       <use style="stroke:#000000;stroke-width:0.8;" x="166.5" xlink:href="#macdacd026f" y="372.191874"/>
      </g>
     </g>
     <g id="text_15">
      <!-- 2000 -->
      <g transform="translate(121.325 377.890702)scale(0.15 -0.15)">
       <use xlink:href="#DejaVuSans-32"/>
       <use x="63.623047" xlink:href="#DejaVuSans-30"/>
       <use x="127.246094" xlink:href="#DejaVuSans-30"/>
       <use x="190.869141" xlink:href="#DejaVuSans-30"/>
      </g>
     </g>
    </g>
    <g id="ytick_6">
     <g id="line2d_15">
      <g>
       <use style="stroke:#000000;stroke-width:0.8;" x="166.5" xlink:href="#macdacd026f" y="301.359671"/>
      </g>
     </g>
     <g id="text_16">
      <!-- 2500 -->
      <g transform="translate(121.325 307.058499)scale(0.15 -0.15)">
       <use xlink:href="#DejaVuSans-32"/>
       <use x="63.623047" xlink:href="#DejaVuSans-35"/>
       <use x="127.246094" xlink:href="#DejaVuSans-30"/>
       <use x="190.869141" xlink:href="#DejaVuSans-30"/>
      </g>
     </g>
    </g>
    <g id="ytick_7">
     <g id="line2d_16">
      <g>
       <use style="stroke:#000000;stroke-width:0.8;" x="166.5" xlink:href="#macdacd026f" y="230.527468"/>
      </g>
     </g>
     <g id="text_17">
      <!-- 3000 -->
      <defs>
       <path d="M 40.578125 39.3125 
Q 47.65625 37.796875 51.625 33 
Q 55.609375 28.21875 55.609375 21.1875 
Q 55.609375 10.40625 48.1875 4.484375 
Q 40.765625 -1.421875 27.09375 -1.421875 
Q 22.515625 -1.421875 17.65625 -0.515625 
Q 12.796875 0.390625 7.625 2.203125 
L 7.625 11.71875 
Q 11.71875 9.328125 16.59375 8.109375 
Q 21.484375 6.890625 26.8125 6.890625 
Q 36.078125 6.890625 40.9375 10.546875 
Q 45.796875 14.203125 45.796875 21.1875 
Q 45.796875 27.640625 41.28125 31.265625 
Q 36.765625 34.90625 28.71875 34.90625 
L 20.21875 34.90625 
L 20.21875 43.015625 
L 29.109375 43.015625 
Q 36.375 43.015625 40.234375 45.921875 
Q 44.09375 48.828125 44.09375 54.296875 
Q 44.09375 59.90625 40.109375 62.90625 
Q 36.140625 65.921875 28.71875 65.921875 
Q 24.65625 65.921875 20.015625 65.03125 
Q 15.375 64.15625 9.8125 62.3125 
L 9.8125 71.09375 
Q 15.4375 72.65625 20.34375 73.4375 
Q 25.25 74.21875 29.59375 74.21875 
Q 40.828125 74.21875 47.359375 69.109375 
Q 53.90625 64.015625 53.90625 55.328125 
Q 53.90625 49.265625 50.4375 45.09375 
Q 46.96875 40.921875 40.578125 39.3125 
z
" id="DejaVuSans-33"/>
      </defs>
      <g transform="translate(121.325 236.226296)scale(0.15 -0.15)">
       <use xlink:href="#DejaVuSans-33"/>
       <use x="63.623047" xlink:href="#DejaVuSans-30"/>
       <use x="127.246094" xlink:href="#DejaVuSans-30"/>
       <use x="190.869141" xlink:href="#DejaVuSans-30"/>
      </g>
     </g>
    </g>
    <g id="ytick_8">
     <g id="line2d_17">
      <g>
       <use style="stroke:#000000;stroke-width:0.8;" x="166.5" xlink:href="#macdacd026f" y="159.695265"/>
      </g>
     </g>
     <g id="text_18">
      <!-- 3500 -->
      <g transform="translate(121.325 165.394093)scale(0.15 -0.15)">
       <use xlink:href="#DejaVuSans-33"/>
       <use x="63.623047" xlink:href="#DejaVuSans-35"/>
       <use x="127.246094" xlink:href="#DejaVuSans-30"/>
       <use x="190.869141" xlink:href="#DejaVuSans-30"/>
      </g>
     </g>
    </g>
    <g id="text_19">
     <!-- Bandwidth (kbps) -->
     <defs>
      <path d="M 19.671875 34.8125 
L 19.671875 8.109375 
L 35.5 8.109375 
Q 43.453125 8.109375 47.28125 11.40625 
Q 51.125 14.703125 51.125 21.484375 
Q 51.125 28.328125 47.28125 31.5625 
Q 43.453125 34.8125 35.5 34.8125 
z
M 19.671875 64.796875 
L 19.671875 42.828125 
L 34.28125 42.828125 
Q 41.5 42.828125 45.03125 45.53125 
Q 48.578125 48.25 48.578125 53.8125 
Q 48.578125 59.328125 45.03125 62.0625 
Q 41.5 64.796875 34.28125 64.796875 
z
M 9.8125 72.90625 
L 35.015625 72.90625 
Q 46.296875 72.90625 52.390625 68.21875 
Q 58.5 63.53125 58.5 54.890625 
Q 58.5 48.1875 55.375 44.234375 
Q 52.25 40.28125 46.1875 39.3125 
Q 53.46875 37.75 57.5 32.78125 
Q 61.53125 27.828125 61.53125 20.40625 
Q 61.53125 10.640625 54.890625 5.3125 
Q 48.25 0 35.984375 0 
L 9.8125 0 
z
" id="DejaVuSans-42"/>
      <path d="M 34.28125 27.484375 
Q 23.390625 27.484375 19.1875 25 
Q 14.984375 22.515625 14.984375 16.5 
Q 14.984375 11.71875 18.140625 8.90625 
Q 21.296875 6.109375 26.703125 6.109375 
Q 34.1875 6.109375 38.703125 11.40625 
Q 43.21875 16.703125 43.21875 25.484375 
L 43.21875 27.484375 
z
M 52.203125 31.203125 
L 52.203125 0 
L 43.21875 0 
L 43.21875 8.296875 
Q 40.140625 3.328125 35.546875 0.953125 
Q 30.953125 -1.421875 24.3125 -1.421875 
Q 15.921875 -1.421875 10.953125 3.296875 
Q 6 8.015625 6 15.921875 
Q 6 25.140625 12.171875 29.828125 
Q 18.359375 34.515625 30.609375 34.515625 
L 43.21875 34.515625 
L 43.21875 35.40625 
Q 43.21875 41.609375 39.140625 45 
Q 35.0625 48.390625 27.6875 48.390625 
Q 23 48.390625 18.546875 47.265625 
Q 14.109375 46.140625 10.015625 43.890625 
L 10.015625 52.203125 
Q 14.9375 54.109375 19.578125 55.046875 
Q 24.21875 56 28.609375 56 
Q 40.484375 56 46.34375 49.84375 
Q 52.203125 43.703125 52.203125 31.203125 
z
" id="DejaVuSans-61"/>
      <path d="M 45.40625 46.390625 
L 45.40625 75.984375 
L 54.390625 75.984375 
L 54.390625 0 
L 45.40625 0 
L 45.40625 8.203125 
Q 42.578125 3.328125 38.25 0.953125 
Q 33.9375 -1.421875 27.875 -1.421875 
Q 17.96875 -1.421875 11.734375 6.484375 
Q 5.515625 14.40625 5.515625 27.296875 
Q 5.515625 40.1875 11.734375 48.09375 
Q 17.96875 56 27.875 56 
Q 33.9375 56 38.25 53.625 
Q 42.578125 51.265625 45.40625 46.390625 
z
M 14.796875 27.296875 
Q 14.796875 17.390625 18.875 11.75 
Q 22.953125 6.109375 30.078125 6.109375 
Q 37.203125 6.109375 41.296875 11.75 
Q 45.40625 17.390625 45.40625 27.296875 
Q 45.40625 37.203125 41.296875 42.84375 
Q 37.203125 48.484375 30.078125 48.484375 
Q 22.953125 48.484375 18.875 42.84375 
Q 14.796875 37.203125 14.796875 27.296875 
z
" id="DejaVuSans-64"/>
      <path d="M 4.203125 54.6875 
L 13.1875 54.6875 
L 24.421875 12.015625 
L 35.59375 54.6875 
L 46.1875 54.6875 
L 57.421875 12.015625 
L 68.609375 54.6875 
L 77.59375 54.6875 
L 63.28125 0 
L 52.6875 0 
L 40.921875 44.828125 
L 29.109375 0 
L 18.5 0 
z
" id="DejaVuSans-77"/>
      <path d="M 54.890625 33.015625 
L 54.890625 0 
L 45.90625 0 
L 45.90625 32.71875 
Q 45.90625 40.484375 42.875 44.328125 
Q 39.84375 48.1875 33.796875 48.1875 
Q 26.515625 48.1875 22.3125 43.546875 
Q 18.109375 38.921875 18.109375 30.90625 
L 18.109375 0 
L 9.078125 0 
L 9.078125 75.984375 
L 18.109375 75.984375 
L 18.109375 46.1875 
Q 21.34375 51.125 25.703125 53.5625 
Q 30.078125 56 35.796875 56 
Q 45.21875 56 50.046875 50.171875 
Q 54.890625 44.34375 54.890625 33.015625 
z
" id="DejaVuSans-68"/>
      <path d="M 31 75.875 
Q 24.46875 64.65625 21.28125 53.65625 
Q 18.109375 42.671875 18.109375 31.390625 
Q 18.109375 20.125 21.3125 9.0625 
Q 24.515625 -2 31 -13.1875 
L 23.1875 -13.1875 
Q 15.875 -1.703125 12.234375 9.375 
Q 8.59375 20.453125 8.59375 31.390625 
Q 8.59375 42.28125 12.203125 53.3125 
Q 15.828125 64.359375 23.1875 75.875 
z
" id="DejaVuSans-28"/>
      <path d="M 9.078125 75.984375 
L 18.109375 75.984375 
L 18.109375 31.109375 
L 44.921875 54.6875 
L 56.390625 54.6875 
L 27.390625 29.109375 
L 57.625 0 
L 45.90625 0 
L 18.109375 26.703125 
L 18.109375 0 
L 9.078125 0 
z
" id="DejaVuSans-6b"/>
      <path d="M 48.6875 27.296875 
Q 48.6875 37.203125 44.609375 42.84375 
Q 40.53125 48.484375 33.40625 48.484375 
Q 26.265625 48.484375 22.1875 42.84375 
Q 18.109375 37.203125 18.109375 27.296875 
Q 18.109375 17.390625 22.1875 11.75 
Q 26.265625 6.109375 33.40625 6.109375 
Q 40.53125 6.109375 44.609375 11.75 
Q 48.6875 17.390625 48.6875 27.296875 
z
M 18.109375 46.390625 
Q 20.953125 51.265625 25.265625 53.625 
Q 29.59375 56 35.59375 56 
Q 45.5625 56 51.78125 48.09375 
Q 58.015625 40.1875 58.015625 27.296875 
Q 58.015625 14.40625 51.78125 6.484375 
Q 45.5625 -1.421875 35.59375 -1.421875 
Q 29.59375 -1.421875 25.265625 0.953125 
Q 20.953125 3.328125 18.109375 8.203125 
L 18.109375 0 
L 9.078125 0 
L 9.078125 75.984375 
L 18.109375 75.984375 
z
" id="DejaVuSans-62"/>
      <path d="M 8.015625 75.875 
L 15.828125 75.875 
Q 23.140625 64.359375 26.78125 53.3125 
Q 30.421875 42.28125 30.421875 31.390625 
Q 30.421875 20.453125 26.78125 9.375 
Q 23.140625 -1.703125 15.828125 -13.1875 
L 8.015625 -13.1875 
Q 14.5 -2 17.703125 9.0625 
Q 20.90625 20.125 20.90625 31.390625 
Q 20.90625 42.671875 17.703125 53.65625 
Q 14.5 64.65625 8.015625 75.875 
z
" id="DejaVuSans-29"/>
     </defs>
     <g transform="translate(115.245312 420.067813)rotate(-90)scale(0.1 -0.1)">
      <use xlink:href="#DejaVuSans-42"/>
      <use x="68.603516" xlink:href="#DejaVuSans-61"/>
      <use x="129.882812" xlink:href="#DejaVuSans-6e"/>
      <use x="193.261719" xlink:href="#DejaVuSans-64"/>
      <use x="256.738281" xlink:href="#DejaVuSans-77"/>
      <use x="338.525391" xlink:href="#DejaVuSans-69"/>
      <use x="366.308594" xlink:href="#DejaVuSans-64"/>
      <use x="429.785156" xlink:href="#DejaVuSans-74"/>
      <use x="468.994141" xlink:href="#DejaVuSans-68"/>
      <use x="532.373047" xlink:href="#DejaVuSans-20"/>
      <use x="564.160156" xlink:href="#DejaVuSans-28"/>
      <use x="603.173828" xlink:href="#DejaVuSans-6b"/>
      <use x="661.083984" xlink:href="#DejaVuSans-62"/>
      <use x="724.560547" xlink:href="#DejaVuSans-70"/>
      <use x="788.037109" xlink:href="#DejaVuSans-73"/>
      <use x="840.136719" xlink:href="#DejaVuSans-29"/>
     </g>
    </g>
   </g>
   <g id="line2d_18">
    <path clip-path="url(#pd276c2d792)" d="M 218.115 272.107544 
L 222.807273 254.54494 
L 227.499545 116.664545 
L 232.191818 596.537918 
L 236.884091 613.814686 
L 241.576364 619.277265 
L 246.268636 354.719935 
L 250.960909 252.672448 
L 255.653182 256.529502 
L 260.345455 618.793722 
L 265.037727 226.521822 
L 269.73 617.657885 
L 274.422273 592.752645 
L 279.114545 603.108639 
L 283.806818 598.182486 
L 288.499091 584.221303 
L 293.191364 591.581562 
L 297.883636 585.663135 
L 302.575909 593.126639 
L 307.268182 469.662029 
L 311.960455 365.714354 
L 316.652727 508.251413 
L 321.345 598.444409 
L 326.037273 590.260612 
L 330.729545 272.621318 
L 335.421818 594.795134 
L 340.114091 596.79103 
L 344.806364 603.854105 
L 349.498636 617.715812 
L 354.190909 613.873873 
L 358.883182 595.366835 
L 363.575455 607.216269 
L 368.267727 562.370985 
L 372.96 592.089032 
L 377.652273 616.826783 
L 382.344545 596.894289 
L 387.036818 614.205056 
L 391.729091 612.197827 
L 396.421364 619.973631 
L 401.113636 620.1537 
L 405.805909 606.24414 
L 410.498182 620.855095 
L 415.190455 608.404989 
L 419.882727 617.796405 
L 424.575 586.354457 
L 429.267273 606.152214 
L 433.959545 569.633014 
L 438.651818 577.125489 
L 443.344091 560.671012 
L 448.036364 612.531518 
L 452.728636 594.778772 
L 457.420909 614.074087 
L 462.113182 626.812551 
L 466.805455 623.024756 
L 471.497727 620.894123 
L 476.19 621.117018 
L 480.882273 615.056289 
L 485.574545 628.197717 
L 490.266818 623.43275 
L 494.959091 614.54379 
L 499.651364 631.025962 
L 504.343636 629.892647 
L 509.035909 627.885418 
L 513.728182 609.773793 
L 518.420455 609.700751 
L 523.112727 635.555455 
L 527.805 621.130859 
L 532.497273 605.041565 
L 537.189545 631.023454 
L 541.881818 623.067581 
L 546.574091 611.155177 
L 551.266364 606.396514 
L 555.958636 617.088706 
L 560.650909 624.074971 
L 565.343182 619.72807 
L 570.035455 611.083396 
L 574.727727 607.177241 
L 579.42 604.529051 
L 584.112273 595.933493 
L 588.804545 625.638946 
L 593.496818 616.144272 
L 598.189091 629.715099 
L 602.881364 605.016377 
L 607.573636 615.507108 
L 612.265909 615.625468 
L 616.958182 611.316349 
L 621.650455 621.817152 
L 626.342727 608.787809 
L 631.035 610.690518 
L 635.727273 593.403678 
L 640.419545 590.741648 
L 645.111818 593.064944 
L 649.804091 593.574936 
L 654.496364 617.582335 
L 659.188636 621.507375 
L 663.880909 616.825522 
L 668.573182 629.945544 
L 673.265455 614.062754 
L 677.957727 595.485196 
L 682.65 604.103435 
L 687.342273 626.954853 
L 692.034545 603.9158 
L 696.726818 623.451648 
L 701.419091 617.353151 
L 706.111364 606.591685 
L 710.803636 606.514875 
L 715.495909 581.628532 
L 720.188182 562.308029 
L 724.880455 585.790321 
L 729.572727 567.322312 
L 734.265 569.980573 
L 738.957273 596.859029 
L 743.649545 541.149033 
L 748.341818 524.869583 
L 753.034091 543.557952 
L 757.726364 605.200229 
L 762.418636 593.193391 
L 767.110909 543.050481 
L 771.803182 528.717826 
L 776.495455 539.546016 
L 781.187727 525.363213 
L 785.88 560.80072 
L 790.572273 558.561785 
L 795.264545 555.826727 
L 799.956818 589.204122 
L 804.649091 591.722589 
L 809.341364 596.906883 
L 814.033636 610.052079 
L 818.725909 599.990761 
L 823.418182 614.440531 
L 828.110455 608.751288 
L 832.802727 619.529116 
L 837.495 583.130799 
L 842.187273 602.194422 
L 846.879545 614.461936 
L 851.571818 610.471406 
L 856.264091 616.087606 
L 860.956364 605.729105 
L 865.648636 612.049235 
L 870.340909 591.376304 
L 875.033182 621.659749 
L 879.725455 594.062262 
L 884.417727 604.467356 
L 889.11 574.516356 
L 893.802273 608.140559 
L 898.494545 578.504365 
L 903.186818 598.828476 
L 907.879091 613.644688 
L 912.571364 605.323633 
L 917.263636 599.609202 
L 921.955909 599.879951 
L 926.648182 612.970989 
L 931.340455 614.609267 
L 936.032727 600.995629 
L 940.725 598.817142 
L 945.417273 605.294677 
L 950.109545 610.350523 
L 954.801818 602.140278 
L 959.494091 602.102496 
L 964.186364 614.55763 
L 968.878636 611.940933 
L 973.570909 603.398258 
L 978.263182 584.838336 
L 982.955455 602.558344 
L 987.647727 603.764701 
L 992.34 608.512031 
L 997.032273 586.442601 
L 1001.724545 615.55118 
L 1006.416818 620.498724 
L 1011.109091 577.446599 
L 1015.801364 608.964096 
L 1020.493636 610.453783 
L 1025.185909 607.271674 
L 1029.878182 603.463735 
L 1034.570455 614.761627 
L 1039.262727 616.984186 
L 1043.955 624.459037 
L 1048.647273 623.751339 
L 1053.339545 619.957254 
L 1058.031818 614.560152 
L 1062.724091 616.797826 
L 1067.416364 611.808718 
L 1072.108636 613.008771 
L 1076.800909 598.201384 
L 1081.493182 613.190101 
L 1086.185455 613.747947 
L 1090.877727 626.948549 
L 1095.57 601.924948 
L 1100.262273 587.868056 
L 1104.954545 614.245345 
L 1109.646818 616.261386 
L 1114.339091 616.48931 
L 1119.031364 602.343014 
L 1123.723636 595.444906 
L 1128.415909 611.305016 
L 1133.108182 602.384578 
L 1137.800455 618.515422 
L 1142.492727 594.306548 
L 1147.185 585.410023 
L 1151.877273 537.060287 
L 1151.877273 537.060287 
" style="fill:none;stroke:#1f77b4;stroke-linecap:square;stroke-width:1.5;"/>
   </g>
   <g id="line2d_19">
    <path clip-path="url(#pd276c2d792)" d="M 213.422727 530.185308 
L 218.115 474.756658 
L 222.807273 432.20855 
L 227.499545 364.72229 
L 232.191818 454.794855 
L 236.884091 511.194363 
L 241.576364 547.303411 
L 246.268636 503.068607 
L 250.960909 450.972982 
L 255.653182 417.064923 
L 260.345455 488.529283 
L 265.037727 434.860443 
L 269.73 497.382315 
L 274.422273 530.178838 
L 279.114545 553.452134 
L 283.806818 566.949569 
L 288.499091 572.14379 
L 293.191364 576.909611 
L 297.883636 578.800283 
L 302.575909 581.485789 
L 307.268182 553.706976 
L 311.960455 511.337423 
L 316.652727 518.645332 
L 321.345 545.138004 
L 326.037273 559.378862 
L 330.729545 493.158911 
L 335.421818 527.755354 
L 340.114091 549.565913 
L 344.806364 565.570689 
L 349.498636 579.024983 
L 354.190909 586.257772 
L 358.883182 586.913586 
L 363.575455 589.758294 
L 368.267727 581.335796 
L 372.96 582.758413 
L 377.652273 589.990196 
L 382.344545 589.126011 
L 387.036818 593.110244 
L 391.729091 594.934107 
L 396.421364 598.091012 
L 401.113636 600.00418 
L 405.805909 598.084316 
L 410.498182 600.178439 
L 415.190455 598.7033 
L 419.882727 599.860129 
L 424.575 593.936708 
L 429.267273 593.592898 
L 433.959545 585.74863 
L 438.651818 581.637224 
L 443.344091 575.560974 
L 448.036364 584.053308 
L 452.728636 585.19584 
L 457.420909 590.494632 
L 462.113182 596.866918 
L 466.805455 599.969662 
L 471.497727 601.401948 
L 476.19 602.369787 
L 480.882273 601.519943 
L 485.574545 604.145264 
L 490.266818 604.640761 
L 494.959091 602.842993 
L 499.651364 605.663179 
L 504.343636 607.156367 
L 509.035909 607.627659 
L 513.728182 603.580151 
L 518.420455 601.037436 
L 523.112727 605.656488 
L 527.805 605.080142 
L 532.497273 600.868931 
L 537.189545 604.741045 
L 541.881818 604.811581 
L 546.574091 602.169704 
L 551.266364 599.384329 
L 555.958636 600.228898 
L 560.650909 602.443412 
L 565.343182 602.77074 
L 570.035455 600.900908 
L 574.727727 598.804124 
L 579.42 596.865611 
L 584.112273 593.598772 
L 588.804545 598.731623 
L 593.496818 599.666964 
L 598.189091 603.484481 
L 602.881364 599.835397 
L 607.573636 600.28318 
L 612.265909 600.324735 
L 616.958182 599.66395 
L 621.650455 601.554025 
L 626.342727 599.727387 
L 631.035 598.918347 
L 640.419545 590.743876 
L 645.111818 589.232953 
L 649.804091 588.313879 
L 654.496364 593.58633 
L 659.188636 597.885601 
L 663.880909 599.277913 
L 668.573182 603.47702 
L 673.265455 602.072902 
L 677.957727 596.871267 
L 682.65 595.561511 
L 687.342273 600.512902 
L 692.034545 597.831276 
L 696.726818 600.988641 
L 701.419091 601.387475 
L 706.111364 599.165407 
L 710.803636 597.625673 
L 715.495909 591.287215 
L 720.188182 581.747545 
L 724.880455 582.007036 
L 729.572727 577.510918 
L 734.265 575.755828 
L 738.957273 580.677188 
L 748.341818 560.171354 
L 753.034091 558.237553 
L 757.726364 572.039992 
L 762.418636 577.7617 
L 767.110909 569.066192 
L 771.803182 560.089681 
L 776.495455 557.445908 
L 781.187727 552.058591 
L 785.88 557.303454 
L 790.572273 560.26664 
L 795.264545 561.10784 
L 799.956818 570.122013 
L 804.649091 575.900841 
L 809.341364 581.168838 
L 814.033636 587.172121 
L 818.725909 588.910012 
L 823.418182 593.058263 
L 828.110455 594.679669 
L 832.802727 597.898413 
L 837.495 591.408406 
L 842.187273 591.719382 
L 846.879545 595.212493 
L 851.571818 596.082707 
L 856.264091 598.319079 
L 860.956364 596.856495 
L 865.648636 597.814605 
L 870.340909 593.058092 
L 875.033182 597.826154 
L 879.725455 593.723967 
L 884.417727 594.057799 
L 889.11 587.21292 
L 893.802273 590.453796 
L 898.494545 587.38725 
L 903.186818 587.580921 
L 907.879091 592.373703 
L 912.571364 593.311482 
L 917.263636 592.504778 
L 921.955909 592.075008 
L 926.648182 595.032317 
L 931.340455 597.225924 
L 936.032727 594.897913 
L 940.725 593.58083 
L 945.417273 594.075691 
L 950.109545 595.617179 
L 954.801818 594.574921 
L 959.494091 593.998428 
L 964.186364 596.56057 
L 968.878636 597.606934 
L 973.570909 596.091494 
L 978.263182 590.675202 
L 982.955455 591.789656 
L 987.647727 592.243513 
L 992.34 594.428051 
L 997.032273 589.949063 
L 1001.724545 595.287096 
L 1006.416818 598.371099 
L 1011.109091 590.286057 
L 1015.801364 593.063344 
L 1020.493636 595.025939 
L 1025.185909 595.594972 
L 1029.878182 594.89021 
L 1034.570455 597.346541 
L 1039.262727 599.25308 
L 1043.955 602.447195 
L 1048.647273 604.061621 
L 1053.339545 604.321064 
L 1058.031818 602.997473 
L 1062.724091 602.889405 
L 1067.416364 601.452239 
L 1072.108636 601.019381 
L 1076.800909 596.982314 
L 1081.493182 598.314754 
L 1086.185455 599.115486 
L 1090.877727 603.018187 
L 1095.57 599.114957 
L 1100.262273 593.456685 
L 1104.954545 596.259493 
L 1109.646818 598.666159 
L 1114.339091 600.016988 
L 1119.031364 597.583525 
L 1123.723636 594.193892 
L 1128.415909 596.211657 
L 1133.108182 595.111591 
L 1137.800455 598.46425 
L 1142.492727 594.51912 
L 1147.185 590.142611 
L 1147.185 590.142611 
" style="fill:none;stroke:#ff0000;stroke-linecap:square;stroke-width:1.5;"/>
   </g>
   <g id="line2d_20">
    <path clip-path="url(#pd276c2d792)" d="M 222.807273 407.516651 
L 227.499545 361.344483 
L 232.191818 490.752531 
L 236.884091 591.905388 
L 241.576364 598.060565 
L 246.268636 502.786708 
L 250.960909 416.989386 
L 255.653182 406.075399 
L 260.345455 518.041528 
L 265.037727 451.104033 
L 269.73 512.57786 
L 274.422273 590.310107 
L 279.114545 587.461557 
L 283.806818 588.446992 
L 288.499091 582.565696 
L 293.191364 581.529222 
L 297.883636 581.399317 
L 302.575909 582.399969 
L 307.268182 540.924186 
L 311.960455 476.113351 
L 316.652727 505.126436 
L 321.345 565.134507 
L 326.037273 584.647668 
L 330.729545 464.100774 
L 335.421818 514.147651 
L 340.114091 585.897054 
L 344.806364 588.722478 
L 349.498636 595.022545 
L 354.190909 597.297364 
L 358.883182 590.226923 
L 363.575455 589.463285 
L 368.267727 577.403895 
L 372.96 576.269602 
L 377.652273 591.754082 
L 382.344545 591.480312 
L 387.036818 592.122056 
L 391.729091 595.858057 
L 401.113636 599.914126 
L 405.805909 595.416087 
L 410.498182 596.64367 
L 415.190455 596.304896 
L 419.882727 596.204709 
L 424.575 588.200614 
L 429.267273 586.847439 
L 433.959545 579.624154 
L 438.651818 573.10741 
L 443.344091 569.399804 
L 448.036364 582.480148 
L 452.728636 589.692724 
L 457.420909 591.544552 
L 462.113182 600.555809 
L 466.805455 602.5901 
L 471.497727 600.932607 
L 476.19 600.460983 
L 480.882273 598.548591 
L 485.574545 601.250963 
L 490.266818 603.076258 
L 494.959091 598.971129 
L 499.651364 602.024752 
L 504.343636 605.883084 
L 509.035909 604.947108 
L 513.728182 598.542033 
L 518.420455 593.917789 
L 523.112727 602.227175 
L 527.805 604.211558 
L 532.497273 595.267678 
L 537.189545 599.595986 
L 541.881818 603.680766 
L 546.574091 597.769731 
L 551.266364 593.185101 
L 555.958636 595.465181 
L 560.650909 600.445117 
L 565.343182 600.822515 
L 570.035455 596.897043 
L 574.727727 593.423153 
L 579.42 591.565208 
L 584.112273 588.060212 
L 588.804545 595.558378 
L 593.496818 600.055553 
L 598.189091 602.015046 
L 602.881364 597.43876 
L 607.573636 594.602191 
L 612.265909 597.306127 
L 616.958182 595.930835 
L 621.650455 598.245082 
L 626.342727 596.675062 
L 631.035 593.991254 
L 640.419545 583.545251 
L 645.111818 583.649368 
L 649.804091 584.399928 
L 654.496364 592.373678 
L 659.188636 599.74232 
L 663.880909 599.224372 
L 668.573182 602.263032 
L 673.265455 600.473512 
L 677.957727 590.313946 
L 682.65 588.475227 
L 687.342273 598.057993 
L 692.034545 596.373735 
L 696.726818 596.887083 
L 701.419091 599.891671 
L 706.111364 594.820009 
L 710.803636 592.068949 
L 715.495909 583.778996 
L 720.188182 571.061974 
L 724.880455 574.180848 
L 729.572727 573.790743 
L 734.265 570.145963 
L 738.957273 579.719067 
L 743.649545 567.50257 
L 748.341818 548.457353 
L 753.034091 551.025496 
L 757.726364 575.885291 
L 762.418636 587.319357 
L 767.110909 567.268759 
L 771.803182 550.236157 
L 776.495455 550.569557 
L 781.187727 548.251264 
L 785.88 556.935394 
L 790.572273 564.701334 
L 795.264545 563.230831 
L 799.956818 573.709155 
L 804.649091 582.820284 
L 809.341364 585.164379 
L 814.033636 590.776413 
L 818.725909 590.795695 
L 823.418182 592.982246 
L 828.110455 594.790317 
L 832.802727 596.853322 
L 837.495 587.55002 
L 842.187273 584.746744 
L 846.879545 593.547511 
L 851.571818 595.35905 
L 856.264091 596.175855 
L 860.956364 594.215359 
L 865.648636 593.659025 
L 870.340909 588.437117 
L 875.033182 593.128108 
L 879.725455 591.75764 
L 884.417727 588.23606 
L 889.11 580.864401 
L 893.802273 584.523988 
L 898.494545 583.131636 
L 903.186818 582.487878 
L 907.879091 592.429846 
L 912.571364 593.46297 
L 917.263636 589.476488 
L 921.955909 588.126063 
L 926.648182 592.477311 
L 931.340455 596.330576 
L 940.725 588.12458 
L 945.417273 589.70524 
L 950.109545 592.995189 
L 954.801818 591.580867 
L 959.494091 589.495584 
L 964.186364 593.555258 
L 968.878636 595.863712 
L 973.570909 592.39775 
L 978.263182 584.077305 
L 982.955455 585.293744 
L 987.647727 590.147444 
L 992.34 592.007589 
L 997.032273 585.897196 
L 1001.724545 589.916397 
L 1006.416818 598.898261 
L 1011.109091 585.868187 
L 1015.801364 585.524873 
L 1020.493636 593.958635 
L 1025.185909 593.294648 
L 1029.878182 591.238763 
L 1034.570455 593.966521 
L 1039.262727 597.558073 
L 1043.955 600.542178 
L 1048.647273 602.22341 
L 1053.339545 600.814292 
L 1058.031818 598.091533 
L 1062.724091 597.446283 
L 1067.416364 596.389627 
L 1072.108636 595.514021 
L 1076.800909 590.949918 
L 1081.493182 592.123651 
L 1086.185455 596.105784 
L 1090.877727 600.516161 
L 1095.57 595.712774 
L 1100.262273 584.722188 
L 1104.954545 589.854544 
L 1109.646818 597.191907 
L 1114.339091 597.778979 
L 1119.031364 593.200626 
L 1123.723636 587.348275 
L 1128.415909 590.814626 
L 1133.108182 591.902733 
L 1137.800455 594.907905 
L 1142.492727 591.045133 
L 1147.185 581.995018 
L 1151.877273 563.284699 
L 1151.877273 563.284699 
" style="fill:none;stroke:#008000;stroke-linecap:square;stroke-width:1.5;"/>
   </g>
   <g id="patch_3">
    <path d="M 166.5 661.5 
L 166.5 90.72 
" style="fill:none;stroke:#000000;stroke-linecap:square;stroke-linejoin:miter;stroke-width:0.8;"/>
   </g>
   <g id="patch_4">
    <path d="M 1198.8 661.5 
L 1198.8 90.72 
" style="fill:none;stroke:#000000;stroke-linecap:square;stroke-linejoin:miter;stroke-width:0.8;"/>
   </g>
   <g id="patch_5">
    <path d="M 166.5 661.5 
L 1198.8 661.5 
" style="fill:none;stroke:#000000;stroke-linecap:square;stroke-linejoin:miter;stroke-width:0.8;"/>
   </g>
   <g id="patch_6">
    <path d="M 166.5 90.72 
L 1198.8 90.72 
" style="fill:none;stroke:#000000;stroke-linecap:square;stroke-linejoin:miter;stroke-width:0.8;"/>
   </g>
   <g id="legend_1">
    <g id="patch_7">
     <path d="M 1069.135937 142.754375 
L 1191.8 142.754375 
Q 1193.8 142.754375 1193.8 140.754375 
L 1193.8 97.72 
Q 1193.8 95.72 1191.8 95.72 
L 1069.135937 95.72 
Q 1067.135937 95.72 1067.135937 97.72 
L 1067.135937 140.754375 
Q 1067.135937 142.754375 1069.135937 142.754375 
z
" style="fill:#ffffff;opacity:0.8;stroke:#cccccc;stroke-linejoin:miter;"/>
    </g>
    <g id="line2d_21">
     <path d="M 1071.135937 103.818437 
L 1091.135937 103.818437 
" style="fill:none;stroke:#1f77b4;stroke-linecap:square;stroke-width:1.5;"/>
    </g>
    <g id="line2d_22"/>
    <g id="text_20">
     <!-- Real values -->
     <defs>
      <path d="M 44.390625 34.1875 
Q 47.5625 33.109375 50.5625 29.59375 
Q 53.5625 26.078125 56.59375 19.921875 
L 66.609375 0 
L 56 0 
L 46.6875 18.703125 
Q 43.0625 26.03125 39.671875 28.421875 
Q 36.28125 30.8125 30.421875 30.8125 
L 19.671875 30.8125 
L 19.671875 0 
L 9.8125 0 
L 9.8125 72.90625 
L 32.078125 72.90625 
Q 44.578125 72.90625 50.734375 67.671875 
Q 56.890625 62.453125 56.890625 51.90625 
Q 56.890625 45.015625 53.6875 40.46875 
Q 50.484375 35.9375 44.390625 34.1875 
z
M 19.671875 64.796875 
L 19.671875 38.921875 
L 32.078125 38.921875 
Q 39.203125 38.921875 42.84375 42.21875 
Q 46.484375 45.515625 46.484375 51.90625 
Q 46.484375 58.296875 42.84375 61.546875 
Q 39.203125 64.796875 32.078125 64.796875 
z
" id="DejaVuSans-52"/>
      <path d="M 9.421875 75.984375 
L 18.40625 75.984375 
L 18.40625 0 
L 9.421875 0 
z
" id="DejaVuSans-6c"/>
      <path d="M 2.984375 54.6875 
L 12.5 54.6875 
L 29.59375 8.796875 
L 46.6875 54.6875 
L 56.203125 54.6875 
L 35.6875 0 
L 23.484375 0 
z
" id="DejaVuSans-76"/>
     </defs>
     <g transform="translate(1099.135937 107.318437)scale(0.1 -0.1)">
      <use xlink:href="#DejaVuSans-52"/>
      <use x="69.419922" xlink:href="#DejaVuSans-65"/>
      <use x="130.943359" xlink:href="#DejaVuSans-61"/>
      <use x="192.222656" xlink:href="#DejaVuSans-6c"/>
      <use x="220.005859" xlink:href="#DejaVuSans-20"/>
      <use x="251.792969" xlink:href="#DejaVuSans-76"/>
      <use x="310.972656" xlink:href="#DejaVuSans-61"/>
      <use x="372.251953" xlink:href="#DejaVuSans-6c"/>
      <use x="400.035156" xlink:href="#DejaVuSans-75"/>
      <use x="463.414062" xlink:href="#DejaVuSans-65"/>
      <use x="524.9375" xlink:href="#DejaVuSans-73"/>
     </g>
    </g>
    <g id="line2d_23">
     <path d="M 1071.135937 118.496562 
L 1091.135937 118.496562 
" style="fill:none;stroke:#ff0000;stroke-linecap:square;stroke-width:1.5;"/>
    </g>
    <g id="line2d_24"/>
    <g id="text_21">
     <!-- ARIMA Predictions -->
     <defs>
      <path d="M 34.1875 63.1875 
L 20.796875 26.90625 
L 47.609375 26.90625 
z
M 28.609375 72.90625 
L 39.796875 72.90625 
L 67.578125 0 
L 57.328125 0 
L 50.6875 18.703125 
L 17.828125 18.703125 
L 11.1875 0 
L 0.78125 0 
z
" id="DejaVuSans-41"/>
      <path d="M 9.8125 72.90625 
L 19.671875 72.90625 
L 19.671875 0 
L 9.8125 0 
z
" id="DejaVuSans-49"/>
      <path d="M 19.671875 64.796875 
L 19.671875 37.40625 
L 32.078125 37.40625 
Q 38.96875 37.40625 42.71875 40.96875 
Q 46.484375 44.53125 46.484375 51.125 
Q 46.484375 57.671875 42.71875 61.234375 
Q 38.96875 64.796875 32.078125 64.796875 
z
M 9.8125 72.90625 
L 32.078125 72.90625 
Q 44.34375 72.90625 50.609375 67.359375 
Q 56.890625 61.8125 56.890625 51.125 
Q 56.890625 40.328125 50.609375 34.8125 
Q 44.34375 29.296875 32.078125 29.296875 
L 19.671875 29.296875 
L 19.671875 0 
L 9.8125 0 
z
" id="DejaVuSans-50"/>
      <path d="M 41.109375 46.296875 
Q 39.59375 47.171875 37.8125 47.578125 
Q 36.03125 48 33.890625 48 
Q 26.265625 48 22.1875 43.046875 
Q 18.109375 38.09375 18.109375 28.8125 
L 18.109375 0 
L 9.078125 0 
L 9.078125 54.6875 
L 18.109375 54.6875 
L 18.109375 46.1875 
Q 20.953125 51.171875 25.484375 53.578125 
Q 30.03125 56 36.53125 56 
Q 37.453125 56 38.578125 55.875 
Q 39.703125 55.765625 41.0625 55.515625 
z
" id="DejaVuSans-72"/>
      <path d="M 48.78125 52.59375 
L 48.78125 44.1875 
Q 44.96875 46.296875 41.140625 47.34375 
Q 37.3125 48.390625 33.40625 48.390625 
Q 24.65625 48.390625 19.8125 42.84375 
Q 14.984375 37.3125 14.984375 27.296875 
Q 14.984375 17.28125 19.8125 11.734375 
Q 24.65625 6.203125 33.40625 6.203125 
Q 37.3125 6.203125 41.140625 7.25 
Q 44.96875 8.296875 48.78125 10.40625 
L 48.78125 2.09375 
Q 45.015625 0.34375 40.984375 -0.53125 
Q 36.96875 -1.421875 32.421875 -1.421875 
Q 20.0625 -1.421875 12.78125 6.34375 
Q 5.515625 14.109375 5.515625 27.296875 
Q 5.515625 40.671875 12.859375 48.328125 
Q 20.21875 56 33.015625 56 
Q 37.15625 56 41.109375 55.140625 
Q 45.0625 54.296875 48.78125 52.59375 
z
" id="DejaVuSans-63"/>
      <path d="M 30.609375 48.390625 
Q 23.390625 48.390625 19.1875 42.75 
Q 14.984375 37.109375 14.984375 27.296875 
Q 14.984375 17.484375 19.15625 11.84375 
Q 23.34375 6.203125 30.609375 6.203125 
Q 37.796875 6.203125 41.984375 11.859375 
Q 46.1875 17.53125 46.1875 27.296875 
Q 46.1875 37.015625 41.984375 42.703125 
Q 37.796875 48.390625 30.609375 48.390625 
z
M 30.609375 56 
Q 42.328125 56 49.015625 48.375 
Q 55.71875 40.765625 55.71875 27.296875 
Q 55.71875 13.875 49.015625 6.21875 
Q 42.328125 -1.421875 30.609375 -1.421875 
Q 18.84375 -1.421875 12.171875 6.21875 
Q 5.515625 13.875 5.515625 27.296875 
Q 5.515625 40.765625 12.171875 48.375 
Q 18.84375 56 30.609375 56 
z
" id="DejaVuSans-6f"/>
     </defs>
     <g transform="translate(1099.135937 121.996562)scale(0.1 -0.1)">
      <use xlink:href="#DejaVuSans-41"/>
      <use x="68.408203" xlink:href="#DejaVuSans-52"/>
      <use x="137.890625" xlink:href="#DejaVuSans-49"/>
      <use x="167.382812" xlink:href="#DejaVuSans-4d"/>
      <use x="253.662109" xlink:href="#DejaVuSans-41"/>
      <use x="322.070312" xlink:href="#DejaVuSans-20"/>
      <use x="353.857422" xlink:href="#DejaVuSans-50"/>
      <use x="414.144531" xlink:href="#DejaVuSans-72"/>
      <use x="455.226562" xlink:href="#DejaVuSans-65"/>
      <use x="516.75" xlink:href="#DejaVuSans-64"/>
      <use x="580.226562" xlink:href="#DejaVuSans-69"/>
      <use x="608.009766" xlink:href="#DejaVuSans-63"/>
      <use x="662.990234" xlink:href="#DejaVuSans-74"/>
      <use x="702.199219" xlink:href="#DejaVuSans-69"/>
      <use x="729.982422" xlink:href="#DejaVuSans-6f"/>
      <use x="791.164062" xlink:href="#DejaVuSans-6e"/>
      <use x="854.542969" xlink:href="#DejaVuSans-73"/>
     </g>
    </g>
    <g id="line2d_25">
     <path d="M 1071.135937 133.174688 
L 1091.135937 133.174688 
" style="fill:none;stroke:#008000;stroke-linecap:square;stroke-width:1.5;"/>
    </g>
    <g id="line2d_26"/>
    <g id="text_22">
     <!-- LSTM Predictions -->
     <defs>
      <path d="M 9.8125 72.90625 
L 19.671875 72.90625 
L 19.671875 8.296875 
L 55.171875 8.296875 
L 55.171875 0 
L 9.8125 0 
z
" id="DejaVuSans-4c"/>
      <path d="M -0.296875 72.90625 
L 61.375 72.90625 
L 61.375 64.59375 
L 35.5 64.59375 
L 35.5 0 
L 25.59375 0 
L 25.59375 64.59375 
L -0.296875 64.59375 
z
" id="DejaVuSans-54"/>
     </defs>
     <g transform="translate(1099.135937 136.674688)scale(0.1 -0.1)">
      <use xlink:href="#DejaVuSans-4c"/>
      <use x="55.712891" xlink:href="#DejaVuSans-53"/>
      <use x="119.189453" xlink:href="#DejaVuSans-54"/>
      <use x="180.273438" xlink:href="#DejaVuSans-4d"/>
      <use x="266.552734" xlink:href="#DejaVuSans-20"/>
      <use x="298.339844" xlink:href="#DejaVuSans-50"/>
      <use x="358.626953" xlink:href="#DejaVuSans-72"/>
      <use x="399.708984" xlink:href="#DejaVuSans-65"/>
      <use x="461.232422" xlink:href="#DejaVuSans-64"/>
      <use x="524.708984" xlink:href="#DejaVuSans-69"/>
      <use x="552.492188" xlink:href="#DejaVuSans-63"/>
      <use x="607.472656" xlink:href="#DejaVuSans-74"/>
      <use x="646.681641" xlink:href="#DejaVuSans-69"/>
      <use x="674.464844" xlink:href="#DejaVuSans-6f"/>
      <use x="735.646484" xlink:href="#DejaVuSans-6e"/>
      <use x="799.025391" xlink:href="#DejaVuSans-73"/>
     </g>
    </g>
   </g>
  </g>
 </g>
 <defs>
  <clipPath id="pd276c2d792">
   <rect height="570.78" width="1032.3" x="166.5" y="90.72"/>
  </clipPath>
 </defs>
</svg>
