<?xml version="1.0" encoding="utf-8" standalone="no"?>
<!DOCTYPE svg PUBLIC "-//W3C//DTD SVG 1.1//EN"
  "http://www.w3.org/Graphics/SVG/1.1/DTD/svg11.dtd">
<!-- Created with matplotlib (http://matplotlib.org/) -->
<svg height="756pt" version="1.1" viewBox="0 0 1332 756" width="1332pt" xmlns="http://www.w3.org/2000/svg" xmlns:xlink="http://www.w3.org/1999/xlink">
 <defs>
  <style type="text/css">
*{stroke-linecap:butt;stroke-linejoin:round;}
  </style>
 </defs>
 <g id="figure_1">
  <g id="patch_1">
   <path d="M 0 756 
L 1332 756 
L 1332 0 
L 0 0 
z
" style="fill:#ffffff;"/>
  </g>
  <g id="axes_1">
   <g id="patch_2">
    <path d="M 69.175 719.2 
L 1317.7 719.2 
L 1317.7 14.3 
L 69.175 14.3 
z
" style="fill:#ffffff;"/>
   </g>
   <g id="matplotlib.axis_1">
    <g id="xtick_1">
     <g id="line2d_1">
      <defs>
       <path d="M 0 0 
L 0 3.5 
" id="mbbab4c57d6" style="stroke:#000000;stroke-width:0.8;"/>
      </defs>
      <g>
       <use style="stroke:#000000;stroke-width:0.8;" x="125.926136" xlink:href="#mbbab4c57d6" y="719.2"/>
      </g>
     </g>
     <g id="text_1">
      <!-- 0 -->
      <defs>
       <path d="M 31.78125 66.40625 
Q 24.171875 66.40625 20.328125 58.90625 
Q 16.5 51.421875 16.5 36.375 
Q 16.5 21.390625 20.328125 13.890625 
Q 24.171875 6.390625 31.78125 6.390625 
Q 39.453125 6.390625 43.28125 13.890625 
Q 47.125 21.390625 47.125 36.375 
Q 47.125 51.421875 43.28125 58.90625 
Q 39.453125 66.40625 31.78125 66.40625 
z
M 31.78125 74.21875 
Q 44.046875 74.21875 50.515625 64.515625 
Q 56.984375 54.828125 56.984375 36.375 
Q 56.984375 17.96875 50.515625 8.265625 
Q 44.046875 -1.421875 31.78125 -1.421875 
Q 19.53125 -1.421875 13.0625 8.265625 
Q 6.59375 17.96875 6.59375 36.375 
Q 6.59375 54.828125 13.0625 64.515625 
Q 19.53125 74.21875 31.78125 74.21875 
z
" id="DejaVuSans-30"/>
      </defs>
      <g transform="translate(119.563636 741.396875)scale(0.2 -0.2)">
       <use xlink:href="#DejaVuSans-30"/>
      </g>
     </g>
    </g>
    <g id="xtick_2">
     <g id="line2d_2">
      <g>
       <use style="stroke:#000000;stroke-width:0.8;" x="315.254364" xlink:href="#mbbab4c57d6" y="719.2"/>
      </g>
     </g>
     <g id="text_2">
      <!-- 200 -->
      <defs>
       <path d="M 19.1875 8.296875 
L 53.609375 8.296875 
L 53.609375 0 
L 7.328125 0 
L 7.328125 8.296875 
Q 12.9375 14.109375 22.625 23.890625 
Q 32.328125 33.6875 34.8125 36.53125 
Q 39.546875 41.84375 41.421875 45.53125 
Q 43.3125 49.21875 43.3125 52.78125 
Q 43.3125 58.59375 39.234375 62.25 
Q 35.15625 65.921875 28.609375 65.921875 
Q 23.96875 65.921875 18.8125 64.3125 
Q 13.671875 62.703125 7.8125 59.421875 
L 7.8125 69.390625 
Q 13.765625 71.78125 18.9375 73 
Q 24.125 74.21875 28.421875 74.21875 
Q 39.75 74.21875 46.484375 68.546875 
Q 53.21875 62.890625 53.21875 53.421875 
Q 53.21875 48.921875 51.53125 44.890625 
Q 49.859375 40.875 45.40625 35.40625 
Q 44.1875 33.984375 37.640625 27.21875 
Q 31.109375 20.453125 19.1875 8.296875 
z
" id="DejaVuSans-32"/>
      </defs>
      <g transform="translate(296.166864 741.396875)scale(0.2 -0.2)">
       <use xlink:href="#DejaVuSans-32"/>
       <use x="63.623047" xlink:href="#DejaVuSans-30"/>
       <use x="127.246094" xlink:href="#DejaVuSans-30"/>
      </g>
     </g>
    </g>
    <g id="xtick_3">
     <g id="line2d_3">
      <g>
       <use style="stroke:#000000;stroke-width:0.8;" x="504.582593" xlink:href="#mbbab4c57d6" y="719.2"/>
      </g>
     </g>
     <g id="text_3">
      <!-- 400 -->
      <defs>
       <path d="M 37.796875 64.3125 
L 12.890625 25.390625 
L 37.796875 25.390625 
z
M 35.203125 72.90625 
L 47.609375 72.90625 
L 47.609375 25.390625 
L 58.015625 25.390625 
L 58.015625 17.1875 
L 47.609375 17.1875 
L 47.609375 0 
L 37.796875 0 
L 37.796875 17.1875 
L 4.890625 17.1875 
L 4.890625 26.703125 
z
" id="DejaVuSans-34"/>
      </defs>
      <g transform="translate(485.495093 741.396875)scale(0.2 -0.2)">
       <use xlink:href="#DejaVuSans-34"/>
       <use x="63.623047" xlink:href="#DejaVuSans-30"/>
       <use x="127.246094" xlink:href="#DejaVuSans-30"/>
      </g>
     </g>
    </g>
    <g id="xtick_4">
     <g id="line2d_4">
      <g>
       <use style="stroke:#000000;stroke-width:0.8;" x="693.910821" xlink:href="#mbbab4c57d6" y="719.2"/>
      </g>
     </g>
     <g id="text_4">
      <!-- 600 -->
      <defs>
       <path d="M 33.015625 40.375 
Q 26.375 40.375 22.484375 35.828125 
Q 18.609375 31.296875 18.609375 23.390625 
Q 18.609375 15.53125 22.484375 10.953125 
Q 26.375 6.390625 33.015625 6.390625 
Q 39.65625 6.390625 43.53125 10.953125 
Q 47.40625 15.53125 47.40625 23.390625 
Q 47.40625 31.296875 43.53125 35.828125 
Q 39.65625 40.375 33.015625 40.375 
z
M 52.59375 71.296875 
L 52.59375 62.3125 
Q 48.875 64.0625 45.09375 64.984375 
Q 41.3125 65.921875 37.59375 65.921875 
Q 27.828125 65.921875 22.671875 59.328125 
Q 17.53125 52.734375 16.796875 39.40625 
Q 19.671875 43.65625 24.015625 45.921875 
Q 28.375 48.1875 33.59375 48.1875 
Q 44.578125 48.1875 50.953125 41.515625 
Q 57.328125 34.859375 57.328125 23.390625 
Q 57.328125 12.15625 50.6875 5.359375 
Q 44.046875 -1.421875 33.015625 -1.421875 
Q 20.359375 -1.421875 13.671875 8.265625 
Q 6.984375 17.96875 6.984375 36.375 
Q 6.984375 53.65625 15.1875 63.9375 
Q 23.390625 74.21875 37.203125 74.21875 
Q 40.921875 74.21875 44.703125 73.484375 
Q 48.484375 72.75 52.59375 71.296875 
z
" id="DejaVuSans-36"/>
      </defs>
      <g transform="translate(674.823321 741.396875)scale(0.2 -0.2)">
       <use xlink:href="#DejaVuSans-36"/>
       <use x="63.623047" xlink:href="#DejaVuSans-30"/>
       <use x="127.246094" xlink:href="#DejaVuSans-30"/>
      </g>
     </g>
    </g>
    <g id="xtick_5">
     <g id="line2d_5">
      <g>
       <use style="stroke:#000000;stroke-width:0.8;" x="883.239049" xlink:href="#mbbab4c57d6" y="719.2"/>
      </g>
     </g>
     <g id="text_5">
      <!-- 800 -->
      <defs>
       <path d="M 31.78125 34.625 
Q 24.75 34.625 20.71875 30.859375 
Q 16.703125 27.09375 16.703125 20.515625 
Q 16.703125 13.921875 20.71875 10.15625 
Q 24.75 6.390625 31.78125 6.390625 
Q 38.8125 6.390625 42.859375 10.171875 
Q 46.921875 13.96875 46.921875 20.515625 
Q 46.921875 27.09375 42.890625 30.859375 
Q 38.875 34.625 31.78125 34.625 
z
M 21.921875 38.8125 
Q 15.578125 40.375 12.03125 44.71875 
Q 8.5 49.078125 8.5 55.328125 
Q 8.5 64.0625 14.71875 69.140625 
Q 20.953125 74.21875 31.78125 74.21875 
Q 42.671875 74.21875 48.875 69.140625 
Q 55.078125 64.0625 55.078125 55.328125 
Q 55.078125 49.078125 51.53125 44.71875 
Q 48 40.375 41.703125 38.8125 
Q 48.828125 37.15625 52.796875 32.3125 
Q 56.78125 27.484375 56.78125 20.515625 
Q 56.78125 9.90625 50.3125 4.234375 
Q 43.84375 -1.421875 31.78125 -1.421875 
Q 19.734375 -1.421875 13.25 4.234375 
Q 6.78125 9.90625 6.78125 20.515625 
Q 6.78125 27.484375 10.78125 32.3125 
Q 14.796875 37.15625 21.921875 38.8125 
z
M 18.3125 54.390625 
Q 18.3125 48.734375 21.84375 45.5625 
Q 25.390625 42.390625 31.78125 42.390625 
Q 38.140625 42.390625 41.71875 45.5625 
Q 45.3125 48.734375 45.3125 54.390625 
Q 45.3125 60.0625 41.71875 63.234375 
Q 38.140625 66.40625 31.78125 66.40625 
Q 25.390625 66.40625 21.84375 63.234375 
Q 18.3125 60.0625 18.3125 54.390625 
z
" id="DejaVuSans-38"/>
      </defs>
      <g transform="translate(864.151549 741.396875)scale(0.2 -0.2)">
       <use xlink:href="#DejaVuSans-38"/>
       <use x="63.623047" xlink:href="#DejaVuSans-30"/>
       <use x="127.246094" xlink:href="#DejaVuSans-30"/>
      </g>
     </g>
    </g>
    <g id="xtick_6">
     <g id="line2d_6">
      <g>
       <use style="stroke:#000000;stroke-width:0.8;" x="1072.567277" xlink:href="#mbbab4c57d6" y="719.2"/>
      </g>
     </g>
     <g id="text_6">
      <!-- 1000 -->
      <defs>
       <path d="M 12.40625 8.296875 
L 28.515625 8.296875 
L 28.515625 63.921875 
L 10.984375 60.40625 
L 10.984375 69.390625 
L 28.421875 72.90625 
L 38.28125 72.90625 
L 38.28125 8.296875 
L 54.390625 8.296875 
L 54.390625 0 
L 12.40625 0 
z
" id="DejaVuSans-31"/>
      </defs>
      <g transform="translate(1047.117277 741.396875)scale(0.2 -0.2)">
       <use xlink:href="#DejaVuSans-31"/>
       <use x="63.623047" xlink:href="#DejaVuSans-30"/>
       <use x="127.246094" xlink:href="#DejaVuSans-30"/>
       <use x="190.869141" xlink:href="#DejaVuSans-30"/>
      </g>
     </g>
    </g>
    <g id="xtick_7">
     <g id="line2d_7">
      <g>
       <use style="stroke:#000000;stroke-width:0.8;" x="1261.895505" xlink:href="#mbbab4c57d6" y="719.2"/>
      </g>
     </g>
     <g id="text_7">
      <!-- 1200 -->
      <g transform="translate(1236.445505 741.396875)scale(0.2 -0.2)">
       <use xlink:href="#DejaVuSans-31"/>
       <use x="63.623047" xlink:href="#DejaVuSans-32"/>
       <use x="127.246094" xlink:href="#DejaVuSans-30"/>
       <use x="190.869141" xlink:href="#DejaVuSans-30"/>
      </g>
     </g>
    </g>
    <g id="text_8">
     <!-- 15-Minute Steps -->
     <defs>
      <path d="M 10.796875 72.90625 
L 49.515625 72.90625 
L 49.515625 64.59375 
L 19.828125 64.59375 
L 19.828125 46.734375 
Q 21.96875 47.46875 24.109375 47.828125 
Q 26.265625 48.1875 28.421875 48.1875 
Q 40.625 48.1875 47.75 41.5 
Q 54.890625 34.8125 54.890625 23.390625 
Q 54.890625 11.625 47.5625 5.09375 
Q 40.234375 -1.421875 26.90625 -1.421875 
Q 22.3125 -1.421875 17.546875 -0.640625 
Q 12.796875 0.140625 7.71875 1.703125 
L 7.71875 11.625 
Q 12.109375 9.234375 16.796875 8.0625 
Q 21.484375 6.890625 26.703125 6.890625 
Q 35.15625 6.890625 40.078125 11.328125 
Q 45.015625 15.765625 45.015625 23.390625 
Q 45.015625 31 40.078125 35.4375 
Q 35.15625 39.890625 26.703125 39.890625 
Q 22.75 39.890625 18.8125 39.015625 
Q 14.890625 38.140625 10.796875 36.28125 
z
" id="DejaVuSans-35"/>
      <path d="M 4.890625 31.390625 
L 31.203125 31.390625 
L 31.203125 23.390625 
L 4.890625 23.390625 
z
" id="DejaVuSans-2d"/>
      <path d="M 9.8125 72.90625 
L 24.515625 72.90625 
L 43.109375 23.296875 
L 61.8125 72.90625 
L 76.515625 72.90625 
L 76.515625 0 
L 66.890625 0 
L 66.890625 64.015625 
L 48.09375 14.015625 
L 38.1875 14.015625 
L 19.390625 64.015625 
L 19.390625 0 
L 9.8125 0 
z
" id="DejaVuSans-4d"/>
      <path d="M 9.421875 54.6875 
L 18.40625 54.6875 
L 18.40625 0 
L 9.421875 0 
z
M 9.421875 75.984375 
L 18.40625 75.984375 
L 18.40625 64.59375 
L 9.421875 64.59375 
z
" id="DejaVuSans-69"/>
      <path d="M 54.890625 33.015625 
L 54.890625 0 
L 45.90625 0 
L 45.90625 32.71875 
Q 45.90625 40.484375 42.875 44.328125 
Q 39.84375 48.1875 33.796875 48.1875 
Q 26.515625 48.1875 22.3125 43.546875 
Q 18.109375 38.921875 18.109375 30.90625 
L 18.109375 0 
L 9.078125 0 
L 9.078125 54.6875 
L 18.109375 54.6875 
L 18.109375 46.1875 
Q 21.34375 51.125 25.703125 53.5625 
Q 30.078125 56 35.796875 56 
Q 45.21875 56 50.046875 50.171875 
Q 54.890625 44.34375 54.890625 33.015625 
z
" id="DejaVuSans-6e"/>
      <path d="M 8.5 21.578125 
L 8.5 54.6875 
L 17.484375 54.6875 
L 17.484375 21.921875 
Q 17.484375 14.15625 20.5 10.265625 
Q 23.53125 6.390625 29.59375 6.390625 
Q 36.859375 6.390625 41.078125 11.03125 
Q 45.3125 15.671875 45.3125 23.6875 
L 45.3125 54.6875 
L 54.296875 54.6875 
L 54.296875 0 
L 45.3125 0 
L 45.3125 8.40625 
Q 42.046875 3.421875 37.71875 1 
Q 33.40625 -1.421875 27.6875 -1.421875 
Q 18.265625 -1.421875 13.375 4.4375 
Q 8.5 10.296875 8.5 21.578125 
z
M 31.109375 56 
z
" id="DejaVuSans-75"/>
      <path d="M 18.3125 70.21875 
L 18.3125 54.6875 
L 36.8125 54.6875 
L 36.8125 47.703125 
L 18.3125 47.703125 
L 18.3125 18.015625 
Q 18.3125 11.328125 20.140625 9.421875 
Q 21.96875 7.515625 27.59375 7.515625 
L 36.8125 7.515625 
L 36.8125 0 
L 27.59375 0 
Q 17.1875 0 13.234375 3.875 
Q 9.28125 7.765625 9.28125 18.015625 
L 9.28125 47.703125 
L 2.6875 47.703125 
L 2.6875 54.6875 
L 9.28125 54.6875 
L 9.28125 70.21875 
z
" id="DejaVuSans-74"/>
      <path d="M 56.203125 29.59375 
L 56.203125 25.203125 
L 14.890625 25.203125 
Q 15.484375 15.921875 20.484375 11.0625 
Q 25.484375 6.203125 34.421875 6.203125 
Q 39.59375 6.203125 44.453125 7.46875 
Q 49.3125 8.734375 54.109375 11.28125 
L 54.109375 2.78125 
Q 49.265625 0.734375 44.1875 -0.34375 
Q 39.109375 -1.421875 33.890625 -1.421875 
Q 20.796875 -1.421875 13.15625 6.1875 
Q 5.515625 13.8125 5.515625 26.8125 
Q 5.515625 40.234375 12.765625 48.109375 
Q 20.015625 56 32.328125 56 
Q 43.359375 56 49.78125 48.890625 
Q 56.203125 41.796875 56.203125 29.59375 
z
M 47.21875 32.234375 
Q 47.125 39.59375 43.09375 43.984375 
Q 39.0625 48.390625 32.421875 48.390625 
Q 24.90625 48.390625 20.390625 44.140625 
Q 15.875 39.890625 15.1875 32.171875 
z
" id="DejaVuSans-65"/>
      <path id="DejaVuSans-20"/>
      <path d="M 53.515625 70.515625 
L 53.515625 60.890625 
Q 47.90625 63.578125 42.921875 64.890625 
Q 37.9375 66.21875 33.296875 66.21875 
Q 25.25 66.21875 20.875 63.09375 
Q 16.5 59.96875 16.5 54.203125 
Q 16.5 49.359375 19.40625 46.890625 
Q 22.3125 44.4375 30.421875 42.921875 
L 36.375 41.703125 
Q 47.40625 39.59375 52.65625 34.296875 
Q 57.90625 29 57.90625 20.125 
Q 57.90625 9.515625 50.796875 4.046875 
Q 43.703125 -1.421875 29.984375 -1.421875 
Q 24.8125 -1.421875 18.96875 -0.25 
Q 13.140625 0.921875 6.890625 3.21875 
L 6.890625 13.375 
Q 12.890625 10.015625 18.65625 8.296875 
Q 24.421875 6.59375 29.984375 6.59375 
Q 38.421875 6.59375 43.015625 9.90625 
Q 47.609375 13.234375 47.609375 19.390625 
Q 47.609375 24.75 44.3125 27.78125 
Q 41.015625 30.8125 33.5 32.328125 
L 27.484375 33.5 
Q 16.453125 35.6875 11.515625 40.375 
Q 6.59375 45.0625 6.59375 53.421875 
Q 6.59375 63.09375 13.40625 68.65625 
Q 20.21875 74.21875 32.171875 74.21875 
Q 37.3125 74.21875 42.625 73.28125 
Q 47.953125 72.359375 53.515625 70.515625 
z
" id="DejaVuSans-53"/>
      <path d="M 18.109375 8.203125 
L 18.109375 -20.796875 
L 9.078125 -20.796875 
L 9.078125 54.6875 
L 18.109375 54.6875 
L 18.109375 46.390625 
Q 20.953125 51.265625 25.265625 53.625 
Q 29.59375 56 35.59375 56 
Q 45.5625 56 51.78125 48.09375 
Q 58.015625 40.1875 58.015625 27.296875 
Q 58.015625 14.40625 51.78125 6.484375 
Q 45.5625 -1.421875 35.59375 -1.421875 
Q 29.59375 -1.421875 25.265625 0.953125 
Q 20.953125 3.328125 18.109375 8.203125 
z
M 48.6875 27.296875 
Q 48.6875 37.203125 44.609375 42.84375 
Q 40.53125 48.484375 33.40625 48.484375 
Q 26.265625 48.484375 22.1875 42.84375 
Q 18.109375 37.203125 18.109375 27.296875 
Q 18.109375 17.390625 22.1875 11.75 
Q 26.265625 6.109375 33.40625 6.109375 
Q 40.53125 6.109375 44.609375 11.75 
Q 48.6875 17.390625 48.6875 27.296875 
z
" id="DejaVuSans-70"/>
      <path d="M 44.28125 53.078125 
L 44.28125 44.578125 
Q 40.484375 46.53125 36.375 47.5 
Q 32.28125 48.484375 27.875 48.484375 
Q 21.1875 48.484375 17.84375 46.4375 
Q 14.5 44.390625 14.5 40.28125 
Q 14.5 37.15625 16.890625 35.375 
Q 19.28125 33.59375 26.515625 31.984375 
L 29.59375 31.296875 
Q 39.15625 29.25 43.1875 25.515625 
Q 47.21875 21.78125 47.21875 15.09375 
Q 47.21875 7.46875 41.1875 3.015625 
Q 35.15625 -1.421875 24.609375 -1.421875 
Q 20.21875 -1.421875 15.453125 -0.5625 
Q 10.6875 0.296875 5.421875 2 
L 5.421875 11.28125 
Q 10.40625 8.6875 15.234375 7.390625 
Q 20.0625 6.109375 24.8125 6.109375 
Q 31.15625 6.109375 34.5625 8.28125 
Q 37.984375 10.453125 37.984375 14.40625 
Q 37.984375 18.0625 35.515625 20.015625 
Q 33.0625 21.96875 24.703125 23.78125 
L 21.578125 24.515625 
Q 13.234375 26.265625 9.515625 29.90625 
Q 5.8125 33.546875 5.8125 39.890625 
Q 5.8125 47.609375 11.28125 51.796875 
Q 16.75 56 26.8125 56 
Q 31.78125 56 36.171875 55.265625 
Q 40.578125 54.546875 44.28125 53.078125 
z
" id="DejaVuSans-73"/>
     </defs>
     <g transform="translate(611.792187 764.753125)scale(0.2 -0.2)">
      <use xlink:href="#DejaVuSans-31"/>
      <use x="63.623047" xlink:href="#DejaVuSans-35"/>
      <use x="127.246094" xlink:href="#DejaVuSans-2d"/>
      <use x="163.330078" xlink:href="#DejaVuSans-4d"/>
      <use x="249.609375" xlink:href="#DejaVuSans-69"/>
      <use x="277.392578" xlink:href="#DejaVuSans-6e"/>
      <use x="340.771484" xlink:href="#DejaVuSans-75"/>
      <use x="404.150391" xlink:href="#DejaVuSans-74"/>
      <use x="443.359375" xlink:href="#DejaVuSans-65"/>
      <use x="504.882812" xlink:href="#DejaVuSans-20"/>
      <use x="536.669922" xlink:href="#DejaVuSans-53"/>
      <use x="600.146484" xlink:href="#DejaVuSans-74"/>
      <use x="639.355469" xlink:href="#DejaVuSans-65"/>
      <use x="700.878906" xlink:href="#DejaVuSans-70"/>
      <use x="764.355469" xlink:href="#DejaVuSans-73"/>
     </g>
    </g>
   </g>
   <g id="matplotlib.axis_2">
    <g id="ytick_1">
     <g id="line2d_8">
      <defs>
       <path d="M 0 0 
L -3.5 0 
" id="m0c176ccfff" style="stroke:#000000;stroke-width:0.8;"/>
      </defs>
      <g>
       <use style="stroke:#000000;stroke-width:0.8;" x="69.175" xlink:href="#m0c176ccfff" y="687.19619"/>
      </g>
     </g>
     <g id="text_9">
      <!-- 0 -->
      <g transform="translate(49.45 694.794628)scale(0.2 -0.2)">
       <use xlink:href="#DejaVuSans-30"/>
      </g>
     </g>
    </g>
    <g id="ytick_2">
     <g id="line2d_9">
      <g>
       <use style="stroke:#000000;stroke-width:0.8;" x="69.175" xlink:href="#m0c176ccfff" y="571.261267"/>
      </g>
     </g>
     <g id="text_10">
      <!-- 1000 -->
      <g transform="translate(11.275 578.859705)scale(0.2 -0.2)">
       <use xlink:href="#DejaVuSans-31"/>
       <use x="63.623047" xlink:href="#DejaVuSans-30"/>
       <use x="127.246094" xlink:href="#DejaVuSans-30"/>
       <use x="190.869141" xlink:href="#DejaVuSans-30"/>
      </g>
     </g>
    </g>
    <g id="ytick_3">
     <g id="line2d_10">
      <g>
       <use style="stroke:#000000;stroke-width:0.8;" x="69.175" xlink:href="#m0c176ccfff" y="455.326345"/>
      </g>
     </g>
     <g id="text_11">
      <!-- 2000 -->
      <g transform="translate(11.275 462.924782)scale(0.2 -0.2)">
       <use xlink:href="#DejaVuSans-32"/>
       <use x="63.623047" xlink:href="#DejaVuSans-30"/>
       <use x="127.246094" xlink:href="#DejaVuSans-30"/>
       <use x="190.869141" xlink:href="#DejaVuSans-30"/>
      </g>
     </g>
    </g>
    <g id="ytick_4">
     <g id="line2d_11">
      <g>
       <use style="stroke:#000000;stroke-width:0.8;" x="69.175" xlink:href="#m0c176ccfff" y="339.391422"/>
      </g>
     </g>
     <g id="text_12">
      <!-- 3000 -->
      <defs>
       <path d="M 40.578125 39.3125 
Q 47.65625 37.796875 51.625 33 
Q 55.609375 28.21875 55.609375 21.1875 
Q 55.609375 10.40625 48.1875 4.484375 
Q 40.765625 -1.421875 27.09375 -1.421875 
Q 22.515625 -1.421875 17.65625 -0.515625 
Q 12.796875 0.390625 7.625 2.203125 
L 7.625 11.71875 
Q 11.71875 9.328125 16.59375 8.109375 
Q 21.484375 6.890625 26.8125 6.890625 
Q 36.078125 6.890625 40.9375 10.546875 
Q 45.796875 14.203125 45.796875 21.1875 
Q 45.796875 27.640625 41.28125 31.265625 
Q 36.765625 34.90625 28.71875 34.90625 
L 20.21875 34.90625 
L 20.21875 43.015625 
L 29.109375 43.015625 
Q 36.375 43.015625 40.234375 45.921875 
Q 44.09375 48.828125 44.09375 54.296875 
Q 44.09375 59.90625 40.109375 62.90625 
Q 36.140625 65.921875 28.71875 65.921875 
Q 24.65625 65.921875 20.015625 65.03125 
Q 15.375 64.15625 9.8125 62.3125 
L 9.8125 71.09375 
Q 15.4375 72.65625 20.34375 73.4375 
Q 25.25 74.21875 29.59375 74.21875 
Q 40.828125 74.21875 47.359375 69.109375 
Q 53.90625 64.015625 53.90625 55.328125 
Q 53.90625 49.265625 50.4375 45.09375 
Q 46.96875 40.921875 40.578125 39.3125 
z
" id="DejaVuSans-33"/>
      </defs>
      <g transform="translate(11.275 346.989859)scale(0.2 -0.2)">
       <use xlink:href="#DejaVuSans-33"/>
       <use x="63.623047" xlink:href="#DejaVuSans-30"/>
       <use x="127.246094" xlink:href="#DejaVuSans-30"/>
       <use x="190.869141" xlink:href="#DejaVuSans-30"/>
      </g>
     </g>
    </g>
    <g id="ytick_5">
     <g id="line2d_12">
      <g>
       <use style="stroke:#000000;stroke-width:0.8;" x="69.175" xlink:href="#m0c176ccfff" y="223.456499"/>
      </g>
     </g>
     <g id="text_13">
      <!-- 4000 -->
      <g transform="translate(11.275 231.054937)scale(0.2 -0.2)">
       <use xlink:href="#DejaVuSans-34"/>
       <use x="63.623047" xlink:href="#DejaVuSans-30"/>
       <use x="127.246094" xlink:href="#DejaVuSans-30"/>
       <use x="190.869141" xlink:href="#DejaVuSans-30"/>
      </g>
     </g>
    </g>
    <g id="ytick_6">
     <g id="line2d_13">
      <g>
       <use style="stroke:#000000;stroke-width:0.8;" x="69.175" xlink:href="#m0c176ccfff" y="107.521576"/>
      </g>
     </g>
     <g id="text_14">
      <!-- 5000 -->
      <g transform="translate(11.275 115.120014)scale(0.2 -0.2)">
       <use xlink:href="#DejaVuSans-35"/>
       <use x="63.623047" xlink:href="#DejaVuSans-30"/>
       <use x="127.246094" xlink:href="#DejaVuSans-30"/>
       <use x="190.869141" xlink:href="#DejaVuSans-30"/>
      </g>
     </g>
    </g>
    <g id="text_15">
     <!-- Bandwidth (kbps) -->
     <defs>
      <path d="M 19.671875 34.8125 
L 19.671875 8.109375 
L 35.5 8.109375 
Q 43.453125 8.109375 47.28125 11.40625 
Q 51.125 14.703125 51.125 21.484375 
Q 51.125 28.328125 47.28125 31.5625 
Q 43.453125 34.8125 35.5 34.8125 
z
M 19.671875 64.796875 
L 19.671875 42.828125 
L 34.28125 42.828125 
Q 41.5 42.828125 45.03125 45.53125 
Q 48.578125 48.25 48.578125 53.8125 
Q 48.578125 59.328125 45.03125 62.0625 
Q 41.5 64.796875 34.28125 64.796875 
z
M 9.8125 72.90625 
L 35.015625 72.90625 
Q 46.296875 72.90625 52.390625 68.21875 
Q 58.5 63.53125 58.5 54.890625 
Q 58.5 48.1875 55.375 44.234375 
Q 52.25 40.28125 46.1875 39.3125 
Q 53.46875 37.75 57.5 32.78125 
Q 61.53125 27.828125 61.53125 20.40625 
Q 61.53125 10.640625 54.890625 5.3125 
Q 48.25 0 35.984375 0 
L 9.8125 0 
z
" id="DejaVuSans-42"/>
      <path d="M 34.28125 27.484375 
Q 23.390625 27.484375 19.1875 25 
Q 14.984375 22.515625 14.984375 16.5 
Q 14.984375 11.71875 18.140625 8.90625 
Q 21.296875 6.109375 26.703125 6.109375 
Q 34.1875 6.109375 38.703125 11.40625 
Q 43.21875 16.703125 43.21875 25.484375 
L 43.21875 27.484375 
z
M 52.203125 31.203125 
L 52.203125 0 
L 43.21875 0 
L 43.21875 8.296875 
Q 40.140625 3.328125 35.546875 0.953125 
Q 30.953125 -1.421875 24.3125 -1.421875 
Q 15.921875 -1.421875 10.953125 3.296875 
Q 6 8.015625 6 15.921875 
Q 6 25.140625 12.171875 29.828125 
Q 18.359375 34.515625 30.609375 34.515625 
L 43.21875 34.515625 
L 43.21875 35.40625 
Q 43.21875 41.609375 39.140625 45 
Q 35.0625 48.390625 27.6875 48.390625 
Q 23 48.390625 18.546875 47.265625 
Q 14.109375 46.140625 10.015625 43.890625 
L 10.015625 52.203125 
Q 14.9375 54.109375 19.578125 55.046875 
Q 24.21875 56 28.609375 56 
Q 40.484375 56 46.34375 49.84375 
Q 52.203125 43.703125 52.203125 31.203125 
z
" id="DejaVuSans-61"/>
      <path d="M 45.40625 46.390625 
L 45.40625 75.984375 
L 54.390625 75.984375 
L 54.390625 0 
L 45.40625 0 
L 45.40625 8.203125 
Q 42.578125 3.328125 38.25 0.953125 
Q 33.9375 -1.421875 27.875 -1.421875 
Q 17.96875 -1.421875 11.734375 6.484375 
Q 5.515625 14.40625 5.515625 27.296875 
Q 5.515625 40.1875 11.734375 48.09375 
Q 17.96875 56 27.875 56 
Q 33.9375 56 38.25 53.625 
Q 42.578125 51.265625 45.40625 46.390625 
z
M 14.796875 27.296875 
Q 14.796875 17.390625 18.875 11.75 
Q 22.953125 6.109375 30.078125 6.109375 
Q 37.203125 6.109375 41.296875 11.75 
Q 45.40625 17.390625 45.40625 27.296875 
Q 45.40625 37.203125 41.296875 42.84375 
Q 37.203125 48.484375 30.078125 48.484375 
Q 22.953125 48.484375 18.875 42.84375 
Q 14.796875 37.203125 14.796875 27.296875 
z
" id="DejaVuSans-64"/>
      <path d="M 4.203125 54.6875 
L 13.1875 54.6875 
L 24.421875 12.015625 
L 35.59375 54.6875 
L 46.1875 54.6875 
L 57.421875 12.015625 
L 68.609375 54.6875 
L 77.59375 54.6875 
L 63.28125 0 
L 52.6875 0 
L 40.921875 44.828125 
L 29.109375 0 
L 18.5 0 
z
" id="DejaVuSans-77"/>
      <path d="M 54.890625 33.015625 
L 54.890625 0 
L 45.90625 0 
L 45.90625 32.71875 
Q 45.90625 40.484375 42.875 44.328125 
Q 39.84375 48.1875 33.796875 48.1875 
Q 26.515625 48.1875 22.3125 43.546875 
Q 18.109375 38.921875 18.109375 30.90625 
L 18.109375 0 
L 9.078125 0 
L 9.078125 75.984375 
L 18.109375 75.984375 
L 18.109375 46.1875 
Q 21.34375 51.125 25.703125 53.5625 
Q 30.078125 56 35.796875 56 
Q 45.21875 56 50.046875 50.171875 
Q 54.890625 44.34375 54.890625 33.015625 
z
" id="DejaVuSans-68"/>
      <path d="M 31 75.875 
Q 24.46875 64.65625 21.28125 53.65625 
Q 18.109375 42.671875 18.109375 31.390625 
Q 18.109375 20.125 21.3125 9.0625 
Q 24.515625 -2 31 -13.1875 
L 23.1875 -13.1875 
Q 15.875 -1.703125 12.234375 9.375 
Q 8.59375 20.453125 8.59375 31.390625 
Q 8.59375 42.28125 12.203125 53.3125 
Q 15.828125 64.359375 23.1875 75.875 
z
" id="DejaVuSans-28"/>
      <path d="M 9.078125 75.984375 
L 18.109375 75.984375 
L 18.109375 31.109375 
L 44.921875 54.6875 
L 56.390625 54.6875 
L 27.390625 29.109375 
L 57.625 0 
L 45.90625 0 
L 18.109375 26.703125 
L 18.109375 0 
L 9.078125 0 
z
" id="DejaVuSans-6b"/>
      <path d="M 48.6875 27.296875 
Q 48.6875 37.203125 44.609375 42.84375 
Q 40.53125 48.484375 33.40625 48.484375 
Q 26.265625 48.484375 22.1875 42.84375 
Q 18.109375 37.203125 18.109375 27.296875 
Q 18.109375 17.390625 22.1875 11.75 
Q 26.265625 6.109375 33.40625 6.109375 
Q 40.53125 6.109375 44.609375 11.75 
Q 48.6875 17.390625 48.6875 27.296875 
z
M 18.109375 46.390625 
Q 20.953125 51.265625 25.265625 53.625 
Q 29.59375 56 35.59375 56 
Q 45.5625 56 51.78125 48.09375 
Q 58.015625 40.1875 58.015625 27.296875 
Q 58.015625 14.40625 51.78125 6.484375 
Q 45.5625 -1.421875 35.59375 -1.421875 
Q 29.59375 -1.421875 25.265625 0.953125 
Q 20.953125 3.328125 18.109375 8.203125 
L 18.109375 0 
L 9.078125 0 
L 9.078125 75.984375 
L 18.109375 75.984375 
z
" id="DejaVuSans-62"/>
      <path d="M 8.015625 75.875 
L 15.828125 75.875 
Q 23.140625 64.359375 26.78125 53.3125 
Q 30.421875 42.28125 30.421875 31.390625 
Q 30.421875 20.453125 26.78125 9.375 
Q 23.140625 -1.703125 15.828125 -13.1875 
L 8.015625 -13.1875 
Q 14.5 -2 17.703125 9.0625 
Q 20.90625 20.125 20.90625 31.390625 
Q 20.90625 42.671875 17.703125 53.65625 
Q 14.5 64.65625 8.015625 75.875 
z
" id="DejaVuSans-29"/>
     </defs>
     <g transform="translate(3.115625 454.665625)rotate(-90)scale(0.2 -0.2)">
      <use xlink:href="#DejaVuSans-42"/>
      <use x="68.603516" xlink:href="#DejaVuSans-61"/>
      <use x="129.882812" xlink:href="#DejaVuSans-6e"/>
      <use x="193.261719" xlink:href="#DejaVuSans-64"/>
      <use x="256.738281" xlink:href="#DejaVuSans-77"/>
      <use x="338.525391" xlink:href="#DejaVuSans-69"/>
      <use x="366.308594" xlink:href="#DejaVuSans-64"/>
      <use x="429.785156" xlink:href="#DejaVuSans-74"/>
      <use x="468.994141" xlink:href="#DejaVuSans-68"/>
      <use x="532.373047" xlink:href="#DejaVuSans-20"/>
      <use x="564.160156" xlink:href="#DejaVuSans-28"/>
      <use x="603.173828" xlink:href="#DejaVuSans-6b"/>
      <use x="661.083984" xlink:href="#DejaVuSans-62"/>
      <use x="724.560547" xlink:href="#DejaVuSans-70"/>
      <use x="788.037109" xlink:href="#DejaVuSans-73"/>
      <use x="840.136719" xlink:href="#DejaVuSans-29"/>
     </g>
    </g>
   </g>
   <g id="line2d_14">
    <path clip-path="url(#p93a8cec5c8)" d="M 125.926136 686.827262 
L 126.872778 679.585712 
L 127.819419 682.881347 
L 128.76606 685.229934 
L 129.712701 684.619861 
L 130.659342 683.383218 
L 131.605983 680.209175 
L 133.499265 684.731159 
L 134.445907 686.545923 
L 136.339189 684.201464 
L 137.28583 680.805857 
L 138.232471 680.778033 
L 139.179112 683.047262 
L 140.125753 678.95193 
L 141.072395 681.206737 
L 142.019036 682.173379 
L 142.965677 654.301592 
L 143.912318 677.88017 
L 144.858959 653.798689 
L 145.8056 661.526656 
L 146.752241 671.989656 
L 147.698883 668.747593 
L 148.645524 668.830035 
L 149.592165 660.25085 
L 150.538806 664.095774 
L 151.485447 658.606128 
L 152.432088 651.646937 
L 153.378729 674.141408 
L 154.325371 669.256675 
L 155.272012 683.930431 
L 156.218653 684.974367 
L 157.165294 685.489628 
L 158.111935 672.786256 
L 159.058576 679.116813 
L 160.005217 679.99895 
L 160.951859 682.752532 
L 161.8985 681.614828 
L 162.845141 686.084247 
L 163.791782 682.242418 
L 164.738423 686.692256 
L 165.685064 685.514357 
L 166.631705 686.996272 
L 167.578347 685.082569 
L 168.524988 687.084893 
L 169.471629 682.278486 
L 170.41827 685.317534 
L 171.364911 687.064279 
L 172.311552 687.154964 
L 173.258193 687.113749 
L 174.204835 685.938945 
L 175.151476 683.094668 
L 176.098117 685.938945 
L 177.991399 687.023064 
L 178.93804 679.512534 
L 179.884681 685.473142 
L 180.831323 685.526727 
L 181.777964 687.113749 
L 182.724605 686.909703 
L 183.671246 682.934932 
L 184.617887 685.390701 
L 185.564528 687.128171 
L 186.511169 686.986997 
L 187.45781 685.650395 
L 188.404452 685.5226 
L 189.351093 687.154964 
L 190.297734 687.142605 
L 191.244375 685.609169 
L 192.191016 685.587523 
L 193.137657 687.092104 
L 194.084298 686.757179 
L 195.03094 685.555583 
L 195.977581 684.840392 
L 196.924222 679.755742 
L 197.870863 683.065811 
L 198.817504 684.204559 
L 199.764145 684.788871 
L 200.710786 679.199254 
L 202.604069 686.162561 
L 203.55071 686.851991 
L 204.497351 683.279132 
L 205.443992 685.674092 
L 206.390633 684.446724 
L 207.337274 681.301548 
L 208.283916 685.596798 
L 209.230557 682.815392 
L 210.177198 683.809859 
L 211.123839 682.769018 
L 212.07048 685.960579 
L 213.017121 666.667976 
L 213.963762 659.069868 
L 214.910404 665.027369 
L 215.857045 667.880922 
L 216.803686 675.415138 
L 218.696968 644.869127 
L 219.643609 650.648355 
L 220.59025 674.003306 
L 221.536892 679.548612 
L 222.483533 687.02718 
L 223.430174 681.845666 
L 224.376815 686.694319 
L 225.323456 680.210207 
L 226.270097 680.038113 
L 227.216738 677.357697 
L 228.16338 675.61712 
L 229.110021 679.808307 
L 230.056662 687.142605 
L 231.003303 686.739662 
L 231.949944 682.467077 
L 232.896585 682.360927 
L 233.843226 680.265855 
L 234.789868 683.254403 
L 235.736509 676.235447 
L 236.68315 672.055599 
L 237.629791 675.327549 
L 238.576432 662.053256 
L 239.523073 674.762819 
L 240.469714 671.946365 
L 241.416355 670.411909 
L 242.362997 678.333614 
L 243.309638 680.971772 
L 244.256279 682.715433 
L 245.20292 684.154058 
L 246.149561 677.235062 
L 247.096202 678.615974 
L 248.042843 677.869875 
L 248.989485 675.730481 
L 249.936126 675.667621 
L 250.882767 683.044178 
L 251.829408 678.514983 
L 252.776049 682.744289 
L 253.72269 685.555583 
L 254.669331 674.730867 
L 255.615973 685.609169 
L 256.562614 683.93559 
L 257.509255 681.961079 
L 258.455896 683.865507 
L 259.402537 680.132924 
L 260.349178 682.505208 
L 261.295819 682.235207 
L 262.242461 679.467191 
L 263.189102 684.022147 
L 264.135743 682.340325 
L 265.082384 682.425851 
L 266.029025 683.867571 
L 266.975666 683.980932 
L 268.868949 682.257872 
L 269.81559 679.605281 
L 270.762231 684.020083 
L 271.708872 679.978337 
L 272.655513 683.225547 
L 273.602154 684.039665 
L 274.548795 680.756388 
L 275.495437 670.213011 
L 276.442078 663.770125 
L 277.388719 649.750752 
L 278.33536 652.326061 
L 279.282001 650.682359 
L 280.228642 659.215169 
L 281.175283 666.309354 
L 282.121925 651.684036 
L 283.068566 652.937165 
L 284.015207 642.264962 
L 285.908489 666.264012 
L 286.85513 642.90905 
L 287.801771 640.028716 
L 288.748413 659.416119 
L 290.641695 618.129896 
L 291.588336 627.78804 
L 292.534977 666.118711 
L 293.481618 686.699479 
L 294.428259 659.969523 
L 295.3749 657.719864 
L 296.321542 677.426737 
L 297.268183 685.44119 
L 298.214824 685.732836 
L 299.161465 687.018937 
L 300.108106 685.555583 
L 301.054747 687.060164 
L 302.001388 684.269483 
L 302.94803 687.017905 
L 303.894671 678.817956 
L 304.841312 680.357572 
L 305.787953 687.048825 
L 306.734594 683.996386 
L 307.681235 686.821071 
L 308.627876 685.609169 
L 309.574518 685.4278 
L 310.521159 686.499549 
L 311.4678 686.397526 
L 312.414441 686.871572 
L 313.361082 683.844894 
L 314.307723 681.292274 
L 315.254364 682.888558 
L 316.201006 686.977722 
L 317.147647 687.025117 
L 319.98757 686.708753 
L 320.934211 687.028212 
L 321.880852 683.528519 
L 322.827494 682.476352 
L 323.774135 682.094022 
L 324.720776 672.844989 
L 325.667417 672.72648 
L 326.614058 670.683962 
L 327.560699 673.677668 
L 328.50734 663.916458 
L 329.453982 655.532044 
L 330.400623 655.202279 
L 331.347264 662.961154 
L 332.293905 659.983945 
L 333.240546 655.122921 
L 334.187187 667.875763 
L 335.133828 662.038822 
L 336.08047 665.760078 
L 337.027111 659.069868 
L 337.973752 643.621145 
L 338.920393 654.661245 
L 339.867034 671.437284 
L 340.813675 673.07789 
L 341.760316 675.553228 
L 342.706958 669.888393 
L 343.653599 671.927816 
L 344.60024 687.072522 
L 345.546881 683.845926 
L 346.493522 687.093136 
L 347.440163 683.681043 
L 348.386804 678.866393 
L 349.333445 669.79255 
L 350.280087 671.310532 
L 351.226728 678.641735 
L 352.173369 674.664912 
L 353.12001 668.48172 
L 354.066651 669.677136 
L 355.013292 687.154964 
L 355.959933 686.988017 
L 356.906575 685.436043 
L 357.853216 686.916914 
L 358.799857 666.104277 
L 359.746498 664.627521 
L 360.693139 647.513475 
L 361.63978 650.097015 
L 362.586421 665.468444 
L 363.533063 666.551531 
L 364.479704 666.465994 
L 365.426345 653.221589 
L 366.372986 666.43817 
L 367.319627 653.782203 
L 368.266268 665.555001 
L 369.212909 665.377748 
L 370.159551 656.602773 
L 371.106192 663.888633 
L 372.052833 655.891697 
L 372.999474 669.76061 
L 373.946115 655.211553 
L 374.892756 659.622228 
L 375.839397 669.612213 
L 376.786039 664.115356 
L 377.73268 665.125276 
L 378.679321 654.602501 
L 379.625962 659.86852 
L 380.572603 663.530012 
L 381.519244 662.852952 
L 382.465885 682.517567 
L 383.412527 687.113749 
L 384.359168 685.567954 
L 385.305809 682.925658 
L 386.25245 686.891154 
L 387.199091 686.90764 
L 388.145732 682.654637 
L 389.092373 673.47877 
L 390.039015 687.018937 
L 390.985656 683.347151 
L 391.932297 685.652447 
L 392.878938 685.567954 
L 393.825579 681.285051 
L 394.77222 687.142605 
L 395.718861 686.928253 
L 396.665503 685.609169 
L 397.612144 687.051921 
L 398.558785 687.113749 
L 399.505426 684.351924 
L 400.452067 678.95193 
L 401.398708 684.568328 
L 402.345349 687.113749 
L 403.29199 687.113749 
L 404.238632 679.926815 
L 405.185273 684.351924 
L 406.131914 685.886381 
L 407.078555 683.918061 
L 408.025196 686.004889 
L 408.971837 682.713369 
L 410.86512 685.518484 
L 411.811761 685.555583 
L 412.758402 683.743903 
L 413.705043 686.517066 
L 414.651684 684.174671 
L 415.598325 687.055005 
L 416.544966 681.054213 
L 417.491608 686.930317 
L 418.438249 686.577874 
L 419.38489 683.502759 
L 420.331531 679.867039 
L 421.278172 669.45351 
L 422.224813 680.125702 
L 423.171454 682.5691 
L 424.118096 685.556615 
L 425.064737 686.989049 
L 426.011378 687.107569 
L 426.958019 684.450851 
L 427.90466 682.60002 
L 428.851301 687.09004 
L 429.797942 686.990081 
L 430.744584 686.730387 
L 431.691225 683.486273 
L 432.637866 685.197982 
L 433.584507 687.154964 
L 434.531148 685.69161 
L 435.477789 687.078713 
L 437.371072 687.044698 
L 438.317713 684.553906 
L 439.264354 685.098023 
L 440.210995 686.969468 
L 441.157636 687.142605 
L 442.104277 687.117864 
L 443.050918 685.650395 
L 443.99756 686.989049 
L 444.944201 685.732836 
L 445.890842 687.154964 
L 446.837483 685.650395 
L 447.784124 687.131267 
L 448.730765 687.137446 
L 449.677406 685.732836 
L 450.624048 687.154964 
L 451.570689 687.061195 
L 452.51733 686.565504 
L 453.463971 686.5315 
L 454.410612 687.154964 
L 455.357253 687.047793 
L 456.303894 684.553906 
L 457.250535 687.078713 
L 458.197177 687.154964 
L 459.143818 686.734514 
L 460.090459 687.031307 
L 461.0371 685.220659 
L 461.983741 686.572715 
L 462.930382 686.887026 
L 464.823665 686.593328 
L 465.770306 682.872073 
L 466.716947 682.805085 
L 467.663588 686.1368 
L 468.610229 683.357457 
L 469.55687 684.634283 
L 470.503511 684.728063 
L 471.450153 681.09028 
L 472.396794 684.35604 
L 473.343435 685.542181 
L 474.290076 681.568454 
L 475.236717 683.708868 
L 476.183358 682.09299 
L 477.129999 686.9705 
L 478.076641 684.339554 
L 479.023282 681.329373 
L 479.969923 683.700625 
L 480.916564 684.108716 
L 481.863205 685.476226 
L 482.809846 682.781388 
L 483.756487 664.022608 
L 484.703129 670.768467 
L 485.64977 668.326112 
L 486.596411 675.865488 
L 487.543052 669.9863 
L 488.489693 679.771208 
L 489.436334 673.087165 
L 490.382975 676.234416 
L 491.329617 666.475269 
L 492.276258 666.856567 
L 493.222899 679.76708 
L 494.16954 679.540358 
L 495.116181 684.441576 
L 496.062822 684.892946 
L 497.009463 678.940592 
L 497.956105 680.95219 
L 498.902746 682.12391 
L 499.849387 682.008485 
L 500.796028 682.575279 
L 501.742669 686.523257 
L 502.68931 684.912527 
L 503.635951 545.11356 
L 504.582593 640.667645 
L 505.529234 674.930785 
L 506.475875 680.604907 
L 507.422516 649.479731 
L 508.369157 668.28179 
L 509.315798 672.61931 
L 510.262439 602.593585 
L 511.20908 657.873419 
L 512.155722 640.311076 
L 513.102363 607.309295 
L 514.049004 653.216441 
L 514.995645 676.1056 
L 515.942286 679.164219 
L 516.888927 681.412846 
L 517.835568 687.131267 
L 518.78221 684.18703 
L 519.728851 682.340325 
L 520.675492 686.948866 
L 521.622133 687.101379 
L 522.568774 682.546423 
L 523.515415 687.007599 
L 524.462056 686.705658 
L 525.408698 686.710805 
L 526.355339 682.921542 
L 527.30198 685.726645 
L 528.248621 687.031307 
L 529.195262 687.08902 
L 530.141903 687.024096 
L 531.088544 687.154964 
L 532.981827 687.154964 
L 533.928468 685.981192 
L 534.875109 687.137446 
L 536.768391 687.142605 
L 538.661674 684.271535 
L 539.608315 681.780742 
L 540.554956 684.04276 
L 541.501597 686.602603 
L 542.448238 685.815278 
L 543.394879 682.785516 
L 544.34152 682.281581 
L 545.288162 683.79852 
L 546.234803 685.638025 
L 547.181444 685.69161 
L 548.128085 687.154964 
L 549.074726 685.650395 
L 550.021367 687.062216 
L 550.968008 687.002451 
L 551.91465 680.250401 
L 553.807932 684.896041 
L 554.754573 677.126859 
L 555.701214 679.430092 
L 556.647855 685.544245 
L 557.594496 682.60002 
L 558.541138 683.788213 
L 560.43442 673.286063 
L 561.381061 676.532241 
L 562.327702 687.037487 
L 563.274343 685.391733 
L 564.220984 671.45377 
L 565.167625 672.319421 
L 566.114267 676.045824 
L 567.060908 671.411523 
L 568.007549 657.323111 
L 568.95419 670.985914 
L 569.900831 676.568308 
L 570.847472 665.505543 
L 571.794113 672.126714 
L 572.740755 685.437075 
L 573.687396 670.937477 
L 574.634037 679.44659 
L 575.580678 682.140396 
L 576.527319 686.864361 
L 577.47396 687.101379 
L 578.420601 679.77945 
L 579.367243 674.527854 
L 580.313884 670.803502 
L 581.260525 687.055005 
L 582.207166 684.278757 
L 583.153807 679.893832 
L 584.100448 678.365555 
L 585.047089 671.337324 
L 585.993731 586.993381 
L 586.940372 643.120306 
L 587.887013 680.536888 
L 588.833654 679.343535 
L 589.780295 675.844874 
L 590.726936 680.677042 
L 591.673577 679.925784 
L 592.620219 679.810359 
L 593.56686 684.393139 
L 594.513501 685.483449 
L 595.460142 686.400621 
L 596.406783 684.890894 
L 597.353424 687.04573 
L 598.300065 680.765663 
L 599.246707 677.144377 
L 600.193348 682.041468 
L 601.139989 672.420412 
L 602.08663 681.748791 
L 603.033271 679.267273 
L 603.979912 678.812808 
L 604.926553 683.38425 
L 605.873195 685.997678 
L 606.819836 685.251579 
L 607.766477 685.270128 
L 608.713118 684.067489 
L 609.659759 686.375881 
L 610.6064 685.040311 
L 611.553041 686.578906 
L 612.499683 685.001159 
L 613.446324 685.377299 
L 614.392965 685.549404 
L 615.339606 686.321264 
L 616.286247 686.700499 
L 617.232888 682.236239 
L 618.179529 685.826616 
L 620.072812 681.4283 
L 621.019453 680.789371 
L 621.966094 682.71956 
L 622.912735 687.099315 
L 623.859376 686.807681 
L 624.806017 687.154964 
L 625.752658 679.973189 
L 626.6993 682.078568 
L 628.592582 687.072522 
L 629.539223 683.956192 
L 630.485864 686.697415 
L 631.432505 684.440544 
L 632.379146 680.141167 
L 633.325788 681.195398 
L 634.272429 686.457302 
L 635.21907 686.564472 
L 636.165711 674.791663 
L 637.112352 687.018937 
L 638.058993 684.653865 
L 639.005634 680.89551 
L 639.952276 682.747385 
L 640.898917 687.064279 
L 642.792199 680.796582 
L 643.73884 680.617266 
L 644.685481 684.063373 
L 645.632122 684.73837 
L 646.578764 676.97124 
L 647.525405 674.704075 
L 648.472046 682.675238 
L 649.418687 685.545277 
L 650.365328 686.73863 
L 651.311969 681.580813 
L 652.25861 680.269983 
L 653.205252 686.829326 
L 654.151893 686.949898 
L 655.098534 683.912913 
L 656.045175 686.235739 
L 656.991816 685.498903 
L 657.938457 682.362991 
L 658.885098 677.783306 
L 659.83174 685.291762 
L 660.778381 684.098409 
L 661.725022 676.238531 
L 662.671663 682.777261 
L 663.618304 674.680366 
L 664.564945 684.063373 
L 665.511586 684.895009 
L 666.458228 680.729595 
L 667.404869 683.84799 
L 669.298151 677.549373 
L 670.244792 685.585471 
L 671.191433 684.128297 
L 672.138074 681.295358 
L 673.084715 625.193162 
L 674.031357 646.467475 
L 674.977998 678.869489 
L 675.924639 675.013238 
L 676.87128 643.107948 
L 677.817921 680.353456 
L 678.764562 644.891792 
L 679.711203 595.184056 
L 680.657845 674.232092 
L 681.604486 672.15557 
L 682.551127 674.025983 
L 683.497768 631.74323 
L 684.444409 684.05513 
L 685.39105 682.706158 
L 686.337691 676.169492 
L 687.284333 662.009977 
L 688.230974 685.314439 
L 689.177615 681.577729 
L 690.124256 673.470527 
L 691.070897 682.339294 
L 692.017538 683.04521 
L 692.964179 677.734869 
L 693.910821 677.417462 
L 694.857462 657.599291 
L 695.804103 684.104588 
L 696.750744 685.341231 
L 697.697385 685.512305 
L 698.644026 687.053973 
L 699.590667 687.07047 
L 700.537309 684.435397 
L 701.48395 686.365586 
L 702.430591 679.706284 
L 703.377232 686.992145 
L 704.323873 683.767612 
L 705.270514 684.266387 
L 706.217155 683.008111 
L 707.163797 675.706784 
L 708.110438 685.733868 
L 709.057079 685.543213 
L 710.00372 677.744143 
L 710.950361 683.93559 
L 711.897002 683.64188 
L 712.843643 684.883671 
L 713.790285 650.035187 
L 714.736926 684.128297 
L 715.683567 686.449059 
L 716.630208 687.056036 
L 717.576849 686.965352 
L 718.52349 683.855201 
L 719.470131 684.083987 
L 720.416772 684.641495 
L 721.363414 664.39462 
L 722.310055 687.142605 
L 724.203337 683.655282 
L 725.149978 687.095199 
L 726.096619 685.364928 
L 727.04326 685.44119 
L 727.989902 687.044698 
L 728.936543 681.342763 
L 729.883184 681.342763 
L 730.829825 687.101379 
L 731.776466 687.036455 
L 732.723107 682.558793 
L 733.669748 685.491692 
L 734.61639 685.574133 
L 735.563031 686.494401 
L 736.509672 685.609169 
L 737.456313 679.391961 
L 738.402954 684.879555 
L 739.349595 687.113749 
L 740.296236 663.988592 
L 741.242878 679.96803 
L 742.189519 685.204173 
L 743.13616 678.963269 
L 744.082801 678.374829 
L 745.029442 685.566922 
L 745.976083 682.490774 
L 746.922724 477.276686 
L 747.869366 304.386286 
L 748.816007 173.059333 
L 749.762648 218.12864 
L 750.709289 100.394407 
L 751.65593 258.289529 
L 752.602571 676.189073 
L 753.549212 610.975934 
L 754.495854 684.190125 
L 755.442495 682.468109 
L 756.389136 683.511001 
L 757.335777 683.972689 
L 758.282418 683.131767 
L 759.229059 683.241001 
L 760.1757 684.789891 
L 761.122342 686.980806 
L 762.068983 568.752946 
L 763.015624 394.095188 
L 763.962265 663.434168 
L 764.908906 672.090646 
L 765.855547 677.825553 
L 766.802188 685.376267 
L 767.74883 685.390701 
L 768.695471 686.458334 
L 769.642112 684.798146 
L 770.588753 686.903524 
L 771.535394 679.376507 
L 772.482035 680.349329 
L 773.428676 682.083715 
L 774.375317 681.702417 
L 775.321959 680.511127 
L 776.2686 669.488545 
L 777.215241 679.570246 
L 778.161882 685.380394 
L 779.108523 686.778824 
L 780.055164 686.442868 
L 781.001805 687.154964 
L 781.948447 682.476352 
L 782.895088 685.556615 
L 783.841729 675.575905 
L 784.78837 685.572069 
L 785.735011 682.496965 
L 786.681652 681.824021 
L 787.628293 672.572936 
L 788.574935 682.438221 
L 789.521576 687.000388 
L 790.468217 661.259739 
L 791.414858 674.962737 
L 792.361499 678.478916 
L 793.30814 685.523632 
L 794.254781 680.363763 
L 795.201423 680.044292 
L 796.148064 684.35604 
L 797.094705 678.674718 
L 798.041346 677.067083 
L 798.987987 684.871312 
L 799.934628 683.41517 
L 800.881269 683.23998 
L 801.827911 679.349715 
L 802.774552 678.776741 
L 803.721193 683.382186 
L 804.667834 680.806889 
L 806.561116 686.742757 
L 807.507757 686.676802 
L 808.454399 683.600666 
L 809.40104 671.12812 
L 810.347681 682.55055 
L 811.294322 683.654251 
L 812.240963 687.104474 
L 813.187604 679.467191 
L 814.134245 687.105506 
L 815.080887 683.200818 
L 816.974169 683.295629 
L 817.92081 685.422641 
L 818.867451 679.408459 
L 819.814092 687.084893 
L 820.760733 679.990707 
L 821.707375 683.865507 
L 822.654016 648.742895 
L 823.600657 626.899724 
L 824.547298 625.976372 
L 825.493939 678.683993 
L 826.44058 681.952836 
L 827.387221 676.830066 
L 828.333862 678.410897 
L 829.280504 678.505708 
L 830.227145 676.72598 
L 831.173786 662.080048 
L 832.120427 682.525821 
L 833.067068 686.95195 
L 834.013709 685.615348 
L 834.96035 685.042374 
L 835.906992 647.942167 
L 836.853633 683.119408 
L 837.800274 678.571664 
L 838.746915 662.267608 
L 839.693556 674.460866 
L 840.640197 673.608617 
L 841.586838 685.356685 
L 842.53348 682.558793 
L 843.480121 674.241367 
L 844.426762 675.330633 
L 845.373403 668.220994 
L 847.266685 677.669945 
L 848.213326 679.240481 
L 849.159968 630.423113 
L 850.106609 605.834603 
L 851.05325 622.653932 
L 851.999891 682.574247 
L 852.946532 685.08978 
L 853.893173 686.758211 
L 854.839814 646.357209 
L 855.786456 671.059081 
L 857.679738 686.33673 
L 858.626379 672.160717 
L 859.57302 686.888058 
L 860.519661 671.747479 
L 861.466302 673.515869 
L 862.412944 685.470047 
L 863.359585 683.721238 
L 864.306226 685.643172 
L 865.252867 677.015562 
L 867.146149 682.843216 
L 868.09279 686.899397 
L 869.039432 686.015196 
L 870.932714 681.802387 
L 871.879355 681.059372 
L 872.825996 676.232352 
L 873.772637 683.332728 
L 874.719278 678.04918 
L 875.66592 683.666621 
L 876.612561 673.057277 
L 877.559202 675.507886 
L 878.505843 682.617537 
L 879.452484 684.104588 
L 880.399125 681.174785 
L 881.345766 681.407687 
L 882.292407 685.453561 
L 882.292407 685.453561 
" style="fill:none;stroke:#000000;stroke-linecap:square;stroke-width:1.5;"/>
   </g>
   <g id="line2d_15">
    <path clip-path="url(#p93a8cec5c8)" d="M 883.239049 684.463221 
L 884.18569 670.223317 
L 885.132331 687.096231 
L 886.078972 684.729095 
L 887.025613 680.899637 
L 887.972254 686.986997 
L 888.918895 686.072908 
L 889.865537 684.018031 
L 890.812178 686.375881 
L 891.758819 676.38178 
L 892.70546 685.582376 
L 893.652101 681.604521 
L 894.598742 685.430884 
L 895.545383 685.815278 
L 896.492025 669.101067 
L 897.438666 673.392201 
L 898.385307 685.412334 
L 899.331948 687.154964 
L 900.278589 685.595778 
L 901.22523 678.385136 
L 902.171871 675.902587 
L 903.118513 687.07047 
L 905.011795 687.053973 
L 905.958436 685.890508 
L 906.905077 677.318535 
L 907.851718 685.435011 
L 908.798359 686.854055 
L 909.745001 685.098023 
L 910.691642 686.978743 
L 911.638283 685.460772 
L 912.584924 673.232478 
L 913.531565 687.159091 
L 914.478206 685.650395 
L 915.424847 687.154964 
L 916.371489 687.060164 
L 917.31813 680.120554 
L 918.264771 681.301548 
L 919.211412 678.773645 
L 920.158053 680.768758 
L 921.104694 686.452143 
L 922.051335 671.576405 
L 922.997977 684.063373 
L 923.944618 686.949898 
L 924.891259 687.141573 
L 925.8379 682.225932 
L 926.784541 673.191251 
L 927.731182 681.46024 
L 928.677823 684.18703 
L 929.624465 679.830972 
L 930.571106 682.692768 
L 931.517747 675.779951 
L 932.464388 674.433042 
L 933.411029 677.943041 
L 934.35767 676.956818 
L 935.304311 678.827231 
L 936.250952 675.161635 
L 937.197594 685.838975 
L 938.144235 686.831378 
L 939.090876 686.843748 
L 940.037517 685.122764 
L 940.984158 669.929619 
L 941.930799 676.976399 
L 942.87744 687.072522 
L 943.824082 685.830732 
L 944.770723 680.085519 
L 945.717364 685.856492 
L 946.664005 684.224129 
L 947.610646 684.370473 
L 948.557287 680.479176 
L 949.503928 677.591631 
L 950.45057 685.196962 
L 951.397211 686.517066 
L 952.343852 681.150056 
L 953.290493 684.956837 
L 954.237134 686.895269 
L 955.183775 686.587149 
L 956.130416 685.499935 
L 957.077058 683.230706 
L 958.023699 676.144763 
L 959.916981 685.914205 
L 960.863622 685.596798 
L 961.810263 685.679251 
L 962.756904 681.614828 
L 963.703546 684.197336 
L 964.650187 678.460366 
L 965.596828 678.797354 
L 966.543469 687.072522 
L 967.49011 685.650395 
L 968.436751 685.49066 
L 969.383392 685.588555 
L 970.330034 686.091458 
L 971.276675 687.033371 
L 972.223316 685.578249 
L 973.169957 686.756147 
L 975.063239 684.182914 
L 976.00988 687.154964 
L 976.956522 687.134362 
L 977.903163 686.561377 
L 978.849804 685.015582 
L 979.796445 687.080765 
L 980.743086 687.142605 
L 981.689727 686.845812 
L 982.636368 685.596798 
L 983.58301 685.605053 
L 985.476292 675.774792 
L 986.422933 683.999482 
L 988.316215 687.154964 
L 989.262856 687.10859 
L 990.209497 684.098409 
L 991.156139 687.113749 
L 992.10278 686.990081 
L 993.049421 683.987111 
L 993.996062 664.82126 
L 994.942703 683.129703 
L 995.889344 682.574247 
L 996.835985 687.142605 
L 997.782627 686.816955 
L 998.729268 686.309937 
L 999.675909 683.920124 
L 1000.62255 668.215835 
L 1001.569191 670.756108 
L 1002.515832 680.445172 
L 1003.462473 686.911767 
L 1004.409115 685.148524 
L 1005.355756 681.548872 
L 1007.249038 686.743789 
L 1009.14232 686.799438 
L 1010.088961 685.423673 
L 1011.035603 682.639171 
L 1011.982244 682.452643 
L 1012.928885 678.111019 
L 1013.875526 686.791195 
L 1014.822167 685.330925 
L 1016.715449 685.456656 
L 1017.662091 686.578906 
L 1018.608732 686.586117 
L 1019.555373 685.682335 
L 1020.502014 686.277985 
L 1021.448655 685.341231 
L 1022.395296 681.482917 
L 1023.341937 685.615348 
L 1024.288579 685.493755 
L 1025.23522 681.443754 
L 1026.181861 680.209175 
L 1027.128502 686.937528 
L 1028.075143 685.585471 
L 1029.021784 685.491692 
L 1029.968425 682.184706 
L 1030.915067 677.756514 
L 1031.861708 678.772614 
L 1032.808349 686.386188 
L 1033.75499 686.219241 
L 1034.701631 682.685545 
L 1035.648272 681.204673 
L 1036.594913 684.961997 
L 1037.541555 682.426882 
L 1038.488196 684.744549 
L 1039.434837 681.906462 
L 1040.381478 686.380008 
L 1041.328119 684.608523 
L 1042.27476 686.700499 
L 1043.221401 685.484481 
L 1044.168042 681.237645 
L 1045.114684 685.588555 
L 1046.061325 683.842842 
L 1047.007966 687.07149 
L 1047.954607 687.062216 
L 1048.901248 684.946542 
L 1049.847889 686.954014 
L 1050.79453 684.18703 
L 1051.741172 683.980932 
L 1052.687813 687.154964 
L 1052.687813 687.154964 
" style="fill:none;stroke:#1f77b4;stroke-linecap:square;stroke-width:1.5;"/>
   </g>
   <g id="line2d_16">
    <path clip-path="url(#p93a8cec5c8)" d="M 1053.634454 685.585471 
L 1054.581095 684.001534 
L 1055.527736 685.452529 
L 1056.474377 687.154964 
L 1057.421018 685.567954 
L 1058.36766 687.025117 
L 1059.314301 687.154964 
L 1060.260942 683.791309 
L 1061.207583 687.159091 
L 1062.154224 686.940623 
L 1063.100865 685.44119 
L 1064.047506 685.732836 
L 1064.994148 686.549018 
L 1065.940789 683.965466 
L 1066.88743 687.113749 
L 1067.834071 685.609169 
L 1068.780712 685.567954 
L 1069.727353 687.154964 
L 1070.673994 687.03955 
L 1071.620636 687.113749 
" style="fill:none;stroke:#ff7f0e;stroke-linecap:square;stroke-width:1.5;"/>
   </g>
   <g id="line2d_17">
    <path clip-path="url(#p93a8cec5c8)" d="M 1072.567277 685.650395 
L 1073.513918 681.445818 
L 1074.460559 687.113749 
L 1075.4072 687.040582 
L 1076.353841 685.122764 
L 1077.300482 683.630542 
L 1078.247124 685.319586 
L 1079.193765 682.211499 
L 1080.140406 684.44364 
L 1081.087047 685.98016 
L 1082.033688 687.154964 
L 1082.980329 687.113749 
L 1083.92697 682.558793 
L 1085.820253 669.26595 
L 1086.766894 673.455073 
L 1087.713535 658.681347 
L 1088.660176 662.880776 
L 1089.606817 658.147536 
L 1090.553458 673.123232 
L 1091.5001 677.804951 
L 1092.446741 683.862412 
L 1093.393382 672.492546 
L 1095.286664 686.080119 
L 1096.233305 683.131767 
L 1097.179946 679.004484 
L 1098.126587 677.208269 
L 1099.073229 685.617411 
L 1100.01987 684.102536 
L 1100.966511 685.428832 
L 1101.913152 685.489628 
L 1102.859793 686.877752 
L 1103.806434 680.948075 
L 1104.753075 683.357457 
L 1105.699717 681.313907 
L 1106.646358 674.117699 
L 1107.592999 681.037727 
L 1108.53964 682.145555 
L 1109.486281 685.455624 
L 1110.432922 682.222837 
L 1111.379563 670.715913 
L 1112.326205 680.955286 
L 1113.272846 682.411428 
L 1114.219487 686.607751 
L 1115.166128 683.376007 
L 1116.112769 686.659284 
L 1117.05941 676.95167 
L 1118.006051 680.811005 
L 1118.952693 687.010694 
L 1119.899334 679.332197 
L 1120.845975 687.154964 
L 1121.792616 676.41888 
L 1122.739257 669.609117 
L 1123.685898 686.608783 
L 1124.632539 681.989935 
L 1125.579181 682.01776 
L 1126.525822 685.366992 
L 1127.472463 685.051649 
L 1128.419104 683.088488 
L 1129.365745 683.820165 
L 1130.312386 668.24985 
L 1131.259027 672.308082 
L 1132.205669 685.650395 
L 1133.15231 685.5226 
L 1134.098951 683.401768 
L 1135.045592 682.16822 
L 1135.992233 686.928253 
L 1136.938874 686.945771 
L 1137.885515 685.383478 
L 1138.832157 687.031307 
L 1139.778798 687.137446 
L 1140.725439 681.893072 
L 1141.67208 685.393785 
L 1142.618721 686.007985 
L 1143.565362 686.954014 
L 1144.512003 685.325777 
L 1145.458645 682.341346 
L 1146.405286 685.485501 
L 1147.351927 685.555583 
L 1148.298568 681.19643 
L 1149.245209 680.879024 
L 1150.19185 685.509209 
L 1151.138491 685.099055 
L 1152.085132 686.740693 
L 1153.031774 686.977722 
L 1153.978415 683.726385 
L 1154.925056 686.984933 
L 1155.871697 685.393785 
L 1156.818338 686.792226 
L 1157.764979 685.358749 
L 1158.71162 687.063248 
L 1160.604903 687.064279 
L 1164.391467 687.099315 
L 1165.338108 686.776761 
L 1166.28475 686.742757 
L 1167.231391 687.154964 
L 1168.178032 687.060164 
L 1169.124673 685.609169 
L 1170.071314 687.104474 
L 1171.017955 685.573101 
L 1171.964596 685.650395 
L 1172.911238 686.79531 
L 1173.857879 683.863444 
L 1174.80452 685.399976 
L 1175.751161 685.419557 
L 1176.697802 686.694319 
L 1177.644443 681.335552 
L 1178.591084 684.996 
L 1179.537726 685.28971 
L 1180.484367 680.311198 
L 1181.431008 682.056922 
L 1182.377649 686.071876 
L 1183.32429 683.235853 
L 1184.270931 680.930557 
L 1185.217572 682.484595 
L 1186.164214 680.835745 
L 1187.110855 682.63196 
L 1188.057496 682.793758 
L 1189.004137 685.492723 
L 1189.950778 685.938945 
L 1190.897419 682.078568 
L 1191.84406 685.294857 
L 1192.790702 681.772499 
L 1193.737343 669.676105 
L 1194.683984 660.643487 
L 1195.630625 678.466545 
L 1196.577266 671.797969 
L 1197.523907 684.076764 
L 1199.41719 667.525384 
L 1200.363831 669.015531 
L 1201.310472 677.636973 
L 1202.257113 676.031402 
L 1203.203754 680.459594 
L 1204.150395 673.797208 
L 1205.097036 672.830566 
L 1206.043677 682.598988 
L 1206.990319 684.459094 
L 1207.93696 684.019063 
L 1208.883601 685.544245 
L 1209.830242 678.842696 
L 1210.776883 681.590087 
L 1211.723524 674.873085 
L 1212.670165 678.263532 
L 1213.616807 683.257498 
L 1214.563448 683.264709 
L 1215.510089 671.877326 
L 1216.45673 684.434365 
L 1217.403371 682.641234 
L 1218.350012 684.104588 
L 1219.296653 679.173493 
L 1220.243295 677.410251 
L 1221.189936 671.37236 
L 1222.136577 672.475029 
L 1223.083218 677.855441 
L 1224.029859 679.732045 
L 1224.9765 681.173753 
L 1225.923141 46.340909 
L 1226.869783 110.749205 
L 1227.816424 82.889788 
L 1228.763065 95.21083 
L 1229.709706 64.840007 
L 1230.656347 485.281865 
L 1231.602988 685.732836 
L 1232.549629 687.040582 
L 1233.496271 685.512305 
L 1234.442912 683.118376 
L 1235.389553 686.799438 
L 1236.336194 687.109621 
L 1237.282835 687.028212 
L 1238.229476 687.066343 
L 1239.176117 685.224786 
L 1240.122759 686.989049 
L 1241.0694 685.036195 
L 1242.016041 685.54734 
L 1242.962682 687.060164 
L 1243.909323 687.04573 
L 1244.855964 685.151608 
L 1245.802605 686.765422 
L 1246.749247 686.48821 
L 1248.642529 681.093376 
L 1249.58917 682.158945 
L 1252.429093 687.097263 
L 1254.322376 687.109621 
L 1255.269017 686.739662 
L 1256.215658 687.01379 
L 1257.162299 687.154964 
L 1258.10894 682.467077 
L 1259.055581 682.401122 
L 1260.002222 685.528791 
L 1260.948864 684.085007 
L 1260.948864 684.085007 
" style="fill:none;stroke:#2ca02c;stroke-linecap:square;stroke-width:1.5;"/>
   </g>
   <g id="line2d_18">
    <path clip-path="url(#p93a8cec5c8)" d="M 170.41827 678.042785 
L 171.364911 678.047723 
L 173.258193 678.293591 
L 177.044758 678.459485 
L 177.991399 678.554359 
L 179.884681 678.423288 
L 181.777964 678.487073 
L 183.671246 678.659172 
L 184.617887 678.707994 
L 186.511169 678.998754 
L 187.45781 679.071192 
L 188.404452 679.72163 
L 189.351093 679.914855 
L 190.297734 680.60952 
L 191.244375 681.111239 
L 193.137657 681.776705 
L 194.084298 682.150187 
L 195.977581 683.109549 
L 196.924222 683.550166 
L 197.870863 684.204725 
L 198.817504 684.414374 
L 199.764145 684.737962 
L 201.657428 684.595941 
L 202.604069 684.609961 
L 203.55071 684.902997 
L 206.390633 685.14324 
L 212.07048 684.999673 
L 213.017121 684.616036 
L 213.963762 684.03239 
L 217.750327 682.486698 
L 219.643609 680.871381 
L 221.536892 680.548846 
L 222.483533 680.561234 
L 223.430174 680.453371 
L 224.376815 680.602992 
L 227.216738 680.17575 
L 228.16338 679.940488 
L 230.056662 679.911848 
L 231.949944 679.809589 
L 234.789868 679.550281 
L 237.629791 678.826933 
L 238.576432 678.305291 
L 241.416355 677.471289 
L 247.096202 677.223854 
L 250.882767 676.606029 
L 251.829408 676.482451 
L 253.72269 676.511649 
L 254.669331 676.343222 
L 256.562614 676.405011 
L 257.509255 676.321688 
L 261.295819 677.781953 
L 262.242461 677.866371 
L 263.189102 678.381444 
L 265.082384 679.824125 
L 266.975666 680.12197 
L 269.81559 679.902789 
L 274.548795 680.298384 
L 275.495437 679.945684 
L 276.442078 679.467152 
L 279.282001 677.543513 
L 280.228642 677.042696 
L 281.175283 676.835902 
L 284.961848 675.098338 
L 285.908489 674.979956 
L 286.85513 674.406979 
L 287.801771 673.608961 
L 288.748413 673.159884 
L 289.695054 672.268044 
L 290.641695 670.892541 
L 291.588336 669.862395 
L 292.534977 669.602035 
L 293.481618 669.785985 
L 295.3749 669.08372 
L 296.321542 668.96669 
L 298.214824 669.173248 
L 299.161465 669.203734 
L 300.108106 669.429249 
L 308.627876 669.788926 
L 313.361082 670.06483 
L 315.254364 670.113115 
L 319.040929 670.459138 
L 319.98757 670.583145 
L 321.880852 671.345095 
L 323.774135 672.647044 
L 324.720776 673.108766 
L 325.667417 673.390252 
L 326.614058 673.481389 
L 327.560699 673.93959 
L 329.453982 674.444723 
L 331.347264 674.402836 
L 333.240546 675.073025 
L 334.187187 675.249268 
L 335.133828 675.710345 
L 336.08047 676.702641 
L 337.027111 677.354346 
L 337.973752 676.885646 
L 338.920393 676.218183 
L 340.813675 676.777054 
L 341.760316 676.738022 
L 343.653599 676.126401 
L 347.440163 676.080327 
L 352.173369 675.164441 
L 354.066651 674.450454 
L 356.906575 674.476582 
L 357.853216 674.477527 
L 359.746498 673.760748 
L 361.63978 672.255419 
L 364.479704 670.955231 
L 365.426345 670.257582 
L 366.372986 669.828623 
L 367.319627 669.208908 
L 370.159551 668.169744 
L 371.106192 667.985622 
L 372.052833 667.67745 
L 374.892756 667.499705 
L 375.839397 667.799912 
L 378.679321 667.920227 
L 379.625962 667.753409 
L 381.519244 667.72391 
L 382.465885 668.212404 
L 383.412527 669.1185 
L 384.359168 669.76239 
L 388.145732 670.792021 
L 390.985656 670.812825 
L 392.878938 670.822121 
L 393.825579 670.87251 
L 395.718861 671.559339 
L 396.665503 671.704494 
L 397.612144 671.962556 
L 399.505426 672.656448 
L 400.452067 672.485552 
L 402.345349 672.470094 
L 403.29199 672.474194 
L 404.238632 672.762164 
L 405.185273 673.173089 
L 407.078555 674.67713 
L 408.971837 675.441677 
L 409.918478 675.807795 
L 410.86512 676.480647 
L 411.811761 676.878927 
L 412.758402 677.503129 
L 414.651684 678.331441 
L 415.598325 678.965863 
L 416.544966 679.323479 
L 417.491608 679.970117 
L 418.438249 680.320477 
L 419.38489 680.909877 
L 420.331531 681.331644 
L 421.278172 681.328337 
L 423.171454 682.025299 
L 425.064737 683.235187 
L 426.958019 684.176343 
L 433.584507 684.273663 
L 434.531148 684.528098 
L 438.317713 684.614534 
L 440.210995 684.690363 
L 444.944201 684.723233 
L 445.890842 684.894129 
L 451.570689 685.121362 
L 458.197177 685.425391 
L 461.0371 685.451219 
L 461.983741 685.566188 
L 464.823665 685.634202 
L 465.770306 685.696807 
L 466.716947 685.974965 
L 468.610229 686.116621 
L 470.503511 686.050301 
L 471.450153 685.924941 
L 474.290076 685.869228 
L 476.183358 685.704257 
L 478.076641 685.758961 
L 479.969923 685.596116 
L 482.809846 685.412466 
L 483.756487 684.984731 
L 489.436334 683.293842 
L 490.382975 683.095958 
L 492.276258 682.273593 
L 494.16954 681.9619 
L 496.062822 681.887873 
L 497.956105 681.60175 
L 500.796028 681.309529 
L 502.68931 681.305429 
L 503.635951 678.346233 
L 504.582593 677.386506 
L 505.529234 677.134412 
L 506.475875 677.038251 
L 507.422516 676.26548 
L 509.315798 675.582538 
L 510.262439 673.832543 
L 511.20908 673.311738 
L 512.155722 672.426446 
L 513.102363 670.784206 
L 514.049004 670.156268 
L 515.942286 669.862674 
L 520.675492 669.98256 
L 521.622133 670.086901 
L 522.568774 669.994733 
L 528.248621 670.294059 
L 529.195262 670.77461 
L 532.981827 672.098414 
L 533.928468 672.227789 
L 536.768391 673.178584 
L 537.715032 673.570122 
L 539.608315 673.71064 
L 541.501597 673.737949 
L 543.394879 673.919366 
L 547.181444 674.006424 
L 548.128085 674.053142 
L 549.074726 676.980992 
L 550.021367 677.947546 
L 550.968008 678.199039 
L 551.91465 678.191653 
L 552.861291 678.879684 
L 553.807932 679.225814 
L 554.754573 679.319722 
L 555.701214 680.920482 
L 556.647855 681.496958 
L 557.594496 682.377977 
L 558.541138 683.971288 
L 559.487779 684.492287 
L 561.381061 684.378714 
L 562.327702 684.495894 
L 563.274343 684.459653 
L 567.060908 683.431589 
L 568.007549 682.906104 
L 568.95419 682.572319 
L 569.900831 682.361124 
L 570.847472 681.919348 
L 571.794113 681.694455 
L 572.740755 681.688423 
L 573.687396 681.353134 
L 575.580678 681.092173 
L 577.47396 681.085003 
L 579.367243 680.692735 
L 580.313884 680.352445 
L 582.207166 680.290699 
L 585.047089 679.830158 
L 585.993731 677.808296 
L 586.940372 676.902415 
L 593.56686 676.222542 
L 600.193348 676.207514 
L 602.08663 675.982407 
L 603.979912 675.80932 
L 604.926553 675.916818 
L 606.819836 676.363296 
L 608.713118 676.298888 
L 610.6064 676.874783 
L 612.499683 677.37734 
L 613.446324 677.961802 
L 617.232888 679.120572 
L 618.179529 679.128687 
L 619.12617 679.395831 
L 621.019453 679.40897 
L 622.912735 679.322577 
L 623.859376 679.468999 
L 625.752658 679.923099 
L 627.645941 679.82449 
L 629.539223 680.090517 
L 630.485864 680.410519 
L 631.432505 682.440668 
L 632.379146 683.211936 
L 633.325788 683.225655 
L 635.21907 683.597184 
L 636.165711 683.474572 
L 638.058993 683.723252 
L 640.898917 683.60721 
L 641.845558 683.588896 
L 642.792199 683.458705 
L 643.73884 683.455614 
L 645.632122 683.655945 
L 646.578764 683.750754 
L 647.525405 683.603989 
L 651.311969 683.793113 
L 652.25861 683.68933 
L 656.045175 683.755456 
L 657.938457 683.677994 
L 658.885098 683.519786 
L 660.778381 683.468109 
L 661.725022 683.250151 
L 662.671663 683.261423 
L 663.618304 683.029209 
L 668.35151 682.993827 
L 669.298151 682.800946 
L 670.244792 682.768248 
L 672.138074 682.838496 
L 673.084715 681.60248 
L 674.031357 680.756541 
L 674.977998 680.650568 
L 675.924639 680.407148 
L 676.87128 679.546052 
L 677.817921 679.550475 
L 678.764562 678.79415 
L 679.711203 676.892624 
L 680.657845 676.635699 
L 681.604486 676.58078 
L 682.551127 676.310094 
L 683.497768 675.207789 
L 685.39105 675.272755 
L 686.337691 675.045781 
L 687.284333 674.587409 
L 689.177615 674.70154 
L 690.124256 674.480856 
L 691.070897 674.430875 
L 692.964179 674.620558 
L 693.910821 674.511021 
L 694.857462 673.928813 
L 695.804103 673.873937 
L 698.644026 674.066174 
L 701.48395 674.082276 
L 702.430591 673.961597 
L 705.270514 674.161348 
L 708.110438 674.189152 
L 709.057079 674.415461 
L 710.950361 674.263823 
L 712.843643 674.346072 
L 713.790285 673.710083 
L 714.736926 673.847144 
L 716.630208 673.92613 
L 717.576849 674.044255 
L 718.52349 675.266381 
L 719.470131 676.050058 
L 720.416772 676.170308 
L 721.363414 675.949087 
L 722.310055 676.866476 
L 723.256696 676.972964 
L 724.203337 677.780537 
L 725.149978 679.695352 
L 727.989902 680.475293 
L 728.936543 681.508617 
L 729.883184 681.452109 
L 730.829825 681.543676 
L 731.776466 681.770071 
L 732.723107 682.198172 
L 734.61639 682.285123 
L 735.563031 682.556454 
L 736.509672 682.624576 
L 737.456313 682.548467 
L 740.296236 683.032431 
L 745.976083 682.554306 
L 746.922724 678.198288 
L 747.869366 670.379121 
L 750.709289 637.807376 
L 751.65593 628.959072 
L 752.602571 628.96912 
L 753.549212 627.411663 
L 754.495854 627.383474 
L 756.389136 627.473044 
L 758.282418 627.443438 
L 759.229059 628.135226 
L 761.122342 628.160087 
L 762.068983 625.695439 
L 763.015624 619.593977 
L 763.962265 619.168539 
L 765.855547 618.776679 
L 766.802188 619.213797 
L 768.695471 619.197995 
L 770.588753 619.217812 
L 773.428676 618.883619 
L 775.321959 618.873786 
L 776.2686 618.506852 
L 777.215241 618.351306 
L 780.055164 618.455003 
L 782.895088 618.531928 
L 783.841729 618.338102 
L 784.78837 618.305984 
L 785.735011 618.691575 
L 786.681652 618.730241 
L 787.628293 618.467091 
L 789.521576 618.719184 
L 790.468217 618.212785 
L 791.414858 618.055951 
L 792.361499 622.247664 
L 793.30814 630.188025 
L 797.094705 671.304002 
L 798.041346 671.322294 
L 798.987987 672.861781 
L 801.827911 672.775024 
L 802.774552 672.666775 
L 806.561116 672.593714 
L 807.507757 675.050461 
L 808.454399 681.081825 
L 812.240963 681.617466 
L 813.187604 681.49406 
L 815.080887 681.474265 
L 816.027528 681.397962 
L 817.92081 681.585305 
L 818.867451 681.52957 
L 819.814092 681.641705 
L 820.760733 681.630863 
L 821.707375 681.930383 
L 822.654016 681.288147 
L 824.547298 678.803082 
L 828.333862 678.266561 
L 829.280504 678.327598 
L 830.227145 678.143305 
L 831.173786 677.717952 
L 832.120427 677.732573 
L 833.067068 678.032136 
L 834.96035 678.057534 
L 835.906992 677.780085 
L 836.853633 677.950015 
L 837.800274 677.951948 
L 838.746915 677.467447 
L 840.640197 677.210393 
L 843.480121 677.253289 
L 844.426762 677.054525 
L 846.320044 676.529233 
L 848.213326 676.503899 
L 849.159968 675.400585 
L 850.106609 673.838662 
L 851.05325 672.56677 
L 852.946532 672.446863 
L 853.893173 672.512645 
L 854.839814 671.996585 
L 855.786456 671.757179 
L 858.626379 671.487888 
L 859.57302 671.483358 
L 861.466302 671.04214 
L 864.306226 671.181884 
L 865.252867 670.972107 
L 867.146149 670.951131 
L 868.09279 671.746058 
L 869.986073 674.182945 
L 871.879355 674.229298 
L 872.825996 674.216846 
L 873.772637 674.319384 
L 874.719278 674.309873 
L 876.612561 674.683162 
L 878.505843 674.446655 
L 880.399125 674.334606 
L 881.345766 675.031804 
L 883.239049 675.203173 
L 885.132331 675.632154 
L 886.078972 675.86383 
L 887.025613 675.770975 
L 887.972254 675.863229 
L 891.758819 676.734802 
L 892.70546 676.899645 
L 893.652101 676.948895 
L 894.598742 678.094891 
L 895.545383 679.761155 
L 896.492025 680.728803 
L 897.438666 680.537511 
L 899.331948 680.552496 
L 900.278589 681.369967 
L 901.22523 681.522593 
L 903.118513 681.477464 
L 904.065154 681.78847 
L 905.011795 681.791927 
L 905.958436 682.086573 
L 908.798359 682.230333 
L 909.745001 682.218975 
L 911.638283 682.540179 
L 912.584924 682.339956 
L 915.424847 682.407005 
L 916.371489 682.516542 
L 917.31813 682.496983 
L 918.264771 682.602591 
L 919.211412 682.50761 
L 925.8379 682.945115 
L 927.731182 682.690745 
L 928.677823 682.684991 
L 929.624465 682.88515 
L 931.517747 682.606971 
L 935.304311 681.985774 
L 936.250952 681.752144 
L 937.197594 681.949169 
L 940.037517 682.077921 
L 940.984158 681.74697 
L 941.930799 681.911039 
L 942.87744 682.196046 
L 943.824082 682.204763 
L 944.770723 682.057483 
L 945.717364 682.062914 
L 947.610646 682.360974 
L 950.45057 681.987106 
L 958.023699 682.085307 
L 958.97034 681.955546 
L 966.543469 681.956597 
L 967.49011 682.249806 
L 971.276675 682.329457 
L 972.223316 682.587519 
L 975.063239 682.814344 
L 976.00988 682.907307 
L 979.796445 683.754791 
L 982.636368 684.166403 
L 984.529651 684.015494 
L 985.476292 683.820745 
L 987.369574 684.294768 
L 990.209497 684.40671 
L 993.049421 684.48254 
L 993.996062 684.156333 
L 994.942703 684.27171 
L 996.835985 684.230102 
L 998.729268 684.376352 
L 999.675909 684.31437 
L 1001.569191 683.624471 
L 1002.515832 683.566439 
L 1003.462473 683.790752 
L 1004.409115 683.878626 
L 1006.302397 683.755628 
L 1008.195679 683.885217 
L 1010.088961 684.084497 
L 1011.035603 684.164534 
L 1013.875526 683.938311 
L 1024.288579 683.786158 
L 1027.128502 683.526184 
L 1033.75499 683.479917 
L 1037.541555 683.18759 
L 1038.488196 683.20337 
L 1039.434837 683.559311 
L 1042.27476 683.660196 
L 1045.114684 683.561523 
L 1047.007966 684.226989 
L 1047.954607 684.364844 
L 1049.847889 684.361516 
L 1052.687813 684.423434 
L 1056.474377 684.435135 
L 1057.421018 684.500037 
L 1058.36766 684.685747 
L 1069.727353 684.814263 
L 1071.620636 685.074688 
L 1074.460559 684.995422 
L 1078.247124 685.329036 
L 1079.193765 685.245541 
L 1082.033688 685.427344 
L 1082.980329 685.524987 
L 1084.873612 685.349582 
L 1085.820253 684.993039 
L 1086.766894 684.760676 
L 1088.660176 683.706033 
L 1089.606817 683.224989 
L 1090.553458 682.965295 
L 1092.446741 682.77265 
L 1093.393382 682.469115 
L 1095.286664 682.332226 
L 1097.179946 682.206565 
L 1098.126587 681.999342 
L 1102.859793 681.994211 
L 1104.753075 681.788491 
L 1105.699717 681.736879 
L 1106.646358 681.465183 
L 1108.53964 681.273547 
L 1110.432922 681.177643 
L 1111.379563 680.901611 
L 1113.272846 680.70669 
L 1115.166128 680.649624 
L 1116.112769 680.641702 
L 1118.006051 680.329171 
L 1118.952693 680.445106 
L 1119.899334 680.28299 
L 1120.845975 680.285373 
L 1123.685898 679.838788 
L 1127.472463 679.727039 
L 1130.312386 679.514814 
L 1131.259027 679.578192 
L 1132.205669 679.832261 
L 1133.15231 680.391454 
L 1135.992233 681.60701 
L 1136.938874 681.797444 
L 1137.885515 681.829133 
L 1138.832157 682.132023 
L 1139.778798 682.29635 
L 1140.725439 682.20912 
L 1142.618721 682.402152 
L 1143.565362 682.605188 
L 1147.351927 682.564976 
L 1148.298568 682.446615 
L 1150.19185 682.490004 
L 1151.138491 682.568862 
L 1152.085132 682.831841 
L 1153.978415 682.988525 
L 1155.871697 683.086447 
L 1156.818338 683.42137 
L 1160.604903 683.697402 
L 1161.551544 683.706011 
L 1163.444826 684.047654 
L 1164.391467 684.049501 
L 1165.338108 684.204596 
L 1166.28475 684.196008 
L 1167.231391 684.419676 
L 1168.178032 684.78324 
L 1169.124673 684.762415 
L 1171.017955 684.943037 
L 1174.80452 685.034325 
L 1176.697802 685.691741 
L 1178.591084 685.590877 
L 1180.484367 685.591522 
L 1182.377649 685.471829 
L 1184.270931 685.299988 
L 1186.164214 685.181026 
L 1189.950778 685.038856 
L 1192.790702 684.950595 
L 1193.737343 684.710589 
L 1194.683984 684.289015 
L 1195.630625 684.142293 
L 1196.577266 683.865187 
L 1197.523907 683.809688 
L 1199.41719 683.230486 
L 1200.363831 682.856123 
L 1203.203754 682.368273 
L 1205.097036 681.794331 
L 1207.93696 681.582385 
L 1208.883601 681.551061 
L 1213.616807 680.759248 
L 1214.563448 680.710405 
L 1215.510089 680.393173 
L 1218.350012 680.250701 
L 1220.243295 679.986541 
L 1222.136577 679.397656 
L 1224.9765 679.129739 
L 1226.869783 654.019781 
L 1229.709706 616.367746 
L 1230.656347 612.259356 
L 1233.496271 612.509861 
L 1235.389553 612.478323 
L 1238.229476 612.729536 
L 1239.176117 613.053467 
L 1240.122759 613.602333 
L 1241.0694 613.739201 
L 1242.016041 614.025646 
L 1242.962682 614.0878 
L 1243.909323 614.330898 
L 1245.802605 615.067901 
L 1247.695888 615.412077 
L 1248.642529 615.425281 
L 1251.482452 615.890824 
L 1255.269017 616.207025 
L 1256.215658 616.320019 
L 1257.162299 616.575892 
L 1259.055581 616.645624 
L 1260.002222 616.692793 
L 1260.948864 616.947119 
L 1260.948864 616.947119 
" style="fill:none;stroke:#ff0000;stroke-linecap:square;stroke-width:1.5;"/>
   </g>
   <g id="patch_3">
    <path d="M 69.175 719.2 
L 69.175 14.3 
" style="fill:none;stroke:#000000;stroke-linecap:square;stroke-linejoin:miter;stroke-width:0.8;"/>
   </g>
   <g id="patch_4">
    <path d="M 1317.7 719.2 
L 1317.7 14.3 
" style="fill:none;stroke:#000000;stroke-linecap:square;stroke-linejoin:miter;stroke-width:0.8;"/>
   </g>
   <g id="patch_5">
    <path d="M 69.175 719.2 
L 1317.7 719.2 
" style="fill:none;stroke:#000000;stroke-linecap:square;stroke-linejoin:miter;stroke-width:0.8;"/>
   </g>
   <g id="patch_6">
    <path d="M 69.175 14.3 
L 1317.7 14.3 
" style="fill:none;stroke:#000000;stroke-linecap:square;stroke-linejoin:miter;stroke-width:0.8;"/>
   </g>
   <g id="legend_1">
    <g id="patch_7">
     <path d="M 83.175 177.08125 
L 415.121875 177.08125 
Q 419.121875 177.08125 419.121875 173.08125 
L 419.121875 28.3 
Q 419.121875 24.3 415.121875 24.3 
L 83.175 24.3 
Q 79.175 24.3 79.175 28.3 
L 79.175 173.08125 
Q 79.175 177.08125 83.175 177.08125 
z
" style="fill:#ffffff;opacity:0.8;stroke:#cccccc;stroke-linejoin:miter;"/>
    </g>
    <g id="line2d_19">
     <path d="M 87.175 40.496875 
L 127.175 40.496875 
" style="fill:none;stroke:#000000;stroke-linecap:square;stroke-width:1.5;"/>
    </g>
    <g id="line2d_20"/>
    <g id="text_16">
     <!-- Unused Data -->
     <defs>
      <path d="M 8.6875 72.90625 
L 18.609375 72.90625 
L 18.609375 28.609375 
Q 18.609375 16.890625 22.84375 11.734375 
Q 27.09375 6.59375 36.625 6.59375 
Q 46.09375 6.59375 50.34375 11.734375 
Q 54.59375 16.890625 54.59375 28.609375 
L 54.59375 72.90625 
L 64.5 72.90625 
L 64.5 27.390625 
Q 64.5 13.140625 57.4375 5.859375 
Q 50.390625 -1.421875 36.625 -1.421875 
Q 22.796875 -1.421875 15.734375 5.859375 
Q 8.6875 13.140625 8.6875 27.390625 
z
" id="DejaVuSans-55"/>
      <path d="M 19.671875 64.796875 
L 19.671875 8.109375 
L 31.59375 8.109375 
Q 46.6875 8.109375 53.6875 14.9375 
Q 60.6875 21.78125 60.6875 36.53125 
Q 60.6875 51.171875 53.6875 57.984375 
Q 46.6875 64.796875 31.59375 64.796875 
z
M 9.8125 72.90625 
L 30.078125 72.90625 
Q 51.265625 72.90625 61.171875 64.09375 
Q 71.09375 55.28125 71.09375 36.53125 
Q 71.09375 17.671875 61.125 8.828125 
Q 51.171875 0 30.078125 0 
L 9.8125 0 
z
" id="DejaVuSans-44"/>
     </defs>
     <g transform="translate(143.175 47.496875)scale(0.2 -0.2)">
      <use xlink:href="#DejaVuSans-55"/>
      <use x="73.193359" xlink:href="#DejaVuSans-6e"/>
      <use x="136.572266" xlink:href="#DejaVuSans-75"/>
      <use x="199.951172" xlink:href="#DejaVuSans-73"/>
      <use x="252.050781" xlink:href="#DejaVuSans-65"/>
      <use x="313.574219" xlink:href="#DejaVuSans-64"/>
      <use x="377.050781" xlink:href="#DejaVuSans-20"/>
      <use x="408.837891" xlink:href="#DejaVuSans-44"/>
      <use x="485.839844" xlink:href="#DejaVuSans-61"/>
      <use x="547.119141" xlink:href="#DejaVuSans-74"/>
      <use x="586.328125" xlink:href="#DejaVuSans-61"/>
     </g>
    </g>
    <g id="line2d_21">
     <path d="M 87.175 69.853125 
L 127.175 69.853125 
" style="fill:none;stroke:#1f77b4;stroke-linecap:square;stroke-width:1.5;"/>
    </g>
    <g id="line2d_22"/>
    <g id="text_17">
     <!-- Training Data -->
     <defs>
      <path d="M -0.296875 72.90625 
L 61.375 72.90625 
L 61.375 64.59375 
L 35.5 64.59375 
L 35.5 0 
L 25.59375 0 
L 25.59375 64.59375 
L -0.296875 64.59375 
z
" id="DejaVuSans-54"/>
      <path d="M 41.109375 46.296875 
Q 39.59375 47.171875 37.8125 47.578125 
Q 36.03125 48 33.890625 48 
Q 26.265625 48 22.1875 43.046875 
Q 18.109375 38.09375 18.109375 28.8125 
L 18.109375 0 
L 9.078125 0 
L 9.078125 54.6875 
L 18.109375 54.6875 
L 18.109375 46.1875 
Q 20.953125 51.171875 25.484375 53.578125 
Q 30.03125 56 36.53125 56 
Q 37.453125 56 38.578125 55.875 
Q 39.703125 55.765625 41.0625 55.515625 
z
" id="DejaVuSans-72"/>
      <path d="M 45.40625 27.984375 
Q 45.40625 37.75 41.375 43.109375 
Q 37.359375 48.484375 30.078125 48.484375 
Q 22.859375 48.484375 18.828125 43.109375 
Q 14.796875 37.75 14.796875 27.984375 
Q 14.796875 18.265625 18.828125 12.890625 
Q 22.859375 7.515625 30.078125 7.515625 
Q 37.359375 7.515625 41.375 12.890625 
Q 45.40625 18.265625 45.40625 27.984375 
z
M 54.390625 6.78125 
Q 54.390625 -7.171875 48.1875 -13.984375 
Q 42 -20.796875 29.203125 -20.796875 
Q 24.46875 -20.796875 20.265625 -20.09375 
Q 16.0625 -19.390625 12.109375 -17.921875 
L 12.109375 -9.1875 
Q 16.0625 -11.328125 19.921875 -12.34375 
Q 23.78125 -13.375 27.78125 -13.375 
Q 36.625 -13.375 41.015625 -8.765625 
Q 45.40625 -4.15625 45.40625 5.171875 
L 45.40625 9.625 
Q 42.625 4.78125 38.28125 2.390625 
Q 33.9375 0 27.875 0 
Q 17.828125 0 11.671875 7.65625 
Q 5.515625 15.328125 5.515625 27.984375 
Q 5.515625 40.671875 11.671875 48.328125 
Q 17.828125 56 27.875 56 
Q 33.9375 56 38.28125 53.609375 
Q 42.625 51.21875 45.40625 46.390625 
L 45.40625 54.6875 
L 54.390625 54.6875 
z
" id="DejaVuSans-67"/>
     </defs>
     <g transform="translate(143.175 76.853125)scale(0.2 -0.2)">
      <use xlink:href="#DejaVuSans-54"/>
      <use x="60.865234" xlink:href="#DejaVuSans-72"/>
      <use x="101.978516" xlink:href="#DejaVuSans-61"/>
      <use x="163.257812" xlink:href="#DejaVuSans-69"/>
      <use x="191.041016" xlink:href="#DejaVuSans-6e"/>
      <use x="254.419922" xlink:href="#DejaVuSans-69"/>
      <use x="282.203125" xlink:href="#DejaVuSans-6e"/>
      <use x="345.582031" xlink:href="#DejaVuSans-67"/>
      <use x="409.058594" xlink:href="#DejaVuSans-20"/>
      <use x="440.845703" xlink:href="#DejaVuSans-44"/>
      <use x="517.847656" xlink:href="#DejaVuSans-61"/>
      <use x="579.126953" xlink:href="#DejaVuSans-74"/>
      <use x="618.335938" xlink:href="#DejaVuSans-61"/>
     </g>
    </g>
    <g id="line2d_23">
     <path d="M 87.175 99.209375 
L 127.175 99.209375 
" style="fill:none;stroke:#ff7f0e;stroke-linecap:square;stroke-width:1.5;"/>
    </g>
    <g id="line2d_24"/>
    <g id="text_18">
     <!-- Validation Data -->
     <defs>
      <path d="M 28.609375 0 
L 0.78125 72.90625 
L 11.078125 72.90625 
L 34.1875 11.53125 
L 57.328125 72.90625 
L 67.578125 72.90625 
L 39.796875 0 
z
" id="DejaVuSans-56"/>
      <path d="M 9.421875 75.984375 
L 18.40625 75.984375 
L 18.40625 0 
L 9.421875 0 
z
" id="DejaVuSans-6c"/>
      <path d="M 30.609375 48.390625 
Q 23.390625 48.390625 19.1875 42.75 
Q 14.984375 37.109375 14.984375 27.296875 
Q 14.984375 17.484375 19.15625 11.84375 
Q 23.34375 6.203125 30.609375 6.203125 
Q 37.796875 6.203125 41.984375 11.859375 
Q 46.1875 17.53125 46.1875 27.296875 
Q 46.1875 37.015625 41.984375 42.703125 
Q 37.796875 48.390625 30.609375 48.390625 
z
M 30.609375 56 
Q 42.328125 56 49.015625 48.375 
Q 55.71875 40.765625 55.71875 27.296875 
Q 55.71875 13.875 49.015625 6.21875 
Q 42.328125 -1.421875 30.609375 -1.421875 
Q 18.84375 -1.421875 12.171875 6.21875 
Q 5.515625 13.875 5.515625 27.296875 
Q 5.515625 40.765625 12.171875 48.375 
Q 18.84375 56 30.609375 56 
z
" id="DejaVuSans-6f"/>
     </defs>
     <g transform="translate(143.175 106.209375)scale(0.2 -0.2)">
      <use xlink:href="#DejaVuSans-56"/>
      <use x="68.298828" xlink:href="#DejaVuSans-61"/>
      <use x="129.578125" xlink:href="#DejaVuSans-6c"/>
      <use x="157.361328" xlink:href="#DejaVuSans-69"/>
      <use x="185.144531" xlink:href="#DejaVuSans-64"/>
      <use x="248.621094" xlink:href="#DejaVuSans-61"/>
      <use x="309.900391" xlink:href="#DejaVuSans-74"/>
      <use x="349.109375" xlink:href="#DejaVuSans-69"/>
      <use x="376.892578" xlink:href="#DejaVuSans-6f"/>
      <use x="438.074219" xlink:href="#DejaVuSans-6e"/>
      <use x="501.453125" xlink:href="#DejaVuSans-20"/>
      <use x="533.240234" xlink:href="#DejaVuSans-44"/>
      <use x="610.242188" xlink:href="#DejaVuSans-61"/>
      <use x="671.521484" xlink:href="#DejaVuSans-74"/>
      <use x="710.730469" xlink:href="#DejaVuSans-61"/>
     </g>
    </g>
    <g id="line2d_25">
     <path d="M 87.175 128.565625 
L 127.175 128.565625 
" style="fill:none;stroke:#2ca02c;stroke-linecap:square;stroke-width:1.5;"/>
    </g>
    <g id="line2d_26"/>
    <g id="text_19">
     <!-- Testing Data -->
     <g transform="translate(143.175 135.565625)scale(0.2 -0.2)">
      <use xlink:href="#DejaVuSans-54"/>
      <use x="60.818359" xlink:href="#DejaVuSans-65"/>
      <use x="122.341797" xlink:href="#DejaVuSans-73"/>
      <use x="174.441406" xlink:href="#DejaVuSans-74"/>
      <use x="213.650391" xlink:href="#DejaVuSans-69"/>
      <use x="241.433594" xlink:href="#DejaVuSans-6e"/>
      <use x="304.8125" xlink:href="#DejaVuSans-67"/>
      <use x="368.289062" xlink:href="#DejaVuSans-20"/>
      <use x="400.076172" xlink:href="#DejaVuSans-44"/>
      <use x="477.078125" xlink:href="#DejaVuSans-61"/>
      <use x="538.357422" xlink:href="#DejaVuSans-74"/>
      <use x="577.566406" xlink:href="#DejaVuSans-61"/>
     </g>
    </g>
    <g id="line2d_27">
     <path d="M 87.175 157.921875 
L 127.175 157.921875 
" style="fill:none;stroke:#ff0000;stroke-linecap:square;stroke-width:1.5;"/>
    </g>
    <g id="line2d_28"/>
    <g id="text_20">
     <!-- Moving average (48 steps) -->
     <defs>
      <path d="M 2.984375 54.6875 
L 12.5 54.6875 
L 29.59375 8.796875 
L 46.6875 54.6875 
L 56.203125 54.6875 
L 35.6875 0 
L 23.484375 0 
z
" id="DejaVuSans-76"/>
     </defs>
     <g transform="translate(143.175 164.921875)scale(0.2 -0.2)">
      <use xlink:href="#DejaVuSans-4d"/>
      <use x="86.279297" xlink:href="#DejaVuSans-6f"/>
      <use x="147.460938" xlink:href="#DejaVuSans-76"/>
      <use x="206.640625" xlink:href="#DejaVuSans-69"/>
      <use x="234.423828" xlink:href="#DejaVuSans-6e"/>
      <use x="297.802734" xlink:href="#DejaVuSans-67"/>
      <use x="361.279297" xlink:href="#DejaVuSans-20"/>
      <use x="393.066406" xlink:href="#DejaVuSans-61"/>
      <use x="454.345703" xlink:href="#DejaVuSans-76"/>
      <use x="513.525391" xlink:href="#DejaVuSans-65"/>
      <use x="575.048828" xlink:href="#DejaVuSans-72"/>
      <use x="616.162109" xlink:href="#DejaVuSans-61"/>
      <use x="677.441406" xlink:href="#DejaVuSans-67"/>
      <use x="740.917969" xlink:href="#DejaVuSans-65"/>
      <use x="802.441406" xlink:href="#DejaVuSans-20"/>
      <use x="834.228516" xlink:href="#DejaVuSans-28"/>
      <use x="873.242188" xlink:href="#DejaVuSans-34"/>
      <use x="936.865234" xlink:href="#DejaVuSans-38"/>
      <use x="1000.488281" xlink:href="#DejaVuSans-20"/>
      <use x="1032.275391" xlink:href="#DejaVuSans-73"/>
      <use x="1084.375" xlink:href="#DejaVuSans-74"/>
      <use x="1123.583984" xlink:href="#DejaVuSans-65"/>
      <use x="1185.107422" xlink:href="#DejaVuSans-70"/>
      <use x="1248.583984" xlink:href="#DejaVuSans-73"/>
      <use x="1300.683594" xlink:href="#DejaVuSans-29"/>
     </g>
    </g>
   </g>
  </g>
 </g>
 <defs>
  <clipPath id="p93a8cec5c8">
   <rect height="704.9" width="1248.525" x="69.175" y="14.3"/>
  </clipPath>
 </defs>
</svg>
