<?xml version="1.0" encoding="utf-8" standalone="no"?>
<!DOCTYPE svg PUBLIC "-//W3C//DTD SVG 1.1//EN"
  "http://www.w3.org/Graphics/SVG/1.1/DTD/svg11.dtd">
<!-- Created with matplotlib (http://matplotlib.org/) -->
<svg height="756pt" version="1.1" viewBox="0 0 1332 756" width="1332pt" xmlns="http://www.w3.org/2000/svg" xmlns:xlink="http://www.w3.org/1999/xlink">
 <defs>
  <style type="text/css">
*{stroke-linecap:butt;stroke-linejoin:round;}
  </style>
 </defs>
 <g id="figure_1">
  <g id="patch_1">
   <path d="M 0 756 
L 1332 756 
L 1332 0 
L 0 0 
z
" style="fill:#ffffff;"/>
  </g>
  <g id="axes_1">
   <g id="patch_2">
    <path d="M 82.05 719.2 
L 1317.7 719.2 
L 1317.7 14.3 
L 82.05 14.3 
z
" style="fill:#ffffff;"/>
   </g>
   <g id="matplotlib.axis_1">
    <g id="xtick_1">
     <g id="line2d_1">
      <defs>
       <path d="M 0 0 
L 0 3.5 
" id="m04c7cccea0" style="stroke:#000000;stroke-width:0.8;"/>
      </defs>
      <g>
       <use style="stroke:#000000;stroke-width:0.8;" x="138.215909" xlink:href="#m04c7cccea0" y="719.2"/>
      </g>
     </g>
     <g id="text_1">
      <!-- 0 -->
      <defs>
       <path d="M 31.78125 66.40625 
Q 24.171875 66.40625 20.328125 58.90625 
Q 16.5 51.421875 16.5 36.375 
Q 16.5 21.390625 20.328125 13.890625 
Q 24.171875 6.390625 31.78125 6.390625 
Q 39.453125 6.390625 43.28125 13.890625 
Q 47.125 21.390625 47.125 36.375 
Q 47.125 51.421875 43.28125 58.90625 
Q 39.453125 66.40625 31.78125 66.40625 
z
M 31.78125 74.21875 
Q 44.046875 74.21875 50.515625 64.515625 
Q 56.984375 54.828125 56.984375 36.375 
Q 56.984375 17.96875 50.515625 8.265625 
Q 44.046875 -1.421875 31.78125 -1.421875 
Q 19.53125 -1.421875 13.0625 8.265625 
Q 6.59375 17.96875 6.59375 36.375 
Q 6.59375 54.828125 13.0625 64.515625 
Q 19.53125 74.21875 31.78125 74.21875 
z
" id="DejaVuSans-30"/>
      </defs>
      <g transform="translate(131.853409 741.396875)scale(0.2 -0.2)">
       <use xlink:href="#DejaVuSans-30"/>
      </g>
     </g>
    </g>
    <g id="xtick_2">
     <g id="line2d_2">
      <g>
       <use style="stroke:#000000;stroke-width:0.8;" x="325.591753" xlink:href="#m04c7cccea0" y="719.2"/>
      </g>
     </g>
     <g id="text_2">
      <!-- 200 -->
      <defs>
       <path d="M 19.1875 8.296875 
L 53.609375 8.296875 
L 53.609375 0 
L 7.328125 0 
L 7.328125 8.296875 
Q 12.9375 14.109375 22.625 23.890625 
Q 32.328125 33.6875 34.8125 36.53125 
Q 39.546875 41.84375 41.421875 45.53125 
Q 43.3125 49.21875 43.3125 52.78125 
Q 43.3125 58.59375 39.234375 62.25 
Q 35.15625 65.921875 28.609375 65.921875 
Q 23.96875 65.921875 18.8125 64.3125 
Q 13.671875 62.703125 7.8125 59.421875 
L 7.8125 69.390625 
Q 13.765625 71.78125 18.9375 73 
Q 24.125 74.21875 28.421875 74.21875 
Q 39.75 74.21875 46.484375 68.546875 
Q 53.21875 62.890625 53.21875 53.421875 
Q 53.21875 48.921875 51.53125 44.890625 
Q 49.859375 40.875 45.40625 35.40625 
Q 44.1875 33.984375 37.640625 27.21875 
Q 31.109375 20.453125 19.1875 8.296875 
z
" id="DejaVuSans-32"/>
      </defs>
      <g transform="translate(306.504253 741.396875)scale(0.2 -0.2)">
       <use xlink:href="#DejaVuSans-32"/>
       <use x="63.623047" xlink:href="#DejaVuSans-30"/>
       <use x="127.246094" xlink:href="#DejaVuSans-30"/>
      </g>
     </g>
    </g>
    <g id="xtick_3">
     <g id="line2d_3">
      <g>
       <use style="stroke:#000000;stroke-width:0.8;" x="512.967596" xlink:href="#m04c7cccea0" y="719.2"/>
      </g>
     </g>
     <g id="text_3">
      <!-- 400 -->
      <defs>
       <path d="M 37.796875 64.3125 
L 12.890625 25.390625 
L 37.796875 25.390625 
z
M 35.203125 72.90625 
L 47.609375 72.90625 
L 47.609375 25.390625 
L 58.015625 25.390625 
L 58.015625 17.1875 
L 47.609375 17.1875 
L 47.609375 0 
L 37.796875 0 
L 37.796875 17.1875 
L 4.890625 17.1875 
L 4.890625 26.703125 
z
" id="DejaVuSans-34"/>
      </defs>
      <g transform="translate(493.880096 741.396875)scale(0.2 -0.2)">
       <use xlink:href="#DejaVuSans-34"/>
       <use x="63.623047" xlink:href="#DejaVuSans-30"/>
       <use x="127.246094" xlink:href="#DejaVuSans-30"/>
      </g>
     </g>
    </g>
    <g id="xtick_4">
     <g id="line2d_4">
      <g>
       <use style="stroke:#000000;stroke-width:0.8;" x="700.34344" xlink:href="#m04c7cccea0" y="719.2"/>
      </g>
     </g>
     <g id="text_4">
      <!-- 600 -->
      <defs>
       <path d="M 33.015625 40.375 
Q 26.375 40.375 22.484375 35.828125 
Q 18.609375 31.296875 18.609375 23.390625 
Q 18.609375 15.53125 22.484375 10.953125 
Q 26.375 6.390625 33.015625 6.390625 
Q 39.65625 6.390625 43.53125 10.953125 
Q 47.40625 15.53125 47.40625 23.390625 
Q 47.40625 31.296875 43.53125 35.828125 
Q 39.65625 40.375 33.015625 40.375 
z
M 52.59375 71.296875 
L 52.59375 62.3125 
Q 48.875 64.0625 45.09375 64.984375 
Q 41.3125 65.921875 37.59375 65.921875 
Q 27.828125 65.921875 22.671875 59.328125 
Q 17.53125 52.734375 16.796875 39.40625 
Q 19.671875 43.65625 24.015625 45.921875 
Q 28.375 48.1875 33.59375 48.1875 
Q 44.578125 48.1875 50.953125 41.515625 
Q 57.328125 34.859375 57.328125 23.390625 
Q 57.328125 12.15625 50.6875 5.359375 
Q 44.046875 -1.421875 33.015625 -1.421875 
Q 20.359375 -1.421875 13.671875 8.265625 
Q 6.984375 17.96875 6.984375 36.375 
Q 6.984375 53.65625 15.1875 63.9375 
Q 23.390625 74.21875 37.203125 74.21875 
Q 40.921875 74.21875 44.703125 73.484375 
Q 48.484375 72.75 52.59375 71.296875 
z
" id="DejaVuSans-36"/>
      </defs>
      <g transform="translate(681.25594 741.396875)scale(0.2 -0.2)">
       <use xlink:href="#DejaVuSans-36"/>
       <use x="63.623047" xlink:href="#DejaVuSans-30"/>
       <use x="127.246094" xlink:href="#DejaVuSans-30"/>
      </g>
     </g>
    </g>
    <g id="xtick_5">
     <g id="line2d_5">
      <g>
       <use style="stroke:#000000;stroke-width:0.8;" x="887.719283" xlink:href="#m04c7cccea0" y="719.2"/>
      </g>
     </g>
     <g id="text_5">
      <!-- 800 -->
      <defs>
       <path d="M 31.78125 34.625 
Q 24.75 34.625 20.71875 30.859375 
Q 16.703125 27.09375 16.703125 20.515625 
Q 16.703125 13.921875 20.71875 10.15625 
Q 24.75 6.390625 31.78125 6.390625 
Q 38.8125 6.390625 42.859375 10.171875 
Q 46.921875 13.96875 46.921875 20.515625 
Q 46.921875 27.09375 42.890625 30.859375 
Q 38.875 34.625 31.78125 34.625 
z
M 21.921875 38.8125 
Q 15.578125 40.375 12.03125 44.71875 
Q 8.5 49.078125 8.5 55.328125 
Q 8.5 64.0625 14.71875 69.140625 
Q 20.953125 74.21875 31.78125 74.21875 
Q 42.671875 74.21875 48.875 69.140625 
Q 55.078125 64.0625 55.078125 55.328125 
Q 55.078125 49.078125 51.53125 44.71875 
Q 48 40.375 41.703125 38.8125 
Q 48.828125 37.15625 52.796875 32.3125 
Q 56.78125 27.484375 56.78125 20.515625 
Q 56.78125 9.90625 50.3125 4.234375 
Q 43.84375 -1.421875 31.78125 -1.421875 
Q 19.734375 -1.421875 13.25 4.234375 
Q 6.78125 9.90625 6.78125 20.515625 
Q 6.78125 27.484375 10.78125 32.3125 
Q 14.796875 37.15625 21.921875 38.8125 
z
M 18.3125 54.390625 
Q 18.3125 48.734375 21.84375 45.5625 
Q 25.390625 42.390625 31.78125 42.390625 
Q 38.140625 42.390625 41.71875 45.5625 
Q 45.3125 48.734375 45.3125 54.390625 
Q 45.3125 60.0625 41.71875 63.234375 
Q 38.140625 66.40625 31.78125 66.40625 
Q 25.390625 66.40625 21.84375 63.234375 
Q 18.3125 60.0625 18.3125 54.390625 
z
" id="DejaVuSans-38"/>
      </defs>
      <g transform="translate(868.631783 741.396875)scale(0.2 -0.2)">
       <use xlink:href="#DejaVuSans-38"/>
       <use x="63.623047" xlink:href="#DejaVuSans-30"/>
       <use x="127.246094" xlink:href="#DejaVuSans-30"/>
      </g>
     </g>
    </g>
    <g id="xtick_6">
     <g id="line2d_6">
      <g>
       <use style="stroke:#000000;stroke-width:0.8;" x="1075.095127" xlink:href="#m04c7cccea0" y="719.2"/>
      </g>
     </g>
     <g id="text_6">
      <!-- 1000 -->
      <defs>
       <path d="M 12.40625 8.296875 
L 28.515625 8.296875 
L 28.515625 63.921875 
L 10.984375 60.40625 
L 10.984375 69.390625 
L 28.421875 72.90625 
L 38.28125 72.90625 
L 38.28125 8.296875 
L 54.390625 8.296875 
L 54.390625 0 
L 12.40625 0 
z
" id="DejaVuSans-31"/>
      </defs>
      <g transform="translate(1049.645127 741.396875)scale(0.2 -0.2)">
       <use xlink:href="#DejaVuSans-31"/>
       <use x="63.623047" xlink:href="#DejaVuSans-30"/>
       <use x="127.246094" xlink:href="#DejaVuSans-30"/>
       <use x="190.869141" xlink:href="#DejaVuSans-30"/>
      </g>
     </g>
    </g>
    <g id="xtick_7">
     <g id="line2d_7">
      <g>
       <use style="stroke:#000000;stroke-width:0.8;" x="1262.47097" xlink:href="#m04c7cccea0" y="719.2"/>
      </g>
     </g>
     <g id="text_7">
      <!-- 1200 -->
      <g transform="translate(1237.02097 741.396875)scale(0.2 -0.2)">
       <use xlink:href="#DejaVuSans-31"/>
       <use x="63.623047" xlink:href="#DejaVuSans-32"/>
       <use x="127.246094" xlink:href="#DejaVuSans-30"/>
       <use x="190.869141" xlink:href="#DejaVuSans-30"/>
      </g>
     </g>
    </g>
    <g id="text_8">
     <!-- 15-Minute Steps -->
     <defs>
      <path d="M 10.796875 72.90625 
L 49.515625 72.90625 
L 49.515625 64.59375 
L 19.828125 64.59375 
L 19.828125 46.734375 
Q 21.96875 47.46875 24.109375 47.828125 
Q 26.265625 48.1875 28.421875 48.1875 
Q 40.625 48.1875 47.75 41.5 
Q 54.890625 34.8125 54.890625 23.390625 
Q 54.890625 11.625 47.5625 5.09375 
Q 40.234375 -1.421875 26.90625 -1.421875 
Q 22.3125 -1.421875 17.546875 -0.640625 
Q 12.796875 0.140625 7.71875 1.703125 
L 7.71875 11.625 
Q 12.109375 9.234375 16.796875 8.0625 
Q 21.484375 6.890625 26.703125 6.890625 
Q 35.15625 6.890625 40.078125 11.328125 
Q 45.015625 15.765625 45.015625 23.390625 
Q 45.015625 31 40.078125 35.4375 
Q 35.15625 39.890625 26.703125 39.890625 
Q 22.75 39.890625 18.8125 39.015625 
Q 14.890625 38.140625 10.796875 36.28125 
z
" id="DejaVuSans-35"/>
      <path d="M 4.890625 31.390625 
L 31.203125 31.390625 
L 31.203125 23.390625 
L 4.890625 23.390625 
z
" id="DejaVuSans-2d"/>
      <path d="M 9.8125 72.90625 
L 24.515625 72.90625 
L 43.109375 23.296875 
L 61.8125 72.90625 
L 76.515625 72.90625 
L 76.515625 0 
L 66.890625 0 
L 66.890625 64.015625 
L 48.09375 14.015625 
L 38.1875 14.015625 
L 19.390625 64.015625 
L 19.390625 0 
L 9.8125 0 
z
" id="DejaVuSans-4d"/>
      <path d="M 9.421875 54.6875 
L 18.40625 54.6875 
L 18.40625 0 
L 9.421875 0 
z
M 9.421875 75.984375 
L 18.40625 75.984375 
L 18.40625 64.59375 
L 9.421875 64.59375 
z
" id="DejaVuSans-69"/>
      <path d="M 54.890625 33.015625 
L 54.890625 0 
L 45.90625 0 
L 45.90625 32.71875 
Q 45.90625 40.484375 42.875 44.328125 
Q 39.84375 48.1875 33.796875 48.1875 
Q 26.515625 48.1875 22.3125 43.546875 
Q 18.109375 38.921875 18.109375 30.90625 
L 18.109375 0 
L 9.078125 0 
L 9.078125 54.6875 
L 18.109375 54.6875 
L 18.109375 46.1875 
Q 21.34375 51.125 25.703125 53.5625 
Q 30.078125 56 35.796875 56 
Q 45.21875 56 50.046875 50.171875 
Q 54.890625 44.34375 54.890625 33.015625 
z
" id="DejaVuSans-6e"/>
      <path d="M 8.5 21.578125 
L 8.5 54.6875 
L 17.484375 54.6875 
L 17.484375 21.921875 
Q 17.484375 14.15625 20.5 10.265625 
Q 23.53125 6.390625 29.59375 6.390625 
Q 36.859375 6.390625 41.078125 11.03125 
Q 45.3125 15.671875 45.3125 23.6875 
L 45.3125 54.6875 
L 54.296875 54.6875 
L 54.296875 0 
L 45.3125 0 
L 45.3125 8.40625 
Q 42.046875 3.421875 37.71875 1 
Q 33.40625 -1.421875 27.6875 -1.421875 
Q 18.265625 -1.421875 13.375 4.4375 
Q 8.5 10.296875 8.5 21.578125 
z
M 31.109375 56 
z
" id="DejaVuSans-75"/>
      <path d="M 18.3125 70.21875 
L 18.3125 54.6875 
L 36.8125 54.6875 
L 36.8125 47.703125 
L 18.3125 47.703125 
L 18.3125 18.015625 
Q 18.3125 11.328125 20.140625 9.421875 
Q 21.96875 7.515625 27.59375 7.515625 
L 36.8125 7.515625 
L 36.8125 0 
L 27.59375 0 
Q 17.1875 0 13.234375 3.875 
Q 9.28125 7.765625 9.28125 18.015625 
L 9.28125 47.703125 
L 2.6875 47.703125 
L 2.6875 54.6875 
L 9.28125 54.6875 
L 9.28125 70.21875 
z
" id="DejaVuSans-74"/>
      <path d="M 56.203125 29.59375 
L 56.203125 25.203125 
L 14.890625 25.203125 
Q 15.484375 15.921875 20.484375 11.0625 
Q 25.484375 6.203125 34.421875 6.203125 
Q 39.59375 6.203125 44.453125 7.46875 
Q 49.3125 8.734375 54.109375 11.28125 
L 54.109375 2.78125 
Q 49.265625 0.734375 44.1875 -0.34375 
Q 39.109375 -1.421875 33.890625 -1.421875 
Q 20.796875 -1.421875 13.15625 6.1875 
Q 5.515625 13.8125 5.515625 26.8125 
Q 5.515625 40.234375 12.765625 48.109375 
Q 20.015625 56 32.328125 56 
Q 43.359375 56 49.78125 48.890625 
Q 56.203125 41.796875 56.203125 29.59375 
z
M 47.21875 32.234375 
Q 47.125 39.59375 43.09375 43.984375 
Q 39.0625 48.390625 32.421875 48.390625 
Q 24.90625 48.390625 20.390625 44.140625 
Q 15.875 39.890625 15.1875 32.171875 
z
" id="DejaVuSans-65"/>
      <path id="DejaVuSans-20"/>
      <path d="M 53.515625 70.515625 
L 53.515625 60.890625 
Q 47.90625 63.578125 42.921875 64.890625 
Q 37.9375 66.21875 33.296875 66.21875 
Q 25.25 66.21875 20.875 63.09375 
Q 16.5 59.96875 16.5 54.203125 
Q 16.5 49.359375 19.40625 46.890625 
Q 22.3125 44.4375 30.421875 42.921875 
L 36.375 41.703125 
Q 47.40625 39.59375 52.65625 34.296875 
Q 57.90625 29 57.90625 20.125 
Q 57.90625 9.515625 50.796875 4.046875 
Q 43.703125 -1.421875 29.984375 -1.421875 
Q 24.8125 -1.421875 18.96875 -0.25 
Q 13.140625 0.921875 6.890625 3.21875 
L 6.890625 13.375 
Q 12.890625 10.015625 18.65625 8.296875 
Q 24.421875 6.59375 29.984375 6.59375 
Q 38.421875 6.59375 43.015625 9.90625 
Q 47.609375 13.234375 47.609375 19.390625 
Q 47.609375 24.75 44.3125 27.78125 
Q 41.015625 30.8125 33.5 32.328125 
L 27.484375 33.5 
Q 16.453125 35.6875 11.515625 40.375 
Q 6.59375 45.0625 6.59375 53.421875 
Q 6.59375 63.09375 13.40625 68.65625 
Q 20.21875 74.21875 32.171875 74.21875 
Q 37.3125 74.21875 42.625 73.28125 
Q 47.953125 72.359375 53.515625 70.515625 
z
" id="DejaVuSans-53"/>
      <path d="M 18.109375 8.203125 
L 18.109375 -20.796875 
L 9.078125 -20.796875 
L 9.078125 54.6875 
L 18.109375 54.6875 
L 18.109375 46.390625 
Q 20.953125 51.265625 25.265625 53.625 
Q 29.59375 56 35.59375 56 
Q 45.5625 56 51.78125 48.09375 
Q 58.015625 40.1875 58.015625 27.296875 
Q 58.015625 14.40625 51.78125 6.484375 
Q 45.5625 -1.421875 35.59375 -1.421875 
Q 29.59375 -1.421875 25.265625 0.953125 
Q 20.953125 3.328125 18.109375 8.203125 
z
M 48.6875 27.296875 
Q 48.6875 37.203125 44.609375 42.84375 
Q 40.53125 48.484375 33.40625 48.484375 
Q 26.265625 48.484375 22.1875 42.84375 
Q 18.109375 37.203125 18.109375 27.296875 
Q 18.109375 17.390625 22.1875 11.75 
Q 26.265625 6.109375 33.40625 6.109375 
Q 40.53125 6.109375 44.609375 11.75 
Q 48.6875 17.390625 48.6875 27.296875 
z
" id="DejaVuSans-70"/>
      <path d="M 44.28125 53.078125 
L 44.28125 44.578125 
Q 40.484375 46.53125 36.375 47.5 
Q 32.28125 48.484375 27.875 48.484375 
Q 21.1875 48.484375 17.84375 46.4375 
Q 14.5 44.390625 14.5 40.28125 
Q 14.5 37.15625 16.890625 35.375 
Q 19.28125 33.59375 26.515625 31.984375 
L 29.59375 31.296875 
Q 39.15625 29.25 43.1875 25.515625 
Q 47.21875 21.78125 47.21875 15.09375 
Q 47.21875 7.46875 41.1875 3.015625 
Q 35.15625 -1.421875 24.609375 -1.421875 
Q 20.21875 -1.421875 15.453125 -0.5625 
Q 10.6875 0.296875 5.421875 2 
L 5.421875 11.28125 
Q 10.40625 8.6875 15.234375 7.390625 
Q 20.0625 6.109375 24.8125 6.109375 
Q 31.15625 6.109375 34.5625 8.28125 
Q 37.984375 10.453125 37.984375 14.40625 
Q 37.984375 18.0625 35.515625 20.015625 
Q 33.0625 21.96875 24.703125 23.78125 
L 21.578125 24.515625 
Q 13.234375 26.265625 9.515625 29.90625 
Q 5.8125 33.546875 5.8125 39.890625 
Q 5.8125 47.609375 11.28125 51.796875 
Q 16.75 56 26.8125 56 
Q 31.78125 56 36.171875 55.265625 
Q 40.578125 54.546875 44.28125 53.078125 
z
" id="DejaVuSans-73"/>
     </defs>
     <g transform="translate(618.229687 764.753125)scale(0.2 -0.2)">
      <use xlink:href="#DejaVuSans-31"/>
      <use x="63.623047" xlink:href="#DejaVuSans-35"/>
      <use x="127.246094" xlink:href="#DejaVuSans-2d"/>
      <use x="163.330078" xlink:href="#DejaVuSans-4d"/>
      <use x="249.609375" xlink:href="#DejaVuSans-69"/>
      <use x="277.392578" xlink:href="#DejaVuSans-6e"/>
      <use x="340.771484" xlink:href="#DejaVuSans-75"/>
      <use x="404.150391" xlink:href="#DejaVuSans-74"/>
      <use x="443.359375" xlink:href="#DejaVuSans-65"/>
      <use x="504.882812" xlink:href="#DejaVuSans-20"/>
      <use x="536.669922" xlink:href="#DejaVuSans-53"/>
      <use x="600.146484" xlink:href="#DejaVuSans-74"/>
      <use x="639.355469" xlink:href="#DejaVuSans-65"/>
      <use x="700.878906" xlink:href="#DejaVuSans-70"/>
      <use x="764.355469" xlink:href="#DejaVuSans-73"/>
     </g>
    </g>
   </g>
   <g id="matplotlib.axis_2">
    <g id="ytick_1">
     <g id="line2d_8">
      <defs>
       <path d="M 0 0 
L -3.5 0 
" id="mabf0449c49" style="stroke:#000000;stroke-width:0.8;"/>
      </defs>
      <g>
       <use style="stroke:#000000;stroke-width:0.8;" x="82.05" xlink:href="#mabf0449c49" y="695.520444"/>
      </g>
     </g>
     <g id="text_9">
      <!-- 0 -->
      <g transform="translate(62.325 703.118881)scale(0.2 -0.2)">
       <use xlink:href="#DejaVuSans-30"/>
      </g>
     </g>
    </g>
    <g id="ytick_2">
     <g id="line2d_9">
      <g>
       <use style="stroke:#000000;stroke-width:0.8;" x="82.05" xlink:href="#mabf0449c49" y="567.453454"/>
      </g>
     </g>
     <g id="text_10">
      <!-- 2000 -->
      <g transform="translate(24.15 575.051892)scale(0.2 -0.2)">
       <use xlink:href="#DejaVuSans-32"/>
       <use x="63.623047" xlink:href="#DejaVuSans-30"/>
       <use x="127.246094" xlink:href="#DejaVuSans-30"/>
       <use x="190.869141" xlink:href="#DejaVuSans-30"/>
      </g>
     </g>
    </g>
    <g id="ytick_3">
     <g id="line2d_10">
      <g>
       <use style="stroke:#000000;stroke-width:0.8;" x="82.05" xlink:href="#mabf0449c49" y="439.386465"/>
      </g>
     </g>
     <g id="text_11">
      <!-- 4000 -->
      <g transform="translate(24.15 446.984903)scale(0.2 -0.2)">
       <use xlink:href="#DejaVuSans-34"/>
       <use x="63.623047" xlink:href="#DejaVuSans-30"/>
       <use x="127.246094" xlink:href="#DejaVuSans-30"/>
       <use x="190.869141" xlink:href="#DejaVuSans-30"/>
      </g>
     </g>
    </g>
    <g id="ytick_4">
     <g id="line2d_11">
      <g>
       <use style="stroke:#000000;stroke-width:0.8;" x="82.05" xlink:href="#mabf0449c49" y="311.319476"/>
      </g>
     </g>
     <g id="text_12">
      <!-- 6000 -->
      <g transform="translate(24.15 318.917913)scale(0.2 -0.2)">
       <use xlink:href="#DejaVuSans-36"/>
       <use x="63.623047" xlink:href="#DejaVuSans-30"/>
       <use x="127.246094" xlink:href="#DejaVuSans-30"/>
       <use x="190.869141" xlink:href="#DejaVuSans-30"/>
      </g>
     </g>
    </g>
    <g id="ytick_5">
     <g id="line2d_12">
      <g>
       <use style="stroke:#000000;stroke-width:0.8;" x="82.05" xlink:href="#mabf0449c49" y="183.252486"/>
      </g>
     </g>
     <g id="text_13">
      <!-- 8000 -->
      <g transform="translate(24.15 190.850924)scale(0.2 -0.2)">
       <use xlink:href="#DejaVuSans-38"/>
       <use x="63.623047" xlink:href="#DejaVuSans-30"/>
       <use x="127.246094" xlink:href="#DejaVuSans-30"/>
       <use x="190.869141" xlink:href="#DejaVuSans-30"/>
      </g>
     </g>
    </g>
    <g id="ytick_6">
     <g id="line2d_13">
      <g>
       <use style="stroke:#000000;stroke-width:0.8;" x="82.05" xlink:href="#mabf0449c49" y="55.185497"/>
      </g>
     </g>
     <g id="text_14">
      <!-- 10000 -->
      <g transform="translate(11.425 62.783935)scale(0.2 -0.2)">
       <use xlink:href="#DejaVuSans-31"/>
       <use x="63.623047" xlink:href="#DejaVuSans-30"/>
       <use x="127.246094" xlink:href="#DejaVuSans-30"/>
       <use x="190.869141" xlink:href="#DejaVuSans-30"/>
       <use x="254.492188" xlink:href="#DejaVuSans-30"/>
      </g>
     </g>
    </g>
    <g id="text_15">
     <!-- Bandwidth (kbps) -->
     <defs>
      <path d="M 19.671875 34.8125 
L 19.671875 8.109375 
L 35.5 8.109375 
Q 43.453125 8.109375 47.28125 11.40625 
Q 51.125 14.703125 51.125 21.484375 
Q 51.125 28.328125 47.28125 31.5625 
Q 43.453125 34.8125 35.5 34.8125 
z
M 19.671875 64.796875 
L 19.671875 42.828125 
L 34.28125 42.828125 
Q 41.5 42.828125 45.03125 45.53125 
Q 48.578125 48.25 48.578125 53.8125 
Q 48.578125 59.328125 45.03125 62.0625 
Q 41.5 64.796875 34.28125 64.796875 
z
M 9.8125 72.90625 
L 35.015625 72.90625 
Q 46.296875 72.90625 52.390625 68.21875 
Q 58.5 63.53125 58.5 54.890625 
Q 58.5 48.1875 55.375 44.234375 
Q 52.25 40.28125 46.1875 39.3125 
Q 53.46875 37.75 57.5 32.78125 
Q 61.53125 27.828125 61.53125 20.40625 
Q 61.53125 10.640625 54.890625 5.3125 
Q 48.25 0 35.984375 0 
L 9.8125 0 
z
" id="DejaVuSans-42"/>
      <path d="M 34.28125 27.484375 
Q 23.390625 27.484375 19.1875 25 
Q 14.984375 22.515625 14.984375 16.5 
Q 14.984375 11.71875 18.140625 8.90625 
Q 21.296875 6.109375 26.703125 6.109375 
Q 34.1875 6.109375 38.703125 11.40625 
Q 43.21875 16.703125 43.21875 25.484375 
L 43.21875 27.484375 
z
M 52.203125 31.203125 
L 52.203125 0 
L 43.21875 0 
L 43.21875 8.296875 
Q 40.140625 3.328125 35.546875 0.953125 
Q 30.953125 -1.421875 24.3125 -1.421875 
Q 15.921875 -1.421875 10.953125 3.296875 
Q 6 8.015625 6 15.921875 
Q 6 25.140625 12.171875 29.828125 
Q 18.359375 34.515625 30.609375 34.515625 
L 43.21875 34.515625 
L 43.21875 35.40625 
Q 43.21875 41.609375 39.140625 45 
Q 35.0625 48.390625 27.6875 48.390625 
Q 23 48.390625 18.546875 47.265625 
Q 14.109375 46.140625 10.015625 43.890625 
L 10.015625 52.203125 
Q 14.9375 54.109375 19.578125 55.046875 
Q 24.21875 56 28.609375 56 
Q 40.484375 56 46.34375 49.84375 
Q 52.203125 43.703125 52.203125 31.203125 
z
" id="DejaVuSans-61"/>
      <path d="M 45.40625 46.390625 
L 45.40625 75.984375 
L 54.390625 75.984375 
L 54.390625 0 
L 45.40625 0 
L 45.40625 8.203125 
Q 42.578125 3.328125 38.25 0.953125 
Q 33.9375 -1.421875 27.875 -1.421875 
Q 17.96875 -1.421875 11.734375 6.484375 
Q 5.515625 14.40625 5.515625 27.296875 
Q 5.515625 40.1875 11.734375 48.09375 
Q 17.96875 56 27.875 56 
Q 33.9375 56 38.25 53.625 
Q 42.578125 51.265625 45.40625 46.390625 
z
M 14.796875 27.296875 
Q 14.796875 17.390625 18.875 11.75 
Q 22.953125 6.109375 30.078125 6.109375 
Q 37.203125 6.109375 41.296875 11.75 
Q 45.40625 17.390625 45.40625 27.296875 
Q 45.40625 37.203125 41.296875 42.84375 
Q 37.203125 48.484375 30.078125 48.484375 
Q 22.953125 48.484375 18.875 42.84375 
Q 14.796875 37.203125 14.796875 27.296875 
z
" id="DejaVuSans-64"/>
      <path d="M 4.203125 54.6875 
L 13.1875 54.6875 
L 24.421875 12.015625 
L 35.59375 54.6875 
L 46.1875 54.6875 
L 57.421875 12.015625 
L 68.609375 54.6875 
L 77.59375 54.6875 
L 63.28125 0 
L 52.6875 0 
L 40.921875 44.828125 
L 29.109375 0 
L 18.5 0 
z
" id="DejaVuSans-77"/>
      <path d="M 54.890625 33.015625 
L 54.890625 0 
L 45.90625 0 
L 45.90625 32.71875 
Q 45.90625 40.484375 42.875 44.328125 
Q 39.84375 48.1875 33.796875 48.1875 
Q 26.515625 48.1875 22.3125 43.546875 
Q 18.109375 38.921875 18.109375 30.90625 
L 18.109375 0 
L 9.078125 0 
L 9.078125 75.984375 
L 18.109375 75.984375 
L 18.109375 46.1875 
Q 21.34375 51.125 25.703125 53.5625 
Q 30.078125 56 35.796875 56 
Q 45.21875 56 50.046875 50.171875 
Q 54.890625 44.34375 54.890625 33.015625 
z
" id="DejaVuSans-68"/>
      <path d="M 31 75.875 
Q 24.46875 64.65625 21.28125 53.65625 
Q 18.109375 42.671875 18.109375 31.390625 
Q 18.109375 20.125 21.3125 9.0625 
Q 24.515625 -2 31 -13.1875 
L 23.1875 -13.1875 
Q 15.875 -1.703125 12.234375 9.375 
Q 8.59375 20.453125 8.59375 31.390625 
Q 8.59375 42.28125 12.203125 53.3125 
Q 15.828125 64.359375 23.1875 75.875 
z
" id="DejaVuSans-28"/>
      <path d="M 9.078125 75.984375 
L 18.109375 75.984375 
L 18.109375 31.109375 
L 44.921875 54.6875 
L 56.390625 54.6875 
L 27.390625 29.109375 
L 57.625 0 
L 45.90625 0 
L 18.109375 26.703125 
L 18.109375 0 
L 9.078125 0 
z
" id="DejaVuSans-6b"/>
      <path d="M 48.6875 27.296875 
Q 48.6875 37.203125 44.609375 42.84375 
Q 40.53125 48.484375 33.40625 48.484375 
Q 26.265625 48.484375 22.1875 42.84375 
Q 18.109375 37.203125 18.109375 27.296875 
Q 18.109375 17.390625 22.1875 11.75 
Q 26.265625 6.109375 33.40625 6.109375 
Q 40.53125 6.109375 44.609375 11.75 
Q 48.6875 17.390625 48.6875 27.296875 
z
M 18.109375 46.390625 
Q 20.953125 51.265625 25.265625 53.625 
Q 29.59375 56 35.59375 56 
Q 45.5625 56 51.78125 48.09375 
Q 58.015625 40.1875 58.015625 27.296875 
Q 58.015625 14.40625 51.78125 6.484375 
Q 45.5625 -1.421875 35.59375 -1.421875 
Q 29.59375 -1.421875 25.265625 0.953125 
Q 20.953125 3.328125 18.109375 8.203125 
L 18.109375 0 
L 9.078125 0 
L 9.078125 75.984375 
L 18.109375 75.984375 
z
" id="DejaVuSans-62"/>
      <path d="M 8.015625 75.875 
L 15.828125 75.875 
Q 23.140625 64.359375 26.78125 53.3125 
Q 30.421875 42.28125 30.421875 31.390625 
Q 30.421875 20.453125 26.78125 9.375 
Q 23.140625 -1.703125 15.828125 -13.1875 
L 8.015625 -13.1875 
Q 14.5 -2 17.703125 9.0625 
Q 20.90625 20.125 20.90625 31.390625 
Q 20.90625 42.671875 17.703125 53.65625 
Q 14.5 64.65625 8.015625 75.875 
z
" id="DejaVuSans-29"/>
     </defs>
     <g transform="translate(3.265625 454.665625)rotate(-90)scale(0.2 -0.2)">
      <use xlink:href="#DejaVuSans-42"/>
      <use x="68.603516" xlink:href="#DejaVuSans-61"/>
      <use x="129.882812" xlink:href="#DejaVuSans-6e"/>
      <use x="193.261719" xlink:href="#DejaVuSans-64"/>
      <use x="256.738281" xlink:href="#DejaVuSans-77"/>
      <use x="338.525391" xlink:href="#DejaVuSans-69"/>
      <use x="366.308594" xlink:href="#DejaVuSans-64"/>
      <use x="429.785156" xlink:href="#DejaVuSans-74"/>
      <use x="468.994141" xlink:href="#DejaVuSans-68"/>
      <use x="532.373047" xlink:href="#DejaVuSans-20"/>
      <use x="564.160156" xlink:href="#DejaVuSans-28"/>
      <use x="603.173828" xlink:href="#DejaVuSans-6b"/>
      <use x="661.083984" xlink:href="#DejaVuSans-62"/>
      <use x="724.560547" xlink:href="#DejaVuSans-70"/>
      <use x="788.037109" xlink:href="#DejaVuSans-73"/>
      <use x="840.136719" xlink:href="#DejaVuSans-29"/>
     </g>
    </g>
   </g>
   <g id="line2d_14">
    <path clip-path="url(#p6ac0b52e3b)" d="M 138.215909 617.225979 
L 139.152788 642.250839 
L 140.089668 617.988119 
L 141.026547 609.373481 
L 141.963426 637.274437 
L 142.900305 660.069222 
L 143.837184 651.893995 
L 144.774064 639.823258 
L 145.710943 606.582761 
L 146.647822 596.458636 
L 147.584701 619.511834 
L 148.52158 557.612787 
L 149.45846 601.458371 
L 150.395339 652.500751 
L 151.332218 656.923333 
L 152.269097 668.321858 
L 153.205977 648.667846 
L 154.142856 656.471967 
L 155.079735 670.134153 
L 156.016614 636.70582 
L 156.953493 635.243583 
L 157.890373 648.689477 
L 158.827252 676.615477 
L 159.764131 678.052676 
L 160.70101 678.002589 
L 161.63789 665.156042 
L 162.574769 671.499629 
L 164.448527 630.612681 
L 165.385406 661.148974 
L 166.322286 661.703356 
L 167.259165 650.662848 
L 168.196044 661.586674 
L 169.132923 661.862159 
L 170.069802 672.856 
L 171.006682 666.32345 
L 171.943561 662.808152 
L 172.88044 671.048834 
L 173.817319 633.503575 
L 174.754199 654.420046 
L 175.691078 613.058961 
L 176.627957 661.800124 
L 177.564836 659.509716 
L 178.501715 671.470603 
L 179.438595 650.960534 
L 180.375474 619.852204 
L 181.312353 554.985992 
L 182.249232 666.471438 
L 183.186112 643.488248 
L 184.122991 604.697045 
L 185.05987 596.962932 
L 185.996749 601.523256 
L 186.933628 632.201845 
L 187.870508 634.323774 
L 188.807387 571.086574 
L 189.744266 574.420299 
L 190.681145 534.646105 
L 192.554904 671.895215 
L 193.491783 634.142777 
L 194.428662 650.607069 
L 195.365541 626.940289 
L 196.302421 579.00851 
L 198.176179 645.600501 
L 199.113058 642.21441 
L 200.049937 640.763552 
L 200.986817 647.753736 
L 201.923696 599.893105 
L 202.860575 637.129862 
L 203.797454 644.290805 
L 204.734334 628.082077 
L 206.608092 676.352517 
L 207.544971 644.857143 
L 208.48185 653.520734 
L 209.41873 641.139787 
L 210.355609 581.43609 
L 211.292488 652.496768 
L 212.229367 623.909936 
L 213.166246 633.310623 
L 214.103126 635.339774 
L 215.040005 565.711743 
L 215.976884 683.321064 
L 216.913763 664.837303 
L 217.850643 667.616068 
L 218.787522 630.550639 
L 219.724401 635.376773 
L 220.66128 665.037087 
L 221.598159 631.906439 
L 222.535039 654.929471 
L 223.471918 645.802559 
L 224.408797 642.934428 
L 225.345676 619.88465 
L 226.282556 666.557383 
L 227.219435 643.271955 
L 228.156314 668.36398 
L 229.093193 656.722408 
L 230.966952 650.229124 
L 231.903831 669.850696 
L 232.84071 646.549907 
L 233.777589 645.253299 
L 234.714468 654.455335 
L 235.651348 667.881878 
L 236.588227 663.630624 
L 237.525106 658.064551 
L 238.461985 675.283016 
L 239.398865 678.392483 
L 240.335744 634.490549 
L 241.272623 681.345989 
L 242.209502 670.158627 
L 243.146381 655.216911 
L 244.083261 649.225649 
L 245.02014 684.860148 
L 245.957019 673.350056 
L 246.893898 673.858911 
L 247.830778 687.159091 
L 248.767657 661.489913 
L 249.704536 674.584622 
L 250.641415 653.909487 
L 251.578294 648.399194 
L 252.515174 649.906965 
L 253.452053 682.527619 
L 255.325811 655.354083 
L 256.26269 649.700355 
L 258.136449 679.611111 
L 259.073328 679.144377 
L 260.010207 654.41208 
L 260.947087 670.615685 
L 261.883966 668.30877 
L 262.820845 651.634448 
L 263.757724 656.883485 
L 264.694603 676.137934 
L 265.631483 665.922741 
L 266.568362 635.652257 
L 267.505241 639.842609 
L 268.44212 626.772944 
L 269.379 668.851774 
L 270.315879 655.952867 
L 271.252758 679.024276 
L 272.189637 644.475221 
L 273.126516 642.99761 
L 274.063396 680.236648 
L 275.000275 672.85657 
L 275.937154 646.060403 
L 276.874033 668.935446 
L 277.810913 648.907473 
L 278.747792 618.885727 
L 279.684671 683.536217 
L 280.62155 682.459321 
L 281.558429 672.693214 
L 282.495309 635.044932 
L 283.432188 658.172127 
L 284.369067 634.960126 
L 285.305946 684.802088 
L 286.242825 658.32979 
L 287.179705 665.260776 
L 288.116584 644.347154 
L 289.053463 645.248746 
L 289.990342 677.345747 
L 290.927222 642.614549 
L 291.864101 664.426919 
L 292.80098 678.843279 
L 293.737859 658.659351 
L 294.674738 668.126063 
L 295.611618 664.349508 
L 296.548497 654.031292 
L 297.485376 662.194 
L 298.422255 664.538478 
L 299.359135 647.560208 
L 300.296014 645.076848 
L 301.232893 673.22142 
L 302.169772 659.805122 
L 303.106651 618.618778 
L 304.043531 666.831159 
L 304.98041 676.008727 
L 305.917289 676.993421 
L 306.854168 636.140622 
L 307.791047 678.499489 
L 308.727927 654.782616 
L 309.664806 644.713138 
L 310.601685 654.883367 
L 311.538564 639.879038 
L 312.475444 652.779648 
L 313.412323 645.378516 
L 314.349202 658.38386 
L 315.286081 663.322123 
L 316.22296 639.118032 
L 317.15984 618.372319 
L 318.096719 664.846978 
L 319.033598 634.619749 
L 319.970477 678.986714 
L 320.907357 680.912841 
L 321.844236 683.253906 
L 322.781115 671.977178 
L 323.717994 651.841635 
L 324.654873 649.048634 
L 325.591753 680.921947 
L 326.528632 646.961424 
L 327.465511 656.623938 
L 328.40239 678.909304 
L 329.339269 667.839193 
L 330.276149 621.66222 
L 331.213028 684.718422 
L 332.149907 671.461497 
L 333.086786 679.80065 
L 334.023666 672.815588 
L 334.960545 659.582567 
L 335.897424 670.147242 
L 336.834303 654.887349 
L 337.771182 628.727535 
L 338.708062 572.808364 
L 339.644941 635.056317 
L 340.58182 584.844382 
L 341.518699 638.48225 
L 342.455579 619.084942 
L 343.392458 642.073818 
L 344.329337 636.852104 
L 345.266216 662.134231 
L 346.203095 681.36762 
L 347.139975 611.918313 
L 348.076854 667.154457 
L 349.013733 638.091793 
L 349.950612 602.241571 
L 350.887491 609.767928 
L 351.824371 646.6848 
L 352.76125 634.579908 
L 353.698129 641.745397 
L 354.635008 655.913595 
L 355.571888 656.313734 
L 356.508767 631.669656 
L 357.445646 648.585314 
L 358.382525 641.238251 
L 359.319404 672.51506 
L 360.256284 661.446089 
L 361.193163 663.136573 
L 362.130042 674.536239 
L 363.066921 579.043799 
L 364.003801 638.210184 
L 364.94068 637.151493 
L 365.877559 683.111034 
L 366.814438 618.003487 
L 367.751317 620.319508 
L 368.688197 656.980246 
L 369.625076 650.754487 
L 370.561955 669.903063 
L 371.498834 582.504457 
L 373.372593 679.478491 
L 374.309472 681.26687 
L 376.18323 621.089619 
L 377.12011 679.158605 
L 378.056989 640.963336 
L 378.993868 677.119209 
L 379.930747 638.112853 
L 380.867626 674.609666 
L 381.804506 647.729256 
L 382.741385 666.342801 
L 383.678264 665.243698 
L 384.615143 636.010845 
L 385.552023 641.14548 
L 386.488902 668.427161 
L 387.425781 680.549694 
L 388.36266 672.72509 
L 389.299539 661.82744 
L 390.236419 683.032491 
L 391.173298 678.336133 
L 392.110177 668.879097 
L 393.047056 654.27946 
L 393.983935 678.480702 
L 394.920815 682.873688 
L 395.857694 644.669883 
L 396.794573 674.980778 
L 397.731452 618.673988 
L 398.668332 663.079654 
L 399.605211 681.628307 
L 400.54209 664.511725 
L 401.478969 669.769303 
L 402.415848 671.261713 
L 403.352728 681.126284 
L 404.289607 650.103906 
L 405.226486 673.552684 
L 406.163365 681.57537 
L 407.100245 684.454316 
L 408.037124 680.032304 
L 408.974003 676.594986 
L 409.910882 662.61349 
L 410.847761 666.308082 
L 411.784641 636.290313 
L 412.72152 620.825513 
L 413.658399 679.06981 
L 414.595278 651.645263 
L 415.532157 576.405619 
L 416.469037 465.83486 
L 417.405916 676.436183 
L 418.342795 663.617535 
L 419.279674 672.365932 
L 420.216554 686.020153 
L 421.153433 679.597446 
L 422.090312 661.38632 
L 423.027191 676.889828 
L 424.90095 678.300275 
L 425.837829 664.185583 
L 426.774708 652.450664 
L 427.711587 655.314241 
L 428.648467 658.641704 
L 429.585346 680.019215 
L 430.522225 657.04741 
L 431.459104 680.400003 
L 432.395983 666.505587 
L 433.332863 660.651504 
L 434.269742 674.009742 
L 435.206621 649.303059 
L 436.1435 680.669796 
L 437.080379 675.617694 
L 438.017259 669.758488 
L 438.954138 653.260047 
L 439.891017 676.177776 
L 440.827896 682.370525 
L 441.764776 677.213697 
L 442.701655 666.524938 
L 443.638534 678.817095 
L 444.575413 637.712714 
L 445.512292 678.203507 
L 446.449172 650.921826 
L 447.386051 679.516623 
L 448.32293 654.016494 
L 449.259809 672.965856 
L 450.196689 666.73952 
L 452.070447 681.042611 
L 453.007326 674.442897 
L 453.944205 670.0852 
L 454.881085 671.094368 
L 455.817964 675.963763 
L 456.754843 656.952359 
L 457.691722 657.478285 
L 458.628601 675.542563 
L 459.565481 675.057618 
L 460.50236 659.539312 
L 461.439239 675.359857 
L 462.376118 678.906454 
L 463.312998 652.550268 
L 464.249877 649.0566 
L 465.186756 659.980433 
L 466.123635 679.624199 
L 467.060514 659.069736 
L 467.997394 672.579375 
L 468.934273 662.312955 
L 470.808031 676.482857 
L 471.744911 640.385613 
L 472.68179 632.510345 
L 473.618669 642.411915 
L 474.555548 671.15584 
L 475.492427 664.719481 
L 476.429307 660.146062 
L 477.366186 665.214671 
L 478.303065 671.830894 
L 479.239944 670.213837 
L 480.176823 649.597331 
L 481.113703 658.004218 
L 482.050582 674.107073 
L 482.987461 676.891538 
L 483.92434 667.133967 
L 484.86122 679.385143 
L 485.798099 665.588057 
L 486.734978 671.08014 
L 487.671857 671.31294 
L 488.608736 673.156534 
L 489.545616 655.034197 
L 490.482495 662.74554 
L 491.419374 681.570817 
L 492.356253 686.427118 
L 493.293133 676.692317 
L 494.230012 676.326333 
L 495.166891 667.927982 
L 496.10377 673.733118 
L 497.040649 651.571836 
L 497.977529 642.001531 
L 498.914408 668.163055 
L 499.851287 670.613406 
L 500.788166 669.179625 
L 501.725045 672.494569 
L 502.661925 677.682134 
L 503.598804 671.284477 
L 504.535683 677.268336 
L 505.472562 672.659065 
L 506.409442 680.29641 
L 507.346321 677.02871 
L 508.2832 679.571833 
L 509.220079 684.189077 
L 510.156958 674.280674 
L 511.093838 682.116101 
L 512.030717 682.984677 
L 512.967596 670.573564 
L 513.904475 676.179485 
L 514.841355 677.765806 
L 515.778234 665.994459 
L 516.715113 680.229245 
L 517.651992 683.176496 
L 518.588871 665.303467 
L 519.525751 684.366091 
L 520.46263 682.787172 
L 521.399509 670.370367 
L 522.336388 679.339039 
L 523.273267 670.37378 
L 524.210147 683.736571 
L 525.147026 681.125714 
L 526.083905 675.132179 
L 527.020784 686.313849 
L 527.957664 680.872423 
L 528.894543 672.573682 
L 529.831422 681.401769 
L 530.768301 679.197307 
L 531.70518 679.094853 
L 532.64206 669.733445 
L 533.578939 673.766133 
L 534.515818 661.412503 
L 535.452697 680.572465 
L 536.389577 680.623122 
L 537.326456 678.210909 
L 539.200214 668.875108 
L 540.137093 670.139846 
L 541.073973 671.977178 
L 542.010852 656.124758 
L 542.947731 680.111994 
L 543.88461 680.418214 
L 544.821489 662.921421 
L 545.758369 656.425863 
L 546.695248 663.556633 
L 547.632127 663.850329 
L 548.569006 652.209898 
L 549.505886 664.2351 
L 550.442765 661.719864 
L 551.379644 656.101424 
L 552.316523 671.910014 
L 553.253402 654.915806 
L 554.190282 660.172815 
L 555.127161 644.198597 
L 556.06404 630.970128 
L 557.000919 653.257767 
L 557.937799 626.257833 
L 558.874678 649.241587 
L 559.811557 642.609996 
L 560.748436 656.610279 
L 561.685315 638.291007 
L 562.622195 550.502508 
L 563.559074 650.294016 
L 564.495953 675.169178 
L 565.432832 679.747713 
L 566.369712 651.33221 
L 567.306591 673.860615 
L 568.24347 662.240104 
L 569.180349 680.29356 
L 570.117228 674.416144 
L 571.054108 681.29021 
L 571.990987 674.307998 
L 572.927866 680.332269 
L 573.864745 658.737325 
L 574.801624 680.026618 
L 575.738504 674.991024 
L 576.675383 676.629141 
L 577.612262 673.478693 
L 578.549141 659.131208 
L 579.486021 686.405487 
L 580.4229 673.780362 
L 581.359779 678.07544 
L 582.296658 681.634569 
L 583.233537 681.723928 
L 584.170417 679.891718 
L 585.107296 678.587145 
L 586.044175 679.213245 
L 586.981054 678.227417 
L 587.917934 680.498468 
L 588.854813 674.438338 
L 589.791692 681.183773 
L 590.728571 681.512195 
L 591.66545 684.197042 
L 592.60233 663.980676 
L 593.539209 665.564153 
L 594.476088 678.254171 
L 595.412967 681.936237 
L 596.349846 682.553232 
L 597.286726 682.750173 
L 598.223605 681.93908 
L 599.160484 682.145697 
L 600.097363 678.895639 
L 601.034243 661.489344 
L 601.971122 677.795972 
L 602.908001 680.280472 
L 603.84488 684.124761 
L 604.781759 681.739866 
L 605.718639 680.711347 
L 606.655518 683.341555 
L 607.592397 682.537294 
L 608.529276 678.781807 
L 609.466156 680.742653 
L 610.403035 679.739748 
L 611.339914 677.650828 
L 612.276793 683.479867 
L 613.213672 677.530163 
L 614.150552 680.513272 
L 615.087431 681.125714 
L 616.02431 678.839289 
L 616.961189 677.443077 
L 617.898068 680.454643 
L 618.834948 682.940283 
L 619.771827 679.157465 
L 620.708706 682.661948 
L 621.645585 684.111097 
L 622.582465 675.51752 
L 623.519344 684.900559 
L 624.456223 681.266306 
L 625.393102 678.810263 
L 626.329981 681.591308 
L 627.266861 676.439602 
L 628.20374 635.50256 
L 629.140619 534.150345 
L 630.077498 525.732642 
L 631.014378 488.253985 
L 631.951257 464.192759 
L 632.888136 575.515982 
L 633.825015 664.201521 
L 634.761894 670.172855 
L 635.698774 653.809877 
L 636.635653 656.063856 
L 637.572532 657.0514 
L 638.509411 649.363391 
L 639.44629 648.496525 
L 640.38317 618.7588 
L 641.320049 641.146043 
L 642.256928 653.917453 
L 643.193807 631.081118 
L 644.130687 643.277648 
L 645.067566 650.636095 
L 646.004445 660.846735 
L 646.941324 645.024482 
L 647.878203 664.33585 
L 648.815083 635.169586 
L 649.751962 639.852285 
L 650.688841 633.065874 
L 651.62572 646.20839 
L 652.5626 666.477694 
L 653.499479 654.342066 
L 654.436358 671.248048 
L 655.373237 671.184303 
L 656.310116 669.864355 
L 657.246996 654.524209 
L 658.183875 643.718198 
L 659.120754 670.151795 
L 660.057633 662.367601 
L 660.994512 670.75912 
L 661.931392 643.045424 
L 662.868271 675.38376 
L 663.80515 680.665813 
L 664.742029 643.213333 
L 665.678909 651.174546 
L 666.615788 656.124195 
L 668.489546 678.246198 
L 669.426425 638.861898 
L 670.363305 634.212215 
L 671.300184 672.872507 
L 672.237063 678.528516 
L 673.173942 660.761923 
L 674.110822 661.089775 
L 675.047701 671.558828 
L 675.98458 672.087028 
L 676.921459 672.060281 
L 677.858338 658.906373 
L 678.795218 675.467996 
L 679.732097 664.618161 
L 680.668976 668.986103 
L 681.605855 676.16639 
L 682.542734 675.162345 
L 683.479614 679.361803 
L 684.416493 669.880293 
L 685.353372 676.526118 
L 686.290251 673.1645 
L 687.227131 660.693055 
L 688.16401 676.692317 
L 689.100889 657.022937 
L 690.037768 683.380263 
L 690.974647 676.696306 
L 691.911527 676.894381 
L 692.848406 680.758021 
L 693.785285 678.943453 
L 694.722164 673.910702 
L 695.659044 681.170109 
L 696.595923 668.754443 
L 697.532802 670.509812 
L 698.469681 667.425389 
L 699.40656 679.135271 
L 700.34344 664.533355 
L 701.280319 679.361803 
L 702.217198 676.543196 
L 703.154077 672.604988 
L 704.090956 670.151225 
L 705.027836 680.956096 
L 705.964715 678.025353 
L 706.901594 678.447693 
L 707.838473 681.198571 
L 708.775353 670.485909 
L 709.712232 664.510585 
L 710.649111 671.833173 
L 711.58599 671.567364 
L 712.522869 674.724074 
L 713.459749 680.344224 
L 714.396628 677.403806 
L 715.333507 665.837359 
L 716.270386 669.804592 
L 717.207266 670.099428 
L 718.144145 656.174852 
L 719.081024 669.553581 
L 720.017903 496.952295 
L 720.954782 514.608462 
L 721.891662 670.913934 
L 722.828541 672.183225 
L 723.76542 507.043974 
L 724.702299 672.56913 
L 725.639178 671.82976 
L 726.576058 495.303926 
L 727.512937 661.110835 
L 728.449816 659.449377 
L 729.386695 664.706386 
L 730.323575 344.203666 
L 731.260454 611.693485 
L 732.197333 660.582059 
L 733.134212 667.650787 
L 734.071091 662.254333 
L 735.007971 668.88422 
L 735.94485 662.6909 
L 736.881729 653.070508 
L 737.818608 660.989031 
L 738.755488 644.705172 
L 739.692367 636.009135 
L 740.629246 663.517355 
L 741.566125 634.766034 
L 742.503004 570.971026 
L 743.439884 669.419821 
L 744.376763 672.384713 
L 745.313642 665.04107 
L 746.250521 673.403556 
L 747.1874 672.972118 
L 748.12428 676.232415 
L 749.061159 674.44403 
L 749.998038 671.894076 
L 750.934917 663.869686 
L 751.871797 657.338833 
L 752.808676 658.626336 
L 753.745555 677.454463 
L 754.682434 659.410106 
L 755.619313 673.81793 
L 756.556193 661.485361 
L 757.493072 652.936748 
L 758.429951 678.970206 
L 760.30371 655.593709 
L 761.240589 679.14779 
L 762.177468 678.683906 
L 763.114347 671.969776 
L 764.051226 672.313566 
L 764.988106 674.218632 
L 765.924985 677.120349 
L 766.861864 654.445659 
L 767.798743 676.45554 
L 768.735622 646.9711 
L 769.672502 666.053651 
L 770.609381 664.547013 
L 771.54626 653.556023 
L 772.483139 670.170582 
L 774.356898 656.750295 
L 775.293777 671.703967 
L 776.230656 662.151309 
L 777.167535 666.627391 
L 778.104415 667.775441 
L 779.041294 671.219592 
L 780.915052 663.91522 
L 781.851932 667.444177 
L 782.788811 674.474196 
L 783.72569 653.180357 
L 784.662569 671.875295 
L 785.599448 671.775114 
L 786.536328 680.612876 
L 788.410086 666.441835 
L 789.346965 679.000942 
L 790.283844 681.536668 
L 791.220724 679.561587 
L 792.157603 670.229775 
L 793.094482 658.503391 
L 794.031361 683.294887 
L 794.968241 679.970832 
L 795.90512 677.910381 
L 796.841999 676.831199 
L 798.715757 685.026916 
L 799.652637 681.452996 
L 800.589516 674.57722 
L 801.526395 682.258966 
L 803.400154 675.796418 
L 804.337033 677.129454 
L 805.273912 675.596063 
L 806.210791 676.678658 
L 807.14767 679.72267 
L 808.08455 669.936072 
L 809.021429 668.809083 
L 809.958308 675.443523 
L 810.895187 669.152872 
L 811.832066 669.914448 
L 812.768946 652.421061 
L 813.705825 654.460457 
L 814.642704 653.961854 
L 815.579583 669.938352 
L 816.516463 500.636635 
L 817.453342 655.983033 
L 818.390221 653.345423 
L 819.3271 647.369535 
L 820.263979 652.756885 
L 821.200859 653.702301 
L 822.137738 644.312999 
L 823.074617 661.147264 
L 824.011496 660.710126 
L 824.948376 664.696711 
L 825.885255 671.970916 
L 826.822134 659.415798 
L 827.759013 668.018487 
L 828.695892 659.452797 
L 829.632772 656.915931 
L 830.569651 679.708442 
L 831.50653 669.339568 
L 832.443409 665.481621 
L 833.380288 676.621169 
L 834.317168 662.993138 
L 835.254047 669.451697 
L 836.190926 673.218576 
L 837.127805 670.300352 
L 838.064685 670.10911 
L 839.001564 674.387681 
L 839.938443 668.223964 
L 840.875322 670.08463 
L 841.812201 673.939165 
L 842.749081 658.665607 
L 843.68596 672.985206 
L 844.622839 681.020417 
L 845.559718 638.63593 
L 846.496598 641.14263 
L 847.433477 669.72092 
L 848.370356 670.680001 
L 849.307235 676.570512 
L 850.244114 677.991204 
L 851.180994 671.195682 
L 852.117873 676.708255 
L 853.054752 677.674738 
L 853.991631 673.71775 
L 854.928511 675.700227 
L 855.86539 683.06493 
L 856.802269 680.902026 
L 857.739148 672.788835 
L 858.676027 677.057167 
L 859.612907 678.648617 
L 860.549786 674.184483 
L 861.486665 670.975976 
L 862.423544 678.771561 
L 863.360423 679.471659 
L 864.297303 681.327778 
L 865.234182 679.130149 
L 866.171061 676.633694 
L 867.10794 678.672521 
L 868.04482 46.340909 
L 869.918578 649.379329 
L 870.855457 499.839207 
L 871.792336 674.623324 
L 872.729216 668.683295 
L 873.666095 677.982099 
L 874.602974 340.070233 
L 875.539853 515.326207 
L 876.476733 534.477626 
L 877.413612 667.143642 
L 878.350491 507.166348 
L 879.28737 558.284998 
L 880.224249 457.287951 
L 881.161129 660.286654 
L 882.098008 503.268559 
L 883.034887 671.922539 
L 883.971766 672.166717 
L 884.908645 677.258091 
L 885.845525 676.328606 
L 886.782404 677.406649 
L 886.782404 677.406649 
" style="fill:none;stroke:#000000;stroke-linecap:square;stroke-width:1.5;"/>
   </g>
   <g id="line2d_15">
    <path clip-path="url(#p6ac0b52e3b)" d="M 887.719283 658.374184 
L 888.656162 671.438727 
L 889.593042 674.490134 
L 891.4668 669.858099 
L 892.403679 663.019885 
L 893.340558 644.27828 
L 894.277438 648.907473 
L 895.214317 619.818625 
L 896.151196 620.244947 
L 897.088075 629.28704 
L 898.024955 618.774738 
L 898.961834 633.22695 
L 899.898713 636.920972 
L 900.835592 634.421105 
L 901.772471 623.761948 
L 902.709351 625.666445 
L 903.64623 667.453852 
L 904.583109 650.659999 
L 905.519988 673.303952 
L 906.456867 668.976428 
L 907.393747 666.102035 
L 908.330626 670.565028 
L 909.267505 672.433667 
L 910.204384 661.606595 
L 911.141264 660.048167 
L 912.078143 671.224144 
L 913.015022 668.23136 
L 913.951901 663.821303 
L 914.88878 664.342106 
L 915.82566 658.59389 
L 916.762539 662.216194 
L 917.699418 660.154034 
L 918.636297 669.050989 
L 919.573177 663.58338 
L 920.510056 665.625626 
L 921.446935 664.576616 
L 922.383814 664.861207 
L 923.320693 673.988112 
L 924.257573 679.710715 
L 925.194452 673.609034 
L 926.131331 673.208895 
L 927.06821 681.00391 
L 928.005089 675.565327 
L 928.941969 675.660955 
L 929.878848 684.993337 
L 930.815727 679.299761 
L 931.752606 675.318305 
L 932.689486 675.874398 
L 933.626365 667.019564 
L 934.563244 682.171881 
L 935.500123 679.443766 
L 936.437002 679.157465 
L 937.373882 674.224895 
L 938.310761 681.966404 
L 939.24764 675.847075 
L 940.184519 674.253358 
L 941.121399 677.732221 
L 942.058278 675.103723 
L 942.995157 681.292483 
L 943.932036 683.085991 
L 944.868915 679.704452 
L 945.805795 680.743793 
L 946.742674 676.771437 
L 947.679553 681.579923 
L 948.616432 676.384956 
L 949.553311 683.005168 
L 950.490191 679.191621 
L 951.42707 672.937963 
L 952.363949 677.740763 
L 953.300828 676.425937 
L 954.237708 678.617881 
L 955.174587 685.107176 
L 956.111466 677.388438 
L 957.048345 673.384775 
L 957.985224 676.639957 
L 958.922104 681.816706 
L 959.858983 672.389836 
L 960.795862 674.537378 
L 961.732741 682.787742 
L 962.669621 672.141104 
L 963.6065 676.292184 
L 964.543379 678.274091 
L 965.480258 675.843662 
L 966.417137 678.809693 
L 967.354017 674.347269 
L 968.290896 672.651092 
L 970.164654 686.028688 
L 971.101533 681.887284 
L 972.038413 676.082154 
L 972.975292 675.578422 
L 973.912171 675.321148 
L 975.78593 686.534124 
L 976.722809 673.486089 
L 977.659688 684.63475 
L 978.596567 680.783634 
L 979.533446 681.832644 
L 980.470326 674.216929 
L 981.407205 682.627799 
L 982.344084 681.50081 
L 983.280963 681.151897 
L 984.217843 683.824227 
L 985.154722 673.575454 
L 986.091601 670.939548 
L 987.02848 673.329566 
L 987.965359 674.416714 
L 988.902239 677.752148 
L 989.839118 677.505689 
L 990.775997 683.724053 
L 991.712876 679.549639 
L 992.649755 672.853157 
L 993.586635 680.155818 
L 994.523514 682.891329 
L 995.460393 682.364263 
L 996.397272 522.719373 
L 997.334152 675.845941 
L 998.271031 674.934104 
L 999.20791 679.43295 
L 1000.144789 679.260489 
L 1001.081668 671.497356 
L 1002.018548 670.648125 
L 1002.955427 677.063429 
L 1003.892306 677.65937 
L 1004.829185 518.152786 
L 1005.766065 604.865523 
L 1006.702944 583.46923 
L 1007.639823 512.866751 
L 1008.576702 678.852384 
L 1009.513581 681.686366 
L 1010.450461 505.836155 
L 1011.38734 531.170085 
L 1012.324219 676.868198 
L 1013.261098 410.055712 
L 1014.197977 624.520675 
L 1015.134857 534.342163 
L 1016.071736 674.855554 
L 1017.008615 525.430404 
L 1017.945494 670.225792 
L 1018.882374 679.649813 
L 1019.819253 674.043891 
L 1020.756132 675.447506 
L 1021.693011 675.024603 
L 1022.62989 682.43541 
L 1023.56677 673.125228 
L 1024.503649 679.949208 
L 1025.440528 676.083858 
L 1026.377407 675.634772 
L 1027.314287 674.178221 
L 1028.251166 675.923351 
L 1029.188045 670.325396 
L 1030.124924 663.297649 
L 1031.061803 679.940665 
L 1031.998683 673.16678 
L 1032.935562 680.229245 
L 1033.872441 675.427585 
L 1034.80932 662.704558 
L 1035.746199 681.458688 
L 1036.683079 674.431512 
L 1037.619958 657.637658 
L 1038.556837 680.201922 
L 1039.493716 675.666647 
L 1040.430596 674.281814 
L 1041.367475 666.054791 
L 1042.304354 675.309193 
L 1043.241233 671.170638 
L 1044.178112 677.474383 
L 1045.114992 672.758099 
L 1046.051871 649.945103 
L 1046.98875 673.693846 
L 1047.925629 680.808678 
L 1048.862509 674.52429 
L 1049.799388 673.182718 
L 1050.736267 677.404939 
L 1051.673146 677.748729 
L 1052.610025 674.746838 
L 1053.546905 661.761415 
L 1054.483784 671.470033 
L 1055.420663 672.289662 
L 1055.420663 672.289662 
" style="fill:none;stroke:#1f77b4;stroke-linecap:square;stroke-width:1.5;"/>
   </g>
   <g id="line2d_16">
    <path clip-path="url(#p6ac0b52e3b)" d="M 1056.357542 669.681648 
L 1057.294421 668.528475 
L 1058.231301 673.238497 
L 1059.16818 680.006127 
L 1060.105059 673.31875 
L 1061.041938 674.882308 
L 1061.978818 670.263924 
L 1062.915697 668.538721 
L 1063.852576 669.582037 
L 1064.789455 665.602285 
L 1065.726334 677.50512 
L 1066.663214 675.043954 
L 1067.600093 674.67854 
L 1068.536972 667.937094 
L 1069.473851 668.430004 
L 1070.410731 672.38358 
L 1071.34761 676.452121 
L 1072.284489 673.350056 
L 1073.221368 524.643221 
L 1074.158247 640.941136 
" style="fill:none;stroke:#ff7f0e;stroke-linecap:square;stroke-width:1.5;"/>
   </g>
   <g id="line2d_17">
    <path clip-path="url(#p6ac0b52e3b)" d="M 1075.095127 522.214501 
L 1076.032006 514.276058 
L 1076.968885 451.952968 
L 1077.905764 668.85974 
L 1078.842643 676.668983 
L 1079.779523 679.138114 
L 1080.716402 559.555992 
L 1081.653281 513.429676 
L 1082.59016 515.173096 
L 1083.52704 678.919549 
L 1084.463919 501.609374 
L 1085.400798 678.406141 
L 1086.337677 667.148765 
L 1087.274556 671.82976 
L 1088.211436 669.603098 
L 1089.148315 663.292527 
L 1090.085194 666.619425 
L 1091.022073 663.944247 
L 1091.958953 667.317813 
L 1092.895832 611.510778 
L 1093.832711 564.525561 
L 1094.76959 628.953502 
L 1095.706469 669.72149 
L 1096.643349 666.022345 
L 1097.580228 522.446732 
L 1098.517107 668.071987 
L 1099.453986 668.974148 
L 1100.390865 672.166717 
L 1101.327745 678.432325 
L 1102.264624 676.695736 
L 1103.201503 668.3304 
L 1104.138382 673.686444 
L 1105.075262 653.416001 
L 1106.012141 666.848806 
L 1106.94902 678.030476 
L 1107.885899 669.020822 
L 1108.822778 676.845434 
L 1109.759658 675.938149 
L 1110.696537 679.452878 
L 1111.633416 679.534271 
L 1112.570295 673.247033 
L 1113.507175 679.851307 
L 1114.444054 674.223755 
L 1115.380933 678.468753 
L 1116.317812 664.25673 
L 1117.254691 673.205482 
L 1118.191571 656.698498 
L 1119.12845 660.085159 
L 1120.065329 652.647599 
L 1121.002208 676.08898 
L 1121.939087 668.064591 
L 1122.875967 676.786235 
L 1123.812846 682.544127 
L 1124.749725 680.832012 
L 1125.686604 679.868948 
L 1126.623484 679.969698 
L 1127.560363 677.230198 
L 1128.497242 683.170233 
L 1129.434121 681.016428 
L 1130.371 676.998544 
L 1131.30788 684.448624 
L 1132.244759 683.936356 
L 1133.181638 683.029071 
L 1134.118517 674.842466 
L 1135.055397 674.80945 
L 1135.992276 686.495992 
L 1137.866034 672.703459 
L 1138.802913 684.44749 
L 1139.739793 680.851369 
L 1140.676672 675.466863 
L 1141.613551 673.315907 
L 1142.55043 678.148867 
L 1143.48731 681.306718 
L 1144.424189 679.341882 
L 1145.361068 675.434417 
L 1146.297947 673.668802 
L 1147.234826 672.471799 
L 1148.171706 668.586534 
L 1149.108585 682.013647 
L 1150.045464 677.721975 
L 1150.982343 683.856102 
L 1151.919222 672.692074 
L 1152.856102 677.433972 
L 1153.792981 677.487472 
L 1154.72986 675.539714 
L 1155.666739 680.286165 
L 1156.603619 674.396793 
L 1157.540498 675.256833 
L 1158.477377 667.443037 
L 1159.414256 666.239777 
L 1160.351135 667.289927 
L 1161.288015 667.520447 
L 1162.224894 678.371992 
L 1163.161773 680.146143 
L 1164.098652 678.029906 
L 1165.035532 683.960266 
L 1165.972411 676.781112 
L 1166.90929 668.3839 
L 1167.846169 672.279416 
L 1168.783048 682.608448 
L 1169.719928 672.194604 
L 1170.656807 681.02497 
L 1171.593686 678.268399 
L 1172.530565 673.404126 
L 1173.467444 673.369407 
L 1174.404324 662.120573 
L 1175.341203 653.387544 
L 1176.278082 664.001736 
L 1177.214961 655.654042 
L 1178.151841 656.855598 
L 1179.08872 669.004884 
L 1180.025599 643.823501 
L 1180.962478 636.465054 
L 1181.899357 644.912352 
L 1182.836237 672.775177 
L 1183.773116 667.347986 
L 1184.709995 644.682972 
L 1185.646874 638.204492 
L 1186.583754 643.098924 
L 1187.520633 636.688179 
L 1188.457512 652.706228 
L 1189.394391 651.69421 
L 1190.33127 650.457941 
L 1191.26815 665.544802 
L 1192.205029 666.683171 
L 1193.141908 669.026515 
L 1194.078787 674.968253 
L 1195.015666 670.420454 
L 1195.952546 676.95187 
L 1196.889425 674.380285 
L 1197.826304 679.251953 
L 1198.763183 662.79961 
L 1199.700063 671.416527 
L 1200.636942 676.961546 
L 1201.573821 675.157792 
L 1202.5107 677.696362 
L 1203.447579 673.014233 
L 1204.384459 675.870985 
L 1205.321338 666.526647 
L 1206.258217 680.215017 
L 1207.195096 667.740722 
L 1208.131976 672.443912 
L 1209.068855 658.90581 
L 1210.005734 674.10423 
L 1210.942613 660.708423 
L 1211.879492 669.895091 
L 1212.816372 676.592143 
L 1213.753251 672.830956 
L 1214.69013 670.247986 
L 1215.627009 670.370367 
L 1216.563888 676.287625 
L 1217.500768 677.02814 
L 1218.437647 670.874662 
L 1219.374526 669.889968 
L 1220.311405 672.817868 
L 1221.248285 675.103153 
L 1222.185164 671.392053 
L 1223.122043 671.374975 
L 1224.058922 677.0048 
L 1224.995801 675.822031 
L 1225.932681 671.960671 
L 1226.86956 663.571431 
L 1227.806439 671.581022 
L 1228.743318 672.126306 
L 1229.680198 674.272139 
L 1230.617077 664.296572 
L 1231.553956 677.453893 
L 1232.490835 679.690224 
L 1233.427714 660.230304 
L 1234.364594 674.476476 
L 1235.301473 675.149827 
L 1236.238352 673.711487 
L 1237.175231 671.990267 
L 1238.11211 677.097008 
L 1239.04899 678.101624 
L 1239.985869 681.480319 
L 1240.922748 681.160433 
L 1241.859627 679.445475 
L 1242.796507 677.00594 
L 1243.733386 678.017387 
L 1244.670265 675.762269 
L 1245.607144 676.304703 
L 1246.544023 669.61164 
L 1247.480903 676.386666 
L 1248.417782 676.638817 
L 1249.354661 682.605599 
L 1250.29154 671.294722 
L 1251.22842 664.94089 
L 1252.165299 676.863645 
L 1253.102178 677.774912 
L 1254.039057 677.877935 
L 1254.975936 671.483691 
L 1255.912816 668.365689 
L 1256.849695 675.534591 
L 1257.786574 671.502479 
L 1258.723453 678.793755 
L 1259.660332 667.851142 
L 1260.597212 663.829838 
L 1261.534091 641.975354 
L 1261.534091 641.975354 
" style="fill:none;stroke:#2ca02c;stroke-linecap:square;stroke-width:1.5;"/>
   </g>
   <g id="line2d_18">
    <path clip-path="url(#p6ac0b52e3b)" d="M 182.249232 644.520635 
L 183.186112 645.067766 
L 184.122991 644.285395 
L 185.05987 643.84737 
L 186.933628 643.578145 
L 187.870508 643.041781 
L 188.807387 641.358294 
L 190.681145 638.497052 
L 191.618024 638.638921 
L 192.554904 639.730242 
L 193.491783 641.324617 
L 194.428662 642.348548 
L 195.365541 641.816038 
L 196.302421 640.192813 
L 197.2393 639.041538 
L 198.176179 638.977635 
L 199.113058 638.680602 
L 200.049937 638.068715 
L 200.986817 638.29888 
L 201.923696 637.562412 
L 202.860575 637.321586 
L 203.797454 636.648156 
L 204.734334 635.607101 
L 205.671213 635.097347 
L 206.608092 635.330607 
L 207.544971 634.775555 
L 208.48185 634.852336 
L 209.41873 635.071651 
L 210.355609 633.410966 
L 211.292488 633.219162 
L 214.103126 631.520176 
L 215.040005 629.288004 
L 215.976884 629.642121 
L 216.913763 629.684395 
L 218.787522 629.551359 
L 219.724401 629.154624 
L 220.66128 630.237502 
L 221.598159 629.614717 
L 222.535039 629.519295 
L 223.471918 628.984544 
L 224.408797 628.817334 
L 225.345676 628.81801 
L 226.282556 631.142414 
L 227.219435 630.659091 
L 228.156314 631.177335 
L 230.966952 634.455613 
L 231.903831 635.239964 
L 232.84071 635.494675 
L 234.714468 638.707212 
L 235.651348 641.482957 
L 236.588227 642.740504 
L 237.525106 642.452365 
L 238.461985 643.309453 
L 239.398865 643.888316 
L 240.335744 644.045613 
L 241.272623 646.177644 
L 242.209502 647.367185 
L 244.083261 647.713594 
L 245.02014 648.632273 
L 245.957019 649.16553 
L 246.893898 650.706484 
L 247.830778 651.74876 
L 248.767657 652.107075 
L 249.704536 653.075878 
L 250.641415 653.083692 
L 251.578294 652.501331 
L 252.515174 652.606536 
L 254.388932 653.772823 
L 255.325811 655.312781 
L 256.26269 655.254522 
L 259.073328 657.999911 
L 260.010207 659.847835 
L 260.947087 659.583139 
L 261.883966 659.655462 
L 262.820845 659.322511 
L 263.757724 659.871112 
L 264.694603 660.720303 
L 266.568362 660.816792 
L 268.44212 660.106032 
L 269.379 660.645977 
L 270.315879 661.397398 
L 271.252758 661.657125 
L 272.189637 661.682193 
L 273.126516 661.153727 
L 275.000275 662.045014 
L 276.874033 661.939098 
L 277.810913 661.988214 
L 278.747792 661.438889 
L 279.684671 662.044741 
L 281.558429 662.537242 
L 283.432188 661.70119 
L 284.369067 660.796349 
L 285.305946 661.844506 
L 286.242825 661.365002 
L 287.179705 661.262963 
L 288.116584 661.03651 
L 289.990342 660.797108 
L 290.927222 660.156785 
L 292.80098 659.787039 
L 294.674738 659.593515 
L 297.485376 660.184331 
L 300.296014 659.16723 
L 301.232893 659.657252 
L 302.169772 659.536869 
L 303.106651 658.266196 
L 304.043531 658.00967 
L 304.98041 658.459601 
L 305.917289 658.59247 
L 306.854168 657.9223 
L 307.791047 658.481989 
L 308.727927 658.438221 
L 309.664806 657.783537 
L 310.601685 657.55355 
L 311.538564 657.641608 
L 312.475444 657.91113 
L 313.412323 658.298746 
L 314.349202 658.080664 
L 315.286081 658.234191 
L 316.22296 657.402811 
L 317.15984 656.859 
L 318.096719 657.314195 
L 319.033598 656.363843 
L 319.970477 656.491555 
L 320.907357 657.217647 
L 321.844236 657.515948 
L 322.781115 657.996567 
L 323.717994 658.683149 
L 324.654873 657.964657 
L 325.591753 657.932629 
L 326.528632 657.39655 
L 328.40239 658.278137 
L 329.339269 658.963117 
L 330.276149 657.647703 
L 331.213028 658.197467 
L 332.149907 658.326648 
L 333.086786 659.065263 
L 334.023666 659.639572 
L 334.960545 659.269506 
L 335.897424 659.843104 
L 336.834303 659.644362 
L 337.771182 658.600284 
L 338.708062 656.811722 
L 339.644941 656.122769 
L 340.58182 654.466412 
L 341.518699 654.142474 
L 342.455579 653.244369 
L 343.392458 652.776355 
L 344.329337 652.553269 
L 345.266216 652.908632 
L 346.203095 653.078344 
L 347.139975 652.080702 
L 348.076854 653.091862 
L 349.013733 652.493125 
L 350.887491 649.555779 
L 351.824371 649.775449 
L 352.76125 648.860458 
L 353.698129 648.588849 
L 354.635008 648.822192 
L 355.571888 648.851991 
L 357.445646 648.59358 
L 358.382525 648.507325 
L 359.319404 648.801725 
L 360.256284 648.762641 
L 361.193163 649.263027 
L 362.130042 650.433109 
L 363.066921 648.645542 
L 364.003801 648.720343 
L 364.94068 647.848776 
L 365.877559 647.894572 
L 366.814438 646.535188 
L 367.751317 645.458987 
L 369.625076 645.60158 
L 370.561955 645.372019 
L 371.498834 644.029166 
L 372.435713 643.47498 
L 373.372593 643.486838 
L 374.309472 643.766581 
L 375.246351 644.410794 
L 376.18323 643.085194 
L 377.12011 643.24555 
L 378.056989 642.436439 
L 378.993868 642.526098 
L 379.930747 642.078812 
L 380.867626 642.17178 
L 381.804506 642.022653 
L 382.741385 642.806304 
L 383.678264 644.73204 
L 384.615143 644.751926 
L 385.552023 645.924866 
L 386.488902 646.548718 
L 387.425781 647.829234 
L 389.299539 648.988121 
L 390.236419 649.423502 
L 391.173298 649.360346 
L 392.110177 650.547029 
L 393.047056 650.2788 
L 393.983935 651.120235 
L 394.920815 652.800071 
L 396.794573 654.116695 
L 397.731452 653.785321 
L 399.605211 654.765508 
L 400.54209 654.9363 
L 401.478969 655.730042 
L 402.415848 656.202467 
L 403.352728 657.033468 
L 404.289607 656.566569 
L 405.226486 656.81879 
L 406.163365 657.202931 
L 407.100245 657.409558 
L 408.037124 659.513485 
L 408.974003 660.313168 
L 409.910882 660.843627 
L 410.847761 660.493565 
L 411.784641 660.874541 
L 412.72152 660.885083 
L 413.658399 661.345282 
L 414.595278 661.36384 
L 415.532157 659.415976 
L 416.469037 656.98536 
L 417.405916 657.952301 
L 418.342795 657.621864 
L 419.279674 657.436428 
L 420.216554 658.133006 
L 421.153433 659.351919 
L 422.090312 658.981663 
L 423.027191 659.730131 
L 423.96407 659.739535 
L 424.90095 660.576773 
L 425.837829 660.359604 
L 426.774708 660.457967 
L 428.648467 660.090664 
L 429.585346 661.007505 
L 431.459104 661.588229 
L 433.332863 661.044111 
L 434.269742 661.297909 
L 435.206621 660.595212 
L 437.080379 660.784218 
L 438.017259 661.106697 
L 438.954138 660.581267 
L 439.891017 660.441769 
L 440.827896 661.227199 
L 441.764776 661.273718 
L 442.701655 662.270613 
L 443.638534 662.598476 
L 444.575413 661.683568 
L 445.512292 661.968814 
L 446.449172 661.576158 
L 447.386051 661.748135 
L 448.32293 661.183348 
L 449.259809 661.659638 
L 453.944205 661.03434 
L 455.817964 661.412185 
L 456.754843 661.842644 
L 457.691722 662.606243 
L 458.628601 662.532759 
L 459.565481 663.020516 
L 460.50236 664.752468 
L 461.439239 669.117572 
L 462.376118 669.169036 
L 463.312998 668.938468 
L 465.186756 667.910363 
L 467.060514 667.862658 
L 467.997394 667.772857 
L 468.934273 667.45499 
L 469.871152 667.265131 
L 470.808031 667.521324 
L 471.744911 667.269969 
L 472.68179 666.794888 
L 473.618669 666.456767 
L 474.555548 666.272113 
L 475.492427 666.431948 
L 476.429307 666.009991 
L 477.366186 665.983097 
L 478.303065 666.216001 
L 480.176823 666.14305 
L 481.113703 665.670851 
L 482.050582 665.639379 
L 482.987461 665.787985 
L 483.92434 666.077025 
L 484.86122 666.143845 
L 485.798099 665.79421 
L 486.734978 665.666428 
L 487.671857 665.766178 
L 488.608736 665.648249 
L 489.545616 666.009114 
L 490.482495 665.687073 
L 491.419374 666.325593 
L 492.356253 666.469562 
L 493.293133 666.941975 
L 495.166891 667.036744 
L 496.10377 667.033578 
L 497.977529 665.743742 
L 500.788166 665.552341 
L 502.661925 666.297051 
L 503.598804 666.208341 
L 504.535683 666.254397 
L 505.472562 666.527725 
L 506.409442 666.63057 
L 507.346321 666.591451 
L 508.2832 667.1544 
L 509.220079 667.886326 
L 510.156958 668.184248 
L 511.093838 668.236163 
L 512.030717 668.734391 
L 512.967596 668.692603 
L 514.841355 669.160214 
L 515.778234 668.941705 
L 516.715113 669.771781 
L 517.651992 670.827326 
L 518.588871 671.304233 
L 522.336388 672.463121 
L 523.273267 672.432764 
L 524.210147 672.714488 
L 525.147026 673.371329 
L 527.020784 673.98247 
L 529.831422 674.220745 
L 530.768301 674.504271 
L 531.70518 674.671244 
L 533.578939 674.651038 
L 534.515818 674.78392 
L 535.452697 675.155314 
L 536.389577 675.13557 
L 538.263335 674.898279 
L 539.200214 674.743045 
L 542.010852 674.847396 
L 542.947731 675.641364 
L 543.88461 675.89668 
L 545.758369 675.470727 
L 547.632127 674.996357 
L 548.569006 674.59897 
L 550.442765 674.099544 
L 551.379644 673.595482 
L 552.316523 673.488842 
L 555.127161 671.848126 
L 556.06404 670.782585 
L 557.000919 670.163275 
L 557.937799 669.24003 
L 558.874678 668.678824 
L 559.811557 667.946411 
L 560.748436 667.750908 
L 561.685315 666.877194 
L 562.622195 664.113153 
L 563.559074 663.800456 
L 564.495953 663.608854 
L 565.432832 663.545532 
L 566.369712 663.148903 
L 570.117228 662.653806 
L 571.054108 662.782098 
L 571.990987 662.531976 
L 572.927866 662.520723 
L 573.864745 662.232466 
L 577.612262 662.142843 
L 578.549141 661.837948 
L 579.486021 662.358636 
L 581.359779 662.164057 
L 583.233537 662.406329 
L 585.107296 662.811827 
L 586.044175 662.962578 
L 586.981054 663.42305 
L 587.917934 663.431102 
L 588.854813 663.306521 
L 589.791692 663.686987 
L 591.66545 664.639627 
L 592.60233 664.642343 
L 594.476088 665.21262 
L 595.412967 665.633795 
L 596.349846 666.184874 
L 597.286726 666.410711 
L 601.971122 669.301349 
L 602.908001 670.42682 
L 606.655518 673.409417 
L 607.592397 676.160142 
L 608.529276 676.753638 
L 609.466156 676.869752 
L 610.403035 676.869586 
L 611.339914 677.41789 
L 612.276793 677.618292 
L 613.213672 677.936834 
L 614.150552 677.941412 
L 615.087431 678.081194 
L 616.02431 678.030134 
L 617.898068 678.097997 
L 618.834948 678.602226 
L 619.771827 678.584118 
L 621.645585 678.899803 
L 622.582465 678.942279 
L 623.519344 679.47914 
L 624.456223 679.372074 
L 626.329981 679.550111 
L 627.266861 679.441882 
L 628.20374 678.478937 
L 630.077498 672.25819 
L 631.951257 663.820816 
L 632.888136 661.633681 
L 634.761894 661.19102 
L 636.635653 660.027781 
L 637.572532 659.883421 
L 638.509411 659.545905 
L 639.44629 658.925954 
L 640.38317 657.609757 
L 641.320049 656.747107 
L 642.256928 656.146426 
L 643.193807 655.086885 
L 644.130687 654.277134 
L 645.067566 653.688393 
L 646.004445 653.675006 
L 646.941324 652.992266 
L 647.878203 652.660087 
L 649.751962 650.767529 
L 650.688841 649.774915 
L 651.62572 649.001308 
L 652.5626 648.666733 
L 653.499479 648.157571 
L 656.310116 647.61931 
L 658.183875 646.311652 
L 659.120754 646.095788 
L 660.057633 645.704993 
L 660.994512 645.536657 
L 661.931392 644.820039 
L 663.80515 644.667011 
L 665.678909 643.262187 
L 666.615788 642.679127 
L 668.489546 642.36037 
L 670.363305 640.547819 
L 671.300184 640.366177 
L 672.237063 640.409696 
L 673.173942 640.935933 
L 674.110822 643.580505 
L 675.047701 646.61855 
L 675.98458 650.448405 
L 676.921459 654.778979 
L 677.858338 656.516278 
L 678.795218 656.750997 
L 679.732097 656.635274 
L 681.605855 657.370248 
L 682.542734 657.747559 
L 683.479614 658.372526 
L 684.416493 658.818021 
L 685.353372 660.021507 
L 686.290251 660.688558 
L 687.227131 660.829717 
L 688.16401 661.77995 
L 689.100889 662.06631 
L 690.037768 662.74848 
L 690.974647 663.07868 
L 691.911527 663.742636 
L 692.848406 664.084765 
L 693.785285 664.99672 
L 694.722164 665.706271 
L 695.659044 666.708442 
L 696.595923 667.178152 
L 697.532802 667.262154 
L 699.40656 667.69904 
L 700.34344 667.560479 
L 701.280319 667.758342 
L 702.217198 668.217071 
L 703.154077 668.81888 
L 704.090956 668.818868 
L 705.027836 669.206128 
L 705.964715 669.357508 
L 706.901594 670.095055 
L 707.838473 670.216197 
L 708.775353 670.004116 
L 710.649111 670.878196 
L 711.58599 671.199929 
L 712.522869 671.363523 
L 713.459749 671.407232 
L 715.333507 672.869045 
L 716.270386 672.80513 
L 718.144145 672.53396 
L 719.081024 672.71029 
L 720.954782 665.79185 
L 721.891662 665.767968 
L 722.828541 666.044569 
L 723.76542 662.535735 
L 725.639178 662.760623 
L 726.576058 658.992655 
L 727.512937 658.699915 
L 728.449816 658.285073 
L 729.386695 658.177283 
L 730.323575 651.253899 
L 731.260454 649.973253 
L 732.197333 649.970941 
L 733.134212 649.782575 
L 734.071091 649.891563 
L 735.94485 649.297783 
L 737.818608 648.389598 
L 739.692367 646.886684 
L 740.629246 646.518919 
L 741.566125 645.810827 
L 742.503004 643.737102 
L 743.439884 643.778653 
L 744.376763 643.638016 
L 745.313642 643.648594 
L 747.1874 643.450066 
L 749.061159 643.615071 
L 750.934917 643.131369 
L 752.808676 642.221346 
L 753.745555 642.366524 
L 754.682434 642.260264 
L 755.619313 642.301614 
L 756.556193 642.091572 
L 757.493072 641.637669 
L 758.429951 641.609044 
L 760.30371 641.194866 
L 762.177468 641.568359 
L 763.114347 641.89742 
L 764.051226 641.954919 
L 765.924985 649.033632 
L 766.861864 648.690543 
L 767.798743 648.77955 
L 768.735622 651.694698 
L 770.609381 651.407235 
L 771.54626 654.704154 
L 773.420019 654.975799 
L 774.356898 654.810047 
L 775.293777 661.63297 
L 776.230656 662.684174 
L 777.167535 662.810119 
L 778.104415 662.812716 
L 779.041294 662.999492 
L 780.915052 662.999622 
L 782.788811 663.580015 
L 783.72569 663.756581 
L 784.662569 664.503793 
L 785.599448 664.675829 
L 786.536328 665.630972 
L 787.473207 667.769608 
L 788.410086 667.707566 
L 789.346965 667.845404 
L 790.283844 668.189063 
L 791.220724 668.317355 
L 792.157603 668.260223 
L 793.094482 667.890868 
L 795.90512 668.536041 
L 797.778878 669.408486 
L 798.715757 669.566245 
L 799.652637 670.025472 
L 800.589516 670.041291 
L 802.463274 671.016698 
L 803.400154 670.950578 
L 804.337033 671.145631 
L 805.273912 671.562347 
L 809.021429 671.417168 
L 809.958308 671.442687 
L 810.895187 671.276698 
L 811.832066 671.598964 
L 812.768946 671.098246 
L 813.705825 671.254274 
L 814.642704 671.002362 
L 815.579583 671.114681 
L 816.516463 667.928861 
L 818.390221 667.423221 
L 819.3271 667.227789 
L 820.263979 666.833058 
L 821.200859 666.657037 
L 822.137738 666.192154 
L 824.948376 665.773256 
L 825.885255 665.941083 
L 827.759013 665.639331 
L 828.695892 665.770007 
L 829.632772 665.458354 
L 830.569651 665.623631 
L 832.443409 665.219106 
L 833.380288 665.431175 
L 835.254047 664.845909 
L 836.190926 664.713763 
L 837.127805 664.715234 
L 838.064685 664.957019 
L 841.812201 664.303439 
L 842.749081 663.837904 
L 843.68596 663.587035 
L 844.622839 663.578023 
L 846.496598 661.972655 
L 848.370356 661.673109 
L 853.054752 661.695556 
L 855.86539 662.093003 
L 856.802269 662.321911 
L 858.676027 663.217004 
L 859.612907 663.731312 
L 860.549786 663.819773 
L 861.486665 667.368509 
L 863.360423 668.387567 
L 864.297303 669.09503 
L 867.10794 670.838034 
L 868.04482 658.029568 
L 868.981699 651.442798 
L 869.918578 651.123686 
L 870.855457 647.537609 
L 871.792336 647.854432 
L 872.729216 647.868282 
L 873.666095 648.25431 
L 874.602974 641.653357 
L 875.539853 638.228728 
L 876.476733 635.419104 
L 877.413612 635.453729 
L 878.350491 631.92342 
L 879.28737 629.742001 
L 880.224249 625.321923 
L 881.161129 625.052508 
L 882.098008 621.572679 
L 884.908645 621.752399 
L 886.782404 621.954722 
L 888.656162 621.916432 
L 889.593042 621.780384 
L 891.4668 623.079292 
L 892.403679 622.939687 
L 894.277438 621.813338 
L 896.151196 619.539936 
L 897.088075 618.551994 
L 898.024955 617.32491 
L 900.835592 614.660038 
L 901.772471 613.46962 
L 902.709351 612.487903 
L 903.64623 612.287834 
L 904.583109 611.704738 
L 906.456867 611.644736 
L 908.330626 611.195233 
L 909.267505 611.009939 
L 911.141264 610.299333 
L 912.078143 610.144159 
L 913.015022 623.10021 
L 913.951901 629.751796 
L 914.88878 630.06352 
L 915.82566 633.370909 
L 917.699418 632.934735 
L 918.636297 632.74867 
L 919.573177 639.488527 
L 920.510056 642.619765 
L 921.446935 645.33016 
L 922.383814 645.28261 
L 923.320693 648.758063 
L 924.257573 651.287766 
L 925.194452 655.794455 
L 926.131331 656.063668 
L 927.06821 659.766488 
L 931.752606 660.094719 
L 932.689486 660.459307 
L 933.626365 660.367241 
L 937.373882 661.103946 
L 938.310761 661.889115 
L 939.24764 662.450357 
L 943.932036 668.077763 
L 945.805795 669.934141 
L 947.679553 672.20337 
L 948.616432 672.389434 
L 949.553311 673.063292 
L 954.237708 673.761897 
L 955.174587 674.251493 
L 956.111466 674.612748 
L 957.048345 674.657762 
L 957.985224 674.832941 
L 958.922104 675.207845 
L 959.858983 675.375506 
L 962.669621 676.385966 
L 963.6065 676.536825 
L 966.417137 677.352279 
L 967.354017 677.549906 
L 969.227775 677.515672 
L 971.101533 677.955214 
L 972.975292 677.85295 
L 976.722809 677.878054 
L 979.533446 678.340245 
L 980.470326 678.231353 
L 985.154722 678.590332 
L 987.965359 678.268611 
L 989.839118 678.111682 
L 991.712876 678.23165 
L 992.649755 678.049842 
L 995.460393 678.192127 
L 996.397272 675.062573 
L 1001.081668 674.764461 
L 1003.892306 674.629659 
L 1004.829185 671.416387 
L 1005.766065 669.96489 
L 1006.702944 667.895754 
L 1007.639823 664.577539 
L 1009.513581 664.701965 
L 1010.450461 661.160142 
L 1011.38734 658.084317 
L 1012.324219 658.136836 
L 1013.261098 652.666099 
L 1014.197977 651.522686 
L 1015.134857 648.36255 
L 1016.071736 648.216056 
L 1017.008615 645.077478 
L 1017.945494 644.965965 
L 1018.882374 645.056145 
L 1021.693011 644.709475 
L 1022.62989 644.663655 
L 1023.56677 644.504105 
L 1026.377407 644.358073 
L 1029.188045 643.815366 
L 1030.124924 643.601245 
L 1031.061803 643.788768 
L 1031.998683 643.785377 
L 1032.935562 643.906471 
L 1033.872441 643.858043 
L 1034.80932 643.549686 
L 1036.683079 643.395863 
L 1037.619958 643.078873 
L 1038.556837 643.079834 
L 1040.430596 642.760935 
L 1041.367475 645.74709 
L 1044.178112 645.616699 
L 1045.114992 645.481232 
L 1046.051871 645.032227 
L 1047.925629 645.173705 
L 1048.862509 645.108391 
L 1049.799388 648.338182 
L 1050.736267 649.849419 
L 1051.673146 651.813576 
L 1052.610025 655.186077 
L 1053.546905 654.830016 
L 1054.483784 654.617175 
L 1055.420663 658.084957 
L 1056.357542 660.970614 
L 1057.294421 660.79687 
L 1058.231301 666.279845 
L 1059.16818 667.435792 
L 1060.105059 670.331137 
L 1061.041938 670.331695 
L 1061.978818 673.34906 
L 1062.915697 673.313912 
L 1064.789455 672.9283 
L 1066.663214 672.97157 
L 1070.410731 672.38481 
L 1072.284489 672.384585 
L 1073.221368 669.232915 
L 1074.158247 668.620743 
L 1075.095127 665.681511 
L 1076.032006 662.230165 
L 1076.968885 657.621544 
L 1077.905764 657.384679 
L 1078.842643 657.410542 
L 1079.779523 657.752908 
L 1080.716402 655.213268 
L 1082.59016 648.891051 
L 1083.52704 648.864335 
L 1084.463919 645.238142 
L 1086.337677 645.346857 
L 1088.211436 645.241711 
L 1089.148315 644.946256 
L 1090.085194 644.818367 
L 1091.022073 645.110016 
L 1091.958953 644.977182 
L 1092.895832 643.533476 
L 1093.832711 641.241835 
L 1094.76959 640.320393 
L 1096.643349 639.916022 
L 1097.580228 636.743103 
L 1098.517107 636.874573 
L 1100.390865 636.820014 
L 1102.264624 637.172471 
L 1104.138382 636.938559 
L 1105.075262 636.523919 
L 1106.012141 636.356554 
L 1106.94902 636.518357 
L 1107.885899 636.528401 
L 1111.633416 637.029179 
L 1112.570295 636.999356 
L 1113.507175 637.247569 
L 1115.380933 637.495046 
L 1116.317812 637.240975 
L 1117.254691 637.237963 
L 1118.191571 639.989115 
L 1119.12845 640.387949 
L 1120.065329 643.105305 
L 1121.002208 646.476408 
L 1121.939087 650.978733 
L 1123.812846 651.266267 
L 1124.749725 651.301557 
L 1125.686604 653.808077 
L 1127.560363 660.65385 
L 1128.497242 660.742406 
L 1129.434121 664.480053 
L 1130.371 664.450728 
L 1132.244759 665.063363 
L 1134.118517 665.583694 
L 1135.055397 665.75432 
L 1135.992276 666.224148 
L 1136.929155 666.487859 
L 1137.866034 667.762706 
L 1138.802913 670.26108 
L 1139.739793 671.342285 
L 1141.613551 671.61393 
L 1142.55043 674.857724 
L 1144.424189 675.349442 
L 1145.361068 675.41752 
L 1147.234826 675.230281 
L 1148.171706 675.235617 
L 1149.108585 675.4091 
L 1150.045464 675.915475 
L 1150.982343 676.269793 
L 1151.919222 676.158577 
L 1152.856102 676.333851 
L 1155.666739 676.356286 
L 1156.603619 676.249255 
L 1157.540498 676.291126 
L 1159.414256 675.866287 
L 1160.351135 675.633395 
L 1162.224894 675.809025 
L 1165.035532 677.323714 
L 1166.90929 677.344785 
L 1169.719928 677.072287 
L 1171.593686 677.060927 
L 1172.530565 676.981218 
L 1173.467444 676.777034 
L 1175.341203 675.891474 
L 1176.278082 675.465497 
L 1178.151841 674.331002 
L 1179.08872 674.209386 
L 1180.025599 673.563845 
L 1180.962478 672.521534 
L 1181.899357 671.791042 
L 1182.836237 671.792536 
L 1183.773116 671.436296 
L 1187.520633 668.413204 
L 1190.33127 666.721024 
L 1192.205029 666.431178 
L 1193.141908 666.440344 
L 1195.952546 665.997612 
L 1197.826304 666.070657 
L 1198.763183 665.76466 
L 1200.636942 665.609498 
L 1202.5107 665.676175 
L 1206.258217 666.241461 
L 1208.131976 665.859513 
L 1209.068855 665.461094 
L 1210.005734 665.25576 
L 1210.942613 664.920912 
L 1212.816372 665.042244 
L 1213.753251 664.838546 
L 1214.69013 664.797991 
L 1215.627009 664.576021 
L 1216.563888 664.534754 
L 1217.500768 664.610255 
L 1218.437647 664.558281 
L 1219.374526 664.720143 
L 1220.311405 665.124942 
L 1222.185164 665.684096 
L 1223.122043 665.986583 
L 1224.058922 666.153248 
L 1225.932681 667.559376 
L 1226.86956 667.948107 
L 1227.806439 667.923229 
L 1228.743318 668.022777 
L 1231.553956 669.898532 
L 1232.490835 670.794408 
L 1233.427714 670.951159 
L 1235.301473 671.940204 
L 1238.11211 672.389043 
L 1239.04899 672.454322 
L 1239.985869 672.684736 
L 1241.859627 672.877939 
L 1242.796507 672.831147 
L 1243.733386 673.148184 
L 1245.607144 673.225036 
L 1247.480903 673.082206 
L 1250.29154 673.397357 
L 1251.22842 673.079146 
L 1253.102178 673.38027 
L 1254.039057 673.775522 
L 1254.975936 673.720928 
L 1256.849695 673.997944 
L 1257.786574 673.891909 
L 1258.723453 674.016134 
L 1260.597212 673.829939 
L 1261.534091 673.1151 
L 1261.534091 673.1151 
" style="fill:none;stroke:#ff0000;stroke-linecap:square;stroke-width:1.5;"/>
   </g>
   <g id="patch_3">
    <path d="M 82.05 719.2 
L 82.05 14.3 
" style="fill:none;stroke:#000000;stroke-linecap:square;stroke-linejoin:miter;stroke-width:0.8;"/>
   </g>
   <g id="patch_4">
    <path d="M 1317.7 719.2 
L 1317.7 14.3 
" style="fill:none;stroke:#000000;stroke-linecap:square;stroke-linejoin:miter;stroke-width:0.8;"/>
   </g>
   <g id="patch_5">
    <path d="M 82.05 719.2 
L 1317.7 719.2 
" style="fill:none;stroke:#000000;stroke-linecap:square;stroke-linejoin:miter;stroke-width:0.8;"/>
   </g>
   <g id="patch_6">
    <path d="M 82.05 14.3 
L 1317.7 14.3 
" style="fill:none;stroke:#000000;stroke-linecap:square;stroke-linejoin:miter;stroke-width:0.8;"/>
   </g>
   <g id="legend_1">
    <g id="patch_7">
     <path d="M 971.753125 177.08125 
L 1303.7 177.08125 
Q 1307.7 177.08125 1307.7 173.08125 
L 1307.7 28.3 
Q 1307.7 24.3 1303.7 24.3 
L 971.753125 24.3 
Q 967.753125 24.3 967.753125 28.3 
L 967.753125 173.08125 
Q 967.753125 177.08125 971.753125 177.08125 
z
" style="fill:#ffffff;opacity:0.8;stroke:#cccccc;stroke-linejoin:miter;"/>
    </g>
    <g id="line2d_19">
     <path d="M 975.753125 40.496875 
L 1015.753125 40.496875 
" style="fill:none;stroke:#000000;stroke-linecap:square;stroke-width:1.5;"/>
    </g>
    <g id="line2d_20"/>
    <g id="text_16">
     <!-- Unused Data -->
     <defs>
      <path d="M 8.6875 72.90625 
L 18.609375 72.90625 
L 18.609375 28.609375 
Q 18.609375 16.890625 22.84375 11.734375 
Q 27.09375 6.59375 36.625 6.59375 
Q 46.09375 6.59375 50.34375 11.734375 
Q 54.59375 16.890625 54.59375 28.609375 
L 54.59375 72.90625 
L 64.5 72.90625 
L 64.5 27.390625 
Q 64.5 13.140625 57.4375 5.859375 
Q 50.390625 -1.421875 36.625 -1.421875 
Q 22.796875 -1.421875 15.734375 5.859375 
Q 8.6875 13.140625 8.6875 27.390625 
z
" id="DejaVuSans-55"/>
      <path d="M 19.671875 64.796875 
L 19.671875 8.109375 
L 31.59375 8.109375 
Q 46.6875 8.109375 53.6875 14.9375 
Q 60.6875 21.78125 60.6875 36.53125 
Q 60.6875 51.171875 53.6875 57.984375 
Q 46.6875 64.796875 31.59375 64.796875 
z
M 9.8125 72.90625 
L 30.078125 72.90625 
Q 51.265625 72.90625 61.171875 64.09375 
Q 71.09375 55.28125 71.09375 36.53125 
Q 71.09375 17.671875 61.125 8.828125 
Q 51.171875 0 30.078125 0 
L 9.8125 0 
z
" id="DejaVuSans-44"/>
     </defs>
     <g transform="translate(1031.753125 47.496875)scale(0.2 -0.2)">
      <use xlink:href="#DejaVuSans-55"/>
      <use x="73.193359" xlink:href="#DejaVuSans-6e"/>
      <use x="136.572266" xlink:href="#DejaVuSans-75"/>
      <use x="199.951172" xlink:href="#DejaVuSans-73"/>
      <use x="252.050781" xlink:href="#DejaVuSans-65"/>
      <use x="313.574219" xlink:href="#DejaVuSans-64"/>
      <use x="377.050781" xlink:href="#DejaVuSans-20"/>
      <use x="408.837891" xlink:href="#DejaVuSans-44"/>
      <use x="485.839844" xlink:href="#DejaVuSans-61"/>
      <use x="547.119141" xlink:href="#DejaVuSans-74"/>
      <use x="586.328125" xlink:href="#DejaVuSans-61"/>
     </g>
    </g>
    <g id="line2d_21">
     <path d="M 975.753125 69.853125 
L 1015.753125 69.853125 
" style="fill:none;stroke:#1f77b4;stroke-linecap:square;stroke-width:1.5;"/>
    </g>
    <g id="line2d_22"/>
    <g id="text_17">
     <!-- Training Data -->
     <defs>
      <path d="M -0.296875 72.90625 
L 61.375 72.90625 
L 61.375 64.59375 
L 35.5 64.59375 
L 35.5 0 
L 25.59375 0 
L 25.59375 64.59375 
L -0.296875 64.59375 
z
" id="DejaVuSans-54"/>
      <path d="M 41.109375 46.296875 
Q 39.59375 47.171875 37.8125 47.578125 
Q 36.03125 48 33.890625 48 
Q 26.265625 48 22.1875 43.046875 
Q 18.109375 38.09375 18.109375 28.8125 
L 18.109375 0 
L 9.078125 0 
L 9.078125 54.6875 
L 18.109375 54.6875 
L 18.109375 46.1875 
Q 20.953125 51.171875 25.484375 53.578125 
Q 30.03125 56 36.53125 56 
Q 37.453125 56 38.578125 55.875 
Q 39.703125 55.765625 41.0625 55.515625 
z
" id="DejaVuSans-72"/>
      <path d="M 45.40625 27.984375 
Q 45.40625 37.75 41.375 43.109375 
Q 37.359375 48.484375 30.078125 48.484375 
Q 22.859375 48.484375 18.828125 43.109375 
Q 14.796875 37.75 14.796875 27.984375 
Q 14.796875 18.265625 18.828125 12.890625 
Q 22.859375 7.515625 30.078125 7.515625 
Q 37.359375 7.515625 41.375 12.890625 
Q 45.40625 18.265625 45.40625 27.984375 
z
M 54.390625 6.78125 
Q 54.390625 -7.171875 48.1875 -13.984375 
Q 42 -20.796875 29.203125 -20.796875 
Q 24.46875 -20.796875 20.265625 -20.09375 
Q 16.0625 -19.390625 12.109375 -17.921875 
L 12.109375 -9.1875 
Q 16.0625 -11.328125 19.921875 -12.34375 
Q 23.78125 -13.375 27.78125 -13.375 
Q 36.625 -13.375 41.015625 -8.765625 
Q 45.40625 -4.15625 45.40625 5.171875 
L 45.40625 9.625 
Q 42.625 4.78125 38.28125 2.390625 
Q 33.9375 0 27.875 0 
Q 17.828125 0 11.671875 7.65625 
Q 5.515625 15.328125 5.515625 27.984375 
Q 5.515625 40.671875 11.671875 48.328125 
Q 17.828125 56 27.875 56 
Q 33.9375 56 38.28125 53.609375 
Q 42.625 51.21875 45.40625 46.390625 
L 45.40625 54.6875 
L 54.390625 54.6875 
z
" id="DejaVuSans-67"/>
     </defs>
     <g transform="translate(1031.753125 76.853125)scale(0.2 -0.2)">
      <use xlink:href="#DejaVuSans-54"/>
      <use x="60.865234" xlink:href="#DejaVuSans-72"/>
      <use x="101.978516" xlink:href="#DejaVuSans-61"/>
      <use x="163.257812" xlink:href="#DejaVuSans-69"/>
      <use x="191.041016" xlink:href="#DejaVuSans-6e"/>
      <use x="254.419922" xlink:href="#DejaVuSans-69"/>
      <use x="282.203125" xlink:href="#DejaVuSans-6e"/>
      <use x="345.582031" xlink:href="#DejaVuSans-67"/>
      <use x="409.058594" xlink:href="#DejaVuSans-20"/>
      <use x="440.845703" xlink:href="#DejaVuSans-44"/>
      <use x="517.847656" xlink:href="#DejaVuSans-61"/>
      <use x="579.126953" xlink:href="#DejaVuSans-74"/>
      <use x="618.335938" xlink:href="#DejaVuSans-61"/>
     </g>
    </g>
    <g id="line2d_23">
     <path d="M 975.753125 99.209375 
L 1015.753125 99.209375 
" style="fill:none;stroke:#ff7f0e;stroke-linecap:square;stroke-width:1.5;"/>
    </g>
    <g id="line2d_24"/>
    <g id="text_18">
     <!-- Validation Data -->
     <defs>
      <path d="M 28.609375 0 
L 0.78125 72.90625 
L 11.078125 72.90625 
L 34.1875 11.53125 
L 57.328125 72.90625 
L 67.578125 72.90625 
L 39.796875 0 
z
" id="DejaVuSans-56"/>
      <path d="M 9.421875 75.984375 
L 18.40625 75.984375 
L 18.40625 0 
L 9.421875 0 
z
" id="DejaVuSans-6c"/>
      <path d="M 30.609375 48.390625 
Q 23.390625 48.390625 19.1875 42.75 
Q 14.984375 37.109375 14.984375 27.296875 
Q 14.984375 17.484375 19.15625 11.84375 
Q 23.34375 6.203125 30.609375 6.203125 
Q 37.796875 6.203125 41.984375 11.859375 
Q 46.1875 17.53125 46.1875 27.296875 
Q 46.1875 37.015625 41.984375 42.703125 
Q 37.796875 48.390625 30.609375 48.390625 
z
M 30.609375 56 
Q 42.328125 56 49.015625 48.375 
Q 55.71875 40.765625 55.71875 27.296875 
Q 55.71875 13.875 49.015625 6.21875 
Q 42.328125 -1.421875 30.609375 -1.421875 
Q 18.84375 -1.421875 12.171875 6.21875 
Q 5.515625 13.875 5.515625 27.296875 
Q 5.515625 40.765625 12.171875 48.375 
Q 18.84375 56 30.609375 56 
z
" id="DejaVuSans-6f"/>
     </defs>
     <g transform="translate(1031.753125 106.209375)scale(0.2 -0.2)">
      <use xlink:href="#DejaVuSans-56"/>
      <use x="68.298828" xlink:href="#DejaVuSans-61"/>
      <use x="129.578125" xlink:href="#DejaVuSans-6c"/>
      <use x="157.361328" xlink:href="#DejaVuSans-69"/>
      <use x="185.144531" xlink:href="#DejaVuSans-64"/>
      <use x="248.621094" xlink:href="#DejaVuSans-61"/>
      <use x="309.900391" xlink:href="#DejaVuSans-74"/>
      <use x="349.109375" xlink:href="#DejaVuSans-69"/>
      <use x="376.892578" xlink:href="#DejaVuSans-6f"/>
      <use x="438.074219" xlink:href="#DejaVuSans-6e"/>
      <use x="501.453125" xlink:href="#DejaVuSans-20"/>
      <use x="533.240234" xlink:href="#DejaVuSans-44"/>
      <use x="610.242188" xlink:href="#DejaVuSans-61"/>
      <use x="671.521484" xlink:href="#DejaVuSans-74"/>
      <use x="710.730469" xlink:href="#DejaVuSans-61"/>
     </g>
    </g>
    <g id="line2d_25">
     <path d="M 975.753125 128.565625 
L 1015.753125 128.565625 
" style="fill:none;stroke:#2ca02c;stroke-linecap:square;stroke-width:1.5;"/>
    </g>
    <g id="line2d_26"/>
    <g id="text_19">
     <!-- Testing Data -->
     <g transform="translate(1031.753125 135.565625)scale(0.2 -0.2)">
      <use xlink:href="#DejaVuSans-54"/>
      <use x="60.818359" xlink:href="#DejaVuSans-65"/>
      <use x="122.341797" xlink:href="#DejaVuSans-73"/>
      <use x="174.441406" xlink:href="#DejaVuSans-74"/>
      <use x="213.650391" xlink:href="#DejaVuSans-69"/>
      <use x="241.433594" xlink:href="#DejaVuSans-6e"/>
      <use x="304.8125" xlink:href="#DejaVuSans-67"/>
      <use x="368.289062" xlink:href="#DejaVuSans-20"/>
      <use x="400.076172" xlink:href="#DejaVuSans-44"/>
      <use x="477.078125" xlink:href="#DejaVuSans-61"/>
      <use x="538.357422" xlink:href="#DejaVuSans-74"/>
      <use x="577.566406" xlink:href="#DejaVuSans-61"/>
     </g>
    </g>
    <g id="line2d_27">
     <path d="M 975.753125 157.921875 
L 1015.753125 157.921875 
" style="fill:none;stroke:#ff0000;stroke-linecap:square;stroke-width:1.5;"/>
    </g>
    <g id="line2d_28"/>
    <g id="text_20">
     <!-- Moving average (48 steps) -->
     <defs>
      <path d="M 2.984375 54.6875 
L 12.5 54.6875 
L 29.59375 8.796875 
L 46.6875 54.6875 
L 56.203125 54.6875 
L 35.6875 0 
L 23.484375 0 
z
" id="DejaVuSans-76"/>
     </defs>
     <g transform="translate(1031.753125 164.921875)scale(0.2 -0.2)">
      <use xlink:href="#DejaVuSans-4d"/>
      <use x="86.279297" xlink:href="#DejaVuSans-6f"/>
      <use x="147.460938" xlink:href="#DejaVuSans-76"/>
      <use x="206.640625" xlink:href="#DejaVuSans-69"/>
      <use x="234.423828" xlink:href="#DejaVuSans-6e"/>
      <use x="297.802734" xlink:href="#DejaVuSans-67"/>
      <use x="361.279297" xlink:href="#DejaVuSans-20"/>
      <use x="393.066406" xlink:href="#DejaVuSans-61"/>
      <use x="454.345703" xlink:href="#DejaVuSans-76"/>
      <use x="513.525391" xlink:href="#DejaVuSans-65"/>
      <use x="575.048828" xlink:href="#DejaVuSans-72"/>
      <use x="616.162109" xlink:href="#DejaVuSans-61"/>
      <use x="677.441406" xlink:href="#DejaVuSans-67"/>
      <use x="740.917969" xlink:href="#DejaVuSans-65"/>
      <use x="802.441406" xlink:href="#DejaVuSans-20"/>
      <use x="834.228516" xlink:href="#DejaVuSans-28"/>
      <use x="873.242188" xlink:href="#DejaVuSans-34"/>
      <use x="936.865234" xlink:href="#DejaVuSans-38"/>
      <use x="1000.488281" xlink:href="#DejaVuSans-20"/>
      <use x="1032.275391" xlink:href="#DejaVuSans-73"/>
      <use x="1084.375" xlink:href="#DejaVuSans-74"/>
      <use x="1123.583984" xlink:href="#DejaVuSans-65"/>
      <use x="1185.107422" xlink:href="#DejaVuSans-70"/>
      <use x="1248.583984" xlink:href="#DejaVuSans-73"/>
      <use x="1300.683594" xlink:href="#DejaVuSans-29"/>
     </g>
    </g>
   </g>
  </g>
 </g>
 <defs>
  <clipPath id="p6ac0b52e3b">
   <rect height="704.9" width="1235.65" x="82.05" y="14.3"/>
  </clipPath>
 </defs>
</svg>
