<?xml version="1.0" encoding="utf-8" standalone="no"?>
<!DOCTYPE svg PUBLIC "-//W3C//DTD SVG 1.1//EN"
  "http://www.w3.org/Graphics/SVG/1.1/DTD/svg11.dtd">
<!-- Created with matplotlib (http://matplotlib.org/) -->
<svg height="756pt" version="1.1" viewBox="0 0 1332 756" width="1332pt" xmlns="http://www.w3.org/2000/svg" xmlns:xlink="http://www.w3.org/1999/xlink">
 <defs>
  <style type="text/css">
*{stroke-linecap:butt;stroke-linejoin:round;}
  </style>
 </defs>
 <g id="figure_1">
  <g id="patch_1">
   <path d="M 0 756 
L 1332 756 
L 1332 0 
L 0 0 
z
" style="fill:#ffffff;"/>
  </g>
  <g id="axes_1">
   <g id="patch_2">
    <path d="M 69.175 719.2 
L 1317.7 719.2 
L 1317.7 14.3 
L 69.175 14.3 
z
" style="fill:#ffffff;"/>
   </g>
   <g id="matplotlib.axis_1">
    <g id="xtick_1">
     <g id="line2d_1">
      <defs>
       <path d="M 0 0 
L 0 3.5 
" id="me1eadfad76" style="stroke:#000000;stroke-width:0.8;"/>
      </defs>
      <g>
       <use style="stroke:#000000;stroke-width:0.8;" x="125.926136" xlink:href="#me1eadfad76" y="719.2"/>
      </g>
     </g>
     <g id="text_1">
      <!-- 0 -->
      <defs>
       <path d="M 31.78125 66.40625 
Q 24.171875 66.40625 20.328125 58.90625 
Q 16.5 51.421875 16.5 36.375 
Q 16.5 21.390625 20.328125 13.890625 
Q 24.171875 6.390625 31.78125 6.390625 
Q 39.453125 6.390625 43.28125 13.890625 
Q 47.125 21.390625 47.125 36.375 
Q 47.125 51.421875 43.28125 58.90625 
Q 39.453125 66.40625 31.78125 66.40625 
z
M 31.78125 74.21875 
Q 44.046875 74.21875 50.515625 64.515625 
Q 56.984375 54.828125 56.984375 36.375 
Q 56.984375 17.96875 50.515625 8.265625 
Q 44.046875 -1.421875 31.78125 -1.421875 
Q 19.53125 -1.421875 13.0625 8.265625 
Q 6.59375 17.96875 6.59375 36.375 
Q 6.59375 54.828125 13.0625 64.515625 
Q 19.53125 74.21875 31.78125 74.21875 
z
" id="DejaVuSans-30"/>
      </defs>
      <g transform="translate(119.563636 741.396875)scale(0.2 -0.2)">
       <use xlink:href="#DejaVuSans-30"/>
      </g>
     </g>
    </g>
    <g id="xtick_2">
     <g id="line2d_2">
      <g>
       <use style="stroke:#000000;stroke-width:0.8;" x="315.254364" xlink:href="#me1eadfad76" y="719.2"/>
      </g>
     </g>
     <g id="text_2">
      <!-- 200 -->
      <defs>
       <path d="M 19.1875 8.296875 
L 53.609375 8.296875 
L 53.609375 0 
L 7.328125 0 
L 7.328125 8.296875 
Q 12.9375 14.109375 22.625 23.890625 
Q 32.328125 33.6875 34.8125 36.53125 
Q 39.546875 41.84375 41.421875 45.53125 
Q 43.3125 49.21875 43.3125 52.78125 
Q 43.3125 58.59375 39.234375 62.25 
Q 35.15625 65.921875 28.609375 65.921875 
Q 23.96875 65.921875 18.8125 64.3125 
Q 13.671875 62.703125 7.8125 59.421875 
L 7.8125 69.390625 
Q 13.765625 71.78125 18.9375 73 
Q 24.125 74.21875 28.421875 74.21875 
Q 39.75 74.21875 46.484375 68.546875 
Q 53.21875 62.890625 53.21875 53.421875 
Q 53.21875 48.921875 51.53125 44.890625 
Q 49.859375 40.875 45.40625 35.40625 
Q 44.1875 33.984375 37.640625 27.21875 
Q 31.109375 20.453125 19.1875 8.296875 
z
" id="DejaVuSans-32"/>
      </defs>
      <g transform="translate(296.166864 741.396875)scale(0.2 -0.2)">
       <use xlink:href="#DejaVuSans-32"/>
       <use x="63.623047" xlink:href="#DejaVuSans-30"/>
       <use x="127.246094" xlink:href="#DejaVuSans-30"/>
      </g>
     </g>
    </g>
    <g id="xtick_3">
     <g id="line2d_3">
      <g>
       <use style="stroke:#000000;stroke-width:0.8;" x="504.582593" xlink:href="#me1eadfad76" y="719.2"/>
      </g>
     </g>
     <g id="text_3">
      <!-- 400 -->
      <defs>
       <path d="M 37.796875 64.3125 
L 12.890625 25.390625 
L 37.796875 25.390625 
z
M 35.203125 72.90625 
L 47.609375 72.90625 
L 47.609375 25.390625 
L 58.015625 25.390625 
L 58.015625 17.1875 
L 47.609375 17.1875 
L 47.609375 0 
L 37.796875 0 
L 37.796875 17.1875 
L 4.890625 17.1875 
L 4.890625 26.703125 
z
" id="DejaVuSans-34"/>
      </defs>
      <g transform="translate(485.495093 741.396875)scale(0.2 -0.2)">
       <use xlink:href="#DejaVuSans-34"/>
       <use x="63.623047" xlink:href="#DejaVuSans-30"/>
       <use x="127.246094" xlink:href="#DejaVuSans-30"/>
      </g>
     </g>
    </g>
    <g id="xtick_4">
     <g id="line2d_4">
      <g>
       <use style="stroke:#000000;stroke-width:0.8;" x="693.910821" xlink:href="#me1eadfad76" y="719.2"/>
      </g>
     </g>
     <g id="text_4">
      <!-- 600 -->
      <defs>
       <path d="M 33.015625 40.375 
Q 26.375 40.375 22.484375 35.828125 
Q 18.609375 31.296875 18.609375 23.390625 
Q 18.609375 15.53125 22.484375 10.953125 
Q 26.375 6.390625 33.015625 6.390625 
Q 39.65625 6.390625 43.53125 10.953125 
Q 47.40625 15.53125 47.40625 23.390625 
Q 47.40625 31.296875 43.53125 35.828125 
Q 39.65625 40.375 33.015625 40.375 
z
M 52.59375 71.296875 
L 52.59375 62.3125 
Q 48.875 64.0625 45.09375 64.984375 
Q 41.3125 65.921875 37.59375 65.921875 
Q 27.828125 65.921875 22.671875 59.328125 
Q 17.53125 52.734375 16.796875 39.40625 
Q 19.671875 43.65625 24.015625 45.921875 
Q 28.375 48.1875 33.59375 48.1875 
Q 44.578125 48.1875 50.953125 41.515625 
Q 57.328125 34.859375 57.328125 23.390625 
Q 57.328125 12.15625 50.6875 5.359375 
Q 44.046875 -1.421875 33.015625 -1.421875 
Q 20.359375 -1.421875 13.671875 8.265625 
Q 6.984375 17.96875 6.984375 36.375 
Q 6.984375 53.65625 15.1875 63.9375 
Q 23.390625 74.21875 37.203125 74.21875 
Q 40.921875 74.21875 44.703125 73.484375 
Q 48.484375 72.75 52.59375 71.296875 
z
" id="DejaVuSans-36"/>
      </defs>
      <g transform="translate(674.823321 741.396875)scale(0.2 -0.2)">
       <use xlink:href="#DejaVuSans-36"/>
       <use x="63.623047" xlink:href="#DejaVuSans-30"/>
       <use x="127.246094" xlink:href="#DejaVuSans-30"/>
      </g>
     </g>
    </g>
    <g id="xtick_5">
     <g id="line2d_5">
      <g>
       <use style="stroke:#000000;stroke-width:0.8;" x="883.239049" xlink:href="#me1eadfad76" y="719.2"/>
      </g>
     </g>
     <g id="text_5">
      <!-- 800 -->
      <defs>
       <path d="M 31.78125 34.625 
Q 24.75 34.625 20.71875 30.859375 
Q 16.703125 27.09375 16.703125 20.515625 
Q 16.703125 13.921875 20.71875 10.15625 
Q 24.75 6.390625 31.78125 6.390625 
Q 38.8125 6.390625 42.859375 10.171875 
Q 46.921875 13.96875 46.921875 20.515625 
Q 46.921875 27.09375 42.890625 30.859375 
Q 38.875 34.625 31.78125 34.625 
z
M 21.921875 38.8125 
Q 15.578125 40.375 12.03125 44.71875 
Q 8.5 49.078125 8.5 55.328125 
Q 8.5 64.0625 14.71875 69.140625 
Q 20.953125 74.21875 31.78125 74.21875 
Q 42.671875 74.21875 48.875 69.140625 
Q 55.078125 64.0625 55.078125 55.328125 
Q 55.078125 49.078125 51.53125 44.71875 
Q 48 40.375 41.703125 38.8125 
Q 48.828125 37.15625 52.796875 32.3125 
Q 56.78125 27.484375 56.78125 20.515625 
Q 56.78125 9.90625 50.3125 4.234375 
Q 43.84375 -1.421875 31.78125 -1.421875 
Q 19.734375 -1.421875 13.25 4.234375 
Q 6.78125 9.90625 6.78125 20.515625 
Q 6.78125 27.484375 10.78125 32.3125 
Q 14.796875 37.15625 21.921875 38.8125 
z
M 18.3125 54.390625 
Q 18.3125 48.734375 21.84375 45.5625 
Q 25.390625 42.390625 31.78125 42.390625 
Q 38.140625 42.390625 41.71875 45.5625 
Q 45.3125 48.734375 45.3125 54.390625 
Q 45.3125 60.0625 41.71875 63.234375 
Q 38.140625 66.40625 31.78125 66.40625 
Q 25.390625 66.40625 21.84375 63.234375 
Q 18.3125 60.0625 18.3125 54.390625 
z
" id="DejaVuSans-38"/>
      </defs>
      <g transform="translate(864.151549 741.396875)scale(0.2 -0.2)">
       <use xlink:href="#DejaVuSans-38"/>
       <use x="63.623047" xlink:href="#DejaVuSans-30"/>
       <use x="127.246094" xlink:href="#DejaVuSans-30"/>
      </g>
     </g>
    </g>
    <g id="xtick_6">
     <g id="line2d_6">
      <g>
       <use style="stroke:#000000;stroke-width:0.8;" x="1072.567277" xlink:href="#me1eadfad76" y="719.2"/>
      </g>
     </g>
     <g id="text_6">
      <!-- 1000 -->
      <defs>
       <path d="M 12.40625 8.296875 
L 28.515625 8.296875 
L 28.515625 63.921875 
L 10.984375 60.40625 
L 10.984375 69.390625 
L 28.421875 72.90625 
L 38.28125 72.90625 
L 38.28125 8.296875 
L 54.390625 8.296875 
L 54.390625 0 
L 12.40625 0 
z
" id="DejaVuSans-31"/>
      </defs>
      <g transform="translate(1047.117277 741.396875)scale(0.2 -0.2)">
       <use xlink:href="#DejaVuSans-31"/>
       <use x="63.623047" xlink:href="#DejaVuSans-30"/>
       <use x="127.246094" xlink:href="#DejaVuSans-30"/>
       <use x="190.869141" xlink:href="#DejaVuSans-30"/>
      </g>
     </g>
    </g>
    <g id="xtick_7">
     <g id="line2d_7">
      <g>
       <use style="stroke:#000000;stroke-width:0.8;" x="1261.895505" xlink:href="#me1eadfad76" y="719.2"/>
      </g>
     </g>
     <g id="text_7">
      <!-- 1200 -->
      <g transform="translate(1236.445505 741.396875)scale(0.2 -0.2)">
       <use xlink:href="#DejaVuSans-31"/>
       <use x="63.623047" xlink:href="#DejaVuSans-32"/>
       <use x="127.246094" xlink:href="#DejaVuSans-30"/>
       <use x="190.869141" xlink:href="#DejaVuSans-30"/>
      </g>
     </g>
    </g>
    <g id="text_8">
     <!-- 15-Minute Steps -->
     <defs>
      <path d="M 10.796875 72.90625 
L 49.515625 72.90625 
L 49.515625 64.59375 
L 19.828125 64.59375 
L 19.828125 46.734375 
Q 21.96875 47.46875 24.109375 47.828125 
Q 26.265625 48.1875 28.421875 48.1875 
Q 40.625 48.1875 47.75 41.5 
Q 54.890625 34.8125 54.890625 23.390625 
Q 54.890625 11.625 47.5625 5.09375 
Q 40.234375 -1.421875 26.90625 -1.421875 
Q 22.3125 -1.421875 17.546875 -0.640625 
Q 12.796875 0.140625 7.71875 1.703125 
L 7.71875 11.625 
Q 12.109375 9.234375 16.796875 8.0625 
Q 21.484375 6.890625 26.703125 6.890625 
Q 35.15625 6.890625 40.078125 11.328125 
Q 45.015625 15.765625 45.015625 23.390625 
Q 45.015625 31 40.078125 35.4375 
Q 35.15625 39.890625 26.703125 39.890625 
Q 22.75 39.890625 18.8125 39.015625 
Q 14.890625 38.140625 10.796875 36.28125 
z
" id="DejaVuSans-35"/>
      <path d="M 4.890625 31.390625 
L 31.203125 31.390625 
L 31.203125 23.390625 
L 4.890625 23.390625 
z
" id="DejaVuSans-2d"/>
      <path d="M 9.8125 72.90625 
L 24.515625 72.90625 
L 43.109375 23.296875 
L 61.8125 72.90625 
L 76.515625 72.90625 
L 76.515625 0 
L 66.890625 0 
L 66.890625 64.015625 
L 48.09375 14.015625 
L 38.1875 14.015625 
L 19.390625 64.015625 
L 19.390625 0 
L 9.8125 0 
z
" id="DejaVuSans-4d"/>
      <path d="M 9.421875 54.6875 
L 18.40625 54.6875 
L 18.40625 0 
L 9.421875 0 
z
M 9.421875 75.984375 
L 18.40625 75.984375 
L 18.40625 64.59375 
L 9.421875 64.59375 
z
" id="DejaVuSans-69"/>
      <path d="M 54.890625 33.015625 
L 54.890625 0 
L 45.90625 0 
L 45.90625 32.71875 
Q 45.90625 40.484375 42.875 44.328125 
Q 39.84375 48.1875 33.796875 48.1875 
Q 26.515625 48.1875 22.3125 43.546875 
Q 18.109375 38.921875 18.109375 30.90625 
L 18.109375 0 
L 9.078125 0 
L 9.078125 54.6875 
L 18.109375 54.6875 
L 18.109375 46.1875 
Q 21.34375 51.125 25.703125 53.5625 
Q 30.078125 56 35.796875 56 
Q 45.21875 56 50.046875 50.171875 
Q 54.890625 44.34375 54.890625 33.015625 
z
" id="DejaVuSans-6e"/>
      <path d="M 8.5 21.578125 
L 8.5 54.6875 
L 17.484375 54.6875 
L 17.484375 21.921875 
Q 17.484375 14.15625 20.5 10.265625 
Q 23.53125 6.390625 29.59375 6.390625 
Q 36.859375 6.390625 41.078125 11.03125 
Q 45.3125 15.671875 45.3125 23.6875 
L 45.3125 54.6875 
L 54.296875 54.6875 
L 54.296875 0 
L 45.3125 0 
L 45.3125 8.40625 
Q 42.046875 3.421875 37.71875 1 
Q 33.40625 -1.421875 27.6875 -1.421875 
Q 18.265625 -1.421875 13.375 4.4375 
Q 8.5 10.296875 8.5 21.578125 
z
M 31.109375 56 
z
" id="DejaVuSans-75"/>
      <path d="M 18.3125 70.21875 
L 18.3125 54.6875 
L 36.8125 54.6875 
L 36.8125 47.703125 
L 18.3125 47.703125 
L 18.3125 18.015625 
Q 18.3125 11.328125 20.140625 9.421875 
Q 21.96875 7.515625 27.59375 7.515625 
L 36.8125 7.515625 
L 36.8125 0 
L 27.59375 0 
Q 17.1875 0 13.234375 3.875 
Q 9.28125 7.765625 9.28125 18.015625 
L 9.28125 47.703125 
L 2.6875 47.703125 
L 2.6875 54.6875 
L 9.28125 54.6875 
L 9.28125 70.21875 
z
" id="DejaVuSans-74"/>
      <path d="M 56.203125 29.59375 
L 56.203125 25.203125 
L 14.890625 25.203125 
Q 15.484375 15.921875 20.484375 11.0625 
Q 25.484375 6.203125 34.421875 6.203125 
Q 39.59375 6.203125 44.453125 7.46875 
Q 49.3125 8.734375 54.109375 11.28125 
L 54.109375 2.78125 
Q 49.265625 0.734375 44.1875 -0.34375 
Q 39.109375 -1.421875 33.890625 -1.421875 
Q 20.796875 -1.421875 13.15625 6.1875 
Q 5.515625 13.8125 5.515625 26.8125 
Q 5.515625 40.234375 12.765625 48.109375 
Q 20.015625 56 32.328125 56 
Q 43.359375 56 49.78125 48.890625 
Q 56.203125 41.796875 56.203125 29.59375 
z
M 47.21875 32.234375 
Q 47.125 39.59375 43.09375 43.984375 
Q 39.0625 48.390625 32.421875 48.390625 
Q 24.90625 48.390625 20.390625 44.140625 
Q 15.875 39.890625 15.1875 32.171875 
z
" id="DejaVuSans-65"/>
      <path id="DejaVuSans-20"/>
      <path d="M 53.515625 70.515625 
L 53.515625 60.890625 
Q 47.90625 63.578125 42.921875 64.890625 
Q 37.9375 66.21875 33.296875 66.21875 
Q 25.25 66.21875 20.875 63.09375 
Q 16.5 59.96875 16.5 54.203125 
Q 16.5 49.359375 19.40625 46.890625 
Q 22.3125 44.4375 30.421875 42.921875 
L 36.375 41.703125 
Q 47.40625 39.59375 52.65625 34.296875 
Q 57.90625 29 57.90625 20.125 
Q 57.90625 9.515625 50.796875 4.046875 
Q 43.703125 -1.421875 29.984375 -1.421875 
Q 24.8125 -1.421875 18.96875 -0.25 
Q 13.140625 0.921875 6.890625 3.21875 
L 6.890625 13.375 
Q 12.890625 10.015625 18.65625 8.296875 
Q 24.421875 6.59375 29.984375 6.59375 
Q 38.421875 6.59375 43.015625 9.90625 
Q 47.609375 13.234375 47.609375 19.390625 
Q 47.609375 24.75 44.3125 27.78125 
Q 41.015625 30.8125 33.5 32.328125 
L 27.484375 33.5 
Q 16.453125 35.6875 11.515625 40.375 
Q 6.59375 45.0625 6.59375 53.421875 
Q 6.59375 63.09375 13.40625 68.65625 
Q 20.21875 74.21875 32.171875 74.21875 
Q 37.3125 74.21875 42.625 73.28125 
Q 47.953125 72.359375 53.515625 70.515625 
z
" id="DejaVuSans-53"/>
      <path d="M 18.109375 8.203125 
L 18.109375 -20.796875 
L 9.078125 -20.796875 
L 9.078125 54.6875 
L 18.109375 54.6875 
L 18.109375 46.390625 
Q 20.953125 51.265625 25.265625 53.625 
Q 29.59375 56 35.59375 56 
Q 45.5625 56 51.78125 48.09375 
Q 58.015625 40.1875 58.015625 27.296875 
Q 58.015625 14.40625 51.78125 6.484375 
Q 45.5625 -1.421875 35.59375 -1.421875 
Q 29.59375 -1.421875 25.265625 0.953125 
Q 20.953125 3.328125 18.109375 8.203125 
z
M 48.6875 27.296875 
Q 48.6875 37.203125 44.609375 42.84375 
Q 40.53125 48.484375 33.40625 48.484375 
Q 26.265625 48.484375 22.1875 42.84375 
Q 18.109375 37.203125 18.109375 27.296875 
Q 18.109375 17.390625 22.1875 11.75 
Q 26.265625 6.109375 33.40625 6.109375 
Q 40.53125 6.109375 44.609375 11.75 
Q 48.6875 17.390625 48.6875 27.296875 
z
" id="DejaVuSans-70"/>
      <path d="M 44.28125 53.078125 
L 44.28125 44.578125 
Q 40.484375 46.53125 36.375 47.5 
Q 32.28125 48.484375 27.875 48.484375 
Q 21.1875 48.484375 17.84375 46.4375 
Q 14.5 44.390625 14.5 40.28125 
Q 14.5 37.15625 16.890625 35.375 
Q 19.28125 33.59375 26.515625 31.984375 
L 29.59375 31.296875 
Q 39.15625 29.25 43.1875 25.515625 
Q 47.21875 21.78125 47.21875 15.09375 
Q 47.21875 7.46875 41.1875 3.015625 
Q 35.15625 -1.421875 24.609375 -1.421875 
Q 20.21875 -1.421875 15.453125 -0.5625 
Q 10.6875 0.296875 5.421875 2 
L 5.421875 11.28125 
Q 10.40625 8.6875 15.234375 7.390625 
Q 20.0625 6.109375 24.8125 6.109375 
Q 31.15625 6.109375 34.5625 8.28125 
Q 37.984375 10.453125 37.984375 14.40625 
Q 37.984375 18.0625 35.515625 20.015625 
Q 33.0625 21.96875 24.703125 23.78125 
L 21.578125 24.515625 
Q 13.234375 26.265625 9.515625 29.90625 
Q 5.8125 33.546875 5.8125 39.890625 
Q 5.8125 47.609375 11.28125 51.796875 
Q 16.75 56 26.8125 56 
Q 31.78125 56 36.171875 55.265625 
Q 40.578125 54.546875 44.28125 53.078125 
z
" id="DejaVuSans-73"/>
     </defs>
     <g transform="translate(611.792187 764.753125)scale(0.2 -0.2)">
      <use xlink:href="#DejaVuSans-31"/>
      <use x="63.623047" xlink:href="#DejaVuSans-35"/>
      <use x="127.246094" xlink:href="#DejaVuSans-2d"/>
      <use x="163.330078" xlink:href="#DejaVuSans-4d"/>
      <use x="249.609375" xlink:href="#DejaVuSans-69"/>
      <use x="277.392578" xlink:href="#DejaVuSans-6e"/>
      <use x="340.771484" xlink:href="#DejaVuSans-75"/>
      <use x="404.150391" xlink:href="#DejaVuSans-74"/>
      <use x="443.359375" xlink:href="#DejaVuSans-65"/>
      <use x="504.882812" xlink:href="#DejaVuSans-20"/>
      <use x="536.669922" xlink:href="#DejaVuSans-53"/>
      <use x="600.146484" xlink:href="#DejaVuSans-74"/>
      <use x="639.355469" xlink:href="#DejaVuSans-65"/>
      <use x="700.878906" xlink:href="#DejaVuSans-70"/>
      <use x="764.355469" xlink:href="#DejaVuSans-73"/>
     </g>
    </g>
   </g>
   <g id="matplotlib.axis_2">
    <g id="ytick_1">
     <g id="line2d_8">
      <defs>
       <path d="M 0 0 
L -3.5 0 
" id="m4da4646457" style="stroke:#000000;stroke-width:0.8;"/>
      </defs>
      <g>
       <use style="stroke:#000000;stroke-width:0.8;" x="69.175" xlink:href="#m4da4646457" y="710.518172"/>
      </g>
     </g>
     <g id="text_9">
      <!-- 0 -->
      <g transform="translate(49.45 718.11661)scale(0.2 -0.2)">
       <use xlink:href="#DejaVuSans-30"/>
      </g>
     </g>
    </g>
    <g id="ytick_2">
     <g id="line2d_9">
      <g>
       <use style="stroke:#000000;stroke-width:0.8;" x="69.175" xlink:href="#m4da4646457" y="615.428503"/>
      </g>
     </g>
     <g id="text_10">
      <!-- 250 -->
      <g transform="translate(24 623.026941)scale(0.2 -0.2)">
       <use xlink:href="#DejaVuSans-32"/>
       <use x="63.623047" xlink:href="#DejaVuSans-35"/>
       <use x="127.246094" xlink:href="#DejaVuSans-30"/>
      </g>
     </g>
    </g>
    <g id="ytick_3">
     <g id="line2d_10">
      <g>
       <use style="stroke:#000000;stroke-width:0.8;" x="69.175" xlink:href="#m4da4646457" y="520.338834"/>
      </g>
     </g>
     <g id="text_11">
      <!-- 500 -->
      <g transform="translate(24 527.937271)scale(0.2 -0.2)">
       <use xlink:href="#DejaVuSans-35"/>
       <use x="63.623047" xlink:href="#DejaVuSans-30"/>
       <use x="127.246094" xlink:href="#DejaVuSans-30"/>
      </g>
     </g>
    </g>
    <g id="ytick_4">
     <g id="line2d_11">
      <g>
       <use style="stroke:#000000;stroke-width:0.8;" x="69.175" xlink:href="#m4da4646457" y="425.249165"/>
      </g>
     </g>
     <g id="text_12">
      <!-- 750 -->
      <defs>
       <path d="M 8.203125 72.90625 
L 55.078125 72.90625 
L 55.078125 68.703125 
L 28.609375 0 
L 18.3125 0 
L 43.21875 64.59375 
L 8.203125 64.59375 
z
" id="DejaVuSans-37"/>
      </defs>
      <g transform="translate(24 432.847602)scale(0.2 -0.2)">
       <use xlink:href="#DejaVuSans-37"/>
       <use x="63.623047" xlink:href="#DejaVuSans-35"/>
       <use x="127.246094" xlink:href="#DejaVuSans-30"/>
      </g>
     </g>
    </g>
    <g id="ytick_5">
     <g id="line2d_12">
      <g>
       <use style="stroke:#000000;stroke-width:0.8;" x="69.175" xlink:href="#m4da4646457" y="330.159495"/>
      </g>
     </g>
     <g id="text_13">
      <!-- 1000 -->
      <g transform="translate(11.275 337.757933)scale(0.2 -0.2)">
       <use xlink:href="#DejaVuSans-31"/>
       <use x="63.623047" xlink:href="#DejaVuSans-30"/>
       <use x="127.246094" xlink:href="#DejaVuSans-30"/>
       <use x="190.869141" xlink:href="#DejaVuSans-30"/>
      </g>
     </g>
    </g>
    <g id="ytick_6">
     <g id="line2d_13">
      <g>
       <use style="stroke:#000000;stroke-width:0.8;" x="69.175" xlink:href="#m4da4646457" y="235.069826"/>
      </g>
     </g>
     <g id="text_14">
      <!-- 1250 -->
      <g transform="translate(11.275 242.668263)scale(0.2 -0.2)">
       <use xlink:href="#DejaVuSans-31"/>
       <use x="63.623047" xlink:href="#DejaVuSans-32"/>
       <use x="127.246094" xlink:href="#DejaVuSans-35"/>
       <use x="190.869141" xlink:href="#DejaVuSans-30"/>
      </g>
     </g>
    </g>
    <g id="ytick_7">
     <g id="line2d_14">
      <g>
       <use style="stroke:#000000;stroke-width:0.8;" x="69.175" xlink:href="#m4da4646457" y="139.980157"/>
      </g>
     </g>
     <g id="text_15">
      <!-- 1500 -->
      <g transform="translate(11.275 147.578594)scale(0.2 -0.2)">
       <use xlink:href="#DejaVuSans-31"/>
       <use x="63.623047" xlink:href="#DejaVuSans-35"/>
       <use x="127.246094" xlink:href="#DejaVuSans-30"/>
       <use x="190.869141" xlink:href="#DejaVuSans-30"/>
      </g>
     </g>
    </g>
    <g id="ytick_8">
     <g id="line2d_15">
      <g>
       <use style="stroke:#000000;stroke-width:0.8;" x="69.175" xlink:href="#m4da4646457" y="44.890487"/>
      </g>
     </g>
     <g id="text_16">
      <!-- 1750 -->
      <g transform="translate(11.275 52.488925)scale(0.2 -0.2)">
       <use xlink:href="#DejaVuSans-31"/>
       <use x="63.623047" xlink:href="#DejaVuSans-37"/>
       <use x="127.246094" xlink:href="#DejaVuSans-35"/>
       <use x="190.869141" xlink:href="#DejaVuSans-30"/>
      </g>
     </g>
    </g>
    <g id="text_17">
     <!-- Bandwidth (kbps) -->
     <defs>
      <path d="M 19.671875 34.8125 
L 19.671875 8.109375 
L 35.5 8.109375 
Q 43.453125 8.109375 47.28125 11.40625 
Q 51.125 14.703125 51.125 21.484375 
Q 51.125 28.328125 47.28125 31.5625 
Q 43.453125 34.8125 35.5 34.8125 
z
M 19.671875 64.796875 
L 19.671875 42.828125 
L 34.28125 42.828125 
Q 41.5 42.828125 45.03125 45.53125 
Q 48.578125 48.25 48.578125 53.8125 
Q 48.578125 59.328125 45.03125 62.0625 
Q 41.5 64.796875 34.28125 64.796875 
z
M 9.8125 72.90625 
L 35.015625 72.90625 
Q 46.296875 72.90625 52.390625 68.21875 
Q 58.5 63.53125 58.5 54.890625 
Q 58.5 48.1875 55.375 44.234375 
Q 52.25 40.28125 46.1875 39.3125 
Q 53.46875 37.75 57.5 32.78125 
Q 61.53125 27.828125 61.53125 20.40625 
Q 61.53125 10.640625 54.890625 5.3125 
Q 48.25 0 35.984375 0 
L 9.8125 0 
z
" id="DejaVuSans-42"/>
      <path d="M 34.28125 27.484375 
Q 23.390625 27.484375 19.1875 25 
Q 14.984375 22.515625 14.984375 16.5 
Q 14.984375 11.71875 18.140625 8.90625 
Q 21.296875 6.109375 26.703125 6.109375 
Q 34.1875 6.109375 38.703125 11.40625 
Q 43.21875 16.703125 43.21875 25.484375 
L 43.21875 27.484375 
z
M 52.203125 31.203125 
L 52.203125 0 
L 43.21875 0 
L 43.21875 8.296875 
Q 40.140625 3.328125 35.546875 0.953125 
Q 30.953125 -1.421875 24.3125 -1.421875 
Q 15.921875 -1.421875 10.953125 3.296875 
Q 6 8.015625 6 15.921875 
Q 6 25.140625 12.171875 29.828125 
Q 18.359375 34.515625 30.609375 34.515625 
L 43.21875 34.515625 
L 43.21875 35.40625 
Q 43.21875 41.609375 39.140625 45 
Q 35.0625 48.390625 27.6875 48.390625 
Q 23 48.390625 18.546875 47.265625 
Q 14.109375 46.140625 10.015625 43.890625 
L 10.015625 52.203125 
Q 14.9375 54.109375 19.578125 55.046875 
Q 24.21875 56 28.609375 56 
Q 40.484375 56 46.34375 49.84375 
Q 52.203125 43.703125 52.203125 31.203125 
z
" id="DejaVuSans-61"/>
      <path d="M 45.40625 46.390625 
L 45.40625 75.984375 
L 54.390625 75.984375 
L 54.390625 0 
L 45.40625 0 
L 45.40625 8.203125 
Q 42.578125 3.328125 38.25 0.953125 
Q 33.9375 -1.421875 27.875 -1.421875 
Q 17.96875 -1.421875 11.734375 6.484375 
Q 5.515625 14.40625 5.515625 27.296875 
Q 5.515625 40.1875 11.734375 48.09375 
Q 17.96875 56 27.875 56 
Q 33.9375 56 38.25 53.625 
Q 42.578125 51.265625 45.40625 46.390625 
z
M 14.796875 27.296875 
Q 14.796875 17.390625 18.875 11.75 
Q 22.953125 6.109375 30.078125 6.109375 
Q 37.203125 6.109375 41.296875 11.75 
Q 45.40625 17.390625 45.40625 27.296875 
Q 45.40625 37.203125 41.296875 42.84375 
Q 37.203125 48.484375 30.078125 48.484375 
Q 22.953125 48.484375 18.875 42.84375 
Q 14.796875 37.203125 14.796875 27.296875 
z
" id="DejaVuSans-64"/>
      <path d="M 4.203125 54.6875 
L 13.1875 54.6875 
L 24.421875 12.015625 
L 35.59375 54.6875 
L 46.1875 54.6875 
L 57.421875 12.015625 
L 68.609375 54.6875 
L 77.59375 54.6875 
L 63.28125 0 
L 52.6875 0 
L 40.921875 44.828125 
L 29.109375 0 
L 18.5 0 
z
" id="DejaVuSans-77"/>
      <path d="M 54.890625 33.015625 
L 54.890625 0 
L 45.90625 0 
L 45.90625 32.71875 
Q 45.90625 40.484375 42.875 44.328125 
Q 39.84375 48.1875 33.796875 48.1875 
Q 26.515625 48.1875 22.3125 43.546875 
Q 18.109375 38.921875 18.109375 30.90625 
L 18.109375 0 
L 9.078125 0 
L 9.078125 75.984375 
L 18.109375 75.984375 
L 18.109375 46.1875 
Q 21.34375 51.125 25.703125 53.5625 
Q 30.078125 56 35.796875 56 
Q 45.21875 56 50.046875 50.171875 
Q 54.890625 44.34375 54.890625 33.015625 
z
" id="DejaVuSans-68"/>
      <path d="M 31 75.875 
Q 24.46875 64.65625 21.28125 53.65625 
Q 18.109375 42.671875 18.109375 31.390625 
Q 18.109375 20.125 21.3125 9.0625 
Q 24.515625 -2 31 -13.1875 
L 23.1875 -13.1875 
Q 15.875 -1.703125 12.234375 9.375 
Q 8.59375 20.453125 8.59375 31.390625 
Q 8.59375 42.28125 12.203125 53.3125 
Q 15.828125 64.359375 23.1875 75.875 
z
" id="DejaVuSans-28"/>
      <path d="M 9.078125 75.984375 
L 18.109375 75.984375 
L 18.109375 31.109375 
L 44.921875 54.6875 
L 56.390625 54.6875 
L 27.390625 29.109375 
L 57.625 0 
L 45.90625 0 
L 18.109375 26.703125 
L 18.109375 0 
L 9.078125 0 
z
" id="DejaVuSans-6b"/>
      <path d="M 48.6875 27.296875 
Q 48.6875 37.203125 44.609375 42.84375 
Q 40.53125 48.484375 33.40625 48.484375 
Q 26.265625 48.484375 22.1875 42.84375 
Q 18.109375 37.203125 18.109375 27.296875 
Q 18.109375 17.390625 22.1875 11.75 
Q 26.265625 6.109375 33.40625 6.109375 
Q 40.53125 6.109375 44.609375 11.75 
Q 48.6875 17.390625 48.6875 27.296875 
z
M 18.109375 46.390625 
Q 20.953125 51.265625 25.265625 53.625 
Q 29.59375 56 35.59375 56 
Q 45.5625 56 51.78125 48.09375 
Q 58.015625 40.1875 58.015625 27.296875 
Q 58.015625 14.40625 51.78125 6.484375 
Q 45.5625 -1.421875 35.59375 -1.421875 
Q 29.59375 -1.421875 25.265625 0.953125 
Q 20.953125 3.328125 18.109375 8.203125 
L 18.109375 0 
L 9.078125 0 
L 9.078125 75.984375 
L 18.109375 75.984375 
z
" id="DejaVuSans-62"/>
      <path d="M 8.015625 75.875 
L 15.828125 75.875 
Q 23.140625 64.359375 26.78125 53.3125 
Q 30.421875 42.28125 30.421875 31.390625 
Q 30.421875 20.453125 26.78125 9.375 
Q 23.140625 -1.703125 15.828125 -13.1875 
L 8.015625 -13.1875 
Q 14.5 -2 17.703125 9.0625 
Q 20.90625 20.125 20.90625 31.390625 
Q 20.90625 42.671875 17.703125 53.65625 
Q 14.5 64.65625 8.015625 75.875 
z
" id="DejaVuSans-29"/>
     </defs>
     <g transform="translate(3.115625 454.665625)rotate(-90)scale(0.2 -0.2)">
      <use xlink:href="#DejaVuSans-42"/>
      <use x="68.603516" xlink:href="#DejaVuSans-61"/>
      <use x="129.882812" xlink:href="#DejaVuSans-6e"/>
      <use x="193.261719" xlink:href="#DejaVuSans-64"/>
      <use x="256.738281" xlink:href="#DejaVuSans-77"/>
      <use x="338.525391" xlink:href="#DejaVuSans-69"/>
      <use x="366.308594" xlink:href="#DejaVuSans-64"/>
      <use x="429.785156" xlink:href="#DejaVuSans-74"/>
      <use x="468.994141" xlink:href="#DejaVuSans-68"/>
      <use x="532.373047" xlink:href="#DejaVuSans-20"/>
      <use x="564.160156" xlink:href="#DejaVuSans-28"/>
      <use x="603.173828" xlink:href="#DejaVuSans-6b"/>
      <use x="661.083984" xlink:href="#DejaVuSans-62"/>
      <use x="724.560547" xlink:href="#DejaVuSans-70"/>
      <use x="788.037109" xlink:href="#DejaVuSans-73"/>
      <use x="840.136719" xlink:href="#DejaVuSans-29"/>
     </g>
    </g>
   </g>
   <g id="line2d_16">
    <path clip-path="url(#paf3f2ad0ee)" d="M 125.926136 595.568721 
L 126.872778 622.041685 
L 127.819419 625.16907 
L 128.76606 630.923479 
L 129.712701 630.31829 
L 130.659342 643.263988 
L 131.605983 622.011257 
L 132.552624 609.22105 
L 133.499265 642.381556 
L 134.445907 619.120531 
L 135.392548 642.050225 
L 136.339189 654.755917 
L 137.28583 626.957593 
L 138.232471 646.912046 
L 139.179112 659.313451 
L 140.125753 648.622823 
L 141.072395 640.755332 
L 142.019036 647.534161 
L 142.965677 663.245522 
L 143.912318 582.67034 
L 144.858959 586.176372 
L 145.8056 607.006525 
L 146.752241 552.01849 
L 147.698883 483.002826 
L 148.645524 554.047057 
L 149.592165 390.621311 
L 150.538806 610.394228 
L 151.485447 527.141321 
L 153.378729 638.91607 
L 154.325371 619.347034 
L 155.272012 618.396974 
L 156.218653 633.729689 
L 157.165294 628.627786 
L 158.111935 646.624685 
L 159.058576 587.755279 
L 160.005217 397.66388 
L 160.951859 577.63268 
L 161.8985 627.146936 
L 162.845141 539.235053 
L 163.791782 438.502534 
L 164.738423 525.57934 
L 165.685064 587.417217 
L 166.631705 577.027491 
L 167.578347 629.500101 
L 168.524988 459.136574 
L 169.471629 495.417733 
L 170.41827 563.939767 
L 171.364911 616.716664 
L 172.311552 381.529901 
L 173.258193 600.271628 
L 174.204835 613.332308 
L 175.151476 604.852858 
L 176.098117 535.857468 
L 177.044758 633.472719 
L 177.991399 530.001618 
L 178.93804 400.267207 
L 179.884681 552.498578 
L 180.831323 614.677941 
L 181.777964 530.042202 
L 182.724605 631.264965 
L 183.671246 566.925165 
L 184.617887 657.734544 
L 185.564528 567.942852 
L 186.511169 627.556011 
L 187.45781 642.668955 
L 188.404452 560.366107 
L 189.351093 558.922418 
L 190.297734 622.35609 
L 191.244375 468.197593 
L 192.191016 605.130064 
L 193.137657 628.235598 
L 194.084298 612.274075 
L 195.03094 590.747447 
L 195.977581 592.16744 
L 196.924222 614.867246 
L 197.870863 516.694161 
L 198.817504 623.103304 
L 199.764145 444.094682 
L 200.710786 568.368854 
L 201.657428 615.773374 
L 202.604069 531.428419 
L 203.55071 642.641911 
L 204.497351 621.811759 
L 205.443992 532.425796 
L 206.390633 630.223619 
L 207.337274 532.618486 
L 208.283916 601.285931 
L 209.230557 524.345266 
L 210.177198 508.079455 
L 211.123839 628.979428 
L 212.07048 638.402167 
L 213.017121 633.56062 
L 213.963762 568.933458 
L 214.910404 638.885641 
L 215.857045 619.830508 
L 216.803686 629.48656 
L 217.750327 655.073706 
L 218.696968 628.972657 
L 219.643609 419.048481 
L 220.59025 502.213488 
L 221.536892 485.822539 
L 222.483533 559.263904 
L 223.430174 514.675712 
L 224.376815 565.106213 
L 225.323456 489.149422 
L 226.270097 514.773768 
L 227.216738 573.463949 
L 228.16338 607.594788 
L 229.110021 667.721888 
L 230.056662 619.975919 
L 231.003303 525.001194 
L 231.949944 641.671578 
L 232.896585 624.195352 
L 233.843226 545.114561 
L 234.789868 618.498416 
L 235.736509 497.973744 
L 236.68315 622.775359 
L 237.629791 408.956272 
L 238.576432 495.441392 
L 239.523073 641.982598 
L 240.469714 600.146528 
L 241.416355 602.039878 
L 242.362997 622.193829 
L 243.309638 555.460317 
L 244.256279 515.419541 
L 245.20292 530.799534 
L 246.149561 600.065398 
L 247.096202 590.615577 
L 248.042843 571.695699 
L 248.989485 637.161361 
L 249.936126 626.210416 
L 250.882767 629.892288 
L 251.829408 596.163755 
L 252.776049 630.227004 
L 253.72269 613.041524 
L 254.669331 631.552326 
L 255.615973 646.651729 
L 256.562614 544.766305 
L 257.509255 639.599042 
L 258.455896 505.006157 
L 259.402537 540.046472 
L 260.349178 616.128363 
L 261.295819 630.145836 
L 262.242461 494.839588 
L 263.189102 513.739192 
L 264.135743 568.345158 
L 265.082384 399.2766 
L 266.029025 548.438059 
L 266.975666 568.155853 
L 267.922307 615.824076 
L 268.868949 585.449469 
L 269.81559 516.964634 
L 270.762231 550.628925 
L 272.655513 633.279991 
L 273.602154 573.35916 
L 274.548795 567.25311 
L 275.495437 596.072468 
L 276.442078 628.65483 
L 277.388719 555.27436 
L 278.33536 566.079932 
L 279.282001 496.888466 
L 280.228642 621.98756 
L 281.175283 488.621979 
L 282.121925 550.415924 
L 283.068566 541.344788 
L 284.015207 624.347496 
L 284.961848 639.639588 
L 285.908489 569.68402 
L 286.85513 620.871854 
L 287.801771 556.704509 
L 288.748413 556.532092 
L 289.695054 468.998856 
L 292.534977 605.748793 
L 293.481618 623.897836 
L 294.428259 649.25167 
L 295.3749 648.589009 
L 296.321542 603.115038 
L 297.268183 588.221865 
L 298.214824 555.933636 
L 299.161465 519.60516 
L 300.108106 545.570992 
L 301.054747 642.324084 
L 302.001388 577.849066 
L 302.94803 338.378628 
L 303.894671 564.646398 
L 304.841312 440.277554 
L 305.787953 551.142828 
L 306.734594 441.122787 
L 307.681235 590.605459 
L 308.627876 606.424995 
L 309.574518 562.080232 
L 310.521159 605.627078 
L 311.4678 623.089764 
L 312.414441 635.339025 
L 313.361082 650.407961 
L 314.307723 644.734721 
L 315.254364 637.171479 
L 316.201006 662.396866 
L 317.147647 612.142204 
L 318.094288 595.849312 
L 319.040929 646.837686 
L 319.98757 638.381894 
L 320.934211 611.706047 
L 321.880852 661.470503 
L 322.827494 594.622047 
L 323.774135 643.037484 
L 324.720776 664.564074 
L 325.667417 576.128171 
L 326.614058 645.481897 
L 327.560699 653.613129 
L 328.50734 612.574976 
L 329.453982 612.551318 
L 330.400623 570.350066 
L 331.347264 558.232714 
L 332.293905 642.655414 
L 333.240546 625.885818 
L 334.187187 625.185958 
L 335.133828 649.799387 
L 336.08047 647.52062 
L 337.027111 656.449768 
L 337.973752 529.835972 
L 338.920393 666.467579 
L 339.867034 634.578307 
L 340.813675 631.007995 
L 341.760316 622.636718 
L 342.706958 637.002447 
L 343.653599 664.053556 
L 344.60024 428.241332 
L 345.546881 383.32858 
L 346.493522 329.293951 
L 347.440163 454.149654 
L 348.386804 452.151515 
L 349.333445 423.355815 
L 350.280087 464.29595 
L 351.226728 366.423728 
L 352.173369 434.374388 
L 353.12001 434.127573 
L 354.066651 453.165818 
L 355.013292 614.863899 
L 355.959933 650.435042 
L 356.906575 633.36116 
L 357.853216 636.735359 
L 358.799857 650.962448 
L 359.746498 632.630871 
L 360.693139 633.43552 
L 361.63978 565.48486 
L 362.586421 677.367784 
L 363.533063 674.727258 
L 364.479704 631.204108 
L 365.426345 657.382902 
L 366.372986 651.442536 
L 367.319627 616.05735 
L 368.266268 652.940313 
L 369.212909 584.773267 
L 370.159551 662.904036 
L 371.106192 651.239691 
L 372.052833 648.186666 
L 372.999474 628.049641 
L 373.946115 615.60092 
L 374.892756 656.912969 
L 375.839397 652.040993 
L 376.786039 553.945653 
L 377.73268 630.257433 
L 378.679321 659.452053 
L 379.625962 526.870848 
L 380.572603 667.945044 
L 381.519244 574.545879 
L 382.465885 671.4545 
L 383.412527 652.463609 
L 384.359168 567.094196 
L 385.305809 666.072006 
L 386.25245 634.111721 
L 387.199091 660.885587 
L 389.092373 608.237176 
L 390.039015 652.118738 
L 390.985656 648.254294 
L 391.932297 649.136726 
L 392.878938 611.5776 
L 393.825579 641.705354 
L 394.77222 668.181703 
L 395.718861 651.47635 
L 396.665503 505.425389 
L 397.612144 641.34698 
L 398.558785 657.558704 
L 399.505426 656.179295 
L 400.452067 645.958639 
L 401.398708 647.392173 
L 402.345349 595.960909 
L 403.29199 640.011503 
L 404.238632 658.086147 
L 405.185273 644.842895 
L 406.131914 658.255217 
L 407.078555 646.070198 
L 408.025196 662.09935 
L 408.971837 658.647404 
L 409.918478 644.359421 
L 410.86512 595.487553 
L 411.811761 642.824483 
L 412.758402 660.895743 
L 413.705043 647.158861 
L 414.651684 653.227712 
L 415.598325 652.456839 
L 416.544966 641.762864 
L 417.491608 673.530421 
L 418.438249 598.736691 
L 419.38489 593.012711 
L 420.331531 643.933419 
L 421.278172 653.937689 
L 422.224813 577.832178 
L 423.171454 630.531291 
L 424.118096 657.690574 
L 425.064737 638.682796 
L 426.011378 653.102612 
L 426.958019 687.159091 
L 427.90466 620.865084 
L 428.851301 622.508233 
L 429.797942 663.488952 
L 430.744584 651.598065 
L 431.691225 667.26211 
L 432.637866 675.132986 
L 433.584507 646.888388 
L 434.531148 638.202707 
L 435.477789 651.672463 
L 436.42443 637.408176 
L 437.371072 631.396797 
L 438.317713 658.228135 
L 439.264354 642.564128 
L 440.210995 658.28226 
L 441.157636 664.722988 
L 442.104277 469.719028 
L 443.050918 626.906891 
L 443.99756 621.023998 
L 444.944201 620.483052 
L 445.890842 598.804281 
L 446.837483 651.40199 
L 447.784124 663.150851 
L 448.730765 612.994208 
L 449.677406 618.0758 
L 450.624048 552.488423 
L 451.570689 566.330132 
L 452.51733 661.07493 
L 453.463971 636.944975 
L 454.410612 637.02272 
L 455.357253 500.610884 
L 456.303894 639.071599 
L 457.250535 595.835809 
L 458.197177 525.991801 
L 459.143818 624.536838 
L 460.090459 404.442708 
L 461.0371 407.09339 
L 461.983741 526.982445 
L 462.930382 504.181197 
L 463.877023 524.595466 
L 464.823665 568.341772 
L 465.770306 563.43602 
L 466.716947 631.880271 
L 467.663588 664.709447 
L 469.55687 584.922064 
L 470.503511 635.771759 
L 471.450153 651.094318 
L 472.396794 584.685366 
L 473.343435 653.156699 
L 474.290076 612.290962 
L 475.236717 660.107982 
L 476.183358 622.359475 
L 477.129999 612.297733 
L 478.076641 622.944391 
L 479.023282 621.013842 
L 479.969923 543.853444 
L 480.916564 628.5365 
L 481.863205 625.172456 
L 482.809846 662.281922 
L 483.756487 627.035376 
L 484.703129 642.79744 
L 485.64977 616.571253 
L 486.596411 619.130648 
L 487.543052 599.906484 
L 488.489693 635.514827 
L 489.436334 657.227373 
L 490.382975 673.895565 
L 491.329617 636.414147 
L 492.276258 623.749077 
L 493.222899 586.156099 
L 494.16954 639.74103 
L 495.116181 642.587786 
L 496.062822 641.674925 
L 497.009463 648.460524 
L 497.956105 649.163769 
L 498.902746 558.039986 
L 499.849387 624.161538 
L 500.796028 652.291193 
L 501.742669 601.651075 
L 502.68931 622.653644 
L 503.635951 601.580062 
L 504.582593 659.976111 
L 505.529234 672.698691 
L 506.475875 662.123008 
L 507.422516 668.073529 
L 508.369157 647.855336 
L 509.315798 650.462086 
L 510.262439 637.952507 
L 511.20908 598.59805 
L 512.155722 624.350881 
L 513.102363 613.443868 
L 514.049004 588.590395 
L 514.995645 620.18892 
L 515.942286 637.969395 
L 516.888927 634.328107 
L 517.835568 654.198045 
L 518.78221 650.915131 
L 519.728851 655.763411 
L 520.675492 664.351073 
L 521.622133 636.830031 
L 522.568774 640.555834 
L 523.515415 552.836679 
L 524.462056 634.446437 
L 525.408698 637.519735 
L 526.355339 573.545079 
L 527.30198 667.245184 
L 528.248621 667.089655 
L 529.195262 667.201253 
L 530.141903 641.029191 
L 531.088544 634.798041 
L 532.035186 603.412554 
L 532.981827 632.056111 
L 533.928468 676.373792 
L 534.875109 627.633795 
L 535.82175 648.14612 
L 536.768391 628.749501 
L 537.715032 602.702539 
L 538.661674 568.683259 
L 539.608315 631.616568 
L 540.554956 422.253612 
L 541.501597 652.362168 
L 542.448238 634.493754 
L 543.394879 597.975973 
L 544.34152 407.516006 
L 545.288162 440.791457 
L 546.234803 618.799318 
L 547.181444 640.231274 
L 548.128085 621.889542 
L 549.074726 637.083578 
L 550.021367 635.021197 
L 550.968008 504.333341 
L 551.91465 603.716841 
L 552.861291 509.127534 
L 553.807932 478.228906 
L 554.754573 501.249887 
L 555.701214 543.349697 
L 556.647855 595.318521 
L 557.594496 462.510774 
L 558.541138 659.353997 
L 559.487779 652.088309 
L 560.43442 656.889273 
L 561.381061 581.023806 
L 562.327702 632.103428 
L 563.274343 616.794409 
L 564.220984 635.511441 
L 565.167625 604.210471 
L 566.114267 614.072753 
L 567.060908 618.447714 
L 568.007549 624.685597 
L 568.95419 626.991407 
L 569.900831 611.08397 
L 570.847472 604.869746 
L 571.794113 640.76545 
L 572.740755 640.951407 
L 573.687396 638.057296 
L 574.634037 602.039878 
L 575.580678 639.446898 
L 576.527319 553.665024 
L 577.47396 586.331901 
L 578.420601 643.280914 
L 579.367243 656.013611 
L 580.313884 591.494662 
L 581.260525 627.102966 
L 582.207166 634.152306 
L 583.153807 627.160438 
L 584.100448 677.046609 
L 585.047089 647.885764 
L 585.993731 653.467756 
L 586.940372 611.614761 
L 587.887013 643.693375 
L 588.833654 611.699315 
L 589.780295 660.770643 
L 590.726936 616.135134 
L 591.673577 652.446683 
L 592.620219 644.886864 
L 593.56686 605.018505 
L 594.513501 553.949 
L 595.460142 623.539424 
L 596.406783 643.737344 
L 597.353424 534.816122 
L 598.300065 629.48656 
L 599.246707 639.571998 
L 600.193348 633.736421 
L 601.139989 554.94303 
L 602.08663 654.187889 
L 603.033271 642.131356 
L 603.979912 612.287577 
L 604.926553 608.754464 
L 605.873195 504.242055 
L 606.819836 669.892481 
L 607.766477 638.151967 
L 608.713118 639.453631 
L 609.659759 613.869869 
L 610.6064 579.465172 
L 611.553041 630.76795 
L 612.499683 643.859059 
L 613.446324 625.61196 
L 614.392965 595.078477 
L 615.339606 589.723027 
L 616.286247 626.139404 
L 617.232888 609.731567 
L 618.179529 622.947776 
L 619.12617 644.768535 
L 620.072812 630.162762 
L 621.019453 605.434351 
L 621.966094 622.826061 
L 622.912735 599.155922 
L 623.859376 557.9487 
L 624.806017 602.47942 
L 625.752658 600.149913 
L 626.6993 453.659409 
L 627.645941 250.558031 
L 628.592582 219.338191 
L 629.539223 247.051961 
L 630.485864 285.067556 
L 631.432505 226.752637 
L 632.379146 651.699507 
L 633.325788 643.632517 
L 634.272429 577.054535 
L 635.21907 616.594949 
L 636.165711 501.828032 
L 637.112352 536.462657 
L 638.058993 499.038748 
L 639.005634 554.023398 
L 639.952276 575.350528 
L 640.898917 535.871009 
L 641.845558 440.159225 
L 642.792199 595.014235 
L 643.73884 490.799342 
L 644.685481 488.246717 
L 645.632122 655.377993 
L 646.578764 609.839779 
L 647.525405 577.439952 
L 649.418687 481.024961 
L 650.365328 571.817414 
L 651.311969 632.120315 
L 652.25861 615.617846 
L 653.205252 625.574799 
L 654.151893 608.010672 
L 655.098534 568.825284 
L 656.045175 615.590802 
L 656.991816 631.565867 
L 657.938457 609.79581 
L 658.885098 633.344234 
L 659.83174 653.214171 
L 660.778381 591.707662 
L 661.725022 548.607091 
L 662.671663 633.743192 
L 663.618304 660.801071 
L 665.511586 634.071137 
L 666.458228 652.872685 
L 667.404869 619.465364 
L 668.35151 603.699915 
L 669.298151 619.776421 
L 670.244792 614.654245 
L 671.191433 680.829923 
L 672.138074 633.651906 
L 673.084715 616.943167 
L 674.031357 637.702307 
L 674.977998 622.728005 
L 675.924639 648.321922 
L 676.87128 618.025098 
L 677.817921 648.02779 
L 678.764562 603.87237 
L 679.711203 628.790085 
L 680.657845 567.652068 
L 681.604486 607.402098 
L 682.551127 607.611714 
L 683.497768 481.853306 
L 684.444409 646.134441 
L 685.39105 580.618077 
L 686.337691 594.564575 
L 687.284333 574.985383 
L 688.230974 634.639165 
L 689.177615 574.075908 
L 690.124256 591.59945 
L 691.070897 630.727366 
L 692.017538 645.691513 
L 692.964179 619.779806 
L 693.910821 631.687581 
L 694.857462 613.849596 
L 695.804103 551.595873 
L 696.750744 649.606697 
L 697.697385 610.7019 
L 698.644026 626.416647 
L 699.590667 643.980774 
L 700.537309 645.437966 
L 701.48395 648.081877 
L 702.430591 598.073992 
L 703.377232 647.432719 
L 704.323873 636.24173 
L 706.217155 598.743423 
L 707.163797 590.598689 
L 708.110438 635.129409 
L 709.057079 654.708562 
L 710.00372 618.238099 
L 710.950361 648.747923 
L 711.897002 609.464479 
L 712.843643 646.222342 
L 713.790285 600.488014 
L 714.736926 657.64999 
L 715.683567 601.586833 
L 716.630208 619.201661 
L 717.576849 609.322491 
L 718.52349 417.770476 
L 719.470131 357.447264 
L 721.363414 363.938731 
L 722.310055 462.930044 
L 723.256696 669.963494 
L 724.203337 613.572353 
L 725.149978 647.19606 
L 726.096619 605.779222 
L 727.04326 593.841018 
L 727.989902 619.766266 
L 728.936543 351.493395 
L 729.883184 401.227384 
L 730.829825 331.244773 
L 731.776466 335.494672 
L 732.723107 359.749727 
L 733.669748 488.939807 
L 734.61639 569.714449 
L 735.563031 537.358629 
L 736.509672 557.826985 
L 737.456313 491.303089 
L 738.402954 46.340909 
L 739.349595 356.740633 
L 740.296236 448.571085 
L 741.242878 304.491218 
L 742.189519 394.817085 
L 743.13616 348.60944 
L 744.082801 339.173159 
L 745.029442 375.542219 
L 745.976083 385.76626 
L 746.922724 410.822578 
L 747.869366 481.224421 
L 748.816007 368.885067 
L 749.762648 290.65628 
L 750.709289 348.369395 
L 751.65593 279.918336 
L 752.602571 341.573641 
L 753.549212 382.669266 
L 754.495854 288.418097 
L 755.442495 490.603229 
L 756.389136 597.932004 
L 757.335777 640.041932 
L 758.282418 633.651906 
L 759.229059 540.330486 
L 760.1757 657.376132 
L 761.122342 625.006771 
L 762.068983 632.607175 
L 763.015624 629.865245 
L 763.962265 629.36146 
L 765.855547 600.346026 
L 766.802188 613.115922 
L 767.74883 608.85929 
L 768.695471 610.492284 
L 769.642112 632.275844 
L 770.588753 600.007926 
L 771.535394 559.872478 
L 772.482035 617.521313 
L 773.428676 646.076969 
L 774.375317 562.719234 
L 775.321959 590.270743 
L 776.2686 592.326354 
L 777.215241 617.886457 
L 778.161882 594.239976 
L 779.108523 589.773729 
L 780.055164 593.726074 
L 781.001805 619.019089 
L 781.948447 606.306665 
L 782.895088 620.641965 
L 783.841729 645.356797 
L 784.78837 643.314728 
L 785.735011 640.657276 
L 787.628293 575.134142 
L 788.574935 639.118915 
L 789.521576 635.474242 
L 790.468217 637.698922 
L 791.414858 637.445337 
L 792.361499 621.111899 
L 793.30814 628.982813 
L 794.254781 524.838895 
L 795.201423 621.673156 
L 797.094705 647.436104 
L 798.041346 634.047479 
L 798.987987 656.229997 
L 799.934628 629.723219 
L 800.881269 626.43692 
L 801.827911 627.752124 
L 802.774552 662.177133 
L 803.721193 553.276222 
L 804.667834 595.494323 
L 805.614475 624.100681 
L 806.561116 569.017974 
L 807.507757 597.107044 
L 808.454399 606.448653 
L 809.40104 605.860352 
L 810.347681 591.930781 
L 811.294322 600.643543 
L 812.240963 562.053188 
L 813.187604 632.566628 
L 814.134245 640.302287 
L 815.080887 636.245115 
L 816.027528 601.766019 
L 816.974169 656.946783 
L 817.92081 607.351358 
L 818.867451 622.11266 
L 819.814092 574.711525 
L 820.760733 608.382587 
L 821.707375 477.603406 
L 822.654016 558.452447 
L 823.600657 550.622155 
L 824.547298 557.258995 
L 825.493939 610.732329 
L 827.387221 671.244884 
L 828.333862 514.777153 
L 829.280504 597.472188 
L 830.227145 607.25334 
L 831.173786 496.79041 
L 832.120427 540.340642 
L 833.067068 629.047017 
L 834.013709 632.177826 
L 834.96035 627.812982 
L 835.906992 645.738868 
L 836.853633 624.445552 
L 837.800274 633.736421 
L 838.746915 635.355913 
L 839.693556 592.498809 
L 840.640197 577.693537 
L 841.586838 530.515558 
L 843.480121 646.354212 
L 844.426762 639.632856 
L 845.373403 609.10272 
L 846.320044 607.872031 
L 847.266685 597.901575 
L 848.213326 658.140234 
L 849.159968 599.811813 
L 850.106609 641.519435 
L 851.05325 597.857606 
L 851.999891 576.709663 
L 852.946532 542.768167 
L 853.893173 630.31152 
L 854.839814 657.599288 
L 855.786456 573.521421 
L 856.733097 598.050334 
L 857.679738 555.795033 
L 858.626379 589.716257 
L 859.57302 637.89842 
L 860.519661 564.632857 
L 861.466302 625.7878 
L 862.412944 584.002432 
L 863.359585 580.969681 
L 864.306226 586.778214 
L 865.252867 630.179649 
L 866.199508 627.897497 
L 867.146149 605.197692 
L 868.09279 617.277883 
L 869.039432 633.48626 
L 869.986073 643.362044 
L 870.932714 623.793009 
L 871.879355 618.860175 
L 872.825996 664.313874 
L 873.772637 597.69873 
L 874.719278 621.696814 
L 875.66592 617.122354 
L 876.612561 651.243076 
L 877.559202 615.698976 
L 878.505843 612.537777 
L 879.452484 602.043263 
L 880.399125 617.379325 
L 881.345766 656.591756 
L 882.292407 567.83464 
L 882.292407 567.83464 
" style="fill:none;stroke:#000000;stroke-linecap:square;stroke-width:1.5;"/>
   </g>
   <g id="line2d_17">
    <path clip-path="url(#paf3f2ad0ee)" d="M 883.239049 647.108159 
L 884.18569 633.81759 
L 885.132331 656.172525 
L 886.078972 634.96711 
L 887.025613 634.050864 
L 887.972254 630.696937 
L 888.918895 620.442467 
L 889.865537 624.360998 
L 890.812178 636.708316 
L 891.758819 635.950984 
L 892.70546 626.825723 
L 893.652101 615.678703 
L 894.598742 608.40963 
L 895.545383 618.687759 
L 896.492025 599.392581 
L 897.438666 626.670232 
L 898.385307 620.618269 
L 899.331948 642.695998 
L 900.278589 625.666085 
L 901.22523 649.6202 
L 902.171871 615.749678 
L 903.118513 614.870631 
L 904.065154 607.047071 
L 905.011795 651.662308 
L 905.958436 646.942475 
L 906.905077 599.581924 
L 907.851718 601.356906 
L 908.798359 636.218072 
L 909.745001 612.402522 
L 910.691642 642.604712 
L 911.638283 612.463379 
L 912.584924 646.912046 
L 913.531565 635.129409 
L 914.478206 638.581354 
L 915.424847 638.601627 
L 916.371489 599.734067 
L 917.31813 606.901698 
L 918.264771 629.513603 
L 919.211412 626.666847 
L 920.158053 559.774422 
L 921.104694 647.797863 
L 922.051335 613.781968 
L 922.997977 546.277622 
L 923.944618 618.278645 
L 924.891259 591.078777 
L 925.8379 616.385333 
L 926.784541 605.627078 
L 927.731182 655.662007 
L 928.677823 621.53113 
L 929.624465 648.886526 
L 930.571106 634.727066 
L 931.517747 633.114345 
L 932.464388 663.039254 
L 933.411029 631.829569 
L 934.35767 604.582347 
L 935.304311 632.299541 
L 936.250952 590.635888 
L 937.197594 607.608329 
L 938.144235 550.162339 
L 939.090876 607.804442 
L 940.037517 615.340602 
L 940.984158 583.015173 
L 941.930799 624.053364 
L 942.87744 604.399775 
L 943.824082 611.445729 
L 944.770723 631.816029 
L 945.717364 641.424764 
L 946.664005 659.22555 
L 947.610646 623.201361 
L 948.557287 637.097119 
L 949.503928 605.545948 
L 950.45057 599.362153 
L 951.397211 631.991868 
L 952.343852 420.80996 
L 953.290493 403.66845 
L 954.237134 663.13054 
L 955.183775 629.189043 
L 956.130416 624.259595 
L 957.077058 604.136072 
L 958.023699 621.619069 
L 958.97034 613.234252 
L 959.916981 656.077853 
L 960.863622 642.121238 
L 961.810263 630.859236 
L 962.756904 624.38131 
L 963.703546 591.112591 
L 964.650187 633.678949 
L 965.596828 645.417655 
L 966.543469 617.473996 
L 967.49011 630.764565 
L 968.436751 645.962024 
L 969.383392 595.09875 
L 970.330034 637.222219 
L 971.276675 591.001032 
L 972.223316 611.641804 
L 973.169957 643.788046 
L 974.116598 654.340033 
L 975.063239 609.914139 
L 976.00988 599.355382 
L 976.956522 628.898259 
L 977.903163 621.034153 
L 978.849804 631.630109 
L 979.796445 655.367838 
L 980.743086 622.359475 
L 981.689727 618.146813 
L 982.636368 636.792832 
L 983.58301 613.518266 
L 984.529651 636.843533 
L 985.476292 650.999647 
L 986.422933 602.918925 
L 987.369574 634.855551 
L 988.316215 597.042801 
L 989.262856 622.132971 
L 990.209497 663.515996 
L 991.156139 640.576145 
L 992.10278 653.139811 
L 993.049421 644.099103 
L 993.996062 648.778352 
L 994.942703 607.097811 
L 995.889344 607.831485 
L 996.835985 639.467172 
L 997.782627 634.328107 
L 998.729268 644.541993 
L 999.675909 645.749023 
L 1000.62255 567.726466 
L 1001.569191 631.859998 
L 1002.515832 590.524291 
L 1003.462473 627.796094 
L 1004.409115 571.776868 
L 1005.355756 566.634418 
L 1006.302397 599.527837 
L 1007.249038 589.107683 
L 1008.195679 627.64395 
L 1009.14232 616.997254 
L 1010.088961 617.930426 
L 1011.035603 609.224435 
L 1011.982244 620.641965 
L 1012.928885 623.113422 
L 1013.875526 514.114492 
L 1014.822167 553.932112 
L 1015.768808 603.743885 
L 1016.715449 626.842649 
L 1017.662091 514.232822 
L 1019.555373 667.633987 
L 1021.448655 605.698091 
L 1022.395296 605.616923 
L 1023.341937 639.761303 
L 1024.288579 638.131694 
L 1025.23522 648.22048 
L 1026.181861 525.572569 
L 1027.128502 616.097934 
L 1028.075143 609.021589 
L 1029.021784 592.329739 
L 1029.968425 628.580469 
L 1030.915067 629.408815 
L 1031.861708 627.951584 
L 1032.808349 624.114222 
L 1033.75499 610.225196 
L 1034.701631 613.809012 
L 1035.648272 633.009518 
L 1036.594913 612.595249 
L 1037.541555 598.216018 
L 1038.488196 481.947977 
L 1039.434837 633.36116 
L 1040.381478 624.070252 
L 1041.328119 615.895089 
L 1042.27476 581.415993 
L 1043.221401 657.25107 
L 1044.168042 532.976898 
L 1045.114684 629.777306 
L 1046.061325 651.212648 
L 1047.007966 594.466518 
L 1047.954607 639.054711 
L 1048.901248 646.915431 
L 1049.847889 642.692613 
L 1050.79453 606.972711 
L 1051.741172 619.840664 
L 1052.687813 511.112169 
L 1052.687813 511.112169 
" style="fill:none;stroke:#1f77b4;stroke-linecap:square;stroke-width:1.5;"/>
   </g>
   <g id="line2d_18">
    <path clip-path="url(#paf3f2ad0ee)" d="M 1053.634454 629.997077 
L 1054.581095 619.303103 
L 1055.527736 642.881956 
L 1056.474377 635.268012 
L 1057.421018 573.19009 
L 1058.36766 628.705569 
L 1059.314301 632.171055 
L 1060.260942 623.644251 
L 1061.207583 658.035445 
L 1062.154224 618.684373 
L 1063.100865 640.593033 
L 1064.047506 620.053665 
L 1064.994148 639.453631 
L 1065.940789 649.305795 
L 1066.88743 553.367508 
L 1067.834071 633.351004 
L 1068.780712 642.080654 
L 1069.727353 601.005302 
L 1070.673994 593.621285 
L 1071.620636 623.647636 
" style="fill:none;stroke:#ff7f0e;stroke-linecap:square;stroke-width:1.5;"/>
   </g>
   <g id="line2d_19">
    <path clip-path="url(#paf3f2ad0ee)" d="M 1072.567277 656.18268 
L 1073.513918 657.673686 
L 1074.460559 656.747285 
L 1075.4072 544.083371 
L 1076.353841 642.902229 
L 1077.300482 623.88091 
L 1078.247124 613.13281 
L 1079.193765 588.286108 
L 1080.140406 623.776121 
L 1081.087047 612.80825 
L 1082.033688 614.329685 
L 1082.980329 577.412909 
L 1083.92697 641.161023 
L 1084.873612 630.017388 
L 1085.820253 598.60482 
L 1086.766894 601.84715 
L 1087.713535 625.28063 
L 1088.660176 586.825531 
L 1089.606817 587.522005 
L 1090.553458 601.563174 
L 1091.5001 572.20287 
L 1092.446741 622.768589 
L 1093.393382 562.002487 
L 1094.340023 555.953947 
L 1095.286664 564.720758 
L 1096.233305 564.615969 
L 1097.179946 631.521897 
L 1098.126587 586.585486 
L 1099.073229 582.53847 
L 1100.01987 616.219649 
L 1100.966511 608.39609 
L 1101.913152 580.75668 
L 1102.859793 600.886973 
L 1103.806434 626.457231 
L 1104.753075 489.764767 
L 1105.699717 609.041863 
L 1106.646358 597.678419 
L 1107.592999 626.291547 
L 1108.53964 603.17251 
L 1109.486281 591.501394 
L 1110.432922 594.283946 
L 1111.379563 583.870562 
L 1112.326205 560.454008 
L 1113.272846 614.718488 
L 1114.219487 607.750317 
L 1115.166128 577.926811 
L 1116.112769 613.467526 
L 1117.05941 512.106199 
L 1118.006051 465.371071 
L 1118.952693 594.733606 
L 1119.899334 603.99747 
L 1120.845975 600.450815 
L 1121.792616 632.384056 
L 1122.739257 620.303865 
L 1123.685898 642.516811 
L 1124.632539 654.580077 
L 1125.579181 596.495085 
L 1126.525822 611.804103 
L 1127.472463 634.372039 
L 1128.419104 589.317298 
L 1129.365745 619.617507 
L 1130.312386 636.589986 
L 1131.259027 640.863506 
L 1132.205669 617.619369 
L 1133.15231 628.076684 
L 1134.098951 657.967818 
L 1135.045592 620.050279 
L 1135.992233 618.302341 
L 1136.938874 607.4528 
L 1137.885515 643.679872 
L 1138.832157 583.674487 
L 1139.778798 588.407823 
L 1140.725439 645.333139 
L 1141.67208 617.179827 
L 1142.618721 637.560319 
L 1143.565362 611.395028 
L 1145.458645 664.182042 
L 1146.405286 633.726304 
L 1147.351927 635.264627 
L 1148.298568 631.417108 
L 1149.245209 625.253586 
L 1150.19185 612.02726 
L 1152.085132 637.458878 
L 1153.031774 640.339448 
L 1153.978415 638.145197 
L 1154.925056 575.448584 
L 1155.871697 526.147329 
L 1156.818338 634.733836 
L 1157.764979 617.13928 
L 1158.71162 629.922717 
L 1159.658262 664.834547 
L 1160.604903 619.641204 
L 1161.551544 613.05845 
L 1162.498185 597.89142 
L 1163.444826 658.048948 
L 1164.391467 628.364083 
L 1165.338108 619.198276 
L 1166.28475 625.568029 
L 1167.231391 624.96284 
L 1168.178032 625.260357 
L 1169.124673 643.277529 
L 1170.071314 609.609852 
L 1171.017955 597.871147 
L 1171.964596 626.139404 
L 1172.911238 515.19977 
L 1173.857879 600.281784 
L 1174.80452 633.469334 
L 1175.751161 576.063928 
L 1176.697802 484.294372 
L 1177.644443 610.309712 
L 1179.537726 594.916178 
L 1180.484367 615.540062 
L 1181.431008 554.882172 
L 1182.377649 502.558321 
L 1183.32429 523.391859 
L 1184.270931 497.831756 
L 1185.217572 618.555888 
L 1186.164214 594.341418 
L 1187.110855 541.574677 
L 1188.057496 608.97085 
L 1189.004137 622.058573 
L 1189.950778 534.630165 
L 1190.897419 618.785815 
L 1191.84406 635.592572 
L 1192.790702 626.467349 
L 1193.737343 646.256156 
L 1194.683984 623.559735 
L 1195.630625 619.002201 
L 1196.577266 581.781138 
L 1197.523907 576.31409 
L 1198.470548 582.910385 
L 1199.41719 643.919916 
L 1200.363831 627.59321 
L 1201.310472 615.627963 
L 1202.257113 614.725258 
L 1203.203754 621.125439 
L 1204.150395 583.76912 
L 1205.097036 635.981412 
L 1206.043677 605.214617 
L 1206.990319 643.662946 
L 1207.93696 644.501447 
L 1208.883601 626.626263 
L 1209.830242 612.088117 
L 1210.776883 654.140573 
L 1211.723524 612.510734 
L 1212.670165 603.415939 
L 1213.616807 641.816951 
L 1214.563448 630.916708 
L 1215.510089 607.916001 
L 1216.45673 641.776367 
L 1217.403371 619.871093 
L 1218.350012 570.50221 
L 1219.296653 627.572937 
L 1220.243295 620.861699 
L 1221.189936 639.544917 
L 1222.136577 623.082993 
L 1223.083218 654.590233 
L 1224.029859 550.162339 
L 1224.9765 613.156507 
L 1225.923141 584.482521 
L 1226.869783 598.503379 
L 1227.816424 674.548071 
L 1228.763065 614.069367 
L 1229.709706 626.048117 
L 1230.656347 628.976042 
L 1231.602988 651.01992 
L 1232.549629 591.028076 
L 1233.496271 556.210879 
L 1234.442912 628.441829 
L 1235.389553 465.164841 
L 1236.336194 569.285062 
L 1237.282835 606.198453 
L 1238.229476 622.400059 
L 1239.176117 597.793401 
L 1240.122759 632.001986 
L 1241.0694 586.673387 
L 1242.016041 607.760472 
L 1242.962682 614.417586 
L 1243.909323 625.311058 
L 1244.855964 601.762634 
L 1245.802605 645.830154 
L 1246.749247 563.016751 
L 1247.695888 552.444491 
L 1249.58917 608.061374 
L 1250.535811 623.363622 
L 1251.482452 351.682738 
L 1253.375735 611.459232 
L 1254.322376 619.178003 
L 1255.269017 636.901006 
L 1256.215658 633.587663 
L 1257.162299 610.154183 
L 1258.10894 634.06102 
L 1259.055581 624.107451 
L 1260.002222 592.404137 
L 1260.948864 652.274267 
L 1260.948864 652.274267 
" style="fill:none;stroke:#2ca02c;stroke-linecap:square;stroke-width:1.5;"/>
   </g>
   <g id="line2d_20">
    <path clip-path="url(#paf3f2ad0ee)" d="M 170.41827 590.389915 
L 171.364911 590.830498 
L 172.311552 585.819835 
L 173.258193 585.301139 
L 174.204835 584.934656 
L 175.151476 584.404126 
L 176.098117 582.16649 
L 177.044758 582.405271 
L 177.991399 580.754866 
L 178.93804 575.710817 
L 179.884681 574.32286 
L 180.831323 573.752604 
L 181.777964 571.154401 
L 182.724605 571.244138 
L 183.671246 569.577745 
L 184.617887 569.544851 
L 185.564528 567.864018 
L 186.511169 567.589032 
L 187.45781 567.487674 
L 188.404452 565.344353 
L 189.351093 564.849604 
L 190.297734 565.603349 
L 191.244375 562.711496 
L 192.191016 563.817987 
L 193.137657 566.84367 
L 194.084298 568.056732 
L 195.03094 572.226027 
L 195.977581 571.846302 
L 196.924222 573.673926 
L 197.870863 572.274347 
L 198.817504 571.944914 
L 199.764145 568.293824 
L 200.710786 567.251571 
L 201.657428 566.877481 
L 202.604069 564.852494 
L 203.55071 564.76952 
L 204.497351 565.47903 
L 205.443992 568.28657 
L 206.390633 569.382214 
L 207.337274 567.412872 
L 208.283916 568.705598 
L 209.230557 570.493988 
L 210.177198 570.129408 
L 211.123839 570.995287 
L 212.07048 572.273926 
L 213.017121 572.35852 
L 213.963762 574.645955 
L 214.910404 577.63487 
L 215.857045 578.79926 
L 216.803686 579.0653 
L 217.750327 584.764129 
L 218.696968 585.362067 
L 219.643609 581.314488 
L 220.59025 579.176167 
L 221.536892 578.133773 
L 222.483533 576.587756 
L 223.430174 576.268466 
L 224.376815 579.702612 
L 225.323456 578.382838 
L 226.270097 576.301501 
L 227.216738 577.206121 
L 228.16338 576.712992 
L 229.110021 578.812924 
L 231.003303 577.131668 
L 231.949944 577.425742 
L 233.843226 576.723135 
L 234.789868 577.964302 
L 235.736509 575.373003 
L 236.68315 578.593373 
L 237.629791 574.506419 
L 238.576432 571.739873 
L 239.523073 572.358801 
L 242.362997 572.912928 
L 243.309638 573.720556 
L 244.256279 571.477144 
L 245.20292 573.283495 
L 246.149561 573.94384 
L 247.096202 573.419719 
L 248.042843 574.258621 
L 248.989485 574.144443 
L 249.936126 574.236082 
L 250.882767 576.266633 
L 251.829408 575.557053 
L 252.776049 577.590564 
L 253.72269 577.835472 
L 254.669331 580.068952 
L 255.615973 582.955875 
L 256.562614 581.201435 
L 257.509255 581.22637 
L 258.455896 578.548152 
L 260.349178 577.472229 
L 261.295819 577.687132 
L 263.189102 571.937518 
L 264.135743 570.674445 
L 265.082384 570.262531 
L 266.029025 571.225543 
L 266.975666 572.94082 
L 267.922307 574.119157 
L 268.868949 575.59361 
L 269.81559 574.590661 
L 270.762231 575.871484 
L 271.708872 577.458425 
L 272.655513 578.704592 
L 273.602154 577.99135 
L 274.548795 575.898251 
L 275.495437 575.400262 
L 276.442078 577.559713 
L 277.388719 575.759771 
L 278.33536 574.549033 
L 279.282001 573.544322 
L 280.228642 573.617013 
L 281.175283 573.422185 
L 282.121925 571.914696 
L 284.015207 577.358334 
L 284.961848 577.309522 
L 285.908489 576.674886 
L 286.85513 577.067219 
L 287.801771 575.702858 
L 288.748413 575.725187 
L 289.695054 574.758089 
L 290.641695 574.451337 
L 291.588336 573.72788 
L 292.534977 574.043156 
L 293.481618 575.1307 
L 294.428259 575.382582 
L 295.3749 575.848802 
L 296.321542 575.290943 
L 297.268183 575.125487 
L 298.214824 573.577708 
L 300.108106 569.83984 
L 301.054747 569.74968 
L 302.001388 570.438905 
L 302.94803 564.163479 
L 303.894671 565.405984 
L 304.841312 563.327465 
L 305.787953 561.9736 
L 306.734594 558.03562 
L 308.627876 561.961696 
L 309.574518 561.831177 
L 310.521159 566.130145 
L 312.414441 569.085039 
L 313.361082 569.805536 
L 314.307723 571.040646 
L 316.201006 575.873454 
L 317.147647 576.315021 
L 318.094288 575.535216 
L 319.98757 578.547868 
L 320.934211 578.873567 
L 322.827494 580.376971 
L 323.774135 581.980253 
L 324.720776 585.473495 
L 325.667417 584.518091 
L 326.614058 587.786006 
L 327.560699 589.935948 
L 328.50734 591.41991 
L 329.453982 591.174156 
L 330.400623 589.730625 
L 331.347264 589.492056 
L 332.293905 589.94588 
L 334.187187 592.817446 
L 335.133828 596.584124 
L 336.08047 599.322565 
L 337.027111 601.220696 
L 337.973752 599.639179 
L 338.920393 600.526049 
L 340.813675 599.854082 
L 341.760316 600.260784 
L 342.706958 601.277046 
L 343.653599 603.529545 
L 344.60024 601.626131 
L 345.546881 598.246081 
L 346.493522 591.72462 
L 347.440163 589.147549 
L 348.386804 591.517818 
L 349.333445 588.574264 
L 350.280087 589.074647 
L 351.226728 585.226332 
L 352.173369 585.085741 
L 354.066651 578.632885 
L 355.959933 580.666044 
L 356.906575 580.880032 
L 358.799857 580.920674 
L 359.746498 580.66851 
L 360.693139 580.590678 
L 361.63978 578.571678 
L 362.586421 579.930544 
L 363.533063 581.573834 
L 364.479704 581.248135 
L 365.426345 581.643989 
L 366.372986 582.471833 
L 367.319627 581.525725 
L 368.266268 582.740689 
L 369.212909 581.526851 
L 370.159551 581.492267 
L 371.106192 583.057091 
L 372.052833 583.11344 
L 372.999474 582.580867 
L 373.946115 582.643908 
L 374.892756 583.568109 
L 375.839397 585.270003 
L 376.786039 585.180689 
L 377.73268 584.922398 
L 378.679321 585.621695 
L 379.625962 583.573463 
L 380.572603 583.951498 
L 381.519244 582.431191 
L 382.465885 582.743789 
L 383.412527 585.298532 
L 384.359168 583.228253 
L 385.305809 583.884372 
L 386.25245 583.949032 
L 387.199091 584.745884 
L 388.145732 584.673545 
L 389.092373 583.510704 
L 390.039015 588.174817 
L 390.985656 593.694102 
L 391.932297 600.357493 
L 392.878938 603.637242 
L 393.825579 607.586281 
L 394.77222 612.68682 
L 395.718861 616.586412 
L 396.665503 619.48228 
L 399.505426 632.678471 
L 400.452067 633.326278 
L 401.398708 633.262885 
L 402.345349 632.483713 
L 404.238632 632.700377 
L 405.185273 632.954794 
L 406.131914 633.471871 
L 407.078555 635.150732 
L 408.971837 634.497643 
L 409.918478 634.771712 
L 410.86512 633.482225 
L 411.811761 633.302683 
L 412.758402 634.236816 
L 413.705043 634.116369 
L 414.651684 635.542503 
L 416.544966 635.127419 
L 417.491608 635.655414 
L 418.438249 635.044728 
L 419.38489 634.57414 
L 420.331531 634.303733 
L 421.278172 634.343247 
L 422.224813 634.840883 
L 424.118096 634.809891 
L 425.064737 637.139307 
L 426.011378 636.830089 
L 426.958019 639.176198 
L 427.90466 638.122252 
L 428.851301 637.498181 
L 429.797942 639.506406 
L 430.744584 639.204865 
L 431.691225 639.895498 
L 433.584507 640.470615 
L 434.531148 641.094897 
L 435.477789 641.085599 
L 436.42443 640.859639 
L 437.371072 640.490057 
L 438.317713 641.461943 
L 439.264354 641.479834 
L 440.210995 641.273596 
L 441.157636 641.549567 
L 442.104277 640.805685 
L 443.050918 640.504849 
L 444.944201 639.000038 
L 445.890842 638.017656 
L 446.837483 638.101193 
L 447.784124 639.500984 
L 448.730765 638.938124 
L 449.677406 638.104575 
L 451.570689 634.265417 
L 452.51733 634.578016 
L 454.410612 633.603452 
L 455.357253 630.608691 
L 456.303894 631.516692 
L 457.250535 630.537761 
L 458.197177 627.727262 
L 459.143818 627.25597 
L 461.0371 616.961211 
L 461.983741 614.569952 
L 462.930382 611.041843 
L 463.877023 609.497234 
L 464.823665 608.983256 
L 465.770306 607.306227 
L 466.716947 606.846698 
L 467.663588 608.656641 
L 468.610229 608.56141 
L 469.55687 607.045399 
L 471.450153 606.942913 
L 472.396794 604.808044 
L 473.343435 605.480786 
L 474.290076 605.267926 
L 475.236717 605.197489 
L 476.183358 604.588352 
L 478.076641 602.355999 
L 479.023282 601.816946 
L 479.969923 599.851336 
L 480.916564 599.369337 
L 481.863205 599.114426 
L 482.809846 599.757866 
L 483.756487 599.108017 
L 484.703129 599.112877 
L 486.596411 597.294058 
L 487.543052 600.006296 
L 488.489693 600.185628 
L 489.436334 600.939865 
L 490.382975 602.052626 
L 491.329617 602.836165 
L 492.276258 602.260063 
L 493.222899 600.656005 
L 495.116181 601.723897 
L 497.009463 605.292999 
L 497.956105 605.04485 
L 498.902746 603.400996 
L 499.849387 603.133055 
L 500.796028 606.293061 
L 501.742669 605.513467 
L 502.68931 606.072172 
L 503.635951 607.646927 
L 504.582593 608.385245 
L 506.475875 619.287029 
L 509.315798 627.841859 
L 510.262439 629.292082 
L 511.20908 630.024625 
L 512.155722 629.867762 
L 513.102363 628.79973 
L 514.049004 628.021192 
L 514.995645 628.755918 
L 515.942286 628.801702 
L 516.888927 628.452406 
L 517.835568 629.900587 
L 518.78221 629.853887 
L 519.728851 630.759563 
L 520.675492 630.847961 
L 521.622133 631.149431 
L 522.568774 631.738141 
L 523.515415 630.277564 
L 524.462056 630.55741 
L 525.408698 632.508791 
L 526.355339 631.363136 
L 527.30198 632.239651 
L 528.248621 632.339813 
L 529.195262 633.176602 
L 530.141903 633.139763 
L 531.088544 633.519488 
L 532.035186 633.192028 
L 532.981827 633.861811 
L 533.928468 634.71304 
L 535.82175 633.56006 
L 536.768391 633.40038 
L 538.661674 632.597893 
L 539.608315 632.428633 
L 540.554956 627.838338 
L 541.501597 628.060989 
L 542.448238 627.770015 
L 543.394879 626.703602 
L 544.34152 623.567686 
L 545.288162 619.747476 
L 546.234803 619.049729 
L 547.181444 619.853483 
L 548.128085 619.837564 
L 549.074726 620.57722 
L 550.021367 620.057326 
L 550.968008 616.549715 
L 551.91465 615.33292 
L 554.754573 605.379073 
L 555.701214 603.408182 
L 556.647855 603.339858 
L 557.594496 599.968189 
L 558.541138 600.92465 
L 559.487779 602.247523 
L 560.43442 603.012114 
L 561.381061 601.825748 
L 562.327702 601.7794 
L 563.274343 601.000158 
L 564.220984 600.679248 
L 566.114267 598.557763 
L 568.007549 597.844168 
L 568.95419 599.389058 
L 569.900831 598.90234 
L 570.847472 598.222132 
L 571.794113 599.622556 
L 573.687396 598.469929 
L 574.634037 597.1124 
L 575.580678 597.079436 
L 576.527319 595.389164 
L 577.47396 595.033317 
L 578.420601 595.267168 
L 579.367243 594.842997 
L 580.313884 594.090098 
L 581.260525 593.651699 
L 582.207166 593.764258 
L 583.153807 594.273797 
L 584.100448 596.531367 
L 585.047089 596.870309 
L 585.993731 601.68727 
L 586.940372 600.838366 
L 588.833654 601.315928 
L 589.780295 606.592066 
L 590.726936 610.245059 
L 591.673577 610.946046 
L 592.620219 611.043037 
L 593.56686 610.691557 
L 594.513501 608.959587 
L 595.460142 608.720383 
L 596.406783 611.624633 
L 597.353424 610.189202 
L 598.300065 612.696682 
L 599.246707 616.057996 
L 600.193348 618.818132 
L 601.139989 619.05966 
L 602.08663 620.286105 
L 603.033271 624.0282 
L 604.926553 622.144862 
L 605.873195 618.964711 
L 606.819836 620.816142 
L 607.766477 620.942153 
L 608.713118 621.41422 
L 610.6064 620.447827 
L 611.553041 620.795644 
L 612.499683 621.325047 
L 613.446324 621.344346 
L 614.392965 620.679493 
L 615.339606 620.234474 
L 616.286247 620.677592 
L 617.232888 620.031052 
L 618.179529 619.655977 
L 619.12617 619.795794 
L 620.072812 620.381688 
L 621.019453 619.673093 
L 621.966094 621.113948 
L 622.912735 621.381115 
L 623.859376 619.60336 
L 624.806017 618.488065 
L 625.752658 618.668383 
L 626.6993 615.054975 
L 628.592582 598.567131 
L 629.539223 589.608909 
L 630.485864 582.050196 
L 631.432505 573.160298 
L 632.379146 573.995397 
L 633.325788 573.994129 
L 634.272429 573.272363 
L 635.21907 572.352036 
L 637.112352 567.554304 
L 638.058993 564.515802 
L 639.005634 563.453404 
L 639.952276 563.899269 
L 640.898917 562.072843 
L 641.845558 557.831633 
L 642.792199 559.08576 
L 644.685481 553.043833 
L 645.632122 553.494699 
L 646.578764 554.638381 
L 647.525405 553.039466 
L 648.472046 550.673424 
L 649.418687 547.938786 
L 650.365328 547.169264 
L 651.311969 549.833395 
L 652.25861 548.702673 
L 653.205252 548.440649 
L 654.151893 547.785587 
L 655.098534 546.847158 
L 656.045175 547.599776 
L 656.991816 547.616399 
L 657.938457 546.906748 
L 658.885098 547.067837 
L 659.83174 548.278997 
L 660.778381 548.320344 
L 661.725022 546.705087 
L 662.671663 547.20533 
L 663.618304 547.99394 
L 665.511586 548.144604 
L 666.458228 549.132903 
L 667.404869 549.062888 
L 668.35151 549.157555 
L 669.298151 550.445632 
L 670.244792 550.699274 
L 671.191433 552.380108 
L 672.138074 556.129951 
L 673.084715 563.762975 
L 674.977998 580.305478 
L 676.87128 596.024787 
L 677.817921 595.948293 
L 678.764562 595.119957 
L 679.711203 596.197781 
L 680.657845 595.178137 
L 681.604486 597.377597 
L 682.551127 598.859869 
L 683.497768 598.501839 
L 684.444409 600.420819 
L 685.39105 600.53056 
L 686.337691 601.753342 
L 687.284333 604.562221 
L 688.230974 605.38774 
L 689.177615 607.122669 
L 690.124256 609.275851 
L 691.070897 608.762296 
L 692.964179 610.391287 
L 693.910821 612.53975 
L 694.857462 615.30693 
L 695.804103 614.885648 
L 696.750744 615.249948 
L 697.697385 615.147532 
L 698.644026 615.165071 
L 699.590667 615.914448 
L 700.537309 617.510545 
L 701.48395 618.187443 
L 702.430591 617.489695 
L 703.377232 618.273798 
L 704.323873 618.334162 
L 705.270514 617.604719 
L 706.217155 617.751297 
L 707.163797 618.626122 
L 708.110438 618.655002 
L 709.057079 618.528075 
L 710.00372 617.906118 
L 710.950361 618.211884 
L 711.897002 617.307546 
L 712.843643 617.864983 
L 713.790285 617.798069 
L 714.736926 618.587101 
L 715.683567 618.314864 
L 716.630208 617.030942 
L 717.576849 616.524079 
L 718.52349 612.374648 
L 721.363414 595.153275 
L 722.310055 591.922128 
L 723.256696 592.379122 
L 724.203337 592.581205 
L 725.149978 592.964662 
L 726.096619 593.758978 
L 727.04326 593.476456 
L 727.989902 593.729675 
L 728.936543 591.013844 
L 732.723107 570.834971 
L 733.669748 567.799567 
L 734.61639 567.708704 
L 735.563031 566.578686 
L 736.509672 565.059928 
L 737.456313 561.843503 
L 738.402954 549.896859 
L 739.349595 544.168798 
L 740.296236 540.725496 
L 743.13616 524.809105 
L 745.029442 513.232396 
L 746.922724 502.879667 
L 747.869366 500.445301 
L 748.816007 494.642225 
L 749.762648 487.442528 
L 750.709289 481.821038 
L 751.65593 475.178849 
L 753.549212 464.731241 
L 754.495854 457.100189 
L 755.442495 454.44113 
L 756.389136 453.382465 
L 757.335777 454.019495 
L 758.282418 453.757611 
L 759.229059 452.504329 
L 760.1757 452.498624 
L 761.122342 452.986539 
L 762.068983 453.265821 
L 763.015624 453.693795 
L 763.962265 458.10194 
L 766.802188 473.643537 
L 767.74883 476.683729 
L 768.695471 475.444746 
L 769.642112 475.834402 
L 771.535394 473.894925 
L 773.428676 474.936404 
L 775.321959 483.275346 
L 778.161882 499.482921 
L 779.108523 501.583628 
L 780.055164 502.08387 
L 781.001805 503.78513 
L 781.948447 504.795123 
L 782.895088 507.489683 
L 783.841729 519.969181 
L 784.78837 525.939474 
L 785.735011 529.94127 
L 786.681652 536.259943 
L 787.628293 540.016548 
L 790.468217 557.703366 
L 791.414858 562.94668 
L 792.361499 567.327708 
L 794.254781 573.655046 
L 795.201423 580.551231 
L 796.148064 586.521664 
L 797.094705 594.178284 
L 799.934628 613.081194 
L 800.881269 615.911063 
L 801.827911 616.532315 
L 802.774552 616.993465 
L 803.721193 615.318972 
L 804.667834 616.468218 
L 805.614475 615.77498 
L 806.561116 614.608547 
L 807.507757 613.86896 
L 810.347681 612.417962 
L 811.294322 612.42416 
L 812.240963 611.360353 
L 813.187604 611.854256 
L 814.134245 612.475298 
L 816.027528 612.594618 
L 816.974169 614.616999 
L 817.92081 614.405125 
L 818.867451 613.905869 
L 819.814092 614.155708 
L 820.760733 614.533038 
L 821.707375 612.142977 
L 822.654016 610.904768 
L 823.600657 609.996064 
L 824.547298 609.318673 
L 826.44058 610.136374 
L 827.387221 611.489254 
L 828.333862 609.283737 
L 829.280504 608.286141 
L 830.227145 607.534862 
L 831.173786 604.537635 
L 832.120427 603.132492 
L 833.067068 604.255677 
L 834.96035 603.951461 
L 835.906992 604.11896 
L 836.853633 603.848131 
L 837.800274 604.111142 
L 838.746915 604.243915 
L 839.693556 605.653497 
L 840.640197 604.737255 
L 841.586838 602.561533 
L 842.53348 601.288952 
L 843.480121 601.545343 
L 845.373403 600.769975 
L 846.320044 600.383206 
L 847.266685 599.76132 
L 848.213326 599.677218 
L 850.106609 601.605566 
L 851.05325 601.058835 
L 851.999891 601.219079 
L 852.946532 600.087019 
L 853.893173 600.584162 
L 854.839814 601.662056 
L 855.786456 601.278528 
L 857.679738 601.094125 
L 858.626379 600.201409 
L 859.57302 600.151328 
L 860.519661 598.659406 
L 861.466302 599.15986 
L 862.412944 597.640186 
L 863.359585 597.090567 
L 864.306226 596.354433 
L 865.252867 597.510019 
L 866.199508 597.91658 
L 867.146149 600.574794 
L 868.09279 601.800324 
L 869.986073 605.320473 
L 870.932714 605.59257 
L 871.879355 605.125856 
L 872.825996 604.98146 
L 873.772637 606.708993 
L 874.719278 607.213673 
L 875.66592 607.419277 
L 876.612561 610.637041 
L 877.559202 612.207006 
L 878.505843 611.863064 
L 879.452484 611.23526 
L 880.399125 611.017892 
L 881.345766 611.243994 
L 882.292407 610.0646 
L 883.239049 610.343178 
L 884.18569 610.31113 
L 886.078972 612.830865 
L 887.025613 614.98785 
L 887.972254 615.911699 
L 888.918895 615.371871 
L 889.865537 615.053707 
L 892.70546 616.816388 
L 893.652101 615.931773 
L 894.598742 616.110894 
L 895.545383 615.635234 
L 896.492025 615.667213 
L 897.438666 616.708058 
L 898.385307 618.329935 
L 899.331948 618.587945 
L 900.278589 617.92267 
L 901.22523 619.508062 
L 902.171871 619.876798 
L 903.118513 621.10754 
L 905.011795 621.755346 
L 905.958436 623.47013 
L 906.905077 622.924174 
L 907.851718 623.285725 
L 908.798359 624.436733 
L 909.745001 624.970573 
L 910.691642 625.229429 
L 911.638283 624.907885 
L 912.584924 625.776934 
L 913.531565 626.14884 
L 914.478206 626.254988 
L 915.424847 626.155813 
L 916.371489 625.654585 
L 917.31813 625.40545 
L 918.264771 624.680444 
L 919.211412 625.283947 
L 920.158053 623.993897 
L 921.104694 624.63297 
L 922.051335 623.85253 
L 922.997977 622.406252 
L 923.944618 622.525853 
L 924.891259 622.297427 
L 925.8379 622.276719 
L 926.784541 621.214954 
L 927.731182 623.044691 
L 928.677823 622.511836 
L 929.624465 622.825773 
L 930.571106 622.378992 
L 931.517747 622.340393 
L 932.464388 622.944318 
L 933.411029 622.967914 
L 934.35767 622.637495 
L 935.304311 622.802881 
L 936.250952 621.843039 
L 937.197594 621.252567 
L 938.144235 619.655413 
L 939.090876 619.491366 
L 940.037517 619.635761 
L 940.984158 618.892583 
L 941.930799 619.406349 
L 942.87744 618.942381 
L 944.770723 618.52462 
L 945.717364 618.852926 
L 947.610646 619.208281 
L 948.557287 619.671333 
L 949.503928 619.640059 
L 950.45057 618.550473 
L 951.397211 618.239002 
L 953.290493 610.396077 
L 954.237134 610.956753 
L 955.183775 611.306472 
L 956.130416 610.924282 
L 957.077058 610.750797 
L 958.97034 609.767711 
L 959.916981 610.132221 
L 960.863622 610.205546 
L 961.810263 610.853987 
L 962.756904 611.218146 
L 963.703546 610.418125 
L 964.650187 610.56421 
L 965.596828 612.348444 
L 966.543469 611.716697 
L 967.49011 612.070501 
L 968.436751 614.147259 
L 969.383392 613.664345 
L 970.330034 614.625667 
L 971.276675 614.096827 
L 972.223316 614.222134 
L 973.169957 613.97476 
L 974.116598 614.658278 
L 976.00988 613.109444 
L 976.956522 613.021609 
L 977.903163 612.146502 
L 978.849804 612.142347 
L 979.796445 613.200378 
L 980.743086 612.993293 
L 982.636368 614.174448 
L 983.58301 615.494363 
L 984.529651 616.099344 
L 985.476292 616.842241 
L 986.422933 617.256902 
L 987.369574 617.481948 
L 988.316215 617.328678 
L 989.262856 617.551329 
L 990.209497 618.211744 
L 992.10278 618.067279 
L 993.049421 618.502648 
L 993.996062 618.746007 
L 994.942703 618.778338 
L 996.835985 619.110518 
L 997.782627 623.558813 
L 998.729268 628.577011 
L 999.675909 628.214896 
L 1000.62255 626.934426 
L 1001.569191 627.092768 
L 1002.515832 626.809189 
L 1003.462473 626.937877 
L 1004.409115 626.074182 
L 1005.355756 624.210777 
L 1007.249038 622.45359 
L 1008.195679 622.521562 
L 1009.14232 623.060826 
L 1010.088961 622.732731 
L 1011.035603 621.978706 
L 1011.982244 622.044705 
L 1012.928885 621.885306 
L 1013.875526 619.138483 
L 1014.822167 618.280845 
L 1015.768808 617.583379 
L 1016.715449 618.33008 
L 1017.662091 616.300726 
L 1018.608732 615.29841 
L 1019.555373 615.575368 
L 1020.502014 616.141257 
L 1021.448655 616.273397 
L 1022.395296 615.788369 
L 1023.341937 616.178518 
L 1024.288579 616.313968 
L 1025.23522 616.165065 
L 1026.181861 614.148671 
L 1027.128502 614.105986 
L 1028.075143 613.527418 
L 1029.021784 613.085991 
L 1029.968425 612.913843 
L 1030.915067 612.464034 
L 1031.861708 612.985548 
L 1032.808349 612.76177 
L 1033.75499 613.036404 
L 1034.701631 612.862988 
L 1036.594913 611.644501 
L 1037.541555 610.500255 
L 1038.488196 607.122107 
L 1039.434837 606.800915 
L 1040.381478 607.154508 
L 1041.328119 607.3225 
L 1042.27476 606.1131 
L 1043.221401 606.590662 
L 1044.168042 604.266389 
L 1045.114684 603.933645 
L 1046.061325 605.67294 
L 1047.007966 604.893909 
L 1047.954607 605.90496 
L 1048.901248 606.303279 
L 1049.847889 607.780691 
L 1050.79453 608.621072 
L 1051.741172 609.044256 
L 1052.687813 607.419349 
L 1054.581095 607.516411 
L 1056.474377 608.578809 
L 1057.421018 607.590228 
L 1058.36766 607.706732 
L 1059.314301 610.166243 
L 1060.260942 611.618579 
L 1061.207583 612.749654 
L 1062.154224 612.57969 
L 1063.100865 615.212194 
L 1064.047506 615.720043 
L 1064.994148 615.132953 
L 1065.940789 615.387722 
L 1066.88743 614.297502 
L 1067.834071 614.875295 
L 1068.780712 614.923615 
L 1069.727353 614.150149 
L 1070.673994 613.012665 
L 1071.620636 615.055896 
L 1072.567277 615.890995 
L 1073.513918 616.90458 
L 1074.460559 618.246612 
L 1075.4072 616.486256 
L 1076.353841 616.767369 
L 1077.300482 616.682563 
L 1078.247124 616.453784 
L 1079.193765 615.996719 
L 1080.140406 616.204368 
L 1081.087047 615.783508 
L 1082.033688 615.819642 
L 1082.980329 615.386244 
L 1083.92697 618.703182 
L 1084.873612 618.63352 
L 1085.820253 618.10299 
L 1086.766894 617.810325 
L 1087.713535 618.724172 
L 1088.660176 617.256973 
L 1089.606817 618.393329 
L 1090.553458 617.805535 
L 1091.5001 616.159498 
L 1092.446741 616.749124 
L 1093.393382 615.14387 
L 1094.340023 613.248839 
L 1095.286664 611.624425 
L 1096.233305 610.741993 
L 1097.179946 610.985352 
L 1098.126587 612.557713 
L 1099.073229 611.568992 
L 1100.01987 611.504753 
L 1100.966511 610.786298 
L 1101.913152 609.650645 
L 1102.859793 610.227663 
L 1103.806434 610.180823 
L 1104.753075 607.214025 
L 1105.699717 606.909809 
L 1106.646358 605.652371 
L 1107.592999 605.810853 
L 1108.53964 605.031259 
L 1109.486281 604.43642 
L 1110.432922 603.495385 
L 1111.379563 602.132151 
L 1112.326205 602.279787 
L 1113.272846 601.891609 
L 1114.219487 601.176394 
L 1115.166128 600.695592 
L 1116.112769 601.109055 
L 1117.05941 598.785275 
L 1118.006051 594.810033 
L 1118.952693 593.498782 
L 1119.899334 592.399827 
L 1120.845975 593.574149 
L 1121.792616 593.35502 
L 1122.739257 593.280499 
L 1123.685898 593.892665 
L 1124.632539 595.27379 
L 1125.579181 594.705435 
L 1126.525822 594.684515 
L 1127.472463 595.102064 
L 1128.419104 595.350072 
L 1129.365745 594.901249 
L 1130.312386 595.038178 
L 1131.259027 595.918567 
L 1132.205669 596.247155 
L 1133.15231 596.305406 
L 1134.098951 597.787537 
L 1135.045592 598.46521 
L 1135.992233 598.813942 
L 1136.938874 599.548316 
L 1138.832157 600.435468 
L 1139.778798 601.11159 
L 1140.725439 602.791015 
L 1141.67208 603.886095 
L 1142.618721 604.011896 
L 1143.565362 604.528761 
L 1145.458645 606.68469 
L 1146.405286 607.212403 
L 1147.351927 608.347985 
L 1148.298568 608.98403 
L 1149.245209 608.958954 
L 1150.19185 611.506089 
L 1151.138491 611.83834 
L 1152.085132 612.667099 
L 1153.031774 612.959764 
L 1153.978415 613.688361 
L 1154.925056 613.353928 
L 1155.871697 611.934415 
L 1157.764979 614.17501 
L 1158.71162 614.491765 
L 1159.658262 615.681019 
L 1160.604903 616.550069 
L 1161.551544 616.541547 
L 1162.498185 618.328739 
L 1163.444826 622.342861 
L 1164.391467 623.043496 
L 1165.338108 623.36018 
L 1166.28475 623.883455 
L 1167.231391 623.728846 
L 1169.124673 623.847955 
L 1170.071314 622.911075 
L 1171.017955 622.939743 
L 1171.964596 623.238395 
L 1172.911238 620.75564 
L 1174.80452 621.272646 
L 1175.751161 620.011687 
L 1176.697802 616.74983 
L 1177.644443 616.597545 
L 1178.591084 616.074975 
L 1179.537726 614.761399 
L 1180.484367 614.667436 
L 1181.431008 613.346183 
L 1182.377649 611.160881 
L 1183.32429 608.654881 
L 1184.270931 606.866491 
L 1185.217572 607.494575 
L 1186.164214 606.432248 
L 1187.110855 604.857141 
L 1188.057496 604.261527 
L 1189.004137 604.483684 
L 1189.950778 602.328881 
L 1190.897419 601.383127 
L 1191.84406 601.422007 
L 1192.790702 601.238731 
L 1193.737343 601.547877 
L 1194.683984 601.512589 
L 1195.630625 601.6579 
L 1196.577266 600.757718 
L 1198.470548 598.287429 
L 1199.41719 598.407736 
L 1200.363831 599.494082 
L 1201.310472 601.358262 
L 1202.257113 600.941417 
L 1203.203754 601.024462 
L 1204.150395 600.062929 
L 1205.097036 599.461822 
L 1206.043677 599.161268 
L 1206.990319 599.798861 
L 1207.93696 600.769904 
L 1208.883601 600.115264 
L 1209.830242 599.776182 
L 1210.776883 600.504146 
L 1211.723524 600.232119 
L 1212.670165 599.783226 
L 1213.616807 600.128155 
L 1214.563448 599.870638 
L 1215.510089 599.835349 
L 1216.45673 600.750041 
L 1217.403371 600.619451 
L 1218.350012 601.771585 
L 1219.296653 602.340151 
L 1220.243295 602.077492 
L 1221.189936 603.400013 
L 1222.136577 606.291442 
L 1223.083218 607.213953 
L 1224.029859 606.113308 
L 1224.9765 606.493314 
L 1225.923141 605.846282 
L 1226.869783 606.755057 
L 1227.816424 610.338177 
L 1228.763065 612.227292 
L 1229.709706 614.898466 
L 1230.656347 615.115553 
L 1232.549629 617.326634 
L 1233.496271 616.227468 
L 1234.442912 616.360452 
L 1235.389553 614.913258 
L 1236.336194 613.881993 
L 1237.282835 613.269615 
L 1238.229476 613.18488 
L 1239.176117 612.175239 
L 1240.122759 612.351119 
L 1241.0694 611.677602 
L 1242.016041 612.218839 
L 1243.909323 613.896009 
L 1244.855964 613.017732 
L 1245.802605 613.397668 
L 1246.749247 612.301601 
L 1247.695888 611.004085 
L 1248.642529 610.161379 
L 1249.58917 610.667468 
L 1250.535811 610.404597 
L 1251.482452 605.122683 
L 1252.429093 601.690721 
L 1253.375735 601.002342 
L 1254.322376 600.84717 
L 1255.269017 601.364105 
L 1256.215658 600.935919 
L 1257.162299 600.886824 
L 1258.10894 601.525264 
L 1259.055581 601.156316 
L 1260.002222 600.35397 
L 1260.948864 601.278101 
L 1260.948864 601.278101 
" style="fill:none;stroke:#ff0000;stroke-linecap:square;stroke-width:1.5;"/>
   </g>
   <g id="patch_3">
    <path d="M 69.175 719.2 
L 69.175 14.3 
" style="fill:none;stroke:#000000;stroke-linecap:square;stroke-linejoin:miter;stroke-width:0.8;"/>
   </g>
   <g id="patch_4">
    <path d="M 1317.7 719.2 
L 1317.7 14.3 
" style="fill:none;stroke:#000000;stroke-linecap:square;stroke-linejoin:miter;stroke-width:0.8;"/>
   </g>
   <g id="patch_5">
    <path d="M 69.175 719.2 
L 1317.7 719.2 
" style="fill:none;stroke:#000000;stroke-linecap:square;stroke-linejoin:miter;stroke-width:0.8;"/>
   </g>
   <g id="patch_6">
    <path d="M 69.175 14.3 
L 1317.7 14.3 
" style="fill:none;stroke:#000000;stroke-linecap:square;stroke-linejoin:miter;stroke-width:0.8;"/>
   </g>
   <g id="legend_1">
    <g id="patch_7">
     <path d="M 971.753125 177.08125 
L 1303.7 177.08125 
Q 1307.7 177.08125 1307.7 173.08125 
L 1307.7 28.3 
Q 1307.7 24.3 1303.7 24.3 
L 971.753125 24.3 
Q 967.753125 24.3 967.753125 28.3 
L 967.753125 173.08125 
Q 967.753125 177.08125 971.753125 177.08125 
z
" style="fill:#ffffff;opacity:0.8;stroke:#cccccc;stroke-linejoin:miter;"/>
    </g>
    <g id="line2d_21">
     <path d="M 975.753125 40.496875 
L 1015.753125 40.496875 
" style="fill:none;stroke:#000000;stroke-linecap:square;stroke-width:1.5;"/>
    </g>
    <g id="line2d_22"/>
    <g id="text_18">
     <!-- Unused Data -->
     <defs>
      <path d="M 8.6875 72.90625 
L 18.609375 72.90625 
L 18.609375 28.609375 
Q 18.609375 16.890625 22.84375 11.734375 
Q 27.09375 6.59375 36.625 6.59375 
Q 46.09375 6.59375 50.34375 11.734375 
Q 54.59375 16.890625 54.59375 28.609375 
L 54.59375 72.90625 
L 64.5 72.90625 
L 64.5 27.390625 
Q 64.5 13.140625 57.4375 5.859375 
Q 50.390625 -1.421875 36.625 -1.421875 
Q 22.796875 -1.421875 15.734375 5.859375 
Q 8.6875 13.140625 8.6875 27.390625 
z
" id="DejaVuSans-55"/>
      <path d="M 19.671875 64.796875 
L 19.671875 8.109375 
L 31.59375 8.109375 
Q 46.6875 8.109375 53.6875 14.9375 
Q 60.6875 21.78125 60.6875 36.53125 
Q 60.6875 51.171875 53.6875 57.984375 
Q 46.6875 64.796875 31.59375 64.796875 
z
M 9.8125 72.90625 
L 30.078125 72.90625 
Q 51.265625 72.90625 61.171875 64.09375 
Q 71.09375 55.28125 71.09375 36.53125 
Q 71.09375 17.671875 61.125 8.828125 
Q 51.171875 0 30.078125 0 
L 9.8125 0 
z
" id="DejaVuSans-44"/>
     </defs>
     <g transform="translate(1031.753125 47.496875)scale(0.2 -0.2)">
      <use xlink:href="#DejaVuSans-55"/>
      <use x="73.193359" xlink:href="#DejaVuSans-6e"/>
      <use x="136.572266" xlink:href="#DejaVuSans-75"/>
      <use x="199.951172" xlink:href="#DejaVuSans-73"/>
      <use x="252.050781" xlink:href="#DejaVuSans-65"/>
      <use x="313.574219" xlink:href="#DejaVuSans-64"/>
      <use x="377.050781" xlink:href="#DejaVuSans-20"/>
      <use x="408.837891" xlink:href="#DejaVuSans-44"/>
      <use x="485.839844" xlink:href="#DejaVuSans-61"/>
      <use x="547.119141" xlink:href="#DejaVuSans-74"/>
      <use x="586.328125" xlink:href="#DejaVuSans-61"/>
     </g>
    </g>
    <g id="line2d_23">
     <path d="M 975.753125 69.853125 
L 1015.753125 69.853125 
" style="fill:none;stroke:#1f77b4;stroke-linecap:square;stroke-width:1.5;"/>
    </g>
    <g id="line2d_24"/>
    <g id="text_19">
     <!-- Training Data -->
     <defs>
      <path d="M -0.296875 72.90625 
L 61.375 72.90625 
L 61.375 64.59375 
L 35.5 64.59375 
L 35.5 0 
L 25.59375 0 
L 25.59375 64.59375 
L -0.296875 64.59375 
z
" id="DejaVuSans-54"/>
      <path d="M 41.109375 46.296875 
Q 39.59375 47.171875 37.8125 47.578125 
Q 36.03125 48 33.890625 48 
Q 26.265625 48 22.1875 43.046875 
Q 18.109375 38.09375 18.109375 28.8125 
L 18.109375 0 
L 9.078125 0 
L 9.078125 54.6875 
L 18.109375 54.6875 
L 18.109375 46.1875 
Q 20.953125 51.171875 25.484375 53.578125 
Q 30.03125 56 36.53125 56 
Q 37.453125 56 38.578125 55.875 
Q 39.703125 55.765625 41.0625 55.515625 
z
" id="DejaVuSans-72"/>
      <path d="M 45.40625 27.984375 
Q 45.40625 37.75 41.375 43.109375 
Q 37.359375 48.484375 30.078125 48.484375 
Q 22.859375 48.484375 18.828125 43.109375 
Q 14.796875 37.75 14.796875 27.984375 
Q 14.796875 18.265625 18.828125 12.890625 
Q 22.859375 7.515625 30.078125 7.515625 
Q 37.359375 7.515625 41.375 12.890625 
Q 45.40625 18.265625 45.40625 27.984375 
z
M 54.390625 6.78125 
Q 54.390625 -7.171875 48.1875 -13.984375 
Q 42 -20.796875 29.203125 -20.796875 
Q 24.46875 -20.796875 20.265625 -20.09375 
Q 16.0625 -19.390625 12.109375 -17.921875 
L 12.109375 -9.1875 
Q 16.0625 -11.328125 19.921875 -12.34375 
Q 23.78125 -13.375 27.78125 -13.375 
Q 36.625 -13.375 41.015625 -8.765625 
Q 45.40625 -4.15625 45.40625 5.171875 
L 45.40625 9.625 
Q 42.625 4.78125 38.28125 2.390625 
Q 33.9375 0 27.875 0 
Q 17.828125 0 11.671875 7.65625 
Q 5.515625 15.328125 5.515625 27.984375 
Q 5.515625 40.671875 11.671875 48.328125 
Q 17.828125 56 27.875 56 
Q 33.9375 56 38.28125 53.609375 
Q 42.625 51.21875 45.40625 46.390625 
L 45.40625 54.6875 
L 54.390625 54.6875 
z
" id="DejaVuSans-67"/>
     </defs>
     <g transform="translate(1031.753125 76.853125)scale(0.2 -0.2)">
      <use xlink:href="#DejaVuSans-54"/>
      <use x="60.865234" xlink:href="#DejaVuSans-72"/>
      <use x="101.978516" xlink:href="#DejaVuSans-61"/>
      <use x="163.257812" xlink:href="#DejaVuSans-69"/>
      <use x="191.041016" xlink:href="#DejaVuSans-6e"/>
      <use x="254.419922" xlink:href="#DejaVuSans-69"/>
      <use x="282.203125" xlink:href="#DejaVuSans-6e"/>
      <use x="345.582031" xlink:href="#DejaVuSans-67"/>
      <use x="409.058594" xlink:href="#DejaVuSans-20"/>
      <use x="440.845703" xlink:href="#DejaVuSans-44"/>
      <use x="517.847656" xlink:href="#DejaVuSans-61"/>
      <use x="579.126953" xlink:href="#DejaVuSans-74"/>
      <use x="618.335938" xlink:href="#DejaVuSans-61"/>
     </g>
    </g>
    <g id="line2d_25">
     <path d="M 975.753125 99.209375 
L 1015.753125 99.209375 
" style="fill:none;stroke:#ff7f0e;stroke-linecap:square;stroke-width:1.5;"/>
    </g>
    <g id="line2d_26"/>
    <g id="text_20">
     <!-- Validation Data -->
     <defs>
      <path d="M 28.609375 0 
L 0.78125 72.90625 
L 11.078125 72.90625 
L 34.1875 11.53125 
L 57.328125 72.90625 
L 67.578125 72.90625 
L 39.796875 0 
z
" id="DejaVuSans-56"/>
      <path d="M 9.421875 75.984375 
L 18.40625 75.984375 
L 18.40625 0 
L 9.421875 0 
z
" id="DejaVuSans-6c"/>
      <path d="M 30.609375 48.390625 
Q 23.390625 48.390625 19.1875 42.75 
Q 14.984375 37.109375 14.984375 27.296875 
Q 14.984375 17.484375 19.15625 11.84375 
Q 23.34375 6.203125 30.609375 6.203125 
Q 37.796875 6.203125 41.984375 11.859375 
Q 46.1875 17.53125 46.1875 27.296875 
Q 46.1875 37.015625 41.984375 42.703125 
Q 37.796875 48.390625 30.609375 48.390625 
z
M 30.609375 56 
Q 42.328125 56 49.015625 48.375 
Q 55.71875 40.765625 55.71875 27.296875 
Q 55.71875 13.875 49.015625 6.21875 
Q 42.328125 -1.421875 30.609375 -1.421875 
Q 18.84375 -1.421875 12.171875 6.21875 
Q 5.515625 13.875 5.515625 27.296875 
Q 5.515625 40.765625 12.171875 48.375 
Q 18.84375 56 30.609375 56 
z
" id="DejaVuSans-6f"/>
     </defs>
     <g transform="translate(1031.753125 106.209375)scale(0.2 -0.2)">
      <use xlink:href="#DejaVuSans-56"/>
      <use x="68.298828" xlink:href="#DejaVuSans-61"/>
      <use x="129.578125" xlink:href="#DejaVuSans-6c"/>
      <use x="157.361328" xlink:href="#DejaVuSans-69"/>
      <use x="185.144531" xlink:href="#DejaVuSans-64"/>
      <use x="248.621094" xlink:href="#DejaVuSans-61"/>
      <use x="309.900391" xlink:href="#DejaVuSans-74"/>
      <use x="349.109375" xlink:href="#DejaVuSans-69"/>
      <use x="376.892578" xlink:href="#DejaVuSans-6f"/>
      <use x="438.074219" xlink:href="#DejaVuSans-6e"/>
      <use x="501.453125" xlink:href="#DejaVuSans-20"/>
      <use x="533.240234" xlink:href="#DejaVuSans-44"/>
      <use x="610.242188" xlink:href="#DejaVuSans-61"/>
      <use x="671.521484" xlink:href="#DejaVuSans-74"/>
      <use x="710.730469" xlink:href="#DejaVuSans-61"/>
     </g>
    </g>
    <g id="line2d_27">
     <path d="M 975.753125 128.565625 
L 1015.753125 128.565625 
" style="fill:none;stroke:#2ca02c;stroke-linecap:square;stroke-width:1.5;"/>
    </g>
    <g id="line2d_28"/>
    <g id="text_21">
     <!-- Testing Data -->
     <g transform="translate(1031.753125 135.565625)scale(0.2 -0.2)">
      <use xlink:href="#DejaVuSans-54"/>
      <use x="60.818359" xlink:href="#DejaVuSans-65"/>
      <use x="122.341797" xlink:href="#DejaVuSans-73"/>
      <use x="174.441406" xlink:href="#DejaVuSans-74"/>
      <use x="213.650391" xlink:href="#DejaVuSans-69"/>
      <use x="241.433594" xlink:href="#DejaVuSans-6e"/>
      <use x="304.8125" xlink:href="#DejaVuSans-67"/>
      <use x="368.289062" xlink:href="#DejaVuSans-20"/>
      <use x="400.076172" xlink:href="#DejaVuSans-44"/>
      <use x="477.078125" xlink:href="#DejaVuSans-61"/>
      <use x="538.357422" xlink:href="#DejaVuSans-74"/>
      <use x="577.566406" xlink:href="#DejaVuSans-61"/>
     </g>
    </g>
    <g id="line2d_29">
     <path d="M 975.753125 157.921875 
L 1015.753125 157.921875 
" style="fill:none;stroke:#ff0000;stroke-linecap:square;stroke-width:1.5;"/>
    </g>
    <g id="line2d_30"/>
    <g id="text_22">
     <!-- Moving average (48 steps) -->
     <defs>
      <path d="M 2.984375 54.6875 
L 12.5 54.6875 
L 29.59375 8.796875 
L 46.6875 54.6875 
L 56.203125 54.6875 
L 35.6875 0 
L 23.484375 0 
z
" id="DejaVuSans-76"/>
     </defs>
     <g transform="translate(1031.753125 164.921875)scale(0.2 -0.2)">
      <use xlink:href="#DejaVuSans-4d"/>
      <use x="86.279297" xlink:href="#DejaVuSans-6f"/>
      <use x="147.460938" xlink:href="#DejaVuSans-76"/>
      <use x="206.640625" xlink:href="#DejaVuSans-69"/>
      <use x="234.423828" xlink:href="#DejaVuSans-6e"/>
      <use x="297.802734" xlink:href="#DejaVuSans-67"/>
      <use x="361.279297" xlink:href="#DejaVuSans-20"/>
      <use x="393.066406" xlink:href="#DejaVuSans-61"/>
      <use x="454.345703" xlink:href="#DejaVuSans-76"/>
      <use x="513.525391" xlink:href="#DejaVuSans-65"/>
      <use x="575.048828" xlink:href="#DejaVuSans-72"/>
      <use x="616.162109" xlink:href="#DejaVuSans-61"/>
      <use x="677.441406" xlink:href="#DejaVuSans-67"/>
      <use x="740.917969" xlink:href="#DejaVuSans-65"/>
      <use x="802.441406" xlink:href="#DejaVuSans-20"/>
      <use x="834.228516" xlink:href="#DejaVuSans-28"/>
      <use x="873.242188" xlink:href="#DejaVuSans-34"/>
      <use x="936.865234" xlink:href="#DejaVuSans-38"/>
      <use x="1000.488281" xlink:href="#DejaVuSans-20"/>
      <use x="1032.275391" xlink:href="#DejaVuSans-73"/>
      <use x="1084.375" xlink:href="#DejaVuSans-74"/>
      <use x="1123.583984" xlink:href="#DejaVuSans-65"/>
      <use x="1185.107422" xlink:href="#DejaVuSans-70"/>
      <use x="1248.583984" xlink:href="#DejaVuSans-73"/>
      <use x="1300.683594" xlink:href="#DejaVuSans-29"/>
     </g>
    </g>
   </g>
  </g>
 </g>
 <defs>
  <clipPath id="paf3f2ad0ee">
   <rect height="704.9" width="1248.525" x="69.175" y="14.3"/>
  </clipPath>
 </defs>
</svg>
