<?xml version="1.0" encoding="utf-8" standalone="no"?>
<!DOCTYPE svg PUBLIC "-//W3C//DTD SVG 1.1//EN"
  "http://www.w3.org/Graphics/SVG/1.1/DTD/svg11.dtd">
<!-- Created with matplotlib (http://matplotlib.org/) -->
<svg height="756pt" version="1.1" viewBox="0 0 1332 756" width="1332pt" xmlns="http://www.w3.org/2000/svg" xmlns:xlink="http://www.w3.org/1999/xlink">
 <defs>
  <style type="text/css">
*{stroke-linecap:butt;stroke-linejoin:round;}
  </style>
 </defs>
 <g id="figure_1">
  <g id="patch_1">
   <path d="M 0 756 
L 1332 756 
L 1332 0 
L 0 0 
z
" style="fill:#ffffff;"/>
  </g>
  <g id="axes_1">
   <g id="patch_2">
    <path d="M 69.175 719.2 
L 1317.7 719.2 
L 1317.7 14.3 
L 69.175 14.3 
z
" style="fill:#ffffff;"/>
   </g>
   <g id="matplotlib.axis_1">
    <g id="xtick_1">
     <g id="line2d_1">
      <defs>
       <path d="M 0 0 
L 0 3.5 
" id="m5afd6a93c4" style="stroke:#000000;stroke-width:0.8;"/>
      </defs>
      <g>
       <use style="stroke:#000000;stroke-width:0.8;" x="125.926136" xlink:href="#m5afd6a93c4" y="719.2"/>
      </g>
     </g>
     <g id="text_1">
      <!-- 0 -->
      <defs>
       <path d="M 31.78125 66.40625 
Q 24.171875 66.40625 20.328125 58.90625 
Q 16.5 51.421875 16.5 36.375 
Q 16.5 21.390625 20.328125 13.890625 
Q 24.171875 6.390625 31.78125 6.390625 
Q 39.453125 6.390625 43.28125 13.890625 
Q 47.125 21.390625 47.125 36.375 
Q 47.125 51.421875 43.28125 58.90625 
Q 39.453125 66.40625 31.78125 66.40625 
z
M 31.78125 74.21875 
Q 44.046875 74.21875 50.515625 64.515625 
Q 56.984375 54.828125 56.984375 36.375 
Q 56.984375 17.96875 50.515625 8.265625 
Q 44.046875 -1.421875 31.78125 -1.421875 
Q 19.53125 -1.421875 13.0625 8.265625 
Q 6.59375 17.96875 6.59375 36.375 
Q 6.59375 54.828125 13.0625 64.515625 
Q 19.53125 74.21875 31.78125 74.21875 
z
" id="DejaVuSans-30"/>
      </defs>
      <g transform="translate(119.563636 741.396875)scale(0.2 -0.2)">
       <use xlink:href="#DejaVuSans-30"/>
      </g>
     </g>
    </g>
    <g id="xtick_2">
     <g id="line2d_2">
      <g>
       <use style="stroke:#000000;stroke-width:0.8;" x="315.254364" xlink:href="#m5afd6a93c4" y="719.2"/>
      </g>
     </g>
     <g id="text_2">
      <!-- 200 -->
      <defs>
       <path d="M 19.1875 8.296875 
L 53.609375 8.296875 
L 53.609375 0 
L 7.328125 0 
L 7.328125 8.296875 
Q 12.9375 14.109375 22.625 23.890625 
Q 32.328125 33.6875 34.8125 36.53125 
Q 39.546875 41.84375 41.421875 45.53125 
Q 43.3125 49.21875 43.3125 52.78125 
Q 43.3125 58.59375 39.234375 62.25 
Q 35.15625 65.921875 28.609375 65.921875 
Q 23.96875 65.921875 18.8125 64.3125 
Q 13.671875 62.703125 7.8125 59.421875 
L 7.8125 69.390625 
Q 13.765625 71.78125 18.9375 73 
Q 24.125 74.21875 28.421875 74.21875 
Q 39.75 74.21875 46.484375 68.546875 
Q 53.21875 62.890625 53.21875 53.421875 
Q 53.21875 48.921875 51.53125 44.890625 
Q 49.859375 40.875 45.40625 35.40625 
Q 44.1875 33.984375 37.640625 27.21875 
Q 31.109375 20.453125 19.1875 8.296875 
z
" id="DejaVuSans-32"/>
      </defs>
      <g transform="translate(296.166864 741.396875)scale(0.2 -0.2)">
       <use xlink:href="#DejaVuSans-32"/>
       <use x="63.623047" xlink:href="#DejaVuSans-30"/>
       <use x="127.246094" xlink:href="#DejaVuSans-30"/>
      </g>
     </g>
    </g>
    <g id="xtick_3">
     <g id="line2d_3">
      <g>
       <use style="stroke:#000000;stroke-width:0.8;" x="504.582593" xlink:href="#m5afd6a93c4" y="719.2"/>
      </g>
     </g>
     <g id="text_3">
      <!-- 400 -->
      <defs>
       <path d="M 37.796875 64.3125 
L 12.890625 25.390625 
L 37.796875 25.390625 
z
M 35.203125 72.90625 
L 47.609375 72.90625 
L 47.609375 25.390625 
L 58.015625 25.390625 
L 58.015625 17.1875 
L 47.609375 17.1875 
L 47.609375 0 
L 37.796875 0 
L 37.796875 17.1875 
L 4.890625 17.1875 
L 4.890625 26.703125 
z
" id="DejaVuSans-34"/>
      </defs>
      <g transform="translate(485.495093 741.396875)scale(0.2 -0.2)">
       <use xlink:href="#DejaVuSans-34"/>
       <use x="63.623047" xlink:href="#DejaVuSans-30"/>
       <use x="127.246094" xlink:href="#DejaVuSans-30"/>
      </g>
     </g>
    </g>
    <g id="xtick_4">
     <g id="line2d_4">
      <g>
       <use style="stroke:#000000;stroke-width:0.8;" x="693.910821" xlink:href="#m5afd6a93c4" y="719.2"/>
      </g>
     </g>
     <g id="text_4">
      <!-- 600 -->
      <defs>
       <path d="M 33.015625 40.375 
Q 26.375 40.375 22.484375 35.828125 
Q 18.609375 31.296875 18.609375 23.390625 
Q 18.609375 15.53125 22.484375 10.953125 
Q 26.375 6.390625 33.015625 6.390625 
Q 39.65625 6.390625 43.53125 10.953125 
Q 47.40625 15.53125 47.40625 23.390625 
Q 47.40625 31.296875 43.53125 35.828125 
Q 39.65625 40.375 33.015625 40.375 
z
M 52.59375 71.296875 
L 52.59375 62.3125 
Q 48.875 64.0625 45.09375 64.984375 
Q 41.3125 65.921875 37.59375 65.921875 
Q 27.828125 65.921875 22.671875 59.328125 
Q 17.53125 52.734375 16.796875 39.40625 
Q 19.671875 43.65625 24.015625 45.921875 
Q 28.375 48.1875 33.59375 48.1875 
Q 44.578125 48.1875 50.953125 41.515625 
Q 57.328125 34.859375 57.328125 23.390625 
Q 57.328125 12.15625 50.6875 5.359375 
Q 44.046875 -1.421875 33.015625 -1.421875 
Q 20.359375 -1.421875 13.671875 8.265625 
Q 6.984375 17.96875 6.984375 36.375 
Q 6.984375 53.65625 15.1875 63.9375 
Q 23.390625 74.21875 37.203125 74.21875 
Q 40.921875 74.21875 44.703125 73.484375 
Q 48.484375 72.75 52.59375 71.296875 
z
" id="DejaVuSans-36"/>
      </defs>
      <g transform="translate(674.823321 741.396875)scale(0.2 -0.2)">
       <use xlink:href="#DejaVuSans-36"/>
       <use x="63.623047" xlink:href="#DejaVuSans-30"/>
       <use x="127.246094" xlink:href="#DejaVuSans-30"/>
      </g>
     </g>
    </g>
    <g id="xtick_5">
     <g id="line2d_5">
      <g>
       <use style="stroke:#000000;stroke-width:0.8;" x="883.239049" xlink:href="#m5afd6a93c4" y="719.2"/>
      </g>
     </g>
     <g id="text_5">
      <!-- 800 -->
      <defs>
       <path d="M 31.78125 34.625 
Q 24.75 34.625 20.71875 30.859375 
Q 16.703125 27.09375 16.703125 20.515625 
Q 16.703125 13.921875 20.71875 10.15625 
Q 24.75 6.390625 31.78125 6.390625 
Q 38.8125 6.390625 42.859375 10.171875 
Q 46.921875 13.96875 46.921875 20.515625 
Q 46.921875 27.09375 42.890625 30.859375 
Q 38.875 34.625 31.78125 34.625 
z
M 21.921875 38.8125 
Q 15.578125 40.375 12.03125 44.71875 
Q 8.5 49.078125 8.5 55.328125 
Q 8.5 64.0625 14.71875 69.140625 
Q 20.953125 74.21875 31.78125 74.21875 
Q 42.671875 74.21875 48.875 69.140625 
Q 55.078125 64.0625 55.078125 55.328125 
Q 55.078125 49.078125 51.53125 44.71875 
Q 48 40.375 41.703125 38.8125 
Q 48.828125 37.15625 52.796875 32.3125 
Q 56.78125 27.484375 56.78125 20.515625 
Q 56.78125 9.90625 50.3125 4.234375 
Q 43.84375 -1.421875 31.78125 -1.421875 
Q 19.734375 -1.421875 13.25 4.234375 
Q 6.78125 9.90625 6.78125 20.515625 
Q 6.78125 27.484375 10.78125 32.3125 
Q 14.796875 37.15625 21.921875 38.8125 
z
M 18.3125 54.390625 
Q 18.3125 48.734375 21.84375 45.5625 
Q 25.390625 42.390625 31.78125 42.390625 
Q 38.140625 42.390625 41.71875 45.5625 
Q 45.3125 48.734375 45.3125 54.390625 
Q 45.3125 60.0625 41.71875 63.234375 
Q 38.140625 66.40625 31.78125 66.40625 
Q 25.390625 66.40625 21.84375 63.234375 
Q 18.3125 60.0625 18.3125 54.390625 
z
" id="DejaVuSans-38"/>
      </defs>
      <g transform="translate(864.151549 741.396875)scale(0.2 -0.2)">
       <use xlink:href="#DejaVuSans-38"/>
       <use x="63.623047" xlink:href="#DejaVuSans-30"/>
       <use x="127.246094" xlink:href="#DejaVuSans-30"/>
      </g>
     </g>
    </g>
    <g id="xtick_6">
     <g id="line2d_6">
      <g>
       <use style="stroke:#000000;stroke-width:0.8;" x="1072.567277" xlink:href="#m5afd6a93c4" y="719.2"/>
      </g>
     </g>
     <g id="text_6">
      <!-- 1000 -->
      <defs>
       <path d="M 12.40625 8.296875 
L 28.515625 8.296875 
L 28.515625 63.921875 
L 10.984375 60.40625 
L 10.984375 69.390625 
L 28.421875 72.90625 
L 38.28125 72.90625 
L 38.28125 8.296875 
L 54.390625 8.296875 
L 54.390625 0 
L 12.40625 0 
z
" id="DejaVuSans-31"/>
      </defs>
      <g transform="translate(1047.117277 741.396875)scale(0.2 -0.2)">
       <use xlink:href="#DejaVuSans-31"/>
       <use x="63.623047" xlink:href="#DejaVuSans-30"/>
       <use x="127.246094" xlink:href="#DejaVuSans-30"/>
       <use x="190.869141" xlink:href="#DejaVuSans-30"/>
      </g>
     </g>
    </g>
    <g id="xtick_7">
     <g id="line2d_7">
      <g>
       <use style="stroke:#000000;stroke-width:0.8;" x="1261.895505" xlink:href="#m5afd6a93c4" y="719.2"/>
      </g>
     </g>
     <g id="text_7">
      <!-- 1200 -->
      <g transform="translate(1236.445505 741.396875)scale(0.2 -0.2)">
       <use xlink:href="#DejaVuSans-31"/>
       <use x="63.623047" xlink:href="#DejaVuSans-32"/>
       <use x="127.246094" xlink:href="#DejaVuSans-30"/>
       <use x="190.869141" xlink:href="#DejaVuSans-30"/>
      </g>
     </g>
    </g>
    <g id="text_8">
     <!-- 15-Minute Steps -->
     <defs>
      <path d="M 10.796875 72.90625 
L 49.515625 72.90625 
L 49.515625 64.59375 
L 19.828125 64.59375 
L 19.828125 46.734375 
Q 21.96875 47.46875 24.109375 47.828125 
Q 26.265625 48.1875 28.421875 48.1875 
Q 40.625 48.1875 47.75 41.5 
Q 54.890625 34.8125 54.890625 23.390625 
Q 54.890625 11.625 47.5625 5.09375 
Q 40.234375 -1.421875 26.90625 -1.421875 
Q 22.3125 -1.421875 17.546875 -0.640625 
Q 12.796875 0.140625 7.71875 1.703125 
L 7.71875 11.625 
Q 12.109375 9.234375 16.796875 8.0625 
Q 21.484375 6.890625 26.703125 6.890625 
Q 35.15625 6.890625 40.078125 11.328125 
Q 45.015625 15.765625 45.015625 23.390625 
Q 45.015625 31 40.078125 35.4375 
Q 35.15625 39.890625 26.703125 39.890625 
Q 22.75 39.890625 18.8125 39.015625 
Q 14.890625 38.140625 10.796875 36.28125 
z
" id="DejaVuSans-35"/>
      <path d="M 4.890625 31.390625 
L 31.203125 31.390625 
L 31.203125 23.390625 
L 4.890625 23.390625 
z
" id="DejaVuSans-2d"/>
      <path d="M 9.8125 72.90625 
L 24.515625 72.90625 
L 43.109375 23.296875 
L 61.8125 72.90625 
L 76.515625 72.90625 
L 76.515625 0 
L 66.890625 0 
L 66.890625 64.015625 
L 48.09375 14.015625 
L 38.1875 14.015625 
L 19.390625 64.015625 
L 19.390625 0 
L 9.8125 0 
z
" id="DejaVuSans-4d"/>
      <path d="M 9.421875 54.6875 
L 18.40625 54.6875 
L 18.40625 0 
L 9.421875 0 
z
M 9.421875 75.984375 
L 18.40625 75.984375 
L 18.40625 64.59375 
L 9.421875 64.59375 
z
" id="DejaVuSans-69"/>
      <path d="M 54.890625 33.015625 
L 54.890625 0 
L 45.90625 0 
L 45.90625 32.71875 
Q 45.90625 40.484375 42.875 44.328125 
Q 39.84375 48.1875 33.796875 48.1875 
Q 26.515625 48.1875 22.3125 43.546875 
Q 18.109375 38.921875 18.109375 30.90625 
L 18.109375 0 
L 9.078125 0 
L 9.078125 54.6875 
L 18.109375 54.6875 
L 18.109375 46.1875 
Q 21.34375 51.125 25.703125 53.5625 
Q 30.078125 56 35.796875 56 
Q 45.21875 56 50.046875 50.171875 
Q 54.890625 44.34375 54.890625 33.015625 
z
" id="DejaVuSans-6e"/>
      <path d="M 8.5 21.578125 
L 8.5 54.6875 
L 17.484375 54.6875 
L 17.484375 21.921875 
Q 17.484375 14.15625 20.5 10.265625 
Q 23.53125 6.390625 29.59375 6.390625 
Q 36.859375 6.390625 41.078125 11.03125 
Q 45.3125 15.671875 45.3125 23.6875 
L 45.3125 54.6875 
L 54.296875 54.6875 
L 54.296875 0 
L 45.3125 0 
L 45.3125 8.40625 
Q 42.046875 3.421875 37.71875 1 
Q 33.40625 -1.421875 27.6875 -1.421875 
Q 18.265625 -1.421875 13.375 4.4375 
Q 8.5 10.296875 8.5 21.578125 
z
M 31.109375 56 
z
" id="DejaVuSans-75"/>
      <path d="M 18.3125 70.21875 
L 18.3125 54.6875 
L 36.8125 54.6875 
L 36.8125 47.703125 
L 18.3125 47.703125 
L 18.3125 18.015625 
Q 18.3125 11.328125 20.140625 9.421875 
Q 21.96875 7.515625 27.59375 7.515625 
L 36.8125 7.515625 
L 36.8125 0 
L 27.59375 0 
Q 17.1875 0 13.234375 3.875 
Q 9.28125 7.765625 9.28125 18.015625 
L 9.28125 47.703125 
L 2.6875 47.703125 
L 2.6875 54.6875 
L 9.28125 54.6875 
L 9.28125 70.21875 
z
" id="DejaVuSans-74"/>
      <path d="M 56.203125 29.59375 
L 56.203125 25.203125 
L 14.890625 25.203125 
Q 15.484375 15.921875 20.484375 11.0625 
Q 25.484375 6.203125 34.421875 6.203125 
Q 39.59375 6.203125 44.453125 7.46875 
Q 49.3125 8.734375 54.109375 11.28125 
L 54.109375 2.78125 
Q 49.265625 0.734375 44.1875 -0.34375 
Q 39.109375 -1.421875 33.890625 -1.421875 
Q 20.796875 -1.421875 13.15625 6.1875 
Q 5.515625 13.8125 5.515625 26.8125 
Q 5.515625 40.234375 12.765625 48.109375 
Q 20.015625 56 32.328125 56 
Q 43.359375 56 49.78125 48.890625 
Q 56.203125 41.796875 56.203125 29.59375 
z
M 47.21875 32.234375 
Q 47.125 39.59375 43.09375 43.984375 
Q 39.0625 48.390625 32.421875 48.390625 
Q 24.90625 48.390625 20.390625 44.140625 
Q 15.875 39.890625 15.1875 32.171875 
z
" id="DejaVuSans-65"/>
      <path id="DejaVuSans-20"/>
      <path d="M 53.515625 70.515625 
L 53.515625 60.890625 
Q 47.90625 63.578125 42.921875 64.890625 
Q 37.9375 66.21875 33.296875 66.21875 
Q 25.25 66.21875 20.875 63.09375 
Q 16.5 59.96875 16.5 54.203125 
Q 16.5 49.359375 19.40625 46.890625 
Q 22.3125 44.4375 30.421875 42.921875 
L 36.375 41.703125 
Q 47.40625 39.59375 52.65625 34.296875 
Q 57.90625 29 57.90625 20.125 
Q 57.90625 9.515625 50.796875 4.046875 
Q 43.703125 -1.421875 29.984375 -1.421875 
Q 24.8125 -1.421875 18.96875 -0.25 
Q 13.140625 0.921875 6.890625 3.21875 
L 6.890625 13.375 
Q 12.890625 10.015625 18.65625 8.296875 
Q 24.421875 6.59375 29.984375 6.59375 
Q 38.421875 6.59375 43.015625 9.90625 
Q 47.609375 13.234375 47.609375 19.390625 
Q 47.609375 24.75 44.3125 27.78125 
Q 41.015625 30.8125 33.5 32.328125 
L 27.484375 33.5 
Q 16.453125 35.6875 11.515625 40.375 
Q 6.59375 45.0625 6.59375 53.421875 
Q 6.59375 63.09375 13.40625 68.65625 
Q 20.21875 74.21875 32.171875 74.21875 
Q 37.3125 74.21875 42.625 73.28125 
Q 47.953125 72.359375 53.515625 70.515625 
z
" id="DejaVuSans-53"/>
      <path d="M 18.109375 8.203125 
L 18.109375 -20.796875 
L 9.078125 -20.796875 
L 9.078125 54.6875 
L 18.109375 54.6875 
L 18.109375 46.390625 
Q 20.953125 51.265625 25.265625 53.625 
Q 29.59375 56 35.59375 56 
Q 45.5625 56 51.78125 48.09375 
Q 58.015625 40.1875 58.015625 27.296875 
Q 58.015625 14.40625 51.78125 6.484375 
Q 45.5625 -1.421875 35.59375 -1.421875 
Q 29.59375 -1.421875 25.265625 0.953125 
Q 20.953125 3.328125 18.109375 8.203125 
z
M 48.6875 27.296875 
Q 48.6875 37.203125 44.609375 42.84375 
Q 40.53125 48.484375 33.40625 48.484375 
Q 26.265625 48.484375 22.1875 42.84375 
Q 18.109375 37.203125 18.109375 27.296875 
Q 18.109375 17.390625 22.1875 11.75 
Q 26.265625 6.109375 33.40625 6.109375 
Q 40.53125 6.109375 44.609375 11.75 
Q 48.6875 17.390625 48.6875 27.296875 
z
" id="DejaVuSans-70"/>
      <path d="M 44.28125 53.078125 
L 44.28125 44.578125 
Q 40.484375 46.53125 36.375 47.5 
Q 32.28125 48.484375 27.875 48.484375 
Q 21.1875 48.484375 17.84375 46.4375 
Q 14.5 44.390625 14.5 40.28125 
Q 14.5 37.15625 16.890625 35.375 
Q 19.28125 33.59375 26.515625 31.984375 
L 29.59375 31.296875 
Q 39.15625 29.25 43.1875 25.515625 
Q 47.21875 21.78125 47.21875 15.09375 
Q 47.21875 7.46875 41.1875 3.015625 
Q 35.15625 -1.421875 24.609375 -1.421875 
Q 20.21875 -1.421875 15.453125 -0.5625 
Q 10.6875 0.296875 5.421875 2 
L 5.421875 11.28125 
Q 10.40625 8.6875 15.234375 7.390625 
Q 20.0625 6.109375 24.8125 6.109375 
Q 31.15625 6.109375 34.5625 8.28125 
Q 37.984375 10.453125 37.984375 14.40625 
Q 37.984375 18.0625 35.515625 20.015625 
Q 33.0625 21.96875 24.703125 23.78125 
L 21.578125 24.515625 
Q 13.234375 26.265625 9.515625 29.90625 
Q 5.8125 33.546875 5.8125 39.890625 
Q 5.8125 47.609375 11.28125 51.796875 
Q 16.75 56 26.8125 56 
Q 31.78125 56 36.171875 55.265625 
Q 40.578125 54.546875 44.28125 53.078125 
z
" id="DejaVuSans-73"/>
     </defs>
     <g transform="translate(611.792187 764.753125)scale(0.2 -0.2)">
      <use xlink:href="#DejaVuSans-31"/>
      <use x="63.623047" xlink:href="#DejaVuSans-35"/>
      <use x="127.246094" xlink:href="#DejaVuSans-2d"/>
      <use x="163.330078" xlink:href="#DejaVuSans-4d"/>
      <use x="249.609375" xlink:href="#DejaVuSans-69"/>
      <use x="277.392578" xlink:href="#DejaVuSans-6e"/>
      <use x="340.771484" xlink:href="#DejaVuSans-75"/>
      <use x="404.150391" xlink:href="#DejaVuSans-74"/>
      <use x="443.359375" xlink:href="#DejaVuSans-65"/>
      <use x="504.882812" xlink:href="#DejaVuSans-20"/>
      <use x="536.669922" xlink:href="#DejaVuSans-53"/>
      <use x="600.146484" xlink:href="#DejaVuSans-74"/>
      <use x="639.355469" xlink:href="#DejaVuSans-65"/>
      <use x="700.878906" xlink:href="#DejaVuSans-70"/>
      <use x="764.355469" xlink:href="#DejaVuSans-73"/>
     </g>
    </g>
   </g>
   <g id="matplotlib.axis_2">
    <g id="ytick_1">
     <g id="line2d_8">
      <defs>
       <path d="M 0 0 
L -3.5 0 
" id="m7e9aa3894e" style="stroke:#000000;stroke-width:0.8;"/>
      </defs>
      <g>
       <use style="stroke:#000000;stroke-width:0.8;" x="69.175" xlink:href="#m7e9aa3894e" y="692.769779"/>
      </g>
     </g>
     <g id="text_9">
      <!-- 0 -->
      <g transform="translate(49.45 700.368217)scale(0.2 -0.2)">
       <use xlink:href="#DejaVuSans-30"/>
      </g>
     </g>
    </g>
    <g id="ytick_2">
     <g id="line2d_9">
      <g>
       <use style="stroke:#000000;stroke-width:0.8;" x="69.175" xlink:href="#m7e9aa3894e" y="613.122734"/>
      </g>
     </g>
     <g id="text_10">
      <!-- 1000 -->
      <g transform="translate(11.275 620.721172)scale(0.2 -0.2)">
       <use xlink:href="#DejaVuSans-31"/>
       <use x="63.623047" xlink:href="#DejaVuSans-30"/>
       <use x="127.246094" xlink:href="#DejaVuSans-30"/>
       <use x="190.869141" xlink:href="#DejaVuSans-30"/>
      </g>
     </g>
    </g>
    <g id="ytick_3">
     <g id="line2d_10">
      <g>
       <use style="stroke:#000000;stroke-width:0.8;" x="69.175" xlink:href="#m7e9aa3894e" y="533.475689"/>
      </g>
     </g>
     <g id="text_11">
      <!-- 2000 -->
      <g transform="translate(11.275 541.074127)scale(0.2 -0.2)">
       <use xlink:href="#DejaVuSans-32"/>
       <use x="63.623047" xlink:href="#DejaVuSans-30"/>
       <use x="127.246094" xlink:href="#DejaVuSans-30"/>
       <use x="190.869141" xlink:href="#DejaVuSans-30"/>
      </g>
     </g>
    </g>
    <g id="ytick_4">
     <g id="line2d_11">
      <g>
       <use style="stroke:#000000;stroke-width:0.8;" x="69.175" xlink:href="#m7e9aa3894e" y="453.828644"/>
      </g>
     </g>
     <g id="text_12">
      <!-- 3000 -->
      <defs>
       <path d="M 40.578125 39.3125 
Q 47.65625 37.796875 51.625 33 
Q 55.609375 28.21875 55.609375 21.1875 
Q 55.609375 10.40625 48.1875 4.484375 
Q 40.765625 -1.421875 27.09375 -1.421875 
Q 22.515625 -1.421875 17.65625 -0.515625 
Q 12.796875 0.390625 7.625 2.203125 
L 7.625 11.71875 
Q 11.71875 9.328125 16.59375 8.109375 
Q 21.484375 6.890625 26.8125 6.890625 
Q 36.078125 6.890625 40.9375 10.546875 
Q 45.796875 14.203125 45.796875 21.1875 
Q 45.796875 27.640625 41.28125 31.265625 
Q 36.765625 34.90625 28.71875 34.90625 
L 20.21875 34.90625 
L 20.21875 43.015625 
L 29.109375 43.015625 
Q 36.375 43.015625 40.234375 45.921875 
Q 44.09375 48.828125 44.09375 54.296875 
Q 44.09375 59.90625 40.109375 62.90625 
Q 36.140625 65.921875 28.71875 65.921875 
Q 24.65625 65.921875 20.015625 65.03125 
Q 15.375 64.15625 9.8125 62.3125 
L 9.8125 71.09375 
Q 15.4375 72.65625 20.34375 73.4375 
Q 25.25 74.21875 29.59375 74.21875 
Q 40.828125 74.21875 47.359375 69.109375 
Q 53.90625 64.015625 53.90625 55.328125 
Q 53.90625 49.265625 50.4375 45.09375 
Q 46.96875 40.921875 40.578125 39.3125 
z
" id="DejaVuSans-33"/>
      </defs>
      <g transform="translate(11.275 461.427082)scale(0.2 -0.2)">
       <use xlink:href="#DejaVuSans-33"/>
       <use x="63.623047" xlink:href="#DejaVuSans-30"/>
       <use x="127.246094" xlink:href="#DejaVuSans-30"/>
       <use x="190.869141" xlink:href="#DejaVuSans-30"/>
      </g>
     </g>
    </g>
    <g id="ytick_5">
     <g id="line2d_12">
      <g>
       <use style="stroke:#000000;stroke-width:0.8;" x="69.175" xlink:href="#m7e9aa3894e" y="374.181599"/>
      </g>
     </g>
     <g id="text_13">
      <!-- 4000 -->
      <g transform="translate(11.275 381.780036)scale(0.2 -0.2)">
       <use xlink:href="#DejaVuSans-34"/>
       <use x="63.623047" xlink:href="#DejaVuSans-30"/>
       <use x="127.246094" xlink:href="#DejaVuSans-30"/>
       <use x="190.869141" xlink:href="#DejaVuSans-30"/>
      </g>
     </g>
    </g>
    <g id="ytick_6">
     <g id="line2d_13">
      <g>
       <use style="stroke:#000000;stroke-width:0.8;" x="69.175" xlink:href="#m7e9aa3894e" y="294.534554"/>
      </g>
     </g>
     <g id="text_14">
      <!-- 5000 -->
      <g transform="translate(11.275 302.132991)scale(0.2 -0.2)">
       <use xlink:href="#DejaVuSans-35"/>
       <use x="63.623047" xlink:href="#DejaVuSans-30"/>
       <use x="127.246094" xlink:href="#DejaVuSans-30"/>
       <use x="190.869141" xlink:href="#DejaVuSans-30"/>
      </g>
     </g>
    </g>
    <g id="ytick_7">
     <g id="line2d_14">
      <g>
       <use style="stroke:#000000;stroke-width:0.8;" x="69.175" xlink:href="#m7e9aa3894e" y="214.887509"/>
      </g>
     </g>
     <g id="text_15">
      <!-- 6000 -->
      <g transform="translate(11.275 222.485946)scale(0.2 -0.2)">
       <use xlink:href="#DejaVuSans-36"/>
       <use x="63.623047" xlink:href="#DejaVuSans-30"/>
       <use x="127.246094" xlink:href="#DejaVuSans-30"/>
       <use x="190.869141" xlink:href="#DejaVuSans-30"/>
      </g>
     </g>
    </g>
    <g id="ytick_8">
     <g id="line2d_15">
      <g>
       <use style="stroke:#000000;stroke-width:0.8;" x="69.175" xlink:href="#m7e9aa3894e" y="135.240464"/>
      </g>
     </g>
     <g id="text_16">
      <!-- 7000 -->
      <defs>
       <path d="M 8.203125 72.90625 
L 55.078125 72.90625 
L 55.078125 68.703125 
L 28.609375 0 
L 18.3125 0 
L 43.21875 64.59375 
L 8.203125 64.59375 
z
" id="DejaVuSans-37"/>
      </defs>
      <g transform="translate(11.275 142.838901)scale(0.2 -0.2)">
       <use xlink:href="#DejaVuSans-37"/>
       <use x="63.623047" xlink:href="#DejaVuSans-30"/>
       <use x="127.246094" xlink:href="#DejaVuSans-30"/>
       <use x="190.869141" xlink:href="#DejaVuSans-30"/>
      </g>
     </g>
    </g>
    <g id="ytick_9">
     <g id="line2d_16">
      <g>
       <use style="stroke:#000000;stroke-width:0.8;" x="69.175" xlink:href="#m7e9aa3894e" y="55.593419"/>
      </g>
     </g>
     <g id="text_17">
      <!-- 8000 -->
      <g transform="translate(11.275 63.191856)scale(0.2 -0.2)">
       <use xlink:href="#DejaVuSans-38"/>
       <use x="63.623047" xlink:href="#DejaVuSans-30"/>
       <use x="127.246094" xlink:href="#DejaVuSans-30"/>
       <use x="190.869141" xlink:href="#DejaVuSans-30"/>
      </g>
     </g>
    </g>
    <g id="text_18">
     <!-- Bandwidth (kbps) -->
     <defs>
      <path d="M 19.671875 34.8125 
L 19.671875 8.109375 
L 35.5 8.109375 
Q 43.453125 8.109375 47.28125 11.40625 
Q 51.125 14.703125 51.125 21.484375 
Q 51.125 28.328125 47.28125 31.5625 
Q 43.453125 34.8125 35.5 34.8125 
z
M 19.671875 64.796875 
L 19.671875 42.828125 
L 34.28125 42.828125 
Q 41.5 42.828125 45.03125 45.53125 
Q 48.578125 48.25 48.578125 53.8125 
Q 48.578125 59.328125 45.03125 62.0625 
Q 41.5 64.796875 34.28125 64.796875 
z
M 9.8125 72.90625 
L 35.015625 72.90625 
Q 46.296875 72.90625 52.390625 68.21875 
Q 58.5 63.53125 58.5 54.890625 
Q 58.5 48.1875 55.375 44.234375 
Q 52.25 40.28125 46.1875 39.3125 
Q 53.46875 37.75 57.5 32.78125 
Q 61.53125 27.828125 61.53125 20.40625 
Q 61.53125 10.640625 54.890625 5.3125 
Q 48.25 0 35.984375 0 
L 9.8125 0 
z
" id="DejaVuSans-42"/>
      <path d="M 34.28125 27.484375 
Q 23.390625 27.484375 19.1875 25 
Q 14.984375 22.515625 14.984375 16.5 
Q 14.984375 11.71875 18.140625 8.90625 
Q 21.296875 6.109375 26.703125 6.109375 
Q 34.1875 6.109375 38.703125 11.40625 
Q 43.21875 16.703125 43.21875 25.484375 
L 43.21875 27.484375 
z
M 52.203125 31.203125 
L 52.203125 0 
L 43.21875 0 
L 43.21875 8.296875 
Q 40.140625 3.328125 35.546875 0.953125 
Q 30.953125 -1.421875 24.3125 -1.421875 
Q 15.921875 -1.421875 10.953125 3.296875 
Q 6 8.015625 6 15.921875 
Q 6 25.140625 12.171875 29.828125 
Q 18.359375 34.515625 30.609375 34.515625 
L 43.21875 34.515625 
L 43.21875 35.40625 
Q 43.21875 41.609375 39.140625 45 
Q 35.0625 48.390625 27.6875 48.390625 
Q 23 48.390625 18.546875 47.265625 
Q 14.109375 46.140625 10.015625 43.890625 
L 10.015625 52.203125 
Q 14.9375 54.109375 19.578125 55.046875 
Q 24.21875 56 28.609375 56 
Q 40.484375 56 46.34375 49.84375 
Q 52.203125 43.703125 52.203125 31.203125 
z
" id="DejaVuSans-61"/>
      <path d="M 45.40625 46.390625 
L 45.40625 75.984375 
L 54.390625 75.984375 
L 54.390625 0 
L 45.40625 0 
L 45.40625 8.203125 
Q 42.578125 3.328125 38.25 0.953125 
Q 33.9375 -1.421875 27.875 -1.421875 
Q 17.96875 -1.421875 11.734375 6.484375 
Q 5.515625 14.40625 5.515625 27.296875 
Q 5.515625 40.1875 11.734375 48.09375 
Q 17.96875 56 27.875 56 
Q 33.9375 56 38.25 53.625 
Q 42.578125 51.265625 45.40625 46.390625 
z
M 14.796875 27.296875 
Q 14.796875 17.390625 18.875 11.75 
Q 22.953125 6.109375 30.078125 6.109375 
Q 37.203125 6.109375 41.296875 11.75 
Q 45.40625 17.390625 45.40625 27.296875 
Q 45.40625 37.203125 41.296875 42.84375 
Q 37.203125 48.484375 30.078125 48.484375 
Q 22.953125 48.484375 18.875 42.84375 
Q 14.796875 37.203125 14.796875 27.296875 
z
" id="DejaVuSans-64"/>
      <path d="M 4.203125 54.6875 
L 13.1875 54.6875 
L 24.421875 12.015625 
L 35.59375 54.6875 
L 46.1875 54.6875 
L 57.421875 12.015625 
L 68.609375 54.6875 
L 77.59375 54.6875 
L 63.28125 0 
L 52.6875 0 
L 40.921875 44.828125 
L 29.109375 0 
L 18.5 0 
z
" id="DejaVuSans-77"/>
      <path d="M 54.890625 33.015625 
L 54.890625 0 
L 45.90625 0 
L 45.90625 32.71875 
Q 45.90625 40.484375 42.875 44.328125 
Q 39.84375 48.1875 33.796875 48.1875 
Q 26.515625 48.1875 22.3125 43.546875 
Q 18.109375 38.921875 18.109375 30.90625 
L 18.109375 0 
L 9.078125 0 
L 9.078125 75.984375 
L 18.109375 75.984375 
L 18.109375 46.1875 
Q 21.34375 51.125 25.703125 53.5625 
Q 30.078125 56 35.796875 56 
Q 45.21875 56 50.046875 50.171875 
Q 54.890625 44.34375 54.890625 33.015625 
z
" id="DejaVuSans-68"/>
      <path d="M 31 75.875 
Q 24.46875 64.65625 21.28125 53.65625 
Q 18.109375 42.671875 18.109375 31.390625 
Q 18.109375 20.125 21.3125 9.0625 
Q 24.515625 -2 31 -13.1875 
L 23.1875 -13.1875 
Q 15.875 -1.703125 12.234375 9.375 
Q 8.59375 20.453125 8.59375 31.390625 
Q 8.59375 42.28125 12.203125 53.3125 
Q 15.828125 64.359375 23.1875 75.875 
z
" id="DejaVuSans-28"/>
      <path d="M 9.078125 75.984375 
L 18.109375 75.984375 
L 18.109375 31.109375 
L 44.921875 54.6875 
L 56.390625 54.6875 
L 27.390625 29.109375 
L 57.625 0 
L 45.90625 0 
L 18.109375 26.703125 
L 18.109375 0 
L 9.078125 0 
z
" id="DejaVuSans-6b"/>
      <path d="M 48.6875 27.296875 
Q 48.6875 37.203125 44.609375 42.84375 
Q 40.53125 48.484375 33.40625 48.484375 
Q 26.265625 48.484375 22.1875 42.84375 
Q 18.109375 37.203125 18.109375 27.296875 
Q 18.109375 17.390625 22.1875 11.75 
Q 26.265625 6.109375 33.40625 6.109375 
Q 40.53125 6.109375 44.609375 11.75 
Q 48.6875 17.390625 48.6875 27.296875 
z
M 18.109375 46.390625 
Q 20.953125 51.265625 25.265625 53.625 
Q 29.59375 56 35.59375 56 
Q 45.5625 56 51.78125 48.09375 
Q 58.015625 40.1875 58.015625 27.296875 
Q 58.015625 14.40625 51.78125 6.484375 
Q 45.5625 -1.421875 35.59375 -1.421875 
Q 29.59375 -1.421875 25.265625 0.953125 
Q 20.953125 3.328125 18.109375 8.203125 
L 18.109375 0 
L 9.078125 0 
L 9.078125 75.984375 
L 18.109375 75.984375 
z
" id="DejaVuSans-62"/>
      <path d="M 8.015625 75.875 
L 15.828125 75.875 
Q 23.140625 64.359375 26.78125 53.3125 
Q 30.421875 42.28125 30.421875 31.390625 
Q 30.421875 20.453125 26.78125 9.375 
Q 23.140625 -1.703125 15.828125 -13.1875 
L 8.015625 -13.1875 
Q 14.5 -2 17.703125 9.0625 
Q 20.90625 20.125 20.90625 31.390625 
Q 20.90625 42.671875 17.703125 53.65625 
Q 14.5 64.65625 8.015625 75.875 
z
" id="DejaVuSans-29"/>
     </defs>
     <g transform="translate(3.115625 454.665625)rotate(-90)scale(0.2 -0.2)">
      <use xlink:href="#DejaVuSans-42"/>
      <use x="68.603516" xlink:href="#DejaVuSans-61"/>
      <use x="129.882812" xlink:href="#DejaVuSans-6e"/>
      <use x="193.261719" xlink:href="#DejaVuSans-64"/>
      <use x="256.738281" xlink:href="#DejaVuSans-77"/>
      <use x="338.525391" xlink:href="#DejaVuSans-69"/>
      <use x="366.308594" xlink:href="#DejaVuSans-64"/>
      <use x="429.785156" xlink:href="#DejaVuSans-74"/>
      <use x="468.994141" xlink:href="#DejaVuSans-68"/>
      <use x="532.373047" xlink:href="#DejaVuSans-20"/>
      <use x="564.160156" xlink:href="#DejaVuSans-28"/>
      <use x="603.173828" xlink:href="#DejaVuSans-6b"/>
      <use x="661.083984" xlink:href="#DejaVuSans-62"/>
      <use x="724.560547" xlink:href="#DejaVuSans-70"/>
      <use x="788.037109" xlink:href="#DejaVuSans-73"/>
      <use x="840.136719" xlink:href="#DejaVuSans-29"/>
     </g>
    </g>
   </g>
   <g id="line2d_17">
    <path clip-path="url(#pb6e9673954)" d="M 125.926136 662.669568 
L 126.872778 644.644558 
L 127.819419 639.412631 
L 128.76606 655.402922 
L 129.712701 655.743461 
L 130.659342 655.338503 
L 131.605983 668.16061 
L 132.552624 670.214445 
L 133.499265 656.012493 
L 134.445907 672.381553 
L 135.392548 665.289072 
L 136.339189 654.488932 
L 137.28583 648.934172 
L 138.232471 661.309547 
L 139.179112 665.451902 
L 140.125753 670.717105 
L 141.072395 660.623523 
L 142.019036 668.579028 
L 142.965677 664.21437 
L 143.912318 654.899553 
L 144.858959 658.796953 
L 145.8056 665.189951 
L 146.752241 664.784285 
L 147.698883 655.274077 
L 148.645524 674.033258 
L 149.592165 676.596825 
L 150.538806 677.42091 
L 152.432088 661.884423 
L 153.378729 674.471492 
L 154.325371 674.371662 
L 155.272012 679.34801 
L 156.218653 681.857075 
L 157.165294 676.613113 
L 158.111935 679.034383 
L 159.058576 676.436823 
L 160.005217 681.935655 
L 160.951859 677.602146 
L 161.8985 674.82123 
L 162.845141 680.299529 
L 163.791782 681.239723 
L 164.738423 679.473326 
L 165.685064 659.954488 
L 166.631705 674.932377 
L 168.524988 646.158202 
L 169.471629 641.807705 
L 170.41827 645.29306 
L 171.364911 675.437164 
L 172.311552 629.007541 
L 173.258193 634.60903 
L 174.204835 642.893031 
L 175.151476 656.345943 
L 176.098117 573.837976 
L 177.044758 558.198132 
L 177.991399 672.226504 
L 178.93804 647.318572 
L 179.884681 662.62992 
L 180.831323 659.272 
L 181.777964 659.30315 
L 182.724605 557.349978 
L 183.671246 473.161993 
L 184.617887 500.169063 
L 185.564528 497.516992 
L 186.511169 511.915768 
L 187.45781 615.935517 
L 188.404452 669.476738 
L 189.351093 635.100365 
L 191.244375 652.68926 
L 192.191016 677.602855 
L 193.137657 667.734411 
L 194.084298 654.488932 
L 195.03094 625.366428 
L 195.977581 653.401487 
L 196.924222 622.288166 
L 197.870863 638.525538 
L 198.817504 659.385274 
L 199.764145 660.125817 
L 200.710786 668.717789 
L 201.657428 671.57942 
L 202.604069 662.266729 
L 203.55071 638.170846 
L 204.497351 656.620638 
L 205.443992 656.044352 
L 206.390633 541.334909 
L 207.337274 655.045402 
L 208.283916 672.293766 
L 209.230557 647.159986 
L 210.177198 674.010598 
L 211.123839 676.841788 
L 212.07048 661.289731 
L 213.017121 672.658367 
L 213.963762 660.081923 
L 214.910404 666.601655 
L 215.857045 675.317519 
L 216.803686 637.56411 
L 217.750327 647.344768 
L 218.696968 680.718648 
L 219.643609 667.640252 
L 220.59025 679.127833 
L 221.536892 676.496295 
L 222.483533 676.550105 
L 223.430174 663.112055 
L 226.270097 676.835416 
L 227.216738 674.414146 
L 228.16338 664.254011 
L 229.110021 649.732761 
L 230.056662 671.563841 
L 231.003303 664.108878 
L 231.949944 658.564026 
L 232.896585 654.806103 
L 233.843226 675.998589 
L 235.736509 663.500733 
L 236.68315 675.932043 
L 237.629791 676.899134 
L 238.576432 659.543159 
L 239.523073 674.175555 
L 240.469714 669.825058 
L 241.416355 660.703528 
L 242.362997 659.152354 
L 243.309638 636.55879 
L 244.256279 663.581439 
L 245.20292 672.875716 
L 246.149561 678.965003 
L 247.096202 639.489092 
L 248.042843 683.587359 
L 248.989485 670.150727 
L 249.936126 676.516828 
L 250.882767 678.893496 
L 251.829408 654.086094 
L 252.776049 678.991191 
L 253.72269 668.7723 
L 254.669331 681.950525 
L 255.615973 654.80044 
L 256.562614 673.401036 
L 257.509255 647.097687 
L 259.402537 656.127893 
L 260.349178 678.316493 
L 261.295819 670.220108 
L 262.242461 663.185681 
L 263.189102 650.665165 
L 264.135743 647.176274 
L 265.082384 664.707823 
L 266.029025 666.839537 
L 266.975666 677.082497 
L 267.922307 655.680452 
L 268.868949 627.730353 
L 269.81559 657.025603 
L 270.762231 649.40002 
L 271.708872 640.189277 
L 272.655513 639.76166 
L 273.602154 668.969116 
L 274.548795 614.510361 
L 275.495437 614.001329 
L 276.442078 648.696999 
L 277.388719 592.288485 
L 278.33536 642.348596 
L 279.282001 652.268723 
L 280.228642 625.96821 
L 281.175283 546.600813 
L 282.121925 587.152843 
L 283.068566 614.204516 
L 284.015207 616.817648 
L 284.961848 627.382032 
L 285.908489 630.253571 
L 286.85513 632.31095 
L 287.801771 642.452671 
L 288.748413 638.416509 
L 289.695054 633.675208 
L 290.641695 661.158751 
L 291.588336 631.115177 
L 292.534977 651.502702 
L 293.481618 650.641805 
L 294.428259 648.553276 
L 295.3749 636.582859 
L 296.321542 635.876302 
L 297.268183 632.091474 
L 298.214824 633.725481 
L 299.161465 638.143232 
L 300.108106 627.347346 
L 301.054747 640.228217 
L 302.001388 629.120815 
L 302.94803 657.858886 
L 303.894671 637.356678 
L 304.841312 643.18755 
L 305.787953 643.705073 
L 307.681235 652.365008 
L 308.627876 660.7099 
L 309.574518 658.201544 
L 310.521159 663.427808 
L 311.4678 671.801723 
L 312.414441 663.280548 
L 313.361082 669.41443 
L 314.307723 667.57229 
L 315.254364 664.801273 
L 316.201006 660.09254 
L 317.147647 666.338995 
L 318.094288 675.914338 
L 319.040929 663.803033 
L 319.98757 664.709241 
L 320.934211 671.442069 
L 322.827494 647.889912 
L 323.774135 657.426315 
L 324.720776 669.4293 
L 325.667417 655.971427 
L 326.614058 655.258498 
L 327.560699 667.409451 
L 328.50734 652.949092 
L 329.453982 664.884106 
L 330.400623 670.383647 
L 331.347264 674.172019 
L 332.293905 667.900786 
L 333.240546 659.878027 
L 334.187187 653.487857 
L 335.133828 653.275462 
L 336.08047 668.336901 
L 337.027111 648.372039 
L 337.973752 651.603232 
L 338.920393 655.470893 
L 339.867034 674.437506 
L 340.813675 660.875566 
L 341.760316 665.861113 
L 342.706958 671.898717 
L 343.653599 661.727256 
L 344.60024 668.542916 
L 345.546881 658.123665 
L 346.493522 666.035277 
L 347.440163 669.783992 
L 348.386804 660.593082 
L 349.333445 676.67895 
L 351.226728 647.335568 
L 352.173369 663.18639 
L 353.12001 654.717607 
L 354.066651 663.91348 
L 355.013292 658.816778 
L 355.959933 624.952264 
L 357.853216 652.409611 
L 359.746498 642.864709 
L 360.693139 646.157493 
L 361.63978 620.556456 
L 362.586421 651.498449 
L 363.533063 658.697124 
L 364.479704 651.966423 
L 365.426345 642.436383 
L 366.372986 644.465439 
L 367.319627 653.773877 
L 368.266268 650.587995 
L 369.212909 654.724688 
L 370.159551 656.078329 
L 371.106192 661.466722 
L 372.052833 636.330824 
L 372.999474 651.587653 
L 373.946115 648.619829 
L 374.892756 640.149629 
L 375.839397 630.462429 
L 376.786039 653.844675 
L 377.73268 664.567645 
L 378.679321 656.675865 
L 379.625962 667.536178 
L 380.572603 668.879202 
L 381.519244 671.478882 
L 382.465885 678.055959 
L 383.412527 649.373824 
L 384.359168 671.37906 
L 385.305809 672.828995 
L 386.25245 680.682544 
L 387.199091 672.729874 
L 388.145732 671.012333 
L 389.092373 680.577059 
L 390.039015 674.457331 
L 390.985656 682.814958 
L 391.932297 667.714587 
L 392.878938 650.670119 
L 393.825579 681.742383 
L 394.77222 649.783735 
L 395.718861 668.234953 
L 396.665503 678.041798 
L 397.612144 680.387316 
L 398.558785 683.845065 
L 399.505426 681.556893 
L 400.452067 676.656298 
L 401.398708 680.287494 
L 402.345349 673.582272 
L 403.29199 669.230358 
L 404.238632 674.266887 
L 405.185273 661.575751 
L 406.131914 671.0541 
L 407.078555 682.577793 
L 408.025196 679.979523 
L 408.971837 668.804159 
L 409.918478 668.438141 
L 412.758402 684.586308 
L 413.705043 678.300922 
L 414.651684 685.232692 
L 415.598325 679.083231 
L 416.544966 671.852697 
L 417.491608 682.560087 
L 418.438249 679.665188 
L 419.38489 687.159091 
L 420.331531 680.695996 
L 421.278172 681.078302 
L 422.224813 678.613847 
L 423.171454 675.743009 
L 424.118096 678.276852 
L 425.064737 680.11192 
L 426.011378 678.207464 
L 426.958019 677.516486 
L 427.90466 681.976012 
L 428.851301 680.610328 
L 429.797942 682.750531 
L 430.744584 684.11976 
L 431.691225 678.839686 
L 432.637866 678.504109 
L 433.584507 668.565576 
L 434.531148 670.239223 
L 435.477789 679.984485 
L 436.42443 684.344181 
L 437.371072 676.020539 
L 438.317713 679.70271 
L 439.264354 673.745111 
L 440.210995 646.497323 
L 441.157636 640.488041 
L 442.104277 616.310034 
L 443.050918 490.558325 
L 443.99756 501.558107 
L 444.944201 645.431821 
L 445.890842 439.698199 
L 446.837483 516.465207 
L 447.784124 493.834112 
L 448.730765 462.806459 
L 449.677406 569.26164 
L 450.624048 596.321102 
L 451.570689 568.05525 
L 452.51733 564.136616 
L 453.463971 600.686469 
L 454.410612 577.719798 
L 455.357253 570.682543 
L 456.303894 589.805616 
L 457.250535 559.51496 
L 458.197177 484.468329 
L 459.143818 486.028702 
L 460.090459 523.841583 
L 461.0371 543.882906 
L 461.983741 545.826294 
L 462.930382 560.416923 
L 463.877023 571.418832 
L 464.823665 521.590223 
L 465.770306 539.760375 
L 466.716947 596.933501 
L 467.663588 519.235506 
L 468.610229 493.666328 
L 469.55687 453.301914 
L 470.503511 446.907491 
L 471.450153 492.304188 
L 472.396794 552.245487 
L 473.343435 574.540288 
L 475.236717 656.17745 
L 476.183358 657.568621 
L 477.129999 662.385674 
L 478.076641 668.704337 
L 479.023282 678.501274 
L 479.969923 654.593007 
L 480.916564 661.360521 
L 481.863205 634.444782 
L 482.809846 668.837435 
L 483.756487 649.348337 
L 484.703129 606.777875 
L 485.64977 579.093271 
L 486.596411 544.983803 
L 487.543052 575.916589 
L 488.489693 646.474671 
L 489.436334 646.202095 
L 490.382975 635.517357 
L 491.329617 608.360191 
L 492.276258 609.59844 
L 493.222899 603.754824 
L 494.16954 636.250109 
L 495.116181 602.458528 
L 496.062822 648.603549 
L 497.956105 426.136959 
L 498.902746 271.026991 
L 499.849387 46.340909 
L 500.796028 151.254123 
L 502.68931 393.148921 
L 503.635951 577.005451 
L 504.582593 654.532826 
L 505.529234 509.556797 
L 506.475875 651.741993 
L 507.422516 629.362233 
L 508.369157 661.143881 
L 509.315798 655.626643 
L 510.262439 655.065927 
L 511.20908 659.473778 
L 512.155722 654.855659 
L 513.102363 666.566961 
L 514.049004 670.014085 
L 514.995645 663.695422 
L 516.888927 658.426682 
L 517.835568 656.863474 
L 518.78221 656.343116 
L 519.728851 664.353131 
L 520.675492 659.941035 
L 521.622133 656.084 
L 522.568774 654.883982 
L 523.515415 652.803951 
L 524.462056 661.495746 
L 525.408698 665.078803 
L 526.355339 653.574226 
L 527.30198 669.265052 
L 528.248621 657.652863 
L 529.195262 655.182037 
L 530.141903 655.046812 
L 531.088544 663.75914 
L 532.035186 633.357329 
L 532.981827 609.417904 
L 534.875109 629.091083 
L 535.82175 627.527165 
L 536.768391 631.50669 
L 537.715032 591.793606 
L 538.661674 537.299456 
L 539.608315 436.172487 
L 540.554956 598.731756 
L 541.501597 609.399498 
L 542.448238 605.087231 
L 543.394879 612.702907 
L 544.34152 621.756474 
L 545.288162 599.140958 
L 546.234803 610.089775 
L 547.181444 632.594135 
L 548.128085 620.373092 
L 549.074726 597.085714 
L 550.021367 620.521769 
L 550.968008 607.591334 
L 551.91465 586.882394 
L 552.861291 578.80158 
L 553.807932 536.216965 
L 554.754573 574.691092 
L 555.701214 620.047423 
L 556.647855 514.510485 
L 557.594496 565.847084 
L 558.541138 564.190425 
L 559.487779 583.385713 
L 560.43442 597.21244 
L 561.381061 587.196028 
L 562.327702 570.653512 
L 563.274343 600.217077 
L 564.220984 547.001525 
L 565.167625 566.369568 
L 566.114267 591.630776 
L 567.060908 583.260405 
L 568.007549 578.988488 
L 568.95419 584.74219 
L 569.900831 603.629515 
L 570.847472 601.055323 
L 571.794113 604.556248 
L 572.740755 595.737728 
L 573.687396 592.485301 
L 574.634037 604.315539 
L 575.580678 596.158264 
L 577.47396 565.207781 
L 579.367243 624.996866 
L 581.260525 627.151231 
L 582.207166 647.356802 
L 583.153807 612.072102 
L 584.100448 630.272686 
L 585.993731 613.277783 
L 586.940372 625.636169 
L 587.887013 620.115394 
L 588.833654 598.297767 
L 589.780295 598.571044 
L 590.726936 599.814247 
L 591.673577 553.92197 
L 592.620219 532.022927 
L 593.56686 563.570946 
L 594.513501 574.364714 
L 595.460142 578.158032 
L 596.406783 574.586308 
L 597.353424 578.690432 
L 598.300065 546.905949 
L 599.246707 566.756828 
L 600.193348 590.308284 
L 601.139989 411.304203 
L 602.08663 433.737765 
L 603.033271 439.633772 
L 603.979912 460.008546 
L 604.926553 582.487295 
L 605.873195 623.029409 
L 606.819836 658.219242 
L 607.766477 648.272919 
L 608.713118 651.149419 
L 609.659759 656.42524 
L 610.6064 664.232068 
L 611.553041 654.648935 
L 612.499683 648.060532 
L 613.446324 651.206056 
L 614.392965 659.04828 
L 615.339606 653.495646 
L 616.286247 628.443289 
L 617.232888 636.271351 
L 618.179529 639.285904 
L 619.12617 634.39239 
L 620.072812 637.877745 
L 621.019453 640.78256 
L 621.966094 620.115394 
L 622.912735 624.532436 
L 623.859376 627.619914 
L 624.806017 648.887443 
L 625.752658 589.355347 
L 626.6993 576.362612 
L 627.645941 551.855392 
L 628.592582 609.461806 
L 629.539223 617.775539 
L 630.485864 627.532127 
L 631.432505 613.047691 
L 632.379146 608.867105 
L 633.325788 589.778719 
L 634.272429 593.556466 
L 635.21907 559.286286 
L 636.165711 571.576709 
L 637.112352 596.999337 
L 638.058993 600.59372 
L 639.005634 591.829009 
L 639.952276 588.059052 
L 640.898917 621.352926 
L 641.845558 624.138805 
L 642.792199 631.176776 
L 643.73884 576.417131 
L 644.685481 551.351321 
L 645.632122 495.293246 
L 646.578764 431.987656 
L 647.525405 445.6473 
L 648.472046 421.188226 
L 649.418687 391.197043 
L 650.365328 476.445569 
L 651.311969 429.934531 
L 652.25861 433.693871 
L 653.205252 422.519924 
L 654.151893 448.882738 
L 655.098534 437.605425 
L 656.045175 446.3666 
L 656.991816 472.010121 
L 657.938457 489.969996 
L 658.885098 579.603721 
L 659.83174 543.383781 
L 660.778381 516.542377 
L 661.725022 546.867718 
L 662.671663 631.719786 
L 663.618304 644.670753 
L 664.564945 608.571877 
L 665.511586 597.097749 
L 666.458228 418.200577 
L 667.404869 451.003117 
L 668.35151 566.994702 
L 669.298151 569.60288 
L 670.244792 629.389138 
L 671.191433 633.567597 
L 672.138074 647.972745 
L 673.084715 671.87323 
L 674.031357 603.190572 
L 674.977998 628.583468 
L 675.924639 616.934467 
L 676.87128 619.410247 
L 677.817921 643.221528 
L 678.764562 643.190378 
L 679.711203 656.840113 
L 680.657845 568.930308 
L 681.604486 187.15972 
L 682.551127 198.066762 
L 683.497768 198.848362 
L 684.444409 296.052451 
L 685.39105 648.838596 
L 686.337691 643.991802 
L 687.284333 627.125035 
L 688.230974 635.252578 
L 689.177615 621.923557 
L 690.124256 643.364542 
L 691.070897 616.205959 
L 692.017538 631.597312 
L 692.964179 621.404609 
L 693.910821 630.269859 
L 694.857462 595.145862 
L 695.804103 607.609032 
L 696.750744 623.186584 
L 697.697385 610.490487 
L 698.644026 652.607844 
L 699.590667 652.222002 
L 700.537309 661.700351 
L 701.48395 639.959185 
L 702.430591 654.901679 
L 703.377232 666.966263 
L 704.323873 652.035094 
L 706.217155 668.522383 
L 707.163797 662.695764 
L 708.110438 671.609861 
L 709.057079 672.244911 
L 710.00372 665.29898 
L 710.950361 665.064642 
L 711.897002 656.872681 
L 712.843643 639.695115 
L 713.790285 642.419394 
L 714.736926 649.324968 
L 715.683567 646.279265 
L 716.630208 666.422537 
L 717.576849 618.790067 
L 718.52349 629.167544 
L 719.470131 628.904884 
L 720.416772 610.644118 
L 721.363414 578.047593 
L 722.310055 572.735661 
L 723.256696 601.805064 
L 724.203337 620.809916 
L 725.149978 608.605154 
L 726.096619 586.131235 
L 727.04326 594.711874 
L 727.989902 579.229197 
L 728.936543 604.651124 
L 729.883184 597.227311 
L 730.829825 565.102997 
L 731.776466 591.070769 
L 732.723107 638.047656 
L 733.669748 584.276343 
L 734.61639 649.700902 
L 735.563031 652.728908 
L 736.509672 649.149394 
L 737.456313 609.326581 
L 738.402954 645.928818 
L 739.349595 648.716115 
L 740.296236 626.315821 
L 741.242878 643.378703 
L 742.189519 595.846048 
L 743.13616 617.247392 
L 744.082801 624.208894 
L 745.029442 553.79878 
L 745.976083 579.098934 
L 746.922724 578.259279 
L 747.869366 649.630104 
L 748.816007 629.631265 
L 749.762648 605.467411 
L 750.709289 619.197151 
L 751.65593 596.433668 
L 752.602571 621.734523 
L 753.549212 595.624454 
L 754.495854 595.425511 
L 755.442495 588.801712 
L 756.389136 613.042737 
L 757.335777 599.25424 
L 758.282418 625.138463 
L 759.229059 622.9664 
L 760.1757 618.828298 
L 761.122342 635.775063 
L 762.068983 615.738694 
L 765.855547 662.32691 
L 766.802188 649.930995 
L 767.74883 643.331265 
L 768.695471 647.416275 
L 769.642112 655.7293 
L 770.588753 658.423847 
L 771.535394 670.254093 
L 772.482035 656.462052 
L 773.428676 668.876375 
L 774.375317 673.670768 
L 775.321959 661.03486 
L 776.2686 660.481926 
L 777.215241 660.791315 
L 778.161882 640.997782 
L 779.108523 640.502202 
L 781.001805 664.872072 
L 781.948447 666.181119 
L 782.895088 628.909129 
L 783.841729 654.385566 
L 784.78837 661.322999 
L 785.735011 657.716581 
L 786.681652 672.582614 
L 787.628293 663.359845 
L 788.574935 673.796794 
L 789.521576 667.432111 
L 790.468217 668.58681 
L 791.414858 663.227448 
L 792.361499 667.783259 
L 793.30814 667.0229 
L 795.201423 661.218224 
L 796.148064 659.583508 
L 797.094705 664.159852 
L 798.041346 658.031633 
L 798.987987 649.036829 
L 799.934628 676.188324 
L 800.881269 669.389652 
L 801.827911 656.983119 
L 802.774552 658.22774 
L 803.721193 638.216157 
L 804.667834 654.790532 
L 805.614475 640.685566 
L 806.561116 648.367085 
L 807.507757 643.307196 
L 808.454399 588.787551 
L 809.40104 610.82111 
L 810.347681 645.03748 
L 811.294322 632.912723 
L 812.240963 638.878111 
L 813.187604 605.64582 
L 814.134245 561.8357 
L 815.080887 529.0728 
L 816.027528 550.821047 
L 816.974169 581.433827 
L 817.92081 640.347862 
L 818.867451 623.759334 
L 819.814092 624.441822 
L 820.760733 606.511679 
L 821.707375 629.429495 
L 822.654016 623.49172 
L 823.600657 533.391438 
L 824.547298 551.467423 
L 825.493939 581.615781 
L 826.44058 605.812904 
L 827.387221 579.019638 
L 828.333862 605.327232 
L 829.280504 586.943284 
L 830.227145 644.698359 
L 832.120427 592.642468 
L 833.067068 642.316737 
L 834.013709 652.429435 
L 834.96035 640.863266 
L 835.906992 665.281282 
L 836.853633 644.541192 
L 837.800274 658.823149 
L 838.746915 645.873599 
L 839.693556 544.122197 
L 840.640197 651.629428 
L 841.586838 663.281257 
L 842.53348 662.006196 
L 843.480121 657.394457 
L 844.426762 641.057255 
L 845.373403 672.622263 
L 846.320044 671.452694 
L 847.266685 674.454495 
L 848.213326 665.280573 
L 849.159968 665.745712 
L 850.106609 668.344683 
L 851.999891 670.103998 
L 852.946532 651.772434 
L 853.893173 667.226797 
L 854.839814 660.273076 
L 857.679738 674.228656 
L 858.626379 663.335067 
L 859.57302 676.983384 
L 860.519661 644.574468 
L 861.466302 657.222419 
L 862.412944 651.807838 
L 863.359585 670.603831 
L 864.306226 663.326568 
L 865.252867 665.335801 
L 866.199508 668.996729 
L 867.146149 647.88495 
L 868.09279 675.083181 
L 869.039432 675.681418 
L 869.986073 667.640252 
L 870.932714 669.608419 
L 871.879355 661.581414 
L 872.825996 671.028613 
L 873.772637 661.764778 
L 874.719278 660.045819 
L 875.66592 658.610046 
L 876.612561 657.830564 
L 877.559202 650.69986 
L 878.505843 659.30315 
L 879.452484 649.298072 
L 880.399125 646.835735 
L 881.345766 647.928843 
L 882.292407 669.98577 
L 882.292407 669.98577 
" style="fill:none;stroke:#000000;stroke-linecap:square;stroke-width:1.5;"/>
   </g>
   <g id="line2d_18">
    <path clip-path="url(#pb6e9673954)" d="M 883.239049 670.418341 
L 884.18569 668.916023 
L 885.132331 674.155731 
L 886.078972 675.638233 
L 887.025613 670.238514 
L 887.972254 677.612771 
L 888.918895 667.855475 
L 889.865537 670.785777 
L 890.812178 660.474846 
L 891.758819 635.026022 
L 892.70546 669.000266 
L 893.652101 664.108878 
L 894.598742 661.902121 
L 895.545383 666.923779 
L 896.492025 669.546119 
L 897.438666 664.360921 
L 898.385307 658.033759 
L 899.331948 642.728074 
L 900.278589 637.904649 
L 901.22523 656.618519 
L 902.171871 664.096134 
L 903.118513 636.141081 
L 904.065154 636.749234 
L 905.011795 638.558814 
L 905.958436 645.150754 
L 906.905077 636.354184 
L 907.851718 634.269909 
L 908.798359 634.516281 
L 909.745001 649.257714 
L 910.691642 631.343851 
L 911.638283 648.396817 
L 912.584924 670.244177 
L 913.531565 645.71006 
L 914.478206 656.339571 
L 915.424847 643.237107 
L 916.371489 634.963722 
L 917.31813 648.166016 
L 918.264771 646.725998 
L 919.211412 663.34922 
L 920.158053 666.068553 
L 921.104694 677.762149 
L 922.051335 668.736196 
L 922.997977 663.399485 
L 923.944618 649.126034 
L 924.891259 657.15233 
L 925.8379 660.738924 
L 926.784541 675.762124 
L 927.731182 666.995995 
L 928.677823 674.721408 
L 929.624465 665.703945 
L 930.571106 669.646649 
L 931.517747 670.627192 
L 932.464388 674.715737 
L 933.411029 675.483185 
L 934.35767 677.617725 
L 935.304311 677.09595 
L 936.250952 667.342197 
L 937.197594 672.112522 
L 938.144235 673.201384 
L 939.090876 674.872913 
L 940.037517 675.406015 
L 940.984158 663.520549 
L 941.930799 664.13861 
L 942.87744 675.730266 
L 943.824082 668.515311 
L 944.770723 666.037395 
L 945.717364 659.223862 
L 946.664005 668.326276 
L 947.610646 660.762993 
L 948.557287 667.665031 
L 949.503928 661.131846 
L 950.45057 664.751008 
L 951.397211 666.222885 
L 953.290493 681.686447 
L 954.237134 672.62368 
L 955.183775 668.155656 
L 956.130416 669.873197 
L 957.077058 658.644031 
L 958.023699 677.759322 
L 958.97034 672.81837 
L 959.916981 665.853323 
L 960.863622 670.935163 
L 961.810263 657.260649 
L 962.756904 679.086066 
L 963.703546 674.793616 
L 964.650187 681.2114 
L 965.596828 674.460166 
L 966.543469 680.031206 
L 967.49011 670.534451 
L 968.436751 668.069988 
L 969.383392 677.111521 
L 970.330034 682.052473 
L 971.276675 674.251308 
L 972.223316 678.9296 
L 974.116598 668.505395 
L 975.063239 671.886674 
L 976.00988 673.781924 
L 976.956522 646.812375 
L 977.903163 654.463445 
L 978.849804 674.448123 
L 979.796445 669.151069 
L 981.689727 681.44432 
L 982.636368 674.601755 
L 983.58301 683.474085 
L 984.529651 675.454161 
L 985.476292 680.329261 
L 986.422933 674.708665 
L 987.369574 674.865123 
L 988.316215 676.850987 
L 989.262856 666.788563 
L 990.209497 669.182219 
L 991.156139 654.615659 
L 992.10278 662.443721 
L 993.049421 665.338628 
L 993.996062 643.083475 
L 994.942703 650.151888 
L 995.889344 649.109746 
L 996.835985 641.547172 
L 997.782627 656.526479 
L 998.729268 656.876926 
L 999.675909 644.361365 
L 1000.62255 654.047863 
L 1001.569191 658.389161 
L 1002.515832 656.701352 
L 1003.462473 649.492052 
L 1004.409115 657.174981 
L 1005.355756 662.577528 
L 1006.302397 665.821464 
L 1007.249038 661.17574 
L 1008.195679 654.231935 
L 1009.14232 661.296803 
L 1010.088961 660.457148 
L 1011.035603 660.985296 
L 1011.982244 655.715138 
L 1012.928885 661.497163 
L 1013.875526 657.495696 
L 1014.822167 644.235347 
L 1015.768808 664.861455 
L 1016.715449 666.151386 
L 1017.662091 662.740366 
L 1018.608732 644.168802 
L 1019.555373 621.992229 
L 1020.502014 670.41905 
L 1021.448655 674.601046 
L 1022.395296 669.29762 
L 1023.341937 676.579128 
L 1024.288579 671.413754 
L 1025.23522 675.573098 
L 1026.181861 675.227605 
L 1027.128502 669.380453 
L 1028.075143 665.698991 
L 1029.021784 639.840248 
L 1029.968425 651.927483 
L 1030.915067 652.025887 
L 1031.861708 653.883615 
L 1032.808349 642.909311 
L 1033.75499 652.150495 
L 1034.701631 646.532726 
L 1035.648272 647.478575 
L 1036.594913 646.602816 
L 1037.541555 661.199108 
L 1038.488196 653.79441 
L 1039.434837 657.679059 
L 1040.381478 658.581022 
L 1041.328119 650.204272 
L 1042.27476 644.546146 
L 1043.221401 656.464179 
L 1044.168042 662.285136 
L 1045.114684 664.864991 
L 1047.007966 639.461478 
L 1047.954607 654.100964 
L 1048.901248 636.580031 
L 1049.847889 659.355542 
L 1050.79453 656.260991 
L 1051.741172 649.514003 
L 1052.687813 633.207951 
L 1052.687813 633.207951 
" style="fill:none;stroke:#1f77b4;stroke-linecap:square;stroke-width:1.5;"/>
   </g>
   <g id="line2d_19">
    <path clip-path="url(#pb6e9673954)" d="M 1053.634454 647.174148 
L 1054.581095 651.153665 
L 1055.527736 652.074034 
L 1056.474377 529.380063 
L 1057.421018 348.056659 
L 1058.36766 235.093789 
L 1059.314301 171.253672 
L 1060.260942 297.272995 
L 1061.207583 486.418088 
L 1062.154224 580.795942 
L 1063.100865 639.657593 
L 1064.047506 648.253102 
L 1064.994148 640.206266 
L 1065.940789 618.032528 
L 1066.88743 624.569257 
L 1067.834071 625.345903 
L 1068.780712 644.359246 
L 1069.727353 639.636351 
L 1070.673994 635.711345 
L 1071.620636 636.664274 
" style="fill:none;stroke:#ff7f0e;stroke-linecap:square;stroke-width:1.5;"/>
   </g>
   <g id="line2d_20">
    <path clip-path="url(#pb6e9673954)" d="M 1072.567277 637.648361 
L 1073.513918 636.844101 
L 1075.4072 659.22457 
L 1076.353841 639.487674 
L 1077.300482 594.292755 
L 1078.247124 600.133544 
L 1080.140406 608.201606 
L 1081.087047 604.102443 
L 1082.033688 597.343412 
L 1082.980329 566.613105 
L 1083.92697 593.281771 
L 1084.873612 612.540777 
L 1085.820253 601.051078 
L 1086.766894 602.059226 
L 1087.713535 587.874971 
L 1088.660176 601.091427 
L 1089.606817 551.935397 
L 1090.553458 619.577331 
L 1091.5001 611.677053 
L 1092.446741 620.322118 
L 1093.393382 633.087596 
L 1094.340023 622.123201 
L 1095.286664 629.697109 
L 1096.233305 592.825832 
L 1097.179946 600.379916 
L 1098.126587 568.581271 
L 1099.073229 566.167082 
L 1100.01987 607.672041 
L 1100.966511 600.551953 
L 1101.913152 601.120458 
L 1102.859793 621.381249 
L 1103.806434 569.92784 
L 1104.753075 538.93629 
L 1105.699717 580.589218 
L 1106.646358 578.531847 
L 1107.592999 617.033579 
L 1108.53964 594.504441 
L 1109.486281 604.263856 
L 1110.432922 627.869831 
L 1111.379563 616.302953 
L 1112.326205 592.434327 
L 1113.272846 590.471115 
L 1114.219487 562.814124 
L 1116.112769 568.960749 
L 1117.05941 583.570495 
L 1118.006051 604.385629 
L 1118.952693 610.144285 
L 1119.899334 601.678338 
L 1120.845975 615.764181 
L 1121.792616 607.962314 
L 1122.739257 572.139551 
L 1123.685898 634.293269 
L 1124.632539 647.723537 
L 1125.579181 649.943738 
L 1126.525822 644.660129 
L 1127.472463 662.468507 
L 1128.419104 646.441395 
L 1129.365745 649.174881 
L 1130.312386 570.988388 
L 1131.259027 655.269824 
L 1132.205669 657.162238 
L 1133.15231 656.148418 
L 1134.098951 641.597437 
L 1135.045592 646.810248 
L 1135.992233 661.269907 
L 1136.938874 649.752585 
L 1137.885515 657.812866 
L 1138.832157 654.906633 
L 1139.778798 668.791415 
L 1140.725439 661.114149 
L 1141.67208 662.321248 
L 1142.618721 668.105391 
L 1143.565362 663.181436 
L 1144.512003 667.186439 
L 1145.458645 672.198891 
L 1146.405286 662.898951 
L 1147.351927 665.529072 
L 1148.298568 643.043827 
L 1149.245209 637.215081 
L 1150.19185 658.601547 
L 1151.138491 670.057277 
L 1152.085132 656.800465 
L 1153.031774 657.39233 
L 1153.978415 669.556736 
L 1154.925056 673.58369 
L 1155.871697 653.019182 
L 1156.818338 663.260724 
L 1157.764979 675.376282 
L 1158.71162 667.243076 
L 1159.658262 675.5646 
L 1160.604903 676.598243 
L 1161.551544 661.354149 
L 1162.498185 662.311331 
L 1163.444826 662.079829 
L 1164.391467 670.911795 
L 1165.338108 647.227949 
L 1166.28475 671.791807 
L 1167.231391 632.590599 
L 1168.178032 653.274052 
L 1169.124673 650.976673 
L 1170.071314 647.507606 
L 1171.017955 662.200893 
L 1171.964596 652.948383 
L 1172.911238 599.584154 
L 1173.857879 610.768718 
L 1174.80452 604.9959 
L 1175.751161 624.811384 
L 1176.697802 608.755241 
L 1177.644443 622.390815 
L 1178.591084 628.114076 
L 1179.537726 617.723856 
L 1180.484367 599.458838 
L 1181.431008 539.913297 
L 1182.377649 594.150458 
L 1183.32429 577.005451 
L 1184.270931 586.352829 
L 1185.217572 562.111812 
L 1186.164214 566.406381 
L 1187.110855 568.948715 
L 1188.057496 570.439707 
L 1189.004137 584.757769 
L 1189.950778 605.335021 
L 1190.897419 559.711776 
L 1191.84406 570.541656 
L 1192.790702 513.011711 
L 1193.737343 557.211926 
L 1194.683984 554.531532 
L 1195.630625 568.224452 
L 1196.577266 549.07023 
L 1197.523907 583.759521 
L 1198.470548 562.609519 
L 1199.41719 547.831981 
L 1200.363831 588.992865 
L 1201.310472 594.360726 
L 1202.257113 587.455853 
L 1203.203754 596.44712 
L 1204.150395 598.943434 
L 1205.097036 566.664079 
L 1206.043677 606.575397 
L 1206.990319 608.521612 
L 1207.93696 626.42344 
L 1208.883601 601.914093 
L 1209.830242 596.01384 
L 1210.776883 606.149898 
L 1211.723524 613.269285 
L 1212.670165 591.729187 
L 1213.616807 629.166126 
L 1214.563448 631.889705 
L 1215.510089 623.397553 
L 1216.45673 631.404742 
L 1217.403371 627.154066 
L 1218.350012 634.710269 
L 1219.296653 617.417303 
L 1220.243295 624.732087 
L 1221.189936 613.095121 
L 1222.136577 565.226187 
L 1223.083218 608.315589 
L 1224.029859 628.705941 
L 1224.9765 626.217417 
L 1225.923141 628.894976 
L 1226.869783 630.746323 
L 1227.816424 612.064313 
L 1228.763065 626.252104 
L 1229.709706 616.672515 
L 1230.656347 639.944323 
L 1231.602988 599.442558 
L 1232.549629 587.034607 
L 1233.496271 577.02103 
L 1234.442912 568.353305 
L 1235.389553 584.753516 
L 1236.336194 560.262583 
L 1237.282835 617.197827 
L 1238.229476 590.184385 
L 1239.176117 579.444427 
L 1240.122759 571.197947 
L 1241.0694 594.270103 
L 1242.016041 570.073682 
L 1242.962682 595.168522 
L 1243.909323 606.721947 
L 1244.855964 611.379706 
L 1245.802605 661.973628 
L 1246.749247 643.783661 
L 1247.695888 629.128604 
L 1248.642529 628.458151 
L 1249.58917 641.064335 
L 1250.535811 637.495439 
L 1251.482452 657.457465 
L 1252.429093 662.474879 
L 1253.375735 646.961753 
L 1254.322376 627.454957 
L 1255.269017 638.513503 
L 1256.215658 613.970888 
L 1257.162299 583.937221 
L 1258.10894 601.73781 
L 1259.055581 583.739697 
L 1260.002222 582.896505 
L 1260.948864 598.538476 
L 1260.948864 598.538476 
" style="fill:none;stroke:#2ca02c;stroke-linecap:square;stroke-width:1.5;"/>
   </g>
   <g id="line2d_21">
    <path clip-path="url(#pb6e9673954)" d="M 170.41827 665.509487 
L 171.364911 665.775478 
L 172.311552 665.449707 
L 173.258193 665.349632 
L 174.204835 665.089009 
L 175.151476 665.101561 
L 176.098117 663.403633 
L 177.044758 661.112748 
L 177.991399 661.154666 
L 180.831323 660.645028 
L 181.777964 660.745324 
L 182.724605 658.83732 
L 183.671246 654.91758 
L 186.511169 644.767773 
L 187.45781 643.671033 
L 188.404452 643.780666 
L 190.297734 643.053031 
L 191.244375 642.7926 
L 193.137657 643.319244 
L 194.084298 642.912071 
L 195.03094 641.844771 
L 195.977581 641.344366 
L 196.924222 640.359339 
L 197.870863 639.872695 
L 200.710786 639.040148 
L 202.604069 638.527147 
L 203.55071 637.675823 
L 204.497351 637.262986 
L 205.443992 636.723584 
L 206.390633 633.884683 
L 207.337274 633.472687 
L 208.283916 633.3059 
L 209.230557 632.595906 
L 210.177198 632.482099 
L 211.123839 632.833917 
L 212.07048 632.549696 
L 213.963762 633.087505 
L 215.857045 634.229555 
L 216.803686 633.440533 
L 217.750327 633.822559 
L 218.696968 634.783176 
L 220.59025 635.773365 
L 221.536892 637.91208 
L 222.483533 640.377747 
L 223.430174 640.187862 
L 224.376815 640.614136 
L 225.323456 640.819404 
L 227.216738 641.500121 
L 228.16338 643.727289 
L 231.003303 654.447235 
L 231.949944 657.502407 
L 232.896585 658.312211 
L 233.843226 658.448083 
L 234.789868 659.173343 
L 236.68315 660.070715 
L 237.629791 660.056054 
L 238.576432 659.885403 
L 239.523073 660.295541 
L 240.469714 661.221762 
L 241.416355 661.373888 
L 242.362997 662.141892 
L 243.309638 662.100918 
L 244.256279 662.188338 
L 246.149561 662.667445 
L 247.096202 661.998896 
L 248.042843 662.443076 
L 248.989485 663.109323 
L 250.882767 663.999851 
L 251.829408 666.348834 
L 252.776049 666.847705 
L 253.72269 666.774341 
L 254.669331 667.499144 
L 255.615973 667.098932 
L 256.562614 667.02725 
L 257.509255 666.731582 
L 258.455896 666.292535 
L 259.402537 666.21016 
L 260.349178 666.454219 
L 261.295819 666.348023 
L 262.242461 666.881805 
L 263.189102 666.95098 
L 264.135743 666.252181 
L 265.082384 666.191089 
L 266.029025 665.935083 
L 266.975666 665.947295 
L 267.922307 665.512511 
L 268.868949 664.775392 
L 269.81559 664.551348 
L 270.762231 664.070457 
L 272.655513 662.585069 
L 273.602154 662.6833 
L 274.548795 661.9495 
L 275.495437 660.750281 
L 276.442078 660.4292 
L 277.388719 659.04846 
L 278.33536 658.788928 
L 279.282001 658.294556 
L 280.228642 657.379043 
L 281.175283 654.943628 
L 282.121925 653.094061 
L 283.068566 651.787923 
L 285.908489 649.098537 
L 286.85513 648.507025 
L 287.801771 648.159115 
L 288.748413 648.197818 
L 289.695054 647.574771 
L 290.641695 647.330668 
L 291.588336 646.333797 
L 292.534977 646.58408 
L 293.481618 645.897714 
L 294.428259 645.447767 
L 296.321542 643.719618 
L 297.268183 643.261397 
L 298.214824 642.318361 
L 299.161465 641.680256 
L 300.108106 640.54269 
L 301.054747 640.239102 
L 302.001388 639.316597 
L 302.94803 639.540789 
L 304.841312 638.974793 
L 305.787953 638.253722 
L 306.734594 637.786695 
L 307.681235 637.561265 
L 309.574518 638.000223 
L 310.521159 637.973556 
L 311.4678 638.076935 
L 312.414441 637.789394 
L 313.361082 638.075519 
L 314.307723 638.905559 
L 316.201006 639.290313 
L 317.147647 639.835099 
L 318.094288 640.58828 
L 319.040929 640.480653 
L 320.934211 642.723145 
L 321.880852 642.939328 
L 322.827494 644.097691 
L 324.720776 644.769322 
L 325.667417 645.394389 
L 326.614058 647.658091 
L 327.560699 649.330103 
L 328.50734 650.137282 
L 330.400623 652.034534 
L 331.347264 652.949501 
L 332.293905 653.690956 
L 335.133828 654.776309 
L 336.08047 654.925854 
L 337.027111 655.285372 
L 338.920393 655.388073 
L 341.760316 657.058109 
L 342.706958 657.887427 
L 346.493522 660.282944 
L 347.440163 661.130094 
L 348.386804 661.187056 
L 349.333445 662.00627 
L 350.280087 662.401024 
L 351.226728 662.47666 
L 352.173369 662.797151 
L 355.013292 662.925722 
L 356.906575 661.421454 
L 357.853216 661.194976 
L 360.693139 659.839457 
L 361.63978 659.015789 
L 364.479704 658.101323 
L 366.372986 657.075292 
L 367.319627 656.964878 
L 368.266268 657.021088 
L 369.212909 656.964804 
L 370.159551 656.686658 
L 371.106192 656.801144 
L 372.999474 656.077196 
L 373.946115 655.987003 
L 374.892756 655.471702 
L 375.839397 654.64001 
L 376.786039 654.216524 
L 378.679321 654.080371 
L 380.572603 654.698123 
L 381.519244 654.763581 
L 382.465885 655.381996 
L 383.412527 655.33555 
L 384.359168 655.66697 
L 385.305809 655.633459 
L 386.25245 656.046104 
L 387.199091 656.189204 
L 388.145732 656.170737 
L 389.092373 656.563442 
L 390.039015 656.686658 
L 390.985656 657.20106 
L 391.932297 657.236046 
L 392.878938 656.83784 
L 393.825579 657.278451 
L 394.77222 656.718134 
L 395.718861 656.8452 
L 396.665503 657.484914 
L 397.612144 657.843266 
L 398.558785 658.450088 
L 400.452067 659.189316 
L 401.398708 660.342133 
L 402.345349 661.081922 
L 403.29199 661.432354 
L 404.238632 661.985812 
L 405.185273 662.375626 
L 406.131914 662.894305 
L 407.078555 664.186416 
L 408.025196 664.779772 
L 408.971837 664.990335 
L 409.918478 665.333496 
L 414.651684 668.55013 
L 415.598325 669.029399 
L 416.544966 669.245774 
L 417.491608 670.208883 
L 418.438249 670.793832 
L 420.331531 672.441449 
L 421.278172 673.495947 
L 422.224813 674.011971 
L 423.171454 674.244791 
L 424.118096 674.694812 
L 426.011378 675.151145 
L 427.90466 675.358596 
L 428.851301 676.009357 
L 430.744584 676.481487 
L 431.691225 676.443094 
L 432.637866 676.56339 
L 433.584507 676.512416 
L 434.531148 676.297045 
L 437.371072 676.617093 
L 438.317713 677.221939 
L 440.210995 676.986862 
L 441.157636 676.408802 
L 442.104277 675.122723 
L 443.99756 667.370308 
L 444.944201 666.617702 
L 445.890842 661.681075 
L 447.784124 654.523357 
L 448.730765 650.222859 
L 449.677406 648.03525 
L 450.624048 646.675778 
L 451.570689 644.529969 
L 452.51733 642.062444 
L 453.463971 640.410506 
L 456.303894 634.726937 
L 457.250535 632.248291 
L 459.143818 624.073495 
L 460.090459 620.71118 
L 461.983741 615.268957 
L 463.877023 610.469175 
L 464.823665 607.019824 
L 465.770306 604.083665 
L 466.716947 602.330648 
L 467.663588 599.010266 
L 468.610229 595.217002 
L 470.503511 585.671599 
L 471.450153 581.798614 
L 472.396794 579.188801 
L 473.343435 576.950557 
L 474.290076 575.618726 
L 476.183358 574.511971 
L 477.129999 574.169179 
L 478.076641 573.965017 
L 479.023282 574.172011 
L 480.916564 573.458049 
L 481.863205 572.418478 
L 482.809846 572.26883 
L 483.756487 571.636447 
L 485.64977 568.837045 
L 486.596411 566.847374 
L 487.543052 566.005844 
L 489.436334 572.267517 
L 490.382975 572.060966 
L 491.329617 575.574757 
L 492.276258 577.515033 
L 493.222899 579.805048 
L 494.16954 583.418457 
L 495.116181 584.110059 
L 496.062822 585.199277 
L 497.009463 584.483899 
L 497.956105 581.608906 
L 498.902746 574.741 
L 499.849387 563.670607 
L 500.796028 554.932515 
L 501.742669 548.371471 
L 502.68931 544.905512 
L 503.635951 546.833369 
L 504.582593 550.343871 
L 505.529234 550.046272 
L 506.475875 552.293336 
L 507.422516 554.033668 
L 508.369157 556.132146 
L 509.315798 557.886476 
L 511.20908 563.161249 
L 512.155722 564.367961 
L 513.102363 567.437366 
L 514.049004 571.111277 
L 515.942286 579.958147 
L 516.888927 583.419032 
L 517.835568 585.598573 
L 518.78221 587.302799 
L 519.728851 588.295939 
L 521.622133 588.343417 
L 522.568774 588.187132 
L 524.462056 587.501592 
L 525.408698 587.720046 
L 526.355339 587.557832 
L 527.30198 588.283254 
L 528.248621 588.050242 
L 529.195262 588.171777 
L 530.141903 589.17738 
L 532.035186 592.782368 
L 532.981827 593.480312 
L 533.928468 592.921602 
L 534.875109 592.565123 
L 535.82175 592.398661 
L 536.768391 592.880879 
L 537.715032 592.509945 
L 538.661674 591.125458 
L 539.608315 586.957175 
L 540.554956 586.879534 
L 541.501597 586.062783 
L 542.448238 587.54966 
L 543.394879 591.436451 
L 544.34152 598.743315 
L 545.288162 610.259983 
L 546.234803 619.819059 
L 547.181444 627.271529 
L 548.128085 632.005366 
L 549.074726 632.423705 
L 550.021367 631.715141 
L 550.968008 633.757528 
L 551.91465 632.406286 
L 552.861291 631.352939 
L 553.807932 628.750295 
L 554.754573 627.064138 
L 555.701214 626.334585 
L 556.647855 623.314517 
L 557.594496 621.460172 
L 558.541138 619.327327 
L 559.487779 617.522569 
L 561.381061 614.596514 
L 562.327702 612.767906 
L 563.274343 611.587773 
L 565.167625 607.268499 
L 567.060908 604.32821 
L 568.95419 601.329101 
L 571.794113 597.768524 
L 573.687396 594.879047 
L 574.634037 593.819328 
L 575.580678 592.592484 
L 576.527319 590.86696 
L 577.47396 589.447178 
L 578.420601 589.124062 
L 579.367243 589.235317 
L 581.260525 589.164976 
L 583.153807 589.917656 
L 584.100448 591.854598 
L 585.047089 595.714102 
L 587.887013 596.668495 
L 588.833654 596.368388 
L 589.780295 595.885358 
L 590.726936 595.899385 
L 591.673577 594.729222 
L 592.620219 592.633989 
L 593.56686 591.450611 
L 594.513501 590.977257 
L 595.460142 590.094679 
L 596.406783 589.407074 
L 597.353424 589.236408 
L 598.300065 588.571916 
L 599.246707 589.208163 
L 600.193348 589.533521 
L 601.139989 585.184704 
L 602.08663 583.501939 
L 603.033271 580.872495 
L 603.979912 578.702039 
L 604.926553 578.683322 
L 605.873195 579.221176 
L 607.766477 582.317897 
L 608.713118 583.378988 
L 610.6064 587.69745 
L 612.499683 590.360331 
L 614.392965 593.412908 
L 615.339606 594.451785 
L 617.232888 595.683099 
L 619.12617 597.463417 
L 620.072812 598.16263 
L 621.966094 599.908582 
L 622.912735 601.144512 
L 623.859376 601.846837 
L 624.806017 602.344557 
L 625.752658 601.579237 
L 626.6993 600.521141 
L 627.645941 598.531528 
L 628.592582 598.477147 
L 629.539223 598.21679 
L 630.485864 598.343945 
L 631.432505 598.339152 
L 632.379146 597.989796 
L 633.325788 597.357782 
L 634.272429 597.259005 
L 635.21907 596.440572 
L 636.165711 595.85229 
L 637.112352 596.749736 
L 638.058993 598.178294 
L 639.005634 598.767003 
L 639.952276 599.052302 
L 641.845558 600.984539 
L 642.792199 602.078005 
L 643.73884 602.692821 
L 644.685481 602.371873 
L 645.632122 600.392393 
L 646.578764 600.823298 
L 647.525405 601.071414 
L 648.472046 600.687132 
L 649.418687 599.253559 
L 650.365328 597.044356 
L 651.311969 593.021546 
L 655.098534 574.868111 
L 656.045175 570.329247 
L 656.991816 566.524272 
L 657.938457 563.230719 
L 658.885098 561.739004 
L 659.83174 559.329327 
L 660.778381 556.476134 
L 661.725022 554.776643 
L 662.671663 554.681819 
L 663.618304 554.794003 
L 664.564945 554.256076 
L 665.511586 553.406492 
L 666.458228 548.769368 
L 667.404869 545.246195 
L 669.298151 542.838804 
L 670.244792 542.43259 
L 671.191433 543.353678 
L 672.138074 544.845556 
L 673.084715 547.345927 
L 674.031357 547.215277 
L 674.977998 547.440442 
L 675.924639 547.219657 
L 676.87128 547.352211 
L 677.817921 548.067928 
L 678.764562 549.180671 
L 679.711203 550.49908 
L 680.657845 550.699997 
L 683.497768 526.01052 
L 684.444409 519.848508 
L 685.39105 521.114748 
L 686.337691 521.586392 
L 688.230974 521.733517 
L 689.177615 522.681568 
L 690.124256 524.59851 
L 691.070897 527.117525 
L 694.857462 543.542471 
L 695.804103 546.275043 
L 698.644026 558.777889 
L 702.430591 575.526187 
L 703.377232 579.21361 
L 704.323873 580.722597 
L 705.270514 583.158336 
L 706.217155 586.324586 
L 707.163797 588.73767 
L 708.110438 589.568714 
L 709.057079 590.143175 
L 710.00372 591.32499 
L 710.950361 592.740967 
L 711.897002 597.713302 
L 712.843643 601.644386 
L 714.736926 604.87661 
L 715.683567 605.228488 
L 716.630208 605.912966 
L 717.576849 605.304993 
L 718.52349 604.415292 
L 719.470131 604.951006 
L 720.416772 604.57727 
L 721.363414 603.767127 
L 723.256696 601.931897 
L 724.203337 601.465637 
L 725.149978 600.460742 
L 726.096619 600.819095 
L 728.936543 625.704873 
L 729.883184 631.979349 
L 730.829825 630.234857 
L 731.776466 629.132336 
L 732.723107 629.35989 
L 733.669748 628.297885 
L 734.61639 628.87658 
L 735.563031 629.071671 
L 736.509672 629.757993 
L 737.456313 629.294019 
L 738.402954 629.80494 
L 739.349595 630.189237 
L 741.242878 631.583813 
L 742.189519 631.014218 
L 743.13616 631.154987 
L 744.082801 630.563342 
L 745.029442 628.512858 
L 745.976083 626.791996 
L 746.922724 625.506581 
L 747.869366 625.396756 
L 748.816007 624.618944 
L 750.709289 622.79249 
L 751.65593 621.290641 
L 752.602571 620.437282 
L 755.442495 615.660156 
L 757.335777 613.375982 
L 759.229059 612.667448 
L 760.1757 612.0321 
L 761.122342 611.813263 
L 762.068983 610.757349 
L 763.962265 611.152148 
L 764.908906 611.621328 
L 765.855547 612.698053 
L 767.74883 615.666365 
L 768.695471 616.616599 
L 769.642112 617.344086 
L 770.588753 618.381976 
L 771.535394 620.134535 
L 772.482035 621.420997 
L 773.428676 623.288647 
L 775.321959 626.05588 
L 776.2686 628.042941 
L 777.215241 629.495452 
L 778.161882 629.556913 
L 779.108523 630.728285 
L 780.055164 630.793154 
L 781.948447 631.400964 
L 782.895088 631.808933 
L 784.78837 632.247759 
L 786.681652 633.510356 
L 787.628293 634.916894 
L 788.574935 636.095006 
L 789.521576 636.99549 
L 790.468217 639.386907 
L 792.361499 643.004668 
L 793.30814 643.367018 
L 794.254781 644.088192 
L 795.201423 645.249667 
L 796.148064 646.09105 
L 797.094705 647.502012 
L 798.041346 648.258202 
L 798.987987 649.37096 
L 800.881269 652.732434 
L 801.827911 653.647858 
L 802.774552 654.876473 
L 803.721193 655.148925 
L 804.667834 655.811927 
L 805.614475 656.267287 
L 806.561116 656.529621 
L 807.507757 657.103965 
L 808.454399 656.297243 
L 809.40104 655.701897 
L 810.347681 655.568812 
L 811.294322 654.956017 
L 812.240963 654.725748 
L 813.187604 653.940635 
L 814.134245 652.157706 
L 815.080887 649.519029 
L 816.027528 647.277304 
L 816.974169 645.426882 
L 817.92081 645.09117 
L 819.814092 643.125628 
L 820.760733 641.989729 
L 822.654016 640.565728 
L 823.600657 638.323929 
L 824.547298 636.469038 
L 825.493939 634.98573 
L 826.44058 633.75533 
L 827.387221 631.939466 
L 828.333862 631.448177 
L 829.280504 630.043129 
L 830.227145 629.696782 
L 831.173786 628.861521 
L 832.120427 627.196101 
L 834.96035 625.759032 
L 835.906992 625.690167 
L 836.853633 625.30087 
L 837.800274 625.114201 
L 838.746915 624.673591 
L 839.693556 622.170977 
L 840.640197 621.971211 
L 841.586838 622.048247 
L 844.426762 621.823864 
L 845.373403 621.749571 
L 846.320044 621.792551 
L 847.266685 622.156538 
L 848.213326 622.303472 
L 849.159968 622.877004 
L 850.106609 623.159383 
L 851.05325 623.754287 
L 851.999891 624.207139 
L 852.946532 624.383499 
L 853.893173 626.017649 
L 854.839814 627.047899 
L 855.786456 627.46494 
L 857.679738 628.963292 
L 858.626379 630.165152 
L 861.466302 637.187042 
L 862.412944 638.653167 
L 863.359585 639.2835 
L 865.252867 640.959775 
L 866.199508 642.261547 
L 867.146149 642.646035 
L 868.09279 643.720858 
L 869.039432 646.685232 
L 869.986073 649.105499 
L 870.932714 650.938679 
L 871.879355 652.100523 
L 872.825996 654.017377 
L 873.772637 655.193159 
L 874.719278 656.716129 
L 875.66592 657.005956 
L 876.612561 657.843592 
L 877.559202 659.053121 
L 878.505843 659.407004 
L 879.452484 659.341767 
L 880.399125 659.466194 
L 881.345766 659.104685 
L 882.292407 659.63478 
L 883.239049 659.876347 
L 884.18569 660.356397 
L 885.132331 663.065429 
L 886.078972 663.565612 
L 887.025613 663.710555 
L 888.918895 664.25363 
L 889.865537 664.872974 
L 890.812178 664.619903 
L 891.758819 663.861014 
L 893.652101 663.722974 
L 895.545383 663.613297 
L 896.492025 663.619654 
L 897.438666 663.500007 
L 898.385307 663.630451 
L 900.278589 662.654052 
L 902.171871 662.366054 
L 903.118513 661.572563 
L 904.065154 661.018691 
L 905.011795 660.21818 
L 905.958436 660.230186 
L 907.851718 659.430057 
L 908.798359 658.678233 
L 909.745001 658.385132 
L 910.691642 657.676966 
L 911.638283 657.247802 
L 912.584924 657.713619 
L 913.531565 657.101679 
L 915.424847 656.190325 
L 916.371489 655.46856 
L 917.31813 655.189073 
L 918.264771 654.682768 
L 920.158053 654.841251 
L 921.104694 655.240253 
L 922.997977 655.73203 
L 923.944618 655.520006 
L 924.891259 655.683637 
L 925.8379 655.973286 
L 926.784541 656.553146 
L 927.731182 656.490859 
L 928.677823 656.580507 
L 932.464388 656.408528 
L 933.411029 656.364162 
L 935.304311 656.699004 
L 936.250952 656.842074 
L 937.197594 657.614709 
L 938.144235 657.702232 
L 940.037517 658.207814 
L 941.930799 658.024257 
L 943.824082 658.479484 
L 945.717364 659.409245 
L 946.664005 659.653157 
L 947.610646 659.583716 
L 948.557287 660.240465 
L 951.397211 661.73311 
L 952.343852 662.512323 
L 953.290493 663.500168 
L 954.237134 664.294072 
L 955.183775 664.687779 
L 956.130416 665.490474 
L 958.023699 665.860523 
L 958.97034 666.42528 
L 959.916981 666.623483 
L 963.703546 668.893955 
L 964.650187 669.266083 
L 965.596828 669.440909 
L 968.436751 669.622946 
L 970.330034 670.72473 
L 971.276675 671.006238 
L 973.169957 671.211683 
L 974.116598 671.082183 
L 976.00988 671.297142 
L 977.903163 670.379077 
L 978.849804 670.357513 
L 979.796445 670.181124 
L 980.743086 670.14872 
L 981.689727 670.442514 
L 982.636368 670.494373 
L 983.58301 670.708388 
L 985.476292 670.823065 
L 987.369574 671.279619 
L 990.209497 671.332511 
L 992.10278 671.113954 
L 993.049421 671.209279 
L 993.996062 670.697164 
L 995.889344 670.142555 
L 996.835985 669.628477 
L 997.782627 669.26952 
L 999.675909 668.163857 
L 1001.569191 667.630694 
L 1002.515832 667.590221 
L 1003.462473 667.00132 
L 1004.409115 666.675416 
L 1006.302397 666.500635 
L 1007.249038 666.582199 
L 1008.195679 666.064405 
L 1009.14232 665.783221 
L 1010.088961 665.350841 
L 1011.035603 665.070114 
L 1011.982244 664.56353 
L 1013.875526 664.154955 
L 1014.822167 663.470035 
L 1015.768808 663.111888 
L 1016.715449 662.94314 
L 1017.662091 662.605864 
L 1018.608732 661.990842 
L 1019.555373 661.021818 
L 1021.448655 661.008307 
L 1023.341937 661.937493 
L 1024.288579 661.874277 
L 1025.23522 662.008069 
L 1026.181861 662.00155 
L 1028.075143 661.564745 
L 1029.021784 660.655707 
L 1031.861708 659.142059 
L 1032.808349 658.476313 
L 1034.701631 657.539723 
L 1035.648272 657.087564 
L 1036.594913 656.920629 
L 1037.541555 656.8947 
L 1038.488196 656.654195 
L 1039.434837 656.95827 
L 1040.381478 657.133877 
L 1044.168042 657.330531 
L 1045.114684 657.75769 
L 1046.061325 657.704327 
L 1047.007966 657.31 
L 1047.954607 657.255825 
L 1048.901248 656.986825 
L 1049.847889 657.032253 
L 1050.79453 656.900659 
L 1051.741172 656.56092 
L 1052.687813 655.978258 
L 1055.527736 655.445257 
L 1056.474377 652.703481 
L 1057.421018 646.293929 
L 1058.36766 637.410526 
L 1059.314301 627.280484 
L 1060.260942 620.052101 
L 1061.207583 616.334531 
L 1062.154224 614.556293 
L 1063.100865 614.075402 
L 1064.047506 614.160491 
L 1064.994148 614.53995 
L 1066.88743 612.406235 
L 1067.834071 611.490575 
L 1069.727353 610.157298 
L 1071.620636 608.523442 
L 1073.513918 607.261213 
L 1075.4072 607.590775 
L 1076.353841 607.329562 
L 1077.300482 606.088086 
L 1081.087047 602.495311 
L 1082.033688 601.469073 
L 1082.980329 599.498532 
L 1083.92697 598.237852 
L 1084.873612 597.297471 
L 1085.820253 596.09893 
L 1086.766894 595.095908 
L 1088.660176 592.76166 
L 1089.606817 590.462707 
L 1091.5001 588.689853 
L 1094.340023 587.552153 
L 1095.286664 586.934269 
L 1096.233305 585.612704 
L 1097.179946 584.589077 
L 1098.126587 583.242688 
L 1099.073229 581.55504 
L 1100.01987 580.649173 
L 1100.966511 579.575797 
L 1101.913152 581.070388 
L 1102.859793 586.76465 
L 1105.699717 607.302836 
L 1106.646358 609.221872 
L 1107.592999 609.976823 
L 1109.486281 608.11969 
L 1110.432922 607.862681 
L 1111.379563 607.826648 
L 1113.272846 606.430612 
L 1115.166128 603.196013 
L 1116.112769 601.805375 
L 1117.05941 600.699255 
L 1118.952693 599.450035 
L 1120.845975 597.572032 
L 1121.792616 596.915253 
L 1122.739257 596.453728 
L 1123.685898 597.165389 
L 1126.525822 599.787119 
L 1127.472463 601.143892 
L 1128.419104 602.806981 
L 1129.365745 603.971421 
L 1130.312386 603.105746 
L 1132.205669 605.383283 
L 1133.15231 606.805646 
L 1134.098951 607.649522 
L 1135.045592 609.626081 
L 1136.938874 611.287917 
L 1137.885515 612.068974 
L 1138.832157 612.523537 
L 1139.778798 613.495792 
L 1140.725439 614.150313 
L 1142.618721 617.009082 
L 1144.512003 621.084489 
L 1147.351927 625.06954 
L 1148.298568 625.520844 
L 1149.245209 626.922661 
L 1150.19185 629.415687 
L 1152.085132 632.910201 
L 1153.031774 633.751009 
L 1154.925056 636.758761 
L 1155.871697 637.282706 
L 1156.818338 638.260993 
L 1158.71162 641.588366 
L 1160.604903 646.243117 
L 1161.551544 648.167979 
L 1162.498185 649.808413 
L 1164.391467 652.276365 
L 1165.338108 653.225316 
L 1166.28475 654.392558 
L 1167.231391 654.905647 
L 1168.178032 656.595949 
L 1169.124673 656.94352 
L 1170.071314 656.939022 
L 1171.964596 657.367051 
L 1172.911238 656.05696 
L 1173.857879 655.31378 
L 1174.80452 654.393384 
L 1175.751161 655.514697 
L 1176.697802 654.545643 
L 1177.644443 653.821238 
L 1179.537726 652.739823 
L 1180.484367 651.753335 
L 1181.431008 649.225073 
L 1182.377649 648.066695 
L 1183.32429 646.383207 
L 1184.270931 644.955003 
L 1186.164214 640.759433 
L 1189.004137 635.145643 
L 1189.950778 633.857072 
L 1190.897419 631.513591 
L 1191.84406 629.58948 
L 1192.790702 626.412035 
L 1195.630625 621.018441 
L 1196.577266 618.497877 
L 1197.523907 616.976191 
L 1198.470548 615.001549 
L 1199.41719 612.465616 
L 1200.363831 610.703308 
L 1201.310472 609.481256 
L 1204.150395 604.834722 
L 1205.097036 602.565961 
L 1206.043677 601.107151 
L 1206.990319 600.006474 
L 1207.93696 599.258809 
L 1208.883601 598.005356 
L 1209.830242 596.444982 
L 1210.776883 595.58919 
L 1211.723524 594.36997 
L 1212.670165 593.518691 
L 1217.403371 590.937536 
L 1218.350012 591.66933 
L 1219.296653 591.807843 
L 1220.243295 592.219013 
L 1221.189936 591.974924 
L 1222.136577 591.068069 
L 1223.083218 590.774835 
L 1224.029859 590.787166 
L 1224.9765 590.964115 
L 1225.923141 591.577368 
L 1226.869783 593.469723 
L 1227.816424 593.842928 
L 1228.763065 594.8689 
L 1229.709706 595.50056 
L 1230.656347 597.122071 
L 1231.602988 597.810324 
L 1232.549629 598.187114 
L 1233.496271 598.324225 
L 1235.389553 597.553684 
L 1236.336194 597.565159 
L 1237.282835 598.537162 
L 1238.229476 600.144926 
L 1242.016041 601.93551 
L 1242.962682 602.173198 
L 1243.909323 603.092206 
L 1244.855964 604.416117 
L 1245.802605 605.93655 
L 1247.695888 607.834377 
L 1248.642529 608.501273 
L 1249.58917 609.378792 
L 1250.535811 610.854445 
L 1252.429093 613.038515 
L 1254.322376 613.998498 
L 1255.269017 614.883907 
L 1256.215658 615.046845 
L 1257.162299 614.43576 
L 1258.10894 614.644273 
L 1260.002222 612.677197 
L 1260.948864 612.1593 
L 1260.948864 612.1593 
" style="fill:none;stroke:#ff0000;stroke-linecap:square;stroke-width:1.5;"/>
   </g>
   <g id="patch_3">
    <path d="M 69.175 719.2 
L 69.175 14.3 
" style="fill:none;stroke:#000000;stroke-linecap:square;stroke-linejoin:miter;stroke-width:0.8;"/>
   </g>
   <g id="patch_4">
    <path d="M 1317.7 719.2 
L 1317.7 14.3 
" style="fill:none;stroke:#000000;stroke-linecap:square;stroke-linejoin:miter;stroke-width:0.8;"/>
   </g>
   <g id="patch_5">
    <path d="M 69.175 719.2 
L 1317.7 719.2 
" style="fill:none;stroke:#000000;stroke-linecap:square;stroke-linejoin:miter;stroke-width:0.8;"/>
   </g>
   <g id="patch_6">
    <path d="M 69.175 14.3 
L 1317.7 14.3 
" style="fill:none;stroke:#000000;stroke-linecap:square;stroke-linejoin:miter;stroke-width:0.8;"/>
   </g>
   <g id="legend_1">
    <g id="patch_7">
     <path d="M 83.175 177.08125 
L 415.121875 177.08125 
Q 419.121875 177.08125 419.121875 173.08125 
L 419.121875 28.3 
Q 419.121875 24.3 415.121875 24.3 
L 83.175 24.3 
Q 79.175 24.3 79.175 28.3 
L 79.175 173.08125 
Q 79.175 177.08125 83.175 177.08125 
z
" style="fill:#ffffff;opacity:0.8;stroke:#cccccc;stroke-linejoin:miter;"/>
    </g>
    <g id="line2d_22">
     <path d="M 87.175 40.496875 
L 127.175 40.496875 
" style="fill:none;stroke:#000000;stroke-linecap:square;stroke-width:1.5;"/>
    </g>
    <g id="line2d_23"/>
    <g id="text_19">
     <!-- Unused Data -->
     <defs>
      <path d="M 8.6875 72.90625 
L 18.609375 72.90625 
L 18.609375 28.609375 
Q 18.609375 16.890625 22.84375 11.734375 
Q 27.09375 6.59375 36.625 6.59375 
Q 46.09375 6.59375 50.34375 11.734375 
Q 54.59375 16.890625 54.59375 28.609375 
L 54.59375 72.90625 
L 64.5 72.90625 
L 64.5 27.390625 
Q 64.5 13.140625 57.4375 5.859375 
Q 50.390625 -1.421875 36.625 -1.421875 
Q 22.796875 -1.421875 15.734375 5.859375 
Q 8.6875 13.140625 8.6875 27.390625 
z
" id="DejaVuSans-55"/>
      <path d="M 19.671875 64.796875 
L 19.671875 8.109375 
L 31.59375 8.109375 
Q 46.6875 8.109375 53.6875 14.9375 
Q 60.6875 21.78125 60.6875 36.53125 
Q 60.6875 51.171875 53.6875 57.984375 
Q 46.6875 64.796875 31.59375 64.796875 
z
M 9.8125 72.90625 
L 30.078125 72.90625 
Q 51.265625 72.90625 61.171875 64.09375 
Q 71.09375 55.28125 71.09375 36.53125 
Q 71.09375 17.671875 61.125 8.828125 
Q 51.171875 0 30.078125 0 
L 9.8125 0 
z
" id="DejaVuSans-44"/>
     </defs>
     <g transform="translate(143.175 47.496875)scale(0.2 -0.2)">
      <use xlink:href="#DejaVuSans-55"/>
      <use x="73.193359" xlink:href="#DejaVuSans-6e"/>
      <use x="136.572266" xlink:href="#DejaVuSans-75"/>
      <use x="199.951172" xlink:href="#DejaVuSans-73"/>
      <use x="252.050781" xlink:href="#DejaVuSans-65"/>
      <use x="313.574219" xlink:href="#DejaVuSans-64"/>
      <use x="377.050781" xlink:href="#DejaVuSans-20"/>
      <use x="408.837891" xlink:href="#DejaVuSans-44"/>
      <use x="485.839844" xlink:href="#DejaVuSans-61"/>
      <use x="547.119141" xlink:href="#DejaVuSans-74"/>
      <use x="586.328125" xlink:href="#DejaVuSans-61"/>
     </g>
    </g>
    <g id="line2d_24">
     <path d="M 87.175 69.853125 
L 127.175 69.853125 
" style="fill:none;stroke:#1f77b4;stroke-linecap:square;stroke-width:1.5;"/>
    </g>
    <g id="line2d_25"/>
    <g id="text_20">
     <!-- Training Data -->
     <defs>
      <path d="M -0.296875 72.90625 
L 61.375 72.90625 
L 61.375 64.59375 
L 35.5 64.59375 
L 35.5 0 
L 25.59375 0 
L 25.59375 64.59375 
L -0.296875 64.59375 
z
" id="DejaVuSans-54"/>
      <path d="M 41.109375 46.296875 
Q 39.59375 47.171875 37.8125 47.578125 
Q 36.03125 48 33.890625 48 
Q 26.265625 48 22.1875 43.046875 
Q 18.109375 38.09375 18.109375 28.8125 
L 18.109375 0 
L 9.078125 0 
L 9.078125 54.6875 
L 18.109375 54.6875 
L 18.109375 46.1875 
Q 20.953125 51.171875 25.484375 53.578125 
Q 30.03125 56 36.53125 56 
Q 37.453125 56 38.578125 55.875 
Q 39.703125 55.765625 41.0625 55.515625 
z
" id="DejaVuSans-72"/>
      <path d="M 45.40625 27.984375 
Q 45.40625 37.75 41.375 43.109375 
Q 37.359375 48.484375 30.078125 48.484375 
Q 22.859375 48.484375 18.828125 43.109375 
Q 14.796875 37.75 14.796875 27.984375 
Q 14.796875 18.265625 18.828125 12.890625 
Q 22.859375 7.515625 30.078125 7.515625 
Q 37.359375 7.515625 41.375 12.890625 
Q 45.40625 18.265625 45.40625 27.984375 
z
M 54.390625 6.78125 
Q 54.390625 -7.171875 48.1875 -13.984375 
Q 42 -20.796875 29.203125 -20.796875 
Q 24.46875 -20.796875 20.265625 -20.09375 
Q 16.0625 -19.390625 12.109375 -17.921875 
L 12.109375 -9.1875 
Q 16.0625 -11.328125 19.921875 -12.34375 
Q 23.78125 -13.375 27.78125 -13.375 
Q 36.625 -13.375 41.015625 -8.765625 
Q 45.40625 -4.15625 45.40625 5.171875 
L 45.40625 9.625 
Q 42.625 4.78125 38.28125 2.390625 
Q 33.9375 0 27.875 0 
Q 17.828125 0 11.671875 7.65625 
Q 5.515625 15.328125 5.515625 27.984375 
Q 5.515625 40.671875 11.671875 48.328125 
Q 17.828125 56 27.875 56 
Q 33.9375 56 38.28125 53.609375 
Q 42.625 51.21875 45.40625 46.390625 
L 45.40625 54.6875 
L 54.390625 54.6875 
z
" id="DejaVuSans-67"/>
     </defs>
     <g transform="translate(143.175 76.853125)scale(0.2 -0.2)">
      <use xlink:href="#DejaVuSans-54"/>
      <use x="60.865234" xlink:href="#DejaVuSans-72"/>
      <use x="101.978516" xlink:href="#DejaVuSans-61"/>
      <use x="163.257812" xlink:href="#DejaVuSans-69"/>
      <use x="191.041016" xlink:href="#DejaVuSans-6e"/>
      <use x="254.419922" xlink:href="#DejaVuSans-69"/>
      <use x="282.203125" xlink:href="#DejaVuSans-6e"/>
      <use x="345.582031" xlink:href="#DejaVuSans-67"/>
      <use x="409.058594" xlink:href="#DejaVuSans-20"/>
      <use x="440.845703" xlink:href="#DejaVuSans-44"/>
      <use x="517.847656" xlink:href="#DejaVuSans-61"/>
      <use x="579.126953" xlink:href="#DejaVuSans-74"/>
      <use x="618.335938" xlink:href="#DejaVuSans-61"/>
     </g>
    </g>
    <g id="line2d_26">
     <path d="M 87.175 99.209375 
L 127.175 99.209375 
" style="fill:none;stroke:#ff7f0e;stroke-linecap:square;stroke-width:1.5;"/>
    </g>
    <g id="line2d_27"/>
    <g id="text_21">
     <!-- Validation Data -->
     <defs>
      <path d="M 28.609375 0 
L 0.78125 72.90625 
L 11.078125 72.90625 
L 34.1875 11.53125 
L 57.328125 72.90625 
L 67.578125 72.90625 
L 39.796875 0 
z
" id="DejaVuSans-56"/>
      <path d="M 9.421875 75.984375 
L 18.40625 75.984375 
L 18.40625 0 
L 9.421875 0 
z
" id="DejaVuSans-6c"/>
      <path d="M 30.609375 48.390625 
Q 23.390625 48.390625 19.1875 42.75 
Q 14.984375 37.109375 14.984375 27.296875 
Q 14.984375 17.484375 19.15625 11.84375 
Q 23.34375 6.203125 30.609375 6.203125 
Q 37.796875 6.203125 41.984375 11.859375 
Q 46.1875 17.53125 46.1875 27.296875 
Q 46.1875 37.015625 41.984375 42.703125 
Q 37.796875 48.390625 30.609375 48.390625 
z
M 30.609375 56 
Q 42.328125 56 49.015625 48.375 
Q 55.71875 40.765625 55.71875 27.296875 
Q 55.71875 13.875 49.015625 6.21875 
Q 42.328125 -1.421875 30.609375 -1.421875 
Q 18.84375 -1.421875 12.171875 6.21875 
Q 5.515625 13.875 5.515625 27.296875 
Q 5.515625 40.765625 12.171875 48.375 
Q 18.84375 56 30.609375 56 
z
" id="DejaVuSans-6f"/>
     </defs>
     <g transform="translate(143.175 106.209375)scale(0.2 -0.2)">
      <use xlink:href="#DejaVuSans-56"/>
      <use x="68.298828" xlink:href="#DejaVuSans-61"/>
      <use x="129.578125" xlink:href="#DejaVuSans-6c"/>
      <use x="157.361328" xlink:href="#DejaVuSans-69"/>
      <use x="185.144531" xlink:href="#DejaVuSans-64"/>
      <use x="248.621094" xlink:href="#DejaVuSans-61"/>
      <use x="309.900391" xlink:href="#DejaVuSans-74"/>
      <use x="349.109375" xlink:href="#DejaVuSans-69"/>
      <use x="376.892578" xlink:href="#DejaVuSans-6f"/>
      <use x="438.074219" xlink:href="#DejaVuSans-6e"/>
      <use x="501.453125" xlink:href="#DejaVuSans-20"/>
      <use x="533.240234" xlink:href="#DejaVuSans-44"/>
      <use x="610.242188" xlink:href="#DejaVuSans-61"/>
      <use x="671.521484" xlink:href="#DejaVuSans-74"/>
      <use x="710.730469" xlink:href="#DejaVuSans-61"/>
     </g>
    </g>
    <g id="line2d_28">
     <path d="M 87.175 128.565625 
L 127.175 128.565625 
" style="fill:none;stroke:#2ca02c;stroke-linecap:square;stroke-width:1.5;"/>
    </g>
    <g id="line2d_29"/>
    <g id="text_22">
     <!-- Testing Data -->
     <g transform="translate(143.175 135.565625)scale(0.2 -0.2)">
      <use xlink:href="#DejaVuSans-54"/>
      <use x="60.818359" xlink:href="#DejaVuSans-65"/>
      <use x="122.341797" xlink:href="#DejaVuSans-73"/>
      <use x="174.441406" xlink:href="#DejaVuSans-74"/>
      <use x="213.650391" xlink:href="#DejaVuSans-69"/>
      <use x="241.433594" xlink:href="#DejaVuSans-6e"/>
      <use x="304.8125" xlink:href="#DejaVuSans-67"/>
      <use x="368.289062" xlink:href="#DejaVuSans-20"/>
      <use x="400.076172" xlink:href="#DejaVuSans-44"/>
      <use x="477.078125" xlink:href="#DejaVuSans-61"/>
      <use x="538.357422" xlink:href="#DejaVuSans-74"/>
      <use x="577.566406" xlink:href="#DejaVuSans-61"/>
     </g>
    </g>
    <g id="line2d_30">
     <path d="M 87.175 157.921875 
L 127.175 157.921875 
" style="fill:none;stroke:#ff0000;stroke-linecap:square;stroke-width:1.5;"/>
    </g>
    <g id="line2d_31"/>
    <g id="text_23">
     <!-- Moving average (48 steps) -->
     <defs>
      <path d="M 2.984375 54.6875 
L 12.5 54.6875 
L 29.59375 8.796875 
L 46.6875 54.6875 
L 56.203125 54.6875 
L 35.6875 0 
L 23.484375 0 
z
" id="DejaVuSans-76"/>
     </defs>
     <g transform="translate(143.175 164.921875)scale(0.2 -0.2)">
      <use xlink:href="#DejaVuSans-4d"/>
      <use x="86.279297" xlink:href="#DejaVuSans-6f"/>
      <use x="147.460938" xlink:href="#DejaVuSans-76"/>
      <use x="206.640625" xlink:href="#DejaVuSans-69"/>
      <use x="234.423828" xlink:href="#DejaVuSans-6e"/>
      <use x="297.802734" xlink:href="#DejaVuSans-67"/>
      <use x="361.279297" xlink:href="#DejaVuSans-20"/>
      <use x="393.066406" xlink:href="#DejaVuSans-61"/>
      <use x="454.345703" xlink:href="#DejaVuSans-76"/>
      <use x="513.525391" xlink:href="#DejaVuSans-65"/>
      <use x="575.048828" xlink:href="#DejaVuSans-72"/>
      <use x="616.162109" xlink:href="#DejaVuSans-61"/>
      <use x="677.441406" xlink:href="#DejaVuSans-67"/>
      <use x="740.917969" xlink:href="#DejaVuSans-65"/>
      <use x="802.441406" xlink:href="#DejaVuSans-20"/>
      <use x="834.228516" xlink:href="#DejaVuSans-28"/>
      <use x="873.242188" xlink:href="#DejaVuSans-34"/>
      <use x="936.865234" xlink:href="#DejaVuSans-38"/>
      <use x="1000.488281" xlink:href="#DejaVuSans-20"/>
      <use x="1032.275391" xlink:href="#DejaVuSans-73"/>
      <use x="1084.375" xlink:href="#DejaVuSans-74"/>
      <use x="1123.583984" xlink:href="#DejaVuSans-65"/>
      <use x="1185.107422" xlink:href="#DejaVuSans-70"/>
      <use x="1248.583984" xlink:href="#DejaVuSans-73"/>
      <use x="1300.683594" xlink:href="#DejaVuSans-29"/>
     </g>
    </g>
   </g>
  </g>
 </g>
 <defs>
  <clipPath id="pb6e9673954">
   <rect height="704.9" width="1248.525" x="69.175" y="14.3"/>
  </clipPath>
 </defs>
</svg>
