<?xml version="1.0" encoding="utf-8" standalone="no"?>
<!DOCTYPE svg PUBLIC "-//W3C//DTD SVG 1.1//EN"
  "http://www.w3.org/Graphics/SVG/1.1/DTD/svg11.dtd">
<!-- Created with matplotlib (http://matplotlib.org/) -->
<svg height="756pt" version="1.1" viewBox="0 0 1332 756" width="1332pt" xmlns="http://www.w3.org/2000/svg" xmlns:xlink="http://www.w3.org/1999/xlink">
 <defs>
  <style type="text/css">
*{stroke-linecap:butt;stroke-linejoin:round;}
  </style>
 </defs>
 <g id="figure_1">
  <g id="patch_1">
   <path d="M 0 756 
L 1332 756 
L 1332 0 
L 0 0 
z
" style="fill:#ffffff;"/>
  </g>
  <g id="axes_1">
   <g id="patch_2">
    <path d="M 69.175 719.2 
L 1317.7 719.2 
L 1317.7 14.3 
L 69.175 14.3 
z
" style="fill:#ffffff;"/>
   </g>
   <g id="matplotlib.axis_1">
    <g id="xtick_1">
     <g id="line2d_1">
      <defs>
       <path d="M 0 0 
L 0 3.5 
" id="m7eddb7c075" style="stroke:#000000;stroke-width:0.8;"/>
      </defs>
      <g>
       <use style="stroke:#000000;stroke-width:0.8;" x="125.926136" xlink:href="#m7eddb7c075" y="719.2"/>
      </g>
     </g>
     <g id="text_1">
      <!-- 0 -->
      <defs>
       <path d="M 31.78125 66.40625 
Q 24.171875 66.40625 20.328125 58.90625 
Q 16.5 51.421875 16.5 36.375 
Q 16.5 21.390625 20.328125 13.890625 
Q 24.171875 6.390625 31.78125 6.390625 
Q 39.453125 6.390625 43.28125 13.890625 
Q 47.125 21.390625 47.125 36.375 
Q 47.125 51.421875 43.28125 58.90625 
Q 39.453125 66.40625 31.78125 66.40625 
z
M 31.78125 74.21875 
Q 44.046875 74.21875 50.515625 64.515625 
Q 56.984375 54.828125 56.984375 36.375 
Q 56.984375 17.96875 50.515625 8.265625 
Q 44.046875 -1.421875 31.78125 -1.421875 
Q 19.53125 -1.421875 13.0625 8.265625 
Q 6.59375 17.96875 6.59375 36.375 
Q 6.59375 54.828125 13.0625 64.515625 
Q 19.53125 74.21875 31.78125 74.21875 
z
" id="DejaVuSans-30"/>
      </defs>
      <g transform="translate(119.563636 741.396875)scale(0.2 -0.2)">
       <use xlink:href="#DejaVuSans-30"/>
      </g>
     </g>
    </g>
    <g id="xtick_2">
     <g id="line2d_2">
      <g>
       <use style="stroke:#000000;stroke-width:0.8;" x="315.254364" xlink:href="#m7eddb7c075" y="719.2"/>
      </g>
     </g>
     <g id="text_2">
      <!-- 200 -->
      <defs>
       <path d="M 19.1875 8.296875 
L 53.609375 8.296875 
L 53.609375 0 
L 7.328125 0 
L 7.328125 8.296875 
Q 12.9375 14.109375 22.625 23.890625 
Q 32.328125 33.6875 34.8125 36.53125 
Q 39.546875 41.84375 41.421875 45.53125 
Q 43.3125 49.21875 43.3125 52.78125 
Q 43.3125 58.59375 39.234375 62.25 
Q 35.15625 65.921875 28.609375 65.921875 
Q 23.96875 65.921875 18.8125 64.3125 
Q 13.671875 62.703125 7.8125 59.421875 
L 7.8125 69.390625 
Q 13.765625 71.78125 18.9375 73 
Q 24.125 74.21875 28.421875 74.21875 
Q 39.75 74.21875 46.484375 68.546875 
Q 53.21875 62.890625 53.21875 53.421875 
Q 53.21875 48.921875 51.53125 44.890625 
Q 49.859375 40.875 45.40625 35.40625 
Q 44.1875 33.984375 37.640625 27.21875 
Q 31.109375 20.453125 19.1875 8.296875 
z
" id="DejaVuSans-32"/>
      </defs>
      <g transform="translate(296.166864 741.396875)scale(0.2 -0.2)">
       <use xlink:href="#DejaVuSans-32"/>
       <use x="63.623047" xlink:href="#DejaVuSans-30"/>
       <use x="127.246094" xlink:href="#DejaVuSans-30"/>
      </g>
     </g>
    </g>
    <g id="xtick_3">
     <g id="line2d_3">
      <g>
       <use style="stroke:#000000;stroke-width:0.8;" x="504.582593" xlink:href="#m7eddb7c075" y="719.2"/>
      </g>
     </g>
     <g id="text_3">
      <!-- 400 -->
      <defs>
       <path d="M 37.796875 64.3125 
L 12.890625 25.390625 
L 37.796875 25.390625 
z
M 35.203125 72.90625 
L 47.609375 72.90625 
L 47.609375 25.390625 
L 58.015625 25.390625 
L 58.015625 17.1875 
L 47.609375 17.1875 
L 47.609375 0 
L 37.796875 0 
L 37.796875 17.1875 
L 4.890625 17.1875 
L 4.890625 26.703125 
z
" id="DejaVuSans-34"/>
      </defs>
      <g transform="translate(485.495093 741.396875)scale(0.2 -0.2)">
       <use xlink:href="#DejaVuSans-34"/>
       <use x="63.623047" xlink:href="#DejaVuSans-30"/>
       <use x="127.246094" xlink:href="#DejaVuSans-30"/>
      </g>
     </g>
    </g>
    <g id="xtick_4">
     <g id="line2d_4">
      <g>
       <use style="stroke:#000000;stroke-width:0.8;" x="693.910821" xlink:href="#m7eddb7c075" y="719.2"/>
      </g>
     </g>
     <g id="text_4">
      <!-- 600 -->
      <defs>
       <path d="M 33.015625 40.375 
Q 26.375 40.375 22.484375 35.828125 
Q 18.609375 31.296875 18.609375 23.390625 
Q 18.609375 15.53125 22.484375 10.953125 
Q 26.375 6.390625 33.015625 6.390625 
Q 39.65625 6.390625 43.53125 10.953125 
Q 47.40625 15.53125 47.40625 23.390625 
Q 47.40625 31.296875 43.53125 35.828125 
Q 39.65625 40.375 33.015625 40.375 
z
M 52.59375 71.296875 
L 52.59375 62.3125 
Q 48.875 64.0625 45.09375 64.984375 
Q 41.3125 65.921875 37.59375 65.921875 
Q 27.828125 65.921875 22.671875 59.328125 
Q 17.53125 52.734375 16.796875 39.40625 
Q 19.671875 43.65625 24.015625 45.921875 
Q 28.375 48.1875 33.59375 48.1875 
Q 44.578125 48.1875 50.953125 41.515625 
Q 57.328125 34.859375 57.328125 23.390625 
Q 57.328125 12.15625 50.6875 5.359375 
Q 44.046875 -1.421875 33.015625 -1.421875 
Q 20.359375 -1.421875 13.671875 8.265625 
Q 6.984375 17.96875 6.984375 36.375 
Q 6.984375 53.65625 15.1875 63.9375 
Q 23.390625 74.21875 37.203125 74.21875 
Q 40.921875 74.21875 44.703125 73.484375 
Q 48.484375 72.75 52.59375 71.296875 
z
" id="DejaVuSans-36"/>
      </defs>
      <g transform="translate(674.823321 741.396875)scale(0.2 -0.2)">
       <use xlink:href="#DejaVuSans-36"/>
       <use x="63.623047" xlink:href="#DejaVuSans-30"/>
       <use x="127.246094" xlink:href="#DejaVuSans-30"/>
      </g>
     </g>
    </g>
    <g id="xtick_5">
     <g id="line2d_5">
      <g>
       <use style="stroke:#000000;stroke-width:0.8;" x="883.239049" xlink:href="#m7eddb7c075" y="719.2"/>
      </g>
     </g>
     <g id="text_5">
      <!-- 800 -->
      <defs>
       <path d="M 31.78125 34.625 
Q 24.75 34.625 20.71875 30.859375 
Q 16.703125 27.09375 16.703125 20.515625 
Q 16.703125 13.921875 20.71875 10.15625 
Q 24.75 6.390625 31.78125 6.390625 
Q 38.8125 6.390625 42.859375 10.171875 
Q 46.921875 13.96875 46.921875 20.515625 
Q 46.921875 27.09375 42.890625 30.859375 
Q 38.875 34.625 31.78125 34.625 
z
M 21.921875 38.8125 
Q 15.578125 40.375 12.03125 44.71875 
Q 8.5 49.078125 8.5 55.328125 
Q 8.5 64.0625 14.71875 69.140625 
Q 20.953125 74.21875 31.78125 74.21875 
Q 42.671875 74.21875 48.875 69.140625 
Q 55.078125 64.0625 55.078125 55.328125 
Q 55.078125 49.078125 51.53125 44.71875 
Q 48 40.375 41.703125 38.8125 
Q 48.828125 37.15625 52.796875 32.3125 
Q 56.78125 27.484375 56.78125 20.515625 
Q 56.78125 9.90625 50.3125 4.234375 
Q 43.84375 -1.421875 31.78125 -1.421875 
Q 19.734375 -1.421875 13.25 4.234375 
Q 6.78125 9.90625 6.78125 20.515625 
Q 6.78125 27.484375 10.78125 32.3125 
Q 14.796875 37.15625 21.921875 38.8125 
z
M 18.3125 54.390625 
Q 18.3125 48.734375 21.84375 45.5625 
Q 25.390625 42.390625 31.78125 42.390625 
Q 38.140625 42.390625 41.71875 45.5625 
Q 45.3125 48.734375 45.3125 54.390625 
Q 45.3125 60.0625 41.71875 63.234375 
Q 38.140625 66.40625 31.78125 66.40625 
Q 25.390625 66.40625 21.84375 63.234375 
Q 18.3125 60.0625 18.3125 54.390625 
z
" id="DejaVuSans-38"/>
      </defs>
      <g transform="translate(864.151549 741.396875)scale(0.2 -0.2)">
       <use xlink:href="#DejaVuSans-38"/>
       <use x="63.623047" xlink:href="#DejaVuSans-30"/>
       <use x="127.246094" xlink:href="#DejaVuSans-30"/>
      </g>
     </g>
    </g>
    <g id="xtick_6">
     <g id="line2d_6">
      <g>
       <use style="stroke:#000000;stroke-width:0.8;" x="1072.567277" xlink:href="#m7eddb7c075" y="719.2"/>
      </g>
     </g>
     <g id="text_6">
      <!-- 1000 -->
      <defs>
       <path d="M 12.40625 8.296875 
L 28.515625 8.296875 
L 28.515625 63.921875 
L 10.984375 60.40625 
L 10.984375 69.390625 
L 28.421875 72.90625 
L 38.28125 72.90625 
L 38.28125 8.296875 
L 54.390625 8.296875 
L 54.390625 0 
L 12.40625 0 
z
" id="DejaVuSans-31"/>
      </defs>
      <g transform="translate(1047.117277 741.396875)scale(0.2 -0.2)">
       <use xlink:href="#DejaVuSans-31"/>
       <use x="63.623047" xlink:href="#DejaVuSans-30"/>
       <use x="127.246094" xlink:href="#DejaVuSans-30"/>
       <use x="190.869141" xlink:href="#DejaVuSans-30"/>
      </g>
     </g>
    </g>
    <g id="xtick_7">
     <g id="line2d_7">
      <g>
       <use style="stroke:#000000;stroke-width:0.8;" x="1261.895505" xlink:href="#m7eddb7c075" y="719.2"/>
      </g>
     </g>
     <g id="text_7">
      <!-- 1200 -->
      <g transform="translate(1236.445505 741.396875)scale(0.2 -0.2)">
       <use xlink:href="#DejaVuSans-31"/>
       <use x="63.623047" xlink:href="#DejaVuSans-32"/>
       <use x="127.246094" xlink:href="#DejaVuSans-30"/>
       <use x="190.869141" xlink:href="#DejaVuSans-30"/>
      </g>
     </g>
    </g>
    <g id="text_8">
     <!-- 15-Minute Steps -->
     <defs>
      <path d="M 10.796875 72.90625 
L 49.515625 72.90625 
L 49.515625 64.59375 
L 19.828125 64.59375 
L 19.828125 46.734375 
Q 21.96875 47.46875 24.109375 47.828125 
Q 26.265625 48.1875 28.421875 48.1875 
Q 40.625 48.1875 47.75 41.5 
Q 54.890625 34.8125 54.890625 23.390625 
Q 54.890625 11.625 47.5625 5.09375 
Q 40.234375 -1.421875 26.90625 -1.421875 
Q 22.3125 -1.421875 17.546875 -0.640625 
Q 12.796875 0.140625 7.71875 1.703125 
L 7.71875 11.625 
Q 12.109375 9.234375 16.796875 8.0625 
Q 21.484375 6.890625 26.703125 6.890625 
Q 35.15625 6.890625 40.078125 11.328125 
Q 45.015625 15.765625 45.015625 23.390625 
Q 45.015625 31 40.078125 35.4375 
Q 35.15625 39.890625 26.703125 39.890625 
Q 22.75 39.890625 18.8125 39.015625 
Q 14.890625 38.140625 10.796875 36.28125 
z
" id="DejaVuSans-35"/>
      <path d="M 4.890625 31.390625 
L 31.203125 31.390625 
L 31.203125 23.390625 
L 4.890625 23.390625 
z
" id="DejaVuSans-2d"/>
      <path d="M 9.8125 72.90625 
L 24.515625 72.90625 
L 43.109375 23.296875 
L 61.8125 72.90625 
L 76.515625 72.90625 
L 76.515625 0 
L 66.890625 0 
L 66.890625 64.015625 
L 48.09375 14.015625 
L 38.1875 14.015625 
L 19.390625 64.015625 
L 19.390625 0 
L 9.8125 0 
z
" id="DejaVuSans-4d"/>
      <path d="M 9.421875 54.6875 
L 18.40625 54.6875 
L 18.40625 0 
L 9.421875 0 
z
M 9.421875 75.984375 
L 18.40625 75.984375 
L 18.40625 64.59375 
L 9.421875 64.59375 
z
" id="DejaVuSans-69"/>
      <path d="M 54.890625 33.015625 
L 54.890625 0 
L 45.90625 0 
L 45.90625 32.71875 
Q 45.90625 40.484375 42.875 44.328125 
Q 39.84375 48.1875 33.796875 48.1875 
Q 26.515625 48.1875 22.3125 43.546875 
Q 18.109375 38.921875 18.109375 30.90625 
L 18.109375 0 
L 9.078125 0 
L 9.078125 54.6875 
L 18.109375 54.6875 
L 18.109375 46.1875 
Q 21.34375 51.125 25.703125 53.5625 
Q 30.078125 56 35.796875 56 
Q 45.21875 56 50.046875 50.171875 
Q 54.890625 44.34375 54.890625 33.015625 
z
" id="DejaVuSans-6e"/>
      <path d="M 8.5 21.578125 
L 8.5 54.6875 
L 17.484375 54.6875 
L 17.484375 21.921875 
Q 17.484375 14.15625 20.5 10.265625 
Q 23.53125 6.390625 29.59375 6.390625 
Q 36.859375 6.390625 41.078125 11.03125 
Q 45.3125 15.671875 45.3125 23.6875 
L 45.3125 54.6875 
L 54.296875 54.6875 
L 54.296875 0 
L 45.3125 0 
L 45.3125 8.40625 
Q 42.046875 3.421875 37.71875 1 
Q 33.40625 -1.421875 27.6875 -1.421875 
Q 18.265625 -1.421875 13.375 4.4375 
Q 8.5 10.296875 8.5 21.578125 
z
M 31.109375 56 
z
" id="DejaVuSans-75"/>
      <path d="M 18.3125 70.21875 
L 18.3125 54.6875 
L 36.8125 54.6875 
L 36.8125 47.703125 
L 18.3125 47.703125 
L 18.3125 18.015625 
Q 18.3125 11.328125 20.140625 9.421875 
Q 21.96875 7.515625 27.59375 7.515625 
L 36.8125 7.515625 
L 36.8125 0 
L 27.59375 0 
Q 17.1875 0 13.234375 3.875 
Q 9.28125 7.765625 9.28125 18.015625 
L 9.28125 47.703125 
L 2.6875 47.703125 
L 2.6875 54.6875 
L 9.28125 54.6875 
L 9.28125 70.21875 
z
" id="DejaVuSans-74"/>
      <path d="M 56.203125 29.59375 
L 56.203125 25.203125 
L 14.890625 25.203125 
Q 15.484375 15.921875 20.484375 11.0625 
Q 25.484375 6.203125 34.421875 6.203125 
Q 39.59375 6.203125 44.453125 7.46875 
Q 49.3125 8.734375 54.109375 11.28125 
L 54.109375 2.78125 
Q 49.265625 0.734375 44.1875 -0.34375 
Q 39.109375 -1.421875 33.890625 -1.421875 
Q 20.796875 -1.421875 13.15625 6.1875 
Q 5.515625 13.8125 5.515625 26.8125 
Q 5.515625 40.234375 12.765625 48.109375 
Q 20.015625 56 32.328125 56 
Q 43.359375 56 49.78125 48.890625 
Q 56.203125 41.796875 56.203125 29.59375 
z
M 47.21875 32.234375 
Q 47.125 39.59375 43.09375 43.984375 
Q 39.0625 48.390625 32.421875 48.390625 
Q 24.90625 48.390625 20.390625 44.140625 
Q 15.875 39.890625 15.1875 32.171875 
z
" id="DejaVuSans-65"/>
      <path id="DejaVuSans-20"/>
      <path d="M 53.515625 70.515625 
L 53.515625 60.890625 
Q 47.90625 63.578125 42.921875 64.890625 
Q 37.9375 66.21875 33.296875 66.21875 
Q 25.25 66.21875 20.875 63.09375 
Q 16.5 59.96875 16.5 54.203125 
Q 16.5 49.359375 19.40625 46.890625 
Q 22.3125 44.4375 30.421875 42.921875 
L 36.375 41.703125 
Q 47.40625 39.59375 52.65625 34.296875 
Q 57.90625 29 57.90625 20.125 
Q 57.90625 9.515625 50.796875 4.046875 
Q 43.703125 -1.421875 29.984375 -1.421875 
Q 24.8125 -1.421875 18.96875 -0.25 
Q 13.140625 0.921875 6.890625 3.21875 
L 6.890625 13.375 
Q 12.890625 10.015625 18.65625 8.296875 
Q 24.421875 6.59375 29.984375 6.59375 
Q 38.421875 6.59375 43.015625 9.90625 
Q 47.609375 13.234375 47.609375 19.390625 
Q 47.609375 24.75 44.3125 27.78125 
Q 41.015625 30.8125 33.5 32.328125 
L 27.484375 33.5 
Q 16.453125 35.6875 11.515625 40.375 
Q 6.59375 45.0625 6.59375 53.421875 
Q 6.59375 63.09375 13.40625 68.65625 
Q 20.21875 74.21875 32.171875 74.21875 
Q 37.3125 74.21875 42.625 73.28125 
Q 47.953125 72.359375 53.515625 70.515625 
z
" id="DejaVuSans-53"/>
      <path d="M 18.109375 8.203125 
L 18.109375 -20.796875 
L 9.078125 -20.796875 
L 9.078125 54.6875 
L 18.109375 54.6875 
L 18.109375 46.390625 
Q 20.953125 51.265625 25.265625 53.625 
Q 29.59375 56 35.59375 56 
Q 45.5625 56 51.78125 48.09375 
Q 58.015625 40.1875 58.015625 27.296875 
Q 58.015625 14.40625 51.78125 6.484375 
Q 45.5625 -1.421875 35.59375 -1.421875 
Q 29.59375 -1.421875 25.265625 0.953125 
Q 20.953125 3.328125 18.109375 8.203125 
z
M 48.6875 27.296875 
Q 48.6875 37.203125 44.609375 42.84375 
Q 40.53125 48.484375 33.40625 48.484375 
Q 26.265625 48.484375 22.1875 42.84375 
Q 18.109375 37.203125 18.109375 27.296875 
Q 18.109375 17.390625 22.1875 11.75 
Q 26.265625 6.109375 33.40625 6.109375 
Q 40.53125 6.109375 44.609375 11.75 
Q 48.6875 17.390625 48.6875 27.296875 
z
" id="DejaVuSans-70"/>
      <path d="M 44.28125 53.078125 
L 44.28125 44.578125 
Q 40.484375 46.53125 36.375 47.5 
Q 32.28125 48.484375 27.875 48.484375 
Q 21.1875 48.484375 17.84375 46.4375 
Q 14.5 44.390625 14.5 40.28125 
Q 14.5 37.15625 16.890625 35.375 
Q 19.28125 33.59375 26.515625 31.984375 
L 29.59375 31.296875 
Q 39.15625 29.25 43.1875 25.515625 
Q 47.21875 21.78125 47.21875 15.09375 
Q 47.21875 7.46875 41.1875 3.015625 
Q 35.15625 -1.421875 24.609375 -1.421875 
Q 20.21875 -1.421875 15.453125 -0.5625 
Q 10.6875 0.296875 5.421875 2 
L 5.421875 11.28125 
Q 10.40625 8.6875 15.234375 7.390625 
Q 20.0625 6.109375 24.8125 6.109375 
Q 31.15625 6.109375 34.5625 8.28125 
Q 37.984375 10.453125 37.984375 14.40625 
Q 37.984375 18.0625 35.515625 20.015625 
Q 33.0625 21.96875 24.703125 23.78125 
L 21.578125 24.515625 
Q 13.234375 26.265625 9.515625 29.90625 
Q 5.8125 33.546875 5.8125 39.890625 
Q 5.8125 47.609375 11.28125 51.796875 
Q 16.75 56 26.8125 56 
Q 31.78125 56 36.171875 55.265625 
Q 40.578125 54.546875 44.28125 53.078125 
z
" id="DejaVuSans-73"/>
     </defs>
     <g transform="translate(611.792187 764.753125)scale(0.2 -0.2)">
      <use xlink:href="#DejaVuSans-31"/>
      <use x="63.623047" xlink:href="#DejaVuSans-35"/>
      <use x="127.246094" xlink:href="#DejaVuSans-2d"/>
      <use x="163.330078" xlink:href="#DejaVuSans-4d"/>
      <use x="249.609375" xlink:href="#DejaVuSans-69"/>
      <use x="277.392578" xlink:href="#DejaVuSans-6e"/>
      <use x="340.771484" xlink:href="#DejaVuSans-75"/>
      <use x="404.150391" xlink:href="#DejaVuSans-74"/>
      <use x="443.359375" xlink:href="#DejaVuSans-65"/>
      <use x="504.882812" xlink:href="#DejaVuSans-20"/>
      <use x="536.669922" xlink:href="#DejaVuSans-53"/>
      <use x="600.146484" xlink:href="#DejaVuSans-74"/>
      <use x="639.355469" xlink:href="#DejaVuSans-65"/>
      <use x="700.878906" xlink:href="#DejaVuSans-70"/>
      <use x="764.355469" xlink:href="#DejaVuSans-73"/>
     </g>
    </g>
   </g>
   <g id="matplotlib.axis_2">
    <g id="ytick_1">
     <g id="line2d_8">
      <defs>
       <path d="M 0 0 
L -3.5 0 
" id="m172a312680" style="stroke:#000000;stroke-width:0.8;"/>
      </defs>
      <g>
       <use style="stroke:#000000;stroke-width:0.8;" x="69.175" xlink:href="#m172a312680" y="688.645745"/>
      </g>
     </g>
     <g id="text_9">
      <!-- 0 -->
      <g transform="translate(49.45 696.244182)scale(0.2 -0.2)">
       <use xlink:href="#DejaVuSans-30"/>
      </g>
     </g>
    </g>
    <g id="ytick_2">
     <g id="line2d_9">
      <g>
       <use style="stroke:#000000;stroke-width:0.8;" x="69.175" xlink:href="#m172a312680" y="552.94703"/>
      </g>
     </g>
     <g id="text_10">
      <!-- 2000 -->
      <g transform="translate(11.275 560.545468)scale(0.2 -0.2)">
       <use xlink:href="#DejaVuSans-32"/>
       <use x="63.623047" xlink:href="#DejaVuSans-30"/>
       <use x="127.246094" xlink:href="#DejaVuSans-30"/>
       <use x="190.869141" xlink:href="#DejaVuSans-30"/>
      </g>
     </g>
    </g>
    <g id="ytick_3">
     <g id="line2d_10">
      <g>
       <use style="stroke:#000000;stroke-width:0.8;" x="69.175" xlink:href="#m172a312680" y="417.248316"/>
      </g>
     </g>
     <g id="text_11">
      <!-- 4000 -->
      <g transform="translate(11.275 424.846753)scale(0.2 -0.2)">
       <use xlink:href="#DejaVuSans-34"/>
       <use x="63.623047" xlink:href="#DejaVuSans-30"/>
       <use x="127.246094" xlink:href="#DejaVuSans-30"/>
       <use x="190.869141" xlink:href="#DejaVuSans-30"/>
      </g>
     </g>
    </g>
    <g id="ytick_4">
     <g id="line2d_11">
      <g>
       <use style="stroke:#000000;stroke-width:0.8;" x="69.175" xlink:href="#m172a312680" y="281.549601"/>
      </g>
     </g>
     <g id="text_12">
      <!-- 6000 -->
      <g transform="translate(11.275 289.148039)scale(0.2 -0.2)">
       <use xlink:href="#DejaVuSans-36"/>
       <use x="63.623047" xlink:href="#DejaVuSans-30"/>
       <use x="127.246094" xlink:href="#DejaVuSans-30"/>
       <use x="190.869141" xlink:href="#DejaVuSans-30"/>
      </g>
     </g>
    </g>
    <g id="ytick_5">
     <g id="line2d_12">
      <g>
       <use style="stroke:#000000;stroke-width:0.8;" x="69.175" xlink:href="#m172a312680" y="145.850887"/>
      </g>
     </g>
     <g id="text_13">
      <!-- 8000 -->
      <g transform="translate(11.275 153.449324)scale(0.2 -0.2)">
       <use xlink:href="#DejaVuSans-38"/>
       <use x="63.623047" xlink:href="#DejaVuSans-30"/>
       <use x="127.246094" xlink:href="#DejaVuSans-30"/>
       <use x="190.869141" xlink:href="#DejaVuSans-30"/>
      </g>
     </g>
    </g>
    <g id="text_14">
     <!-- Bandwidth (kbps) -->
     <defs>
      <path d="M 19.671875 34.8125 
L 19.671875 8.109375 
L 35.5 8.109375 
Q 43.453125 8.109375 47.28125 11.40625 
Q 51.125 14.703125 51.125 21.484375 
Q 51.125 28.328125 47.28125 31.5625 
Q 43.453125 34.8125 35.5 34.8125 
z
M 19.671875 64.796875 
L 19.671875 42.828125 
L 34.28125 42.828125 
Q 41.5 42.828125 45.03125 45.53125 
Q 48.578125 48.25 48.578125 53.8125 
Q 48.578125 59.328125 45.03125 62.0625 
Q 41.5 64.796875 34.28125 64.796875 
z
M 9.8125 72.90625 
L 35.015625 72.90625 
Q 46.296875 72.90625 52.390625 68.21875 
Q 58.5 63.53125 58.5 54.890625 
Q 58.5 48.1875 55.375 44.234375 
Q 52.25 40.28125 46.1875 39.3125 
Q 53.46875 37.75 57.5 32.78125 
Q 61.53125 27.828125 61.53125 20.40625 
Q 61.53125 10.640625 54.890625 5.3125 
Q 48.25 0 35.984375 0 
L 9.8125 0 
z
" id="DejaVuSans-42"/>
      <path d="M 34.28125 27.484375 
Q 23.390625 27.484375 19.1875 25 
Q 14.984375 22.515625 14.984375 16.5 
Q 14.984375 11.71875 18.140625 8.90625 
Q 21.296875 6.109375 26.703125 6.109375 
Q 34.1875 6.109375 38.703125 11.40625 
Q 43.21875 16.703125 43.21875 25.484375 
L 43.21875 27.484375 
z
M 52.203125 31.203125 
L 52.203125 0 
L 43.21875 0 
L 43.21875 8.296875 
Q 40.140625 3.328125 35.546875 0.953125 
Q 30.953125 -1.421875 24.3125 -1.421875 
Q 15.921875 -1.421875 10.953125 3.296875 
Q 6 8.015625 6 15.921875 
Q 6 25.140625 12.171875 29.828125 
Q 18.359375 34.515625 30.609375 34.515625 
L 43.21875 34.515625 
L 43.21875 35.40625 
Q 43.21875 41.609375 39.140625 45 
Q 35.0625 48.390625 27.6875 48.390625 
Q 23 48.390625 18.546875 47.265625 
Q 14.109375 46.140625 10.015625 43.890625 
L 10.015625 52.203125 
Q 14.9375 54.109375 19.578125 55.046875 
Q 24.21875 56 28.609375 56 
Q 40.484375 56 46.34375 49.84375 
Q 52.203125 43.703125 52.203125 31.203125 
z
" id="DejaVuSans-61"/>
      <path d="M 45.40625 46.390625 
L 45.40625 75.984375 
L 54.390625 75.984375 
L 54.390625 0 
L 45.40625 0 
L 45.40625 8.203125 
Q 42.578125 3.328125 38.25 0.953125 
Q 33.9375 -1.421875 27.875 -1.421875 
Q 17.96875 -1.421875 11.734375 6.484375 
Q 5.515625 14.40625 5.515625 27.296875 
Q 5.515625 40.1875 11.734375 48.09375 
Q 17.96875 56 27.875 56 
Q 33.9375 56 38.25 53.625 
Q 42.578125 51.265625 45.40625 46.390625 
z
M 14.796875 27.296875 
Q 14.796875 17.390625 18.875 11.75 
Q 22.953125 6.109375 30.078125 6.109375 
Q 37.203125 6.109375 41.296875 11.75 
Q 45.40625 17.390625 45.40625 27.296875 
Q 45.40625 37.203125 41.296875 42.84375 
Q 37.203125 48.484375 30.078125 48.484375 
Q 22.953125 48.484375 18.875 42.84375 
Q 14.796875 37.203125 14.796875 27.296875 
z
" id="DejaVuSans-64"/>
      <path d="M 4.203125 54.6875 
L 13.1875 54.6875 
L 24.421875 12.015625 
L 35.59375 54.6875 
L 46.1875 54.6875 
L 57.421875 12.015625 
L 68.609375 54.6875 
L 77.59375 54.6875 
L 63.28125 0 
L 52.6875 0 
L 40.921875 44.828125 
L 29.109375 0 
L 18.5 0 
z
" id="DejaVuSans-77"/>
      <path d="M 54.890625 33.015625 
L 54.890625 0 
L 45.90625 0 
L 45.90625 32.71875 
Q 45.90625 40.484375 42.875 44.328125 
Q 39.84375 48.1875 33.796875 48.1875 
Q 26.515625 48.1875 22.3125 43.546875 
Q 18.109375 38.921875 18.109375 30.90625 
L 18.109375 0 
L 9.078125 0 
L 9.078125 75.984375 
L 18.109375 75.984375 
L 18.109375 46.1875 
Q 21.34375 51.125 25.703125 53.5625 
Q 30.078125 56 35.796875 56 
Q 45.21875 56 50.046875 50.171875 
Q 54.890625 44.34375 54.890625 33.015625 
z
" id="DejaVuSans-68"/>
      <path d="M 31 75.875 
Q 24.46875 64.65625 21.28125 53.65625 
Q 18.109375 42.671875 18.109375 31.390625 
Q 18.109375 20.125 21.3125 9.0625 
Q 24.515625 -2 31 -13.1875 
L 23.1875 -13.1875 
Q 15.875 -1.703125 12.234375 9.375 
Q 8.59375 20.453125 8.59375 31.390625 
Q 8.59375 42.28125 12.203125 53.3125 
Q 15.828125 64.359375 23.1875 75.875 
z
" id="DejaVuSans-28"/>
      <path d="M 9.078125 75.984375 
L 18.109375 75.984375 
L 18.109375 31.109375 
L 44.921875 54.6875 
L 56.390625 54.6875 
L 27.390625 29.109375 
L 57.625 0 
L 45.90625 0 
L 18.109375 26.703125 
L 18.109375 0 
L 9.078125 0 
z
" id="DejaVuSans-6b"/>
      <path d="M 48.6875 27.296875 
Q 48.6875 37.203125 44.609375 42.84375 
Q 40.53125 48.484375 33.40625 48.484375 
Q 26.265625 48.484375 22.1875 42.84375 
Q 18.109375 37.203125 18.109375 27.296875 
Q 18.109375 17.390625 22.1875 11.75 
Q 26.265625 6.109375 33.40625 6.109375 
Q 40.53125 6.109375 44.609375 11.75 
Q 48.6875 17.390625 48.6875 27.296875 
z
M 18.109375 46.390625 
Q 20.953125 51.265625 25.265625 53.625 
Q 29.59375 56 35.59375 56 
Q 45.5625 56 51.78125 48.09375 
Q 58.015625 40.1875 58.015625 27.296875 
Q 58.015625 14.40625 51.78125 6.484375 
Q 45.5625 -1.421875 35.59375 -1.421875 
Q 29.59375 -1.421875 25.265625 0.953125 
Q 20.953125 3.328125 18.109375 8.203125 
L 18.109375 0 
L 9.078125 0 
L 9.078125 75.984375 
L 18.109375 75.984375 
z
" id="DejaVuSans-62"/>
      <path d="M 8.015625 75.875 
L 15.828125 75.875 
Q 23.140625 64.359375 26.78125 53.3125 
Q 30.421875 42.28125 30.421875 31.390625 
Q 30.421875 20.453125 26.78125 9.375 
Q 23.140625 -1.703125 15.828125 -13.1875 
L 8.015625 -13.1875 
Q 14.5 -2 17.703125 9.0625 
Q 20.90625 20.125 20.90625 31.390625 
Q 20.90625 42.671875 17.703125 53.65625 
Q 14.5 64.65625 8.015625 75.875 
z
" id="DejaVuSans-29"/>
     </defs>
     <g transform="translate(3.115625 454.665625)rotate(-90)scale(0.2 -0.2)">
      <use xlink:href="#DejaVuSans-42"/>
      <use x="68.603516" xlink:href="#DejaVuSans-61"/>
      <use x="129.882812" xlink:href="#DejaVuSans-6e"/>
      <use x="193.261719" xlink:href="#DejaVuSans-64"/>
      <use x="256.738281" xlink:href="#DejaVuSans-77"/>
      <use x="338.525391" xlink:href="#DejaVuSans-69"/>
      <use x="366.308594" xlink:href="#DejaVuSans-64"/>
      <use x="429.785156" xlink:href="#DejaVuSans-74"/>
      <use x="468.994141" xlink:href="#DejaVuSans-68"/>
      <use x="532.373047" xlink:href="#DejaVuSans-20"/>
      <use x="564.160156" xlink:href="#DejaVuSans-28"/>
      <use x="603.173828" xlink:href="#DejaVuSans-6b"/>
      <use x="661.083984" xlink:href="#DejaVuSans-62"/>
      <use x="724.560547" xlink:href="#DejaVuSans-70"/>
      <use x="788.037109" xlink:href="#DejaVuSans-73"/>
      <use x="840.136719" xlink:href="#DejaVuSans-29"/>
     </g>
    </g>
   </g>
   <g id="line2d_13">
    <path clip-path="url(#p2c2e52d96f)" d="M 125.926136 679.062403 
L 126.872778 682.486835 
L 127.819419 676.328522 
L 128.76606 673.738183 
L 129.712701 630.604087 
L 130.659342 626.572933 
L 131.605983 676.370738 
L 132.552624 476.576398 
L 133.499265 523.013706 
L 134.445907 672.319079 
L 135.392548 682.062851 
L 136.339189 680.410339 
L 137.28583 638.246639 
L 138.232471 580.304495 
L 139.179112 684.817833 
L 140.125753 677.457535 
L 141.072395 681.532717 
L 142.019036 680.707072 
L 142.965677 680.602733 
L 143.912318 598.030364 
L 144.858959 686.277952 
L 145.8056 682.589362 
L 146.752241 681.442253 
L 147.698883 686.264083 
L 148.645524 681.570115 
L 149.592165 636.875783 
L 150.538806 656.742679 
L 151.485447 683.524177 
L 153.378729 682.481407 
L 154.325371 680.132306 
L 155.272012 681.592424 
L 156.218653 679.798793 
L 157.165294 684.419788 
L 158.111935 683.109841 
L 159.058576 678.544333 
L 160.005217 684.344998 
L 160.951859 677.050439 
L 161.8985 686.407015 
L 162.845141 680.492966 
L 163.791782 679.60399 
L 164.738423 682.098431 
L 165.685064 599.021873 
L 166.631705 680.829499 
L 167.578347 683.364955 
L 168.524988 675.036066 
L 169.471629 680.265596 
L 170.41827 679.46648 
L 171.364911 616.460061 
L 172.311552 683.819091 
L 173.258193 678.83141 
L 174.204835 681.079185 
L 175.151476 684.966804 
L 176.098117 681.962733 
L 177.044758 678.252431 
L 177.991399 683.645397 
L 178.93804 684.31243 
L 179.884681 668.675114 
L 180.831323 678.2078 
L 181.777964 681.498344 
L 182.724605 560.123986 
L 183.671246 683.505478 
L 184.617887 679.66973 
L 185.564528 685.068727 
L 186.511169 680.590669 
L 187.45781 674.565646 
L 188.404452 659.158116 
L 189.351093 607.786803 
L 190.297734 650.721272 
L 191.244375 683.86493 
L 192.191016 649.75389 
L 193.137657 620.980334 
L 194.084298 655.934511 
L 195.03094 666.129407 
L 195.977581 673.887153 
L 196.924222 653.971406 
L 197.870863 681.392194 
L 198.817504 680.495979 
L 199.764145 662.144085 
L 200.710786 681.949468 
L 201.657428 684.599508 
L 202.604069 677.253689 
L 203.55071 663.58551 
L 204.497351 622.645507 
L 205.443992 560.099255 
L 206.390633 645.924777 
L 207.337274 677.127034 
L 208.283916 654.335078 
L 209.230557 651.494449 
L 210.177198 684.09652 
L 211.123839 680.817435 
L 212.07048 671.383661 
L 213.017121 670.532681 
L 213.963762 664.95697 
L 214.910404 682.417472 
L 215.857045 681.902421 
L 216.803686 684.747874 
L 217.750327 685.44084 
L 218.696968 681.593632 
L 219.643609 456.510479 
L 220.59025 650.233964 
L 221.536892 682.933731 
L 222.483533 682.196134 
L 223.430174 681.680479 
L 224.376815 682.504924 
L 225.323456 684.898045 
L 226.270097 684.451752 
L 227.216738 683.549505 
L 228.16338 686.028266 
L 229.110021 601.655026 
L 230.056662 685.654341 
L 231.003303 652.91778 
L 231.949944 634.866234 
L 232.896585 684.72315 
L 234.789868 685.624189 
L 235.736509 676.073408 
L 236.68315 684.010881 
L 237.629791 663.35814 
L 238.576432 653.193397 
L 239.523073 606.833288 
L 240.469714 680.769792 
L 241.416355 677.981638 
L 243.309638 676.911728 
L 244.256279 633.478491 
L 245.20292 684.776221 
L 246.149561 676.381594 
L 247.096202 542.082089 
L 248.042843 675.022802 
L 248.989485 621.315659 
L 249.936126 679.330781 
L 250.882767 684.522316 
L 251.829408 684.65741 
L 252.776049 618.930985 
L 253.72269 607.114945 
L 254.669331 683.753956 
L 255.615973 686.808683 
L 256.562614 685.4523 
L 257.509255 681.291478 
L 258.455896 610.305371 
L 259.402537 681.191964 
L 260.349178 685.594634 
L 261.295819 618.206652 
L 262.242461 613.277471 
L 263.189102 682.584538 
L 264.135743 686.109685 
L 265.082384 686.913022 
L 266.029025 685.657958 
L 266.975666 634.381939 
L 267.922307 686.259259 
L 268.868949 681.339726 
L 269.81559 570.948523 
L 271.708872 606.307381 
L 272.655513 618.707231 
L 273.602154 679.745117 
L 276.442078 685.627806 
L 277.388719 680.663648 
L 278.33536 615.037938 
L 279.282001 615.54575 
L 280.228642 684.523517 
L 281.175283 608.180627 
L 282.121925 609.897067 
L 283.068566 685.729125 
L 284.015207 613.133936 
L 284.961848 616.856301 
L 285.908489 672.442111 
L 286.85513 685.507787 
L 288.748413 531.782855 
L 289.695054 535.570959 
L 290.641695 680.593085 
L 291.588336 612.401163 
L 292.534977 682.373452 
L 293.481618 476.168698 
L 294.428259 642.672228 
L 295.3749 633.41516 
L 296.321542 608.086548 
L 297.268183 639.679617 
L 298.214824 653.566121 
L 299.161465 681.060485 
L 300.108106 682.010376 
L 301.054747 685.881108 
L 302.001388 680.235437 
L 302.94803 686.164569 
L 303.894671 681.742602 
L 304.841312 683.429486 
L 305.787953 616.596967 
L 306.734594 683.440342 
L 307.681235 682.336657 
L 308.627876 684.433657 
L 309.574518 682.588154 
L 310.521159 684.9861 
L 311.4678 683.913178 
L 312.414441 673.963144 
L 313.361082 545.066857 
L 314.307723 598.196825 
L 315.254364 614.484891 
L 316.201006 564.535701 
L 317.147647 537.271115 
L 318.094288 637.287099 
L 319.040929 611.012212 
L 319.98757 684.614591 
L 320.934211 529.04476 
L 321.880852 684.399278 
L 322.827494 682.97957 
L 323.774135 648.936685 
L 324.720776 576.165379 
L 325.667417 681.294491 
L 326.614058 626.692951 
L 327.560699 599.395194 
L 328.50734 595.248845 
L 329.453982 669.124426 
L 330.400623 612.717789 
L 331.347264 686.631372 
L 332.293905 610.795691 
L 333.240546 494.513352 
L 334.187187 394.508828 
L 335.133828 680.549057 
L 336.08047 609.056943 
L 337.027111 685.032543 
L 337.973752 684.867893 
L 338.920393 680.653993 
L 339.867034 684.114616 
L 340.813675 682.898755 
L 341.760316 680.592481 
L 342.706958 685.299116 
L 343.653599 681.279415 
L 344.60024 558.527565 
L 345.546881 685.238805 
L 347.440163 547.086657 
L 348.386804 680.631677 
L 349.333445 685.77014 
L 350.280087 684.109188 
L 351.226728 601.636333 
L 352.173369 680.96821 
L 353.12001 539.154009 
L 354.066651 590.727364 
L 355.013292 461.530728 
L 355.959933 626.81719 
L 356.906575 682.289617 
L 357.853216 474.097637 
L 358.799857 602.03619 
L 359.746498 682.974746 
L 360.693139 612.240129 
L 361.63978 644.588898 
L 362.586421 395.324228 
L 363.533063 581.887041 
L 364.479704 549.177619 
L 365.426345 656.88561 
L 366.372986 560.824191 
L 367.319627 590.417367 
L 368.266268 683.775667 
L 369.212909 609.641349 
L 370.159551 619.796437 
L 371.106192 480.135924 
L 372.052833 538.655242 
L 372.999474 667.284956 
L 373.946115 646.361422 
L 374.892756 486.146475 
L 375.839397 681.60328 
L 376.786039 679.505683 
L 377.73268 476.616205 
L 378.679321 561.677587 
L 379.625962 597.476109 
L 380.572603 582.330328 
L 381.519244 651.873205 
L 382.465885 677.550414 
L 383.412527 606.748857 
L 384.359168 682.573078 
L 385.305809 682.909611 
L 386.25245 687.159091 
L 387.199091 684.931217 
L 388.145732 619.443621 
L 389.092373 602.202651 
L 390.039015 620.686017 
L 390.985656 682.354753 
L 391.932297 677.358027 
L 392.878938 521.607263 
L 393.825579 679.679982 
L 394.77222 682.515779 
L 395.718861 678.859154 
L 396.665503 684.865477 
L 397.612144 606.563099 
L 398.558785 600.702122 
L 399.505426 600.121935 
L 400.452067 653.423787 
L 401.398708 452.861086 
L 402.345349 559.459361 
L 403.29199 605.1259 
L 404.238632 679.338625 
L 405.185273 680.633489 
L 406.131914 594.356246 
L 407.078555 679.252978 
L 408.025196 677.877903 
L 408.971837 607.174048 
L 409.918478 519.762364 
L 410.86512 657.803537 
L 411.811761 513.873644 
L 412.758402 618.188557 
L 413.705043 606.780217 
L 414.651684 683.500654 
L 415.598325 679.522571 
L 416.544966 547.616181 
L 417.491608 609.916363 
L 418.438249 546.039063 
L 419.38489 684.09652 
L 420.331531 678.848298 
L 421.278172 612.707537 
L 422.224813 680.743256 
L 423.171454 478.406824 
L 424.118096 681.236595 
L 425.064737 682.723249 
L 426.011378 682.386716 
L 426.958019 675.210364 
L 427.90466 630.668015 
L 428.851301 566.692408 
L 429.797942 617.434676 
L 430.744584 479.102802 
L 431.691225 568.375072 
L 432.637866 545.885873 
L 433.584507 575.828846 
L 434.531148 497.729113 
L 435.477789 635.142456 
L 436.42443 569.765828 
L 437.371072 644.577438 
L 438.317713 644.461036 
L 439.264354 633.767977 
L 440.210995 465.856803 
L 441.157636 475.701894 
L 442.104277 469.480861 
L 443.050918 482.178644 
L 443.99756 639.537886 
L 444.944201 450.17546 
L 445.890842 585.891666 
L 446.837483 561.248175 
L 447.784124 577.184632 
L 448.730765 642.145717 
L 449.677406 597.392885 
L 450.624048 592.633178 
L 451.570689 563.060506 
L 452.51733 648.171948 
L 453.463971 648.626084 
L 454.410612 645.342779 
L 455.357253 237.483703 
L 456.303894 656.471281 
L 457.250535 653.918938 
L 458.197177 639.844871 
L 459.143818 641.270006 
L 460.090459 640.505873 
L 461.0371 273.717071 
L 461.983741 553.318546 
L 462.930382 602.695387 
L 463.877023 513.92732 
L 464.823665 672.557305 
L 466.716947 540.947648 
L 467.663588 465.072763 
L 468.610229 682.009779 
L 469.55687 679.909163 
L 470.503511 603.169423 
L 471.450153 677.495531 
L 472.396794 671.951187 
L 473.343435 573.230067 
L 474.290076 622.797489 
L 475.236717 299.459416 
L 476.183358 637.047062 
L 477.129999 486.028865 
L 478.076641 641.066159 
L 479.023282 580.405815 
L 479.969923 465.509414 
L 480.916564 472.901073 
L 481.863205 564.545953 
L 482.809846 610.058698 
L 483.756487 526.173973 
L 485.64977 624.98194 
L 486.596411 635.494065 
L 487.543052 470.09844 
L 488.489693 633.799941 
L 489.436334 627.247206 
L 490.382975 628.266453 
L 491.329617 498.91723 
L 492.276258 635.480196 
L 493.222899 560.68487 
L 494.16954 630.377321 
L 495.116181 642.574525 
L 496.062822 657.602703 
L 497.009463 675.267059 
L 497.956105 653.621004 
L 498.902746 668.951336 
L 499.849387 671.180418 
L 500.796028 648.908941 
L 501.742669 596.996645 
L 502.68931 664.212737 
L 503.635951 651.625324 
L 504.582593 535.672883 
L 505.529234 665.582995 
L 506.475875 655.631754 
L 507.422516 681.773962 
L 508.369157 660.267222 
L 509.315798 655.711965 
L 510.262439 683.320324 
L 511.20908 638.477632 
L 512.155722 547.959349 
L 513.102363 402.668242 
L 514.049004 616.112672 
L 514.995645 553.24858 
L 515.942286 649.278042 
L 516.888927 561.548517 
L 517.835568 618.230176 
L 518.78221 578.747882 
L 519.728851 483.864925 
L 520.675492 600.855916 
L 521.622133 433.504418 
L 522.568774 508.3691 
L 523.515415 635.305294 
L 524.462056 357.326179 
L 525.408698 541.424703 
L 526.355339 559.495552 
L 527.30198 566.197257 
L 528.248621 586.142552 
L 529.195262 661.277424 
L 530.141903 622.736581 
L 531.088544 634.745612 
L 532.035186 610.984468 
L 532.981827 624.60138 
L 533.928468 627.69531 
L 534.875109 616.195299 
L 535.82175 636.529595 
L 536.768391 635.120744 
L 538.661674 509.894958 
L 539.608315 620.49363 
L 540.554956 625.595298 
L 541.501597 626.357022 
L 542.448238 627.338877 
L 543.394879 546.158478 
L 544.34152 623.708184 
L 545.288162 637.85643 
L 546.234803 628.608413 
L 547.181444 550.447759 
L 548.128085 612.329996 
L 549.074726 634.29328 
L 550.021367 638.263526 
L 550.968008 637.87633 
L 551.91465 606.241045 
L 552.861291 627.155528 
L 553.807932 561.008138 
L 554.754573 636.828736 
L 555.701214 629.746471 
L 556.647855 628.13739 
L 557.594496 522.860515 
L 558.541138 625.97043 
L 559.487779 676.832717 
L 560.43442 681.158188 
L 561.381061 679.736066 
L 562.327702 680.634093 
L 563.274343 604.28638 
L 564.220984 605.21154 
L 565.167625 652.157867 
L 566.114267 655.93331 
L 567.060908 685.601874 
L 568.007549 614.499967 
L 568.95419 608.853089 
L 569.900831 677.904439 
L 570.847472 680.037622 
L 571.794113 394.405093 
L 572.740755 682.285397 
L 573.687396 668.428448 
L 574.634037 619.231327 
L 575.580678 605.594515 
L 576.527319 606.562495 
L 577.47396 537.624535 
L 578.420601 684.307002 
L 579.367243 683.398126 
L 580.313884 597.967644 
L 581.260525 683.513321 
L 582.207166 679.67395 
L 583.153807 683.854074 
L 584.100448 683.202116 
L 585.047089 684.122452 
L 585.993731 682.678618 
L 586.940372 683.554329 
L 587.887013 681.13286 
L 588.833654 682.444612 
L 589.780295 682.795624 
L 590.726936 683.836583 
L 591.673577 681.770346 
L 592.620219 682.514578 
L 593.56686 683.844426 
L 594.513501 621.252939 
L 595.460142 659.500674 
L 596.406783 546.796561 
L 597.353424 481.924739 
L 598.300065 568.577711 
L 599.246707 575.489905 
L 600.193348 566.758147 
L 601.139989 514.777696 
L 602.08663 520.711651 
L 603.033271 496.139932 
L 603.979912 595.324837 
L 604.926553 558.743476 
L 605.873195 594.470233 
L 606.819836 600.68765 
L 607.766477 572.714411 
L 608.713118 593.852051 
L 609.659759 407.246418 
L 611.553041 583.727115 
L 612.499683 536.304336 
L 613.446324 450.988444 
L 614.392965 508.040404 
L 615.339606 542.171949 
L 616.286247 592.169991 
L 617.232888 593.148833 
L 618.179529 513.052212 
L 619.12617 624.385469 
L 620.072812 620.423671 
L 621.019453 630.783813 
L 621.966094 590.749076 
L 622.912735 576.476584 
L 623.859376 458.87887 
L 624.806017 413.273246 
L 625.752658 419.936358 
L 626.6993 556.420917 
L 627.645941 577.593533 
L 628.592582 341.553761 
L 629.539223 497.724289 
L 630.485864 173.909764 
L 631.432505 340.889143 
L 632.379146 581.195886 
L 633.325788 538.565979 
L 634.272429 474.480606 
L 636.165711 651.223052 
L 637.112352 517.692504 
L 638.058993 457.830075 
L 639.005634 526.044306 
L 639.952276 573.110048 
L 640.898917 561.971897 
L 641.845558 484.496982 
L 642.792199 491.57804 
L 643.73884 484.807576 
L 644.685481 463.607821 
L 645.632122 467.175191 
L 646.578764 578.693602 
L 647.525405 519.552479 
L 648.472046 566.454779 
L 649.418687 478.044956 
L 650.365328 547.905674 
L 651.311969 457.960943 
L 652.25861 434.368669 
L 653.205252 570.483525 
L 654.151893 535.919556 
L 655.098534 542.108625 
L 656.045175 502.464693 
L 656.991816 431.350126 
L 657.938457 545.060825 
L 658.885098 521.475181 
L 659.83174 509.118157 
L 660.778381 586.941668 
L 661.725022 578.841961 
L 662.671663 497.989051 
L 663.618304 499.00287 
L 664.564945 569.258016 
L 665.511586 571.314605 
L 666.458228 621.417589 
L 667.404869 516.41754 
L 668.35151 528.50799 
L 669.298151 547.696996 
L 670.244792 551.828873 
L 671.191433 491.698662 
L 672.138074 500.318849 
L 673.084715 287.59272 
L 674.031357 354.993966 
L 674.977998 518.676775 
L 675.924639 521.273743 
L 676.87128 512.112573 
L 677.817921 583.124009 
L 678.764562 584.00274 
L 679.711203 565.850472 
L 680.657845 506.543498 
L 681.604486 637.525929 
L 682.551127 614.344368 
L 683.497768 574.194437 
L 684.444409 381.479946 
L 685.39105 565.769657 
L 686.337691 426.358829 
L 687.284333 511.522738 
L 688.230974 406.108958 
L 689.177615 353.911999 
L 690.124256 249.600696 
L 691.070897 485.837082 
L 692.017538 405.526362 
L 692.964179 194.843551 
L 693.910821 401.723175 
L 694.857462 408.210781 
L 695.804103 144.436004 
L 696.750744 609.488159 
L 697.697385 523.742252 
L 698.644026 500.212094 
L 699.590667 569.906357 
L 700.537309 495.282316 
L 701.48395 556.38835 
L 702.430591 410.0985 
L 703.377232 570.439497 
L 704.323873 564.027889 
L 705.270514 580.320779 
L 706.217155 530.03988 
L 707.163797 503.516514 
L 708.110438 581.311678 
L 709.057079 553.193703 
L 710.00372 620.674557 
L 710.950361 589.230451 
L 711.897002 607.478617 
L 712.843643 581.776073 
L 713.790285 469.410902 
L 714.736926 557.754985 
L 715.683567 495.673732 
L 716.630208 556.358198 
L 717.576849 479.863319 
L 718.52349 568.824384 
L 719.470131 500.082428 
L 720.416772 561.173385 
L 721.363414 613.051913 
L 722.310055 633.440495 
L 723.256696 624.333599 
L 724.203337 633.4423 
L 725.149978 624.659275 
L 726.096619 627.941983 
L 727.04326 614.197814 
L 727.989902 546.390672 
L 728.936543 414.467998 
L 729.883184 534.388874 
L 730.829825 485.048218 
L 731.776466 423.624948 
L 732.723107 558.396087 
L 733.669748 590.354037 
L 734.61639 566.273248 
L 735.563031 492.151591 
L 736.509672 563.081614 
L 737.456313 489.725902 
L 738.402954 561.23008 
L 739.349595 584.017212 
L 740.296236 622.046627 
L 741.242878 581.369581 
L 742.189519 638.296094 
L 745.029442 547.885767 
L 745.976083 387.044197 
L 746.922724 533.347312 
L 747.869366 593.487171 
L 748.816007 575.475432 
L 749.762648 474.525237 
L 750.709289 538.719773 
L 751.65593 411.534498 
L 752.602571 512.160821 
L 753.549212 586.011081 
L 754.495854 374.240868 
L 755.442495 577.403555 
L 756.389136 585.467078 
L 757.335777 449.899238 
L 758.282418 219.106481 
L 759.229059 544.183309 
L 760.1757 487.980518 
L 761.122342 565.654462 
L 762.068983 505.691914 
L 763.015624 520.518654 
L 763.962265 586.095512 
L 764.908906 576.024252 
L 765.855547 571.362248 
L 766.802188 505.588179 
L 767.74883 565.515744 
L 768.695471 448.287137 
L 769.642112 546.432888 
L 770.588753 569.946158 
L 771.535394 414.006623 
L 772.482035 396.760225 
L 773.428676 534.688015 
L 774.375317 308.54701 
L 775.321959 452.480526 
L 776.2686 412.167152 
L 777.215241 525.27716 
L 778.161882 533.303888 
L 779.108523 413.027787 
L 780.055164 359.192185 
L 781.001805 336.675847 
L 781.948447 386.090683 
L 782.895088 560.686681 
L 783.841729 587.61715 
L 784.78837 498.736296 
L 785.735011 585.544874 
L 786.681652 382.249507 
L 787.628293 414.837099 
L 788.574935 413.661046 
L 789.521576 446.673225 
L 790.468217 530.434912 
L 791.414858 584.415861 
L 792.361499 534.894277 
L 793.30814 349.289192 
L 794.254781 479.242728 
L 795.201423 536.877887 
L 796.148064 405.800168 
L 797.094705 392.125958 
L 798.041346 535.237446 
L 798.987987 570.180163 
L 799.934628 578.237051 
L 800.881269 587.967551 
L 801.827911 567.861222 
L 802.774552 595.197578 
L 803.721193 588.985596 
L 804.667834 593.838182 
L 805.614475 568.837051 
L 806.561116 595.01906 
L 807.507757 573.271685 
L 808.454399 512.405079 
L 809.40104 576.024856 
L 810.347681 585.745111 
L 811.294322 456.966427 
L 812.240963 420.442365 
L 813.187604 560.463531 
L 814.134245 559.078197 
L 815.080887 496.405902 
L 816.027528 609.56415 
L 816.974169 517.67622 
L 817.92081 352.084585 
L 818.867451 618.83871 
L 819.814092 455.024422 
L 820.760733 667.185448 
L 821.707375 605.73383 
L 822.654016 586.511049 
L 823.600657 552.895763 
L 824.547298 477.425566 
L 825.493939 551.029757 
L 826.44058 578.11522 
L 827.387221 572.058837 
L 828.333862 495.274473 
L 829.280504 450.397402 
L 830.227145 522.458847 
L 831.173786 493.457318 
L 832.120427 559.422573 
L 833.067068 551.27221 
L 834.96035 369.186247 
L 835.906992 522.916002 
L 836.853633 459.690653 
L 837.800274 324.362247 
L 838.746915 550.784291 
L 839.693556 505.430768 
L 840.640197 370.090298 
L 841.586838 503.15525 
L 842.53348 496.111585 
L 843.480121 577.342043 
L 844.426762 590.496371 
L 845.373403 569.691648 
L 846.320044 583.887545 
L 847.266685 607.686684 
L 848.213326 521.661542 
L 849.159968 576.56645 
L 850.106609 508.043423 
L 851.05325 504.704027 
L 851.999891 448.48616 
L 852.946532 595.209038 
L 853.893173 488.741034 
L 854.839814 571.159609 
L 855.786456 493.489282 
L 856.733097 361.156499 
L 857.679738 409.207108 
L 858.626379 380.572271 
L 859.57302 450.176063 
L 860.519661 588.746163 
L 861.466302 570.831517 
L 862.412944 571.152974 
L 863.359585 565.858912 
L 864.306226 475.981732 
L 865.252867 588.993433 
L 866.199508 576.520007 
L 867.146149 568.411256 
L 868.09279 589.827526 
L 869.039432 564.986824 
L 869.986073 484.551866 
L 870.932714 581.743505 
L 871.879355 513.579327 
L 872.825996 465.928574 
L 873.772637 568.358184 
L 874.719278 573.823524 
L 875.66592 596.03891 
L 876.612561 571.145734 
L 877.559202 567.633852 
L 878.505843 566.291343 
L 879.452484 558.563749 
L 880.399125 498.524606 
L 881.345766 483.623687 
L 882.292407 599.144905 
L 882.292407 599.144905 
" style="fill:none;stroke:#000000;stroke-linecap:square;stroke-width:1.5;"/>
   </g>
   <g id="line2d_14">
    <path clip-path="url(#p2c2e52d96f)" d="M 883.239049 578.964396 
L 884.18569 585.172157 
L 885.132331 556.306931 
L 886.078972 509.132629 
L 887.025613 537.493661 
L 888.918895 569.762815 
L 889.865537 633.968207 
L 890.812178 628.342444 
L 891.758819 582.087271 
L 892.70546 626.457134 
L 893.652101 256.76438 
L 894.598742 509.255661 
L 895.545383 581.652438 
L 896.492025 455.018397 
L 897.438666 530.831152 
L 898.385307 574.772208 
L 899.331948 495.020567 
L 900.278589 560.503339 
L 901.22523 563.912694 
L 902.171871 582.153614 
L 903.118513 497.195967 
L 904.065154 601.172542 
L 905.011795 529.823969 
L 905.958436 617.136139 
L 906.905077 522.249566 
L 907.851718 579.846132 
L 908.798359 311.919577 
L 909.745001 522.50951 
L 910.691642 559.805542 
L 911.638283 430.682489 
L 912.584924 557.583706 
L 913.531565 553.648443 
L 914.478206 570.025772 
L 915.424847 553.400563 
L 916.371489 544.220097 
L 917.31813 506.616477 
L 918.264771 540.13104 
L 919.211412 558.50525 
L 920.158053 419.832623 
L 921.104694 521.358181 
L 922.051335 573.605199 
L 922.997977 288.593871 
L 923.944618 492.515867 
L 924.891259 526.669727 
L 925.8379 177.11165 
L 927.731182 561.613049 
L 928.677823 373.455627 
L 929.624465 380.169999 
L 930.571106 365.551326 
L 931.517747 518.780509 
L 932.464388 591.882309 
L 933.411029 477.045013 
L 934.35767 460.35648 
L 935.304311 533.884075 
L 936.250952 575.003798 
L 937.197594 510.221232 
L 938.144235 496.126057 
L 939.090876 504.637684 
L 940.037517 504.035182 
L 940.984158 397.687197 
L 941.930799 372.333249 
L 942.87744 301.691511 
L 943.824082 527.826484 
L 944.770723 414.907662 
L 945.717364 563.625617 
L 946.664005 433.602121 
L 947.610646 589.571211 
L 948.557287 534.123509 
L 949.503928 493.385547 
L 950.45057 580.033702 
L 951.397211 529.659923 
L 952.343852 568.753821 
L 953.290493 512.087849 
L 954.237134 560.591394 
L 955.183775 568.005971 
L 956.130416 578.725566 
L 957.077058 525.78316 
L 958.023699 566.367932 
L 958.97034 570.500412 
L 959.916981 584.529251 
L 960.863622 483.612831 
L 961.810263 556.397394 
L 962.756904 572.215644 
L 963.703546 515.327126 
L 964.650187 541.641821 
L 965.596828 555.330504 
L 966.543469 557.706737 
L 967.49011 537.720427 
L 968.436751 524.637863 
L 969.383392 586.9477 
L 970.330034 579.377524 
L 971.276675 586.238451 
L 972.223316 570.002249 
L 973.169957 568.952843 
L 974.116598 585.17095 
L 975.063239 575.590016 
L 976.00988 569.602989 
L 976.956522 582.94429 
L 977.903163 583.487085 
L 978.849804 479.868143 
L 979.796445 562.593703 
L 980.743086 437.326298 
L 981.689727 484.435463 
L 982.636368 442.396605 
L 983.58301 563.433827 
L 984.529651 429.693394 
L 985.476292 427.393152 
L 986.422933 589.993383 
L 987.369574 365.798603 
L 988.316215 568.302697 
L 989.262856 576.45608 
L 990.209497 522.34908 
L 991.156139 609.187817 
L 992.10278 573.769245 
L 993.049421 599.23718 
L 993.996062 589.56216 
L 994.942703 572.035314 
L 995.889344 571.429799 
L 996.835985 537.933325 
L 997.782627 585.751136 
L 998.729268 488.461793 
L 999.675909 611.643659 
L 1000.62255 589.398121 
L 1001.569191 585.801195 
L 1002.515832 531.514477 
L 1003.462473 525.299476 
L 1004.409115 588.74254 
L 1005.355756 578.378781 
L 1006.302397 589.208142 
L 1007.249038 591.575929 
L 1008.195679 569.137393 
L 1009.14232 603.126603 
L 1010.088961 593.704289 
L 1011.035603 523.732 
L 1011.982244 575.818594 
L 1012.928885 563.046027 
L 1013.875526 420.156489 
L 1014.822167 579.841308 
L 1015.768808 355.12484 
L 1016.715449 396.006338 
L 1017.662091 323.191615 
L 1018.608732 406.552245 
L 1019.555373 476.920767 
L 1020.502014 502.122732 
L 1021.448655 422.520665 
L 1022.395296 426.801505 
L 1023.341937 582.611373 
L 1024.288579 491.158276 
L 1025.23522 584.21141 
L 1026.181861 362.014719 
L 1027.128502 359.178914 
L 1028.075143 401.845609 
L 1029.021784 451.725437 
L 1029.968425 437.472852 
L 1030.915067 515.884997 
L 1031.861708 580.206792 
L 1032.808349 590.089879 
L 1033.75499 582.671081 
L 1034.701631 581.685603 
L 1035.648272 590.761737 
L 1036.594913 491.75113 
L 1037.541555 431.560005 
L 1038.488196 639.676001 
L 1040.381478 487.607197 
L 1041.328119 628.475123 
L 1042.27476 598.652773 
L 1043.221401 486.525827 
L 1044.168042 595.280205 
L 1045.114684 568.656117 
L 1046.061325 574.945902 
L 1047.007966 573.180611 
L 1047.954607 497.063884 
L 1048.901248 565.927067 
L 1049.847889 566.214748 
L 1050.79453 585.538849 
L 1051.741172 554.551892 
L 1052.687813 468.807192 
L 1052.687813 468.807192 
" style="fill:none;stroke:#1f77b4;stroke-linecap:square;stroke-width:1.5;"/>
   </g>
   <g id="line2d_15">
    <path clip-path="url(#p2c2e52d96f)" d="M 1053.634454 468.158857 
L 1054.581095 499.522745 
L 1055.527736 570.064365 
L 1056.474377 573.517144 
L 1057.421018 541.992826 
L 1058.36766 483.068828 
L 1059.314301 441.124654 
L 1060.260942 520.734571 
L 1061.207583 588.907794 
L 1062.154224 600.260647 
L 1063.100865 581.033048 
L 1064.047506 592.409424 
L 1064.994148 578.465628 
L 1065.940789 576.831816 
L 1066.88743 450.507772 
L 1067.834071 558.584857 
L 1068.780712 421.246298 
L 1069.727353 573.366973 
L 1070.673994 513.368241 
L 1071.620636 634.213673 
" style="fill:none;stroke:#ff7f0e;stroke-linecap:square;stroke-width:1.5;"/>
   </g>
   <g id="line2d_16">
    <path clip-path="url(#p2c2e52d96f)" d="M 1072.567277 630.468388 
L 1073.513918 631.831407 
L 1074.460559 677.424968 
L 1075.4072 644.947142 
L 1076.353841 626.407075 
L 1078.247124 618.491925 
L 1079.193765 622.618367 
L 1080.140406 623.699132 
L 1081.087047 620.760807 
L 1082.033688 549.553355 
L 1082.980329 506.547114 
L 1083.92697 495.115251 
L 1084.873612 557.299641 
L 1085.820253 585.816875 
L 1086.766894 554.120675 
L 1087.713535 570.927409 
L 1088.660176 677.250065 
L 1089.606817 682.298058 
L 1090.553458 670.193732 
L 1091.5001 681.100896 
L 1092.446741 678.506941 
L 1093.393382 677.245845 
L 1094.340023 682.081544 
L 1095.286664 681.080996 
L 1096.233305 582.405111 
L 1097.179946 539.056306 
L 1098.126587 483.766618 
L 1099.073229 569.243544 
L 1100.01987 683.06943 
L 1100.966511 603.419713 
L 1101.913152 539.044846 
L 1102.859793 599.439825 
L 1103.806434 676.581227 
L 1104.753075 681.233583 
L 1105.699717 542.171345 
L 1106.646358 677.848348 
L 1107.592999 680.154622 
L 1108.53964 679.111255 
L 1109.486281 429.215131 
L 1110.432922 530.90232 
L 1111.379563 530.378224 
L 1112.326205 611.51218 
L 1113.272846 576.730489 
L 1114.219487 651.086756 
L 1115.166128 678.380286 
L 1116.112769 360.484641 
L 1117.05941 586.162459 
L 1118.006051 682.308316 
L 1118.952693 673.896801 
L 1119.899334 628.419039 
L 1120.845975 683.518749 
L 1121.792616 685.847936 
L 1122.739257 681.790246 
L 1124.632539 681.992892 
L 1125.579181 682.404812 
L 1126.525822 680.012891 
L 1127.472463 684.251522 
L 1128.419104 679.076875 
L 1129.365745 641.411133 
L 1130.312386 660.714729 
L 1131.259027 675.324351 
L 1132.205669 652.625878 
L 1133.15231 637.20568 
L 1134.098951 670.017629 
L 1135.045592 670.989836 
L 1135.992233 594.430426 
L 1136.938874 534.701884 
L 1137.885515 602.267183 
L 1138.832157 588.840847 
L 1139.778798 678.257859 
L 1140.725439 594.981064 
L 1141.67208 548.429166 
L 1142.618721 677.363455 
L 1144.512003 519.246105 
L 1145.458645 611.432573 
L 1147.351927 604.188677 
L 1148.298568 600.133999 
L 1149.245209 681.831858 
L 1150.19185 681.000778 
L 1151.138491 680.959166 
L 1152.085132 601.097758 
L 1153.031774 477.013042 
L 1154.925056 614.880528 
L 1155.871697 617.056531 
L 1156.818338 681.214279 
L 1158.71162 544.160993 
L 1159.658262 635.019425 
L 1160.604903 580.163368 
L 1161.551544 683.1985 
L 1162.498185 681.678674 
L 1163.444826 656.576217 
L 1164.391467 641.165063 
L 1165.338108 609.628085 
L 1166.28475 622.544791 
L 1167.231391 620.600982 
L 1168.178032 623.176842 
L 1169.124673 618.871881 
L 1170.071314 685.218898 
L 1171.017955 679.366965 
L 1171.964596 672.385423 
L 1172.911238 528.378927 
L 1173.857879 683.056166 
L 1174.80452 677.25972 
L 1175.751161 682.877647 
L 1176.697802 679.382048 
L 1177.644443 680.404911 
L 1178.591084 637.494569 
L 1179.537726 683.724407 
L 1180.484367 46.340909 
L 1181.431008 663.742317 
L 1182.377649 477.709027 
L 1183.32429 611.848116 
L 1184.270931 681.134068 
L 1185.217572 682.216041 
L 1186.164214 609.733625 
L 1187.110855 670.481414 
L 1188.057496 538.36334 
L 1189.004137 590.117018 
L 1189.950778 601.135754 
L 1190.897419 678.680031 
L 1191.84406 681.005005 
L 1192.790702 676.824277 
L 1193.737343 667.083518 
L 1194.683984 683.626704 
L 1195.630625 681.902421 
L 1196.577266 616.536052 
L 1197.523907 540.698566 
L 1198.470548 535.28509 
L 1199.41719 570.113216 
L 1200.363831 524.602283 
L 1201.310472 608.593755 
L 1202.257113 611.118959 
L 1203.203754 606.886971 
L 1204.150395 684.078425 
L 1205.097036 617.511875 
L 1206.043677 681.577348 
L 1206.990319 683.787127 
L 1207.93696 681.824625 
L 1208.883601 682.641226 
L 1209.830242 685.730937 
L 1210.776883 683.018774 
L 1211.723524 614.337129 
L 1212.670165 684.786474 
L 1213.616807 683.764811 
L 1214.563448 616.755578 
L 1215.510089 685.223125 
L 1216.45673 548.742182 
L 1217.403371 686.756215 
L 1218.350012 616.615056 
L 1219.296653 598.795704 
L 1220.243295 608.440565 
L 1221.189936 682.981979 
L 1222.136577 652.109015 
L 1223.083218 490.997249 
L 1224.9765 510.918424 
L 1225.923141 387.875271 
L 1226.869783 614.786441 
L 1227.816424 682.632182 
L 1228.763065 684.04526 
L 1229.709706 680.378375 
L 1230.656347 539.447118 
L 1231.602988 598.538182 
L 1232.549629 503.281301 
L 1233.496271 559.429209 
L 1234.442912 682.800448 
L 1235.389553 684.490949 
L 1236.336194 671.660486 
L 1237.282835 626.872074 
L 1238.229476 457.402468 
L 1239.176117 677.382752 
L 1240.122759 606.035984 
L 1241.0694 680.56353 
L 1242.016041 606.291097 
L 1242.962682 605.83515 
L 1243.909323 607.106497 
L 1244.855964 681.129244 
L 1245.802605 684.160448 
L 1246.749247 612.847456 
L 1247.695888 612.613457 
L 1248.642529 555.577774 
L 1249.58917 682.666561 
L 1250.535811 678.705963 
L 1251.482452 681.483268 
L 1252.429093 681.960928 
L 1253.375735 612.219625 
L 1254.322376 685.360024 
L 1255.269017 679.440548 
L 1256.215658 681.714255 
L 1257.162299 623.916854 
L 1258.10894 599.507369 
L 1259.055581 620.220421 
L 1260.002222 684.164675 
L 1260.948864 616.088545 
L 1260.948864 616.088545 
" style="fill:none;stroke:#2ca02c;stroke-linecap:square;stroke-width:1.5;"/>
   </g>
   <g id="line2d_17">
    <path clip-path="url(#p2c2e52d96f)" d="M 170.41827 663.283844 
L 171.364911 661.979628 
L 173.258193 662.059527 
L 174.204835 662.212465 
L 176.098117 664.498975 
L 177.044758 664.538177 
L 177.991399 668.852115 
L 178.93804 672.212505 
L 181.777964 672.078942 
L 182.724605 670.451387 
L 183.671246 672.601407 
L 184.617887 672.494155 
L 185.564528 672.652722 
L 187.45781 672.505149 
L 188.404452 672.058387 
L 189.351093 672.261646 
L 190.297734 671.520882 
L 191.244375 671.547456 
L 192.191016 670.887282 
L 193.137657 669.527204 
L 194.084298 668.993128 
L 195.03094 669.602579 
L 195.977581 669.959755 
L 196.924222 669.344073 
L 198.817504 669.268559 
L 199.764145 668.893804 
L 202.604069 668.851964 
L 203.55071 668.445207 
L 204.497351 667.280648 
L 205.443992 664.692195 
L 206.390633 664.043744 
L 207.337274 663.850411 
L 209.230557 662.719839 
L 210.177198 662.761466 
L 211.123839 664.46554 
L 213.963762 663.791432 
L 215.857045 663.887011 
L 216.803686 665.309674 
L 218.696968 665.401007 
L 219.643609 660.722492 
L 220.59025 659.998891 
L 224.376815 660.022689 
L 225.323456 660.360667 
L 227.216738 660.533481 
L 228.16338 663.156487 
L 229.110021 661.45127 
L 230.056662 661.575949 
L 231.003303 660.906138 
L 231.949944 659.953545 
L 232.896585 660.16516 
L 233.843226 660.706485 
L 234.789868 662.328097 
L 235.736509 662.856266 
L 236.68315 662.859307 
L 237.629791 663.142729 
L 238.576432 663.813834 
L 239.523073 662.790892 
L 240.469714 663.0959 
L 241.416355 663.181202 
L 242.362997 663.670748 
L 243.309638 663.577405 
L 244.256279 662.597874 
L 245.20292 663.069376 
L 246.149561 662.953379 
L 247.096202 659.984266 
L 248.042843 659.937789 
L 248.989485 659.057167 
L 249.936126 660.238111 
L 250.882767 662.830258 
L 251.829408 663.637188 
L 252.776049 662.42477 
L 253.72269 661.441017 
L 254.669331 662.11309 
L 256.562614 662.266153 
L 257.509255 662.472566 
L 258.455896 661.217831 
L 259.402537 661.55606 
L 260.349178 661.62225 
L 262.242461 658.806289 
L 263.189102 658.746782 
L 264.135743 658.840867 
L 265.082384 663.64092 
L 266.029025 664.37892 
L 266.975666 663.367424 
L 268.868949 663.444973 
L 269.81559 661.120882 
L 270.762231 659.136439 
L 271.708872 657.508431 
L 272.655513 656.15755 
L 273.602154 656.026651 
L 274.548795 657.694539 
L 275.495437 657.658366 
L 276.442078 658.339825 
L 277.388719 659.293937 
L 279.282001 656.392246 
L 280.228642 656.369316 
L 282.121925 653.410845 
L 283.068566 653.876907 
L 284.015207 653.042335 
L 284.961848 653.251148 
L 285.908489 653.077654 
L 286.85513 653.234449 
L 287.801771 651.832518 
L 288.748413 648.809 
L 289.695054 646.76926 
L 290.641695 646.682111 
L 291.588336 645.349185 
L 292.534977 648.271922 
L 293.481618 644.129128 
L 294.428259 644.574057 
L 295.3749 643.617481 
L 296.321542 642.025069 
L 297.268183 641.088032 
L 298.214824 641.809597 
L 299.161465 643.350129 
L 302.94803 643.287319 
L 303.894671 644.775594 
L 304.841312 644.822209 
L 305.787953 643.384758 
L 307.681235 646.182526 
L 308.627876 646.221049 
L 311.4678 646.07119 
L 312.414441 646.895799 
L 313.361082 643.95429 
L 314.307723 642.222147 
L 315.254364 643.129154 
L 316.201006 642.606048 
L 317.147647 641.167793 
L 318.094288 641.554873 
L 319.040929 640.122938 
L 319.98757 640.183374 
L 320.934211 636.956848 
L 322.827494 636.979502 
L 323.774135 637.685726 
L 324.720776 636.865302 
L 325.667417 636.79803 
L 326.614058 637.183704 
L 327.560699 636.964915 
L 328.50734 635.079909 
L 329.453982 636.246378 
L 330.400623 636.160159 
L 331.347264 636.455768 
L 332.293905 634.899266 
L 333.240546 632.489609 
L 334.187187 629.629733 
L 335.133828 632.65011 
L 336.08047 631.159774 
L 337.027111 632.672928 
L 337.973752 632.724895 
L 338.920393 636.985006 
L 339.867034 637.848389 
L 340.813675 638.879297 
L 341.760316 640.389837 
L 342.706958 641.340243 
L 343.653599 641.917604 
L 344.60024 639.364835 
L 345.546881 639.432093 
L 346.493522 637.949208 
L 347.440163 635.175275 
L 348.386804 635.060007 
L 350.280087 635.158074 
L 351.226728 634.846394 
L 352.173369 634.794892 
L 353.12001 631.81192 
L 354.066651 629.859705 
L 355.013292 625.254342 
L 355.959933 624.04249 
L 356.906575 624.008666 
L 357.853216 619.844801 
L 358.799857 621.031662 
L 359.746498 622.797869 
L 360.693139 622.751103 
L 361.63978 624.418878 
L 362.586421 621.461651 
L 364.479704 619.019262 
L 365.426345 618.441575 
L 366.372986 619.103647 
L 367.319627 617.14569 
L 368.266268 617.162276 
L 369.212909 616.343623 
L 370.159551 617.252603 
L 371.106192 613.0618 
L 372.052833 611.227681 
L 372.999474 612.642051 
L 373.946115 613.706896 
L 374.892756 609.894856 
L 375.839397 611.32997 
L 376.786039 611.181518 
L 377.73268 608.386112 
L 378.679321 609.785367 
L 379.625962 614.013852 
L 380.572603 611.967629 
L 381.519244 612.859634 
L 382.465885 612.703756 
L 383.412527 611.076276 
L 387.199091 611.2703 
L 388.145732 609.898311 
L 389.092373 608.250878 
L 390.039015 609.545846 
L 390.985656 609.485762 
L 391.932297 610.791083 
L 392.878938 610.260262 
L 394.77222 610.172636 
L 395.718861 610.06326 
L 396.665503 611.797201 
L 397.612144 610.247094 
L 398.558785 611.529347 
L 399.505426 611.725067 
L 400.452067 615.722839 
L 401.398708 612.098753 
L 402.345349 609.53979 
L 403.29199 612.269545 
L 404.238632 613.880013 
L 405.185273 613.831236 
L 406.131914 613.458656 
L 407.078555 614.180824 
L 408.025196 620.067359 
L 408.971837 620.594171 
L 409.918478 619.981354 
L 410.86512 620.000477 
L 411.811761 619.022341 
L 412.758402 619.600907 
L 413.705043 617.996835 
L 414.651684 619.535571 
L 416.544966 622.185704 
L 417.491608 623.670311 
L 418.438249 621.144355 
L 419.38489 621.930502 
L 420.331531 625.945124 
L 421.278172 624.509796 
L 423.171454 624.572883 
L 424.118096 627.063696 
L 425.064737 628.839678 
L 426.011378 630.924186 
L 426.958019 631.410377 
L 428.851301 629.599151 
L 429.797942 628.242101 
L 430.744584 623.996125 
L 431.691225 621.521458 
L 432.637866 618.62468 
L 433.584507 617.716039 
L 434.531148 615.539507 
L 435.477789 615.840683 
L 436.42443 613.49508 
L 437.371072 612.812152 
L 438.317713 615.371605 
L 439.264354 614.415105 
L 442.104277 601.181754 
L 443.050918 598.590411 
L 443.99756 599.39949 
L 444.944201 596.275605 
L 445.890842 594.868685 
L 446.837483 597.12675 
L 447.784124 597.496026 
L 448.730765 598.267272 
L 450.624048 594.72673 
L 453.463971 592.817801 
L 454.410612 593.612983 
L 455.357253 587.732177 
L 456.303894 587.704422 
L 457.250535 590.622032 
L 458.197177 591.073205 
L 459.143818 591.791743 
L 460.090459 590.896018 
L 461.0371 582.441737 
L 461.983741 582.560536 
L 462.930382 582.410099 
L 463.877023 581.741104 
L 464.823665 581.500704 
L 466.716947 578.493709 
L 467.663588 574.000573 
L 468.610229 578.242302 
L 469.55687 578.214647 
L 470.503511 576.557275 
L 472.396794 576.387476 
L 473.343435 575.190852 
L 474.290076 576.359708 
L 475.236717 569.735224 
L 476.183358 573.025729 
L 477.129999 571.310183 
L 478.076641 573.293106 
L 479.023282 573.388459 
L 479.969923 572.717215 
L 480.916564 569.337187 
L 481.863205 569.228439 
L 482.809846 568.509299 
L 483.756487 566.044985 
L 484.703129 564.893104 
L 486.596411 571.537214 
L 487.543052 571.550081 
L 488.489693 574.708858 
L 489.436334 574.452802 
L 490.382975 578.163031 
L 491.329617 576.351063 
L 492.276258 577.897564 
L 494.16954 577.308644 
L 495.116181 578.249928 
L 496.062822 579.60346 
L 497.009463 581.941096 
L 497.956105 582.054618 
L 499.849387 583.016345 
L 500.796028 591.587704 
L 501.742669 590.348649 
L 503.635951 590.80853 
L 504.582593 588.60859 
L 505.529234 589.13103 
L 506.475875 597.087586 
L 507.422516 599.76374 
L 508.369157 600.963153 
L 509.315798 603.917 
L 510.262439 604.14123 
L 511.20908 604.812172 
L 512.155722 604.958249 
L 514.049004 602.285298 
L 514.995645 599.646536 
L 515.942286 600.607132 
L 516.888927 598.19157 
L 517.835568 597.072382 
L 518.78221 597.187336 
L 519.728851 594.292908 
L 520.675492 600.572002 
L 521.622133 596.33153 
L 522.568774 596.796952 
L 523.515415 596.676934 
L 524.462056 592.029441 
L 525.408698 593.61101 
L 526.355339 595.415061 
L 527.30198 595.449464 
L 528.248621 594.95121 
L 529.195262 597.765866 
L 530.141903 598.687926 
L 531.088544 598.891336 
L 532.035186 598.380719 
L 532.981827 601.599531 
L 534.875109 601.242103 
L 535.82175 601.414251 
L 536.768391 604.251825 
L 537.715032 602.953012 
L 538.661674 601.894889 
L 539.608315 601.688979 
L 540.554956 601.335245 
L 541.501597 600.684293 
L 542.448238 599.685789 
L 543.394879 597.446987 
L 544.34152 596.504421 
L 545.288162 595.810171 
L 546.234803 595.387244 
L 548.128085 593.336585 
L 549.074726 592.9755 
L 550.021367 595.112805 
L 550.968008 594.535583 
L 552.861291 592.368726 
L 553.807932 590.300829 
L 554.754573 589.907428 
L 555.701214 588.791306 
L 556.647855 588.575884 
L 557.594496 588.052992 
L 558.541138 592.705121 
L 559.487779 593.970122 
L 560.43442 596.634905 
L 561.381061 597.269447 
L 562.327702 599.750397 
L 563.274343 599.459901 
L 564.220984 600.011227 
L 565.167625 603.51733 
L 566.114267 604.664776 
L 567.060908 609.916806 
L 568.007549 612.127866 
L 568.95419 611.576779 
L 569.900831 618.255492 
L 570.847472 621.143261 
L 571.794113 617.703877 
L 572.740755 620.12238 
L 573.687396 621.836669 
L 574.634037 620.960709 
L 575.580678 620.603583 
L 576.527319 620.016434 
L 577.47396 618.488102 
L 579.367243 620.892445 
L 580.313884 620.512702 
L 582.207166 622.419721 
L 583.153807 624.726323 
L 584.100448 628.336889 
L 585.993731 630.851725 
L 587.887013 633.164044 
L 588.833654 636.003338 
L 589.780295 637.234327 
L 591.673577 639.299787 
L 592.620219 642.051179 
L 593.56686 643.541063 
L 594.513501 643.269389 
L 595.460142 643.71183 
L 596.406783 641.814334 
L 597.353424 639.224411 
L 598.300065 638.00404 
L 599.246707 638.305744 
L 600.193348 636.84594 
L 602.08663 632.212721 
L 603.979912 631.017592 
L 604.926553 628.557399 
L 606.819836 625.104558 
L 607.766477 622.856232 
L 608.713118 622.63885 
L 609.659759 618.514576 
L 610.6064 615.216696 
L 611.553041 613.7124 
L 613.446324 607.195545 
L 614.392965 605.09528 
L 615.339606 602.26752 
L 616.286247 600.436944 
L 617.232888 604.577439 
L 618.179529 601.051748 
L 619.12617 600.134186 
L 620.072812 600.159026 
L 621.019453 600.683803 
L 621.966094 600.354357 
L 622.912735 601.163775 
L 623.859376 596.467355 
L 624.806017 590.839753 
L 625.752658 587.130768 
L 626.6993 584.48301 
L 627.645941 582.356335 
L 628.592582 575.225078 
L 629.539223 571.360957 
L 630.485864 560.731526 
L 631.432505 553.610912 
L 632.379146 551.478444 
L 633.325788 548.508301 
L 634.272429 544.175717 
L 635.21907 541.655428 
L 636.165711 540.975979 
L 637.112352 537.557691 
L 638.058993 532.876764 
L 639.005634 529.589261 
L 639.952276 528.586284 
L 640.898917 526.554435 
L 641.845558 525.256527 
L 642.792199 525.457637 
L 643.73884 523.712426 
L 645.632122 519.306904 
L 646.578764 520.638486 
L 647.525405 520.614336 
L 648.472046 522.079229 
L 649.418687 519.635898 
L 650.365328 519.410111 
L 651.311969 516.566167 
L 652.25861 513.101188 
L 653.205252 513.054712 
L 654.151893 511.847785 
L 655.098534 514.657414 
L 656.045175 514.836687 
L 656.991816 511.662166 
L 657.938457 511.844593 
L 658.885098 513.313067 
L 659.83174 513.33552 
L 660.778381 514.268222 
L 661.725022 513.990555 
L 662.671663 512.00806 
L 663.618304 511.715365 
L 665.511586 509.543771 
L 666.458228 509.348641 
L 667.404869 507.800068 
L 668.35151 506.800722 
L 669.298151 508.6511 
L 670.244792 511.537675 
L 671.191433 513.032723 
L 672.138074 511.86393 
L 673.084715 505.822246 
L 674.031357 506.102251 
L 674.977998 506.538761 
L 675.924639 513.77551 
L 676.87128 517.342665 
L 677.817921 517.382834 
L 678.764562 518.329434 
L 679.711203 520.232972 
L 680.657845 519.081343 
L 681.604486 518.795986 
L 682.551127 520.809566 
L 683.497768 523.233824 
L 684.444409 520.222066 
L 685.39105 520.069142 
L 686.337691 517.243869 
L 687.284333 517.806906 
L 688.230974 516.0263 
L 689.177615 513.299309 
L 690.124256 508.840827 
L 691.070897 509.229617 
L 692.017538 505.621966 
L 692.964179 498.857196 
L 693.910821 495.425288 
L 694.857462 493.970409 
L 695.804103 485.564791 
L 696.750744 488.721608 
L 697.697385 490.583558 
L 698.644026 489.11957 
L 699.590667 489.827628 
L 700.537309 488.85208 
L 701.48395 489.975489 
L 702.430591 489.532747 
L 703.377232 490.06147 
L 704.323873 490.947984 
L 705.270514 492.431372 
L 706.217155 491.245918 
L 707.163797 489.676638 
L 708.110438 491.412526 
L 710.00372 493.61268 
L 710.950361 493.985927 
L 711.897002 493.695531 
L 712.843643 495.057168 
L 713.790285 493.825978 
L 714.736926 494.03552 
L 715.683567 492.865621 
L 716.630208 494.212695 
L 717.576849 493.786538 
L 718.52349 499.645531 
L 719.470131 502.668207 
L 720.416772 503.553553 
L 721.363414 505.465598 
L 722.310055 507.993263 
L 723.256696 508.851796 
L 724.203337 509.881787 
L 725.149978 511.106971 
L 726.096619 513.636106 
L 727.04326 513.150103 
L 727.989902 511.734401 
L 728.936543 508.406767 
L 729.883184 511.59237 
L 730.829825 509.910673 
L 731.776466 509.853717 
L 732.723107 510.830245 
L 733.669748 514.668685 
L 734.61639 519.092877 
L 735.563031 524.146021 
L 737.456313 527.509439 
L 738.402954 535.142492 
L 739.349595 538.940284 
L 740.296236 543.395198 
L 741.242878 552.497981 
L 742.189519 553.098146 
L 744.082801 556.392685 
L 745.029442 555.933922 
L 745.976083 553.678961 
L 746.922724 553.19894 
L 747.869366 557.019537 
L 748.816007 557.124452 
L 749.762648 555.259814 
L 750.709289 554.393126 
L 751.65593 551.924264 
L 753.549212 552.202258 
L 754.495854 548.474074 
L 755.442495 547.572595 
L 756.389136 547.494191 
L 757.335777 544.211287 
L 758.282418 536.655671 
L 759.229059 538.213429 
L 760.1757 536.759795 
L 761.122342 538.217726 
L 762.068983 537.162179 
L 763.015624 538.009165 
L 763.962265 538.36898 
L 764.908906 539.951102 
L 765.855547 540.16337 
L 766.802188 537.924542 
L 767.74883 536.509443 
L 768.695471 532.841808 
L 769.642112 531.029112 
L 770.588753 529.889255 
L 772.482035 520.902319 
L 773.428676 520.658514 
L 774.375317 518.451826 
L 776.2686 515.227047 
L 777.215241 517.344801 
L 778.161882 516.822047 
L 779.108523 513.12775 
L 780.055164 508.813562 
L 781.001805 505.574484 
L 781.948447 501.887173 
L 782.895088 503.365522 
L 783.841729 503.915253 
L 784.78837 502.138567 
L 785.735011 501.378114 
L 786.681652 497.229779 
L 787.628293 492.574383 
L 788.574935 488.539445 
L 789.521576 485.871093 
L 790.468217 485.507534 
L 791.414858 489.619443 
L 792.361499 489.651672 
L 793.30814 484.564214 
L 794.254781 482.559366 
L 795.201423 483.858379 
L 796.148064 481.089221 
L 797.094705 480.684876 
L 798.041346 481.165639 
L 798.987987 480.835829 
L 799.934628 485.085749 
L 800.881269 485.305832 
L 801.827911 484.939044 
L 802.774552 487.966092 
L 803.721193 495.671907 
L 804.667834 496.706384 
L 805.614475 498.390895 
L 806.561116 499.002657 
L 807.507757 500.410569 
L 809.40104 500.031731 
L 810.347681 500.234249 
L 811.294322 497.851003 
L 812.240963 496.077132 
L 813.187604 495.971877 
L 814.134245 498.280024 
L 815.080887 497.237795 
L 816.027528 498.06317 
L 816.974169 500.222953 
L 817.92081 499.292211 
L 818.867451 501.04535 
L 819.814092 504.096963 
L 821.707375 512.602622 
L 822.654016 513.878328 
L 823.600657 514.286492 
L 824.547298 515.628112 
L 825.493939 519.624728 
L 826.44058 524.654715 
L 827.387221 528.529052 
L 828.333862 527.166297 
L 829.280504 524.307552 
L 830.227145 524.801772 
L 831.173786 522.883282 
L 832.120427 526.574387 
L 833.067068 529.416785 
L 834.013709 530.375761 
L 834.96035 528.761448 
L 835.906992 528.604805 
L 836.853633 526.006363 
L 837.800274 521.620279 
L 838.746915 525.818093 
L 839.693556 526.363677 
L 840.640197 522.888936 
L 842.53348 527.083534 
L 843.480121 527.960713 
L 844.426762 528.383968 
L 846.320044 528.120938 
L 847.266685 528.950635 
L 848.213326 527.418635 
L 849.159968 527.159902 
L 850.106609 525.372512 
L 851.05325 524.036407 
L 851.999891 520.983638 
L 852.946532 521.440666 
L 853.893173 520.947665 
L 854.839814 520.846306 
L 856.733097 516.92827 
L 857.679738 516.694202 
L 858.626379 512.946467 
L 859.57302 510.677673 
L 860.519661 512.601428 
L 861.466302 511.794498 
L 862.412944 512.908597 
L 863.359585 517.362229 
L 864.306226 514.386042 
L 865.252867 517.177063 
L 866.199508 515.2882 
L 867.146149 514.510646 
L 868.09279 514.579739 
L 869.986073 514.980101 
L 870.932714 515.619971 
L 871.879355 514.275473 
L 872.825996 512.064426 
L 873.772637 513.587003 
L 874.719278 516.158381 
L 876.612561 519.309807 
L 877.559202 519.480876 
L 878.505843 519.793774 
L 879.452484 521.853605 
L 880.399125 524.548154 
L 881.345766 523.729565 
L 882.292407 526.634861 
L 883.239049 531.939073 
L 884.18569 532.655487 
L 885.132331 533.715407 
L 886.078972 536.612122 
L 887.025613 537.327506 
L 887.972254 538.523212 
L 888.918895 538.365312 
L 889.865537 539.270975 
L 890.812178 540.492867 
L 891.758819 540.455361 
L 892.70546 540.846412 
L 893.652101 535.327721 
L 894.598742 533.925413 
L 895.545383 535.458934 
L 896.492025 534.423817 
L 897.438666 536.139337 
L 898.385307 535.71357 
L 899.331948 535.844394 
L 900.278589 535.622388 
L 901.22523 537.089542 
L 902.171871 541.693649 
L 903.118513 543.52675 
L 904.065154 548.122589 
L 905.011795 549.781921 
L 905.958436 550.373378 
L 906.905077 549.361254 
L 907.851718 549.542362 
L 908.798359 544.251959 
L 909.745001 545.221288 
L 910.691642 544.613207 
L 911.638283 541.574925 
L 912.584924 541.349351 
L 913.531565 540.59562 
L 914.478206 540.700598 
L 915.424847 542.134946 
L 916.371489 541.353209 
L 917.31813 541.208149 
L 918.264771 542.754034 
L 919.211412 542.548764 
L 920.158053 539.340621 
L 921.104694 537.784772 
L 922.051335 537.836011 
L 922.997977 532.022678 
L 923.944618 530.485689 
L 924.891259 529.82123 
L 925.8379 523.125127 
L 926.784541 520.745474 
L 927.731182 519.96356 
L 930.571106 507.437174 
L 931.517747 507.638172 
L 932.464388 508.771269 
L 933.411029 507.178342 
L 935.304311 502.813957 
L 936.250952 501.702735 
L 937.197594 500.205526 
L 938.144235 497.490295 
L 939.090876 502.654322 
L 940.037517 502.545562 
L 940.984158 498.712953 
L 941.930799 496.990346 
L 942.87744 492.216603 
L 943.824082 491.238567 
L 944.770723 489.569549 
L 945.717364 489.634596 
L 946.664005 486.919792 
L 947.610646 487.074326 
L 948.557287 487.84365 
L 949.503928 485.598087 
L 950.45057 486.644123 
L 951.397211 484.821702 
L 952.343852 485.790541 
L 953.290493 484.37891 
L 954.237134 489.559573 
L 955.183775 490.507416 
L 956.130416 490.901583 
L 957.077058 492.882847 
L 958.023699 493.065851 
L 959.916981 493.71909 
L 960.863622 492.265179 
L 961.810263 492.518873 
L 962.756904 493.885522 
L 963.703546 493.368774 
L 964.650187 493.017452 
L 965.596828 495.840325 
L 966.543469 496.597586 
L 967.49011 495.849987 
L 968.436751 500.76757 
L 969.383392 502.7349 
L 970.330034 503.832979 
L 971.276675 512.356454 
L 972.223316 516.53566 
L 973.169957 516.688573 
L 976.00988 529.421635 
L 976.956522 530.758381 
L 977.903163 530.58348 
L 978.849804 530.642295 
L 979.796445 532.772238 
L 981.689727 528.873777 
L 982.636368 527.460764 
L 983.58301 528.863009 
L 985.476292 525.704961 
L 986.422933 529.71134 
L 987.369574 529.575201 
L 988.316215 535.129601 
L 989.262856 536.142717 
L 990.209497 538.38108 
L 991.156139 539.330293 
L 992.10278 542.250441 
L 993.049421 542.451816 
L 993.996062 543.606787 
L 994.942703 545.245324 
L 995.889344 545.066076 
L 996.835985 545.238439 
L 997.782627 545.59255 
L 998.729268 545.10034 
L 999.675909 546.163929 
L 1000.62255 546.609599 
L 1002.515832 546.87641 
L 1003.462473 546.020817 
L 1004.409115 546.400862 
L 1005.355756 546.272727 
L 1006.302397 548.472629 
L 1007.249038 549.205515 
L 1008.195679 549.141385 
L 1009.14232 550.970541 
L 1010.088961 552.055176 
L 1011.035603 551.396873 
L 1011.982244 551.774204 
L 1012.928885 552.30182 
L 1013.875526 550.125125 
L 1014.822167 549.977075 
L 1015.768808 545.305144 
L 1016.715449 541.341975 
L 1017.662091 536.200087 
L 1018.608732 532.816741 
L 1019.555373 530.561529 
L 1020.502014 529.030961 
L 1022.395296 522.713771 
L 1023.341937 522.695527 
L 1024.288579 522.930738 
L 1025.23522 523.381107 
L 1026.181861 521.812116 
L 1027.128502 519.202604 
L 1028.075143 518.357792 
L 1029.021784 516.030534 
L 1029.968425 516.192606 
L 1030.915067 518.036186 
L 1031.861708 517.832299 
L 1032.808349 522.505034 
L 1033.75499 522.804375 
L 1034.701631 522.913323 
L 1035.648272 524.338587 
L 1036.594913 521.891989 
L 1037.541555 518.929297 
L 1038.488196 519.771772 
L 1039.434837 519.232043 
L 1040.381478 517.473124 
L 1042.27476 519.926557 
L 1043.221401 517.859363 
L 1044.168042 520.084747 
L 1045.114684 519.189173 
L 1047.007966 518.625156 
L 1047.954607 517.907435 
L 1048.901248 518.753844 
L 1049.847889 518.284515 
L 1050.79453 518.433683 
L 1051.741172 517.711677 
L 1052.687813 515.153995 
L 1054.581095 510.891862 
L 1055.527736 510.399364 
L 1056.474377 511.436554 
L 1057.421018 510.731851 
L 1058.36766 509.065659 
L 1059.314301 509.502496 
L 1060.260942 508.271106 
L 1061.207583 513.141584 
L 1062.154224 517.396882 
L 1063.100865 522.768578 
L 1064.047506 526.640603 
L 1064.994148 528.756121 
L 1065.940789 530.31256 
L 1066.88743 530.895625 
L 1067.834071 533.641111 
L 1068.780712 530.279339 
L 1069.727353 531.99202 
L 1070.673994 530.516121 
L 1072.567277 541.838796 
L 1075.4072 555.654622 
L 1076.353841 557.957165 
L 1077.300482 558.841908 
L 1078.247124 559.433617 
L 1080.140406 561.141134 
L 1081.087047 561.766115 
L 1082.033688 562.970328 
L 1082.980329 564.532559 
L 1083.92697 561.520877 
L 1084.873612 561.38847 
L 1085.820253 563.434505 
L 1086.766894 561.885454 
L 1087.713535 561.307843 
L 1088.660176 565.281264 
L 1089.606817 567.094136 
L 1092.446741 573.615364 
L 1093.393382 577.369155 
L 1095.286664 582.182087 
L 1096.233305 582.1168 
L 1097.179946 581.793976 
L 1098.126587 582.10563 
L 1099.073229 584.211561 
L 1100.01987 588.035451 
L 1100.966511 588.730354 
L 1101.913152 588.012181 
L 1102.859793 589.208993 
L 1103.806434 593.240502 
L 1104.753075 598.242771 
L 1105.699717 598.689371 
L 1108.53964 604.250053 
L 1109.486281 600.850171 
L 1111.379563 598.891486 
L 1112.326205 602.245745 
L 1113.272846 602.623779 
L 1114.219487 607.412121 
L 1115.166128 609.599899 
L 1116.112769 606.414824 
L 1117.05941 605.413757 
L 1118.006051 606.493755 
L 1118.952693 607.370118 
L 1119.899334 606.349161 
L 1120.845975 607.152736 
L 1126.525822 614.637839 
L 1127.472463 617.444051 
L 1128.419104 621.038421 
L 1129.365745 624.086252 
L 1130.312386 626.240733 
L 1132.205669 630.157664 
L 1133.15231 631.538461 
L 1135.045592 631.152197 
L 1135.992233 629.573795 
L 1136.938874 626.523816 
L 1137.885515 624.935488 
L 1138.832157 623.093717 
L 1139.778798 623.014057 
L 1140.725439 621.220308 
L 1141.67208 620.512476 
L 1142.618721 623.393875 
L 1143.565362 625.868718 
L 1144.512003 624.827105 
L 1145.458645 623.33467 
L 1146.405286 623.429785 
L 1147.351927 624.786948 
L 1150.19185 624.905948 
L 1151.138491 627.797361 
L 1152.085132 626.19839 
L 1153.031774 621.966274 
L 1153.978415 619.120948 
L 1154.925056 622.988977 
L 1155.871697 624.783857 
L 1156.818338 627.926275 
L 1157.764979 628.011162 
L 1158.71162 627.332631 
L 1159.658262 626.997895 
L 1160.604903 624.951709 
L 1161.551544 631.674914 
L 1162.498185 633.664835 
L 1163.444826 633.12875 
L 1164.391467 632.446839 
L 1165.338108 632.05536 
L 1169.124673 626.891811 
L 1170.071314 626.959019 
L 1171.964596 626.736825 
L 1172.911238 623.489479 
L 1173.857879 623.572381 
L 1174.80452 624.319227 
L 1175.751161 624.780954 
L 1176.697802 624.86549 
L 1177.644443 625.44422 
L 1178.591084 625.450238 
L 1179.537726 625.735796 
L 1180.484367 612.722277 
L 1181.431008 614.166274 
L 1182.377649 612.978923 
L 1183.32429 613.178526 
L 1184.270931 615.101301 
L 1185.217572 615.183764 
L 1186.164214 615.491109 
L 1187.110855 618.033864 
L 1188.057496 615.138028 
L 1189.004137 614.878818 
L 1189.950778 616.584853 
L 1191.84406 619.507087 
L 1193.737343 622.41511 
L 1195.630625 622.471287 
L 1197.523907 619.870822 
L 1198.470548 621.084823 
L 1199.41719 621.659357 
L 1200.363831 619.77856 
L 1201.310472 619.602252 
L 1202.257113 618.141933 
L 1203.203754 617.960687 
L 1204.150395 620.875634 
L 1205.097036 620.510893 
L 1206.043677 622.623684 
L 1207.93696 622.638988 
L 1208.883601 623.182009 
L 1209.830242 624.110465 
L 1210.776883 625.639437 
L 1211.723524 625.468444 
L 1213.616807 628.067891 
L 1215.510089 628.02389 
L 1216.45673 625.30254 
L 1217.403371 625.601932 
L 1218.350012 627.440184 
L 1219.296653 625.684758 
L 1220.243295 624.251026 
L 1221.189936 624.253199 
L 1222.136577 623.685011 
L 1223.083218 619.739018 
L 1224.029859 616.896369 
L 1224.9765 613.296244 
L 1225.923141 620.411543 
L 1226.869783 619.391629 
L 1227.816424 623.660862 
L 1228.763065 625.164969 
L 1229.709706 625.149225 
L 1230.656347 622.174873 
L 1231.602988 621.941634 
L 1232.549629 618.458299 
L 1233.496271 618.897171 
L 1235.389553 622.564642 
L 1236.336194 622.418402 
L 1237.282835 621.290632 
L 1238.229476 616.719345 
L 1239.176117 616.933912 
L 1240.122759 615.317439 
L 1241.0694 615.289545 
L 1242.016041 615.076109 
L 1243.909323 617.9294 
L 1244.855964 620.242234 
L 1245.802605 623.566362 
L 1247.695888 623.686117 
L 1248.642529 622.617175 
L 1249.58917 622.587761 
L 1250.535811 623.862638 
L 1252.429093 623.822632 
L 1253.375735 622.372528 
L 1254.322376 622.42917 
L 1256.215658 622.270942 
L 1257.162299 622.47052 
L 1258.10894 620.693872 
L 1259.055581 619.37003 
L 1260.002222 620.774387 
L 1260.948864 619.334083 
L 1260.948864 619.334083 
" style="fill:none;stroke:#ff0000;stroke-linecap:square;stroke-width:1.5;"/>
   </g>
   <g id="patch_3">
    <path d="M 69.175 719.2 
L 69.175 14.3 
" style="fill:none;stroke:#000000;stroke-linecap:square;stroke-linejoin:miter;stroke-width:0.8;"/>
   </g>
   <g id="patch_4">
    <path d="M 1317.7 719.2 
L 1317.7 14.3 
" style="fill:none;stroke:#000000;stroke-linecap:square;stroke-linejoin:miter;stroke-width:0.8;"/>
   </g>
   <g id="patch_5">
    <path d="M 69.175 719.2 
L 1317.7 719.2 
" style="fill:none;stroke:#000000;stroke-linecap:square;stroke-linejoin:miter;stroke-width:0.8;"/>
   </g>
   <g id="patch_6">
    <path d="M 69.175 14.3 
L 1317.7 14.3 
" style="fill:none;stroke:#000000;stroke-linecap:square;stroke-linejoin:miter;stroke-width:0.8;"/>
   </g>
   <g id="legend_1">
    <g id="patch_7">
     <path d="M 83.175 177.08125 
L 415.121875 177.08125 
Q 419.121875 177.08125 419.121875 173.08125 
L 419.121875 28.3 
Q 419.121875 24.3 415.121875 24.3 
L 83.175 24.3 
Q 79.175 24.3 79.175 28.3 
L 79.175 173.08125 
Q 79.175 177.08125 83.175 177.08125 
z
" style="fill:#ffffff;opacity:0.8;stroke:#cccccc;stroke-linejoin:miter;"/>
    </g>
    <g id="line2d_18">
     <path d="M 87.175 40.496875 
L 127.175 40.496875 
" style="fill:none;stroke:#000000;stroke-linecap:square;stroke-width:1.5;"/>
    </g>
    <g id="line2d_19"/>
    <g id="text_15">
     <!-- Unused Data -->
     <defs>
      <path d="M 8.6875 72.90625 
L 18.609375 72.90625 
L 18.609375 28.609375 
Q 18.609375 16.890625 22.84375 11.734375 
Q 27.09375 6.59375 36.625 6.59375 
Q 46.09375 6.59375 50.34375 11.734375 
Q 54.59375 16.890625 54.59375 28.609375 
L 54.59375 72.90625 
L 64.5 72.90625 
L 64.5 27.390625 
Q 64.5 13.140625 57.4375 5.859375 
Q 50.390625 -1.421875 36.625 -1.421875 
Q 22.796875 -1.421875 15.734375 5.859375 
Q 8.6875 13.140625 8.6875 27.390625 
z
" id="DejaVuSans-55"/>
      <path d="M 19.671875 64.796875 
L 19.671875 8.109375 
L 31.59375 8.109375 
Q 46.6875 8.109375 53.6875 14.9375 
Q 60.6875 21.78125 60.6875 36.53125 
Q 60.6875 51.171875 53.6875 57.984375 
Q 46.6875 64.796875 31.59375 64.796875 
z
M 9.8125 72.90625 
L 30.078125 72.90625 
Q 51.265625 72.90625 61.171875 64.09375 
Q 71.09375 55.28125 71.09375 36.53125 
Q 71.09375 17.671875 61.125 8.828125 
Q 51.171875 0 30.078125 0 
L 9.8125 0 
z
" id="DejaVuSans-44"/>
     </defs>
     <g transform="translate(143.175 47.496875)scale(0.2 -0.2)">
      <use xlink:href="#DejaVuSans-55"/>
      <use x="73.193359" xlink:href="#DejaVuSans-6e"/>
      <use x="136.572266" xlink:href="#DejaVuSans-75"/>
      <use x="199.951172" xlink:href="#DejaVuSans-73"/>
      <use x="252.050781" xlink:href="#DejaVuSans-65"/>
      <use x="313.574219" xlink:href="#DejaVuSans-64"/>
      <use x="377.050781" xlink:href="#DejaVuSans-20"/>
      <use x="408.837891" xlink:href="#DejaVuSans-44"/>
      <use x="485.839844" xlink:href="#DejaVuSans-61"/>
      <use x="547.119141" xlink:href="#DejaVuSans-74"/>
      <use x="586.328125" xlink:href="#DejaVuSans-61"/>
     </g>
    </g>
    <g id="line2d_20">
     <path d="M 87.175 69.853125 
L 127.175 69.853125 
" style="fill:none;stroke:#1f77b4;stroke-linecap:square;stroke-width:1.5;"/>
    </g>
    <g id="line2d_21"/>
    <g id="text_16">
     <!-- Training Data -->
     <defs>
      <path d="M -0.296875 72.90625 
L 61.375 72.90625 
L 61.375 64.59375 
L 35.5 64.59375 
L 35.5 0 
L 25.59375 0 
L 25.59375 64.59375 
L -0.296875 64.59375 
z
" id="DejaVuSans-54"/>
      <path d="M 41.109375 46.296875 
Q 39.59375 47.171875 37.8125 47.578125 
Q 36.03125 48 33.890625 48 
Q 26.265625 48 22.1875 43.046875 
Q 18.109375 38.09375 18.109375 28.8125 
L 18.109375 0 
L 9.078125 0 
L 9.078125 54.6875 
L 18.109375 54.6875 
L 18.109375 46.1875 
Q 20.953125 51.171875 25.484375 53.578125 
Q 30.03125 56 36.53125 56 
Q 37.453125 56 38.578125 55.875 
Q 39.703125 55.765625 41.0625 55.515625 
z
" id="DejaVuSans-72"/>
      <path d="M 45.40625 27.984375 
Q 45.40625 37.75 41.375 43.109375 
Q 37.359375 48.484375 30.078125 48.484375 
Q 22.859375 48.484375 18.828125 43.109375 
Q 14.796875 37.75 14.796875 27.984375 
Q 14.796875 18.265625 18.828125 12.890625 
Q 22.859375 7.515625 30.078125 7.515625 
Q 37.359375 7.515625 41.375 12.890625 
Q 45.40625 18.265625 45.40625 27.984375 
z
M 54.390625 6.78125 
Q 54.390625 -7.171875 48.1875 -13.984375 
Q 42 -20.796875 29.203125 -20.796875 
Q 24.46875 -20.796875 20.265625 -20.09375 
Q 16.0625 -19.390625 12.109375 -17.921875 
L 12.109375 -9.1875 
Q 16.0625 -11.328125 19.921875 -12.34375 
Q 23.78125 -13.375 27.78125 -13.375 
Q 36.625 -13.375 41.015625 -8.765625 
Q 45.40625 -4.15625 45.40625 5.171875 
L 45.40625 9.625 
Q 42.625 4.78125 38.28125 2.390625 
Q 33.9375 0 27.875 0 
Q 17.828125 0 11.671875 7.65625 
Q 5.515625 15.328125 5.515625 27.984375 
Q 5.515625 40.671875 11.671875 48.328125 
Q 17.828125 56 27.875 56 
Q 33.9375 56 38.28125 53.609375 
Q 42.625 51.21875 45.40625 46.390625 
L 45.40625 54.6875 
L 54.390625 54.6875 
z
" id="DejaVuSans-67"/>
     </defs>
     <g transform="translate(143.175 76.853125)scale(0.2 -0.2)">
      <use xlink:href="#DejaVuSans-54"/>
      <use x="60.865234" xlink:href="#DejaVuSans-72"/>
      <use x="101.978516" xlink:href="#DejaVuSans-61"/>
      <use x="163.257812" xlink:href="#DejaVuSans-69"/>
      <use x="191.041016" xlink:href="#DejaVuSans-6e"/>
      <use x="254.419922" xlink:href="#DejaVuSans-69"/>
      <use x="282.203125" xlink:href="#DejaVuSans-6e"/>
      <use x="345.582031" xlink:href="#DejaVuSans-67"/>
      <use x="409.058594" xlink:href="#DejaVuSans-20"/>
      <use x="440.845703" xlink:href="#DejaVuSans-44"/>
      <use x="517.847656" xlink:href="#DejaVuSans-61"/>
      <use x="579.126953" xlink:href="#DejaVuSans-74"/>
      <use x="618.335938" xlink:href="#DejaVuSans-61"/>
     </g>
    </g>
    <g id="line2d_22">
     <path d="M 87.175 99.209375 
L 127.175 99.209375 
" style="fill:none;stroke:#ff7f0e;stroke-linecap:square;stroke-width:1.5;"/>
    </g>
    <g id="line2d_23"/>
    <g id="text_17">
     <!-- Validation Data -->
     <defs>
      <path d="M 28.609375 0 
L 0.78125 72.90625 
L 11.078125 72.90625 
L 34.1875 11.53125 
L 57.328125 72.90625 
L 67.578125 72.90625 
L 39.796875 0 
z
" id="DejaVuSans-56"/>
      <path d="M 9.421875 75.984375 
L 18.40625 75.984375 
L 18.40625 0 
L 9.421875 0 
z
" id="DejaVuSans-6c"/>
      <path d="M 30.609375 48.390625 
Q 23.390625 48.390625 19.1875 42.75 
Q 14.984375 37.109375 14.984375 27.296875 
Q 14.984375 17.484375 19.15625 11.84375 
Q 23.34375 6.203125 30.609375 6.203125 
Q 37.796875 6.203125 41.984375 11.859375 
Q 46.1875 17.53125 46.1875 27.296875 
Q 46.1875 37.015625 41.984375 42.703125 
Q 37.796875 48.390625 30.609375 48.390625 
z
M 30.609375 56 
Q 42.328125 56 49.015625 48.375 
Q 55.71875 40.765625 55.71875 27.296875 
Q 55.71875 13.875 49.015625 6.21875 
Q 42.328125 -1.421875 30.609375 -1.421875 
Q 18.84375 -1.421875 12.171875 6.21875 
Q 5.515625 13.875 5.515625 27.296875 
Q 5.515625 40.765625 12.171875 48.375 
Q 18.84375 56 30.609375 56 
z
" id="DejaVuSans-6f"/>
     </defs>
     <g transform="translate(143.175 106.209375)scale(0.2 -0.2)">
      <use xlink:href="#DejaVuSans-56"/>
      <use x="68.298828" xlink:href="#DejaVuSans-61"/>
      <use x="129.578125" xlink:href="#DejaVuSans-6c"/>
      <use x="157.361328" xlink:href="#DejaVuSans-69"/>
      <use x="185.144531" xlink:href="#DejaVuSans-64"/>
      <use x="248.621094" xlink:href="#DejaVuSans-61"/>
      <use x="309.900391" xlink:href="#DejaVuSans-74"/>
      <use x="349.109375" xlink:href="#DejaVuSans-69"/>
      <use x="376.892578" xlink:href="#DejaVuSans-6f"/>
      <use x="438.074219" xlink:href="#DejaVuSans-6e"/>
      <use x="501.453125" xlink:href="#DejaVuSans-20"/>
      <use x="533.240234" xlink:href="#DejaVuSans-44"/>
      <use x="610.242188" xlink:href="#DejaVuSans-61"/>
      <use x="671.521484" xlink:href="#DejaVuSans-74"/>
      <use x="710.730469" xlink:href="#DejaVuSans-61"/>
     </g>
    </g>
    <g id="line2d_24">
     <path d="M 87.175 128.565625 
L 127.175 128.565625 
" style="fill:none;stroke:#2ca02c;stroke-linecap:square;stroke-width:1.5;"/>
    </g>
    <g id="line2d_25"/>
    <g id="text_18">
     <!-- Testing Data -->
     <g transform="translate(143.175 135.565625)scale(0.2 -0.2)">
      <use xlink:href="#DejaVuSans-54"/>
      <use x="60.818359" xlink:href="#DejaVuSans-65"/>
      <use x="122.341797" xlink:href="#DejaVuSans-73"/>
      <use x="174.441406" xlink:href="#DejaVuSans-74"/>
      <use x="213.650391" xlink:href="#DejaVuSans-69"/>
      <use x="241.433594" xlink:href="#DejaVuSans-6e"/>
      <use x="304.8125" xlink:href="#DejaVuSans-67"/>
      <use x="368.289062" xlink:href="#DejaVuSans-20"/>
      <use x="400.076172" xlink:href="#DejaVuSans-44"/>
      <use x="477.078125" xlink:href="#DejaVuSans-61"/>
      <use x="538.357422" xlink:href="#DejaVuSans-74"/>
      <use x="577.566406" xlink:href="#DejaVuSans-61"/>
     </g>
    </g>
    <g id="line2d_26">
     <path d="M 87.175 157.921875 
L 127.175 157.921875 
" style="fill:none;stroke:#ff0000;stroke-linecap:square;stroke-width:1.5;"/>
    </g>
    <g id="line2d_27"/>
    <g id="text_19">
     <!-- Moving average (48 steps) -->
     <defs>
      <path d="M 2.984375 54.6875 
L 12.5 54.6875 
L 29.59375 8.796875 
L 46.6875 54.6875 
L 56.203125 54.6875 
L 35.6875 0 
L 23.484375 0 
z
" id="DejaVuSans-76"/>
     </defs>
     <g transform="translate(143.175 164.921875)scale(0.2 -0.2)">
      <use xlink:href="#DejaVuSans-4d"/>
      <use x="86.279297" xlink:href="#DejaVuSans-6f"/>
      <use x="147.460938" xlink:href="#DejaVuSans-76"/>
      <use x="206.640625" xlink:href="#DejaVuSans-69"/>
      <use x="234.423828" xlink:href="#DejaVuSans-6e"/>
      <use x="297.802734" xlink:href="#DejaVuSans-67"/>
      <use x="361.279297" xlink:href="#DejaVuSans-20"/>
      <use x="393.066406" xlink:href="#DejaVuSans-61"/>
      <use x="454.345703" xlink:href="#DejaVuSans-76"/>
      <use x="513.525391" xlink:href="#DejaVuSans-65"/>
      <use x="575.048828" xlink:href="#DejaVuSans-72"/>
      <use x="616.162109" xlink:href="#DejaVuSans-61"/>
      <use x="677.441406" xlink:href="#DejaVuSans-67"/>
      <use x="740.917969" xlink:href="#DejaVuSans-65"/>
      <use x="802.441406" xlink:href="#DejaVuSans-20"/>
      <use x="834.228516" xlink:href="#DejaVuSans-28"/>
      <use x="873.242188" xlink:href="#DejaVuSans-34"/>
      <use x="936.865234" xlink:href="#DejaVuSans-38"/>
      <use x="1000.488281" xlink:href="#DejaVuSans-20"/>
      <use x="1032.275391" xlink:href="#DejaVuSans-73"/>
      <use x="1084.375" xlink:href="#DejaVuSans-74"/>
      <use x="1123.583984" xlink:href="#DejaVuSans-65"/>
      <use x="1185.107422" xlink:href="#DejaVuSans-70"/>
      <use x="1248.583984" xlink:href="#DejaVuSans-73"/>
      <use x="1300.683594" xlink:href="#DejaVuSans-29"/>
     </g>
    </g>
   </g>
  </g>
 </g>
 <defs>
  <clipPath id="p2c2e52d96f">
   <rect height="704.9" width="1248.525" x="69.175" y="14.3"/>
  </clipPath>
 </defs>
</svg>
