<?xml version="1.0" encoding="utf-8" standalone="no"?>
<!DOCTYPE svg PUBLIC "-//W3C//DTD SVG 1.1//EN"
  "http://www.w3.org/Graphics/SVG/1.1/DTD/svg11.dtd">
<!-- Created with matplotlib (http://matplotlib.org/) -->
<svg height="756pt" version="1.1" viewBox="0 0 1332 756" width="1332pt" xmlns="http://www.w3.org/2000/svg" xmlns:xlink="http://www.w3.org/1999/xlink">
 <defs>
  <style type="text/css">
*{stroke-linecap:butt;stroke-linejoin:round;}
  </style>
 </defs>
 <g id="figure_1">
  <g id="patch_1">
   <path d="M 0 756 
L 1332 756 
L 1332 0 
L 0 0 
z
" style="fill:#ffffff;"/>
  </g>
  <g id="axes_1">
   <g id="patch_2">
    <path d="M 166.5 661.5 
L 1198.8 661.5 
L 1198.8 90.72 
L 166.5 90.72 
z
" style="fill:#ffffff;"/>
   </g>
   <g id="matplotlib.axis_1">
    <g id="xtick_1">
     <g id="line2d_1">
      <defs>
       <path d="M 0 0 
L 0 3.5 
" id="m07cab8dba7" style="stroke:#000000;stroke-width:0.8;"/>
      </defs>
      <g>
       <use style="stroke:#000000;stroke-width:0.8;" x="213.422727" xlink:href="#m07cab8dba7" y="661.5"/>
      </g>
     </g>
     <g id="text_1">
      <!-- 0 -->
      <defs>
       <path d="M 31.78125 66.40625 
Q 24.171875 66.40625 20.328125 58.90625 
Q 16.5 51.421875 16.5 36.375 
Q 16.5 21.390625 20.328125 13.890625 
Q 24.171875 6.390625 31.78125 6.390625 
Q 39.453125 6.390625 43.28125 13.890625 
Q 47.125 21.390625 47.125 36.375 
Q 47.125 51.421875 43.28125 58.90625 
Q 39.453125 66.40625 31.78125 66.40625 
z
M 31.78125 74.21875 
Q 44.046875 74.21875 50.515625 64.515625 
Q 56.984375 54.828125 56.984375 36.375 
Q 56.984375 17.96875 50.515625 8.265625 
Q 44.046875 -1.421875 31.78125 -1.421875 
Q 19.53125 -1.421875 13.0625 8.265625 
Q 6.59375 17.96875 6.59375 36.375 
Q 6.59375 54.828125 13.0625 64.515625 
Q 19.53125 74.21875 31.78125 74.21875 
z
" id="DejaVuSans-30"/>
      </defs>
      <g transform="translate(207.060227 683.696875)scale(0.2 -0.2)">
       <use xlink:href="#DejaVuSans-30"/>
      </g>
     </g>
    </g>
    <g id="xtick_2">
     <g id="line2d_2">
      <g>
       <use style="stroke:#000000;stroke-width:0.8;" x="331.319027" xlink:href="#m07cab8dba7" y="661.5"/>
      </g>
     </g>
     <g id="text_2">
      <!-- 25 -->
      <defs>
       <path d="M 19.1875 8.296875 
L 53.609375 8.296875 
L 53.609375 0 
L 7.328125 0 
L 7.328125 8.296875 
Q 12.9375 14.109375 22.625 23.890625 
Q 32.328125 33.6875 34.8125 36.53125 
Q 39.546875 41.84375 41.421875 45.53125 
Q 43.3125 49.21875 43.3125 52.78125 
Q 43.3125 58.59375 39.234375 62.25 
Q 35.15625 65.921875 28.609375 65.921875 
Q 23.96875 65.921875 18.8125 64.3125 
Q 13.671875 62.703125 7.8125 59.421875 
L 7.8125 69.390625 
Q 13.765625 71.78125 18.9375 73 
Q 24.125 74.21875 28.421875 74.21875 
Q 39.75 74.21875 46.484375 68.546875 
Q 53.21875 62.890625 53.21875 53.421875 
Q 53.21875 48.921875 51.53125 44.890625 
Q 49.859375 40.875 45.40625 35.40625 
Q 44.1875 33.984375 37.640625 27.21875 
Q 31.109375 20.453125 19.1875 8.296875 
z
" id="DejaVuSans-32"/>
       <path d="M 10.796875 72.90625 
L 49.515625 72.90625 
L 49.515625 64.59375 
L 19.828125 64.59375 
L 19.828125 46.734375 
Q 21.96875 47.46875 24.109375 47.828125 
Q 26.265625 48.1875 28.421875 48.1875 
Q 40.625 48.1875 47.75 41.5 
Q 54.890625 34.8125 54.890625 23.390625 
Q 54.890625 11.625 47.5625 5.09375 
Q 40.234375 -1.421875 26.90625 -1.421875 
Q 22.3125 -1.421875 17.546875 -0.640625 
Q 12.796875 0.140625 7.71875 1.703125 
L 7.71875 11.625 
Q 12.109375 9.234375 16.796875 8.0625 
Q 21.484375 6.890625 26.703125 6.890625 
Q 35.15625 6.890625 40.078125 11.328125 
Q 45.015625 15.765625 45.015625 23.390625 
Q 45.015625 31 40.078125 35.4375 
Q 35.15625 39.890625 26.703125 39.890625 
Q 22.75 39.890625 18.8125 39.015625 
Q 14.890625 38.140625 10.796875 36.28125 
z
" id="DejaVuSans-35"/>
      </defs>
      <g transform="translate(318.594027 683.696875)scale(0.2 -0.2)">
       <use xlink:href="#DejaVuSans-32"/>
       <use x="63.623047" xlink:href="#DejaVuSans-35"/>
      </g>
     </g>
    </g>
    <g id="xtick_3">
     <g id="line2d_3">
      <g>
       <use style="stroke:#000000;stroke-width:0.8;" x="449.215327" xlink:href="#m07cab8dba7" y="661.5"/>
      </g>
     </g>
     <g id="text_3">
      <!-- 50 -->
      <g transform="translate(436.490327 683.696875)scale(0.2 -0.2)">
       <use xlink:href="#DejaVuSans-35"/>
       <use x="63.623047" xlink:href="#DejaVuSans-30"/>
      </g>
     </g>
    </g>
    <g id="xtick_4">
     <g id="line2d_4">
      <g>
       <use style="stroke:#000000;stroke-width:0.8;" x="567.111626" xlink:href="#m07cab8dba7" y="661.5"/>
      </g>
     </g>
     <g id="text_4">
      <!-- 75 -->
      <defs>
       <path d="M 8.203125 72.90625 
L 55.078125 72.90625 
L 55.078125 68.703125 
L 28.609375 0 
L 18.3125 0 
L 43.21875 64.59375 
L 8.203125 64.59375 
z
" id="DejaVuSans-37"/>
      </defs>
      <g transform="translate(554.386626 683.696875)scale(0.2 -0.2)">
       <use xlink:href="#DejaVuSans-37"/>
       <use x="63.623047" xlink:href="#DejaVuSans-35"/>
      </g>
     </g>
    </g>
    <g id="xtick_5">
     <g id="line2d_5">
      <g>
       <use style="stroke:#000000;stroke-width:0.8;" x="685.007926" xlink:href="#m07cab8dba7" y="661.5"/>
      </g>
     </g>
     <g id="text_5">
      <!-- 100 -->
      <defs>
       <path d="M 12.40625 8.296875 
L 28.515625 8.296875 
L 28.515625 63.921875 
L 10.984375 60.40625 
L 10.984375 69.390625 
L 28.421875 72.90625 
L 38.28125 72.90625 
L 38.28125 8.296875 
L 54.390625 8.296875 
L 54.390625 0 
L 12.40625 0 
z
" id="DejaVuSans-31"/>
      </defs>
      <g transform="translate(665.920426 683.696875)scale(0.2 -0.2)">
       <use xlink:href="#DejaVuSans-31"/>
       <use x="63.623047" xlink:href="#DejaVuSans-30"/>
       <use x="127.246094" xlink:href="#DejaVuSans-30"/>
      </g>
     </g>
    </g>
    <g id="xtick_6">
     <g id="line2d_6">
      <g>
       <use style="stroke:#000000;stroke-width:0.8;" x="802.904226" xlink:href="#m07cab8dba7" y="661.5"/>
      </g>
     </g>
     <g id="text_6">
      <!-- 125 -->
      <g transform="translate(783.816726 683.696875)scale(0.2 -0.2)">
       <use xlink:href="#DejaVuSans-31"/>
       <use x="63.623047" xlink:href="#DejaVuSans-32"/>
       <use x="127.246094" xlink:href="#DejaVuSans-35"/>
      </g>
     </g>
    </g>
    <g id="xtick_7">
     <g id="line2d_7">
      <g>
       <use style="stroke:#000000;stroke-width:0.8;" x="920.800525" xlink:href="#m07cab8dba7" y="661.5"/>
      </g>
     </g>
     <g id="text_7">
      <!-- 150 -->
      <g transform="translate(901.713025 683.696875)scale(0.2 -0.2)">
       <use xlink:href="#DejaVuSans-31"/>
       <use x="63.623047" xlink:href="#DejaVuSans-35"/>
       <use x="127.246094" xlink:href="#DejaVuSans-30"/>
      </g>
     </g>
    </g>
    <g id="xtick_8">
     <g id="line2d_8">
      <g>
       <use style="stroke:#000000;stroke-width:0.8;" x="1038.696825" xlink:href="#m07cab8dba7" y="661.5"/>
      </g>
     </g>
     <g id="text_8">
      <!-- 175 -->
      <g transform="translate(1019.609325 683.696875)scale(0.2 -0.2)">
       <use xlink:href="#DejaVuSans-31"/>
       <use x="63.623047" xlink:href="#DejaVuSans-37"/>
       <use x="127.246094" xlink:href="#DejaVuSans-35"/>
      </g>
     </g>
    </g>
    <g id="xtick_9">
     <g id="line2d_9">
      <g>
       <use style="stroke:#000000;stroke-width:0.8;" x="1156.593125" xlink:href="#m07cab8dba7" y="661.5"/>
      </g>
     </g>
     <g id="text_9">
      <!-- 200 -->
      <g transform="translate(1137.505625 683.696875)scale(0.2 -0.2)">
       <use xlink:href="#DejaVuSans-32"/>
       <use x="63.623047" xlink:href="#DejaVuSans-30"/>
       <use x="127.246094" xlink:href="#DejaVuSans-30"/>
      </g>
     </g>
    </g>
   </g>
   <g id="matplotlib.axis_2">
    <g id="ytick_1">
     <g id="line2d_10">
      <defs>
       <path d="M 0 0 
L -3.5 0 
" id="m5da048a4f0" style="stroke:#000000;stroke-width:0.8;"/>
      </defs>
      <g>
       <use style="stroke:#000000;stroke-width:0.8;" x="166.5" xlink:href="#m5da048a4f0" y="637.08643"/>
      </g>
     </g>
     <g id="text_10">
      <!-- 0 -->
      <g transform="translate(146.775 644.684867)scale(0.2 -0.2)">
       <use xlink:href="#DejaVuSans-30"/>
      </g>
     </g>
    </g>
    <g id="ytick_2">
     <g id="line2d_11">
      <g>
       <use style="stroke:#000000;stroke-width:0.8;" x="166.5" xlink:href="#m5da048a4f0" y="527.137731"/>
      </g>
     </g>
     <g id="text_11">
      <!-- 2000 -->
      <g transform="translate(108.6 534.736169)scale(0.2 -0.2)">
       <use xlink:href="#DejaVuSans-32"/>
       <use x="63.623047" xlink:href="#DejaVuSans-30"/>
       <use x="127.246094" xlink:href="#DejaVuSans-30"/>
       <use x="190.869141" xlink:href="#DejaVuSans-30"/>
      </g>
     </g>
    </g>
    <g id="ytick_3">
     <g id="line2d_12">
      <g>
       <use style="stroke:#000000;stroke-width:0.8;" x="166.5" xlink:href="#m5da048a4f0" y="417.189033"/>
      </g>
     </g>
     <g id="text_12">
      <!-- 4000 -->
      <defs>
       <path d="M 37.796875 64.3125 
L 12.890625 25.390625 
L 37.796875 25.390625 
z
M 35.203125 72.90625 
L 47.609375 72.90625 
L 47.609375 25.390625 
L 58.015625 25.390625 
L 58.015625 17.1875 
L 47.609375 17.1875 
L 47.609375 0 
L 37.796875 0 
L 37.796875 17.1875 
L 4.890625 17.1875 
L 4.890625 26.703125 
z
" id="DejaVuSans-34"/>
      </defs>
      <g transform="translate(108.6 424.78747)scale(0.2 -0.2)">
       <use xlink:href="#DejaVuSans-34"/>
       <use x="63.623047" xlink:href="#DejaVuSans-30"/>
       <use x="127.246094" xlink:href="#DejaVuSans-30"/>
       <use x="190.869141" xlink:href="#DejaVuSans-30"/>
      </g>
     </g>
    </g>
    <g id="ytick_4">
     <g id="line2d_13">
      <g>
       <use style="stroke:#000000;stroke-width:0.8;" x="166.5" xlink:href="#m5da048a4f0" y="307.240334"/>
      </g>
     </g>
     <g id="text_13">
      <!-- 6000 -->
      <defs>
       <path d="M 33.015625 40.375 
Q 26.375 40.375 22.484375 35.828125 
Q 18.609375 31.296875 18.609375 23.390625 
Q 18.609375 15.53125 22.484375 10.953125 
Q 26.375 6.390625 33.015625 6.390625 
Q 39.65625 6.390625 43.53125 10.953125 
Q 47.40625 15.53125 47.40625 23.390625 
Q 47.40625 31.296875 43.53125 35.828125 
Q 39.65625 40.375 33.015625 40.375 
z
M 52.59375 71.296875 
L 52.59375 62.3125 
Q 48.875 64.0625 45.09375 64.984375 
Q 41.3125 65.921875 37.59375 65.921875 
Q 27.828125 65.921875 22.671875 59.328125 
Q 17.53125 52.734375 16.796875 39.40625 
Q 19.671875 43.65625 24.015625 45.921875 
Q 28.375 48.1875 33.59375 48.1875 
Q 44.578125 48.1875 50.953125 41.515625 
Q 57.328125 34.859375 57.328125 23.390625 
Q 57.328125 12.15625 50.6875 5.359375 
Q 44.046875 -1.421875 33.015625 -1.421875 
Q 20.359375 -1.421875 13.671875 8.265625 
Q 6.984375 17.96875 6.984375 36.375 
Q 6.984375 53.65625 15.1875 63.9375 
Q 23.390625 74.21875 37.203125 74.21875 
Q 40.921875 74.21875 44.703125 73.484375 
Q 48.484375 72.75 52.59375 71.296875 
z
" id="DejaVuSans-36"/>
      </defs>
      <g transform="translate(108.6 314.838772)scale(0.2 -0.2)">
       <use xlink:href="#DejaVuSans-36"/>
       <use x="63.623047" xlink:href="#DejaVuSans-30"/>
       <use x="127.246094" xlink:href="#DejaVuSans-30"/>
       <use x="190.869141" xlink:href="#DejaVuSans-30"/>
      </g>
     </g>
    </g>
    <g id="ytick_5">
     <g id="line2d_14">
      <g>
       <use style="stroke:#000000;stroke-width:0.8;" x="166.5" xlink:href="#m5da048a4f0" y="197.291636"/>
      </g>
     </g>
     <g id="text_14">
      <!-- 8000 -->
      <defs>
       <path d="M 31.78125 34.625 
Q 24.75 34.625 20.71875 30.859375 
Q 16.703125 27.09375 16.703125 20.515625 
Q 16.703125 13.921875 20.71875 10.15625 
Q 24.75 6.390625 31.78125 6.390625 
Q 38.8125 6.390625 42.859375 10.171875 
Q 46.921875 13.96875 46.921875 20.515625 
Q 46.921875 27.09375 42.890625 30.859375 
Q 38.875 34.625 31.78125 34.625 
z
M 21.921875 38.8125 
Q 15.578125 40.375 12.03125 44.71875 
Q 8.5 49.078125 8.5 55.328125 
Q 8.5 64.0625 14.71875 69.140625 
Q 20.953125 74.21875 31.78125 74.21875 
Q 42.671875 74.21875 48.875 69.140625 
Q 55.078125 64.0625 55.078125 55.328125 
Q 55.078125 49.078125 51.53125 44.71875 
Q 48 40.375 41.703125 38.8125 
Q 48.828125 37.15625 52.796875 32.3125 
Q 56.78125 27.484375 56.78125 20.515625 
Q 56.78125 9.90625 50.3125 4.234375 
Q 43.84375 -1.421875 31.78125 -1.421875 
Q 19.734375 -1.421875 13.25 4.234375 
Q 6.78125 9.90625 6.78125 20.515625 
Q 6.78125 27.484375 10.78125 32.3125 
Q 14.796875 37.15625 21.921875 38.8125 
z
M 18.3125 54.390625 
Q 18.3125 48.734375 21.84375 45.5625 
Q 25.390625 42.390625 31.78125 42.390625 
Q 38.140625 42.390625 41.71875 45.5625 
Q 45.3125 48.734375 45.3125 54.390625 
Q 45.3125 60.0625 41.71875 63.234375 
Q 38.140625 66.40625 31.78125 66.40625 
Q 25.390625 66.40625 21.84375 63.234375 
Q 18.3125 60.0625 18.3125 54.390625 
z
" id="DejaVuSans-38"/>
      </defs>
      <g transform="translate(108.6 204.890073)scale(0.2 -0.2)">
       <use xlink:href="#DejaVuSans-38"/>
       <use x="63.623047" xlink:href="#DejaVuSans-30"/>
       <use x="127.246094" xlink:href="#DejaVuSans-30"/>
       <use x="190.869141" xlink:href="#DejaVuSans-30"/>
      </g>
     </g>
    </g>
   </g>
   <g id="line2d_15">
    <path clip-path="url(#p426007bce6)" d="M 213.422727 589.948734 
L 218.138579 591.053109 
L 222.854431 627.994893 
L 227.570283 601.680019 
L 232.286135 586.658091 
L 237.001987 583.63377 
L 241.717839 580.24491 
L 246.433691 583.588323 
L 251.149543 584.464004 
L 255.865395 582.083252 
L 260.581247 524.388035 
L 265.297099 489.542604 
L 270.012951 480.280037 
L 274.728803 530.664396 
L 279.444655 553.770236 
L 284.160507 528.088667 
L 288.876359 541.706176 
L 293.592211 627.85318 
L 298.308063 631.943271 
L 303.023915 622.135848 
L 307.739767 630.973282 
L 312.455619 628.871552 
L 317.171471 627.84976 
L 321.887323 631.767843 
L 326.603175 630.957158 
L 331.319027 551.005884 
L 336.034879 515.882893 
L 340.750731 471.084906 
L 345.466583 540.341839 
L 350.182435 632.568269 
L 354.898287 568.032781 
L 359.614139 515.873608 
L 364.329991 564.808112 
L 369.045843 627.311259 
L 373.761695 631.08079 
L 378.477547 518.406826 
L 383.193399 628.337933 
L 387.909251 630.206571 
L 392.625103 629.361192 
L 397.340955 426.88504 
L 402.056807 509.276197 
L 406.772659 508.851553 
L 411.488511 574.589632 
L 416.204363 546.408071 
L 420.920215 606.654587 
L 425.636067 628.768932 
L 430.351919 371.196761 
L 435.067771 554.050242 
L 439.783623 631.951584 
L 444.499475 625.136227 
L 449.215327 588.288267 
L 453.931179 632.932326 
L 458.647031 634.819529 
L 463.362883 631.531821 
L 472.794587 631.696013 
L 477.510439 632.029768 
L 482.226291 630.091735 
L 486.942143 633.526049 
L 491.657995 629.333337 
L 496.373847 598.814997 
L 501.089698 614.455568 
L 505.80555 626.292887 
L 510.521402 607.901647 
L 515.237254 595.407566 
L 519.953106 621.993162 
L 524.668958 622.780884 
L 529.38481 560.74929 
L 534.100662 512.35476 
L 538.816514 567.098954 
L 543.532366 556.220382 
L 548.248218 628.669736 
L 552.96407 561.19544 
L 557.679922 523.477171 
L 562.395774 627.945053 
L 567.111626 567.335465 
L 571.827478 499.831851 
L 576.54333 574.525131 
L 581.259182 571.731945 
L 585.975034 568.655828 
L 590.690886 565.37056 
L 595.406738 631.565537 
L 600.12259 630.892162 
L 604.838442 630.858446 
L 609.554294 566.151438 
L 614.270146 465.61288 
L 618.985998 518.701978 
L 623.70185 577.318806 
L 628.417702 579.081894 
L 633.133554 631.06515 
L 637.849406 577.891029 
L 642.565258 520.018921 
L 647.28111 593.636172 
L 651.996962 549.189531 
L 656.712814 632.672847 
L 661.428666 631.441422 
L 666.144518 611.102375 
L 670.86037 598.615622 
L 675.576222 573.063061 
L 680.292074 583.528709 
L 685.007926 581.953754 
L 689.723778 584.040823 
L 694.43963 580.552766 
L 699.155482 634.309857 
L 703.871334 629.56838 
L 708.587186 623.911645 
L 713.303038 507.23164 
L 718.01889 632.557522 
L 722.734742 627.861003 
L 727.450594 632.412879 
L 732.166446 629.5806 
L 736.882298 630.409366 
L 741.59815 595.641636 
L 746.314002 633.098959 
L 751.029854 116.664545 
L 755.745706 616.908645 
L 760.461558 466.176796 
L 765.17741 574.861821 
L 769.893262 631.000159 
L 774.609114 631.876818 
L 779.324966 573.148573 
L 784.040818 622.368939 
L 788.75667 515.321424 
L 793.472522 557.254389 
L 798.188374 566.182224 
L 802.904226 629.011797 
L 807.620078 630.895587 
L 812.33593 627.508188 
L 817.051782 619.615823 
L 821.767634 633.019796 
L 826.483486 631.622711 
L 831.199338 578.660181 
L 835.91519 517.21352 
L 840.631042 512.827298 
L 845.346894 541.046483 
L 850.062746 504.171647 
L 854.778598 572.225004 
L 859.49445 574.271029 
L 864.210302 570.842097 
L 868.926153 633.385798 
L 873.642005 579.450833 
L 878.357857 631.359323 
L 883.073709 633.149777 
L 887.789561 631.559677 
L 892.505413 632.221321 
L 897.221265 634.724732 
L 901.937117 632.527226 
L 906.652969 576.878522 
L 911.368821 633.959489 
L 916.084673 633.131696 
L 920.800525 578.83805 
L 925.516377 634.313282 
L 930.232229 523.730789 
L 934.948081 635.555455 
L 939.663933 578.724193 
L 944.379785 564.286219 
L 949.095637 572.100883 
L 953.811489 632.497413 
L 958.527341 607.482864 
L 963.243193 476.943462 
L 972.674897 493.08442 
L 977.390749 393.389779 
L 982.106601 577.242574 
L 986.822453 632.213993 
L 991.538305 633.358927 
L 996.254157 630.387866 
L 1000.970009 516.199545 
L 1005.685861 564.077564 
L 1010.401713 486.896508 
L 1015.117565 532.38986 
L 1019.833417 632.350329 
L 1024.549269 633.720042 
L 1029.265121 623.324272 
L 1033.980973 587.034852 
L 1038.696825 449.723584 
L 1043.412677 627.960688 
L 1048.128529 570.152592 
L 1052.844381 630.537885 
L 1057.560233 570.359296 
L 1062.276085 569.989868 
L 1066.991937 571.019966 
L 1071.707789 630.99625 
L 1076.423641 633.452257 
L 1081.139493 575.671528 
L 1085.855345 575.481932 
L 1090.571197 529.269268 
L 1095.287049 632.241848 
L 1100.002901 629.032808 
L 1104.718753 631.283096 
L 1109.434605 631.670115 
L 1114.150457 575.162833 
L 1118.866309 634.424203 
L 1123.582161 629.627999 
L 1128.298013 631.47025 
L 1133.013865 584.640411 
L 1137.729717 564.862839 
L 1142.445569 581.645409 
L 1147.161421 633.455682 
L 1151.877273 578.297592 
L 1151.877273 578.297592 
" style="fill:none;stroke:#1f77b4;stroke-linecap:square;stroke-width:1.5;"/>
   </g>
   <g id="line2d_16">
    <path clip-path="url(#p426007bce6)" d="M 213.422727 580.467272 
L 218.138579 581.330968 
L 222.854431 613.315483 
L 227.570283 589.91722 
L 232.286135 577.925635 
L 237.001987 575.63167 
L 241.717839 573.108816 
L 246.433691 575.597486 
L 251.149543 576.257413 
L 255.865395 574.471136 
L 260.581247 538.465467 
L 265.297099 522.797348 
L 270.012951 519.286277 
L 274.728803 541.739259 
L 279.444655 555.100462 
L 284.160507 540.378013 
L 288.876359 547.861511 
L 293.592211 613.181444 
L 298.308063 617.084279 
L 303.023915 607.84531 
L 307.739767 616.152304 
L 312.455619 614.146571 
L 317.171471 613.178213 
L 321.887323 616.915432 
L 326.603175 616.136847 
L 331.319027 553.389768 
L 336.034879 534.258809 
L 340.750731 516.045234 
L 345.466583 547.079455 
L 350.182435 617.686881 
L 354.898287 564.431177 
L 359.614139 534.254346 
L 364.329991 562.246671 
L 369.045843 612.66966 
L 373.761695 616.255403 
L 378.477547 535.480102 
L 383.193399 613.640303 
L 387.909251 615.418451 
L 392.625103 614.612175 
L 397.340955 503.435787 
L 402.056807 531.167327 
L 406.772659 530.973769 
L 411.488511 569.010201 
L 416.204363 550.613248 
L 420.920215 594.107981 
L 425.636067 614.049114 
L 430.351919 492.971549 
L 439.783623 617.092283 
L 444.499475 610.628172 
L 449.215327 579.178791 
L 453.931179 618.038645 
L 458.647031 619.871025 
L 463.362883 616.688472 
L 472.794587 616.846337 
L 477.510439 617.167578 
L 482.226291 615.308746 
L 486.942143 618.613515 
L 491.657995 614.585661 
L 496.373847 587.553206 
L 501.089698 600.899266 
L 505.80555 611.7113 
L 510.521402 595.175662 
L 515.237254 584.788902 
L 519.953106 607.713931 
L 524.668958 608.440318 
L 529.38481 559.559672 
L 534.100662 532.58909 
L 538.816514 563.794019 
L 543.532366 556.642952 
L 548.248218 613.954954 
L 552.96407 559.851643 
L 557.679922 538.002473 
L 562.395774 613.268335 
L 567.111626 563.955043 
L 571.827478 527.004691 
L 576.54333 568.964232 
L 581.259182 566.991786 
L 590.690886 562.624526 
L 595.406738 616.720879 
L 600.12259 616.074538 
L 604.838442 616.042231 
L 609.554294 563.151319 
L 614.270146 514.226356 
L 618.985998 535.62439 
L 623.70185 570.970782 
L 628.417702 572.25456 
L 633.133554 616.240402 
L 637.849406 571.385955 
L 642.565258 536.272036 
L 647.28111 583.372115 
L 651.996962 552.282698 
L 656.712814 617.78787 
L 661.428666 616.601604 
L 666.144518 597.94733 
L 670.86037 587.390061 
L 675.576222 567.927578 
L 680.292074 575.552685 
L 685.007926 574.374682 
L 689.723778 575.938076 
L 694.43963 573.335921 
L 699.155482 619.374694 
L 703.871334 614.809499 
L 708.587186 609.487696 
L 713.303038 530.24097 
L 718.01889 617.676502 
L 722.734742 613.188841 
L 727.450594 617.536902 
L 732.166446 614.821144 
L 736.882298 615.612309 
L 741.59815 584.977155 
L 746.314002 618.199838 
L 751.029854 478.397562 
L 755.745706 603.089945 
L 760.461558 514.410122 
L 765.17741 569.204288 
L 769.893262 616.178073 
L 774.609114 617.020302 
L 779.324966 567.987954 
L 784.040818 608.060118 
L 788.75667 533.990151 
L 793.472522 557.301362 
L 798.188374 563.172149 
L 802.904226 614.279827 
L 807.620078 616.077825 
L 812.33593 612.855492 
L 817.051782 605.537968 
L 821.767634 618.123242 
L 826.483486 616.775844 
L 831.199338 571.946262 
L 835.91519 534.899865 
L 840.631042 532.810216 
L 845.346894 547.482448 
L 850.062746 528.880738 
L 854.778598 567.337523 
L 859.49445 568.783411 
L 864.210302 566.370479 
L 868.926153 618.477587 
L 873.642005 572.524922 
L 878.357857 616.522742 
L 883.073709 618.249021 
L 887.789561 616.715244 
L 892.505413 617.352162 
L 897.221265 619.778626 
L 901.937117 617.647255 
L 906.652969 570.652318 
L 911.368821 619.034122 
L 916.084673 618.23152 
L 920.800525 572.076208 
L 925.516377 619.378027 
L 930.232229 538.131091 
L 934.948081 620.589597 
L 939.663933 571.993009 
L 944.379785 561.89729 
L 949.095637 567.250384 
L 953.811489 617.618479 
L 958.527341 594.816356 
L 963.243193 518.082814 
L 967.959045 521.076487 
L 972.674897 524.208213 
L 977.390749 496.552062 
L 982.106601 570.9156 
L 986.822453 617.345099 
L 991.538305 618.45155 
L 996.254157 615.591751 
L 1000.970009 534.410793 
L 1005.685861 561.757922 
L 1010.401713 521.76827 
L 1015.117565 542.665119 
L 1019.833417 617.476564 
L 1024.549269 618.801669 
L 1029.265121 608.942945 
L 1033.980973 578.214203 
L 1038.696825 509.379325 
L 1043.412677 613.283124 
L 1048.128529 565.891366 
L 1052.844381 615.735258 
L 1057.560233 566.034788 
L 1062.276085 565.778599 
L 1066.991937 566.494386 
L 1071.707789 616.174327 
L 1076.423641 618.541985 
L 1081.139493 569.783539 
L 1085.855345 569.647653 
L 1090.571197 540.99887 
L 1095.287049 617.37195 
L 1100.002901 614.299798 
L 1104.718753 616.449544 
L 1109.434605 616.821425 
L 1114.150457 569.419294 
L 1118.866309 619.485949 
L 1123.582161 614.866314 
L 1128.298013 616.6293 
L 1133.013865 576.390749 
L 1137.729717 562.283386 
L 1142.445569 574.14533 
L 1147.161421 618.545304 
L 1151.877273 571.681818 
L 1151.877273 571.681818 
" style="fill:none;stroke:#ff0000;stroke-linecap:square;stroke-width:1.5;"/>
   </g>
   <g id="line2d_17">
    <path clip-path="url(#p426007bce6)" d="M 213.422727 569.968259 
L 218.138579 570.848768 
L 222.854431 603.706162 
L 227.570283 579.624109 
L 232.286135 567.379586 
L 237.001987 565.046478 
L 241.717839 562.484365 
L 246.433691 565.01177 
L 251.149543 565.682588 
L 255.865395 563.867401 
L 260.581247 527.809664 
L 265.297099 512.565972 
L 270.012951 509.204309 
L 274.728803 531.036669 
L 279.444655 544.326557 
L 284.160507 529.69332 
L 288.876359 537.103852 
L 293.592211 603.567619 
L 298.308063 607.603878 
L 303.023915 598.057185 
L 307.739767 606.639609 
L 312.455619 604.56529 
L 317.171471 603.56428 
L 321.887323 607.429164 
L 326.603175 606.623617 
L 331.319027 542.615259 
L 336.034879 523.682561 
L 340.750731 506.122457 
L 345.466583 536.326588 
L 350.182435 608.227503 
L 354.898287 553.704153 
L 359.614139 523.678199 
L 364.329991 551.5024 
L 369.045843 603.038702 
L 373.761695 606.746266 
L 378.477547 524.878367 
L 383.193399 604.041913 
L 387.909251 605.880518 
L 392.625103 605.046702 
L 397.340955 494.371368 
L 402.056807 520.664609 
L 406.772659 520.476091 
L 411.488511 558.330762 
L 416.204363 539.843503 
L 420.920215 583.920527 
L 425.636067 604.464535 
L 430.351919 485.028507 
L 435.067771 544.501787 
L 439.783623 607.612163 
L 444.499475 600.929729 
L 449.215327 568.655464 
L 453.931179 608.591594 
L 458.647031 610.488753 
L 463.362883 607.194322 
L 472.794587 607.357668 
L 477.510439 607.690078 
L 482.226291 605.767056 
L 486.942143 609.186679 
L 491.657995 605.019285 
L 496.373847 577.204244 
L 501.089698 590.899695 
L 505.80555 602.048486 
L 510.521402 585.016423 
L 515.237254 574.378206 
L 519.953106 597.921635 
L 524.668958 598.67113 
L 529.38481 548.799302 
L 534.100662 522.050886 
L 538.816514 553.061593 
L 543.532366 545.871791 
L 548.248218 604.367189 
L 552.96407 549.092743 
L 557.679922 527.354327 
L 562.395774 603.657425 
L 567.111626 553.223926 
L 571.827478 516.622947 
L 576.54333 558.284263 
L 581.259182 556.289524 
L 590.690886 551.88296 
L 595.406738 607.227855 
L 600.12259 606.559164 
L 604.838442 606.525738 
L 609.554294 552.413752 
L 614.270146 504.40267 
L 618.985998 525.019823 
L 623.70185 560.316261 
L 628.417702 561.617728 
L 633.133554 606.730751 
L 637.849406 560.737037 
L 642.565258 525.65486 
L 647.28111 572.931337 
L 651.996962 541.509222 
L 656.712814 608.33203 
L 661.428666 607.104448 
L 666.144518 587.863678 
L 670.86037 577.037335 
L 675.576222 557.23555 
L 680.292074 564.966231 
L 685.007926 563.769445 
L 689.723778 565.35795 
L 694.43963 562.714846 
L 699.155482 609.974778 
L 703.871334 605.250745 
L 708.587186 599.752173 
L 713.303038 519.762901 
L 718.01889 608.216763 
L 722.734742 603.575266 
L 727.450594 608.072284 
L 732.166446 605.262791 
L 736.882298 606.081024 
L 741.59815 574.570535 
L 746.314002 608.75844 
L 751.029854 473.522762 
L 755.745706 593.15506 
L 760.461558 504.576076 
L 765.17741 558.527192 
L 769.893262 606.666271 
L 774.609114 607.537677 
L 779.324966 557.296604 
L 784.040818 598.278814 
L 788.75667 523.419769 
L 793.472522 546.532 
L 798.188374 552.434716 
L 802.904226 604.703065 
L 807.620078 606.562563 
L 812.33593 603.230746 
L 817.051782 595.677582 
L 821.767634 608.679159 
L 826.483486 607.284729 
L 831.199338 561.305081 
L 835.91519 524.309988 
L 840.631042 522.266743 
L 845.346894 536.727024 
L 850.062746 518.441194 
L 854.778598 556.638959 
L 859.49445 558.101262 
L 864.210302 555.661748 
L 868.926153 609.045962 
L 873.642005 561.891955 
L 878.357857 607.022856 
L 883.073709 608.809354 
L 887.789561 607.222024 
L 892.505413 607.881092 
L 897.221265 610.393065 
L 901.937117 608.186494 
L 906.652969 559.993568 
L 911.368821 609.62214 
L 916.084673 608.791235 
L 920.800525 561.43686 
L 925.516377 609.978229 
L 930.232229 527.48075 
L 934.948081 611.232995 
L 939.663933 561.352486 
L 944.379785 551.15059 
L 949.095637 556.550894 
L 953.811489 608.156712 
L 958.527341 584.647564 
L 963.243193 508.057458 
L 967.959045 510.915466 
L 972.674897 513.923098 
L 977.390749 488.169749 
L 982.106601 560.260327 
L 986.822453 607.873787 
L 991.538305 609.019005 
L 996.254157 606.059761 
L 1000.970009 523.831258 
L 1005.685861 551.010289 
L 1010.401713 511.578326 
L 1015.117565 531.951557 
L 1019.833417 608.009837 
L 1024.549269 609.381472 
L 1029.265121 599.189873 
L 1033.980973 567.673328 
L 1038.696825 499.857556 
L 1043.412677 603.672712 
L 1048.128529 555.177877 
L 1052.844381 606.208199 
L 1057.560233 555.322702 
L 1062.276085 555.063996 
L 1066.991937 555.786944 
L 1071.707789 606.662392 
L 1076.423641 609.112628 
L 1081.139493 559.113623 
L 1085.855345 558.976033 
L 1090.571197 530.305756 
L 1095.287049 607.901576 
L 1100.002901 604.723711 
L 1104.718753 606.947119 
L 1109.434605 607.331892 
L 1114.150457 558.744841 
L 1118.866309 610.089983 
L 1123.582161 605.309498 
L 1128.298013 607.133107 
L 1133.013865 565.818165 
L 1137.729717 551.539356 
L 1142.445569 563.536515 
L 1147.161421 609.116065 
L 1151.877273 561.036954 
L 1151.877273 561.036954 
" style="fill:none;stroke:#ff0000;stroke-linecap:square;stroke-width:1.5;"/>
   </g>
   <g id="line2d_18">
    <path clip-path="url(#p426007bce6)" d="M 213.422727 574.573011 
L 218.138579 575.335391 
L 222.854431 603.318265 
L 227.570283 582.89263 
L 232.286135 572.327062 
L 237.001987 570.296675 
L 241.717839 568.059987 
L 246.433691 570.26643 
L 251.149543 570.850848 
L 255.865395 569.268295 
L 260.581247 536.836993 
L 265.297099 522.268314 
L 270.012951 518.946942 
L 274.728803 539.837812 
L 279.444655 551.963602 
L 284.160507 538.591642 
L 288.876359 545.416649 
L 293.592211 603.201843 
L 298.308063 606.589248 
L 303.023915 598.562148 
L 307.739767 605.780803 
L 312.455619 604.039974 
L 317.171471 603.199042 
L 321.887323 606.4428 
L 326.603175 605.767388 
L 331.319027 550.420912 
L 340.750731 515.858313 
L 345.466583 544.70625 
L 350.182435 607.111834 
L 354.898287 560.334192 
L 359.614139 532.956986 
L 364.329991 558.380757 
L 369.045843 602.757284 
L 373.761695 605.870247 
L 378.477547 534.088792 
L 383.193399 603.600364 
L 387.909251 605.144021 
L 392.625103 604.444199 
L 397.340955 503.583826 
L 402.056807 530.097233 
L 406.772659 529.917439 
L 411.488511 564.417447 
L 416.204363 547.911284 
L 420.920215 586.567858 
L 425.636067 603.955352 
L 430.351919 492.941109 
L 435.067771 552.121278 
L 439.783623 606.596191 
L 444.499475 600.983053 
L 449.215327 573.434897 
L 453.931179 607.416836 
L 458.647031 609.005014 
L 463.362883 606.245934 
L 472.794587 606.382866 
L 477.510439 606.661493 
L 482.226291 605.048816 
L 486.942143 607.915206 
L 491.657995 604.421184 
L 496.373847 580.815737 
L 501.089698 592.507021 
L 505.80555 601.924559 
L 510.521402 587.502902 
L 515.237254 578.383549 
L 519.953106 598.447794 
L 524.668958 599.079995 
L 529.38481 555.972838 
L 534.100662 531.416027 
L 538.816514 559.764806 
L 543.532366 553.352356 
L 548.248218 603.873595 
L 552.96407 556.234771 
L 557.679922 536.411512 
L 562.395774 603.277319 
L 567.111626 559.908738 
L 571.827478 526.218266 
L 576.54333 564.376545 
L 581.259182 562.619412 
L 590.690886 558.718884 
L 595.406738 606.274045 
L 600.12259 605.71333 
L 604.838442 605.685302 
L 609.554294 559.190159 
L 614.270146 514.114609 
L 618.985998 534.221893 
L 623.70185 566.161272 
L 628.417702 567.301708 
L 633.133554 605.857231 
L 637.849406 566.530208 
L 642.565258 534.818954 
L 647.28111 577.135439 
L 651.996962 549.421113 
L 656.712814 607.199402 
L 661.428666 606.170579 
L 666.144518 589.9279 
L 670.86037 580.672292 
L 675.576222 563.453396 
L 680.292074 570.226729 
L 685.007926 569.182787 
L 689.723778 570.568085 
L 694.43963 568.261504 
L 699.155482 608.574928 
L 703.871334 604.61549 
L 708.587186 599.991243 
L 713.303038 529.236319 
L 718.01889 607.102831 
L 722.734742 603.208272 
L 727.450594 606.981779 
L 732.166446 604.625596 
L 736.882298 605.312252 
L 741.59815 578.54931 
L 746.314002 607.556584 
L 751.029854 476.271117 
L 755.745706 594.418731 
L 760.461558 514.291141 
L 765.17741 564.590181 
L 769.893262 605.803156 
L 774.609114 606.533761 
L 779.324966 563.507176 
L 784.040818 598.749112 
L 788.75667 532.712789 
L 793.472522 553.944545 
L 798.188374 559.208768 
L 802.904226 604.15567 
L 807.620078 605.716185 
L 812.33593 602.918714 
L 817.051782 596.552796 
L 821.767634 607.490181 
L 826.483486 606.321722 
L 831.199338 567.027936 
L 835.91519 533.553269 
L 840.631042 531.620865 
L 845.346894 545.072395 
L 850.062746 527.969836 
L 854.778598 562.927616 
L 859.49445 564.215561 
L 864.210302 562.065367 
L 868.926153 607.797369 
L 873.642005 567.541744 
L 878.357857 606.10217 
L 883.073709 607.599228 
L 887.789561 606.269156 
L 892.505413 606.821571 
L 897.221265 608.924957 
L 901.937117 607.077475 
L 906.652969 565.878179 
L 911.368821 608.27977 
L 916.084673 607.584051 
L 920.800525 567.143341 
L 925.516377 608.577821 
L 930.232229 536.529742 
L 934.948081 609.627548 
L 939.663933 567.069449 
L 944.379785 558.067976 
L 949.095637 562.849946 
L 953.811489 607.052517 
L 958.527341 587.188286 
L 963.243193 517.802722 
L 972.674897 523.596382 
L 977.390749 496.646147 
L 982.106601 566.112203 
L 986.822453 606.815447 
L 991.538305 607.774801 
L 996.254157 605.294409 
L 1000.970009 533.101556 
L 1005.685861 557.94319 
L 1010.401713 521.297324 
L 1015.117565 540.684171 
L 1019.833417 606.929453 
L 1024.549269 608.078297 
L 1029.265121 599.517347 
L 1033.980973 572.582258 
L 1038.696825 509.427025 
L 1043.412677 603.29016 
L 1048.128529 561.637927 
L 1052.844381 605.418943 
L 1057.560233 561.765901 
L 1062.276085 561.537306 
L 1066.991937 562.175886 
L 1071.707789 605.799905 
L 1076.423641 607.853199 
L 1081.139493 565.105613 
L 1085.855345 564.984705 
L 1090.571197 539.160276 
L 1095.287049 606.838733 
L 1100.002901 604.173008 
L 1104.718753 606.038673 
L 1109.434605 606.361258 
L 1114.150457 564.781518 
L 1118.866309 608.671345 
L 1123.582161 604.664804 
L 1128.298013 606.194607 
L 1133.013865 570.968897 
L 1137.729717 558.413613 
L 1142.445569 568.979418 
L 1147.161421 607.856074 
L 1151.877273 566.793047 
L 1151.877273 566.793047 
" style="fill:none;stroke:#ff0000;stroke-linecap:square;stroke-width:1.5;"/>
   </g>
   <g id="line2d_19">
    <path clip-path="url(#p426007bce6)" d="M 213.422727 581.426656 
L 218.138579 582.139131 
L 222.854431 608.907455 
L 227.570283 589.254827 
L 232.286135 579.333695 
L 237.001987 577.449568 
L 241.717839 575.383004 
L 246.433691 577.421558 
L 251.149543 577.963054 
L 255.865395 576.498208 
L 260.581247 547.739328 
L 265.297099 535.870472 
L 270.012951 533.290537 
L 274.728803 550.280134 
L 279.444655 560.821673 
L 284.160507 549.221448 
L 288.876359 555.078243 
L 293.592211 608.793923 
L 298.308063 612.103687 
L 303.023915 604.282393 
L 307.739767 611.312587 
L 312.455619 609.611616 
L 317.171471 608.791185 
L 321.887323 611.960327 
L 326.603175 611.299467 
L 331.319027 559.458038 
L 336.034879 544.502626 
L 340.750731 530.940793 
L 345.466583 554.462137 
L 350.182435 612.615441 
L 354.898287 568.322196 
L 359.614139 544.499204 
L 364.329991 566.557151 
L 369.045843 608.360524 
L 373.761695 611.400078 
L 378.477547 545.438915 
L 383.193399 609.182619 
L 387.909251 610.689983 
L 392.625103 610.00628 
L 397.340955 522.162687 
L 402.056807 542.145823 
L 406.772659 541.998884 
L 411.488511 572.038561 
L 416.204363 557.253031 
L 420.920215 592.748151 
L 425.636067 609.529022 
L 430.351919 515.522105 
L 435.067771 560.961418 
L 439.783623 612.110483 
L 444.499475 606.633184 
L 449.215327 580.364947 
L 453.931179 612.914268 
L 458.647031 614.471917 
L 463.362883 611.767652 
L 472.794587 611.901667 
L 477.510439 612.174416 
L 482.226291 610.596937 
L 486.942143 613.402759 
L 491.657995 609.983802 
L 496.373847 587.289953 
L 501.089698 598.43512 
L 505.80555 607.549343 
L 510.521402 593.640145 
L 515.237254 584.997811 
L 519.953106 604.171528 
L 524.668958 604.784638 
L 529.38481 564.393462 
L 534.100662 543.227284 
L 538.816514 567.806838 
L 543.532366 562.054435 
L 548.248218 609.449228 
L 552.96407 564.628177 
L 557.679922 547.381492 
L 562.395774 608.867516 
L 567.111626 567.937033 
L 571.827478 539.004379 
L 576.54333 572.001169 
L 581.259182 570.397719 
L 590.690886 566.86206 
L 595.406738 611.795159 
L 600.12259 611.246596 
L 604.838442 611.219183 
L 609.554294 567.287454 
L 614.270146 529.636749 
L 618.985998 545.549716 
L 623.70185 573.636347 
L 628.417702 574.684604 
L 633.133554 611.387346 
L 637.849406 573.975179 
L 642.565258 546.047545 
L 647.28111 583.825375 
L 651.996962 558.577596 
L 656.712814 612.701227 
L 661.428666 611.693912 
L 666.144518 595.959389 
L 670.86037 587.154504 
L 675.576222 571.157945 
L 680.292074 577.384817 
L 685.007926 576.419189 
L 689.723778 577.700979 
L 694.43963 575.568797 
L 699.155482 614.049829 
L 703.871334 610.173573 
L 708.587186 605.66924 
L 713.303038 541.44341 
L 718.01889 612.606628 
L 722.734742 608.800188 
L 727.450594 612.488059 
L 732.166446 610.183445 
L 736.882298 610.854429 
L 741.59815 585.153722 
L 746.314002 613.051224 
L 751.029854 508.805544 
L 755.745706 600.276033 
L 760.461558 529.768011 
L 765.17741 572.196565 
L 769.893262 611.334453 
L 774.609114 612.049367 
L 779.324966 571.20702 
L 784.040818 604.46369 
L 788.75667 544.297056 
L 793.472522 562.58153 
L 798.188374 567.304264 
L 802.904226 609.724556 
L 807.620078 611.249385 
L 812.33593 608.517877 
L 817.051782 602.336766 
L 821.767634 612.986143 
L 826.483486 611.841822 
L 831.199338 574.432717 
L 835.91519 544.993718 
L 840.631042 543.395858 
L 845.346894 554.779494 
L 850.062746 540.415412 
L 854.778598 570.678483 
L 859.49445 571.854002 
L 864.210302 569.893461 
L 868.926153 613.287239 
L 873.642005 574.905555 
L 878.357857 611.626974 
L 883.073709 613.093012 
L 887.789561 611.790377 
L 892.505413 612.33116 
L 897.221265 614.393329 
L 901.937117 612.581788 
L 906.652969 573.376548 
L 911.368821 613.760277 
L 916.084673 613.078144 
L 920.800525 574.538867 
L 925.516377 614.052662 
L 930.232229 547.480871 
L 934.948081 615.083225 
L 939.663933 574.470908 
L 944.379785 566.275341 
L 949.095637 570.607711 
L 953.811489 612.557341 
L 958.527341 593.339873 
L 963.243193 532.414296 
L 967.959045 534.601734 
L 972.674897 536.916488 
L 977.390749 517.704705 
L 982.106601 573.591305 
L 986.822453 612.325164 
L 991.538305 613.265114 
L 996.254157 610.836985 
L 1000.970009 544.61899 
L 1005.685861 566.162963 
L 1010.401713 535.110804 
L 1015.117565 551.001967 
L 1019.833417 612.436811 
L 1024.549269 613.56268 
L 1029.265121 605.209071 
L 1033.980973 579.57106 
L 1038.696825 526.219206 
L 1043.412677 608.880045 
L 1048.128529 569.504909 
L 1052.844381 610.958731 
L 1057.560233 569.621193 
L 1062.276085 569.413489 
L 1066.991937 569.993994 
L 1071.707789 611.331276 
L 1076.423641 613.341968 
L 1081.139493 572.668357 
L 1085.855345 572.557643 
L 1090.571197 549.703903 
L 1095.287049 612.347966 
L 1100.002901 609.741484 
L 1104.718753 611.564845 
L 1109.434605 611.880516 
L 1114.150457 572.371642 
L 1118.866309 614.144435 
L 1123.582161 610.221745 
L 1128.298013 611.717422 
L 1133.013865 578.072526 
L 1137.729717 566.586766 
L 1142.445569 576.231342 
L 1147.161421 613.344789 
L 1151.877273 574.216725 
L 1151.877273 574.216725 
" style="fill:none;stroke:#ff0000;stroke-linecap:square;stroke-width:1.5;"/>
   </g>
   <g id="line2d_20">
    <path clip-path="url(#p426007bce6)" d="M 213.422727 570.353462 
L 218.138579 571.094783 
L 222.854431 598.819102 
L 227.570283 578.486585 
L 232.286135 568.174399 
L 237.001987 566.210864 
L 241.717839 564.054986 
L 246.433691 566.181645 
L 251.149543 566.746166 
L 255.865395 565.218675 
L 260.581247 534.896053 
L 265.297099 522.069743 
L 270.012951 519.239504 
L 274.728803 537.609922 
L 279.444655 548.784391 
L 284.160507 536.48023 
L 288.876359 542.711645 
L 293.592211 598.701886 
L 298.308063 602.118288 
L 303.023915 594.042142 
L 307.739767 601.301836 
L 312.455619 599.546079 
L 317.171471 598.699057 
L 321.887323 601.970343 
L 326.603175 601.2883 
L 331.319027 547.345569 
L 336.034879 531.424543 
L 340.750731 516.644301 
L 345.466583 542.058106 
L 350.182435 602.646399 
L 354.898287 556.66956 
L 359.614139 531.420872 
L 364.329991 554.818048 
L 369.045843 598.254404 
L 373.761695 601.392139 
L 378.477547 532.430509 
L 383.193399 599.103191 
L 387.909251 600.659233 
L 392.625103 599.953491 
L 397.340955 506.747066 
L 402.056807 528.885563 
L 406.772659 528.726934 
L 411.488511 560.560773 
L 416.204363 545.015159 
L 420.920215 582.10846 
L 425.636067 599.460813 
L 430.351919 498.890687 
L 435.067771 548.931705 
L 439.783623 602.1253 
L 444.499475 596.470616 
L 449.215327 569.248331 
L 453.931179 602.954757 
L 458.647031 604.561925 
L 463.362883 601.771497 
L 472.794587 601.909802 
L 477.510439 602.191277 
L 482.226291 600.563189 
L 486.942143 603.458811 
L 491.657995 599.930289 
L 496.373847 576.447495 
L 501.089698 587.996621 
L 505.80555 597.416776 
L 510.521402 583.032639 
L 515.237254 574.066888 
L 519.953106 593.927589 
L 524.668958 594.561073 
L 529.38481 552.545101 
L 534.100662 530.051882 
L 538.816514 556.129191 
L 543.532366 550.083623 
L 548.248218 599.378435 
L 552.96407 552.791821 
L 557.679922 534.513038 
L 562.395774 598.777868 
L 567.111626 556.265728 
L 571.827478 525.484528 
L 576.54333 560.52167 
L 581.259182 558.843878 
L 590.690886 555.138062 
L 595.406738 601.799887 
L 600.12259 601.233732 
L 604.838442 601.205436 
L 609.554294 555.584414 
L 614.270146 515.195883 
L 618.985998 532.54945 
L 623.70185 562.230968 
L 628.417702 563.325865 
L 633.133554 601.378999 
L 637.849406 562.584946 
L 642.565258 533.083631 
L 647.28111 572.848359 
L 651.996962 546.415642 
L 656.712814 602.73492 
L 661.428666 601.695394 
L 666.144518 585.434438 
L 670.86037 576.306878 
L 675.576222 559.63955 
L 680.292074 566.143327 
L 685.007926 565.136254 
L 689.723778 566.472965 
L 694.43963 564.2489 
L 699.155482 604.126445 
L 703.871334 600.126186 
L 708.587186 595.474944 
L 713.303038 528.12686 
L 718.01889 602.637303 
L 722.734742 598.708355 
L 727.450594 602.514942 
L 732.166446 600.136376 
L 736.882298 600.828964 
L 741.59815 574.228898 
L 746.314002 603.096079 
L 751.029854 489.434226 
L 755.745706 589.900809 
L 760.461558 515.341962 
L 765.17741 560.726005 
L 769.893262 601.324411 
L 774.609114 602.06223 
L 779.324966 559.690908 
L 784.040818 594.229465 
L 788.75667 531.203498 
L 793.472522 550.638709 
L 798.188374 555.602043 
L 802.904226 599.662668 
L 807.620078 601.236611 
L 812.33593 598.41687 
L 817.051782 592.03139 
L 821.767634 603.028921 
L 826.483486 601.84804 
L 831.199338 563.062831 
L 835.91519 531.952355 
L 840.631042 530.233481 
L 845.346894 542.394818 
L 850.062746 527.014703 
L 854.778598 559.137789 
L 859.49445 560.367752 
L 864.210302 558.315884 
L 868.926153 603.339608 
L 873.642005 563.556573 
L 878.357857 601.626314 
L 883.073709 603.139195 
L 887.789561 601.794948 
L 892.505413 602.353036 
L 897.221265 604.480843 
L 901.937117 602.611668 
L 906.652969 561.959499 
L 911.368821 603.827697 
L 916.084673 603.123851 
L 920.800525 563.173692 
L 925.516377 604.129371 
L 930.232229 534.619403 
L 934.948081 605.192587 
L 939.663933 563.102706 
L 944.379785 554.522211 
L 949.095637 559.063709 
L 953.811489 602.586442 
L 958.527341 582.721563 
L 963.243193 518.273788 
L 967.959045 520.680232 
L 972.674897 523.212152 
L 977.390749 501.528637 
L 982.106601 562.183906 
L 986.822453 602.346842 
L 991.538305 603.316781 
L 996.254157 600.810959 
L 1000.970009 531.549617 
L 1005.685861 554.40423 
L 1010.401713 521.238323 
L 1015.117565 538.379288 
L 1019.833417 602.462062 
L 1024.549269 603.623814 
L 1029.265121 594.999569 
L 1033.980973 568.421629 
L 1038.696825 511.367649 
L 1043.412677 598.790799 
L 1048.128529 557.908932 
L 1052.844381 600.936618 
L 1057.560233 558.030752 
L 1062.276085 557.813177 
L 1066.991937 558.421176 
L 1071.707789 601.321129 
L 1076.423641 603.396082 
L 1081.139493 561.219284 
L 1085.855345 561.103551 
L 1090.571197 536.995266 
L 1095.287049 602.370373 
L 1100.002901 599.68014 
L 1104.718753 601.562192 
L 1109.434605 601.887975 
L 1114.150457 560.909081 
L 1118.866309 604.224053 
L 1123.582161 600.175905 
L 1128.298013 601.719657 
L 1133.013865 566.860269 
L 1137.729717 554.849125 
L 1142.445569 564.940267 
L 1147.161421 603.398991 
L 1151.877273 562.83725 
L 1151.877273 562.83725 
" style="fill:none;stroke:#ff0000;stroke-linecap:square;stroke-width:1.5;"/>
   </g>
   <g id="line2d_21">
    <path clip-path="url(#p426007bce6)" d="M 213.422727 576.797701 
L 218.138579 577.496188 
L 222.854431 603.378621 
L 227.570283 584.439162 
L 232.286135 574.742008 
L 237.001987 572.886275 
L 241.717839 570.844862 
L 246.433691 572.858633 
L 251.149543 573.392526 
L 255.865395 571.947288 
L 260.581247 542.678219 
L 265.297099 529.773614 
L 270.012951 526.857759 
L 274.728803 545.356957 
L 279.444655 556.244965 
L 284.160507 544.24374 
L 288.876359 550.353959 
L 293.592211 603.269947 
L 298.308063 606.435492 
L 303.023915 598.94568 
L 307.739767 605.679346 
L 312.455619 604.05251 
L 317.171471 603.267323 
L 321.887323 606.298486 
L 326.603175 605.666804 
L 331.319027 554.854286 
L 336.034879 539.228263 
L 340.750731 524.156285 
L 345.466583 549.716432 
L 350.182435 606.924487 
L 354.898287 563.817191 
L 359.614139 539.224599 
L 364.329991 562.046107 
L 369.045843 602.855029 
L 373.761695 605.762986 
L 378.477547 540.230833 
L 383.193399 603.64199 
L 387.909251 605.084044 
L 392.625103 604.430099 
L 397.340955 513.533043 
L 402.056807 536.686599 
L 406.772659 536.527245 
L 411.488511 567.526893 
L 416.204363 552.595297 
L 420.920215 587.828165 
L 425.636067 603.973484 
L 430.351919 504.517652 
L 435.067771 556.387199 
L 439.783623 606.441988 
L 444.499475 601.200336 
L 449.215327 575.755624 
L 453.931179 607.209968 
L 458.647031 608.697416 
L 463.362883 606.11434 
L 472.794587 606.242424 
L 477.510439 606.503079 
L 482.226291 604.995063 
L 486.942143 607.676552 
L 491.657995 604.408598 
L 496.373847 582.527636 
L 501.089698 593.32218 
L 505.80555 602.078164 
L 510.521402 588.691705 
L 515.237254 580.292431 
L 519.953106 598.839271 
L 524.668958 599.427662 
L 529.38481 559.866272 
L 534.100662 537.856206 
L 538.816514 563.300706 
L 543.532366 557.498195 
L 548.248218 603.897133 
L 552.96407 560.103215 
L 557.679922 542.298941 
L 562.395774 603.340397 
L 567.111626 563.431244 
L 571.827478 533.254748 
L 576.54333 567.489682 
L 581.259182 565.892084 
L 590.690886 562.352506 
L 595.406738 606.140632 
L 600.12259 605.616255 
L 604.838442 605.590047 
L 609.554294 562.779658 
L 614.270146 522.635659 
L 618.985998 540.349244 
L 623.70185 569.114318 
L 628.417702 570.153489 
L 633.133554 605.750812 
L 637.849406 569.450411 
L 642.565258 540.88052 
L 647.28111 579.146787 
L 651.996962 553.953852 
L 656.712814 607.006441 
L 661.428666 606.04386 
L 666.144518 590.933722 
L 670.86037 582.395706 
L 675.576222 566.650109 
L 680.292074 572.822388 
L 685.007926 571.869249 
L 689.723778 573.134176 
L 694.43963 571.028656 
L 699.155482 608.294453 
L 703.871334 604.590134 
L 708.587186 600.276201 
L 713.303038 535.923843 
L 718.01889 606.916068 
L 722.734742 603.275943 
L 727.450594 606.802777 
L 732.166446 604.599576 
L 736.882298 605.24129 
L 741.59815 580.444644 
L 746.314002 607.34079 
L 751.029854 491.110903 
L 755.745706 595.095184 
L 760.461558 522.78947 
L 765.17741 567.684052 
L 769.893262 605.70025 
L 774.609114 606.383581 
L 779.324966 566.699003 
L 784.040818 599.119676 
L 788.75667 539.007614 
L 793.472522 558.03294 
L 798.188374 562.796535 
L 802.904226 604.160576 
L 807.620078 605.618923 
L 812.33593 603.005682 
L 817.051782 597.077062 
L 821.767634 607.278626 
L 826.483486 606.185229 
L 831.199338 569.90395 
L 835.91519 539.75462 
L 840.631042 538.03798 
L 845.346894 550.04499 
L 850.062746 534.802861 
L 854.778598 566.172163 
L 859.49445 567.34324 
L 864.210302 565.388718 
L 868.926153 607.566221 
L 873.642005 570.372305 
L 878.357857 605.979877 
L 883.073709 607.380709 
L 887.789561 606.136059 
L 892.505413 606.652863 
L 897.221265 608.622397 
L 901.937117 606.892329 
L 906.652969 568.856491 
L 911.368821 608.017978 
L 916.084673 607.366506 
L 920.800525 570.00912 
L 925.516377 608.297158 
L 930.232229 542.40432 
L 934.948081 609.280899 
L 939.663933 569.941785 
L 944.379785 561.76274 
L 949.095637 566.10158 
L 953.811489 606.868972 
L 958.527341 588.40109 
L 963.243193 525.855786 
L 972.674897 530.942457 
L 977.390749 507.630051 
L 982.106601 569.069631 
L 986.822453 606.647132 
L 991.538305 607.545089 
L 996.254157 605.224614 
L 1000.970009 539.353076 
L 1005.685861 561.649718 
L 1010.401713 528.920062 
L 1015.117565 546.113639 
L 1019.833417 606.753812 
L 1024.549269 607.829285 
L 1029.265121 599.834852 
L 1033.980973 574.975448 
L 1038.696825 518.565598 
L 1043.412677 603.352385 
L 1048.128529 565.000529 
L 1052.844381 605.341028 
L 1057.560233 565.116746 
L 1062.276085 564.909156 
L 1066.991937 565.489118 
L 1071.707789 605.697207 
L 1076.423641 607.618494 
L 1081.139493 568.153112 
L 1085.855345 568.043076 
L 1090.571197 544.751568 
L 1095.287049 606.668918 
L 1100.002901 604.176772 
L 1104.718753 605.92049 
L 1109.434605 606.222215 
L 1114.150457 567.858169 
L 1118.866309 608.38478 
L 1123.582161 604.636213 
L 1128.298013 606.066331 
L 1133.013865 573.500388 
L 1137.729717 562.075876 
L 1142.445569 571.68365 
L 1147.161421 607.621188 
L 1151.877273 569.689891 
L 1151.877273 569.689891 
" style="fill:none;stroke:#ff0000;stroke-linecap:square;stroke-width:1.5;"/>
   </g>
   <g id="line2d_22">
    <path clip-path="url(#p426007bce6)" d="M 213.422727 578.053206 
L 218.138579 578.699571 
L 222.854431 602.787449 
L 227.570283 585.136921 
L 232.286135 576.15237 
L 237.001987 574.438361 
L 241.717839 572.555093 
L 246.433691 574.412846 
L 251.149543 574.905757 
L 255.865395 573.571823 
L 260.581247 546.885461 
L 265.297099 535.402211 
L 270.012951 532.841273 
L 274.728803 549.295407 
L 279.444655 559.166162 
L 284.160507 548.29293 
L 288.876359 553.81141 
L 293.592211 602.685882 
L 298.308063 605.645424 
L 303.023915 598.64673 
L 307.739767 604.93829 
L 312.455619 603.417318 
L 317.171471 602.683432 
L 321.887323 605.517292 
L 326.603175 604.926563 
L 331.319027 557.899295 
L 336.034879 543.793986 
L 340.750731 530.481664 
L 345.466583 553.233871 
L 350.182435 606.10278 
L 354.898287 566.091493 
L 359.614139 543.790711 
L 364.329991 564.467824 
L 369.045843 602.298129 
L 373.761695 605.016504 
L 378.477547 544.690896 
L 383.193399 603.033602 
L 387.909251 604.381665 
L 392.625103 603.770293 
L 397.340955 521.346165 
L 402.056807 541.525891 
L 406.772659 541.383979 
L 411.488511 569.499474 
L 416.204363 555.845012 
L 420.920215 588.286565 
L 425.636067 603.34345 
L 430.351919 513.830087 
L 439.783623 605.651497 
L 444.499475 600.752156 
L 449.215327 577.08935 
L 453.931179 606.369811 
L 458.647031 607.761396 
L 463.362883 605.345075 
L 472.794587 605.464858 
L 477.510439 605.708639 
L 482.226291 604.298465 
L 486.942143 606.80628 
L 491.657995 603.750188 
L 496.373847 583.362448 
L 501.089698 593.401444 
L 505.80555 601.572228 
L 510.521402 589.089813 
L 515.237254 581.289522 
L 519.953106 598.547391 
L 524.668958 599.096702 
L 529.38481 562.472588 
L 534.100662 542.568572 
L 538.816514 565.617769 
L 543.532366 560.309221 
L 548.248218 603.272081 
L 552.96407 562.689278 
L 557.679922 546.544925 
L 562.395774 602.751721 
L 567.111626 565.737469 
L 571.827478 538.477197 
L 576.54333 569.465242 
L 581.259182 567.996497 
L 590.690886 564.748554 
L 595.406738 605.369663 
L 600.12259 604.879299 
L 604.838442 604.854792 
L 609.554294 565.140052 
L 614.270146 529.159387 
L 618.985998 544.796912 
L 623.70185 570.960528 
L 628.417702 571.917835 
L 633.133554 605.005122 
L 637.849406 571.270068 
L 642.565258 545.272764 
L 647.28111 580.227961 
L 651.996962 557.079915 
L 656.712814 606.179437 
L 661.428666 605.279162 
L 666.144518 591.17655 
L 670.86037 583.240038 
L 675.576222 568.693172 
L 680.292074 574.379387 
L 685.007926 573.499824 
L 689.723778 574.667224 
L 694.43963 572.724553 
L 699.155482 607.38436 
L 703.871334 603.919895 
L 708.587186 599.889038 
L 713.303038 540.846886 
L 718.01889 606.094902 
L 722.734742 602.691485 
L 727.450594 605.988943 
L 732.166446 603.928727 
L 736.882298 604.52869 
L 741.59815 581.430625 
L 746.314002 606.492188 
L 751.029854 503.444525 
L 755.745706 595.054215 
L 760.461558 529.292904 
L 765.17741 569.64405 
L 769.893262 604.957838 
L 774.609114 605.596875 
L 779.324966 568.738127 
L 784.040818 598.809167 
L 788.75667 543.596771 
L 793.472522 560.79734 
L 798.188374 565.15552 
L 802.904226 603.518335 
L 807.620078 604.881789 
L 812.33593 602.438913 
L 817.051782 596.902791 
L 821.767634 606.434036 
L 826.483486 605.41137 
L 831.199338 571.687898 
L 835.91519 544.264717 
L 840.631042 542.730791 
L 845.346894 553.531459 
L 850.062746 539.850442 
L 854.778598 568.25386 
L 859.49445 569.330544 
L 864.210302 567.53408 
L 868.926153 606.703069 
L 873.642005 572.119493 
L 878.357857 605.219329 
L 883.073709 606.529526 
L 887.789561 605.365388 
L 892.505413 605.848722 
L 897.221265 607.691198 
L 901.937117 606.072703 
L 906.652969 570.723123 
L 911.368821 607.125691 
L 916.084673 606.516242 
L 920.800525 571.784795 
L 925.516377 607.386893 
L 930.232229 546.639513 
L 934.948081 608.307381 
L 939.663933 571.722754 
L 944.379785 564.20826 
L 949.095637 568.188994 
L 953.811489 606.050859 
L 958.527341 588.819461 
L 963.243193 531.964596 
L 972.674897 536.432624 
L 977.390749 516.394031 
L 982.106601 570.919385 
L 986.822453 605.843364 
L 991.538305 606.683299 
L 996.254157 604.513094 
L 1000.970009 543.905559 
L 1005.685861 564.104733 
L 1010.401713 534.651111 
L 1015.117565 549.977594 
L 1019.833417 605.943142 
L 1024.549269 606.949162 
L 1029.265121 599.476898 
L 1033.980973 576.3681 
L 1038.696825 525.642841 
L 1043.412677 602.762928 
L 1048.128529 567.177586 
L 1052.844381 604.621942 
L 1057.560233 567.284287 
L 1062.276085 567.093695 
L 1066.991937 567.626292 
L 1071.707789 604.954996 
L 1076.423641 606.751967 
L 1081.139493 570.075651 
L 1085.855345 569.974386 
L 1090.571197 548.750066 
L 1095.287049 605.863744 
L 1100.002901 603.533475 
L 1104.718753 605.163791 
L 1109.434605 605.445957 
L 1114.150457 569.804248 
L 1118.866309 607.468868 
L 1123.582161 603.962975 
L 1128.298013 605.30018 
L 1133.013865 575.005371 
L 1137.729717 564.49509 
L 1142.445569 573.328613 
L 1147.161421 606.754487 
L 1151.877273 571.490683 
L 1151.877273 571.490683 
" style="fill:none;stroke:#ff0000;stroke-linecap:square;stroke-width:1.5;"/>
   </g>
   <g id="line2d_23">
    <path clip-path="url(#p426007bce6)" d="M 213.422727 574.547712 
L 218.138579 575.199949 
L 222.854431 599.455149 
L 227.570283 581.691858 
L 232.286135 572.629119 
L 237.001987 570.898541 
L 241.717839 568.996437 
L 246.433691 570.872779 
L 251.149543 571.370501 
L 255.865395 570.023421 
L 260.581247 543.001341 
L 265.297099 531.329056 
L 270.012951 528.722398 
L 274.728803 545.447491 
L 279.444655 555.454125 
L 284.160507 544.430083 
L 288.876359 550.028132 
L 293.592211 599.353082 
L 298.308063 602.326458 
L 303.023915 595.292704 
L 307.739767 601.61615 
L 312.455619 600.088075 
L 317.171471 599.350622 
L 321.887323 602.197756 
L 326.603175 601.604369 
L 331.319027 554.170931 
L 336.034879 539.861629 
L 340.750731 526.319578 
L 345.466583 549.442553 
L 350.182435 602.785825 
L 354.898287 562.463119 
L 359.614139 539.858314 
L 364.329991 560.82068 
L 369.045843 598.96341 
L 373.761695 601.694719 
L 378.477547 540.772746 
L 383.193399 599.7025 
L 387.909251 601.056968 
L 392.625103 600.442728 
L 397.340955 517.00958 
L 402.056807 537.5569 
L 406.772659 537.41266 
L 411.488511 565.908841 
L 416.204363 552.089476 
L 420.920215 584.865526 
L 425.636067 600.013851 
L 430.351919 509.351516 
L 439.783623 602.332558 
L 444.499475 597.409539 
L 449.215327 573.574937 
L 453.931179 603.054013 
L 458.647031 604.451433 
L 463.362883 602.02477 
L 472.794587 602.145094 
L 477.510439 602.389948 
L 482.226291 600.973389 
L 486.942143 603.492348 
L 491.657995 600.422528 
L 496.373847 579.903081 
L 501.089698 590.015774 
L 505.80555 598.233849 
L 510.521402 585.674626 
L 515.237254 577.812753 
L 519.953106 595.192808 
L 524.668958 595.745175 
L 529.38481 558.801675 
L 534.100662 538.616546 
L 538.816514 561.983959 
L 543.532366 556.611639 
L 548.248218 599.942137 
L 552.96407 559.020988 
L 557.679922 542.655577 
L 562.395774 599.419246 
L 567.111626 562.105041 
L 571.827478 534.457299 
L 576.54333 565.87424 
L 581.259182 564.389483 
L 590.690886 561.104692 
L 595.406738 602.049472 
L 600.12259 601.556891 
L 604.838442 601.532273 
L 609.554294 561.500733 
L 614.270146 524.972707 
L 618.985998 540.880419 
L 623.70185 567.385411 
L 628.417702 568.352649 
L 633.133554 601.683288 
L 637.849406 567.698178 
L 642.565258 541.363747 
L 647.28111 576.741962 
L 651.996962 553.340807 
L 656.712814 602.862814 
L 661.428666 601.958562 
L 666.144518 587.776042 
L 670.86037 579.779664 
L 675.576222 565.093808 
L 680.292074 570.838977 
L 685.007926 569.950697 
L 689.723778 571.129646 
L 694.43963 569.167621 
L 699.155482 604.072847 
L 703.871334 600.593041 
L 708.587186 596.541824 
L 713.303038 536.866721 
L 718.01889 602.777913 
L 722.734742 599.358716 
L 727.450594 602.671487 
L 732.166446 600.601913 
L 736.882298 601.204675 
L 741.59815 577.955061 
L 746.314002 603.176913 
L 751.029854 498.99987 
L 755.745706 591.679016 
L 760.461558 525.108713 
L 765.17741 566.05498 
L 769.893262 601.635789 
L 774.609114 602.277694 
L 779.324966 565.139267 
L 784.040818 595.456047 
L 788.75667 539.661266 
L 793.472522 557.105858 
L 798.188374 561.516382 
L 802.904226 600.189575 
L 807.620078 601.559394 
L 812.33593 599.104892 
L 817.051782 593.538753 
L 821.767634 603.118513 
L 826.483486 602.091364 
L 831.199338 568.120344 
L 835.91519 540.339836 
L 840.631042 538.781388 
L 845.346894 549.744288 
L 850.062746 535.853702 
L 854.778598 564.649692 
L 859.49445 565.738093 
L 864.210302 563.921946 
L 868.926153 603.388697 
L 873.642005 568.55638 
L 878.357857 601.898461 
L 883.073709 603.214413 
L 887.789561 602.045174 
L 892.505413 602.530656 
L 897.221265 604.38095 
L 901.937117 602.755613 
L 906.652969 567.145515 
L 911.368821 603.813104 
L 916.084673 603.201072 
L 920.800525 568.218246 
L 925.516377 604.07539 
L 930.232229 542.751634 
L 934.948081 604.999619 
L 939.663933 568.155561 
L 944.379785 560.558062 
L 949.095637 564.584108 
L 953.811489 602.733676 
L 958.527341 585.402314 
L 963.243193 527.829783 
L 972.674897 532.377534 
L 977.390749 511.96222 
L 982.106601 567.343831 
L 986.822453 602.52527 
L 991.538305 603.368843 
L 996.254157 601.189008 
L 1000.970009 539.974987 
L 1005.685861 560.453321 
L 1010.401713 530.564683 
L 1015.117565 546.13971 
L 1019.833417 602.625488 
L 1024.549269 603.63583 
L 1029.265121 596.127456 
L 1033.980973 572.846903 
L 1038.696825 521.389449 
L 1043.412677 599.430507 
L 1048.128529 563.561465 
L 1052.844381 601.298357 
L 1057.560233 563.669374 
L 1062.276085 563.476635 
L 1066.991937 564.015192 
L 1071.707789 601.632934 
L 1076.423641 603.437803 
L 1081.139493 566.491178 
L 1085.855345 566.388846 
L 1090.571197 544.894064 
L 1095.287049 602.545741 
L 1100.002901 600.204782 
L 1104.718753 601.842674 
L 1109.434605 602.126106 
L 1114.150457 566.216884 
L 1118.866309 604.157707 
L 1123.582161 600.636319 
L 1128.298013 601.979674 
L 1133.013865 571.471081 
L 1137.729717 560.848254 
L 1142.445569 569.777775 
L 1147.161421 603.440333 
L 1151.877273 567.921082 
L 1151.877273 567.921082 
" style="fill:none;stroke:#ff0000;stroke-linecap:square;stroke-width:1.5;"/>
   </g>
   <g id="line2d_24">
    <path clip-path="url(#p426007bce6)" d="M 213.422727 564.237304 
L 218.138579 565.033163 
L 222.854431 595.294754 
L 227.570283 573.010054 
L 232.286135 561.902464 
L 237.001987 559.804581 
L 241.717839 557.507939 
L 246.433691 559.773403 
L 251.149543 560.375926 
L 255.865395 558.746727 
L 260.581247 527.306318 
L 265.297099 514.746907 
L 270.012951 512.067619 
L 274.728803 530.034414 
L 279.444655 541.467172 
L 284.160507 528.896239 
L 288.876359 535.216766 
L 293.592211 595.164985 
L 298.308063 598.952733 
L 303.023915 590.017928 
L 307.739767 598.046488 
L 312.455619 596.099851 
L 317.171471 595.161862 
L 321.887323 598.788464 
L 326.603175 598.031463 
L 331.319027 539.978859 
L 336.034879 523.849055 
L 340.750731 509.64801 
L 345.466583 534.549209 
L 350.182435 599.539275 
L 354.898287 549.697514 
L 359.614139 523.845444 
L 364.329991 547.75428 
L 369.045843 594.669736 
L 373.761695 598.146683 
L 378.477547 524.846961 
L 383.193399 595.60931 
L 387.909251 597.333664 
L 392.625103 596.551283 
L 397.340955 500.84841 
L 402.056807 521.345601 
L 406.772659 521.189966 
L 411.488511 553.801264 
L 416.204363 537.577831 
L 420.920215 576.944552 
L 425.636067 596.005394 
L 430.351919 494.637758 
L 435.067771 541.619808 
L 439.783623 598.960521 
L 444.499475 592.697559 
L 449.215327 563.052315 
L 453.931179 599.881878 
L 458.647031 601.669014 
L 463.362883 598.567714 
L 472.794587 598.721253 
L 477.510439 599.033785 
L 482.226291 597.227164 
L 486.942143 600.442104 
L 491.657995 596.525564 
L 496.373847 570.802303 
L 501.089698 583.374793 
L 505.80555 593.743239 
L 510.521402 577.951089 
L 515.237254 568.231688 
L 519.953106 589.891679 
L 524.668958 590.590002 
L 529.38481 545.377471 
L 534.100662 522.492842 
L 538.816514 549.129732 
L 543.532366 542.814843 
L 548.248218 595.914148 
L 552.96407 545.635003 
L 557.679922 526.923088 
L 562.395774 595.249101 
L 567.111626 549.273141 
L 571.827478 518.029142 
L 576.54333 553.759892 
L 581.259182 551.987358 
L 590.690886 548.089709 
L 595.406738 598.599235 
L 600.12259 597.970919 
L 604.838442 597.939522 
L 609.554294 548.557844 
L 614.270146 508.314828 
L 618.985998 524.965184 
L 623.70185 555.570522 
L 628.417702 556.732855 
L 633.133554 598.132104 
L 637.849406 555.946109 
L 642.565258 525.496627 
L 647.28111 566.918853 
L 651.996962 539.019304 
L 656.712814 599.637617 
L 661.428666 598.483246 
L 666.144518 580.571718 
L 670.86037 570.650244 
L 675.576222 552.827395 
L 680.292074 559.732521 
L 685.007926 558.65891 
L 689.723778 560.084284 
L 694.43963 557.714227 
L 699.155482 601.184526 
L 703.871334 596.742679 
L 708.587186 591.598159 
L 713.303038 520.601958 
L 718.01889 599.529168 
L 722.734742 595.172149 
L 727.450594 599.393252 
L 732.166446 596.753977 
L 736.882298 597.521907 
L 741.59815 568.406369 
L 746.314002 600.038922 
L 751.029854 490.264035 
L 755.745706 585.462845 
L 760.461558 508.448654 
L 765.17741 553.976092 
L 769.893262 598.071529 
L 774.609114 598.890484 
L 779.324966 552.881638 
L 784.040818 590.224401 
L 788.75667 523.630244 
L 793.472522 543.391684 
L 798.188374 548.576352 
L 802.904226 596.22902 
L 807.620078 597.974113 
L 812.33593 594.849524 
L 817.051782 587.803962 
L 821.767634 599.964292 
L 826.483486 598.652689 
L 831.199338 556.453447 
L 835.91519 524.37225 
L 840.631042 522.671911 
L 845.346894 534.893027 
L 850.062746 519.515744 
L 854.778598 552.297529 
L 859.49445 553.597096 
L 864.210302 551.430575 
L 868.926153 600.3096 
L 873.642005 556.978012 
L 878.357857 598.406566 
L 883.073709 600.086844 
L 887.789561 598.593752 
L 892.505413 599.213418 
L 897.221265 601.578798 
L 901.937117 599.500691 
L 906.652969 555.282638 
L 911.368821 600.852257 
L 916.084673 600.069792 
L 920.800525 556.571194 
L 925.516377 601.187777 
L 930.232229 527.029487 
L 934.948081 602.370977 
L 939.663933 556.495812 
L 944.379785 547.444365 
L 949.095637 552.219349 
L 953.811489 599.472674 
L 958.527341 577.61217 
L 963.243193 511.162838 
L 967.959045 513.426543 
L 972.674897 515.839268 
L 977.390749 496.610432 
L 982.106601 555.520621 
L 986.822453 599.206546 
L 991.538305 600.284223 
L 996.254157 597.501932 
L 1000.970009 523.972975 
L 1005.685861 547.320827 
L 1010.401713 513.955712 
L 1015.117565 530.811571 
L 1019.833417 599.33451 
L 1024.549269 600.625555 
L 1029.265121 591.073634 
L 1033.980973 562.167021 
L 1038.696825 504.859121 
L 1043.412677 595.263418 
L 1048.128529 551.001732 
L 1052.844381 597.641307 
L 1057.560233 551.130048 
L 1062.276085 550.900857 
L 1066.991937 551.541558 
L 1071.707789 598.067885 
L 1076.423641 600.372376 
L 1081.139493 554.498288 
L 1085.855345 554.375743 
L 1090.571197 529.414691 
L 1095.287049 599.232681 
L 1100.002901 596.248383 
L 1104.718753 598.335402 
L 1109.434605 598.697024 
L 1114.150457 554.169858 
L 1118.866309 601.293102 
L 1123.582161 596.797798 
L 1128.298013 598.51018 
L 1133.013865 560.49778 
L 1137.729717 547.786854 
L 1142.445569 558.450153 
L 1147.161421 600.37561 
L 1151.877273 556.213928 
L 1151.877273 556.213928 
" style="fill:none;stroke:#ff0000;stroke-linecap:square;stroke-width:1.5;"/>
   </g>
   <g id="line2d_25">
    <path clip-path="url(#p426007bce6)" d="M 213.422727 563.037558 
L 218.138579 563.76166 
L 222.854431 591.22982 
L 227.570283 571.01353 
L 232.286135 560.912597 
L 237.001987 559.002393 
L 241.717839 556.910207 
L 246.433691 558.974 
L 251.149543 559.522716 
L 255.865395 558.038845 
L 260.581247 529.252385 
L 265.297099 517.611345 
L 270.012951 515.107905 
L 274.728803 531.766052 
L 279.444655 542.260932 
L 284.160507 530.717848 
L 288.876359 536.530346 
L 293.592211 591.112244 
L 298.308063 594.543689 
L 303.023915 586.447414 
L 307.739767 593.722795 
L 312.455619 591.95927 
L 317.171471 591.109406 
L 321.887323 594.394898 
L 326.603175 593.709192 
L 331.319027 540.89776 
L 336.034879 526.060336 
L 340.750731 512.838455 
L 345.466583 535.917374 
L 350.182435 595.074958 
L 354.898287 549.78611 
L 359.614139 526.056967 
L 364.329991 548.011207 
L 369.045843 590.663491 
L 373.761695 593.813561 
L 378.477547 526.982465 
L 383.193399 591.514832 
L 387.909251 593.077064 
L 392.625103 592.368269 
L 397.340955 504.481119 
L 402.056807 523.743696 
L 406.772659 523.599496 
L 411.488511 553.531083 
L 416.204363 538.69688 
L 420.920215 574.586983 
L 425.636067 591.873698 
L 430.351919 498.373826 
L 435.067771 542.400703 
L 439.783623 594.550742 
L 444.499475 588.876278 
L 449.215327 561.959217 
L 453.931179 595.385265 
L 458.647031 597.003781 
L 463.362883 594.194945 
L 472.794587 594.334015 
L 477.510439 594.617104 
L 482.226291 592.98058 
L 486.942143 595.892657 
L 491.657995 592.344973 
L 496.373847 569.007442 
L 501.089698 580.422961 
L 505.80555 589.823927 
L 510.521402 575.500831 
L 515.237254 566.670684 
L 519.953106 586.332959 
L 524.668958 586.966006 
L 529.38481 545.838814 
L 534.100662 524.805891 
L 538.816514 549.267631 
L 543.532366 543.494607 
L 548.248218 591.791025 
L 552.96407 546.074294 
L 557.679922 528.898937 
L 562.395774 591.188462 
L 567.111626 549.398605 
L 571.827478 520.66685 
L 576.54333 553.493342 
L 581.259182 551.876302 
L 590.690886 548.31766 
L 595.406738 594.223489 
L 600.12259 593.654338 
L 604.838442 593.625902 
L 609.554294 548.745294 
L 614.270146 511.583909 
L 618.985998 527.091696 
L 623.70185 555.144397 
L 628.417702 556.203868 
L 633.133554 593.800354 
L 637.849406 555.486772 
L 642.565258 527.582485 
L 647.28111 565.476877 
L 651.996962 540.018459 
L 656.712814 595.164029 
L 661.428666 594.118426 
L 666.144518 577.879539 
L 670.86037 568.869235 
L 675.576222 552.642729 
L 680.292074 558.936768 
L 685.007926 557.958853 
L 689.723778 559.257126 
L 694.43963 557.098181 
L 699.155482 596.565029 
L 703.871334 592.541668 
L 708.587186 587.879841 
L 713.303038 523.054611 
L 718.01889 595.065807 
L 722.734742 591.11873 
L 727.450594 594.942699 
L 732.166446 592.551905 
L 736.882298 593.247587 
L 741.59815 566.829507 
L 746.314002 595.527503 
L 751.029854 492.875223 
L 755.745706 582.31704 
L 760.461558 511.710018 
L 765.17741 553.690537 
L 769.893262 593.74548 
L 774.609114 594.487312 
L 779.324966 552.692221 
L 784.040818 586.634583 
L 788.75667 525.858014 
L 793.472522 544.02248 
L 798.188374 548.762199 
L 802.904226 592.076305 
L 807.620078 593.657234 
L 812.33593 590.826401 
L 817.051782 584.440132 
L 821.767634 595.459909 
L 826.483486 594.271914 
L 831.199338 555.949223 
L 835.91519 526.543898 
L 840.631042 524.971593 
L 845.346894 536.233094 
L 850.062746 522.047249 
L 854.778598 552.159321 
L 859.49445 553.34486 
L 864.210302 551.368179 
L 868.926153 595.772649 
L 873.642005 556.427302 
L 878.357857 594.048973 
L 883.073709 595.570904 
L 887.789561 594.218527 
L 892.505413 594.779816 
L 897.221265 596.922081 
L 901.937117 595.040011 
L 906.652969 554.88194 
L 911.368821 596.264117 
L 916.084673 595.55546 
L 920.800525 556.056541 
L 925.516377 596.567972 
L 930.232229 528.997068 
L 934.948081 597.639449 
L 939.663933 555.987829 
L 944.379785 547.728048 
L 949.095637 552.087966 
L 953.811489 595.014635 
L 958.527341 575.193137 
L 963.243193 514.260325 
L 967.959045 516.378797 
L 972.674897 518.629525 
L 977.390749 500.349211 
L 982.106601 555.098892 
L 986.822453 594.773585 
L 991.538305 595.749665 
L 996.254157 593.229502 
L 1000.970009 526.174875 
L 1005.685861 547.615173 
L 1010.401713 516.873016 
L 1015.117565 532.481343 
L 1019.833417 594.889496 
L 1024.549269 596.058805 
L 1029.265121 587.404402 
L 1033.980973 561.153419 
L 1038.696825 508.315432 
L 1043.412677 591.20143 
L 1048.128529 550.976782 
L 1052.844381 593.355758 
L 1057.560233 551.093904 
L 1062.276085 550.884717 
L 1066.991937 551.469484 
L 1071.707789 593.742179 
L 1076.423641 595.829503 
L 1081.139493 554.166771 
L 1085.855345 554.055003 
L 1090.571197 531.195384 
L 1095.287049 594.797257 
L 1100.002901 592.093847 
L 1104.718753 593.984503 
L 1109.434605 594.312071 
L 1114.150457 553.867244 
L 1118.866309 596.663355 
L 1123.582161 592.591606 
L 1128.298013 594.142823 
L 1133.013865 559.633678 
L 1137.729717 548.040983 
L 1142.445569 557.768684 
L 1147.161421 595.832432 
L 1151.877273 555.730889 
L 1151.877273 555.730889 
" style="fill:none;stroke:#ff0000;stroke-linecap:square;stroke-width:1.5;"/>
   </g>
   <g id="patch_3">
    <path d="M 166.5 661.5 
L 166.5 90.72 
" style="fill:none;stroke:#000000;stroke-linecap:square;stroke-linejoin:miter;stroke-width:0.8;"/>
   </g>
   <g id="patch_4">
    <path d="M 1198.8 661.5 
L 1198.8 90.72 
" style="fill:none;stroke:#000000;stroke-linecap:square;stroke-linejoin:miter;stroke-width:0.8;"/>
   </g>
   <g id="patch_5">
    <path d="M 166.5 661.5 
L 1198.8 661.5 
" style="fill:none;stroke:#000000;stroke-linecap:square;stroke-linejoin:miter;stroke-width:0.8;"/>
   </g>
   <g id="patch_6">
    <path d="M 166.5 90.72 
L 1198.8 90.72 
" style="fill:none;stroke:#000000;stroke-linecap:square;stroke-linejoin:miter;stroke-width:0.8;"/>
   </g>
  </g>
 </g>
 <defs>
  <clipPath id="p426007bce6">
   <rect height="570.78" width="1032.3" x="166.5" y="90.72"/>
  </clipPath>
 </defs>
</svg>
