<?xml version="1.0" encoding="utf-8" standalone="no"?>
<!DOCTYPE svg PUBLIC "-//W3C//DTD SVG 1.1//EN"
  "http://www.w3.org/Graphics/SVG/1.1/DTD/svg11.dtd">
<!-- Created with matplotlib (http://matplotlib.org/) -->
<svg height="756pt" version="1.1" viewBox="0 0 1332 756" width="1332pt" xmlns="http://www.w3.org/2000/svg" xmlns:xlink="http://www.w3.org/1999/xlink">
 <defs>
  <style type="text/css">
*{stroke-linecap:butt;stroke-linejoin:round;}
  </style>
 </defs>
 <g id="figure_1">
  <g id="patch_1">
   <path d="M 0 756 
L 1332 756 
L 1332 0 
L 0 0 
z
" style="fill:#ffffff;"/>
  </g>
  <g id="axes_1">
   <g id="patch_2">
    <path d="M 166.5 661.5 
L 1198.8 661.5 
L 1198.8 90.72 
L 166.5 90.72 
z
" style="fill:#ffffff;"/>
   </g>
   <g id="matplotlib.axis_1">
    <g id="xtick_1">
     <g id="line2d_1">
      <defs>
       <path d="M 0 0 
L 0 3.5 
" id="m7af73ceb7c" style="stroke:#000000;stroke-width:0.8;"/>
      </defs>
      <g>
       <use style="stroke:#000000;stroke-width:0.8;" x="213.422727" xlink:href="#m7af73ceb7c" y="661.5"/>
      </g>
     </g>
     <g id="text_1">
      <!-- 0 -->
      <defs>
       <path d="M 31.78125 66.40625 
Q 24.171875 66.40625 20.328125 58.90625 
Q 16.5 51.421875 16.5 36.375 
Q 16.5 21.390625 20.328125 13.890625 
Q 24.171875 6.390625 31.78125 6.390625 
Q 39.453125 6.390625 43.28125 13.890625 
Q 47.125 21.390625 47.125 36.375 
Q 47.125 51.421875 43.28125 58.90625 
Q 39.453125 66.40625 31.78125 66.40625 
z
M 31.78125 74.21875 
Q 44.046875 74.21875 50.515625 64.515625 
Q 56.984375 54.828125 56.984375 36.375 
Q 56.984375 17.96875 50.515625 8.265625 
Q 44.046875 -1.421875 31.78125 -1.421875 
Q 19.53125 -1.421875 13.0625 8.265625 
Q 6.59375 17.96875 6.59375 36.375 
Q 6.59375 54.828125 13.0625 64.515625 
Q 19.53125 74.21875 31.78125 74.21875 
z
" id="DejaVuSans-30"/>
      </defs>
      <g transform="translate(207.060227 683.696875)scale(0.2 -0.2)">
       <use xlink:href="#DejaVuSans-30"/>
      </g>
     </g>
    </g>
    <g id="xtick_2">
     <g id="line2d_2">
      <g>
       <use style="stroke:#000000;stroke-width:0.8;" x="331.319027" xlink:href="#m7af73ceb7c" y="661.5"/>
      </g>
     </g>
     <g id="text_2">
      <!-- 25 -->
      <defs>
       <path d="M 19.1875 8.296875 
L 53.609375 8.296875 
L 53.609375 0 
L 7.328125 0 
L 7.328125 8.296875 
Q 12.9375 14.109375 22.625 23.890625 
Q 32.328125 33.6875 34.8125 36.53125 
Q 39.546875 41.84375 41.421875 45.53125 
Q 43.3125 49.21875 43.3125 52.78125 
Q 43.3125 58.59375 39.234375 62.25 
Q 35.15625 65.921875 28.609375 65.921875 
Q 23.96875 65.921875 18.8125 64.3125 
Q 13.671875 62.703125 7.8125 59.421875 
L 7.8125 69.390625 
Q 13.765625 71.78125 18.9375 73 
Q 24.125 74.21875 28.421875 74.21875 
Q 39.75 74.21875 46.484375 68.546875 
Q 53.21875 62.890625 53.21875 53.421875 
Q 53.21875 48.921875 51.53125 44.890625 
Q 49.859375 40.875 45.40625 35.40625 
Q 44.1875 33.984375 37.640625 27.21875 
Q 31.109375 20.453125 19.1875 8.296875 
z
" id="DejaVuSans-32"/>
       <path d="M 10.796875 72.90625 
L 49.515625 72.90625 
L 49.515625 64.59375 
L 19.828125 64.59375 
L 19.828125 46.734375 
Q 21.96875 47.46875 24.109375 47.828125 
Q 26.265625 48.1875 28.421875 48.1875 
Q 40.625 48.1875 47.75 41.5 
Q 54.890625 34.8125 54.890625 23.390625 
Q 54.890625 11.625 47.5625 5.09375 
Q 40.234375 -1.421875 26.90625 -1.421875 
Q 22.3125 -1.421875 17.546875 -0.640625 
Q 12.796875 0.140625 7.71875 1.703125 
L 7.71875 11.625 
Q 12.109375 9.234375 16.796875 8.0625 
Q 21.484375 6.890625 26.703125 6.890625 
Q 35.15625 6.890625 40.078125 11.328125 
Q 45.015625 15.765625 45.015625 23.390625 
Q 45.015625 31 40.078125 35.4375 
Q 35.15625 39.890625 26.703125 39.890625 
Q 22.75 39.890625 18.8125 39.015625 
Q 14.890625 38.140625 10.796875 36.28125 
z
" id="DejaVuSans-35"/>
      </defs>
      <g transform="translate(318.594027 683.696875)scale(0.2 -0.2)">
       <use xlink:href="#DejaVuSans-32"/>
       <use x="63.623047" xlink:href="#DejaVuSans-35"/>
      </g>
     </g>
    </g>
    <g id="xtick_3">
     <g id="line2d_3">
      <g>
       <use style="stroke:#000000;stroke-width:0.8;" x="449.215327" xlink:href="#m7af73ceb7c" y="661.5"/>
      </g>
     </g>
     <g id="text_3">
      <!-- 50 -->
      <g transform="translate(436.490327 683.696875)scale(0.2 -0.2)">
       <use xlink:href="#DejaVuSans-35"/>
       <use x="63.623047" xlink:href="#DejaVuSans-30"/>
      </g>
     </g>
    </g>
    <g id="xtick_4">
     <g id="line2d_4">
      <g>
       <use style="stroke:#000000;stroke-width:0.8;" x="567.111626" xlink:href="#m7af73ceb7c" y="661.5"/>
      </g>
     </g>
     <g id="text_4">
      <!-- 75 -->
      <defs>
       <path d="M 8.203125 72.90625 
L 55.078125 72.90625 
L 55.078125 68.703125 
L 28.609375 0 
L 18.3125 0 
L 43.21875 64.59375 
L 8.203125 64.59375 
z
" id="DejaVuSans-37"/>
      </defs>
      <g transform="translate(554.386626 683.696875)scale(0.2 -0.2)">
       <use xlink:href="#DejaVuSans-37"/>
       <use x="63.623047" xlink:href="#DejaVuSans-35"/>
      </g>
     </g>
    </g>
    <g id="xtick_5">
     <g id="line2d_5">
      <g>
       <use style="stroke:#000000;stroke-width:0.8;" x="685.007926" xlink:href="#m7af73ceb7c" y="661.5"/>
      </g>
     </g>
     <g id="text_5">
      <!-- 100 -->
      <defs>
       <path d="M 12.40625 8.296875 
L 28.515625 8.296875 
L 28.515625 63.921875 
L 10.984375 60.40625 
L 10.984375 69.390625 
L 28.421875 72.90625 
L 38.28125 72.90625 
L 38.28125 8.296875 
L 54.390625 8.296875 
L 54.390625 0 
L 12.40625 0 
z
" id="DejaVuSans-31"/>
      </defs>
      <g transform="translate(665.920426 683.696875)scale(0.2 -0.2)">
       <use xlink:href="#DejaVuSans-31"/>
       <use x="63.623047" xlink:href="#DejaVuSans-30"/>
       <use x="127.246094" xlink:href="#DejaVuSans-30"/>
      </g>
     </g>
    </g>
    <g id="xtick_6">
     <g id="line2d_6">
      <g>
       <use style="stroke:#000000;stroke-width:0.8;" x="802.904226" xlink:href="#m7af73ceb7c" y="661.5"/>
      </g>
     </g>
     <g id="text_6">
      <!-- 125 -->
      <g transform="translate(783.816726 683.696875)scale(0.2 -0.2)">
       <use xlink:href="#DejaVuSans-31"/>
       <use x="63.623047" xlink:href="#DejaVuSans-32"/>
       <use x="127.246094" xlink:href="#DejaVuSans-35"/>
      </g>
     </g>
    </g>
    <g id="xtick_7">
     <g id="line2d_7">
      <g>
       <use style="stroke:#000000;stroke-width:0.8;" x="920.800525" xlink:href="#m7af73ceb7c" y="661.5"/>
      </g>
     </g>
     <g id="text_7">
      <!-- 150 -->
      <g transform="translate(901.713025 683.696875)scale(0.2 -0.2)">
       <use xlink:href="#DejaVuSans-31"/>
       <use x="63.623047" xlink:href="#DejaVuSans-35"/>
       <use x="127.246094" xlink:href="#DejaVuSans-30"/>
      </g>
     </g>
    </g>
    <g id="xtick_8">
     <g id="line2d_8">
      <g>
       <use style="stroke:#000000;stroke-width:0.8;" x="1038.696825" xlink:href="#m7af73ceb7c" y="661.5"/>
      </g>
     </g>
     <g id="text_8">
      <!-- 175 -->
      <g transform="translate(1019.609325 683.696875)scale(0.2 -0.2)">
       <use xlink:href="#DejaVuSans-31"/>
       <use x="63.623047" xlink:href="#DejaVuSans-37"/>
       <use x="127.246094" xlink:href="#DejaVuSans-35"/>
      </g>
     </g>
    </g>
    <g id="xtick_9">
     <g id="line2d_9">
      <g>
       <use style="stroke:#000000;stroke-width:0.8;" x="1156.593125" xlink:href="#m7af73ceb7c" y="661.5"/>
      </g>
     </g>
     <g id="text_9">
      <!-- 200 -->
      <g transform="translate(1137.505625 683.696875)scale(0.2 -0.2)">
       <use xlink:href="#DejaVuSans-32"/>
       <use x="63.623047" xlink:href="#DejaVuSans-30"/>
       <use x="127.246094" xlink:href="#DejaVuSans-30"/>
      </g>
     </g>
    </g>
   </g>
   <g id="matplotlib.axis_2">
    <g id="ytick_1">
     <g id="line2d_10">
      <defs>
       <path d="M 0 0 
L -3.5 0 
" id="ma941b162eb" style="stroke:#000000;stroke-width:0.8;"/>
      </defs>
      <g>
       <use style="stroke:#000000;stroke-width:0.8;" x="166.5" xlink:href="#ma941b162eb" y="571.106376"/>
      </g>
     </g>
     <g id="text_10">
      <!-- 200 -->
      <g transform="translate(121.325 578.704814)scale(0.2 -0.2)">
       <use xlink:href="#DejaVuSans-32"/>
       <use x="63.623047" xlink:href="#DejaVuSans-30"/>
       <use x="127.246094" xlink:href="#DejaVuSans-30"/>
      </g>
     </g>
    </g>
    <g id="ytick_2">
     <g id="line2d_11">
      <g>
       <use style="stroke:#000000;stroke-width:0.8;" x="166.5" xlink:href="#ma941b162eb" y="448.848184"/>
      </g>
     </g>
     <g id="text_11">
      <!-- 400 -->
      <defs>
       <path d="M 37.796875 64.3125 
L 12.890625 25.390625 
L 37.796875 25.390625 
z
M 35.203125 72.90625 
L 47.609375 72.90625 
L 47.609375 25.390625 
L 58.015625 25.390625 
L 58.015625 17.1875 
L 47.609375 17.1875 
L 47.609375 0 
L 37.796875 0 
L 37.796875 17.1875 
L 4.890625 17.1875 
L 4.890625 26.703125 
z
" id="DejaVuSans-34"/>
      </defs>
      <g transform="translate(121.325 456.446621)scale(0.2 -0.2)">
       <use xlink:href="#DejaVuSans-34"/>
       <use x="63.623047" xlink:href="#DejaVuSans-30"/>
       <use x="127.246094" xlink:href="#DejaVuSans-30"/>
      </g>
     </g>
    </g>
    <g id="ytick_3">
     <g id="line2d_12">
      <g>
       <use style="stroke:#000000;stroke-width:0.8;" x="166.5" xlink:href="#ma941b162eb" y="326.589992"/>
      </g>
     </g>
     <g id="text_12">
      <!-- 600 -->
      <defs>
       <path d="M 33.015625 40.375 
Q 26.375 40.375 22.484375 35.828125 
Q 18.609375 31.296875 18.609375 23.390625 
Q 18.609375 15.53125 22.484375 10.953125 
Q 26.375 6.390625 33.015625 6.390625 
Q 39.65625 6.390625 43.53125 10.953125 
Q 47.40625 15.53125 47.40625 23.390625 
Q 47.40625 31.296875 43.53125 35.828125 
Q 39.65625 40.375 33.015625 40.375 
z
M 52.59375 71.296875 
L 52.59375 62.3125 
Q 48.875 64.0625 45.09375 64.984375 
Q 41.3125 65.921875 37.59375 65.921875 
Q 27.828125 65.921875 22.671875 59.328125 
Q 17.53125 52.734375 16.796875 39.40625 
Q 19.671875 43.65625 24.015625 45.921875 
Q 28.375 48.1875 33.59375 48.1875 
Q 44.578125 48.1875 50.953125 41.515625 
Q 57.328125 34.859375 57.328125 23.390625 
Q 57.328125 12.15625 50.6875 5.359375 
Q 44.046875 -1.421875 33.015625 -1.421875 
Q 20.359375 -1.421875 13.671875 8.265625 
Q 6.984375 17.96875 6.984375 36.375 
Q 6.984375 53.65625 15.1875 63.9375 
Q 23.390625 74.21875 37.203125 74.21875 
Q 40.921875 74.21875 44.703125 73.484375 
Q 48.484375 72.75 52.59375 71.296875 
z
" id="DejaVuSans-36"/>
      </defs>
      <g transform="translate(121.325 334.188429)scale(0.2 -0.2)">
       <use xlink:href="#DejaVuSans-36"/>
       <use x="63.623047" xlink:href="#DejaVuSans-30"/>
       <use x="127.246094" xlink:href="#DejaVuSans-30"/>
      </g>
     </g>
    </g>
    <g id="ytick_4">
     <g id="line2d_13">
      <g>
       <use style="stroke:#000000;stroke-width:0.8;" x="166.5" xlink:href="#ma941b162eb" y="204.331799"/>
      </g>
     </g>
     <g id="text_13">
      <!-- 800 -->
      <defs>
       <path d="M 31.78125 34.625 
Q 24.75 34.625 20.71875 30.859375 
Q 16.703125 27.09375 16.703125 20.515625 
Q 16.703125 13.921875 20.71875 10.15625 
Q 24.75 6.390625 31.78125 6.390625 
Q 38.8125 6.390625 42.859375 10.171875 
Q 46.921875 13.96875 46.921875 20.515625 
Q 46.921875 27.09375 42.890625 30.859375 
Q 38.875 34.625 31.78125 34.625 
z
M 21.921875 38.8125 
Q 15.578125 40.375 12.03125 44.71875 
Q 8.5 49.078125 8.5 55.328125 
Q 8.5 64.0625 14.71875 69.140625 
Q 20.953125 74.21875 31.78125 74.21875 
Q 42.671875 74.21875 48.875 69.140625 
Q 55.078125 64.0625 55.078125 55.328125 
Q 55.078125 49.078125 51.53125 44.71875 
Q 48 40.375 41.703125 38.8125 
Q 48.828125 37.15625 52.796875 32.3125 
Q 56.78125 27.484375 56.78125 20.515625 
Q 56.78125 9.90625 50.3125 4.234375 
Q 43.84375 -1.421875 31.78125 -1.421875 
Q 19.734375 -1.421875 13.25 4.234375 
Q 6.78125 9.90625 6.78125 20.515625 
Q 6.78125 27.484375 10.78125 32.3125 
Q 14.796875 37.15625 21.921875 38.8125 
z
M 18.3125 54.390625 
Q 18.3125 48.734375 21.84375 45.5625 
Q 25.390625 42.390625 31.78125 42.390625 
Q 38.140625 42.390625 41.71875 45.5625 
Q 45.3125 48.734375 45.3125 54.390625 
Q 45.3125 60.0625 41.71875 63.234375 
Q 38.140625 66.40625 31.78125 66.40625 
Q 25.390625 66.40625 21.84375 63.234375 
Q 18.3125 60.0625 18.3125 54.390625 
z
" id="DejaVuSans-38"/>
      </defs>
      <g transform="translate(121.325 211.930237)scale(0.2 -0.2)">
       <use xlink:href="#DejaVuSans-38"/>
       <use x="63.623047" xlink:href="#DejaVuSans-30"/>
       <use x="127.246094" xlink:href="#DejaVuSans-30"/>
      </g>
     </g>
    </g>
   </g>
   <g id="line2d_14">
    <path clip-path="url(#pd35f9389c0)" d="M 213.422727 606.039637 
L 218.138579 608.435898 
L 222.854431 606.947038 
L 227.570283 425.879965 
L 232.286135 584.696047 
L 237.001987 554.126058 
L 241.717839 536.85232 
L 246.433691 496.920105 
L 251.149543 553.957647 
L 255.865395 536.330706 
L 260.581247 538.77587 
L 265.297099 479.445314 
L 270.012951 581.897679 
L 274.728803 563.98826 
L 279.444655 513.503756 
L 284.160507 518.714645 
L 288.876359 556.375609 
L 293.592211 494.572748 
L 298.308063 495.692083 
L 303.023915 518.258255 
L 307.739767 471.072034 
L 312.455619 552.338399 
L 317.171471 454.678555 
L 321.887323 444.957684 
L 326.603175 459.047207 
L 331.319027 458.878796 
L 336.034879 566.406221 
L 340.750731 494.186962 
L 345.466583 487.682826 
L 350.182435 541.813313 
L 354.898287 529.239731 
L 359.614139 484.819234 
L 364.329991 517.171502 
L 369.045843 558.266576 
L 373.761695 338.582175 
L 378.477547 530.27758 
L 383.193399 512.014896 
L 387.909251 558.000298 
L 392.625103 520.844688 
L 397.340955 502.087531 
L 402.056807 506.559491 
L 406.772659 489.823689 
L 411.488511 452.189928 
L 416.204363 539.400731 
L 420.920215 528.201881 
L 425.636067 480.271229 
L 430.351919 537.390256 
L 435.067771 374.488062 
L 439.783623 299.378008 
L 444.499475 507.282159 
L 449.215327 522.170517 
L 453.931179 516.470535 
L 458.647031 567.791834 
L 463.362883 548.377233 
L 468.078735 584.076625 
L 472.794587 603.464024 
L 477.510439 510.113109 
L 482.226291 534.716898 
L 486.942143 570.986808 
L 491.657995 498.577376 
L 496.373847 547.274159 
L 501.089698 574.551367 
L 505.80555 581.419527 
L 510.521402 544.062864 
L 515.237254 560.86927 
L 519.953106 608.908609 
L 524.668958 547.969686 
L 529.38481 545.160498 
L 534.100662 527.723729 
L 538.816514 585.945831 
L 543.532366 489.508569 
L 548.248218 497.115718 
L 552.96407 588.602868 
L 557.679922 543.356456 
L 562.395774 576.110832 
L 567.111626 534.059454 
L 576.54333 618.895759 
L 581.259182 569.949019 
L 585.975034 572.421324 
L 590.690886 566.23781 
L 595.406738 556.332146 
L 600.12259 535.075542 
L 604.838442 555.908338 
L 609.554294 575.947801 
L 614.270146 580.57729 
L 618.985998 577.050814 
L 623.70185 476.288363 
L 628.417702 397.054173 
L 633.133554 571.568268 
L 637.849406 543.291293 
L 642.565258 563.836109 
L 647.28111 619.944428 
L 651.996962 547.312242 
L 656.712814 536.732813 
L 661.428666 512.357219 
L 666.144518 609.038997 
L 670.86037 561.331161 
L 675.576222 546.600394 
L 680.292074 556.8375 
L 685.007926 555.864875 
L 689.723778 556.343027 
L 694.43963 585.299207 
L 699.155482 531.190421 
L 703.871334 512.324637 
L 708.587186 557.755782 
L 713.303038 379.459874 
L 718.01889 516.198877 
L 722.734742 569.536031 
L 727.450594 477.277309 
L 732.166446 329.790467 
L 736.882298 532.315197 
L 741.59815 520.556709 
L 746.314002 507.575579 
L 751.029854 540.72112 
L 755.745706 443.235188 
L 760.461558 359.143253 
L 765.17741 392.625737 
L 769.893262 351.546984 
L 774.609114 545.567985 
L 779.324966 506.651857 
L 784.040818 421.848135 
L 788.75667 530.163452 
L 793.472522 551.197302 
L 798.188374 410.687306 
L 802.904226 545.93751 
L 807.620078 572.948379 
L 812.33593 558.282837 
L 817.051782 590.086288 
L 821.767634 553.609884 
L 826.483486 546.285273 
L 831.199338 486.465685 
L 835.91519 477.679355 
L 840.631042 488.280547 
L 845.346894 586.331617 
L 850.062746 560.092258 
L 854.778598 540.862389 
L 859.49445 539.411612 
L 864.210302 549.697622 
L 868.926153 489.660658 
L 873.642005 573.573302 
L 878.357857 524.126648 
L 883.073709 585.918629 
L 887.789561 587.266219 
L 892.505413 558.538234 
L 897.221265 535.173349 
L 901.937117 602.757677 
L 906.652969 535.852554 
L 911.368821 521.235915 
L 916.084673 582.95185 
L 920.800525 565.433596 
L 925.516377 528.468159 
L 930.232229 582.886625 
L 934.948081 547.681706 
L 939.663933 468.338829 
L 944.379785 560.059676 
L 949.095637 549.273753 
L 953.811489 579.300365 
L 958.527341 552.843692 
L 963.243193 603.480345 
L 967.959045 435.64974 
L 972.674897 536.890404 
L 977.390749 490.807195 
L 982.106601 513.340725 
L 986.822453 635.555455 
L 991.538305 538.357502 
L 996.254157 557.609072 
L 1000.970009 562.314667 
L 1005.685861 597.742341 
L 1010.401713 501.32684 
L 1015.117565 445.370611 
L 1019.833417 561.456109 
L 1024.549269 299.046566 
L 1029.265121 466.382698 
L 1033.980973 525.707814 
L 1038.696825 551.746119 
L 1043.412677 512.199689 
L 1048.128529 567.177792 
L 1052.844381 494.328231 
L 1057.560233 528.218202 
L 1062.276085 538.917139 
L 1066.991937 556.424512 
L 1071.707789 518.578816 
L 1076.423641 589.401642 
L 1081.139493 456.308623 
L 1085.855345 439.317485 
L 1090.571197 484.688845 
L 1095.287049 528.701795 
L 1100.002901 553.294702 
L 1104.718753 116.664545 
L 1109.434605 321.167168 
L 1114.150457 534.16264 
L 1118.866309 546.567812 
L 1123.582161 575.05122 
L 1128.298013 569.726203 
L 1133.013865 532.06524 
L 1137.729717 570.486955 
L 1142.445569 554.490143 
L 1147.161421 503.538369 
L 1151.877273 599.758256 
L 1151.877273 599.758256 
" style="fill:none;stroke:#1f77b4;stroke-linecap:square;stroke-width:1.5;"/>
   </g>
   <g id="line2d_15">
    <path clip-path="url(#pd35f9389c0)" d="M 213.422727 555.222922 
L 218.138579 556.419937 
L 222.854431 555.676587 
L 227.570283 455.990203 
L 232.286135 544.419519 
L 237.001987 528.501515 
L 241.717839 519.2746 
L 246.433691 497.300399 
L 251.149543 528.412381 
L 255.865395 518.993337 
L 260.581247 520.310388 
L 265.297099 487.401432 
L 270.012951 542.984194 
L 274.728803 533.694205 
L 279.444655 506.535354 
L 284.160507 509.405127 
L 288.876359 529.690779 
L 293.592211 495.980698 
L 298.308063 496.610383 
L 303.023915 509.154403 
L 307.739767 482.59731 
L 312.455619 527.554432 
L 317.171471 473.07764 
L 321.887323 467.361581 
L 326.603175 475.629231 
L 331.319027 475.531068 
L 336.034879 534.958948 
L 340.750731 495.763497 
L 345.466583 492.089184 
L 350.182435 521.94176 
L 354.898287 515.154859 
L 359.614139 490.463913 
L 364.329991 508.556879 
L 369.045843 530.688287 
L 373.761695 401.402189 
L 378.477547 515.718412 
L 383.193399 505.71257 
L 387.909251 530.547926 
L 392.625103 510.573796 
L 397.340955 500.194591 
L 402.056807 502.687158 
L 406.772659 493.301207 
L 411.488511 471.619295 
L 416.204363 520.646404 
L 420.920215 514.590654 
L 425.636067 487.873146 
L 430.351919 519.564463 
L 435.067771 424.356269 
L 439.783623 375.56024 
L 444.499475 503.088914 
L 449.215327 511.299909 
L 453.931179 508.17111 
L 458.647031 535.682244 
L 463.362883 525.449389 
L 468.078735 544.102186 
L 472.794587 553.932734 
L 477.510439 504.659806 
L 482.226291 518.122236 
L 486.942143 537.345917 
L 491.657995 498.230282 
L 496.373847 524.861622 
L 501.089698 539.195292 
L 505.80555 542.738515 
L 510.521402 523.146601 
L 515.237254 532.05789 
L 519.953106 556.655719 
L 524.668958 525.232299 
L 529.38481 523.733453 
L 534.100662 514.330545 
L 538.816514 545.059137 
L 543.532366 493.122995 
L 548.248218 497.410221 
L 552.96407 546.416055 
L 557.679922 522.768573 
L 562.395774 540.002107 
L 567.111626 517.76693 
L 571.827478 540.417641 
L 576.54333 561.607721 
L 581.259182 536.806159 
L 585.975034 538.09104 
L 590.690886 534.87097 
L 595.406738 529.667833 
L 600.12259 518.315951 
L 604.838442 529.443991 
L 609.554294 539.917824 
L 614.270146 542.305436 
L 618.985998 540.487775 
L 623.70185 485.594777 
L 628.417702 438.425401 
L 633.133554 537.648093 
L 637.849406 522.733669 
L 642.565258 533.614511 
L 647.28111 562.124477 
L 651.996962 524.881918 
L 656.712814 519.210146 
L 661.428666 505.901864 
L 666.144518 556.720732 
L 670.86037 532.300574 
L 675.576222 524.502268 
L 680.292074 529.93462 
L 685.007926 529.421026 
L 689.723778 529.673579 
L 694.43963 544.728307 
L 699.155482 516.213612 
L 703.871334 505.883862 
L 708.587186 530.419038 
L 713.303038 427.479864 
L 718.01889 508.021533 
L 722.734742 536.591215 
L 727.450594 486.161352 
L 732.166446 395.677026 
L 736.882298 516.823131 
L 741.59815 510.415955 
L 746.314002 503.251923 
L 751.029854 521.355765 
L 755.745706 466.343235 
L 760.461558 414.631299 
L 765.17741 435.686381 
L 769.893262 409.770148 
L 774.609114 523.95114 
L 779.324966 502.738497 
L 784.040818 453.561083 
L 788.75667 515.656477 
L 793.472522 526.948924 
L 798.188374 446.789853 
L 802.904226 524.148492 
L 807.620078 538.364496 
L 812.33593 530.69685 
L 817.051782 547.171904 
L 821.767634 528.228236 
L 826.483486 524.334129 
L 831.199338 491.398963 
L 835.91519 486.391519 
L 840.631042 492.427831 
L 845.346894 545.256378 
L 850.062746 531.649399 
L 854.778598 521.431579 
L 859.49445 520.652262 
L 864.210302 526.152071 
L 868.926153 493.209014 
L 873.642005 538.688535 
L 878.357857 512.369445 
L 883.073709 545.04523 
L 887.789561 545.73393 
L 892.505413 530.831409 
L 897.221265 518.368801 
L 901.937117 553.57824 
L 906.652969 518.73543 
L 911.368821 510.788162 
L 916.084673 543.525407 
L 920.800525 534.450596 
L 925.516377 514.735473 
L 930.232229 543.49193 
L 934.948081 525.078861 
L 939.663933 481.020617 
L 944.379785 531.632273 
L 949.095637 525.926586 
L 953.811489 541.648067 
L 958.527341 527.822301 
L 963.243193 553.940924 
L 967.959045 461.8389 
L 972.674897 519.295102 
L 977.390749 493.857167 
L 982.106601 506.445306 
L 986.822453 569.745177 
L 991.538305 520.085277 
L 996.254157 530.341656 
L 1000.970009 532.816874 
L 1005.685861 551.053344 
L 1010.401713 499.769497 
L 1015.117565 467.605478 
L 1019.833417 532.366185 
L 1024.549269 375.338319 
L 1029.265121 479.889613 
L 1033.980973 513.232375 
L 1038.696825 527.240261 
L 1043.412677 505.814782 
L 1048.128529 535.36188 
L 1052.844381 495.843042 
L 1057.560233 514.599552 
L 1062.276085 520.38637 
L 1066.991937 529.716617 
L 1071.707789 509.330526 
L 1076.423641 546.823212 
L 1081.139493 474.030954 
L 1085.855345 464.02084 
L 1090.571197 490.389815 
L 1095.287049 514.862496 
L 1100.002901 528.06131 
L 1104.718753 245.30027 
L 1109.434605 390.02195 
L 1114.150457 517.822709 
L 1118.866309 524.4849 
L 1123.582161 539.454048 
L 1128.298013 536.690199 
L 1133.013865 516.687769 
L 1137.729717 537.086023 
L 1142.445569 528.694204 
L 1147.161421 501.004503 
L 1151.877273 552.069908 
L 1151.877273 552.069908 
" style="fill:none;stroke:#ff0000;stroke-linecap:square;stroke-width:1.5;"/>
   </g>
   <g id="line2d_16">
    <path clip-path="url(#pd35f9389c0)" d="M 213.422727 546.012946 
L 218.138579 546.997134 
L 222.854431 546.385927 
L 227.570283 464.760814 
L 232.286135 537.135375 
L 237.001987 524.070495 
L 241.717839 516.50549 
L 246.433691 498.511452 
L 251.149543 523.997405 
L 255.865395 516.274969 
L 260.581247 517.35441 
L 265.297099 490.415223 
L 270.012951 535.956568 
L 274.728803 528.330485 
L 279.444655 506.069984 
L 284.160507 508.419876 
L 288.876359 525.04599 
L 293.592211 497.431749 
L 298.308063 497.94691 
L 303.023915 508.214558 
L 307.739767 486.488041 
L 312.455619 523.293733 
L 317.171471 478.709919 
L 321.887323 474.041998 
L 326.603175 480.794255 
L 331.319027 480.714038 
L 336.034879 529.368344 
L 340.750731 497.254041 
L 345.466583 494.248552 
L 350.182435 518.691646 
L 354.898287 513.129585 
L 359.614139 492.919374 
L 364.329991 507.725234 
L 369.045843 525.864241 
L 373.761695 420.292811 
L 378.477547 513.591355 
L 383.193399 505.396366 
L 387.909251 525.74912 
L 392.625103 509.376958 
L 397.340955 500.879738 
L 402.056807 502.919731 
L 406.772659 495.239885 
L 411.488511 477.518846 
L 416.204363 517.629853 
L 420.920215 512.667367 
L 425.636067 490.800899 
L 430.351919 516.743063 
L 435.067771 438.975167 
L 439.783623 399.284889 
L 444.499475 503.248546 
L 449.215327 509.971702 
L 453.931179 507.409365 
L 458.647031 529.96195 
L 463.362883 521.567463 
L 468.078735 536.874745 
L 472.794587 544.952271 
L 477.510439 504.534462 
L 482.226291 515.561074 
L 486.942143 531.327412 
L 491.657995 499.272282 
L 496.373847 521.085527 
L 501.089698 532.845546 
L 505.80555 535.754812 
L 510.521402 519.679379 
L 515.237254 526.987876 
L 519.953106 547.190998 
L 524.668958 521.389475 
L 529.38481 520.160532 
L 534.100662 512.454251 
L 538.816514 537.660731 
L 543.532366 495.094095 
L 548.248218 498.601332 
L 552.96407 538.775356 
L 557.679922 519.369461 
L 562.395774 533.507915 
L 567.111626 515.269943 
L 571.827478 533.84908 
L 576.54333 551.263783 
L 581.259182 530.884371 
L 585.975034 531.939038 
L 590.690886 529.29613 
L 595.406738 525.027149 
L 600.12259 515.71983 
L 604.838442 524.843545 
L 609.554294 533.438723 
L 614.270146 535.399171 
L 618.985998 533.906668 
L 623.70185 488.938185 
L 628.417702 450.437469 
L 633.133554 531.575469 
L 637.849406 519.340863 
L 642.565258 528.265099 
L 647.28111 551.688906 
L 651.996962 521.102167 
L 656.712814 516.452677 
L 661.428666 505.551334 
L 666.144518 547.244463 
L 670.86037 527.186964 
L 675.576222 520.790869 
L 680.292074 525.246029 
L 685.007926 524.824722 
L 689.723778 525.031887 
L 694.43963 537.38901 
L 699.155482 513.997085 
L 703.871334 505.536597 
L 708.587186 525.643364 
L 713.303038 441.519184 
L 718.01889 507.286876 
L 722.734742 530.70795 
L 727.450594 489.401355 
L 732.166446 415.636381 
L 736.882298 514.496539 
L 741.59815 509.247697 
L 746.314002 503.382024 
L 751.029854 518.211314 
L 755.745706 473.21052 
L 760.461558 431.057263 
L 765.17741 448.205235 
L 769.893262 427.100922 
L 774.609114 520.338986 
L 779.324966 502.96178 
L 784.040818 462.779081 
L 788.75667 513.540576 
L 793.472522 522.797171 
L 798.188374 457.256457 
L 802.904226 520.50082 
L 807.620078 532.163515 
L 812.33593 525.871274 
L 817.051782 539.396282 
L 821.767634 523.846373 
L 826.483486 520.652989 
L 831.199338 493.684048 
L 835.91519 489.589547 
L 840.631042 494.525543 
L 845.346894 537.82276 
L 850.062746 526.652737 
L 854.778598 518.273454 
L 859.49445 517.634666 
L 864.210302 522.143664 
L 868.926153 495.164481 
L 873.642005 532.429556 
L 878.357857 510.847747 
L 883.073709 537.649314 
L 887.789561 538.215022 
L 892.505413 525.981675 
L 897.221265 515.763109 
L 901.937117 544.660878 
L 906.652969 516.063587 
L 911.368821 509.55254 
L 916.084673 536.401044 
L 920.800525 528.951178 
L 925.516377 512.786013 
L 930.232229 536.373565 
L 934.948081 521.263646 
L 939.663933 485.199438 
L 944.379785 526.63869 
L 949.095637 521.958773 
L 953.811489 534.859367 
L 958.527341 523.513435 
L 963.243193 544.959015 
L 967.959045 469.533633 
L 972.674897 516.522279 
L 977.390749 495.694641 
L 982.106601 505.996277 
L 986.822453 557.960664 
L 991.538305 517.169929 
L 996.254157 525.5799 
L 1000.970009 527.610603 
L 1005.685861 542.58558 
L 1010.401713 500.531857 
L 1015.117565 474.241104 
L 1019.833417 527.240821 
L 1024.549269 399.104624 
L 1029.265121 484.27517 
L 1033.980973 511.554645 
L 1038.696825 523.036069 
L 1043.412677 505.480034 
L 1048.128529 529.699006 
L 1052.844381 497.319147 
L 1057.560233 512.674642 
L 1062.276085 517.416699 
L 1066.991937 525.067164 
L 1071.707789 508.35878 
L 1076.423641 539.109833 
L 1081.139493 479.488621 
L 1085.855345 471.3146 
L 1090.571197 492.858745 
L 1095.287049 512.890053 
L 1100.002901 523.709463 
L 1104.718753 293.697546 
L 1109.434605 411.038286 
L 1114.150457 515.315629 
L 1118.866309 520.776635 
L 1123.582161 533.057972 
L 1128.298013 530.789193 
L 1133.013865 514.385578 
L 1137.729717 531.11409 
L 1142.445569 524.228542 
L 1147.161421 501.542536 
L 1151.877273 543.421097 
L 1151.877273 543.421097 
" style="fill:none;stroke:#ff0000;stroke-linecap:square;stroke-width:1.5;"/>
   </g>
   <g id="line2d_17">
    <path clip-path="url(#pd35f9389c0)" d="M 213.422727 545.573244 
L 218.138579 546.421362 
L 222.854431 545.894644 
L 227.570283 475.901447 
L 232.286135 537.927304 
L 237.001987 526.689394 
L 241.717839 520.190268 
L 246.433691 504.755843 
L 251.149543 526.626564 
L 255.865395 519.992337 
L 260.581247 520.919328 
L 265.297099 497.822649 
L 270.012951 536.912624 
L 274.728803 530.351749 
L 279.444655 511.23499 
L 284.160507 513.250545 
L 288.876359 527.527886 
L 293.592211 503.83081 
L 298.308063 504.272171 
L 303.023915 513.074422 
L 307.739767 494.46219 
L 312.455619 526.021784 
L 317.171471 487.811565 
L 321.887323 483.823511 
L 326.603175 489.593073 
L 331.319027 489.524516 
L 336.034879 531.244322 
L 340.750731 503.678584 
L 345.466583 501.104439 
L 350.182435 522.067812 
L 354.898287 517.291971 
L 359.614139 499.966309 
L 364.329991 512.654681 
L 369.045843 528.231277 
L 373.761695 438.083713 
L 378.477547 517.688336 
L 383.193399 510.657315 
L 387.909251 528.132293 
L 392.625103 514.071668 
L 397.340955 506.785258 
L 402.056807 508.533859 
L 406.772659 501.953377 
L 411.488511 486.793723 
L 416.204363 521.155838 
L 420.920215 516.895233 
L 425.636067 498.15277 
L 430.351919 520.39428 
L 435.067771 453.943774 
L 439.783623 420.299788 
L 444.499475 508.815756 
L 449.215327 514.581942 
L 453.931179 512.383753 
L 458.647031 531.754838 
L 463.362883 524.538384 
L 468.078735 537.702939 
L 472.794587 544.659311 
L 477.510439 509.918274 
L 482.226291 519.379367 
L 486.942143 532.929383 
L 491.657995 505.407746 
L 496.373847 524.124297 
L 501.089698 534.235428 
L 505.80555 536.738982 
L 510.521402 522.916247 
L 515.237254 529.197295 
L 519.953106 546.588428 
L 524.668958 524.38545 
L 529.38481 523.329589 
L 534.100662 516.712319 
L 538.816514 538.37955 
L 543.532366 501.828519 
L 548.248218 504.832832 
L 552.96407 539.339151 
L 557.679922 522.650039 
L 562.395774 534.805379 
L 567.111626 519.129388 
L 571.827478 535.098936 
L 576.54333 550.099275 
L 581.259182 532.548259 
L 585.975034 533.455513 
L 590.690886 531.1822 
L 595.406738 527.511712 
L 600.12259 519.515661 
L 604.838442 527.353852 
L 609.554294 534.745813 
L 614.270146 536.43287 
L 618.985998 535.148484 
L 623.70185 496.55854 
L 628.417702 463.694898 
L 633.133554 533.142741 
L 637.849406 522.625451 
L 642.565258 530.295522 
L 647.28111 550.46582 
L 651.996962 524.138587 
L 656.712814 520.144936 
L 661.428666 510.790195 
L 666.144518 546.634516 
L 670.86037 529.368493 
L 675.576222 523.871128 
L 680.292074 527.69983 
L 685.007926 527.33766 
L 689.723778 527.515741 
L 694.43963 538.145634 
L 699.155482 518.036646 
L 703.871334 510.777585 
L 708.587186 528.041405 
L 713.303038 456.106686 
L 718.01889 512.278687 
L 722.734742 532.39648 
L 727.450594 496.954924 
L 732.166446 434.137242 
L 736.882298 518.465378 
L 741.59815 513.960745 
L 746.314002 508.930168 
L 751.029854 521.655254 
L 755.745706 483.113423 
L 760.461558 447.216924 
L 765.17741 461.794688 
L 769.893262 443.858518 
L 774.609114 523.482915 
L 779.324966 508.5699 
L 784.040818 474.2112 
L 788.75667 517.644758 
L 793.472522 525.595029 
L 798.188374 469.50317 
L 802.904226 523.621933 
L 807.620078 533.648668 
L 812.33593 528.237322 
L 817.051782 539.873798 
L 821.767634 526.496762 
L 826.483486 523.752687 
L 831.199338 500.62101 
L 835.91519 497.115974 
L 840.631042 501.341601 
L 845.346894 538.519035 
L 850.062746 528.909167 
L 854.778598 521.708589 
L 859.49445 521.159961 
L 864.210302 525.033473 
L 868.926153 501.888793 
L 873.642005 533.87751 
L 878.357857 515.333613 
L 883.073709 538.369729 
L 887.789561 538.856748 
L 892.505413 528.332201 
L 897.221265 519.552841 
L 901.937117 544.40826 
L 906.652969 519.810823 
L 911.368821 514.222308 
L 916.084673 537.295194 
L 920.800525 530.885528 
L 925.516377 516.997052 
L 930.232229 537.27153 
L 934.948081 524.277343 
L 939.663933 493.359934 
L 944.379785 528.897078 
L 949.095637 524.874624 
L 953.811489 535.96832 
L 958.527341 526.210611 
L 963.243193 544.665123 
L 967.959045 479.974102 
L 972.674897 520.204688 
L 977.390749 502.34284 
L 982.106601 511.171767 
L 986.822453 555.875609 
L 991.538305 520.760853 
L 996.254157 527.986839 
L 1000.970009 529.732735 
L 1005.685861 542.620447 
L 1010.401713 506.487094 
L 1015.117565 483.993571 
L 1019.833417 529.414795 
L 1024.549269 420.14745 
L 1029.265121 492.569404 
L 1033.980973 515.94024 
L 1038.696825 525.800347 
L 1043.412677 510.729063 
L 1048.128529 531.528682 
L 1052.844381 503.734326 
L 1057.560233 516.901482 
L 1062.276085 520.972794 
L 1066.991937 527.546093 
L 1071.707789 513.198142 
L 1076.423641 539.627149 
L 1081.139493 488.477087 
L 1085.855345 481.494513 
L 1090.571197 499.91441 
L 1095.287049 517.086392 
L 1100.002901 526.379085 
L 1104.718753 331.762907 
L 1109.434605 430.24278 
L 1114.150457 519.16862 
L 1118.866309 523.858909 
L 1123.582161 534.41821 
L 1128.298013 532.4664 
L 1133.013865 518.370162 
L 1137.729717 532.745854 
L 1142.445569 526.825222 
L 1147.161421 507.353344 
L 1151.877273 543.340152 
L 1151.877273 543.340152 
" style="fill:none;stroke:#ff0000;stroke-linecap:square;stroke-width:1.5;"/>
   </g>
   <g id="line2d_18">
    <path clip-path="url(#pd35f9389c0)" d="M 213.422727 536.789444 
L 218.138579 537.484907 
L 222.854431 537.052966 
L 227.570283 480.30135 
L 232.286135 530.528767 
L 237.001987 521.35569 
L 241.717839 516.065994 
L 246.433691 503.547289 
L 251.149543 521.304482 
L 255.865395 515.905056 
L 260.581247 516.658798 
L 265.297099 497.943291 
L 270.012951 529.699118 
L 274.728803 524.341405 
L 279.444655 508.795086 
L 284.160507 510.42976 
L 288.876359 522.038934 
L 293.592211 502.798939 
L 298.308063 503.155961 
L 303.023915 510.286862 
L 307.739767 495.231359 
L 312.455619 520.811819 
L 317.171471 489.872228 
L 321.887323 486.663734 
L 326.603175 491.306733 
L 331.319027 491.251551 
L 336.034879 525.069608 
L 340.750731 502.675797 
L 345.466583 500.594408 
L 350.182435 517.59299 
L 354.898287 513.71058 
L 359.614139 499.67471 
L 364.329991 509.946387 
L 369.045843 522.612262 
L 373.761695 450.126227 
L 378.477547 514.032549 
L 383.193399 508.326768 
L 387.909251 522.531597 
L 392.625103 511.09599 
L 397.340955 505.189891 
L 402.056807 506.606001 
L 406.772659 501.280674 
L 411.488511 489.053008 
L 416.204363 516.851169 
L 420.920215 513.388331 
L 425.636067 498.209873 
L 430.351919 516.231857 
L 435.067771 462.7422 
L 439.783623 436.044373 
L 444.499475 506.834396 
L 449.215327 511.510115 
L 453.931179 509.72663 
L 458.647031 525.486214 
L 463.362883 519.603732 
L 468.078735 530.345294 
L 472.794587 536.040254 
L 477.510439 507.727752 
L 482.226291 515.406741 
L 486.942143 526.444956 
L 491.657995 504.0748 
L 496.373847 519.266597 
L 501.089698 527.511469 
L 505.80555 529.557171 
L 510.521402 518.283341 
L 515.237254 523.399862 
L 519.953106 537.621938 
L 524.668958 519.479209 
L 529.38481 518.619731 
L 534.100662 513.239743 
L 538.816514 530.898624 
L 543.532366 501.179731 
L 548.248218 503.609597 
L 552.96407 531.683612 
L 557.679922 518.066718 
L 562.395774 527.977027 
L 567.111626 515.203549 
L 571.827478 528.216857 
L 576.54333 540.503119 
L 581.259182 526.133826 
L 585.975034 526.874546 
L 590.690886 525.018922 
L 595.406738 522.025745 
L 600.12259 515.517533 
L 604.838442 521.897099 
L 609.554294 527.928393 
L 614.270146 529.30695 
L 618.985998 528.257338 
L 623.70185 496.922838 
L 628.417702 470.526459 
L 633.133554 526.619158 
L 637.849406 518.04672 
L 642.565258 524.295532 
L 647.28111 540.804147 
L 651.996962 519.278238 
L 656.712814 516.029131 
L 661.428666 508.434502 
L 666.144518 537.659724 
L 670.86037 523.539459 
L 675.576222 519.060514 
L 680.292074 522.179053 
L 685.007926 521.883947 
L 689.723778 522.029066 
L 694.43963 530.707297 
L 699.155482 514.315528 
L 703.871334 508.42426 
L 708.587186 522.457462 
L 713.303038 464.467015 
L 718.01889 509.641413 
L 722.734742 526.009919 
L 727.450594 497.242754 
L 732.166446 446.995488 
L 736.882298 514.663912 
L 741.59815 511.005998 
L 746.314002 506.927075 
L 751.029854 517.257366 
L 755.745706 486.09285 
L 760.461558 457.38458 
L 765.17741 469.007876 
L 769.893262 454.713465 
L 774.609114 518.744515 
L 779.324966 506.635215 
L 784.040818 478.945738 
L 788.75667 513.997178 
L 793.472522 520.464218 
L 798.188374 475.173412 
L 802.904226 518.857677 
L 807.620078 527.032257 
L 812.33593 522.617187 
L 817.051782 532.121075 
L 821.767634 521.198726 
L 826.483486 518.964104 
L 831.199338 500.20377 
L 835.91519 497.37278 
L 840.631042 500.786126 
L 845.346894 531.0127 
L 850.062746 523.16492 
L 854.778598 517.300776 
L 859.49445 516.854546 
L 864.210302 520.006888 
L 868.926153 501.228458 
L 873.642005 527.219162 
L 878.357857 512.120268 
L 883.073709 530.890583 
L 887.789561 531.288945 
L 892.505413 522.69455 
L 897.221265 515.547773 
L 901.937117 535.834488 
L 906.652969 515.757494 
L 911.368821 511.218237 
L 916.084673 530.01189 
L 920.800525 524.776871 
L 925.516377 513.471011 
L 930.232229 529.992544 
L 934.948081 519.391194 
L 939.663933 494.342387 
L 944.379785 523.15507 
L 949.095637 519.877515 
L 953.811489 528.927262 
L 958.527341 520.965631 
L 963.243193 536.045011 
L 967.959045 483.570342 
L 972.674897 516.077709 
L 977.390749 501.595553 
L 982.106601 508.743822 
L 986.822453 545.251136 
L 991.538305 516.529947 
L 996.254157 522.413007 
L 1000.970009 523.836504 
L 1005.685861 534.369707 
L 1010.401713 504.948494 
L 1015.117565 486.800476 
L 1019.833417 523.577217 
L 1024.549269 435.92401 
L 1029.265121 493.705053 
L 1033.980973 512.612782 
L 1038.696825 520.631443 
L 1043.412677 508.384935 
L 1048.128529 525.301659 
L 1052.844381 502.720886 
L 1057.560233 513.393387 
L 1062.276085 516.70232 
L 1066.991937 522.053784 
L 1071.707789 510.387264 
L 1076.423641 531.919227 
L 1081.139493 490.408041 
L 1085.855345 484.791712 
L 1090.571197 499.632811 
L 1095.287049 513.543579 
L 1100.002901 521.102858 
L 1104.718753 366.888333 
L 1109.434605 443.909278 
L 1114.150457 515.235449 
L 1118.866309 519.050552 
L 1123.582161 527.660766 
L 1128.298013 526.067004 
L 1133.013865 514.586531 
L 1137.729717 526.295118 
L 1142.445569 521.466371 
L 1147.161421 505.649871 
L 1151.877273 534.959265 
L 1151.877273 534.959265 
" style="fill:none;stroke:#ff0000;stroke-linecap:square;stroke-width:1.5;"/>
   </g>
   <g id="line2d_19">
    <path clip-path="url(#pd35f9389c0)" d="M 213.422727 536.694433 
L 218.138579 537.215275 
L 222.854431 536.891795 
L 227.570283 494.3164 
L 232.286135 532.004798 
L 237.001987 525.130573 
L 241.717839 521.164774 
L 246.433691 511.774178 
L 251.149543 525.092199 
L 255.865395 521.044113 
L 260.581247 521.609307 
L 265.297099 507.568065 
L 270.012951 531.383209 
L 274.728803 527.368441 
L 279.444655 515.711603 
L 284.160507 516.937822 
L 288.876359 525.642693 
L 293.592211 511.212585 
L 298.308063 511.48051 
L 303.023915 516.83063 
L 307.739767 505.532026 
L 312.455619 524.722865 
L 317.171471 501.50752 
L 321.887323 499.097316 
L 326.603175 502.584928 
L 331.319027 502.543476 
L 336.034879 527.914178 
L 340.750731 511.120167 
L 345.466583 509.558062 
L 350.182435 522.309751 
L 354.898287 519.398489 
L 359.614139 508.867748 
L 364.329991 516.575241 
L 369.045843 526.072451 
L 373.761695 471.611086 
L 378.477547 519.63996 
L 383.193399 515.360271 
L 387.909251 526.011971 
L 392.625103 517.437556 
L 397.340955 513.006759 
L 402.056807 514.06928 
L 406.772659 510.073149 
L 411.488511 500.892162 
L 416.204363 521.753529 
L 420.920215 519.156811 
L 425.636067 507.768159 
L 430.351919 521.289166 
L 435.067771 481.110385 
L 439.783623 460.996435 
L 444.499475 514.240646 
L 449.215327 517.748145 
L 453.931179 516.410386 
L 458.647031 528.226408 
L 463.362883 523.817215 
L 468.078735 531.867347 
L 472.794587 536.133306 
L 477.510439 514.910888 
L 482.226291 520.670469 
L 486.942143 528.944892 
L 491.657995 512.17004 
L 496.373847 523.564475 
L 501.089698 529.744077 
L 505.80555 531.276856 
L 510.521402 522.827318 
L 515.237254 526.662773 
L 519.953106 537.317878 
L 524.668958 523.723883 
L 529.38481 523.079517 
L 534.100662 519.045403 
L 538.816514 532.281882 
L 543.532366 509.997372 
L 548.248218 511.820928 
L 552.96407 532.869966 
L 557.679922 522.664888 
L 562.395774 530.092928 
L 567.111626 520.518094 
L 571.827478 530.272614 
L 576.54333 539.475417 
L 581.259182 528.711721 
L 585.975034 529.266786 
L 590.690886 527.876214 
L 595.406738 525.632824 
L 600.12259 520.75354 
L 604.838442 525.536415 
L 609.554294 530.056476 
L 614.270146 531.089409 
L 618.985998 530.302966 
L 623.70185 506.801973 
L 628.417702 486.966973 
L 633.133554 529.075421 
L 637.849406 522.649908 
L 642.565258 527.334078 
L 647.28111 539.700809 
L 651.996962 523.573224 
L 656.712814 521.137146 
L 661.428666 515.441085 
L 666.144518 537.346197 
L 670.86037 526.767391 
L 675.576222 523.409974 
L 680.292074 525.74774 
L 685.007926 525.526527 
L 689.723778 525.635305 
L 694.43963 532.138573 
L 699.155482 519.852162 
L 703.871334 515.433399 
L 708.587186 525.956435 
L 713.303038 482.408371 
L 718.01889 516.346455 
L 722.734742 528.618875 
L 727.450594 507.042158 
L 732.166446 469.252296 
L 736.882298 520.113427 
L 741.59815 517.370024 
L 746.314002 514.310155 
L 751.029854 522.058093 
L 755.745706 498.668453 
L 760.461558 477.077465 
L 765.17741 485.824702 
L 769.893262 475.066182 
L 774.609114 523.173072 
L 779.324966 514.0912 
L 784.040818 493.297476 
L 788.75667 519.613433 
L 793.472522 524.46229 
L 798.188374 490.461544 
L 802.904226 523.257916 
L 807.620078 529.384984 
L 812.33593 526.076126 
L 817.051782 533.197699 
L 821.767634 525.012915 
L 826.483486 523.337722 
L 831.199338 509.264841 
L 835.91519 507.139743 
L 840.631042 509.701968 
L 845.346894 532.367378 
L 850.062746 526.486688 
L 854.778598 522.090646 
L 859.49445 521.756048 
L 864.210302 524.119446 
L 868.926153 510.033954 
L 873.642005 529.525028 
L 878.357857 518.205773 
L 883.073709 532.275875 
L 887.789561 532.57432 
L 892.505413 526.134125 
L 897.221265 520.776206 
L 901.937117 535.979196 
L 906.652969 520.933469 
L 911.368821 517.529246 
L 916.084673 531.617555 
L 920.800525 527.694812 
L 925.516377 519.218858 
L 930.232229 531.60306 
L 934.948081 523.657881 
L 939.663933 504.864546 
L 944.379785 526.479282 
L 949.095637 524.022477 
L 953.811489 530.804919 
L 958.527341 524.838172 
L 963.243193 536.136888 
L 967.959045 496.773093 
L 972.674897 521.173579 
L 977.390749 510.309472 
L 982.106601 515.673154 
L 986.822453 543.030123 
L 991.538305 521.512673 
L 996.254157 525.923098 
L 1000.970009 526.99004 
L 1005.685861 534.882089 
L 1010.401713 512.825637 
L 1015.117565 499.200049 
L 1019.833417 526.795691 
L 1024.549269 460.905641 
L 1029.265121 504.386005 
L 1033.980973 518.575163 
L 1038.696825 524.587634 
L 1043.412677 515.403886 
L 1048.128529 528.088081 
L 1052.844381 511.154008 
L 1057.560233 519.160617 
L 1062.276085 521.641897 
L 1066.991937 525.65383 
L 1071.707789 516.905941 
L 1076.423641 533.046499 
L 1081.139493 501.909929 
L 1085.855345 497.690869 
L 1090.571197 508.836277 
L 1095.287049 519.273257 
L 1100.002901 524.941018 
L 1104.718753 408.663377 
L 1109.434605 466.926394 
L 1114.150457 520.54201 
L 1118.866309 523.402511 
L 1123.582161 529.855933 
L 1128.298013 528.661632 
L 1133.013865 520.05541 
L 1137.729717 528.832606 
L 1142.445569 525.213513 
L 1147.161421 513.351898 
L 1151.877273 535.323693 
L 1151.877273 535.323693 
" style="fill:none;stroke:#ff0000;stroke-linecap:square;stroke-width:1.5;"/>
   </g>
   <g id="line2d_20">
    <path clip-path="url(#pd35f9389c0)" d="M 213.422727 536.569929 
L 218.138579 537.00769 
L 222.854431 536.735792 
L 227.570283 501.15783 
L 232.286135 532.631796 
L 237.001987 526.869603 
L 241.717839 523.55054 
L 246.433691 515.70457 
L 251.149543 526.837479 
L 255.865395 523.449616 
L 260.581247 523.922392 
L 265.297099 512.195635 
L 270.012951 532.110274 
L 274.728803 528.744162 
L 279.444655 518.992199 
L 284.160507 520.016663 
L 288.876359 527.298503 
L 293.592211 515.235897 
L 298.308063 515.459479 
L 303.023915 519.9271 
L 307.739767 510.49815 
L 312.455619 526.528233 
L 317.171471 507.144631 
L 321.887323 505.137377 
L 326.603175 508.042166 
L 331.319027 508.007635 
L 336.034879 529.201511 
L 340.750731 515.158758 
L 345.466583 513.855418 
L 350.182435 524.508406 
L 354.898287 522.073409 
L 359.614139 513.279591 
L 364.329991 519.713723 
L 369.045843 527.658435 
L 373.761695 482.285061 
L 378.477547 522.275313 
L 383.193399 518.698735 
L 387.909251 527.607767 
L 392.625103 520.434277 
L 397.340955 516.733437 
L 402.056807 517.620562 
L 406.772659 514.28512 
L 411.488511 506.632081 
L 416.204363 524.043054 
L 420.920215 521.871337 
L 425.636067 512.362505 
L 430.351919 523.654598 
L 435.067771 490.177053 
L 439.783623 473.468595 
L 444.499475 517.763647 
L 449.215327 520.693844 
L 453.931179 519.575973 
L 458.647031 529.463168 
L 463.362883 525.770051 
L 468.078735 532.51647 
L 472.794587 536.098402 
L 477.510439 518.323375 
L 482.226291 523.137068 
L 486.942143 530.065411 
L 491.657995 516.03497 
L 496.373847 525.558484 
L 501.089698 530.735466 
L 505.80555 532.021046 
L 510.521402 524.94154 
L 515.237254 528.152926 
L 519.953106 537.093942 
L 524.668958 525.691905 
L 529.38481 525.152586 
L 534.100662 521.77821 
L 538.816514 532.864314 
L 543.532366 514.221898 
L 548.248218 515.743596 
L 552.96407 533.357872 
L 557.679922 524.8056 
L 562.395774 531.027997 
L 567.111626 523.009635 
L 571.827478 531.178712 
L 576.54333 538.908218 
L 581.259182 529.869962 
L 585.975034 530.335295 
L 590.690886 529.169686 
L 595.406738 527.290201 
L 600.12259 523.206558 
L 604.838442 527.209462 
L 609.554294 530.99744 
L 614.270146 531.863784 
L 618.985998 531.204157 
L 623.70185 511.556846 
L 628.417702 495.045051 
L 633.133554 530.174842 
L 637.849406 524.793064 
L 642.565258 528.715359 
L 647.28111 539.097829 
L 651.996962 525.565778 
L 656.712814 523.527426 
L 661.428666 518.766229 
L 666.144518 537.117727 
L 670.86037 528.240586 
L 675.576222 525.429166 
L 680.292074 527.38648 
L 685.007926 527.201198 
L 689.723778 527.292272 
L 694.43963 532.744044 
L 699.155482 522.452761 
L 703.871334 518.75983 
L 708.587186 527.56126 
L 713.303038 491.255748 
L 718.01889 519.522582 
L 722.734742 529.792132 
L 727.450594 511.757109 
L 732.166446 480.325807 
L 736.882298 522.671212 
L 741.59815 520.377845 
L 746.314002 517.82172 
L 751.029854 524.297845 
L 755.745706 504.780262 
L 760.461558 486.826071 
L 765.17741 494.095412 
L 769.893262 485.15517 
L 774.609114 525.2309 
L 779.324966 517.638863 
L 784.040818 500.310066 
L 788.75667 522.253114 
L 793.472522 526.310061 
L 798.188374 497.950977 
L 802.904226 525.301882 
L 807.620078 530.434391 
L 812.33593 527.661513 
L 817.051782 533.63296 
L 821.767634 526.771085 
L 826.483486 525.368649 
L 831.199338 513.610812 
L 835.91519 511.838483 
L 840.631042 513.975464 
L 845.346894 532.936042 
L 850.062746 528.005401 
L 854.778598 524.325119 
L 859.49445 524.045162 
L 864.210302 526.023033 
L 868.926153 514.252436 
L 873.642005 530.551806 
L 878.357857 521.076349 
L 883.073709 532.859258 
L 887.789561 533.109722 
L 892.505413 527.710091 
L 897.221265 523.225512 
L 901.937117 535.968917 
L 906.652969 523.357049 
L 911.368821 520.510893 
L 916.084673 532.30688 
L 920.800525 529.017665 
L 925.516377 521.923198 
L 930.232229 532.294717 
L 934.948081 525.636667 
L 939.663933 509.941779 
L 944.379785 527.999226 
L 949.095637 525.941846 
L 953.811489 531.625147 
L 958.527341 526.624773 
L 963.243193 536.101406 
L 967.959045 503.202412 
L 972.674897 523.557909 
L 977.390749 514.482286 
L 982.106601 518.960075 
L 986.822453 541.900471 
L 991.538305 523.841578 
L 996.254157 527.533352 
L 1000.970009 528.4271 
L 1005.685861 535.047298 
L 1010.401713 516.582237 
L 1015.117565 505.222911 
L 1019.833417 528.264278 
L 1024.549269 473.393173 
L 1029.265121 509.542914 
L 1033.980973 521.38511 
L 1038.696825 526.415015 
L 1043.412677 518.735168 
L 1048.128529 529.347245 
L 1052.844381 515.187002 
L 1057.560233 521.874527 
L 1062.276085 523.949666 
L 1066.991937 527.307812 
L 1071.707789 519.990024 
L 1076.423641 533.506031 
L 1081.139493 507.479844 
L 1085.855345 503.966377 
L 1090.571197 513.253324 
L 1095.287049 521.968698 
L 1100.002901 526.710904 
L 1104.718753 429.891467 
L 1109.434605 478.393957 
L 1114.150457 523.029652 
L 1118.866309 525.422917 
L 1123.582161 530.829283 
L 1128.298013 529.827988 
L 1133.013865 522.62269 
L 1137.729717 529.971296 
L 1142.445569 526.939074 
L 1147.161421 517.021565 
L 1151.877273 535.418218 
L 1151.877273 535.418218 
" style="fill:none;stroke:#ff0000;stroke-linecap:square;stroke-width:1.5;"/>
   </g>
   <g id="line2d_21">
    <path clip-path="url(#pd35f9389c0)" d="M 213.422727 520.987867 
L 218.138579 521.505099 
L 222.854431 521.183858 
L 227.570283 478.475294 
L 232.286135 516.32433 
L 237.001987 509.468555 
L 241.717839 505.503111 
L 246.433691 496.084533 
L 251.149543 509.430219 
L 255.865395 505.382319 
L 260.581247 505.947923 
L 265.297099 491.853328 
L 270.012951 515.705372 
L 274.728803 511.702953 
L 279.444655 500.038467 
L 284.160507 501.268455 
L 288.876359 509.980116 
L 293.592211 495.520047 
L 298.308063 495.789371 
L 303.023915 501.160964 
L 307.739767 489.802477 
L 312.455619 509.06122 
L 317.171471 485.743701 
L 321.887323 483.309842 
L 326.603175 486.83094 
L 331.319027 486.789078 
L 336.034879 512.247477 
L 340.750731 495.427107 
L 345.466583 493.85616 
L 350.182435 506.648703 
L 354.898287 503.734568 
L 359.614139 493.161574 
L 364.329991 500.904829 
L 369.045843 510.409258 
L 373.761695 455.402809 
L 378.477547 503.976432 
L 383.193399 499.685959 
L 387.909251 510.348871 
L 392.625103 501.769494 
L 397.340955 497.323027 
L 402.056807 498.3901 
L 406.772659 494.374268 
L 411.488511 485.122504 
L 416.204363 506.092258 
L 420.920215 503.492481 
L 425.636067 492.054803 
L 430.351919 505.627578 
L 435.067771 465.077205 
L 439.783623 444.559353 
L 444.499475 498.562119 
L 449.215327 502.080885 
L 453.931179 500.73947 
L 458.647031 512.558943 
L 463.362883 508.15613 
L 468.078735 516.187476 
L 472.794587 520.430452 
L 477.510439 499.234953 
L 482.226291 505.008284 
L 486.942143 513.275468 
L 491.657995 496.482372 
L 496.373847 507.903484 
L 501.089698 514.072228 
L 505.80555 515.599448 
L 510.521402 507.166401 
L 515.237254 510.998648 
L 519.953106 521.606994 
L 524.668958 508.062836 
L 529.38481 507.4186 
L 534.100662 503.380886 
L 538.816514 516.600183 
L 543.532366 494.298062 
L 548.248218 496.131525 
L 552.96407 517.185525 
L 557.679922 507.003952 
L 562.395774 514.419903 
L 567.111626 504.855741 
L 571.827478 514.598993 
L 576.54333 523.748004 
L 581.259182 513.042988 
L 585.975034 513.596466 
L 590.690886 512.209608 
L 595.406738 509.970247 
L 600.12259 505.091448 
L 604.838442 509.873949 
L 609.554294 514.383582 
L 614.270146 515.412729 
L 618.985998 514.629214 
L 623.70185 491.081864 
L 628.417702 471.026677 
L 633.133554 513.405643 
L 637.849406 506.988954 
L 642.565258 511.668665 
L 647.28111 523.97153 
L 651.996962 507.912196 
L 656.712814 505.475427 
L 661.428666 499.767053 
L 666.144518 521.635088 
L 670.86037 511.103079 
L 675.576222 507.749019 
L 680.292074 510.085013 
L 685.007926 509.864062 
L 689.723778 509.972709 
L 694.43963 516.457509 
L 699.155482 504.188969 
L 703.871334 499.759349 
L 708.587186 510.293428 
L 713.303038 466.396794 
L 718.01889 500.675371 
L 722.734742 512.950384 
L 727.450594 491.323765 
L 732.166446 452.996075 
L 736.882298 504.450589 
L 741.59815 501.701813 
L 746.314002 498.631964 
L 751.029854 506.396989 
L 755.745706 482.876484 
L 760.461558 460.973564 
L 765.17741 469.867224 
L 769.893262 458.924989 
L 774.609114 507.512155 
L 779.324966 498.412095 
L 784.040818 477.443796 
L 788.75667 503.949867 
L 793.472522 508.800851 
L 798.188374 474.57087 
L 802.904226 507.59698 
L 807.620078 513.714274 
L 812.33593 510.412952 
L 817.051782 517.511654 
L 821.767634 509.351009 
L 826.483486 507.676749 
L 831.199338 493.561129 
L 835.91519 491.42204 
L 840.631042 494.000905 
L 845.346894 516.685269 
L 850.062746 510.822842 
L 854.778598 506.429543 
L 859.49445 506.094795 
L 864.210302 508.458194 
L 868.926153 494.334832 
L 873.642005 513.853888 
L 878.357857 502.539577 
L 883.073709 516.594176 
L 887.789561 516.891259 
L 892.505413 510.470857 
L 897.221265 505.114133 
L 901.937117 520.277331 
L 906.652969 505.271563 
L 911.368821 501.861407 
L 916.084673 515.938729 
L 920.800525 512.028616 
L 925.516377 503.554621 
L 930.232229 515.924327 
L 934.948081 507.996871 
L 939.663933 489.129792 
L 944.379785 510.815473 
L 949.095637 508.361299 
L 953.811489 515.129339 
L 958.527341 509.176416 
L 963.243193 520.433997 
L 967.959045 480.96064 
L 972.674897 505.511897 
L 977.390749 494.611935 
L 982.106601 499.999888 
L 986.822453 527.270147 
L 991.538305 505.851253 
L 996.254157 510.260129 
L 1000.970009 511.325299 
L 1005.685861 519.186939 
L 1010.401713 497.141065 
L 1015.117565 483.413639 
L 1019.833417 511.131342 
L 1024.549269 444.466451 
L 1029.265121 488.647352 
L 1033.980973 502.909751 
L 1038.696825 508.92612 
L 1043.412677 499.729743 
L 1048.128529 512.42097 
L 1052.844381 495.461116 
L 1057.560233 503.496286 
L 1062.276085 505.98057 
L 1066.991937 509.991234 
L 1071.707789 501.23648 
L 1076.423641 517.3612 
L 1081.139493 486.149842 
L 1085.855345 481.888509 
L 1090.571197 493.129916 
L 1095.287049 503.609131 
L 1100.002901 509.279205 
L 1104.718753 390.691651 
L 1109.434605 450.621297 
L 1114.150457 504.879694 
L 1118.866309 507.741557 
L 1123.582161 514.18373 
L 1128.298013 512.993029 
L 1133.013865 504.392478 
L 1137.729717 513.163537 
L 1142.445569 509.551421 
L 1147.161421 497.669695 
L 1151.877273 519.625894 
L 1151.877273 519.625894 
" style="fill:none;stroke:#ff0000;stroke-linecap:square;stroke-width:1.5;"/>
   </g>
   <g id="line2d_22">
    <path clip-path="url(#pd35f9389c0)" d="M 213.422727 525.982459 
L 218.138579 526.410631 
L 222.854431 526.144721 
L 227.570283 490.88509 
L 232.286135 522.124076 
L 237.001987 516.457714 
L 241.717839 513.182771 
L 246.433691 505.409649 
L 251.149543 516.426056 
L 255.865395 513.083059 
L 260.581247 513.55009 
L 265.297099 501.919257 
L 270.012951 521.612254 
L 274.728803 518.303806 
L 279.444655 508.672093 
L 284.160507 509.687156 
L 288.876359 516.880327 
L 293.592211 504.943905 
L 298.308063 505.166125 
L 303.023915 509.59845 
L 307.739767 500.227685 
L 312.455619 516.12125 
L 317.171471 496.880099 
L 321.887323 494.872733 
L 326.603175 497.776794 
L 331.319027 497.742282 
L 336.034879 518.753805 
L 340.750731 504.867288 
L 345.466583 503.571336 
L 350.182435 514.128734 
L 354.898287 511.722709 
L 359.614139 502.998381 
L 364.329991 509.387032 
L 369.045843 517.234868 
L 373.761695 471.834948 
L 378.477547 511.922393 
L 383.193399 508.381167 
L 387.909251 517.185003 
L 392.625103 510.100684 
L 397.340955 506.431427 
L 402.056807 507.311892 
L 406.772659 503.998725 
L 411.488511 496.367773 
L 416.204363 513.669259 
L 420.920215 511.522857 
L 425.636067 502.085437 
L 430.351919 513.28556 
L 435.067771 479.828405 
L 439.783623 462.86066 
L 444.499475 507.453839 
L 449.215327 510.357677 
L 453.931179 509.250588 
L 458.647031 519.01119 
L 463.362883 515.373665 
L 468.078735 522.010914 
L 472.794587 525.521117 
L 477.510439 508.008997 
L 482.226291 512.774242 
L 486.942143 519.603415 
L 491.657995 505.737848 
L 496.373847 515.164989 
L 501.089698 520.262034 
L 505.80555 521.524687 
L 510.521402 514.556254 
L 515.237254 517.721822 
L 519.953106 526.494971 
L 524.668958 515.296601 
L 529.38481 514.764538 
L 534.100662 511.430719 
L 538.816514 522.352247 
L 543.532366 503.935857 
L 548.248218 505.448414 
L 552.96407 522.836347 
L 557.679922 514.422105 
L 562.395774 520.549453 
L 567.111626 512.64832 
L 571.827478 520.697482 
L 576.54333 528.267804 
L 581.259182 519.411249 
L 585.975034 519.868747 
L 590.690886 518.722502 
L 595.406738 516.872175 
L 600.12259 512.842912 
L 604.838442 516.792629 
L 609.554294 520.519419 
L 614.270146 521.370279 
L 618.985998 520.72248 
L 623.70185 501.282931 
L 628.417702 484.739589 
L 633.133554 519.711018 
L 637.849406 514.409736 
L 642.565258 518.275469 
L 647.28111 528.452956 
L 651.996962 515.172208 
L 656.712814 513.159937 
L 661.428666 508.448083 
L 666.144518 526.518234 
L 670.86037 517.80814 
L 675.576222 515.037425 
L 680.292074 516.96698 
L 685.007926 516.784459 
L 689.723778 516.874227 
L 694.43963 522.234235 
L 699.155482 512.097845 
L 703.871334 508.441721 
L 708.587186 517.139167 
L 713.303038 480.917902 
L 718.01889 509.197683 
L 722.734742 519.334725 
L 727.450594 501.482466 
L 732.166446 469.844633 
L 736.882298 512.313815 
L 741.59815 510.044812 
L 746.314002 507.511446 
L 751.029854 513.92086 
L 755.745706 494.515339 
L 760.461558 476.43905 
L 765.17741 483.782712 
L 769.893262 474.746378 
L 774.609114 514.841789 
L 779.324966 507.330025 
L 784.040818 490.034211 
L 788.75667 511.900418 
L 793.472522 515.906175 
L 798.188374 487.664059 
L 802.904226 514.911839 
L 807.620078 519.966127 
L 812.33593 517.237909 
L 817.051782 523.106082 
L 821.767634 516.360633 
L 826.483486 514.977729 
L 831.199338 503.32798 
L 835.91519 501.563541 
L 840.631042 503.690747 
L 845.346894 522.422595 
L 850.062746 517.576574 
L 854.778598 513.947761 
L 859.49445 513.671329 
L 864.210302 515.623177 
L 868.926153 503.966209 
L 873.642005 520.081546 
L 878.357857 510.736301 
L 883.073709 522.347285 
L 887.789561 522.592973 
L 892.505413 517.285759 
L 897.221265 512.861641 
L 901.937117 525.394393 
L 906.652969 512.991612 
L 911.368821 510.176554 
L 916.084673 521.805241 
L 920.800525 518.572925 
L 925.516377 511.574158 
L 930.232229 521.793302 
L 934.948081 515.242091 
L 939.663933 499.672845 
L 944.379785 517.570492 
L 949.095637 515.54311 
L 953.811489 521.135989 
L 958.527341 516.21641 
L 963.243193 525.524046 
L 967.959045 492.935138 
L 972.674897 513.190046 
L 977.390749 504.19479 
L 982.106601 508.640249 
L 986.822453 531.186174 
L 991.538305 513.470246 
L 996.254157 517.111688 
L 1000.970009 517.991743 
L 1005.685861 524.492064 
L 1010.401713 506.281309 
L 1015.117565 494.958342 
L 1019.833417 517.831458 
L 1024.549269 462.783689 
L 1029.265121 499.27495 
L 1033.980973 511.041816 
L 1038.696825 516.009655 
L 1043.412677 508.41732 
L 1048.128529 518.897169 
L 1052.844381 504.895364 
L 1057.560233 511.525991 
L 1062.276085 513.577009 
L 1066.991937 516.889506 
L 1071.707789 509.66074 
L 1076.423641 522.981652 
L 1081.139493 497.21507 
L 1085.855345 493.700446 
L 1090.571197 502.972245 
L 1095.287049 511.619173 
L 1100.002901 516.30131 
L 1104.718753 417.872794 
L 1109.434605 467.879876 
L 1114.150457 512.668076 
L 1118.866309 515.03125 
L 1123.582161 520.354209 
L 1128.298013 519.369983 
L 1133.013865 512.265815 
L 1137.729717 519.510886 
L 1142.445569 516.526178 
L 1147.161421 506.717484 
L 1151.877273 524.855279 
L 1151.877273 524.855279 
" style="fill:none;stroke:#ff0000;stroke-linecap:square;stroke-width:1.5;"/>
   </g>
   <g id="line2d_23">
    <path clip-path="url(#pd35f9389c0)" d="M 213.422727 530.680452 
L 218.138579 531.075288 
L 222.854431 530.830103 
L 227.570283 497.564891 
L 232.286135 527.111821 
L 237.001987 521.83675 
L 241.717839 518.76996 
L 246.433691 511.440252 
L 251.149543 521.807144 
L 255.865395 518.676405 
L 260.581247 519.114576 
L 265.297099 508.126562 
L 270.012951 526.636992 
L 274.728803 523.559755 
L 279.444655 514.5251 
L 284.160507 515.482406 
L 288.876359 522.231548 
L 293.592211 510.99889 
L 298.308063 511.209488 
L 303.023915 515.398794 
L 307.739767 506.515823 
L 312.455619 521.522281 
L 317.171471 503.319081 
L 321.887323 501.396485 
L 326.603175 504.176564 
L 331.319027 504.143563 
L 336.034879 523.979085 
L 340.750731 510.926247 
L 345.466583 509.696688 
L 350.182435 519.657123 
L 354.898287 517.398548 
L 359.614139 509.1525 
L 364.329991 515.199501 
L 369.045843 522.562602 
L 373.761695 479.048528 
L 378.477547 517.586256 
L 383.193399 514.250515 
L 387.909251 522.516039 
L 392.625103 515.872093 
L 397.340955 512.407725 
L 402.056807 513.240415 
L 406.772659 510.1024 
L 411.488511 502.828787 
L 416.204363 519.226358 
L 420.920215 517.210653 
L 425.636067 508.284645 
L 430.351919 518.866426 
L 435.067771 486.858867 
L 439.783623 470.214788 
L 444.499475 513.374582 
L 449.215327 516.114143 
L 453.931179 515.070837 
L 458.647031 524.21886 
L 463.362883 520.823031 
L 468.078735 527.006848 
L 472.794587 530.254779 
L 477.510439 513.89909 
L 482.226291 518.386504 
L 486.942143 524.770174 
L 491.657995 511.751139 
L 496.373847 520.62773 
L 501.089698 525.382752 
L 505.80555 526.555693 
L 510.521402 520.057704 
L 515.237254 523.017041 
L 519.953106 531.153042 
L 524.668958 520.75091 
L 529.38481 520.2528 
L 534.100662 517.124 
L 538.816514 527.32337 
L 543.532366 510.042722 
L 548.248218 511.476946 
L 552.96407 527.772044 
L 557.679922 519.932044 
L 562.395774 525.649931 
L 567.111626 518.268249 
L 571.827478 525.787531 
L 576.54333 532.785067 
L 581.259182 524.591309 
L 585.975034 525.017019 
L 590.690886 523.949927 
L 595.406738 522.223918 
L 600.12259 518.450958 
L 604.838442 522.149634 
L 609.554294 525.622023 
L 614.270146 526.412384 
L 618.985998 525.810738 
L 623.70185 507.521054 
L 628.417702 491.628757 
L 633.133554 524.870278 
L 637.849406 519.92044 
L 642.565258 523.533321 
L 647.28111 532.955257 
L 651.996962 520.634483 
L 656.712814 518.748525 
L 661.428666 514.313681 
L 666.144518 531.174495 
L 670.86037 523.097519 
L 675.576222 520.508319 
L 680.292074 522.312493 
L 685.007926 522.142004 
L 689.723778 522.225821 
L 694.43963 527.213958 
L 699.155482 517.751148 
L 703.871334 514.307674 
L 708.587186 522.473244 
L 713.303038 487.919019 
L 718.01889 515.020934 
L 722.734742 524.520084 
L 727.450594 507.710944 
L 732.166446 477.095094 
L 736.882298 517.95406 
L 741.59815 515.819467 
L 746.314002 513.429037 
L 751.029854 519.46227 
L 755.745706 501.053734 
L 760.461558 483.554094 
L 765.17741 490.701187 
L 769.893262 481.899814 
L 774.609114 520.325144 
L 779.324966 513.257559 
L 784.040818 496.74526 
L 788.75667 517.565623 
L 793.472522 521.32116 
L 798.188374 494.458235 
L 802.904226 520.390736 
L 807.620078 525.107608 
L 812.33593 522.565456 
L 817.051782 528.021892 
L 821.767634 521.746011 
L 826.483486 520.452428 
L 831.199338 509.465607 
L 835.91519 507.78812 
L 840.631042 509.810055 
L 845.346894 527.388607 
L 850.062746 522.881511 
L 854.778598 519.487473 
L 859.49445 519.228298 
L 864.210302 521.056481 
L 868.926153 510.071526 
L 873.642005 525.214931 
L 878.357857 516.470605 
L 883.073709 527.318762 
L 887.789561 527.546504 
L 892.505413 522.610098 
L 897.221265 518.468549 
L 901.937117 530.137793 
L 906.652969 518.590554 
L 911.368821 515.943542 
L 916.084673 526.816044 
L 920.800525 523.810555 
L 925.516377 517.258896 
L 930.232229 526.804981 
L 934.948081 520.699907 
L 939.663933 505.986819 
L 944.379785 522.875821 
L 949.095637 520.981581 
L 953.811489 526.194828 
L 958.527341 521.61121 
L 963.243193 530.257484 
L 967.959045 499.536756 
L 972.674897 518.776788 
L 977.390749 510.288429 
L 982.106601 514.495046 
L 986.822453 535.462524 
L 991.538305 519.039676 
L 996.254157 522.447575 
L 1000.970009 523.268773 
L 1005.685861 529.304245 
L 1010.401713 512.265648 
L 1015.117565 501.478586 
L 1019.833417 523.119289 
L 1024.549269 470.138768 
L 1029.265121 505.607225 
L 1033.980973 516.758155 
L 1038.696825 521.417924 
L 1043.412677 514.284635 
L 1048.128529 524.112656 
L 1052.844381 510.952831 
L 1057.560233 517.213638 
L 1062.276085 519.139854 
L 1066.991937 522.240111 
L 1071.707789 515.45752 
L 1076.423641 527.906641 
L 1081.139493 503.639483 
L 1085.855345 500.271767 
L 1090.571197 509.12767 
L 1095.287049 517.301205 
L 1100.002901 521.690587 
L 1104.718753 425.074547 
L 1109.434605 475.163581 
L 1114.150457 518.286811 
L 1118.866309 520.502536 
L 1123.582161 525.468454 
L 1128.298013 524.552898 
L 1133.013865 517.908989 
L 1137.729717 524.684044 
L 1142.445569 521.900718 
L 1147.161421 512.678336 
L 1151.877273 529.639907 
L 1151.877273 529.639907 
" style="fill:none;stroke:#ff0000;stroke-linecap:square;stroke-width:1.5;"/>
   </g>
   <g id="line2d_24">
    <path clip-path="url(#pd35f9389c0)" d="M 213.422727 520.469367 
L 218.138579 520.933003 
L 222.854431 520.645061 
L 227.570283 482.385145 
L 232.286135 516.290172 
L 237.001987 510.14915 
L 241.717839 506.598017 
L 246.433691 498.164 
L 251.149543 510.114824 
L 255.865395 506.489873 
L 260.581247 506.99636 
L 265.297099 494.374474 
L 270.012951 515.73563 
L 274.728803 512.150322 
L 279.444655 501.704723 
L 284.160507 502.806103 
L 288.876359 510.607319 
L 293.592211 497.658446 
L 298.308063 497.899657 
L 303.023915 502.709842 
L 307.739767 492.537392 
L 312.455619 509.784367 
L 317.171471 488.900838 
L 321.887323 486.719588 
L 326.603175 489.875083 
L 331.319027 489.837605 
L 336.034879 512.63806 
L 340.750731 497.575263 
L 345.466583 496.168313 
L 350.182435 507.623899 
L 354.898287 505.014403 
L 359.614139 495.546239 
L 364.329991 502.480496 
L 369.045843 510.991652 
L 373.761695 461.654718 
L 378.477547 505.23097 
L 383.193399 501.389041 
L 387.909251 510.93759 
L 392.625103 503.254777 
L 397.340955 499.273084 
L 402.056807 500.228674 
L 406.772659 496.63234 
L 411.488511 488.344169 
L 416.204363 507.125602 
L 420.920215 504.797593 
L 425.636067 494.554925 
L 430.351919 506.7095 
L 435.067771 470.357761 
L 439.783623 451.876507 
L 444.499475 500.382709 
L 449.215327 503.533578 
L 453.931179 502.332449 
L 458.647031 512.917028 
L 463.362883 508.973821 
L 468.078735 516.167571 
L 472.794587 519.969764 
L 477.510439 500.985195 
L 482.226291 506.154958 
L 486.942143 513.558858 
L 491.657995 498.520276 
L 496.373847 508.747553 
L 501.089698 514.272565 
L 505.80555 515.640732 
L 510.521402 508.087498 
L 515.237254 511.519517 
L 519.953106 521.024357 
L 524.668958 508.890246 
L 529.38481 508.313337 
L 534.100662 504.697657 
L 538.816514 516.537316 
L 543.532366 496.564081 
L 548.248218 498.206086 
L 552.96407 517.061786 
L 557.679922 507.942044 
L 562.395774 514.584031 
L 567.111626 506.018346 
L 571.827478 514.744447 
L 576.54333 522.943857 
L 581.259182 513.350592 
L 585.975034 513.846389 
L 590.690886 512.604145 
L 595.406738 510.598458 
L 600.12259 506.229429 
L 604.838442 510.512216 
L 609.554294 514.551497 
L 614.270146 515.473451 
L 618.985998 514.771534 
L 623.70185 493.683451 
L 628.417702 475.701725 
L 633.133554 513.675471 
L 637.849406 507.928612 
L 642.565258 512.119597 
L 647.28111 523.144269 
L 651.996962 508.75537 
L 656.712814 506.573243 
L 661.428666 501.461666 
L 666.144518 521.04956 
L 670.86037 511.613036 
L 675.576222 508.609244 
L 680.292074 510.701248 
L 685.007926 510.503373 
L 689.723778 510.600659 
L 694.43963 516.409491 
L 699.155482 505.421289 
L 703.871334 501.454763 
L 708.587186 510.887892 
L 713.303038 471.543517 
L 718.01889 502.275029 
L 722.734742 513.26767 
L 727.450594 493.90013 
L 732.166446 459.486732 
L 736.882298 505.655542 
L 741.59815 503.194167 
L 746.314002 500.445241 
L 751.029854 507.398471 
L 755.745706 486.33117 
L 760.461558 466.668282 
L 765.17741 474.660713 
L 769.893262 464.825324 
L 774.609114 508.397117 
L 779.324966 500.248355 
L 784.040818 481.460038 
L 788.75667 505.207166 
L 793.472522 509.551197 
L 798.188374 478.882721 
L 802.904226 508.47308 
L 807.620078 513.951921 
L 812.33593 510.994954 
L 817.051782 517.353999 
L 821.767634 510.043897 
L 826.483486 508.544529 
L 831.199338 495.904119 
L 835.91519 493.988163 
L 840.631042 496.297966 
L 845.346894 516.613559 
L 850.062746 511.362068 
L 854.778598 507.427629 
L 859.49445 507.12786 
L 864.210302 509.244339 
L 868.926153 496.597026 
L 873.642005 514.076985 
L 878.357857 503.944326 
L 883.073709 516.531961 
L 887.789561 516.798114 
L 892.505413 511.046797 
L 897.221265 506.249726 
L 901.937117 519.832519 
L 906.652969 506.390684 
L 911.368821 503.337083 
L 916.084673 515.944717 
L 920.800525 512.442013 
L 925.516377 504.853241 
L 930.232229 515.931789 
L 934.948081 508.831184 
L 939.663933 491.934738 
L 944.379785 511.355464 
L 949.095637 509.157537 
L 953.811489 515.219574 
L 958.527341 509.887549 
L 963.243193 519.972936 
L 967.959045 484.613705 
L 972.674897 506.605908 
L 977.390749 496.845214 
L 982.106601 501.670174 
L 986.822453 526.102728 
L 991.538305 506.9098 
L 996.254157 510.858081 
L 1000.970009 511.812086 
L 1005.685861 518.85527 
L 1010.401713 499.11015 
L 1015.117565 486.812621 
L 1019.833417 511.63835 
L 1024.549269 451.792633 
L 1029.265121 491.502518 
L 1033.980973 504.27579 
L 1038.696825 509.66337 
L 1043.412677 501.428236 
L 1048.128529 512.793457 
L 1052.844381 497.605727 
L 1057.560233 504.801025 
L 1062.276085 507.025592 
L 1066.991937 510.617263 
L 1071.707789 502.777467 
L 1076.423641 517.219179 
L 1081.139493 489.26478 
L 1085.855345 485.445536 
L 1090.571197 495.517865 
L 1095.287049 504.902043 
L 1100.002901 509.979593 
L 1104.718753 402.767725 
L 1109.434605 457.346262 
L 1114.150457 506.0398 
L 1118.866309 508.602547 
L 1123.582161 514.372463 
L 1128.298013 513.305876 
L 1133.013865 505.603513 
L 1137.729717 513.458568 
L 1142.445569 510.223378 
L 1147.161421 499.583524 
L 1151.877273 519.248669 
L 1151.877273 519.248669 
" style="fill:none;stroke:#ff0000;stroke-linecap:square;stroke-width:1.5;"/>
   </g>
   <g id="patch_3">
    <path d="M 166.5 661.5 
L 166.5 90.72 
" style="fill:none;stroke:#000000;stroke-linecap:square;stroke-linejoin:miter;stroke-width:0.8;"/>
   </g>
   <g id="patch_4">
    <path d="M 1198.8 661.5 
L 1198.8 90.72 
" style="fill:none;stroke:#000000;stroke-linecap:square;stroke-linejoin:miter;stroke-width:0.8;"/>
   </g>
   <g id="patch_5">
    <path d="M 166.5 661.5 
L 1198.8 661.5 
" style="fill:none;stroke:#000000;stroke-linecap:square;stroke-linejoin:miter;stroke-width:0.8;"/>
   </g>
   <g id="patch_6">
    <path d="M 166.5 90.72 
L 1198.8 90.72 
" style="fill:none;stroke:#000000;stroke-linecap:square;stroke-linejoin:miter;stroke-width:0.8;"/>
   </g>
  </g>
 </g>
 <defs>
  <clipPath id="pd35f9389c0">
   <rect height="570.78" width="1032.3" x="166.5" y="90.72"/>
  </clipPath>
 </defs>
</svg>
