<?xml version="1.0" encoding="utf-8" standalone="no"?>
<!DOCTYPE svg PUBLIC "-//W3C//DTD SVG 1.1//EN"
  "http://www.w3.org/Graphics/SVG/1.1/DTD/svg11.dtd">
<!-- Created with matplotlib (http://matplotlib.org/) -->
<svg height="756pt" version="1.1" viewBox="0 0 1332 756" width="1332pt" xmlns="http://www.w3.org/2000/svg" xmlns:xlink="http://www.w3.org/1999/xlink">
 <defs>
  <style type="text/css">
*{stroke-linecap:butt;stroke-linejoin:round;}
  </style>
 </defs>
 <g id="figure_1">
  <g id="patch_1">
   <path d="M 0 756 
L 1332 756 
L 1332 0 
L 0 0 
z
" style="fill:#ffffff;"/>
  </g>
  <g id="axes_1">
   <g id="patch_2">
    <path d="M 166.5 661.5 
L 1198.8 661.5 
L 1198.8 90.72 
L 166.5 90.72 
z
" style="fill:#ffffff;"/>
   </g>
   <g id="matplotlib.axis_1">
    <g id="xtick_1">
     <g id="line2d_1">
      <defs>
       <path d="M 0 0 
L 0 3.5 
" id="mf65a9aaa27" style="stroke:#000000;stroke-width:0.8;"/>
      </defs>
      <g>
       <use style="stroke:#000000;stroke-width:0.8;" x="213.422727" xlink:href="#mf65a9aaa27" y="661.5"/>
      </g>
     </g>
     <g id="text_1">
      <!-- 0 -->
      <defs>
       <path d="M 31.78125 66.40625 
Q 24.171875 66.40625 20.328125 58.90625 
Q 16.5 51.421875 16.5 36.375 
Q 16.5 21.390625 20.328125 13.890625 
Q 24.171875 6.390625 31.78125 6.390625 
Q 39.453125 6.390625 43.28125 13.890625 
Q 47.125 21.390625 47.125 36.375 
Q 47.125 51.421875 43.28125 58.90625 
Q 39.453125 66.40625 31.78125 66.40625 
z
M 31.78125 74.21875 
Q 44.046875 74.21875 50.515625 64.515625 
Q 56.984375 54.828125 56.984375 36.375 
Q 56.984375 17.96875 50.515625 8.265625 
Q 44.046875 -1.421875 31.78125 -1.421875 
Q 19.53125 -1.421875 13.0625 8.265625 
Q 6.59375 17.96875 6.59375 36.375 
Q 6.59375 54.828125 13.0625 64.515625 
Q 19.53125 74.21875 31.78125 74.21875 
z
" id="DejaVuSans-30"/>
      </defs>
      <g transform="translate(207.060227 683.696875)scale(0.2 -0.2)">
       <use xlink:href="#DejaVuSans-30"/>
      </g>
     </g>
    </g>
    <g id="xtick_2">
     <g id="line2d_2">
      <g>
       <use style="stroke:#000000;stroke-width:0.8;" x="331.319027" xlink:href="#mf65a9aaa27" y="661.5"/>
      </g>
     </g>
     <g id="text_2">
      <!-- 25 -->
      <defs>
       <path d="M 19.1875 8.296875 
L 53.609375 8.296875 
L 53.609375 0 
L 7.328125 0 
L 7.328125 8.296875 
Q 12.9375 14.109375 22.625 23.890625 
Q 32.328125 33.6875 34.8125 36.53125 
Q 39.546875 41.84375 41.421875 45.53125 
Q 43.3125 49.21875 43.3125 52.78125 
Q 43.3125 58.59375 39.234375 62.25 
Q 35.15625 65.921875 28.609375 65.921875 
Q 23.96875 65.921875 18.8125 64.3125 
Q 13.671875 62.703125 7.8125 59.421875 
L 7.8125 69.390625 
Q 13.765625 71.78125 18.9375 73 
Q 24.125 74.21875 28.421875 74.21875 
Q 39.75 74.21875 46.484375 68.546875 
Q 53.21875 62.890625 53.21875 53.421875 
Q 53.21875 48.921875 51.53125 44.890625 
Q 49.859375 40.875 45.40625 35.40625 
Q 44.1875 33.984375 37.640625 27.21875 
Q 31.109375 20.453125 19.1875 8.296875 
z
" id="DejaVuSans-32"/>
       <path d="M 10.796875 72.90625 
L 49.515625 72.90625 
L 49.515625 64.59375 
L 19.828125 64.59375 
L 19.828125 46.734375 
Q 21.96875 47.46875 24.109375 47.828125 
Q 26.265625 48.1875 28.421875 48.1875 
Q 40.625 48.1875 47.75 41.5 
Q 54.890625 34.8125 54.890625 23.390625 
Q 54.890625 11.625 47.5625 5.09375 
Q 40.234375 -1.421875 26.90625 -1.421875 
Q 22.3125 -1.421875 17.546875 -0.640625 
Q 12.796875 0.140625 7.71875 1.703125 
L 7.71875 11.625 
Q 12.109375 9.234375 16.796875 8.0625 
Q 21.484375 6.890625 26.703125 6.890625 
Q 35.15625 6.890625 40.078125 11.328125 
Q 45.015625 15.765625 45.015625 23.390625 
Q 45.015625 31 40.078125 35.4375 
Q 35.15625 39.890625 26.703125 39.890625 
Q 22.75 39.890625 18.8125 39.015625 
Q 14.890625 38.140625 10.796875 36.28125 
z
" id="DejaVuSans-35"/>
      </defs>
      <g transform="translate(318.594027 683.696875)scale(0.2 -0.2)">
       <use xlink:href="#DejaVuSans-32"/>
       <use x="63.623047" xlink:href="#DejaVuSans-35"/>
      </g>
     </g>
    </g>
    <g id="xtick_3">
     <g id="line2d_3">
      <g>
       <use style="stroke:#000000;stroke-width:0.8;" x="449.215327" xlink:href="#mf65a9aaa27" y="661.5"/>
      </g>
     </g>
     <g id="text_3">
      <!-- 50 -->
      <g transform="translate(436.490327 683.696875)scale(0.2 -0.2)">
       <use xlink:href="#DejaVuSans-35"/>
       <use x="63.623047" xlink:href="#DejaVuSans-30"/>
      </g>
     </g>
    </g>
    <g id="xtick_4">
     <g id="line2d_4">
      <g>
       <use style="stroke:#000000;stroke-width:0.8;" x="567.111626" xlink:href="#mf65a9aaa27" y="661.5"/>
      </g>
     </g>
     <g id="text_4">
      <!-- 75 -->
      <defs>
       <path d="M 8.203125 72.90625 
L 55.078125 72.90625 
L 55.078125 68.703125 
L 28.609375 0 
L 18.3125 0 
L 43.21875 64.59375 
L 8.203125 64.59375 
z
" id="DejaVuSans-37"/>
      </defs>
      <g transform="translate(554.386626 683.696875)scale(0.2 -0.2)">
       <use xlink:href="#DejaVuSans-37"/>
       <use x="63.623047" xlink:href="#DejaVuSans-35"/>
      </g>
     </g>
    </g>
    <g id="xtick_5">
     <g id="line2d_5">
      <g>
       <use style="stroke:#000000;stroke-width:0.8;" x="685.007926" xlink:href="#mf65a9aaa27" y="661.5"/>
      </g>
     </g>
     <g id="text_5">
      <!-- 100 -->
      <defs>
       <path d="M 12.40625 8.296875 
L 28.515625 8.296875 
L 28.515625 63.921875 
L 10.984375 60.40625 
L 10.984375 69.390625 
L 28.421875 72.90625 
L 38.28125 72.90625 
L 38.28125 8.296875 
L 54.390625 8.296875 
L 54.390625 0 
L 12.40625 0 
z
" id="DejaVuSans-31"/>
      </defs>
      <g transform="translate(665.920426 683.696875)scale(0.2 -0.2)">
       <use xlink:href="#DejaVuSans-31"/>
       <use x="63.623047" xlink:href="#DejaVuSans-30"/>
       <use x="127.246094" xlink:href="#DejaVuSans-30"/>
      </g>
     </g>
    </g>
    <g id="xtick_6">
     <g id="line2d_6">
      <g>
       <use style="stroke:#000000;stroke-width:0.8;" x="802.904226" xlink:href="#mf65a9aaa27" y="661.5"/>
      </g>
     </g>
     <g id="text_6">
      <!-- 125 -->
      <g transform="translate(783.816726 683.696875)scale(0.2 -0.2)">
       <use xlink:href="#DejaVuSans-31"/>
       <use x="63.623047" xlink:href="#DejaVuSans-32"/>
       <use x="127.246094" xlink:href="#DejaVuSans-35"/>
      </g>
     </g>
    </g>
    <g id="xtick_7">
     <g id="line2d_7">
      <g>
       <use style="stroke:#000000;stroke-width:0.8;" x="920.800525" xlink:href="#mf65a9aaa27" y="661.5"/>
      </g>
     </g>
     <g id="text_7">
      <!-- 150 -->
      <g transform="translate(901.713025 683.696875)scale(0.2 -0.2)">
       <use xlink:href="#DejaVuSans-31"/>
       <use x="63.623047" xlink:href="#DejaVuSans-35"/>
       <use x="127.246094" xlink:href="#DejaVuSans-30"/>
      </g>
     </g>
    </g>
    <g id="xtick_8">
     <g id="line2d_8">
      <g>
       <use style="stroke:#000000;stroke-width:0.8;" x="1038.696825" xlink:href="#mf65a9aaa27" y="661.5"/>
      </g>
     </g>
     <g id="text_8">
      <!-- 175 -->
      <g transform="translate(1019.609325 683.696875)scale(0.2 -0.2)">
       <use xlink:href="#DejaVuSans-31"/>
       <use x="63.623047" xlink:href="#DejaVuSans-37"/>
       <use x="127.246094" xlink:href="#DejaVuSans-35"/>
      </g>
     </g>
    </g>
    <g id="xtick_9">
     <g id="line2d_9">
      <g>
       <use style="stroke:#000000;stroke-width:0.8;" x="1156.593125" xlink:href="#mf65a9aaa27" y="661.5"/>
      </g>
     </g>
     <g id="text_9">
      <!-- 200 -->
      <g transform="translate(1137.505625 683.696875)scale(0.2 -0.2)">
       <use xlink:href="#DejaVuSans-32"/>
       <use x="63.623047" xlink:href="#DejaVuSans-30"/>
       <use x="127.246094" xlink:href="#DejaVuSans-30"/>
      </g>
     </g>
    </g>
   </g>
   <g id="matplotlib.axis_2">
    <g id="ytick_1">
     <g id="line2d_10">
      <defs>
       <path d="M 0 0 
L -3.5 0 
" id="m70bc7e6901" style="stroke:#000000;stroke-width:0.8;"/>
      </defs>
      <g>
       <use style="stroke:#000000;stroke-width:0.8;" x="166.5" xlink:href="#m70bc7e6901" y="635.177802"/>
      </g>
     </g>
     <g id="text_10">
      <!-- 0 -->
      <g transform="translate(146.775 642.776239)scale(0.2 -0.2)">
       <use xlink:href="#DejaVuSans-30"/>
      </g>
     </g>
    </g>
    <g id="ytick_2">
     <g id="line2d_11">
      <g>
       <use style="stroke:#000000;stroke-width:0.8;" x="166.5" xlink:href="#m70bc7e6901" y="541.375354"/>
      </g>
     </g>
     <g id="text_11">
      <!-- 1000 -->
      <g transform="translate(108.6 548.973791)scale(0.2 -0.2)">
       <use xlink:href="#DejaVuSans-31"/>
       <use x="63.623047" xlink:href="#DejaVuSans-30"/>
       <use x="127.246094" xlink:href="#DejaVuSans-30"/>
       <use x="190.869141" xlink:href="#DejaVuSans-30"/>
      </g>
     </g>
    </g>
    <g id="ytick_3">
     <g id="line2d_12">
      <g>
       <use style="stroke:#000000;stroke-width:0.8;" x="166.5" xlink:href="#m70bc7e6901" y="447.572905"/>
      </g>
     </g>
     <g id="text_12">
      <!-- 2000 -->
      <g transform="translate(108.6 455.171343)scale(0.2 -0.2)">
       <use xlink:href="#DejaVuSans-32"/>
       <use x="63.623047" xlink:href="#DejaVuSans-30"/>
       <use x="127.246094" xlink:href="#DejaVuSans-30"/>
       <use x="190.869141" xlink:href="#DejaVuSans-30"/>
      </g>
     </g>
    </g>
    <g id="ytick_4">
     <g id="line2d_13">
      <g>
       <use style="stroke:#000000;stroke-width:0.8;" x="166.5" xlink:href="#m70bc7e6901" y="353.770457"/>
      </g>
     </g>
     <g id="text_13">
      <!-- 3000 -->
      <defs>
       <path d="M 40.578125 39.3125 
Q 47.65625 37.796875 51.625 33 
Q 55.609375 28.21875 55.609375 21.1875 
Q 55.609375 10.40625 48.1875 4.484375 
Q 40.765625 -1.421875 27.09375 -1.421875 
Q 22.515625 -1.421875 17.65625 -0.515625 
Q 12.796875 0.390625 7.625 2.203125 
L 7.625 11.71875 
Q 11.71875 9.328125 16.59375 8.109375 
Q 21.484375 6.890625 26.8125 6.890625 
Q 36.078125 6.890625 40.9375 10.546875 
Q 45.796875 14.203125 45.796875 21.1875 
Q 45.796875 27.640625 41.28125 31.265625 
Q 36.765625 34.90625 28.71875 34.90625 
L 20.21875 34.90625 
L 20.21875 43.015625 
L 29.109375 43.015625 
Q 36.375 43.015625 40.234375 45.921875 
Q 44.09375 48.828125 44.09375 54.296875 
Q 44.09375 59.90625 40.109375 62.90625 
Q 36.140625 65.921875 28.71875 65.921875 
Q 24.65625 65.921875 20.015625 65.03125 
Q 15.375 64.15625 9.8125 62.3125 
L 9.8125 71.09375 
Q 15.4375 72.65625 20.34375 73.4375 
Q 25.25 74.21875 29.59375 74.21875 
Q 40.828125 74.21875 47.359375 69.109375 
Q 53.90625 64.015625 53.90625 55.328125 
Q 53.90625 49.265625 50.4375 45.09375 
Q 46.96875 40.921875 40.578125 39.3125 
z
" id="DejaVuSans-33"/>
      </defs>
      <g transform="translate(108.6 361.368895)scale(0.2 -0.2)">
       <use xlink:href="#DejaVuSans-33"/>
       <use x="63.623047" xlink:href="#DejaVuSans-30"/>
       <use x="127.246094" xlink:href="#DejaVuSans-30"/>
       <use x="190.869141" xlink:href="#DejaVuSans-30"/>
      </g>
     </g>
    </g>
    <g id="ytick_5">
     <g id="line2d_14">
      <g>
       <use style="stroke:#000000;stroke-width:0.8;" x="166.5" xlink:href="#m70bc7e6901" y="259.968009"/>
      </g>
     </g>
     <g id="text_14">
      <!-- 4000 -->
      <defs>
       <path d="M 37.796875 64.3125 
L 12.890625 25.390625 
L 37.796875 25.390625 
z
M 35.203125 72.90625 
L 47.609375 72.90625 
L 47.609375 25.390625 
L 58.015625 25.390625 
L 58.015625 17.1875 
L 47.609375 17.1875 
L 47.609375 0 
L 37.796875 0 
L 37.796875 17.1875 
L 4.890625 17.1875 
L 4.890625 26.703125 
z
" id="DejaVuSans-34"/>
      </defs>
      <g transform="translate(108.6 267.566446)scale(0.2 -0.2)">
       <use xlink:href="#DejaVuSans-34"/>
       <use x="63.623047" xlink:href="#DejaVuSans-30"/>
       <use x="127.246094" xlink:href="#DejaVuSans-30"/>
       <use x="190.869141" xlink:href="#DejaVuSans-30"/>
      </g>
     </g>
    </g>
    <g id="ytick_6">
     <g id="line2d_15">
      <g>
       <use style="stroke:#000000;stroke-width:0.8;" x="166.5" xlink:href="#m70bc7e6901" y="166.165561"/>
      </g>
     </g>
     <g id="text_15">
      <!-- 5000 -->
      <g transform="translate(108.6 173.763998)scale(0.2 -0.2)">
       <use xlink:href="#DejaVuSans-35"/>
       <use x="63.623047" xlink:href="#DejaVuSans-30"/>
       <use x="127.246094" xlink:href="#DejaVuSans-30"/>
       <use x="190.869141" xlink:href="#DejaVuSans-30"/>
      </g>
     </g>
    </g>
   </g>
   <g id="line2d_16">
    <path clip-path="url(#pbee339d747)" d="M 213.422727 633.927106 
L 218.138579 630.5252 
L 222.854431 635.111099 
L 227.570283 635.0519 
L 232.286135 633.500201 
L 237.001987 632.292851 
L 241.717839 633.65945 
L 246.433691 631.144709 
L 251.149543 632.950725 
L 255.865395 634.193917 
L 260.581247 635.144446 
L 265.297099 635.111099 
L 270.012951 631.425704 
L 274.728803 625.854251 
L 279.444655 620.670522 
L 284.160507 624.059923 
L 288.876359 612.106564 
L 293.592211 615.504305 
L 298.308063 611.67466 
L 303.023915 623.791432 
L 307.739767 627.579391 
L 312.455619 632.480456 
L 317.171471 623.281147 
L 326.603175 634.274794 
L 331.319027 631.889294 
L 336.034879 628.549927 
L 340.750731 627.096618 
L 345.466583 633.900419 
L 350.182435 632.67474 
L 354.898287 633.74784 
L 359.614139 633.79703 
L 364.329991 634.920155 
L 369.045843 630.122478 
L 373.761695 632.0719 
L 378.477547 630.418472 
L 383.193399 624.596051 
L 387.909251 630.195016 
L 392.625103 631.091355 
L 397.340955 633.769518 
L 402.056807 631.153883 
L 406.772659 621.843681 
L 411.488511 630.128313 
L 416.204363 631.306472 
L 420.920215 634.701698 
L 425.636067 632.086908 
L 430.351919 634.743393 
L 435.067771 626.889005 
L 439.783623 630.011576 
L 444.499475 635.027718 
L 449.215327 628.815079 
L 453.931179 635.144446 
L 458.647031 626.457926 
L 463.362883 620.948177 
L 468.078735 634.702533 
L 472.794587 630.965444 
L 477.510439 630.987956 
L 482.226291 633.697806 
L 486.942143 633.442663 
L 491.657995 631.854278 
L 496.373847 632.446275 
L 501.089698 619.848399 
L 505.80555 623.131898 
L 510.521402 633.927106 
L 515.237254 633.823707 
L 519.953106 632.107751 
L 524.668958 631.109693 
L 529.38481 634.961015 
L 534.100662 634.975189 
L 538.816514 633.711144 
L 543.532366 635.044396 
L 548.248218 635.130272 
L 552.96407 630.887072 
L 557.679922 633.719483 
L 562.395774 634.21643 
L 567.111626 634.981858 
L 571.827478 633.664459 
L 576.54333 631.249768 
L 581.259182 633.793691 
L 585.975034 633.850394 
L 590.690886 630.323422 
L 595.406738 630.06661 
L 600.12259 633.812873 
L 604.838442 633.481019 
L 609.554294 634.809261 
L 614.270146 635.001041 
L 618.985998 632.370398 
L 623.70185 635.006875 
L 628.417702 633.719483 
L 633.133554 634.850957 
L 637.849406 633.691136 
L 642.565258 635.070239 
L 651.996962 635.071073 
L 670.86037 635.099421 
L 675.576222 634.838443 
L 680.292074 634.810931 
L 685.007926 635.144446 
L 689.723778 635.067743 
L 694.43963 633.89375 
L 699.155482 635.103595 
L 703.871334 633.864568 
L 708.587186 633.927106 
L 713.303038 634.853452 
L 718.01889 632.481291 
L 722.734742 633.724492 
L 727.450594 633.740336 
L 732.166446 634.77174 
L 736.882298 630.435985 
L 741.59815 633.397638 
L 746.314002 633.635277 
L 751.029854 629.607184 
L 755.745706 631.019643 
L 760.461558 634.268125 
L 765.17741 631.97351 
L 769.893262 630.108305 
L 774.609114 631.36567 
L 779.324966 630.031593 
L 784.040818 631.484903 
L 788.75667 631.615813 
L 793.472522 633.799534 
L 798.188374 634.160571 
L 802.904226 631.037155 
L 807.620078 633.639442 
L 812.33593 630.789517 
L 817.051782 621.002376 
L 821.767634 613.694124 
L 826.483486 628.114684 
L 831.199338 622.719167 
L 835.91519 632.653888 
L 840.631042 625.614952 
L 845.346894 619.262237 
L 850.062746 620.467908 
L 854.778598 627.443481 
L 859.49445 626.14442 
L 864.210302 629.727251 
L 868.926153 624.336743 
L 873.642005 623.554637 
L 878.357857 631.458225 
L 883.073709 632.963229 
L 887.789561 632.607202 
L 892.505413 633.84122 
L 897.221265 628.419026 
L 901.937117 630.641928 
L 906.652969 625.20723 
L 911.368821 627.950426 
L 916.084673 631.991023 
L 920.800525 631.996858 
L 925.516377 622.783375 
L 930.232229 632.943221 
L 934.948081 631.492407 
L 939.663933 632.6764 
L 944.379785 628.686672 
L 949.095637 627.26004 
L 953.811489 622.374809 
L 958.527341 623.266973 
L 963.243193 627.620242 
L 967.959045 629.138594 
L 972.674897 630.305074 
L 977.390749 116.664545 
L 982.106601 168.777021 
L 986.822453 146.236086 
L 991.538305 156.204988 
L 996.254157 131.632086 
L 1000.970009 471.809788 
L 1005.685861 633.993809 
L 1010.401713 635.0519 
L 1015.117565 633.815378 
L 1019.833417 631.87846 
L 1024.549269 634.856791 
L 1029.265121 635.10776 
L 1038.696825 635.072743 
L 1043.412677 633.582748 
L 1048.128529 635.010205 
L 1052.844381 633.430159 
L 1057.560233 633.843725 
L 1062.276085 635.067743 
L 1066.991937 635.056065 
L 1071.707789 633.523539 
L 1076.423641 634.82927 
L 1081.139493 634.604978 
L 1085.855345 632.349555 
L 1090.571197 630.240041 
L 1095.287049 631.102189 
L 1100.002901 632.433771 
L 1104.718753 633.89375 
L 1109.434605 635.09776 
L 1118.866309 635.10776 
L 1123.582161 634.808427 
L 1133.013865 635.144446 
L 1137.729717 631.351497 
L 1142.445569 631.298133 
L 1147.161421 633.828716 
L 1151.877273 632.660557 
L 1151.877273 632.660557 
" style="fill:none;stroke:#1f77b4;stroke-linecap:square;stroke-width:1.5;"/>
   </g>
   <g id="line2d_17">
    <path clip-path="url(#pbee339d747)" d="M 213.422727 632.704206 
L 218.138579 630.545439 
L 222.854431 633.452589 
L 227.570283 633.415206 
L 232.286135 632.433992 
L 237.001987 631.668712 
L 241.717839 632.534815 
L 246.433691 630.9395 
L 251.149543 632.085905 
L 255.865395 632.872988 
L 260.581247 633.473642 
L 265.297099 633.452589 
L 270.012951 631.118098 
L 274.728803 627.56101 
L 279.444655 624.221623 
L 284.160507 626.408329 
L 288.876359 618.642603 
L 293.592211 620.865251 
L 298.308063 618.359212 
L 303.023915 626.235555 
L 307.739767 628.665991 
L 312.455619 631.787731 
L 317.171471 625.906977 
L 326.603175 632.924137 
L 331.319027 631.412567 
L 336.034879 629.286232 
L 340.750731 628.35709 
L 345.466583 632.687318 
L 350.182435 631.910945 
L 354.898287 632.590762 
L 359.614139 632.621894 
L 364.329991 633.332 
L 369.045843 630.289053 
L 373.761695 631.528492 
L 378.477547 630.477509 
L 383.193399 626.753101 
L 387.909251 630.335247 
L 392.625103 630.905576 
L 397.340955 632.604482 
L 402.056807 630.945333 
L 406.772659 624.979879 
L 411.488511 630.292764 
L 416.204363 631.042324 
L 420.920215 633.193989 
L 425.636067 631.538017 
L 430.351919 633.220332 
L 435.067771 628.224171 
L 439.783623 630.218417 
L 444.499475 633.399937 
L 449.215327 629.455507 
L 453.931179 633.473642 
L 458.647031 627.948036 
L 463.362883 624.401216 
L 468.078735 633.194514 
L 472.794587 630.825512 
L 477.510439 630.839829 
L 482.226291 632.559095 
L 486.942143 632.397557 
L 491.657995 631.390332 
L 496.373847 631.766049 
L 501.089698 623.689389 
L 505.80555 625.810819 
L 510.521402 632.704207 
L 515.237254 632.638776 
L 519.953106 631.551248 
L 524.668958 630.917233 
L 529.38481 633.35781 
L 534.100662 633.366762 
L 538.816514 632.567535 
L 543.532366 633.41047 
L 548.248218 633.464699 
L 552.96407 630.775668 
L 557.679922 632.572815 
L 562.395774 632.887223 
L 567.111626 633.370977 
L 571.827478 632.537983 
L 576.54333 631.006285 
L 581.259182 632.619783 
L 585.975034 632.655664 
L 590.690886 630.417 
L 595.406738 630.25347 
L 600.12259 632.631925 
L 604.838442 632.421846 
L 609.554294 633.261947 
L 614.270146 633.383092 
L 618.985998 631.717912 
L 623.70185 633.386771 
L 628.417702 632.572815 
L 633.133554 633.288289 
L 637.849406 632.55487 
L 642.565258 633.426784 
L 661.428666 633.452589 
L 680.292074 633.263 
L 685.007926 633.473642 
L 689.723778 633.425212 
L 694.43963 632.683102 
L 699.155482 633.447851 
L 703.871334 632.664635 
L 708.587186 632.704206 
L 713.303038 633.289863 
L 718.01889 631.788261 
L 722.734742 632.575986 
L 727.450594 632.586011 
L 732.166446 633.238245 
L 736.882298 630.488657 
L 741.59815 632.369044 
L 746.314002 632.519509 
L 751.029854 629.960739 
L 755.745706 630.859978 
L 760.461558 632.919919 
L 765.17741 631.466032 
L 769.893262 630.280029 
L 774.609114 631.07995 
L 779.324966 630.231167 
L 784.040818 631.155711 
L 788.75667 631.238881 
L 793.472522 632.623479 
L 798.188374 632.851896 
L 802.904226 630.871112 
L 807.620078 632.522149 
L 812.33593 630.713616 
L 817.051782 624.436262 
L 821.767634 619.682605 
L 826.483486 629.008205 
L 831.199338 625.544788 
L 835.91519 631.89772 
L 840.631042 627.407482 
L 845.346894 623.309478 
L 850.062746 624.090521 
L 854.778598 628.579054 
L 859.49445 627.747091 
L 864.210302 630.037263 
L 868.926153 626.586384 
L 873.642005 626.083114 
L 878.357857 631.138764 
L 883.073709 632.093829 
L 887.789561 631.868118 
L 892.505413 632.649859 
L 897.221265 629.20264 
L 901.937117 630.619718 
L 906.652969 627.145757 
L 911.368821 628.903227 
L 916.084673 631.477153 
L 920.800525 631.480859 
L 925.516377 625.586185 
L 930.232229 632.081145 
L 934.948081 631.160481 
L 939.663933 631.912 
L 944.379785 629.37354 
L 949.095637 628.461681 
L 953.811489 625.322686 
L 958.527341 625.897844 
L 963.243193 628.692118 
L 967.959045 629.661939 
L 972.674897 630.405322 
L 977.390749 258.697348 
L 982.106601 292.086691 
L 986.822453 277.356546 
L 991.538305 283.817717 
L 996.254157 268.046104 
L 1000.970009 518.097392 
L 1005.685861 632.746408 
L 1010.401713 633.415206 
L 1015.117565 632.633506 
L 1019.833417 631.405687 
L 1024.549269 633.291975 
L 1029.265121 633.450483 
L 1038.696825 633.428371 
L 1043.412677 632.486258 
L 1048.128529 633.388876 
L 1052.844381 632.389643 
L 1057.560233 632.651446 
L 1062.276085 633.425212 
L 1066.991937 633.417841 
L 1071.707789 632.448769 
L 1076.423641 633.27459 
L 1081.139493 633.13287 
L 1090.571197 630.363911 
L 1095.287049 630.912463 
L 1109.434605 633.444168 
L 1118.866309 633.450483 
L 1123.582161 633.26142 
L 1133.013865 633.473642 
L 1137.729717 631.07094 
L 1142.445569 631.037022 
L 1147.161421 632.641946 
L 1151.877273 631.901954 
L 1151.877273 631.901954 
" style="fill:none;stroke:#ff0000;stroke-linecap:square;stroke-width:1.5;"/>
   </g>
   <g id="line2d_18">
    <path clip-path="url(#pbee339d747)" d="M 213.422727 632.660532 
L 218.138579 630.993969 
L 222.854431 633.23831 
L 227.570283 633.20945 
L 232.286135 632.451919 
L 237.001987 631.861118 
L 241.717839 632.529755 
L 246.433691 631.298174 
L 251.149543 632.18319 
L 255.865395 632.790838 
L 260.581247 633.254566 
L 265.297099 633.23831 
L 270.012951 631.436046 
L 274.728803 628.69022 
L 279.444655 626.112791 
L 284.160507 627.800512 
L 288.876359 621.807538 
L 293.592211 623.522603 
L 298.308063 621.588878 
L 303.023915 627.667157 
L 307.739767 629.543151 
L 312.455619 631.952999 
L 317.171471 627.41355 
L 326.603175 632.830323 
L 331.319027 631.663375 
L 336.034879 630.021925 
L 340.750731 629.304706 
L 345.466583 632.647494 
L 350.182435 632.048121 
L 354.898287 632.572948 
L 359.614139 632.596983 
L 364.329991 633.14521 
L 369.045843 630.796048 
L 373.761695 631.752868 
L 378.477547 630.941528 
L 383.193399 628.066622 
L 387.909251 630.831706 
L 392.625103 631.271983 
L 397.340955 632.583542 
L 402.056807 631.302674 
L 406.772659 626.698003 
L 411.488511 630.798914 
L 416.204363 631.377552 
L 420.920215 633.038657 
L 425.636067 631.760221 
L 430.351919 633.058998 
L 435.067771 629.202106 
L 439.783623 630.741522 
L 444.499475 633.19766 
L 449.215327 630.152597 
L 453.931179 633.254566 
L 458.647031 628.988959 
L 463.362883 626.251395 
L 468.078735 633.039064 
L 472.794587 631.210179 
L 477.510439 631.221229 
L 482.226291 632.548501 
L 486.942143 632.423791 
L 491.657995 631.646207 
L 496.373847 631.936259 
L 501.089698 625.702029 
L 505.80555 627.339332 
L 510.521402 632.660531 
L 515.237254 632.610015 
L 519.953106 631.770433 
L 524.668958 631.280983 
L 529.38481 633.165136 
L 534.100662 633.172047 
L 538.816514 632.555017 
L 543.532366 633.205793 
L 548.248218 633.247659 
L 552.96407 631.171699 
L 557.679922 632.559092 
L 562.395774 632.801825 
L 567.111626 633.175299 
L 571.827478 632.532204 
L 576.54333 631.349728 
L 581.259182 632.595352 
L 585.975034 632.623055 
L 590.690886 630.89482 
L 595.406738 630.768579 
L 600.12259 632.604724 
L 604.838442 632.442541 
L 609.554294 633.091128 
L 614.270146 633.184655 
L 618.985998 631.899099 
L 623.70185 633.187497 
L 628.417702 632.559092 
L 633.133554 633.111463 
L 637.849406 632.54524 
L 642.565258 633.218389 
L 670.86037 633.232618 
L 675.576222 633.10536 
L 680.292074 633.091939 
L 685.007926 633.254566 
L 689.723778 633.217172 
L 694.43963 632.644236 
L 699.155482 633.234652 
L 703.871334 632.629983 
L 708.587186 632.660532 
L 713.303038 633.112678 
L 718.01889 631.953407 
L 722.734742 632.561541 
L 727.450594 632.56928 
L 732.166446 633.072827 
L 736.882298 630.950134 
L 741.59815 632.401778 
L 746.314002 632.51794 
L 751.029854 630.542606 
L 755.745706 631.236785 
L 760.461558 632.827066 
L 765.17741 631.704651 
L 769.893262 630.78908 
L 774.609114 631.406596 
L 779.324966 630.751362 
L 784.040818 631.465083 
L 788.75667 631.529289 
L 793.472522 632.598207 
L 798.188374 632.774552 
L 802.904226 631.245379 
L 807.620078 632.519977 
L 812.33593 631.123797 
L 817.051782 626.278443 
L 821.767634 622.610016 
L 826.483486 629.80731 
L 831.199338 627.134004 
L 835.91519 632.037913 
L 840.631042 628.571716 
L 845.346894 625.408833 
L 850.062746 626.011609 
L 854.778598 629.476042 
L 859.49445 628.833852 
L 864.210302 630.601678 
L 868.926153 627.937944 
L 873.642005 627.549498 
L 878.357857 631.452 
L 883.073709 632.189308 
L 887.789561 632.015057 
L 892.505413 632.618575 
L 897.221265 629.957397 
L 901.937117 631.051312 
L 906.652969 628.369699 
L 911.368821 629.726277 
L 916.084673 631.713234 
L 920.800525 631.716094 
L 925.516377 627.165956 
L 930.232229 632.179516 
L 934.948081 631.468767 
L 939.663933 632.048931 
L 944.379785 630.089323 
L 949.095637 629.385442 
L 953.811489 626.962583 
L 958.527341 627.406501 
L 963.243193 629.563319 
L 967.959045 630.311949 
L 972.674897 630.885804 
L 977.390749 349.581844 
L 982.106601 374.140863 
L 986.822453 363.283665 
L 991.538305 368.04162 
L 996.254157 356.439567 
L 1000.970009 544.474201 
L 1005.685861 632.693112 
L 1010.401713 633.20945 
L 1015.117565 632.605948 
L 1019.833417 631.658064 
L 1024.549269 633.114312 
L 1029.265121 633.236683 
L 1038.696825 633.219612 
L 1043.412677 632.49227 
L 1048.128529 633.189121 
L 1052.844381 632.417678 
L 1057.560233 632.619798 
L 1062.276085 633.217172 
L 1066.991937 633.211482 
L 1071.707789 632.463328 
L 1076.423641 633.100887 
L 1081.139493 632.99147 
L 1090.571197 630.853839 
L 1095.287049 631.277301 
L 1109.434605 633.23181 
L 1118.866309 633.236683 
L 1123.582161 633.090719 
L 1133.013865 633.254566 
L 1137.729717 631.399641 
L 1142.445569 631.373459 
L 1147.161421 632.612465 
L 1151.877273 632.041178 
L 1151.877273 632.041178 
" style="fill:none;stroke:#ff0000;stroke-linecap:square;stroke-width:1.5;"/>
   </g>
   <g id="line2d_19">
    <path clip-path="url(#pbee339d747)" d="M 213.422727 631.956031 
L 218.138579 630.861192 
L 222.854431 632.335704 
L 227.570283 632.316736 
L 237.001987 631.430804 
L 241.717839 631.870101 
L 246.433691 631.061004 
L 251.149543 631.642398 
L 260.581247 632.346387 
L 265.297099 632.335704 
L 270.012951 631.151569 
L 279.444655 627.657034 
L 284.160507 628.76449 
L 288.876359 624.833945 
L 293.592211 625.958236 
L 298.308063 624.690636 
L 303.023915 628.676968 
L 307.739767 629.908442 
L 312.455619 631.491168 
L 317.171471 628.510533 
L 326.603175 632.067599 
L 331.319027 631.3009 
L 336.034879 630.222816 
L 340.750731 629.751887 
L 345.466583 631.947465 
L 350.182435 631.553659 
L 354.898287 631.898482 
L 359.614139 631.914275 
L 364.329991 632.274522 
L 369.045843 630.731197 
L 373.761695 631.35969 
L 378.477547 630.826748 
L 383.193399 628.939147 
L 387.909251 630.754618 
L 392.625103 631.0438 
L 397.340955 631.905442 
L 402.056807 631.06396 
L 406.772659 628.040991 
L 411.488511 630.733081 
L 416.204363 631.113145 
L 420.920215 632.204502 
L 425.636067 631.364522 
L 430.351919 632.217867 
L 435.067771 629.684527 
L 439.783623 630.695385 
L 444.499475 632.308988 
L 449.215327 630.308623 
L 453.931179 632.346387 
L 458.647031 629.544594 
L 463.362883 627.747969 
L 468.078735 632.204767 
L 472.794587 631.003203 
L 477.510439 631.010462 
L 482.226291 631.882419 
L 486.942143 631.800477 
L 491.657995 631.289625 
L 496.373847 631.48017 
L 501.089698 627.387566 
L 505.80555 628.461829 
L 510.521402 631.956031 
L 515.237254 631.922839 
L 519.953106 631.371231 
L 524.668958 631.049713 
L 529.38481 632.287617 
L 534.100662 632.292158 
L 538.816514 631.886699 
L 543.532366 632.314334 
L 548.248218 632.341846 
L 552.96407 630.977928 
L 557.679922 631.889378 
L 567.111626 632.294295 
L 571.827478 631.87171 
L 576.54333 631.094869 
L 581.259182 631.913202 
L 585.975034 631.931404 
L 590.690886 630.796071 
L 595.406738 630.713157 
L 600.12259 631.91936 
L 604.838442 631.812799 
L 609.554294 632.23898 
L 614.270146 632.300442 
L 618.985998 631.455756 
L 623.70185 632.302312 
L 628.417702 631.889378 
L 633.133554 632.252343 
L 637.849406 631.880276 
L 642.565258 632.322613 
L 670.86037 632.331961 
L 680.292074 632.239513 
L 685.007926 632.346387 
L 689.723778 632.321813 
L 694.43963 631.945323 
L 699.155482 632.333299 
L 703.871334 631.935956 
L 708.587186 631.956031 
L 713.303038 632.253143 
L 718.01889 631.491437 
L 722.734742 631.890986 
L 727.450594 631.896073 
L 732.166446 632.226955 
L 736.882298 630.832401 
L 741.59815 631.786016 
L 746.314002 631.86234 
L 751.029854 630.564747 
L 755.745706 631.02068 
L 760.461558 632.065459 
L 765.17741 631.328014 
L 769.893262 630.726621 
L 774.609114 631.132223 
L 779.324966 630.701848 
L 784.040818 631.170643 
L 788.75667 631.212819 
L 793.472522 631.915081 
L 798.188374 632.030953 
L 802.904226 631.026326 
L 807.620078 631.863677 
L 812.33593 630.946465 
L 817.051782 627.765715 
L 821.767634 625.359946 
L 826.483486 630.08189 
L 831.199338 628.327086 
L 835.91519 631.546951 
L 840.631042 629.270688 
L 845.346894 627.195237 
L 850.062746 627.590654 
L 854.778598 629.864381 
L 859.49445 629.442768 
L 864.210302 630.603542 
L 868.926153 628.854689 
L 873.642005 628.599751 
L 878.357857 631.162048 
L 883.073709 631.646416 
L 887.789561 631.531936 
L 892.505413 631.928461 
L 897.221265 630.180443 
L 901.937117 630.898855 
L 906.652969 629.138081 
L 911.368821 630.028683 
L 916.084673 631.333654 
L 920.800525 631.335533 
L 925.516377 628.348053 
L 930.232229 631.639985 
L 934.948081 631.173061 
L 939.663933 631.554193 
L 944.379785 630.267074 
L 949.095637 629.804894 
L 953.811489 628.2146 
L 958.527341 628.505908 
L 963.243193 629.921683 
L 967.959045 630.41327 
L 972.674897 630.790148 
L 977.390749 449.700533 
L 982.106601 465.295041 
L 986.822453 458.395363 
L 991.538305 461.418019 
L 996.254157 454.05045 
L 1000.970009 574.510742 
L 1005.685861 631.977439 
L 1010.401713 632.316736 
L 1015.117565 631.920165 
L 1019.833417 631.297411 
L 1024.549269 632.254214 
L 1033.980973 632.313531 
L 1038.696825 632.323418 
L 1043.412677 631.845472 
L 1048.128529 632.303377 
L 1052.844381 631.796463 
L 1057.560233 631.929266 
L 1062.276085 632.321813 
L 1066.991937 632.318073 
L 1071.707789 631.826455 
L 1076.423641 632.245394 
L 1081.139493 632.173492 
L 1090.571197 630.769153 
L 1095.287049 631.047294 
L 1109.434605 632.331431 
L 1133.013865 632.346387 
L 1137.729717 631.127655 
L 1142.445569 631.110456 
L 1147.161421 631.924446 
L 1151.877273 631.549098 
L 1151.877273 631.549098 
" style="fill:none;stroke:#ff0000;stroke-linecap:square;stroke-width:1.5;"/>
   </g>
   <g id="line2d_20">
    <path clip-path="url(#pbee339d747)" d="M 213.422727 629.888655 
L 218.138579 629.30302 
L 222.854431 630.091672 
L 227.570283 630.08153 
L 237.001987 629.607748 
L 241.717839 629.842704 
L 246.433691 629.409924 
L 255.865395 629.934441 
L 260.581247 630.097382 
L 265.297099 630.091672 
L 270.012951 629.458375 
L 279.444655 627.587345 
L 284.160507 628.180626 
L 288.876359 626.073623 
L 293.592211 626.67669 
L 298.308063 625.996733 
L 303.023915 628.133751 
L 307.739767 628.793137 
L 312.455619 629.640035 
L 317.171471 628.044603 
L 326.603175 629.948316 
L 331.319027 629.538259 
L 336.034879 628.961407 
L 340.750731 628.709332 
L 345.466583 629.884075 
L 350.182435 629.67346 
L 354.898287 629.85788 
L 359.614139 629.866327 
L 364.329991 630.05896 
L 369.045843 629.233465 
L 373.761695 629.569709 
L 378.477547 629.284591 
L 383.193399 628.274166 
L 387.909251 629.245996 
L 392.625103 629.40072 
L 397.340955 629.861603 
L 402.056807 629.411506 
L 406.772659 627.793071 
L 411.488511 629.234472 
L 416.204363 629.437818 
L 420.920215 630.02152 
L 425.636067 629.572294 
L 430.351919 630.028667 
L 435.067771 628.673271 
L 439.783623 629.214303 
L 444.499475 630.077389 
L 449.215327 629.00733 
L 453.931179 630.097382 
L 458.647031 628.598357 
L 463.362883 627.636071 
L 468.078735 630.021663 
L 472.794587 629.379001 
L 477.510439 629.382884 
L 482.226291 629.84929 
L 486.942143 629.805468 
L 491.657995 629.532227 
L 496.373847 629.634154 
L 501.089698 627.442941 
L 505.80555 628.018516 
L 510.521402 629.888655 
L 515.237254 629.870905 
L 519.953106 629.575882 
L 524.668958 629.403883 
L 529.38481 630.065961 
L 534.100662 630.068389 
L 538.816514 629.85158 
L 543.532366 630.080246 
L 548.248218 630.094955 
L 552.96407 629.365478 
L 557.679922 629.853012 
L 567.111626 630.069534 
L 571.827478 629.843564 
L 576.54333 629.428041 
L 581.259182 629.865754 
L 585.975034 629.875487 
L 590.690886 629.268176 
L 595.406738 629.223812 
L 600.12259 629.869047 
L 604.838442 629.812057 
L 609.554294 630.039956 
L 614.270146 630.072819 
L 618.985998 629.621094 
L 623.70185 630.073818 
L 628.417702 629.853012 
L 633.133554 630.047102 
L 637.849406 629.848144 
L 642.565258 630.084673 
L 689.723778 630.084245 
L 694.43963 629.882929 
L 699.155482 630.090386 
L 703.871334 629.877921 
L 708.587186 629.888655 
L 713.303038 630.047529 
L 718.01889 629.640179 
L 722.734742 629.853871 
L 727.450594 629.856592 
L 732.166446 630.033527 
L 736.882298 629.287616 
L 741.59815 629.797734 
L 746.314002 629.838551 
L 751.029854 629.144397 
L 755.745706 629.38835 
L 760.461558 629.947171 
L 769.893262 629.231016 
L 774.609114 629.448024 
L 779.324966 629.21776 
L 784.040818 629.468579 
L 788.75667 629.491141 
L 793.472522 629.866756 
L 798.188374 629.92872 
L 802.904226 629.391371 
L 807.620078 629.839267 
L 812.33593 629.348644 
L 817.051782 627.64558 
L 821.767634 626.355807 
L 826.483486 628.885979 
L 831.199338 627.946338 
L 835.91519 629.669873 
L 845.346894 627.339864 
L 850.062746 627.551776 
L 854.778598 628.769551 
L 859.49445 628.543839 
L 864.210302 629.165157 
L 868.926153 628.228934 
L 873.642005 628.092392 
L 878.357857 629.463981 
L 883.073709 629.723073 
L 887.789561 629.661842 
L 892.505413 629.873913 
L 897.221265 628.938728 
L 901.937117 629.323171 
L 906.652969 628.380696 
L 911.368821 628.8575 
L 916.084673 629.555781 
L 920.800525 629.556786 
L 925.516377 627.95757 
L 930.232229 629.719633 
L 934.948081 629.469873 
L 939.663933 629.673747 
L 944.379785 628.985093 
L 949.095637 628.737708 
L 953.811489 627.886081 
L 958.527341 628.042127 
L 963.243193 628.800226 
L 972.674897 629.265008 
L 977.390749 530.726955 
L 982.106601 539.19013 
L 986.822453 535.441524 
L 991.538305 537.082964 
L 996.254157 533.084211 
L 1000.970009 598.841236 
L 1005.685861 629.900104 
L 1010.401713 630.08153 
L 1015.117565 629.869475 
L 1019.833417 629.536393 
L 1024.549269 630.048102 
L 1038.696825 630.085102 
L 1043.412677 629.829531 
L 1048.128529 630.074387 
L 1052.844381 629.803321 
L 1057.560233 629.874342 
L 1062.276085 630.084245 
L 1066.991937 630.082245 
L 1071.707789 629.819361 
L 1076.423641 630.043385 
L 1081.139493 630.004941 
L 1090.571197 629.253775 
L 1100.002901 629.632002 
L 1109.434605 630.089388 
L 1133.013865 630.097382 
L 1137.729717 629.445582 
L 1142.445569 629.436381 
L 1147.161421 629.871766 
L 1151.877273 629.671021 
L 1151.877273 629.671021 
" style="fill:none;stroke:#ff0000;stroke-linecap:square;stroke-width:1.5;"/>
   </g>
   <g id="line2d_21">
    <path clip-path="url(#pbee339d747)" d="M 213.422727 627.845213 
L 218.138579 627.627919 
L 222.854431 627.920638 
L 232.286135 627.817992 
L 237.001987 627.740933 
L 241.717839 627.828148 
L 246.433691 627.667553 
L 260.581247 627.922762 
L 265.297099 627.920638 
L 270.012951 627.685521 
L 279.444655 626.993735 
L 284.160507 627.212629 
L 288.876359 626.437189 
L 293.592211 626.658581 
L 298.308063 626.408994 
L 303.023915 627.195318 
L 312.455619 627.752915 
L 317.171471 627.162405 
L 326.603175 627.867375 
L 340.750731 627.40806 
L 345.466583 627.843512 
L 350.182435 627.765318 
L 364.329991 627.908483 
L 369.045843 627.602138 
L 373.761695 627.726819 
L 378.477547 627.621087 
L 383.193399 627.24718 
L 387.909251 627.606782 
L 392.625103 627.664139 
L 397.340955 627.835168 
L 402.056807 627.668139 
L 406.772659 627.06959 
L 411.488511 627.60251 
L 416.204363 627.677897 
L 420.920215 627.894571 
L 425.636067 627.727777 
L 430.351919 627.897227 
L 435.067771 627.39472 
L 439.783623 627.595036 
L 444.499475 627.91533 
L 449.215327 627.518363 
L 453.931179 627.922762 
L 458.647031 627.36701 
L 463.362883 627.011697 
L 468.078735 627.894624 
L 472.794587 627.656085 
L 477.510439 627.657527 
L 482.226291 627.830594 
L 496.373847 627.750731 
L 501.089698 626.940521 
L 505.80555 627.152775 
L 510.521402 627.845214 
L 519.953106 627.729109 
L 524.668958 627.665312 
L 529.38481 627.911084 
L 548.248218 627.92186 
L 552.96407 627.651072 
L 557.679922 627.831976 
L 571.827478 627.828468 
L 576.54333 627.674271 
L 581.259182 627.836708 
L 585.975034 627.840324 
L 590.690886 627.615002 
L 595.406738 627.598561 
L 600.12259 627.837931 
L 609.554294 627.901422 
L 614.270146 627.913633 
L 618.985998 627.745885 
L 623.70185 627.914005 
L 628.417702 627.831976 
L 633.133554 627.904076 
L 637.849406 627.830169 
L 647.28111 627.920638 
L 713.303038 627.904235 
L 718.01889 627.752967 
L 732.166446 627.899031 
L 736.882298 627.622207 
L 741.59815 627.81145 
L 746.314002 627.826608 
L 751.029854 627.569133 
L 755.745706 627.659553 
L 760.461558 627.866949 
L 769.893262 627.60123 
L 774.609114 627.681681 
L 779.324966 627.596318 
L 798.188374 627.860095 
L 802.904226 627.660673 
L 807.620078 627.826872 
L 812.33593 627.644832 
L 817.051782 627.015202 
L 821.767634 626.540726 
L 826.483486 627.473431 
L 831.199338 627.126136 
L 835.91519 627.763986 
L 845.346894 626.902553 
L 850.062746 626.980625 
L 854.778598 627.430342 
L 859.49445 627.34685 
L 864.210302 627.576825 
L 868.926153 627.230473 
L 873.642005 627.180048 
L 878.357857 627.6876 
L 883.073709 627.783734 
L 892.505413 627.839737 
L 897.221265 627.49296 
L 901.937117 627.635387 
L 906.652969 627.286542 
L 920.800525 627.722025 
L 925.516377 627.130282 
L 930.232229 627.782456 
L 934.948081 627.689785 
L 939.663933 627.765424 
L 944.379785 627.510128 
L 949.095637 627.418558 
L 953.811489 627.103901 
L 958.527341 627.161491 
L 963.243193 627.441693 
L 972.674897 627.613827 
L 977.390749 597.985604 
L 982.106601 599.871285 
L 986.822453 599.016723 
L 991.538305 599.387193 
L 996.254157 598.494967 
L 1000.970009 616.915357 
L 1005.685861 627.849466 
L 1010.401713 627.916871 
L 1019.833417 627.714459 
L 1024.549269 627.904449 
L 1038.696825 627.918197 
L 1043.412677 627.823258 
L 1048.128529 627.914217 
L 1052.844381 627.813525 
L 1081.139493 627.88841 
L 1090.571197 627.609664 
L 1123.582161 627.901368 
L 1133.013865 627.922762 
L 1137.729717 627.680775 
L 1142.445569 627.677364 
L 1147.161421 627.838941 
L 1151.877273 627.764412 
L 1151.877273 627.764412 
" style="fill:none;stroke:#ff0000;stroke-linecap:square;stroke-width:1.5;"/>
   </g>
   <g id="line2d_22">
    <path clip-path="url(#pbee339d747)" d="M 213.422727 626.591892 
L 237.001987 626.60223 
L 274.728803 626.643545 
L 298.308063 626.737645 
L 312.455619 626.60104 
L 321.887323 626.62486 
L 336.034879 626.626136 
L 383.193399 626.651724 
L 402.056807 626.609472 
L 406.772659 626.669735 
L 420.920215 626.587013 
L 449.215327 626.624432 
L 458.647031 626.639631 
L 463.362883 626.67563 
L 468.078735 626.587008 
L 491.657995 626.605014 
L 651.996962 626.584691 
L 817.051782 626.675274 
L 821.767634 626.723993 
L 826.483486 626.628936 
L 845.346894 626.686775 
L 920.800525 626.604109 
L 925.516377 626.663568 
L 934.948081 626.607316 
L 972.674897 626.614888 
L 977.390749 628.083298 
L 982.106601 628.35047 
L 986.822453 628.245064 
L 991.538305 628.293716 
L 996.254157 628.168296 
L 1000.970009 627.776369 
L 1005.685861 626.59147 
L 1081.139493 626.587623 
L 1114.150457 626.584528 
L 1151.877273 626.599899 
L 1151.877273 626.599899 
" style="fill:none;stroke:#ff0000;stroke-linecap:square;stroke-width:1.5;"/>
   </g>
   <g id="line2d_23">
    <path clip-path="url(#pbee339d747)" d="M 213.422727 623.067563 
L 232.286135 623.070652 
L 307.739767 623.114321 
L 326.603175 623.065054 
L 354.898287 623.06886 
L 496.373847 623.078314 
L 501.089698 623.173692 
L 538.816514 623.069125 
L 585.975034 623.068119 
L 604.838442 623.070792 
L 661.428666 623.059038 
L 817.051782 623.164658 
L 821.767634 623.222906 
L 826.483486 623.110311 
L 831.199338 623.151331 
L 835.91519 623.076801 
L 850.062746 623.168834 
L 864.210302 623.098302 
L 873.642005 623.144893 
L 887.789561 623.077142 
L 920.800525 623.081596 
L 925.516377 623.150834 
L 934.948081 623.08529 
L 972.674897 623.094028 
L 977.390749 634.658053 
L 982.106601 632.928721 
L 986.822453 633.674798 
L 991.538305 633.344231 
L 996.254157 634.160154 
L 1000.970009 624.937228 
L 1005.685861 623.067081 
L 1076.423641 623.061061 
L 1151.877273 623.076752 
L 1151.877273 623.076752 
" style="fill:none;stroke:#ff0000;stroke-linecap:square;stroke-width:1.5;"/>
   </g>
   <g id="line2d_24">
    <path clip-path="url(#pbee339d747)" d="M 213.422727 622.947724 
L 218.138579 623.025224 
L 227.570283 622.922079 
L 246.433691 623.011118 
L 265.297099 622.920728 
L 298.308063 623.452876 
L 303.023915 623.178332 
L 312.455619 622.980694 
L 317.171471 623.189919 
L 326.603175 622.9398 
L 340.750731 623.103229 
L 345.466583 622.948333 
L 359.614139 622.950689 
L 364.329991 622.925083 
L 369.045843 623.034391 
L 378.477547 623.027652 
L 383.193399 623.160057 
L 392.625103 623.012332 
L 397.340955 622.951318 
L 402.056807 623.010909 
L 406.772659 623.222547 
L 411.488511 623.034258 
L 430.351919 622.929114 
L 435.067771 623.107949 
L 444.499475 622.92263 
L 449.215327 623.064144 
L 453.931179 622.919968 
L 463.362883 623.242865 
L 468.078735 622.930046 
L 477.510439 623.014688 
L 486.942143 622.958768 
L 496.373847 622.981471 
L 501.089698 623.267807 
L 505.80555 623.193307 
L 510.521402 622.947725 
L 680.292074 622.927575 
L 713.303038 622.926605 
L 722.734742 622.952343 
L 812.33593 623.019206 
L 821.767634 623.407202 
L 826.483486 623.080076 
L 831.199338 623.202676 
L 835.91519 622.976742 
L 845.346894 623.281098 
L 850.062746 623.253758 
L 854.778598 623.095342 
L 873.642005 623.183709 
L 878.357857 623.003979 
L 892.505413 622.949682 
L 897.221265 623.073154 
L 901.937117 623.022566 
L 906.652969 623.146172 
L 920.800525 622.991711 
L 925.516377 623.201219 
L 930.232229 622.970148 
L 963.243193 623.091323 
L 972.674897 623.030235 
L 977.390749 635.440043 
L 982.106601 634.050514 
L 986.822453 634.651819 
L 991.538305 634.38581 
L 996.254157 635.041386 
L 1000.970009 626.574473 
L 1005.685861 622.946204 
L 1015.117565 622.950271 
L 1019.833417 622.994407 
L 1029.265121 622.920805 
L 1151.877273 622.976589 
L 1151.877273 622.976589 
" style="fill:none;stroke:#ff0000;stroke-linecap:square;stroke-width:1.5;"/>
   </g>
   <g id="line2d_25">
    <path clip-path="url(#pbee339d747)" d="M 213.422727 623.825583 
L 218.138579 623.876012 
L 227.570283 623.808997 
L 251.149543 623.840016 
L 270.012951 623.862625 
L 279.444655 624.024342 
L 284.160507 623.972949 
L 288.876359 624.155956 
L 293.592211 624.103436 
L 298.308063 624.16266 
L 303.023915 623.977006 
L 312.455619 623.84698 
L 317.171471 623.984723 
L 326.603175 623.820451 
L 340.750731 623.92724 
L 345.466583 623.825977 
L 387.909251 623.880928 
L 402.056807 623.866663 
L 406.772659 624.006508 
L 416.204363 623.864397 
L 430.351919 623.813543 
L 435.067771 623.930355 
L 444.499475 623.809353 
L 449.215327 623.901513 
L 453.931179 623.807634 
L 463.362883 624.020118 
L 468.078735 623.814144 
L 477.510439 623.869129 
L 491.657995 623.856262 
L 496.373847 623.847486 
L 501.089698 624.036867 
L 505.80555 623.986982 
L 510.521402 623.825583 
L 817.051782 624.019292 
L 821.767634 624.131366 
L 826.483486 623.911986 
L 831.199338 623.993232 
L 835.91519 623.844411 
L 845.346894 624.045812 
L 901.937117 623.874276 
L 906.652969 623.955643 
L 920.800525 623.854148 
L 925.516377 623.992258 
L 930.232229 623.840126 
L 963.243193 623.91939 
L 972.674897 623.879289 
L 977.390749 634.762439 
L 982.106601 633.544167 
L 986.822453 634.07389 
L 991.538305 633.840051 
L 996.254157 634.414955 
L 1000.970009 626.660847 
L 1005.685861 623.824599 
L 1038.696825 623.808689 
L 1062.276085 623.808764 
L 1151.877273 623.844312 
L 1151.877273 623.844312 
" style="fill:none;stroke:#ff0000;stroke-linecap:square;stroke-width:1.5;"/>
   </g>
   <g id="line2d_26">
    <path clip-path="url(#pbee339d747)" d="M 213.422727 627.195308 
L 392.625103 627.197773 
L 623.70185 627.19438 
L 972.674897 627.198466 
L 977.390749 635.555455 
L 982.106601 633.73642 
L 986.822453 634.504986 
L 991.538305 634.161347 
L 996.254157 635.018308 
L 1000.970009 627.642688 
L 1005.685861 627.195251 
L 1151.877273 627.196405 
L 1151.877273 627.196405 
" style="fill:none;stroke:#ff0000;stroke-linecap:square;stroke-width:1.5;"/>
   </g>
   <g id="patch_3">
    <path d="M 166.5 661.5 
L 166.5 90.72 
" style="fill:none;stroke:#000000;stroke-linecap:square;stroke-linejoin:miter;stroke-width:0.8;"/>
   </g>
   <g id="patch_4">
    <path d="M 1198.8 661.5 
L 1198.8 90.72 
" style="fill:none;stroke:#000000;stroke-linecap:square;stroke-linejoin:miter;stroke-width:0.8;"/>
   </g>
   <g id="patch_5">
    <path d="M 166.5 661.5 
L 1198.8 661.5 
" style="fill:none;stroke:#000000;stroke-linecap:square;stroke-linejoin:miter;stroke-width:0.8;"/>
   </g>
   <g id="patch_6">
    <path d="M 166.5 90.72 
L 1198.8 90.72 
" style="fill:none;stroke:#000000;stroke-linecap:square;stroke-linejoin:miter;stroke-width:0.8;"/>
   </g>
  </g>
 </g>
 <defs>
  <clipPath id="pbee339d747">
   <rect height="570.78" width="1032.3" x="166.5" y="90.72"/>
  </clipPath>
 </defs>
</svg>
