<?xml version="1.0" encoding="utf-8" standalone="no"?>
<!DOCTYPE svg PUBLIC "-//W3C//DTD SVG 1.1//EN"
  "http://www.w3.org/Graphics/SVG/1.1/DTD/svg11.dtd">
<!-- Created with matplotlib (http://matplotlib.org/) -->
<svg height="756pt" version="1.1" viewBox="0 0 1332 756" width="1332pt" xmlns="http://www.w3.org/2000/svg" xmlns:xlink="http://www.w3.org/1999/xlink">
 <defs>
  <style type="text/css">
*{stroke-linecap:butt;stroke-linejoin:round;}
  </style>
 </defs>
 <g id="figure_1">
  <g id="patch_1">
   <path d="M 0 756 
L 1332 756 
L 1332 0 
L 0 0 
z
" style="fill:#ffffff;"/>
  </g>
  <g id="axes_1">
   <g id="patch_2">
    <path d="M 166.5 661.5 
L 1198.8 661.5 
L 1198.8 90.72 
L 166.5 90.72 
z
" style="fill:#ffffff;"/>
   </g>
   <g id="matplotlib.axis_1">
    <g id="xtick_1">
     <g id="line2d_1">
      <defs>
       <path d="M 0 0 
L 0 3.5 
" id="m7ea9da57f0" style="stroke:#000000;stroke-width:0.8;"/>
      </defs>
      <g>
       <use style="stroke:#000000;stroke-width:0.8;" x="213.422727" xlink:href="#m7ea9da57f0" y="661.5"/>
      </g>
     </g>
     <g id="text_1">
      <!-- 0 -->
      <defs>
       <path d="M 31.78125 66.40625 
Q 24.171875 66.40625 20.328125 58.90625 
Q 16.5 51.421875 16.5 36.375 
Q 16.5 21.390625 20.328125 13.890625 
Q 24.171875 6.390625 31.78125 6.390625 
Q 39.453125 6.390625 43.28125 13.890625 
Q 47.125 21.390625 47.125 36.375 
Q 47.125 51.421875 43.28125 58.90625 
Q 39.453125 66.40625 31.78125 66.40625 
z
M 31.78125 74.21875 
Q 44.046875 74.21875 50.515625 64.515625 
Q 56.984375 54.828125 56.984375 36.375 
Q 56.984375 17.96875 50.515625 8.265625 
Q 44.046875 -1.421875 31.78125 -1.421875 
Q 19.53125 -1.421875 13.0625 8.265625 
Q 6.59375 17.96875 6.59375 36.375 
Q 6.59375 54.828125 13.0625 64.515625 
Q 19.53125 74.21875 31.78125 74.21875 
z
" id="DejaVuSans-30"/>
      </defs>
      <g transform="translate(207.060227 683.696875)scale(0.2 -0.2)">
       <use xlink:href="#DejaVuSans-30"/>
      </g>
     </g>
    </g>
    <g id="xtick_2">
     <g id="line2d_2">
      <g>
       <use style="stroke:#000000;stroke-width:0.8;" x="331.319027" xlink:href="#m7ea9da57f0" y="661.5"/>
      </g>
     </g>
     <g id="text_2">
      <!-- 25 -->
      <defs>
       <path d="M 19.1875 8.296875 
L 53.609375 8.296875 
L 53.609375 0 
L 7.328125 0 
L 7.328125 8.296875 
Q 12.9375 14.109375 22.625 23.890625 
Q 32.328125 33.6875 34.8125 36.53125 
Q 39.546875 41.84375 41.421875 45.53125 
Q 43.3125 49.21875 43.3125 52.78125 
Q 43.3125 58.59375 39.234375 62.25 
Q 35.15625 65.921875 28.609375 65.921875 
Q 23.96875 65.921875 18.8125 64.3125 
Q 13.671875 62.703125 7.8125 59.421875 
L 7.8125 69.390625 
Q 13.765625 71.78125 18.9375 73 
Q 24.125 74.21875 28.421875 74.21875 
Q 39.75 74.21875 46.484375 68.546875 
Q 53.21875 62.890625 53.21875 53.421875 
Q 53.21875 48.921875 51.53125 44.890625 
Q 49.859375 40.875 45.40625 35.40625 
Q 44.1875 33.984375 37.640625 27.21875 
Q 31.109375 20.453125 19.1875 8.296875 
z
" id="DejaVuSans-32"/>
       <path d="M 10.796875 72.90625 
L 49.515625 72.90625 
L 49.515625 64.59375 
L 19.828125 64.59375 
L 19.828125 46.734375 
Q 21.96875 47.46875 24.109375 47.828125 
Q 26.265625 48.1875 28.421875 48.1875 
Q 40.625 48.1875 47.75 41.5 
Q 54.890625 34.8125 54.890625 23.390625 
Q 54.890625 11.625 47.5625 5.09375 
Q 40.234375 -1.421875 26.90625 -1.421875 
Q 22.3125 -1.421875 17.546875 -0.640625 
Q 12.796875 0.140625 7.71875 1.703125 
L 7.71875 11.625 
Q 12.109375 9.234375 16.796875 8.0625 
Q 21.484375 6.890625 26.703125 6.890625 
Q 35.15625 6.890625 40.078125 11.328125 
Q 45.015625 15.765625 45.015625 23.390625 
Q 45.015625 31 40.078125 35.4375 
Q 35.15625 39.890625 26.703125 39.890625 
Q 22.75 39.890625 18.8125 39.015625 
Q 14.890625 38.140625 10.796875 36.28125 
z
" id="DejaVuSans-35"/>
      </defs>
      <g transform="translate(318.594027 683.696875)scale(0.2 -0.2)">
       <use xlink:href="#DejaVuSans-32"/>
       <use x="63.623047" xlink:href="#DejaVuSans-35"/>
      </g>
     </g>
    </g>
    <g id="xtick_3">
     <g id="line2d_3">
      <g>
       <use style="stroke:#000000;stroke-width:0.8;" x="449.215327" xlink:href="#m7ea9da57f0" y="661.5"/>
      </g>
     </g>
     <g id="text_3">
      <!-- 50 -->
      <g transform="translate(436.490327 683.696875)scale(0.2 -0.2)">
       <use xlink:href="#DejaVuSans-35"/>
       <use x="63.623047" xlink:href="#DejaVuSans-30"/>
      </g>
     </g>
    </g>
    <g id="xtick_4">
     <g id="line2d_4">
      <g>
       <use style="stroke:#000000;stroke-width:0.8;" x="567.111626" xlink:href="#m7ea9da57f0" y="661.5"/>
      </g>
     </g>
     <g id="text_4">
      <!-- 75 -->
      <defs>
       <path d="M 8.203125 72.90625 
L 55.078125 72.90625 
L 55.078125 68.703125 
L 28.609375 0 
L 18.3125 0 
L 43.21875 64.59375 
L 8.203125 64.59375 
z
" id="DejaVuSans-37"/>
      </defs>
      <g transform="translate(554.386626 683.696875)scale(0.2 -0.2)">
       <use xlink:href="#DejaVuSans-37"/>
       <use x="63.623047" xlink:href="#DejaVuSans-35"/>
      </g>
     </g>
    </g>
    <g id="xtick_5">
     <g id="line2d_5">
      <g>
       <use style="stroke:#000000;stroke-width:0.8;" x="685.007926" xlink:href="#m7ea9da57f0" y="661.5"/>
      </g>
     </g>
     <g id="text_5">
      <!-- 100 -->
      <defs>
       <path d="M 12.40625 8.296875 
L 28.515625 8.296875 
L 28.515625 63.921875 
L 10.984375 60.40625 
L 10.984375 69.390625 
L 28.421875 72.90625 
L 38.28125 72.90625 
L 38.28125 8.296875 
L 54.390625 8.296875 
L 54.390625 0 
L 12.40625 0 
z
" id="DejaVuSans-31"/>
      </defs>
      <g transform="translate(665.920426 683.696875)scale(0.2 -0.2)">
       <use xlink:href="#DejaVuSans-31"/>
       <use x="63.623047" xlink:href="#DejaVuSans-30"/>
       <use x="127.246094" xlink:href="#DejaVuSans-30"/>
      </g>
     </g>
    </g>
    <g id="xtick_6">
     <g id="line2d_6">
      <g>
       <use style="stroke:#000000;stroke-width:0.8;" x="802.904226" xlink:href="#m7ea9da57f0" y="661.5"/>
      </g>
     </g>
     <g id="text_6">
      <!-- 125 -->
      <g transform="translate(783.816726 683.696875)scale(0.2 -0.2)">
       <use xlink:href="#DejaVuSans-31"/>
       <use x="63.623047" xlink:href="#DejaVuSans-32"/>
       <use x="127.246094" xlink:href="#DejaVuSans-35"/>
      </g>
     </g>
    </g>
    <g id="xtick_7">
     <g id="line2d_7">
      <g>
       <use style="stroke:#000000;stroke-width:0.8;" x="920.800525" xlink:href="#m7ea9da57f0" y="661.5"/>
      </g>
     </g>
     <g id="text_7">
      <!-- 150 -->
      <g transform="translate(901.713025 683.696875)scale(0.2 -0.2)">
       <use xlink:href="#DejaVuSans-31"/>
       <use x="63.623047" xlink:href="#DejaVuSans-35"/>
       <use x="127.246094" xlink:href="#DejaVuSans-30"/>
      </g>
     </g>
    </g>
    <g id="xtick_8">
     <g id="line2d_8">
      <g>
       <use style="stroke:#000000;stroke-width:0.8;" x="1038.696825" xlink:href="#m7ea9da57f0" y="661.5"/>
      </g>
     </g>
     <g id="text_8">
      <!-- 175 -->
      <g transform="translate(1019.609325 683.696875)scale(0.2 -0.2)">
       <use xlink:href="#DejaVuSans-31"/>
       <use x="63.623047" xlink:href="#DejaVuSans-37"/>
       <use x="127.246094" xlink:href="#DejaVuSans-35"/>
      </g>
     </g>
    </g>
    <g id="xtick_9">
     <g id="line2d_9">
      <g>
       <use style="stroke:#000000;stroke-width:0.8;" x="1156.593125" xlink:href="#m7ea9da57f0" y="661.5"/>
      </g>
     </g>
     <g id="text_9">
      <!-- 200 -->
      <g transform="translate(1137.505625 683.696875)scale(0.2 -0.2)">
       <use xlink:href="#DejaVuSans-32"/>
       <use x="63.623047" xlink:href="#DejaVuSans-30"/>
       <use x="127.246094" xlink:href="#DejaVuSans-30"/>
      </g>
     </g>
    </g>
   </g>
   <g id="matplotlib.axis_2">
    <g id="ytick_1">
     <g id="line2d_10">
      <defs>
       <path d="M 0 0 
L -3.5 0 
" id="m204c447562" style="stroke:#000000;stroke-width:0.8;"/>
      </defs>
      <g>
       <use style="stroke:#000000;stroke-width:0.8;" x="166.5" xlink:href="#m204c447562" y="655.520687"/>
      </g>
     </g>
     <g id="text_10">
      <!-- 0 -->
      <g transform="translate(146.775 663.119124)scale(0.2 -0.2)">
       <use xlink:href="#DejaVuSans-30"/>
      </g>
     </g>
    </g>
    <g id="ytick_2">
     <g id="line2d_11">
      <g>
       <use style="stroke:#000000;stroke-width:0.8;" x="166.5" xlink:href="#m204c447562" y="584.688484"/>
      </g>
     </g>
     <g id="text_11">
      <!-- 500 -->
      <g transform="translate(121.325 592.286921)scale(0.2 -0.2)">
       <use xlink:href="#DejaVuSans-35"/>
       <use x="63.623047" xlink:href="#DejaVuSans-30"/>
       <use x="127.246094" xlink:href="#DejaVuSans-30"/>
      </g>
     </g>
    </g>
    <g id="ytick_3">
     <g id="line2d_12">
      <g>
       <use style="stroke:#000000;stroke-width:0.8;" x="166.5" xlink:href="#m204c447562" y="513.856281"/>
      </g>
     </g>
     <g id="text_12">
      <!-- 1000 -->
      <g transform="translate(108.6 521.454718)scale(0.2 -0.2)">
       <use xlink:href="#DejaVuSans-31"/>
       <use x="63.623047" xlink:href="#DejaVuSans-30"/>
       <use x="127.246094" xlink:href="#DejaVuSans-30"/>
       <use x="190.869141" xlink:href="#DejaVuSans-30"/>
      </g>
     </g>
    </g>
    <g id="ytick_4">
     <g id="line2d_13">
      <g>
       <use style="stroke:#000000;stroke-width:0.8;" x="166.5" xlink:href="#m204c447562" y="443.024077"/>
      </g>
     </g>
     <g id="text_13">
      <!-- 1500 -->
      <g transform="translate(108.6 450.622515)scale(0.2 -0.2)">
       <use xlink:href="#DejaVuSans-31"/>
       <use x="63.623047" xlink:href="#DejaVuSans-35"/>
       <use x="127.246094" xlink:href="#DejaVuSans-30"/>
       <use x="190.869141" xlink:href="#DejaVuSans-30"/>
      </g>
     </g>
    </g>
    <g id="ytick_5">
     <g id="line2d_14">
      <g>
       <use style="stroke:#000000;stroke-width:0.8;" x="166.5" xlink:href="#m204c447562" y="372.191874"/>
      </g>
     </g>
     <g id="text_14">
      <!-- 2000 -->
      <g transform="translate(108.6 379.790312)scale(0.2 -0.2)">
       <use xlink:href="#DejaVuSans-32"/>
       <use x="63.623047" xlink:href="#DejaVuSans-30"/>
       <use x="127.246094" xlink:href="#DejaVuSans-30"/>
       <use x="190.869141" xlink:href="#DejaVuSans-30"/>
      </g>
     </g>
    </g>
    <g id="ytick_6">
     <g id="line2d_15">
      <g>
       <use style="stroke:#000000;stroke-width:0.8;" x="166.5" xlink:href="#m204c447562" y="301.359671"/>
      </g>
     </g>
     <g id="text_15">
      <!-- 2500 -->
      <g transform="translate(108.6 308.958109)scale(0.2 -0.2)">
       <use xlink:href="#DejaVuSans-32"/>
       <use x="63.623047" xlink:href="#DejaVuSans-35"/>
       <use x="127.246094" xlink:href="#DejaVuSans-30"/>
       <use x="190.869141" xlink:href="#DejaVuSans-30"/>
      </g>
     </g>
    </g>
    <g id="ytick_7">
     <g id="line2d_16">
      <g>
       <use style="stroke:#000000;stroke-width:0.8;" x="166.5" xlink:href="#m204c447562" y="230.527468"/>
      </g>
     </g>
     <g id="text_16">
      <!-- 3000 -->
      <defs>
       <path d="M 40.578125 39.3125 
Q 47.65625 37.796875 51.625 33 
Q 55.609375 28.21875 55.609375 21.1875 
Q 55.609375 10.40625 48.1875 4.484375 
Q 40.765625 -1.421875 27.09375 -1.421875 
Q 22.515625 -1.421875 17.65625 -0.515625 
Q 12.796875 0.390625 7.625 2.203125 
L 7.625 11.71875 
Q 11.71875 9.328125 16.59375 8.109375 
Q 21.484375 6.890625 26.8125 6.890625 
Q 36.078125 6.890625 40.9375 10.546875 
Q 45.796875 14.203125 45.796875 21.1875 
Q 45.796875 27.640625 41.28125 31.265625 
Q 36.765625 34.90625 28.71875 34.90625 
L 20.21875 34.90625 
L 20.21875 43.015625 
L 29.109375 43.015625 
Q 36.375 43.015625 40.234375 45.921875 
Q 44.09375 48.828125 44.09375 54.296875 
Q 44.09375 59.90625 40.109375 62.90625 
Q 36.140625 65.921875 28.71875 65.921875 
Q 24.65625 65.921875 20.015625 65.03125 
Q 15.375 64.15625 9.8125 62.3125 
L 9.8125 71.09375 
Q 15.4375 72.65625 20.34375 73.4375 
Q 25.25 74.21875 29.59375 74.21875 
Q 40.828125 74.21875 47.359375 69.109375 
Q 53.90625 64.015625 53.90625 55.328125 
Q 53.90625 49.265625 50.4375 45.09375 
Q 46.96875 40.921875 40.578125 39.3125 
z
" id="DejaVuSans-33"/>
      </defs>
      <g transform="translate(108.6 238.125905)scale(0.2 -0.2)">
       <use xlink:href="#DejaVuSans-33"/>
       <use x="63.623047" xlink:href="#DejaVuSans-30"/>
       <use x="127.246094" xlink:href="#DejaVuSans-30"/>
       <use x="190.869141" xlink:href="#DejaVuSans-30"/>
      </g>
     </g>
    </g>
    <g id="ytick_8">
     <g id="line2d_17">
      <g>
       <use style="stroke:#000000;stroke-width:0.8;" x="166.5" xlink:href="#m204c447562" y="159.695265"/>
      </g>
     </g>
     <g id="text_17">
      <!-- 3500 -->
      <g transform="translate(108.6 167.293702)scale(0.2 -0.2)">
       <use xlink:href="#DejaVuSans-33"/>
       <use x="63.623047" xlink:href="#DejaVuSans-35"/>
       <use x="127.246094" xlink:href="#DejaVuSans-30"/>
       <use x="190.869141" xlink:href="#DejaVuSans-30"/>
      </g>
     </g>
    </g>
   </g>
   <g id="line2d_18">
    <path clip-path="url(#p167c107d6d)" d="M 213.422727 272.107544 
L 218.138579 254.54494 
L 222.854431 116.664545 
L 227.570283 596.537918 
L 232.286135 613.814686 
L 237.001987 619.277265 
L 241.717839 354.719935 
L 246.433691 252.672448 
L 251.149543 256.529502 
L 255.865395 618.793722 
L 260.581247 226.521822 
L 265.297099 617.657885 
L 270.012951 592.752645 
L 274.728803 603.108639 
L 279.444655 598.182486 
L 284.160507 584.221303 
L 288.876359 591.581562 
L 293.592211 585.663135 
L 298.308063 593.126639 
L 303.023915 469.662029 
L 307.739767 365.714354 
L 312.455619 508.251413 
L 317.171471 598.444409 
L 321.887323 590.260612 
L 326.603175 272.621318 
L 331.319027 594.795134 
L 336.034879 596.79103 
L 340.750731 603.854105 
L 345.466583 617.715812 
L 350.182435 613.873873 
L 354.898287 595.366835 
L 359.614139 607.216269 
L 364.329991 562.370985 
L 369.045843 592.089032 
L 373.761695 616.826783 
L 378.477547 596.894289 
L 383.193399 614.205056 
L 387.909251 612.197827 
L 392.625103 619.973631 
L 397.340955 620.1537 
L 402.056807 606.24414 
L 406.772659 620.855095 
L 411.488511 608.404989 
L 416.204363 617.796405 
L 420.920215 586.354457 
L 425.636067 606.152214 
L 430.351919 569.633014 
L 435.067771 577.125489 
L 439.783623 560.671012 
L 444.499475 612.531518 
L 449.215327 594.778772 
L 453.931179 614.074087 
L 458.647031 626.812551 
L 463.362883 623.024756 
L 468.078735 620.894123 
L 472.794587 621.117018 
L 477.510439 615.056289 
L 482.226291 628.197717 
L 486.942143 623.43275 
L 491.657995 614.54379 
L 496.373847 631.025962 
L 501.089698 629.892647 
L 505.80555 627.885418 
L 510.521402 609.773793 
L 515.237254 609.700751 
L 519.953106 635.555455 
L 524.668958 621.130859 
L 529.38481 605.041565 
L 534.100662 631.023454 
L 538.816514 623.067581 
L 543.532366 611.155177 
L 548.248218 606.396514 
L 552.96407 617.088706 
L 557.679922 624.074971 
L 562.395774 619.72807 
L 567.111626 611.083396 
L 571.827478 607.177241 
L 576.54333 604.529051 
L 581.259182 595.933493 
L 585.975034 625.638946 
L 590.690886 616.144272 
L 595.406738 629.715099 
L 600.12259 605.016377 
L 604.838442 615.507108 
L 609.554294 615.625468 
L 614.270146 611.316349 
L 618.985998 621.817152 
L 623.70185 608.787809 
L 628.417702 610.690518 
L 633.133554 593.403678 
L 637.849406 590.741648 
L 642.565258 593.064944 
L 647.28111 593.574936 
L 651.996962 617.582335 
L 656.712814 621.507375 
L 661.428666 616.825522 
L 666.144518 629.945544 
L 670.86037 614.062754 
L 675.576222 595.485196 
L 680.292074 604.103435 
L 685.007926 626.954853 
L 689.723778 603.9158 
L 694.43963 623.451648 
L 699.155482 617.353151 
L 703.871334 606.591685 
L 708.587186 606.514875 
L 713.303038 581.628532 
L 718.01889 562.308029 
L 722.734742 585.790321 
L 727.450594 567.322312 
L 732.166446 569.980573 
L 736.882298 596.859029 
L 741.59815 541.149033 
L 746.314002 524.869583 
L 751.029854 543.557952 
L 755.745706 605.200229 
L 760.461558 593.193391 
L 765.17741 543.050481 
L 769.893262 528.717826 
L 774.609114 539.546016 
L 779.324966 525.363213 
L 784.040818 560.80072 
L 788.75667 558.561785 
L 793.472522 555.826727 
L 798.188374 589.204122 
L 802.904226 591.722589 
L 807.620078 596.906883 
L 812.33593 610.052079 
L 817.051782 599.990761 
L 821.767634 614.440531 
L 826.483486 608.751288 
L 831.199338 619.529116 
L 835.91519 583.130799 
L 840.631042 602.194422 
L 845.346894 614.461936 
L 850.062746 610.471406 
L 854.778598 616.087606 
L 859.49445 605.729105 
L 864.210302 612.049235 
L 868.926153 591.376304 
L 873.642005 621.659749 
L 878.357857 594.062262 
L 883.073709 604.467356 
L 887.789561 574.516356 
L 892.505413 608.140559 
L 897.221265 578.504365 
L 901.937117 598.828476 
L 906.652969 613.644688 
L 911.368821 605.323633 
L 916.084673 599.609202 
L 920.800525 599.879951 
L 925.516377 612.970989 
L 930.232229 614.609267 
L 934.948081 600.995629 
L 939.663933 598.817142 
L 944.379785 605.294677 
L 949.095637 610.350523 
L 953.811489 602.140278 
L 958.527341 602.102496 
L 963.243193 614.55763 
L 967.959045 611.940933 
L 972.674897 603.398258 
L 977.390749 584.838336 
L 982.106601 602.558344 
L 986.822453 603.764701 
L 991.538305 608.512031 
L 996.254157 586.442601 
L 1000.970009 615.55118 
L 1005.685861 620.498724 
L 1010.401713 577.446599 
L 1015.117565 608.964096 
L 1019.833417 610.453783 
L 1024.549269 607.271674 
L 1029.265121 603.463735 
L 1033.980973 614.761627 
L 1038.696825 616.984186 
L 1043.412677 624.459037 
L 1048.128529 623.751339 
L 1052.844381 619.957254 
L 1057.560233 614.560152 
L 1062.276085 616.797826 
L 1066.991937 611.808718 
L 1071.707789 613.008771 
L 1076.423641 598.201384 
L 1081.139493 613.190101 
L 1085.855345 613.747947 
L 1090.571197 626.948549 
L 1095.287049 601.924948 
L 1100.002901 587.868056 
L 1104.718753 614.245345 
L 1109.434605 616.261386 
L 1114.150457 616.48931 
L 1118.866309 602.343014 
L 1123.582161 595.444906 
L 1128.298013 611.305016 
L 1133.013865 602.384578 
L 1137.729717 618.515422 
L 1142.445569 594.306548 
L 1147.161421 585.410023 
L 1151.877273 537.060287 
L 1151.877273 537.060287 
" style="fill:none;stroke:#1f77b4;stroke-linecap:square;stroke-width:1.5;"/>
   </g>
   <g id="line2d_19">
    <path clip-path="url(#p167c107d6d)" d="M 213.422727 434.965185 
L 218.138579 427.492785 
L 222.854431 370.28627 
L 227.570283 576.784485 
L 232.286135 584.370997 
L 237.001987 586.766927 
L 241.717839 470.548043 
L 246.433691 426.698275 
L 251.149543 428.335318 
L 255.865395 586.554898 
L 260.581247 415.647932 
L 265.297099 586.056802 
L 270.012951 575.120698 
L 274.728803 579.671278 
L 279.444655 577.507177 
L 284.160507 571.36896 
L 288.876359 574.605858 
L 293.592211 572.00319 
L 298.308063 575.285111 
L 303.023915 520.885408 
L 307.739767 475.329303 
L 312.455619 537.892357 
L 317.171471 577.622262 
L 321.887323 574.025064 
L 326.603175 435.184287 
L 331.319027 576.018534 
L 336.034879 576.895722 
L 340.750731 579.998686 
L 345.466583 586.082206 
L 350.182435 584.396958 
L 354.898287 576.269801 
L 359.614139 581.475026 
L 364.329991 561.750073 
L 369.045843 574.828964 
L 373.761695 585.6923 
L 378.477547 576.941099 
L 383.193399 584.542263 
L 387.909251 583.661551 
L 392.625103 587.072253 
L 397.340955 587.1512 
L 402.056807 581.048208 
L 406.772659 587.458704 
L 411.488511 581.996886 
L 416.204363 586.117548 
L 420.920215 572.307262 
L 425.636067 581.007846 
L 430.351919 564.948339 
L 435.067771 568.246705 
L 439.783623 561.001233 
L 444.499475 583.807979 
L 449.215327 576.011331 
L 453.931179 584.484798 
L 458.647031 590.069539 
L 463.362883 588.409768 
L 468.078735 587.475816 
L 472.794587 587.573534 
L 477.510439 584.915697 
L 482.226291 590.676321 
L 486.942143 588.588578 
L 491.657995 584.69087 
L 496.373847 591.914929 
L 501.089698 591.41865 
L 505.80555 590.539525 
L 510.521402 582.597723 
L 515.237254 582.565671 
L 519.953106 593.897669 
L 524.668958 587.579595 
L 529.38481 580.520149 
L 534.100662 591.913827 
L 538.816514 588.428531 
L 543.532366 583.204003 
L 548.248218 581.115115 
L 552.96407 585.807173 
L 557.679922 588.870031 
L 562.395774 586.964586 
L 567.111626 583.1725 
L 571.827478 581.457888 
L 576.54333 580.295089 
L 581.259182 576.518855 
L 585.975034 589.555353 
L 590.690886 585.392945 
L 595.406738 591.340896 
L 600.12259 580.50909 
L 604.838442 585.113455 
L 609.554294 585.165373 
L 614.270146 583.274736 
L 618.985998 587.880446 
L 623.70185 582.164939 
L 628.417702 583.00008 
L 633.133554 575.406897 
L 637.849406 574.236575 
L 642.565258 575.257987 
L 647.28111 575.482182 
L 651.996962 586.023669 
L 656.712814 587.744649 
L 661.428666 585.691751 
L 666.144518 591.441818 
L 670.86037 584.47983 
L 675.576222 576.321827 
L 680.292074 580.108177 
L 685.007926 590.131881 
L 689.723778 580.025776 
L 694.43963 588.596861 
L 699.155482 585.923153 
L 703.871334 581.20081 
L 708.587186 581.16708 
L 713.303038 570.228278 
L 718.01889 561.722344 
L 722.734742 572.059133 
L 727.450594 563.930818 
L 732.166446 565.101365 
L 736.882298 576.925604 
L 741.59815 552.39794 
L 746.314002 545.22023 
L 751.029854 553.459843 
L 755.745706 580.589831 
L 760.461558 575.314457 
L 765.17741 553.236149 
L 769.893262 546.917099 
L 774.609114 551.69126 
L 779.324966 545.437906 
L 784.040818 561.05837 
L 788.75667 560.07201 
L 793.472522 558.866955 
L 798.188374 573.560504 
L 802.904226 574.667863 
L 807.620078 576.946633 
L 812.33593 582.719872 
L 817.051782 578.301679 
L 821.767634 584.645567 
L 826.483486 582.1489 
L 831.199338 586.877356 
L 835.91519 570.889217 
L 840.631042 579.269725 
L 845.346894 584.654957 
L 850.062746 582.903913 
L 854.778598 585.368091 
L 859.49445 580.822067 
L 864.210302 583.596352 
L 868.926153 574.515606 
L 873.642005 587.811443 
L 878.357857 575.696399 
L 883.073709 580.267999 
L 887.789561 567.098276 
L 892.505413 581.880806 
L 897.221265 568.853543 
L 901.937117 577.791016 
L 906.652969 584.296408 
L 911.368821 580.644018 
L 916.084673 578.134041 
L 920.800525 578.252999 
L 925.516377 584.000814 
L 930.232229 584.719594 
L 934.948081 578.743135 
L 939.663933 577.786036 
L 944.379785 580.631308 
L 949.095637 582.850858 
L 953.811489 579.245938 
L 958.527341 579.229346 
L 963.243193 584.696936 
L 967.959045 583.548826 
L 972.674897 579.798485 
L 977.390749 571.640383 
L 982.106601 579.429573 
L 986.822453 579.959414 
L 991.538305 582.04388 
L 996.254157 572.346033 
L 1000.970009 585.132789 
L 1005.685861 587.30247 
L 1010.401713 568.388024 
L 1015.117565 582.242317 
L 1019.833417 582.896175 
L 1024.549269 581.499348 
L 1029.265121 579.827235 
L 1033.980973 584.786431 
L 1038.696825 585.761338 
L 1043.412677 589.038335 
L 1048.128529 588.728202 
L 1052.844381 587.065072 
L 1057.560233 584.698047 
L 1062.276085 585.679598 
L 1066.991937 583.490808 
L 1071.707789 584.017389 
L 1076.423641 577.515478 
L 1081.139493 584.096954 
L 1085.855345 584.341715 
L 1090.571197 590.129118 
L 1095.287049 579.151354 
L 1100.002901 572.972957 
L 1104.718753 584.559936 
L 1109.434605 585.444314 
L 1114.150457 585.544285 
L 1118.866309 579.334989 
L 1123.582161 576.304119 
L 1128.298013 583.26976 
L 1133.013865 579.35325 
L 1137.729717 586.432861 
L 1142.445569 575.803772 
L 1147.161421 571.891858 
L 1151.877273 550.595376 
L 1151.877273 550.595376 
" style="fill:none;stroke:#ff0000;stroke-linecap:square;stroke-width:1.5;"/>
   </g>
   <g id="line2d_20">
    <path clip-path="url(#p167c107d6d)" d="M 213.422727 496.834832 
L 218.138579 492.48626 
L 222.854431 459.048687 
L 227.570283 578.697698 
L 232.286135 583.04732 
L 237.001987 584.420489 
L 241.717839 517.488013 
L 246.433691 492.023655 
L 251.149543 492.976794 
L 255.865395 584.29898 
L 260.581247 485.584495 
L 265.297099 584.013524 
L 270.012951 577.743461 
L 274.728803 580.353089 
L 279.444655 579.112142 
L 284.160507 575.591258 
L 288.876359 577.448148 
L 293.592211 575.955138 
L 298.308063 577.837759 
L 303.023915 546.566569 
L 307.739767 520.256669 
L 312.455619 556.358603 
L 317.171471 579.178141 
L 321.887323 577.115015 
L 326.603175 496.962299 
L 331.319027 578.258403 
L 336.034879 578.761492 
L 340.750731 580.540805 
L 345.466583 584.028081 
L 350.182435 583.062196 
L 354.898287 578.402523 
L 359.614139 581.387238 
L 364.329991 570.070505 
L 369.045843 577.576125 
L 373.761695 583.804625 
L 378.477547 578.787509 
L 383.193399 583.14548 
L 387.909251 582.64067 
L 392.625103 584.595465 
L 397.340955 584.640707 
L 402.056807 581.142542 
L 406.772659 584.816919 
L 411.488511 581.686416 
L 416.204363 584.048339 
L 420.920215 576.129581 
L 425.636067 581.119404 
L 430.351919 571.906617 
L 435.067771 573.799701 
L 439.783623 569.640523 
L 444.499475 582.724602 
L 449.215327 578.254288 
L 453.931179 583.112549 
L 458.647031 586.312916 
L 463.362883 585.361908 
L 468.078735 584.826728 
L 472.794587 584.882719 
L 477.510439 583.35952 
L 482.226291 586.660558 
L 486.942143 585.464365 
L 491.657995 583.230656 
L 496.373847 587.370147 
L 501.089698 587.085845 
L 505.80555 586.58219 
L 510.521402 582.030858 
L 515.237254 582.012476 
L 519.953106 588.505913 
L 524.668958 584.886195 
L 529.38481 580.839801 
L 534.100662 587.369515 
L 538.816514 585.37266 
L 543.532366 582.378396 
L 548.248218 581.180898 
L 552.96407 583.870459 
L 557.679922 585.62564 
L 562.395774 584.533763 
L 567.111626 582.360342 
L 571.827478 581.377415 
L 576.54333 580.710761 
L 581.259182 578.545355 
L 585.975034 586.018317 
L 590.690886 583.633052 
L 595.406738 587.041298 
L 600.12259 580.833455 
L 604.838442 583.472867 
L 609.554294 583.502624 
L 614.270146 582.418939 
L 618.985998 585.058597 
L 623.70185 581.782755 
L 628.417702 582.261504 
L 633.133554 577.907614 
L 637.849406 577.236334 
L 642.565258 577.822204 
L 647.28111 577.950786 
L 651.996962 583.994536 
L 656.712814 584.980779 
L 661.428666 583.804309 
L 666.144518 587.099113 
L 670.86037 583.1097 
L 675.576222 578.432354 
L 680.292074 580.603587 
L 685.007926 586.348635 
L 689.723778 580.556343 
L 694.43963 585.469112 
L 699.155482 583.936929 
L 703.871334 581.230027 
L 708.587186 581.210693 
L 713.303038 574.936786 
L 718.01889 570.054587 
L 722.734742 575.987225 
L 727.450594 571.322511 
L 732.166446 571.994457 
L 736.882298 578.778629 
L 741.59815 564.698757 
L 746.314002 560.573153 
L 751.029854 565.308916 
L 755.745706 580.87974 
L 760.461558 577.854594 
L 765.17741 565.180385 
L 769.893262 561.548704 
L 774.609114 564.292683 
L 779.324966 560.698303 
L 784.040818 569.673336 
L 788.75667 569.106947 
L 793.472522 568.414915 
L 798.188374 576.848521 
L 802.904226 577.483719 
L 807.620078 578.790682 
L 812.33593 582.100877 
L 817.051782 579.567753 
L 821.767634 583.204695 
L 826.483486 581.773564 
L 831.199338 584.483773 
L 835.91519 575.316014 
L 840.631042 580.122841 
L 845.346894 583.210078 
L 850.062746 582.206374 
L 854.778598 583.618802 
L 859.49445 581.012887 
L 864.210302 582.6033 
L 868.926153 577.39639 
L 873.642005 585.019053 
L 878.357857 578.073653 
L 883.073709 580.695223 
L 887.789561 573.140621 
L 892.505413 581.619863 
L 897.221265 574.147939 
L 901.937117 579.274913 
L 906.652969 583.004567 
L 911.368821 580.910815 
L 916.084673 579.47163 
L 920.800525 579.539833 
L 925.516377 582.835139 
L 930.232229 583.247119 
L 934.948081 579.820897 
L 939.663933 579.272068 
L 944.379785 580.903526 
L 949.095637 582.175955 
L 953.811489 580.109206 
L 958.527341 580.099686 
L 963.243193 583.234141 
L 967.959045 582.576055 
L 972.674897 580.426023 
L 977.390749 575.74699 
L 982.106601 580.214494 
L 986.822453 580.51829 
L 991.538305 581.713358 
L 996.254157 576.15182 
L 1000.970009 583.483947 
L 1005.685861 584.727389 
L 1010.401713 573.880797 
L 1015.117565 581.82712 
L 1019.833417 582.201938 
L 1024.549269 581.401185 
L 1029.265121 580.442503 
L 1033.980973 583.285432 
L 1038.696825 583.844187 
L 1043.412677 585.722074 
L 1048.128529 585.544371 
L 1052.844381 584.591353 
L 1057.560233 583.234772 
L 1062.276085 583.79734 
L 1066.991937 582.542801 
L 1071.707789 582.844633 
L 1076.423641 579.116907 
L 1081.139493 582.890243 
L 1085.855345 583.030537 
L 1090.571197 586.347048 
L 1095.287049 580.054975 
L 1100.002901 576.511471 
L 1104.718753 583.155613 
L 1109.434605 583.662498 
L 1114.150457 583.719789 
L 1118.866309 580.160264 
L 1123.582161 578.422203 
L 1128.298013 582.416086 
L 1133.013865 580.170734 
L 1137.729717 584.229043 
L 1142.445569 578.135242 
L 1147.161421 575.891257 
L 1151.877273 563.662914 
L 1151.877273 563.662914 
" style="fill:none;stroke:#ff0000;stroke-linecap:square;stroke-width:1.5;"/>
   </g>
   <g id="line2d_21">
    <path clip-path="url(#p167c107d6d)" d="M 213.422727 511.675441 
L 218.138579 508.708132 
L 222.854431 486.202669 
L 227.570283 569.193982 
L 232.286135 572.335813 
L 237.001987 573.329444 
L 241.717839 525.892325 
L 246.433691 508.393001 
L 251.149543 509.042388 
L 255.865395 573.241483 
L 260.581247 504.017521 
L 265.297099 573.034874 
L 270.012951 568.50585 
L 274.728803 570.388705 
L 279.444655 569.492987 
L 284.160507 566.955323 
L 288.876359 568.292973 
L 293.592211 567.21733 
L 298.308063 568.573829 
L 303.023915 546.249191 
L 307.739767 527.813562 
L 312.455619 553.192061 
L 317.171471 569.540604 
L 321.887323 568.052877 
L 326.603175 511.762563 
L 331.319027 568.87714 
L 336.034879 569.239991 
L 340.750731 570.524274 
L 345.466583 573.045406 
L 350.182435 572.346578 
L 354.898287 568.981071 
L 359.614139 571.135694 
L 364.329991 562.987484 
L 369.045843 568.385223 
L 373.761695 572.883699 
L 378.477547 569.258771 
L 383.193399 572.406809 
L 387.909251 572.041719 
L 392.625103 573.456115 
L 397.340955 573.488868 
L 402.056807 570.958908 
L 406.772659 573.616456 
L 411.488511 571.351892 
L 416.204363 573.06007 
L 420.920215 567.342955 
L 425.636067 570.942186 
L 430.351919 564.305592 
L 435.067771 565.666207 
L 439.783623 562.679028 
L 444.499475 572.102417 
L 449.215327 568.874165 
L 453.931179 572.382997 
L 458.647031 574.700192 
L 463.362883 574.011143 
L 468.078735 573.623563 
L 472.794587 573.664107 
L 477.510439 572.561651 
L 482.226291 574.952168 
L 486.942143 574.085365 
L 491.657995 572.468424 
L 496.373847 575.46667 
L 501.089698 575.260503 
L 505.80555 574.895361 
L 510.521402 571.600842 
L 515.237254 571.587552 
L 519.953106 576.290648 
L 524.668958 573.666623 
L 529.38481 570.740212 
L 534.100662 575.466212 
L 538.816514 574.018933 
L 543.532366 571.852084 
L 548.248218 570.98662 
L 552.96407 572.931341 
L 557.679922 574.202188 
L 562.395774 573.411447 
L 567.111626 571.839027 
L 571.827478 571.128604 
L 576.54333 570.647002 
L 581.259182 569.084094 
L 585.975034 574.486692 
L 590.690886 572.759543 
L 595.406738 575.228208 
L 600.12259 570.735629 
L 604.838442 572.643654 
L 609.554294 572.665175 
L 614.270146 571.881395 
L 618.985998 573.79147 
L 623.70185 571.421513 
L 628.417702 571.767573 
L 633.133554 568.624195 
L 637.849406 568.14031 
L 642.565258 568.562623 
L 647.28111 568.655322 
L 651.996962 573.021126 
L 656.712814 573.735112 
L 661.428666 572.883465 
L 666.144518 575.270127 
L 670.86037 572.38093 
L 675.576222 569.002592 
L 680.292074 570.569616 
L 685.007926 574.726071 
L 689.723778 570.535488 
L 694.43963 574.088797 
L 699.155482 572.979441 
L 703.871334 571.022114 
L 708.587186 571.008141 
L 713.303038 566.484227 
L 718.01889 562.976053 
L 722.734742 567.240442 
L 727.450594 563.886107 
L 732.166446 564.368694 
L 736.882298 569.252364 
L 741.59815 559.139899 
L 746.314002 556.193757 
L 751.029854 559.57628 
L 755.745706 570.769065 
L 760.461558 568.585969 
L 765.17741 559.484342 
L 769.893262 556.889715 
L 774.609114 558.849584 
L 779.324966 556.283015 
L 784.040818 562.702547 
L 793.472522 561.800257 
L 798.188374 567.860846 
L 802.904226 568.31861 
L 807.620078 569.261062 
L 812.33593 571.65145 
L 817.051782 569.821762 
L 821.767634 572.449644 
L 826.483486 571.414873 
L 831.199338 573.375253 
L 835.91519 566.757171 
L 840.631042 570.222467 
L 845.346894 572.453535 
L 850.062746 571.727721 
L 854.778598 572.749237 
L 859.49445 570.86524 
L 864.210302 572.014699 
L 868.926153 568.255663 
L 873.642005 573.762832 
L 878.357857 568.743914 
L 883.073709 570.635788 
L 887.789561 565.192317 
L 892.505413 571.3038 
L 897.221265 565.91667 
L 901.937117 569.610433 
L 906.652969 572.304884 
L 911.368821 570.791503 
L 916.084673 569.752383 
L 920.800525 569.801616 
L 925.516377 572.182346 
L 930.232229 572.480339 
L 934.948081 570.00448 
L 939.663933 569.608375 
L 944.379785 570.786237 
L 949.095637 571.705733 
L 953.811489 570.212619 
L 958.527341 570.205754 
L 963.243193 572.470949 
L 967.959045 571.994993 
L 972.674897 570.441371 
L 977.390749 567.067443 
L 982.106601 570.288639 
L 986.822453 570.50801 
L 991.538305 571.371355 
L 996.254157 567.358977 
L 1000.970009 572.65167 
L 1005.685861 573.551633 
L 1010.401713 565.724527 
L 1015.117565 571.453575 
L 1019.833417 571.724513 
L 1024.549269 571.145776 
L 1029.265121 570.453277 
L 1033.980973 572.508051 
L 1038.696825 572.912327 
L 1043.412677 574.272051 
L 1048.128529 574.143313 
L 1052.844381 573.45314 
L 1057.560233 572.471407 
L 1062.276085 572.878433 
L 1066.991937 571.970947 
L 1071.707789 572.189228 
L 1076.423641 569.49642 
L 1081.139493 572.222206 
L 1085.855345 572.323664 
L 1090.571197 574.72493 
L 1095.287049 570.173459 
L 1100.002901 567.618026 
L 1104.718753 572.414141 
L 1109.434605 572.780848 
L 1114.150457 572.822308 
L 1118.866309 570.249488 
L 1123.582161 568.995268 
L 1128.298013 571.879337 
L 1133.013865 570.257045 
L 1137.729717 573.190866 
L 1142.445569 568.788323 
L 1147.161421 567.171322 
L 1151.877273 558.399482 
L 1151.877273 558.399482 
" style="fill:none;stroke:#ff0000;stroke-linecap:square;stroke-width:1.5;"/>
   </g>
   <g id="line2d_22">
    <path clip-path="url(#p167c107d6d)" d="M 213.422727 497.143356 
L 218.138579 493.013887 
L 222.854431 461.926661 
L 227.570283 578.261516 
L 232.286135 582.738826 
L 237.001987 584.155591 
L 241.717839 517.015291 
L 246.433691 492.5757 
L 251.149543 493.478724 
L 255.865395 584.03016 
L 260.581247 486.499901 
L 265.297099 583.735543 
L 270.012951 577.281382 
L 274.728803 579.963633 
L 279.444655 578.687443 
L 284.160507 575.073591 
L 288.876359 576.978218 
L 293.592211 575.446585 
L 298.308063 577.378206 
L 303.023915 545.689727 
L 307.739767 519.711057 
L 312.455619 555.520332 
L 317.171471 578.755292 
L 321.887323 576.636292 
L 326.603175 497.264684 
L 331.319027 577.810203 
L 336.034879 578.327065 
L 340.750731 580.156805 
L 345.466583 583.750571 
L 350.182435 582.754173 
L 354.898287 577.95824 
L 359.614139 581.028157 
L 364.329991 569.428199 
L 369.045843 577.109585 
L 373.761695 583.519977 
L 378.477547 578.3538 
L 383.193399 582.840059 
L 387.909251 582.319574 
L 392.625103 584.336234 
L 397.340955 584.382942 
L 402.056807 580.776189 
L 406.772659 584.564903 
L 411.488511 581.336275 
L 416.204363 583.771474 
L 420.920215 575.625455 
L 425.636067 580.752368 
L 430.351919 571.302883 
L 435.067771 573.23875 
L 439.783623 568.989605 
L 444.499475 582.406099 
L 449.215327 577.805975 
L 453.931179 582.806095 
L 458.647031 586.110653 
L 463.362883 585.1278 
L 468.078735 584.575028 
L 472.794587 584.632852 
L 477.510439 583.060809 
L 482.226291 586.470123 
L 486.942143 585.233655 
L 491.657995 582.927899 
L 496.373847 587.204168 
L 501.089698 586.910014 
L 505.80555 586.389075 
L 510.521402 581.691111 
L 515.237254 581.672175 
L 519.953106 588.379933 
L 524.668958 584.63644 
L 529.38481 580.464526 
L 534.100662 587.203511 
L 538.816514 585.138906 
L 543.532366 582.04924 
L 548.248218 580.815678 
L 552.96407 583.587913 
L 557.679922 585.400286 
L 562.395774 584.27253 
L 567.111626 582.030633 
L 571.827478 581.018032 
L 576.54333 580.331698 
L 581.259182 578.10498 
L 585.975034 585.806105 
L 590.690886 583.342966 
L 595.406738 586.863928 
L 600.12259 580.457997 
L 604.838442 583.177718 
L 609.554294 583.208413 
L 614.270146 582.091029 
L 618.985998 584.814485 
L 623.70185 581.435511 
L 628.417702 581.928777 
L 633.133554 577.449929 
L 637.849406 576.760802 
L 642.565258 577.362236 
L 647.28111 577.494268 
L 651.996962 583.71595 
L 656.712814 584.73412 
L 661.428666 583.519657 
L 666.144518 586.923745 
L 670.86037 582.803156 
L 675.576222 577.9889 
L 680.292074 580.221412 
L 685.007926 586.147582 
L 689.723778 580.172784 
L 694.43963 585.238553 
L 699.155482 583.65651 
L 703.871334 580.866268 
L 708.587186 580.846355 
L 713.303038 574.402985 
L 718.01889 569.411961 
L 722.734742 575.479493 
L 727.450594 570.706196 
L 732.166446 571.392643 
L 736.882298 578.34467 
L 741.59815 563.960225 
L 746.314002 559.777675 
L 751.029854 564.58005 
L 755.745706 580.505648 
L 760.461558 577.39549 
L 765.17741 564.449461 
L 769.893262 560.765348 
L 774.609114 563.54789 
L 779.324966 559.904329 
L 784.040818 569.023058 
L 788.75667 568.445558 
L 793.472522 567.740297 
L 798.188374 576.362855 
L 802.904226 577.014724 
L 807.620078 578.35706 
L 812.33593 581.763257 
L 817.051782 579.15585 
L 821.767634 582.901121 
L 826.483486 581.426043 
L 831.199338 584.220919 
L 835.91519 574.791516 
L 840.631042 579.726754 
L 845.346894 582.906672 
L 850.062746 581.87197 
L 854.778598 583.328271 
L 859.49445 580.642704 
L 864.210302 582.281045 
L 868.926153 576.925086 
L 873.642005 584.773647 
L 878.357857 577.620447 
L 883.073709 580.315719 
L 887.789561 572.564418 
L 892.505413 581.267734 
L 897.221265 573.595194 
L 901.937117 578.85477 
L 906.652969 582.694746 
L 911.368821 580.537623 
L 916.084673 579.057004 
L 920.800525 579.127144 
L 925.516377 582.520052 
L 930.232229 582.94488 
L 934.948081 579.416171 
L 939.663933 578.851831 
L 944.379785 580.530118 
L 949.095637 581.840626 
L 953.811489 579.712729 
L 958.527341 579.702941 
L 963.243193 582.931487 
L 967.959045 582.25297 
L 972.674897 580.038676 
L 977.390749 575.233215 
L 982.106601 579.821052 
L 986.822453 580.133641 
L 991.538305 581.364022 
L 996.254157 575.648256 
L 1000.970009 583.189153 
L 1005.685861 584.472451 
L 1010.401713 573.321748 
L 1015.117565 581.481208 
L 1019.833417 581.867396 
L 1024.549269 581.04251 
L 1029.265121 580.055641 
L 1033.980973 582.984395 
L 1038.696825 583.560802 
L 1043.412677 585.499941 
L 1048.128529 585.31632 
L 1052.844381 584.331984 
L 1057.560233 582.932144 
L 1062.276085 583.512472 
L 1066.991937 582.218695 
L 1071.707789 582.529848 
L 1076.423641 578.692337 
L 1081.139493 582.576868 
L 1085.855345 582.721524 
L 1090.571197 586.145944 
L 1095.287049 579.656933 
L 1100.002901 576.017098 
L 1104.718753 582.850512 
L 1109.434605 583.373341 
L 1114.150457 583.432457 
L 1118.866309 579.765248 
L 1123.582161 577.978464 
L 1128.298013 582.088089 
L 1133.013865 579.776021 
L 1137.729717 583.95797 
L 1142.445569 577.683696 
L 1147.161421 575.381104 
L 1151.877273 562.908697 
L 1151.877273 562.908697 
" style="fill:none;stroke:#ff0000;stroke-linecap:square;stroke-width:1.5;"/>
   </g>
   <g id="line2d_23">
    <path clip-path="url(#p167c107d6d)" d="M 213.422727 551.976586 
L 218.138579 550.449379 
L 222.854431 539.279499 
L 227.570283 583.697555 
L 232.286135 585.532059 
L 237.001987 586.114168 
L 241.717839 559.455782 
L 246.433691 550.287897 
L 251.149543 550.620814 
L 255.865395 586.0626 
L 260.581247 548.060141 
L 265.297099 585.941501 
L 270.012951 583.29701 
L 274.728803 584.394053 
L 279.444655 583.871739 
L 284.160507 582.396147 
L 288.876359 583.173192 
L 293.592211 582.548205 
L 298.308063 583.336563 
L 303.023915 570.597285 
L 307.739767 560.486265 
L 312.455619 574.503994 
L 317.171471 583.89949 
L 321.887323 583.033589 
L 326.603175 552.021609 
L 331.319027 583.513077 
L 336.034879 583.724359 
L 340.750731 584.473168 
L 345.466583 585.947675 
L 350.182435 585.538358 
L 354.898287 583.573581 
L 359.614139 584.830217 
L 364.329991 580.101433 
L 369.045843 583.226839 
L 373.761695 585.852918 
L 378.477547 583.735297 
L 383.193399 585.573627 
L 387.909251 585.359946 
L 392.625103 586.188441 
L 397.340955 586.207654 
L 402.056807 584.726948 
L 406.772659 586.282485 
L 411.488511 584.956547 
L 416.204363 585.956269 
L 420.920215 582.621147 
L 425.636067 584.717181 
L 430.351919 580.862032 
L 435.067771 581.648924 
L 439.783623 579.923695 
L 444.499475 585.395461 
L 449.215327 583.511344 
L 453.931179 585.55968 
L 458.647031 586.918708 
L 463.362883 586.514064 
L 468.078735 586.286648 
L 472.794587 586.310435 
L 477.510439 585.664281 
L 482.226291 587.066797 
L 486.942143 586.55763 
L 491.657995 585.6097 
L 496.373847 587.369342 
L 505.80555 587.033404 
L 510.521402 585.102076 
L 515.237254 585.094308 
L 519.953106 587.854381 
L 524.668958 586.311909 
L 529.38481 584.59923 
L 534.100662 587.369074 
L 538.816514 586.518638 
L 543.532366 585.249007 
L 548.248218 584.74313 
L 552.96407 585.880829 
L 557.679922 586.626214 
L 562.395774 586.162251 
L 567.111626 585.241367 
L 571.827478 584.826071 
L 576.54333 584.544813 
L 581.259182 583.633566 
L 585.975034 586.793286 
L 590.690886 585.780188 
L 595.406738 587.229083 
L 600.12259 584.596554 
L 604.838442 585.712304 
L 609.554294 585.72491 
L 614.270146 585.266157 
L 618.985998 586.385149 
L 623.70185 584.997246 
L 628.417702 585.199579 
L 633.133554 583.365862 
L 637.849406 583.084422 
L 642.565258 583.330039 
L 647.28111 583.383976 
L 651.996962 585.933447 
L 656.712814 586.352089 
L 661.428666 585.852779 
L 666.144518 587.253739 
L 670.86037 585.558474 
L 675.576222 583.586106 
L 680.292074 584.499635 
L 685.007926 586.933917 
L 689.723778 584.479718 
L 694.43963 586.559649 
L 699.155482 585.909016 
L 703.871334 584.763864 
L 708.587186 584.755702 
L 713.303038 582.1229 
L 718.01889 580.094853 
L 722.734742 582.561624 
L 727.450594 580.619782 
L 732.166446 580.898477 
L 736.882298 583.731562 
L 741.59815 577.89116 
L 746.314002 576.208826 
L 751.029854 578.141088 
L 755.745706 584.616073 
L 760.461558 583.343623 
L 765.17741 578.088422 
L 769.893262 576.605433 
L 774.609114 577.724983 
L 779.324966 576.259659 
L 784.040818 579.937253 
L 793.472522 579.41784 
L 798.188374 582.921985 
L 802.904226 583.188102 
L 807.620078 583.736628 
L 812.33593 585.131673 
L 817.051782 584.063371 
L 821.767634 585.598702 
L 826.483486 584.99336 
L 831.199338 586.141028 
L 835.91519 582.281183 
L 840.631042 584.297056 
L 845.346894 585.60098 
L 850.062746 585.176272 
L 854.778598 585.774152 
L 859.49445 584.672241 
L 864.210302 585.344135 
L 868.926153 583.151497 
L 873.642005 586.368349 
L 878.357857 583.435531 
L 883.073709 584.538264 
L 887.789561 581.374648 
L 892.505413 584.928442 
L 897.221265 581.793978 
L 901.937117 583.940189 
L 906.652969 585.513957 
L 911.368821 584.629182 
L 916.084673 584.022927 
L 920.800525 584.051625 
L 925.516377 585.442234 
L 930.232229 585.616669 
L 934.948081 584.169914 
L 939.663933 583.938983 
L 944.379785 584.626103 
L 949.095637 585.16341 
L 953.811489 584.291315 
L 958.527341 584.287307 
L 963.243193 585.611174 
L 967.959045 585.33261 
L 972.674897 584.424787 
L 977.390749 582.461212 
L 982.106601 584.335663 
L 986.822453 584.463679 
L 991.538305 584.96793 
L 996.254157 582.630442 
L 1000.970009 585.716999 
L 1005.685861 586.244458 
L 1010.401713 581.682698 
L 1015.117565 585.015987 
L 1019.833417 585.174396 
L 1029.265121 584.431739 
L 1033.980973 585.632894 
L 1038.696825 585.869692 
L 1043.412677 586.667233 
L 1048.128529 586.591654 
L 1052.844381 586.186695 
L 1057.560233 585.611442 
L 1062.276085 585.849835 
L 1066.991937 585.318542 
L 1071.707789 585.446259 
L 1076.423641 583.87374 
L 1081.139493 585.465563 
L 1085.855345 585.524956 
L 1090.571197 586.933247 
L 1095.287049 584.268475 
L 1100.002901 582.780891 
L 1104.718753 585.577915 
L 1109.434605 585.792669 
L 1114.150457 585.816953 
L 1118.866309 584.312823 
L 1123.582161 583.581843 
L 1128.298013 585.264946 
L 1133.013865 584.317233 
L 1137.729717 586.032925 
L 1142.445569 583.461375 
L 1147.161421 582.521504 
L 1151.877273 577.467516 
L 1151.877273 577.467516 
" style="fill:none;stroke:#ff0000;stroke-linecap:square;stroke-width:1.5;"/>
   </g>
   <g id="line2d_24">
    <path clip-path="url(#p167c107d6d)" d="M 213.422727 505.36003 
L 218.138579 501.797236 
L 222.854431 474.70129 
L 227.570283 573.934544 
L 232.286135 577.651505 
L 237.001987 578.826358 
L 241.717839 522.397475 
L 246.433691 501.418727 
L 251.149543 502.198676 
L 255.865395 578.722375 
L 260.581247 496.160594 
L 265.297099 578.478103 
L 270.012951 573.120025 
L 274.728803 575.348352 
L 279.444655 574.288419 
L 284.160507 571.284146 
L 288.876359 572.868014 
L 293.592211 571.594418 
L 298.308063 573.200498 
L 303.023915 546.695368 
L 307.739767 524.695648 
L 312.455619 554.954721 
L 317.171471 574.344777 
L 321.887323 572.58376 
L 326.603175 505.464584 
L 331.319027 573.559536 
L 336.034879 573.989017 
L 340.750731 575.508744 
L 345.466583 578.490553 
L 350.182435 577.664241 
L 354.898287 573.682558 
L 359.614139 576.232085 
L 364.329991 566.582581 
L 369.045843 572.977219 
L 373.761695 578.299362 
L 378.477547 574.011229 
L 383.193399 577.735471 
L 387.909251 577.303725 
L 392.625103 578.976107 
L 397.340955 579.014835 
L 402.056807 576.022944 
L 406.772659 579.165664 
L 411.488511 576.487823 
L 416.204363 578.50789 
L 420.920215 571.743181 
L 425.636067 576.003169 
L 430.351919 568.144988 
L 435.067771 569.757181 
L 439.783623 566.216868 
L 444.499475 577.3755 
L 449.215327 573.556017 
L 453.931179 577.707301 
L 458.647031 580.446575 
L 463.362883 579.632204 
L 468.078735 579.17406 
L 472.794587 579.221988 
L 477.510439 577.918561 
L 482.226291 580.744344 
L 486.942143 579.719923 
L 491.657995 577.808335 
L 496.373847 581.35228 
L 501.089698 581.108682 
L 505.80555 580.677212 
L 510.521402 576.78228 
L 515.237254 576.766569 
L 519.953106 582.325713 
L 524.668958 579.224962 
L 529.38481 575.764223 
L 534.100662 581.351744 
L 538.816514 579.641404 
L 543.532366 577.079443 
L 548.248218 576.055731 
L 552.96407 578.355685 
L 557.679922 579.858008 
L 562.395774 578.923303 
L 567.111626 577.064001 
L 571.827478 576.22369 
L 576.54333 575.653954 
L 581.259182 573.804483 
L 585.975034 580.194262 
L 590.690886 578.15257 
L 595.406738 581.070525 
L 600.12259 575.758801 
L 604.838442 578.015523 
L 609.554294 578.040978 
L 614.270146 577.114116 
L 618.985998 579.372541 
L 623.70185 576.570181 
L 628.417702 576.97949 
L 633.133554 573.260116 
L 637.849406 572.687285 
L 642.565258 573.187226 
L 647.28111 573.296959 
L 651.996962 578.461847 
L 656.712814 579.305919 
L 661.428666 578.299085 
L 666.144518 581.120052 
L 670.86037 577.704862 
L 675.576222 573.708022 
L 680.292074 575.562387 
L 685.007926 580.477167 
L 689.723778 575.522017 
L 694.43963 579.723987 
L 699.155482 578.412562 
L 703.871334 576.097719 
L 708.587186 576.081195 
L 713.303038 570.726196 
L 718.01889 566.569032 
L 722.734742 571.621784 
L 727.450594 567.647814 
L 732.166446 568.219763 
L 736.882298 574.003646 
L 741.59815 562.018789 
L 746.314002 558.521103 
L 751.029854 562.536629 
L 755.745706 575.798359 
L 760.461558 573.21486 
L 765.17741 562.427527 
L 769.893262 559.347589 
L 774.609114 561.674234 
L 779.324966 558.627101 
L 784.040818 566.244779 
L 793.472522 565.174852 
L 798.188374 572.356409 
L 802.904226 572.898363 
L 807.620078 574.013944 
L 812.33593 576.842148 
L 817.051782 574.677503 
L 821.767634 577.786122 
L 826.483486 576.562321 
L 831.199338 578.88052 
L 835.91519 571.049471 
L 840.631042 575.151652 
L 845.346894 577.790722 
L 850.062746 576.932357 
L 854.778598 578.140379 
L 859.49445 575.912139 
L 864.210302 577.271759 
L 868.926153 572.823848 
L 873.642005 579.33869 
L 878.357857 573.401823 
L 883.073709 575.640681 
L 887.789561 569.195746 
L 892.505413 576.430938 
L 897.221265 570.053904 
L 901.937117 574.427412 
L 906.652969 577.614939 
L 911.368821 575.824913 
L 916.084673 574.595405 
L 920.800525 574.653665 
L 925.516377 577.470032 
L 930.232229 577.822412 
L 934.948081 574.893718 
L 939.663933 574.424982 
L 944.379785 575.818678 
L 949.095637 576.906349 
L 953.811489 575.140005 
L 958.527341 575.131878 
L 963.243193 577.811301 
L 967.959045 577.248465 
L 972.674897 575.410667 
L 977.390749 571.416922 
L 982.106601 575.229955 
L 986.822453 575.489506 
L 991.538305 576.510849 
L 996.254157 571.762151 
L 1000.970009 578.025008 
L 1005.685861 579.08903 
L 1010.401713 569.826284 
L 1015.117565 576.608096 
L 1019.833417 576.928562 
L 1024.549269 576.244009 
L 1029.265121 575.424752 
L 1033.980973 577.855182 
L 1038.696825 578.333204 
L 1043.412677 579.94059 
L 1048.128529 579.788429 
L 1052.844381 578.972588 
L 1057.560233 577.811846 
L 1062.276085 578.293128 
L 1066.991937 577.220018 
L 1071.707789 577.47816 
L 1076.423641 574.292483 
L 1081.139493 577.517164 
L 1085.855345 577.637152 
L 1090.571197 580.475809 
L 1095.287049 575.093677 
L 1100.002901 572.068904 
L 1104.718753 577.744135 
L 1109.434605 578.177757 
L 1114.150457 578.226774 
L 1118.866309 575.183618 
L 1123.582161 573.69935 
L 1128.298013 577.111677 
L 1133.013865 575.192567 
L 1137.729717 578.662524 
L 1142.445569 573.454403 
L 1147.161421 571.539945 
L 1151.877273 561.139993 
L 1151.877273 561.139993 
" style="fill:none;stroke:#ff0000;stroke-linecap:square;stroke-width:1.5;"/>
   </g>
   <g id="line2d_25">
    <path clip-path="url(#p167c107d6d)" d="M 213.422727 481.47979 
L 218.138579 476.431284 
L 222.854431 437.325025 
L 227.570283 575.073712 
L 232.286135 579.976482 
L 237.001987 581.522945 
L 241.717839 505.345435 
L 246.433691 475.89373 
L 251.149543 477.001192 
L 255.865395 581.386122 
L 260.581247 468.401392 
L 265.297099 581.064688 
L 270.012951 573.997265 
L 274.728803 576.940381 
L 279.444655 575.541151 
L 284.160507 571.568262 
L 288.876359 573.664072 
L 293.592211 571.979049 
L 298.308063 574.103652 
L 303.023915 538.648736 
L 307.739767 508.531017 
L 312.455619 549.789279 
L 317.171471 575.615581 
L 321.887323 573.288148 
L 326.603175 481.627645 
L 331.319027 574.578207 
L 336.034879 575.145669 
L 340.750731 577.152005 
L 345.466583 581.081082 
L 350.182435 579.993248 
L 354.898287 574.74077 
L 359.614139 578.106052 
L 364.329991 565.330108 
L 369.045843 573.808469 
L 373.761695 580.829434 
L 378.477547 575.175024 
L 383.193399 580.087054 
L 387.909251 579.51839 
L 392.625103 581.719955 
L 397.340955 581.770901 
L 402.056807 577.830263 
L 406.772659 581.969295 
L 411.488511 578.443205 
L 416.204363 581.103892 
L 420.920215 572.175973 
L 425.636067 577.804185 
L 430.351919 567.405997 
L 435.067771 569.545065 
L 439.783623 564.843794 
L 444.499475 579.612948 
L 449.215327 574.573555 
L 453.931179 580.049951 
L 458.647031 583.653164 
L 463.362883 582.582808 
L 468.078735 581.980328 
L 472.794587 582.04337 
L 477.510439 580.328144 
L 482.226291 584.044358 
L 486.942143 582.698144 
L 491.657995 580.182995 
L 496.373847 584.84272 
L 501.089698 584.522868 
L 505.80555 583.956172 
L 510.521402 578.83133 
L 515.237254 578.810621 
L 519.953106 586.120225 
L 524.668958 582.047286 
L 529.38481 577.489037 
L 534.100662 584.842011 
L 538.816514 582.594913 
L 543.532366 579.222913 
L 548.248218 577.873495 
L 552.96407 580.903578 
L 557.679922 582.879669 
L 562.395774 581.650489 
L 567.111626 579.202568 
L 571.827478 578.094976 
L 576.54333 577.343577 
L 581.259182 574.901889 
L 585.975034 583.321626 
L 590.690886 580.636219 
L 595.406738 584.472753 
L 600.12259 577.481886 
L 604.838442 580.455801 
L 609.554294 580.489315 
L 614.270146 579.268592 
L 618.985998 582.241366 
L 623.70185 578.551771 
L 628.417702 579.091209 
L 633.133554 574.182456 
L 637.849406 573.425057 
L 642.565258 574.086108 
L 647.28111 574.231179 
L 651.996962 581.043306 
L 656.712814 582.153768 
L 661.428666 580.82908 
L 666.144518 584.537797 
L 670.86037 580.046752 
L 675.576222 574.774422 
L 680.292074 577.222776 
L 685.007926 583.693361 
L 689.723778 577.169514 
L 694.43963 582.703487 
L 699.155482 580.978431 
L 703.871334 577.928868 
L 708.587186 577.907078 
L 713.303038 570.829305 
L 718.01889 565.312098 
L 722.734742 572.015287 
L 727.450594 566.745741 
L 732.166446 567.505276 
L 736.882298 575.164994 
L 741.59815 559.249952 
L 746.314002 554.573237 
L 751.029854 559.941102 
L 755.745706 577.534059 
L 760.461558 574.122648 
L 765.17741 559.795521 
L 769.893262 555.679662 
L 774.609114 558.789915 
L 779.324966 554.715204 
L 784.040818 564.880905 
L 788.75667 564.240224 
L 793.472522 563.457283 
L 798.188374 572.987422 
L 802.904226 573.704201 
L 807.620078 575.178603 
L 812.33593 578.910229 
L 817.051782 576.054936 
L 821.767634 580.153753 
L 826.483486 578.541404 
L 831.199338 581.594201 
L 835.91519 571.257506 
L 840.631042 576.680805 
L 845.346894 580.159814 
L 850.062746 579.029093 
L 854.778598 580.620171 
L 859.49445 577.684137 
L 864.210302 579.47629 
L 868.926153 573.605665 
L 873.642005 582.196854 
L 878.357857 574.369783 
L 883.073709 577.326068 
L 887.789561 568.80048 
L 892.505413 578.368214 
L 897.221265 569.938421 
L 901.937117 575.724717 
L 906.652969 579.928321 
L 911.368821 577.569078 
L 916.084673 575.946543 
L 920.800525 576.023462 
L 925.516377 579.737467 
L 930.232229 580.201542 
L 934.948081 576.340366 
L 939.663933 575.721492 
L 944.379785 577.560864 
L 949.095637 578.994827 
L 953.811489 576.665431 
L 958.527341 576.654709 
L 963.243193 580.186921 
L 967.959045 579.445604 
L 972.674897 577.022601 
L 977.390749 571.74408 
L 982.106601 576.784139 
L 986.822453 577.126627 
L 991.538305 578.473563 
L 996.254157 572.201083 
L 1000.970009 580.468287 
L 1005.685861 581.868494 
L 1010.401713 569.636675 
L 1015.117565 578.601756 
L 1019.833417 579.024104 
L 1024.549269 578.121763 
L 1029.265121 577.041191 
L 1033.980973 580.244688 
L 1038.696825 580.873998 
L 1043.412677 582.988217 
L 1048.128529 582.788197 
L 1052.844381 581.71533 
L 1057.560233 580.18763 
L 1062.276085 580.821237 
L 1066.991937 579.40813 
L 1071.707789 579.748171 
L 1076.423641 575.546521 
L 1081.139493 579.79954 
L 1085.855345 579.957572 
L 1090.571197 583.691576 
L 1095.287049 576.604292 
L 1100.002901 572.607028 
L 1104.718753 580.098467 
L 1109.434605 580.66937 
L 1114.150457 580.733899 
L 1118.866309 576.722999 
L 1123.582161 574.762966 
L 1128.298013 579.265376 
L 1133.013865 576.734802 
L 1137.729717 581.307379 
L 1142.445569 574.439258 
L 1147.161421 571.906946 
L 1151.877273 558.076336 
L 1151.877273 558.076336 
" style="fill:none;stroke:#ff0000;stroke-linecap:square;stroke-width:1.5;"/>
   </g>
   <g id="line2d_26">
    <path clip-path="url(#p167c107d6d)" d="M 213.422727 507.422603 
L 218.138579 503.859515 
L 222.854431 476.257679 
L 227.570283 573.332366 
L 232.286135 576.770746 
L 237.001987 577.854871 
L 241.717839 524.261023 
L 246.433691 503.480089 
L 251.149543 504.261733 
L 255.865395 577.758964 
L 260.581247 498.191867 
L 265.297099 577.533644 
L 270.012951 572.577154 
L 274.728803 574.641733 
L 279.444655 573.660276 
L 284.160507 570.872676 
L 288.876359 572.343378 
L 293.592211 571.160968 
L 298.308063 572.651799 
L 303.023915 547.730493 
L 307.739767 526.507663 
L 312.455619 555.570058 
L 317.171471 573.712493 
L 321.887323 572.079608 
L 326.603175 507.526932 
L 331.319027 572.984742 
L 336.034879 573.382844 
L 340.750731 574.790159 
L 345.466583 577.545136 
L 350.182435 576.782505 
L 354.898287 573.098789 
L 359.614139 575.459234 
L 364.329991 566.493072 
L 369.045843 572.444689 
L 373.761695 577.368721 
L 378.477547 573.403432 
L 383.193399 576.848279 
L 387.909251 576.44958 
L 392.625103 577.992973 
L 397.340955 578.028674 
L 402.056807 575.265838 
L 406.772659 578.167736 
L 411.488511 575.695665 
L 416.204363 577.561123 
L 420.920215 571.299165 
L 425.636067 575.247551 
L 430.351919 567.950813 
L 435.067771 569.452591 
L 439.783623 566.151518 
L 444.499475 576.515872 
L 449.215327 572.981473 
L 453.931179 576.82227 
L 458.647031 579.347855 
L 463.362883 578.597744 
L 468.078735 578.175475 
L 472.794587 578.219658 
L 477.510439 577.017292 
L 482.226291 579.621992 
L 486.942143 578.678572 
L 491.657995 576.91554 
L 496.373847 580.181387 
L 501.089698 579.957278 
L 505.80555 579.560187 
L 510.521402 575.967831 
L 515.237254 575.953305 
L 519.953106 581.076396 
L 524.668958 578.222399 
L 529.38481 575.026528 
L 534.100662 580.180894 
L 538.816514 578.606226 
L 543.532366 576.242401 
L 548.248218 575.296161 
L 552.96407 577.420704 
L 557.679922 578.805788 
L 562.395774 577.944276 
L 567.111626 576.228134 
L 571.827478 575.45147 
L 576.54333 574.924517 
L 581.259182 573.211816 
L 585.975034 579.115523 
L 590.690886 577.233273 
L 595.406738 579.922165 
L 600.12259 575.021513 
L 604.838442 577.106792 
L 609.554294 577.130293 
L 614.270146 576.274427 
L 618.985998 578.358435 
L 623.70185 575.771797 
L 628.417702 576.150056 
L 633.133554 572.707094 
L 637.849406 572.175671 
L 642.565258 572.639487 
L 647.28111 572.741265 
L 651.996962 577.518651 
L 656.712814 578.297036 
L 661.428666 577.368479 
L 666.144518 579.96774 
L 670.86037 576.820022 
L 675.576222 573.122403 
L 680.292074 574.83979 
L 685.007926 579.376025 
L 689.723778 574.802446 
L 694.43963 578.682316 
L 699.155482 577.473179 
L 703.871334 575.334984 
L 708.587186 575.319706 
L 713.303038 570.354041 
L 718.01889 566.480423 
L 722.734742 571.186398 
L 727.450594 567.487205 
L 732.166446 568.02053 
L 736.882298 573.396402 
L 741.59815 562.221559 
L 746.314002 558.934242 
L 751.029854 562.70725 
L 755.745706 575.058106 
L 760.461558 572.665124 
L 765.17741 562.604945 
L 769.893262 559.712099 
L 774.609114 561.898257 
L 779.324966 559.034049 
L 784.040818 566.177587 
L 793.472522 565.177636 
L 798.188374 571.86859 
L 802.904226 572.371531 
L 807.620078 573.405939 
L 812.33593 576.023151 
L 817.051782 574.020671 
L 821.767634 576.895039 
L 826.483486 575.764534 
L 831.199338 577.904813 
L 835.91519 570.654577 
L 840.631042 574.459681 
L 845.346894 576.899285 
L 850.062746 576.106503 
L 854.778598 577.222024 
L 859.49445 575.163359 
L 864.210302 576.420052 
L 868.926153 572.302394 
L 873.642005 578.32723 
L 878.357857 572.838512 
L 883.073709 574.912239 
L 887.789561 568.929883 
L 892.505413 575.643085 
L 897.221265 569.728717 
L 901.937117 573.78904 
L 906.652969 576.73699 
L 911.368821 575.082662 
L 916.084673 573.944643 
L 920.800525 573.998597 
L 925.516377 576.603176 
L 930.232229 576.928544 
L 934.948081 574.22089 
L 939.663933 573.786783 
L 944.379785 575.076903 
L 949.095637 576.082475 
L 953.811489 574.448898 
L 958.527341 574.441367 
L 963.243193 576.918281 
L 967.959045 576.398539 
L 972.674897 574.699405 
L 977.390749 570.996071 
L 982.106601 574.532147 
L 986.822453 574.772356 
L 991.538305 575.716952 
L 996.254157 571.316778 
L 1000.970009 577.115542 
L 1005.685861 578.097077 
L 1010.401713 569.516895 
L 1015.117565 575.80685 
L 1019.833417 576.102993 
L 1024.549269 575.470259 
L 1029.265121 574.712435 
L 1033.980973 576.95879 
L 1038.696825 577.399961 
L 1043.412677 578.881869 
L 1048.128529 578.741683 
L 1052.844381 577.989722 
L 1057.560233 576.918782 
L 1062.276085 577.36298 
L 1066.991937 576.372271 
L 1071.707789 576.610681 
L 1076.423641 573.664046 
L 1081.139493 576.646703 
L 1085.855345 576.757499 
L 1090.571197 579.37478 
L 1095.287049 574.406003 
L 1100.002901 571.601663 
L 1104.718753 576.856277 
L 1109.434605 577.256515 
L 1114.150457 577.301754 
L 1118.866309 574.489269 
L 1123.582161 573.114362 
L 1128.298013 576.272179 
L 1133.013865 574.497544 
L 1137.729717 577.703764 
L 1142.445569 572.887252 
L 1147.161421 571.110369 
L 1151.877273 561.396742 
L 1151.877273 561.396742 
" style="fill:none;stroke:#ff0000;stroke-linecap:square;stroke-width:1.5;"/>
   </g>
   <g id="line2d_27">
    <path clip-path="url(#p167c107d6d)" d="M 213.422727 553.755078 
L 218.138579 551.916441 
L 222.854431 537.611605 
L 227.570283 587.217199 
L 232.286135 588.924534 
L 237.001987 589.461858 
L 241.717839 562.411756 
L 246.433691 551.720537 
L 251.149543 552.124113 
L 255.865395 589.414341 
L 260.581247 548.987549 
L 265.297099 589.302693 
L 270.012951 586.84156 
L 274.728803 587.867926 
L 279.444655 587.380224 
L 284.160507 585.992944 
L 288.876359 586.725234 
L 293.592211 586.136553 
L 298.308063 586.878696 
L 303.023915 574.367353 
L 307.739767 563.562243 
L 312.455619 578.32595 
L 317.171471 587.406181 
L 321.887323 586.593962 
L 326.603175 553.808886 
L 331.319027 587.04432 
L 336.034879 587.242295 
L 340.750731 587.941651 
L 345.466583 589.308391 
L 350.182435 588.930357 
L 354.898287 587.101041 
L 359.614139 588.273862 
L 364.329991 583.807318 
L 369.045843 586.775647 
L 373.761695 589.220966 
L 378.477547 587.252532 
L 383.193399 588.962972 
L 387.909251 588.765257 
L 392.625103 589.530261 
L 397.340955 589.547947 
L 402.056807 588.177856 
L 406.772659 589.61683 
L 411.488511 588.391213 
L 416.204363 589.316312 
L 420.920215 586.205388 
L 425.636067 588.168773 
L 430.351919 584.535613 
L 435.067771 585.28505 
L 439.783623 583.636571 
L 444.499475 588.798139 
L 449.215327 587.042695 
L 453.931179 588.950076 
L 458.647031 590.201027 
L 463.362883 589.829759 
L 468.078735 589.62066 
L 472.794587 589.642544 
L 477.510439 589.04677 
L 482.226291 590.336643 
L 486.942143 589.869775 
L 491.657995 588.996322 
L 496.373847 590.613292 
L 505.80555 590.306073 
L 510.521402 588.526267 
L 515.237254 588.519064 
L 519.953106 591.055635 
L 524.668958 589.643902 
L 529.38481 588.059031 
L 534.100662 590.613041 
L 538.816514 589.833965 
L 543.532366 588.662493 
L 548.248218 588.192901 
L 552.96407 589.246724 
L 557.679922 589.932756 
L 562.395774 589.506141 
L 567.111626 588.655416 
L 571.827478 588.27001 
L 576.54333 588.008376 
L 581.259182 587.157252 
L 585.975034 590.086054 
L 590.690886 589.153831 
L 595.406738 590.485108 
L 600.12259 588.056541 
L 604.838442 589.091135 
L 609.554294 589.102786 
L 614.270146 588.678376 
L 618.985998 589.711271 
L 623.70185 588.428989 
L 628.417702 588.616675 
L 633.133554 586.906205 
L 637.849406 586.641773 
L 642.565258 586.87257 
L 647.28111 586.923209 
L 651.996962 589.295266 
L 656.712814 589.680861 
L 661.428666 589.220841 
L 666.144518 590.507645 
L 670.86037 588.94896 
L 675.576222 587.112783 
L 680.292074 587.966297 
L 685.007926 590.214956 
L 689.723778 587.947746 
L 694.43963 589.871629 
L 699.155482 589.272729 
L 703.871334 588.212183 
L 708.587186 588.204595 
L 713.303038 585.734499 
L 718.01889 583.800997 
L 722.734742 586.149221 
L 727.450594 584.304077 
L 732.166446 584.57042 
L 736.882298 587.249031 
L 741.59815 581.668794 
L 746.314002 580.018582 
L 751.029854 581.91228 
L 755.745706 588.074712 
L 760.461558 586.885324 
L 765.17741 581.861006 
L 769.893262 580.409404 
L 774.609114 581.506663 
L 779.324966 580.06874 
L 784.040818 583.649601 
L 793.472522 583.149453 
L 798.188374 586.48892 
L 802.904226 586.739245 
L 807.620078 587.253782 
L 812.33593 588.55372 
L 817.051782 587.559358 
L 821.767634 588.986158 
L 826.483486 588.425388 
L 831.199338 589.486596 
L 835.91519 585.884274 
L 840.631042 587.777488 
L 845.346894 588.988263 
L 850.062746 588.595072 
L 854.778598 589.148258 
L 859.49445 588.126971 
L 864.210302 588.750614 
L 868.926153 586.704837 
L 873.642005 589.695815 
L 878.357857 586.971586 
L 883.073709 588.002276 
L 887.789561 585.024297 
L 892.505413 588.365113 
L 897.221265 585.422758 
L 901.937117 587.444234 
L 906.652969 588.90779 
L 911.368821 588.086903 
L 916.084673 587.521569 
L 920.800525 587.548386 
L 925.516377 588.841437 
L 930.232229 589.002767 
L 934.948081 587.658849 
L 939.663933 587.44311 
L 944.379785 588.084046 
L 949.095637 588.583148 
L 953.811489 587.772127 
L 958.527341 587.768396 
L 963.243193 588.997679 
L 967.959045 588.73994 
L 972.674897 587.896572 
L 977.390749 586.054407 
L 982.106601 587.813492 
L 986.822453 587.93281 
L 991.538305 588.401775 
L 996.254157 586.21416 
L 1000.970009 589.095475 
L 1005.685861 589.581833 
L 1010.401713 585.317124 
L 1015.117565 588.446386 
L 1019.833417 588.593334 
L 1029.265121 587.903044 
L 1033.980973 589.017765 
L 1038.696825 589.236448 
L 1043.412677 589.970411 
L 1048.128529 589.901019 
L 1052.844381 589.528657 
L 1057.560233 588.99793 
L 1062.276085 589.218122 
L 1066.991937 588.726909 
L 1071.707789 588.845155 
L 1076.423641 587.382096 
L 1081.139493 588.863014 
L 1085.855345 588.917958 
L 1090.571197 590.214338 
L 1095.287049 587.750822 
L 1100.002901 586.356023 
L 1104.718753 588.966936 
L 1109.434605 589.165348 
L 1114.150457 589.187773 
L 1118.866309 587.792191 
L 1123.582161 587.108784 
L 1128.298013 588.677257 
L 1133.013865 587.796303 
L 1137.729717 589.386992 
L 1142.445569 586.995826 
L 1147.161421 586.111349 
L 1151.877273 581.255102 
L 1151.877273 581.255102 
" style="fill:none;stroke:#ff0000;stroke-linecap:square;stroke-width:1.5;"/>
   </g>
   <g id="line2d_28">
    <path clip-path="url(#p167c107d6d)" d="M 213.422727 544.400411 
L 218.138579 542.438467 
L 222.854431 527.352288 
L 227.570283 581.302779 
L 232.286135 583.260841 
L 237.001987 583.878928 
L 241.717839 553.717198 
L 246.433691 542.22974 
L 251.149543 542.659783 
L 255.865395 583.824239 
L 260.581247 539.324504 
L 265.297099 583.695752 
L 270.012951 580.87316 
L 274.728803 582.048021 
L 279.444655 581.48937 
L 284.160507 579.904145 
L 288.876359 580.740211 
L 293.592211 580.067979 
L 298.308063 580.915614 
L 303.023915 566.828462 
L 307.739767 554.96591 
L 312.455619 571.241242 
L 317.171471 581.519071 
L 321.887323 580.590211 
L 326.603175 544.457911 
L 331.319027 581.105007 
L 336.034879 581.331494 
L 340.750731 582.132532 
L 345.466583 583.702302 
L 350.182435 583.267542 
L 354.898287 581.169882 
L 359.614139 582.513567 
L 364.329991 577.418075 
L 369.045843 580.797831 
L 373.761695 583.601717 
L 378.477547 581.343218 
L 383.193399 583.305029 
L 387.909251 583.077799 
L 392.625103 583.957685 
L 397.340955 583.978048 
L 402.056807 582.40341 
L 406.772659 584.057366 
L 411.488511 582.648245 
L 416.204363 583.711419 
L 420.920215 580.146524 
L 425.636067 582.393 
L 430.351919 578.244958 
L 435.067771 579.097443 
L 439.783623 577.224428 
L 444.499475 583.115576 
L 449.215327 581.103148 
L 453.931179 583.290205 
L 458.647031 584.730679 
L 463.362883 584.302655 
L 468.078735 584.061776 
L 472.794587 584.086976 
L 477.510439 583.401373 
L 482.226291 584.887146 
L 486.942143 584.348771 
L 491.657995 583.343368 
L 496.373847 585.206496 
L 505.80555 584.851872 
L 510.521402 582.803294 
L 515.237254 582.795019 
L 519.953106 585.717634 
L 524.668958 584.088541 
L 529.38481 582.267124 
L 534.100662 585.206211 
L 538.816514 584.307497 
L 543.532366 582.959735 
L 548.248218 582.420686 
L 552.96407 583.631357 
L 557.679922 584.421358 
L 562.395774 583.929917 
L 567.111626 582.951607 
L 571.827478 582.509148 
L 576.54333 582.209037 
L 581.259182 581.234195 
L 585.975034 584.598089 
L 590.690886 583.524495 
L 595.406738 585.058494 
L 600.12259 582.264271 
L 604.838442 583.452392 
L 609.554294 583.465785 
L 614.270146 582.977988 
L 618.985998 584.166135 
L 623.70185 582.691607 
L 628.417702 582.907113 
L 633.133554 580.94707 
L 637.849406 580.64484 
L 642.565258 580.908619 
L 647.28111 580.966507 
L 651.996962 583.687205 
L 656.712814 584.131117 
L 661.428666 583.601583 
L 666.144518 585.084515 
L 670.86037 583.288921 
L 675.576222 581.183319 
L 680.292074 582.160798 
L 685.007926 584.746757 
L 689.723778 582.139519 
L 694.43963 584.350907 
L 699.155482 583.661278 
L 703.871334 582.442795 
L 708.587186 582.434097 
L 713.303038 579.609455 
L 718.01889 577.410916 
L 722.734742 580.082436 
L 727.450594 577.981923 
L 732.166446 578.284516 
L 736.882298 581.339215 
L 741.59815 574.998618 
L 746.314002 573.140094 
L 751.029854 575.273455 
L 755.745706 582.285109 
L 760.461558 580.923197 
L 765.17741 575.215567 
L 769.893262 573.579587 
L 774.609114 574.815692 
L 779.324966 573.196477 
L 784.040818 577.239205 
L 793.472522 576.672443 
L 798.188374 580.470232 
L 802.904226 580.756224 
L 807.620078 581.344645 
L 812.33593 582.83481 
L 817.051782 581.694474 
L 821.767634 583.331682 
L 826.483486 582.687474 
L 831.199338 583.907414 
L 835.91519 579.780215 
L 840.631042 581.944376 
L 845.346894 583.334103 
L 850.062746 582.882306 
L 854.778598 583.518084 
L 859.49445 582.345046 
L 864.210302 583.060973 
L 868.926153 580.716909 
L 873.642005 584.148345 
L 878.357857 581.021819 
L 883.073709 582.202042 
L 887.789561 578.800652 
L 892.505413 582.618285 
L 897.221265 579.254248 
L 901.937117 581.56265 
L 906.652969 583.241603 
L 911.368821 582.299099 
L 916.084673 581.651198 
L 920.800525 581.681911 
L 925.516377 583.165332 
L 930.232229 583.350778 
L 934.948081 581.808435 
L 939.663933 581.561361 
L 944.379785 582.295813 
L 949.095637 582.86861 
L 953.811489 581.938237 
L 958.527341 581.933948 
L 963.243193 583.344937 
L 967.959045 583.048708 
L 972.674897 582.080861 
L 977.390749 579.97426 
L 982.106601 581.985637 
L 986.822453 582.122399 
L 991.538305 582.660367 
L 996.254157 580.156546 
L 1000.970009 583.457376 
L 1005.685861 584.017069 
L 1010.401713 579.133958 
L 1015.117565 582.71158 
L 1019.833417 582.880308 
L 1029.265121 582.088279 
L 1033.980973 583.368023 
L 1038.696825 583.619533 
L 1043.412677 584.46476 
L 1048.128529 584.384779 
L 1052.844381 583.95583 
L 1057.560233 583.345223 
L 1062.276085 583.598444 
L 1066.991937 583.033741 
L 1071.707789 583.169612 
L 1076.423641 581.491506 
L 1081.139493 583.190139 
L 1085.855345 583.253289 
L 1090.571197 584.746043 
L 1095.287049 581.913819 
L 1100.002901 580.318477 
L 1104.718753 583.30959 
L 1109.434605 583.53775 
L 1114.150457 583.563538 
L 1118.866309 581.961219 
L 1123.582161 581.178745 
L 1128.298013 582.9767 
L 1133.013865 581.965931 
L 1137.729717 583.792757 
L 1142.445569 581.049548 
L 1147.161421 580.039221 
L 1151.877273 574.532017 
L 1151.877273 574.532017 
" style="fill:none;stroke:#ff0000;stroke-linecap:square;stroke-width:1.5;"/>
   </g>
   <g id="patch_3">
    <path d="M 166.5 661.5 
L 166.5 90.72 
" style="fill:none;stroke:#000000;stroke-linecap:square;stroke-linejoin:miter;stroke-width:0.8;"/>
   </g>
   <g id="patch_4">
    <path d="M 1198.8 661.5 
L 1198.8 90.72 
" style="fill:none;stroke:#000000;stroke-linecap:square;stroke-linejoin:miter;stroke-width:0.8;"/>
   </g>
   <g id="patch_5">
    <path d="M 166.5 661.5 
L 1198.8 661.5 
" style="fill:none;stroke:#000000;stroke-linecap:square;stroke-linejoin:miter;stroke-width:0.8;"/>
   </g>
   <g id="patch_6">
    <path d="M 166.5 90.72 
L 1198.8 90.72 
" style="fill:none;stroke:#000000;stroke-linecap:square;stroke-linejoin:miter;stroke-width:0.8;"/>
   </g>
  </g>
 </g>
 <defs>
  <clipPath id="p167c107d6d">
   <rect height="570.78" width="1032.3" x="166.5" y="90.72"/>
  </clipPath>
 </defs>
</svg>
