<?xml version="1.0" encoding="utf-8" standalone="no"?>
<!DOCTYPE svg PUBLIC "-//W3C//DTD SVG 1.1//EN"
  "http://www.w3.org/Graphics/SVG/1.1/DTD/svg11.dtd">
<!-- Created with matplotlib (http://matplotlib.org/) -->
<svg height="756pt" version="1.1" viewBox="0 0 1332 756" width="1332pt" xmlns="http://www.w3.org/2000/svg" xmlns:xlink="http://www.w3.org/1999/xlink">
 <defs>
  <style type="text/css">
*{stroke-linecap:butt;stroke-linejoin:round;}
  </style>
 </defs>
 <g id="figure_1">
  <g id="patch_1">
   <path d="M 0 756 
L 1332 756 
L 1332 0 
L 0 0 
z
" style="fill:#ffffff;"/>
  </g>
  <g id="axes_1">
   <g id="patch_2">
    <path d="M 166.5 661.5 
L 1198.8 661.5 
L 1198.8 90.72 
L 166.5 90.72 
z
" style="fill:#ffffff;"/>
   </g>
   <g id="matplotlib.axis_1">
    <g id="xtick_1">
     <g id="line2d_1">
      <defs>
       <path d="M 0 0 
L 0 3.5 
" id="m63256e0af7" style="stroke:#000000;stroke-width:0.8;"/>
      </defs>
      <g>
       <use style="stroke:#000000;stroke-width:0.8;" x="213.422727" xlink:href="#m63256e0af7" y="661.5"/>
      </g>
     </g>
     <g id="text_1">
      <!-- 0 -->
      <defs>
       <path d="M 31.78125 66.40625 
Q 24.171875 66.40625 20.328125 58.90625 
Q 16.5 51.421875 16.5 36.375 
Q 16.5 21.390625 20.328125 13.890625 
Q 24.171875 6.390625 31.78125 6.390625 
Q 39.453125 6.390625 43.28125 13.890625 
Q 47.125 21.390625 47.125 36.375 
Q 47.125 51.421875 43.28125 58.90625 
Q 39.453125 66.40625 31.78125 66.40625 
z
M 31.78125 74.21875 
Q 44.046875 74.21875 50.515625 64.515625 
Q 56.984375 54.828125 56.984375 36.375 
Q 56.984375 17.96875 50.515625 8.265625 
Q 44.046875 -1.421875 31.78125 -1.421875 
Q 19.53125 -1.421875 13.0625 8.265625 
Q 6.59375 17.96875 6.59375 36.375 
Q 6.59375 54.828125 13.0625 64.515625 
Q 19.53125 74.21875 31.78125 74.21875 
z
" id="DejaVuSans-30"/>
      </defs>
      <g transform="translate(207.060227 683.696875)scale(0.2 -0.2)">
       <use xlink:href="#DejaVuSans-30"/>
      </g>
     </g>
    </g>
    <g id="xtick_2">
     <g id="line2d_2">
      <g>
       <use style="stroke:#000000;stroke-width:0.8;" x="331.319027" xlink:href="#m63256e0af7" y="661.5"/>
      </g>
     </g>
     <g id="text_2">
      <!-- 25 -->
      <defs>
       <path d="M 19.1875 8.296875 
L 53.609375 8.296875 
L 53.609375 0 
L 7.328125 0 
L 7.328125 8.296875 
Q 12.9375 14.109375 22.625 23.890625 
Q 32.328125 33.6875 34.8125 36.53125 
Q 39.546875 41.84375 41.421875 45.53125 
Q 43.3125 49.21875 43.3125 52.78125 
Q 43.3125 58.59375 39.234375 62.25 
Q 35.15625 65.921875 28.609375 65.921875 
Q 23.96875 65.921875 18.8125 64.3125 
Q 13.671875 62.703125 7.8125 59.421875 
L 7.8125 69.390625 
Q 13.765625 71.78125 18.9375 73 
Q 24.125 74.21875 28.421875 74.21875 
Q 39.75 74.21875 46.484375 68.546875 
Q 53.21875 62.890625 53.21875 53.421875 
Q 53.21875 48.921875 51.53125 44.890625 
Q 49.859375 40.875 45.40625 35.40625 
Q 44.1875 33.984375 37.640625 27.21875 
Q 31.109375 20.453125 19.1875 8.296875 
z
" id="DejaVuSans-32"/>
       <path d="M 10.796875 72.90625 
L 49.515625 72.90625 
L 49.515625 64.59375 
L 19.828125 64.59375 
L 19.828125 46.734375 
Q 21.96875 47.46875 24.109375 47.828125 
Q 26.265625 48.1875 28.421875 48.1875 
Q 40.625 48.1875 47.75 41.5 
Q 54.890625 34.8125 54.890625 23.390625 
Q 54.890625 11.625 47.5625 5.09375 
Q 40.234375 -1.421875 26.90625 -1.421875 
Q 22.3125 -1.421875 17.546875 -0.640625 
Q 12.796875 0.140625 7.71875 1.703125 
L 7.71875 11.625 
Q 12.109375 9.234375 16.796875 8.0625 
Q 21.484375 6.890625 26.703125 6.890625 
Q 35.15625 6.890625 40.078125 11.328125 
Q 45.015625 15.765625 45.015625 23.390625 
Q 45.015625 31 40.078125 35.4375 
Q 35.15625 39.890625 26.703125 39.890625 
Q 22.75 39.890625 18.8125 39.015625 
Q 14.890625 38.140625 10.796875 36.28125 
z
" id="DejaVuSans-35"/>
      </defs>
      <g transform="translate(318.594027 683.696875)scale(0.2 -0.2)">
       <use xlink:href="#DejaVuSans-32"/>
       <use x="63.623047" xlink:href="#DejaVuSans-35"/>
      </g>
     </g>
    </g>
    <g id="xtick_3">
     <g id="line2d_3">
      <g>
       <use style="stroke:#000000;stroke-width:0.8;" x="449.215327" xlink:href="#m63256e0af7" y="661.5"/>
      </g>
     </g>
     <g id="text_3">
      <!-- 50 -->
      <g transform="translate(436.490327 683.696875)scale(0.2 -0.2)">
       <use xlink:href="#DejaVuSans-35"/>
       <use x="63.623047" xlink:href="#DejaVuSans-30"/>
      </g>
     </g>
    </g>
    <g id="xtick_4">
     <g id="line2d_4">
      <g>
       <use style="stroke:#000000;stroke-width:0.8;" x="567.111626" xlink:href="#m63256e0af7" y="661.5"/>
      </g>
     </g>
     <g id="text_4">
      <!-- 75 -->
      <defs>
       <path d="M 8.203125 72.90625 
L 55.078125 72.90625 
L 55.078125 68.703125 
L 28.609375 0 
L 18.3125 0 
L 43.21875 64.59375 
L 8.203125 64.59375 
z
" id="DejaVuSans-37"/>
      </defs>
      <g transform="translate(554.386626 683.696875)scale(0.2 -0.2)">
       <use xlink:href="#DejaVuSans-37"/>
       <use x="63.623047" xlink:href="#DejaVuSans-35"/>
      </g>
     </g>
    </g>
    <g id="xtick_5">
     <g id="line2d_5">
      <g>
       <use style="stroke:#000000;stroke-width:0.8;" x="685.007926" xlink:href="#m63256e0af7" y="661.5"/>
      </g>
     </g>
     <g id="text_5">
      <!-- 100 -->
      <defs>
       <path d="M 12.40625 8.296875 
L 28.515625 8.296875 
L 28.515625 63.921875 
L 10.984375 60.40625 
L 10.984375 69.390625 
L 28.421875 72.90625 
L 38.28125 72.90625 
L 38.28125 8.296875 
L 54.390625 8.296875 
L 54.390625 0 
L 12.40625 0 
z
" id="DejaVuSans-31"/>
      </defs>
      <g transform="translate(665.920426 683.696875)scale(0.2 -0.2)">
       <use xlink:href="#DejaVuSans-31"/>
       <use x="63.623047" xlink:href="#DejaVuSans-30"/>
       <use x="127.246094" xlink:href="#DejaVuSans-30"/>
      </g>
     </g>
    </g>
    <g id="xtick_6">
     <g id="line2d_6">
      <g>
       <use style="stroke:#000000;stroke-width:0.8;" x="802.904226" xlink:href="#m63256e0af7" y="661.5"/>
      </g>
     </g>
     <g id="text_6">
      <!-- 125 -->
      <g transform="translate(783.816726 683.696875)scale(0.2 -0.2)">
       <use xlink:href="#DejaVuSans-31"/>
       <use x="63.623047" xlink:href="#DejaVuSans-32"/>
       <use x="127.246094" xlink:href="#DejaVuSans-35"/>
      </g>
     </g>
    </g>
    <g id="xtick_7">
     <g id="line2d_7">
      <g>
       <use style="stroke:#000000;stroke-width:0.8;" x="920.800525" xlink:href="#m63256e0af7" y="661.5"/>
      </g>
     </g>
     <g id="text_7">
      <!-- 150 -->
      <g transform="translate(901.713025 683.696875)scale(0.2 -0.2)">
       <use xlink:href="#DejaVuSans-31"/>
       <use x="63.623047" xlink:href="#DejaVuSans-35"/>
       <use x="127.246094" xlink:href="#DejaVuSans-30"/>
      </g>
     </g>
    </g>
    <g id="xtick_8">
     <g id="line2d_8">
      <g>
       <use style="stroke:#000000;stroke-width:0.8;" x="1038.696825" xlink:href="#m63256e0af7" y="661.5"/>
      </g>
     </g>
     <g id="text_8">
      <!-- 175 -->
      <g transform="translate(1019.609325 683.696875)scale(0.2 -0.2)">
       <use xlink:href="#DejaVuSans-31"/>
       <use x="63.623047" xlink:href="#DejaVuSans-37"/>
       <use x="127.246094" xlink:href="#DejaVuSans-35"/>
      </g>
     </g>
    </g>
    <g id="xtick_9">
     <g id="line2d_9">
      <g>
       <use style="stroke:#000000;stroke-width:0.8;" x="1156.593125" xlink:href="#m63256e0af7" y="661.5"/>
      </g>
     </g>
     <g id="text_9">
      <!-- 200 -->
      <g transform="translate(1137.505625 683.696875)scale(0.2 -0.2)">
       <use xlink:href="#DejaVuSans-32"/>
       <use x="63.623047" xlink:href="#DejaVuSans-30"/>
       <use x="127.246094" xlink:href="#DejaVuSans-30"/>
      </g>
     </g>
    </g>
   </g>
   <g id="matplotlib.axis_2">
    <g id="ytick_1">
     <g id="line2d_10">
      <defs>
       <path d="M 0 0 
L -3.5 0 
" id="m901eecded8" style="stroke:#000000;stroke-width:0.8;"/>
      </defs>
      <g>
       <use style="stroke:#000000;stroke-width:0.8;" x="166.5" xlink:href="#m901eecded8" y="560.532159"/>
      </g>
     </g>
     <g id="text_10">
      <!-- 500 -->
      <g transform="translate(121.325 568.130596)scale(0.2 -0.2)">
       <use xlink:href="#DejaVuSans-35"/>
       <use x="63.623047" xlink:href="#DejaVuSans-30"/>
       <use x="127.246094" xlink:href="#DejaVuSans-30"/>
      </g>
     </g>
    </g>
    <g id="ytick_2">
     <g id="line2d_11">
      <g>
       <use style="stroke:#000000;stroke-width:0.8;" x="166.5" xlink:href="#m901eecded8" y="434.213302"/>
      </g>
     </g>
     <g id="text_11">
      <!-- 1000 -->
      <g transform="translate(108.6 441.811739)scale(0.2 -0.2)">
       <use xlink:href="#DejaVuSans-31"/>
       <use x="63.623047" xlink:href="#DejaVuSans-30"/>
       <use x="127.246094" xlink:href="#DejaVuSans-30"/>
       <use x="190.869141" xlink:href="#DejaVuSans-30"/>
      </g>
     </g>
    </g>
    <g id="ytick_3">
     <g id="line2d_12">
      <g>
       <use style="stroke:#000000;stroke-width:0.8;" x="166.5" xlink:href="#m901eecded8" y="307.894444"/>
      </g>
     </g>
     <g id="text_12">
      <!-- 1500 -->
      <g transform="translate(108.6 315.492882)scale(0.2 -0.2)">
       <use xlink:href="#DejaVuSans-31"/>
       <use x="63.623047" xlink:href="#DejaVuSans-35"/>
       <use x="127.246094" xlink:href="#DejaVuSans-30"/>
       <use x="190.869141" xlink:href="#DejaVuSans-30"/>
      </g>
     </g>
    </g>
    <g id="ytick_4">
     <g id="line2d_13">
      <g>
       <use style="stroke:#000000;stroke-width:0.8;" x="166.5" xlink:href="#m901eecded8" y="181.575587"/>
      </g>
     </g>
     <g id="text_13">
      <!-- 2000 -->
      <g transform="translate(108.6 189.174025)scale(0.2 -0.2)">
       <use xlink:href="#DejaVuSans-32"/>
       <use x="63.623047" xlink:href="#DejaVuSans-30"/>
       <use x="127.246094" xlink:href="#DejaVuSans-30"/>
       <use x="190.869141" xlink:href="#DejaVuSans-30"/>
      </g>
     </g>
    </g>
   </g>
   <g id="line2d_14">
    <path clip-path="url(#pde9b1c3a9e)" d="M 213.422727 512.007755 
L 218.138579 509.45667 
L 222.854431 545.991444 
L 227.570283 580.446756 
L 232.286135 517.841994 
L 237.001987 374.485249 
L 241.717839 393.012032 
L 251.149543 418.603651 
L 255.865395 405.601247 
L 260.581247 384.161829 
L 265.297099 286.686342 
L 270.012951 371.278443 
L 274.728803 432.367354 
L 279.444655 395.922418 
L 284.160507 399.12023 
L 288.876359 354.128258 
L 293.592211 396.050404 
L 298.308063 240.129152 
L 303.023915 454.687062 
L 307.739767 429.627649 
L 312.455619 457.049503 
L 317.171471 497.541164 
L 321.887323 462.762475 
L 326.603175 486.786654 
L 331.319027 369.832218 
L 336.034879 393.793516 
L 340.750731 292.929298 
L 345.466583 285.271571 
L 350.182435 416.923888 
L 354.898287 394.339213 
L 359.614139 396.142491 
L 364.329991 460.409028 
L 369.045843 297.200568 
L 373.761695 198.896429 
L 378.477547 331.018096 
L 383.193399 324.492186 
L 387.909251 446.618369 
L 392.625103 375.156709 
L 397.340955 406.113242 
L 402.056807 480.990589 
L 406.772659 444.300848 
L 411.488511 368.590377 
L 416.204363 362.363136 
L 420.920215 274.636104 
L 430.351919 294.13299 
L 435.067771 340.474604 
L 439.783623 406.4995 
L 444.499475 424.765763 
L 449.215327 397.912066 
L 453.931179 442.59188 
L 458.647031 417.844626 
L 463.362883 304.216039 
L 468.078735 501.365518 
L 472.794587 543.96587 
L 477.510439 551.008273 
L 482.226291 534.248843 
L 486.942143 590.736412 
L 491.657995 539.898959 
L 496.373847 548.569485 
L 501.089698 300.564591 
L 505.80555 567.902435 
L 510.521402 573.905107 
L 515.237254 570.689307 
L 519.953106 524.534089 
L 524.668958 541.068949 
L 529.38481 586.934493 
L 534.100662 550.401942 
L 538.816514 575.968879 
L 543.532366 566.750407 
L 548.248218 610.792462 
L 552.96407 586.440434 
L 557.679922 590.269311 
L 562.395774 608.616417 
L 567.111626 592.997798 
L 571.827478 605.701534 
L 576.54333 621.600859 
L 581.259182 592.101768 
L 585.975034 600.444421 
L 590.690886 529.12199 
L 595.406738 510.633406 
L 600.12259 578.470548 
L 604.838442 614.807734 
L 609.554294 572.757576 
L 614.270146 574.634952 
L 618.985998 613.220032 
L 623.70185 625.993395 
L 628.417702 560.763474 
L 633.133554 593.249299 
L 637.849406 631.679436 
L 642.565258 605.881184 
L 647.28111 632.276773 
L 651.996962 635.555455 
L 656.712814 587.201708 
L 661.428666 590.237857 
L 666.144518 589.50354 
L 670.86037 617.518233 
L 675.576222 542.393883 
L 680.292074 620.309602 
L 685.007926 495.964704 
L 689.723778 561.571915 
L 694.43963 554.284706 
L 699.155482 543.280944 
L 703.871334 589.88755 
L 708.587186 560.538904 
L 713.303038 391.269387 
L 718.01889 426.746442 
L 722.734742 408.435261 
L 727.450594 471.289301 
L 732.166446 420.359761 
L 736.882298 463.611338 
L 741.59815 481.765328 
L 746.314002 448.807904 
L 751.029854 390.871887 
L 755.745706 201.99546 
L 760.461558 374.033886 
L 765.17741 319.650511 
L 769.893262 349.300073 
L 774.609114 272.408395 
L 779.324966 286.030621 
L 784.040818 294.094817 
L 788.75667 298.824195 
L 793.472522 344.240599 
L 798.188374 409.510942 
L 802.904226 264.795562 
L 807.620078 299.147571 
L 812.33593 116.664545 
L 817.051782 256.866123 
L 821.767634 248.364005 
L 826.483486 291.797481 
L 831.199338 231.04094 
L 835.91519 341.074189 
L 840.631042 273.987103 
L 845.346894 227.113257 
L 850.062746 357.67418 
L 854.778598 374.70085 
L 859.49445 352.798828 
L 864.210302 381.318821 
L 868.926153 389.237043 
L 873.642005 286.84803 
L 878.357857 413.44537 
L 883.073709 419.618699 
L 887.789561 476.402688 
L 892.505413 398.659874 
L 897.221265 379.944472 
L 901.937117 412.095703 
L 906.652969 434.678155 
L 911.368821 366.3537 
L 916.084673 485.102394 
L 920.800525 493.741493 
L 925.516377 466.804678 
L 930.232229 492.203207 
L 934.948081 478.72021 
L 939.663933 502.688228 
L 944.379785 447.835527 
L 949.095637 471.037775 
L 953.811489 434.125712 
L 958.527341 282.287086 
L 963.243193 418.965201 
L 967.959045 483.642704 
L 972.674897 475.74919 
L 977.390749 484.242315 
L 982.106601 490.114727 
L 986.822453 430.856024 
L 991.538305 475.859214 
L 996.254157 445.473087 
L 1000.970009 519.290467 
L 1005.685861 390.820248 
L 1010.401713 351.462652 
L 1015.117565 319.699927 
L 1019.833417 292.206198 
L 1024.549269 344.227108 
L 1029.265121 266.542703 
L 1033.980973 447.139359 
L 1038.696825 361.45364 
L 1043.412677 327.386859 
L 1048.128529 301.229306 
L 1052.844381 374.413399 
L 1057.560233 297.663173 
L 1062.276085 377.263152 
L 1066.991937 413.910223 
L 1071.707789 428.684477 
L 1076.423641 589.166673 
L 1081.139493 531.468716 
L 1085.855345 484.983377 
L 1090.571197 482.856723 
L 1095.287049 522.843109 
L 1100.002901 511.522691 
L 1104.718753 574.841559 
L 1109.434605 590.756623 
L 1114.150457 541.549517 
L 1118.866309 479.674625 
L 1123.582161 514.751957 
L 1128.298013 436.903615 
L 1133.013865 341.637849 
L 1137.729717 398.100711 
L 1142.445569 341.011308 
L 1147.161421 338.336733 
L 1151.877273 387.952532 
L 1151.877273 387.952532 
" style="fill:none;stroke:#1f77b4;stroke-linecap:square;stroke-width:1.5;"/>
   </g>
   <g id="line2d_15">
    <path clip-path="url(#pde9b1c3a9e)" d="M 213.422727 524.513228 
L 218.138579 522.478033 
L 222.854431 551.502196 
L 227.570283 578.605902 
L 232.286135 529.163079 
L 237.001987 413.487017 
L 241.717839 428.557973 
L 251.149543 449.335035 
L 255.865395 438.78556 
L 260.581247 421.361221 
L 265.297099 341.923129 
L 270.012951 410.876355 
L 274.728803 460.484617 
L 279.444655 430.923445 
L 284.160507 433.521863 
L 288.876359 396.906742 
L 293.592211 431.027451 
L 298.308063 304.026608 
L 303.023915 478.520196 
L 307.739767 458.266805 
L 312.455619 480.425557 
L 317.171471 512.956363 
L 321.887323 485.030043 
L 326.603175 504.341238 
L 331.319027 409.69887 
L 336.034879 429.193222 
L 340.750731 347.011503 
L 345.466583 340.770099 
L 350.182435 447.973021 
L 354.898287 429.636741 
L 359.614139 431.102299 
L 364.329991 483.133779 
L 369.045843 350.493382 
L 373.761695 270.586713 
L 378.477547 378.067993 
L 383.193399 372.746749 
L 387.909251 472.007173 
L 392.625103 414.033525 
L 397.340955 439.201247 
L 402.056807 499.690324 
L 406.772659 470.134995 
L 411.488511 408.687641 
L 416.204363 403.615951 
L 420.920215 332.104798 
L 430.351919 347.992725 
L 435.067771 385.778069 
L 439.783623 439.514792 
L 444.499475 454.329179 
L 449.215327 432.540224 
L 453.931179 468.753969 
L 458.647031 448.719585 
L 463.362883 356.213073 
L 468.078735 516.015155 
L 472.794587 549.900296 
L 477.510439 555.465789 
L 482.226291 542.203388 
L 486.942143 586.643702 
L 491.657995 546.681339 
L 496.373847 553.539688 
L 501.089698 353.235975 
L 505.80555 568.770825 
L 510.521402 573.481923 
L 515.237254 570.959154 
L 519.953106 534.488532 
L 524.668958 547.607744 
L 529.38481 583.67699 
L 534.100662 554.987051 
L 538.816514 575.099605 
L 543.532366 567.865684 
L 548.248218 602.229987 
L 552.96407 583.291195 
L 557.679922 586.279425 
L 562.395774 600.544204 
L 567.111626 588.406515 
L 571.827478 598.284003 
L 576.54333 610.583392 
L 581.259182 587.708199 
L 585.975034 594.201739 
L 590.690886 538.13437 
L 595.406738 523.416974 
L 600.12259 577.059097 
L 604.838442 605.337112 
L 609.554294 572.581986 
L 614.270146 574.054128 
L 618.985998 604.109042 
L 623.70185 613.968636 
L 628.417702 563.156652 
L 633.133554 588.602477 
L 637.849406 618.342372 
L 642.565258 598.423375 
L 647.28111 618.801281 
L 651.996962 621.318313 
L 656.712814 583.885627 
L 661.428666 586.254877 
L 666.144518 585.682086 
L 670.86037 607.431997 
L 675.576222 548.656506 
L 680.292074 609.587174 
L 685.007926 511.694701 
L 689.723778 563.793019 
L 694.43963 558.051316 
L 699.155482 549.358429 
L 703.871334 585.981654 
L 708.587186 562.979849 
L 713.303038 427.141327 
L 718.01889 455.933592 
L 722.734742 441.086176 
L 727.450594 491.894051 
L 732.166446 450.758666 
L 736.882298 485.713848 
L 741.59815 500.312296 
L 746.314002 473.775375 
L 751.029854 426.818159 
L 755.745706 273.094679 
L 760.461558 413.119564 
L 765.17741 368.798545 
L 769.893262 392.971983 
L 774.609114 330.290321 
L 779.324966 341.388679 
L 784.040818 347.961639 
L 788.75667 351.817047 
L 793.472522 388.848086 
L 798.188374 441.95926 
L 802.904226 324.091199 
L 807.620078 352.080663 
L 812.33593 204.472391 
L 817.051782 317.63728 
L 821.767634 310.721014 
L 826.483486 346.088844 
L 831.199338 296.643894 
L 835.91519 386.266814 
L 840.631042 331.576146 
L 845.346894 293.455175 
L 850.062746 399.796039 
L 854.778598 413.662494 
L 859.49445 395.82341 
L 864.210302 419.048316 
L 868.926153 425.488881 
L 873.642005 342.054844 
L 878.357857 445.151679 
L 883.073709 450.157943 
L 887.789561 496.005103 
L 892.505413 433.147856 
L 897.221265 417.930042 
L 901.937117 444.056705 
L 906.652969 462.354559 
L 911.368821 406.866194 
L 916.084673 502.990311 
L 920.800525 509.914765 
L 925.516377 488.285267 
L 930.232229 508.682693 
L 934.948081 497.867027 
L 939.663933 517.072489 
L 944.379785 472.990199 
L 949.095637 491.691681 
L 953.811489 461.907601 
L 958.527341 338.338122 
L 963.243193 449.628165 
L 967.959045 501.819102 
L 972.674897 495.47989 
L 977.390749 502.300245 
L 982.106601 507.009323 
L 986.822453 459.261289 
L 991.538305 495.568338 
L 996.254157 471.082063 
L 1000.970009 530.316509 
L 1005.685861 426.776125 
L 1010.401713 394.734465 
L 1015.117565 368.838883 
L 1019.833417 346.422066 
L 1024.549269 388.837076 
L 1029.265121 325.513674 
L 1033.980973 472.427948 
L 1038.696825 402.87503 
L 1043.412677 375.107086 
L 1048.128529 353.777888 
L 1052.844381 413.428545 
L 1057.560233 350.870519 
L 1062.276085 415.748051 
L 1066.991937 445.528739 
L 1071.707789 457.50311 
L 1076.423641 585.419271 
L 1081.139493 539.997573 
L 1085.855345 502.894801 
L 1090.571197 501.188325 
L 1095.287049 533.143742 
L 1100.002901 524.126376 
L 1104.718753 574.216082 
L 1109.434605 586.659461 
L 1114.150457 547.988181 
L 1118.866309 498.633637 
L 1123.582161 526.701172 
L 1128.298013 464.154911 
L 1133.013865 386.726386 
L 1137.729717 432.693466 
L 1142.445569 386.21559 
L 1147.161421 384.035109 
L 1151.877273 424.444376 
L 1151.877273 424.444376 
" style="fill:none;stroke:#ff0000;stroke-linecap:square;stroke-width:1.5;"/>
   </g>
   <g id="line2d_16">
    <path clip-path="url(#pde9b1c3a9e)" d="M 213.422727 507.987061 
L 218.138579 505.617827 
L 222.854431 539.905255 
L 227.570283 572.894777 
L 232.286135 513.419882 
L 237.001987 386.418082 
L 241.717839 402.007791 
L 251.149543 423.967195 
L 255.865395 412.749489 
L 260.581247 394.527839 
L 265.297099 316.236639 
L 270.012951 383.74642 
L 274.728803 435.975444 
L 279.444655 404.480476 
L 284.160507 407.204751 
L 288.876359 369.594761 
L 293.592211 404.589433 
L 298.308063 281.6035 
L 303.023915 455.732919 
L 307.739767 433.574383 
L 312.455619 457.844241 
L 317.171471 494.603569 
L 321.887323 462.965552 
L 326.603175 484.737576 
L 331.319027 382.544201 
L 336.034879 402.671119 
L 340.750731 321.019054 
L 345.466583 315.157347 
L 350.182435 422.511013 
L 354.898287 403.134484 
L 359.614139 404.667765 
L 364.329991 460.853196 
L 369.045843 324.309635 
L 373.761695 252.466248 
L 378.477547 350.893988 
L 383.193399 345.691137 
L 387.909251 448.550584 
L 392.625103 386.978499 
L 397.340955 413.18886 
L 402.056807 479.450579 
L 406.772659 446.495929 
L 411.488511 381.513142 
L 416.204363 376.361054 
L 420.920215 307.097643 
L 430.351919 321.944796 
L 435.067771 358.49446 
L 439.783623 413.520447 
L 444.499475 429.326541 
L 449.215327 406.174586 
L 453.931179 444.983187 
L 458.647031 423.308925 
L 463.362883 329.747422 
L 468.078735 498.129256 
L 472.794587 537.984829 
L 477.510439 544.671047 
L 482.226291 528.80315 
L 486.942143 582.858192 
L 491.657995 534.135727 
L 496.373847 542.352621 
L 501.089698 326.91197 
L 505.80555 560.815551 
L 510.521402 566.586235 
L 515.237254 563.492533 
L 519.953106 519.675934 
L 524.668958 535.242128 
L 529.38481 579.17116 
L 534.100662 544.094362 
L 538.816514 568.574262 
L 543.532366 559.710084 
L 548.248218 602.412943 
L 552.96407 578.692515 
L 557.679922 582.40485 
L 562.395774 600.283047 
L 567.111626 585.054316 
L 571.827478 597.433047 
L 576.54333 613.020389 
L 581.259182 584.183869 
L 585.975034 592.301991 
L 590.690886 523.97975 
L 595.406738 506.710195 
L 600.12259 570.986848 
L 604.838442 606.348126 
L 609.554294 565.481701 
L 614.270146 567.289046 
L 618.985998 604.791306 
L 623.70185 617.344312 
L 628.417702 553.975683 
L 633.133554 585.298696 
L 637.849406 622.952355 
L 642.565258 597.608602 
L 647.28111 623.542193 
L 651.996962 626.781993 
L 656.712814 579.430081 
L 661.428666 582.374319 
L 666.144518 581.661864 
L 670.86037 609.008231 
L 675.576222 536.495956 
L 680.292074 611.750716 
L 685.007926 493.152891 
L 689.723778 554.748985 
L 694.43963 547.790669 
L 699.155482 537.335964 
L 703.871334 582.034413 
L 708.587186 553.760947 
L 713.303038 400.530206 
L 718.01889 431.055037 
L 722.734742 415.183902 
L 727.450594 470.649877 
L 732.166446 425.491688 
L 736.882298 463.7284 
L 741.59815 480.156034 
L 746.314002 450.495158 
L 751.029854 400.19353 
L 755.745706 254.605804 
L 760.461558 386.041531 
L 765.17741 341.853339 
L 769.893262 365.652477 
L 774.609114 305.421451 
L 779.324966 315.736236 
L 784.040818 321.915437 
L 788.75667 325.564528 
L 793.472522 361.541317 
L 798.188374 416.109459 
L 802.904226 299.724889 
L 807.620078 325.81476 
L 812.33593 198.681492 
L 817.051782 293.84326 
L 821.767634 287.595966 
L 826.483486 320.149563 
L 831.199338 275.056815 
L 835.91519 358.978765 
L 840.631042 306.608805 
L 845.346894 272.249304 
L 850.062746 372.50176 
L 854.778598 386.59797 
L 859.49445 368.507388 
L 864.210302 392.137742 
L 868.926153 398.810006 
L 873.642005 316.36009 
L 878.357857 419.502058 
L 883.073709 424.848097 
L 887.789561 475.280947 
L 892.505413 406.81204 
L 897.221265 390.984497 
L 901.937117 418.337001 
L 906.652969 438.004795 
L 911.368821 379.659129 
L 916.084673 483.19902 
L 920.800525 491.109569 
L 925.516377 466.602369 
L 930.232229 489.697595 
L 934.948081 477.385516 
L 939.663933 499.350749 
L 944.379785 449.631157 
L 949.095637 470.422513 
L 953.811489 437.519334 
L 958.527341 312.886136 
L 963.243193 424.280834 
L 967.959045 481.867091 
L 972.674897 474.688133 
L 977.390749 482.414076 
L 982.106601 487.782936 
L 986.822453 434.650252 
L 991.538305 474.787976 
L 996.254157 447.534745 
L 1000.970009 514.771796 
L 1005.685861 400.149738 
L 1010.401713 367.415945 
L 1015.117565 341.892412 
L 1019.833417 320.463448 
L 1024.549269 361.5304 
L 1029.265121 301.027923 
L 1033.980973 449.012993 
L 1038.696825 375.611159 
L 1043.412677 347.994668 
L 1048.128529 327.427392 
L 1052.844381 386.358161 
L 1057.560233 324.667066 
L 1062.276085 388.738821 
L 1066.991937 419.903682 
L 1071.707789 432.748977 
L 1076.423641 581.335103 
L 1081.139493 526.18575 
L 1085.855345 483.090404 
L 1090.571197 481.150487 
L 1095.287049 518.092708 
L 1100.002901 507.536263 
L 1104.718753 567.488046 
L 1109.434605 582.877806 
L 1114.150457 535.69678 
L 1118.866309 478.253249 
L 1123.582161 510.539975 
L 1128.298013 439.962799 
L 1133.013865 359.434389 
L 1137.729717 406.335384 
L 1142.445569 358.928003 
L 1147.161421 356.769881 
L 1151.877273 397.72436 
L 1151.877273 397.72436 
" style="fill:none;stroke:#ff0000;stroke-linecap:square;stroke-width:1.5;"/>
   </g>
   <g id="line2d_17">
    <path clip-path="url(#pde9b1c3a9e)" d="M 213.422727 484.746596 
L 218.138579 482.358581 
L 227.570283 551.523598 
L 232.286135 490.235669 
L 237.001987 366.687762 
L 241.717839 381.320395 
L 251.149543 402.182867 
L 255.865395 391.488724 
L 260.581247 374.281264 
L 265.297099 302.616222 
L 270.012951 364.194938 
L 274.728803 413.716247 
L 279.444655 383.654857 
L 284.160507 386.231195 
L 288.876359 351.062094 
L 293.592211 383.757738 
L 298.308063 272.051839 
L 303.023915 432.885396 
L 307.739767 411.403003 
L 312.455619 434.948101 
L 317.171471 471.302628 
L 321.887323 439.962891 
L 326.603175 461.463126 
L 331.319027 363.074567 
L 336.034879 381.946253 
L 340.750731 306.890401 
L 345.466583 301.653534 
L 350.182435 400.790307 
L 354.898287 382.383712 
L 359.614139 383.831815 
L 364.329991 437.892508 
L 369.045843 309.839033 
L 373.761695 246.849376 
L 378.477547 333.891766 
L 383.193399 329.151632 
L 387.909251 425.889086 
L 392.625103 367.211232 
L 397.340955 391.906168 
L 402.056807 456.215219 
L 406.772659 423.89352 
L 411.488511 362.114408 
L 416.204363 357.326165 
L 420.920215 294.485001 
L 430.351919 307.719368 
L 435.067771 340.845132 
L 439.783623 392.221225 
L 444.499475 407.319351 
L 449.215327 385.256449 
L 453.931179 422.425927 
L 458.647031 401.553277 
L 463.362883 314.725285 
L 468.078735 474.833496 
L 472.794587 515.283563 
L 477.510439 522.166044 
L 482.226291 505.877557 
L 486.942143 562.005118 
L 491.657995 511.334032 
L 496.373847 519.776425 
L 501.089698 312.175315 
L 505.80555 538.898713 
L 510.521402 544.918797 
L 515.237254 541.68883 
L 519.953106 496.579213 
L 524.668958 512.468373 
L 529.38481 558.119194 
L 534.100662 521.571319 
L 538.816514 546.997522 
L 543.532366 537.747811 
L 548.248218 582.755249 
L 552.96407 557.615353 
L 557.679922 561.526874 
L 562.395774 580.483676 
L 567.111626 564.323706 
L 571.827478 577.448501 
L 576.54333 594.109961 
L 581.259182 563.404371 
L 585.975034 571.99669 
L 590.690886 500.957275 
L 595.406738 483.459198 
L 600.12259 549.523483 
L 604.838442 586.959546 
L 609.554294 543.764919 
L 614.270146 545.65341 
L 618.985998 585.295127 
L 623.70185 598.758401 
L 628.417702 531.789931 
L 633.133554 564.581895 
L 637.849406 604.804521 
L 642.565258 577.635311 
L 647.28111 605.441543 
L 651.996962 608.944447 
L 656.712814 558.391824 
L 661.428666 561.494669 
L 666.144518 560.743333 
L 670.86037 589.806978 
L 675.576222 513.754784 
L 680.292074 592.747176 
L 685.007926 469.852027 
L 689.723778 532.592161 
L 694.43963 525.386728 
L 699.155482 514.61712 
L 703.871334 561.136175 
L 708.587186 531.567223 
L 713.303038 379.927248 
L 718.01889 408.979691 
L 722.734742 393.803017 
L 727.450594 447.517783 
L 732.166446 403.642195 
L 736.882298 440.711213 
L 741.59815 456.914459 
L 746.314002 427.780199 
L 751.029854 379.609909 
L 755.745706 248.684639 
L 760.461558 366.336191 
L 765.17741 325.665466 
L 769.893262 347.425092 
L 774.609114 292.998873 
L 779.324966 302.169819 
L 784.040818 307.693031 
L 788.75667 310.965047 
L 793.472522 343.642188 
L 798.188374 394.683857 
L 802.904226 287.959996 
L 807.620078 311.189714 
L 812.33593 201.463745 
L 817.051782 282.77676 
L 821.767634 277.292283 
L 826.483486 306.112411 
L 831.199338 266.349418 
L 835.91519 341.289283 
L 840.631042 294.051551 
L 845.346894 263.911088 
L 850.062746 353.749978 
L 854.778598 366.855776 
L 859.49445 350.05802 
L 864.210302 372.039166 
L 868.926153 378.306876 
L 873.642005 302.726504 
L 878.357857 397.916923 
L 883.073709 403.025928 
L 887.789561 452.08853 
L 892.505413 385.859578 
L 897.221265 370.958579 
L 901.937117 396.805866 
L 906.652969 415.674097 
L 911.368821 360.38949 
L 916.084673 459.934177 
L 920.800525 467.811111 
L 925.516377 443.533882 
L 930.232229 466.402282 
L 934.948081 454.170077 
L 939.663933 476.058566 
L 944.379785 426.939667 
L 949.095637 447.293733 
L 953.811489 415.20549 
L 958.527341 299.629719 
L 963.243193 402.483029 
L 967.959045 458.611699 
L 972.674897 451.502702 
L 977.390749 459.154645 
L 982.106601 464.49393 
L 986.822453 412.439089 
L 991.538305 451.601342 
L 996.254157 424.902097 
L 1000.970009 491.604421 
L 1005.685861 379.568739 
L 1010.401713 349.050861 
L 1015.117565 325.700962 
L 1019.833417 306.393205 
L 1024.549269 343.632103 
L 1029.265121 289.111022 
L 1033.980973 426.338542 
L 1038.696825 356.630609 
L 1043.412677 331.248352 
L 1048.128529 312.638464 
L 1052.844381 366.631788 
L 1057.560233 310.15958 
L 1062.276085 368.856677 
L 1066.991937 398.300073 
L 1071.707789 410.608637 
L 1076.423641 560.398847 
L 1081.139493 503.205803 
L 1085.855345 459.826254 
L 1090.571197 457.900632 
L 1095.287049 494.971546 
L 1100.002901 484.29199 
L 1104.718753 545.861454 
L 1109.434605 562.025819 
L 1114.150457 512.934745 
L 1118.866309 455.029067 
L 1123.582161 487.323673 
L 1128.298013 417.565519 
L 1133.013865 341.707375 
L 1137.729717 385.408518 
L 1142.445569 341.242715 
L 1147.161421 339.264357 
L 1151.877273 377.285223 
L 1151.877273 377.285223 
" style="fill:none;stroke:#ff0000;stroke-linecap:square;stroke-width:1.5;"/>
   </g>
   <g id="line2d_18">
    <path clip-path="url(#pde9b1c3a9e)" d="M 213.422727 482.884765 
L 218.138579 480.484985 
L 227.570283 551.494902 
L 232.286135 488.416643 
L 237.001987 370.664308 
L 241.717839 383.707747 
L 246.433691 393.127477 
L 251.149543 402.797623 
L 255.865395 392.943241 
L 260.581247 377.395536 
L 265.297099 317.681226 
L 270.012951 368.47291 
L 274.728803 413.577624 
L 279.444655 385.816032 
L 284.160507 388.151112 
L 288.876359 357.084722 
L 293.592211 385.909075 
L 298.308063 295.38345 
L 303.023915 431.816959 
L 307.739767 411.403311 
L 312.455619 433.802087 
L 317.171471 469.430928 
L 321.887323 438.645595 
L 326.603175 459.674508 
L 331.319027 367.491009 
L 336.034879 384.272266 
L 340.750731 320.972054 
L 345.466583 316.945456 
L 350.182435 401.506525 
L 354.898287 384.667105 
L 359.614139 385.976152 
L 364.329991 436.642966 
L 369.045843 323.265038 
L 373.761695 278.854553 
L 378.477547 342.620442 
L 383.193399 338.718559 
L 387.909251 425.115507 
L 392.625103 371.125668 
L 397.340955 393.325189 
L 402.056807 454.503869 
L 406.772659 423.21323 
L 411.488511 366.651063 
L 416.204363 362.483157 
L 420.920215 311.532094 
L 430.351919 321.614782 
L 435.067771 348.417047 
L 439.783623 393.613662 
L 444.499475 407.579637 
L 449.215327 387.266633 
L 453.931179 421.816938 
L 458.647031 402.213522 
L 463.362883 327.10481 
L 468.078735 472.950925 
L 472.794587 513.922043 
L 477.510439 521.000293 
L 482.226291 504.295796 
L 486.942143 562.490602 
L 491.657995 509.873239 
L 496.373847 518.539496 
L 501.089698 325.094842 
L 505.80555 538.323817 
L 510.521402 544.594056 
L 515.237254 541.227486 
L 519.953106 494.836284 
L 524.668958 511.035089 
L 529.38481 558.407845 
L 534.100662 520.387557 
L 538.816514 546.763558 
L 543.532366 537.127288 
L 548.248218 584.407926 
L 552.96407 557.879016 
L 557.679922 561.987732 
L 562.395774 581.999449 
L 567.111626 564.930004 
L 571.827478 578.78474 
L 576.54333 596.478632 
L 581.259182 563.962459 
L 585.975034 573.020417 
L 590.690886 499.283025 
L 595.406738 481.590521 
L 600.12259 549.402777 
L 604.838442 588.871267 
L 609.554294 543.390758 
L 614.270146 545.360481 
L 618.985998 587.103435 
L 623.70185 601.434859 
L 628.417702 530.944804 
L 633.133554 565.201809 
L 637.849406 607.893488 
L 642.565258 578.982484 
L 647.28111 608.574773 
L 651.996962 612.323607 
L 656.712814 558.694059 
L 661.428666 561.953878 
L 666.144518 561.164116 
L 670.86037 591.898232 
L 675.576222 512.35365 
L 680.292074 595.027207 
L 685.007926 467.987621 
L 689.723778 531.776131 
L 694.43963 524.322331 
L 699.155482 513.238144 
L 703.871334 561.577019 
L 708.587186 530.714062 
L 713.303038 382.45307 
L 718.01889 409.132008 
L 722.734742 395.063769 
L 727.450594 445.987493 
L 732.166446 404.153114 
L 736.882298 439.370479 
L 741.59815 455.191453 
L 746.314002 426.921965 
L 751.029854 382.167681 
L 755.745706 279.994692 
L 760.461558 370.354771 
L 765.17741 335.875336 
L 769.893262 353.97924 
L 774.609114 310.42443 
L 779.324966 317.33974 
L 784.040818 321.594428 
L 788.75667 324.145538 
L 793.472522 350.772572 
L 798.188374 395.87263 
L 802.904226 306.707615 
L 807.620078 324.321509 
L 812.33593 254.380521 
L 817.051782 302.947902 
L 821.767634 299.042595 
L 826.483486 320.370159 
L 831.199338 291.484897 
L 835.91519 348.790267 
L 840.631042 311.208495 
L 845.346894 289.845312 
L 850.062746 359.393464 
L 854.778598 370.812368 
L 859.49445 356.225223 
L 864.210302 375.399414 
L 868.926153 380.997073 
L 873.642005 317.765603 
L 878.357857 398.84985 
L 883.073709 403.580424 
L 887.789561 450.454727 
L 892.505413 387.813758 
L 897.221265 374.439934 
L 901.937117 397.825267 
L 906.652969 415.422539 
L 911.368821 365.145506 
L 916.084673 458.165651 
L 920.800525 465.959843 
L 925.516377 442.109263 
L 930.232229 464.562055 
L 934.948081 452.495273 
L 939.663933 474.1745 
L 944.379785 426.118656 
L 949.095637 445.768964 
L 953.811489 414.980577 
L 958.527341 315.40542 
L 963.243193 403.076258 
L 967.959045 456.862171 
L 972.674897 449.881065 
L 977.390749 457.397129 
L 982.106601 462.671219 
L 986.822453 412.376453 
L 991.538305 449.977639 
L 996.254157 424.17416 
L 1000.970009 489.799443 
L 1005.685861 382.130581 
L 1010.401713 355.36483 
L 1015.117565 335.904171 
L 1019.833417 320.587207 
L 1024.549269 350.76403 
L 1029.265121 307.551354 
L 1033.980973 425.544516 
L 1038.696825 361.880614 
L 1043.412677 340.439345 
L 1048.128529 325.458872 
L 1052.844381 370.614995 
L 1057.560233 323.515393 
L 1062.276085 372.578458 
L 1066.991937 399.203549 
L 1071.707789 410.658073 
L 1076.423641 560.802098 
L 1081.139493 501.57183 
L 1085.855345 458.059193 
L 1090.571197 456.161912 
L 1095.287049 493.206675 
L 1100.002901 482.427584 
L 1104.718753 545.577607 
L 1109.434605 562.512352 
L 1114.150457 511.512979 
L 1118.866309 453.338473 
L 1123.582161 485.479221 
L 1133.013865 349.141838 
L 1137.729717 387.404548 
L 1142.445569 348.751101 
L 1147.161421 347.091809 
L 1151.877273 380.080953 
L 1151.877273 380.080953 
" style="fill:none;stroke:#ff0000;stroke-linecap:square;stroke-width:1.5;"/>
   </g>
   <g id="line2d_19">
    <path clip-path="url(#pde9b1c3a9e)" d="M 213.422727 485.568717 
L 218.138579 483.4499 
L 227.570283 546.570024 
L 232.286135 490.456696 
L 237.001987 387.469897 
L 241.717839 398.780338 
L 246.433691 406.960872 
L 251.149543 415.370852 
L 255.865395 406.800753 
L 260.581247 393.304434 
L 265.297099 341.63484 
L 270.012951 385.571321 
L 274.728803 424.761314 
L 279.444655 400.610296 
L 284.160507 402.637812 
L 288.876359 375.711881 
L 293.592211 400.691126 
L 298.308063 322.288965 
L 303.023915 440.688824 
L 307.739767 422.865853 
L 312.455619 442.425431 
L 317.171471 473.702778 
L 321.887323 446.665177 
L 326.603175 465.117059 
L 331.319027 384.720827 
L 336.034879 399.270286 
L 340.750731 344.482504 
L 345.466583 340.998003 
L 350.182435 414.247243 
L 354.898287 399.613006 
L 359.614139 400.749321 
L 364.329991 444.911763 
L 369.045843 346.466136 
L 373.761695 307.823698 
L 378.477547 363.201657 
L 383.193399 359.828148 
L 387.909251 434.830864 
L 392.625103 387.869547 
L 397.340955 407.13271 
L 402.056807 460.573327 
L 406.772659 433.169274 
L 411.488511 383.993291 
L 416.204363 380.384291 
L 420.920215 336.310328 
L 430.351919 345.038603 
L 435.067771 368.214043 
L 439.783623 407.383466 
L 444.499475 419.534409 
L 449.215327 401.869753 
L 453.931179 431.949986 
L 458.647031 414.862523 
L 463.362883 349.786971 
L 468.078735 476.804329 
L 472.794587 513.061865 
L 477.510439 519.355434 
L 482.226291 504.516931 
L 486.942143 556.423234 
L 491.657995 509.46588 
L 496.373847 517.166442 
L 501.089698 348.04873 
L 505.80555 534.795509 
L 510.521402 540.397069 
L 515.237254 537.388669 
L 519.953106 496.135709 
L 524.668958 510.497509 
L 529.38481 552.762223 
L 534.100662 518.810252 
L 538.816514 542.336831 
L 543.532366 533.727381 
L 548.248218 576.126979 
L 552.96407 552.288219 
L 557.679922 555.972175 
L 562.395774 573.957601 
L 567.111626 558.61208 
L 571.827478 571.063631 
L 576.54333 587.014733 
L 581.259182 557.743807 
L 585.975034 565.878999 
L 590.690886 500.073628 
L 595.406738 484.425849 
L 600.12259 544.697692 
L 604.838442 580.149915 
L 609.554294 539.32157 
L 614.270146 541.082247 
L 618.985998 578.556088 
L 623.70185 591.492669 
L 628.417702 528.212295 
L 633.133554 558.856044 
L 637.849406 597.334499 
L 642.565258 571.241599 
L 647.28111 597.951144 
L 651.996962 601.345779 
L 656.712814 553.018747 
L 661.428666 555.941798 
L 666.144518 555.233444 
L 670.86037 582.880196 
L 675.576222 511.668565 
L 680.292074 585.704183 
L 685.007926 472.431618 
L 689.723778 528.953493 
L 694.43963 522.312193 
L 699.155482 512.454295 
L 703.871334 555.603781 
L 708.587186 528.006595 
L 713.303038 397.691485 
L 718.01889 420.886631 
L 722.734742 408.643879 
L 727.450594 453.099112 
L 732.166446 416.550681 
L 736.882298 447.300009 
L 741.59815 461.177274 
L 746.314002 436.409248 
L 751.029854 397.443875 
L 755.745706 308.827372 
L 760.461558 387.201592 
L 765.17741 357.370081 
L 769.893262 373.025107 
L 774.609114 335.350539 
L 779.324966 341.339305 
L 784.040818 345.020932 
L 788.75667 347.227719 
L 793.472522 370.251242 
L 798.188374 409.34699 
L 802.904226 332.128329 
L 807.620078 347.379912 
L 812.33593 285.806901 
L 817.051782 328.865718 
L 821.767634 325.472811 
L 826.483486 343.961716 
L 831.199338 318.891155 
L 835.91519 368.536748 
L 840.631042 336.029934 
L 845.346894 317.459921 
L 850.062746 377.709945 
L 854.778598 387.598097 
L 859.49445 374.968246 
L 864.210302 391.573687 
L 868.926153 396.428266 
L 873.642005 341.707899 
L 878.357857 411.936034 
L 883.073709 416.052129 
L 887.789561 457.018173 
L 892.505413 402.344836 
L 897.221265 390.742005 
L 901.937117 411.044894 
L 906.652969 426.37006 
L 911.368821 382.689517 
L 916.084673 463.79068 
L 920.800525 470.646362 
L 925.516377 449.699451 
L 930.232229 469.416141 
L 934.948081 458.809443 
L 939.663933 477.882958 
L 944.379785 435.707232 
L 949.095637 452.90749 
L 953.811489 425.984627 
L 958.527341 339.664809 
L 963.243193 415.613312 
L 967.959045 462.645144 
L 972.674897 456.514763 
L 977.390749 463.115263 
L 982.106601 467.752485 
L 986.822453 423.714126 
L 991.538305 456.599495 
L 996.254157 434.008542 
L 1000.970009 491.67933 
L 1005.685861 397.41174 
L 1010.401713 374.223779 
L 1015.117565 357.39503 
L 1019.833417 344.14956 
L 1024.549269 370.243841 
L 1029.265121 332.859997 
L 1033.980973 435.205626 
L 1038.696825 379.862701 
L 1043.412677 361.315972 
L 1048.128529 348.363602 
L 1052.844381 387.427091 
L 1057.560233 346.682722 
L 1062.276085 389.128541 
L 1066.991937 412.243658 
L 1071.707789 422.216403 
L 1076.423641 554.908811 
L 1081.139493 502.10187 
L 1085.855345 463.697144 
L 1090.571197 462.029849 
L 1095.287049 494.69342 
L 1100.002901 485.164981 
L 1104.718753 541.276366 
L 1109.434605 556.442755 
L 1114.150457 510.921893 
L 1118.866309 459.549839 
L 1123.582161 487.860513 
L 1133.013865 368.840764 
L 1137.729717 401.989472 
L 1142.445569 368.502917 
L 1147.161421 367.067921 
L 1151.877273 395.633469 
L 1151.877273 395.633469 
" style="fill:none;stroke:#ff0000;stroke-linecap:square;stroke-width:1.5;"/>
   </g>
   <g id="line2d_20">
    <path clip-path="url(#pde9b1c3a9e)" d="M 213.422727 488.22698 
L 218.138579 486.145247 
L 227.570283 548.795962 
L 232.286135 493.036024 
L 237.001987 394.481858 
L 241.717839 404.915283 
L 246.433691 412.542617 
L 251.149543 420.446767 
L 255.865395 412.392768 
L 260.581247 399.846708 
L 265.297099 354.085574 
L 270.012951 392.744572 
L 274.728803 429.339879 
L 279.444655 406.615931 
L 284.160507 408.50396 
L 288.876359 383.795671 
L 293.592211 406.691118 
L 298.308063 338.485196 
L 303.023915 444.566622 
L 307.739767 427.539496 
L 312.455619 446.236661 
L 317.171471 476.59206 
L 321.887323 450.321269 
L 326.603175 468.211223 
L 331.319027 391.967755 
L 336.034879 405.370259 
L 340.750731 356.476196 
L 345.466583 353.553777 
L 350.182435 419.387304 
L 354.898287 405.688709 
L 359.614139 406.745241 
L 364.329991 448.63069 
L 369.045843 358.153344 
L 373.761695 327.826888 
L 378.477547 372.640322 
L 383.193399 369.676146 
L 387.909251 438.947051 
L 392.625103 394.848139 
L 397.340955 412.703538 
L 402.056807 463.78977 
L 406.772659 437.357041 
L 411.488511 391.303964 
L 416.204363 388.020815 
L 420.920215 349.673481 
L 430.351919 356.94542 
L 435.067771 377.08051 
L 439.783623 412.938319 
L 444.499475 424.381463 
L 449.215327 407.788297 
L 453.931179 436.191428 
L 458.647031 419.967335 
L 463.362883 360.981733 
L 468.078735 479.627598 
L 472.794587 515.385997 
L 477.510439 521.637624 
L 482.226291 506.917483 
L 486.942143 558.673497 
L 491.657995 511.819355 
L 496.373847 519.461877 
L 501.089698 359.498134 
L 505.80555 537.022295 
L 510.521402 542.619229 
L 515.237254 539.612325 
L 519.953106 498.634485 
L 524.668958 512.842149 
L 529.38481 555.000882 
L 534.100662 521.095634 
L 538.816514 544.559192 
L 543.532366 535.95594 
L 548.248218 578.487385 
L 552.96407 554.525614 
L 557.679922 558.220826 
L 562.395774 576.302124 
L 567.111626 560.870631 
L 571.827478 573.388356 
L 576.54333 589.467897 
L 581.259182 559.998927 
L 585.975034 568.17236 
L 590.690886 502.523277 
L 595.406738 487.103911 
L 600.12259 546.921518 
L 604.838442 582.542102 
L 609.554294 541.544008 
L 614.270146 543.304376 
L 618.985998 580.935322 
L 623.70185 593.990018 
L 628.417702 530.454779 
L 633.133554 561.115582 
L 637.849406 599.894561 
L 642.565258 573.567495 
L 647.28111 600.518145 
L 651.996962 603.952084 
L 656.712814 555.258146 
L 661.428666 558.190357 
L 666.144518 557.479612 
L 670.86037 585.295635 
L 675.576222 514.003582 
L 680.292074 588.145057 
L 685.007926 475.349195 
L 689.723778 531.193633 
L 694.43963 524.57867 
L 699.155482 514.783099 
L 703.871334 557.851183 
L 708.587186 530.249757 
L 713.303038 403.904948 
L 718.01889 425.662323 
L 722.734742 414.119506 
L 727.450594 456.539065 
L 732.166446 421.560352 
L 736.882298 450.933743 
L 741.59815 464.376894 
L 746.314002 440.459115 
L 751.029854 403.675379 
L 755.745706 328.528765 
L 760.461558 394.236066 
L 765.17741 367.529312 
L 769.893262 381.379761 
L 774.609114 348.886795 
L 779.324966 353.838642 
L 784.040818 356.930493 
L 788.75667 358.799834 
L 793.472522 378.896683 
L 798.188374 414.779071 
L 802.904226 346.266141 
L 807.620078 358.929113 
L 812.33593 314.719672 
L 817.051782 343.647214 
L 821.767634 340.963401 
L 826.483486 356.037472 
L 831.199338 335.887301 
L 835.91519 377.36778 
L 840.631042 349.443326 
L 845.346894 334.808718 
L 850.062746 385.59886 
L 854.778598 394.599356 
L 859.49445 383.12599 
L 864.210302 398.251347 
L 868.926153 402.734309 
L 873.642005 354.146606 
L 878.357857 417.211265 
L 883.073709 421.089679 
L 887.789561 460.337389 
L 892.505413 408.230907 
L 897.221265 397.485785 
L 901.937117 416.373446 
L 906.652969 430.870077 
L 911.368821 390.116024 
L 916.084673 466.919524 
L 920.800525 473.604786 
L 925.516377 453.25075 
L 930.232229 472.403538 
L 934.948081 462.076077 
L 939.663933 480.684254 
L 944.379785 439.786427 
L 949.095637 456.353596 
L 953.811489 430.503302 
L 958.527341 352.444046 
L 963.243193 420.675504 
L 967.959045 465.804581 
L 972.674897 459.849044 
L 977.390749 466.26207 
L 982.106601 470.780205 
L 986.822453 428.344825 
L 991.538305 459.931201 
L 996.254157 438.159933 
L 1000.970009 494.24034 
L 1005.685861 403.645526 
L 1010.401713 382.456278 
L 1015.117565 367.551054 
L 1019.833417 356.195617 
L 1024.549269 378.890083 
L 1029.265121 346.858384 
L 1033.980973 439.305978 
L 1038.696825 387.547705 
L 1043.412677 370.980937 
L 1048.128529 359.766376 
L 1052.844381 394.442691 
L 1057.560233 358.337024 
L 1062.276085 396.00305 
L 1066.991937 417.500663 
L 1071.707789 426.923199 
L 1076.423641 557.1539 
L 1081.139493 504.528311 
L 1085.855345 466.828439 
L 1090.571197 465.206031 
L 1095.287049 497.211563 
L 1100.002901 487.830182 
L 1104.718753 543.498496 
L 1109.434605 558.693072 
L 1114.150457 513.263016 
L 1118.866309 462.795241 
L 1123.582161 490.480643 
L 1128.298013 432.353892 
L 1133.013865 377.638552 
L 1137.729717 407.899813 
L 1142.445569 377.337589 
L 1147.161421 376.061632 
L 1151.877273 401.998662 
L 1151.877273 401.998662 
" style="fill:none;stroke:#ff0000;stroke-linecap:square;stroke-width:1.5;"/>
   </g>
   <g id="line2d_21">
    <path clip-path="url(#pde9b1c3a9e)" d="M 213.422727 496.716017 
L 218.138579 494.778892 
L 222.854431 523.746155 
L 227.570283 553.458395 
L 232.286135 501.194554 
L 237.001987 410.586648 
L 241.717839 420.040856 
L 246.433691 426.977075 
L 251.149543 434.185515 
L 255.865395 426.84061 
L 260.581247 415.442862 
L 265.297099 374.440211 
L 270.012951 409.016483 
L 274.728803 442.319404 
L 279.444655 421.585641 
L 284.160507 423.301863 
L 288.876359 400.947866 
L 293.592211 421.653981 
L 298.308063 360.756511 
L 303.023915 456.299765 
L 307.739767 440.670783 
L 312.455619 457.836994 
L 317.171471 485.90163 
L 321.887323 461.599945 
L 326.603175 478.130877 
L 331.319027 408.314759 
L 336.034879 420.454014 
L 340.750731 376.55414 
L 345.466583 373.970525 
L 350.182435 433.218186 
L 354.898287 420.743289 
L 359.614139 421.70314 
L 364.329991 460.041977 
L 369.045843 378.039466 
L 373.761695 351.558611 
L 378.477547 390.93981 
L 383.193399 388.290753 
L 387.909251 451.132612 
L 392.625103 410.917896 
L 397.340955 427.123594 
L 402.056807 474.037989 
L 406.772659 449.672204 
L 411.488511 407.715331 
L 416.204363 404.753221 
L 420.920215 370.549523 
L 430.351919 376.969549 
L 435.067771 394.916264 
L 439.783623 427.337466 
L 444.499475 437.781362 
L 449.215327 422.651148 
L 453.931179 448.60204 
L 458.647031 433.747717 
L 463.362883 380.54845 
L 468.078735 488.720197 
L 472.794587 522.071397 
L 477.510439 527.928725 
L 482.226291 514.14916 
L 486.942143 562.775968 
L 491.657995 518.733123 
L 496.373847 525.889336 
L 501.089698 379.231816 
L 505.80555 542.374378 
L 510.521402 547.640404 
L 515.237254 544.810565 
L 519.953106 506.414428 
L 524.668958 519.690151 
L 529.38481 559.309625 
L 534.100662 527.420597 
L 538.816514 549.466969 
L 543.532366 541.371707 
L 548.248218 581.515761 
L 552.96407 558.86121 
L 557.679922 562.348602 
L 562.395774 579.445833 
L 567.111626 564.850808 
L 571.827478 576.687025 
L 576.54333 591.92817 
L 581.259182 564.027531 
L 585.975034 571.751878 
L 590.690886 510.04406 
L 595.406738 495.670833 
L 600.12259 551.692121 
L 604.838442 585.358486 
L 609.554294 546.628311 
L 614.270146 548.285413 
L 618.985998 583.835413 
L 623.70185 596.221808 
L 628.417702 536.202364 
L 633.133554 565.082167 
L 637.849406 601.832674 
L 642.565258 576.856604 
L 647.28111 602.425541 
L 651.996962 605.691443 
L 656.712814 559.552355 
L 661.428666 562.319828 
L 666.144518 561.64889 
L 670.86037 587.969541 
L 675.576222 520.7772 
L 680.292074 590.672783 
L 685.007926 484.748231 
L 689.723778 536.896316 
L 694.43963 530.686846 
L 699.155482 521.50691 
L 703.871334 561.999629 
L 708.587186 536.009801 
L 713.303038 419.123626 
L 718.01889 438.952911 
L 722.734742 428.413521 
L 727.450594 467.336351 
L 732.166446 435.202727 
L 736.882298 462.164556 
L 741.59815 474.581212 
L 746.314002 452.522088 
L 751.029854 418.91515 
L 755.745706 352.159027 
L 760.461558 410.364449 
L 765.17741 386.375061 
L 769.893262 398.775496 
L 774.609114 369.857421 
L 779.324966 374.222083 
L 784.040818 376.95635 
L 788.75667 378.612465 
L 793.472522 396.545456 
L 798.188374 429.01463 
L 802.904226 367.555309 
L 807.620078 378.727127 
L 812.33593 340.616117 
L 817.051782 365.260537 
L 821.767634 362.915435 
L 826.483486 376.16587 
L 831.199338 358.500597 
L 835.91519 395.173898 
L 840.631042 370.34703 
L 845.346894 357.566313 
L 850.062746 402.570921 
L 854.778598 410.692922 
L 859.49445 400.345446 
L 864.210302 413.997659 
L 868.926153 418.061234 
L 873.642005 374.49415 
L 878.357857 431.232349 
L 883.073709 434.772716 
L 887.789561 470.845431 
L 892.505413 423.053604 
L 897.221265 413.304508 
L 901.937117 430.468191 
L 906.652969 443.721355 
L 911.368821 406.643039 
L 916.084673 476.934703 
L 920.800525 483.129955 
L 925.516377 464.301414 
L 930.232229 482.015984 
L 934.948081 472.452912 
L 939.663933 489.701805 
L 944.379785 451.903863 
L 949.095637 467.165084 
L 953.811489 443.385281 
L 958.527341 372.99106 
L 963.243193 434.394438 
L 967.959045 475.902518 
L 972.674897 470.394079 
L 977.390749 476.326007 
L 982.106601 480.511121 
L 986.822453 441.408157 
L 991.538305 470.470021 
L 996.254157 450.409578 
L 1000.970009 502.316883 
L 1005.685861 418.888135 
L 1010.401713 399.74318 
L 1015.117565 386.394429 
L 1019.833417 376.305851 
L 1024.549269 396.539628 
L 1029.265121 368.075049 
L 1033.980973 451.462364 
L 1038.696825 404.326741 
L 1043.412677 389.456242 
L 1048.128529 379.469713 
L 1052.844381 410.551245 
L 1057.560233 378.202237 
L 1062.276085 411.962525 
L 1066.991937 431.496351 
L 1071.707789 440.10665 
L 1076.423641 561.341435 
L 1081.139493 511.916669 
L 1085.855345 476.850372 
L 1090.571197 475.348501 
L 1095.287049 505.087109 
L 1100.002901 496.346698 
L 1104.718753 548.468199 
L 1109.434605 562.794457 
L 1114.150457 520.084034 
L 1118.866309 473.117999 
L 1123.582161 498.814187 
L 1128.298013 445.081473 
L 1133.013865 395.416728 
L 1137.729717 422.752548 
L 1142.445569 395.14682 
L 1147.161421 394.002981 
L 1151.877273 417.393896 
L 1151.877273 417.393896 
" style="fill:none;stroke:#ff0000;stroke-linecap:square;stroke-width:1.5;"/>
   </g>
   <g id="line2d_22">
    <path clip-path="url(#pde9b1c3a9e)" d="M 213.422727 501.462087 
L 218.138579 499.306679 
L 222.854431 531.540254 
L 227.570283 564.597307 
L 232.286135 506.445468 
L 237.001987 405.82209 
L 241.717839 416.280311 
L 246.433691 423.963926 
L 251.149543 431.95674 
L 255.865395 423.812658 
L 260.581247 411.191721 
L 265.297099 366.121701 
L 270.012951 404.087149 
L 274.728803 440.983295 
L 279.444655 417.990858 
L 284.160507 419.891747 
L 288.876359 395.182193 
L 293.592211 418.066569 
L 298.308063 351.351215 
L 303.023915 456.512281 
L 307.739767 439.153183 
L 312.455619 458.2207 
L 317.171471 489.429862 
L 321.887323 462.403208 
L 326.603175 480.785532 
L 331.319027 403.311965 
L 336.034879 416.737816 
L 340.750731 368.42295 
L 345.466583 365.610906 
L 350.182435 430.883693 
L 354.898287 417.058054 
L 359.614139 418.121001 
L 364.329991 460.671459 
L 369.045843 370.042119 
L 373.761695 341.637061 
L 378.477547 384.167473 
L 383.193399 381.259086 
L 387.909251 450.770971 
L 392.625103 406.188125 
L 397.340955 424.126389 
L 402.056807 476.233211 
L 406.772659 449.14861 
L 411.488511 402.649871 
L 416.204363 399.379643 
L 420.920215 361.897483 
L 430.351919 368.875582 
L 435.067771 388.539135 
L 439.783623 424.363391 
L 444.499475 435.946316 
L 449.215327 419.170965 
L 453.931179 447.959961 
L 458.647031 431.471125 
L 463.362883 372.781074 
L 468.078735 492.565644 
L 472.794587 529.676665 
L 477.510439 536.194314 
L 482.226291 520.861006 
L 486.942143 574.960657 
L 491.657995 525.961947 
L 496.373847 533.925078 
L 501.089698 371.343148 
L 505.80555 552.267017 
L 510.521402 558.125416 
L 515.237254 554.977336 
L 519.953106 512.253946 
L 524.668958 527.026915 
L 529.38481 571.105473 
L 534.100662 535.628948 
L 538.816514 560.157358 
L 543.532366 551.151503 
L 548.248218 595.797456 
L 552.96407 570.606735 
L 557.679922 574.485381 
L 562.395774 593.496369 
L 567.111626 577.26812 
L 571.827478 590.429274 
L 576.54333 607.370866 
L 581.259182 576.352555 
L 585.975034 584.942122 
L 590.690886 516.292942 
L 595.406738 500.299127 
L 600.12259 562.632588 
L 604.838442 600.069028 
L 609.554294 556.999518 
L 614.270146 558.84296 
L 618.985998 598.376029 
L 623.70185 612.142271 
L 628.417702 545.400156 
L 633.133554 577.525414 
L 637.849406 618.376627 
L 642.565258 590.617796 
L 647.28111 619.035322 
L 651.996962 622.663574 
L 656.712814 571.375442 
L 661.428666 574.453377 
L 666.144518 573.707183 
L 670.86037 602.971224 
L 675.576222 528.236535 
L 680.292074 605.975668 
L 685.007926 488.146689 
L 689.723778 546.172286 
L 694.43963 539.263283 
L 699.155482 529.048525 
L 703.871334 574.097273 
L 708.587186 545.185944 
L 713.303038 415.264918 
L 718.01889 437.24645 
L 722.734742 425.556081 
L 727.450594 468.780707 
L 732.166446 433.08519 
L 736.882298 463.03087 
L 741.59815 476.837404 
L 746.314002 452.314661 
L 751.029854 415.034176 
L 755.745706 342.262055 
L 760.461558 405.576576 
L 765.17741 379.158171 
L 769.893262 392.788118 
L 774.609114 361.147711 
L 779.324966 365.884453 
L 784.040818 368.861087 
L 788.75667 370.667237 
L 793.472522 390.332209 
L 798.188374 426.222493 
L 802.904226 358.658033 
L 807.620078 370.792323 
L 812.33593 330.848517 
L 817.051782 356.183436 
L 821.767634 353.66298 
L 826.483486 367.999985 
L 831.199338 348.945976 
L 835.91519 388.822674 
L 840.631042 361.678029 
L 845.346894 347.953435 
L 850.062746 396.971937 
L 854.778598 405.939496 
L 859.49445 394.518094 
L 864.210302 409.593152 
L 868.926153 414.089036 
L 873.642005 366.180297 
L 878.357857 428.681393 
L 883.073709 432.608133 
L 887.789561 472.682744 
L 892.505413 419.616689 
L 897.221265 408.826635 
L 901.937117 427.834045 
L 906.652969 442.539799 
L 911.368821 401.465724 
L 916.084673 479.455005 
L 920.800525 486.346414 
L 925.516377 465.40638 
L 930.232229 485.107219 
L 934.948081 474.470391 
L 939.663933 493.657735 
L 944.379785 451.627802 
L 949.095637 468.590288 
L 953.811489 442.166625 
L 958.527341 364.546447 
L 963.243193 432.188484 
L 967.959045 478.306971 
L 972.674897 472.18083 
L 977.390749 478.777999 
L 982.106601 483.433185 
L 986.822453 439.971696 
L 991.538305 472.265269 
L 996.254157 449.96777 
L 1000.970009 507.694316 
L 1005.685861 415.004231 
L 1010.401713 393.854334 
L 1015.117565 379.179358 
L 1019.833417 368.152456 
L 1024.549269 390.325733 
L 1029.265121 359.219529 
L 1033.980973 451.137345 
L 1038.696825 398.90897 
L 1043.412677 382.538249 
L 1048.128529 371.60291 
L 1052.844381 405.782954 
L 1057.560233 370.219663 
L 1062.276085 407.342881 
L 1066.991937 428.974138 
L 1071.707789 438.526986 
L 1076.423641 573.36525 
L 1081.139493 518.376725 
L 1085.855345 479.361222 
L 1090.571197 477.690766 
L 1095.287049 510.776931 
L 1100.002901 501.051166 
L 1104.718753 559.046301 
L 1109.434605 574.981235 
L 1114.150457 527.465207 
L 1118.866309 475.210047 
L 1123.582161 503.796735 
L 1128.298013 444.050028 
L 1133.013865 389.089837 
L 1137.729717 419.283282 
L 1142.445569 388.792821 
L 1147.161421 387.534444 
L 1151.877273 413.350398 
L 1151.877273 413.350398 
" style="fill:none;stroke:#ff0000;stroke-linecap:square;stroke-width:1.5;"/>
   </g>
   <g id="line2d_23">
    <path clip-path="url(#pde9b1c3a9e)" d="M 213.422727 496.340931 
L 218.138579 494.436033 
L 227.570283 551.958806 
L 232.286135 500.743464 
L 237.001987 411.348139 
L 241.717839 420.692465 
L 246.433691 427.549427 
L 251.149543 434.674954 
L 255.865395 427.414535 
L 260.581247 416.147423 
L 265.297099 375.771401 
L 270.012951 409.796755 
L 274.728803 442.713087 
L 279.444655 422.219579 
L 284.160507 423.916218 
L 288.876359 401.828428 
L 293.592211 422.287179 
L 298.308063 362.522632 
L 303.023915 456.519991 
L 307.739767 441.084141 
L 312.455619 458.037282 
L 317.171471 485.701466 
L 321.887323 461.750643 
L 326.603175 478.04906 
L 331.319027 409.10345 
L 336.034879 421.100935 
L 340.750731 377.836789 
L 345.466583 375.313064 
L 350.182435 433.718774 
L 354.898287 421.386818 
L 359.614139 422.335752 
L 364.329991 460.213383 
L 369.045843 379.289856 
L 373.761695 353.846784 
L 378.477547 391.960353 
L 383.193399 389.352745 
L 387.909251 451.41851 
L 392.625103 411.675439 
L 397.340955 427.694311 
L 402.056807 474.016093 
L 406.772659 449.976298 
L 411.488511 408.511207 
L 416.204363 405.585489 
L 420.920215 371.980417 
L 430.351919 378.242946 
L 435.067771 395.878427 
L 439.783623 427.905716 
L 444.499475 438.228813 
L 449.215327 423.272904 
L 453.931179 448.919426 
L 458.647031 434.242229 
L 463.362883 381.747708 
L 468.078735 488.475608 
L 472.794587 521.237388 
L 477.510439 526.978743 
L 482.226291 513.466049 
L 486.942143 561.057989 
L 491.657995 517.963521 
L 496.373847 524.98017 
L 501.089698 380.457381 
L 505.80555 541.122199 
L 510.521402 546.27236 
L 515.237254 543.505173 
L 519.953106 505.872022 
L 524.668958 518.902231 
L 529.38481 557.673994 
L 534.100662 526.480838 
L 538.816514 548.058018 
L 543.532366 540.141255 
L 548.248218 579.330061 
L 552.96407 557.236134 
L 557.679922 560.640845 
L 562.395774 577.313655 
L 567.111626 563.082915 
L 571.827478 574.625462 
L 576.54333 589.466355 
L 581.259182 562.279498 
L 585.975034 569.814598 
L 590.690886 509.436443 
L 595.406738 495.313218 
L 600.12259 550.232854 
L 604.838442 583.072226 
L 609.554294 545.282765 
L 614.270146 546.902983 
L 618.985998 581.58919 
L 623.70185 593.64278 
L 628.417702 535.082101 
L 633.133554 563.308676 
L 637.849406 599.09759 
L 642.565258 574.790708 
L 647.28111 599.673796 
L 651.996962 602.847141 
L 656.712814 557.911004 
L 661.428666 560.612766 
L 666.144518 559.957834 
L 670.86037 585.614062 
L 675.576222 519.968309 
L 680.292074 588.244862 
L 685.007926 484.565984 
L 689.723778 535.76145 
L 694.43963 529.680952 
L 699.155482 520.683895 
L 703.871334 560.300214 
L 708.587186 534.89361 
L 713.303038 419.785751 
L 718.01889 439.386577 
L 722.734742 428.969496 
L 727.450594 467.409179 
L 732.166446 435.680371 
L 736.882298 462.307729 
L 741.59815 474.551437 
L 746.314002 452.7905 
L 751.029854 419.579743 
L 755.745706 354.402667 
L 760.461558 411.128592 
L 765.17741 387.468663 
L 769.893262 399.684677 
L 774.609114 371.307559 
L 779.324966 375.558547 
L 784.040818 378.230055 
L 788.75667 379.85089 
L 793.472522 397.48486 
L 798.188374 429.563682 
L 802.904226 369.073695 
L 807.620078 379.963146 
L 812.33593 344.463137 
L 817.051782 366.853987 
L 821.767634 364.594033 
L 826.483486 377.457215 
L 831.199338 360.36929 
L 835.91519 396.132391 
L 840.631042 371.783475 
L 845.346894 359.48145 
L 850.062746 403.430605 
L 854.778598 411.453179 
L 859.49445 401.233779 
L 864.210302 414.718996 
L 868.926153 418.735603 
L 873.642005 375.824075 
L 878.357857 431.755928 
L 883.073709 435.255355 
L 887.789561 470.869162 
L 892.505413 423.670766 
L 897.221265 414.033957 
L 901.937117 431.000559 
L 906.652969 444.09823 
L 911.368821 407.451992 
L 916.084673 476.870526 
L 920.800525 482.972704 
L 925.516377 464.415783 
L 930.232229 481.875756 
L 934.948081 472.453776 
L 939.663933 489.44155 
L 944.379785 452.180047 
L 949.095637 467.240286 
L 953.811489 443.76615 
L 958.527341 374.357716 
L 963.243193 434.881441 
L 967.959045 475.853468 
L 972.674897 470.424193 
L 977.390749 476.270789 
L 982.106601 480.393653 
L 986.822453 441.812695 
L 991.538305 470.499056 
L 996.254157 450.704512 
L 1000.970009 501.84641 
L 1005.685861 419.552944 
L 1010.401713 400.639501 
L 1015.117565 387.487691 
L 1019.833417 377.593989 
L 1024.549269 397.479062 
L 1029.265121 369.577491 
L 1033.980973 451.744145 
L 1038.696825 405.164344 
L 1043.412677 390.49973 
L 1048.128529 380.690497 
L 1052.844381 411.313136 
L 1057.560233 379.449235 
L 1062.276085 412.707732 
L 1066.991937 432.016862 
L 1071.707789 440.526685 
L 1076.423641 559.657703 
L 1081.139493 511.274836 
L 1085.855345 476.787429 
L 1090.571197 475.307561 
L 1095.287049 504.568202 
L 1100.002901 495.97781 
L 1104.718753 547.081683 
L 1109.434605 561.076038 
L 1114.150457 519.288543 
L 1118.866309 473.109333 
L 1123.582161 498.403759 
L 1128.298013 445.441895 
L 1133.013865 396.371799 
L 1137.729717 423.373195 
L 1142.445569 396.105715 
L 1147.161421 394.978128 
L 1151.877273 418.075913 
L 1151.877273 418.075913 
" style="fill:none;stroke:#ff0000;stroke-linecap:square;stroke-width:1.5;"/>
   </g>
   <g id="line2d_24">
    <path clip-path="url(#pde9b1c3a9e)" d="M 213.422727 491.251956 
L 218.138579 489.616703 
L 227.570283 537.915609 
L 232.286135 495.020504 
L 237.001987 414.357248 
L 241.717839 423.353982 
L 251.149543 436.486594 
L 255.865395 429.712252 
L 260.581247 419.002673 
L 265.297099 377.557012 
L 270.012951 412.843642 
L 274.728803 443.886486 
L 279.444655 424.806278 
L 284.160507 426.414253 
L 288.876359 404.967402 
L 293.592211 424.870394 
L 298.308063 361.908092 
L 303.023915 456.383726 
L 307.739767 442.394838 
L 312.455619 457.742317 
L 317.171471 482.080562 
L 321.887323 461.055858 
L 326.603175 475.423703 
L 331.319027 412.165264 
L 336.034879 423.742899 
L 340.750731 379.857119 
L 345.466583 377.042485 
L 350.182435 435.599617 
L 354.898287 424.014935 
L 359.614139 424.91653 
L 364.329991 459.685996 
L 369.045843 381.458464 
L 373.761695 350.223042 
L 378.477547 394.936402 
L 383.193399 392.22471 
L 387.909251 451.795184 
L 392.625103 414.675821 
L 397.340955 429.975005 
L 402.056807 471.893529 
L 406.772659 450.492028 
L 411.488511 411.584802 
L 416.204363 408.703276 
L 420.920215 373.253012 
L 430.351919 380.306112 
L 435.067771 398.960287 
L 439.783623 430.173457 
L 444.499475 439.77056 
L 449.215327 425.805264 
L 453.931179 449.535292 
L 458.647031 436.085387 
L 463.362883 384.137682 
L 468.078735 484.481006 
L 472.794587 512.379663 
L 477.510439 517.193164 
L 482.226291 505.830851 
L 486.942143 545.383086 
L 491.657995 509.625629 
L 496.373847 515.519887 
L 501.089698 382.735623 
L 505.80555 528.967895 
L 510.521402 533.22798 
L 515.237254 530.940779 
L 519.953106 499.392151 
L 524.668958 510.415985 
L 529.38481 542.610609 
L 534.100662 516.776537 
L 538.816514 534.701788 
L 543.532366 528.154856 
L 548.248218 560.26323 
L 552.96407 542.251467 
L 557.679922 545.041631 
L 562.395774 558.628271 
L 567.111626 547.039525 
L 571.827478 556.445963 
L 576.54333 568.456724 
L 581.259182 546.382535 
L 585.975034 552.532622 
L 590.690886 502.419286 
L 595.406738 490.370067 
L 600.12259 536.494553 
L 604.838442 563.292978 
L 609.554294 532.4105 
L 614.270146 533.74866 
L 618.985998 562.09298 
L 623.70185 571.82082 
L 628.417702 523.953367 
L 633.133554 547.224085 
L 637.849406 576.204656 
L 642.565258 556.580192 
L 647.28111 576.66708 
L 651.996962 579.211637 
L 656.712814 542.80496 
L 661.428666 545.01864 
L 666.144518 544.482324 
L 670.86037 565.347657 
L 675.576222 511.312892 
L 680.292074 567.471539 
L 685.007926 481.096148 
L 689.723778 524.518378 
L 694.43963 519.451731 
L 699.155482 511.914526 
L 703.871334 544.762733 
L 708.587186 523.796532 
L 713.303038 422.489425 
L 718.01889 440.836144 
L 722.734742 431.17084 
L 727.450594 466.075429 
L 732.166446 437.417687 
L 736.882298 461.551604 
L 741.59815 472.363077 
L 746.314002 453.032437 
L 751.029854 422.29273 
L 755.745706 351.031656 
L 760.461558 414.143406 
L 765.17741 390.247154 
L 769.893262 402.816497 
L 774.609114 372.476872 
L 779.324966 377.318252 
L 784.040818 380.291865 
L 788.75667 382.073127 
L 793.472522 400.593889 
L 798.188374 431.727062 
L 802.904226 369.87022 
L 807.620078 382.19593 
L 812.33593 332.74512 
L 817.051782 367.230322 
L 821.767634 364.484429 
L 826.483486 379.43656 
L 831.199338 359.159269 
L 835.91519 399.219185 
L 840.631042 373.026279 
L 845.346894 358.001829 
L 850.062746 406.565632 
L 854.778598 414.459481 
L 859.49445 404.372229 
L 864.210302 417.625687 
L 868.926153 421.485998 
L 873.642005 377.615977 
L 878.357857 433.773899 
L 883.073709 437.024313 
L 887.789561 469.127868 
L 892.505413 426.18197 
L 897.221265 416.963654 
L 901.937117 433.069616 
L 906.652969 445.151864 
L 911.368821 410.544213 
L 916.084673 474.393723 
L 920.800525 479.712854 
L 925.516377 463.424399 
L 930.232229 478.759203 
L 934.948081 470.521723 
L 939.663933 485.315293 
L 944.379785 452.482259 
L 949.095637 465.926073 
L 953.811489 444.848788 
L 958.527341 375.965074 
L 963.243193 436.678 
L 967.959045 473.503848 
L 972.674897 468.736005 
L 977.390749 473.869065 
L 982.106601 477.468968 
L 986.822453 443.062499 
L 991.538305 468.80194 
L 996.254157 451.15036 
L 1000.970009 495.962298 
L 1005.685861 422.267226 
L 1010.401713 403.776286 
L 1015.117565 390.267138 
L 1019.833417 379.588198 
L 1024.549269 400.587968 
L 1029.265121 370.462185 
L 1033.980973 452.089024 
L 1038.696825 408.28651 
L 1043.412677 393.420977 
L 1048.128529 382.989586 
L 1052.844381 414.323201 
L 1057.560233 381.633293 
L 1062.276085 415.678847 
L 1066.991937 434.017023 
L 1071.707789 441.883441 
L 1076.423641 544.236502 
L 1081.139493 503.9771 
L 1085.855345 474.321065 
L 1090.571197 473.025696 
L 1095.287049 498.28259 
L 1100.002901 490.940461 
L 1104.718753 533.89615 
L 1109.434605 545.397858 
L 1114.150457 510.741065 
L 1118.866309 471.097668 
L 1123.582161 493.019587 
L 1133.013865 399.463002 
L 1137.729717 425.90025 
L 1142.445569 399.192015 
L 1147.161421 398.040774 
L 1151.877273 420.854404 
L 1151.877273 420.854404 
" style="fill:none;stroke:#ff0000;stroke-linecap:square;stroke-width:1.5;"/>
   </g>
   <g id="patch_3">
    <path d="M 166.5 661.5 
L 166.5 90.72 
" style="fill:none;stroke:#000000;stroke-linecap:square;stroke-linejoin:miter;stroke-width:0.8;"/>
   </g>
   <g id="patch_4">
    <path d="M 1198.8 661.5 
L 1198.8 90.72 
" style="fill:none;stroke:#000000;stroke-linecap:square;stroke-linejoin:miter;stroke-width:0.8;"/>
   </g>
   <g id="patch_5">
    <path d="M 166.5 661.5 
L 1198.8 661.5 
" style="fill:none;stroke:#000000;stroke-linecap:square;stroke-linejoin:miter;stroke-width:0.8;"/>
   </g>
   <g id="patch_6">
    <path d="M 166.5 90.72 
L 1198.8 90.72 
" style="fill:none;stroke:#000000;stroke-linecap:square;stroke-linejoin:miter;stroke-width:0.8;"/>
   </g>
  </g>
 </g>
 <defs>
  <clipPath id="pde9b1c3a9e">
   <rect height="570.78" width="1032.3" x="166.5" y="90.72"/>
  </clipPath>
 </defs>
</svg>
