<?xml version="1.0" encoding="utf-8" standalone="no"?>
<!DOCTYPE svg PUBLIC "-//W3C//DTD SVG 1.1//EN"
  "http://www.w3.org/Graphics/SVG/1.1/DTD/svg11.dtd">
<!-- Created with matplotlib (http://matplotlib.org/) -->
<svg height="756pt" version="1.1" viewBox="0 0 756 756" width="756pt" xmlns="http://www.w3.org/2000/svg" xmlns:xlink="http://www.w3.org/1999/xlink">
 <defs>
  <style type="text/css">
*{stroke-linecap:butt;stroke-linejoin:round;}
  </style>
 </defs>
 <g id="figure_1">
  <g id="patch_1">
   <path d="M 0 756 
L 756 756 
L 756 0 
L 0 0 
z
" style="fill:#ffffff;"/>
  </g>
  <g id="axes_1">
   <g id="patch_2">
    <path d="M 94.5 661.5 
L 680.4 661.5 
L 680.4 90.72 
L 94.5 90.72 
z
" style="fill:#ffffff;"/>
   </g>
   <g id="matplotlib.axis_1">
    <g id="xtick_1">
     <g id="line2d_1">
      <defs>
       <path d="M 0 0 
L 0 3.5 
" id="mb63bead321" style="stroke:#000000;stroke-width:0.8;"/>
      </defs>
      <g>
       <use style="stroke:#000000;stroke-width:0.8;" x="123.795" xlink:href="#mb63bead321" y="661.5"/>
      </g>
     </g>
     <g id="text_1">
      <!-- 0 -->
      <defs>
       <path d="M 31.78125 66.40625 
Q 24.171875 66.40625 20.328125 58.90625 
Q 16.5 51.421875 16.5 36.375 
Q 16.5 21.390625 20.328125 13.890625 
Q 24.171875 6.390625 31.78125 6.390625 
Q 39.453125 6.390625 43.28125 13.890625 
Q 47.125 21.390625 47.125 36.375 
Q 47.125 51.421875 43.28125 58.90625 
Q 39.453125 66.40625 31.78125 66.40625 
z
M 31.78125 74.21875 
Q 44.046875 74.21875 50.515625 64.515625 
Q 56.984375 54.828125 56.984375 36.375 
Q 56.984375 17.96875 50.515625 8.265625 
Q 44.046875 -1.421875 31.78125 -1.421875 
Q 19.53125 -1.421875 13.0625 8.265625 
Q 6.59375 17.96875 6.59375 36.375 
Q 6.59375 54.828125 13.0625 64.515625 
Q 19.53125 74.21875 31.78125 74.21875 
z
" id="DejaVuSans-30"/>
      </defs>
      <g transform="translate(119.023125 679.897656)scale(0.15 -0.15)">
       <use xlink:href="#DejaVuSans-30"/>
      </g>
     </g>
    </g>
    <g id="xtick_2">
     <g id="line2d_2">
      <g>
       <use style="stroke:#000000;stroke-width:0.8;" x="190.374545" xlink:href="#mb63bead321" y="661.5"/>
      </g>
     </g>
     <g id="text_2">
      <!-- 25 -->
      <defs>
       <path d="M 19.1875 8.296875 
L 53.609375 8.296875 
L 53.609375 0 
L 7.328125 0 
L 7.328125 8.296875 
Q 12.9375 14.109375 22.625 23.890625 
Q 32.328125 33.6875 34.8125 36.53125 
Q 39.546875 41.84375 41.421875 45.53125 
Q 43.3125 49.21875 43.3125 52.78125 
Q 43.3125 58.59375 39.234375 62.25 
Q 35.15625 65.921875 28.609375 65.921875 
Q 23.96875 65.921875 18.8125 64.3125 
Q 13.671875 62.703125 7.8125 59.421875 
L 7.8125 69.390625 
Q 13.765625 71.78125 18.9375 73 
Q 24.125 74.21875 28.421875 74.21875 
Q 39.75 74.21875 46.484375 68.546875 
Q 53.21875 62.890625 53.21875 53.421875 
Q 53.21875 48.921875 51.53125 44.890625 
Q 49.859375 40.875 45.40625 35.40625 
Q 44.1875 33.984375 37.640625 27.21875 
Q 31.109375 20.453125 19.1875 8.296875 
z
" id="DejaVuSans-32"/>
       <path d="M 10.796875 72.90625 
L 49.515625 72.90625 
L 49.515625 64.59375 
L 19.828125 64.59375 
L 19.828125 46.734375 
Q 21.96875 47.46875 24.109375 47.828125 
Q 26.265625 48.1875 28.421875 48.1875 
Q 40.625 48.1875 47.75 41.5 
Q 54.890625 34.8125 54.890625 23.390625 
Q 54.890625 11.625 47.5625 5.09375 
Q 40.234375 -1.421875 26.90625 -1.421875 
Q 22.3125 -1.421875 17.546875 -0.640625 
Q 12.796875 0.140625 7.71875 1.703125 
L 7.71875 11.625 
Q 12.109375 9.234375 16.796875 8.0625 
Q 21.484375 6.890625 26.703125 6.890625 
Q 35.15625 6.890625 40.078125 11.328125 
Q 45.015625 15.765625 45.015625 23.390625 
Q 45.015625 31 40.078125 35.4375 
Q 35.15625 39.890625 26.703125 39.890625 
Q 22.75 39.890625 18.8125 39.015625 
Q 14.890625 38.140625 10.796875 36.28125 
z
" id="DejaVuSans-35"/>
      </defs>
      <g transform="translate(180.830795 679.897656)scale(0.15 -0.15)">
       <use xlink:href="#DejaVuSans-32"/>
       <use x="63.623047" xlink:href="#DejaVuSans-35"/>
      </g>
     </g>
    </g>
    <g id="xtick_3">
     <g id="line2d_3">
      <g>
       <use style="stroke:#000000;stroke-width:0.8;" x="256.954091" xlink:href="#mb63bead321" y="661.5"/>
      </g>
     </g>
     <g id="text_3">
      <!-- 50 -->
      <g transform="translate(247.410341 679.897656)scale(0.15 -0.15)">
       <use xlink:href="#DejaVuSans-35"/>
       <use x="63.623047" xlink:href="#DejaVuSans-30"/>
      </g>
     </g>
    </g>
    <g id="xtick_4">
     <g id="line2d_4">
      <g>
       <use style="stroke:#000000;stroke-width:0.8;" x="323.533636" xlink:href="#mb63bead321" y="661.5"/>
      </g>
     </g>
     <g id="text_4">
      <!-- 75 -->
      <defs>
       <path d="M 8.203125 72.90625 
L 55.078125 72.90625 
L 55.078125 68.703125 
L 28.609375 0 
L 18.3125 0 
L 43.21875 64.59375 
L 8.203125 64.59375 
z
" id="DejaVuSans-37"/>
      </defs>
      <g transform="translate(313.989886 679.897656)scale(0.15 -0.15)">
       <use xlink:href="#DejaVuSans-37"/>
       <use x="63.623047" xlink:href="#DejaVuSans-35"/>
      </g>
     </g>
    </g>
    <g id="xtick_5">
     <g id="line2d_5">
      <g>
       <use style="stroke:#000000;stroke-width:0.8;" x="390.113182" xlink:href="#mb63bead321" y="661.5"/>
      </g>
     </g>
     <g id="text_5">
      <!-- 100 -->
      <defs>
       <path d="M 12.40625 8.296875 
L 28.515625 8.296875 
L 28.515625 63.921875 
L 10.984375 60.40625 
L 10.984375 69.390625 
L 28.421875 72.90625 
L 38.28125 72.90625 
L 38.28125 8.296875 
L 54.390625 8.296875 
L 54.390625 0 
L 12.40625 0 
z
" id="DejaVuSans-31"/>
      </defs>
      <g transform="translate(375.797557 679.897656)scale(0.15 -0.15)">
       <use xlink:href="#DejaVuSans-31"/>
       <use x="63.623047" xlink:href="#DejaVuSans-30"/>
       <use x="127.246094" xlink:href="#DejaVuSans-30"/>
      </g>
     </g>
    </g>
    <g id="xtick_6">
     <g id="line2d_6">
      <g>
       <use style="stroke:#000000;stroke-width:0.8;" x="456.692727" xlink:href="#mb63bead321" y="661.5"/>
      </g>
     </g>
     <g id="text_6">
      <!-- 125 -->
      <g transform="translate(442.377102 679.897656)scale(0.15 -0.15)">
       <use xlink:href="#DejaVuSans-31"/>
       <use x="63.623047" xlink:href="#DejaVuSans-32"/>
       <use x="127.246094" xlink:href="#DejaVuSans-35"/>
      </g>
     </g>
    </g>
    <g id="xtick_7">
     <g id="line2d_7">
      <g>
       <use style="stroke:#000000;stroke-width:0.8;" x="523.272273" xlink:href="#mb63bead321" y="661.5"/>
      </g>
     </g>
     <g id="text_7">
      <!-- 150 -->
      <g transform="translate(508.956648 679.897656)scale(0.15 -0.15)">
       <use xlink:href="#DejaVuSans-31"/>
       <use x="63.623047" xlink:href="#DejaVuSans-35"/>
       <use x="127.246094" xlink:href="#DejaVuSans-30"/>
      </g>
     </g>
    </g>
    <g id="xtick_8">
     <g id="line2d_8">
      <g>
       <use style="stroke:#000000;stroke-width:0.8;" x="589.851818" xlink:href="#mb63bead321" y="661.5"/>
      </g>
     </g>
     <g id="text_8">
      <!-- 175 -->
      <g transform="translate(575.536193 679.897656)scale(0.15 -0.15)">
       <use xlink:href="#DejaVuSans-31"/>
       <use x="63.623047" xlink:href="#DejaVuSans-37"/>
       <use x="127.246094" xlink:href="#DejaVuSans-35"/>
      </g>
     </g>
    </g>
    <g id="xtick_9">
     <g id="line2d_9">
      <g>
       <use style="stroke:#000000;stroke-width:0.8;" x="656.431364" xlink:href="#mb63bead321" y="661.5"/>
      </g>
     </g>
     <g id="text_9">
      <!-- 200 -->
      <g transform="translate(642.115739 679.897656)scale(0.15 -0.15)">
       <use xlink:href="#DejaVuSans-32"/>
       <use x="63.623047" xlink:href="#DejaVuSans-30"/>
       <use x="127.246094" xlink:href="#DejaVuSans-30"/>
      </g>
     </g>
    </g>
    <g id="text_10">
     <!-- 15-Minute Steps -->
     <defs>
      <path d="M 4.890625 31.390625 
L 31.203125 31.390625 
L 31.203125 23.390625 
L 4.890625 23.390625 
z
" id="DejaVuSans-2d"/>
      <path d="M 9.8125 72.90625 
L 24.515625 72.90625 
L 43.109375 23.296875 
L 61.8125 72.90625 
L 76.515625 72.90625 
L 76.515625 0 
L 66.890625 0 
L 66.890625 64.015625 
L 48.09375 14.015625 
L 38.1875 14.015625 
L 19.390625 64.015625 
L 19.390625 0 
L 9.8125 0 
z
" id="DejaVuSans-4d"/>
      <path d="M 9.421875 54.6875 
L 18.40625 54.6875 
L 18.40625 0 
L 9.421875 0 
z
M 9.421875 75.984375 
L 18.40625 75.984375 
L 18.40625 64.59375 
L 9.421875 64.59375 
z
" id="DejaVuSans-69"/>
      <path d="M 54.890625 33.015625 
L 54.890625 0 
L 45.90625 0 
L 45.90625 32.71875 
Q 45.90625 40.484375 42.875 44.328125 
Q 39.84375 48.1875 33.796875 48.1875 
Q 26.515625 48.1875 22.3125 43.546875 
Q 18.109375 38.921875 18.109375 30.90625 
L 18.109375 0 
L 9.078125 0 
L 9.078125 54.6875 
L 18.109375 54.6875 
L 18.109375 46.1875 
Q 21.34375 51.125 25.703125 53.5625 
Q 30.078125 56 35.796875 56 
Q 45.21875 56 50.046875 50.171875 
Q 54.890625 44.34375 54.890625 33.015625 
z
" id="DejaVuSans-6e"/>
      <path d="M 8.5 21.578125 
L 8.5 54.6875 
L 17.484375 54.6875 
L 17.484375 21.921875 
Q 17.484375 14.15625 20.5 10.265625 
Q 23.53125 6.390625 29.59375 6.390625 
Q 36.859375 6.390625 41.078125 11.03125 
Q 45.3125 15.671875 45.3125 23.6875 
L 45.3125 54.6875 
L 54.296875 54.6875 
L 54.296875 0 
L 45.3125 0 
L 45.3125 8.40625 
Q 42.046875 3.421875 37.71875 1 
Q 33.40625 -1.421875 27.6875 -1.421875 
Q 18.265625 -1.421875 13.375 4.4375 
Q 8.5 10.296875 8.5 21.578125 
z
M 31.109375 56 
z
" id="DejaVuSans-75"/>
      <path d="M 18.3125 70.21875 
L 18.3125 54.6875 
L 36.8125 54.6875 
L 36.8125 47.703125 
L 18.3125 47.703125 
L 18.3125 18.015625 
Q 18.3125 11.328125 20.140625 9.421875 
Q 21.96875 7.515625 27.59375 7.515625 
L 36.8125 7.515625 
L 36.8125 0 
L 27.59375 0 
Q 17.1875 0 13.234375 3.875 
Q 9.28125 7.765625 9.28125 18.015625 
L 9.28125 47.703125 
L 2.6875 47.703125 
L 2.6875 54.6875 
L 9.28125 54.6875 
L 9.28125 70.21875 
z
" id="DejaVuSans-74"/>
      <path d="M 56.203125 29.59375 
L 56.203125 25.203125 
L 14.890625 25.203125 
Q 15.484375 15.921875 20.484375 11.0625 
Q 25.484375 6.203125 34.421875 6.203125 
Q 39.59375 6.203125 44.453125 7.46875 
Q 49.3125 8.734375 54.109375 11.28125 
L 54.109375 2.78125 
Q 49.265625 0.734375 44.1875 -0.34375 
Q 39.109375 -1.421875 33.890625 -1.421875 
Q 20.796875 -1.421875 13.15625 6.1875 
Q 5.515625 13.8125 5.515625 26.8125 
Q 5.515625 40.234375 12.765625 48.109375 
Q 20.015625 56 32.328125 56 
Q 43.359375 56 49.78125 48.890625 
Q 56.203125 41.796875 56.203125 29.59375 
z
M 47.21875 32.234375 
Q 47.125 39.59375 43.09375 43.984375 
Q 39.0625 48.390625 32.421875 48.390625 
Q 24.90625 48.390625 20.390625 44.140625 
Q 15.875 39.890625 15.1875 32.171875 
z
" id="DejaVuSans-65"/>
      <path id="DejaVuSans-20"/>
      <path d="M 53.515625 70.515625 
L 53.515625 60.890625 
Q 47.90625 63.578125 42.921875 64.890625 
Q 37.9375 66.21875 33.296875 66.21875 
Q 25.25 66.21875 20.875 63.09375 
Q 16.5 59.96875 16.5 54.203125 
Q 16.5 49.359375 19.40625 46.890625 
Q 22.3125 44.4375 30.421875 42.921875 
L 36.375 41.703125 
Q 47.40625 39.59375 52.65625 34.296875 
Q 57.90625 29 57.90625 20.125 
Q 57.90625 9.515625 50.796875 4.046875 
Q 43.703125 -1.421875 29.984375 -1.421875 
Q 24.8125 -1.421875 18.96875 -0.25 
Q 13.140625 0.921875 6.890625 3.21875 
L 6.890625 13.375 
Q 12.890625 10.015625 18.65625 8.296875 
Q 24.421875 6.59375 29.984375 6.59375 
Q 38.421875 6.59375 43.015625 9.90625 
Q 47.609375 13.234375 47.609375 19.390625 
Q 47.609375 24.75 44.3125 27.78125 
Q 41.015625 30.8125 33.5 32.328125 
L 27.484375 33.5 
Q 16.453125 35.6875 11.515625 40.375 
Q 6.59375 45.0625 6.59375 53.421875 
Q 6.59375 63.09375 13.40625 68.65625 
Q 20.21875 74.21875 32.171875 74.21875 
Q 37.3125 74.21875 42.625 73.28125 
Q 47.953125 72.359375 53.515625 70.515625 
z
" id="DejaVuSans-53"/>
      <path d="M 18.109375 8.203125 
L 18.109375 -20.796875 
L 9.078125 -20.796875 
L 9.078125 54.6875 
L 18.109375 54.6875 
L 18.109375 46.390625 
Q 20.953125 51.265625 25.265625 53.625 
Q 29.59375 56 35.59375 56 
Q 45.5625 56 51.78125 48.09375 
Q 58.015625 40.1875 58.015625 27.296875 
Q 58.015625 14.40625 51.78125 6.484375 
Q 45.5625 -1.421875 35.59375 -1.421875 
Q 29.59375 -1.421875 25.265625 0.953125 
Q 20.953125 3.328125 18.109375 8.203125 
z
M 48.6875 27.296875 
Q 48.6875 37.203125 44.609375 42.84375 
Q 40.53125 48.484375 33.40625 48.484375 
Q 26.265625 48.484375 22.1875 42.84375 
Q 18.109375 37.203125 18.109375 27.296875 
Q 18.109375 17.390625 22.1875 11.75 
Q 26.265625 6.109375 33.40625 6.109375 
Q 40.53125 6.109375 44.609375 11.75 
Q 48.6875 17.390625 48.6875 27.296875 
z
" id="DejaVuSans-70"/>
      <path d="M 44.28125 53.078125 
L 44.28125 44.578125 
Q 40.484375 46.53125 36.375 47.5 
Q 32.28125 48.484375 27.875 48.484375 
Q 21.1875 48.484375 17.84375 46.4375 
Q 14.5 44.390625 14.5 40.28125 
Q 14.5 37.15625 16.890625 35.375 
Q 19.28125 33.59375 26.515625 31.984375 
L 29.59375 31.296875 
Q 39.15625 29.25 43.1875 25.515625 
Q 47.21875 21.78125 47.21875 15.09375 
Q 47.21875 7.46875 41.1875 3.015625 
Q 35.15625 -1.421875 24.609375 -1.421875 
Q 20.21875 -1.421875 15.453125 -0.5625 
Q 10.6875 0.296875 5.421875 2 
L 5.421875 11.28125 
Q 10.40625 8.6875 15.234375 7.390625 
Q 20.0625 6.109375 24.8125 6.109375 
Q 31.15625 6.109375 34.5625 8.28125 
Q 37.984375 10.453125 37.984375 14.40625 
Q 37.984375 18.0625 35.515625 20.015625 
Q 33.0625 21.96875 24.703125 23.78125 
L 21.578125 24.515625 
Q 13.234375 26.265625 9.515625 29.90625 
Q 5.8125 33.546875 5.8125 39.890625 
Q 5.8125 47.609375 11.28125 51.796875 
Q 16.75 56 26.8125 56 
Q 31.78125 56 36.171875 55.265625 
Q 40.578125 54.546875 44.28125 53.078125 
z
" id="DejaVuSans-73"/>
     </defs>
     <g transform="translate(346.627344 694.615625)scale(0.1 -0.1)">
      <use xlink:href="#DejaVuSans-31"/>
      <use x="63.623047" xlink:href="#DejaVuSans-35"/>
      <use x="127.246094" xlink:href="#DejaVuSans-2d"/>
      <use x="163.330078" xlink:href="#DejaVuSans-4d"/>
      <use x="249.609375" xlink:href="#DejaVuSans-69"/>
      <use x="277.392578" xlink:href="#DejaVuSans-6e"/>
      <use x="340.771484" xlink:href="#DejaVuSans-75"/>
      <use x="404.150391" xlink:href="#DejaVuSans-74"/>
      <use x="443.359375" xlink:href="#DejaVuSans-65"/>
      <use x="504.882812" xlink:href="#DejaVuSans-20"/>
      <use x="536.669922" xlink:href="#DejaVuSans-53"/>
      <use x="600.146484" xlink:href="#DejaVuSans-74"/>
      <use x="639.355469" xlink:href="#DejaVuSans-65"/>
      <use x="700.878906" xlink:href="#DejaVuSans-70"/>
      <use x="764.355469" xlink:href="#DejaVuSans-73"/>
     </g>
    </g>
   </g>
   <g id="matplotlib.axis_2">
    <g id="ytick_1">
     <g id="line2d_10">
      <defs>
       <path d="M 0 0 
L -3.5 0 
" id="m012d1c4ff5" style="stroke:#000000;stroke-width:0.8;"/>
      </defs>
      <g>
       <use style="stroke:#000000;stroke-width:0.8;" x="94.5" xlink:href="#m012d1c4ff5" y="637.08643"/>
      </g>
     </g>
     <g id="text_11">
      <!-- 0 -->
      <g transform="translate(77.95625 642.785258)scale(0.15 -0.15)">
       <use xlink:href="#DejaVuSans-30"/>
      </g>
     </g>
    </g>
    <g id="ytick_2">
     <g id="line2d_11">
      <g>
       <use style="stroke:#000000;stroke-width:0.8;" x="94.5" xlink:href="#m012d1c4ff5" y="527.137731"/>
      </g>
     </g>
     <g id="text_12">
      <!-- 2000 -->
      <g transform="translate(49.325 532.836559)scale(0.15 -0.15)">
       <use xlink:href="#DejaVuSans-32"/>
       <use x="63.623047" xlink:href="#DejaVuSans-30"/>
       <use x="127.246094" xlink:href="#DejaVuSans-30"/>
       <use x="190.869141" xlink:href="#DejaVuSans-30"/>
      </g>
     </g>
    </g>
    <g id="ytick_3">
     <g id="line2d_12">
      <g>
       <use style="stroke:#000000;stroke-width:0.8;" x="94.5" xlink:href="#m012d1c4ff5" y="417.189033"/>
      </g>
     </g>
     <g id="text_13">
      <!-- 4000 -->
      <defs>
       <path d="M 37.796875 64.3125 
L 12.890625 25.390625 
L 37.796875 25.390625 
z
M 35.203125 72.90625 
L 47.609375 72.90625 
L 47.609375 25.390625 
L 58.015625 25.390625 
L 58.015625 17.1875 
L 47.609375 17.1875 
L 47.609375 0 
L 37.796875 0 
L 37.796875 17.1875 
L 4.890625 17.1875 
L 4.890625 26.703125 
z
" id="DejaVuSans-34"/>
      </defs>
      <g transform="translate(49.325 422.887861)scale(0.15 -0.15)">
       <use xlink:href="#DejaVuSans-34"/>
       <use x="63.623047" xlink:href="#DejaVuSans-30"/>
       <use x="127.246094" xlink:href="#DejaVuSans-30"/>
       <use x="190.869141" xlink:href="#DejaVuSans-30"/>
      </g>
     </g>
    </g>
    <g id="ytick_4">
     <g id="line2d_13">
      <g>
       <use style="stroke:#000000;stroke-width:0.8;" x="94.5" xlink:href="#m012d1c4ff5" y="307.240334"/>
      </g>
     </g>
     <g id="text_14">
      <!-- 6000 -->
      <defs>
       <path d="M 33.015625 40.375 
Q 26.375 40.375 22.484375 35.828125 
Q 18.609375 31.296875 18.609375 23.390625 
Q 18.609375 15.53125 22.484375 10.953125 
Q 26.375 6.390625 33.015625 6.390625 
Q 39.65625 6.390625 43.53125 10.953125 
Q 47.40625 15.53125 47.40625 23.390625 
Q 47.40625 31.296875 43.53125 35.828125 
Q 39.65625 40.375 33.015625 40.375 
z
M 52.59375 71.296875 
L 52.59375 62.3125 
Q 48.875 64.0625 45.09375 64.984375 
Q 41.3125 65.921875 37.59375 65.921875 
Q 27.828125 65.921875 22.671875 59.328125 
Q 17.53125 52.734375 16.796875 39.40625 
Q 19.671875 43.65625 24.015625 45.921875 
Q 28.375 48.1875 33.59375 48.1875 
Q 44.578125 48.1875 50.953125 41.515625 
Q 57.328125 34.859375 57.328125 23.390625 
Q 57.328125 12.15625 50.6875 5.359375 
Q 44.046875 -1.421875 33.015625 -1.421875 
Q 20.359375 -1.421875 13.671875 8.265625 
Q 6.984375 17.96875 6.984375 36.375 
Q 6.984375 53.65625 15.1875 63.9375 
Q 23.390625 74.21875 37.203125 74.21875 
Q 40.921875 74.21875 44.703125 73.484375 
Q 48.484375 72.75 52.59375 71.296875 
z
" id="DejaVuSans-36"/>
      </defs>
      <g transform="translate(49.325 312.939162)scale(0.15 -0.15)">
       <use xlink:href="#DejaVuSans-36"/>
       <use x="63.623047" xlink:href="#DejaVuSans-30"/>
       <use x="127.246094" xlink:href="#DejaVuSans-30"/>
       <use x="190.869141" xlink:href="#DejaVuSans-30"/>
      </g>
     </g>
    </g>
    <g id="ytick_5">
     <g id="line2d_14">
      <g>
       <use style="stroke:#000000;stroke-width:0.8;" x="94.5" xlink:href="#m012d1c4ff5" y="197.291636"/>
      </g>
     </g>
     <g id="text_15">
      <!-- 8000 -->
      <defs>
       <path d="M 31.78125 34.625 
Q 24.75 34.625 20.71875 30.859375 
Q 16.703125 27.09375 16.703125 20.515625 
Q 16.703125 13.921875 20.71875 10.15625 
Q 24.75 6.390625 31.78125 6.390625 
Q 38.8125 6.390625 42.859375 10.171875 
Q 46.921875 13.96875 46.921875 20.515625 
Q 46.921875 27.09375 42.890625 30.859375 
Q 38.875 34.625 31.78125 34.625 
z
M 21.921875 38.8125 
Q 15.578125 40.375 12.03125 44.71875 
Q 8.5 49.078125 8.5 55.328125 
Q 8.5 64.0625 14.71875 69.140625 
Q 20.953125 74.21875 31.78125 74.21875 
Q 42.671875 74.21875 48.875 69.140625 
Q 55.078125 64.0625 55.078125 55.328125 
Q 55.078125 49.078125 51.53125 44.71875 
Q 48 40.375 41.703125 38.8125 
Q 48.828125 37.15625 52.796875 32.3125 
Q 56.78125 27.484375 56.78125 20.515625 
Q 56.78125 9.90625 50.3125 4.234375 
Q 43.84375 -1.421875 31.78125 -1.421875 
Q 19.734375 -1.421875 13.25 4.234375 
Q 6.78125 9.90625 6.78125 20.515625 
Q 6.78125 27.484375 10.78125 32.3125 
Q 14.796875 37.15625 21.921875 38.8125 
z
M 18.3125 54.390625 
Q 18.3125 48.734375 21.84375 45.5625 
Q 25.390625 42.390625 31.78125 42.390625 
Q 38.140625 42.390625 41.71875 45.5625 
Q 45.3125 48.734375 45.3125 54.390625 
Q 45.3125 60.0625 41.71875 63.234375 
Q 38.140625 66.40625 31.78125 66.40625 
Q 25.390625 66.40625 21.84375 63.234375 
Q 18.3125 60.0625 18.3125 54.390625 
z
" id="DejaVuSans-38"/>
      </defs>
      <g transform="translate(49.325 202.990464)scale(0.15 -0.15)">
       <use xlink:href="#DejaVuSans-38"/>
       <use x="63.623047" xlink:href="#DejaVuSans-30"/>
       <use x="127.246094" xlink:href="#DejaVuSans-30"/>
       <use x="190.869141" xlink:href="#DejaVuSans-30"/>
      </g>
     </g>
    </g>
    <g id="text_16">
     <!-- Bandwidth (kbps) -->
     <defs>
      <path d="M 19.671875 34.8125 
L 19.671875 8.109375 
L 35.5 8.109375 
Q 43.453125 8.109375 47.28125 11.40625 
Q 51.125 14.703125 51.125 21.484375 
Q 51.125 28.328125 47.28125 31.5625 
Q 43.453125 34.8125 35.5 34.8125 
z
M 19.671875 64.796875 
L 19.671875 42.828125 
L 34.28125 42.828125 
Q 41.5 42.828125 45.03125 45.53125 
Q 48.578125 48.25 48.578125 53.8125 
Q 48.578125 59.328125 45.03125 62.0625 
Q 41.5 64.796875 34.28125 64.796875 
z
M 9.8125 72.90625 
L 35.015625 72.90625 
Q 46.296875 72.90625 52.390625 68.21875 
Q 58.5 63.53125 58.5 54.890625 
Q 58.5 48.1875 55.375 44.234375 
Q 52.25 40.28125 46.1875 39.3125 
Q 53.46875 37.75 57.5 32.78125 
Q 61.53125 27.828125 61.53125 20.40625 
Q 61.53125 10.640625 54.890625 5.3125 
Q 48.25 0 35.984375 0 
L 9.8125 0 
z
" id="DejaVuSans-42"/>
      <path d="M 34.28125 27.484375 
Q 23.390625 27.484375 19.1875 25 
Q 14.984375 22.515625 14.984375 16.5 
Q 14.984375 11.71875 18.140625 8.90625 
Q 21.296875 6.109375 26.703125 6.109375 
Q 34.1875 6.109375 38.703125 11.40625 
Q 43.21875 16.703125 43.21875 25.484375 
L 43.21875 27.484375 
z
M 52.203125 31.203125 
L 52.203125 0 
L 43.21875 0 
L 43.21875 8.296875 
Q 40.140625 3.328125 35.546875 0.953125 
Q 30.953125 -1.421875 24.3125 -1.421875 
Q 15.921875 -1.421875 10.953125 3.296875 
Q 6 8.015625 6 15.921875 
Q 6 25.140625 12.171875 29.828125 
Q 18.359375 34.515625 30.609375 34.515625 
L 43.21875 34.515625 
L 43.21875 35.40625 
Q 43.21875 41.609375 39.140625 45 
Q 35.0625 48.390625 27.6875 48.390625 
Q 23 48.390625 18.546875 47.265625 
Q 14.109375 46.140625 10.015625 43.890625 
L 10.015625 52.203125 
Q 14.9375 54.109375 19.578125 55.046875 
Q 24.21875 56 28.609375 56 
Q 40.484375 56 46.34375 49.84375 
Q 52.203125 43.703125 52.203125 31.203125 
z
" id="DejaVuSans-61"/>
      <path d="M 45.40625 46.390625 
L 45.40625 75.984375 
L 54.390625 75.984375 
L 54.390625 0 
L 45.40625 0 
L 45.40625 8.203125 
Q 42.578125 3.328125 38.25 0.953125 
Q 33.9375 -1.421875 27.875 -1.421875 
Q 17.96875 -1.421875 11.734375 6.484375 
Q 5.515625 14.40625 5.515625 27.296875 
Q 5.515625 40.1875 11.734375 48.09375 
Q 17.96875 56 27.875 56 
Q 33.9375 56 38.25 53.625 
Q 42.578125 51.265625 45.40625 46.390625 
z
M 14.796875 27.296875 
Q 14.796875 17.390625 18.875 11.75 
Q 22.953125 6.109375 30.078125 6.109375 
Q 37.203125 6.109375 41.296875 11.75 
Q 45.40625 17.390625 45.40625 27.296875 
Q 45.40625 37.203125 41.296875 42.84375 
Q 37.203125 48.484375 30.078125 48.484375 
Q 22.953125 48.484375 18.875 42.84375 
Q 14.796875 37.203125 14.796875 27.296875 
z
" id="DejaVuSans-64"/>
      <path d="M 4.203125 54.6875 
L 13.1875 54.6875 
L 24.421875 12.015625 
L 35.59375 54.6875 
L 46.1875 54.6875 
L 57.421875 12.015625 
L 68.609375 54.6875 
L 77.59375 54.6875 
L 63.28125 0 
L 52.6875 0 
L 40.921875 44.828125 
L 29.109375 0 
L 18.5 0 
z
" id="DejaVuSans-77"/>
      <path d="M 54.890625 33.015625 
L 54.890625 0 
L 45.90625 0 
L 45.90625 32.71875 
Q 45.90625 40.484375 42.875 44.328125 
Q 39.84375 48.1875 33.796875 48.1875 
Q 26.515625 48.1875 22.3125 43.546875 
Q 18.109375 38.921875 18.109375 30.90625 
L 18.109375 0 
L 9.078125 0 
L 9.078125 75.984375 
L 18.109375 75.984375 
L 18.109375 46.1875 
Q 21.34375 51.125 25.703125 53.5625 
Q 30.078125 56 35.796875 56 
Q 45.21875 56 50.046875 50.171875 
Q 54.890625 44.34375 54.890625 33.015625 
z
" id="DejaVuSans-68"/>
      <path d="M 31 75.875 
Q 24.46875 64.65625 21.28125 53.65625 
Q 18.109375 42.671875 18.109375 31.390625 
Q 18.109375 20.125 21.3125 9.0625 
Q 24.515625 -2 31 -13.1875 
L 23.1875 -13.1875 
Q 15.875 -1.703125 12.234375 9.375 
Q 8.59375 20.453125 8.59375 31.390625 
Q 8.59375 42.28125 12.203125 53.3125 
Q 15.828125 64.359375 23.1875 75.875 
z
" id="DejaVuSans-28"/>
      <path d="M 9.078125 75.984375 
L 18.109375 75.984375 
L 18.109375 31.109375 
L 44.921875 54.6875 
L 56.390625 54.6875 
L 27.390625 29.109375 
L 57.625 0 
L 45.90625 0 
L 18.109375 26.703125 
L 18.109375 0 
L 9.078125 0 
z
" id="DejaVuSans-6b"/>
      <path d="M 48.6875 27.296875 
Q 48.6875 37.203125 44.609375 42.84375 
Q 40.53125 48.484375 33.40625 48.484375 
Q 26.265625 48.484375 22.1875 42.84375 
Q 18.109375 37.203125 18.109375 27.296875 
Q 18.109375 17.390625 22.1875 11.75 
Q 26.265625 6.109375 33.40625 6.109375 
Q 40.53125 6.109375 44.609375 11.75 
Q 48.6875 17.390625 48.6875 27.296875 
z
M 18.109375 46.390625 
Q 20.953125 51.265625 25.265625 53.625 
Q 29.59375 56 35.59375 56 
Q 45.5625 56 51.78125 48.09375 
Q 58.015625 40.1875 58.015625 27.296875 
Q 58.015625 14.40625 51.78125 6.484375 
Q 45.5625 -1.421875 35.59375 -1.421875 
Q 29.59375 -1.421875 25.265625 0.953125 
Q 20.953125 3.328125 18.109375 8.203125 
L 18.109375 0 
L 9.078125 0 
L 9.078125 75.984375 
L 18.109375 75.984375 
z
" id="DejaVuSans-62"/>
      <path d="M 8.015625 75.875 
L 15.828125 75.875 
Q 23.140625 64.359375 26.78125 53.3125 
Q 30.421875 42.28125 30.421875 31.390625 
Q 30.421875 20.453125 26.78125 9.375 
Q 23.140625 -1.703125 15.828125 -13.1875 
L 8.015625 -13.1875 
Q 14.5 -2 17.703125 9.0625 
Q 20.90625 20.125 20.90625 31.390625 
Q 20.90625 42.671875 17.703125 53.65625 
Q 14.5 64.65625 8.015625 75.875 
z
" id="DejaVuSans-29"/>
     </defs>
     <g transform="translate(43.245312 420.067813)rotate(-90)scale(0.1 -0.1)">
      <use xlink:href="#DejaVuSans-42"/>
      <use x="68.603516" xlink:href="#DejaVuSans-61"/>
      <use x="129.882812" xlink:href="#DejaVuSans-6e"/>
      <use x="193.261719" xlink:href="#DejaVuSans-64"/>
      <use x="256.738281" xlink:href="#DejaVuSans-77"/>
      <use x="338.525391" xlink:href="#DejaVuSans-69"/>
      <use x="366.308594" xlink:href="#DejaVuSans-64"/>
      <use x="429.785156" xlink:href="#DejaVuSans-74"/>
      <use x="468.994141" xlink:href="#DejaVuSans-68"/>
      <use x="532.373047" xlink:href="#DejaVuSans-20"/>
      <use x="564.160156" xlink:href="#DejaVuSans-28"/>
      <use x="603.173828" xlink:href="#DejaVuSans-6b"/>
      <use x="661.083984" xlink:href="#DejaVuSans-62"/>
      <use x="724.560547" xlink:href="#DejaVuSans-70"/>
      <use x="788.037109" xlink:href="#DejaVuSans-73"/>
      <use x="840.136719" xlink:href="#DejaVuSans-29"/>
     </g>
    </g>
   </g>
   <g id="line2d_15">
    <path clip-path="url(#p8d1abf22d5)" d="M 123.795 589.948734 
L 126.458182 591.053109 
L 129.121364 627.994893 
L 131.784545 601.680019 
L 134.447727 586.658091 
L 137.110909 583.63377 
L 139.774091 580.24491 
L 142.437273 583.588323 
L 145.100455 584.464004 
L 147.763636 582.083252 
L 150.426818 524.388035 
L 153.09 489.542604 
L 155.753182 480.280037 
L 158.416364 530.664396 
L 161.079545 553.770236 
L 163.742727 528.088667 
L 166.405909 541.706176 
L 169.069091 627.85318 
L 171.732273 631.943271 
L 174.395455 622.135848 
L 177.058636 630.973282 
L 179.721818 628.871552 
L 182.385 627.84976 
L 185.048182 631.767843 
L 187.711364 630.957158 
L 190.374545 551.005884 
L 193.037727 515.882893 
L 195.700909 471.084906 
L 198.364091 540.341839 
L 201.027273 632.568269 
L 203.690455 568.032781 
L 206.353636 515.873608 
L 209.016818 564.808112 
L 211.68 627.311259 
L 214.343182 631.08079 
L 217.006364 518.406826 
L 219.669545 628.337933 
L 222.332727 630.206571 
L 224.995909 629.361192 
L 227.659091 426.88504 
L 230.322273 509.276197 
L 232.985455 508.851553 
L 235.648636 574.589632 
L 238.311818 546.408071 
L 240.975 606.654587 
L 243.638182 628.768932 
L 246.301364 371.196761 
L 248.964545 554.050242 
L 251.627727 631.951584 
L 254.290909 625.136227 
L 256.954091 588.288267 
L 259.617273 632.932326 
L 262.280455 634.819529 
L 264.943636 631.531821 
L 270.27 631.696013 
L 272.933182 632.029768 
L 275.596364 630.091735 
L 278.259545 633.526049 
L 280.922727 629.333337 
L 283.585909 598.814997 
L 286.249091 614.455568 
L 288.912273 626.292887 
L 291.575455 607.901647 
L 294.238636 595.407566 
L 296.901818 621.993162 
L 299.565 622.780884 
L 302.228182 560.74929 
L 304.891364 512.35476 
L 307.554545 567.098954 
L 310.217727 556.220382 
L 312.880909 628.669736 
L 315.544091 561.19544 
L 318.207273 523.477171 
L 320.870455 627.945053 
L 323.533636 567.335465 
L 326.196818 499.831851 
L 328.86 574.525131 
L 331.523182 571.731945 
L 334.186364 568.655828 
L 336.849545 565.37056 
L 339.512727 631.565537 
L 342.175909 630.892162 
L 344.839091 630.858446 
L 347.502273 566.151438 
L 350.165455 465.61288 
L 352.828636 518.701978 
L 355.491818 577.318806 
L 358.155 579.081894 
L 360.818182 631.06515 
L 363.481364 577.891029 
L 366.144545 520.018921 
L 368.807727 593.636172 
L 371.470909 549.189531 
L 374.134091 632.672847 
L 376.797273 631.441422 
L 379.460455 611.102375 
L 382.123636 598.615622 
L 384.786818 573.063061 
L 387.45 583.528709 
L 390.113182 581.953754 
L 392.776364 584.040823 
L 395.439545 580.552766 
L 398.102727 634.309857 
L 400.765909 629.56838 
L 403.429091 623.911645 
L 406.092273 507.23164 
L 408.755455 632.557522 
L 411.418636 627.861003 
L 414.081818 632.412879 
L 416.745 629.5806 
L 419.408182 630.409366 
L 422.071364 595.641636 
L 424.734545 633.098959 
L 427.397727 116.664545 
L 430.060909 616.908645 
L 432.724091 466.176796 
L 435.387273 574.861821 
L 438.050455 631.000159 
L 440.713636 631.876818 
L 443.376818 573.148573 
L 446.04 622.368939 
L 448.703182 515.321424 
L 451.366364 557.254389 
L 454.029545 566.182224 
L 456.692727 629.011797 
L 459.355909 630.895587 
L 462.019091 627.508188 
L 464.682273 619.615823 
L 467.345455 633.019796 
L 470.008636 631.622711 
L 472.671818 578.660181 
L 475.335 517.21352 
L 477.998182 512.827298 
L 480.661364 541.046483 
L 483.324545 504.171647 
L 485.987727 572.225004 
L 488.650909 574.271029 
L 491.314091 570.842097 
L 493.977273 633.385798 
L 496.640455 579.450833 
L 499.303636 631.359323 
L 501.966818 633.149777 
L 504.63 631.559677 
L 507.293182 632.221321 
L 509.956364 634.724732 
L 512.619545 632.527226 
L 515.282727 576.878522 
L 517.945909 633.959489 
L 520.609091 633.131696 
L 523.272273 578.83805 
L 525.935455 634.313282 
L 528.598636 523.730789 
L 531.261818 635.555455 
L 533.925 578.724193 
L 536.588182 564.286219 
L 539.251364 572.100883 
L 541.914545 632.497413 
L 544.577727 607.482864 
L 547.240909 476.943462 
L 552.567273 493.08442 
L 555.230455 393.389779 
L 557.893636 577.242574 
L 560.556818 632.213993 
L 563.22 633.358927 
L 565.883182 630.387866 
L 568.546364 516.199545 
L 571.209545 564.077564 
L 573.872727 486.896508 
L 576.535909 532.38986 
L 579.199091 632.350329 
L 581.862273 633.720042 
L 584.525455 623.324272 
L 587.188636 587.034852 
L 589.851818 449.723584 
L 592.515 627.960688 
L 595.178182 570.152592 
L 597.841364 630.537885 
L 600.504545 570.359296 
L 603.167727 569.989868 
L 605.830909 571.019966 
L 608.494091 630.99625 
L 611.157273 633.452257 
L 613.820455 575.671528 
L 616.483636 575.481932 
L 619.146818 529.269268 
L 621.81 632.241848 
L 624.473182 629.032808 
L 627.136364 631.283096 
L 629.799545 631.670115 
L 632.462727 575.162833 
L 635.125909 634.424203 
L 637.789091 629.627999 
L 640.452273 631.47025 
L 643.115455 584.640411 
L 645.778636 564.862839 
L 648.441818 581.645409 
L 651.105 633.455682 
L 653.768182 578.297592 
L 653.768182 578.297592 
" style="fill:none;stroke:#1f77b4;stroke-linecap:square;stroke-width:1.5;"/>
   </g>
   <g id="line2d_16">
    <path clip-path="url(#p8d1abf22d5)" d="M 121.131818 531.017964 
L 123.795 536.164987 
L 126.458182 561.604225 
L 129.121364 562.873984 
L 131.784545 578.634918 
L 134.447727 573.900136 
L 137.110909 581.050268 
L 139.774091 572.292244 
L 142.437273 580.415612 
L 145.100455 577.061646 
L 147.763636 581.750872 
L 150.426818 561.060398 
L 153.09 546.024796 
L 155.753182 526.083474 
L 158.416364 534.737214 
L 161.079545 538.486555 
L 163.742727 538.975493 
L 166.405909 533.167256 
L 169.069091 560.453685 
L 171.732273 580.398517 
L 174.395455 592.280119 
L 177.058636 590.541015 
L 179.721818 602.317537 
L 182.385 611.210798 
L 185.048182 616.455888 
L 187.711364 612.54576 
L 190.374545 597.148467 
L 193.037727 576.670204 
L 195.700909 548.376208 
L 198.364091 548.043881 
L 201.027273 574.69527 
L 203.690455 577.821669 
L 206.353636 554.843112 
L 209.016818 550.356616 
L 211.68 578.985477 
L 214.343182 600.59393 
L 217.006364 570.332933 
L 219.669545 575.360908 
L 222.332727 594.780004 
L 224.995909 618.452679 
L 227.659091 554.65931 
L 230.322273 536.658717 
L 232.985455 532.369294 
L 235.648636 568.169256 
L 238.311818 546.912626 
L 240.975 558.155786 
L 243.638182 573.25894 
L 246.301364 541.059581 
L 248.964545 528.887151 
L 251.627727 550.182805 
L 254.290909 586.724031 
L 256.954091 584.945021 
L 259.617273 581.144112 
L 262.280455 592.586187 
L 264.943636 616.95276 
L 267.606818 615.919883 
L 270.27 609.652234 
L 272.933182 614.067084 
L 275.596364 627.583803 
L 278.259545 626.107947 
L 280.922727 620.40802 
L 283.585909 614.128414 
L 286.249091 620.350141 
L 288.912273 620.215276 
L 291.575455 614.71317 
L 294.238636 608.167737 
L 296.901818 614.95541 
L 299.565 617.23714 
L 302.228182 602.239425 
L 304.891364 576.094501 
L 307.554545 576.066358 
L 310.217727 575.730573 
L 312.880909 592.438363 
L 315.544091 578.214883 
L 318.207273 566.602864 
L 320.870455 580.352993 
L 323.533636 583.825547 
L 326.196818 560.821592 
L 328.86 558.798808 
L 331.523182 565.136203 
L 334.186364 575.441306 
L 336.849545 566.418893 
L 339.512727 579.207739 
L 344.839091 610.717504 
L 347.502273 590.250279 
L 350.165455 556.298661 
L 352.828636 548.271675 
L 355.491818 565.244129 
L 358.155 569.420996 
L 360.818182 579.260472 
L 363.481364 575.835324 
L 366.144545 568.557672 
L 368.807727 571.502355 
L 371.470909 565.81591 
L 374.134091 584.649592 
L 376.797273 595.672239 
L 379.460455 600.556449 
L 382.123636 593.76399 
L 384.786818 590.131515 
L 387.45 589.461656 
L 390.113182 589.237607 
L 392.776364 585.454363 
L 395.439545 584.545697 
L 398.102727 597.802636 
L 400.765909 606.823677 
L 403.429091 609.683515 
L 406.092273 580.150524 
L 408.755455 594.240071 
L 411.418636 603.72586 
L 414.081818 618.464541 
L 416.745 609.306888 
L 419.408182 615.663587 
L 422.071364 611.103158 
L 424.734545 622.134038 
L 427.397727 491.41799 
L 430.060909 528.285863 
L 432.724091 511.745044 
L 435.387273 561.047057 
L 438.050455 540.00639 
L 440.713636 572.992407 
L 443.376818 564.192476 
L 446.04 601.224549 
L 448.703182 554.677287 
L 451.366364 567.004577 
L 454.029545 557.931498 
L 456.692727 595.702057 
L 459.355909 582.328084 
L 462.019091 600.424185 
L 464.682273 594.665028 
L 467.345455 619.337987 
L 470.008636 607.288924 
L 472.671818 606.769864 
L 475.335 578.514751 
L 477.998182 575.901906 
L 480.661364 559.649477 
L 483.324545 555.271844 
L 485.987727 553.350352 
L 488.650909 565.286175 
L 491.314091 562.761217 
L 493.977273 580.662202 
L 496.640455 576.359417 
L 499.303636 593.174315 
L 501.966818 596.660998 
L 504.63 609.051072 
L 507.293182 608.298198 
L 509.956364 617.271125 
L 512.619545 617.118429 
L 515.282727 610.733923 
L 517.945909 611.714655 
L 520.609091 618.702443 
L 523.272273 610.597005 
L 525.935455 614.376327 
L 528.598636 590.747079 
L 531.261818 605.854088 
L 533.925 596.878582 
L 536.588182 595.573594 
L 539.251364 580.945805 
L 541.914545 599.592714 
L 544.577727 600.703512 
L 547.240909 575.835854 
L 549.904091 544.923714 
L 552.567273 538.683113 
L 555.230455 510.08251 
L 557.893636 529.303593 
L 560.556818 546.357666 
L 563.22 577.846537 
L 565.883182 582.777151 
L 568.546364 563.840291 
L 571.209545 559.578454 
L 573.872727 549.75205 
L 576.535909 549.390629 
L 579.199091 562.986722 
L 581.862273 582.673477 
L 584.525455 593.119975 
L 587.188636 586.196353 
L 589.851818 550.952531 
L 592.515 571.559238 
L 595.178182 574.394717 
L 597.841364 594.864307 
L 600.504545 573.181625 
L 603.167727 578.690421 
L 605.830909 574.004145 
L 608.494091 596.164034 
L 611.157273 595.416504 
L 613.820455 594.317702 
L 616.483636 583.75529 
L 619.146818 576.589168 
L 624.473182 599.516583 
L 627.136364 606.506093 
L 629.799545 607.687075 
L 632.462727 599.461179 
L 635.125909 608.703458 
L 637.789091 613.306857 
L 640.452273 619.049036 
L 643.115455 606.11906 
L 645.778636 597.789087 
L 648.441818 593.848435 
L 651.105 607.489654 
L 651.105 607.489654 
" style="fill:none;stroke:#ff0000;stroke-linecap:square;stroke-width:1.5;"/>
   </g>
   <g id="patch_3">
    <path d="M 94.5 661.5 
L 94.5 90.72 
" style="fill:none;stroke:#000000;stroke-linecap:square;stroke-linejoin:miter;stroke-width:0.8;"/>
   </g>
   <g id="patch_4">
    <path d="M 680.4 661.5 
L 680.4 90.72 
" style="fill:none;stroke:#000000;stroke-linecap:square;stroke-linejoin:miter;stroke-width:0.8;"/>
   </g>
   <g id="patch_5">
    <path d="M 94.5 661.5 
L 680.4 661.5 
" style="fill:none;stroke:#000000;stroke-linecap:square;stroke-linejoin:miter;stroke-width:0.8;"/>
   </g>
   <g id="patch_6">
    <path d="M 94.5 90.72 
L 680.4 90.72 
" style="fill:none;stroke:#000000;stroke-linecap:square;stroke-linejoin:miter;stroke-width:0.8;"/>
   </g>
   <g id="legend_1">
    <g id="patch_7">
     <path d="M 550.735937 128.07625 
L 673.4 128.07625 
Q 675.4 128.07625 675.4 126.07625 
L 675.4 97.72 
Q 675.4 95.72 673.4 95.72 
L 550.735937 95.72 
Q 548.735937 95.72 548.735937 97.72 
L 548.735937 126.07625 
Q 548.735937 128.07625 550.735937 128.07625 
z
" style="fill:#ffffff;opacity:0.8;stroke:#cccccc;stroke-linejoin:miter;"/>
    </g>
    <g id="line2d_17">
     <path d="M 552.735937 103.818438 
L 572.735937 103.818438 
" style="fill:none;stroke:#1f77b4;stroke-linecap:square;stroke-width:1.5;"/>
    </g>
    <g id="line2d_18"/>
    <g id="text_17">
     <!-- Real values -->
     <defs>
      <path d="M 44.390625 34.1875 
Q 47.5625 33.109375 50.5625 29.59375 
Q 53.5625 26.078125 56.59375 19.921875 
L 66.609375 0 
L 56 0 
L 46.6875 18.703125 
Q 43.0625 26.03125 39.671875 28.421875 
Q 36.28125 30.8125 30.421875 30.8125 
L 19.671875 30.8125 
L 19.671875 0 
L 9.8125 0 
L 9.8125 72.90625 
L 32.078125 72.90625 
Q 44.578125 72.90625 50.734375 67.671875 
Q 56.890625 62.453125 56.890625 51.90625 
Q 56.890625 45.015625 53.6875 40.46875 
Q 50.484375 35.9375 44.390625 34.1875 
z
M 19.671875 64.796875 
L 19.671875 38.921875 
L 32.078125 38.921875 
Q 39.203125 38.921875 42.84375 42.21875 
Q 46.484375 45.515625 46.484375 51.90625 
Q 46.484375 58.296875 42.84375 61.546875 
Q 39.203125 64.796875 32.078125 64.796875 
z
" id="DejaVuSans-52"/>
      <path d="M 9.421875 75.984375 
L 18.40625 75.984375 
L 18.40625 0 
L 9.421875 0 
z
" id="DejaVuSans-6c"/>
      <path d="M 2.984375 54.6875 
L 12.5 54.6875 
L 29.59375 8.796875 
L 46.6875 54.6875 
L 56.203125 54.6875 
L 35.6875 0 
L 23.484375 0 
z
" id="DejaVuSans-76"/>
     </defs>
     <g transform="translate(580.735937 107.318438)scale(0.1 -0.1)">
      <use xlink:href="#DejaVuSans-52"/>
      <use x="69.419922" xlink:href="#DejaVuSans-65"/>
      <use x="130.943359" xlink:href="#DejaVuSans-61"/>
      <use x="192.222656" xlink:href="#DejaVuSans-6c"/>
      <use x="220.005859" xlink:href="#DejaVuSans-20"/>
      <use x="251.792969" xlink:href="#DejaVuSans-76"/>
      <use x="310.972656" xlink:href="#DejaVuSans-61"/>
      <use x="372.251953" xlink:href="#DejaVuSans-6c"/>
      <use x="400.035156" xlink:href="#DejaVuSans-75"/>
      <use x="463.414062" xlink:href="#DejaVuSans-65"/>
      <use x="524.9375" xlink:href="#DejaVuSans-73"/>
     </g>
    </g>
    <g id="line2d_19">
     <path d="M 552.735937 118.496563 
L 572.735937 118.496563 
" style="fill:none;stroke:#ff0000;stroke-linecap:square;stroke-width:1.5;"/>
    </g>
    <g id="line2d_20"/>
    <g id="text_18">
     <!-- ARIMA Predictions -->
     <defs>
      <path d="M 34.1875 63.1875 
L 20.796875 26.90625 
L 47.609375 26.90625 
z
M 28.609375 72.90625 
L 39.796875 72.90625 
L 67.578125 0 
L 57.328125 0 
L 50.6875 18.703125 
L 17.828125 18.703125 
L 11.1875 0 
L 0.78125 0 
z
" id="DejaVuSans-41"/>
      <path d="M 9.8125 72.90625 
L 19.671875 72.90625 
L 19.671875 0 
L 9.8125 0 
z
" id="DejaVuSans-49"/>
      <path d="M 19.671875 64.796875 
L 19.671875 37.40625 
L 32.078125 37.40625 
Q 38.96875 37.40625 42.71875 40.96875 
Q 46.484375 44.53125 46.484375 51.125 
Q 46.484375 57.671875 42.71875 61.234375 
Q 38.96875 64.796875 32.078125 64.796875 
z
M 9.8125 72.90625 
L 32.078125 72.90625 
Q 44.34375 72.90625 50.609375 67.359375 
Q 56.890625 61.8125 56.890625 51.125 
Q 56.890625 40.328125 50.609375 34.8125 
Q 44.34375 29.296875 32.078125 29.296875 
L 19.671875 29.296875 
L 19.671875 0 
L 9.8125 0 
z
" id="DejaVuSans-50"/>
      <path d="M 41.109375 46.296875 
Q 39.59375 47.171875 37.8125 47.578125 
Q 36.03125 48 33.890625 48 
Q 26.265625 48 22.1875 43.046875 
Q 18.109375 38.09375 18.109375 28.8125 
L 18.109375 0 
L 9.078125 0 
L 9.078125 54.6875 
L 18.109375 54.6875 
L 18.109375 46.1875 
Q 20.953125 51.171875 25.484375 53.578125 
Q 30.03125 56 36.53125 56 
Q 37.453125 56 38.578125 55.875 
Q 39.703125 55.765625 41.0625 55.515625 
z
" id="DejaVuSans-72"/>
      <path d="M 48.78125 52.59375 
L 48.78125 44.1875 
Q 44.96875 46.296875 41.140625 47.34375 
Q 37.3125 48.390625 33.40625 48.390625 
Q 24.65625 48.390625 19.8125 42.84375 
Q 14.984375 37.3125 14.984375 27.296875 
Q 14.984375 17.28125 19.8125 11.734375 
Q 24.65625 6.203125 33.40625 6.203125 
Q 37.3125 6.203125 41.140625 7.25 
Q 44.96875 8.296875 48.78125 10.40625 
L 48.78125 2.09375 
Q 45.015625 0.34375 40.984375 -0.53125 
Q 36.96875 -1.421875 32.421875 -1.421875 
Q 20.0625 -1.421875 12.78125 6.34375 
Q 5.515625 14.109375 5.515625 27.296875 
Q 5.515625 40.671875 12.859375 48.328125 
Q 20.21875 56 33.015625 56 
Q 37.15625 56 41.109375 55.140625 
Q 45.0625 54.296875 48.78125 52.59375 
z
" id="DejaVuSans-63"/>
      <path d="M 30.609375 48.390625 
Q 23.390625 48.390625 19.1875 42.75 
Q 14.984375 37.109375 14.984375 27.296875 
Q 14.984375 17.484375 19.15625 11.84375 
Q 23.34375 6.203125 30.609375 6.203125 
Q 37.796875 6.203125 41.984375 11.859375 
Q 46.1875 17.53125 46.1875 27.296875 
Q 46.1875 37.015625 41.984375 42.703125 
Q 37.796875 48.390625 30.609375 48.390625 
z
M 30.609375 56 
Q 42.328125 56 49.015625 48.375 
Q 55.71875 40.765625 55.71875 27.296875 
Q 55.71875 13.875 49.015625 6.21875 
Q 42.328125 -1.421875 30.609375 -1.421875 
Q 18.84375 -1.421875 12.171875 6.21875 
Q 5.515625 13.875 5.515625 27.296875 
Q 5.515625 40.765625 12.171875 48.375 
Q 18.84375 56 30.609375 56 
z
" id="DejaVuSans-6f"/>
     </defs>
     <g transform="translate(580.735937 121.996563)scale(0.1 -0.1)">
      <use xlink:href="#DejaVuSans-41"/>
      <use x="68.408203" xlink:href="#DejaVuSans-52"/>
      <use x="137.890625" xlink:href="#DejaVuSans-49"/>
      <use x="167.382812" xlink:href="#DejaVuSans-4d"/>
      <use x="253.662109" xlink:href="#DejaVuSans-41"/>
      <use x="322.070312" xlink:href="#DejaVuSans-20"/>
      <use x="353.857422" xlink:href="#DejaVuSans-50"/>
      <use x="414.144531" xlink:href="#DejaVuSans-72"/>
      <use x="455.226562" xlink:href="#DejaVuSans-65"/>
      <use x="516.75" xlink:href="#DejaVuSans-64"/>
      <use x="580.226562" xlink:href="#DejaVuSans-69"/>
      <use x="608.009766" xlink:href="#DejaVuSans-63"/>
      <use x="662.990234" xlink:href="#DejaVuSans-74"/>
      <use x="702.199219" xlink:href="#DejaVuSans-69"/>
      <use x="729.982422" xlink:href="#DejaVuSans-6f"/>
      <use x="791.164062" xlink:href="#DejaVuSans-6e"/>
      <use x="854.542969" xlink:href="#DejaVuSans-73"/>
     </g>
    </g>
   </g>
  </g>
 </g>
 <defs>
  <clipPath id="p8d1abf22d5">
   <rect height="570.78" width="585.9" x="94.5" y="90.72"/>
  </clipPath>
 </defs>
</svg>
