<?xml version="1.0" encoding="utf-8" standalone="no"?>
<!DOCTYPE svg PUBLIC "-//W3C//DTD SVG 1.1//EN"
  "http://www.w3.org/Graphics/SVG/1.1/DTD/svg11.dtd">
<!-- Created with matplotlib (http://matplotlib.org/) -->
<svg height="720pt" version="1.1" viewBox="0 0 1296 720" width="1296pt" xmlns="http://www.w3.org/2000/svg" xmlns:xlink="http://www.w3.org/1999/xlink">
 <defs>
  <style type="text/css">
*{stroke-linecap:butt;stroke-linejoin:round;}
  </style>
 </defs>
 <g id="figure_1">
  <g id="patch_1">
   <path d="M 0 720 
L 1296 720 
L 1296 0 
L 0 0 
z
" style="fill:#ffffff;"/>
  </g>
  <g id="axes_1">
   <g id="patch_2">
    <path d="M 162 630 
L 1166.4 630 
L 1166.4 86.4 
L 162 86.4 
z
" style="fill:#ffffff;"/>
   </g>
   <g id="matplotlib.axis_1">
    <g id="xtick_1">
     <g id="line2d_1">
      <defs>
       <path d="M 0 0 
L 0 3.5 
" id="mce7be3e133" style="stroke:#000000;stroke-width:0.8;"/>
      </defs>
      <g>
       <use style="stroke:#000000;stroke-width:0.8;" x="212.197286" xlink:href="#mce7be3e133" y="630"/>
      </g>
     </g>
     <g id="text_1">
      <!-- 0 -->
      <defs>
       <path d="M 31.78125 66.40625 
Q 24.171875 66.40625 20.328125 58.90625 
Q 16.5 51.421875 16.5 36.375 
Q 16.5 21.390625 20.328125 13.890625 
Q 24.171875 6.390625 31.78125 6.390625 
Q 39.453125 6.390625 43.28125 13.890625 
Q 47.125 21.390625 47.125 36.375 
Q 47.125 51.421875 43.28125 58.90625 
Q 39.453125 66.40625 31.78125 66.40625 
z
M 31.78125 74.21875 
Q 44.046875 74.21875 50.515625 64.515625 
Q 56.984375 54.828125 56.984375 36.375 
Q 56.984375 17.96875 50.515625 8.265625 
Q 44.046875 -1.421875 31.78125 -1.421875 
Q 19.53125 -1.421875 13.0625 8.265625 
Q 6.59375 17.96875 6.59375 36.375 
Q 6.59375 54.828125 13.0625 64.515625 
Q 19.53125 74.21875 31.78125 74.21875 
z
" id="DejaVuSans-30"/>
      </defs>
      <g transform="translate(205.834786 652.196875)scale(0.2 -0.2)">
       <use xlink:href="#DejaVuSans-30"/>
      </g>
     </g>
    </g>
    <g id="xtick_2">
     <g id="line2d_2">
      <g>
       <use style="stroke:#000000;stroke-width:0.8;" x="325.765807" xlink:href="#mce7be3e133" y="630"/>
      </g>
     </g>
     <g id="text_2">
      <!-- 25 -->
      <defs>
       <path d="M 19.1875 8.296875 
L 53.609375 8.296875 
L 53.609375 0 
L 7.328125 0 
L 7.328125 8.296875 
Q 12.9375 14.109375 22.625 23.890625 
Q 32.328125 33.6875 34.8125 36.53125 
Q 39.546875 41.84375 41.421875 45.53125 
Q 43.3125 49.21875 43.3125 52.78125 
Q 43.3125 58.59375 39.234375 62.25 
Q 35.15625 65.921875 28.609375 65.921875 
Q 23.96875 65.921875 18.8125 64.3125 
Q 13.671875 62.703125 7.8125 59.421875 
L 7.8125 69.390625 
Q 13.765625 71.78125 18.9375 73 
Q 24.125 74.21875 28.421875 74.21875 
Q 39.75 74.21875 46.484375 68.546875 
Q 53.21875 62.890625 53.21875 53.421875 
Q 53.21875 48.921875 51.53125 44.890625 
Q 49.859375 40.875 45.40625 35.40625 
Q 44.1875 33.984375 37.640625 27.21875 
Q 31.109375 20.453125 19.1875 8.296875 
z
" id="DejaVuSans-32"/>
       <path d="M 10.796875 72.90625 
L 49.515625 72.90625 
L 49.515625 64.59375 
L 19.828125 64.59375 
L 19.828125 46.734375 
Q 21.96875 47.46875 24.109375 47.828125 
Q 26.265625 48.1875 28.421875 48.1875 
Q 40.625 48.1875 47.75 41.5 
Q 54.890625 34.8125 54.890625 23.390625 
Q 54.890625 11.625 47.5625 5.09375 
Q 40.234375 -1.421875 26.90625 -1.421875 
Q 22.3125 -1.421875 17.546875 -0.640625 
Q 12.796875 0.140625 7.71875 1.703125 
L 7.71875 11.625 
Q 12.109375 9.234375 16.796875 8.0625 
Q 21.484375 6.890625 26.703125 6.890625 
Q 35.15625 6.890625 40.078125 11.328125 
Q 45.015625 15.765625 45.015625 23.390625 
Q 45.015625 31 40.078125 35.4375 
Q 35.15625 39.890625 26.703125 39.890625 
Q 22.75 39.890625 18.8125 39.015625 
Q 14.890625 38.140625 10.796875 36.28125 
z
" id="DejaVuSans-35"/>
      </defs>
      <g transform="translate(313.040807 652.196875)scale(0.2 -0.2)">
       <use xlink:href="#DejaVuSans-32"/>
       <use x="63.623047" xlink:href="#DejaVuSans-35"/>
      </g>
     </g>
    </g>
    <g id="xtick_3">
     <g id="line2d_3">
      <g>
       <use style="stroke:#000000;stroke-width:0.8;" x="439.334328" xlink:href="#mce7be3e133" y="630"/>
      </g>
     </g>
     <g id="text_3">
      <!-- 50 -->
      <g transform="translate(426.609328 652.196875)scale(0.2 -0.2)">
       <use xlink:href="#DejaVuSans-35"/>
       <use x="63.623047" xlink:href="#DejaVuSans-30"/>
      </g>
     </g>
    </g>
    <g id="xtick_4">
     <g id="line2d_4">
      <g>
       <use style="stroke:#000000;stroke-width:0.8;" x="552.902849" xlink:href="#mce7be3e133" y="630"/>
      </g>
     </g>
     <g id="text_4">
      <!-- 75 -->
      <defs>
       <path d="M 8.203125 72.90625 
L 55.078125 72.90625 
L 55.078125 68.703125 
L 28.609375 0 
L 18.3125 0 
L 43.21875 64.59375 
L 8.203125 64.59375 
z
" id="DejaVuSans-37"/>
      </defs>
      <g transform="translate(540.177849 652.196875)scale(0.2 -0.2)">
       <use xlink:href="#DejaVuSans-37"/>
       <use x="63.623047" xlink:href="#DejaVuSans-35"/>
      </g>
     </g>
    </g>
    <g id="xtick_5">
     <g id="line2d_5">
      <g>
       <use style="stroke:#000000;stroke-width:0.8;" x="666.47137" xlink:href="#mce7be3e133" y="630"/>
      </g>
     </g>
     <g id="text_5">
      <!-- 100 -->
      <defs>
       <path d="M 12.40625 8.296875 
L 28.515625 8.296875 
L 28.515625 63.921875 
L 10.984375 60.40625 
L 10.984375 69.390625 
L 28.421875 72.90625 
L 38.28125 72.90625 
L 38.28125 8.296875 
L 54.390625 8.296875 
L 54.390625 0 
L 12.40625 0 
z
" id="DejaVuSans-31"/>
      </defs>
      <g transform="translate(647.38387 652.196875)scale(0.2 -0.2)">
       <use xlink:href="#DejaVuSans-31"/>
       <use x="63.623047" xlink:href="#DejaVuSans-30"/>
       <use x="127.246094" xlink:href="#DejaVuSans-30"/>
      </g>
     </g>
    </g>
    <g id="xtick_6">
     <g id="line2d_6">
      <g>
       <use style="stroke:#000000;stroke-width:0.8;" x="780.039891" xlink:href="#mce7be3e133" y="630"/>
      </g>
     </g>
     <g id="text_6">
      <!-- 125 -->
      <g transform="translate(760.952391 652.196875)scale(0.2 -0.2)">
       <use xlink:href="#DejaVuSans-31"/>
       <use x="63.623047" xlink:href="#DejaVuSans-32"/>
       <use x="127.246094" xlink:href="#DejaVuSans-35"/>
      </g>
     </g>
    </g>
    <g id="xtick_7">
     <g id="line2d_7">
      <g>
       <use style="stroke:#000000;stroke-width:0.8;" x="893.608412" xlink:href="#mce7be3e133" y="630"/>
      </g>
     </g>
     <g id="text_7">
      <!-- 150 -->
      <g transform="translate(874.520912 652.196875)scale(0.2 -0.2)">
       <use xlink:href="#DejaVuSans-31"/>
       <use x="63.623047" xlink:href="#DejaVuSans-35"/>
       <use x="127.246094" xlink:href="#DejaVuSans-30"/>
      </g>
     </g>
    </g>
    <g id="xtick_8">
     <g id="line2d_8">
      <g>
       <use style="stroke:#000000;stroke-width:0.8;" x="1007.176934" xlink:href="#mce7be3e133" y="630"/>
      </g>
     </g>
     <g id="text_8">
      <!-- 175 -->
      <g transform="translate(988.089434 652.196875)scale(0.2 -0.2)">
       <use xlink:href="#DejaVuSans-31"/>
       <use x="63.623047" xlink:href="#DejaVuSans-37"/>
       <use x="127.246094" xlink:href="#DejaVuSans-35"/>
      </g>
     </g>
    </g>
    <g id="xtick_9">
     <g id="line2d_9">
      <g>
       <use style="stroke:#000000;stroke-width:0.8;" x="1120.745455" xlink:href="#mce7be3e133" y="630"/>
      </g>
     </g>
     <g id="text_9">
      <!-- 200 -->
      <g transform="translate(1101.657955 652.196875)scale(0.2 -0.2)">
       <use xlink:href="#DejaVuSans-32"/>
       <use x="63.623047" xlink:href="#DejaVuSans-30"/>
       <use x="127.246094" xlink:href="#DejaVuSans-30"/>
      </g>
     </g>
    </g>
    <g id="text_10">
     <!-- 15-Minute Steps -->
     <defs>
      <path d="M 4.890625 31.390625 
L 31.203125 31.390625 
L 31.203125 23.390625 
L 4.890625 23.390625 
z
" id="DejaVuSans-2d"/>
      <path d="M 9.8125 72.90625 
L 24.515625 72.90625 
L 43.109375 23.296875 
L 61.8125 72.90625 
L 76.515625 72.90625 
L 76.515625 0 
L 66.890625 0 
L 66.890625 64.015625 
L 48.09375 14.015625 
L 38.1875 14.015625 
L 19.390625 64.015625 
L 19.390625 0 
L 9.8125 0 
z
" id="DejaVuSans-4d"/>
      <path d="M 9.421875 54.6875 
L 18.40625 54.6875 
L 18.40625 0 
L 9.421875 0 
z
M 9.421875 75.984375 
L 18.40625 75.984375 
L 18.40625 64.59375 
L 9.421875 64.59375 
z
" id="DejaVuSans-69"/>
      <path d="M 54.890625 33.015625 
L 54.890625 0 
L 45.90625 0 
L 45.90625 32.71875 
Q 45.90625 40.484375 42.875 44.328125 
Q 39.84375 48.1875 33.796875 48.1875 
Q 26.515625 48.1875 22.3125 43.546875 
Q 18.109375 38.921875 18.109375 30.90625 
L 18.109375 0 
L 9.078125 0 
L 9.078125 54.6875 
L 18.109375 54.6875 
L 18.109375 46.1875 
Q 21.34375 51.125 25.703125 53.5625 
Q 30.078125 56 35.796875 56 
Q 45.21875 56 50.046875 50.171875 
Q 54.890625 44.34375 54.890625 33.015625 
z
" id="DejaVuSans-6e"/>
      <path d="M 8.5 21.578125 
L 8.5 54.6875 
L 17.484375 54.6875 
L 17.484375 21.921875 
Q 17.484375 14.15625 20.5 10.265625 
Q 23.53125 6.390625 29.59375 6.390625 
Q 36.859375 6.390625 41.078125 11.03125 
Q 45.3125 15.671875 45.3125 23.6875 
L 45.3125 54.6875 
L 54.296875 54.6875 
L 54.296875 0 
L 45.3125 0 
L 45.3125 8.40625 
Q 42.046875 3.421875 37.71875 1 
Q 33.40625 -1.421875 27.6875 -1.421875 
Q 18.265625 -1.421875 13.375 4.4375 
Q 8.5 10.296875 8.5 21.578125 
z
M 31.109375 56 
z
" id="DejaVuSans-75"/>
      <path d="M 18.3125 70.21875 
L 18.3125 54.6875 
L 36.8125 54.6875 
L 36.8125 47.703125 
L 18.3125 47.703125 
L 18.3125 18.015625 
Q 18.3125 11.328125 20.140625 9.421875 
Q 21.96875 7.515625 27.59375 7.515625 
L 36.8125 7.515625 
L 36.8125 0 
L 27.59375 0 
Q 17.1875 0 13.234375 3.875 
Q 9.28125 7.765625 9.28125 18.015625 
L 9.28125 47.703125 
L 2.6875 47.703125 
L 2.6875 54.6875 
L 9.28125 54.6875 
L 9.28125 70.21875 
z
" id="DejaVuSans-74"/>
      <path d="M 56.203125 29.59375 
L 56.203125 25.203125 
L 14.890625 25.203125 
Q 15.484375 15.921875 20.484375 11.0625 
Q 25.484375 6.203125 34.421875 6.203125 
Q 39.59375 6.203125 44.453125 7.46875 
Q 49.3125 8.734375 54.109375 11.28125 
L 54.109375 2.78125 
Q 49.265625 0.734375 44.1875 -0.34375 
Q 39.109375 -1.421875 33.890625 -1.421875 
Q 20.796875 -1.421875 13.15625 6.1875 
Q 5.515625 13.8125 5.515625 26.8125 
Q 5.515625 40.234375 12.765625 48.109375 
Q 20.015625 56 32.328125 56 
Q 43.359375 56 49.78125 48.890625 
Q 56.203125 41.796875 56.203125 29.59375 
z
M 47.21875 32.234375 
Q 47.125 39.59375 43.09375 43.984375 
Q 39.0625 48.390625 32.421875 48.390625 
Q 24.90625 48.390625 20.390625 44.140625 
Q 15.875 39.890625 15.1875 32.171875 
z
" id="DejaVuSans-65"/>
      <path id="DejaVuSans-20"/>
      <path d="M 53.515625 70.515625 
L 53.515625 60.890625 
Q 47.90625 63.578125 42.921875 64.890625 
Q 37.9375 66.21875 33.296875 66.21875 
Q 25.25 66.21875 20.875 63.09375 
Q 16.5 59.96875 16.5 54.203125 
Q 16.5 49.359375 19.40625 46.890625 
Q 22.3125 44.4375 30.421875 42.921875 
L 36.375 41.703125 
Q 47.40625 39.59375 52.65625 34.296875 
Q 57.90625 29 57.90625 20.125 
Q 57.90625 9.515625 50.796875 4.046875 
Q 43.703125 -1.421875 29.984375 -1.421875 
Q 24.8125 -1.421875 18.96875 -0.25 
Q 13.140625 0.921875 6.890625 3.21875 
L 6.890625 13.375 
Q 12.890625 10.015625 18.65625 8.296875 
Q 24.421875 6.59375 29.984375 6.59375 
Q 38.421875 6.59375 43.015625 9.90625 
Q 47.609375 13.234375 47.609375 19.390625 
Q 47.609375 24.75 44.3125 27.78125 
Q 41.015625 30.8125 33.5 32.328125 
L 27.484375 33.5 
Q 16.453125 35.6875 11.515625 40.375 
Q 6.59375 45.0625 6.59375 53.421875 
Q 6.59375 63.09375 13.40625 68.65625 
Q 20.21875 74.21875 32.171875 74.21875 
Q 37.3125 74.21875 42.625 73.28125 
Q 47.953125 72.359375 53.515625 70.515625 
z
" id="DejaVuSans-53"/>
      <path d="M 18.109375 8.203125 
L 18.109375 -20.796875 
L 9.078125 -20.796875 
L 9.078125 54.6875 
L 18.109375 54.6875 
L 18.109375 46.390625 
Q 20.953125 51.265625 25.265625 53.625 
Q 29.59375 56 35.59375 56 
Q 45.5625 56 51.78125 48.09375 
Q 58.015625 40.1875 58.015625 27.296875 
Q 58.015625 14.40625 51.78125 6.484375 
Q 45.5625 -1.421875 35.59375 -1.421875 
Q 29.59375 -1.421875 25.265625 0.953125 
Q 20.953125 3.328125 18.109375 8.203125 
z
M 48.6875 27.296875 
Q 48.6875 37.203125 44.609375 42.84375 
Q 40.53125 48.484375 33.40625 48.484375 
Q 26.265625 48.484375 22.1875 42.84375 
Q 18.109375 37.203125 18.109375 27.296875 
Q 18.109375 17.390625 22.1875 11.75 
Q 26.265625 6.109375 33.40625 6.109375 
Q 40.53125 6.109375 44.609375 11.75 
Q 48.6875 17.390625 48.6875 27.296875 
z
" id="DejaVuSans-70"/>
      <path d="M 44.28125 53.078125 
L 44.28125 44.578125 
Q 40.484375 46.53125 36.375 47.5 
Q 32.28125 48.484375 27.875 48.484375 
Q 21.1875 48.484375 17.84375 46.4375 
Q 14.5 44.390625 14.5 40.28125 
Q 14.5 37.15625 16.890625 35.375 
Q 19.28125 33.59375 26.515625 31.984375 
L 29.59375 31.296875 
Q 39.15625 29.25 43.1875 25.515625 
Q 47.21875 21.78125 47.21875 15.09375 
Q 47.21875 7.46875 41.1875 3.015625 
Q 35.15625 -1.421875 24.609375 -1.421875 
Q 20.21875 -1.421875 15.453125 -0.5625 
Q 10.6875 0.296875 5.421875 2 
L 5.421875 11.28125 
Q 10.40625 8.6875 15.234375 7.390625 
Q 20.0625 6.109375 24.8125 6.109375 
Q 31.15625 6.109375 34.5625 8.28125 
Q 37.984375 10.453125 37.984375 14.40625 
Q 37.984375 18.0625 35.515625 20.015625 
Q 33.0625 21.96875 24.703125 23.78125 
L 21.578125 24.515625 
Q 13.234375 26.265625 9.515625 29.90625 
Q 5.8125 33.546875 5.8125 39.890625 
Q 5.8125 47.609375 11.28125 51.796875 
Q 16.75 56 26.8125 56 
Q 31.78125 56 36.171875 55.265625 
Q 40.578125 54.546875 44.28125 53.078125 
z
" id="DejaVuSans-73"/>
     </defs>
     <g transform="translate(582.554688 675.553125)scale(0.2 -0.2)">
      <use xlink:href="#DejaVuSans-31"/>
      <use x="63.623047" xlink:href="#DejaVuSans-35"/>
      <use x="127.246094" xlink:href="#DejaVuSans-2d"/>
      <use x="163.330078" xlink:href="#DejaVuSans-4d"/>
      <use x="249.609375" xlink:href="#DejaVuSans-69"/>
      <use x="277.392578" xlink:href="#DejaVuSans-6e"/>
      <use x="340.771484" xlink:href="#DejaVuSans-75"/>
      <use x="404.150391" xlink:href="#DejaVuSans-74"/>
      <use x="443.359375" xlink:href="#DejaVuSans-65"/>
      <use x="504.882812" xlink:href="#DejaVuSans-20"/>
      <use x="536.669922" xlink:href="#DejaVuSans-53"/>
      <use x="600.146484" xlink:href="#DejaVuSans-74"/>
      <use x="639.355469" xlink:href="#DejaVuSans-65"/>
      <use x="700.878906" xlink:href="#DejaVuSans-70"/>
      <use x="764.355469" xlink:href="#DejaVuSans-73"/>
     </g>
    </g>
   </g>
   <g id="matplotlib.axis_2">
    <g id="ytick_1">
     <g id="line2d_10">
      <defs>
       <path d="M 0 0 
L -3.5 0 
" id="m9ae7f53087" style="stroke:#000000;stroke-width:0.8;"/>
      </defs>
      <g>
       <use style="stroke:#000000;stroke-width:0.8;" x="162" xlink:href="#m9ae7f53087" y="606.748981"/>
      </g>
     </g>
     <g id="text_11">
      <!-- 0 -->
      <g transform="translate(142.275 614.347418)scale(0.2 -0.2)">
       <use xlink:href="#DejaVuSans-30"/>
      </g>
     </g>
    </g>
    <g id="ytick_2">
     <g id="line2d_11">
      <g>
       <use style="stroke:#000000;stroke-width:0.8;" x="162" xlink:href="#m9ae7f53087" y="502.035934"/>
      </g>
     </g>
     <g id="text_12">
      <!-- 2000 -->
      <g transform="translate(104.1 509.634372)scale(0.2 -0.2)">
       <use xlink:href="#DejaVuSans-32"/>
       <use x="63.623047" xlink:href="#DejaVuSans-30"/>
       <use x="127.246094" xlink:href="#DejaVuSans-30"/>
       <use x="190.869141" xlink:href="#DejaVuSans-30"/>
      </g>
     </g>
    </g>
    <g id="ytick_3">
     <g id="line2d_12">
      <g>
       <use style="stroke:#000000;stroke-width:0.8;" x="162" xlink:href="#m9ae7f53087" y="397.322888"/>
      </g>
     </g>
     <g id="text_13">
      <!-- 4000 -->
      <defs>
       <path d="M 37.796875 64.3125 
L 12.890625 25.390625 
L 37.796875 25.390625 
z
M 35.203125 72.90625 
L 47.609375 72.90625 
L 47.609375 25.390625 
L 58.015625 25.390625 
L 58.015625 17.1875 
L 47.609375 17.1875 
L 47.609375 0 
L 37.796875 0 
L 37.796875 17.1875 
L 4.890625 17.1875 
L 4.890625 26.703125 
z
" id="DejaVuSans-34"/>
      </defs>
      <g transform="translate(104.1 404.921326)scale(0.2 -0.2)">
       <use xlink:href="#DejaVuSans-34"/>
       <use x="63.623047" xlink:href="#DejaVuSans-30"/>
       <use x="127.246094" xlink:href="#DejaVuSans-30"/>
       <use x="190.869141" xlink:href="#DejaVuSans-30"/>
      </g>
     </g>
    </g>
    <g id="ytick_4">
     <g id="line2d_13">
      <g>
       <use style="stroke:#000000;stroke-width:0.8;" x="162" xlink:href="#m9ae7f53087" y="292.609842"/>
      </g>
     </g>
     <g id="text_14">
      <!-- 6000 -->
      <defs>
       <path d="M 33.015625 40.375 
Q 26.375 40.375 22.484375 35.828125 
Q 18.609375 31.296875 18.609375 23.390625 
Q 18.609375 15.53125 22.484375 10.953125 
Q 26.375 6.390625 33.015625 6.390625 
Q 39.65625 6.390625 43.53125 10.953125 
Q 47.40625 15.53125 47.40625 23.390625 
Q 47.40625 31.296875 43.53125 35.828125 
Q 39.65625 40.375 33.015625 40.375 
z
M 52.59375 71.296875 
L 52.59375 62.3125 
Q 48.875 64.0625 45.09375 64.984375 
Q 41.3125 65.921875 37.59375 65.921875 
Q 27.828125 65.921875 22.671875 59.328125 
Q 17.53125 52.734375 16.796875 39.40625 
Q 19.671875 43.65625 24.015625 45.921875 
Q 28.375 48.1875 33.59375 48.1875 
Q 44.578125 48.1875 50.953125 41.515625 
Q 57.328125 34.859375 57.328125 23.390625 
Q 57.328125 12.15625 50.6875 5.359375 
Q 44.046875 -1.421875 33.015625 -1.421875 
Q 20.359375 -1.421875 13.671875 8.265625 
Q 6.984375 17.96875 6.984375 36.375 
Q 6.984375 53.65625 15.1875 63.9375 
Q 23.390625 74.21875 37.203125 74.21875 
Q 40.921875 74.21875 44.703125 73.484375 
Q 48.484375 72.75 52.59375 71.296875 
z
" id="DejaVuSans-36"/>
      </defs>
      <g transform="translate(104.1 300.20828)scale(0.2 -0.2)">
       <use xlink:href="#DejaVuSans-36"/>
       <use x="63.623047" xlink:href="#DejaVuSans-30"/>
       <use x="127.246094" xlink:href="#DejaVuSans-30"/>
       <use x="190.869141" xlink:href="#DejaVuSans-30"/>
      </g>
     </g>
    </g>
    <g id="ytick_5">
     <g id="line2d_14">
      <g>
       <use style="stroke:#000000;stroke-width:0.8;" x="162" xlink:href="#m9ae7f53087" y="187.896796"/>
      </g>
     </g>
     <g id="text_15">
      <!-- 8000 -->
      <defs>
       <path d="M 31.78125 34.625 
Q 24.75 34.625 20.71875 30.859375 
Q 16.703125 27.09375 16.703125 20.515625 
Q 16.703125 13.921875 20.71875 10.15625 
Q 24.75 6.390625 31.78125 6.390625 
Q 38.8125 6.390625 42.859375 10.171875 
Q 46.921875 13.96875 46.921875 20.515625 
Q 46.921875 27.09375 42.890625 30.859375 
Q 38.875 34.625 31.78125 34.625 
z
M 21.921875 38.8125 
Q 15.578125 40.375 12.03125 44.71875 
Q 8.5 49.078125 8.5 55.328125 
Q 8.5 64.0625 14.71875 69.140625 
Q 20.953125 74.21875 31.78125 74.21875 
Q 42.671875 74.21875 48.875 69.140625 
Q 55.078125 64.0625 55.078125 55.328125 
Q 55.078125 49.078125 51.53125 44.71875 
Q 48 40.375 41.703125 38.8125 
Q 48.828125 37.15625 52.796875 32.3125 
Q 56.78125 27.484375 56.78125 20.515625 
Q 56.78125 9.90625 50.3125 4.234375 
Q 43.84375 -1.421875 31.78125 -1.421875 
Q 19.734375 -1.421875 13.25 4.234375 
Q 6.78125 9.90625 6.78125 20.515625 
Q 6.78125 27.484375 10.78125 32.3125 
Q 14.796875 37.15625 21.921875 38.8125 
z
M 18.3125 54.390625 
Q 18.3125 48.734375 21.84375 45.5625 
Q 25.390625 42.390625 31.78125 42.390625 
Q 38.140625 42.390625 41.71875 45.5625 
Q 45.3125 48.734375 45.3125 54.390625 
Q 45.3125 60.0625 41.71875 63.234375 
Q 38.140625 66.40625 31.78125 66.40625 
Q 25.390625 66.40625 21.84375 63.234375 
Q 18.3125 60.0625 18.3125 54.390625 
z
" id="DejaVuSans-38"/>
      </defs>
      <g transform="translate(104.1 195.495233)scale(0.2 -0.2)">
       <use xlink:href="#DejaVuSans-38"/>
       <use x="63.623047" xlink:href="#DejaVuSans-30"/>
       <use x="127.246094" xlink:href="#DejaVuSans-30"/>
       <use x="190.869141" xlink:href="#DejaVuSans-30"/>
      </g>
     </g>
    </g>
    <g id="text_16">
     <!-- Bandwidth (kbps) -->
     <defs>
      <path d="M 19.671875 34.8125 
L 19.671875 8.109375 
L 35.5 8.109375 
Q 43.453125 8.109375 47.28125 11.40625 
Q 51.125 14.703125 51.125 21.484375 
Q 51.125 28.328125 47.28125 31.5625 
Q 43.453125 34.8125 35.5 34.8125 
z
M 19.671875 64.796875 
L 19.671875 42.828125 
L 34.28125 42.828125 
Q 41.5 42.828125 45.03125 45.53125 
Q 48.578125 48.25 48.578125 53.8125 
Q 48.578125 59.328125 45.03125 62.0625 
Q 41.5 64.796875 34.28125 64.796875 
z
M 9.8125 72.90625 
L 35.015625 72.90625 
Q 46.296875 72.90625 52.390625 68.21875 
Q 58.5 63.53125 58.5 54.890625 
Q 58.5 48.1875 55.375 44.234375 
Q 52.25 40.28125 46.1875 39.3125 
Q 53.46875 37.75 57.5 32.78125 
Q 61.53125 27.828125 61.53125 20.40625 
Q 61.53125 10.640625 54.890625 5.3125 
Q 48.25 0 35.984375 0 
L 9.8125 0 
z
" id="DejaVuSans-42"/>
      <path d="M 34.28125 27.484375 
Q 23.390625 27.484375 19.1875 25 
Q 14.984375 22.515625 14.984375 16.5 
Q 14.984375 11.71875 18.140625 8.90625 
Q 21.296875 6.109375 26.703125 6.109375 
Q 34.1875 6.109375 38.703125 11.40625 
Q 43.21875 16.703125 43.21875 25.484375 
L 43.21875 27.484375 
z
M 52.203125 31.203125 
L 52.203125 0 
L 43.21875 0 
L 43.21875 8.296875 
Q 40.140625 3.328125 35.546875 0.953125 
Q 30.953125 -1.421875 24.3125 -1.421875 
Q 15.921875 -1.421875 10.953125 3.296875 
Q 6 8.015625 6 15.921875 
Q 6 25.140625 12.171875 29.828125 
Q 18.359375 34.515625 30.609375 34.515625 
L 43.21875 34.515625 
L 43.21875 35.40625 
Q 43.21875 41.609375 39.140625 45 
Q 35.0625 48.390625 27.6875 48.390625 
Q 23 48.390625 18.546875 47.265625 
Q 14.109375 46.140625 10.015625 43.890625 
L 10.015625 52.203125 
Q 14.9375 54.109375 19.578125 55.046875 
Q 24.21875 56 28.609375 56 
Q 40.484375 56 46.34375 49.84375 
Q 52.203125 43.703125 52.203125 31.203125 
z
" id="DejaVuSans-61"/>
      <path d="M 45.40625 46.390625 
L 45.40625 75.984375 
L 54.390625 75.984375 
L 54.390625 0 
L 45.40625 0 
L 45.40625 8.203125 
Q 42.578125 3.328125 38.25 0.953125 
Q 33.9375 -1.421875 27.875 -1.421875 
Q 17.96875 -1.421875 11.734375 6.484375 
Q 5.515625 14.40625 5.515625 27.296875 
Q 5.515625 40.1875 11.734375 48.09375 
Q 17.96875 56 27.875 56 
Q 33.9375 56 38.25 53.625 
Q 42.578125 51.265625 45.40625 46.390625 
z
M 14.796875 27.296875 
Q 14.796875 17.390625 18.875 11.75 
Q 22.953125 6.109375 30.078125 6.109375 
Q 37.203125 6.109375 41.296875 11.75 
Q 45.40625 17.390625 45.40625 27.296875 
Q 45.40625 37.203125 41.296875 42.84375 
Q 37.203125 48.484375 30.078125 48.484375 
Q 22.953125 48.484375 18.875 42.84375 
Q 14.796875 37.203125 14.796875 27.296875 
z
" id="DejaVuSans-64"/>
      <path d="M 4.203125 54.6875 
L 13.1875 54.6875 
L 24.421875 12.015625 
L 35.59375 54.6875 
L 46.1875 54.6875 
L 57.421875 12.015625 
L 68.609375 54.6875 
L 77.59375 54.6875 
L 63.28125 0 
L 52.6875 0 
L 40.921875 44.828125 
L 29.109375 0 
L 18.5 0 
z
" id="DejaVuSans-77"/>
      <path d="M 54.890625 33.015625 
L 54.890625 0 
L 45.90625 0 
L 45.90625 32.71875 
Q 45.90625 40.484375 42.875 44.328125 
Q 39.84375 48.1875 33.796875 48.1875 
Q 26.515625 48.1875 22.3125 43.546875 
Q 18.109375 38.921875 18.109375 30.90625 
L 18.109375 0 
L 9.078125 0 
L 9.078125 75.984375 
L 18.109375 75.984375 
L 18.109375 46.1875 
Q 21.34375 51.125 25.703125 53.5625 
Q 30.078125 56 35.796875 56 
Q 45.21875 56 50.046875 50.171875 
Q 54.890625 44.34375 54.890625 33.015625 
z
" id="DejaVuSans-68"/>
      <path d="M 31 75.875 
Q 24.46875 64.65625 21.28125 53.65625 
Q 18.109375 42.671875 18.109375 31.390625 
Q 18.109375 20.125 21.3125 9.0625 
Q 24.515625 -2 31 -13.1875 
L 23.1875 -13.1875 
Q 15.875 -1.703125 12.234375 9.375 
Q 8.59375 20.453125 8.59375 31.390625 
Q 8.59375 42.28125 12.203125 53.3125 
Q 15.828125 64.359375 23.1875 75.875 
z
" id="DejaVuSans-28"/>
      <path d="M 9.078125 75.984375 
L 18.109375 75.984375 
L 18.109375 31.109375 
L 44.921875 54.6875 
L 56.390625 54.6875 
L 27.390625 29.109375 
L 57.625 0 
L 45.90625 0 
L 18.109375 26.703125 
L 18.109375 0 
L 9.078125 0 
z
" id="DejaVuSans-6b"/>
      <path d="M 48.6875 27.296875 
Q 48.6875 37.203125 44.609375 42.84375 
Q 40.53125 48.484375 33.40625 48.484375 
Q 26.265625 48.484375 22.1875 42.84375 
Q 18.109375 37.203125 18.109375 27.296875 
Q 18.109375 17.390625 22.1875 11.75 
Q 26.265625 6.109375 33.40625 6.109375 
Q 40.53125 6.109375 44.609375 11.75 
Q 48.6875 17.390625 48.6875 27.296875 
z
M 18.109375 46.390625 
Q 20.953125 51.265625 25.265625 53.625 
Q 29.59375 56 35.59375 56 
Q 45.5625 56 51.78125 48.09375 
Q 58.015625 40.1875 58.015625 27.296875 
Q 58.015625 14.40625 51.78125 6.484375 
Q 45.5625 -1.421875 35.59375 -1.421875 
Q 29.59375 -1.421875 25.265625 0.953125 
Q 20.953125 3.328125 18.109375 8.203125 
L 18.109375 0 
L 9.078125 0 
L 9.078125 75.984375 
L 18.109375 75.984375 
z
" id="DejaVuSans-62"/>
      <path d="M 8.015625 75.875 
L 15.828125 75.875 
Q 23.140625 64.359375 26.78125 53.3125 
Q 30.421875 42.28125 30.421875 31.390625 
Q 30.421875 20.453125 26.78125 9.375 
Q 23.140625 -1.703125 15.828125 -13.1875 
L 8.015625 -13.1875 
Q 14.5 -2 17.703125 9.0625 
Q 20.90625 20.125 20.90625 31.390625 
Q 20.90625 42.671875 17.703125 53.65625 
Q 14.5 64.65625 8.015625 75.875 
z
" id="DejaVuSans-29"/>
     </defs>
     <g transform="translate(95.940625 446.115625)rotate(-90)scale(0.2 -0.2)">
      <use xlink:href="#DejaVuSans-42"/>
      <use x="68.603516" xlink:href="#DejaVuSans-61"/>
      <use x="129.882812" xlink:href="#DejaVuSans-6e"/>
      <use x="193.261719" xlink:href="#DejaVuSans-64"/>
      <use x="256.738281" xlink:href="#DejaVuSans-77"/>
      <use x="338.525391" xlink:href="#DejaVuSans-69"/>
      <use x="366.308594" xlink:href="#DejaVuSans-64"/>
      <use x="429.785156" xlink:href="#DejaVuSans-74"/>
      <use x="468.994141" xlink:href="#DejaVuSans-68"/>
      <use x="532.373047" xlink:href="#DejaVuSans-20"/>
      <use x="564.160156" xlink:href="#DejaVuSans-28"/>
      <use x="603.173828" xlink:href="#DejaVuSans-6b"/>
      <use x="661.083984" xlink:href="#DejaVuSans-62"/>
      <use x="724.560547" xlink:href="#DejaVuSans-70"/>
      <use x="788.037109" xlink:href="#DejaVuSans-73"/>
      <use x="840.136719" xlink:href="#DejaVuSans-29"/>
     </g>
    </g>
   </g>
   <g id="LineCollection_1">
    <path clip-path="url(#p4afacb3a14)" d="M 212.197286 555.424398 
L 1120.745455 555.424398 
" style="fill:none;stroke:#000000;stroke-width:1.5;"/>
   </g>
   <g id="LineCollection_2">
    <path clip-path="url(#p4afacb3a14)" d="M 212.197286 547.510623 
L 1120.745455 547.510623 
" style="fill:none;stroke:#008000;stroke-width:1.5;"/>
   </g>
   <g id="line2d_15">
    <path clip-path="url(#p4afacb3a14)" d="M 212.197286 561.855938 
L 216.740027 562.907722 
L 221.282768 598.090374 
L 225.825509 573.028589 
L 230.36825 558.721991 
L 234.910991 555.841686 
L 239.453731 552.6142 
L 243.996472 555.798403 
L 248.539213 556.632385 
L 253.081954 554.365002 
L 257.624695 499.417176 
L 262.167436 466.231052 
L 266.710176 457.409559 
L 271.252917 505.394663 
L 275.795658 527.400225 
L 280.338399 502.941587 
L 284.88114 515.910643 
L 289.423881 597.955409 
L 293.966621 601.850735 
L 298.509362 592.510331 
L 303.052103 600.926935 
L 307.594844 598.925288 
L 312.137585 597.952153 
L 316.680326 601.68366 
L 321.223066 600.911579 
L 325.765807 524.767509 
L 330.308548 491.317041 
L 334.851289 448.652292 
L 339.39403 514.611275 
L 343.936771 602.445971 
L 348.479512 540.983601 
L 353.022252 491.308198 
L 357.564993 537.912488 
L 362.107734 597.439295 
L 366.650475 601.029324 
L 371.193216 493.720787 
L 375.735957 598.417079 
L 380.278697 600.196735 
L 384.821438 599.391612 
L 389.364179 406.557181 
L 393.90692 485.024949 
L 398.449661 484.620527 
L 402.992402 547.228221 
L 407.535142 520.388639 
L 412.077883 577.766273 
L 416.620624 598.827554 
L 421.163365 353.520725 
L 425.706106 527.666898 
L 430.248847 601.858651 
L 434.791588 595.367835 
L 439.334328 560.27454 
L 443.877069 602.792691 
L 448.41981 604.590028 
L 452.962551 601.458878 
L 462.048033 601.615251 
L 466.590773 601.933112 
L 471.133514 600.087367 
L 475.676255 603.358142 
L 480.218996 599.365083 
L 484.761737 570.299998 
L 489.304478 585.195779 
L 493.847218 596.469416 
L 498.389959 578.95395 
L 502.9327 567.054825 
L 507.475441 592.37444 
L 512.018182 593.124651 
L 516.560923 534.046943 
L 521.103664 487.956915 
L 525.646404 540.094242 
L 530.189145 529.733698 
L 534.731886 598.733082 
L 539.274627 534.471848 
L 543.817368 498.549686 
L 548.360109 598.042908 
L 552.902849 540.31949 
L 557.44559 476.030334 
L 561.988331 547.166791 
L 566.531072 544.506614 
L 571.073813 541.576979 
L 575.616554 538.448153 
L 580.159294 601.490988 
L 584.702035 600.849678 
L 589.244776 600.817568 
L 593.787517 539.191846 
L 598.330258 443.440838 
L 602.872999 494.001884 
L 607.415739 549.827435 
L 611.95848 551.506566 
L 616.501221 601.014428 
L 621.043962 550.372409 
L 625.586703 495.256116 
L 630.129444 565.367783 
L 634.672185 523.037649 
L 639.214925 602.545569 
L 643.757666 601.372783 
L 648.300407 582.002262 
L 652.843148 570.110116 
L 657.385889 545.774344 
L 661.92863 555.741628 
L 666.47137 554.241671 
L 671.014111 556.229355 
L 675.556852 552.907396 
L 680.099593 604.104625 
L 684.642334 599.588933 
L 689.185075 594.201567 
L 693.727815 483.077753 
L 698.270556 602.435735 
L 702.813297 597.96286 
L 707.356038 602.29798 
L 711.898779 599.600572 
L 716.44152 600.389873 
L 720.984261 567.277749 
L 725.527001 602.951389 
L 730.069742 111.109091 
L 734.612483 587.532042 
L 739.155224 443.977901 
L 743.697965 547.487449 
L 748.240706 600.952532 
L 752.783446 601.787446 
L 757.326187 545.855784 
L 761.868928 592.732323 
L 766.411669 490.782308 
L 770.95441 530.718466 
L 775.497151 539.221165 
L 780.039891 599.058855 
L 784.582632 600.85294 
L 789.125373 597.626846 
L 793.668114 590.110308 
L 798.210855 602.875996 
L 802.753596 601.545439 
L 807.296336 551.104934 
L 811.839077 492.584305 
L 816.381818 488.40695 
L 820.924559 515.282365 
L 825.4673 480.163473 
L 830.010041 544.976194 
L 834.552782 546.924789 
L 839.095522 543.65914 
L 843.638263 603.22457 
L 848.181004 551.857936 
L 852.723745 601.294593 
L 857.266486 602.999788 
L 861.809227 601.485407 
L 866.351967 602.115544 
L 870.894708 604.499744 
L 875.437449 602.406881 
L 879.98019 549.408117 
L 884.522931 603.770942 
L 889.065672 602.982568 
L 893.608412 551.274333 
L 898.151153 604.107887 
L 902.693894 498.791228 
L 907.236635 605.290909 
L 911.779376 551.165898 
L 916.322117 537.415447 
L 920.864858 544.857984 
L 925.407598 602.378488 
L 929.950339 578.555108 
L 934.49308 454.231869 
L 943.578562 469.60421 
L 948.121303 374.656933 
L 952.664043 549.754832 
L 957.206784 602.108564 
L 961.749525 603.198978 
L 966.292266 600.369396 
L 970.835007 491.618615 
L 975.377748 537.216727 
L 979.920488 463.71096 
L 984.463229 507.037962 
L 989.00597 602.238409 
L 993.548711 603.542898 
L 998.091452 593.642164 
L 1002.634193 559.080811 
L 1007.176934 428.308175 
L 1011.719674 598.057798 
L 1016.262415 543.002469 
L 1020.805156 600.512272 
L 1025.347897 543.199329 
L 1029.890638 542.847493 
L 1034.433379 543.82854 
L 1038.976119 600.94881 
L 1043.51886 603.287864 
L 1048.061601 548.258598 
L 1052.604342 548.078031 
L 1057.147083 504.06597 
L 1061.689824 602.135093 
L 1066.232564 599.078865 
L 1070.775305 601.221996 
L 1075.318046 601.590586 
L 1079.860787 547.774127 
L 1084.403528 604.213527 
L 1088.946269 599.645714 
L 1093.489009 601.400238 
L 1098.03175 556.800392 
L 1102.574491 537.964609 
L 1107.117232 553.948008 
L 1111.659973 603.291126 
L 1116.202714 550.759611 
L 1116.202714 550.759611 
" style="fill:none;stroke:#1f77b4;stroke-linecap:square;stroke-width:1.5;"/>
   </g>
   <g id="line2d_16">
    <path clip-path="url(#p4afacb3a14)" d="M 207.654545 492.91375 
L 212.197286 504.280463 
L 216.740027 512.467131 
L 221.282768 525.637238 
L 225.825509 529.237932 
L 230.36825 528.648848 
L 234.910991 527.87583 
L 239.453731 526.786684 
L 243.996472 527.041645 
L 248.539213 527.478409 
L 253.081954 527.46448 
L 257.624695 515.222049 
L 262.167436 499.630163 
L 266.710176 487.291533 
L 271.252917 490.396666 
L 275.795658 497.129491 
L 280.338399 496.020003 
L 284.88114 498.450415 
L 289.423881 517.779551 
L 293.966621 531.928276 
L 298.509362 539.000494 
L 303.052103 546.621063 
L 307.594844 551.215474 
L 312.137585 554.171909 
L 316.680326 557.74309 
L 321.223066 559.896952 
L 325.765807 543.484518 
L 330.308548 524.089416 
L 334.851289 503.693333 
L 339.39403 503.623282 
L 343.936771 525.669487 
L 348.479512 529.869524 
L 353.022252 516.607591 
L 357.564993 520.26529 
L 362.107734 536.206111 
L 366.650475 548.350741 
L 371.193216 530.219888 
L 375.735957 543.600482 
L 380.278697 552.690914 
L 384.821438 558.532028 
L 389.364179 518.03915 
L 393.90692 510.449396 
L 398.449661 505.638736 
L 402.992402 517.395018 
L 407.535142 518.298113 
L 416.620624 545.986108 
L 421.163365 497.579337 
L 425.706106 508.04219 
L 430.248847 531.102532 
L 434.791588 544.172081 
L 439.334328 544.396598 
L 443.877069 554.502257 
L 448.41981 561.507967 
L 452.962551 565.605866 
L 457.505292 568.161637 
L 462.048033 570.376518 
L 466.590773 572.272952 
L 471.133514 572.914031 
L 475.676255 574.879935 
L 480.218996 575.469516 
L 484.761737 568.805685 
L 489.304478 568.737367 
L 493.847218 571.718725 
L 498.389959 569.131599 
L 502.9327 565.371096 
L 507.475441 569.51129 
L 512.018182 571.955981 
L 516.560923 559.727433 
L 521.103664 541.382048 
L 525.646404 542.390247 
L 530.189145 540.431137 
L 534.731886 555.400616 
L 539.274627 549.631781 
L 543.817368 537.681606 
L 548.360109 553.47018 
L 552.902849 549.823464 
L 557.44559 532.45608 
L 561.988331 538.30613 
L 566.531072 541.18415 
L 571.073813 542.204223 
L 575.616554 542.065031 
L 580.159294 556.645062 
L 584.702035 565.580162 
L 589.244776 571.464733 
L 593.787517 560.584515 
L 598.330258 531.278766 
L 602.872999 525.240205 
L 607.415739 534.601949 
L 611.95848 540.519553 
L 616.501221 555.720483 
L 621.043962 553.117989 
L 625.586703 538.647411 
L 630.129444 546.191339 
L 634.672185 540.885957 
L 639.214925 556.162654 
L 643.757666 565.336249 
L 648.300407 566.484353 
L 652.843148 564.527883 
L 657.385889 557.782081 
L 661.92863 556.082969 
L 666.47137 554.748931 
L 671.014111 554.484012 
L 675.556852 553.505928 
L 680.099593 564.956856 
L 684.642334 571.039443 
L 689.185075 573.550708 
L 693.727815 549.182878 
L 698.270556 562.421823 
L 702.813297 569.449564 
L 707.356038 574.848032 
L 711.898779 577.639081 
L 716.44152 579.69778 
L 720.984261 573.464687 
L 725.527001 578.097775 
L 730.069742 465.557564 
L 734.612483 510.570479 
L 739.155224 502.414421 
L 743.697965 520.389748 
L 748.240706 542.923191 
L 752.783446 556.842432 
L 757.326187 552.924146 
L 761.868928 561.056706 
L 766.411669 543.461395 
L 770.95441 541.4266 
L 775.497151 542.070343 
L 780.039891 555.679859 
L 784.582632 564.444478 
L 789.125373 569.303831 
L 793.668114 570.776763 
L 798.210855 574.696578 
L 802.753596 577.058234 
L 807.296336 567.419717 
L 811.839077 548.50262 
L 816.381818 535.90811 
L 820.924559 534.180942 
L 825.4673 524.972813 
L 830.010041 533.808658 
L 834.552782 539.50791 
L 839.095522 542.005482 
L 843.638263 556.961633 
L 848.181004 554.428776 
L 852.723745 564.06713 
L 857.266486 570.491758 
L 861.809227 574.160514 
L 866.351967 576.778004 
L 870.894708 579.107158 
L 875.437449 580.328648 
L 879.98019 569.173814 
L 884.522931 575.077913 
L 889.065672 578.533484 
L 893.608412 569.014663 
L 898.151153 575.464573 
L 902.693894 555.514019 
L 907.236635 567.678389 
L 911.779376 562.798801 
L 916.322117 556.766102 
L 920.864858 554.748804 
L 925.407598 566.462613 
L 929.950339 568.18913 
L 934.49308 541.255396 
L 939.035821 526.326804 
L 943.578562 518.736775 
L 948.121303 491.5661 
L 952.664043 515.588347 
L 957.206784 541.657089 
L 961.749525 557.271801 
L 966.292266 566.038121 
L 970.835007 546.126849 
L 975.377748 544.758811 
L 979.920488 527.10186 
L 984.463229 526.297939 
L 989.00597 547.58213 
L 993.548711 560.410895 
L 998.091452 565.843639 
L 1002.634193 561.219834 
L 1007.176934 528.49011 
L 1011.719674 548.030854 
L 1016.262415 547.00122 
L 1020.805156 559.468076 
L 1025.347897 553.7958 
L 1029.890638 550.446331 
L 1034.433379 548.704156 
L 1038.976119 560.651993 
L 1043.51886 568.428729 
L 1048.061601 560.602068 
L 1052.604342 555.971862 
L 1057.147083 543.333248 
L 1061.689824 558.108447 
L 1066.232564 566.202259 
L 1070.775305 571.690996 
L 1075.318046 575.156402 
L 1079.860787 565.132073 
L 1084.403528 572.234756 
L 1088.946269 575.54232 
L 1093.489009 578.132574 
L 1098.03175 569.653997 
L 1102.574491 560.470884 
L 1107.117232 558.741167 
L 1111.659973 568.978852 
L 1111.659973 568.978852 
" style="fill:none;stroke:#ff0000;stroke-linecap:square;stroke-width:1.5;"/>
   </g>
   <g id="patch_3">
    <path d="M 162 630 
L 162 86.4 
" style="fill:none;stroke:#000000;stroke-linecap:square;stroke-linejoin:miter;stroke-width:0.8;"/>
   </g>
   <g id="patch_4">
    <path d="M 1166.4 630 
L 1166.4 86.4 
" style="fill:none;stroke:#000000;stroke-linecap:square;stroke-linejoin:miter;stroke-width:0.8;"/>
   </g>
   <g id="patch_5">
    <path d="M 162 630 
L 1166.4 630 
" style="fill:none;stroke:#000000;stroke-linecap:square;stroke-linejoin:miter;stroke-width:0.8;"/>
   </g>
   <g id="patch_6">
    <path d="M 162 86.4 
L 1166.4 86.4 
" style="fill:none;stroke:#000000;stroke-linecap:square;stroke-linejoin:miter;stroke-width:0.8;"/>
   </g>
   <g id="legend_1">
    <g id="patch_7">
     <path d="M 907.071875 219.825 
L 1152.4 219.825 
Q 1156.4 219.825 1156.4 215.825 
L 1156.4 100.4 
Q 1156.4 96.4 1152.4 96.4 
L 907.071875 96.4 
Q 903.071875 96.4 903.071875 100.4 
L 903.071875 215.825 
Q 903.071875 219.825 907.071875 219.825 
z
" style="fill:#ffffff;opacity:0.8;stroke:#cccccc;stroke-linejoin:miter;"/>
    </g>
    <g id="line2d_17">
     <path d="M 911.071875 112.596875 
L 951.071875 112.596875 
" style="fill:none;stroke:#1f77b4;stroke-linecap:square;stroke-width:1.5;"/>
    </g>
    <g id="line2d_18"/>
    <g id="text_17">
     <!-- Real values -->
     <defs>
      <path d="M 44.390625 34.1875 
Q 47.5625 33.109375 50.5625 29.59375 
Q 53.5625 26.078125 56.59375 19.921875 
L 66.609375 0 
L 56 0 
L 46.6875 18.703125 
Q 43.0625 26.03125 39.671875 28.421875 
Q 36.28125 30.8125 30.421875 30.8125 
L 19.671875 30.8125 
L 19.671875 0 
L 9.8125 0 
L 9.8125 72.90625 
L 32.078125 72.90625 
Q 44.578125 72.90625 50.734375 67.671875 
Q 56.890625 62.453125 56.890625 51.90625 
Q 56.890625 45.015625 53.6875 40.46875 
Q 50.484375 35.9375 44.390625 34.1875 
z
M 19.671875 64.796875 
L 19.671875 38.921875 
L 32.078125 38.921875 
Q 39.203125 38.921875 42.84375 42.21875 
Q 46.484375 45.515625 46.484375 51.90625 
Q 46.484375 58.296875 42.84375 61.546875 
Q 39.203125 64.796875 32.078125 64.796875 
z
" id="DejaVuSans-52"/>
      <path d="M 9.421875 75.984375 
L 18.40625 75.984375 
L 18.40625 0 
L 9.421875 0 
z
" id="DejaVuSans-6c"/>
      <path d="M 2.984375 54.6875 
L 12.5 54.6875 
L 29.59375 8.796875 
L 46.6875 54.6875 
L 56.203125 54.6875 
L 35.6875 0 
L 23.484375 0 
z
" id="DejaVuSans-76"/>
     </defs>
     <g transform="translate(967.071875 119.596875)scale(0.2 -0.2)">
      <use xlink:href="#DejaVuSans-52"/>
      <use x="69.419922" xlink:href="#DejaVuSans-65"/>
      <use x="130.943359" xlink:href="#DejaVuSans-61"/>
      <use x="192.222656" xlink:href="#DejaVuSans-6c"/>
      <use x="220.005859" xlink:href="#DejaVuSans-20"/>
      <use x="251.792969" xlink:href="#DejaVuSans-76"/>
      <use x="310.972656" xlink:href="#DejaVuSans-61"/>
      <use x="372.251953" xlink:href="#DejaVuSans-6c"/>
      <use x="400.035156" xlink:href="#DejaVuSans-75"/>
      <use x="463.414062" xlink:href="#DejaVuSans-65"/>
      <use x="524.9375" xlink:href="#DejaVuSans-73"/>
     </g>
    </g>
    <g id="line2d_19">
     <path d="M 911.071875 141.953125 
L 951.071875 141.953125 
" style="fill:none;stroke:#ff0000;stroke-linecap:square;stroke-width:1.5;"/>
    </g>
    <g id="line2d_20"/>
    <g id="text_18">
     <!-- ARIMA Predictions -->
     <defs>
      <path d="M 34.1875 63.1875 
L 20.796875 26.90625 
L 47.609375 26.90625 
z
M 28.609375 72.90625 
L 39.796875 72.90625 
L 67.578125 0 
L 57.328125 0 
L 50.6875 18.703125 
L 17.828125 18.703125 
L 11.1875 0 
L 0.78125 0 
z
" id="DejaVuSans-41"/>
      <path d="M 9.8125 72.90625 
L 19.671875 72.90625 
L 19.671875 0 
L 9.8125 0 
z
" id="DejaVuSans-49"/>
      <path d="M 19.671875 64.796875 
L 19.671875 37.40625 
L 32.078125 37.40625 
Q 38.96875 37.40625 42.71875 40.96875 
Q 46.484375 44.53125 46.484375 51.125 
Q 46.484375 57.671875 42.71875 61.234375 
Q 38.96875 64.796875 32.078125 64.796875 
z
M 9.8125 72.90625 
L 32.078125 72.90625 
Q 44.34375 72.90625 50.609375 67.359375 
Q 56.890625 61.8125 56.890625 51.125 
Q 56.890625 40.328125 50.609375 34.8125 
Q 44.34375 29.296875 32.078125 29.296875 
L 19.671875 29.296875 
L 19.671875 0 
L 9.8125 0 
z
" id="DejaVuSans-50"/>
      <path d="M 41.109375 46.296875 
Q 39.59375 47.171875 37.8125 47.578125 
Q 36.03125 48 33.890625 48 
Q 26.265625 48 22.1875 43.046875 
Q 18.109375 38.09375 18.109375 28.8125 
L 18.109375 0 
L 9.078125 0 
L 9.078125 54.6875 
L 18.109375 54.6875 
L 18.109375 46.1875 
Q 20.953125 51.171875 25.484375 53.578125 
Q 30.03125 56 36.53125 56 
Q 37.453125 56 38.578125 55.875 
Q 39.703125 55.765625 41.0625 55.515625 
z
" id="DejaVuSans-72"/>
      <path d="M 48.78125 52.59375 
L 48.78125 44.1875 
Q 44.96875 46.296875 41.140625 47.34375 
Q 37.3125 48.390625 33.40625 48.390625 
Q 24.65625 48.390625 19.8125 42.84375 
Q 14.984375 37.3125 14.984375 27.296875 
Q 14.984375 17.28125 19.8125 11.734375 
Q 24.65625 6.203125 33.40625 6.203125 
Q 37.3125 6.203125 41.140625 7.25 
Q 44.96875 8.296875 48.78125 10.40625 
L 48.78125 2.09375 
Q 45.015625 0.34375 40.984375 -0.53125 
Q 36.96875 -1.421875 32.421875 -1.421875 
Q 20.0625 -1.421875 12.78125 6.34375 
Q 5.515625 14.109375 5.515625 27.296875 
Q 5.515625 40.671875 12.859375 48.328125 
Q 20.21875 56 33.015625 56 
Q 37.15625 56 41.109375 55.140625 
Q 45.0625 54.296875 48.78125 52.59375 
z
" id="DejaVuSans-63"/>
      <path d="M 30.609375 48.390625 
Q 23.390625 48.390625 19.1875 42.75 
Q 14.984375 37.109375 14.984375 27.296875 
Q 14.984375 17.484375 19.15625 11.84375 
Q 23.34375 6.203125 30.609375 6.203125 
Q 37.796875 6.203125 41.984375 11.859375 
Q 46.1875 17.53125 46.1875 27.296875 
Q 46.1875 37.015625 41.984375 42.703125 
Q 37.796875 48.390625 30.609375 48.390625 
z
M 30.609375 56 
Q 42.328125 56 49.015625 48.375 
Q 55.71875 40.765625 55.71875 27.296875 
Q 55.71875 13.875 49.015625 6.21875 
Q 42.328125 -1.421875 30.609375 -1.421875 
Q 18.84375 -1.421875 12.171875 6.21875 
Q 5.515625 13.875 5.515625 27.296875 
Q 5.515625 40.765625 12.171875 48.375 
Q 18.84375 56 30.609375 56 
z
" id="DejaVuSans-6f"/>
     </defs>
     <g transform="translate(967.071875 148.953125)scale(0.2 -0.2)">
      <use xlink:href="#DejaVuSans-41"/>
      <use x="68.408203" xlink:href="#DejaVuSans-52"/>
      <use x="137.890625" xlink:href="#DejaVuSans-49"/>
      <use x="167.382812" xlink:href="#DejaVuSans-4d"/>
      <use x="253.662109" xlink:href="#DejaVuSans-41"/>
      <use x="322.070312" xlink:href="#DejaVuSans-20"/>
      <use x="353.857422" xlink:href="#DejaVuSans-50"/>
      <use x="414.144531" xlink:href="#DejaVuSans-72"/>
      <use x="455.226562" xlink:href="#DejaVuSans-65"/>
      <use x="516.75" xlink:href="#DejaVuSans-64"/>
      <use x="580.226562" xlink:href="#DejaVuSans-69"/>
      <use x="608.009766" xlink:href="#DejaVuSans-63"/>
      <use x="662.990234" xlink:href="#DejaVuSans-74"/>
      <use x="702.199219" xlink:href="#DejaVuSans-69"/>
      <use x="729.982422" xlink:href="#DejaVuSans-6f"/>
      <use x="791.164062" xlink:href="#DejaVuSans-6e"/>
      <use x="854.542969" xlink:href="#DejaVuSans-73"/>
     </g>
    </g>
    <g id="line2d_21">
     <path d="M 911.071875 171.309375 
L 951.071875 171.309375 
" style="fill:none;stroke:#000000;stroke-width:1.5;"/>
    </g>
    <g id="text_19">
     <!-- Real mean -->
     <defs>
      <path d="M 52 44.1875 
Q 55.375 50.25 60.0625 53.125 
Q 64.75 56 71.09375 56 
Q 79.640625 56 84.28125 50.015625 
Q 88.921875 44.046875 88.921875 33.015625 
L 88.921875 0 
L 79.890625 0 
L 79.890625 32.71875 
Q 79.890625 40.578125 77.09375 44.375 
Q 74.3125 48.1875 68.609375 48.1875 
Q 61.625 48.1875 57.5625 43.546875 
Q 53.515625 38.921875 53.515625 30.90625 
L 53.515625 0 
L 44.484375 0 
L 44.484375 32.71875 
Q 44.484375 40.625 41.703125 44.40625 
Q 38.921875 48.1875 33.109375 48.1875 
Q 26.21875 48.1875 22.15625 43.53125 
Q 18.109375 38.875 18.109375 30.90625 
L 18.109375 0 
L 9.078125 0 
L 9.078125 54.6875 
L 18.109375 54.6875 
L 18.109375 46.1875 
Q 21.1875 51.21875 25.484375 53.609375 
Q 29.78125 56 35.6875 56 
Q 41.65625 56 45.828125 52.96875 
Q 50 49.953125 52 44.1875 
z
" id="DejaVuSans-6d"/>
     </defs>
     <g transform="translate(967.071875 178.309375)scale(0.2 -0.2)">
      <use xlink:href="#DejaVuSans-52"/>
      <use x="69.419922" xlink:href="#DejaVuSans-65"/>
      <use x="130.943359" xlink:href="#DejaVuSans-61"/>
      <use x="192.222656" xlink:href="#DejaVuSans-6c"/>
      <use x="220.005859" xlink:href="#DejaVuSans-20"/>
      <use x="251.792969" xlink:href="#DejaVuSans-6d"/>
      <use x="349.205078" xlink:href="#DejaVuSans-65"/>
      <use x="410.728516" xlink:href="#DejaVuSans-61"/>
      <use x="472.007812" xlink:href="#DejaVuSans-6e"/>
     </g>
    </g>
    <g id="line2d_22">
     <path d="M 911.071875 200.665625 
L 951.071875 200.665625 
" style="fill:none;stroke:#008000;stroke-width:1.5;"/>
    </g>
    <g id="text_20">
     <!-- Prediction mean -->
     <g transform="translate(967.071875 207.665625)scale(0.2 -0.2)">
      <use xlink:href="#DejaVuSans-50"/>
      <use x="60.287109" xlink:href="#DejaVuSans-72"/>
      <use x="101.369141" xlink:href="#DejaVuSans-65"/>
      <use x="162.892578" xlink:href="#DejaVuSans-64"/>
      <use x="226.369141" xlink:href="#DejaVuSans-69"/>
      <use x="254.152344" xlink:href="#DejaVuSans-63"/>
      <use x="309.132812" xlink:href="#DejaVuSans-74"/>
      <use x="348.341797" xlink:href="#DejaVuSans-69"/>
      <use x="376.125" xlink:href="#DejaVuSans-6f"/>
      <use x="437.306641" xlink:href="#DejaVuSans-6e"/>
      <use x="500.685547" xlink:href="#DejaVuSans-20"/>
      <use x="532.472656" xlink:href="#DejaVuSans-6d"/>
      <use x="629.884766" xlink:href="#DejaVuSans-65"/>
      <use x="691.408203" xlink:href="#DejaVuSans-61"/>
      <use x="752.6875" xlink:href="#DejaVuSans-6e"/>
     </g>
    </g>
   </g>
  </g>
 </g>
 <defs>
  <clipPath id="p4afacb3a14">
   <rect height="543.6" width="1004.4" x="162" y="86.4"/>
  </clipPath>
 </defs>
</svg>
