<?xml version="1.0" encoding="utf-8" standalone="no"?>
<!DOCTYPE svg PUBLIC "-//W3C//DTD SVG 1.1//EN"
  "http://www.w3.org/Graphics/SVG/1.1/DTD/svg11.dtd">
<!-- Created with matplotlib (http://matplotlib.org/) -->
<svg height="720pt" version="1.1" viewBox="0 0 1296 720" width="1296pt" xmlns="http://www.w3.org/2000/svg" xmlns:xlink="http://www.w3.org/1999/xlink">
 <defs>
  <style type="text/css">
*{stroke-linecap:butt;stroke-linejoin:round;}
  </style>
 </defs>
 <g id="figure_1">
  <g id="patch_1">
   <path d="M 0 720 
L 1296 720 
L 1296 0 
L 0 0 
z
" style="fill:#ffffff;"/>
  </g>
  <g id="axes_1">
   <g id="patch_2">
    <path d="M 162 630 
L 1166.4 630 
L 1166.4 86.4 
L 162 86.4 
z
" style="fill:#ffffff;"/>
   </g>
   <g id="matplotlib.axis_1">
    <g id="xtick_1">
     <g id="line2d_1">
      <defs>
       <path d="M 0 0 
L 0 3.5 
" id="m743e62d799" style="stroke:#000000;stroke-width:0.8;"/>
      </defs>
      <g>
       <use style="stroke:#000000;stroke-width:0.8;" x="207.654545" xlink:href="#m743e62d799" y="630"/>
      </g>
     </g>
     <g id="text_1">
      <!-- 0 -->
      <defs>
       <path d="M 31.78125 66.40625 
Q 24.171875 66.40625 20.328125 58.90625 
Q 16.5 51.421875 16.5 36.375 
Q 16.5 21.390625 20.328125 13.890625 
Q 24.171875 6.390625 31.78125 6.390625 
Q 39.453125 6.390625 43.28125 13.890625 
Q 47.125 21.390625 47.125 36.375 
Q 47.125 51.421875 43.28125 58.90625 
Q 39.453125 66.40625 31.78125 66.40625 
z
M 31.78125 74.21875 
Q 44.046875 74.21875 50.515625 64.515625 
Q 56.984375 54.828125 56.984375 36.375 
Q 56.984375 17.96875 50.515625 8.265625 
Q 44.046875 -1.421875 31.78125 -1.421875 
Q 19.53125 -1.421875 13.0625 8.265625 
Q 6.59375 17.96875 6.59375 36.375 
Q 6.59375 54.828125 13.0625 64.515625 
Q 19.53125 74.21875 31.78125 74.21875 
z
" id="DejaVuSans-30"/>
      </defs>
      <g transform="translate(201.292045 652.196875)scale(0.2 -0.2)">
       <use xlink:href="#DejaVuSans-30"/>
      </g>
     </g>
    </g>
    <g id="xtick_2">
     <g id="line2d_2">
      <g>
       <use style="stroke:#000000;stroke-width:0.8;" x="322.943802" xlink:href="#m743e62d799" y="630"/>
      </g>
     </g>
     <g id="text_2">
      <!-- 25 -->
      <defs>
       <path d="M 19.1875 8.296875 
L 53.609375 8.296875 
L 53.609375 0 
L 7.328125 0 
L 7.328125 8.296875 
Q 12.9375 14.109375 22.625 23.890625 
Q 32.328125 33.6875 34.8125 36.53125 
Q 39.546875 41.84375 41.421875 45.53125 
Q 43.3125 49.21875 43.3125 52.78125 
Q 43.3125 58.59375 39.234375 62.25 
Q 35.15625 65.921875 28.609375 65.921875 
Q 23.96875 65.921875 18.8125 64.3125 
Q 13.671875 62.703125 7.8125 59.421875 
L 7.8125 69.390625 
Q 13.765625 71.78125 18.9375 73 
Q 24.125 74.21875 28.421875 74.21875 
Q 39.75 74.21875 46.484375 68.546875 
Q 53.21875 62.890625 53.21875 53.421875 
Q 53.21875 48.921875 51.53125 44.890625 
Q 49.859375 40.875 45.40625 35.40625 
Q 44.1875 33.984375 37.640625 27.21875 
Q 31.109375 20.453125 19.1875 8.296875 
z
" id="DejaVuSans-32"/>
       <path d="M 10.796875 72.90625 
L 49.515625 72.90625 
L 49.515625 64.59375 
L 19.828125 64.59375 
L 19.828125 46.734375 
Q 21.96875 47.46875 24.109375 47.828125 
Q 26.265625 48.1875 28.421875 48.1875 
Q 40.625 48.1875 47.75 41.5 
Q 54.890625 34.8125 54.890625 23.390625 
Q 54.890625 11.625 47.5625 5.09375 
Q 40.234375 -1.421875 26.90625 -1.421875 
Q 22.3125 -1.421875 17.546875 -0.640625 
Q 12.796875 0.140625 7.71875 1.703125 
L 7.71875 11.625 
Q 12.109375 9.234375 16.796875 8.0625 
Q 21.484375 6.890625 26.703125 6.890625 
Q 35.15625 6.890625 40.078125 11.328125 
Q 45.015625 15.765625 45.015625 23.390625 
Q 45.015625 31 40.078125 35.4375 
Q 35.15625 39.890625 26.703125 39.890625 
Q 22.75 39.890625 18.8125 39.015625 
Q 14.890625 38.140625 10.796875 36.28125 
z
" id="DejaVuSans-35"/>
      </defs>
      <g transform="translate(310.218802 652.196875)scale(0.2 -0.2)">
       <use xlink:href="#DejaVuSans-32"/>
       <use x="63.623047" xlink:href="#DejaVuSans-35"/>
      </g>
     </g>
    </g>
    <g id="xtick_3">
     <g id="line2d_3">
      <g>
       <use style="stroke:#000000;stroke-width:0.8;" x="438.233058" xlink:href="#m743e62d799" y="630"/>
      </g>
     </g>
     <g id="text_3">
      <!-- 50 -->
      <g transform="translate(425.508058 652.196875)scale(0.2 -0.2)">
       <use xlink:href="#DejaVuSans-35"/>
       <use x="63.623047" xlink:href="#DejaVuSans-30"/>
      </g>
     </g>
    </g>
    <g id="xtick_4">
     <g id="line2d_4">
      <g>
       <use style="stroke:#000000;stroke-width:0.8;" x="553.522314" xlink:href="#m743e62d799" y="630"/>
      </g>
     </g>
     <g id="text_4">
      <!-- 75 -->
      <defs>
       <path d="M 8.203125 72.90625 
L 55.078125 72.90625 
L 55.078125 68.703125 
L 28.609375 0 
L 18.3125 0 
L 43.21875 64.59375 
L 8.203125 64.59375 
z
" id="DejaVuSans-37"/>
      </defs>
      <g transform="translate(540.797314 652.196875)scale(0.2 -0.2)">
       <use xlink:href="#DejaVuSans-37"/>
       <use x="63.623047" xlink:href="#DejaVuSans-35"/>
      </g>
     </g>
    </g>
    <g id="xtick_5">
     <g id="line2d_5">
      <g>
       <use style="stroke:#000000;stroke-width:0.8;" x="668.81157" xlink:href="#m743e62d799" y="630"/>
      </g>
     </g>
     <g id="text_5">
      <!-- 100 -->
      <defs>
       <path d="M 12.40625 8.296875 
L 28.515625 8.296875 
L 28.515625 63.921875 
L 10.984375 60.40625 
L 10.984375 69.390625 
L 28.421875 72.90625 
L 38.28125 72.90625 
L 38.28125 8.296875 
L 54.390625 8.296875 
L 54.390625 0 
L 12.40625 0 
z
" id="DejaVuSans-31"/>
      </defs>
      <g transform="translate(649.72407 652.196875)scale(0.2 -0.2)">
       <use xlink:href="#DejaVuSans-31"/>
       <use x="63.623047" xlink:href="#DejaVuSans-30"/>
       <use x="127.246094" xlink:href="#DejaVuSans-30"/>
      </g>
     </g>
    </g>
    <g id="xtick_6">
     <g id="line2d_6">
      <g>
       <use style="stroke:#000000;stroke-width:0.8;" x="784.100826" xlink:href="#m743e62d799" y="630"/>
      </g>
     </g>
     <g id="text_6">
      <!-- 125 -->
      <g transform="translate(765.013326 652.196875)scale(0.2 -0.2)">
       <use xlink:href="#DejaVuSans-31"/>
       <use x="63.623047" xlink:href="#DejaVuSans-32"/>
       <use x="127.246094" xlink:href="#DejaVuSans-35"/>
      </g>
     </g>
    </g>
    <g id="xtick_7">
     <g id="line2d_7">
      <g>
       <use style="stroke:#000000;stroke-width:0.8;" x="899.390083" xlink:href="#m743e62d799" y="630"/>
      </g>
     </g>
     <g id="text_7">
      <!-- 150 -->
      <g transform="translate(880.302583 652.196875)scale(0.2 -0.2)">
       <use xlink:href="#DejaVuSans-31"/>
       <use x="63.623047" xlink:href="#DejaVuSans-35"/>
       <use x="127.246094" xlink:href="#DejaVuSans-30"/>
      </g>
     </g>
    </g>
    <g id="xtick_8">
     <g id="line2d_8">
      <g>
       <use style="stroke:#000000;stroke-width:0.8;" x="1014.679339" xlink:href="#m743e62d799" y="630"/>
      </g>
     </g>
     <g id="text_8">
      <!-- 175 -->
      <g transform="translate(995.591839 652.196875)scale(0.2 -0.2)">
       <use xlink:href="#DejaVuSans-31"/>
       <use x="63.623047" xlink:href="#DejaVuSans-37"/>
       <use x="127.246094" xlink:href="#DejaVuSans-35"/>
      </g>
     </g>
    </g>
    <g id="xtick_9">
     <g id="line2d_9">
      <g>
       <use style="stroke:#000000;stroke-width:0.8;" x="1129.968595" xlink:href="#m743e62d799" y="630"/>
      </g>
     </g>
     <g id="text_9">
      <!-- 200 -->
      <g transform="translate(1110.881095 652.196875)scale(0.2 -0.2)">
       <use xlink:href="#DejaVuSans-32"/>
       <use x="63.623047" xlink:href="#DejaVuSans-30"/>
       <use x="127.246094" xlink:href="#DejaVuSans-30"/>
      </g>
     </g>
    </g>
    <g id="text_10">
     <!-- 15-Minute Steps -->
     <defs>
      <path d="M 4.890625 31.390625 
L 31.203125 31.390625 
L 31.203125 23.390625 
L 4.890625 23.390625 
z
" id="DejaVuSans-2d"/>
      <path d="M 9.8125 72.90625 
L 24.515625 72.90625 
L 43.109375 23.296875 
L 61.8125 72.90625 
L 76.515625 72.90625 
L 76.515625 0 
L 66.890625 0 
L 66.890625 64.015625 
L 48.09375 14.015625 
L 38.1875 14.015625 
L 19.390625 64.015625 
L 19.390625 0 
L 9.8125 0 
z
" id="DejaVuSans-4d"/>
      <path d="M 9.421875 54.6875 
L 18.40625 54.6875 
L 18.40625 0 
L 9.421875 0 
z
M 9.421875 75.984375 
L 18.40625 75.984375 
L 18.40625 64.59375 
L 9.421875 64.59375 
z
" id="DejaVuSans-69"/>
      <path d="M 54.890625 33.015625 
L 54.890625 0 
L 45.90625 0 
L 45.90625 32.71875 
Q 45.90625 40.484375 42.875 44.328125 
Q 39.84375 48.1875 33.796875 48.1875 
Q 26.515625 48.1875 22.3125 43.546875 
Q 18.109375 38.921875 18.109375 30.90625 
L 18.109375 0 
L 9.078125 0 
L 9.078125 54.6875 
L 18.109375 54.6875 
L 18.109375 46.1875 
Q 21.34375 51.125 25.703125 53.5625 
Q 30.078125 56 35.796875 56 
Q 45.21875 56 50.046875 50.171875 
Q 54.890625 44.34375 54.890625 33.015625 
z
" id="DejaVuSans-6e"/>
      <path d="M 8.5 21.578125 
L 8.5 54.6875 
L 17.484375 54.6875 
L 17.484375 21.921875 
Q 17.484375 14.15625 20.5 10.265625 
Q 23.53125 6.390625 29.59375 6.390625 
Q 36.859375 6.390625 41.078125 11.03125 
Q 45.3125 15.671875 45.3125 23.6875 
L 45.3125 54.6875 
L 54.296875 54.6875 
L 54.296875 0 
L 45.3125 0 
L 45.3125 8.40625 
Q 42.046875 3.421875 37.71875 1 
Q 33.40625 -1.421875 27.6875 -1.421875 
Q 18.265625 -1.421875 13.375 4.4375 
Q 8.5 10.296875 8.5 21.578125 
z
M 31.109375 56 
z
" id="DejaVuSans-75"/>
      <path d="M 18.3125 70.21875 
L 18.3125 54.6875 
L 36.8125 54.6875 
L 36.8125 47.703125 
L 18.3125 47.703125 
L 18.3125 18.015625 
Q 18.3125 11.328125 20.140625 9.421875 
Q 21.96875 7.515625 27.59375 7.515625 
L 36.8125 7.515625 
L 36.8125 0 
L 27.59375 0 
Q 17.1875 0 13.234375 3.875 
Q 9.28125 7.765625 9.28125 18.015625 
L 9.28125 47.703125 
L 2.6875 47.703125 
L 2.6875 54.6875 
L 9.28125 54.6875 
L 9.28125 70.21875 
z
" id="DejaVuSans-74"/>
      <path d="M 56.203125 29.59375 
L 56.203125 25.203125 
L 14.890625 25.203125 
Q 15.484375 15.921875 20.484375 11.0625 
Q 25.484375 6.203125 34.421875 6.203125 
Q 39.59375 6.203125 44.453125 7.46875 
Q 49.3125 8.734375 54.109375 11.28125 
L 54.109375 2.78125 
Q 49.265625 0.734375 44.1875 -0.34375 
Q 39.109375 -1.421875 33.890625 -1.421875 
Q 20.796875 -1.421875 13.15625 6.1875 
Q 5.515625 13.8125 5.515625 26.8125 
Q 5.515625 40.234375 12.765625 48.109375 
Q 20.015625 56 32.328125 56 
Q 43.359375 56 49.78125 48.890625 
Q 56.203125 41.796875 56.203125 29.59375 
z
M 47.21875 32.234375 
Q 47.125 39.59375 43.09375 43.984375 
Q 39.0625 48.390625 32.421875 48.390625 
Q 24.90625 48.390625 20.390625 44.140625 
Q 15.875 39.890625 15.1875 32.171875 
z
" id="DejaVuSans-65"/>
      <path id="DejaVuSans-20"/>
      <path d="M 53.515625 70.515625 
L 53.515625 60.890625 
Q 47.90625 63.578125 42.921875 64.890625 
Q 37.9375 66.21875 33.296875 66.21875 
Q 25.25 66.21875 20.875 63.09375 
Q 16.5 59.96875 16.5 54.203125 
Q 16.5 49.359375 19.40625 46.890625 
Q 22.3125 44.4375 30.421875 42.921875 
L 36.375 41.703125 
Q 47.40625 39.59375 52.65625 34.296875 
Q 57.90625 29 57.90625 20.125 
Q 57.90625 9.515625 50.796875 4.046875 
Q 43.703125 -1.421875 29.984375 -1.421875 
Q 24.8125 -1.421875 18.96875 -0.25 
Q 13.140625 0.921875 6.890625 3.21875 
L 6.890625 13.375 
Q 12.890625 10.015625 18.65625 8.296875 
Q 24.421875 6.59375 29.984375 6.59375 
Q 38.421875 6.59375 43.015625 9.90625 
Q 47.609375 13.234375 47.609375 19.390625 
Q 47.609375 24.75 44.3125 27.78125 
Q 41.015625 30.8125 33.5 32.328125 
L 27.484375 33.5 
Q 16.453125 35.6875 11.515625 40.375 
Q 6.59375 45.0625 6.59375 53.421875 
Q 6.59375 63.09375 13.40625 68.65625 
Q 20.21875 74.21875 32.171875 74.21875 
Q 37.3125 74.21875 42.625 73.28125 
Q 47.953125 72.359375 53.515625 70.515625 
z
" id="DejaVuSans-53"/>
      <path d="M 18.109375 8.203125 
L 18.109375 -20.796875 
L 9.078125 -20.796875 
L 9.078125 54.6875 
L 18.109375 54.6875 
L 18.109375 46.390625 
Q 20.953125 51.265625 25.265625 53.625 
Q 29.59375 56 35.59375 56 
Q 45.5625 56 51.78125 48.09375 
Q 58.015625 40.1875 58.015625 27.296875 
Q 58.015625 14.40625 51.78125 6.484375 
Q 45.5625 -1.421875 35.59375 -1.421875 
Q 29.59375 -1.421875 25.265625 0.953125 
Q 20.953125 3.328125 18.109375 8.203125 
z
M 48.6875 27.296875 
Q 48.6875 37.203125 44.609375 42.84375 
Q 40.53125 48.484375 33.40625 48.484375 
Q 26.265625 48.484375 22.1875 42.84375 
Q 18.109375 37.203125 18.109375 27.296875 
Q 18.109375 17.390625 22.1875 11.75 
Q 26.265625 6.109375 33.40625 6.109375 
Q 40.53125 6.109375 44.609375 11.75 
Q 48.6875 17.390625 48.6875 27.296875 
z
" id="DejaVuSans-70"/>
      <path d="M 44.28125 53.078125 
L 44.28125 44.578125 
Q 40.484375 46.53125 36.375 47.5 
Q 32.28125 48.484375 27.875 48.484375 
Q 21.1875 48.484375 17.84375 46.4375 
Q 14.5 44.390625 14.5 40.28125 
Q 14.5 37.15625 16.890625 35.375 
Q 19.28125 33.59375 26.515625 31.984375 
L 29.59375 31.296875 
Q 39.15625 29.25 43.1875 25.515625 
Q 47.21875 21.78125 47.21875 15.09375 
Q 47.21875 7.46875 41.1875 3.015625 
Q 35.15625 -1.421875 24.609375 -1.421875 
Q 20.21875 -1.421875 15.453125 -0.5625 
Q 10.6875 0.296875 5.421875 2 
L 5.421875 11.28125 
Q 10.40625 8.6875 15.234375 7.390625 
Q 20.0625 6.109375 24.8125 6.109375 
Q 31.15625 6.109375 34.5625 8.28125 
Q 37.984375 10.453125 37.984375 14.40625 
Q 37.984375 18.0625 35.515625 20.015625 
Q 33.0625 21.96875 24.703125 23.78125 
L 21.578125 24.515625 
Q 13.234375 26.265625 9.515625 29.90625 
Q 5.8125 33.546875 5.8125 39.890625 
Q 5.8125 47.609375 11.28125 51.796875 
Q 16.75 56 26.8125 56 
Q 31.78125 56 36.171875 55.265625 
Q 40.578125 54.546875 44.28125 53.078125 
z
" id="DejaVuSans-73"/>
     </defs>
     <g transform="translate(582.554688 675.553125)scale(0.2 -0.2)">
      <use xlink:href="#DejaVuSans-31"/>
      <use x="63.623047" xlink:href="#DejaVuSans-35"/>
      <use x="127.246094" xlink:href="#DejaVuSans-2d"/>
      <use x="163.330078" xlink:href="#DejaVuSans-4d"/>
      <use x="249.609375" xlink:href="#DejaVuSans-69"/>
      <use x="277.392578" xlink:href="#DejaVuSans-6e"/>
      <use x="340.771484" xlink:href="#DejaVuSans-75"/>
      <use x="404.150391" xlink:href="#DejaVuSans-74"/>
      <use x="443.359375" xlink:href="#DejaVuSans-65"/>
      <use x="504.882812" xlink:href="#DejaVuSans-20"/>
      <use x="536.669922" xlink:href="#DejaVuSans-53"/>
      <use x="600.146484" xlink:href="#DejaVuSans-74"/>
      <use x="639.355469" xlink:href="#DejaVuSans-65"/>
      <use x="700.878906" xlink:href="#DejaVuSans-70"/>
      <use x="764.355469" xlink:href="#DejaVuSans-73"/>
     </g>
    </g>
   </g>
   <g id="matplotlib.axis_2">
    <g id="ytick_1">
     <g id="line2d_10">
      <defs>
       <path d="M 0 0 
L -3.5 0 
" id="m538648e8e8" style="stroke:#000000;stroke-width:0.8;"/>
      </defs>
      <g>
       <use style="stroke:#000000;stroke-width:0.8;" x="162" xlink:href="#m538648e8e8" y="605.767276"/>
      </g>
     </g>
     <g id="text_11">
      <!-- 0 -->
      <g transform="translate(142.275 613.365713)scale(0.2 -0.2)">
       <use xlink:href="#DejaVuSans-30"/>
      </g>
     </g>
    </g>
    <g id="ytick_2">
     <g id="line2d_11">
      <g>
       <use style="stroke:#000000;stroke-width:0.8;" x="162" xlink:href="#m538648e8e8" y="532.700005"/>
      </g>
     </g>
     <g id="text_12">
      <!-- 1000 -->
      <g transform="translate(104.1 540.298442)scale(0.2 -0.2)">
       <use xlink:href="#DejaVuSans-31"/>
       <use x="63.623047" xlink:href="#DejaVuSans-30"/>
       <use x="127.246094" xlink:href="#DejaVuSans-30"/>
       <use x="190.869141" xlink:href="#DejaVuSans-30"/>
      </g>
     </g>
    </g>
    <g id="ytick_3">
     <g id="line2d_12">
      <g>
       <use style="stroke:#000000;stroke-width:0.8;" x="162" xlink:href="#m538648e8e8" y="459.632734"/>
      </g>
     </g>
     <g id="text_13">
      <!-- 2000 -->
      <g transform="translate(104.1 467.231171)scale(0.2 -0.2)">
       <use xlink:href="#DejaVuSans-32"/>
       <use x="63.623047" xlink:href="#DejaVuSans-30"/>
       <use x="127.246094" xlink:href="#DejaVuSans-30"/>
       <use x="190.869141" xlink:href="#DejaVuSans-30"/>
      </g>
     </g>
    </g>
    <g id="ytick_4">
     <g id="line2d_13">
      <g>
       <use style="stroke:#000000;stroke-width:0.8;" x="162" xlink:href="#m538648e8e8" y="386.565463"/>
      </g>
     </g>
     <g id="text_14">
      <!-- 3000 -->
      <defs>
       <path d="M 40.578125 39.3125 
Q 47.65625 37.796875 51.625 33 
Q 55.609375 28.21875 55.609375 21.1875 
Q 55.609375 10.40625 48.1875 4.484375 
Q 40.765625 -1.421875 27.09375 -1.421875 
Q 22.515625 -1.421875 17.65625 -0.515625 
Q 12.796875 0.390625 7.625 2.203125 
L 7.625 11.71875 
Q 11.71875 9.328125 16.59375 8.109375 
Q 21.484375 6.890625 26.8125 6.890625 
Q 36.078125 6.890625 40.9375 10.546875 
Q 45.796875 14.203125 45.796875 21.1875 
Q 45.796875 27.640625 41.28125 31.265625 
Q 36.765625 34.90625 28.71875 34.90625 
L 20.21875 34.90625 
L 20.21875 43.015625 
L 29.109375 43.015625 
Q 36.375 43.015625 40.234375 45.921875 
Q 44.09375 48.828125 44.09375 54.296875 
Q 44.09375 59.90625 40.109375 62.90625 
Q 36.140625 65.921875 28.71875 65.921875 
Q 24.65625 65.921875 20.015625 65.03125 
Q 15.375 64.15625 9.8125 62.3125 
L 9.8125 71.09375 
Q 15.4375 72.65625 20.34375 73.4375 
Q 25.25 74.21875 29.59375 74.21875 
Q 40.828125 74.21875 47.359375 69.109375 
Q 53.90625 64.015625 53.90625 55.328125 
Q 53.90625 49.265625 50.4375 45.09375 
Q 46.96875 40.921875 40.578125 39.3125 
z
" id="DejaVuSans-33"/>
      </defs>
      <g transform="translate(104.1 394.1639)scale(0.2 -0.2)">
       <use xlink:href="#DejaVuSans-33"/>
       <use x="63.623047" xlink:href="#DejaVuSans-30"/>
       <use x="127.246094" xlink:href="#DejaVuSans-30"/>
       <use x="190.869141" xlink:href="#DejaVuSans-30"/>
      </g>
     </g>
    </g>
    <g id="ytick_5">
     <g id="line2d_14">
      <g>
       <use style="stroke:#000000;stroke-width:0.8;" x="162" xlink:href="#m538648e8e8" y="313.498192"/>
      </g>
     </g>
     <g id="text_15">
      <!-- 4000 -->
      <defs>
       <path d="M 37.796875 64.3125 
L 12.890625 25.390625 
L 37.796875 25.390625 
z
M 35.203125 72.90625 
L 47.609375 72.90625 
L 47.609375 25.390625 
L 58.015625 25.390625 
L 58.015625 17.1875 
L 47.609375 17.1875 
L 47.609375 0 
L 37.796875 0 
L 37.796875 17.1875 
L 4.890625 17.1875 
L 4.890625 26.703125 
z
" id="DejaVuSans-34"/>
      </defs>
      <g transform="translate(104.1 321.096629)scale(0.2 -0.2)">
       <use xlink:href="#DejaVuSans-34"/>
       <use x="63.623047" xlink:href="#DejaVuSans-30"/>
       <use x="127.246094" xlink:href="#DejaVuSans-30"/>
       <use x="190.869141" xlink:href="#DejaVuSans-30"/>
      </g>
     </g>
    </g>
    <g id="ytick_6">
     <g id="line2d_15">
      <g>
       <use style="stroke:#000000;stroke-width:0.8;" x="162" xlink:href="#m538648e8e8" y="240.43092"/>
      </g>
     </g>
     <g id="text_16">
      <!-- 5000 -->
      <g transform="translate(104.1 248.029358)scale(0.2 -0.2)">
       <use xlink:href="#DejaVuSans-35"/>
       <use x="63.623047" xlink:href="#DejaVuSans-30"/>
       <use x="127.246094" xlink:href="#DejaVuSans-30"/>
       <use x="190.869141" xlink:href="#DejaVuSans-30"/>
      </g>
     </g>
    </g>
    <g id="ytick_7">
     <g id="line2d_16">
      <g>
       <use style="stroke:#000000;stroke-width:0.8;" x="162" xlink:href="#m538648e8e8" y="167.363649"/>
      </g>
     </g>
     <g id="text_17">
      <!-- 6000 -->
      <defs>
       <path d="M 33.015625 40.375 
Q 26.375 40.375 22.484375 35.828125 
Q 18.609375 31.296875 18.609375 23.390625 
Q 18.609375 15.53125 22.484375 10.953125 
Q 26.375 6.390625 33.015625 6.390625 
Q 39.65625 6.390625 43.53125 10.953125 
Q 47.40625 15.53125 47.40625 23.390625 
Q 47.40625 31.296875 43.53125 35.828125 
Q 39.65625 40.375 33.015625 40.375 
z
M 52.59375 71.296875 
L 52.59375 62.3125 
Q 48.875 64.0625 45.09375 64.984375 
Q 41.3125 65.921875 37.59375 65.921875 
Q 27.828125 65.921875 22.671875 59.328125 
Q 17.53125 52.734375 16.796875 39.40625 
Q 19.671875 43.65625 24.015625 45.921875 
Q 28.375 48.1875 33.59375 48.1875 
Q 44.578125 48.1875 50.953125 41.515625 
Q 57.328125 34.859375 57.328125 23.390625 
Q 57.328125 12.15625 50.6875 5.359375 
Q 44.046875 -1.421875 33.015625 -1.421875 
Q 20.359375 -1.421875 13.671875 8.265625 
Q 6.984375 17.96875 6.984375 36.375 
Q 6.984375 53.65625 15.1875 63.9375 
Q 23.390625 74.21875 37.203125 74.21875 
Q 40.921875 74.21875 44.703125 73.484375 
Q 48.484375 72.75 52.59375 71.296875 
z
" id="DejaVuSans-36"/>
      </defs>
      <g transform="translate(104.1 174.962087)scale(0.2 -0.2)">
       <use xlink:href="#DejaVuSans-36"/>
       <use x="63.623047" xlink:href="#DejaVuSans-30"/>
       <use x="127.246094" xlink:href="#DejaVuSans-30"/>
       <use x="190.869141" xlink:href="#DejaVuSans-30"/>
      </g>
     </g>
    </g>
    <g id="ytick_8">
     <g id="line2d_17">
      <g>
       <use style="stroke:#000000;stroke-width:0.8;" x="162" xlink:href="#m538648e8e8" y="94.296378"/>
      </g>
     </g>
     <g id="text_18">
      <!-- 7000 -->
      <g transform="translate(104.1 101.894816)scale(0.2 -0.2)">
       <use xlink:href="#DejaVuSans-37"/>
       <use x="63.623047" xlink:href="#DejaVuSans-30"/>
       <use x="127.246094" xlink:href="#DejaVuSans-30"/>
       <use x="190.869141" xlink:href="#DejaVuSans-30"/>
      </g>
     </g>
    </g>
    <g id="text_19">
     <!-- Bandwidth (kbps) -->
     <defs>
      <path d="M 19.671875 34.8125 
L 19.671875 8.109375 
L 35.5 8.109375 
Q 43.453125 8.109375 47.28125 11.40625 
Q 51.125 14.703125 51.125 21.484375 
Q 51.125 28.328125 47.28125 31.5625 
Q 43.453125 34.8125 35.5 34.8125 
z
M 19.671875 64.796875 
L 19.671875 42.828125 
L 34.28125 42.828125 
Q 41.5 42.828125 45.03125 45.53125 
Q 48.578125 48.25 48.578125 53.8125 
Q 48.578125 59.328125 45.03125 62.0625 
Q 41.5 64.796875 34.28125 64.796875 
z
M 9.8125 72.90625 
L 35.015625 72.90625 
Q 46.296875 72.90625 52.390625 68.21875 
Q 58.5 63.53125 58.5 54.890625 
Q 58.5 48.1875 55.375 44.234375 
Q 52.25 40.28125 46.1875 39.3125 
Q 53.46875 37.75 57.5 32.78125 
Q 61.53125 27.828125 61.53125 20.40625 
Q 61.53125 10.640625 54.890625 5.3125 
Q 48.25 0 35.984375 0 
L 9.8125 0 
z
" id="DejaVuSans-42"/>
      <path d="M 34.28125 27.484375 
Q 23.390625 27.484375 19.1875 25 
Q 14.984375 22.515625 14.984375 16.5 
Q 14.984375 11.71875 18.140625 8.90625 
Q 21.296875 6.109375 26.703125 6.109375 
Q 34.1875 6.109375 38.703125 11.40625 
Q 43.21875 16.703125 43.21875 25.484375 
L 43.21875 27.484375 
z
M 52.203125 31.203125 
L 52.203125 0 
L 43.21875 0 
L 43.21875 8.296875 
Q 40.140625 3.328125 35.546875 0.953125 
Q 30.953125 -1.421875 24.3125 -1.421875 
Q 15.921875 -1.421875 10.953125 3.296875 
Q 6 8.015625 6 15.921875 
Q 6 25.140625 12.171875 29.828125 
Q 18.359375 34.515625 30.609375 34.515625 
L 43.21875 34.515625 
L 43.21875 35.40625 
Q 43.21875 41.609375 39.140625 45 
Q 35.0625 48.390625 27.6875 48.390625 
Q 23 48.390625 18.546875 47.265625 
Q 14.109375 46.140625 10.015625 43.890625 
L 10.015625 52.203125 
Q 14.9375 54.109375 19.578125 55.046875 
Q 24.21875 56 28.609375 56 
Q 40.484375 56 46.34375 49.84375 
Q 52.203125 43.703125 52.203125 31.203125 
z
" id="DejaVuSans-61"/>
      <path d="M 45.40625 46.390625 
L 45.40625 75.984375 
L 54.390625 75.984375 
L 54.390625 0 
L 45.40625 0 
L 45.40625 8.203125 
Q 42.578125 3.328125 38.25 0.953125 
Q 33.9375 -1.421875 27.875 -1.421875 
Q 17.96875 -1.421875 11.734375 6.484375 
Q 5.515625 14.40625 5.515625 27.296875 
Q 5.515625 40.1875 11.734375 48.09375 
Q 17.96875 56 27.875 56 
Q 33.9375 56 38.25 53.625 
Q 42.578125 51.265625 45.40625 46.390625 
z
M 14.796875 27.296875 
Q 14.796875 17.390625 18.875 11.75 
Q 22.953125 6.109375 30.078125 6.109375 
Q 37.203125 6.109375 41.296875 11.75 
Q 45.40625 17.390625 45.40625 27.296875 
Q 45.40625 37.203125 41.296875 42.84375 
Q 37.203125 48.484375 30.078125 48.484375 
Q 22.953125 48.484375 18.875 42.84375 
Q 14.796875 37.203125 14.796875 27.296875 
z
" id="DejaVuSans-64"/>
      <path d="M 4.203125 54.6875 
L 13.1875 54.6875 
L 24.421875 12.015625 
L 35.59375 54.6875 
L 46.1875 54.6875 
L 57.421875 12.015625 
L 68.609375 54.6875 
L 77.59375 54.6875 
L 63.28125 0 
L 52.6875 0 
L 40.921875 44.828125 
L 29.109375 0 
L 18.5 0 
z
" id="DejaVuSans-77"/>
      <path d="M 54.890625 33.015625 
L 54.890625 0 
L 45.90625 0 
L 45.90625 32.71875 
Q 45.90625 40.484375 42.875 44.328125 
Q 39.84375 48.1875 33.796875 48.1875 
Q 26.515625 48.1875 22.3125 43.546875 
Q 18.109375 38.921875 18.109375 30.90625 
L 18.109375 0 
L 9.078125 0 
L 9.078125 75.984375 
L 18.109375 75.984375 
L 18.109375 46.1875 
Q 21.34375 51.125 25.703125 53.5625 
Q 30.078125 56 35.796875 56 
Q 45.21875 56 50.046875 50.171875 
Q 54.890625 44.34375 54.890625 33.015625 
z
" id="DejaVuSans-68"/>
      <path d="M 31 75.875 
Q 24.46875 64.65625 21.28125 53.65625 
Q 18.109375 42.671875 18.109375 31.390625 
Q 18.109375 20.125 21.3125 9.0625 
Q 24.515625 -2 31 -13.1875 
L 23.1875 -13.1875 
Q 15.875 -1.703125 12.234375 9.375 
Q 8.59375 20.453125 8.59375 31.390625 
Q 8.59375 42.28125 12.203125 53.3125 
Q 15.828125 64.359375 23.1875 75.875 
z
" id="DejaVuSans-28"/>
      <path d="M 9.078125 75.984375 
L 18.109375 75.984375 
L 18.109375 31.109375 
L 44.921875 54.6875 
L 56.390625 54.6875 
L 27.390625 29.109375 
L 57.625 0 
L 45.90625 0 
L 18.109375 26.703125 
L 18.109375 0 
L 9.078125 0 
z
" id="DejaVuSans-6b"/>
      <path d="M 48.6875 27.296875 
Q 48.6875 37.203125 44.609375 42.84375 
Q 40.53125 48.484375 33.40625 48.484375 
Q 26.265625 48.484375 22.1875 42.84375 
Q 18.109375 37.203125 18.109375 27.296875 
Q 18.109375 17.390625 22.1875 11.75 
Q 26.265625 6.109375 33.40625 6.109375 
Q 40.53125 6.109375 44.609375 11.75 
Q 48.6875 17.390625 48.6875 27.296875 
z
M 18.109375 46.390625 
Q 20.953125 51.265625 25.265625 53.625 
Q 29.59375 56 35.59375 56 
Q 45.5625 56 51.78125 48.09375 
Q 58.015625 40.1875 58.015625 27.296875 
Q 58.015625 14.40625 51.78125 6.484375 
Q 45.5625 -1.421875 35.59375 -1.421875 
Q 29.59375 -1.421875 25.265625 0.953125 
Q 20.953125 3.328125 18.109375 8.203125 
L 18.109375 0 
L 9.078125 0 
L 9.078125 75.984375 
L 18.109375 75.984375 
z
" id="DejaVuSans-62"/>
      <path d="M 8.015625 75.875 
L 15.828125 75.875 
Q 23.140625 64.359375 26.78125 53.3125 
Q 30.421875 42.28125 30.421875 31.390625 
Q 30.421875 20.453125 26.78125 9.375 
Q 23.140625 -1.703125 15.828125 -13.1875 
L 8.015625 -13.1875 
Q 14.5 -2 17.703125 9.0625 
Q 20.90625 20.125 20.90625 31.390625 
Q 20.90625 42.671875 17.703125 53.65625 
Q 14.5 64.65625 8.015625 75.875 
z
" id="DejaVuSans-29"/>
     </defs>
     <g transform="translate(95.940625 446.115625)rotate(-90)scale(0.2 -0.2)">
      <use xlink:href="#DejaVuSans-42"/>
      <use x="68.603516" xlink:href="#DejaVuSans-61"/>
      <use x="129.882812" xlink:href="#DejaVuSans-6e"/>
      <use x="193.261719" xlink:href="#DejaVuSans-64"/>
      <use x="256.738281" xlink:href="#DejaVuSans-77"/>
      <use x="338.525391" xlink:href="#DejaVuSans-69"/>
      <use x="366.308594" xlink:href="#DejaVuSans-64"/>
      <use x="429.785156" xlink:href="#DejaVuSans-74"/>
      <use x="468.994141" xlink:href="#DejaVuSans-68"/>
      <use x="532.373047" xlink:href="#DejaVuSans-20"/>
      <use x="564.160156" xlink:href="#DejaVuSans-28"/>
      <use x="603.173828" xlink:href="#DejaVuSans-6b"/>
      <use x="661.083984" xlink:href="#DejaVuSans-62"/>
      <use x="724.560547" xlink:href="#DejaVuSans-70"/>
      <use x="788.037109" xlink:href="#DejaVuSans-73"/>
      <use x="840.136719" xlink:href="#DejaVuSans-29"/>
     </g>
    </g>
   </g>
   <g id="line2d_18">
    <path clip-path="url(#pcef68126aa)" d="M 207.654545 525.416584 
L 212.266116 535.373824 
L 216.877686 504.653745 
L 221.489256 544.654283 
L 226.100826 563.798054 
L 235.323967 569.723131 
L 239.935537 565.635163 
L 244.547107 565.080819 
L 249.158678 568.225675 
L 253.770248 583.710447 
L 258.381818 559.156428 
L 262.993388 564.064844 
L 267.604959 584.836499 
L 272.216529 563.522302 
L 276.828099 596.10771 
L 281.439669 581.400278 
L 286.05124 493.876133 
L 290.66281 508.185486 
L 295.27438 531.090473 
L 299.88595 529.979549 
L 304.497521 539.18482 
L 309.109091 544.668816 
L 313.720661 544.445069 
L 318.332231 548.528431 
L 322.943802 579.646351 
L 327.555372 560.031084 
L 332.166942 528.953567 
L 336.778512 590.432746 
L 341.390083 498.620203 
L 346.001653 590.256786 
L 350.613223 570.460164 
L 355.224793 581.13935 
L 359.836364 520.31199 
L 364.447934 532.250548 
L 369.059504 554.83017 
L 373.671074 529.266795 
L 378.282645 539.469506 
L 382.894215 548.744805 
L 387.505785 450.186219 
L 392.117355 570.285643 
L 396.728926 576.434861 
L 401.340496 564.132907 
L 405.952066 602.849797 
L 410.563636 542.23515 
L 415.175207 532.023261 
L 419.786777 404.723183 
L 424.398347 578.379593 
L 429.009917 507.022053 
L 433.621488 534.319942 
L 438.233058 583.608473 
L 442.844628 538.374522 
L 447.456198 545.643179 
L 452.067769 555.731835 
L 456.679339 559.193379 
L 461.290909 562.171391 
L 465.902479 564.374401 
L 470.51405 567.844942 
L 475.12562 566.023902 
L 479.73719 572.419304 
L 484.34876 603.681855 
L 488.960331 582.798385 
L 493.571901 571.225917 
L 498.183471 592.059484 
L 502.795041 603.417511 
L 507.406612 573.860115 
L 512.018182 576.224883 
L 516.629752 569.928316 
L 521.241322 531.208683 
L 525.852893 602.563036 
L 530.464463 590.838234 
L 535.076033 545.293722 
L 539.687603 584.610505 
L 544.299174 551.155884 
L 548.910744 543.562848 
L 553.522314 592.5038 
L 558.133884 527.021114 
L 562.745455 593.401589 
L 567.357025 601.13054 
L 571.968595 604.891911 
L 576.580165 600.719664 
L 581.191736 543.18158 
L 585.803306 556.546145 
L 590.414876 564.803297 
L 595.026446 575.912277 
L 599.638017 483.183168 
L 604.249587 562.171964 
L 608.861157 584.519021 
L 613.472727 590.434114 
L 618.084298 542.556337 
L 622.695868 601.935622 
L 627.307438 545.211621 
L 631.919008 579.005177 
L 636.530579 580.858686 
L 641.142149 541.036603 
L 645.753719 555.475716 
L 650.365289 584.110925 
L 654.97686 597.97687 
L 659.58843 589.00962 
L 664.2 605.290909 
L 668.81157 605.059357 
L 673.42314 603.331526 
L 678.034711 604.931982 
L 682.646281 551.133765 
L 687.257851 565.924422 
L 691.869421 576.947525 
L 696.480992 513.512847 
L 701.092562 549.925001 
L 705.704132 565.974932 
L 710.315702 567.458911 
L 714.927273 575.118446 
L 719.538843 576.889981 
L 724.150413 597.132961 
L 728.761983 571.082281 
L 733.373554 111.109091 
L 737.985124 498.361911 
L 742.596694 524.214935 
L 747.208264 567.950497 
L 751.819835 524.783181 
L 756.431405 543.043295 
L 761.042975 595.902872 
L 765.654545 561.561688 
L 770.266116 532.249844 
L 774.877686 590.82331 
L 779.489256 601.791045 
L 784.100826 545.228786 
L 788.712397 554.956664 
L 793.323967 566.240484 
L 797.935537 578.785932 
L 802.547107 566.440883 
L 807.158678 571.59363 
L 811.770248 582.998829 
L 816.381818 527.729269 
L 820.993388 539.476012 
L 825.604959 579.392961 
L 830.216529 543.232639 
L 834.828099 590.18218 
L 839.439669 595.41649 
L 844.05124 603.459478 
L 848.66281 541.20404 
L 853.27438 602.179484 
L 857.88595 553.813689 
L 862.497521 560.399996 
L 867.109091 567.633434 
L 871.720661 570.406928 
L 876.332231 570.330106 
L 880.943802 574.955523 
L 885.555372 578.182832 
L 890.166942 565.724102 
L 894.778512 571.646832 
L 899.390083 581.009378 
L 904.001653 565.793483 
L 908.613223 526.606566 
L 913.224793 553.276315 
L 917.836364 589.532727 
L 922.447934 578.762052 
L 927.059504 591.963929 
L 931.671074 555.644104 
L 936.282645 591.300813 
L 940.894215 484.319722 
L 945.505785 515.976693 
L 950.117355 537.199268 
L 954.728926 442.612175 
L 959.340496 558.085503 
L 963.952066 521.40292 
L 968.563636 541.672617 
L 973.175207 557.855527 
L 977.786777 529.697138 
L 982.398347 595.241759 
L 987.009917 517.300742 
L 991.621488 578.888601 
L 996.233058 529.490532 
L 1000.844628 545.573483 
L 1005.456198 566.972446 
L 1010.067769 602.782117 
L 1014.679339 465.956224 
L 1019.290909 535.951099 
L 1023.902479 600.186732 
L 1028.51405 548.487167 
L 1033.12562 590.979143 
L 1037.73719 595.162555 
L 1042.34876 598.963005 
L 1046.960331 549.530187 
L 1051.571901 557.118861 
L 1056.183471 588.54108 
L 1060.795041 594.750869 
L 1065.406612 550.966982 
L 1070.018182 544.324943 
L 1074.629752 559.885622 
L 1079.241322 564.554654 
L 1083.852893 568.876482 
L 1088.464463 581.543021 
L 1093.076033 561.138615 
L 1097.687603 572.129266 
L 1102.299174 573.295587 
L 1106.910744 587.82915 
L 1111.522314 574.35816 
L 1116.133884 599.07808 
L 1116.133884 599.07808 
" style="fill:none;stroke:#ff0000;stroke-linecap:square;stroke-width:1.5;"/>
   </g>
   <g id="line2d_19">
    <path clip-path="url(#pcef68126aa)" d="M 212.266116 586.580366 
L 216.877686 566.311979 
L 221.489256 598.504727 
L 226.100826 594.506385 
L 230.712397 589.629331 
L 235.323967 590.419049 
L 239.935537 586.88123 
L 244.547107 587.782133 
L 249.158678 589.633367 
L 253.770248 583.752935 
L 258.381818 575.415691 
L 262.993388 576.793507 
L 267.604959 589.357414 
L 272.216529 587.584118 
L 276.828099 596.908659 
L 281.439669 595.542442 
L 286.05124 544.351374 
L 290.66281 582.70024 
L 295.27438 589.739127 
L 299.88595 580.208726 
L 304.497521 585.854396 
L 309.109091 585.262497 
L 313.720661 582.78488 
L 318.332231 585.243174 
L 322.943802 581.523379 
L 327.555372 588.514791 
L 332.166942 561.654204 
L 336.778512 579.073787 
L 341.390083 541.147342 
L 346.001653 591.382932 
L 350.613223 582.556993 
L 355.224793 574.588877 
L 359.836364 554.599123 
L 364.447934 582.842536 
L 369.059504 559.574718 
L 373.671074 534.679545 
L 378.282645 583.81181 
L 382.894215 585.209354 
L 387.505785 487.850954 
L 392.117355 594.150504 
L 396.728926 596.066936 
L 401.340496 565.33365 
L 405.952066 602.449046 
L 410.563636 558.626716 
L 415.175207 573.492432 
L 419.786777 436.426596 
L 424.398347 544.638935 
L 429.009917 547.334382 
L 433.621488 588.230194 
L 438.233058 604.607795 
L 442.844628 562.40991 
L 447.456198 583.976653 
L 452.067769 586.578041 
L 456.679339 584.797602 
L 461.290909 584.797722 
L 465.902479 584.679095 
L 470.51405 585.80721 
L 475.12562 583.100619 
L 479.73719 586.970946 
L 484.34876 600.748322 
L 488.960331 577.274953 
L 493.571901 578.660797 
L 498.183471 594.276283 
L 502.795041 592.26381 
L 507.406612 571.575308 
L 512.018182 584.281054 
L 516.629752 591.4687 
L 521.241322 582.413027 
L 525.852893 571.769386 
L 530.464463 599.358246 
L 535.076033 550.07823 
L 539.687603 589.020384 
L 544.299174 590.788492 
L 548.910744 536.895957 
L 553.522314 593.151392 
L 558.133884 570.267995 
L 562.745455 562.3449 
L 567.357025 591.997649 
L 576.580165 593.791199 
L 581.191736 552.539098 
L 585.803306 585.168426 
L 590.414876 584.830193 
L 595.026446 591.050238 
L 599.638017 542.210107 
L 604.249587 595.234113 
L 608.861157 566.883067 
L 613.472727 588.458048 
L 618.084298 559.059556 
L 622.695868 597.999759 
L 627.307438 582.090143 
L 631.919008 556.529069 
L 636.530579 596.672585 
L 641.142149 544.840266 
L 645.753719 585.483686 
L 650.365289 595.186179 
L 654.97686 591.950542 
L 659.58843 601.444259 
L 664.2 583.866727 
L 668.81157 589.309479 
L 673.42314 587.336187 
L 678.034711 590.402297 
L 682.646281 558.037088 
L 687.257851 587.269912 
L 691.869421 587.60393 
L 696.480992 554.579691 
L 701.092562 527.948215 
L 705.704132 587.188527 
L 710.315702 582.473198 
L 714.927273 586.261314 
L 719.538843 584.362379 
L 724.150413 603.043628 
L 728.761983 565.86176 
L 733.373554 143.13045 
L 737.985124 490.083186 
L 742.596694 525.519765 
L 747.208264 551.555562 
L 751.819835 557.146245 
L 756.431405 584.386694 
L 761.042975 594.794051 
L 765.654545 561.045398 
L 770.266116 561.077573 
L 774.877686 579.813086 
L 779.489256 588.746123 
L 784.100826 554.284114 
L 788.712397 583.823937 
L 793.323967 586.491216 
L 797.935537 588.731484 
L 802.547107 577.891575 
L 807.158678 585.578608 
L 811.770248 598.181898 
L 816.381818 579.697816 
L 820.993388 596.960292 
L 825.604959 591.017418 
L 830.216529 582.490927 
L 834.828099 565.402016 
L 839.439669 589.405665 
L 844.05124 592.470959 
L 848.66281 554.037413 
L 853.27438 597.786597 
L 857.88595 559.075127 
L 862.497521 583.953744 
L 867.109091 585.678308 
L 871.720661 584.513298 
L 876.332231 583.644688 
L 880.943802 586.042514 
L 885.555372 596.694225 
L 890.166942 556.508986 
L 894.778512 585.341419 
L 899.390083 597.552114 
L 904.001653 557.234134 
L 908.613223 561.876249 
L 913.224793 532.678199 
L 917.836364 596.300712 
L 922.447934 598.600323 
L 927.059504 587.588305 
L 931.671074 555.084354 
L 936.282645 597.645249 
L 940.894215 537.688794 
L 945.505785 584.25142 
L 950.117355 589.29656 
L 954.728926 491.002438 
L 959.340496 530.938054 
L 968.563636 584.304228 
L 973.175207 586.363542 
L 977.786777 558.315022 
L 982.398347 575.218241 
L 987.009917 560.866599 
L 991.621488 589.857826 
L 996.233058 537.978832 
L 1000.844628 584.200727 
L 1005.456198 590.067327 
L 1010.067769 604.452871 
L 1014.679339 521.787994 
L 1019.290909 510.903098 
L 1023.902479 594.86025 
L 1028.51405 555.246351 
L 1033.12562 593.760021 
L 1037.73719 591.426663 
L 1042.34876 590.602025 
L 1046.960331 555.393817 
L 1051.571901 583.614209 
L 1056.183471 595.532692 
L 1060.795041 590.056664 
L 1065.406612 589.842365 
L 1070.018182 536.769653 
L 1074.629752 586.441761 
L 1079.241322 583.643845 
L 1083.852893 584.637336 
L 1088.464463 596.093469 
L 1093.076033 555.47057 
L 1097.687603 587.301119 
L 1102.299174 583.864119 
L 1106.910744 601.735331 
L 1111.522314 600.677816 
L 1116.133884 581.651616 
L 1120.745455 558.996063 
L 1120.745455 558.996063 
" style="fill:none;stroke:#008000;stroke-linecap:square;stroke-width:1.5;"/>
   </g>
   <g id="patch_3">
    <path d="M 162 630 
L 162 86.4 
" style="fill:none;stroke:#000000;stroke-linecap:square;stroke-linejoin:miter;stroke-width:0.8;"/>
   </g>
   <g id="patch_4">
    <path d="M 1166.4 630 
L 1166.4 86.4 
" style="fill:none;stroke:#000000;stroke-linecap:square;stroke-linejoin:miter;stroke-width:0.8;"/>
   </g>
   <g id="patch_5">
    <path d="M 162 630 
L 1166.4 630 
" style="fill:none;stroke:#000000;stroke-linecap:square;stroke-linejoin:miter;stroke-width:0.8;"/>
   </g>
   <g id="patch_6">
    <path d="M 162 86.4 
L 1166.4 86.4 
" style="fill:none;stroke:#000000;stroke-linecap:square;stroke-linejoin:miter;stroke-width:0.8;"/>
   </g>
   <g id="legend_1">
    <g id="patch_7">
     <path d="M 968.428125 161.1125 
L 1152.4 161.1125 
Q 1156.4 161.1125 1156.4 157.1125 
L 1156.4 100.4 
Q 1156.4 96.4 1152.4 96.4 
L 968.428125 96.4 
Q 964.428125 96.4 964.428125 100.4 
L 964.428125 157.1125 
Q 964.428125 161.1125 968.428125 161.1125 
z
" style="fill:#ffffff;opacity:0.8;stroke:#cccccc;stroke-linejoin:miter;"/>
    </g>
    <g id="line2d_20">
     <path d="M 972.428125 112.596875 
L 1012.428125 112.596875 
" style="fill:none;stroke:#ff0000;stroke-linecap:square;stroke-width:1.5;"/>
    </g>
    <g id="line2d_21"/>
    <g id="text_20">
     <!-- ARIMA error -->
     <defs>
      <path d="M 34.1875 63.1875 
L 20.796875 26.90625 
L 47.609375 26.90625 
z
M 28.609375 72.90625 
L 39.796875 72.90625 
L 67.578125 0 
L 57.328125 0 
L 50.6875 18.703125 
L 17.828125 18.703125 
L 11.1875 0 
L 0.78125 0 
z
" id="DejaVuSans-41"/>
      <path d="M 44.390625 34.1875 
Q 47.5625 33.109375 50.5625 29.59375 
Q 53.5625 26.078125 56.59375 19.921875 
L 66.609375 0 
L 56 0 
L 46.6875 18.703125 
Q 43.0625 26.03125 39.671875 28.421875 
Q 36.28125 30.8125 30.421875 30.8125 
L 19.671875 30.8125 
L 19.671875 0 
L 9.8125 0 
L 9.8125 72.90625 
L 32.078125 72.90625 
Q 44.578125 72.90625 50.734375 67.671875 
Q 56.890625 62.453125 56.890625 51.90625 
Q 56.890625 45.015625 53.6875 40.46875 
Q 50.484375 35.9375 44.390625 34.1875 
z
M 19.671875 64.796875 
L 19.671875 38.921875 
L 32.078125 38.921875 
Q 39.203125 38.921875 42.84375 42.21875 
Q 46.484375 45.515625 46.484375 51.90625 
Q 46.484375 58.296875 42.84375 61.546875 
Q 39.203125 64.796875 32.078125 64.796875 
z
" id="DejaVuSans-52"/>
      <path d="M 9.8125 72.90625 
L 19.671875 72.90625 
L 19.671875 0 
L 9.8125 0 
z
" id="DejaVuSans-49"/>
      <path d="M 41.109375 46.296875 
Q 39.59375 47.171875 37.8125 47.578125 
Q 36.03125 48 33.890625 48 
Q 26.265625 48 22.1875 43.046875 
Q 18.109375 38.09375 18.109375 28.8125 
L 18.109375 0 
L 9.078125 0 
L 9.078125 54.6875 
L 18.109375 54.6875 
L 18.109375 46.1875 
Q 20.953125 51.171875 25.484375 53.578125 
Q 30.03125 56 36.53125 56 
Q 37.453125 56 38.578125 55.875 
Q 39.703125 55.765625 41.0625 55.515625 
z
" id="DejaVuSans-72"/>
      <path d="M 30.609375 48.390625 
Q 23.390625 48.390625 19.1875 42.75 
Q 14.984375 37.109375 14.984375 27.296875 
Q 14.984375 17.484375 19.15625 11.84375 
Q 23.34375 6.203125 30.609375 6.203125 
Q 37.796875 6.203125 41.984375 11.859375 
Q 46.1875 17.53125 46.1875 27.296875 
Q 46.1875 37.015625 41.984375 42.703125 
Q 37.796875 48.390625 30.609375 48.390625 
z
M 30.609375 56 
Q 42.328125 56 49.015625 48.375 
Q 55.71875 40.765625 55.71875 27.296875 
Q 55.71875 13.875 49.015625 6.21875 
Q 42.328125 -1.421875 30.609375 -1.421875 
Q 18.84375 -1.421875 12.171875 6.21875 
Q 5.515625 13.875 5.515625 27.296875 
Q 5.515625 40.765625 12.171875 48.375 
Q 18.84375 56 30.609375 56 
z
" id="DejaVuSans-6f"/>
     </defs>
     <g transform="translate(1028.428125 119.596875)scale(0.2 -0.2)">
      <use xlink:href="#DejaVuSans-41"/>
      <use x="68.408203" xlink:href="#DejaVuSans-52"/>
      <use x="137.890625" xlink:href="#DejaVuSans-49"/>
      <use x="167.382812" xlink:href="#DejaVuSans-4d"/>
      <use x="253.662109" xlink:href="#DejaVuSans-41"/>
      <use x="322.070312" xlink:href="#DejaVuSans-20"/>
      <use x="353.857422" xlink:href="#DejaVuSans-65"/>
      <use x="415.380859" xlink:href="#DejaVuSans-72"/>
      <use x="456.478516" xlink:href="#DejaVuSans-72"/>
      <use x="497.560547" xlink:href="#DejaVuSans-6f"/>
      <use x="558.742188" xlink:href="#DejaVuSans-72"/>
     </g>
    </g>
    <g id="line2d_22">
     <path d="M 972.428125 141.953125 
L 1012.428125 141.953125 
" style="fill:none;stroke:#008000;stroke-linecap:square;stroke-width:1.5;"/>
    </g>
    <g id="line2d_23"/>
    <g id="text_21">
     <!-- LSTM error -->
     <defs>
      <path d="M 9.8125 72.90625 
L 19.671875 72.90625 
L 19.671875 8.296875 
L 55.171875 8.296875 
L 55.171875 0 
L 9.8125 0 
z
" id="DejaVuSans-4c"/>
      <path d="M -0.296875 72.90625 
L 61.375 72.90625 
L 61.375 64.59375 
L 35.5 64.59375 
L 35.5 0 
L 25.59375 0 
L 25.59375 64.59375 
L -0.296875 64.59375 
z
" id="DejaVuSans-54"/>
     </defs>
     <g transform="translate(1028.428125 148.953125)scale(0.2 -0.2)">
      <use xlink:href="#DejaVuSans-4c"/>
      <use x="55.712891" xlink:href="#DejaVuSans-53"/>
      <use x="119.189453" xlink:href="#DejaVuSans-54"/>
      <use x="180.273438" xlink:href="#DejaVuSans-4d"/>
      <use x="266.552734" xlink:href="#DejaVuSans-20"/>
      <use x="298.339844" xlink:href="#DejaVuSans-65"/>
      <use x="359.863281" xlink:href="#DejaVuSans-72"/>
      <use x="400.960938" xlink:href="#DejaVuSans-72"/>
      <use x="442.042969" xlink:href="#DejaVuSans-6f"/>
      <use x="503.224609" xlink:href="#DejaVuSans-72"/>
     </g>
    </g>
   </g>
  </g>
 </g>
 <defs>
  <clipPath id="pcef68126aa">
   <rect height="543.6" width="1004.4" x="162" y="86.4"/>
  </clipPath>
 </defs>
</svg>
