<?xml version="1.0" encoding="utf-8" standalone="no"?>
<!DOCTYPE svg PUBLIC "-//W3C//DTD SVG 1.1//EN"
  "http://www.w3.org/Graphics/SVG/1.1/DTD/svg11.dtd">
<!-- Created with matplotlib (http://matplotlib.org/) -->
<svg height="756pt" version="1.1" viewBox="0 0 1332 756" width="1332pt" xmlns="http://www.w3.org/2000/svg" xmlns:xlink="http://www.w3.org/1999/xlink">
 <defs>
  <style type="text/css">
*{stroke-linecap:butt;stroke-linejoin:round;}
  </style>
 </defs>
 <g id="figure_1">
  <g id="patch_1">
   <path d="M 0 756 
L 1332 756 
L 1332 0 
L 0 0 
z
" style="fill:#ffffff;"/>
  </g>
  <g id="axes_1">
   <g id="patch_2">
    <path d="M 166.5 661.5 
L 1198.8 661.5 
L 1198.8 90.72 
L 166.5 90.72 
z
" style="fill:#ffffff;"/>
   </g>
   <g id="matplotlib.axis_1">
    <g id="xtick_1">
     <g id="line2d_1">
      <defs>
       <path d="M 0 0 
L 0 3.5 
" id="mac3e82a3ae" style="stroke:#000000;stroke-width:0.8;"/>
      </defs>
      <g>
       <use style="stroke:#000000;stroke-width:0.8;" x="218.115" xlink:href="#mac3e82a3ae" y="661.5"/>
      </g>
     </g>
     <g id="text_1">
      <!-- 0 -->
      <defs>
       <path d="M 31.78125 66.40625 
Q 24.171875 66.40625 20.328125 58.90625 
Q 16.5 51.421875 16.5 36.375 
Q 16.5 21.390625 20.328125 13.890625 
Q 24.171875 6.390625 31.78125 6.390625 
Q 39.453125 6.390625 43.28125 13.890625 
Q 47.125 21.390625 47.125 36.375 
Q 47.125 51.421875 43.28125 58.90625 
Q 39.453125 66.40625 31.78125 66.40625 
z
M 31.78125 74.21875 
Q 44.046875 74.21875 50.515625 64.515625 
Q 56.984375 54.828125 56.984375 36.375 
Q 56.984375 17.96875 50.515625 8.265625 
Q 44.046875 -1.421875 31.78125 -1.421875 
Q 19.53125 -1.421875 13.0625 8.265625 
Q 6.59375 17.96875 6.59375 36.375 
Q 6.59375 54.828125 13.0625 64.515625 
Q 19.53125 74.21875 31.78125 74.21875 
z
" id="DejaVuSans-30"/>
      </defs>
      <g transform="translate(213.343125 679.897656)scale(0.15 -0.15)">
       <use xlink:href="#DejaVuSans-30"/>
      </g>
     </g>
    </g>
    <g id="xtick_2">
     <g id="line2d_2">
      <g>
       <use style="stroke:#000000;stroke-width:0.8;" x="335.421818" xlink:href="#mac3e82a3ae" y="661.5"/>
      </g>
     </g>
     <g id="text_2">
      <!-- 25 -->
      <defs>
       <path d="M 19.1875 8.296875 
L 53.609375 8.296875 
L 53.609375 0 
L 7.328125 0 
L 7.328125 8.296875 
Q 12.9375 14.109375 22.625 23.890625 
Q 32.328125 33.6875 34.8125 36.53125 
Q 39.546875 41.84375 41.421875 45.53125 
Q 43.3125 49.21875 43.3125 52.78125 
Q 43.3125 58.59375 39.234375 62.25 
Q 35.15625 65.921875 28.609375 65.921875 
Q 23.96875 65.921875 18.8125 64.3125 
Q 13.671875 62.703125 7.8125 59.421875 
L 7.8125 69.390625 
Q 13.765625 71.78125 18.9375 73 
Q 24.125 74.21875 28.421875 74.21875 
Q 39.75 74.21875 46.484375 68.546875 
Q 53.21875 62.890625 53.21875 53.421875 
Q 53.21875 48.921875 51.53125 44.890625 
Q 49.859375 40.875 45.40625 35.40625 
Q 44.1875 33.984375 37.640625 27.21875 
Q 31.109375 20.453125 19.1875 8.296875 
z
" id="DejaVuSans-32"/>
       <path d="M 10.796875 72.90625 
L 49.515625 72.90625 
L 49.515625 64.59375 
L 19.828125 64.59375 
L 19.828125 46.734375 
Q 21.96875 47.46875 24.109375 47.828125 
Q 26.265625 48.1875 28.421875 48.1875 
Q 40.625 48.1875 47.75 41.5 
Q 54.890625 34.8125 54.890625 23.390625 
Q 54.890625 11.625 47.5625 5.09375 
Q 40.234375 -1.421875 26.90625 -1.421875 
Q 22.3125 -1.421875 17.546875 -0.640625 
Q 12.796875 0.140625 7.71875 1.703125 
L 7.71875 11.625 
Q 12.109375 9.234375 16.796875 8.0625 
Q 21.484375 6.890625 26.703125 6.890625 
Q 35.15625 6.890625 40.078125 11.328125 
Q 45.015625 15.765625 45.015625 23.390625 
Q 45.015625 31 40.078125 35.4375 
Q 35.15625 39.890625 26.703125 39.890625 
Q 22.75 39.890625 18.8125 39.015625 
Q 14.890625 38.140625 10.796875 36.28125 
z
" id="DejaVuSans-35"/>
      </defs>
      <g transform="translate(325.878068 679.897656)scale(0.15 -0.15)">
       <use xlink:href="#DejaVuSans-32"/>
       <use x="63.623047" xlink:href="#DejaVuSans-35"/>
      </g>
     </g>
    </g>
    <g id="xtick_3">
     <g id="line2d_3">
      <g>
       <use style="stroke:#000000;stroke-width:0.8;" x="452.728636" xlink:href="#mac3e82a3ae" y="661.5"/>
      </g>
     </g>
     <g id="text_3">
      <!-- 50 -->
      <g transform="translate(443.184886 679.897656)scale(0.15 -0.15)">
       <use xlink:href="#DejaVuSans-35"/>
       <use x="63.623047" xlink:href="#DejaVuSans-30"/>
      </g>
     </g>
    </g>
    <g id="xtick_4">
     <g id="line2d_4">
      <g>
       <use style="stroke:#000000;stroke-width:0.8;" x="570.035455" xlink:href="#mac3e82a3ae" y="661.5"/>
      </g>
     </g>
     <g id="text_4">
      <!-- 75 -->
      <defs>
       <path d="M 8.203125 72.90625 
L 55.078125 72.90625 
L 55.078125 68.703125 
L 28.609375 0 
L 18.3125 0 
L 43.21875 64.59375 
L 8.203125 64.59375 
z
" id="DejaVuSans-37"/>
      </defs>
      <g transform="translate(560.491705 679.897656)scale(0.15 -0.15)">
       <use xlink:href="#DejaVuSans-37"/>
       <use x="63.623047" xlink:href="#DejaVuSans-35"/>
      </g>
     </g>
    </g>
    <g id="xtick_5">
     <g id="line2d_5">
      <g>
       <use style="stroke:#000000;stroke-width:0.8;" x="687.342273" xlink:href="#mac3e82a3ae" y="661.5"/>
      </g>
     </g>
     <g id="text_5">
      <!-- 100 -->
      <defs>
       <path d="M 12.40625 8.296875 
L 28.515625 8.296875 
L 28.515625 63.921875 
L 10.984375 60.40625 
L 10.984375 69.390625 
L 28.421875 72.90625 
L 38.28125 72.90625 
L 38.28125 8.296875 
L 54.390625 8.296875 
L 54.390625 0 
L 12.40625 0 
z
" id="DejaVuSans-31"/>
      </defs>
      <g transform="translate(673.026648 679.897656)scale(0.15 -0.15)">
       <use xlink:href="#DejaVuSans-31"/>
       <use x="63.623047" xlink:href="#DejaVuSans-30"/>
       <use x="127.246094" xlink:href="#DejaVuSans-30"/>
      </g>
     </g>
    </g>
    <g id="xtick_6">
     <g id="line2d_6">
      <g>
       <use style="stroke:#000000;stroke-width:0.8;" x="804.649091" xlink:href="#mac3e82a3ae" y="661.5"/>
      </g>
     </g>
     <g id="text_6">
      <!-- 125 -->
      <g transform="translate(790.333466 679.897656)scale(0.15 -0.15)">
       <use xlink:href="#DejaVuSans-31"/>
       <use x="63.623047" xlink:href="#DejaVuSans-32"/>
       <use x="127.246094" xlink:href="#DejaVuSans-35"/>
      </g>
     </g>
    </g>
    <g id="xtick_7">
     <g id="line2d_7">
      <g>
       <use style="stroke:#000000;stroke-width:0.8;" x="921.955909" xlink:href="#mac3e82a3ae" y="661.5"/>
      </g>
     </g>
     <g id="text_7">
      <!-- 150 -->
      <g transform="translate(907.640284 679.897656)scale(0.15 -0.15)">
       <use xlink:href="#DejaVuSans-31"/>
       <use x="63.623047" xlink:href="#DejaVuSans-35"/>
       <use x="127.246094" xlink:href="#DejaVuSans-30"/>
      </g>
     </g>
    </g>
    <g id="xtick_8">
     <g id="line2d_8">
      <g>
       <use style="stroke:#000000;stroke-width:0.8;" x="1039.262727" xlink:href="#mac3e82a3ae" y="661.5"/>
      </g>
     </g>
     <g id="text_8">
      <!-- 175 -->
      <g transform="translate(1024.947102 679.897656)scale(0.15 -0.15)">
       <use xlink:href="#DejaVuSans-31"/>
       <use x="63.623047" xlink:href="#DejaVuSans-37"/>
       <use x="127.246094" xlink:href="#DejaVuSans-35"/>
      </g>
     </g>
    </g>
    <g id="xtick_9">
     <g id="line2d_9">
      <g>
       <use style="stroke:#000000;stroke-width:0.8;" x="1156.569545" xlink:href="#mac3e82a3ae" y="661.5"/>
      </g>
     </g>
     <g id="text_9">
      <!-- 200 -->
      <g transform="translate(1142.25392 679.897656)scale(0.15 -0.15)">
       <use xlink:href="#DejaVuSans-32"/>
       <use x="63.623047" xlink:href="#DejaVuSans-30"/>
       <use x="127.246094" xlink:href="#DejaVuSans-30"/>
      </g>
     </g>
    </g>
    <g id="text_10">
     <!-- 15-Minute Steps -->
     <defs>
      <path d="M 4.890625 31.390625 
L 31.203125 31.390625 
L 31.203125 23.390625 
L 4.890625 23.390625 
z
" id="DejaVuSans-2d"/>
      <path d="M 9.8125 72.90625 
L 24.515625 72.90625 
L 43.109375 23.296875 
L 61.8125 72.90625 
L 76.515625 72.90625 
L 76.515625 0 
L 66.890625 0 
L 66.890625 64.015625 
L 48.09375 14.015625 
L 38.1875 14.015625 
L 19.390625 64.015625 
L 19.390625 0 
L 9.8125 0 
z
" id="DejaVuSans-4d"/>
      <path d="M 9.421875 54.6875 
L 18.40625 54.6875 
L 18.40625 0 
L 9.421875 0 
z
M 9.421875 75.984375 
L 18.40625 75.984375 
L 18.40625 64.59375 
L 9.421875 64.59375 
z
" id="DejaVuSans-69"/>
      <path d="M 54.890625 33.015625 
L 54.890625 0 
L 45.90625 0 
L 45.90625 32.71875 
Q 45.90625 40.484375 42.875 44.328125 
Q 39.84375 48.1875 33.796875 48.1875 
Q 26.515625 48.1875 22.3125 43.546875 
Q 18.109375 38.921875 18.109375 30.90625 
L 18.109375 0 
L 9.078125 0 
L 9.078125 54.6875 
L 18.109375 54.6875 
L 18.109375 46.1875 
Q 21.34375 51.125 25.703125 53.5625 
Q 30.078125 56 35.796875 56 
Q 45.21875 56 50.046875 50.171875 
Q 54.890625 44.34375 54.890625 33.015625 
z
" id="DejaVuSans-6e"/>
      <path d="M 8.5 21.578125 
L 8.5 54.6875 
L 17.484375 54.6875 
L 17.484375 21.921875 
Q 17.484375 14.15625 20.5 10.265625 
Q 23.53125 6.390625 29.59375 6.390625 
Q 36.859375 6.390625 41.078125 11.03125 
Q 45.3125 15.671875 45.3125 23.6875 
L 45.3125 54.6875 
L 54.296875 54.6875 
L 54.296875 0 
L 45.3125 0 
L 45.3125 8.40625 
Q 42.046875 3.421875 37.71875 1 
Q 33.40625 -1.421875 27.6875 -1.421875 
Q 18.265625 -1.421875 13.375 4.4375 
Q 8.5 10.296875 8.5 21.578125 
z
M 31.109375 56 
z
" id="DejaVuSans-75"/>
      <path d="M 18.3125 70.21875 
L 18.3125 54.6875 
L 36.8125 54.6875 
L 36.8125 47.703125 
L 18.3125 47.703125 
L 18.3125 18.015625 
Q 18.3125 11.328125 20.140625 9.421875 
Q 21.96875 7.515625 27.59375 7.515625 
L 36.8125 7.515625 
L 36.8125 0 
L 27.59375 0 
Q 17.1875 0 13.234375 3.875 
Q 9.28125 7.765625 9.28125 18.015625 
L 9.28125 47.703125 
L 2.6875 47.703125 
L 2.6875 54.6875 
L 9.28125 54.6875 
L 9.28125 70.21875 
z
" id="DejaVuSans-74"/>
      <path d="M 56.203125 29.59375 
L 56.203125 25.203125 
L 14.890625 25.203125 
Q 15.484375 15.921875 20.484375 11.0625 
Q 25.484375 6.203125 34.421875 6.203125 
Q 39.59375 6.203125 44.453125 7.46875 
Q 49.3125 8.734375 54.109375 11.28125 
L 54.109375 2.78125 
Q 49.265625 0.734375 44.1875 -0.34375 
Q 39.109375 -1.421875 33.890625 -1.421875 
Q 20.796875 -1.421875 13.15625 6.1875 
Q 5.515625 13.8125 5.515625 26.8125 
Q 5.515625 40.234375 12.765625 48.109375 
Q 20.015625 56 32.328125 56 
Q 43.359375 56 49.78125 48.890625 
Q 56.203125 41.796875 56.203125 29.59375 
z
M 47.21875 32.234375 
Q 47.125 39.59375 43.09375 43.984375 
Q 39.0625 48.390625 32.421875 48.390625 
Q 24.90625 48.390625 20.390625 44.140625 
Q 15.875 39.890625 15.1875 32.171875 
z
" id="DejaVuSans-65"/>
      <path id="DejaVuSans-20"/>
      <path d="M 53.515625 70.515625 
L 53.515625 60.890625 
Q 47.90625 63.578125 42.921875 64.890625 
Q 37.9375 66.21875 33.296875 66.21875 
Q 25.25 66.21875 20.875 63.09375 
Q 16.5 59.96875 16.5 54.203125 
Q 16.5 49.359375 19.40625 46.890625 
Q 22.3125 44.4375 30.421875 42.921875 
L 36.375 41.703125 
Q 47.40625 39.59375 52.65625 34.296875 
Q 57.90625 29 57.90625 20.125 
Q 57.90625 9.515625 50.796875 4.046875 
Q 43.703125 -1.421875 29.984375 -1.421875 
Q 24.8125 -1.421875 18.96875 -0.25 
Q 13.140625 0.921875 6.890625 3.21875 
L 6.890625 13.375 
Q 12.890625 10.015625 18.65625 8.296875 
Q 24.421875 6.59375 29.984375 6.59375 
Q 38.421875 6.59375 43.015625 9.90625 
Q 47.609375 13.234375 47.609375 19.390625 
Q 47.609375 24.75 44.3125 27.78125 
Q 41.015625 30.8125 33.5 32.328125 
L 27.484375 33.5 
Q 16.453125 35.6875 11.515625 40.375 
Q 6.59375 45.0625 6.59375 53.421875 
Q 6.59375 63.09375 13.40625 68.65625 
Q 20.21875 74.21875 32.171875 74.21875 
Q 37.3125 74.21875 42.625 73.28125 
Q 47.953125 72.359375 53.515625 70.515625 
z
" id="DejaVuSans-53"/>
      <path d="M 18.109375 8.203125 
L 18.109375 -20.796875 
L 9.078125 -20.796875 
L 9.078125 54.6875 
L 18.109375 54.6875 
L 18.109375 46.390625 
Q 20.953125 51.265625 25.265625 53.625 
Q 29.59375 56 35.59375 56 
Q 45.5625 56 51.78125 48.09375 
Q 58.015625 40.1875 58.015625 27.296875 
Q 58.015625 14.40625 51.78125 6.484375 
Q 45.5625 -1.421875 35.59375 -1.421875 
Q 29.59375 -1.421875 25.265625 0.953125 
Q 20.953125 3.328125 18.109375 8.203125 
z
M 48.6875 27.296875 
Q 48.6875 37.203125 44.609375 42.84375 
Q 40.53125 48.484375 33.40625 48.484375 
Q 26.265625 48.484375 22.1875 42.84375 
Q 18.109375 37.203125 18.109375 27.296875 
Q 18.109375 17.390625 22.1875 11.75 
Q 26.265625 6.109375 33.40625 6.109375 
Q 40.53125 6.109375 44.609375 11.75 
Q 48.6875 17.390625 48.6875 27.296875 
z
" id="DejaVuSans-70"/>
      <path d="M 44.28125 53.078125 
L 44.28125 44.578125 
Q 40.484375 46.53125 36.375 47.5 
Q 32.28125 48.484375 27.875 48.484375 
Q 21.1875 48.484375 17.84375 46.4375 
Q 14.5 44.390625 14.5 40.28125 
Q 14.5 37.15625 16.890625 35.375 
Q 19.28125 33.59375 26.515625 31.984375 
L 29.59375 31.296875 
Q 39.15625 29.25 43.1875 25.515625 
Q 47.21875 21.78125 47.21875 15.09375 
Q 47.21875 7.46875 41.1875 3.015625 
Q 35.15625 -1.421875 24.609375 -1.421875 
Q 20.21875 -1.421875 15.453125 -0.5625 
Q 10.6875 0.296875 5.421875 2 
L 5.421875 11.28125 
Q 10.40625 8.6875 15.234375 7.390625 
Q 20.0625 6.109375 24.8125 6.109375 
Q 31.15625 6.109375 34.5625 8.28125 
Q 37.984375 10.453125 37.984375 14.40625 
Q 37.984375 18.0625 35.515625 20.015625 
Q 33.0625 21.96875 24.703125 23.78125 
L 21.578125 24.515625 
Q 13.234375 26.265625 9.515625 29.90625 
Q 5.8125 33.546875 5.8125 39.890625 
Q 5.8125 47.609375 11.28125 51.796875 
Q 16.75 56 26.8125 56 
Q 31.78125 56 36.171875 55.265625 
Q 40.578125 54.546875 44.28125 53.078125 
z
" id="DejaVuSans-73"/>
     </defs>
     <g transform="translate(641.827344 694.615625)scale(0.1 -0.1)">
      <use xlink:href="#DejaVuSans-31"/>
      <use x="63.623047" xlink:href="#DejaVuSans-35"/>
      <use x="127.246094" xlink:href="#DejaVuSans-2d"/>
      <use x="163.330078" xlink:href="#DejaVuSans-4d"/>
      <use x="249.609375" xlink:href="#DejaVuSans-69"/>
      <use x="277.392578" xlink:href="#DejaVuSans-6e"/>
      <use x="340.771484" xlink:href="#DejaVuSans-75"/>
      <use x="404.150391" xlink:href="#DejaVuSans-74"/>
      <use x="443.359375" xlink:href="#DejaVuSans-65"/>
      <use x="504.882812" xlink:href="#DejaVuSans-20"/>
      <use x="536.669922" xlink:href="#DejaVuSans-53"/>
      <use x="600.146484" xlink:href="#DejaVuSans-74"/>
      <use x="639.355469" xlink:href="#DejaVuSans-65"/>
      <use x="700.878906" xlink:href="#DejaVuSans-70"/>
      <use x="764.355469" xlink:href="#DejaVuSans-73"/>
     </g>
    </g>
   </g>
   <g id="matplotlib.axis_2">
    <g id="ytick_1">
     <g id="line2d_10">
      <defs>
       <path d="M 0 0 
L -3.5 0 
" id="mc8b4d329c5" style="stroke:#000000;stroke-width:0.8;"/>
      </defs>
      <g>
       <use style="stroke:#000000;stroke-width:0.8;" x="166.5" xlink:href="#mc8b4d329c5" y="571.106376"/>
      </g>
     </g>
     <g id="text_11">
      <!-- 200 -->
      <g transform="translate(130.86875 576.805204)scale(0.15 -0.15)">
       <use xlink:href="#DejaVuSans-32"/>
       <use x="63.623047" xlink:href="#DejaVuSans-30"/>
       <use x="127.246094" xlink:href="#DejaVuSans-30"/>
      </g>
     </g>
    </g>
    <g id="ytick_2">
     <g id="line2d_11">
      <g>
       <use style="stroke:#000000;stroke-width:0.8;" x="166.5" xlink:href="#mc8b4d329c5" y="448.848184"/>
      </g>
     </g>
     <g id="text_12">
      <!-- 400 -->
      <defs>
       <path d="M 37.796875 64.3125 
L 12.890625 25.390625 
L 37.796875 25.390625 
z
M 35.203125 72.90625 
L 47.609375 72.90625 
L 47.609375 25.390625 
L 58.015625 25.390625 
L 58.015625 17.1875 
L 47.609375 17.1875 
L 47.609375 0 
L 37.796875 0 
L 37.796875 17.1875 
L 4.890625 17.1875 
L 4.890625 26.703125 
z
" id="DejaVuSans-34"/>
      </defs>
      <g transform="translate(130.86875 454.547012)scale(0.15 -0.15)">
       <use xlink:href="#DejaVuSans-34"/>
       <use x="63.623047" xlink:href="#DejaVuSans-30"/>
       <use x="127.246094" xlink:href="#DejaVuSans-30"/>
      </g>
     </g>
    </g>
    <g id="ytick_3">
     <g id="line2d_12">
      <g>
       <use style="stroke:#000000;stroke-width:0.8;" x="166.5" xlink:href="#mc8b4d329c5" y="326.589992"/>
      </g>
     </g>
     <g id="text_13">
      <!-- 600 -->
      <defs>
       <path d="M 33.015625 40.375 
Q 26.375 40.375 22.484375 35.828125 
Q 18.609375 31.296875 18.609375 23.390625 
Q 18.609375 15.53125 22.484375 10.953125 
Q 26.375 6.390625 33.015625 6.390625 
Q 39.65625 6.390625 43.53125 10.953125 
Q 47.40625 15.53125 47.40625 23.390625 
Q 47.40625 31.296875 43.53125 35.828125 
Q 39.65625 40.375 33.015625 40.375 
z
M 52.59375 71.296875 
L 52.59375 62.3125 
Q 48.875 64.0625 45.09375 64.984375 
Q 41.3125 65.921875 37.59375 65.921875 
Q 27.828125 65.921875 22.671875 59.328125 
Q 17.53125 52.734375 16.796875 39.40625 
Q 19.671875 43.65625 24.015625 45.921875 
Q 28.375 48.1875 33.59375 48.1875 
Q 44.578125 48.1875 50.953125 41.515625 
Q 57.328125 34.859375 57.328125 23.390625 
Q 57.328125 12.15625 50.6875 5.359375 
Q 44.046875 -1.421875 33.015625 -1.421875 
Q 20.359375 -1.421875 13.671875 8.265625 
Q 6.984375 17.96875 6.984375 36.375 
Q 6.984375 53.65625 15.1875 63.9375 
Q 23.390625 74.21875 37.203125 74.21875 
Q 40.921875 74.21875 44.703125 73.484375 
Q 48.484375 72.75 52.59375 71.296875 
z
" id="DejaVuSans-36"/>
      </defs>
      <g transform="translate(130.86875 332.28882)scale(0.15 -0.15)">
       <use xlink:href="#DejaVuSans-36"/>
       <use x="63.623047" xlink:href="#DejaVuSans-30"/>
       <use x="127.246094" xlink:href="#DejaVuSans-30"/>
      </g>
     </g>
    </g>
    <g id="ytick_4">
     <g id="line2d_13">
      <g>
       <use style="stroke:#000000;stroke-width:0.8;" x="166.5" xlink:href="#mc8b4d329c5" y="204.331799"/>
      </g>
     </g>
     <g id="text_14">
      <!-- 800 -->
      <defs>
       <path d="M 31.78125 34.625 
Q 24.75 34.625 20.71875 30.859375 
Q 16.703125 27.09375 16.703125 20.515625 
Q 16.703125 13.921875 20.71875 10.15625 
Q 24.75 6.390625 31.78125 6.390625 
Q 38.8125 6.390625 42.859375 10.171875 
Q 46.921875 13.96875 46.921875 20.515625 
Q 46.921875 27.09375 42.890625 30.859375 
Q 38.875 34.625 31.78125 34.625 
z
M 21.921875 38.8125 
Q 15.578125 40.375 12.03125 44.71875 
Q 8.5 49.078125 8.5 55.328125 
Q 8.5 64.0625 14.71875 69.140625 
Q 20.953125 74.21875 31.78125 74.21875 
Q 42.671875 74.21875 48.875 69.140625 
Q 55.078125 64.0625 55.078125 55.328125 
Q 55.078125 49.078125 51.53125 44.71875 
Q 48 40.375 41.703125 38.8125 
Q 48.828125 37.15625 52.796875 32.3125 
Q 56.78125 27.484375 56.78125 20.515625 
Q 56.78125 9.90625 50.3125 4.234375 
Q 43.84375 -1.421875 31.78125 -1.421875 
Q 19.734375 -1.421875 13.25 4.234375 
Q 6.78125 9.90625 6.78125 20.515625 
Q 6.78125 27.484375 10.78125 32.3125 
Q 14.796875 37.15625 21.921875 38.8125 
z
M 18.3125 54.390625 
Q 18.3125 48.734375 21.84375 45.5625 
Q 25.390625 42.390625 31.78125 42.390625 
Q 38.140625 42.390625 41.71875 45.5625 
Q 45.3125 48.734375 45.3125 54.390625 
Q 45.3125 60.0625 41.71875 63.234375 
Q 38.140625 66.40625 31.78125 66.40625 
Q 25.390625 66.40625 21.84375 63.234375 
Q 18.3125 60.0625 18.3125 54.390625 
z
" id="DejaVuSans-38"/>
      </defs>
      <g transform="translate(130.86875 210.030628)scale(0.15 -0.15)">
       <use xlink:href="#DejaVuSans-38"/>
       <use x="63.623047" xlink:href="#DejaVuSans-30"/>
       <use x="127.246094" xlink:href="#DejaVuSans-30"/>
      </g>
     </g>
    </g>
    <g id="text_15">
     <!-- Bandwidth (kbps) -->
     <defs>
      <path d="M 19.671875 34.8125 
L 19.671875 8.109375 
L 35.5 8.109375 
Q 43.453125 8.109375 47.28125 11.40625 
Q 51.125 14.703125 51.125 21.484375 
Q 51.125 28.328125 47.28125 31.5625 
Q 43.453125 34.8125 35.5 34.8125 
z
M 19.671875 64.796875 
L 19.671875 42.828125 
L 34.28125 42.828125 
Q 41.5 42.828125 45.03125 45.53125 
Q 48.578125 48.25 48.578125 53.8125 
Q 48.578125 59.328125 45.03125 62.0625 
Q 41.5 64.796875 34.28125 64.796875 
z
M 9.8125 72.90625 
L 35.015625 72.90625 
Q 46.296875 72.90625 52.390625 68.21875 
Q 58.5 63.53125 58.5 54.890625 
Q 58.5 48.1875 55.375 44.234375 
Q 52.25 40.28125 46.1875 39.3125 
Q 53.46875 37.75 57.5 32.78125 
Q 61.53125 27.828125 61.53125 20.40625 
Q 61.53125 10.640625 54.890625 5.3125 
Q 48.25 0 35.984375 0 
L 9.8125 0 
z
" id="DejaVuSans-42"/>
      <path d="M 34.28125 27.484375 
Q 23.390625 27.484375 19.1875 25 
Q 14.984375 22.515625 14.984375 16.5 
Q 14.984375 11.71875 18.140625 8.90625 
Q 21.296875 6.109375 26.703125 6.109375 
Q 34.1875 6.109375 38.703125 11.40625 
Q 43.21875 16.703125 43.21875 25.484375 
L 43.21875 27.484375 
z
M 52.203125 31.203125 
L 52.203125 0 
L 43.21875 0 
L 43.21875 8.296875 
Q 40.140625 3.328125 35.546875 0.953125 
Q 30.953125 -1.421875 24.3125 -1.421875 
Q 15.921875 -1.421875 10.953125 3.296875 
Q 6 8.015625 6 15.921875 
Q 6 25.140625 12.171875 29.828125 
Q 18.359375 34.515625 30.609375 34.515625 
L 43.21875 34.515625 
L 43.21875 35.40625 
Q 43.21875 41.609375 39.140625 45 
Q 35.0625 48.390625 27.6875 48.390625 
Q 23 48.390625 18.546875 47.265625 
Q 14.109375 46.140625 10.015625 43.890625 
L 10.015625 52.203125 
Q 14.9375 54.109375 19.578125 55.046875 
Q 24.21875 56 28.609375 56 
Q 40.484375 56 46.34375 49.84375 
Q 52.203125 43.703125 52.203125 31.203125 
z
" id="DejaVuSans-61"/>
      <path d="M 45.40625 46.390625 
L 45.40625 75.984375 
L 54.390625 75.984375 
L 54.390625 0 
L 45.40625 0 
L 45.40625 8.203125 
Q 42.578125 3.328125 38.25 0.953125 
Q 33.9375 -1.421875 27.875 -1.421875 
Q 17.96875 -1.421875 11.734375 6.484375 
Q 5.515625 14.40625 5.515625 27.296875 
Q 5.515625 40.1875 11.734375 48.09375 
Q 17.96875 56 27.875 56 
Q 33.9375 56 38.25 53.625 
Q 42.578125 51.265625 45.40625 46.390625 
z
M 14.796875 27.296875 
Q 14.796875 17.390625 18.875 11.75 
Q 22.953125 6.109375 30.078125 6.109375 
Q 37.203125 6.109375 41.296875 11.75 
Q 45.40625 17.390625 45.40625 27.296875 
Q 45.40625 37.203125 41.296875 42.84375 
Q 37.203125 48.484375 30.078125 48.484375 
Q 22.953125 48.484375 18.875 42.84375 
Q 14.796875 37.203125 14.796875 27.296875 
z
" id="DejaVuSans-64"/>
      <path d="M 4.203125 54.6875 
L 13.1875 54.6875 
L 24.421875 12.015625 
L 35.59375 54.6875 
L 46.1875 54.6875 
L 57.421875 12.015625 
L 68.609375 54.6875 
L 77.59375 54.6875 
L 63.28125 0 
L 52.6875 0 
L 40.921875 44.828125 
L 29.109375 0 
L 18.5 0 
z
" id="DejaVuSans-77"/>
      <path d="M 54.890625 33.015625 
L 54.890625 0 
L 45.90625 0 
L 45.90625 32.71875 
Q 45.90625 40.484375 42.875 44.328125 
Q 39.84375 48.1875 33.796875 48.1875 
Q 26.515625 48.1875 22.3125 43.546875 
Q 18.109375 38.921875 18.109375 30.90625 
L 18.109375 0 
L 9.078125 0 
L 9.078125 75.984375 
L 18.109375 75.984375 
L 18.109375 46.1875 
Q 21.34375 51.125 25.703125 53.5625 
Q 30.078125 56 35.796875 56 
Q 45.21875 56 50.046875 50.171875 
Q 54.890625 44.34375 54.890625 33.015625 
z
" id="DejaVuSans-68"/>
      <path d="M 31 75.875 
Q 24.46875 64.65625 21.28125 53.65625 
Q 18.109375 42.671875 18.109375 31.390625 
Q 18.109375 20.125 21.3125 9.0625 
Q 24.515625 -2 31 -13.1875 
L 23.1875 -13.1875 
Q 15.875 -1.703125 12.234375 9.375 
Q 8.59375 20.453125 8.59375 31.390625 
Q 8.59375 42.28125 12.203125 53.3125 
Q 15.828125 64.359375 23.1875 75.875 
z
" id="DejaVuSans-28"/>
      <path d="M 9.078125 75.984375 
L 18.109375 75.984375 
L 18.109375 31.109375 
L 44.921875 54.6875 
L 56.390625 54.6875 
L 27.390625 29.109375 
L 57.625 0 
L 45.90625 0 
L 18.109375 26.703125 
L 18.109375 0 
L 9.078125 0 
z
" id="DejaVuSans-6b"/>
      <path d="M 48.6875 27.296875 
Q 48.6875 37.203125 44.609375 42.84375 
Q 40.53125 48.484375 33.40625 48.484375 
Q 26.265625 48.484375 22.1875 42.84375 
Q 18.109375 37.203125 18.109375 27.296875 
Q 18.109375 17.390625 22.1875 11.75 
Q 26.265625 6.109375 33.40625 6.109375 
Q 40.53125 6.109375 44.609375 11.75 
Q 48.6875 17.390625 48.6875 27.296875 
z
M 18.109375 46.390625 
Q 20.953125 51.265625 25.265625 53.625 
Q 29.59375 56 35.59375 56 
Q 45.5625 56 51.78125 48.09375 
Q 58.015625 40.1875 58.015625 27.296875 
Q 58.015625 14.40625 51.78125 6.484375 
Q 45.5625 -1.421875 35.59375 -1.421875 
Q 29.59375 -1.421875 25.265625 0.953125 
Q 20.953125 3.328125 18.109375 8.203125 
L 18.109375 0 
L 9.078125 0 
L 9.078125 75.984375 
L 18.109375 75.984375 
z
" id="DejaVuSans-62"/>
      <path d="M 8.015625 75.875 
L 15.828125 75.875 
Q 23.140625 64.359375 26.78125 53.3125 
Q 30.421875 42.28125 30.421875 31.390625 
Q 30.421875 20.453125 26.78125 9.375 
Q 23.140625 -1.703125 15.828125 -13.1875 
L 8.015625 -13.1875 
Q 14.5 -2 17.703125 9.0625 
Q 20.90625 20.125 20.90625 31.390625 
Q 20.90625 42.671875 17.703125 53.65625 
Q 14.5 64.65625 8.015625 75.875 
z
" id="DejaVuSans-29"/>
     </defs>
     <g transform="translate(124.789062 420.067813)rotate(-90)scale(0.1 -0.1)">
      <use xlink:href="#DejaVuSans-42"/>
      <use x="68.603516" xlink:href="#DejaVuSans-61"/>
      <use x="129.882812" xlink:href="#DejaVuSans-6e"/>
      <use x="193.261719" xlink:href="#DejaVuSans-64"/>
      <use x="256.738281" xlink:href="#DejaVuSans-77"/>
      <use x="338.525391" xlink:href="#DejaVuSans-69"/>
      <use x="366.308594" xlink:href="#DejaVuSans-64"/>
      <use x="429.785156" xlink:href="#DejaVuSans-74"/>
      <use x="468.994141" xlink:href="#DejaVuSans-68"/>
      <use x="532.373047" xlink:href="#DejaVuSans-20"/>
      <use x="564.160156" xlink:href="#DejaVuSans-28"/>
      <use x="603.173828" xlink:href="#DejaVuSans-6b"/>
      <use x="661.083984" xlink:href="#DejaVuSans-62"/>
      <use x="724.560547" xlink:href="#DejaVuSans-70"/>
      <use x="788.037109" xlink:href="#DejaVuSans-73"/>
      <use x="840.136719" xlink:href="#DejaVuSans-29"/>
     </g>
    </g>
   </g>
   <g id="line2d_14">
    <path clip-path="url(#pcc2b399b22)" d="M 218.115 606.039637 
L 222.807273 608.435898 
L 227.499545 606.947038 
L 232.191818 425.879965 
L 236.884091 584.696047 
L 241.576364 554.126058 
L 246.268636 536.85232 
L 250.960909 496.920105 
L 255.653182 553.957647 
L 260.345455 536.330706 
L 265.037727 538.77587 
L 269.73 479.445314 
L 274.422273 581.897679 
L 279.114545 563.98826 
L 283.806818 513.503756 
L 288.499091 518.714645 
L 293.191364 556.375609 
L 297.883636 494.572748 
L 302.575909 495.692083 
L 307.268182 518.258255 
L 311.960455 471.072034 
L 316.652727 552.338399 
L 321.345 454.678555 
L 326.037273 444.957684 
L 330.729545 459.047207 
L 335.421818 458.878796 
L 340.114091 566.406221 
L 344.806364 494.186962 
L 349.498636 487.682826 
L 354.190909 541.813313 
L 358.883182 529.239731 
L 363.575455 484.819234 
L 368.267727 517.171502 
L 372.96 558.266576 
L 377.652273 338.582175 
L 382.344545 530.27758 
L 387.036818 512.014896 
L 391.729091 558.000298 
L 396.421364 520.844688 
L 401.113636 502.087531 
L 405.805909 506.559491 
L 410.498182 489.823689 
L 415.190455 452.189928 
L 419.882727 539.400731 
L 424.575 528.201881 
L 429.267273 480.271229 
L 433.959545 537.390256 
L 438.651818 374.488062 
L 443.344091 299.378008 
L 448.036364 507.282159 
L 452.728636 522.170517 
L 457.420909 516.470535 
L 462.113182 567.791834 
L 466.805455 548.377233 
L 471.497727 584.076625 
L 476.19 603.464024 
L 480.882273 510.113109 
L 485.574545 534.716898 
L 490.266818 570.986808 
L 494.959091 498.577376 
L 499.651364 547.274159 
L 504.343636 574.551367 
L 509.035909 581.419527 
L 513.728182 544.062864 
L 518.420455 560.86927 
L 523.112727 608.908609 
L 527.805 547.969686 
L 532.497273 545.160498 
L 537.189545 527.723729 
L 541.881818 585.945831 
L 546.574091 489.508569 
L 551.266364 497.115718 
L 555.958636 588.602868 
L 560.650909 543.356456 
L 565.343182 576.110832 
L 570.035455 534.059454 
L 579.42 618.895759 
L 584.112273 569.949019 
L 588.804545 572.421324 
L 593.496818 566.23781 
L 598.189091 556.332146 
L 602.881364 535.075542 
L 607.573636 555.908338 
L 612.265909 575.947801 
L 616.958182 580.57729 
L 621.650455 577.050814 
L 626.342727 476.288363 
L 631.035 397.054173 
L 635.727273 571.568268 
L 640.419545 543.291293 
L 645.111818 563.836109 
L 649.804091 619.944428 
L 654.496364 547.312242 
L 659.188636 536.732813 
L 663.880909 512.357219 
L 668.573182 609.038997 
L 673.265455 561.331161 
L 677.957727 546.600394 
L 682.65 556.8375 
L 687.342273 555.864875 
L 692.034545 556.343027 
L 696.726818 585.299207 
L 701.419091 531.190421 
L 706.111364 512.324637 
L 710.803636 557.755782 
L 715.495909 379.459874 
L 720.188182 516.198877 
L 724.880455 569.536031 
L 729.572727 477.277309 
L 734.265 329.790467 
L 738.957273 532.315197 
L 743.649545 520.556709 
L 748.341818 507.575579 
L 753.034091 540.72112 
L 757.726364 443.235188 
L 762.418636 359.143253 
L 767.110909 392.625737 
L 771.803182 351.546984 
L 776.495455 545.567985 
L 781.187727 506.651857 
L 785.88 421.848135 
L 790.572273 530.163452 
L 795.264545 551.197302 
L 799.956818 410.687306 
L 804.649091 545.93751 
L 809.341364 572.948379 
L 814.033636 558.282837 
L 818.725909 590.086288 
L 823.418182 553.609884 
L 828.110455 546.285273 
L 832.802727 486.465685 
L 837.495 477.679355 
L 842.187273 488.280547 
L 846.879545 586.331617 
L 851.571818 560.092258 
L 856.264091 540.862389 
L 860.956364 539.411612 
L 865.648636 549.697622 
L 870.340909 489.660658 
L 875.033182 573.573302 
L 879.725455 524.126648 
L 884.417727 585.918629 
L 889.11 587.266219 
L 893.802273 558.538234 
L 898.494545 535.173349 
L 903.186818 602.757677 
L 907.879091 535.852554 
L 912.571364 521.235915 
L 917.263636 582.95185 
L 921.955909 565.433596 
L 926.648182 528.468159 
L 931.340455 582.886625 
L 936.032727 547.681706 
L 940.725 468.338829 
L 945.417273 560.059676 
L 950.109545 549.273753 
L 954.801818 579.300365 
L 959.494091 552.843692 
L 964.186364 603.480345 
L 968.878636 435.64974 
L 973.570909 536.890404 
L 978.263182 490.807195 
L 982.955455 513.340725 
L 987.647727 635.555455 
L 992.34 538.357502 
L 997.032273 557.609072 
L 1001.724545 562.314667 
L 1006.416818 597.742341 
L 1011.109091 501.32684 
L 1015.801364 445.370611 
L 1020.493636 561.456109 
L 1025.185909 299.046566 
L 1029.878182 466.382698 
L 1034.570455 525.707814 
L 1039.262727 551.746119 
L 1043.955 512.199689 
L 1048.647273 567.177792 
L 1053.339545 494.328231 
L 1058.031818 528.218202 
L 1062.724091 538.917139 
L 1067.416364 556.424512 
L 1072.108636 518.578816 
L 1076.800909 589.401642 
L 1081.493182 456.308623 
L 1086.185455 439.317485 
L 1090.877727 484.688845 
L 1095.57 528.701795 
L 1100.262273 553.294702 
L 1104.954545 116.664545 
L 1109.646818 321.167168 
L 1114.339091 534.16264 
L 1119.031364 546.567812 
L 1123.723636 575.05122 
L 1128.415909 569.726203 
L 1133.108182 532.06524 
L 1137.800455 570.486955 
L 1142.492727 554.490143 
L 1147.185 503.538369 
L 1151.877273 599.758256 
L 1151.877273 599.758256 
" style="fill:none;stroke:#1f77b4;stroke-linecap:square;stroke-width:1.5;"/>
   </g>
   <g id="line2d_15">
    <path clip-path="url(#pcc2b399b22)" d="M 213.422727 540.495103 
L 218.115 576.786138 
L 222.807273 595.028446 
L 227.499545 584.358698 
L 232.191818 477.711445 
L 236.884091 563.819324 
L 241.576364 560.079213 
L 246.268636 553.990047 
L 250.960909 503.768156 
L 255.653182 546.293912 
L 260.345455 545.924653 
L 265.037727 552.032475 
L 269.73 490.844626 
L 274.422273 558.825878 
L 279.114545 558.349434 
L 283.806818 540.513384 
L 288.499091 509.224981 
L 293.191364 546.101542 
L 297.883636 520.919465 
L 302.575909 523.034219 
L 307.268182 504.675704 
L 311.960455 497.468716 
L 316.652727 543.178437 
L 321.345 493.016079 
L 326.037273 463.72578 
L 330.729545 475.070137 
L 335.421818 485.25619 
L 340.114091 541.546407 
L 344.806364 489.267207 
L 349.498636 492.440058 
L 354.190909 524.54452 
L 358.883182 529.174518 
L 363.575455 489.901976 
L 368.267727 507.696742 
L 372.96 536.66593 
L 377.652273 427.802669 
L 382.344545 504.36493 
L 387.036818 496.571506 
L 391.729091 545.959926 
L 396.421364 514.669448 
L 401.113636 500.271585 
L 405.805909 497.394383 
L 410.498182 510.95129 
L 415.190455 476.507357 
L 419.882727 515.934408 
L 424.575 510.260794 
L 429.267273 506.322882 
L 433.959545 517.674797 
L 438.651818 430.636341 
L 443.344091 379.849376 
L 448.036364 491.246478 
L 452.728636 503.559116 
L 457.420909 504.00067 
L 462.113182 516.52798 
L 466.805455 527.397164 
L 471.497727 552.655014 
L 476.19 565.01227 
L 480.882273 508.244206 
L 490.266818 551.469677 
L 494.959091 519.459303 
L 499.651364 529.252252 
L 504.343636 551.069395 
L 509.035909 566.200632 
L 513.728182 546.101898 
L 518.420455 543.332035 
L 523.112727 576.15689 
L 527.805 556.962094 
L 532.497273 549.978773 
L 537.189545 527.037921 
L 541.881818 567.982972 
L 546.574091 523.13975 
L 551.266364 519.978956 
L 555.958636 551.646841 
L 560.650909 548.678744 
L 565.343182 566.951931 
L 570.035455 537.033919 
L 574.727727 554.70498 
L 579.42 589.960491 
L 584.112273 572.838901 
L 588.804545 562.935601 
L 593.496818 554.651469 
L 598.189091 562.858489 
L 602.881364 552.462721 
L 607.573636 552.960884 
L 612.265909 559.936736 
L 616.958182 575.645582 
L 621.650455 574.248056 
L 626.342727 512.095506 
L 631.035 458.96224 
L 635.727273 553.617733 
L 640.419545 547.716041 
L 645.111818 556.468592 
L 649.804091 570.087305 
L 654.496364 552.430335 
L 659.188636 548.847144 
L 663.880909 527.905368 
L 668.573182 571.610112 
L 673.265455 561.006679 
L 677.957727 556.931536 
L 682.65 548.299775 
L 687.342273 550.545114 
L 692.034545 558.680614 
L 696.726818 575.969763 
L 701.419091 538.521953 
L 706.111364 527.998613 
L 710.803636 553.405502 
L 715.495909 462.976811 
L 720.188182 516.644176 
L 724.880455 542.176795 
L 729.572727 514.148255 
L 734.265 416.415493 
L 738.957273 506.575304 
L 743.649545 510.341736 
L 748.341818 526.822932 
L 753.034091 514.19741 
L 757.726364 467.539741 
L 762.418636 422.89612 
L 767.110909 444.942023 
L 771.803182 399.925042 
L 776.495455 502.745245 
L 781.187727 487.552496 
L 785.88 459.836352 
L 790.572273 485.9976 
L 795.264545 517.050249 
L 799.956818 450.550386 
L 804.649091 519.457111 
L 809.341364 518.500584 
L 814.033636 540.780149 
L 818.725909 550.183716 
L 823.418182 540.831957 
L 832.802727 509.982912 
L 837.495 496.576398 
L 842.187273 501.519767 
L 846.879545 545.728007 
L 851.571818 547.932521 
L 856.264091 534.763102 
L 860.956364 530.003656 
L 865.648636 536.42991 
L 870.340909 514.60087 
L 875.033182 551.590926 
L 879.725455 523.70302 
L 884.417727 561.100611 
L 889.11 564.989265 
L 893.802273 555.607467 
L 898.494545 533.916141 
L 903.186818 575.287076 
L 907.879091 545.136775 
L 912.571364 538.516772 
L 917.263636 555.80406 
L 921.955909 561.056758 
L 926.648182 542.42824 
L 931.340455 566.926582 
L 936.032727 542.823293 
L 940.725 511.29848 
L 945.417273 549.185257 
L 950.109545 546.915107 
L 954.801818 562.060747 
L 959.494091 550.353747 
L 964.186364 577.658232 
L 968.878636 490.560285 
L 973.570909 537.787603 
L 978.263182 507.704606 
L 982.955455 530.779142 
L 987.647727 579.703946 
L 992.34 545.096497 
L 997.032273 546.880433 
L 1001.724545 554.253742 
L 1006.416818 573.906591 
L 1011.109091 529.014696 
L 1015.801364 488.648126 
L 1020.493636 543.697182 
L 1025.185909 414.574388 
L 1029.878182 487.519503 
L 1034.570455 500.373267 
L 1039.262727 541.010819 
L 1043.955 508.819394 
L 1048.647273 541.238485 
L 1053.339545 494.620331 
L 1058.031818 534.235209 
L 1062.724091 523.181881 
L 1067.416364 544.153322 
L 1072.108636 511.858848 
L 1076.800909 567.782431 
L 1081.493182 487.06927 
L 1086.185455 483.804536 
L 1090.877727 482.518924 
L 1095.57 531.577369 
L 1100.262273 531.352101 
L 1104.954545 309.584496 
L 1109.646818 368.770649 
L 1114.339091 492.833652 
L 1119.031364 527.52714 
L 1123.723636 523.820595 
L 1128.415909 507.282014 
L 1133.108182 517.215076 
L 1137.800455 554.884031 
L 1142.492727 532.483925 
L 1147.185 494.062884 
L 1147.185 494.062884 
" style="fill:none;stroke:#ff0000;stroke-linecap:square;stroke-width:1.5;"/>
   </g>
   <g id="line2d_16">
    <path clip-path="url(#pcc2b399b22)" d="M 222.807273 564.527574 
L 227.499545 564.51333 
L 232.191818 499.332799 
L 236.884091 521.380241 
L 241.576364 542.745846 
L 246.268636 530.475693 
L 250.960909 511.943903 
L 255.653182 524.836792 
L 260.345455 530.253194 
L 265.037727 527.492143 
L 269.73 505.555867 
L 274.422273 531.241094 
L 279.114545 545.553535 
L 283.806818 524.003188 
L 288.499091 515.247967 
L 293.191364 530.19402 
L 297.883636 515.259421 
L 302.575909 502.226712 
L 307.268182 511.255771 
L 311.960455 497.661972 
L 316.652727 518.869429 
L 321.345 498.700596 
L 326.037273 472.218329 
L 330.729545 475.980302 
L 335.421818 479.163406 
L 340.114091 521.503812 
L 344.806364 517.267085 
L 349.498636 498.957234 
L 354.190909 518.446742 
L 358.883182 525.154712 
L 363.575455 505.571407 
L 368.267727 508.494198 
L 372.96 530.552179 
L 377.652273 450.340052 
L 382.344545 481.951563 
L 387.036818 516.295396 
L 391.729091 529.401532 
L 396.421364 525.456421 
L 401.113636 510.46776 
L 405.805909 508.127438 
L 410.498182 502.54786 
L 415.190455 483.448077 
L 419.882727 510.029626 
L 424.575 524.268855 
L 429.267273 503.548091 
L 433.959545 515.228566 
L 438.651818 461.247962 
L 443.344091 383.788883 
L 448.036364 463.642011 
L 452.728636 515.228137 
L 457.420909 516.24956 
L 462.113182 533.775821 
L 466.805455 537.3585 
L 471.497727 545.713139 
L 476.19 558.875781 
L 480.882273 530.991675 
L 485.574545 520.528243 
L 490.266818 538.560841 
L 494.959091 519.907195 
L 499.651364 522.743053 
L 504.343636 542.284375 
L 509.035909 549.941499 
L 513.728182 538.600781 
L 518.420455 536.931363 
L 523.112727 556.207623 
L 527.805 545.443974 
L 532.497273 532.186834 
L 537.189545 525.298021 
L 541.881818 542.275383 
L 546.574091 519.670723 
L 551.266364 501.674576 
L 555.958636 537.108829 
L 560.650909 539.801145 
L 565.343182 542.037362 
L 570.035455 533.98946 
L 574.727727 540.464176 
L 579.42 562.338563 
L 584.112273 554.739204 
L 588.804545 546.044053 
L 593.496818 544.44335 
L 598.189091 539.816293 
L 602.881364 530.290784 
L 607.573636 533.36899 
L 612.265909 544.465438 
L 616.958182 549.934811 
L 621.650455 549.668873 
L 626.342727 512.69798 
L 631.035 456.380356 
L 635.727273 510.623661 
L 640.419545 536.336386 
L 645.111818 537.807846 
L 649.804091 560.22366 
L 654.496364 547.396512 
L 659.188636 529.025967 
L 663.880909 517.802879 
L 668.573182 546.952231 
L 673.265455 549.984014 
L 677.957727 535.423945 
L 682.65 536.035199 
L 687.342273 537.763279 
L 692.034545 537.733831 
L 696.726818 547.679072 
L 701.419091 534.844741 
L 706.111364 516.607757 
L 710.803636 529.377634 
L 715.495909 468.362969 
L 720.188182 485.087992 
L 724.880455 534.331837 
L 729.572727 511.447191 
L 734.265 425.701229 
L 738.957273 480.889303 
L 743.649545 519.942323 
L 748.341818 512.516839 
L 753.034091 522.214497 
L 757.726364 491.409578 
L 762.418636 430.803646 
L 767.110909 425.497552 
L 771.803182 414.27827 
L 776.495455 490.956166 
L 781.187727 517.533741 
L 785.88 474.51511 
L 790.572273 499.945956 
L 795.264545 530.691738 
L 799.956818 480.235367 
L 804.649091 503.710093 
L 809.341364 541.472896 
L 814.033636 541.831811 
L 818.725909 549.637001 
L 823.418182 543.641283 
L 828.110455 533.739985 
L 832.802727 509.948738 
L 837.495 493.199238 
L 842.187273 495.523517 
L 846.879545 534.562116 
L 851.571818 545.108349 
L 856.264091 533.136865 
L 860.956364 528.660476 
L 865.648636 532.05123 
L 870.340909 511.928829 
L 875.033182 530.376523 
L 879.725455 529.896135 
L 884.417727 541.555249 
L 889.11 554.048778 
L 893.802273 544.764815 
L 898.494545 530.780835 
L 903.186818 549.311301 
L 907.879091 540.028271 
L 912.571364 520.943823 
L 917.263636 539.974377 
L 921.955909 546.249763 
L 926.648182 529.784652 
L 931.340455 541.387017 
L 936.032727 540.157738 
L 940.725 503.130459 
L 945.417273 521.141604 
L 950.109545 536.107376 
L 954.801818 544.286927 
L 959.494091 541.227068 
L 964.186364 552.944535 
L 968.878636 502.494935 
L 973.570909 505.536559 
L 978.263182 509.587276 
L 982.955455 508.308337 
L 987.647727 555.609792 
L 992.34 547.416958 
L 997.032273 534.635636 
L 1001.724545 540.154175 
L 1006.416818 552.909697 
L 1011.109091 526.581344 
L 1015.801364 483.246378 
L 1020.493636 516.886371 
L 1025.185909 433.03325 
L 1029.878182 445.408422 
L 1034.570455 507.81407 
L 1039.262727 529.973777 
L 1043.955 520.933991 
L 1048.647273 532.694571 
L 1053.339545 517.486115 
L 1058.031818 514.754539 
L 1062.724091 525.859148 
L 1067.416364 534.332322 
L 1072.108636 524.291018 
L 1076.800909 541.636632 
L 1081.493182 507.593025 
L 1086.185455 470.170109 
L 1090.877727 485.447644 
L 1095.57 512.883095 
L 1100.262273 531.140469 
L 1104.954545 341.934051 
L 1109.646818 328.731525 
L 1114.339091 479.791561 
L 1119.031364 529.855728 
L 1123.723636 542.314176 
L 1128.415909 546.1412 
L 1133.108182 531.966666 
L 1137.800455 537.856815 
L 1142.492727 540.030864 
L 1147.185 518.262187 
L 1151.877273 542.159749 
L 1151.877273 542.159749 
" style="fill:none;stroke:#008000;stroke-linecap:square;stroke-width:1.5;"/>
   </g>
   <g id="patch_3">
    <path d="M 166.5 661.5 
L 166.5 90.72 
" style="fill:none;stroke:#000000;stroke-linecap:square;stroke-linejoin:miter;stroke-width:0.8;"/>
   </g>
   <g id="patch_4">
    <path d="M 1198.8 661.5 
L 1198.8 90.72 
" style="fill:none;stroke:#000000;stroke-linecap:square;stroke-linejoin:miter;stroke-width:0.8;"/>
   </g>
   <g id="patch_5">
    <path d="M 166.5 661.5 
L 1198.8 661.5 
" style="fill:none;stroke:#000000;stroke-linecap:square;stroke-linejoin:miter;stroke-width:0.8;"/>
   </g>
   <g id="patch_6">
    <path d="M 166.5 90.72 
L 1198.8 90.72 
" style="fill:none;stroke:#000000;stroke-linecap:square;stroke-linejoin:miter;stroke-width:0.8;"/>
   </g>
   <g id="legend_1">
    <g id="patch_7">
     <path d="M 173.5 142.754375 
L 296.164062 142.754375 
Q 298.164062 142.754375 298.164062 140.754375 
L 298.164062 97.72 
Q 298.164062 95.72 296.164062 95.72 
L 173.5 95.72 
Q 171.5 95.72 171.5 97.72 
L 171.5 140.754375 
Q 171.5 142.754375 173.5 142.754375 
z
" style="fill:#ffffff;opacity:0.8;stroke:#cccccc;stroke-linejoin:miter;"/>
    </g>
    <g id="line2d_17">
     <path d="M 175.5 103.818437 
L 195.5 103.818437 
" style="fill:none;stroke:#1f77b4;stroke-linecap:square;stroke-width:1.5;"/>
    </g>
    <g id="line2d_18"/>
    <g id="text_16">
     <!-- Real values -->
     <defs>
      <path d="M 44.390625 34.1875 
Q 47.5625 33.109375 50.5625 29.59375 
Q 53.5625 26.078125 56.59375 19.921875 
L 66.609375 0 
L 56 0 
L 46.6875 18.703125 
Q 43.0625 26.03125 39.671875 28.421875 
Q 36.28125 30.8125 30.421875 30.8125 
L 19.671875 30.8125 
L 19.671875 0 
L 9.8125 0 
L 9.8125 72.90625 
L 32.078125 72.90625 
Q 44.578125 72.90625 50.734375 67.671875 
Q 56.890625 62.453125 56.890625 51.90625 
Q 56.890625 45.015625 53.6875 40.46875 
Q 50.484375 35.9375 44.390625 34.1875 
z
M 19.671875 64.796875 
L 19.671875 38.921875 
L 32.078125 38.921875 
Q 39.203125 38.921875 42.84375 42.21875 
Q 46.484375 45.515625 46.484375 51.90625 
Q 46.484375 58.296875 42.84375 61.546875 
Q 39.203125 64.796875 32.078125 64.796875 
z
" id="DejaVuSans-52"/>
      <path d="M 9.421875 75.984375 
L 18.40625 75.984375 
L 18.40625 0 
L 9.421875 0 
z
" id="DejaVuSans-6c"/>
      <path d="M 2.984375 54.6875 
L 12.5 54.6875 
L 29.59375 8.796875 
L 46.6875 54.6875 
L 56.203125 54.6875 
L 35.6875 0 
L 23.484375 0 
z
" id="DejaVuSans-76"/>
     </defs>
     <g transform="translate(203.5 107.318437)scale(0.1 -0.1)">
      <use xlink:href="#DejaVuSans-52"/>
      <use x="69.419922" xlink:href="#DejaVuSans-65"/>
      <use x="130.943359" xlink:href="#DejaVuSans-61"/>
      <use x="192.222656" xlink:href="#DejaVuSans-6c"/>
      <use x="220.005859" xlink:href="#DejaVuSans-20"/>
      <use x="251.792969" xlink:href="#DejaVuSans-76"/>
      <use x="310.972656" xlink:href="#DejaVuSans-61"/>
      <use x="372.251953" xlink:href="#DejaVuSans-6c"/>
      <use x="400.035156" xlink:href="#DejaVuSans-75"/>
      <use x="463.414062" xlink:href="#DejaVuSans-65"/>
      <use x="524.9375" xlink:href="#DejaVuSans-73"/>
     </g>
    </g>
    <g id="line2d_19">
     <path d="M 175.5 118.496562 
L 195.5 118.496562 
" style="fill:none;stroke:#ff0000;stroke-linecap:square;stroke-width:1.5;"/>
    </g>
    <g id="line2d_20"/>
    <g id="text_17">
     <!-- ARIMA Predictions -->
     <defs>
      <path d="M 34.1875 63.1875 
L 20.796875 26.90625 
L 47.609375 26.90625 
z
M 28.609375 72.90625 
L 39.796875 72.90625 
L 67.578125 0 
L 57.328125 0 
L 50.6875 18.703125 
L 17.828125 18.703125 
L 11.1875 0 
L 0.78125 0 
z
" id="DejaVuSans-41"/>
      <path d="M 9.8125 72.90625 
L 19.671875 72.90625 
L 19.671875 0 
L 9.8125 0 
z
" id="DejaVuSans-49"/>
      <path d="M 19.671875 64.796875 
L 19.671875 37.40625 
L 32.078125 37.40625 
Q 38.96875 37.40625 42.71875 40.96875 
Q 46.484375 44.53125 46.484375 51.125 
Q 46.484375 57.671875 42.71875 61.234375 
Q 38.96875 64.796875 32.078125 64.796875 
z
M 9.8125 72.90625 
L 32.078125 72.90625 
Q 44.34375 72.90625 50.609375 67.359375 
Q 56.890625 61.8125 56.890625 51.125 
Q 56.890625 40.328125 50.609375 34.8125 
Q 44.34375 29.296875 32.078125 29.296875 
L 19.671875 29.296875 
L 19.671875 0 
L 9.8125 0 
z
" id="DejaVuSans-50"/>
      <path d="M 41.109375 46.296875 
Q 39.59375 47.171875 37.8125 47.578125 
Q 36.03125 48 33.890625 48 
Q 26.265625 48 22.1875 43.046875 
Q 18.109375 38.09375 18.109375 28.8125 
L 18.109375 0 
L 9.078125 0 
L 9.078125 54.6875 
L 18.109375 54.6875 
L 18.109375 46.1875 
Q 20.953125 51.171875 25.484375 53.578125 
Q 30.03125 56 36.53125 56 
Q 37.453125 56 38.578125 55.875 
Q 39.703125 55.765625 41.0625 55.515625 
z
" id="DejaVuSans-72"/>
      <path d="M 48.78125 52.59375 
L 48.78125 44.1875 
Q 44.96875 46.296875 41.140625 47.34375 
Q 37.3125 48.390625 33.40625 48.390625 
Q 24.65625 48.390625 19.8125 42.84375 
Q 14.984375 37.3125 14.984375 27.296875 
Q 14.984375 17.28125 19.8125 11.734375 
Q 24.65625 6.203125 33.40625 6.203125 
Q 37.3125 6.203125 41.140625 7.25 
Q 44.96875 8.296875 48.78125 10.40625 
L 48.78125 2.09375 
Q 45.015625 0.34375 40.984375 -0.53125 
Q 36.96875 -1.421875 32.421875 -1.421875 
Q 20.0625 -1.421875 12.78125 6.34375 
Q 5.515625 14.109375 5.515625 27.296875 
Q 5.515625 40.671875 12.859375 48.328125 
Q 20.21875 56 33.015625 56 
Q 37.15625 56 41.109375 55.140625 
Q 45.0625 54.296875 48.78125 52.59375 
z
" id="DejaVuSans-63"/>
      <path d="M 30.609375 48.390625 
Q 23.390625 48.390625 19.1875 42.75 
Q 14.984375 37.109375 14.984375 27.296875 
Q 14.984375 17.484375 19.15625 11.84375 
Q 23.34375 6.203125 30.609375 6.203125 
Q 37.796875 6.203125 41.984375 11.859375 
Q 46.1875 17.53125 46.1875 27.296875 
Q 46.1875 37.015625 41.984375 42.703125 
Q 37.796875 48.390625 30.609375 48.390625 
z
M 30.609375 56 
Q 42.328125 56 49.015625 48.375 
Q 55.71875 40.765625 55.71875 27.296875 
Q 55.71875 13.875 49.015625 6.21875 
Q 42.328125 -1.421875 30.609375 -1.421875 
Q 18.84375 -1.421875 12.171875 6.21875 
Q 5.515625 13.875 5.515625 27.296875 
Q 5.515625 40.765625 12.171875 48.375 
Q 18.84375 56 30.609375 56 
z
" id="DejaVuSans-6f"/>
     </defs>
     <g transform="translate(203.5 121.996562)scale(0.1 -0.1)">
      <use xlink:href="#DejaVuSans-41"/>
      <use x="68.408203" xlink:href="#DejaVuSans-52"/>
      <use x="137.890625" xlink:href="#DejaVuSans-49"/>
      <use x="167.382812" xlink:href="#DejaVuSans-4d"/>
      <use x="253.662109" xlink:href="#DejaVuSans-41"/>
      <use x="322.070312" xlink:href="#DejaVuSans-20"/>
      <use x="353.857422" xlink:href="#DejaVuSans-50"/>
      <use x="414.144531" xlink:href="#DejaVuSans-72"/>
      <use x="455.226562" xlink:href="#DejaVuSans-65"/>
      <use x="516.75" xlink:href="#DejaVuSans-64"/>
      <use x="580.226562" xlink:href="#DejaVuSans-69"/>
      <use x="608.009766" xlink:href="#DejaVuSans-63"/>
      <use x="662.990234" xlink:href="#DejaVuSans-74"/>
      <use x="702.199219" xlink:href="#DejaVuSans-69"/>
      <use x="729.982422" xlink:href="#DejaVuSans-6f"/>
      <use x="791.164062" xlink:href="#DejaVuSans-6e"/>
      <use x="854.542969" xlink:href="#DejaVuSans-73"/>
     </g>
    </g>
    <g id="line2d_21">
     <path d="M 175.5 133.174688 
L 195.5 133.174688 
" style="fill:none;stroke:#008000;stroke-linecap:square;stroke-width:1.5;"/>
    </g>
    <g id="line2d_22"/>
    <g id="text_18">
     <!-- LSTM Predictions -->
     <defs>
      <path d="M 9.8125 72.90625 
L 19.671875 72.90625 
L 19.671875 8.296875 
L 55.171875 8.296875 
L 55.171875 0 
L 9.8125 0 
z
" id="DejaVuSans-4c"/>
      <path d="M -0.296875 72.90625 
L 61.375 72.90625 
L 61.375 64.59375 
L 35.5 64.59375 
L 35.5 0 
L 25.59375 0 
L 25.59375 64.59375 
L -0.296875 64.59375 
z
" id="DejaVuSans-54"/>
     </defs>
     <g transform="translate(203.5 136.674688)scale(0.1 -0.1)">
      <use xlink:href="#DejaVuSans-4c"/>
      <use x="55.712891" xlink:href="#DejaVuSans-53"/>
      <use x="119.189453" xlink:href="#DejaVuSans-54"/>
      <use x="180.273438" xlink:href="#DejaVuSans-4d"/>
      <use x="266.552734" xlink:href="#DejaVuSans-20"/>
      <use x="298.339844" xlink:href="#DejaVuSans-50"/>
      <use x="358.626953" xlink:href="#DejaVuSans-72"/>
      <use x="399.708984" xlink:href="#DejaVuSans-65"/>
      <use x="461.232422" xlink:href="#DejaVuSans-64"/>
      <use x="524.708984" xlink:href="#DejaVuSans-69"/>
      <use x="552.492188" xlink:href="#DejaVuSans-63"/>
      <use x="607.472656" xlink:href="#DejaVuSans-74"/>
      <use x="646.681641" xlink:href="#DejaVuSans-69"/>
      <use x="674.464844" xlink:href="#DejaVuSans-6f"/>
      <use x="735.646484" xlink:href="#DejaVuSans-6e"/>
      <use x="799.025391" xlink:href="#DejaVuSans-73"/>
     </g>
    </g>
   </g>
  </g>
 </g>
 <defs>
  <clipPath id="pcc2b399b22">
   <rect height="570.78" width="1032.3" x="166.5" y="90.72"/>
  </clipPath>
 </defs>
</svg>
