<?xml version="1.0" encoding="utf-8" standalone="no"?>
<!DOCTYPE svg PUBLIC "-//W3C//DTD SVG 1.1//EN"
  "http://www.w3.org/Graphics/SVG/1.1/DTD/svg11.dtd">
<!-- Created with matplotlib (http://matplotlib.org/) -->
<svg height="756pt" version="1.1" viewBox="0 0 1332 756" width="1332pt" xmlns="http://www.w3.org/2000/svg" xmlns:xlink="http://www.w3.org/1999/xlink">
 <defs>
  <style type="text/css">
*{stroke-linecap:butt;stroke-linejoin:round;}
  </style>
 </defs>
 <g id="figure_1">
  <g id="patch_1">
   <path d="M 0 756 
L 1332 756 
L 1332 0 
L 0 0 
z
" style="fill:#ffffff;"/>
  </g>
  <g id="axes_1">
   <g id="patch_2">
    <path d="M 166.5 661.5 
L 1198.8 661.5 
L 1198.8 90.72 
L 166.5 90.72 
z
" style="fill:#ffffff;"/>
   </g>
   <g id="matplotlib.axis_1">
    <g id="xtick_1">
     <g id="line2d_1">
      <defs>
       <path d="M 0 0 
L 0 3.5 
" id="m4f2e0af090" style="stroke:#000000;stroke-width:0.8;"/>
      </defs>
      <g>
       <use style="stroke:#000000;stroke-width:0.8;" x="218.115" xlink:href="#m4f2e0af090" y="661.5"/>
      </g>
     </g>
     <g id="text_1">
      <!-- 0 -->
      <defs>
       <path d="M 31.78125 66.40625 
Q 24.171875 66.40625 20.328125 58.90625 
Q 16.5 51.421875 16.5 36.375 
Q 16.5 21.390625 20.328125 13.890625 
Q 24.171875 6.390625 31.78125 6.390625 
Q 39.453125 6.390625 43.28125 13.890625 
Q 47.125 21.390625 47.125 36.375 
Q 47.125 51.421875 43.28125 58.90625 
Q 39.453125 66.40625 31.78125 66.40625 
z
M 31.78125 74.21875 
Q 44.046875 74.21875 50.515625 64.515625 
Q 56.984375 54.828125 56.984375 36.375 
Q 56.984375 17.96875 50.515625 8.265625 
Q 44.046875 -1.421875 31.78125 -1.421875 
Q 19.53125 -1.421875 13.0625 8.265625 
Q 6.59375 17.96875 6.59375 36.375 
Q 6.59375 54.828125 13.0625 64.515625 
Q 19.53125 74.21875 31.78125 74.21875 
z
" id="DejaVuSans-30"/>
      </defs>
      <g transform="translate(213.343125 679.897656)scale(0.15 -0.15)">
       <use xlink:href="#DejaVuSans-30"/>
      </g>
     </g>
    </g>
    <g id="xtick_2">
     <g id="line2d_2">
      <g>
       <use style="stroke:#000000;stroke-width:0.8;" x="335.421818" xlink:href="#m4f2e0af090" y="661.5"/>
      </g>
     </g>
     <g id="text_2">
      <!-- 25 -->
      <defs>
       <path d="M 19.1875 8.296875 
L 53.609375 8.296875 
L 53.609375 0 
L 7.328125 0 
L 7.328125 8.296875 
Q 12.9375 14.109375 22.625 23.890625 
Q 32.328125 33.6875 34.8125 36.53125 
Q 39.546875 41.84375 41.421875 45.53125 
Q 43.3125 49.21875 43.3125 52.78125 
Q 43.3125 58.59375 39.234375 62.25 
Q 35.15625 65.921875 28.609375 65.921875 
Q 23.96875 65.921875 18.8125 64.3125 
Q 13.671875 62.703125 7.8125 59.421875 
L 7.8125 69.390625 
Q 13.765625 71.78125 18.9375 73 
Q 24.125 74.21875 28.421875 74.21875 
Q 39.75 74.21875 46.484375 68.546875 
Q 53.21875 62.890625 53.21875 53.421875 
Q 53.21875 48.921875 51.53125 44.890625 
Q 49.859375 40.875 45.40625 35.40625 
Q 44.1875 33.984375 37.640625 27.21875 
Q 31.109375 20.453125 19.1875 8.296875 
z
" id="DejaVuSans-32"/>
       <path d="M 10.796875 72.90625 
L 49.515625 72.90625 
L 49.515625 64.59375 
L 19.828125 64.59375 
L 19.828125 46.734375 
Q 21.96875 47.46875 24.109375 47.828125 
Q 26.265625 48.1875 28.421875 48.1875 
Q 40.625 48.1875 47.75 41.5 
Q 54.890625 34.8125 54.890625 23.390625 
Q 54.890625 11.625 47.5625 5.09375 
Q 40.234375 -1.421875 26.90625 -1.421875 
Q 22.3125 -1.421875 17.546875 -0.640625 
Q 12.796875 0.140625 7.71875 1.703125 
L 7.71875 11.625 
Q 12.109375 9.234375 16.796875 8.0625 
Q 21.484375 6.890625 26.703125 6.890625 
Q 35.15625 6.890625 40.078125 11.328125 
Q 45.015625 15.765625 45.015625 23.390625 
Q 45.015625 31 40.078125 35.4375 
Q 35.15625 39.890625 26.703125 39.890625 
Q 22.75 39.890625 18.8125 39.015625 
Q 14.890625 38.140625 10.796875 36.28125 
z
" id="DejaVuSans-35"/>
      </defs>
      <g transform="translate(325.878068 679.897656)scale(0.15 -0.15)">
       <use xlink:href="#DejaVuSans-32"/>
       <use x="63.623047" xlink:href="#DejaVuSans-35"/>
      </g>
     </g>
    </g>
    <g id="xtick_3">
     <g id="line2d_3">
      <g>
       <use style="stroke:#000000;stroke-width:0.8;" x="452.728636" xlink:href="#m4f2e0af090" y="661.5"/>
      </g>
     </g>
     <g id="text_3">
      <!-- 50 -->
      <g transform="translate(443.184886 679.897656)scale(0.15 -0.15)">
       <use xlink:href="#DejaVuSans-35"/>
       <use x="63.623047" xlink:href="#DejaVuSans-30"/>
      </g>
     </g>
    </g>
    <g id="xtick_4">
     <g id="line2d_4">
      <g>
       <use style="stroke:#000000;stroke-width:0.8;" x="570.035455" xlink:href="#m4f2e0af090" y="661.5"/>
      </g>
     </g>
     <g id="text_4">
      <!-- 75 -->
      <defs>
       <path d="M 8.203125 72.90625 
L 55.078125 72.90625 
L 55.078125 68.703125 
L 28.609375 0 
L 18.3125 0 
L 43.21875 64.59375 
L 8.203125 64.59375 
z
" id="DejaVuSans-37"/>
      </defs>
      <g transform="translate(560.491705 679.897656)scale(0.15 -0.15)">
       <use xlink:href="#DejaVuSans-37"/>
       <use x="63.623047" xlink:href="#DejaVuSans-35"/>
      </g>
     </g>
    </g>
    <g id="xtick_5">
     <g id="line2d_5">
      <g>
       <use style="stroke:#000000;stroke-width:0.8;" x="687.342273" xlink:href="#m4f2e0af090" y="661.5"/>
      </g>
     </g>
     <g id="text_5">
      <!-- 100 -->
      <defs>
       <path d="M 12.40625 8.296875 
L 28.515625 8.296875 
L 28.515625 63.921875 
L 10.984375 60.40625 
L 10.984375 69.390625 
L 28.421875 72.90625 
L 38.28125 72.90625 
L 38.28125 8.296875 
L 54.390625 8.296875 
L 54.390625 0 
L 12.40625 0 
z
" id="DejaVuSans-31"/>
      </defs>
      <g transform="translate(673.026648 679.897656)scale(0.15 -0.15)">
       <use xlink:href="#DejaVuSans-31"/>
       <use x="63.623047" xlink:href="#DejaVuSans-30"/>
       <use x="127.246094" xlink:href="#DejaVuSans-30"/>
      </g>
     </g>
    </g>
    <g id="xtick_6">
     <g id="line2d_6">
      <g>
       <use style="stroke:#000000;stroke-width:0.8;" x="804.649091" xlink:href="#m4f2e0af090" y="661.5"/>
      </g>
     </g>
     <g id="text_6">
      <!-- 125 -->
      <g transform="translate(790.333466 679.897656)scale(0.15 -0.15)">
       <use xlink:href="#DejaVuSans-31"/>
       <use x="63.623047" xlink:href="#DejaVuSans-32"/>
       <use x="127.246094" xlink:href="#DejaVuSans-35"/>
      </g>
     </g>
    </g>
    <g id="xtick_7">
     <g id="line2d_7">
      <g>
       <use style="stroke:#000000;stroke-width:0.8;" x="921.955909" xlink:href="#m4f2e0af090" y="661.5"/>
      </g>
     </g>
     <g id="text_7">
      <!-- 150 -->
      <g transform="translate(907.640284 679.897656)scale(0.15 -0.15)">
       <use xlink:href="#DejaVuSans-31"/>
       <use x="63.623047" xlink:href="#DejaVuSans-35"/>
       <use x="127.246094" xlink:href="#DejaVuSans-30"/>
      </g>
     </g>
    </g>
    <g id="xtick_8">
     <g id="line2d_8">
      <g>
       <use style="stroke:#000000;stroke-width:0.8;" x="1039.262727" xlink:href="#m4f2e0af090" y="661.5"/>
      </g>
     </g>
     <g id="text_8">
      <!-- 175 -->
      <g transform="translate(1024.947102 679.897656)scale(0.15 -0.15)">
       <use xlink:href="#DejaVuSans-31"/>
       <use x="63.623047" xlink:href="#DejaVuSans-37"/>
       <use x="127.246094" xlink:href="#DejaVuSans-35"/>
      </g>
     </g>
    </g>
    <g id="xtick_9">
     <g id="line2d_9">
      <g>
       <use style="stroke:#000000;stroke-width:0.8;" x="1156.569545" xlink:href="#m4f2e0af090" y="661.5"/>
      </g>
     </g>
     <g id="text_9">
      <!-- 200 -->
      <g transform="translate(1142.25392 679.897656)scale(0.15 -0.15)">
       <use xlink:href="#DejaVuSans-32"/>
       <use x="63.623047" xlink:href="#DejaVuSans-30"/>
       <use x="127.246094" xlink:href="#DejaVuSans-30"/>
      </g>
     </g>
    </g>
    <g id="text_10">
     <!-- 15-Minute Steps -->
     <defs>
      <path d="M 4.890625 31.390625 
L 31.203125 31.390625 
L 31.203125 23.390625 
L 4.890625 23.390625 
z
" id="DejaVuSans-2d"/>
      <path d="M 9.8125 72.90625 
L 24.515625 72.90625 
L 43.109375 23.296875 
L 61.8125 72.90625 
L 76.515625 72.90625 
L 76.515625 0 
L 66.890625 0 
L 66.890625 64.015625 
L 48.09375 14.015625 
L 38.1875 14.015625 
L 19.390625 64.015625 
L 19.390625 0 
L 9.8125 0 
z
" id="DejaVuSans-4d"/>
      <path d="M 9.421875 54.6875 
L 18.40625 54.6875 
L 18.40625 0 
L 9.421875 0 
z
M 9.421875 75.984375 
L 18.40625 75.984375 
L 18.40625 64.59375 
L 9.421875 64.59375 
z
" id="DejaVuSans-69"/>
      <path d="M 54.890625 33.015625 
L 54.890625 0 
L 45.90625 0 
L 45.90625 32.71875 
Q 45.90625 40.484375 42.875 44.328125 
Q 39.84375 48.1875 33.796875 48.1875 
Q 26.515625 48.1875 22.3125 43.546875 
Q 18.109375 38.921875 18.109375 30.90625 
L 18.109375 0 
L 9.078125 0 
L 9.078125 54.6875 
L 18.109375 54.6875 
L 18.109375 46.1875 
Q 21.34375 51.125 25.703125 53.5625 
Q 30.078125 56 35.796875 56 
Q 45.21875 56 50.046875 50.171875 
Q 54.890625 44.34375 54.890625 33.015625 
z
" id="DejaVuSans-6e"/>
      <path d="M 8.5 21.578125 
L 8.5 54.6875 
L 17.484375 54.6875 
L 17.484375 21.921875 
Q 17.484375 14.15625 20.5 10.265625 
Q 23.53125 6.390625 29.59375 6.390625 
Q 36.859375 6.390625 41.078125 11.03125 
Q 45.3125 15.671875 45.3125 23.6875 
L 45.3125 54.6875 
L 54.296875 54.6875 
L 54.296875 0 
L 45.3125 0 
L 45.3125 8.40625 
Q 42.046875 3.421875 37.71875 1 
Q 33.40625 -1.421875 27.6875 -1.421875 
Q 18.265625 -1.421875 13.375 4.4375 
Q 8.5 10.296875 8.5 21.578125 
z
M 31.109375 56 
z
" id="DejaVuSans-75"/>
      <path d="M 18.3125 70.21875 
L 18.3125 54.6875 
L 36.8125 54.6875 
L 36.8125 47.703125 
L 18.3125 47.703125 
L 18.3125 18.015625 
Q 18.3125 11.328125 20.140625 9.421875 
Q 21.96875 7.515625 27.59375 7.515625 
L 36.8125 7.515625 
L 36.8125 0 
L 27.59375 0 
Q 17.1875 0 13.234375 3.875 
Q 9.28125 7.765625 9.28125 18.015625 
L 9.28125 47.703125 
L 2.6875 47.703125 
L 2.6875 54.6875 
L 9.28125 54.6875 
L 9.28125 70.21875 
z
" id="DejaVuSans-74"/>
      <path d="M 56.203125 29.59375 
L 56.203125 25.203125 
L 14.890625 25.203125 
Q 15.484375 15.921875 20.484375 11.0625 
Q 25.484375 6.203125 34.421875 6.203125 
Q 39.59375 6.203125 44.453125 7.46875 
Q 49.3125 8.734375 54.109375 11.28125 
L 54.109375 2.78125 
Q 49.265625 0.734375 44.1875 -0.34375 
Q 39.109375 -1.421875 33.890625 -1.421875 
Q 20.796875 -1.421875 13.15625 6.1875 
Q 5.515625 13.8125 5.515625 26.8125 
Q 5.515625 40.234375 12.765625 48.109375 
Q 20.015625 56 32.328125 56 
Q 43.359375 56 49.78125 48.890625 
Q 56.203125 41.796875 56.203125 29.59375 
z
M 47.21875 32.234375 
Q 47.125 39.59375 43.09375 43.984375 
Q 39.0625 48.390625 32.421875 48.390625 
Q 24.90625 48.390625 20.390625 44.140625 
Q 15.875 39.890625 15.1875 32.171875 
z
" id="DejaVuSans-65"/>
      <path id="DejaVuSans-20"/>
      <path d="M 53.515625 70.515625 
L 53.515625 60.890625 
Q 47.90625 63.578125 42.921875 64.890625 
Q 37.9375 66.21875 33.296875 66.21875 
Q 25.25 66.21875 20.875 63.09375 
Q 16.5 59.96875 16.5 54.203125 
Q 16.5 49.359375 19.40625 46.890625 
Q 22.3125 44.4375 30.421875 42.921875 
L 36.375 41.703125 
Q 47.40625 39.59375 52.65625 34.296875 
Q 57.90625 29 57.90625 20.125 
Q 57.90625 9.515625 50.796875 4.046875 
Q 43.703125 -1.421875 29.984375 -1.421875 
Q 24.8125 -1.421875 18.96875 -0.25 
Q 13.140625 0.921875 6.890625 3.21875 
L 6.890625 13.375 
Q 12.890625 10.015625 18.65625 8.296875 
Q 24.421875 6.59375 29.984375 6.59375 
Q 38.421875 6.59375 43.015625 9.90625 
Q 47.609375 13.234375 47.609375 19.390625 
Q 47.609375 24.75 44.3125 27.78125 
Q 41.015625 30.8125 33.5 32.328125 
L 27.484375 33.5 
Q 16.453125 35.6875 11.515625 40.375 
Q 6.59375 45.0625 6.59375 53.421875 
Q 6.59375 63.09375 13.40625 68.65625 
Q 20.21875 74.21875 32.171875 74.21875 
Q 37.3125 74.21875 42.625 73.28125 
Q 47.953125 72.359375 53.515625 70.515625 
z
" id="DejaVuSans-53"/>
      <path d="M 18.109375 8.203125 
L 18.109375 -20.796875 
L 9.078125 -20.796875 
L 9.078125 54.6875 
L 18.109375 54.6875 
L 18.109375 46.390625 
Q 20.953125 51.265625 25.265625 53.625 
Q 29.59375 56 35.59375 56 
Q 45.5625 56 51.78125 48.09375 
Q 58.015625 40.1875 58.015625 27.296875 
Q 58.015625 14.40625 51.78125 6.484375 
Q 45.5625 -1.421875 35.59375 -1.421875 
Q 29.59375 -1.421875 25.265625 0.953125 
Q 20.953125 3.328125 18.109375 8.203125 
z
M 48.6875 27.296875 
Q 48.6875 37.203125 44.609375 42.84375 
Q 40.53125 48.484375 33.40625 48.484375 
Q 26.265625 48.484375 22.1875 42.84375 
Q 18.109375 37.203125 18.109375 27.296875 
Q 18.109375 17.390625 22.1875 11.75 
Q 26.265625 6.109375 33.40625 6.109375 
Q 40.53125 6.109375 44.609375 11.75 
Q 48.6875 17.390625 48.6875 27.296875 
z
" id="DejaVuSans-70"/>
      <path d="M 44.28125 53.078125 
L 44.28125 44.578125 
Q 40.484375 46.53125 36.375 47.5 
Q 32.28125 48.484375 27.875 48.484375 
Q 21.1875 48.484375 17.84375 46.4375 
Q 14.5 44.390625 14.5 40.28125 
Q 14.5 37.15625 16.890625 35.375 
Q 19.28125 33.59375 26.515625 31.984375 
L 29.59375 31.296875 
Q 39.15625 29.25 43.1875 25.515625 
Q 47.21875 21.78125 47.21875 15.09375 
Q 47.21875 7.46875 41.1875 3.015625 
Q 35.15625 -1.421875 24.609375 -1.421875 
Q 20.21875 -1.421875 15.453125 -0.5625 
Q 10.6875 0.296875 5.421875 2 
L 5.421875 11.28125 
Q 10.40625 8.6875 15.234375 7.390625 
Q 20.0625 6.109375 24.8125 6.109375 
Q 31.15625 6.109375 34.5625 8.28125 
Q 37.984375 10.453125 37.984375 14.40625 
Q 37.984375 18.0625 35.515625 20.015625 
Q 33.0625 21.96875 24.703125 23.78125 
L 21.578125 24.515625 
Q 13.234375 26.265625 9.515625 29.90625 
Q 5.8125 33.546875 5.8125 39.890625 
Q 5.8125 47.609375 11.28125 51.796875 
Q 16.75 56 26.8125 56 
Q 31.78125 56 36.171875 55.265625 
Q 40.578125 54.546875 44.28125 53.078125 
z
" id="DejaVuSans-73"/>
     </defs>
     <g transform="translate(641.827344 694.615625)scale(0.1 -0.1)">
      <use xlink:href="#DejaVuSans-31"/>
      <use x="63.623047" xlink:href="#DejaVuSans-35"/>
      <use x="127.246094" xlink:href="#DejaVuSans-2d"/>
      <use x="163.330078" xlink:href="#DejaVuSans-4d"/>
      <use x="249.609375" xlink:href="#DejaVuSans-69"/>
      <use x="277.392578" xlink:href="#DejaVuSans-6e"/>
      <use x="340.771484" xlink:href="#DejaVuSans-75"/>
      <use x="404.150391" xlink:href="#DejaVuSans-74"/>
      <use x="443.359375" xlink:href="#DejaVuSans-65"/>
      <use x="504.882812" xlink:href="#DejaVuSans-20"/>
      <use x="536.669922" xlink:href="#DejaVuSans-53"/>
      <use x="600.146484" xlink:href="#DejaVuSans-74"/>
      <use x="639.355469" xlink:href="#DejaVuSans-65"/>
      <use x="700.878906" xlink:href="#DejaVuSans-70"/>
      <use x="764.355469" xlink:href="#DejaVuSans-73"/>
     </g>
    </g>
   </g>
   <g id="matplotlib.axis_2">
    <g id="ytick_1">
     <g id="line2d_10">
      <defs>
       <path d="M 0 0 
L -3.5 0 
" id="mbffebee473" style="stroke:#000000;stroke-width:0.8;"/>
      </defs>
      <g>
       <use style="stroke:#000000;stroke-width:0.8;" x="166.5" xlink:href="#mbffebee473" y="637.08643"/>
      </g>
     </g>
     <g id="text_11">
      <!-- 0 -->
      <g transform="translate(149.95625 642.785258)scale(0.15 -0.15)">
       <use xlink:href="#DejaVuSans-30"/>
      </g>
     </g>
    </g>
    <g id="ytick_2">
     <g id="line2d_11">
      <g>
       <use style="stroke:#000000;stroke-width:0.8;" x="166.5" xlink:href="#mbffebee473" y="527.137731"/>
      </g>
     </g>
     <g id="text_12">
      <!-- 2000 -->
      <g transform="translate(121.325 532.836559)scale(0.15 -0.15)">
       <use xlink:href="#DejaVuSans-32"/>
       <use x="63.623047" xlink:href="#DejaVuSans-30"/>
       <use x="127.246094" xlink:href="#DejaVuSans-30"/>
       <use x="190.869141" xlink:href="#DejaVuSans-30"/>
      </g>
     </g>
    </g>
    <g id="ytick_3">
     <g id="line2d_12">
      <g>
       <use style="stroke:#000000;stroke-width:0.8;" x="166.5" xlink:href="#mbffebee473" y="417.189033"/>
      </g>
     </g>
     <g id="text_13">
      <!-- 4000 -->
      <defs>
       <path d="M 37.796875 64.3125 
L 12.890625 25.390625 
L 37.796875 25.390625 
z
M 35.203125 72.90625 
L 47.609375 72.90625 
L 47.609375 25.390625 
L 58.015625 25.390625 
L 58.015625 17.1875 
L 47.609375 17.1875 
L 47.609375 0 
L 37.796875 0 
L 37.796875 17.1875 
L 4.890625 17.1875 
L 4.890625 26.703125 
z
" id="DejaVuSans-34"/>
      </defs>
      <g transform="translate(121.325 422.887861)scale(0.15 -0.15)">
       <use xlink:href="#DejaVuSans-34"/>
       <use x="63.623047" xlink:href="#DejaVuSans-30"/>
       <use x="127.246094" xlink:href="#DejaVuSans-30"/>
       <use x="190.869141" xlink:href="#DejaVuSans-30"/>
      </g>
     </g>
    </g>
    <g id="ytick_4">
     <g id="line2d_13">
      <g>
       <use style="stroke:#000000;stroke-width:0.8;" x="166.5" xlink:href="#mbffebee473" y="307.240334"/>
      </g>
     </g>
     <g id="text_14">
      <!-- 6000 -->
      <defs>
       <path d="M 33.015625 40.375 
Q 26.375 40.375 22.484375 35.828125 
Q 18.609375 31.296875 18.609375 23.390625 
Q 18.609375 15.53125 22.484375 10.953125 
Q 26.375 6.390625 33.015625 6.390625 
Q 39.65625 6.390625 43.53125 10.953125 
Q 47.40625 15.53125 47.40625 23.390625 
Q 47.40625 31.296875 43.53125 35.828125 
Q 39.65625 40.375 33.015625 40.375 
z
M 52.59375 71.296875 
L 52.59375 62.3125 
Q 48.875 64.0625 45.09375 64.984375 
Q 41.3125 65.921875 37.59375 65.921875 
Q 27.828125 65.921875 22.671875 59.328125 
Q 17.53125 52.734375 16.796875 39.40625 
Q 19.671875 43.65625 24.015625 45.921875 
Q 28.375 48.1875 33.59375 48.1875 
Q 44.578125 48.1875 50.953125 41.515625 
Q 57.328125 34.859375 57.328125 23.390625 
Q 57.328125 12.15625 50.6875 5.359375 
Q 44.046875 -1.421875 33.015625 -1.421875 
Q 20.359375 -1.421875 13.671875 8.265625 
Q 6.984375 17.96875 6.984375 36.375 
Q 6.984375 53.65625 15.1875 63.9375 
Q 23.390625 74.21875 37.203125 74.21875 
Q 40.921875 74.21875 44.703125 73.484375 
Q 48.484375 72.75 52.59375 71.296875 
z
" id="DejaVuSans-36"/>
      </defs>
      <g transform="translate(121.325 312.939162)scale(0.15 -0.15)">
       <use xlink:href="#DejaVuSans-36"/>
       <use x="63.623047" xlink:href="#DejaVuSans-30"/>
       <use x="127.246094" xlink:href="#DejaVuSans-30"/>
       <use x="190.869141" xlink:href="#DejaVuSans-30"/>
      </g>
     </g>
    </g>
    <g id="ytick_5">
     <g id="line2d_14">
      <g>
       <use style="stroke:#000000;stroke-width:0.8;" x="166.5" xlink:href="#mbffebee473" y="197.291636"/>
      </g>
     </g>
     <g id="text_15">
      <!-- 8000 -->
      <defs>
       <path d="M 31.78125 34.625 
Q 24.75 34.625 20.71875 30.859375 
Q 16.703125 27.09375 16.703125 20.515625 
Q 16.703125 13.921875 20.71875 10.15625 
Q 24.75 6.390625 31.78125 6.390625 
Q 38.8125 6.390625 42.859375 10.171875 
Q 46.921875 13.96875 46.921875 20.515625 
Q 46.921875 27.09375 42.890625 30.859375 
Q 38.875 34.625 31.78125 34.625 
z
M 21.921875 38.8125 
Q 15.578125 40.375 12.03125 44.71875 
Q 8.5 49.078125 8.5 55.328125 
Q 8.5 64.0625 14.71875 69.140625 
Q 20.953125 74.21875 31.78125 74.21875 
Q 42.671875 74.21875 48.875 69.140625 
Q 55.078125 64.0625 55.078125 55.328125 
Q 55.078125 49.078125 51.53125 44.71875 
Q 48 40.375 41.703125 38.8125 
Q 48.828125 37.15625 52.796875 32.3125 
Q 56.78125 27.484375 56.78125 20.515625 
Q 56.78125 9.90625 50.3125 4.234375 
Q 43.84375 -1.421875 31.78125 -1.421875 
Q 19.734375 -1.421875 13.25 4.234375 
Q 6.78125 9.90625 6.78125 20.515625 
Q 6.78125 27.484375 10.78125 32.3125 
Q 14.796875 37.15625 21.921875 38.8125 
z
M 18.3125 54.390625 
Q 18.3125 48.734375 21.84375 45.5625 
Q 25.390625 42.390625 31.78125 42.390625 
Q 38.140625 42.390625 41.71875 45.5625 
Q 45.3125 48.734375 45.3125 54.390625 
Q 45.3125 60.0625 41.71875 63.234375 
Q 38.140625 66.40625 31.78125 66.40625 
Q 25.390625 66.40625 21.84375 63.234375 
Q 18.3125 60.0625 18.3125 54.390625 
z
" id="DejaVuSans-38"/>
      </defs>
      <g transform="translate(121.325 202.990464)scale(0.15 -0.15)">
       <use xlink:href="#DejaVuSans-38"/>
       <use x="63.623047" xlink:href="#DejaVuSans-30"/>
       <use x="127.246094" xlink:href="#DejaVuSans-30"/>
       <use x="190.869141" xlink:href="#DejaVuSans-30"/>
      </g>
     </g>
    </g>
    <g id="text_16">
     <!-- Bandwidth (kbps) -->
     <defs>
      <path d="M 19.671875 34.8125 
L 19.671875 8.109375 
L 35.5 8.109375 
Q 43.453125 8.109375 47.28125 11.40625 
Q 51.125 14.703125 51.125 21.484375 
Q 51.125 28.328125 47.28125 31.5625 
Q 43.453125 34.8125 35.5 34.8125 
z
M 19.671875 64.796875 
L 19.671875 42.828125 
L 34.28125 42.828125 
Q 41.5 42.828125 45.03125 45.53125 
Q 48.578125 48.25 48.578125 53.8125 
Q 48.578125 59.328125 45.03125 62.0625 
Q 41.5 64.796875 34.28125 64.796875 
z
M 9.8125 72.90625 
L 35.015625 72.90625 
Q 46.296875 72.90625 52.390625 68.21875 
Q 58.5 63.53125 58.5 54.890625 
Q 58.5 48.1875 55.375 44.234375 
Q 52.25 40.28125 46.1875 39.3125 
Q 53.46875 37.75 57.5 32.78125 
Q 61.53125 27.828125 61.53125 20.40625 
Q 61.53125 10.640625 54.890625 5.3125 
Q 48.25 0 35.984375 0 
L 9.8125 0 
z
" id="DejaVuSans-42"/>
      <path d="M 34.28125 27.484375 
Q 23.390625 27.484375 19.1875 25 
Q 14.984375 22.515625 14.984375 16.5 
Q 14.984375 11.71875 18.140625 8.90625 
Q 21.296875 6.109375 26.703125 6.109375 
Q 34.1875 6.109375 38.703125 11.40625 
Q 43.21875 16.703125 43.21875 25.484375 
L 43.21875 27.484375 
z
M 52.203125 31.203125 
L 52.203125 0 
L 43.21875 0 
L 43.21875 8.296875 
Q 40.140625 3.328125 35.546875 0.953125 
Q 30.953125 -1.421875 24.3125 -1.421875 
Q 15.921875 -1.421875 10.953125 3.296875 
Q 6 8.015625 6 15.921875 
Q 6 25.140625 12.171875 29.828125 
Q 18.359375 34.515625 30.609375 34.515625 
L 43.21875 34.515625 
L 43.21875 35.40625 
Q 43.21875 41.609375 39.140625 45 
Q 35.0625 48.390625 27.6875 48.390625 
Q 23 48.390625 18.546875 47.265625 
Q 14.109375 46.140625 10.015625 43.890625 
L 10.015625 52.203125 
Q 14.9375 54.109375 19.578125 55.046875 
Q 24.21875 56 28.609375 56 
Q 40.484375 56 46.34375 49.84375 
Q 52.203125 43.703125 52.203125 31.203125 
z
" id="DejaVuSans-61"/>
      <path d="M 45.40625 46.390625 
L 45.40625 75.984375 
L 54.390625 75.984375 
L 54.390625 0 
L 45.40625 0 
L 45.40625 8.203125 
Q 42.578125 3.328125 38.25 0.953125 
Q 33.9375 -1.421875 27.875 -1.421875 
Q 17.96875 -1.421875 11.734375 6.484375 
Q 5.515625 14.40625 5.515625 27.296875 
Q 5.515625 40.1875 11.734375 48.09375 
Q 17.96875 56 27.875 56 
Q 33.9375 56 38.25 53.625 
Q 42.578125 51.265625 45.40625 46.390625 
z
M 14.796875 27.296875 
Q 14.796875 17.390625 18.875 11.75 
Q 22.953125 6.109375 30.078125 6.109375 
Q 37.203125 6.109375 41.296875 11.75 
Q 45.40625 17.390625 45.40625 27.296875 
Q 45.40625 37.203125 41.296875 42.84375 
Q 37.203125 48.484375 30.078125 48.484375 
Q 22.953125 48.484375 18.875 42.84375 
Q 14.796875 37.203125 14.796875 27.296875 
z
" id="DejaVuSans-64"/>
      <path d="M 4.203125 54.6875 
L 13.1875 54.6875 
L 24.421875 12.015625 
L 35.59375 54.6875 
L 46.1875 54.6875 
L 57.421875 12.015625 
L 68.609375 54.6875 
L 77.59375 54.6875 
L 63.28125 0 
L 52.6875 0 
L 40.921875 44.828125 
L 29.109375 0 
L 18.5 0 
z
" id="DejaVuSans-77"/>
      <path d="M 54.890625 33.015625 
L 54.890625 0 
L 45.90625 0 
L 45.90625 32.71875 
Q 45.90625 40.484375 42.875 44.328125 
Q 39.84375 48.1875 33.796875 48.1875 
Q 26.515625 48.1875 22.3125 43.546875 
Q 18.109375 38.921875 18.109375 30.90625 
L 18.109375 0 
L 9.078125 0 
L 9.078125 75.984375 
L 18.109375 75.984375 
L 18.109375 46.1875 
Q 21.34375 51.125 25.703125 53.5625 
Q 30.078125 56 35.796875 56 
Q 45.21875 56 50.046875 50.171875 
Q 54.890625 44.34375 54.890625 33.015625 
z
" id="DejaVuSans-68"/>
      <path d="M 31 75.875 
Q 24.46875 64.65625 21.28125 53.65625 
Q 18.109375 42.671875 18.109375 31.390625 
Q 18.109375 20.125 21.3125 9.0625 
Q 24.515625 -2 31 -13.1875 
L 23.1875 -13.1875 
Q 15.875 -1.703125 12.234375 9.375 
Q 8.59375 20.453125 8.59375 31.390625 
Q 8.59375 42.28125 12.203125 53.3125 
Q 15.828125 64.359375 23.1875 75.875 
z
" id="DejaVuSans-28"/>
      <path d="M 9.078125 75.984375 
L 18.109375 75.984375 
L 18.109375 31.109375 
L 44.921875 54.6875 
L 56.390625 54.6875 
L 27.390625 29.109375 
L 57.625 0 
L 45.90625 0 
L 18.109375 26.703125 
L 18.109375 0 
L 9.078125 0 
z
" id="DejaVuSans-6b"/>
      <path d="M 48.6875 27.296875 
Q 48.6875 37.203125 44.609375 42.84375 
Q 40.53125 48.484375 33.40625 48.484375 
Q 26.265625 48.484375 22.1875 42.84375 
Q 18.109375 37.203125 18.109375 27.296875 
Q 18.109375 17.390625 22.1875 11.75 
Q 26.265625 6.109375 33.40625 6.109375 
Q 40.53125 6.109375 44.609375 11.75 
Q 48.6875 17.390625 48.6875 27.296875 
z
M 18.109375 46.390625 
Q 20.953125 51.265625 25.265625 53.625 
Q 29.59375 56 35.59375 56 
Q 45.5625 56 51.78125 48.09375 
Q 58.015625 40.1875 58.015625 27.296875 
Q 58.015625 14.40625 51.78125 6.484375 
Q 45.5625 -1.421875 35.59375 -1.421875 
Q 29.59375 -1.421875 25.265625 0.953125 
Q 20.953125 3.328125 18.109375 8.203125 
L 18.109375 0 
L 9.078125 0 
L 9.078125 75.984375 
L 18.109375 75.984375 
z
" id="DejaVuSans-62"/>
      <path d="M 8.015625 75.875 
L 15.828125 75.875 
Q 23.140625 64.359375 26.78125 53.3125 
Q 30.421875 42.28125 30.421875 31.390625 
Q 30.421875 20.453125 26.78125 9.375 
Q 23.140625 -1.703125 15.828125 -13.1875 
L 8.015625 -13.1875 
Q 14.5 -2 17.703125 9.0625 
Q 20.90625 20.125 20.90625 31.390625 
Q 20.90625 42.671875 17.703125 53.65625 
Q 14.5 64.65625 8.015625 75.875 
z
" id="DejaVuSans-29"/>
     </defs>
     <g transform="translate(115.245312 420.067813)rotate(-90)scale(0.1 -0.1)">
      <use xlink:href="#DejaVuSans-42"/>
      <use x="68.603516" xlink:href="#DejaVuSans-61"/>
      <use x="129.882812" xlink:href="#DejaVuSans-6e"/>
      <use x="193.261719" xlink:href="#DejaVuSans-64"/>
      <use x="256.738281" xlink:href="#DejaVuSans-77"/>
      <use x="338.525391" xlink:href="#DejaVuSans-69"/>
      <use x="366.308594" xlink:href="#DejaVuSans-64"/>
      <use x="429.785156" xlink:href="#DejaVuSans-74"/>
      <use x="468.994141" xlink:href="#DejaVuSans-68"/>
      <use x="532.373047" xlink:href="#DejaVuSans-20"/>
      <use x="564.160156" xlink:href="#DejaVuSans-28"/>
      <use x="603.173828" xlink:href="#DejaVuSans-6b"/>
      <use x="661.083984" xlink:href="#DejaVuSans-62"/>
      <use x="724.560547" xlink:href="#DejaVuSans-70"/>
      <use x="788.037109" xlink:href="#DejaVuSans-73"/>
      <use x="840.136719" xlink:href="#DejaVuSans-29"/>
     </g>
    </g>
   </g>
   <g id="line2d_15">
    <path clip-path="url(#p78f0281ed0)" d="M 218.115 589.948734 
L 222.807273 591.053109 
L 227.499545 627.994893 
L 232.191818 601.680019 
L 236.884091 586.658091 
L 241.576364 583.63377 
L 246.268636 580.24491 
L 250.960909 583.588323 
L 255.653182 584.464004 
L 260.345455 582.083252 
L 265.037727 524.388035 
L 269.73 489.542604 
L 274.422273 480.280037 
L 279.114545 530.664396 
L 283.806818 553.770236 
L 288.499091 528.088667 
L 293.191364 541.706176 
L 297.883636 627.85318 
L 302.575909 631.943271 
L 307.268182 622.135848 
L 311.960455 630.973282 
L 316.652727 628.871552 
L 321.345 627.84976 
L 326.037273 631.767843 
L 330.729545 630.957158 
L 335.421818 551.005884 
L 340.114091 515.882893 
L 344.806364 471.084906 
L 349.498636 540.341839 
L 354.190909 632.568269 
L 358.883182 568.032781 
L 363.575455 515.873608 
L 368.267727 564.808112 
L 372.96 627.311259 
L 377.652273 631.08079 
L 382.344545 518.406826 
L 387.036818 628.337933 
L 391.729091 630.206571 
L 396.421364 629.361192 
L 401.113636 426.88504 
L 405.805909 509.276197 
L 410.498182 508.851553 
L 415.190455 574.589632 
L 419.882727 546.408071 
L 424.575 606.654587 
L 429.267273 628.768932 
L 433.959545 371.196761 
L 438.651818 554.050242 
L 443.344091 631.951584 
L 448.036364 625.136227 
L 452.728636 588.288267 
L 457.420909 632.932326 
L 462.113182 634.819529 
L 466.805455 631.531821 
L 476.19 631.696013 
L 480.882273 632.029768 
L 485.574545 630.091735 
L 490.266818 633.526049 
L 494.959091 629.333337 
L 499.651364 598.814997 
L 504.343636 614.455568 
L 509.035909 626.292887 
L 513.728182 607.901647 
L 518.420455 595.407566 
L 523.112727 621.993162 
L 527.805 622.780884 
L 532.497273 560.74929 
L 537.189545 512.35476 
L 541.881818 567.098954 
L 546.574091 556.220382 
L 551.266364 628.669736 
L 555.958636 561.19544 
L 560.650909 523.477171 
L 565.343182 627.945053 
L 570.035455 567.335465 
L 574.727727 499.831851 
L 579.42 574.525131 
L 584.112273 571.731945 
L 588.804545 568.655828 
L 593.496818 565.37056 
L 598.189091 631.565537 
L 602.881364 630.892162 
L 607.573636 630.858446 
L 612.265909 566.151438 
L 616.958182 465.61288 
L 621.650455 518.701978 
L 626.342727 577.318806 
L 631.035 579.081894 
L 635.727273 631.06515 
L 640.419545 577.891029 
L 645.111818 520.018921 
L 649.804091 593.636172 
L 654.496364 549.189531 
L 659.188636 632.672847 
L 663.880909 631.441422 
L 668.573182 611.102375 
L 673.265455 598.615622 
L 677.957727 573.063061 
L 682.65 583.528709 
L 687.342273 581.953754 
L 692.034545 584.040823 
L 696.726818 580.552766 
L 701.419091 634.309857 
L 706.111364 629.56838 
L 710.803636 623.911645 
L 715.495909 507.23164 
L 720.188182 632.557522 
L 724.880455 627.861003 
L 729.572727 632.412879 
L 734.265 629.5806 
L 738.957273 630.409366 
L 743.649545 595.641636 
L 748.341818 633.098959 
L 753.034091 116.664545 
L 757.726364 616.908645 
L 762.418636 466.176796 
L 767.110909 574.861821 
L 771.803182 631.000159 
L 776.495455 631.876818 
L 781.187727 573.148573 
L 785.88 622.368939 
L 790.572273 515.321424 
L 795.264545 557.254389 
L 799.956818 566.182224 
L 804.649091 629.011797 
L 809.341364 630.895587 
L 814.033636 627.508188 
L 818.725909 619.615823 
L 823.418182 633.019796 
L 828.110455 631.622711 
L 832.802727 578.660181 
L 837.495 517.21352 
L 842.187273 512.827298 
L 846.879545 541.046483 
L 851.571818 504.171647 
L 856.264091 572.225004 
L 860.956364 574.271029 
L 865.648636 570.842097 
L 870.340909 633.385798 
L 875.033182 579.450833 
L 879.725455 631.359323 
L 884.417727 633.149777 
L 889.11 631.559677 
L 893.802273 632.221321 
L 898.494545 634.724732 
L 903.186818 632.527226 
L 907.879091 576.878522 
L 912.571364 633.959489 
L 917.263636 633.131696 
L 921.955909 578.83805 
L 926.648182 634.313282 
L 931.340455 523.730789 
L 936.032727 635.555455 
L 940.725 578.724193 
L 945.417273 564.286219 
L 950.109545 572.100883 
L 954.801818 632.497413 
L 959.494091 607.482864 
L 964.186364 476.943462 
L 973.570909 493.08442 
L 978.263182 393.389779 
L 982.955455 577.242574 
L 987.647727 632.213993 
L 992.34 633.358927 
L 997.032273 630.387866 
L 1001.724545 516.199545 
L 1006.416818 564.077564 
L 1011.109091 486.896508 
L 1015.801364 532.38986 
L 1020.493636 632.350329 
L 1025.185909 633.720042 
L 1029.878182 623.324272 
L 1034.570455 587.034852 
L 1039.262727 449.723584 
L 1043.955 627.960688 
L 1048.647273 570.152592 
L 1053.339545 630.537885 
L 1058.031818 570.359296 
L 1062.724091 569.989868 
L 1067.416364 571.019966 
L 1072.108636 630.99625 
L 1076.800909 633.452257 
L 1081.493182 575.671528 
L 1086.185455 575.481932 
L 1090.877727 529.269268 
L 1095.57 632.241848 
L 1100.262273 629.032808 
L 1104.954545 631.283096 
L 1109.646818 631.670115 
L 1114.339091 575.162833 
L 1119.031364 634.424203 
L 1123.723636 629.627999 
L 1128.415909 631.47025 
L 1133.108182 584.640411 
L 1137.800455 564.862839 
L 1142.492727 581.645409 
L 1147.185 633.455682 
L 1151.877273 578.297592 
L 1151.877273 578.297592 
" style="fill:none;stroke:#1f77b4;stroke-linecap:square;stroke-width:1.5;"/>
   </g>
   <g id="line2d_16">
    <path clip-path="url(#p78f0281ed0)" d="M 213.422727 531.017964 
L 218.115 536.164987 
L 222.807273 561.604225 
L 227.499545 562.873984 
L 232.191818 578.634918 
L 236.884091 573.900136 
L 241.576364 581.050268 
L 246.268636 572.292244 
L 250.960909 580.415612 
L 255.653182 577.061646 
L 260.345455 581.750872 
L 265.037727 561.060398 
L 269.73 546.024796 
L 274.422273 526.083474 
L 279.114545 534.737214 
L 283.806818 538.486555 
L 288.499091 538.975493 
L 293.191364 533.167256 
L 297.883636 560.453685 
L 302.575909 580.398517 
L 307.268182 592.280119 
L 311.960455 590.541015 
L 316.652727 602.317537 
L 321.345 611.210798 
L 326.037273 616.455888 
L 330.729545 612.54576 
L 335.421818 597.148467 
L 340.114091 576.670204 
L 344.806364 548.376208 
L 349.498636 548.043881 
L 354.190909 574.69527 
L 358.883182 577.821669 
L 363.575455 554.843112 
L 368.267727 550.356616 
L 372.96 578.985477 
L 377.652273 600.59393 
L 382.344545 570.332933 
L 387.036818 575.360908 
L 391.729091 594.780004 
L 396.421364 618.452679 
L 401.113636 554.65931 
L 405.805909 536.658717 
L 410.498182 532.369294 
L 415.190455 568.169256 
L 419.882727 546.912626 
L 424.575 558.155786 
L 429.267273 573.25894 
L 433.959545 541.059581 
L 438.651818 528.887151 
L 443.344091 550.182805 
L 448.036364 586.724031 
L 452.728636 584.945021 
L 457.420909 581.144112 
L 462.113182 592.586187 
L 466.805455 616.95276 
L 471.497727 615.919883 
L 476.19 609.652234 
L 480.882273 614.067084 
L 485.574545 627.583803 
L 490.266818 626.107947 
L 494.959091 620.40802 
L 499.651364 614.128414 
L 504.343636 620.350141 
L 509.035909 620.215276 
L 513.728182 614.71317 
L 518.420455 608.167737 
L 523.112727 614.95541 
L 527.805 617.23714 
L 532.497273 602.239425 
L 537.189545 576.094501 
L 541.881818 576.066358 
L 546.574091 575.730573 
L 551.266364 592.438363 
L 555.958636 578.214883 
L 560.650909 566.602864 
L 565.343182 580.352993 
L 570.035455 583.825547 
L 574.727727 560.821592 
L 579.42 558.798808 
L 584.112273 565.136203 
L 588.804545 575.441306 
L 593.496818 566.418893 
L 598.189091 579.207739 
L 602.881364 594.670179 
L 607.573636 610.717504 
L 612.265909 590.250279 
L 616.958182 556.298661 
L 621.650455 548.271675 
L 626.342727 565.244129 
L 631.035 569.420996 
L 635.727273 579.260472 
L 640.419545 575.835324 
L 645.111818 568.557672 
L 649.804091 571.502355 
L 654.496364 565.81591 
L 659.188636 584.649592 
L 663.880909 595.672239 
L 668.573182 600.556449 
L 673.265455 593.76399 
L 677.957727 590.131515 
L 682.65 589.461656 
L 687.342273 589.237607 
L 692.034545 585.454363 
L 696.726818 584.545697 
L 701.419091 597.802636 
L 706.111364 606.823677 
L 710.803636 609.683515 
L 715.495909 580.150524 
L 720.188182 594.240071 
L 724.880455 603.72586 
L 729.572727 618.464541 
L 734.265 609.306888 
L 738.957273 615.663587 
L 743.649545 611.103158 
L 748.341818 622.134038 
L 753.034091 491.41799 
L 757.726364 528.285863 
L 762.418636 511.745044 
L 767.110909 561.047057 
L 771.803182 540.00639 
L 776.495455 572.992407 
L 781.187727 564.192476 
L 785.88 601.224549 
L 790.572273 554.677287 
L 795.264545 567.004577 
L 799.956818 557.931498 
L 804.649091 595.702057 
L 809.341364 582.328084 
L 814.033636 600.424185 
L 818.725909 594.665028 
L 823.418182 619.337987 
L 828.110455 607.288924 
L 832.802727 606.769864 
L 837.495 578.514751 
L 842.187273 575.901906 
L 846.879545 559.649477 
L 851.571818 555.271844 
L 856.264091 553.350352 
L 860.956364 565.286175 
L 865.648636 562.761217 
L 870.340909 580.662202 
L 875.033182 576.359417 
L 879.725455 593.174315 
L 884.417727 596.660998 
L 889.11 609.051072 
L 893.802273 608.298198 
L 898.494545 617.271125 
L 903.186818 617.118429 
L 907.879091 610.733923 
L 912.571364 611.714655 
L 917.263636 618.702443 
L 921.955909 610.597005 
L 926.648182 614.376327 
L 931.340455 590.747079 
L 936.032727 605.854088 
L 940.725 596.878582 
L 945.417273 595.573594 
L 950.109545 580.945805 
L 954.801818 599.592714 
L 959.494091 600.703512 
L 964.186364 575.835854 
L 968.878636 544.923714 
L 973.570909 538.683113 
L 978.263182 510.08251 
L 982.955455 529.303593 
L 987.647727 546.357666 
L 992.34 577.846537 
L 997.032273 582.777151 
L 1001.724545 563.840291 
L 1006.416818 559.578454 
L 1011.109091 549.75205 
L 1015.801364 549.390629 
L 1020.493636 562.986722 
L 1025.185909 582.673477 
L 1029.878182 593.119975 
L 1034.570455 586.196353 
L 1039.262727 550.952531 
L 1043.955 571.559238 
L 1048.647273 574.394717 
L 1053.339545 594.864307 
L 1058.031818 573.181625 
L 1062.724091 578.690421 
L 1067.416364 574.004145 
L 1072.108636 596.164034 
L 1076.800909 595.416504 
L 1081.493182 594.317702 
L 1086.185455 583.75529 
L 1090.877727 576.589168 
L 1095.57 587.876438 
L 1100.262273 599.516583 
L 1104.954545 606.506093 
L 1109.646818 607.687075 
L 1114.339091 599.461179 
L 1119.031364 608.703458 
L 1123.723636 613.306857 
L 1128.415909 619.049036 
L 1133.108182 606.11906 
L 1137.800455 597.789087 
L 1142.492727 593.848435 
L 1147.185 607.489654 
L 1147.185 607.489654 
" style="fill:none;stroke:#ff0000;stroke-linecap:square;stroke-width:1.5;"/>
   </g>
   <g id="line2d_17">
    <path clip-path="url(#p78f0281ed0)" d="M 222.807273 576.098241 
L 227.499545 595.312232 
L 232.191818 596.988544 
L 236.884091 578.635637 
L 241.576364 571.227596 
L 246.268636 568.4426 
L 250.960909 568.770533 
L 255.653182 570.454619 
L 260.345455 569.640594 
L 265.037727 543.295667 
L 269.73 509.887865 
L 274.422273 497.324092 
L 279.114545 514.978039 
L 283.806818 538.023773 
L 288.499091 534.249575 
L 293.191364 531.850721 
L 297.883636 578.794796 
L 302.575909 611.883477 
L 307.268182 608.69855 
L 311.960455 609.022442 
L 316.652727 611.646795 
L 321.345 610.245838 
L 326.037273 611.793261 
L 330.729545 613.030466 
L 335.421818 575.545961 
L 340.114091 528.370225 
L 344.806364 501.001428 
L 349.498636 517.355303 
L 354.190909 580.990012 
L 358.883182 583.572323 
L 363.575455 534.490222 
L 368.267727 539.009828 
L 372.96 585.731305 
L 377.652273 611.220831 
L 382.344545 562.837109 
L 387.036818 572.63434 
L 391.729091 611.208513 
L 396.421364 611.56868 
L 401.113636 534.992742 
L 405.805909 497.059676 
L 410.498182 512.899227 
L 415.190455 541.917644 
L 419.882727 549.547482 
L 424.575 568.844721 
L 429.267273 601.669242 
L 433.959545 525.208717 
L 438.651818 511.700045 
L 443.344091 584.786047 
L 448.036364 610.1944 
L 452.728636 589.381408 
L 457.420909 596.907703 
L 462.113182 615.466676 
L 466.805455 614.613613 
L 471.497727 613.25966 
L 476.19 613.33586 
L 480.882273 613.539744 
L 485.574545 612.706594 
L 490.266818 613.620226 
L 494.959091 612.962156 
L 499.651364 596.205925 
L 504.343636 591.245214 
L 509.035909 603.502353 
L 513.728182 599.260309 
L 518.420455 585.40526 
L 523.112727 593.811497 
L 527.805 604.813658 
L 532.497273 575.90065 
L 537.189545 530.433266 
L 541.881818 539.175899 
L 546.574091 551.121184 
L 551.266364 583.680947 
L 555.958636 578.792716 
L 560.650909 534.987769 
L 565.343182 573.741296 
L 570.035455 581.133414 
L 574.727727 528.175218 
L 579.42 539.666501 
L 584.112273 560.984583 
L 588.804545 558.516321 
L 593.496818 555.869512 
L 598.189091 588.214616 
L 602.881364 612.91229 
L 607.573636 612.61106 
L 612.265909 581.956472 
L 616.958182 516.142928 
L 621.650455 507.001349 
L 626.342727 545.843472 
L 631.035 565.509297 
L 635.727273 592.619023 
L 640.419545 587.266147 
L 645.111818 539.905047 
L 649.804091 554.437831 
L 654.496364 558.27148 
L 659.188636 583.681446 
L 663.880909 613.656715 
L 668.573182 603.054398 
L 673.265455 588.291645 
L 677.957727 570.987801 
L 682.65 566.096104 
L 687.342273 569.221783 
L 692.034545 569.631527 
L 696.726818 568.745241 
L 701.419091 594.874451 
L 706.111364 613.413864 
L 710.803636 608.568013 
L 715.495909 555.323574 
L 720.188182 572.225878 
L 724.880455 611.813211 
L 729.572727 612.124508 
L 734.265 612.612661 
L 738.957273 611.832538 
L 743.649545 595.176652 
L 748.341818 599.710801 
L 753.034091 533.038428 
L 757.726364 557.776596 
L 762.418636 538.678298 
L 767.110909 532.748947 
L 771.803182 591.114754 
L 776.495455 613.169399 
L 781.187727 585.51191 
L 785.88 585.917376 
L 790.572273 557.494376 
L 795.264545 535.302288 
L 799.956818 552.246306 
L 804.649091 587.103576 
L 809.341364 611.838807 
L 814.033636 610.930267 
L 818.725909 605.551349 
L 823.418182 609.038036 
L 828.110455 613.89473 
L 832.802727 587.868332 
L 837.495 539.11304 
L 842.187273 516.63559 
L 846.879545 527.280012 
L 851.571818 520.501793 
L 856.264091 539.58722 
L 860.956364 561.34099 
L 865.648636 560.472655 
L 870.340909 591.027535 
L 875.033182 589.033017 
L 879.725455 592.906064 
L 884.417727 613.962327 
L 889.11 613.918161 
L 893.802273 613.57871 
L 898.494545 615.1196 
L 903.186818 615.072187 
L 907.879091 587.479404 
L 912.571364 593.402853 
L 917.263636 615.05094 
L 921.955909 588.639576 
L 926.648182 594.275048 
L 931.340455 566.395047 
L 940.725 589.704493 
L 945.417273 559.09692 
L 950.109545 557.470466 
L 954.801818 590.97451 
L 959.494091 601.760569 
L 964.186364 537.410586 
L 968.878636 496.236738 
L 973.570909 500.94193 
L 978.263182 474.108596 
L 982.955455 524.52859 
L 987.647727 592.591264 
L 992.34 614.42766 
L 997.032273 613.419115 
L 1001.724545 561.69121 
L 1006.416818 538.749371 
L 1011.109091 522.347071 
L 1015.801364 517.157001 
L 1020.493636 578.607211 
L 1025.185909 614.667122 
L 1029.878182 610.051819 
L 1034.570455 587.996406 
L 1039.262727 520.071018 
L 1043.955 558.426457 
L 1048.647273 582.384929 
L 1053.339545 589.257625 
L 1058.031818 583.657825 
L 1062.724091 558.64153 
L 1067.416364 558.992266 
L 1072.108636 589.798249 
L 1076.800909 613.962361 
L 1081.493182 587.363845 
L 1086.185455 563.181114 
L 1090.877727 542.670441 
L 1100.262273 612.265501 
L 1104.954545 612.043218 
L 1109.646818 613.184509 
L 1114.339091 586.316209 
L 1119.031364 593.060938 
L 1123.723636 613.492463 
L 1128.415909 612.387396 
L 1133.108182 590.525129 
L 1137.800455 561.634317 
L 1142.492727 562.262334 
L 1147.185 594.80226 
L 1151.877273 588.544566 
L 1151.877273 588.544566 
" style="fill:none;stroke:#008000;stroke-linecap:square;stroke-width:1.5;"/>
   </g>
   <g id="patch_3">
    <path d="M 166.5 661.5 
L 166.5 90.72 
" style="fill:none;stroke:#000000;stroke-linecap:square;stroke-linejoin:miter;stroke-width:0.8;"/>
   </g>
   <g id="patch_4">
    <path d="M 1198.8 661.5 
L 1198.8 90.72 
" style="fill:none;stroke:#000000;stroke-linecap:square;stroke-linejoin:miter;stroke-width:0.8;"/>
   </g>
   <g id="patch_5">
    <path d="M 166.5 661.5 
L 1198.8 661.5 
" style="fill:none;stroke:#000000;stroke-linecap:square;stroke-linejoin:miter;stroke-width:0.8;"/>
   </g>
   <g id="patch_6">
    <path d="M 166.5 90.72 
L 1198.8 90.72 
" style="fill:none;stroke:#000000;stroke-linecap:square;stroke-linejoin:miter;stroke-width:0.8;"/>
   </g>
   <g id="legend_1">
    <g id="patch_7">
     <path d="M 1069.135937 142.754375 
L 1191.8 142.754375 
Q 1193.8 142.754375 1193.8 140.754375 
L 1193.8 97.72 
Q 1193.8 95.72 1191.8 95.72 
L 1069.135937 95.72 
Q 1067.135937 95.72 1067.135937 97.72 
L 1067.135937 140.754375 
Q 1067.135937 142.754375 1069.135937 142.754375 
z
" style="fill:#ffffff;opacity:0.8;stroke:#cccccc;stroke-linejoin:miter;"/>
    </g>
    <g id="line2d_18">
     <path d="M 1071.135937 103.818437 
L 1091.135937 103.818437 
" style="fill:none;stroke:#1f77b4;stroke-linecap:square;stroke-width:1.5;"/>
    </g>
    <g id="line2d_19"/>
    <g id="text_17">
     <!-- Real values -->
     <defs>
      <path d="M 44.390625 34.1875 
Q 47.5625 33.109375 50.5625 29.59375 
Q 53.5625 26.078125 56.59375 19.921875 
L 66.609375 0 
L 56 0 
L 46.6875 18.703125 
Q 43.0625 26.03125 39.671875 28.421875 
Q 36.28125 30.8125 30.421875 30.8125 
L 19.671875 30.8125 
L 19.671875 0 
L 9.8125 0 
L 9.8125 72.90625 
L 32.078125 72.90625 
Q 44.578125 72.90625 50.734375 67.671875 
Q 56.890625 62.453125 56.890625 51.90625 
Q 56.890625 45.015625 53.6875 40.46875 
Q 50.484375 35.9375 44.390625 34.1875 
z
M 19.671875 64.796875 
L 19.671875 38.921875 
L 32.078125 38.921875 
Q 39.203125 38.921875 42.84375 42.21875 
Q 46.484375 45.515625 46.484375 51.90625 
Q 46.484375 58.296875 42.84375 61.546875 
Q 39.203125 64.796875 32.078125 64.796875 
z
" id="DejaVuSans-52"/>
      <path d="M 9.421875 75.984375 
L 18.40625 75.984375 
L 18.40625 0 
L 9.421875 0 
z
" id="DejaVuSans-6c"/>
      <path d="M 2.984375 54.6875 
L 12.5 54.6875 
L 29.59375 8.796875 
L 46.6875 54.6875 
L 56.203125 54.6875 
L 35.6875 0 
L 23.484375 0 
z
" id="DejaVuSans-76"/>
     </defs>
     <g transform="translate(1099.135937 107.318437)scale(0.1 -0.1)">
      <use xlink:href="#DejaVuSans-52"/>
      <use x="69.419922" xlink:href="#DejaVuSans-65"/>
      <use x="130.943359" xlink:href="#DejaVuSans-61"/>
      <use x="192.222656" xlink:href="#DejaVuSans-6c"/>
      <use x="220.005859" xlink:href="#DejaVuSans-20"/>
      <use x="251.792969" xlink:href="#DejaVuSans-76"/>
      <use x="310.972656" xlink:href="#DejaVuSans-61"/>
      <use x="372.251953" xlink:href="#DejaVuSans-6c"/>
      <use x="400.035156" xlink:href="#DejaVuSans-75"/>
      <use x="463.414062" xlink:href="#DejaVuSans-65"/>
      <use x="524.9375" xlink:href="#DejaVuSans-73"/>
     </g>
    </g>
    <g id="line2d_20">
     <path d="M 1071.135937 118.496562 
L 1091.135937 118.496562 
" style="fill:none;stroke:#ff0000;stroke-linecap:square;stroke-width:1.5;"/>
    </g>
    <g id="line2d_21"/>
    <g id="text_18">
     <!-- ARIMA Predictions -->
     <defs>
      <path d="M 34.1875 63.1875 
L 20.796875 26.90625 
L 47.609375 26.90625 
z
M 28.609375 72.90625 
L 39.796875 72.90625 
L 67.578125 0 
L 57.328125 0 
L 50.6875 18.703125 
L 17.828125 18.703125 
L 11.1875 0 
L 0.78125 0 
z
" id="DejaVuSans-41"/>
      <path d="M 9.8125 72.90625 
L 19.671875 72.90625 
L 19.671875 0 
L 9.8125 0 
z
" id="DejaVuSans-49"/>
      <path d="M 19.671875 64.796875 
L 19.671875 37.40625 
L 32.078125 37.40625 
Q 38.96875 37.40625 42.71875 40.96875 
Q 46.484375 44.53125 46.484375 51.125 
Q 46.484375 57.671875 42.71875 61.234375 
Q 38.96875 64.796875 32.078125 64.796875 
z
M 9.8125 72.90625 
L 32.078125 72.90625 
Q 44.34375 72.90625 50.609375 67.359375 
Q 56.890625 61.8125 56.890625 51.125 
Q 56.890625 40.328125 50.609375 34.8125 
Q 44.34375 29.296875 32.078125 29.296875 
L 19.671875 29.296875 
L 19.671875 0 
L 9.8125 0 
z
" id="DejaVuSans-50"/>
      <path d="M 41.109375 46.296875 
Q 39.59375 47.171875 37.8125 47.578125 
Q 36.03125 48 33.890625 48 
Q 26.265625 48 22.1875 43.046875 
Q 18.109375 38.09375 18.109375 28.8125 
L 18.109375 0 
L 9.078125 0 
L 9.078125 54.6875 
L 18.109375 54.6875 
L 18.109375 46.1875 
Q 20.953125 51.171875 25.484375 53.578125 
Q 30.03125 56 36.53125 56 
Q 37.453125 56 38.578125 55.875 
Q 39.703125 55.765625 41.0625 55.515625 
z
" id="DejaVuSans-72"/>
      <path d="M 48.78125 52.59375 
L 48.78125 44.1875 
Q 44.96875 46.296875 41.140625 47.34375 
Q 37.3125 48.390625 33.40625 48.390625 
Q 24.65625 48.390625 19.8125 42.84375 
Q 14.984375 37.3125 14.984375 27.296875 
Q 14.984375 17.28125 19.8125 11.734375 
Q 24.65625 6.203125 33.40625 6.203125 
Q 37.3125 6.203125 41.140625 7.25 
Q 44.96875 8.296875 48.78125 10.40625 
L 48.78125 2.09375 
Q 45.015625 0.34375 40.984375 -0.53125 
Q 36.96875 -1.421875 32.421875 -1.421875 
Q 20.0625 -1.421875 12.78125 6.34375 
Q 5.515625 14.109375 5.515625 27.296875 
Q 5.515625 40.671875 12.859375 48.328125 
Q 20.21875 56 33.015625 56 
Q 37.15625 56 41.109375 55.140625 
Q 45.0625 54.296875 48.78125 52.59375 
z
" id="DejaVuSans-63"/>
      <path d="M 30.609375 48.390625 
Q 23.390625 48.390625 19.1875 42.75 
Q 14.984375 37.109375 14.984375 27.296875 
Q 14.984375 17.484375 19.15625 11.84375 
Q 23.34375 6.203125 30.609375 6.203125 
Q 37.796875 6.203125 41.984375 11.859375 
Q 46.1875 17.53125 46.1875 27.296875 
Q 46.1875 37.015625 41.984375 42.703125 
Q 37.796875 48.390625 30.609375 48.390625 
z
M 30.609375 56 
Q 42.328125 56 49.015625 48.375 
Q 55.71875 40.765625 55.71875 27.296875 
Q 55.71875 13.875 49.015625 6.21875 
Q 42.328125 -1.421875 30.609375 -1.421875 
Q 18.84375 -1.421875 12.171875 6.21875 
Q 5.515625 13.875 5.515625 27.296875 
Q 5.515625 40.765625 12.171875 48.375 
Q 18.84375 56 30.609375 56 
z
" id="DejaVuSans-6f"/>
     </defs>
     <g transform="translate(1099.135937 121.996562)scale(0.1 -0.1)">
      <use xlink:href="#DejaVuSans-41"/>
      <use x="68.408203" xlink:href="#DejaVuSans-52"/>
      <use x="137.890625" xlink:href="#DejaVuSans-49"/>
      <use x="167.382812" xlink:href="#DejaVuSans-4d"/>
      <use x="253.662109" xlink:href="#DejaVuSans-41"/>
      <use x="322.070312" xlink:href="#DejaVuSans-20"/>
      <use x="353.857422" xlink:href="#DejaVuSans-50"/>
      <use x="414.144531" xlink:href="#DejaVuSans-72"/>
      <use x="455.226562" xlink:href="#DejaVuSans-65"/>
      <use x="516.75" xlink:href="#DejaVuSans-64"/>
      <use x="580.226562" xlink:href="#DejaVuSans-69"/>
      <use x="608.009766" xlink:href="#DejaVuSans-63"/>
      <use x="662.990234" xlink:href="#DejaVuSans-74"/>
      <use x="702.199219" xlink:href="#DejaVuSans-69"/>
      <use x="729.982422" xlink:href="#DejaVuSans-6f"/>
      <use x="791.164062" xlink:href="#DejaVuSans-6e"/>
      <use x="854.542969" xlink:href="#DejaVuSans-73"/>
     </g>
    </g>
    <g id="line2d_22">
     <path d="M 1071.135937 133.174688 
L 1091.135937 133.174688 
" style="fill:none;stroke:#008000;stroke-linecap:square;stroke-width:1.5;"/>
    </g>
    <g id="line2d_23"/>
    <g id="text_19">
     <!-- LSTM Predictions -->
     <defs>
      <path d="M 9.8125 72.90625 
L 19.671875 72.90625 
L 19.671875 8.296875 
L 55.171875 8.296875 
L 55.171875 0 
L 9.8125 0 
z
" id="DejaVuSans-4c"/>
      <path d="M -0.296875 72.90625 
L 61.375 72.90625 
L 61.375 64.59375 
L 35.5 64.59375 
L 35.5 0 
L 25.59375 0 
L 25.59375 64.59375 
L -0.296875 64.59375 
z
" id="DejaVuSans-54"/>
     </defs>
     <g transform="translate(1099.135937 136.674688)scale(0.1 -0.1)">
      <use xlink:href="#DejaVuSans-4c"/>
      <use x="55.712891" xlink:href="#DejaVuSans-53"/>
      <use x="119.189453" xlink:href="#DejaVuSans-54"/>
      <use x="180.273438" xlink:href="#DejaVuSans-4d"/>
      <use x="266.552734" xlink:href="#DejaVuSans-20"/>
      <use x="298.339844" xlink:href="#DejaVuSans-50"/>
      <use x="358.626953" xlink:href="#DejaVuSans-72"/>
      <use x="399.708984" xlink:href="#DejaVuSans-65"/>
      <use x="461.232422" xlink:href="#DejaVuSans-64"/>
      <use x="524.708984" xlink:href="#DejaVuSans-69"/>
      <use x="552.492188" xlink:href="#DejaVuSans-63"/>
      <use x="607.472656" xlink:href="#DejaVuSans-74"/>
      <use x="646.681641" xlink:href="#DejaVuSans-69"/>
      <use x="674.464844" xlink:href="#DejaVuSans-6f"/>
      <use x="735.646484" xlink:href="#DejaVuSans-6e"/>
      <use x="799.025391" xlink:href="#DejaVuSans-73"/>
     </g>
    </g>
   </g>
  </g>
 </g>
 <defs>
  <clipPath id="p78f0281ed0">
   <rect height="570.78" width="1032.3" x="166.5" y="90.72"/>
  </clipPath>
 </defs>
</svg>
