<?xml version="1.0" encoding="utf-8" standalone="no"?>
<!DOCTYPE svg PUBLIC "-//W3C//DTD SVG 1.1//EN"
  "http://www.w3.org/Graphics/SVG/1.1/DTD/svg11.dtd">
<!-- Created with matplotlib (http://matplotlib.org/) -->
<svg height="720pt" version="1.1" viewBox="0 0 1296 720" width="1296pt" xmlns="http://www.w3.org/2000/svg" xmlns:xlink="http://www.w3.org/1999/xlink">
 <defs>
  <style type="text/css">
*{stroke-linecap:butt;stroke-linejoin:round;}
  </style>
 </defs>
 <g id="figure_1">
  <g id="patch_1">
   <path d="M 0 720 
L 1296 720 
L 1296 0 
L 0 0 
z
" style="fill:#ffffff;"/>
  </g>
  <g id="axes_1">
   <g id="patch_2">
    <path d="M 162 630 
L 1166.4 630 
L 1166.4 86.4 
L 162 86.4 
z
" style="fill:#ffffff;"/>
   </g>
   <g id="matplotlib.axis_1">
    <g id="xtick_1">
     <g id="line2d_1">
      <defs>
       <path d="M 0 0 
L 0 3.5 
" id="mac1caa5193" style="stroke:#000000;stroke-width:0.8;"/>
      </defs>
      <g>
       <use style="stroke:#000000;stroke-width:0.8;" x="212.22" xlink:href="#mac1caa5193" y="630"/>
      </g>
     </g>
     <g id="text_1">
      <!-- 0 -->
      <defs>
       <path d="M 31.78125 66.40625 
Q 24.171875 66.40625 20.328125 58.90625 
Q 16.5 51.421875 16.5 36.375 
Q 16.5 21.390625 20.328125 13.890625 
Q 24.171875 6.390625 31.78125 6.390625 
Q 39.453125 6.390625 43.28125 13.890625 
Q 47.125 21.390625 47.125 36.375 
Q 47.125 51.421875 43.28125 58.90625 
Q 39.453125 66.40625 31.78125 66.40625 
z
M 31.78125 74.21875 
Q 44.046875 74.21875 50.515625 64.515625 
Q 56.984375 54.828125 56.984375 36.375 
Q 56.984375 17.96875 50.515625 8.265625 
Q 44.046875 -1.421875 31.78125 -1.421875 
Q 19.53125 -1.421875 13.0625 8.265625 
Q 6.59375 17.96875 6.59375 36.375 
Q 6.59375 54.828125 13.0625 64.515625 
Q 19.53125 74.21875 31.78125 74.21875 
z
" id="DejaVuSans-30"/>
      </defs>
      <g transform="translate(205.8575 652.196875)scale(0.2 -0.2)">
       <use xlink:href="#DejaVuSans-30"/>
      </g>
     </g>
    </g>
    <g id="xtick_2">
     <g id="line2d_2">
      <g>
       <use style="stroke:#000000;stroke-width:0.8;" x="326.356364" xlink:href="#mac1caa5193" y="630"/>
      </g>
     </g>
     <g id="text_2">
      <!-- 25 -->
      <defs>
       <path d="M 19.1875 8.296875 
L 53.609375 8.296875 
L 53.609375 0 
L 7.328125 0 
L 7.328125 8.296875 
Q 12.9375 14.109375 22.625 23.890625 
Q 32.328125 33.6875 34.8125 36.53125 
Q 39.546875 41.84375 41.421875 45.53125 
Q 43.3125 49.21875 43.3125 52.78125 
Q 43.3125 58.59375 39.234375 62.25 
Q 35.15625 65.921875 28.609375 65.921875 
Q 23.96875 65.921875 18.8125 64.3125 
Q 13.671875 62.703125 7.8125 59.421875 
L 7.8125 69.390625 
Q 13.765625 71.78125 18.9375 73 
Q 24.125 74.21875 28.421875 74.21875 
Q 39.75 74.21875 46.484375 68.546875 
Q 53.21875 62.890625 53.21875 53.421875 
Q 53.21875 48.921875 51.53125 44.890625 
Q 49.859375 40.875 45.40625 35.40625 
Q 44.1875 33.984375 37.640625 27.21875 
Q 31.109375 20.453125 19.1875 8.296875 
z
" id="DejaVuSans-32"/>
       <path d="M 10.796875 72.90625 
L 49.515625 72.90625 
L 49.515625 64.59375 
L 19.828125 64.59375 
L 19.828125 46.734375 
Q 21.96875 47.46875 24.109375 47.828125 
Q 26.265625 48.1875 28.421875 48.1875 
Q 40.625 48.1875 47.75 41.5 
Q 54.890625 34.8125 54.890625 23.390625 
Q 54.890625 11.625 47.5625 5.09375 
Q 40.234375 -1.421875 26.90625 -1.421875 
Q 22.3125 -1.421875 17.546875 -0.640625 
Q 12.796875 0.140625 7.71875 1.703125 
L 7.71875 11.625 
Q 12.109375 9.234375 16.796875 8.0625 
Q 21.484375 6.890625 26.703125 6.890625 
Q 35.15625 6.890625 40.078125 11.328125 
Q 45.015625 15.765625 45.015625 23.390625 
Q 45.015625 31 40.078125 35.4375 
Q 35.15625 39.890625 26.703125 39.890625 
Q 22.75 39.890625 18.8125 39.015625 
Q 14.890625 38.140625 10.796875 36.28125 
z
" id="DejaVuSans-35"/>
      </defs>
      <g transform="translate(313.631364 652.196875)scale(0.2 -0.2)">
       <use xlink:href="#DejaVuSans-32"/>
       <use x="63.623047" xlink:href="#DejaVuSans-35"/>
      </g>
     </g>
    </g>
    <g id="xtick_3">
     <g id="line2d_3">
      <g>
       <use style="stroke:#000000;stroke-width:0.8;" x="440.492727" xlink:href="#mac1caa5193" y="630"/>
      </g>
     </g>
     <g id="text_3">
      <!-- 50 -->
      <g transform="translate(427.767727 652.196875)scale(0.2 -0.2)">
       <use xlink:href="#DejaVuSans-35"/>
       <use x="63.623047" xlink:href="#DejaVuSans-30"/>
      </g>
     </g>
    </g>
    <g id="xtick_4">
     <g id="line2d_4">
      <g>
       <use style="stroke:#000000;stroke-width:0.8;" x="554.629091" xlink:href="#mac1caa5193" y="630"/>
      </g>
     </g>
     <g id="text_4">
      <!-- 75 -->
      <defs>
       <path d="M 8.203125 72.90625 
L 55.078125 72.90625 
L 55.078125 68.703125 
L 28.609375 0 
L 18.3125 0 
L 43.21875 64.59375 
L 8.203125 64.59375 
z
" id="DejaVuSans-37"/>
      </defs>
      <g transform="translate(541.904091 652.196875)scale(0.2 -0.2)">
       <use xlink:href="#DejaVuSans-37"/>
       <use x="63.623047" xlink:href="#DejaVuSans-35"/>
      </g>
     </g>
    </g>
    <g id="xtick_5">
     <g id="line2d_5">
      <g>
       <use style="stroke:#000000;stroke-width:0.8;" x="668.765455" xlink:href="#mac1caa5193" y="630"/>
      </g>
     </g>
     <g id="text_5">
      <!-- 100 -->
      <defs>
       <path d="M 12.40625 8.296875 
L 28.515625 8.296875 
L 28.515625 63.921875 
L 10.984375 60.40625 
L 10.984375 69.390625 
L 28.421875 72.90625 
L 38.28125 72.90625 
L 38.28125 8.296875 
L 54.390625 8.296875 
L 54.390625 0 
L 12.40625 0 
z
" id="DejaVuSans-31"/>
      </defs>
      <g transform="translate(649.677955 652.196875)scale(0.2 -0.2)">
       <use xlink:href="#DejaVuSans-31"/>
       <use x="63.623047" xlink:href="#DejaVuSans-30"/>
       <use x="127.246094" xlink:href="#DejaVuSans-30"/>
      </g>
     </g>
    </g>
    <g id="xtick_6">
     <g id="line2d_6">
      <g>
       <use style="stroke:#000000;stroke-width:0.8;" x="782.901818" xlink:href="#mac1caa5193" y="630"/>
      </g>
     </g>
     <g id="text_6">
      <!-- 125 -->
      <g transform="translate(763.814318 652.196875)scale(0.2 -0.2)">
       <use xlink:href="#DejaVuSans-31"/>
       <use x="63.623047" xlink:href="#DejaVuSans-32"/>
       <use x="127.246094" xlink:href="#DejaVuSans-35"/>
      </g>
     </g>
    </g>
    <g id="xtick_7">
     <g id="line2d_7">
      <g>
       <use style="stroke:#000000;stroke-width:0.8;" x="897.038182" xlink:href="#mac1caa5193" y="630"/>
      </g>
     </g>
     <g id="text_7">
      <!-- 150 -->
      <g transform="translate(877.950682 652.196875)scale(0.2 -0.2)">
       <use xlink:href="#DejaVuSans-31"/>
       <use x="63.623047" xlink:href="#DejaVuSans-35"/>
       <use x="127.246094" xlink:href="#DejaVuSans-30"/>
      </g>
     </g>
    </g>
    <g id="xtick_8">
     <g id="line2d_8">
      <g>
       <use style="stroke:#000000;stroke-width:0.8;" x="1011.174545" xlink:href="#mac1caa5193" y="630"/>
      </g>
     </g>
     <g id="text_8">
      <!-- 175 -->
      <g transform="translate(992.087045 652.196875)scale(0.2 -0.2)">
       <use xlink:href="#DejaVuSans-31"/>
       <use x="63.623047" xlink:href="#DejaVuSans-37"/>
       <use x="127.246094" xlink:href="#DejaVuSans-35"/>
      </g>
     </g>
    </g>
    <g id="xtick_9">
     <g id="line2d_9">
      <g>
       <use style="stroke:#000000;stroke-width:0.8;" x="1125.310909" xlink:href="#mac1caa5193" y="630"/>
      </g>
     </g>
     <g id="text_9">
      <!-- 200 -->
      <g transform="translate(1106.223409 652.196875)scale(0.2 -0.2)">
       <use xlink:href="#DejaVuSans-32"/>
       <use x="63.623047" xlink:href="#DejaVuSans-30"/>
       <use x="127.246094" xlink:href="#DejaVuSans-30"/>
      </g>
     </g>
    </g>
    <g id="text_10">
     <!-- 15-Minute Steps -->
     <defs>
      <path d="M 4.890625 31.390625 
L 31.203125 31.390625 
L 31.203125 23.390625 
L 4.890625 23.390625 
z
" id="DejaVuSans-2d"/>
      <path d="M 9.8125 72.90625 
L 24.515625 72.90625 
L 43.109375 23.296875 
L 61.8125 72.90625 
L 76.515625 72.90625 
L 76.515625 0 
L 66.890625 0 
L 66.890625 64.015625 
L 48.09375 14.015625 
L 38.1875 14.015625 
L 19.390625 64.015625 
L 19.390625 0 
L 9.8125 0 
z
" id="DejaVuSans-4d"/>
      <path d="M 9.421875 54.6875 
L 18.40625 54.6875 
L 18.40625 0 
L 9.421875 0 
z
M 9.421875 75.984375 
L 18.40625 75.984375 
L 18.40625 64.59375 
L 9.421875 64.59375 
z
" id="DejaVuSans-69"/>
      <path d="M 54.890625 33.015625 
L 54.890625 0 
L 45.90625 0 
L 45.90625 32.71875 
Q 45.90625 40.484375 42.875 44.328125 
Q 39.84375 48.1875 33.796875 48.1875 
Q 26.515625 48.1875 22.3125 43.546875 
Q 18.109375 38.921875 18.109375 30.90625 
L 18.109375 0 
L 9.078125 0 
L 9.078125 54.6875 
L 18.109375 54.6875 
L 18.109375 46.1875 
Q 21.34375 51.125 25.703125 53.5625 
Q 30.078125 56 35.796875 56 
Q 45.21875 56 50.046875 50.171875 
Q 54.890625 44.34375 54.890625 33.015625 
z
" id="DejaVuSans-6e"/>
      <path d="M 8.5 21.578125 
L 8.5 54.6875 
L 17.484375 54.6875 
L 17.484375 21.921875 
Q 17.484375 14.15625 20.5 10.265625 
Q 23.53125 6.390625 29.59375 6.390625 
Q 36.859375 6.390625 41.078125 11.03125 
Q 45.3125 15.671875 45.3125 23.6875 
L 45.3125 54.6875 
L 54.296875 54.6875 
L 54.296875 0 
L 45.3125 0 
L 45.3125 8.40625 
Q 42.046875 3.421875 37.71875 1 
Q 33.40625 -1.421875 27.6875 -1.421875 
Q 18.265625 -1.421875 13.375 4.4375 
Q 8.5 10.296875 8.5 21.578125 
z
M 31.109375 56 
z
" id="DejaVuSans-75"/>
      <path d="M 18.3125 70.21875 
L 18.3125 54.6875 
L 36.8125 54.6875 
L 36.8125 47.703125 
L 18.3125 47.703125 
L 18.3125 18.015625 
Q 18.3125 11.328125 20.140625 9.421875 
Q 21.96875 7.515625 27.59375 7.515625 
L 36.8125 7.515625 
L 36.8125 0 
L 27.59375 0 
Q 17.1875 0 13.234375 3.875 
Q 9.28125 7.765625 9.28125 18.015625 
L 9.28125 47.703125 
L 2.6875 47.703125 
L 2.6875 54.6875 
L 9.28125 54.6875 
L 9.28125 70.21875 
z
" id="DejaVuSans-74"/>
      <path d="M 56.203125 29.59375 
L 56.203125 25.203125 
L 14.890625 25.203125 
Q 15.484375 15.921875 20.484375 11.0625 
Q 25.484375 6.203125 34.421875 6.203125 
Q 39.59375 6.203125 44.453125 7.46875 
Q 49.3125 8.734375 54.109375 11.28125 
L 54.109375 2.78125 
Q 49.265625 0.734375 44.1875 -0.34375 
Q 39.109375 -1.421875 33.890625 -1.421875 
Q 20.796875 -1.421875 13.15625 6.1875 
Q 5.515625 13.8125 5.515625 26.8125 
Q 5.515625 40.234375 12.765625 48.109375 
Q 20.015625 56 32.328125 56 
Q 43.359375 56 49.78125 48.890625 
Q 56.203125 41.796875 56.203125 29.59375 
z
M 47.21875 32.234375 
Q 47.125 39.59375 43.09375 43.984375 
Q 39.0625 48.390625 32.421875 48.390625 
Q 24.90625 48.390625 20.390625 44.140625 
Q 15.875 39.890625 15.1875 32.171875 
z
" id="DejaVuSans-65"/>
      <path id="DejaVuSans-20"/>
      <path d="M 53.515625 70.515625 
L 53.515625 60.890625 
Q 47.90625 63.578125 42.921875 64.890625 
Q 37.9375 66.21875 33.296875 66.21875 
Q 25.25 66.21875 20.875 63.09375 
Q 16.5 59.96875 16.5 54.203125 
Q 16.5 49.359375 19.40625 46.890625 
Q 22.3125 44.4375 30.421875 42.921875 
L 36.375 41.703125 
Q 47.40625 39.59375 52.65625 34.296875 
Q 57.90625 29 57.90625 20.125 
Q 57.90625 9.515625 50.796875 4.046875 
Q 43.703125 -1.421875 29.984375 -1.421875 
Q 24.8125 -1.421875 18.96875 -0.25 
Q 13.140625 0.921875 6.890625 3.21875 
L 6.890625 13.375 
Q 12.890625 10.015625 18.65625 8.296875 
Q 24.421875 6.59375 29.984375 6.59375 
Q 38.421875 6.59375 43.015625 9.90625 
Q 47.609375 13.234375 47.609375 19.390625 
Q 47.609375 24.75 44.3125 27.78125 
Q 41.015625 30.8125 33.5 32.328125 
L 27.484375 33.5 
Q 16.453125 35.6875 11.515625 40.375 
Q 6.59375 45.0625 6.59375 53.421875 
Q 6.59375 63.09375 13.40625 68.65625 
Q 20.21875 74.21875 32.171875 74.21875 
Q 37.3125 74.21875 42.625 73.28125 
Q 47.953125 72.359375 53.515625 70.515625 
z
" id="DejaVuSans-53"/>
      <path d="M 18.109375 8.203125 
L 18.109375 -20.796875 
L 9.078125 -20.796875 
L 9.078125 54.6875 
L 18.109375 54.6875 
L 18.109375 46.390625 
Q 20.953125 51.265625 25.265625 53.625 
Q 29.59375 56 35.59375 56 
Q 45.5625 56 51.78125 48.09375 
Q 58.015625 40.1875 58.015625 27.296875 
Q 58.015625 14.40625 51.78125 6.484375 
Q 45.5625 -1.421875 35.59375 -1.421875 
Q 29.59375 -1.421875 25.265625 0.953125 
Q 20.953125 3.328125 18.109375 8.203125 
z
M 48.6875 27.296875 
Q 48.6875 37.203125 44.609375 42.84375 
Q 40.53125 48.484375 33.40625 48.484375 
Q 26.265625 48.484375 22.1875 42.84375 
Q 18.109375 37.203125 18.109375 27.296875 
Q 18.109375 17.390625 22.1875 11.75 
Q 26.265625 6.109375 33.40625 6.109375 
Q 40.53125 6.109375 44.609375 11.75 
Q 48.6875 17.390625 48.6875 27.296875 
z
" id="DejaVuSans-70"/>
      <path d="M 44.28125 53.078125 
L 44.28125 44.578125 
Q 40.484375 46.53125 36.375 47.5 
Q 32.28125 48.484375 27.875 48.484375 
Q 21.1875 48.484375 17.84375 46.4375 
Q 14.5 44.390625 14.5 40.28125 
Q 14.5 37.15625 16.890625 35.375 
Q 19.28125 33.59375 26.515625 31.984375 
L 29.59375 31.296875 
Q 39.15625 29.25 43.1875 25.515625 
Q 47.21875 21.78125 47.21875 15.09375 
Q 47.21875 7.46875 41.1875 3.015625 
Q 35.15625 -1.421875 24.609375 -1.421875 
Q 20.21875 -1.421875 15.453125 -0.5625 
Q 10.6875 0.296875 5.421875 2 
L 5.421875 11.28125 
Q 10.40625 8.6875 15.234375 7.390625 
Q 20.0625 6.109375 24.8125 6.109375 
Q 31.15625 6.109375 34.5625 8.28125 
Q 37.984375 10.453125 37.984375 14.40625 
Q 37.984375 18.0625 35.515625 20.015625 
Q 33.0625 21.96875 24.703125 23.78125 
L 21.578125 24.515625 
Q 13.234375 26.265625 9.515625 29.90625 
Q 5.8125 33.546875 5.8125 39.890625 
Q 5.8125 47.609375 11.28125 51.796875 
Q 16.75 56 26.8125 56 
Q 31.78125 56 36.171875 55.265625 
Q 40.578125 54.546875 44.28125 53.078125 
z
" id="DejaVuSans-73"/>
     </defs>
     <g transform="translate(582.554688 675.553125)scale(0.2 -0.2)">
      <use xlink:href="#DejaVuSans-31"/>
      <use x="63.623047" xlink:href="#DejaVuSans-35"/>
      <use x="127.246094" xlink:href="#DejaVuSans-2d"/>
      <use x="163.330078" xlink:href="#DejaVuSans-4d"/>
      <use x="249.609375" xlink:href="#DejaVuSans-69"/>
      <use x="277.392578" xlink:href="#DejaVuSans-6e"/>
      <use x="340.771484" xlink:href="#DejaVuSans-75"/>
      <use x="404.150391" xlink:href="#DejaVuSans-74"/>
      <use x="443.359375" xlink:href="#DejaVuSans-65"/>
      <use x="504.882812" xlink:href="#DejaVuSans-20"/>
      <use x="536.669922" xlink:href="#DejaVuSans-53"/>
      <use x="600.146484" xlink:href="#DejaVuSans-74"/>
      <use x="639.355469" xlink:href="#DejaVuSans-65"/>
      <use x="700.878906" xlink:href="#DejaVuSans-70"/>
      <use x="764.355469" xlink:href="#DejaVuSans-73"/>
     </g>
    </g>
   </g>
   <g id="matplotlib.axis_2">
    <g id="ytick_1">
     <g id="line2d_10">
      <defs>
       <path d="M 0 0 
L -3.5 0 
" id="m57ca4fc5dc" style="stroke:#000000;stroke-width:0.8;"/>
      </defs>
      <g>
       <use style="stroke:#000000;stroke-width:0.8;" x="162" xlink:href="#m57ca4fc5dc" y="611.384712"/>
      </g>
     </g>
     <g id="text_11">
      <!-- 0 -->
      <g transform="translate(142.275 618.983149)scale(0.2 -0.2)">
       <use xlink:href="#DejaVuSans-30"/>
      </g>
     </g>
    </g>
    <g id="ytick_2">
     <g id="line2d_11">
      <g>
       <use style="stroke:#000000;stroke-width:0.8;" x="162" xlink:href="#m57ca4fc5dc" y="545.623887"/>
      </g>
     </g>
     <g id="text_12">
      <!-- 500 -->
      <g transform="translate(116.825 553.222324)scale(0.2 -0.2)">
       <use xlink:href="#DejaVuSans-35"/>
       <use x="63.623047" xlink:href="#DejaVuSans-30"/>
       <use x="127.246094" xlink:href="#DejaVuSans-30"/>
      </g>
     </g>
    </g>
    <g id="ytick_3">
     <g id="line2d_12">
      <g>
       <use style="stroke:#000000;stroke-width:0.8;" x="162" xlink:href="#m57ca4fc5dc" y="479.863062"/>
      </g>
     </g>
     <g id="text_13">
      <!-- 1000 -->
      <g transform="translate(104.1 487.461499)scale(0.2 -0.2)">
       <use xlink:href="#DejaVuSans-31"/>
       <use x="63.623047" xlink:href="#DejaVuSans-30"/>
       <use x="127.246094" xlink:href="#DejaVuSans-30"/>
       <use x="190.869141" xlink:href="#DejaVuSans-30"/>
      </g>
     </g>
    </g>
    <g id="ytick_4">
     <g id="line2d_13">
      <g>
       <use style="stroke:#000000;stroke-width:0.8;" x="162" xlink:href="#m57ca4fc5dc" y="414.102237"/>
      </g>
     </g>
     <g id="text_14">
      <!-- 1500 -->
      <g transform="translate(104.1 421.700674)scale(0.2 -0.2)">
       <use xlink:href="#DejaVuSans-31"/>
       <use x="63.623047" xlink:href="#DejaVuSans-35"/>
       <use x="127.246094" xlink:href="#DejaVuSans-30"/>
       <use x="190.869141" xlink:href="#DejaVuSans-30"/>
      </g>
     </g>
    </g>
    <g id="ytick_5">
     <g id="line2d_14">
      <g>
       <use style="stroke:#000000;stroke-width:0.8;" x="162" xlink:href="#m57ca4fc5dc" y="348.341412"/>
      </g>
     </g>
     <g id="text_15">
      <!-- 2000 -->
      <g transform="translate(104.1 355.939849)scale(0.2 -0.2)">
       <use xlink:href="#DejaVuSans-32"/>
       <use x="63.623047" xlink:href="#DejaVuSans-30"/>
       <use x="127.246094" xlink:href="#DejaVuSans-30"/>
       <use x="190.869141" xlink:href="#DejaVuSans-30"/>
      </g>
     </g>
    </g>
    <g id="ytick_6">
     <g id="line2d_15">
      <g>
       <use style="stroke:#000000;stroke-width:0.8;" x="162" xlink:href="#m57ca4fc5dc" y="282.580587"/>
      </g>
     </g>
     <g id="text_16">
      <!-- 2500 -->
      <g transform="translate(104.1 290.179024)scale(0.2 -0.2)">
       <use xlink:href="#DejaVuSans-32"/>
       <use x="63.623047" xlink:href="#DejaVuSans-35"/>
       <use x="127.246094" xlink:href="#DejaVuSans-30"/>
       <use x="190.869141" xlink:href="#DejaVuSans-30"/>
      </g>
     </g>
    </g>
    <g id="ytick_7">
     <g id="line2d_16">
      <g>
       <use style="stroke:#000000;stroke-width:0.8;" x="162" xlink:href="#m57ca4fc5dc" y="216.819762"/>
      </g>
     </g>
     <g id="text_17">
      <!-- 3000 -->
      <defs>
       <path d="M 40.578125 39.3125 
Q 47.65625 37.796875 51.625 33 
Q 55.609375 28.21875 55.609375 21.1875 
Q 55.609375 10.40625 48.1875 4.484375 
Q 40.765625 -1.421875 27.09375 -1.421875 
Q 22.515625 -1.421875 17.65625 -0.515625 
Q 12.796875 0.390625 7.625 2.203125 
L 7.625 11.71875 
Q 11.71875 9.328125 16.59375 8.109375 
Q 21.484375 6.890625 26.8125 6.890625 
Q 36.078125 6.890625 40.9375 10.546875 
Q 45.796875 14.203125 45.796875 21.1875 
Q 45.796875 27.640625 41.28125 31.265625 
Q 36.765625 34.90625 28.71875 34.90625 
L 20.21875 34.90625 
L 20.21875 43.015625 
L 29.109375 43.015625 
Q 36.375 43.015625 40.234375 45.921875 
Q 44.09375 48.828125 44.09375 54.296875 
Q 44.09375 59.90625 40.109375 62.90625 
Q 36.140625 65.921875 28.71875 65.921875 
Q 24.65625 65.921875 20.015625 65.03125 
Q 15.375 64.15625 9.8125 62.3125 
L 9.8125 71.09375 
Q 15.4375 72.65625 20.34375 73.4375 
Q 25.25 74.21875 29.59375 74.21875 
Q 40.828125 74.21875 47.359375 69.109375 
Q 53.90625 64.015625 53.90625 55.328125 
Q 53.90625 49.265625 50.4375 45.09375 
Q 46.96875 40.921875 40.578125 39.3125 
z
" id="DejaVuSans-33"/>
      </defs>
      <g transform="translate(104.1 224.418199)scale(0.2 -0.2)">
       <use xlink:href="#DejaVuSans-33"/>
       <use x="63.623047" xlink:href="#DejaVuSans-30"/>
       <use x="127.246094" xlink:href="#DejaVuSans-30"/>
       <use x="190.869141" xlink:href="#DejaVuSans-30"/>
      </g>
     </g>
    </g>
    <g id="ytick_8">
     <g id="line2d_17">
      <g>
       <use style="stroke:#000000;stroke-width:0.8;" x="162" xlink:href="#m57ca4fc5dc" y="151.058937"/>
      </g>
     </g>
     <g id="text_18">
      <!-- 3500 -->
      <g transform="translate(104.1 158.657374)scale(0.2 -0.2)">
       <use xlink:href="#DejaVuSans-33"/>
       <use x="63.623047" xlink:href="#DejaVuSans-35"/>
       <use x="127.246094" xlink:href="#DejaVuSans-30"/>
       <use x="190.869141" xlink:href="#DejaVuSans-30"/>
      </g>
     </g>
    </g>
    <g id="text_19">
     <!-- Bandwidth (kbps) -->
     <defs>
      <path d="M 19.671875 34.8125 
L 19.671875 8.109375 
L 35.5 8.109375 
Q 43.453125 8.109375 47.28125 11.40625 
Q 51.125 14.703125 51.125 21.484375 
Q 51.125 28.328125 47.28125 31.5625 
Q 43.453125 34.8125 35.5 34.8125 
z
M 19.671875 64.796875 
L 19.671875 42.828125 
L 34.28125 42.828125 
Q 41.5 42.828125 45.03125 45.53125 
Q 48.578125 48.25 48.578125 53.8125 
Q 48.578125 59.328125 45.03125 62.0625 
Q 41.5 64.796875 34.28125 64.796875 
z
M 9.8125 72.90625 
L 35.015625 72.90625 
Q 46.296875 72.90625 52.390625 68.21875 
Q 58.5 63.53125 58.5 54.890625 
Q 58.5 48.1875 55.375 44.234375 
Q 52.25 40.28125 46.1875 39.3125 
Q 53.46875 37.75 57.5 32.78125 
Q 61.53125 27.828125 61.53125 20.40625 
Q 61.53125 10.640625 54.890625 5.3125 
Q 48.25 0 35.984375 0 
L 9.8125 0 
z
" id="DejaVuSans-42"/>
      <path d="M 34.28125 27.484375 
Q 23.390625 27.484375 19.1875 25 
Q 14.984375 22.515625 14.984375 16.5 
Q 14.984375 11.71875 18.140625 8.90625 
Q 21.296875 6.109375 26.703125 6.109375 
Q 34.1875 6.109375 38.703125 11.40625 
Q 43.21875 16.703125 43.21875 25.484375 
L 43.21875 27.484375 
z
M 52.203125 31.203125 
L 52.203125 0 
L 43.21875 0 
L 43.21875 8.296875 
Q 40.140625 3.328125 35.546875 0.953125 
Q 30.953125 -1.421875 24.3125 -1.421875 
Q 15.921875 -1.421875 10.953125 3.296875 
Q 6 8.015625 6 15.921875 
Q 6 25.140625 12.171875 29.828125 
Q 18.359375 34.515625 30.609375 34.515625 
L 43.21875 34.515625 
L 43.21875 35.40625 
Q 43.21875 41.609375 39.140625 45 
Q 35.0625 48.390625 27.6875 48.390625 
Q 23 48.390625 18.546875 47.265625 
Q 14.109375 46.140625 10.015625 43.890625 
L 10.015625 52.203125 
Q 14.9375 54.109375 19.578125 55.046875 
Q 24.21875 56 28.609375 56 
Q 40.484375 56 46.34375 49.84375 
Q 52.203125 43.703125 52.203125 31.203125 
z
" id="DejaVuSans-61"/>
      <path d="M 45.40625 46.390625 
L 45.40625 75.984375 
L 54.390625 75.984375 
L 54.390625 0 
L 45.40625 0 
L 45.40625 8.203125 
Q 42.578125 3.328125 38.25 0.953125 
Q 33.9375 -1.421875 27.875 -1.421875 
Q 17.96875 -1.421875 11.734375 6.484375 
Q 5.515625 14.40625 5.515625 27.296875 
Q 5.515625 40.1875 11.734375 48.09375 
Q 17.96875 56 27.875 56 
Q 33.9375 56 38.25 53.625 
Q 42.578125 51.265625 45.40625 46.390625 
z
M 14.796875 27.296875 
Q 14.796875 17.390625 18.875 11.75 
Q 22.953125 6.109375 30.078125 6.109375 
Q 37.203125 6.109375 41.296875 11.75 
Q 45.40625 17.390625 45.40625 27.296875 
Q 45.40625 37.203125 41.296875 42.84375 
Q 37.203125 48.484375 30.078125 48.484375 
Q 22.953125 48.484375 18.875 42.84375 
Q 14.796875 37.203125 14.796875 27.296875 
z
" id="DejaVuSans-64"/>
      <path d="M 4.203125 54.6875 
L 13.1875 54.6875 
L 24.421875 12.015625 
L 35.59375 54.6875 
L 46.1875 54.6875 
L 57.421875 12.015625 
L 68.609375 54.6875 
L 77.59375 54.6875 
L 63.28125 0 
L 52.6875 0 
L 40.921875 44.828125 
L 29.109375 0 
L 18.5 0 
z
" id="DejaVuSans-77"/>
      <path d="M 54.890625 33.015625 
L 54.890625 0 
L 45.90625 0 
L 45.90625 32.71875 
Q 45.90625 40.484375 42.875 44.328125 
Q 39.84375 48.1875 33.796875 48.1875 
Q 26.515625 48.1875 22.3125 43.546875 
Q 18.109375 38.921875 18.109375 30.90625 
L 18.109375 0 
L 9.078125 0 
L 9.078125 75.984375 
L 18.109375 75.984375 
L 18.109375 46.1875 
Q 21.34375 51.125 25.703125 53.5625 
Q 30.078125 56 35.796875 56 
Q 45.21875 56 50.046875 50.171875 
Q 54.890625 44.34375 54.890625 33.015625 
z
" id="DejaVuSans-68"/>
      <path d="M 31 75.875 
Q 24.46875 64.65625 21.28125 53.65625 
Q 18.109375 42.671875 18.109375 31.390625 
Q 18.109375 20.125 21.3125 9.0625 
Q 24.515625 -2 31 -13.1875 
L 23.1875 -13.1875 
Q 15.875 -1.703125 12.234375 9.375 
Q 8.59375 20.453125 8.59375 31.390625 
Q 8.59375 42.28125 12.203125 53.3125 
Q 15.828125 64.359375 23.1875 75.875 
z
" id="DejaVuSans-28"/>
      <path d="M 9.078125 75.984375 
L 18.109375 75.984375 
L 18.109375 31.109375 
L 44.921875 54.6875 
L 56.390625 54.6875 
L 27.390625 29.109375 
L 57.625 0 
L 45.90625 0 
L 18.109375 26.703125 
L 18.109375 0 
L 9.078125 0 
z
" id="DejaVuSans-6b"/>
      <path d="M 48.6875 27.296875 
Q 48.6875 37.203125 44.609375 42.84375 
Q 40.53125 48.484375 33.40625 48.484375 
Q 26.265625 48.484375 22.1875 42.84375 
Q 18.109375 37.203125 18.109375 27.296875 
Q 18.109375 17.390625 22.1875 11.75 
Q 26.265625 6.109375 33.40625 6.109375 
Q 40.53125 6.109375 44.609375 11.75 
Q 48.6875 17.390625 48.6875 27.296875 
z
M 18.109375 46.390625 
Q 20.953125 51.265625 25.265625 53.625 
Q 29.59375 56 35.59375 56 
Q 45.5625 56 51.78125 48.09375 
Q 58.015625 40.1875 58.015625 27.296875 
Q 58.015625 14.40625 51.78125 6.484375 
Q 45.5625 -1.421875 35.59375 -1.421875 
Q 29.59375 -1.421875 25.265625 0.953125 
Q 20.953125 3.328125 18.109375 8.203125 
L 18.109375 0 
L 9.078125 0 
L 9.078125 75.984375 
L 18.109375 75.984375 
z
" id="DejaVuSans-62"/>
      <path d="M 8.015625 75.875 
L 15.828125 75.875 
Q 23.140625 64.359375 26.78125 53.3125 
Q 30.421875 42.28125 30.421875 31.390625 
Q 30.421875 20.453125 26.78125 9.375 
Q 23.140625 -1.703125 15.828125 -13.1875 
L 8.015625 -13.1875 
Q 14.5 -2 17.703125 9.0625 
Q 20.90625 20.125 20.90625 31.390625 
Q 20.90625 42.671875 17.703125 53.65625 
Q 14.5 64.65625 8.015625 75.875 
z
" id="DejaVuSans-29"/>
     </defs>
     <g transform="translate(95.940625 446.115625)rotate(-90)scale(0.2 -0.2)">
      <use xlink:href="#DejaVuSans-42"/>
      <use x="68.603516" xlink:href="#DejaVuSans-61"/>
      <use x="129.882812" xlink:href="#DejaVuSans-6e"/>
      <use x="193.261719" xlink:href="#DejaVuSans-64"/>
      <use x="256.738281" xlink:href="#DejaVuSans-77"/>
      <use x="338.525391" xlink:href="#DejaVuSans-69"/>
      <use x="366.308594" xlink:href="#DejaVuSans-64"/>
      <use x="429.785156" xlink:href="#DejaVuSans-74"/>
      <use x="468.994141" xlink:href="#DejaVuSans-68"/>
      <use x="532.373047" xlink:href="#DejaVuSans-20"/>
      <use x="564.160156" xlink:href="#DejaVuSans-28"/>
      <use x="603.173828" xlink:href="#DejaVuSans-6b"/>
      <use x="661.083984" xlink:href="#DejaVuSans-62"/>
      <use x="724.560547" xlink:href="#DejaVuSans-70"/>
      <use x="788.037109" xlink:href="#DejaVuSans-73"/>
      <use x="840.136719" xlink:href="#DejaVuSans-29"/>
     </g>
    </g>
   </g>
   <g id="line2d_18">
    <path clip-path="url(#p0ba1a83fda)" d="M 212.22 255.422826 
L 216.785455 239.117653 
L 221.350909 111.109091 
L 225.916364 556.624936 
L 230.481818 572.664738 
L 235.047273 577.736213 
L 239.612727 332.120413 
L 244.178182 237.379226 
L 248.743636 240.960127 
L 253.309091 577.28729 
L 257.874545 213.100908 
L 262.44 576.232776 
L 267.005455 553.110678 
L 271.570909 562.725213 
L 276.136364 558.151758 
L 280.701818 545.190155 
L 285.267273 552.023441 
L 289.832727 546.528756 
L 294.398182 553.457895 
L 298.963636 438.832989 
L 303.529091 342.327663 
L 308.094545 474.659487 
L 312.66 558.394928 
L 317.225455 550.797067 
L 321.790909 255.899816 
L 326.356364 555.006931 
L 330.921818 556.859926 
L 335.487273 563.417306 
L 340.052727 576.286555 
L 344.618182 572.719688 
L 349.183636 555.5377 
L 353.749091 566.538749 
L 358.314545 524.904255 
L 362.88 552.494578 
L 367.445455 575.461178 
L 372.010909 556.955792 
L 376.576364 573.027159 
L 381.141818 571.163642 
L 385.707273 578.382721 
L 390.272727 578.549898 
L 394.838182 565.636221 
L 399.403636 579.201075 
L 403.969091 567.64236 
L 408.534545 576.361378 
L 413.1 547.170581 
L 417.665455 565.550877 
L 422.230909 531.646345 
L 426.796364 538.60238 
L 431.361818 523.325996 
L 435.927273 571.473441 
L 440.492727 554.99174 
L 445.058182 572.905567 
L 449.623636 584.731994 
L 454.189091 581.215395 
L 458.754545 579.237309 
L 463.32 579.444245 
L 467.885455 573.817446 
L 472.450909 586.017987 
L 477.016364 581.594177 
L 481.581818 573.341641 
L 486.147273 588.643737 
L 490.712727 587.591564 
L 495.278182 585.728047 
L 499.843636 568.913162 
L 504.409091 568.845349 
L 508.974545 592.848932 
L 513.54 579.457095 
L 518.105455 564.519747 
L 522.670909 588.641409 
L 527.236364 581.255154 
L 531.801818 570.195643 
L 536.367273 565.777686 
L 540.932727 575.704348 
L 545.498182 582.190417 
L 550.063636 578.154741 
L 554.629091 570.129001 
L 559.194545 566.502515 
L 563.76 564.043928 
L 568.325455 556.063786 
L 572.890909 583.642416 
L 577.456364 574.827533 
L 582.021818 587.426728 
L 586.587273 564.496362 
L 591.152727 574.235988 
L 595.718182 574.345874 
L 600.283636 570.345275 
L 604.849091 580.094251 
L 609.414545 567.997771 
L 613.98 569.764252 
L 618.545455 553.715099 
L 623.110909 551.243662 
L 627.676364 553.400617 
L 632.241818 553.874095 
L 636.807273 576.162635 
L 641.372727 579.806653 
L 645.938182 575.460007 
L 650.503636 587.640674 
L 655.069091 572.895046 
L 659.634545 555.647586 
L 664.2 563.648784 
L 668.765455 584.864108 
L 673.330909 563.474584 
L 677.896364 581.611722 
L 682.461818 575.94986 
L 687.027273 565.958883 
L 691.592727 565.887572 
L 696.158182 542.783019 
L 700.723636 524.845807 
L 705.289091 546.646836 
L 709.854545 529.501082 
L 714.42 531.96902 
L 718.985455 556.923057 
L 723.550909 505.201734 
L 728.116364 490.087844 
L 732.681818 507.43818 
L 737.247273 564.667051 
L 741.812727 553.519868 
L 746.378182 506.967044 
L 750.943636 493.660564 
L 755.509091 503.713487 
L 760.074545 490.546131 
L 764.64 523.446417 
L 769.205455 521.367783 
L 773.770909 518.828547 
L 778.336364 549.816218 
L 782.901818 552.154371 
L 787.467273 556.967485 
L 792.032727 569.171523 
L 796.598182 559.830566 
L 801.163636 573.245774 
L 805.729091 567.963865 
L 810.294545 577.970032 
L 814.86 544.177727 
L 819.425455 561.876451 
L 823.990909 573.265647 
L 828.556364 569.560827 
L 833.121818 574.774924 
L 837.687273 565.158061 
L 842.252727 571.025689 
L 846.818182 551.832879 
L 851.383636 579.948118 
L 855.949091 554.32653 
L 860.514545 563.98665 
L 865.08 536.180054 
L 869.645455 567.396862 
L 874.210909 539.882533 
L 878.776364 558.751497 
L 883.341818 572.506912 
L 887.907273 564.78162 
L 892.472727 559.476326 
L 897.038182 559.72769 
L 901.603636 571.881448 
L 906.169091 573.40243 
L 910.734545 560.763489 
L 915.3 558.740975 
L 919.865455 564.754737 
L 924.430909 569.4486 
L 928.996364 561.826184 
L 933.561818 561.791107 
L 938.127273 573.35449 
L 942.692727 570.925141 
L 947.258182 562.994096 
L 951.823636 545.76301 
L 956.389091 562.214317 
L 960.954545 563.334303 
L 965.52 567.741738 
L 970.085455 547.252414 
L 974.650909 574.276904 
L 979.216364 578.870219 
L 983.781818 538.9005 
L 988.347273 568.161437 
L 992.912727 569.544466 
L 997.478182 566.590187 
L 1002.043636 563.054885 
L 1006.609091 573.543881 
L 1011.174545 575.607311 
L 1015.74 582.546986 
L 1020.305455 581.889956 
L 1024.870909 578.367517 
L 1029.436364 573.356831 
L 1034.001818 575.434295 
L 1038.567273 570.802392 
L 1043.132727 571.916525 
L 1047.698182 558.169303 
L 1052.263636 572.084872 
L 1056.829091 572.602778 
L 1061.394545 584.858255 
L 1065.96 561.626271 
L 1070.525455 548.575811 
L 1075.090909 573.064564 
L 1079.656364 574.936262 
L 1084.221818 575.147867 
L 1088.787273 562.014404 
L 1093.352727 555.610181 
L 1097.918182 570.334753 
L 1102.483636 562.052993 
L 1107.049091 577.028916 
L 1111.614545 554.553326 
L 1116.18 546.293766 
L 1120.745455 501.405729 
L 1120.745455 501.405729 
" style="fill:none;stroke:#1f77b4;stroke-linecap:square;stroke-width:1.5;"/>
   </g>
   <g id="line2d_19">
    <path clip-path="url(#p0ba1a83fda)" d="M 207.654545 493.163942 
L 212.22 433.429249 
L 216.785455 380.198725 
L 221.350909 375.593885 
L 225.916364 429.709333 
L 230.481818 478.514112 
L 235.047273 521.939218 
L 239.612727 501.162854 
L 244.178182 386.152325 
L 248.743636 349.543673 
L 253.309091 506.423684 
L 257.874545 452.96778 
L 262.44 499.543045 
L 267.005455 492.496214 
L 271.570909 430.634044 
L 276.136364 579.014396 
L 280.701818 588.582574 
L 285.267273 522.594324 
L 289.832727 509.653112 
L 294.398182 533.756292 
L 298.963636 539.930229 
L 303.529091 476.265962 
L 308.094545 478.671548 
L 312.66 494.775677 
L 317.225455 529.751277 
L 321.790909 473.610982 
L 326.356364 504.417415 
L 330.921818 496.910519 
L 335.487273 495.362446 
L 340.052727 605.290909 
L 344.618182 562.891546 
L 349.183636 503.778829 
L 353.749091 529.033064 
L 358.314545 555.934418 
L 362.88 570.317771 
L 367.445455 549.695541 
L 372.010909 521.815405 
L 376.576364 543.231719 
L 381.141818 567.717834 
L 385.707273 561.321216 
L 390.272727 553.621299 
L 394.838182 543.274766 
L 399.403636 556.035959 
L 403.969091 560.409453 
L 408.534545 558.336864 
L 413.1 546.068497 
L 417.665455 544.536084 
L 422.230909 541.186255 
L 426.796364 539.575127 
L 431.361818 537.674981 
L 435.927273 540.806737 
L 440.492727 542.440479 
L 445.058182 548.119281 
L 449.623636 560.591766 
L 454.189091 552.827975 
L 458.754545 555.108743 
L 463.32 560.447354 
L 467.885455 557.788439 
L 472.450909 560.727629 
L 477.016364 559.491742 
L 481.581818 556.501002 
L 486.147273 562.433374 
L 490.712727 562.0702 
L 499.843636 559.243571 
L 504.409091 555.036075 
L 508.974545 561.085582 
L 513.54 558.793574 
L 518.105455 556.34284 
L 522.670909 563.509082 
L 527.236364 556.210312 
L 531.801818 552.920731 
L 536.367273 559.247284 
L 540.932727 557.287936 
L 545.498182 555.717657 
L 550.063636 556.953287 
L 554.629091 558.068939 
L 559.194545 555.093283 
L 563.76 550.404314 
L 568.325455 547.830462 
L 572.890909 557.939507 
L 577.456364 557.992818 
L 582.021818 558.212317 
L 586.587273 555.422804 
L 591.152727 553.042906 
L 595.718182 557.800213 
L 600.283636 555.093306 
L 604.849091 560.41504 
L 609.414545 555.194278 
L 613.98 551.765248 
L 618.545455 550.126199 
L 623.110909 546.800854 
L 627.676364 548.176581 
L 632.241818 544.921115 
L 636.807273 551.832621 
L 641.372727 555.995749 
L 645.938182 555.134484 
L 650.503636 561.178284 
L 655.069091 556.459746 
L 659.634545 550.17455 
L 664.2 554.737455 
L 668.765455 558.512169 
L 673.330909 552.247009 
L 677.896364 558.854286 
L 682.461818 559.465175 
L 687.027273 549.795126 
L 691.592727 554.725957 
L 696.158182 547.761603 
L 700.723636 537.434276 
L 705.289091 541.287765 
L 709.854545 534.105183 
L 714.42 533.836048 
L 718.985455 545.55093 
L 723.550909 525.090197 
L 728.116364 515.581358 
L 732.681818 523.58001 
L 737.247273 533.983793 
L 741.812727 540.903749 
L 746.378182 530.684499 
L 750.943636 520.958727 
L 755.509091 510.760451 
L 760.074545 508.960508 
L 764.64 531.579845 
L 769.205455 533.293659 
L 773.770909 516.415713 
L 778.336364 526.762662 
L 787.467273 546.69239 
L 792.032727 554.874566 
L 796.598182 543.565172 
L 801.163636 546.126192 
L 805.729091 554.315669 
L 810.294545 559.439763 
L 814.86 550.058513 
L 819.425455 545.822334 
L 823.990909 551.826256 
L 828.556364 551.405192 
L 833.121818 560.624017 
L 837.687273 555.396665 
L 842.252727 549.027774 
L 846.818182 546.805335 
L 851.383636 557.119375 
L 855.949091 554.719666 
L 860.514545 548.62481 
L 865.08 543.000412 
L 869.645455 544.806243 
L 874.210909 545.141922 
L 878.776364 546.128891 
L 883.341818 555.247653 
L 887.907273 545.767123 
L 892.472727 548.347352 
L 897.038182 551.964531 
L 901.603636 552.408122 
L 906.169091 554.275015 
L 910.734545 551.823764 
L 915.3 551.620581 
L 919.865455 550.43984 
L 924.430909 550.940842 
L 928.996364 552.397257 
L 933.561818 553.292384 
L 938.127273 553.803387 
L 942.692727 551.487659 
L 947.258182 552.055049 
L 951.823636 549.647352 
L 956.389091 549.485384 
L 960.954545 548.463084 
L 965.52 550.313549 
L 970.085455 550.072762 
L 974.650909 553.013916 
L 979.216364 554.235725 
L 983.781818 541.971892 
L 988.347273 555.429544 
L 992.912727 555.593658 
L 997.478182 546.214918 
L 1002.043636 554.690171 
L 1006.609091 556.581762 
L 1011.174545 554.931068 
L 1015.74 557.564587 
L 1020.305455 561.939528 
L 1024.870909 560.981622 
L 1029.436364 558.235588 
L 1034.001818 557.502939 
L 1038.567273 557.091021 
L 1043.132727 558.16686 
L 1047.698182 553.848444 
L 1052.263636 553.979959 
L 1056.829091 555.291062 
L 1061.394545 558.995052 
L 1065.96 557.086886 
L 1070.525455 548.424835 
L 1075.090909 553.392588 
L 1079.656364 553.563893 
L 1084.221818 557.689497 
L 1088.787273 558.944617 
L 1093.352727 548.434904 
L 1097.918182 549.19382 
L 1102.483636 551.102415 
L 1107.049091 559.985462 
L 1111.614545 554.984175 
L 1116.18 541.917268 
L 1116.18 541.917268 
" style="fill:none;stroke:#ff0000;stroke-linecap:square;stroke-width:1.5;"/>
   </g>
   <g id="line2d_20">
    <path clip-path="url(#p0ba1a83fda)" d="M 216.785455 399.165892 
L 221.350909 348.942683 
L 225.916364 495.752489 
L 230.481818 547.617378 
L 235.047273 551.423972 
L 239.612727 466.474665 
L 244.178182 404.543654 
L 248.743636 398.55937 
L 253.309091 512.914162 
L 257.874545 420.183508 
L 262.44 510.0435 
L 267.005455 543.9967 
L 271.570909 543.960689 
L 276.136364 543.786349 
L 280.701818 538.961911 
L 285.267273 539.44827 
L 289.832727 538.576007 
L 294.398182 540.090842 
L 298.963636 502.26212 
L 303.529091 453.98706 
L 308.094545 490.223587 
L 312.66 532.433214 
L 317.225455 540.819148 
L 321.790909 433.91625 
L 326.356364 507.5198 
L 330.921818 542.326205 
L 335.487273 544.688657 
L 340.052727 549.694732 
L 344.618182 550.323277 
L 349.183636 544.30261 
L 353.749091 545.51178 
L 358.314545 533.419554 
L 362.88 536.928206 
L 367.445455 547.949446 
L 372.010909 545.137757 
L 376.576364 547.777771 
L 381.141818 549.376541 
L 385.707273 551.423001 
L 390.272727 552.472722 
L 394.838182 548.364252 
L 399.403636 550.924565 
L 403.969091 549.098948 
L 408.534545 550.296345 
L 413.1 542.080316 
L 417.665455 544.070022 
L 422.230909 535.516347 
L 426.796364 533.296863 
L 431.361818 529.184829 
L 435.927273 542.801823 
L 440.492727 543.955206 
L 445.058182 547.473125 
L 449.623636 553.676979 
L 454.189091 554.202749 
L 458.754545 553.084373 
L 463.32 552.875676 
L 467.885455 551.110661 
L 472.450909 554.209596 
L 477.016364 554.502533 
L 481.581818 551.256568 
L 486.147273 554.972817 
L 490.712727 556.770824 
L 495.278182 556.033744 
L 499.843636 550.411985 
L 504.409091 548.069721 
L 508.974545 555.675604 
L 513.54 554.779155 
L 518.105455 548.130236 
L 522.670909 553.757542 
L 527.236364 554.761499 
L 531.801818 550.202408 
L 536.367273 547.261072 
L 540.932727 549.831853 
L 545.498182 553.258589 
L 550.063636 552.875254 
L 554.629091 549.752056 
L 559.194545 547.484745 
L 563.76 546.199053 
L 568.325455 543.290341 
L 572.890909 551.026405 
L 577.456364 552.015908 
L 582.021818 554.794319 
L 586.587273 549.227567 
L 591.152727 549.188843 
L 595.718182 550.559934 
L 600.283636 549.296033 
L 604.849091 551.854284 
L 609.414545 549.336576 
L 613.98 548.238747 
L 618.545455 543.307841 
L 623.110909 540.334732 
L 632.241818 541.14487 
L 636.807273 548.358881 
L 641.372727 552.565146 
L 645.938182 551.685358 
L 650.503636 554.949425 
L 655.069091 551.954875 
L 659.634545 544.362221 
L 664.2 544.599332 
L 668.765455 552.446484 
L 673.330909 548.542056 
L 677.896364 551.393548 
L 682.461818 552.092036 
L 687.027273 548.109529 
L 691.592727 546.717317 
L 696.158182 539.219977 
L 700.723636 530.236239 
L 705.289091 535.028415 
L 709.854545 532.282868 
L 714.42 530.845016 
L 718.985455 539.281194 
L 723.550909 525.555067 
L 728.116364 513.805449 
L 732.681818 517.740181 
L 737.247273 538.572459 
L 741.812727 542.550957 
L 746.378182 525.697233 
L 750.943636 515.230369 
L 755.509091 516.941804 
L 760.074545 513.774423 
L 764.64 523.088362 
L 769.205455 526.568765 
L 773.770909 525.461218 
L 778.336364 535.273613 
L 782.901818 540.107732 
L 787.467273 541.977557 
L 792.032727 546.548038 
L 796.598182 545.205854 
L 801.163636 548.237567 
L 805.729091 548.381394 
L 810.294545 550.85227 
L 814.86 541.32283 
L 819.425455 542.491249 
L 823.990909 548.522184 
L 828.556364 548.896134 
L 833.121818 550.053904 
L 837.687273 547.690344 
L 842.252727 548.254248 
L 846.818182 542.868868 
L 851.383636 549.284349 
L 855.949091 544.902404 
L 860.514545 544.529678 
L 865.08 536.798137 
L 869.645455 543.196468 
L 874.210909 538.474677 
L 878.776364 540.915132 
L 883.341818 547.855344 
L 887.907273 547.257721 
L 892.472727 544.493261 
L 897.038182 543.854742 
L 901.603636 547.788259 
L 906.169091 549.934657 
L 910.734545 546.086063 
L 915.3 543.710682 
L 919.865455 545.372672 
L 924.430909 547.694703 
L 928.996364 545.887368 
L 933.561818 544.83796 
L 938.127273 548.538901 
L 942.692727 549.345246 
L 947.258182 546.465629 
L 951.823636 539.80175 
L 956.389091 542.811367 
L 960.954545 545.387234 
L 965.52 546.954468 
L 970.085455 540.930874 
L 974.650909 546.866921 
L 979.216364 552.006974 
L 983.781818 539.715856 
L 988.347273 543.801761 
L 992.912727 548.190771 
L 997.478182 547.432851 
L 1002.043636 545.892818 
L 1006.609091 548.77148 
L 1011.174545 550.866972 
L 1015.74 553.358245 
L 1020.305455 554.112616 
L 1024.870909 552.901251 
L 1029.436364 550.814457 
L 1034.001818 550.786031 
L 1038.567273 549.59233 
L 1043.132727 549.311651 
L 1047.698182 545.044486 
L 1052.263636 547.641685 
L 1056.829091 549.707163 
L 1061.394545 553.675133 
L 1065.96 547.944806 
L 1070.525455 540.533243 
L 1075.090909 546.658797 
L 1079.656364 550.586959 
L 1084.221818 550.912391 
L 1088.787273 546.72925 
L 1093.352727 542.868354 
L 1097.918182 546.736278 
L 1102.483636 546.08164 
L 1107.049091 549.744808 
L 1111.614545 544.574371 
L 1116.18 538.838288 
L 1120.745455 522.876943 
L 1120.745455 522.876943 
" style="fill:none;stroke:#008000;stroke-linecap:square;stroke-width:1.5;"/>
   </g>
   <g id="patch_3">
    <path d="M 162 630 
L 162 86.4 
" style="fill:none;stroke:#000000;stroke-linecap:square;stroke-linejoin:miter;stroke-width:0.8;"/>
   </g>
   <g id="patch_4">
    <path d="M 1166.4 630 
L 1166.4 86.4 
" style="fill:none;stroke:#000000;stroke-linecap:square;stroke-linejoin:miter;stroke-width:0.8;"/>
   </g>
   <g id="patch_5">
    <path d="M 162 630 
L 1166.4 630 
" style="fill:none;stroke:#000000;stroke-linecap:square;stroke-linejoin:miter;stroke-width:0.8;"/>
   </g>
   <g id="patch_6">
    <path d="M 162 86.4 
L 1166.4 86.4 
" style="fill:none;stroke:#000000;stroke-linecap:square;stroke-linejoin:miter;stroke-width:0.8;"/>
   </g>
   <g id="legend_1">
    <g id="patch_7">
     <path d="M 907.071875 190.46875 
L 1152.4 190.46875 
Q 1156.4 190.46875 1156.4 186.46875 
L 1156.4 100.4 
Q 1156.4 96.4 1152.4 96.4 
L 907.071875 96.4 
Q 903.071875 96.4 903.071875 100.4 
L 903.071875 186.46875 
Q 903.071875 190.46875 907.071875 190.46875 
z
" style="fill:#ffffff;opacity:0.8;stroke:#cccccc;stroke-linejoin:miter;"/>
    </g>
    <g id="line2d_21">
     <path d="M 911.071875 112.596875 
L 951.071875 112.596875 
" style="fill:none;stroke:#1f77b4;stroke-linecap:square;stroke-width:1.5;"/>
    </g>
    <g id="line2d_22"/>
    <g id="text_20">
     <!-- Real values -->
     <defs>
      <path d="M 44.390625 34.1875 
Q 47.5625 33.109375 50.5625 29.59375 
Q 53.5625 26.078125 56.59375 19.921875 
L 66.609375 0 
L 56 0 
L 46.6875 18.703125 
Q 43.0625 26.03125 39.671875 28.421875 
Q 36.28125 30.8125 30.421875 30.8125 
L 19.671875 30.8125 
L 19.671875 0 
L 9.8125 0 
L 9.8125 72.90625 
L 32.078125 72.90625 
Q 44.578125 72.90625 50.734375 67.671875 
Q 56.890625 62.453125 56.890625 51.90625 
Q 56.890625 45.015625 53.6875 40.46875 
Q 50.484375 35.9375 44.390625 34.1875 
z
M 19.671875 64.796875 
L 19.671875 38.921875 
L 32.078125 38.921875 
Q 39.203125 38.921875 42.84375 42.21875 
Q 46.484375 45.515625 46.484375 51.90625 
Q 46.484375 58.296875 42.84375 61.546875 
Q 39.203125 64.796875 32.078125 64.796875 
z
" id="DejaVuSans-52"/>
      <path d="M 9.421875 75.984375 
L 18.40625 75.984375 
L 18.40625 0 
L 9.421875 0 
z
" id="DejaVuSans-6c"/>
      <path d="M 2.984375 54.6875 
L 12.5 54.6875 
L 29.59375 8.796875 
L 46.6875 54.6875 
L 56.203125 54.6875 
L 35.6875 0 
L 23.484375 0 
z
" id="DejaVuSans-76"/>
     </defs>
     <g transform="translate(967.071875 119.596875)scale(0.2 -0.2)">
      <use xlink:href="#DejaVuSans-52"/>
      <use x="69.419922" xlink:href="#DejaVuSans-65"/>
      <use x="130.943359" xlink:href="#DejaVuSans-61"/>
      <use x="192.222656" xlink:href="#DejaVuSans-6c"/>
      <use x="220.005859" xlink:href="#DejaVuSans-20"/>
      <use x="251.792969" xlink:href="#DejaVuSans-76"/>
      <use x="310.972656" xlink:href="#DejaVuSans-61"/>
      <use x="372.251953" xlink:href="#DejaVuSans-6c"/>
      <use x="400.035156" xlink:href="#DejaVuSans-75"/>
      <use x="463.414062" xlink:href="#DejaVuSans-65"/>
      <use x="524.9375" xlink:href="#DejaVuSans-73"/>
     </g>
    </g>
    <g id="line2d_23">
     <path d="M 911.071875 141.953125 
L 951.071875 141.953125 
" style="fill:none;stroke:#ff0000;stroke-linecap:square;stroke-width:1.5;"/>
    </g>
    <g id="line2d_24"/>
    <g id="text_21">
     <!-- ARIMA Predictions -->
     <defs>
      <path d="M 34.1875 63.1875 
L 20.796875 26.90625 
L 47.609375 26.90625 
z
M 28.609375 72.90625 
L 39.796875 72.90625 
L 67.578125 0 
L 57.328125 0 
L 50.6875 18.703125 
L 17.828125 18.703125 
L 11.1875 0 
L 0.78125 0 
z
" id="DejaVuSans-41"/>
      <path d="M 9.8125 72.90625 
L 19.671875 72.90625 
L 19.671875 0 
L 9.8125 0 
z
" id="DejaVuSans-49"/>
      <path d="M 19.671875 64.796875 
L 19.671875 37.40625 
L 32.078125 37.40625 
Q 38.96875 37.40625 42.71875 40.96875 
Q 46.484375 44.53125 46.484375 51.125 
Q 46.484375 57.671875 42.71875 61.234375 
Q 38.96875 64.796875 32.078125 64.796875 
z
M 9.8125 72.90625 
L 32.078125 72.90625 
Q 44.34375 72.90625 50.609375 67.359375 
Q 56.890625 61.8125 56.890625 51.125 
Q 56.890625 40.328125 50.609375 34.8125 
Q 44.34375 29.296875 32.078125 29.296875 
L 19.671875 29.296875 
L 19.671875 0 
L 9.8125 0 
z
" id="DejaVuSans-50"/>
      <path d="M 41.109375 46.296875 
Q 39.59375 47.171875 37.8125 47.578125 
Q 36.03125 48 33.890625 48 
Q 26.265625 48 22.1875 43.046875 
Q 18.109375 38.09375 18.109375 28.8125 
L 18.109375 0 
L 9.078125 0 
L 9.078125 54.6875 
L 18.109375 54.6875 
L 18.109375 46.1875 
Q 20.953125 51.171875 25.484375 53.578125 
Q 30.03125 56 36.53125 56 
Q 37.453125 56 38.578125 55.875 
Q 39.703125 55.765625 41.0625 55.515625 
z
" id="DejaVuSans-72"/>
      <path d="M 48.78125 52.59375 
L 48.78125 44.1875 
Q 44.96875 46.296875 41.140625 47.34375 
Q 37.3125 48.390625 33.40625 48.390625 
Q 24.65625 48.390625 19.8125 42.84375 
Q 14.984375 37.3125 14.984375 27.296875 
Q 14.984375 17.28125 19.8125 11.734375 
Q 24.65625 6.203125 33.40625 6.203125 
Q 37.3125 6.203125 41.140625 7.25 
Q 44.96875 8.296875 48.78125 10.40625 
L 48.78125 2.09375 
Q 45.015625 0.34375 40.984375 -0.53125 
Q 36.96875 -1.421875 32.421875 -1.421875 
Q 20.0625 -1.421875 12.78125 6.34375 
Q 5.515625 14.109375 5.515625 27.296875 
Q 5.515625 40.671875 12.859375 48.328125 
Q 20.21875 56 33.015625 56 
Q 37.15625 56 41.109375 55.140625 
Q 45.0625 54.296875 48.78125 52.59375 
z
" id="DejaVuSans-63"/>
      <path d="M 30.609375 48.390625 
Q 23.390625 48.390625 19.1875 42.75 
Q 14.984375 37.109375 14.984375 27.296875 
Q 14.984375 17.484375 19.15625 11.84375 
Q 23.34375 6.203125 30.609375 6.203125 
Q 37.796875 6.203125 41.984375 11.859375 
Q 46.1875 17.53125 46.1875 27.296875 
Q 46.1875 37.015625 41.984375 42.703125 
Q 37.796875 48.390625 30.609375 48.390625 
z
M 30.609375 56 
Q 42.328125 56 49.015625 48.375 
Q 55.71875 40.765625 55.71875 27.296875 
Q 55.71875 13.875 49.015625 6.21875 
Q 42.328125 -1.421875 30.609375 -1.421875 
Q 18.84375 -1.421875 12.171875 6.21875 
Q 5.515625 13.875 5.515625 27.296875 
Q 5.515625 40.765625 12.171875 48.375 
Q 18.84375 56 30.609375 56 
z
" id="DejaVuSans-6f"/>
     </defs>
     <g transform="translate(967.071875 148.953125)scale(0.2 -0.2)">
      <use xlink:href="#DejaVuSans-41"/>
      <use x="68.408203" xlink:href="#DejaVuSans-52"/>
      <use x="137.890625" xlink:href="#DejaVuSans-49"/>
      <use x="167.382812" xlink:href="#DejaVuSans-4d"/>
      <use x="253.662109" xlink:href="#DejaVuSans-41"/>
      <use x="322.070312" xlink:href="#DejaVuSans-20"/>
      <use x="353.857422" xlink:href="#DejaVuSans-50"/>
      <use x="414.144531" xlink:href="#DejaVuSans-72"/>
      <use x="455.226562" xlink:href="#DejaVuSans-65"/>
      <use x="516.75" xlink:href="#DejaVuSans-64"/>
      <use x="580.226562" xlink:href="#DejaVuSans-69"/>
      <use x="608.009766" xlink:href="#DejaVuSans-63"/>
      <use x="662.990234" xlink:href="#DejaVuSans-74"/>
      <use x="702.199219" xlink:href="#DejaVuSans-69"/>
      <use x="729.982422" xlink:href="#DejaVuSans-6f"/>
      <use x="791.164062" xlink:href="#DejaVuSans-6e"/>
      <use x="854.542969" xlink:href="#DejaVuSans-73"/>
     </g>
    </g>
    <g id="line2d_25">
     <path d="M 911.071875 171.309375 
L 951.071875 171.309375 
" style="fill:none;stroke:#008000;stroke-linecap:square;stroke-width:1.5;"/>
    </g>
    <g id="line2d_26"/>
    <g id="text_22">
     <!-- LSTM Predictions -->
     <defs>
      <path d="M 9.8125 72.90625 
L 19.671875 72.90625 
L 19.671875 8.296875 
L 55.171875 8.296875 
L 55.171875 0 
L 9.8125 0 
z
" id="DejaVuSans-4c"/>
      <path d="M -0.296875 72.90625 
L 61.375 72.90625 
L 61.375 64.59375 
L 35.5 64.59375 
L 35.5 0 
L 25.59375 0 
L 25.59375 64.59375 
L -0.296875 64.59375 
z
" id="DejaVuSans-54"/>
     </defs>
     <g transform="translate(967.071875 178.309375)scale(0.2 -0.2)">
      <use xlink:href="#DejaVuSans-4c"/>
      <use x="55.712891" xlink:href="#DejaVuSans-53"/>
      <use x="119.189453" xlink:href="#DejaVuSans-54"/>
      <use x="180.273438" xlink:href="#DejaVuSans-4d"/>
      <use x="266.552734" xlink:href="#DejaVuSans-20"/>
      <use x="298.339844" xlink:href="#DejaVuSans-50"/>
      <use x="358.626953" xlink:href="#DejaVuSans-72"/>
      <use x="399.708984" xlink:href="#DejaVuSans-65"/>
      <use x="461.232422" xlink:href="#DejaVuSans-64"/>
      <use x="524.708984" xlink:href="#DejaVuSans-69"/>
      <use x="552.492188" xlink:href="#DejaVuSans-63"/>
      <use x="607.472656" xlink:href="#DejaVuSans-74"/>
      <use x="646.681641" xlink:href="#DejaVuSans-69"/>
      <use x="674.464844" xlink:href="#DejaVuSans-6f"/>
      <use x="735.646484" xlink:href="#DejaVuSans-6e"/>
      <use x="799.025391" xlink:href="#DejaVuSans-73"/>
     </g>
    </g>
   </g>
  </g>
 </g>
 <defs>
  <clipPath id="p0ba1a83fda">
   <rect height="543.6" width="1004.4" x="162" y="86.4"/>
  </clipPath>
 </defs>
</svg>
