<?xml version="1.0" encoding="utf-8" standalone="no"?>
<!DOCTYPE svg PUBLIC "-//W3C//DTD SVG 1.1//EN"
  "http://www.w3.org/Graphics/SVG/1.1/DTD/svg11.dtd">
<!-- Created with matplotlib (http://matplotlib.org/) -->
<svg height="756pt" version="1.1" viewBox="0 0 756 756" width="756pt" xmlns="http://www.w3.org/2000/svg" xmlns:xlink="http://www.w3.org/1999/xlink">
 <defs>
  <style type="text/css">
*{stroke-linecap:butt;stroke-linejoin:round;}
  </style>
 </defs>
 <g id="figure_1">
  <g id="patch_1">
   <path d="M 0 756 
L 756 756 
L 756 0 
L 0 0 
z
" style="fill:#ffffff;"/>
  </g>
  <g id="axes_1">
   <g id="patch_2">
    <path d="M 94.5 661.5 
L 680.4 661.5 
L 680.4 90.72 
L 94.5 90.72 
z
" style="fill:#ffffff;"/>
   </g>
   <g id="matplotlib.axis_1">
    <g id="xtick_1">
     <g id="line2d_1">
      <defs>
       <path d="M 0 0 
L 0 3.5 
" id="m8445f8c11b" style="stroke:#000000;stroke-width:0.8;"/>
      </defs>
      <g>
       <use style="stroke:#000000;stroke-width:0.8;" x="121.131818" xlink:href="#m8445f8c11b" y="661.5"/>
      </g>
     </g>
     <g id="text_1">
      <!-- 0 -->
      <defs>
       <path d="M 31.78125 66.40625 
Q 24.171875 66.40625 20.328125 58.90625 
Q 16.5 51.421875 16.5 36.375 
Q 16.5 21.390625 20.328125 13.890625 
Q 24.171875 6.390625 31.78125 6.390625 
Q 39.453125 6.390625 43.28125 13.890625 
Q 47.125 21.390625 47.125 36.375 
Q 47.125 51.421875 43.28125 58.90625 
Q 39.453125 66.40625 31.78125 66.40625 
z
M 31.78125 74.21875 
Q 44.046875 74.21875 50.515625 64.515625 
Q 56.984375 54.828125 56.984375 36.375 
Q 56.984375 17.96875 50.515625 8.265625 
Q 44.046875 -1.421875 31.78125 -1.421875 
Q 19.53125 -1.421875 13.0625 8.265625 
Q 6.59375 17.96875 6.59375 36.375 
Q 6.59375 54.828125 13.0625 64.515625 
Q 19.53125 74.21875 31.78125 74.21875 
z
" id="DejaVuSans-30"/>
      </defs>
      <g transform="translate(116.359943 679.897656)scale(0.15 -0.15)">
       <use xlink:href="#DejaVuSans-30"/>
      </g>
     </g>
    </g>
    <g id="xtick_2">
     <g id="line2d_2">
      <g>
       <use style="stroke:#000000;stroke-width:0.8;" x="188.045934" xlink:href="#m8445f8c11b" y="661.5"/>
      </g>
     </g>
     <g id="text_2">
      <!-- 25 -->
      <defs>
       <path d="M 19.1875 8.296875 
L 53.609375 8.296875 
L 53.609375 0 
L 7.328125 0 
L 7.328125 8.296875 
Q 12.9375 14.109375 22.625 23.890625 
Q 32.328125 33.6875 34.8125 36.53125 
Q 39.546875 41.84375 41.421875 45.53125 
Q 43.3125 49.21875 43.3125 52.78125 
Q 43.3125 58.59375 39.234375 62.25 
Q 35.15625 65.921875 28.609375 65.921875 
Q 23.96875 65.921875 18.8125 64.3125 
Q 13.671875 62.703125 7.8125 59.421875 
L 7.8125 69.390625 
Q 13.765625 71.78125 18.9375 73 
Q 24.125 74.21875 28.421875 74.21875 
Q 39.75 74.21875 46.484375 68.546875 
Q 53.21875 62.890625 53.21875 53.421875 
Q 53.21875 48.921875 51.53125 44.890625 
Q 49.859375 40.875 45.40625 35.40625 
Q 44.1875 33.984375 37.640625 27.21875 
Q 31.109375 20.453125 19.1875 8.296875 
z
" id="DejaVuSans-32"/>
       <path d="M 10.796875 72.90625 
L 49.515625 72.90625 
L 49.515625 64.59375 
L 19.828125 64.59375 
L 19.828125 46.734375 
Q 21.96875 47.46875 24.109375 47.828125 
Q 26.265625 48.1875 28.421875 48.1875 
Q 40.625 48.1875 47.75 41.5 
Q 54.890625 34.8125 54.890625 23.390625 
Q 54.890625 11.625 47.5625 5.09375 
Q 40.234375 -1.421875 26.90625 -1.421875 
Q 22.3125 -1.421875 17.546875 -0.640625 
Q 12.796875 0.140625 7.71875 1.703125 
L 7.71875 11.625 
Q 12.109375 9.234375 16.796875 8.0625 
Q 21.484375 6.890625 26.703125 6.890625 
Q 35.15625 6.890625 40.078125 11.328125 
Q 45.015625 15.765625 45.015625 23.390625 
Q 45.015625 31 40.078125 35.4375 
Q 35.15625 39.890625 26.703125 39.890625 
Q 22.75 39.890625 18.8125 39.015625 
Q 14.890625 38.140625 10.796875 36.28125 
z
" id="DejaVuSans-35"/>
      </defs>
      <g transform="translate(178.502184 679.897656)scale(0.15 -0.15)">
       <use xlink:href="#DejaVuSans-32"/>
       <use x="63.623047" xlink:href="#DejaVuSans-35"/>
      </g>
     </g>
    </g>
    <g id="xtick_3">
     <g id="line2d_3">
      <g>
       <use style="stroke:#000000;stroke-width:0.8;" x="254.96005" xlink:href="#m8445f8c11b" y="661.5"/>
      </g>
     </g>
     <g id="text_3">
      <!-- 50 -->
      <g transform="translate(245.4163 679.897656)scale(0.15 -0.15)">
       <use xlink:href="#DejaVuSans-35"/>
       <use x="63.623047" xlink:href="#DejaVuSans-30"/>
      </g>
     </g>
    </g>
    <g id="xtick_4">
     <g id="line2d_4">
      <g>
       <use style="stroke:#000000;stroke-width:0.8;" x="321.874166" xlink:href="#m8445f8c11b" y="661.5"/>
      </g>
     </g>
     <g id="text_4">
      <!-- 75 -->
      <defs>
       <path d="M 8.203125 72.90625 
L 55.078125 72.90625 
L 55.078125 68.703125 
L 28.609375 0 
L 18.3125 0 
L 43.21875 64.59375 
L 8.203125 64.59375 
z
" id="DejaVuSans-37"/>
      </defs>
      <g transform="translate(312.330416 679.897656)scale(0.15 -0.15)">
       <use xlink:href="#DejaVuSans-37"/>
       <use x="63.623047" xlink:href="#DejaVuSans-35"/>
      </g>
     </g>
    </g>
    <g id="xtick_5">
     <g id="line2d_5">
      <g>
       <use style="stroke:#000000;stroke-width:0.8;" x="388.788282" xlink:href="#m8445f8c11b" y="661.5"/>
      </g>
     </g>
     <g id="text_5">
      <!-- 100 -->
      <defs>
       <path d="M 12.40625 8.296875 
L 28.515625 8.296875 
L 28.515625 63.921875 
L 10.984375 60.40625 
L 10.984375 69.390625 
L 28.421875 72.90625 
L 38.28125 72.90625 
L 38.28125 8.296875 
L 54.390625 8.296875 
L 54.390625 0 
L 12.40625 0 
z
" id="DejaVuSans-31"/>
      </defs>
      <g transform="translate(374.472657 679.897656)scale(0.15 -0.15)">
       <use xlink:href="#DejaVuSans-31"/>
       <use x="63.623047" xlink:href="#DejaVuSans-30"/>
       <use x="127.246094" xlink:href="#DejaVuSans-30"/>
      </g>
     </g>
    </g>
    <g id="xtick_6">
     <g id="line2d_6">
      <g>
       <use style="stroke:#000000;stroke-width:0.8;" x="455.702398" xlink:href="#m8445f8c11b" y="661.5"/>
      </g>
     </g>
     <g id="text_6">
      <!-- 125 -->
      <g transform="translate(441.386773 679.897656)scale(0.15 -0.15)">
       <use xlink:href="#DejaVuSans-31"/>
       <use x="63.623047" xlink:href="#DejaVuSans-32"/>
       <use x="127.246094" xlink:href="#DejaVuSans-35"/>
      </g>
     </g>
    </g>
    <g id="xtick_7">
     <g id="line2d_7">
      <g>
       <use style="stroke:#000000;stroke-width:0.8;" x="522.616514" xlink:href="#m8445f8c11b" y="661.5"/>
      </g>
     </g>
     <g id="text_7">
      <!-- 150 -->
      <g transform="translate(508.300889 679.897656)scale(0.15 -0.15)">
       <use xlink:href="#DejaVuSans-31"/>
       <use x="63.623047" xlink:href="#DejaVuSans-35"/>
       <use x="127.246094" xlink:href="#DejaVuSans-30"/>
      </g>
     </g>
    </g>
    <g id="xtick_8">
     <g id="line2d_8">
      <g>
       <use style="stroke:#000000;stroke-width:0.8;" x="589.53063" xlink:href="#m8445f8c11b" y="661.5"/>
      </g>
     </g>
     <g id="text_8">
      <!-- 175 -->
      <g transform="translate(575.215005 679.897656)scale(0.15 -0.15)">
       <use xlink:href="#DejaVuSans-31"/>
       <use x="63.623047" xlink:href="#DejaVuSans-37"/>
       <use x="127.246094" xlink:href="#DejaVuSans-35"/>
      </g>
     </g>
    </g>
    <g id="xtick_9">
     <g id="line2d_9">
      <g>
       <use style="stroke:#000000;stroke-width:0.8;" x="656.444746" xlink:href="#m8445f8c11b" y="661.5"/>
      </g>
     </g>
     <g id="text_9">
      <!-- 200 -->
      <g transform="translate(642.129121 679.897656)scale(0.15 -0.15)">
       <use xlink:href="#DejaVuSans-32"/>
       <use x="63.623047" xlink:href="#DejaVuSans-30"/>
       <use x="127.246094" xlink:href="#DejaVuSans-30"/>
      </g>
     </g>
    </g>
    <g id="text_10">
     <!-- 15-Minute Steps -->
     <defs>
      <path d="M 4.890625 31.390625 
L 31.203125 31.390625 
L 31.203125 23.390625 
L 4.890625 23.390625 
z
" id="DejaVuSans-2d"/>
      <path d="M 9.8125 72.90625 
L 24.515625 72.90625 
L 43.109375 23.296875 
L 61.8125 72.90625 
L 76.515625 72.90625 
L 76.515625 0 
L 66.890625 0 
L 66.890625 64.015625 
L 48.09375 14.015625 
L 38.1875 14.015625 
L 19.390625 64.015625 
L 19.390625 0 
L 9.8125 0 
z
" id="DejaVuSans-4d"/>
      <path d="M 9.421875 54.6875 
L 18.40625 54.6875 
L 18.40625 0 
L 9.421875 0 
z
M 9.421875 75.984375 
L 18.40625 75.984375 
L 18.40625 64.59375 
L 9.421875 64.59375 
z
" id="DejaVuSans-69"/>
      <path d="M 54.890625 33.015625 
L 54.890625 0 
L 45.90625 0 
L 45.90625 32.71875 
Q 45.90625 40.484375 42.875 44.328125 
Q 39.84375 48.1875 33.796875 48.1875 
Q 26.515625 48.1875 22.3125 43.546875 
Q 18.109375 38.921875 18.109375 30.90625 
L 18.109375 0 
L 9.078125 0 
L 9.078125 54.6875 
L 18.109375 54.6875 
L 18.109375 46.1875 
Q 21.34375 51.125 25.703125 53.5625 
Q 30.078125 56 35.796875 56 
Q 45.21875 56 50.046875 50.171875 
Q 54.890625 44.34375 54.890625 33.015625 
z
" id="DejaVuSans-6e"/>
      <path d="M 8.5 21.578125 
L 8.5 54.6875 
L 17.484375 54.6875 
L 17.484375 21.921875 
Q 17.484375 14.15625 20.5 10.265625 
Q 23.53125 6.390625 29.59375 6.390625 
Q 36.859375 6.390625 41.078125 11.03125 
Q 45.3125 15.671875 45.3125 23.6875 
L 45.3125 54.6875 
L 54.296875 54.6875 
L 54.296875 0 
L 45.3125 0 
L 45.3125 8.40625 
Q 42.046875 3.421875 37.71875 1 
Q 33.40625 -1.421875 27.6875 -1.421875 
Q 18.265625 -1.421875 13.375 4.4375 
Q 8.5 10.296875 8.5 21.578125 
z
M 31.109375 56 
z
" id="DejaVuSans-75"/>
      <path d="M 18.3125 70.21875 
L 18.3125 54.6875 
L 36.8125 54.6875 
L 36.8125 47.703125 
L 18.3125 47.703125 
L 18.3125 18.015625 
Q 18.3125 11.328125 20.140625 9.421875 
Q 21.96875 7.515625 27.59375 7.515625 
L 36.8125 7.515625 
L 36.8125 0 
L 27.59375 0 
Q 17.1875 0 13.234375 3.875 
Q 9.28125 7.765625 9.28125 18.015625 
L 9.28125 47.703125 
L 2.6875 47.703125 
L 2.6875 54.6875 
L 9.28125 54.6875 
L 9.28125 70.21875 
z
" id="DejaVuSans-74"/>
      <path d="M 56.203125 29.59375 
L 56.203125 25.203125 
L 14.890625 25.203125 
Q 15.484375 15.921875 20.484375 11.0625 
Q 25.484375 6.203125 34.421875 6.203125 
Q 39.59375 6.203125 44.453125 7.46875 
Q 49.3125 8.734375 54.109375 11.28125 
L 54.109375 2.78125 
Q 49.265625 0.734375 44.1875 -0.34375 
Q 39.109375 -1.421875 33.890625 -1.421875 
Q 20.796875 -1.421875 13.15625 6.1875 
Q 5.515625 13.8125 5.515625 26.8125 
Q 5.515625 40.234375 12.765625 48.109375 
Q 20.015625 56 32.328125 56 
Q 43.359375 56 49.78125 48.890625 
Q 56.203125 41.796875 56.203125 29.59375 
z
M 47.21875 32.234375 
Q 47.125 39.59375 43.09375 43.984375 
Q 39.0625 48.390625 32.421875 48.390625 
Q 24.90625 48.390625 20.390625 44.140625 
Q 15.875 39.890625 15.1875 32.171875 
z
" id="DejaVuSans-65"/>
      <path id="DejaVuSans-20"/>
      <path d="M 53.515625 70.515625 
L 53.515625 60.890625 
Q 47.90625 63.578125 42.921875 64.890625 
Q 37.9375 66.21875 33.296875 66.21875 
Q 25.25 66.21875 20.875 63.09375 
Q 16.5 59.96875 16.5 54.203125 
Q 16.5 49.359375 19.40625 46.890625 
Q 22.3125 44.4375 30.421875 42.921875 
L 36.375 41.703125 
Q 47.40625 39.59375 52.65625 34.296875 
Q 57.90625 29 57.90625 20.125 
Q 57.90625 9.515625 50.796875 4.046875 
Q 43.703125 -1.421875 29.984375 -1.421875 
Q 24.8125 -1.421875 18.96875 -0.25 
Q 13.140625 0.921875 6.890625 3.21875 
L 6.890625 13.375 
Q 12.890625 10.015625 18.65625 8.296875 
Q 24.421875 6.59375 29.984375 6.59375 
Q 38.421875 6.59375 43.015625 9.90625 
Q 47.609375 13.234375 47.609375 19.390625 
Q 47.609375 24.75 44.3125 27.78125 
Q 41.015625 30.8125 33.5 32.328125 
L 27.484375 33.5 
Q 16.453125 35.6875 11.515625 40.375 
Q 6.59375 45.0625 6.59375 53.421875 
Q 6.59375 63.09375 13.40625 68.65625 
Q 20.21875 74.21875 32.171875 74.21875 
Q 37.3125 74.21875 42.625 73.28125 
Q 47.953125 72.359375 53.515625 70.515625 
z
" id="DejaVuSans-53"/>
      <path d="M 18.109375 8.203125 
L 18.109375 -20.796875 
L 9.078125 -20.796875 
L 9.078125 54.6875 
L 18.109375 54.6875 
L 18.109375 46.390625 
Q 20.953125 51.265625 25.265625 53.625 
Q 29.59375 56 35.59375 56 
Q 45.5625 56 51.78125 48.09375 
Q 58.015625 40.1875 58.015625 27.296875 
Q 58.015625 14.40625 51.78125 6.484375 
Q 45.5625 -1.421875 35.59375 -1.421875 
Q 29.59375 -1.421875 25.265625 0.953125 
Q 20.953125 3.328125 18.109375 8.203125 
z
M 48.6875 27.296875 
Q 48.6875 37.203125 44.609375 42.84375 
Q 40.53125 48.484375 33.40625 48.484375 
Q 26.265625 48.484375 22.1875 42.84375 
Q 18.109375 37.203125 18.109375 27.296875 
Q 18.109375 17.390625 22.1875 11.75 
Q 26.265625 6.109375 33.40625 6.109375 
Q 40.53125 6.109375 44.609375 11.75 
Q 48.6875 17.390625 48.6875 27.296875 
z
" id="DejaVuSans-70"/>
      <path d="M 44.28125 53.078125 
L 44.28125 44.578125 
Q 40.484375 46.53125 36.375 47.5 
Q 32.28125 48.484375 27.875 48.484375 
Q 21.1875 48.484375 17.84375 46.4375 
Q 14.5 44.390625 14.5 40.28125 
Q 14.5 37.15625 16.890625 35.375 
Q 19.28125 33.59375 26.515625 31.984375 
L 29.59375 31.296875 
Q 39.15625 29.25 43.1875 25.515625 
Q 47.21875 21.78125 47.21875 15.09375 
Q 47.21875 7.46875 41.1875 3.015625 
Q 35.15625 -1.421875 24.609375 -1.421875 
Q 20.21875 -1.421875 15.453125 -0.5625 
Q 10.6875 0.296875 5.421875 2 
L 5.421875 11.28125 
Q 10.40625 8.6875 15.234375 7.390625 
Q 20.0625 6.109375 24.8125 6.109375 
Q 31.15625 6.109375 34.5625 8.28125 
Q 37.984375 10.453125 37.984375 14.40625 
Q 37.984375 18.0625 35.515625 20.015625 
Q 33.0625 21.96875 24.703125 23.78125 
L 21.578125 24.515625 
Q 13.234375 26.265625 9.515625 29.90625 
Q 5.8125 33.546875 5.8125 39.890625 
Q 5.8125 47.609375 11.28125 51.796875 
Q 16.75 56 26.8125 56 
Q 31.78125 56 36.171875 55.265625 
Q 40.578125 54.546875 44.28125 53.078125 
z
" id="DejaVuSans-73"/>
     </defs>
     <g transform="translate(346.627344 694.615625)scale(0.1 -0.1)">
      <use xlink:href="#DejaVuSans-31"/>
      <use x="63.623047" xlink:href="#DejaVuSans-35"/>
      <use x="127.246094" xlink:href="#DejaVuSans-2d"/>
      <use x="163.330078" xlink:href="#DejaVuSans-4d"/>
      <use x="249.609375" xlink:href="#DejaVuSans-69"/>
      <use x="277.392578" xlink:href="#DejaVuSans-6e"/>
      <use x="340.771484" xlink:href="#DejaVuSans-75"/>
      <use x="404.150391" xlink:href="#DejaVuSans-74"/>
      <use x="443.359375" xlink:href="#DejaVuSans-65"/>
      <use x="504.882812" xlink:href="#DejaVuSans-20"/>
      <use x="536.669922" xlink:href="#DejaVuSans-53"/>
      <use x="600.146484" xlink:href="#DejaVuSans-74"/>
      <use x="639.355469" xlink:href="#DejaVuSans-65"/>
      <use x="700.878906" xlink:href="#DejaVuSans-70"/>
      <use x="764.355469" xlink:href="#DejaVuSans-73"/>
     </g>
    </g>
   </g>
   <g id="matplotlib.axis_2">
    <g id="ytick_1">
     <g id="line2d_10">
      <defs>
       <path d="M 0 0 
L -3.5 0 
" id="m1387998a69" style="stroke:#000000;stroke-width:0.8;"/>
      </defs>
      <g>
       <use style="stroke:#000000;stroke-width:0.8;" x="94.5" xlink:href="#m1387998a69" y="635.588837"/>
      </g>
     </g>
     <g id="text_11">
      <!-- 0 -->
      <g transform="translate(77.95625 641.287665)scale(0.15 -0.15)">
       <use xlink:href="#DejaVuSans-30"/>
      </g>
     </g>
    </g>
    <g id="ytick_2">
     <g id="line2d_11">
      <g>
       <use style="stroke:#000000;stroke-width:0.8;" x="94.5" xlink:href="#m1387998a69" y="541.71203"/>
      </g>
     </g>
     <g id="text_12">
      <!-- 1000 -->
      <g transform="translate(49.325 547.410858)scale(0.15 -0.15)">
       <use xlink:href="#DejaVuSans-31"/>
       <use x="63.623047" xlink:href="#DejaVuSans-30"/>
       <use x="127.246094" xlink:href="#DejaVuSans-30"/>
       <use x="190.869141" xlink:href="#DejaVuSans-30"/>
      </g>
     </g>
    </g>
    <g id="ytick_3">
     <g id="line2d_12">
      <g>
       <use style="stroke:#000000;stroke-width:0.8;" x="94.5" xlink:href="#m1387998a69" y="447.835223"/>
      </g>
     </g>
     <g id="text_13">
      <!-- 2000 -->
      <g transform="translate(49.325 453.534051)scale(0.15 -0.15)">
       <use xlink:href="#DejaVuSans-32"/>
       <use x="63.623047" xlink:href="#DejaVuSans-30"/>
       <use x="127.246094" xlink:href="#DejaVuSans-30"/>
       <use x="190.869141" xlink:href="#DejaVuSans-30"/>
      </g>
     </g>
    </g>
    <g id="ytick_4">
     <g id="line2d_13">
      <g>
       <use style="stroke:#000000;stroke-width:0.8;" x="94.5" xlink:href="#m1387998a69" y="353.958416"/>
      </g>
     </g>
     <g id="text_14">
      <!-- 3000 -->
      <defs>
       <path d="M 40.578125 39.3125 
Q 47.65625 37.796875 51.625 33 
Q 55.609375 28.21875 55.609375 21.1875 
Q 55.609375 10.40625 48.1875 4.484375 
Q 40.765625 -1.421875 27.09375 -1.421875 
Q 22.515625 -1.421875 17.65625 -0.515625 
Q 12.796875 0.390625 7.625 2.203125 
L 7.625 11.71875 
Q 11.71875 9.328125 16.59375 8.109375 
Q 21.484375 6.890625 26.8125 6.890625 
Q 36.078125 6.890625 40.9375 10.546875 
Q 45.796875 14.203125 45.796875 21.1875 
Q 45.796875 27.640625 41.28125 31.265625 
Q 36.765625 34.90625 28.71875 34.90625 
L 20.21875 34.90625 
L 20.21875 43.015625 
L 29.109375 43.015625 
Q 36.375 43.015625 40.234375 45.921875 
Q 44.09375 48.828125 44.09375 54.296875 
Q 44.09375 59.90625 40.109375 62.90625 
Q 36.140625 65.921875 28.71875 65.921875 
Q 24.65625 65.921875 20.015625 65.03125 
Q 15.375 64.15625 9.8125 62.3125 
L 9.8125 71.09375 
Q 15.4375 72.65625 20.34375 73.4375 
Q 25.25 74.21875 29.59375 74.21875 
Q 40.828125 74.21875 47.359375 69.109375 
Q 53.90625 64.015625 53.90625 55.328125 
Q 53.90625 49.265625 50.4375 45.09375 
Q 46.96875 40.921875 40.578125 39.3125 
z
" id="DejaVuSans-33"/>
      </defs>
      <g transform="translate(49.325 359.657244)scale(0.15 -0.15)">
       <use xlink:href="#DejaVuSans-33"/>
       <use x="63.623047" xlink:href="#DejaVuSans-30"/>
       <use x="127.246094" xlink:href="#DejaVuSans-30"/>
       <use x="190.869141" xlink:href="#DejaVuSans-30"/>
      </g>
     </g>
    </g>
    <g id="ytick_5">
     <g id="line2d_14">
      <g>
       <use style="stroke:#000000;stroke-width:0.8;" x="94.5" xlink:href="#m1387998a69" y="260.081608"/>
      </g>
     </g>
     <g id="text_15">
      <!-- 4000 -->
      <defs>
       <path d="M 37.796875 64.3125 
L 12.890625 25.390625 
L 37.796875 25.390625 
z
M 35.203125 72.90625 
L 47.609375 72.90625 
L 47.609375 25.390625 
L 58.015625 25.390625 
L 58.015625 17.1875 
L 47.609375 17.1875 
L 47.609375 0 
L 37.796875 0 
L 37.796875 17.1875 
L 4.890625 17.1875 
L 4.890625 26.703125 
z
" id="DejaVuSans-34"/>
      </defs>
      <g transform="translate(49.325 265.780436)scale(0.15 -0.15)">
       <use xlink:href="#DejaVuSans-34"/>
       <use x="63.623047" xlink:href="#DejaVuSans-30"/>
       <use x="127.246094" xlink:href="#DejaVuSans-30"/>
       <use x="190.869141" xlink:href="#DejaVuSans-30"/>
      </g>
     </g>
    </g>
    <g id="ytick_6">
     <g id="line2d_15">
      <g>
       <use style="stroke:#000000;stroke-width:0.8;" x="94.5" xlink:href="#m1387998a69" y="166.204801"/>
      </g>
     </g>
     <g id="text_16">
      <!-- 5000 -->
      <g transform="translate(49.325 171.903629)scale(0.15 -0.15)">
       <use xlink:href="#DejaVuSans-35"/>
       <use x="63.623047" xlink:href="#DejaVuSans-30"/>
       <use x="127.246094" xlink:href="#DejaVuSans-30"/>
       <use x="190.869141" xlink:href="#DejaVuSans-30"/>
      </g>
     </g>
    </g>
    <g id="text_17">
     <!-- Bandwidth (kbps) -->
     <defs>
      <path d="M 19.671875 34.8125 
L 19.671875 8.109375 
L 35.5 8.109375 
Q 43.453125 8.109375 47.28125 11.40625 
Q 51.125 14.703125 51.125 21.484375 
Q 51.125 28.328125 47.28125 31.5625 
Q 43.453125 34.8125 35.5 34.8125 
z
M 19.671875 64.796875 
L 19.671875 42.828125 
L 34.28125 42.828125 
Q 41.5 42.828125 45.03125 45.53125 
Q 48.578125 48.25 48.578125 53.8125 
Q 48.578125 59.328125 45.03125 62.0625 
Q 41.5 64.796875 34.28125 64.796875 
z
M 9.8125 72.90625 
L 35.015625 72.90625 
Q 46.296875 72.90625 52.390625 68.21875 
Q 58.5 63.53125 58.5 54.890625 
Q 58.5 48.1875 55.375 44.234375 
Q 52.25 40.28125 46.1875 39.3125 
Q 53.46875 37.75 57.5 32.78125 
Q 61.53125 27.828125 61.53125 20.40625 
Q 61.53125 10.640625 54.890625 5.3125 
Q 48.25 0 35.984375 0 
L 9.8125 0 
z
" id="DejaVuSans-42"/>
      <path d="M 34.28125 27.484375 
Q 23.390625 27.484375 19.1875 25 
Q 14.984375 22.515625 14.984375 16.5 
Q 14.984375 11.71875 18.140625 8.90625 
Q 21.296875 6.109375 26.703125 6.109375 
Q 34.1875 6.109375 38.703125 11.40625 
Q 43.21875 16.703125 43.21875 25.484375 
L 43.21875 27.484375 
z
M 52.203125 31.203125 
L 52.203125 0 
L 43.21875 0 
L 43.21875 8.296875 
Q 40.140625 3.328125 35.546875 0.953125 
Q 30.953125 -1.421875 24.3125 -1.421875 
Q 15.921875 -1.421875 10.953125 3.296875 
Q 6 8.015625 6 15.921875 
Q 6 25.140625 12.171875 29.828125 
Q 18.359375 34.515625 30.609375 34.515625 
L 43.21875 34.515625 
L 43.21875 35.40625 
Q 43.21875 41.609375 39.140625 45 
Q 35.0625 48.390625 27.6875 48.390625 
Q 23 48.390625 18.546875 47.265625 
Q 14.109375 46.140625 10.015625 43.890625 
L 10.015625 52.203125 
Q 14.9375 54.109375 19.578125 55.046875 
Q 24.21875 56 28.609375 56 
Q 40.484375 56 46.34375 49.84375 
Q 52.203125 43.703125 52.203125 31.203125 
z
" id="DejaVuSans-61"/>
      <path d="M 45.40625 46.390625 
L 45.40625 75.984375 
L 54.390625 75.984375 
L 54.390625 0 
L 45.40625 0 
L 45.40625 8.203125 
Q 42.578125 3.328125 38.25 0.953125 
Q 33.9375 -1.421875 27.875 -1.421875 
Q 17.96875 -1.421875 11.734375 6.484375 
Q 5.515625 14.40625 5.515625 27.296875 
Q 5.515625 40.1875 11.734375 48.09375 
Q 17.96875 56 27.875 56 
Q 33.9375 56 38.25 53.625 
Q 42.578125 51.265625 45.40625 46.390625 
z
M 14.796875 27.296875 
Q 14.796875 17.390625 18.875 11.75 
Q 22.953125 6.109375 30.078125 6.109375 
Q 37.203125 6.109375 41.296875 11.75 
Q 45.40625 17.390625 45.40625 27.296875 
Q 45.40625 37.203125 41.296875 42.84375 
Q 37.203125 48.484375 30.078125 48.484375 
Q 22.953125 48.484375 18.875 42.84375 
Q 14.796875 37.203125 14.796875 27.296875 
z
" id="DejaVuSans-64"/>
      <path d="M 4.203125 54.6875 
L 13.1875 54.6875 
L 24.421875 12.015625 
L 35.59375 54.6875 
L 46.1875 54.6875 
L 57.421875 12.015625 
L 68.609375 54.6875 
L 77.59375 54.6875 
L 63.28125 0 
L 52.6875 0 
L 40.921875 44.828125 
L 29.109375 0 
L 18.5 0 
z
" id="DejaVuSans-77"/>
      <path d="M 54.890625 33.015625 
L 54.890625 0 
L 45.90625 0 
L 45.90625 32.71875 
Q 45.90625 40.484375 42.875 44.328125 
Q 39.84375 48.1875 33.796875 48.1875 
Q 26.515625 48.1875 22.3125 43.546875 
Q 18.109375 38.921875 18.109375 30.90625 
L 18.109375 0 
L 9.078125 0 
L 9.078125 75.984375 
L 18.109375 75.984375 
L 18.109375 46.1875 
Q 21.34375 51.125 25.703125 53.5625 
Q 30.078125 56 35.796875 56 
Q 45.21875 56 50.046875 50.171875 
Q 54.890625 44.34375 54.890625 33.015625 
z
" id="DejaVuSans-68"/>
      <path d="M 31 75.875 
Q 24.46875 64.65625 21.28125 53.65625 
Q 18.109375 42.671875 18.109375 31.390625 
Q 18.109375 20.125 21.3125 9.0625 
Q 24.515625 -2 31 -13.1875 
L 23.1875 -13.1875 
Q 15.875 -1.703125 12.234375 9.375 
Q 8.59375 20.453125 8.59375 31.390625 
Q 8.59375 42.28125 12.203125 53.3125 
Q 15.828125 64.359375 23.1875 75.875 
z
" id="DejaVuSans-28"/>
      <path d="M 9.078125 75.984375 
L 18.109375 75.984375 
L 18.109375 31.109375 
L 44.921875 54.6875 
L 56.390625 54.6875 
L 27.390625 29.109375 
L 57.625 0 
L 45.90625 0 
L 18.109375 26.703125 
L 18.109375 0 
L 9.078125 0 
z
" id="DejaVuSans-6b"/>
      <path d="M 48.6875 27.296875 
Q 48.6875 37.203125 44.609375 42.84375 
Q 40.53125 48.484375 33.40625 48.484375 
Q 26.265625 48.484375 22.1875 42.84375 
Q 18.109375 37.203125 18.109375 27.296875 
Q 18.109375 17.390625 22.1875 11.75 
Q 26.265625 6.109375 33.40625 6.109375 
Q 40.53125 6.109375 44.609375 11.75 
Q 48.6875 17.390625 48.6875 27.296875 
z
M 18.109375 46.390625 
Q 20.953125 51.265625 25.265625 53.625 
Q 29.59375 56 35.59375 56 
Q 45.5625 56 51.78125 48.09375 
Q 58.015625 40.1875 58.015625 27.296875 
Q 58.015625 14.40625 51.78125 6.484375 
Q 45.5625 -1.421875 35.59375 -1.421875 
Q 29.59375 -1.421875 25.265625 0.953125 
Q 20.953125 3.328125 18.109375 8.203125 
L 18.109375 0 
L 9.078125 0 
L 9.078125 75.984375 
L 18.109375 75.984375 
z
" id="DejaVuSans-62"/>
      <path d="M 8.015625 75.875 
L 15.828125 75.875 
Q 23.140625 64.359375 26.78125 53.3125 
Q 30.421875 42.28125 30.421875 31.390625 
Q 30.421875 20.453125 26.78125 9.375 
Q 23.140625 -1.703125 15.828125 -13.1875 
L 8.015625 -13.1875 
Q 14.5 -2 17.703125 9.0625 
Q 20.90625 20.125 20.90625 31.390625 
Q 20.90625 42.671875 17.703125 53.65625 
Q 14.5 64.65625 8.015625 75.875 
z
" id="DejaVuSans-29"/>
     </defs>
     <g transform="translate(43.245312 420.067813)rotate(-90)scale(0.1 -0.1)">
      <use xlink:href="#DejaVuSans-42"/>
      <use x="68.603516" xlink:href="#DejaVuSans-61"/>
      <use x="129.882812" xlink:href="#DejaVuSans-6e"/>
      <use x="193.261719" xlink:href="#DejaVuSans-64"/>
      <use x="256.738281" xlink:href="#DejaVuSans-77"/>
      <use x="338.525391" xlink:href="#DejaVuSans-69"/>
      <use x="366.308594" xlink:href="#DejaVuSans-64"/>
      <use x="429.785156" xlink:href="#DejaVuSans-74"/>
      <use x="468.994141" xlink:href="#DejaVuSans-68"/>
      <use x="532.373047" xlink:href="#DejaVuSans-20"/>
      <use x="564.160156" xlink:href="#DejaVuSans-28"/>
      <use x="603.173828" xlink:href="#DejaVuSans-6b"/>
      <use x="661.083984" xlink:href="#DejaVuSans-62"/>
      <use x="724.560547" xlink:href="#DejaVuSans-70"/>
      <use x="788.037109" xlink:href="#DejaVuSans-73"/>
      <use x="840.136719" xlink:href="#DejaVuSans-29"/>
     </g>
    </g>
   </g>
   <g id="line2d_16">
    <path clip-path="url(#pdf04b6e83b)" d="M 121.131818 634.33715 
L 123.808383 630.932548 
L 126.484947 635.522081 
L 129.161512 635.462836 
L 131.838077 633.909907 
L 134.514641 632.7016 
L 137.191206 634.069281 
L 139.867771 631.552547 
L 142.544335 633.359995 
L 145.2209 634.604173 
L 147.897465 635.555455 
L 150.574029 635.522081 
L 153.250594 631.833765 
L 155.927159 626.257896 
L 158.603723 621.070057 
L 161.280288 624.462145 
L 163.956852 612.499311 
L 166.633417 615.899745 
L 169.309982 612.067064 
L 171.986546 624.193441 
L 174.663111 627.984403 
L 177.339676 632.889353 
L 180.01624 623.682751 
L 185.36937 634.685113 
L 188.045934 632.297723 
L 190.722499 628.955708 
L 193.399063 627.501247 
L 196.075628 634.310442 
L 198.752193 633.083791 
L 201.428757 634.157742 
L 204.105322 634.206971 
L 206.781887 635.330986 
L 209.458451 630.529506 
L 212.135016 632.480473 
L 214.811581 630.825734 
L 217.488145 624.998698 
L 220.16471 630.602101 
L 222.841275 631.49915 
L 225.517839 634.179436 
L 228.194404 631.561729 
L 230.870968 622.244146 
L 233.547533 630.535345 
L 236.224098 631.714438 
L 238.900662 635.112356 
L 241.577227 632.495493 
L 244.253792 635.154084 
L 246.930356 627.293469 
L 249.606921 630.418516 
L 252.283486 635.438634 
L 254.96005 629.22107 
L 257.636615 635.555455 
L 260.31318 626.862049 
L 262.989744 621.347932 
L 265.666309 635.113192 
L 268.342873 631.37314 
L 271.019438 631.39567 
L 273.696003 634.107668 
L 276.372567 633.852323 
L 279.049132 632.262679 
L 281.725697 632.855145 
L 284.402261 620.247283 
L 287.078826 623.533384 
L 289.755391 634.33715 
L 292.431955 634.233669 
L 295.10852 632.516353 
L 297.785085 631.517503 
L 300.461649 635.371878 
L 303.138214 635.386063 
L 305.814778 634.121017 
L 308.491343 635.455326 
L 311.167908 635.54127 
L 313.844472 631.294705 
L 316.521037 634.129363 
L 319.197602 634.626703 
L 321.874166 635.392738 
L 324.550731 634.074294 
L 327.227296 631.65769 
L 329.90386 634.203629 
L 332.580425 634.260377 
L 335.256989 630.730609 
L 337.933554 630.473593 
L 340.610119 634.222826 
L 343.286683 633.890709 
L 345.963248 635.220005 
L 348.639813 635.411936 
L 351.316377 632.779208 
L 353.992942 635.417775 
L 356.669507 634.129363 
L 359.346071 635.261733 
L 362.022636 634.100993 
L 364.699201 635.481189 
L 370.05233 635.482024 
L 380.758588 635.510394 
L 383.435153 635.24921 
L 386.111718 635.221676 
L 388.788282 635.555455 
L 391.464847 635.478691 
L 394.141412 634.303767 
L 396.817976 635.514571 
L 399.494541 634.274562 
L 402.171106 634.33715 
L 404.84767 635.26423 
L 407.524235 632.890189 
L 410.200799 634.134376 
L 412.877364 634.150231 
L 415.553929 635.182454 
L 418.230493 630.843261 
L 420.907058 633.807262 
L 423.583623 634.045089 
L 426.260187 630.013803 
L 428.936752 631.427382 
L 431.613317 634.678439 
L 434.289881 632.382005 
L 436.966446 630.515321 
L 439.643011 631.773684 
L 442.319575 630.438549 
L 444.99614 631.893011 
L 447.672704 632.024025 
L 450.349269 634.209477 
L 453.025834 634.570799 
L 455.702398 631.444908 
L 458.378963 634.049257 
L 461.055528 631.197074 
L 463.732092 621.402174 
L 466.408657 614.088129 
L 469.085222 628.52012 
L 471.761786 623.120326 
L 474.438351 633.062922 
L 477.114915 626.018406 
L 479.79148 619.660656 
L 482.468045 620.867283 
L 485.144609 627.848385 
L 487.821174 626.548294 
L 490.497739 630.133966 
L 493.174303 624.739185 
L 495.850868 623.956459 
L 498.527433 631.866312 
L 501.203997 633.372509 
L 503.880562 633.0162 
L 506.557127 634.251196 
L 509.233691 628.824703 
L 511.910256 631.049368 
L 514.58682 625.610362 
L 517.263385 628.355732 
L 519.93995 632.399532 
L 522.616514 632.405371 
L 525.293079 623.184585 
L 527.969644 633.352485 
L 530.646208 631.900521 
L 533.322773 633.085452 
L 535.999338 629.092562 
L 538.675902 627.664799 
L 541.352467 622.775695 
L 544.029032 623.668567 
L 546.705596 628.025286 
L 549.382161 629.544842 
L 552.058725 630.712247 
L 554.73529 116.664545 
L 557.411855 168.818331 
L 560.088419 146.259528 
L 562.764984 156.236333 
L 565.441549 131.643951 
L 568.118113 472.091319 
L 570.794678 634.403905 
L 573.471243 635.462836 
L 576.147807 634.225333 
L 578.824372 632.28688 
L 581.500937 635.267572 
L 584.177501 635.518739 
L 589.53063 635.483695 
L 592.207195 633.992518 
L 594.88376 635.421107 
L 597.560324 633.839809 
L 600.236889 634.253702 
L 602.913454 635.478691 
L 605.590018 635.467004 
L 608.266583 633.933263 
L 610.943148 635.240028 
L 613.619712 635.01556 
L 616.296277 632.758348 
L 618.972841 630.647162 
L 621.649406 631.509993 
L 624.325971 632.842631 
L 627.002535 634.303767 
L 629.6791 635.508732 
L 635.032229 635.518739 
L 637.708794 635.219169 
L 643.061923 635.555455 
L 645.738488 631.759499 
L 648.415053 631.706092 
L 651.091617 634.238682 
L 653.768182 633.069597 
L 653.768182 633.069597 
" style="fill:none;stroke:#1f77b4;stroke-linecap:square;stroke-width:1.5;"/>
   </g>
   <g id="line2d_17">
    <path clip-path="url(#pdf04b6e83b)" d="M 121.131818 632.144067 
L 123.808383 629.614942 
L 126.484947 633.023245 
L 129.161512 632.9793 
L 131.838077 631.826935 
L 134.514641 630.929652 
L 137.191206 631.945243 
L 139.867771 630.075847 
L 142.544335 631.418643 
L 145.2209 632.342236 
L 147.897465 633.047999 
L 150.574029 633.023245 
L 153.250594 630.284852 
L 155.927159 626.135048 
L 158.603723 622.263267 
L 161.280288 624.796017 
L 163.956852 615.844154 
L 166.633417 618.394291 
L 169.309982 615.519677 
L 171.986546 624.595547 
L 174.663111 627.421273 
L 177.339676 631.069114 
L 180.01624 624.214463 
L 185.36937 632.402301 
L 188.045934 630.629608 
L 190.722499 628.144378 
L 193.399063 627.061444 
L 196.075628 632.124244 
L 198.752193 631.213526 
L 201.428757 632.010905 
L 204.105322 632.047445 
L 206.781887 632.881496 
L 209.458451 629.315243 
L 212.135016 630.765383 
L 214.811581 629.535522 
L 217.488145 625.196237 
L 220.16471 629.369229 
L 222.841275 630.036157 
L 225.517839 632.027008 
L 228.194404 630.08267 
L 230.870968 623.140418 
L 233.547533 629.319585 
L 236.224098 630.19617 
L 238.900662 632.719305 
L 241.577227 630.776541 
L 244.253792 632.750262 
L 246.930356 626.906675 
L 249.606921 629.2327 
L 252.283486 632.961348 
L 254.96005 628.341867 
L 257.636615 633.047999 
L 260.31318 626.585264 
L 262.989744 622.470914 
L 265.666309 632.719925 
L 268.342873 629.94249 
L 271.019438 629.959238 
L 273.696003 631.973736 
L 276.372567 631.784185 
L 279.049132 630.603571 
L 281.725697 631.043704 
L 284.402261 621.648266 
L 287.078826 624.102985 
L 289.755391 632.144067 
L 292.431955 632.067263 
L 295.10852 630.792038 
L 297.785085 630.049799 
L 300.461649 632.91183 
L 303.138214 632.922352 
L 305.814778 631.983646 
L 308.491343 632.973729 
L 311.167908 633.037478 
L 313.844472 629.884185 
L 316.521037 631.98984 
L 319.197602 632.358956 
L 321.874166 632.927303 
L 324.550731 631.948964 
L 327.227296 630.153993 
L 329.90386 632.044965 
L 332.580425 632.087085 
L 335.256989 629.464789 
L 337.933554 629.273662 
L 340.610119 632.059214 
L 343.286683 631.812682 
L 345.963248 632.799167 
L 348.639813 632.941544 
L 351.316377 630.9873 
L 353.992942 632.945875 
L 356.669507 631.98984 
L 359.346071 632.830122 
L 362.022636 631.968782 
L 364.699201 632.992913 
L 375.405459 633.023245 
L 386.111718 632.800406 
L 388.788282 633.047999 
L 391.464847 632.991061 
L 394.141412 632.11929 
L 396.817976 633.017674 
L 399.494541 632.097614 
L 402.171106 632.144067 
L 404.84767 632.831974 
L 407.524235 631.069734 
L 410.200799 631.993561 
L 412.877364 632.00533 
L 415.553929 632.771309 
L 418.230493 629.548554 
L 420.907058 631.750732 
L 423.583623 631.927285 
L 426.260187 628.931678 
L 428.936752 629.982811 
L 431.613317 632.397348 
L 434.289881 630.692228 
L 436.966446 629.304694 
L 439.643011 630.240201 
L 442.319575 629.2476 
L 444.99614 630.328881 
L 447.672704 630.426241 
L 450.349269 632.049306 
L 453.025834 632.31747 
L 455.702398 629.995838 
L 458.378963 631.930378 
L 461.055528 629.811606 
L 463.732092 622.511444 
L 466.408657 617.036227 
L 469.085222 627.820142 
L 471.761786 623.794659 
L 474.438351 631.198027 
L 477.114915 625.95654 
L 479.79148 621.209618 
L 482.468045 622.111724 
L 485.144609 627.319983 
L 487.821174 626.351471 
L 490.497739 629.021061 
L 493.174303 625.002678 
L 495.850868 624.41872 
L 498.527433 630.30904 
L 501.203997 631.427935 
L 503.880562 631.163327 
L 506.557127 632.080271 
L 509.233691 628.04687 
L 511.910256 629.701796 
L 514.58682 625.652347 
L 517.263385 627.697759 
L 519.93995 630.705249 
L 522.616514 630.709588 
L 525.293079 623.842628 
L 527.969644 631.413066 
L 530.646208 630.334462 
L 533.322773 631.21476 
L 535.999338 628.246231 
L 538.675902 627.18326 
L 541.352467 623.537359 
L 544.029032 624.203877 
L 546.705596 627.451717 
L 549.382161 628.58279 
L 552.058725 629.451135 
L 554.73529 204.501863 
L 557.411855 250.754205 
L 560.088419 230.811801 
L 562.764984 239.64383 
L 565.441549 217.838924 
L 568.118113 506.85842 
L 570.794678 632.193612 
L 573.471243 632.9793 
L 576.147807 632.061075 
L 578.824372 630.621552 
L 581.500937 632.834454 
L 584.177501 633.020766 
L 589.53063 632.994772 
L 592.207195 631.888261 
L 594.88376 632.948347 
L 597.560324 631.774895 
L 600.236889 632.082132 
L 602.913454 632.991061 
L 605.590018 632.982392 
L 608.266583 631.844274 
L 610.943148 632.814021 
L 613.619712 632.647491 
L 618.972841 629.402737 
L 621.649406 630.044216 
L 629.6791 633.013343 
L 635.032229 633.020766 
L 637.708794 632.798547 
L 643.061923 633.047999 
L 645.738488 630.22966 
L 648.415053 630.189967 
L 651.091617 632.070983 
L 653.768182 631.202984 
L 653.768182 631.202984 
" style="fill:none;stroke:#008000;stroke-linecap:square;stroke-width:1.5;"/>
   </g>
   <g id="patch_3">
    <path d="M 94.5 661.5 
L 94.5 90.72 
" style="fill:none;stroke:#000000;stroke-linecap:square;stroke-linejoin:miter;stroke-width:0.8;"/>
   </g>
   <g id="patch_4">
    <path d="M 680.4 661.5 
L 680.4 90.72 
" style="fill:none;stroke:#000000;stroke-linecap:square;stroke-linejoin:miter;stroke-width:0.8;"/>
   </g>
   <g id="patch_5">
    <path d="M 94.5 661.5 
L 680.4 661.5 
" style="fill:none;stroke:#000000;stroke-linecap:square;stroke-linejoin:miter;stroke-width:0.8;"/>
   </g>
   <g id="patch_6">
    <path d="M 94.5 90.72 
L 680.4 90.72 
" style="fill:none;stroke:#000000;stroke-linecap:square;stroke-linejoin:miter;stroke-width:0.8;"/>
   </g>
   <g id="legend_1">
    <g id="patch_7">
     <path d="M 101.5 128.07625 
L 218.6125 128.07625 
Q 220.6125 128.07625 220.6125 126.07625 
L 220.6125 97.72 
Q 220.6125 95.72 218.6125 95.72 
L 101.5 95.72 
Q 99.5 95.72 99.5 97.72 
L 99.5 126.07625 
Q 99.5 128.07625 101.5 128.07625 
z
" style="fill:#ffffff;opacity:0.8;stroke:#cccccc;stroke-linejoin:miter;"/>
    </g>
    <g id="line2d_18">
     <path d="M 103.5 103.818438 
L 123.5 103.818438 
" style="fill:none;stroke:#1f77b4;stroke-linecap:square;stroke-width:1.5;"/>
    </g>
    <g id="line2d_19"/>
    <g id="text_18">
     <!-- Real values -->
     <defs>
      <path d="M 44.390625 34.1875 
Q 47.5625 33.109375 50.5625 29.59375 
Q 53.5625 26.078125 56.59375 19.921875 
L 66.609375 0 
L 56 0 
L 46.6875 18.703125 
Q 43.0625 26.03125 39.671875 28.421875 
Q 36.28125 30.8125 30.421875 30.8125 
L 19.671875 30.8125 
L 19.671875 0 
L 9.8125 0 
L 9.8125 72.90625 
L 32.078125 72.90625 
Q 44.578125 72.90625 50.734375 67.671875 
Q 56.890625 62.453125 56.890625 51.90625 
Q 56.890625 45.015625 53.6875 40.46875 
Q 50.484375 35.9375 44.390625 34.1875 
z
M 19.671875 64.796875 
L 19.671875 38.921875 
L 32.078125 38.921875 
Q 39.203125 38.921875 42.84375 42.21875 
Q 46.484375 45.515625 46.484375 51.90625 
Q 46.484375 58.296875 42.84375 61.546875 
Q 39.203125 64.796875 32.078125 64.796875 
z
" id="DejaVuSans-52"/>
      <path d="M 9.421875 75.984375 
L 18.40625 75.984375 
L 18.40625 0 
L 9.421875 0 
z
" id="DejaVuSans-6c"/>
      <path d="M 2.984375 54.6875 
L 12.5 54.6875 
L 29.59375 8.796875 
L 46.6875 54.6875 
L 56.203125 54.6875 
L 35.6875 0 
L 23.484375 0 
z
" id="DejaVuSans-76"/>
     </defs>
     <g transform="translate(131.5 107.318438)scale(0.1 -0.1)">
      <use xlink:href="#DejaVuSans-52"/>
      <use x="69.419922" xlink:href="#DejaVuSans-65"/>
      <use x="130.943359" xlink:href="#DejaVuSans-61"/>
      <use x="192.222656" xlink:href="#DejaVuSans-6c"/>
      <use x="220.005859" xlink:href="#DejaVuSans-20"/>
      <use x="251.792969" xlink:href="#DejaVuSans-76"/>
      <use x="310.972656" xlink:href="#DejaVuSans-61"/>
      <use x="372.251953" xlink:href="#DejaVuSans-6c"/>
      <use x="400.035156" xlink:href="#DejaVuSans-75"/>
      <use x="463.414062" xlink:href="#DejaVuSans-65"/>
      <use x="524.9375" xlink:href="#DejaVuSans-73"/>
     </g>
    </g>
    <g id="line2d_20">
     <path d="M 103.5 118.496563 
L 123.5 118.496563 
" style="fill:none;stroke:#008000;stroke-linecap:square;stroke-width:1.5;"/>
    </g>
    <g id="line2d_21"/>
    <g id="text_19">
     <!-- LSTM Predictions -->
     <defs>
      <path d="M 9.8125 72.90625 
L 19.671875 72.90625 
L 19.671875 8.296875 
L 55.171875 8.296875 
L 55.171875 0 
L 9.8125 0 
z
" id="DejaVuSans-4c"/>
      <path d="M -0.296875 72.90625 
L 61.375 72.90625 
L 61.375 64.59375 
L 35.5 64.59375 
L 35.5 0 
L 25.59375 0 
L 25.59375 64.59375 
L -0.296875 64.59375 
z
" id="DejaVuSans-54"/>
      <path d="M 19.671875 64.796875 
L 19.671875 37.40625 
L 32.078125 37.40625 
Q 38.96875 37.40625 42.71875 40.96875 
Q 46.484375 44.53125 46.484375 51.125 
Q 46.484375 57.671875 42.71875 61.234375 
Q 38.96875 64.796875 32.078125 64.796875 
z
M 9.8125 72.90625 
L 32.078125 72.90625 
Q 44.34375 72.90625 50.609375 67.359375 
Q 56.890625 61.8125 56.890625 51.125 
Q 56.890625 40.328125 50.609375 34.8125 
Q 44.34375 29.296875 32.078125 29.296875 
L 19.671875 29.296875 
L 19.671875 0 
L 9.8125 0 
z
" id="DejaVuSans-50"/>
      <path d="M 41.109375 46.296875 
Q 39.59375 47.171875 37.8125 47.578125 
Q 36.03125 48 33.890625 48 
Q 26.265625 48 22.1875 43.046875 
Q 18.109375 38.09375 18.109375 28.8125 
L 18.109375 0 
L 9.078125 0 
L 9.078125 54.6875 
L 18.109375 54.6875 
L 18.109375 46.1875 
Q 20.953125 51.171875 25.484375 53.578125 
Q 30.03125 56 36.53125 56 
Q 37.453125 56 38.578125 55.875 
Q 39.703125 55.765625 41.0625 55.515625 
z
" id="DejaVuSans-72"/>
      <path d="M 48.78125 52.59375 
L 48.78125 44.1875 
Q 44.96875 46.296875 41.140625 47.34375 
Q 37.3125 48.390625 33.40625 48.390625 
Q 24.65625 48.390625 19.8125 42.84375 
Q 14.984375 37.3125 14.984375 27.296875 
Q 14.984375 17.28125 19.8125 11.734375 
Q 24.65625 6.203125 33.40625 6.203125 
Q 37.3125 6.203125 41.140625 7.25 
Q 44.96875 8.296875 48.78125 10.40625 
L 48.78125 2.09375 
Q 45.015625 0.34375 40.984375 -0.53125 
Q 36.96875 -1.421875 32.421875 -1.421875 
Q 20.0625 -1.421875 12.78125 6.34375 
Q 5.515625 14.109375 5.515625 27.296875 
Q 5.515625 40.671875 12.859375 48.328125 
Q 20.21875 56 33.015625 56 
Q 37.15625 56 41.109375 55.140625 
Q 45.0625 54.296875 48.78125 52.59375 
z
" id="DejaVuSans-63"/>
      <path d="M 30.609375 48.390625 
Q 23.390625 48.390625 19.1875 42.75 
Q 14.984375 37.109375 14.984375 27.296875 
Q 14.984375 17.484375 19.15625 11.84375 
Q 23.34375 6.203125 30.609375 6.203125 
Q 37.796875 6.203125 41.984375 11.859375 
Q 46.1875 17.53125 46.1875 27.296875 
Q 46.1875 37.015625 41.984375 42.703125 
Q 37.796875 48.390625 30.609375 48.390625 
z
M 30.609375 56 
Q 42.328125 56 49.015625 48.375 
Q 55.71875 40.765625 55.71875 27.296875 
Q 55.71875 13.875 49.015625 6.21875 
Q 42.328125 -1.421875 30.609375 -1.421875 
Q 18.84375 -1.421875 12.171875 6.21875 
Q 5.515625 13.875 5.515625 27.296875 
Q 5.515625 40.765625 12.171875 48.375 
Q 18.84375 56 30.609375 56 
z
" id="DejaVuSans-6f"/>
     </defs>
     <g transform="translate(131.5 121.996563)scale(0.1 -0.1)">
      <use xlink:href="#DejaVuSans-4c"/>
      <use x="55.712891" xlink:href="#DejaVuSans-53"/>
      <use x="119.189453" xlink:href="#DejaVuSans-54"/>
      <use x="180.273438" xlink:href="#DejaVuSans-4d"/>
      <use x="266.552734" xlink:href="#DejaVuSans-20"/>
      <use x="298.339844" xlink:href="#DejaVuSans-50"/>
      <use x="358.626953" xlink:href="#DejaVuSans-72"/>
      <use x="399.708984" xlink:href="#DejaVuSans-65"/>
      <use x="461.232422" xlink:href="#DejaVuSans-64"/>
      <use x="524.708984" xlink:href="#DejaVuSans-69"/>
      <use x="552.492188" xlink:href="#DejaVuSans-63"/>
      <use x="607.472656" xlink:href="#DejaVuSans-74"/>
      <use x="646.681641" xlink:href="#DejaVuSans-69"/>
      <use x="674.464844" xlink:href="#DejaVuSans-6f"/>
      <use x="735.646484" xlink:href="#DejaVuSans-6e"/>
      <use x="799.025391" xlink:href="#DejaVuSans-73"/>
     </g>
    </g>
   </g>
  </g>
 </g>
 <defs>
  <clipPath id="pdf04b6e83b">
   <rect height="570.78" width="585.9" x="94.5" y="90.72"/>
  </clipPath>
 </defs>
</svg>
