<?xml version="1.0" encoding="utf-8" standalone="no"?>
<!DOCTYPE svg PUBLIC "-//W3C//DTD SVG 1.1//EN"
  "http://www.w3.org/Graphics/SVG/1.1/DTD/svg11.dtd">
<!-- Created with matplotlib (http://matplotlib.org/) -->
<svg height="756pt" version="1.1" viewBox="0 0 1332 756" width="1332pt" xmlns="http://www.w3.org/2000/svg" xmlns:xlink="http://www.w3.org/1999/xlink">
 <defs>
  <style type="text/css">
*{stroke-linecap:butt;stroke-linejoin:round;}
  </style>
 </defs>
 <g id="figure_1">
  <g id="patch_1">
   <path d="M 0 756 
L 1332 756 
L 1332 0 
L 0 0 
z
" style="fill:#ffffff;"/>
  </g>
  <g id="axes_1">
   <g id="patch_2">
    <path d="M 166.5 661.5 
L 1198.8 661.5 
L 1198.8 90.72 
L 166.5 90.72 
z
" style="fill:#ffffff;"/>
   </g>
   <g id="matplotlib.axis_1">
    <g id="xtick_1">
     <g id="line2d_1">
      <defs>
       <path d="M 0 0 
L 0 3.5 
" id="mf0609ce6a9" style="stroke:#000000;stroke-width:0.8;"/>
      </defs>
      <g>
       <use style="stroke:#000000;stroke-width:0.8;" x="213.422727" xlink:href="#mf0609ce6a9" y="661.5"/>
      </g>
     </g>
     <g id="text_1">
      <!-- 0 -->
      <defs>
       <path d="M 31.78125 66.40625 
Q 24.171875 66.40625 20.328125 58.90625 
Q 16.5 51.421875 16.5 36.375 
Q 16.5 21.390625 20.328125 13.890625 
Q 24.171875 6.390625 31.78125 6.390625 
Q 39.453125 6.390625 43.28125 13.890625 
Q 47.125 21.390625 47.125 36.375 
Q 47.125 51.421875 43.28125 58.90625 
Q 39.453125 66.40625 31.78125 66.40625 
z
M 31.78125 74.21875 
Q 44.046875 74.21875 50.515625 64.515625 
Q 56.984375 54.828125 56.984375 36.375 
Q 56.984375 17.96875 50.515625 8.265625 
Q 44.046875 -1.421875 31.78125 -1.421875 
Q 19.53125 -1.421875 13.0625 8.265625 
Q 6.59375 17.96875 6.59375 36.375 
Q 6.59375 54.828125 13.0625 64.515625 
Q 19.53125 74.21875 31.78125 74.21875 
z
" id="DejaVuSans-30"/>
      </defs>
      <g transform="translate(210.241477 676.098438)scale(0.1 -0.1)">
       <use xlink:href="#DejaVuSans-30"/>
      </g>
     </g>
    </g>
    <g id="xtick_2">
     <g id="line2d_2">
      <g>
       <use style="stroke:#000000;stroke-width:0.8;" x="330.729545" xlink:href="#mf0609ce6a9" y="661.5"/>
      </g>
     </g>
     <g id="text_2">
      <!-- 25 -->
      <defs>
       <path d="M 19.1875 8.296875 
L 53.609375 8.296875 
L 53.609375 0 
L 7.328125 0 
L 7.328125 8.296875 
Q 12.9375 14.109375 22.625 23.890625 
Q 32.328125 33.6875 34.8125 36.53125 
Q 39.546875 41.84375 41.421875 45.53125 
Q 43.3125 49.21875 43.3125 52.78125 
Q 43.3125 58.59375 39.234375 62.25 
Q 35.15625 65.921875 28.609375 65.921875 
Q 23.96875 65.921875 18.8125 64.3125 
Q 13.671875 62.703125 7.8125 59.421875 
L 7.8125 69.390625 
Q 13.765625 71.78125 18.9375 73 
Q 24.125 74.21875 28.421875 74.21875 
Q 39.75 74.21875 46.484375 68.546875 
Q 53.21875 62.890625 53.21875 53.421875 
Q 53.21875 48.921875 51.53125 44.890625 
Q 49.859375 40.875 45.40625 35.40625 
Q 44.1875 33.984375 37.640625 27.21875 
Q 31.109375 20.453125 19.1875 8.296875 
z
" id="DejaVuSans-32"/>
       <path d="M 10.796875 72.90625 
L 49.515625 72.90625 
L 49.515625 64.59375 
L 19.828125 64.59375 
L 19.828125 46.734375 
Q 21.96875 47.46875 24.109375 47.828125 
Q 26.265625 48.1875 28.421875 48.1875 
Q 40.625 48.1875 47.75 41.5 
Q 54.890625 34.8125 54.890625 23.390625 
Q 54.890625 11.625 47.5625 5.09375 
Q 40.234375 -1.421875 26.90625 -1.421875 
Q 22.3125 -1.421875 17.546875 -0.640625 
Q 12.796875 0.140625 7.71875 1.703125 
L 7.71875 11.625 
Q 12.109375 9.234375 16.796875 8.0625 
Q 21.484375 6.890625 26.703125 6.890625 
Q 35.15625 6.890625 40.078125 11.328125 
Q 45.015625 15.765625 45.015625 23.390625 
Q 45.015625 31 40.078125 35.4375 
Q 35.15625 39.890625 26.703125 39.890625 
Q 22.75 39.890625 18.8125 39.015625 
Q 14.890625 38.140625 10.796875 36.28125 
z
" id="DejaVuSans-35"/>
      </defs>
      <g transform="translate(324.367045 676.098438)scale(0.1 -0.1)">
       <use xlink:href="#DejaVuSans-32"/>
       <use x="63.623047" xlink:href="#DejaVuSans-35"/>
      </g>
     </g>
    </g>
    <g id="xtick_3">
     <g id="line2d_3">
      <g>
       <use style="stroke:#000000;stroke-width:0.8;" x="448.036364" xlink:href="#mf0609ce6a9" y="661.5"/>
      </g>
     </g>
     <g id="text_3">
      <!-- 50 -->
      <g transform="translate(441.673864 676.098438)scale(0.1 -0.1)">
       <use xlink:href="#DejaVuSans-35"/>
       <use x="63.623047" xlink:href="#DejaVuSans-30"/>
      </g>
     </g>
    </g>
    <g id="xtick_4">
     <g id="line2d_4">
      <g>
       <use style="stroke:#000000;stroke-width:0.8;" x="565.343182" xlink:href="#mf0609ce6a9" y="661.5"/>
      </g>
     </g>
     <g id="text_4">
      <!-- 75 -->
      <defs>
       <path d="M 8.203125 72.90625 
L 55.078125 72.90625 
L 55.078125 68.703125 
L 28.609375 0 
L 18.3125 0 
L 43.21875 64.59375 
L 8.203125 64.59375 
z
" id="DejaVuSans-37"/>
      </defs>
      <g transform="translate(558.980682 676.098438)scale(0.1 -0.1)">
       <use xlink:href="#DejaVuSans-37"/>
       <use x="63.623047" xlink:href="#DejaVuSans-35"/>
      </g>
     </g>
    </g>
    <g id="xtick_5">
     <g id="line2d_5">
      <g>
       <use style="stroke:#000000;stroke-width:0.8;" x="682.65" xlink:href="#mf0609ce6a9" y="661.5"/>
      </g>
     </g>
     <g id="text_5">
      <!-- 100 -->
      <defs>
       <path d="M 12.40625 8.296875 
L 28.515625 8.296875 
L 28.515625 63.921875 
L 10.984375 60.40625 
L 10.984375 69.390625 
L 28.421875 72.90625 
L 38.28125 72.90625 
L 38.28125 8.296875 
L 54.390625 8.296875 
L 54.390625 0 
L 12.40625 0 
z
" id="DejaVuSans-31"/>
      </defs>
      <g transform="translate(673.10625 676.098438)scale(0.1 -0.1)">
       <use xlink:href="#DejaVuSans-31"/>
       <use x="63.623047" xlink:href="#DejaVuSans-30"/>
       <use x="127.246094" xlink:href="#DejaVuSans-30"/>
      </g>
     </g>
    </g>
    <g id="xtick_6">
     <g id="line2d_6">
      <g>
       <use style="stroke:#000000;stroke-width:0.8;" x="799.956818" xlink:href="#mf0609ce6a9" y="661.5"/>
      </g>
     </g>
     <g id="text_6">
      <!-- 125 -->
      <g transform="translate(790.413068 676.098438)scale(0.1 -0.1)">
       <use xlink:href="#DejaVuSans-31"/>
       <use x="63.623047" xlink:href="#DejaVuSans-32"/>
       <use x="127.246094" xlink:href="#DejaVuSans-35"/>
      </g>
     </g>
    </g>
    <g id="xtick_7">
     <g id="line2d_7">
      <g>
       <use style="stroke:#000000;stroke-width:0.8;" x="917.263636" xlink:href="#mf0609ce6a9" y="661.5"/>
      </g>
     </g>
     <g id="text_7">
      <!-- 150 -->
      <g transform="translate(907.719886 676.098438)scale(0.1 -0.1)">
       <use xlink:href="#DejaVuSans-31"/>
       <use x="63.623047" xlink:href="#DejaVuSans-35"/>
       <use x="127.246094" xlink:href="#DejaVuSans-30"/>
      </g>
     </g>
    </g>
    <g id="xtick_8">
     <g id="line2d_8">
      <g>
       <use style="stroke:#000000;stroke-width:0.8;" x="1034.570455" xlink:href="#mf0609ce6a9" y="661.5"/>
      </g>
     </g>
     <g id="text_8">
      <!-- 175 -->
      <g transform="translate(1025.026705 676.098438)scale(0.1 -0.1)">
       <use xlink:href="#DejaVuSans-31"/>
       <use x="63.623047" xlink:href="#DejaVuSans-37"/>
       <use x="127.246094" xlink:href="#DejaVuSans-35"/>
      </g>
     </g>
    </g>
    <g id="xtick_9">
     <g id="line2d_9">
      <g>
       <use style="stroke:#000000;stroke-width:0.8;" x="1151.877273" xlink:href="#mf0609ce6a9" y="661.5"/>
      </g>
     </g>
     <g id="text_9">
      <!-- 200 -->
      <g transform="translate(1142.333523 676.098438)scale(0.1 -0.1)">
       <use xlink:href="#DejaVuSans-32"/>
       <use x="63.623047" xlink:href="#DejaVuSans-30"/>
       <use x="127.246094" xlink:href="#DejaVuSans-30"/>
      </g>
     </g>
    </g>
   </g>
   <g id="matplotlib.axis_2">
    <g id="ytick_1">
     <g id="line2d_10">
      <defs>
       <path d="M 0 0 
L -3.5 0 
" id="maedee149cc" style="stroke:#000000;stroke-width:0.8;"/>
      </defs>
      <g>
       <use style="stroke:#000000;stroke-width:0.8;" x="166.5" xlink:href="#maedee149cc" y="655.520687"/>
      </g>
     </g>
     <g id="text_10">
      <!-- 0 -->
      <g transform="translate(153.1375 659.319906)scale(0.1 -0.1)">
       <use xlink:href="#DejaVuSans-30"/>
      </g>
     </g>
    </g>
    <g id="ytick_2">
     <g id="line2d_11">
      <g>
       <use style="stroke:#000000;stroke-width:0.8;" x="166.5" xlink:href="#maedee149cc" y="584.688484"/>
      </g>
     </g>
     <g id="text_11">
      <!-- 500 -->
      <g transform="translate(140.4125 588.487702)scale(0.1 -0.1)">
       <use xlink:href="#DejaVuSans-35"/>
       <use x="63.623047" xlink:href="#DejaVuSans-30"/>
       <use x="127.246094" xlink:href="#DejaVuSans-30"/>
      </g>
     </g>
    </g>
    <g id="ytick_3">
     <g id="line2d_12">
      <g>
       <use style="stroke:#000000;stroke-width:0.8;" x="166.5" xlink:href="#maedee149cc" y="513.856281"/>
      </g>
     </g>
     <g id="text_12">
      <!-- 1000 -->
      <g transform="translate(134.05 517.655499)scale(0.1 -0.1)">
       <use xlink:href="#DejaVuSans-31"/>
       <use x="63.623047" xlink:href="#DejaVuSans-30"/>
       <use x="127.246094" xlink:href="#DejaVuSans-30"/>
       <use x="190.869141" xlink:href="#DejaVuSans-30"/>
      </g>
     </g>
    </g>
    <g id="ytick_4">
     <g id="line2d_13">
      <g>
       <use style="stroke:#000000;stroke-width:0.8;" x="166.5" xlink:href="#maedee149cc" y="443.024077"/>
      </g>
     </g>
     <g id="text_13">
      <!-- 1500 -->
      <g transform="translate(134.05 446.823296)scale(0.1 -0.1)">
       <use xlink:href="#DejaVuSans-31"/>
       <use x="63.623047" xlink:href="#DejaVuSans-35"/>
       <use x="127.246094" xlink:href="#DejaVuSans-30"/>
       <use x="190.869141" xlink:href="#DejaVuSans-30"/>
      </g>
     </g>
    </g>
    <g id="ytick_5">
     <g id="line2d_14">
      <g>
       <use style="stroke:#000000;stroke-width:0.8;" x="166.5" xlink:href="#maedee149cc" y="372.191874"/>
      </g>
     </g>
     <g id="text_14">
      <!-- 2000 -->
      <g transform="translate(134.05 375.991093)scale(0.1 -0.1)">
       <use xlink:href="#DejaVuSans-32"/>
       <use x="63.623047" xlink:href="#DejaVuSans-30"/>
       <use x="127.246094" xlink:href="#DejaVuSans-30"/>
       <use x="190.869141" xlink:href="#DejaVuSans-30"/>
      </g>
     </g>
    </g>
    <g id="ytick_6">
     <g id="line2d_15">
      <g>
       <use style="stroke:#000000;stroke-width:0.8;" x="166.5" xlink:href="#maedee149cc" y="301.359671"/>
      </g>
     </g>
     <g id="text_15">
      <!-- 2500 -->
      <g transform="translate(134.05 305.15889)scale(0.1 -0.1)">
       <use xlink:href="#DejaVuSans-32"/>
       <use x="63.623047" xlink:href="#DejaVuSans-35"/>
       <use x="127.246094" xlink:href="#DejaVuSans-30"/>
       <use x="190.869141" xlink:href="#DejaVuSans-30"/>
      </g>
     </g>
    </g>
    <g id="ytick_7">
     <g id="line2d_16">
      <g>
       <use style="stroke:#000000;stroke-width:0.8;" x="166.5" xlink:href="#maedee149cc" y="230.527468"/>
      </g>
     </g>
     <g id="text_16">
      <!-- 3000 -->
      <defs>
       <path d="M 40.578125 39.3125 
Q 47.65625 37.796875 51.625 33 
Q 55.609375 28.21875 55.609375 21.1875 
Q 55.609375 10.40625 48.1875 4.484375 
Q 40.765625 -1.421875 27.09375 -1.421875 
Q 22.515625 -1.421875 17.65625 -0.515625 
Q 12.796875 0.390625 7.625 2.203125 
L 7.625 11.71875 
Q 11.71875 9.328125 16.59375 8.109375 
Q 21.484375 6.890625 26.8125 6.890625 
Q 36.078125 6.890625 40.9375 10.546875 
Q 45.796875 14.203125 45.796875 21.1875 
Q 45.796875 27.640625 41.28125 31.265625 
Q 36.765625 34.90625 28.71875 34.90625 
L 20.21875 34.90625 
L 20.21875 43.015625 
L 29.109375 43.015625 
Q 36.375 43.015625 40.234375 45.921875 
Q 44.09375 48.828125 44.09375 54.296875 
Q 44.09375 59.90625 40.109375 62.90625 
Q 36.140625 65.921875 28.71875 65.921875 
Q 24.65625 65.921875 20.015625 65.03125 
Q 15.375 64.15625 9.8125 62.3125 
L 9.8125 71.09375 
Q 15.4375 72.65625 20.34375 73.4375 
Q 25.25 74.21875 29.59375 74.21875 
Q 40.828125 74.21875 47.359375 69.109375 
Q 53.90625 64.015625 53.90625 55.328125 
Q 53.90625 49.265625 50.4375 45.09375 
Q 46.96875 40.921875 40.578125 39.3125 
z
" id="DejaVuSans-33"/>
      </defs>
      <g transform="translate(134.05 234.326687)scale(0.1 -0.1)">
       <use xlink:href="#DejaVuSans-33"/>
       <use x="63.623047" xlink:href="#DejaVuSans-30"/>
       <use x="127.246094" xlink:href="#DejaVuSans-30"/>
       <use x="190.869141" xlink:href="#DejaVuSans-30"/>
      </g>
     </g>
    </g>
    <g id="ytick_8">
     <g id="line2d_17">
      <g>
       <use style="stroke:#000000;stroke-width:0.8;" x="166.5" xlink:href="#maedee149cc" y="159.695265"/>
      </g>
     </g>
     <g id="text_17">
      <!-- 3500 -->
      <g transform="translate(134.05 163.494483)scale(0.1 -0.1)">
       <use xlink:href="#DejaVuSans-33"/>
       <use x="63.623047" xlink:href="#DejaVuSans-35"/>
       <use x="127.246094" xlink:href="#DejaVuSans-30"/>
       <use x="190.869141" xlink:href="#DejaVuSans-30"/>
      </g>
     </g>
    </g>
   </g>
   <g id="LineCollection_1">
    <path clip-path="url(#p4f2d357134)" d="M 213.422727 586.245999 
L 1151.877273 586.245999 
" style="fill:none;stroke:#000000;stroke-width:1.5;"/>
   </g>
   <g id="LineCollection_2">
    <path clip-path="url(#p4f2d357134)" d="M 213.422727 572.463513 
L 1151.877273 572.463513 
" style="fill:none;stroke:#008000;stroke-width:1.5;"/>
   </g>
   <g id="line2d_18">
    <path clip-path="url(#p4f2d357134)" d="M 213.422727 272.107544 
L 218.115 254.54494 
L 222.807273 116.664545 
L 227.499545 596.537918 
L 232.191818 613.814686 
L 236.884091 619.277265 
L 241.576364 354.719935 
L 246.268636 252.672448 
L 250.960909 256.529502 
L 255.653182 618.793722 
L 260.345455 226.521822 
L 265.037727 617.657885 
L 269.73 592.752645 
L 274.422273 603.108639 
L 279.114545 598.182486 
L 283.806818 584.221303 
L 288.499091 591.581562 
L 293.191364 585.663135 
L 297.883636 593.126639 
L 302.575909 469.662029 
L 307.268182 365.714354 
L 311.960455 508.251413 
L 316.652727 598.444409 
L 321.345 590.260612 
L 326.037273 272.621318 
L 330.729545 594.795134 
L 335.421818 596.79103 
L 340.114091 603.854105 
L 344.806364 617.715812 
L 349.498636 613.873873 
L 354.190909 595.366835 
L 358.883182 607.216269 
L 363.575455 562.370985 
L 368.267727 592.089032 
L 372.96 616.826783 
L 377.652273 596.894289 
L 382.344545 614.205056 
L 387.036818 612.197827 
L 391.729091 619.973631 
L 396.421364 620.1537 
L 401.113636 606.24414 
L 405.805909 620.855095 
L 410.498182 608.404989 
L 415.190455 617.796405 
L 419.882727 586.354457 
L 424.575 606.152214 
L 429.267273 569.633014 
L 433.959545 577.125489 
L 438.651818 560.671012 
L 443.344091 612.531518 
L 448.036364 594.778772 
L 452.728636 614.074087 
L 457.420909 626.812551 
L 462.113182 623.024756 
L 466.805455 620.894123 
L 471.497727 621.117018 
L 476.19 615.056289 
L 480.882273 628.197717 
L 485.574545 623.43275 
L 490.266818 614.54379 
L 494.959091 631.025962 
L 499.651364 629.892647 
L 504.343636 627.885418 
L 509.035909 609.773793 
L 513.728182 609.700751 
L 518.420455 635.555455 
L 523.112727 621.130859 
L 527.805 605.041565 
L 532.497273 631.023454 
L 537.189545 623.067581 
L 541.881818 611.155177 
L 546.574091 606.396514 
L 551.266364 617.088706 
L 555.958636 624.074971 
L 560.650909 619.72807 
L 565.343182 611.083396 
L 570.035455 607.177241 
L 574.727727 604.529051 
L 579.42 595.933493 
L 584.112273 625.638946 
L 588.804545 616.144272 
L 593.496818 629.715099 
L 598.189091 605.016377 
L 602.881364 615.507108 
L 607.573636 615.625468 
L 612.265909 611.316349 
L 616.958182 621.817152 
L 621.650455 608.787809 
L 626.342727 610.690518 
L 631.035 593.403678 
L 635.727273 590.741648 
L 640.419545 593.064944 
L 645.111818 593.574936 
L 649.804091 617.582335 
L 654.496364 621.507375 
L 659.188636 616.825522 
L 663.880909 629.945544 
L 668.573182 614.062754 
L 673.265455 595.485196 
L 677.957727 604.103435 
L 682.65 626.954853 
L 687.342273 603.9158 
L 692.034545 623.451648 
L 696.726818 617.353151 
L 701.419091 606.591685 
L 706.111364 606.514875 
L 710.803636 581.628532 
L 715.495909 562.308029 
L 720.188182 585.790321 
L 724.880455 567.322312 
L 729.572727 569.980573 
L 734.265 596.859029 
L 738.957273 541.149033 
L 743.649545 524.869583 
L 748.341818 543.557952 
L 753.034091 605.200229 
L 757.726364 593.193391 
L 762.418636 543.050481 
L 767.110909 528.717826 
L 771.803182 539.546016 
L 776.495455 525.363213 
L 781.187727 560.80072 
L 785.88 558.561785 
L 790.572273 555.826727 
L 795.264545 589.204122 
L 799.956818 591.722589 
L 804.649091 596.906883 
L 809.341364 610.052079 
L 814.033636 599.990761 
L 818.725909 614.440531 
L 823.418182 608.751288 
L 828.110455 619.529116 
L 832.802727 583.130799 
L 837.495 602.194422 
L 842.187273 614.461936 
L 846.879545 610.471406 
L 851.571818 616.087606 
L 856.264091 605.729105 
L 860.956364 612.049235 
L 865.648636 591.376304 
L 870.340909 621.659749 
L 875.033182 594.062262 
L 879.725455 604.467356 
L 884.417727 574.516356 
L 889.11 608.140559 
L 893.802273 578.504365 
L 898.494545 598.828476 
L 903.186818 613.644688 
L 907.879091 605.323633 
L 912.571364 599.609202 
L 917.263636 599.879951 
L 921.955909 612.970989 
L 926.648182 614.609267 
L 931.340455 600.995629 
L 936.032727 598.817142 
L 940.725 605.294677 
L 945.417273 610.350523 
L 950.109545 602.140278 
L 954.801818 602.102496 
L 959.494091 614.55763 
L 964.186364 611.940933 
L 968.878636 603.398258 
L 973.570909 584.838336 
L 978.263182 602.558344 
L 982.955455 603.764701 
L 987.647727 608.512031 
L 992.34 586.442601 
L 997.032273 615.55118 
L 1001.724545 620.498724 
L 1006.416818 577.446599 
L 1011.109091 608.964096 
L 1015.801364 610.453783 
L 1020.493636 607.271674 
L 1025.185909 603.463735 
L 1029.878182 614.761627 
L 1034.570455 616.984186 
L 1039.262727 624.459037 
L 1043.955 623.751339 
L 1048.647273 619.957254 
L 1053.339545 614.560152 
L 1058.031818 616.797826 
L 1062.724091 611.808718 
L 1067.416364 613.008771 
L 1072.108636 598.201384 
L 1076.800909 613.190101 
L 1081.493182 613.747947 
L 1086.185455 626.948549 
L 1090.877727 601.924948 
L 1095.57 587.868056 
L 1100.262273 614.245345 
L 1104.954545 616.261386 
L 1109.646818 616.48931 
L 1114.339091 602.343014 
L 1119.031364 595.444906 
L 1123.723636 611.305016 
L 1128.415909 602.384578 
L 1133.108182 618.515422 
L 1137.800455 594.306548 
L 1142.492727 585.410023 
L 1147.185 537.060287 
L 1147.185 537.060287 
" style="fill:none;stroke:#1f77b4;stroke-linecap:square;stroke-width:1.5;"/>
   </g>
   <g id="line2d_19">
    <path clip-path="url(#p4f2d357134)" d="M 213.422727 520.110102 
L 218.115 518.683704 
L 222.807273 512.357166 
L 227.499545 573.578411 
L 232.191818 577.853288 
L 236.884091 579.232943 
L 241.576364 528.806121 
L 246.268636 518.540172 
L 250.960909 518.837595 
L 255.653182 579.110275 
L 260.345455 516.706559 
L 265.037727 578.822553 
L 269.73 572.65997 
L 274.422273 575.188279 
L 279.114545 573.979488 
L 283.806818 570.614128 
L 288.499091 572.377152 
L 293.191364 570.957524 
L 297.883636 572.750413 
L 302.575909 546.501081 
L 307.268182 530.214819 
L 311.960455 553.912427 
L 316.652727 574.043481 
L 321.345 572.0589 
L 326.037273 520.154 
L 330.729545 573.154732 
L 335.421818 573.640061 
L 340.114091 575.372164 
L 344.806364 578.837209 
L 349.498636 577.868169 
L 354.190909 573.29356 
L 358.883182 576.20465 
L 363.575455 565.528874 
L 368.267727 572.499629 
L 372.96 578.612383 
L 377.652273 573.665213 
L 382.344545 577.951444 
L 387.036818 577.447499 
L 391.729091 579.409773 
L 396.421364 579.455538 
L 401.113636 575.963412 
L 405.805909 579.633925 
L 410.498182 576.500196 
L 415.190455 578.857615 
L 419.882727 571.122517 
L 424.575 575.940629 
L 429.267273 567.194149 
L 433.959545 568.938227 
L 438.651818 565.142652 
L 443.344091 577.531145 
L 448.036364 573.150763 
L 452.728636 577.9185 
L 457.420909 581.157906 
L 462.113182 580.18712 
L 466.805455 579.643859 
L 471.497727 579.700598 
L 476.19 578.165704 
L 480.882273 581.514497 
L 485.574545 580.291388 
L 490.266818 578.036664 
L 494.959091 582.245214 
L 499.651364 581.951985 
L 504.343636 581.434024 
L 509.035909 576.841327 
L 513.728182 576.8231 
L 518.420455 583.42279 
L 523.112727 579.704117 
L 527.805 575.665592 
L 532.497273 582.244565 
L 537.189545 580.198057 
L 541.881818 577.186444 
L 546.574091 576.001198 
L 551.266364 578.67858 
L 555.958636 580.455654 
L 560.650909 579.347397 
L 565.343182 577.168485 
L 570.035455 576.194949 
L 574.727727 575.538869 
L 579.42 573.431317 
L 584.112273 580.856437 
L 588.804545 578.440032 
L 593.496818 581.906098 
L 598.189091 575.659366 
L 602.881364 578.279302 
L 607.573636 578.30915 
L 612.265909 577.226762 
L 616.958182 579.878967 
L 621.650455 576.595524 
L 626.342727 577.070261 
L 631.035 572.817466 
L 635.727273 572.174694 
L 640.419545 572.735489 
L 645.111818 572.858926 
L 649.804091 578.803436 
L 654.496364 579.800015 
L 659.188636 578.612063 
L 663.880909 581.965663 
L 668.573182 577.915656 
L 673.265455 573.322319 
L 677.957727 575.433719 
L 682.65 581.194498 
L 687.342273 575.387391 
L 692.034545 580.296213 
L 696.726818 578.745453 
L 701.419091 576.049609 
L 706.111364 576.030552 
L 710.803636 569.99905 
L 715.495909 565.514538 
L 720.188182 570.987865 
L 724.880455 566.661584 
L 729.572727 567.274475 
L 734.265 573.656627 
L 738.957273 560.805779 
L 743.649545 557.329018 
L 748.341818 561.33108 
L 753.034091 575.704856 
L 757.726364 572.766564 
L 762.418636 561.220189 
L 767.110909 558.139317 
L 771.803182 560.457757 
L 776.495455 557.432542 
L 781.187727 565.172067 
L 790.572273 564.049534 
L 795.264545 571.804943 
L 799.956818 572.411167 
L 804.649091 573.668292 
L 809.341364 576.910776 
L 814.033636 574.421921 
L 818.725909 578.010681 
L 823.418182 576.586419 
L 828.110455 579.296875 
L 832.802727 570.355053 
L 837.495 574.963106 
L 842.187273 578.016068 
L 846.879545 577.015502 
L 851.571818 578.425722 
L 856.264091 575.835781 
L 860.956364 577.410259 
L 865.648636 572.327642 
L 870.340909 579.838838 
L 875.033182 572.976986 
L 879.725455 575.523625 
L 884.417727 568.327896 
L 889.11 576.434396 
L 893.802273 569.262056 
L 898.494545 574.137373 
L 903.186818 577.810575 
L 907.879091 575.735387 
L 912.571364 574.328444 
L 917.263636 574.394763 
L 921.955909 577.641397 
L 926.648182 578.053144 
L 931.340455 574.668425 
L 936.032727 574.134606 
L 940.725 575.728227 
L 945.417273 576.985309 
L 950.109545 574.949782 
L 954.801818 574.940487 
L 959.494091 578.040148 
L 964.186364 577.383135 
L 968.878636 575.259682 
L 973.570909 570.760963 
L 978.263182 575.052693 
L 982.955455 575.350098 
L 987.647727 576.526845 
L 992.34 571.143571 
L 997.032273 578.290413 
L 1001.724545 579.543257 
L 1006.416818 569.013564 
L 1011.109091 576.63944 
L 1015.801364 577.011101 
L 1020.493636 576.218407 
L 1025.185909 575.275833 
L 1029.878182 578.0915 
L 1034.570455 578.652165 
L 1039.262727 580.553965 
L 1043.955 580.372847 
L 1048.647273 579.405614 
L 1053.339545 578.040779 
L 1058.031818 578.605068 
L 1062.724091 577.350018 
L 1067.416364 577.650874 
L 1072.108636 573.984114 
L 1076.800909 577.696398 
L 1081.493182 577.836514 
L 1086.185455 581.192882 
L 1090.877727 574.896814 
L 1095.57 571.484521 
L 1100.262273 577.961577 
L 1104.954545 578.469586 
L 1109.646818 578.527137 
L 1114.339091 574.999681 
L 1119.031364 573.312531 
L 1123.723636 577.223926 
L 1128.415909 575.00991 
L 1133.108182 579.039728 
L 1137.800455 573.036206 
L 1142.492727 570.897172 
L 1147.185 559.920532 
L 1147.185 559.920532 
" style="fill:none;stroke:#ff0000;stroke-linecap:square;stroke-width:1.5;"/>
   </g>
   <g id="patch_3">
    <path d="M 166.5 661.5 
L 166.5 90.72 
" style="fill:none;stroke:#000000;stroke-linecap:square;stroke-linejoin:miter;stroke-width:0.8;"/>
   </g>
   <g id="patch_4">
    <path d="M 1198.8 661.5 
L 1198.8 90.72 
" style="fill:none;stroke:#000000;stroke-linecap:square;stroke-linejoin:miter;stroke-width:0.8;"/>
   </g>
   <g id="patch_5">
    <path d="M 166.5 661.5 
L 1198.8 661.5 
" style="fill:none;stroke:#000000;stroke-linecap:square;stroke-linejoin:miter;stroke-width:0.8;"/>
   </g>
   <g id="patch_6">
    <path d="M 166.5 90.72 
L 1198.8 90.72 
" style="fill:none;stroke:#000000;stroke-linecap:square;stroke-linejoin:miter;stroke-width:0.8;"/>
   </g>
  </g>
 </g>
 <defs>
  <clipPath id="p4f2d357134">
   <rect height="570.78" width="1032.3" x="166.5" y="90.72"/>
  </clipPath>
 </defs>
</svg>
