<?xml version="1.0" encoding="utf-8" standalone="no"?>
<!DOCTYPE svg PUBLIC "-//W3C//DTD SVG 1.1//EN"
  "http://www.w3.org/Graphics/SVG/1.1/DTD/svg11.dtd">
<!-- Created with matplotlib (http://matplotlib.org/) -->
<svg height="756pt" version="1.1" viewBox="0 0 1332 756" width="1332pt" xmlns="http://www.w3.org/2000/svg" xmlns:xlink="http://www.w3.org/1999/xlink">
 <defs>
  <style type="text/css">
*{stroke-linecap:butt;stroke-linejoin:round;}
  </style>
 </defs>
 <g id="figure_1">
  <g id="patch_1">
   <path d="M 0 756 
L 1332 756 
L 1332 0 
L 0 0 
z
" style="fill:#ffffff;"/>
  </g>
  <g id="axes_1">
   <g id="patch_2">
    <path d="M 166.5 661.5 
L 1198.8 661.5 
L 1198.8 90.72 
L 166.5 90.72 
z
" style="fill:#ffffff;"/>
   </g>
   <g id="matplotlib.axis_1">
    <g id="xtick_1">
     <g id="line2d_1">
      <defs>
       <path d="M 0 0 
L 0 3.5 
" id="m959b58cf50" style="stroke:#000000;stroke-width:0.8;"/>
      </defs>
      <g>
       <use style="stroke:#000000;stroke-width:0.8;" x="213.422727" xlink:href="#m959b58cf50" y="661.5"/>
      </g>
     </g>
     <g id="text_1">
      <!-- 0 -->
      <defs>
       <path d="M 31.78125 66.40625 
Q 24.171875 66.40625 20.328125 58.90625 
Q 16.5 51.421875 16.5 36.375 
Q 16.5 21.390625 20.328125 13.890625 
Q 24.171875 6.390625 31.78125 6.390625 
Q 39.453125 6.390625 43.28125 13.890625 
Q 47.125 21.390625 47.125 36.375 
Q 47.125 51.421875 43.28125 58.90625 
Q 39.453125 66.40625 31.78125 66.40625 
z
M 31.78125 74.21875 
Q 44.046875 74.21875 50.515625 64.515625 
Q 56.984375 54.828125 56.984375 36.375 
Q 56.984375 17.96875 50.515625 8.265625 
Q 44.046875 -1.421875 31.78125 -1.421875 
Q 19.53125 -1.421875 13.0625 8.265625 
Q 6.59375 17.96875 6.59375 36.375 
Q 6.59375 54.828125 13.0625 64.515625 
Q 19.53125 74.21875 31.78125 74.21875 
z
" id="DejaVuSans-30"/>
      </defs>
      <g transform="translate(210.241477 676.098438)scale(0.1 -0.1)">
       <use xlink:href="#DejaVuSans-30"/>
      </g>
     </g>
    </g>
    <g id="xtick_2">
     <g id="line2d_2">
      <g>
       <use style="stroke:#000000;stroke-width:0.8;" x="330.729545" xlink:href="#m959b58cf50" y="661.5"/>
      </g>
     </g>
     <g id="text_2">
      <!-- 25 -->
      <defs>
       <path d="M 19.1875 8.296875 
L 53.609375 8.296875 
L 53.609375 0 
L 7.328125 0 
L 7.328125 8.296875 
Q 12.9375 14.109375 22.625 23.890625 
Q 32.328125 33.6875 34.8125 36.53125 
Q 39.546875 41.84375 41.421875 45.53125 
Q 43.3125 49.21875 43.3125 52.78125 
Q 43.3125 58.59375 39.234375 62.25 
Q 35.15625 65.921875 28.609375 65.921875 
Q 23.96875 65.921875 18.8125 64.3125 
Q 13.671875 62.703125 7.8125 59.421875 
L 7.8125 69.390625 
Q 13.765625 71.78125 18.9375 73 
Q 24.125 74.21875 28.421875 74.21875 
Q 39.75 74.21875 46.484375 68.546875 
Q 53.21875 62.890625 53.21875 53.421875 
Q 53.21875 48.921875 51.53125 44.890625 
Q 49.859375 40.875 45.40625 35.40625 
Q 44.1875 33.984375 37.640625 27.21875 
Q 31.109375 20.453125 19.1875 8.296875 
z
" id="DejaVuSans-32"/>
       <path d="M 10.796875 72.90625 
L 49.515625 72.90625 
L 49.515625 64.59375 
L 19.828125 64.59375 
L 19.828125 46.734375 
Q 21.96875 47.46875 24.109375 47.828125 
Q 26.265625 48.1875 28.421875 48.1875 
Q 40.625 48.1875 47.75 41.5 
Q 54.890625 34.8125 54.890625 23.390625 
Q 54.890625 11.625 47.5625 5.09375 
Q 40.234375 -1.421875 26.90625 -1.421875 
Q 22.3125 -1.421875 17.546875 -0.640625 
Q 12.796875 0.140625 7.71875 1.703125 
L 7.71875 11.625 
Q 12.109375 9.234375 16.796875 8.0625 
Q 21.484375 6.890625 26.703125 6.890625 
Q 35.15625 6.890625 40.078125 11.328125 
Q 45.015625 15.765625 45.015625 23.390625 
Q 45.015625 31 40.078125 35.4375 
Q 35.15625 39.890625 26.703125 39.890625 
Q 22.75 39.890625 18.8125 39.015625 
Q 14.890625 38.140625 10.796875 36.28125 
z
" id="DejaVuSans-35"/>
      </defs>
      <g transform="translate(324.367045 676.098438)scale(0.1 -0.1)">
       <use xlink:href="#DejaVuSans-32"/>
       <use x="63.623047" xlink:href="#DejaVuSans-35"/>
      </g>
     </g>
    </g>
    <g id="xtick_3">
     <g id="line2d_3">
      <g>
       <use style="stroke:#000000;stroke-width:0.8;" x="448.036364" xlink:href="#m959b58cf50" y="661.5"/>
      </g>
     </g>
     <g id="text_3">
      <!-- 50 -->
      <g transform="translate(441.673864 676.098438)scale(0.1 -0.1)">
       <use xlink:href="#DejaVuSans-35"/>
       <use x="63.623047" xlink:href="#DejaVuSans-30"/>
      </g>
     </g>
    </g>
    <g id="xtick_4">
     <g id="line2d_4">
      <g>
       <use style="stroke:#000000;stroke-width:0.8;" x="565.343182" xlink:href="#m959b58cf50" y="661.5"/>
      </g>
     </g>
     <g id="text_4">
      <!-- 75 -->
      <defs>
       <path d="M 8.203125 72.90625 
L 55.078125 72.90625 
L 55.078125 68.703125 
L 28.609375 0 
L 18.3125 0 
L 43.21875 64.59375 
L 8.203125 64.59375 
z
" id="DejaVuSans-37"/>
      </defs>
      <g transform="translate(558.980682 676.098438)scale(0.1 -0.1)">
       <use xlink:href="#DejaVuSans-37"/>
       <use x="63.623047" xlink:href="#DejaVuSans-35"/>
      </g>
     </g>
    </g>
    <g id="xtick_5">
     <g id="line2d_5">
      <g>
       <use style="stroke:#000000;stroke-width:0.8;" x="682.65" xlink:href="#m959b58cf50" y="661.5"/>
      </g>
     </g>
     <g id="text_5">
      <!-- 100 -->
      <defs>
       <path d="M 12.40625 8.296875 
L 28.515625 8.296875 
L 28.515625 63.921875 
L 10.984375 60.40625 
L 10.984375 69.390625 
L 28.421875 72.90625 
L 38.28125 72.90625 
L 38.28125 8.296875 
L 54.390625 8.296875 
L 54.390625 0 
L 12.40625 0 
z
" id="DejaVuSans-31"/>
      </defs>
      <g transform="translate(673.10625 676.098438)scale(0.1 -0.1)">
       <use xlink:href="#DejaVuSans-31"/>
       <use x="63.623047" xlink:href="#DejaVuSans-30"/>
       <use x="127.246094" xlink:href="#DejaVuSans-30"/>
      </g>
     </g>
    </g>
    <g id="xtick_6">
     <g id="line2d_6">
      <g>
       <use style="stroke:#000000;stroke-width:0.8;" x="799.956818" xlink:href="#m959b58cf50" y="661.5"/>
      </g>
     </g>
     <g id="text_6">
      <!-- 125 -->
      <g transform="translate(790.413068 676.098438)scale(0.1 -0.1)">
       <use xlink:href="#DejaVuSans-31"/>
       <use x="63.623047" xlink:href="#DejaVuSans-32"/>
       <use x="127.246094" xlink:href="#DejaVuSans-35"/>
      </g>
     </g>
    </g>
    <g id="xtick_7">
     <g id="line2d_7">
      <g>
       <use style="stroke:#000000;stroke-width:0.8;" x="917.263636" xlink:href="#m959b58cf50" y="661.5"/>
      </g>
     </g>
     <g id="text_7">
      <!-- 150 -->
      <g transform="translate(907.719886 676.098438)scale(0.1 -0.1)">
       <use xlink:href="#DejaVuSans-31"/>
       <use x="63.623047" xlink:href="#DejaVuSans-35"/>
       <use x="127.246094" xlink:href="#DejaVuSans-30"/>
      </g>
     </g>
    </g>
    <g id="xtick_8">
     <g id="line2d_8">
      <g>
       <use style="stroke:#000000;stroke-width:0.8;" x="1034.570455" xlink:href="#m959b58cf50" y="661.5"/>
      </g>
     </g>
     <g id="text_8">
      <!-- 175 -->
      <g transform="translate(1025.026705 676.098438)scale(0.1 -0.1)">
       <use xlink:href="#DejaVuSans-31"/>
       <use x="63.623047" xlink:href="#DejaVuSans-37"/>
       <use x="127.246094" xlink:href="#DejaVuSans-35"/>
      </g>
     </g>
    </g>
    <g id="xtick_9">
     <g id="line2d_9">
      <g>
       <use style="stroke:#000000;stroke-width:0.8;" x="1151.877273" xlink:href="#m959b58cf50" y="661.5"/>
      </g>
     </g>
     <g id="text_9">
      <!-- 200 -->
      <g transform="translate(1142.333523 676.098438)scale(0.1 -0.1)">
       <use xlink:href="#DejaVuSans-32"/>
       <use x="63.623047" xlink:href="#DejaVuSans-30"/>
       <use x="127.246094" xlink:href="#DejaVuSans-30"/>
      </g>
     </g>
    </g>
   </g>
   <g id="matplotlib.axis_2">
    <g id="ytick_1">
     <g id="line2d_10">
      <defs>
       <path d="M 0 0 
L -3.5 0 
" id="m83db643d34" style="stroke:#000000;stroke-width:0.8;"/>
      </defs>
      <g>
       <use style="stroke:#000000;stroke-width:0.8;" x="166.5" xlink:href="#m83db643d34" y="571.106376"/>
      </g>
     </g>
     <g id="text_10">
      <!-- 200 -->
      <g transform="translate(140.4125 574.905595)scale(0.1 -0.1)">
       <use xlink:href="#DejaVuSans-32"/>
       <use x="63.623047" xlink:href="#DejaVuSans-30"/>
       <use x="127.246094" xlink:href="#DejaVuSans-30"/>
      </g>
     </g>
    </g>
    <g id="ytick_2">
     <g id="line2d_11">
      <g>
       <use style="stroke:#000000;stroke-width:0.8;" x="166.5" xlink:href="#m83db643d34" y="448.848184"/>
      </g>
     </g>
     <g id="text_11">
      <!-- 400 -->
      <defs>
       <path d="M 37.796875 64.3125 
L 12.890625 25.390625 
L 37.796875 25.390625 
z
M 35.203125 72.90625 
L 47.609375 72.90625 
L 47.609375 25.390625 
L 58.015625 25.390625 
L 58.015625 17.1875 
L 47.609375 17.1875 
L 47.609375 0 
L 37.796875 0 
L 37.796875 17.1875 
L 4.890625 17.1875 
L 4.890625 26.703125 
z
" id="DejaVuSans-34"/>
      </defs>
      <g transform="translate(140.4125 452.647403)scale(0.1 -0.1)">
       <use xlink:href="#DejaVuSans-34"/>
       <use x="63.623047" xlink:href="#DejaVuSans-30"/>
       <use x="127.246094" xlink:href="#DejaVuSans-30"/>
      </g>
     </g>
    </g>
    <g id="ytick_3">
     <g id="line2d_12">
      <g>
       <use style="stroke:#000000;stroke-width:0.8;" x="166.5" xlink:href="#m83db643d34" y="326.589992"/>
      </g>
     </g>
     <g id="text_12">
      <!-- 600 -->
      <defs>
       <path d="M 33.015625 40.375 
Q 26.375 40.375 22.484375 35.828125 
Q 18.609375 31.296875 18.609375 23.390625 
Q 18.609375 15.53125 22.484375 10.953125 
Q 26.375 6.390625 33.015625 6.390625 
Q 39.65625 6.390625 43.53125 10.953125 
Q 47.40625 15.53125 47.40625 23.390625 
Q 47.40625 31.296875 43.53125 35.828125 
Q 39.65625 40.375 33.015625 40.375 
z
M 52.59375 71.296875 
L 52.59375 62.3125 
Q 48.875 64.0625 45.09375 64.984375 
Q 41.3125 65.921875 37.59375 65.921875 
Q 27.828125 65.921875 22.671875 59.328125 
Q 17.53125 52.734375 16.796875 39.40625 
Q 19.671875 43.65625 24.015625 45.921875 
Q 28.375 48.1875 33.59375 48.1875 
Q 44.578125 48.1875 50.953125 41.515625 
Q 57.328125 34.859375 57.328125 23.390625 
Q 57.328125 12.15625 50.6875 5.359375 
Q 44.046875 -1.421875 33.015625 -1.421875 
Q 20.359375 -1.421875 13.671875 8.265625 
Q 6.984375 17.96875 6.984375 36.375 
Q 6.984375 53.65625 15.1875 63.9375 
Q 23.390625 74.21875 37.203125 74.21875 
Q 40.921875 74.21875 44.703125 73.484375 
Q 48.484375 72.75 52.59375 71.296875 
z
" id="DejaVuSans-36"/>
      </defs>
      <g transform="translate(140.4125 330.38921)scale(0.1 -0.1)">
       <use xlink:href="#DejaVuSans-36"/>
       <use x="63.623047" xlink:href="#DejaVuSans-30"/>
       <use x="127.246094" xlink:href="#DejaVuSans-30"/>
      </g>
     </g>
    </g>
    <g id="ytick_4">
     <g id="line2d_13">
      <g>
       <use style="stroke:#000000;stroke-width:0.8;" x="166.5" xlink:href="#m83db643d34" y="204.331799"/>
      </g>
     </g>
     <g id="text_13">
      <!-- 800 -->
      <defs>
       <path d="M 31.78125 34.625 
Q 24.75 34.625 20.71875 30.859375 
Q 16.703125 27.09375 16.703125 20.515625 
Q 16.703125 13.921875 20.71875 10.15625 
Q 24.75 6.390625 31.78125 6.390625 
Q 38.8125 6.390625 42.859375 10.171875 
Q 46.921875 13.96875 46.921875 20.515625 
Q 46.921875 27.09375 42.890625 30.859375 
Q 38.875 34.625 31.78125 34.625 
z
M 21.921875 38.8125 
Q 15.578125 40.375 12.03125 44.71875 
Q 8.5 49.078125 8.5 55.328125 
Q 8.5 64.0625 14.71875 69.140625 
Q 20.953125 74.21875 31.78125 74.21875 
Q 42.671875 74.21875 48.875 69.140625 
Q 55.078125 64.0625 55.078125 55.328125 
Q 55.078125 49.078125 51.53125 44.71875 
Q 48 40.375 41.703125 38.8125 
Q 48.828125 37.15625 52.796875 32.3125 
Q 56.78125 27.484375 56.78125 20.515625 
Q 56.78125 9.90625 50.3125 4.234375 
Q 43.84375 -1.421875 31.78125 -1.421875 
Q 19.734375 -1.421875 13.25 4.234375 
Q 6.78125 9.90625 6.78125 20.515625 
Q 6.78125 27.484375 10.78125 32.3125 
Q 14.796875 37.15625 21.921875 38.8125 
z
M 18.3125 54.390625 
Q 18.3125 48.734375 21.84375 45.5625 
Q 25.390625 42.390625 31.78125 42.390625 
Q 38.140625 42.390625 41.71875 45.5625 
Q 45.3125 48.734375 45.3125 54.390625 
Q 45.3125 60.0625 41.71875 63.234375 
Q 38.140625 66.40625 31.78125 66.40625 
Q 25.390625 66.40625 21.84375 63.234375 
Q 18.3125 60.0625 18.3125 54.390625 
z
" id="DejaVuSans-38"/>
      </defs>
      <g transform="translate(140.4125 208.131018)scale(0.1 -0.1)">
       <use xlink:href="#DejaVuSans-38"/>
       <use x="63.623047" xlink:href="#DejaVuSans-30"/>
       <use x="127.246094" xlink:href="#DejaVuSans-30"/>
      </g>
     </g>
    </g>
   </g>
   <g id="LineCollection_1">
    <path clip-path="url(#p0cd09c060f)" d="M 213.422727 524.659293 
L 1151.877273 524.659293 
" style="fill:none;stroke:#000000;stroke-width:1.5;"/>
   </g>
   <g id="LineCollection_2">
    <path clip-path="url(#p0cd09c060f)" d="M 213.422727 512.339802 
L 1151.877273 512.339802 
" style="fill:none;stroke:#008000;stroke-width:1.5;"/>
   </g>
   <g id="line2d_14">
    <path clip-path="url(#p0cd09c060f)" d="M 213.422727 606.039637 
L 218.115 608.435898 
L 222.807273 606.947038 
L 227.499545 425.879965 
L 232.191818 584.696047 
L 236.884091 554.126058 
L 241.576364 536.85232 
L 246.268636 496.920105 
L 250.960909 553.957647 
L 255.653182 536.330706 
L 260.345455 538.77587 
L 265.037727 479.445314 
L 269.73 581.897679 
L 274.422273 563.98826 
L 279.114545 513.503756 
L 283.806818 518.714645 
L 288.499091 556.375609 
L 293.191364 494.572748 
L 297.883636 495.692083 
L 302.575909 518.258255 
L 307.268182 471.072034 
L 311.960455 552.338399 
L 316.652727 454.678555 
L 321.345 444.957684 
L 326.037273 459.047207 
L 330.729545 458.878796 
L 335.421818 566.406221 
L 340.114091 494.186962 
L 344.806364 487.682826 
L 349.498636 541.813313 
L 354.190909 529.239731 
L 358.883182 484.819234 
L 363.575455 517.171502 
L 368.267727 558.266576 
L 372.96 338.582175 
L 377.652273 530.27758 
L 382.344545 512.014896 
L 387.036818 558.000298 
L 391.729091 520.844688 
L 396.421364 502.087531 
L 401.113636 506.559491 
L 405.805909 489.823689 
L 410.498182 452.189928 
L 415.190455 539.400731 
L 419.882727 528.201881 
L 424.575 480.271229 
L 429.267273 537.390256 
L 433.959545 374.488062 
L 438.651818 299.378008 
L 443.344091 507.282159 
L 448.036364 522.170517 
L 452.728636 516.470535 
L 457.420909 567.791834 
L 462.113182 548.377233 
L 466.805455 584.076625 
L 471.497727 603.464024 
L 476.19 510.113109 
L 480.882273 534.716898 
L 485.574545 570.986808 
L 490.266818 498.577376 
L 494.959091 547.274159 
L 499.651364 574.551367 
L 504.343636 581.419527 
L 509.035909 544.062864 
L 513.728182 560.86927 
L 518.420455 608.908609 
L 523.112727 547.969686 
L 527.805 545.160498 
L 532.497273 527.723729 
L 537.189545 585.945831 
L 541.881818 489.508569 
L 546.574091 497.115718 
L 551.266364 588.602868 
L 555.958636 543.356456 
L 560.650909 576.110832 
L 565.343182 534.059454 
L 574.727727 618.895759 
L 579.42 569.949019 
L 584.112273 572.421324 
L 588.804545 566.23781 
L 593.496818 556.332146 
L 598.189091 535.075542 
L 602.881364 555.908338 
L 607.573636 575.947801 
L 612.265909 580.57729 
L 616.958182 577.050814 
L 621.650455 476.288363 
L 626.342727 397.054173 
L 631.035 571.568268 
L 635.727273 543.291293 
L 640.419545 563.836109 
L 645.111818 619.944428 
L 649.804091 547.312242 
L 654.496364 536.732813 
L 659.188636 512.357219 
L 663.880909 609.038997 
L 668.573182 561.331161 
L 673.265455 546.600394 
L 677.957727 556.8375 
L 682.65 555.864875 
L 687.342273 556.343027 
L 692.034545 585.299207 
L 696.726818 531.190421 
L 701.419091 512.324637 
L 706.111364 557.755782 
L 710.803636 379.459874 
L 715.495909 516.198877 
L 720.188182 569.536031 
L 724.880455 477.277309 
L 729.572727 329.790467 
L 734.265 532.315197 
L 738.957273 520.556709 
L 743.649545 507.575579 
L 748.341818 540.72112 
L 753.034091 443.235188 
L 757.726364 359.143253 
L 762.418636 392.625737 
L 767.110909 351.546984 
L 771.803182 545.567985 
L 776.495455 506.651857 
L 781.187727 421.848135 
L 785.88 530.163452 
L 790.572273 551.197302 
L 795.264545 410.687306 
L 799.956818 545.93751 
L 804.649091 572.948379 
L 809.341364 558.282837 
L 814.033636 590.086288 
L 818.725909 553.609884 
L 823.418182 546.285273 
L 828.110455 486.465685 
L 832.802727 477.679355 
L 837.495 488.280547 
L 842.187273 586.331617 
L 846.879545 560.092258 
L 851.571818 540.862389 
L 856.264091 539.411612 
L 860.956364 549.697622 
L 865.648636 489.660658 
L 870.340909 573.573302 
L 875.033182 524.126648 
L 879.725455 585.918629 
L 884.417727 587.266219 
L 889.11 558.538234 
L 893.802273 535.173349 
L 898.494545 602.757677 
L 903.186818 535.852554 
L 907.879091 521.235915 
L 912.571364 582.95185 
L 917.263636 565.433596 
L 921.955909 528.468159 
L 926.648182 582.886625 
L 931.340455 547.681706 
L 936.032727 468.338829 
L 940.725 560.059676 
L 945.417273 549.273753 
L 950.109545 579.300365 
L 954.801818 552.843692 
L 959.494091 603.480345 
L 964.186364 435.64974 
L 968.878636 536.890404 
L 973.570909 490.807195 
L 978.263182 513.340725 
L 982.955455 635.555455 
L 987.647727 538.357502 
L 992.34 557.609072 
L 997.032273 562.314667 
L 1001.724545 597.742341 
L 1006.416818 501.32684 
L 1011.109091 445.370611 
L 1015.801364 561.456109 
L 1020.493636 299.046566 
L 1025.185909 466.382698 
L 1029.878182 525.707814 
L 1034.570455 551.746119 
L 1039.262727 512.199689 
L 1043.955 567.177792 
L 1048.647273 494.328231 
L 1053.339545 528.218202 
L 1058.031818 538.917139 
L 1062.724091 556.424512 
L 1067.416364 518.578816 
L 1072.108636 589.401642 
L 1076.800909 456.308623 
L 1081.493182 439.317485 
L 1086.185455 484.688845 
L 1090.877727 528.701795 
L 1095.57 553.294702 
L 1100.262273 116.664545 
L 1104.954545 321.167168 
L 1109.646818 534.16264 
L 1114.339091 546.567812 
L 1119.031364 575.05122 
L 1123.723636 569.726203 
L 1128.415909 532.06524 
L 1133.108182 570.486955 
L 1137.800455 554.490143 
L 1142.492727 503.538369 
L 1147.185 599.758256 
L 1147.185 599.758256 
" style="fill:none;stroke:#1f77b4;stroke-linecap:square;stroke-width:1.5;"/>
   </g>
   <g id="line2d_15">
    <path clip-path="url(#p0cd09c060f)" d="M 213.422727 550.077532 
L 218.115 551.112947 
L 222.807273 550.469971 
L 227.499545 464.559115 
L 232.191818 540.723408 
L 236.884091 526.926464 
L 241.576364 518.931961 
L 246.268636 499.937151 
L 250.960909 526.849213 
L 255.653182 518.688419 
L 260.345455 519.829067 
L 265.037727 491.412824 
L 269.73 539.47968 
L 274.422273 531.427496 
L 279.114545 507.909845 
L 283.806818 510.390696 
L 288.499091 527.957252 
L 293.191364 498.799319 
L 297.883636 499.342164 
L 302.575909 510.173886 
L 307.268182 487.285192 
L 311.960455 526.10562 
L 316.652727 479.126506 
L 321.345 474.24185 
L 326.037273 481.310499 
L 330.729545 481.226439 
L 335.421818 532.523839 
L 340.114091 498.612096 
L 344.806364 495.446509 
L 349.498636 521.242211 
L 354.190909 515.365084 
L 358.883182 494.047375 
L 363.575455 509.657251 
L 368.267727 528.821861 
L 372.96 418.837376 
L 377.652273 515.852896 
L 382.344545 507.198842 
L 387.036818 528.700211 
L 391.729091 511.401356 
L 396.421364 502.433877 
L 401.113636 504.58554 
L 405.805909 496.490375 
L 410.498182 477.879244 
L 415.190455 520.120143 
L 419.882727 514.876749 
L 424.575 491.818461 
L 429.267273 519.183022 
L 433.959545 437.897964 
L 438.651818 397.692992 
L 443.344091 504.932451 
L 448.036364 512.029418 
L 452.728636 509.323735 
L 457.420909 533.150819 
L 462.113182 524.281336 
L 466.805455 540.448441 
L 471.497727 548.961275 
L 476.19 506.289275 
L 480.882273 517.93408 
L 485.574545 534.592953 
L 490.266818 500.739097 
L 494.959091 523.772013 
L 499.651364 536.19595 
L 504.343636 539.266779 
L 509.035909 522.28604 
L 513.728182 530.009073 
L 518.420455 551.316839 
L 523.112727 524.093236 
L 527.805 522.794504 
L 532.497273 514.651619 
L 537.189545 541.277586 
L 541.881818 496.336862 
L 546.574091 500.031863 
L 551.266364 542.453138 
L 555.958636 521.958493 
L 560.650909 536.895265 
L 565.343182 517.62642 
L 570.035455 537.255402 
L 574.727727 555.596855 
L 579.42 534.125064 
L 584.112273 535.238812 
L 588.804545 532.447577 
L 593.496818 527.937347 
L 598.189091 518.101808 
L 602.881364 527.743353 
L 607.573636 536.822221 
L 612.265909 538.891475 
L 616.958182 537.316209 
L 621.650455 489.859804 
L 626.342727 449.702383 
L 631.035 534.854871 
L 635.727273 521.928253 
L 640.419545 531.358398 
L 645.111818 556.043178 
L 649.804091 523.789605 
L 654.496364 518.876182 
L 659.188636 507.362411 
L 663.880909 551.373056 
L 668.573182 530.219428 
L 673.265455 523.460641 
L 677.957727 528.168615 
L 682.65 527.723448 
L 687.342273 527.942347 
L 692.034545 540.990959 
L 696.726818 516.281572 
L 701.419091 507.346852 
L 706.111364 528.588485 
L 710.803636 440.511062 
L 715.495909 509.194437 
L 720.188182 533.938737 
L 724.880455 490.346721 
L 729.572727 414.123525 
L 734.265 516.809251 
L 738.957273 511.264838 
L 743.649545 505.073241 
L 748.341818 520.734568 
L 753.034091 473.372801 
L 757.726364 429.791625 
L 762.418636 447.397357 
L 767.110909 425.756448 
L 771.803182 522.983126 
L 776.495455 504.629883 
L 781.187727 462.497053 
L 785.88 515.7993 
L 790.572273 525.580851 
L 795.264545 456.761424 
L 799.956818 523.154081 
L 804.649091 535.475844 
L 809.341364 528.829286 
L 814.033636 543.107886 
L 818.725909 526.6896 
L 823.418182 523.314944 
L 828.110455 494.852231 
L 832.802727 490.544559 
L 837.495 495.738163 
L 842.187273 541.448495 
L 846.879545 529.65498 
L 851.571818 520.800272 
L 856.264091 520.12518 
L 860.956364 524.890257 
L 865.648636 496.410941 
L 870.340909 535.756734 
L 875.033182 512.954674 
L 879.725455 541.265535 
L 884.417727 541.862209 
L 889.11 528.945936 
L 893.802273 518.147551 
L 898.494545 548.654548 
L 903.186818 518.465024 
L 907.879091 511.58675 
L 912.571364 539.94867 
L 917.263636 532.083186 
L 921.955909 515.002092 
L 926.648182 539.919661 
L 931.340455 523.960262 
L 936.032727 485.931987 
L 940.725 529.640131 
L 945.417273 524.694882 
L 950.109545 538.321804 
L 954.801818 526.337783 
L 959.494091 548.968364 
L 964.186364 469.533298 
L 968.878636 518.949758 
L 973.570909 496.969308 
L 978.263182 507.832053 
L 982.955455 562.61672 
L 987.647727 519.634121 
L 992.34 528.52142 
L 997.032273 530.666983 
L 1001.724545 546.46911 
L 1006.416818 502.067024 
L 1011.109091 474.450022 
L 1015.801364 530.276326 
L 1020.493636 397.512951 
L 1025.185909 484.961735 
L 1029.878182 513.701308 
L 1034.570455 525.833311 
L 1039.262727 507.287174 
L 1043.955 532.8731 
L 1048.647273 498.680654 
L 1053.339545 514.884453 
L 1058.031818 519.894901 
L 1062.724091 527.979638 
L 1067.416364 510.326168 
L 1072.108636 542.805832 
L 1076.800909 479.942239 
L 1081.493182 471.392262 
L 1086.185455 493.983574 
L 1090.877727 515.112027 
L 1095.57 526.544929 
L 1100.262273 296.547377 
L 1104.954545 409.483661 
L 1109.646818 517.674737 
L 1114.339091 523.445586 
L 1119.031364 536.420222 
L 1123.723636 534.02455 
L 1128.415909 516.692041 
L 1133.108182 534.367674 
L 1137.800455 527.093464 
L 1142.492727 503.132866 
L 1147.185 547.349128 
L 1147.185 547.349128 
" style="fill:none;stroke:#ff0000;stroke-linecap:square;stroke-width:1.5;"/>
   </g>
   <g id="patch_3">
    <path d="M 166.5 661.5 
L 166.5 90.72 
" style="fill:none;stroke:#000000;stroke-linecap:square;stroke-linejoin:miter;stroke-width:0.8;"/>
   </g>
   <g id="patch_4">
    <path d="M 1198.8 661.5 
L 1198.8 90.72 
" style="fill:none;stroke:#000000;stroke-linecap:square;stroke-linejoin:miter;stroke-width:0.8;"/>
   </g>
   <g id="patch_5">
    <path d="M 166.5 661.5 
L 1198.8 661.5 
" style="fill:none;stroke:#000000;stroke-linecap:square;stroke-linejoin:miter;stroke-width:0.8;"/>
   </g>
   <g id="patch_6">
    <path d="M 166.5 90.72 
L 1198.8 90.72 
" style="fill:none;stroke:#000000;stroke-linecap:square;stroke-linejoin:miter;stroke-width:0.8;"/>
   </g>
  </g>
 </g>
 <defs>
  <clipPath id="p0cd09c060f">
   <rect height="570.78" width="1032.3" x="166.5" y="90.72"/>
  </clipPath>
 </defs>
</svg>
