<?xml version="1.0" encoding="utf-8" standalone="no"?>
<!DOCTYPE svg PUBLIC "-//W3C//DTD SVG 1.1//EN"
  "http://www.w3.org/Graphics/SVG/1.1/DTD/svg11.dtd">
<!-- Created with matplotlib (http://matplotlib.org/) -->
<svg height="756pt" version="1.1" viewBox="0 0 1332 756" width="1332pt" xmlns="http://www.w3.org/2000/svg" xmlns:xlink="http://www.w3.org/1999/xlink">
 <defs>
  <style type="text/css">
*{stroke-linecap:butt;stroke-linejoin:round;}
  </style>
 </defs>
 <g id="figure_1">
  <g id="patch_1">
   <path d="M 0 756 
L 1332 756 
L 1332 0 
L 0 0 
z
" style="fill:#ffffff;"/>
  </g>
  <g id="axes_1">
   <g id="patch_2">
    <path d="M 166.5 661.5 
L 1198.8 661.5 
L 1198.8 90.72 
L 166.5 90.72 
z
" style="fill:#ffffff;"/>
   </g>
   <g id="matplotlib.axis_1">
    <g id="xtick_1">
     <g id="line2d_1">
      <defs>
       <path d="M 0 0 
L 0 3.5 
" id="m11760bf7e6" style="stroke:#000000;stroke-width:0.8;"/>
      </defs>
      <g>
       <use style="stroke:#000000;stroke-width:0.8;" x="213.422727" xlink:href="#m11760bf7e6" y="661.5"/>
      </g>
     </g>
     <g id="text_1">
      <!-- 0 -->
      <defs>
       <path d="M 31.78125 66.40625 
Q 24.171875 66.40625 20.328125 58.90625 
Q 16.5 51.421875 16.5 36.375 
Q 16.5 21.390625 20.328125 13.890625 
Q 24.171875 6.390625 31.78125 6.390625 
Q 39.453125 6.390625 43.28125 13.890625 
Q 47.125 21.390625 47.125 36.375 
Q 47.125 51.421875 43.28125 58.90625 
Q 39.453125 66.40625 31.78125 66.40625 
z
M 31.78125 74.21875 
Q 44.046875 74.21875 50.515625 64.515625 
Q 56.984375 54.828125 56.984375 36.375 
Q 56.984375 17.96875 50.515625 8.265625 
Q 44.046875 -1.421875 31.78125 -1.421875 
Q 19.53125 -1.421875 13.0625 8.265625 
Q 6.59375 17.96875 6.59375 36.375 
Q 6.59375 54.828125 13.0625 64.515625 
Q 19.53125 74.21875 31.78125 74.21875 
z
" id="DejaVuSans-30"/>
      </defs>
      <g transform="translate(210.241477 676.098438)scale(0.1 -0.1)">
       <use xlink:href="#DejaVuSans-30"/>
      </g>
     </g>
    </g>
    <g id="xtick_2">
     <g id="line2d_2">
      <g>
       <use style="stroke:#000000;stroke-width:0.8;" x="330.729545" xlink:href="#m11760bf7e6" y="661.5"/>
      </g>
     </g>
     <g id="text_2">
      <!-- 25 -->
      <defs>
       <path d="M 19.1875 8.296875 
L 53.609375 8.296875 
L 53.609375 0 
L 7.328125 0 
L 7.328125 8.296875 
Q 12.9375 14.109375 22.625 23.890625 
Q 32.328125 33.6875 34.8125 36.53125 
Q 39.546875 41.84375 41.421875 45.53125 
Q 43.3125 49.21875 43.3125 52.78125 
Q 43.3125 58.59375 39.234375 62.25 
Q 35.15625 65.921875 28.609375 65.921875 
Q 23.96875 65.921875 18.8125 64.3125 
Q 13.671875 62.703125 7.8125 59.421875 
L 7.8125 69.390625 
Q 13.765625 71.78125 18.9375 73 
Q 24.125 74.21875 28.421875 74.21875 
Q 39.75 74.21875 46.484375 68.546875 
Q 53.21875 62.890625 53.21875 53.421875 
Q 53.21875 48.921875 51.53125 44.890625 
Q 49.859375 40.875 45.40625 35.40625 
Q 44.1875 33.984375 37.640625 27.21875 
Q 31.109375 20.453125 19.1875 8.296875 
z
" id="DejaVuSans-32"/>
       <path d="M 10.796875 72.90625 
L 49.515625 72.90625 
L 49.515625 64.59375 
L 19.828125 64.59375 
L 19.828125 46.734375 
Q 21.96875 47.46875 24.109375 47.828125 
Q 26.265625 48.1875 28.421875 48.1875 
Q 40.625 48.1875 47.75 41.5 
Q 54.890625 34.8125 54.890625 23.390625 
Q 54.890625 11.625 47.5625 5.09375 
Q 40.234375 -1.421875 26.90625 -1.421875 
Q 22.3125 -1.421875 17.546875 -0.640625 
Q 12.796875 0.140625 7.71875 1.703125 
L 7.71875 11.625 
Q 12.109375 9.234375 16.796875 8.0625 
Q 21.484375 6.890625 26.703125 6.890625 
Q 35.15625 6.890625 40.078125 11.328125 
Q 45.015625 15.765625 45.015625 23.390625 
Q 45.015625 31 40.078125 35.4375 
Q 35.15625 39.890625 26.703125 39.890625 
Q 22.75 39.890625 18.8125 39.015625 
Q 14.890625 38.140625 10.796875 36.28125 
z
" id="DejaVuSans-35"/>
      </defs>
      <g transform="translate(324.367045 676.098438)scale(0.1 -0.1)">
       <use xlink:href="#DejaVuSans-32"/>
       <use x="63.623047" xlink:href="#DejaVuSans-35"/>
      </g>
     </g>
    </g>
    <g id="xtick_3">
     <g id="line2d_3">
      <g>
       <use style="stroke:#000000;stroke-width:0.8;" x="448.036364" xlink:href="#m11760bf7e6" y="661.5"/>
      </g>
     </g>
     <g id="text_3">
      <!-- 50 -->
      <g transform="translate(441.673864 676.098438)scale(0.1 -0.1)">
       <use xlink:href="#DejaVuSans-35"/>
       <use x="63.623047" xlink:href="#DejaVuSans-30"/>
      </g>
     </g>
    </g>
    <g id="xtick_4">
     <g id="line2d_4">
      <g>
       <use style="stroke:#000000;stroke-width:0.8;" x="565.343182" xlink:href="#m11760bf7e6" y="661.5"/>
      </g>
     </g>
     <g id="text_4">
      <!-- 75 -->
      <defs>
       <path d="M 8.203125 72.90625 
L 55.078125 72.90625 
L 55.078125 68.703125 
L 28.609375 0 
L 18.3125 0 
L 43.21875 64.59375 
L 8.203125 64.59375 
z
" id="DejaVuSans-37"/>
      </defs>
      <g transform="translate(558.980682 676.098438)scale(0.1 -0.1)">
       <use xlink:href="#DejaVuSans-37"/>
       <use x="63.623047" xlink:href="#DejaVuSans-35"/>
      </g>
     </g>
    </g>
    <g id="xtick_5">
     <g id="line2d_5">
      <g>
       <use style="stroke:#000000;stroke-width:0.8;" x="682.65" xlink:href="#m11760bf7e6" y="661.5"/>
      </g>
     </g>
     <g id="text_5">
      <!-- 100 -->
      <defs>
       <path d="M 12.40625 8.296875 
L 28.515625 8.296875 
L 28.515625 63.921875 
L 10.984375 60.40625 
L 10.984375 69.390625 
L 28.421875 72.90625 
L 38.28125 72.90625 
L 38.28125 8.296875 
L 54.390625 8.296875 
L 54.390625 0 
L 12.40625 0 
z
" id="DejaVuSans-31"/>
      </defs>
      <g transform="translate(673.10625 676.098438)scale(0.1 -0.1)">
       <use xlink:href="#DejaVuSans-31"/>
       <use x="63.623047" xlink:href="#DejaVuSans-30"/>
       <use x="127.246094" xlink:href="#DejaVuSans-30"/>
      </g>
     </g>
    </g>
    <g id="xtick_6">
     <g id="line2d_6">
      <g>
       <use style="stroke:#000000;stroke-width:0.8;" x="799.956818" xlink:href="#m11760bf7e6" y="661.5"/>
      </g>
     </g>
     <g id="text_6">
      <!-- 125 -->
      <g transform="translate(790.413068 676.098438)scale(0.1 -0.1)">
       <use xlink:href="#DejaVuSans-31"/>
       <use x="63.623047" xlink:href="#DejaVuSans-32"/>
       <use x="127.246094" xlink:href="#DejaVuSans-35"/>
      </g>
     </g>
    </g>
    <g id="xtick_7">
     <g id="line2d_7">
      <g>
       <use style="stroke:#000000;stroke-width:0.8;" x="917.263636" xlink:href="#m11760bf7e6" y="661.5"/>
      </g>
     </g>
     <g id="text_7">
      <!-- 150 -->
      <g transform="translate(907.719886 676.098438)scale(0.1 -0.1)">
       <use xlink:href="#DejaVuSans-31"/>
       <use x="63.623047" xlink:href="#DejaVuSans-35"/>
       <use x="127.246094" xlink:href="#DejaVuSans-30"/>
      </g>
     </g>
    </g>
    <g id="xtick_8">
     <g id="line2d_8">
      <g>
       <use style="stroke:#000000;stroke-width:0.8;" x="1034.570455" xlink:href="#m11760bf7e6" y="661.5"/>
      </g>
     </g>
     <g id="text_8">
      <!-- 175 -->
      <g transform="translate(1025.026705 676.098438)scale(0.1 -0.1)">
       <use xlink:href="#DejaVuSans-31"/>
       <use x="63.623047" xlink:href="#DejaVuSans-37"/>
       <use x="127.246094" xlink:href="#DejaVuSans-35"/>
      </g>
     </g>
    </g>
    <g id="xtick_9">
     <g id="line2d_9">
      <g>
       <use style="stroke:#000000;stroke-width:0.8;" x="1151.877273" xlink:href="#m11760bf7e6" y="661.5"/>
      </g>
     </g>
     <g id="text_9">
      <!-- 200 -->
      <g transform="translate(1142.333523 676.098438)scale(0.1 -0.1)">
       <use xlink:href="#DejaVuSans-32"/>
       <use x="63.623047" xlink:href="#DejaVuSans-30"/>
       <use x="127.246094" xlink:href="#DejaVuSans-30"/>
      </g>
     </g>
    </g>
   </g>
   <g id="matplotlib.axis_2">
    <g id="ytick_1">
     <g id="line2d_10">
      <defs>
       <path d="M 0 0 
L -3.5 0 
" id="me52c780358" style="stroke:#000000;stroke-width:0.8;"/>
      </defs>
      <g>
       <use style="stroke:#000000;stroke-width:0.8;" x="166.5" xlink:href="#me52c780358" y="560.532159"/>
      </g>
     </g>
     <g id="text_10">
      <!-- 500 -->
      <g transform="translate(140.4125 564.331378)scale(0.1 -0.1)">
       <use xlink:href="#DejaVuSans-35"/>
       <use x="63.623047" xlink:href="#DejaVuSans-30"/>
       <use x="127.246094" xlink:href="#DejaVuSans-30"/>
      </g>
     </g>
    </g>
    <g id="ytick_2">
     <g id="line2d_11">
      <g>
       <use style="stroke:#000000;stroke-width:0.8;" x="166.5" xlink:href="#me52c780358" y="434.213302"/>
      </g>
     </g>
     <g id="text_11">
      <!-- 1000 -->
      <g transform="translate(134.05 438.01252)scale(0.1 -0.1)">
       <use xlink:href="#DejaVuSans-31"/>
       <use x="63.623047" xlink:href="#DejaVuSans-30"/>
       <use x="127.246094" xlink:href="#DejaVuSans-30"/>
       <use x="190.869141" xlink:href="#DejaVuSans-30"/>
      </g>
     </g>
    </g>
    <g id="ytick_3">
     <g id="line2d_12">
      <g>
       <use style="stroke:#000000;stroke-width:0.8;" x="166.5" xlink:href="#me52c780358" y="307.894444"/>
      </g>
     </g>
     <g id="text_12">
      <!-- 1500 -->
      <g transform="translate(134.05 311.693663)scale(0.1 -0.1)">
       <use xlink:href="#DejaVuSans-31"/>
       <use x="63.623047" xlink:href="#DejaVuSans-35"/>
       <use x="127.246094" xlink:href="#DejaVuSans-30"/>
       <use x="190.869141" xlink:href="#DejaVuSans-30"/>
      </g>
     </g>
    </g>
    <g id="ytick_4">
     <g id="line2d_13">
      <g>
       <use style="stroke:#000000;stroke-width:0.8;" x="166.5" xlink:href="#me52c780358" y="181.575587"/>
      </g>
     </g>
     <g id="text_13">
      <!-- 2000 -->
      <g transform="translate(134.05 185.374806)scale(0.1 -0.1)">
       <use xlink:href="#DejaVuSans-32"/>
       <use x="63.623047" xlink:href="#DejaVuSans-30"/>
       <use x="127.246094" xlink:href="#DejaVuSans-30"/>
       <use x="190.869141" xlink:href="#DejaVuSans-30"/>
      </g>
     </g>
    </g>
   </g>
   <g id="LineCollection_1">
    <path clip-path="url(#p32b89272e0)" d="M 213.422727 441.21415 
L 1151.877273 441.21415 
" style="fill:none;stroke:#000000;stroke-width:1.5;"/>
   </g>
   <g id="LineCollection_2">
    <path clip-path="url(#p32b89272e0)" d="M 213.422727 424.239817 
L 1151.877273 424.239817 
" style="fill:none;stroke:#008000;stroke-width:1.5;"/>
   </g>
   <g id="line2d_14">
    <path clip-path="url(#p32b89272e0)" d="M 213.422727 512.007755 
L 218.115 509.45667 
L 222.807273 545.991444 
L 227.499545 580.446756 
L 232.191818 517.841994 
L 236.884091 374.485249 
L 241.576364 393.012032 
L 250.960909 418.603651 
L 255.653182 405.601247 
L 260.345455 384.161829 
L 265.037727 286.686342 
L 269.73 371.278443 
L 274.422273 432.367354 
L 279.114545 395.922418 
L 283.806818 399.12023 
L 288.499091 354.128258 
L 293.191364 396.050404 
L 297.883636 240.129152 
L 302.575909 454.687062 
L 307.268182 429.627649 
L 311.960455 457.049503 
L 316.652727 497.541164 
L 321.345 462.762475 
L 326.037273 486.786654 
L 330.729545 369.832218 
L 335.421818 393.793516 
L 340.114091 292.929298 
L 344.806364 285.271571 
L 349.498636 416.923888 
L 354.190909 394.339213 
L 358.883182 396.142491 
L 363.575455 460.409028 
L 368.267727 297.200568 
L 372.96 198.896429 
L 377.652273 331.018096 
L 382.344545 324.492186 
L 387.036818 446.618369 
L 391.729091 375.156709 
L 396.421364 406.113242 
L 401.113636 480.990589 
L 405.805909 444.300848 
L 410.498182 368.590377 
L 415.190455 362.363136 
L 419.882727 274.636104 
L 429.267273 294.13299 
L 433.959545 340.474604 
L 438.651818 406.4995 
L 443.344091 424.765763 
L 448.036364 397.912066 
L 452.728636 442.59188 
L 457.420909 417.844626 
L 462.113182 304.216039 
L 466.805455 501.365518 
L 471.497727 543.96587 
L 476.19 551.008273 
L 480.882273 534.248843 
L 485.574545 590.736412 
L 490.266818 539.898959 
L 494.959091 548.569485 
L 499.651364 300.564591 
L 504.343636 567.902435 
L 509.035909 573.905107 
L 513.728182 570.689307 
L 518.420455 524.534089 
L 523.112727 541.068949 
L 527.805 586.934493 
L 532.497273 550.401942 
L 537.189545 575.968879 
L 541.881818 566.750407 
L 546.574091 610.792462 
L 551.266364 586.440434 
L 555.958636 590.269311 
L 560.650909 608.616417 
L 565.343182 592.997798 
L 570.035455 605.701534 
L 574.727727 621.600859 
L 579.42 592.101768 
L 584.112273 600.444421 
L 588.804545 529.12199 
L 593.496818 510.633406 
L 598.189091 578.470548 
L 602.881364 614.807734 
L 607.573636 572.757576 
L 612.265909 574.634952 
L 616.958182 613.220032 
L 621.650455 625.993395 
L 626.342727 560.763474 
L 631.035 593.249299 
L 635.727273 631.679436 
L 640.419545 605.881184 
L 645.111818 632.276773 
L 649.804091 635.555455 
L 654.496364 587.201708 
L 659.188636 590.237857 
L 663.880909 589.50354 
L 668.573182 617.518233 
L 673.265455 542.393883 
L 677.957727 620.309602 
L 682.65 495.964704 
L 687.342273 561.571915 
L 692.034545 554.284706 
L 696.726818 543.280944 
L 701.419091 589.88755 
L 706.111364 560.538904 
L 710.803636 391.269387 
L 715.495909 426.746442 
L 720.188182 408.435261 
L 724.880455 471.289301 
L 729.572727 420.359761 
L 734.265 463.611338 
L 738.957273 481.765328 
L 743.649545 448.807904 
L 748.341818 390.871887 
L 753.034091 201.99546 
L 757.726364 374.033886 
L 762.418636 319.650511 
L 767.110909 349.300073 
L 771.803182 272.408395 
L 776.495455 286.030621 
L 781.187727 294.094817 
L 785.88 298.824195 
L 790.572273 344.240599 
L 795.264545 409.510942 
L 799.956818 264.795562 
L 804.649091 299.147571 
L 809.341364 116.664545 
L 814.033636 256.866123 
L 818.725909 248.364005 
L 823.418182 291.797481 
L 828.110455 231.04094 
L 832.802727 341.074189 
L 837.495 273.987103 
L 842.187273 227.113257 
L 846.879545 357.67418 
L 851.571818 374.70085 
L 856.264091 352.798828 
L 860.956364 381.318821 
L 865.648636 389.237043 
L 870.340909 286.84803 
L 875.033182 413.44537 
L 879.725455 419.618699 
L 884.417727 476.402688 
L 889.11 398.659874 
L 893.802273 379.944472 
L 898.494545 412.095703 
L 903.186818 434.678155 
L 907.879091 366.3537 
L 912.571364 485.102394 
L 917.263636 493.741493 
L 921.955909 466.804678 
L 926.648182 492.203207 
L 931.340455 478.72021 
L 936.032727 502.688228 
L 940.725 447.835527 
L 945.417273 471.037775 
L 950.109545 434.125712 
L 954.801818 282.287086 
L 959.494091 418.965201 
L 964.186364 483.642704 
L 968.878636 475.74919 
L 973.570909 484.242315 
L 978.263182 490.114727 
L 982.955455 430.856024 
L 987.647727 475.859214 
L 992.34 445.473087 
L 997.032273 519.290467 
L 1001.724545 390.820248 
L 1006.416818 351.462652 
L 1011.109091 319.699927 
L 1015.801364 292.206198 
L 1020.493636 344.227108 
L 1025.185909 266.542703 
L 1029.878182 447.139359 
L 1034.570455 361.45364 
L 1039.262727 327.386859 
L 1043.955 301.229306 
L 1048.647273 374.413399 
L 1053.339545 297.663173 
L 1058.031818 377.263152 
L 1062.724091 413.910223 
L 1067.416364 428.684477 
L 1072.108636 589.166673 
L 1076.800909 531.468716 
L 1081.493182 484.983377 
L 1086.185455 482.856723 
L 1090.877727 522.843109 
L 1095.57 511.522691 
L 1100.262273 574.841559 
L 1104.954545 590.756623 
L 1109.646818 541.549517 
L 1114.339091 479.674625 
L 1119.031364 514.751957 
L 1123.723636 436.903615 
L 1128.415909 341.637849 
L 1133.108182 398.100711 
L 1137.800455 341.011308 
L 1142.492727 338.336733 
L 1147.185 387.952532 
L 1147.185 387.952532 
" style="fill:none;stroke:#1f77b4;stroke-linecap:square;stroke-width:1.5;"/>
   </g>
   <g id="line2d_15">
    <path clip-path="url(#p32b89272e0)" d="M 213.422727 471.024516 
L 218.115 468.762758 
L 227.499545 536.332337 
L 232.191818 476.243928 
L 236.884091 366.67191 
L 241.576364 378.667791 
L 246.268636 387.350023 
L 250.960909 396.280606 
L 255.653182 387.180036 
L 260.345455 372.85882 
L 265.037727 318.202446 
L 269.73 364.659289 
L 274.422273 406.258316 
L 279.114545 380.609635 
L 283.806818 382.761219 
L 288.499091 354.21288 
L 293.191364 380.695339 
L 297.883636 297.887252 
L 302.575909 423.195651 
L 307.268182 404.243875 
L 311.960455 425.043465 
L 316.652727 458.362932 
L 321.345 429.555648 
L 326.037273 449.208932 
L 330.729545 363.757818 
L 335.421818 379.187747 
L 340.114091 321.20332 
L 344.806364 317.531562 
L 349.498636 395.087238 
L 354.190909 379.551345 
L 358.883182 380.757049 
L 363.575455 427.689438 
L 368.267727 323.294921 
L 372.96 282.837699 
L 377.652273 340.972252 
L 382.344545 337.405132 
L 387.036818 416.96424 
L 391.729091 367.095646 
L 396.421364 387.532408 
L 401.113636 444.366858 
L 405.805909 415.197102 
L 410.498182 362.986675 
L 415.190455 359.162353 
L 419.882727 312.597108 
L 429.267273 321.789642 
L 433.959545 346.274961 
L 438.651818 387.798677 
L 443.344091 400.703863 
L 448.036364 381.946161 
L 452.728636 413.900576 
L 457.420909 395.74076 
L 462.113182 326.798542 
L 466.805455 461.671277 
L 471.497727 500.411152 
L 476.19 507.148656 
L 480.882273 491.269858 
L 485.574545 546.919344 
L 490.266818 496.563315 
L 494.959091 504.804788 
L 499.651364 324.964359 
L 504.343636 523.69581 
L 509.035909 529.705531 
L 513.728182 526.477462 
L 518.420455 482.310748 
L 523.112727 497.667048 
L 527.805 542.984339 
L 532.497273 506.564925 
L 537.189545 531.787418 
L 541.881818 522.550228 
L 546.574091 568.12597 
L 551.266364 542.474977 
L 555.958636 546.434469 
L 560.650909 565.788709 
L 565.343182 549.272788 
L 570.035455 562.671769 
L 574.727727 579.865343 
L 579.42 548.339136 
L 584.112273 557.09034 
L 588.804545 486.519347 
L 593.496818 469.804472 
L 598.189091 534.321875 
L 602.881364 572.461751 
L 607.573636 528.551345 
L 612.265909 530.440885 
L 616.958182 570.743717 
L 621.650455 584.698026 
L 626.342727 516.637389 
L 631.035 549.535171 
L 635.727273 591.00673 
L 640.419545 562.863422 
L 645.111818 591.672934 
L 649.804091 595.341254 
L 654.496364 543.260044 
L 659.188636 546.401825 
L 663.880909 545.640365 
L 668.573182 575.405572 
L 673.265455 498.920105 
L 677.957727 578.451457 
L 682.65 457.00724 
L 687.342273 517.431878 
L 692.034545 510.315463 
L 696.726818 499.760946 
L 701.419091 546.038458 
L 706.111364 516.416902 
L 710.803636 377.512572 
L 715.495909 402.140679 
L 720.188182 389.136806 
L 724.880455 436.405517 
L 729.572727 397.533988 
L 734.265 430.231374 
L 738.957273 445.010387 
L 743.649545 418.643053 
L 748.341818 377.24985 
L 753.034091 283.875851 
L 757.726364 366.387508 
L 762.418636 334.807053 
L 767.110909 351.367591 
L 771.803182 311.587698 
L 776.495455 317.891028 
L 781.187727 321.771015 
L 785.88 324.09823 
L 790.572273 348.431109 
L 795.264545 389.883432 
L 799.956818 308.201051 
L 804.649091 324.258812 
L 809.341364 260.538997 
L 814.033636 304.776225 
L 818.725909 301.219406 
L 823.418182 320.654345 
L 828.110455 294.337588 
L 832.802727 346.61654 
L 837.495 312.302158 
L 842.187273 292.844675 
L 846.879545 356.329122 
L 851.571818 366.807913 
L 856.264091 353.425207 
L 860.956364 371.02328 
L 865.648636 376.172408 
L 870.340909 318.279267 
L 875.033182 392.632594 
L 879.725455 397.00438 
L 884.417727 440.579513 
L 889.11 382.450295 
L 893.802273 370.14133 
L 898.494545 391.686282 
L 903.186818 407.968277 
L 907.879091 361.605 
L 912.571364 447.795293 
L 917.263636 455.103514 
L 921.955909 432.785692 
L 926.648182 453.791738 
L 931.340455 442.48768 
L 936.032727 462.822009 
L 940.725 417.896365 
L 945.417273 436.201498 
L 950.109545 407.558542 
L 954.801818 316.127436 
L 959.494091 396.538209 
L 964.186364 446.574555 
L 968.878636 440.043244 
L 973.570909 447.075513 
L 978.263182 452.018108 
L 982.955455 405.145346 
L 987.647727 440.133573 
L 992.34 416.08963 
L 997.032273 477.549767 
L 1001.724545 377.215711 
L 1006.416818 352.636855 
L 1011.109091 334.833452 
L 1015.801364 320.852366 
L 1020.493636 348.423338 
L 1025.185909 308.969666 
L 1029.878182 417.362903 
L 1034.570455 358.609708 
L 1039.262727 338.978135 
L 1043.955 325.296563 
L 1048.647273 366.626638 
L 1053.339545 323.523381 
L 1058.031818 368.430505 
L 1062.724091 392.959339 
L 1067.416364 403.553655 
L 1072.108636 545.291369 
L 1076.800909 488.68763 
L 1081.493182 447.695619 
L 1086.185455 445.91889 
L 1090.877727 480.769634 
L 1095.57 470.593533 
L 1100.262273 530.649207 
L 1104.954545 546.940299 
L 1109.646818 498.121176 
L 1114.339091 443.276495 
L 1119.031364 473.471435 
L 1128.415909 346.938197 
L 1133.108182 382.073189 
L 1137.800455 346.580612 
L 1142.492727 345.062288 
L 1147.185 375.329224 
L 1147.185 375.329224 
" style="fill:none;stroke:#ff0000;stroke-linecap:square;stroke-width:1.5;"/>
   </g>
   <g id="patch_3">
    <path d="M 166.5 661.5 
L 166.5 90.72 
" style="fill:none;stroke:#000000;stroke-linecap:square;stroke-linejoin:miter;stroke-width:0.8;"/>
   </g>
   <g id="patch_4">
    <path d="M 1198.8 661.5 
L 1198.8 90.72 
" style="fill:none;stroke:#000000;stroke-linecap:square;stroke-linejoin:miter;stroke-width:0.8;"/>
   </g>
   <g id="patch_5">
    <path d="M 166.5 661.5 
L 1198.8 661.5 
" style="fill:none;stroke:#000000;stroke-linecap:square;stroke-linejoin:miter;stroke-width:0.8;"/>
   </g>
   <g id="patch_6">
    <path d="M 166.5 90.72 
L 1198.8 90.72 
" style="fill:none;stroke:#000000;stroke-linecap:square;stroke-linejoin:miter;stroke-width:0.8;"/>
   </g>
  </g>
 </g>
 <defs>
  <clipPath id="p32b89272e0">
   <rect height="570.78" width="1032.3" x="166.5" y="90.72"/>
  </clipPath>
 </defs>
</svg>
