<?xml version="1.0" encoding="utf-8" standalone="no"?>
<!DOCTYPE svg PUBLIC "-//W3C//DTD SVG 1.1//EN"
  "http://www.w3.org/Graphics/SVG/1.1/DTD/svg11.dtd">
<!-- Created with matplotlib (http://matplotlib.org/) -->
<svg height="756pt" version="1.1" viewBox="0 0 1332 756" width="1332pt" xmlns="http://www.w3.org/2000/svg" xmlns:xlink="http://www.w3.org/1999/xlink">
 <defs>
  <style type="text/css">
*{stroke-linecap:butt;stroke-linejoin:round;}
  </style>
 </defs>
 <g id="figure_1">
  <g id="patch_1">
   <path d="M 0 756 
L 1332 756 
L 1332 0 
L 0 0 
z
" style="fill:#ffffff;"/>
  </g>
  <g id="axes_1">
   <g id="patch_2">
    <path d="M 166.5 661.5 
L 1198.8 661.5 
L 1198.8 90.72 
L 166.5 90.72 
z
" style="fill:#ffffff;"/>
   </g>
   <g id="matplotlib.axis_1">
    <g id="xtick_1">
     <g id="line2d_1">
      <defs>
       <path d="M 0 0 
L 0 3.5 
" id="me772dc91ac" style="stroke:#000000;stroke-width:0.8;"/>
      </defs>
      <g>
       <use style="stroke:#000000;stroke-width:0.8;" x="213.422727" xlink:href="#me772dc91ac" y="661.5"/>
      </g>
     </g>
     <g id="text_1">
      <!-- 0 -->
      <defs>
       <path d="M 31.78125 66.40625 
Q 24.171875 66.40625 20.328125 58.90625 
Q 16.5 51.421875 16.5 36.375 
Q 16.5 21.390625 20.328125 13.890625 
Q 24.171875 6.390625 31.78125 6.390625 
Q 39.453125 6.390625 43.28125 13.890625 
Q 47.125 21.390625 47.125 36.375 
Q 47.125 51.421875 43.28125 58.90625 
Q 39.453125 66.40625 31.78125 66.40625 
z
M 31.78125 74.21875 
Q 44.046875 74.21875 50.515625 64.515625 
Q 56.984375 54.828125 56.984375 36.375 
Q 56.984375 17.96875 50.515625 8.265625 
Q 44.046875 -1.421875 31.78125 -1.421875 
Q 19.53125 -1.421875 13.0625 8.265625 
Q 6.59375 17.96875 6.59375 36.375 
Q 6.59375 54.828125 13.0625 64.515625 
Q 19.53125 74.21875 31.78125 74.21875 
z
" id="DejaVuSans-30"/>
      </defs>
      <g transform="translate(210.241477 676.098438)scale(0.1 -0.1)">
       <use xlink:href="#DejaVuSans-30"/>
      </g>
     </g>
    </g>
    <g id="xtick_2">
     <g id="line2d_2">
      <g>
       <use style="stroke:#000000;stroke-width:0.8;" x="330.729545" xlink:href="#me772dc91ac" y="661.5"/>
      </g>
     </g>
     <g id="text_2">
      <!-- 25 -->
      <defs>
       <path d="M 19.1875 8.296875 
L 53.609375 8.296875 
L 53.609375 0 
L 7.328125 0 
L 7.328125 8.296875 
Q 12.9375 14.109375 22.625 23.890625 
Q 32.328125 33.6875 34.8125 36.53125 
Q 39.546875 41.84375 41.421875 45.53125 
Q 43.3125 49.21875 43.3125 52.78125 
Q 43.3125 58.59375 39.234375 62.25 
Q 35.15625 65.921875 28.609375 65.921875 
Q 23.96875 65.921875 18.8125 64.3125 
Q 13.671875 62.703125 7.8125 59.421875 
L 7.8125 69.390625 
Q 13.765625 71.78125 18.9375 73 
Q 24.125 74.21875 28.421875 74.21875 
Q 39.75 74.21875 46.484375 68.546875 
Q 53.21875 62.890625 53.21875 53.421875 
Q 53.21875 48.921875 51.53125 44.890625 
Q 49.859375 40.875 45.40625 35.40625 
Q 44.1875 33.984375 37.640625 27.21875 
Q 31.109375 20.453125 19.1875 8.296875 
z
" id="DejaVuSans-32"/>
       <path d="M 10.796875 72.90625 
L 49.515625 72.90625 
L 49.515625 64.59375 
L 19.828125 64.59375 
L 19.828125 46.734375 
Q 21.96875 47.46875 24.109375 47.828125 
Q 26.265625 48.1875 28.421875 48.1875 
Q 40.625 48.1875 47.75 41.5 
Q 54.890625 34.8125 54.890625 23.390625 
Q 54.890625 11.625 47.5625 5.09375 
Q 40.234375 -1.421875 26.90625 -1.421875 
Q 22.3125 -1.421875 17.546875 -0.640625 
Q 12.796875 0.140625 7.71875 1.703125 
L 7.71875 11.625 
Q 12.109375 9.234375 16.796875 8.0625 
Q 21.484375 6.890625 26.703125 6.890625 
Q 35.15625 6.890625 40.078125 11.328125 
Q 45.015625 15.765625 45.015625 23.390625 
Q 45.015625 31 40.078125 35.4375 
Q 35.15625 39.890625 26.703125 39.890625 
Q 22.75 39.890625 18.8125 39.015625 
Q 14.890625 38.140625 10.796875 36.28125 
z
" id="DejaVuSans-35"/>
      </defs>
      <g transform="translate(324.367045 676.098438)scale(0.1 -0.1)">
       <use xlink:href="#DejaVuSans-32"/>
       <use x="63.623047" xlink:href="#DejaVuSans-35"/>
      </g>
     </g>
    </g>
    <g id="xtick_3">
     <g id="line2d_3">
      <g>
       <use style="stroke:#000000;stroke-width:0.8;" x="448.036364" xlink:href="#me772dc91ac" y="661.5"/>
      </g>
     </g>
     <g id="text_3">
      <!-- 50 -->
      <g transform="translate(441.673864 676.098438)scale(0.1 -0.1)">
       <use xlink:href="#DejaVuSans-35"/>
       <use x="63.623047" xlink:href="#DejaVuSans-30"/>
      </g>
     </g>
    </g>
    <g id="xtick_4">
     <g id="line2d_4">
      <g>
       <use style="stroke:#000000;stroke-width:0.8;" x="565.343182" xlink:href="#me772dc91ac" y="661.5"/>
      </g>
     </g>
     <g id="text_4">
      <!-- 75 -->
      <defs>
       <path d="M 8.203125 72.90625 
L 55.078125 72.90625 
L 55.078125 68.703125 
L 28.609375 0 
L 18.3125 0 
L 43.21875 64.59375 
L 8.203125 64.59375 
z
" id="DejaVuSans-37"/>
      </defs>
      <g transform="translate(558.980682 676.098438)scale(0.1 -0.1)">
       <use xlink:href="#DejaVuSans-37"/>
       <use x="63.623047" xlink:href="#DejaVuSans-35"/>
      </g>
     </g>
    </g>
    <g id="xtick_5">
     <g id="line2d_5">
      <g>
       <use style="stroke:#000000;stroke-width:0.8;" x="682.65" xlink:href="#me772dc91ac" y="661.5"/>
      </g>
     </g>
     <g id="text_5">
      <!-- 100 -->
      <defs>
       <path d="M 12.40625 8.296875 
L 28.515625 8.296875 
L 28.515625 63.921875 
L 10.984375 60.40625 
L 10.984375 69.390625 
L 28.421875 72.90625 
L 38.28125 72.90625 
L 38.28125 8.296875 
L 54.390625 8.296875 
L 54.390625 0 
L 12.40625 0 
z
" id="DejaVuSans-31"/>
      </defs>
      <g transform="translate(673.10625 676.098438)scale(0.1 -0.1)">
       <use xlink:href="#DejaVuSans-31"/>
       <use x="63.623047" xlink:href="#DejaVuSans-30"/>
       <use x="127.246094" xlink:href="#DejaVuSans-30"/>
      </g>
     </g>
    </g>
    <g id="xtick_6">
     <g id="line2d_6">
      <g>
       <use style="stroke:#000000;stroke-width:0.8;" x="799.956818" xlink:href="#me772dc91ac" y="661.5"/>
      </g>
     </g>
     <g id="text_6">
      <!-- 125 -->
      <g transform="translate(790.413068 676.098438)scale(0.1 -0.1)">
       <use xlink:href="#DejaVuSans-31"/>
       <use x="63.623047" xlink:href="#DejaVuSans-32"/>
       <use x="127.246094" xlink:href="#DejaVuSans-35"/>
      </g>
     </g>
    </g>
    <g id="xtick_7">
     <g id="line2d_7">
      <g>
       <use style="stroke:#000000;stroke-width:0.8;" x="917.263636" xlink:href="#me772dc91ac" y="661.5"/>
      </g>
     </g>
     <g id="text_7">
      <!-- 150 -->
      <g transform="translate(907.719886 676.098438)scale(0.1 -0.1)">
       <use xlink:href="#DejaVuSans-31"/>
       <use x="63.623047" xlink:href="#DejaVuSans-35"/>
       <use x="127.246094" xlink:href="#DejaVuSans-30"/>
      </g>
     </g>
    </g>
    <g id="xtick_8">
     <g id="line2d_8">
      <g>
       <use style="stroke:#000000;stroke-width:0.8;" x="1034.570455" xlink:href="#me772dc91ac" y="661.5"/>
      </g>
     </g>
     <g id="text_8">
      <!-- 175 -->
      <g transform="translate(1025.026705 676.098438)scale(0.1 -0.1)">
       <use xlink:href="#DejaVuSans-31"/>
       <use x="63.623047" xlink:href="#DejaVuSans-37"/>
       <use x="127.246094" xlink:href="#DejaVuSans-35"/>
      </g>
     </g>
    </g>
    <g id="xtick_9">
     <g id="line2d_9">
      <g>
       <use style="stroke:#000000;stroke-width:0.8;" x="1151.877273" xlink:href="#me772dc91ac" y="661.5"/>
      </g>
     </g>
     <g id="text_9">
      <!-- 200 -->
      <g transform="translate(1142.333523 676.098438)scale(0.1 -0.1)">
       <use xlink:href="#DejaVuSans-32"/>
       <use x="63.623047" xlink:href="#DejaVuSans-30"/>
       <use x="127.246094" xlink:href="#DejaVuSans-30"/>
      </g>
     </g>
    </g>
   </g>
   <g id="matplotlib.axis_2">
    <g id="ytick_1">
     <g id="line2d_10">
      <defs>
       <path d="M 0 0 
L -3.5 0 
" id="m400e6e42f7" style="stroke:#000000;stroke-width:0.8;"/>
      </defs>
      <g>
       <use style="stroke:#000000;stroke-width:0.8;" x="166.5" xlink:href="#m400e6e42f7" y="560.532159"/>
      </g>
     </g>
     <g id="text_10">
      <!-- 500 -->
      <g transform="translate(140.4125 564.331378)scale(0.1 -0.1)">
       <use xlink:href="#DejaVuSans-35"/>
       <use x="63.623047" xlink:href="#DejaVuSans-30"/>
       <use x="127.246094" xlink:href="#DejaVuSans-30"/>
      </g>
     </g>
    </g>
    <g id="ytick_2">
     <g id="line2d_11">
      <g>
       <use style="stroke:#000000;stroke-width:0.8;" x="166.5" xlink:href="#m400e6e42f7" y="434.213302"/>
      </g>
     </g>
     <g id="text_11">
      <!-- 1000 -->
      <g transform="translate(134.05 438.01252)scale(0.1 -0.1)">
       <use xlink:href="#DejaVuSans-31"/>
       <use x="63.623047" xlink:href="#DejaVuSans-30"/>
       <use x="127.246094" xlink:href="#DejaVuSans-30"/>
       <use x="190.869141" xlink:href="#DejaVuSans-30"/>
      </g>
     </g>
    </g>
    <g id="ytick_3">
     <g id="line2d_12">
      <g>
       <use style="stroke:#000000;stroke-width:0.8;" x="166.5" xlink:href="#m400e6e42f7" y="307.894444"/>
      </g>
     </g>
     <g id="text_12">
      <!-- 1500 -->
      <g transform="translate(134.05 311.693663)scale(0.1 -0.1)">
       <use xlink:href="#DejaVuSans-31"/>
       <use x="63.623047" xlink:href="#DejaVuSans-35"/>
       <use x="127.246094" xlink:href="#DejaVuSans-30"/>
       <use x="190.869141" xlink:href="#DejaVuSans-30"/>
      </g>
     </g>
    </g>
    <g id="ytick_4">
     <g id="line2d_13">
      <g>
       <use style="stroke:#000000;stroke-width:0.8;" x="166.5" xlink:href="#m400e6e42f7" y="181.575587"/>
      </g>
     </g>
     <g id="text_13">
      <!-- 2000 -->
      <g transform="translate(134.05 185.374806)scale(0.1 -0.1)">
       <use xlink:href="#DejaVuSans-32"/>
       <use x="63.623047" xlink:href="#DejaVuSans-30"/>
       <use x="127.246094" xlink:href="#DejaVuSans-30"/>
       <use x="190.869141" xlink:href="#DejaVuSans-30"/>
      </g>
     </g>
    </g>
   </g>
   <g id="LineCollection_1">
    <path clip-path="url(#p69712fceb6)" d="M 213.422727 441.21415 
L 1151.877273 441.21415 
" style="fill:none;stroke:#000000;stroke-width:1.5;"/>
   </g>
   <g id="LineCollection_2">
    <path clip-path="url(#p69712fceb6)" d="M 213.422727 450.029928 
L 1151.877273 450.029928 
" style="fill:none;stroke:#008000;stroke-width:1.5;"/>
   </g>
   <g id="line2d_14">
    <path clip-path="url(#p69712fceb6)" d="M 213.422727 512.007755 
L 218.115 509.45667 
L 222.807273 545.991444 
L 227.499545 580.446756 
L 232.191818 517.841994 
L 236.884091 374.485249 
L 241.576364 393.012032 
L 250.960909 418.603651 
L 255.653182 405.601247 
L 260.345455 384.161829 
L 265.037727 286.686342 
L 269.73 371.278443 
L 274.422273 432.367354 
L 279.114545 395.922418 
L 283.806818 399.12023 
L 288.499091 354.128258 
L 293.191364 396.050404 
L 297.883636 240.129152 
L 302.575909 454.687062 
L 307.268182 429.627649 
L 311.960455 457.049503 
L 316.652727 497.541164 
L 321.345 462.762475 
L 326.037273 486.786654 
L 330.729545 369.832218 
L 335.421818 393.793516 
L 340.114091 292.929298 
L 344.806364 285.271571 
L 349.498636 416.923888 
L 354.190909 394.339213 
L 358.883182 396.142491 
L 363.575455 460.409028 
L 368.267727 297.200568 
L 372.96 198.896429 
L 377.652273 331.018096 
L 382.344545 324.492186 
L 387.036818 446.618369 
L 391.729091 375.156709 
L 396.421364 406.113242 
L 401.113636 480.990589 
L 405.805909 444.300848 
L 410.498182 368.590377 
L 415.190455 362.363136 
L 419.882727 274.636104 
L 429.267273 294.13299 
L 433.959545 340.474604 
L 438.651818 406.4995 
L 443.344091 424.765763 
L 448.036364 397.912066 
L 452.728636 442.59188 
L 457.420909 417.844626 
L 462.113182 304.216039 
L 466.805455 501.365518 
L 471.497727 543.96587 
L 476.19 551.008273 
L 480.882273 534.248843 
L 485.574545 590.736412 
L 490.266818 539.898959 
L 494.959091 548.569485 
L 499.651364 300.564591 
L 504.343636 567.902435 
L 509.035909 573.905107 
L 513.728182 570.689307 
L 518.420455 524.534089 
L 523.112727 541.068949 
L 527.805 586.934493 
L 532.497273 550.401942 
L 537.189545 575.968879 
L 541.881818 566.750407 
L 546.574091 610.792462 
L 551.266364 586.440434 
L 555.958636 590.269311 
L 560.650909 608.616417 
L 565.343182 592.997798 
L 570.035455 605.701534 
L 574.727727 621.600859 
L 579.42 592.101768 
L 584.112273 600.444421 
L 588.804545 529.12199 
L 593.496818 510.633406 
L 598.189091 578.470548 
L 602.881364 614.807734 
L 607.573636 572.757576 
L 612.265909 574.634952 
L 616.958182 613.220032 
L 621.650455 625.993395 
L 626.342727 560.763474 
L 631.035 593.249299 
L 635.727273 631.679436 
L 640.419545 605.881184 
L 645.111818 632.276773 
L 649.804091 635.555455 
L 654.496364 587.201708 
L 659.188636 590.237857 
L 663.880909 589.50354 
L 668.573182 617.518233 
L 673.265455 542.393883 
L 677.957727 620.309602 
L 682.65 495.964704 
L 687.342273 561.571915 
L 692.034545 554.284706 
L 696.726818 543.280944 
L 701.419091 589.88755 
L 706.111364 560.538904 
L 710.803636 391.269387 
L 715.495909 426.746442 
L 720.188182 408.435261 
L 724.880455 471.289301 
L 729.572727 420.359761 
L 734.265 463.611338 
L 738.957273 481.765328 
L 743.649545 448.807904 
L 748.341818 390.871887 
L 753.034091 201.99546 
L 757.726364 374.033886 
L 762.418636 319.650511 
L 767.110909 349.300073 
L 771.803182 272.408395 
L 776.495455 286.030621 
L 781.187727 294.094817 
L 785.88 298.824195 
L 790.572273 344.240599 
L 795.264545 409.510942 
L 799.956818 264.795562 
L 804.649091 299.147571 
L 809.341364 116.664545 
L 814.033636 256.866123 
L 818.725909 248.364005 
L 823.418182 291.797481 
L 828.110455 231.04094 
L 832.802727 341.074189 
L 837.495 273.987103 
L 842.187273 227.113257 
L 846.879545 357.67418 
L 851.571818 374.70085 
L 856.264091 352.798828 
L 860.956364 381.318821 
L 865.648636 389.237043 
L 870.340909 286.84803 
L 875.033182 413.44537 
L 879.725455 419.618699 
L 884.417727 476.402688 
L 889.11 398.659874 
L 893.802273 379.944472 
L 898.494545 412.095703 
L 903.186818 434.678155 
L 907.879091 366.3537 
L 912.571364 485.102394 
L 917.263636 493.741493 
L 921.955909 466.804678 
L 926.648182 492.203207 
L 931.340455 478.72021 
L 936.032727 502.688228 
L 940.725 447.835527 
L 945.417273 471.037775 
L 950.109545 434.125712 
L 954.801818 282.287086 
L 959.494091 418.965201 
L 964.186364 483.642704 
L 968.878636 475.74919 
L 973.570909 484.242315 
L 978.263182 490.114727 
L 982.955455 430.856024 
L 987.647727 475.859214 
L 992.34 445.473087 
L 997.032273 519.290467 
L 1001.724545 390.820248 
L 1006.416818 351.462652 
L 1011.109091 319.699927 
L 1015.801364 292.206198 
L 1020.493636 344.227108 
L 1025.185909 266.542703 
L 1029.878182 447.139359 
L 1034.570455 361.45364 
L 1039.262727 327.386859 
L 1043.955 301.229306 
L 1048.647273 374.413399 
L 1053.339545 297.663173 
L 1058.031818 377.263152 
L 1062.724091 413.910223 
L 1067.416364 428.684477 
L 1072.108636 589.166673 
L 1076.800909 531.468716 
L 1081.493182 484.983377 
L 1086.185455 482.856723 
L 1090.877727 522.843109 
L 1095.57 511.522691 
L 1100.262273 574.841559 
L 1104.954545 590.756623 
L 1109.646818 541.549517 
L 1114.339091 479.674625 
L 1119.031364 514.751957 
L 1123.723636 436.903615 
L 1128.415909 341.637849 
L 1133.108182 398.100711 
L 1137.800455 341.011308 
L 1142.492727 338.336733 
L 1147.185 387.952532 
L 1147.185 387.952532 
" style="fill:none;stroke:#1f77b4;stroke-linecap:square;stroke-width:1.5;"/>
   </g>
   <g id="line2d_15">
    <path clip-path="url(#p69712fceb6)" d="M 213.422727 501.508501 
L 218.115 499.653917 
L 222.807273 526.197885 
L 227.499545 551.188989 
L 232.191818 505.749342 
L 236.884091 401.47257 
L 241.576364 414.941503 
L 250.960909 433.556573 
L 255.653182 424.097708 
L 260.345455 408.506551 
L 265.037727 337.78964 
L 269.73 399.141901 
L 274.422273 443.571059 
L 279.114545 417.058023 
L 283.806818 419.383789 
L 288.499091 386.682439 
L 293.191364 417.151127 
L 297.883636 304.168963 
L 302.575909 459.812715 
L 307.268182 441.577651 
L 311.960455 461.531759 
L 316.652727 490.989711 
L 321.345 465.688794 
L 326.037273 483.167518 
L 330.729545 398.091012 
L 335.421818 415.509907 
L 340.114091 342.307081 
L 344.806364 336.766229 
L 349.498636 432.33454 
L 354.190909 415.906751 
L 358.883182 417.218142 
L 363.575455 463.976473 
L 368.267727 345.398994 
L 372.96 274.510122 
L 377.652273 369.907906 
L 382.344545 365.174557 
L 387.036818 453.941279 
L 391.729091 401.960545 
L 396.421364 424.470096 
L 401.113636 478.951179 
L 405.805909 452.254848 
L 410.498182 397.188585 
L 415.190455 392.66402 
L 419.882727 329.075643 
L 429.267273 343.17833 
L 433.959545 376.76974 
L 438.651818 424.751045 
L 443.344091 438.04006 
L 448.036364 418.505046 
L 452.728636 451.011181 
L 457.420909 433.004468 
L 462.113182 350.479227 
L 466.805455 493.770808 
L 471.497727 524.727239 
L 476.19 529.839591 
L 480.882273 517.670653 
L 485.574545 558.642172 
L 490.266818 521.774227 
L 494.959091 528.069415 
L 499.651364 347.834765 
L 504.343636 542.096082 
L 509.035909 546.448115 
L 513.728182 544.116891 
L 518.420455 510.612772 
L 523.112727 522.623827 
L 527.805 555.889031 
L 532.497273 529.399541 
L 537.189545 547.943957 
L 541.881818 541.260654 
L 546.574091 573.153605 
L 551.266364 555.531169 
L 555.958636 558.304031 
L 560.650909 571.580279 
L 565.343182 560.279521 
L 570.035455 569.472202 
L 574.727727 580.964542 
L 579.42 559.630834 
L 584.112273 565.669159 
L 588.804545 513.946236 
L 593.496818 500.509422 
L 598.189091 549.757015 
L 602.881364 576.056225 
L 607.573636 545.616187 
L 612.265909 546.977168 
L 616.958182 574.908608 
L 621.650455 584.136877 
L 626.342727 536.918227 
L 631.035 560.46159 
L 635.727273 588.241446 
L 640.419545 569.602206 
L 645.111818 588.672606 
L 649.804091 591.038232 
L 654.496364 556.082488 
L 659.188636 558.281225 
L 663.880909 557.749443 
L 668.573182 578.014946 
L 673.265455 523.585898 
L 677.957727 580.031761 
L 682.65 489.84322 
L 687.342273 537.504672 
L 692.034545 532.217476 
L 696.726818 524.229997 
L 701.419091 558.027524 
L 706.111364 536.755363 
L 710.803636 413.674398 
L 715.495909 439.481208 
L 720.188182 426.159241 
L 724.880455 471.893144 
L 729.572727 434.834349 
L 734.265 466.306541 
L 738.957273 479.514818 
L 743.649545 455.534559 
L 748.341818 413.385308 
L 753.034091 276.73495 
L 757.726364 401.144622 
L 762.418636 361.663873 
L 767.110909 383.176567 
L 771.803182 327.465664 
L 776.495455 337.315235 
L 781.187727 343.150697 
L 785.88 346.574506 
L 790.572273 379.503204 
L 795.264545 426.941671 
L 799.956818 321.965489 
L 804.649091 346.808702 
L 809.341364 215.770065 
L 814.033636 316.240402 
L 818.725909 310.106011 
L 823.418182 341.48789 
L 828.110455 297.621292 
L 832.802727 377.204917 
L 837.495 328.606512 
L 842.187273 294.79352 
L 846.879545 389.257913 
L 851.571818 401.629235 
L 856.264091 385.71713 
L 860.956364 406.439714 
L 865.648636 412.196659 
L 870.340909 337.906614 
L 875.033182 429.803845 
L 879.725455 434.295134 
L 884.417727 475.613397 
L 889.11 419.048871 
L 893.802273 405.440604 
L 898.494545 428.821929 
L 903.186818 445.252694 
L 907.879091 395.563278 
L 912.571364 481.942324 
L 917.263636 488.22627 
L 921.955909 468.63021 
L 926.648182 487.107411 
L 931.340455 477.299581 
L 936.032727 494.732725 
L 940.725 454.826898 
L 945.417273 471.710111 
L 950.109545 444.8507 
L 954.801818 334.607521 
L 959.494091 433.819665 
L 964.186364 480.880456 
L 968.878636 475.138021 
L 973.570909 481.316712 
L 978.263182 485.588362 
L 982.955455 442.471474 
L 987.647727 475.218019 
L 992.34 453.107809 
L 997.032273 506.802128 
L 1001.724545 413.347776 
L 1006.416818 384.746794 
L 1011.109091 361.69974 
L 1015.801364 341.783641 
L 1020.493636 379.49349 
L 1025.185909 323.227568 
L 1029.878182 454.320405 
L 1034.570455 392.003344 
L 1039.262727 367.273868 
L 1043.955 348.316109 
L 1048.647273 401.420359 
L 1053.339545 345.733974 
L 1058.031818 403.491575 
L 1062.724091 430.141986 
L 1067.416364 440.891301 
L 1072.108636 557.505556 
L 1076.800909 515.65114 
L 1081.493182 481.855849 
L 1086.185455 480.308814 
L 1090.877727 509.383985 
L 1095.57 501.155881 
L 1100.262273 547.126879 
L 1104.954545 558.656836 
L 1109.646818 522.972699 
L 1114.339091 477.993811 
L 1119.031364 503.503389 
L 1123.723636 446.872064 
L 1128.415909 377.614004 
L 1133.108182 418.642313 
L 1137.800455 377.159243 
L 1142.492727 375.21817 
L 1147.185 411.262621 
L 1147.185 411.262621 
" style="fill:none;stroke:#ff0000;stroke-linecap:square;stroke-width:1.5;"/>
   </g>
   <g id="patch_3">
    <path d="M 166.5 661.5 
L 166.5 90.72 
" style="fill:none;stroke:#000000;stroke-linecap:square;stroke-linejoin:miter;stroke-width:0.8;"/>
   </g>
   <g id="patch_4">
    <path d="M 1198.8 661.5 
L 1198.8 90.72 
" style="fill:none;stroke:#000000;stroke-linecap:square;stroke-linejoin:miter;stroke-width:0.8;"/>
   </g>
   <g id="patch_5">
    <path d="M 166.5 661.5 
L 1198.8 661.5 
" style="fill:none;stroke:#000000;stroke-linecap:square;stroke-linejoin:miter;stroke-width:0.8;"/>
   </g>
   <g id="patch_6">
    <path d="M 166.5 90.72 
L 1198.8 90.72 
" style="fill:none;stroke:#000000;stroke-linecap:square;stroke-linejoin:miter;stroke-width:0.8;"/>
   </g>
  </g>
 </g>
 <defs>
  <clipPath id="p69712fceb6">
   <rect height="570.78" width="1032.3" x="166.5" y="90.72"/>
  </clipPath>
 </defs>
</svg>
