<?xml version="1.0" encoding="utf-8" standalone="no"?>
<!DOCTYPE svg PUBLIC "-//W3C//DTD SVG 1.1//EN"
  "http://www.w3.org/Graphics/SVG/1.1/DTD/svg11.dtd">
<!-- Created with matplotlib (http://matplotlib.org/) -->
<svg height="756pt" version="1.1" viewBox="0 0 1332 756" width="1332pt" xmlns="http://www.w3.org/2000/svg" xmlns:xlink="http://www.w3.org/1999/xlink">
 <defs>
  <style type="text/css">
*{stroke-linecap:butt;stroke-linejoin:round;}
  </style>
 </defs>
 <g id="figure_1">
  <g id="patch_1">
   <path d="M 0 756 
L 1332 756 
L 1332 0 
L 0 0 
z
" style="fill:#ffffff;"/>
  </g>
  <g id="axes_1">
   <g id="patch_2">
    <path d="M 166.5 661.5 
L 1198.8 661.5 
L 1198.8 90.72 
L 166.5 90.72 
z
" style="fill:#ffffff;"/>
   </g>
   <g id="matplotlib.axis_1">
    <g id="xtick_1">
     <g id="line2d_1">
      <defs>
       <path d="M 0 0 
L 0 3.5 
" id="m109194f67e" style="stroke:#000000;stroke-width:0.8;"/>
      </defs>
      <g>
       <use style="stroke:#000000;stroke-width:0.8;" x="213.422727" xlink:href="#m109194f67e" y="661.5"/>
      </g>
     </g>
     <g id="text_1">
      <!-- 0 -->
      <defs>
       <path d="M 31.78125 66.40625 
Q 24.171875 66.40625 20.328125 58.90625 
Q 16.5 51.421875 16.5 36.375 
Q 16.5 21.390625 20.328125 13.890625 
Q 24.171875 6.390625 31.78125 6.390625 
Q 39.453125 6.390625 43.28125 13.890625 
Q 47.125 21.390625 47.125 36.375 
Q 47.125 51.421875 43.28125 58.90625 
Q 39.453125 66.40625 31.78125 66.40625 
z
M 31.78125 74.21875 
Q 44.046875 74.21875 50.515625 64.515625 
Q 56.984375 54.828125 56.984375 36.375 
Q 56.984375 17.96875 50.515625 8.265625 
Q 44.046875 -1.421875 31.78125 -1.421875 
Q 19.53125 -1.421875 13.0625 8.265625 
Q 6.59375 17.96875 6.59375 36.375 
Q 6.59375 54.828125 13.0625 64.515625 
Q 19.53125 74.21875 31.78125 74.21875 
z
" id="DejaVuSans-30"/>
      </defs>
      <g transform="translate(210.241477 676.098438)scale(0.1 -0.1)">
       <use xlink:href="#DejaVuSans-30"/>
      </g>
     </g>
    </g>
    <g id="xtick_2">
     <g id="line2d_2">
      <g>
       <use style="stroke:#000000;stroke-width:0.8;" x="330.729545" xlink:href="#m109194f67e" y="661.5"/>
      </g>
     </g>
     <g id="text_2">
      <!-- 25 -->
      <defs>
       <path d="M 19.1875 8.296875 
L 53.609375 8.296875 
L 53.609375 0 
L 7.328125 0 
L 7.328125 8.296875 
Q 12.9375 14.109375 22.625 23.890625 
Q 32.328125 33.6875 34.8125 36.53125 
Q 39.546875 41.84375 41.421875 45.53125 
Q 43.3125 49.21875 43.3125 52.78125 
Q 43.3125 58.59375 39.234375 62.25 
Q 35.15625 65.921875 28.609375 65.921875 
Q 23.96875 65.921875 18.8125 64.3125 
Q 13.671875 62.703125 7.8125 59.421875 
L 7.8125 69.390625 
Q 13.765625 71.78125 18.9375 73 
Q 24.125 74.21875 28.421875 74.21875 
Q 39.75 74.21875 46.484375 68.546875 
Q 53.21875 62.890625 53.21875 53.421875 
Q 53.21875 48.921875 51.53125 44.890625 
Q 49.859375 40.875 45.40625 35.40625 
Q 44.1875 33.984375 37.640625 27.21875 
Q 31.109375 20.453125 19.1875 8.296875 
z
" id="DejaVuSans-32"/>
       <path d="M 10.796875 72.90625 
L 49.515625 72.90625 
L 49.515625 64.59375 
L 19.828125 64.59375 
L 19.828125 46.734375 
Q 21.96875 47.46875 24.109375 47.828125 
Q 26.265625 48.1875 28.421875 48.1875 
Q 40.625 48.1875 47.75 41.5 
Q 54.890625 34.8125 54.890625 23.390625 
Q 54.890625 11.625 47.5625 5.09375 
Q 40.234375 -1.421875 26.90625 -1.421875 
Q 22.3125 -1.421875 17.546875 -0.640625 
Q 12.796875 0.140625 7.71875 1.703125 
L 7.71875 11.625 
Q 12.109375 9.234375 16.796875 8.0625 
Q 21.484375 6.890625 26.703125 6.890625 
Q 35.15625 6.890625 40.078125 11.328125 
Q 45.015625 15.765625 45.015625 23.390625 
Q 45.015625 31 40.078125 35.4375 
Q 35.15625 39.890625 26.703125 39.890625 
Q 22.75 39.890625 18.8125 39.015625 
Q 14.890625 38.140625 10.796875 36.28125 
z
" id="DejaVuSans-35"/>
      </defs>
      <g transform="translate(324.367045 676.098438)scale(0.1 -0.1)">
       <use xlink:href="#DejaVuSans-32"/>
       <use x="63.623047" xlink:href="#DejaVuSans-35"/>
      </g>
     </g>
    </g>
    <g id="xtick_3">
     <g id="line2d_3">
      <g>
       <use style="stroke:#000000;stroke-width:0.8;" x="448.036364" xlink:href="#m109194f67e" y="661.5"/>
      </g>
     </g>
     <g id="text_3">
      <!-- 50 -->
      <g transform="translate(441.673864 676.098438)scale(0.1 -0.1)">
       <use xlink:href="#DejaVuSans-35"/>
       <use x="63.623047" xlink:href="#DejaVuSans-30"/>
      </g>
     </g>
    </g>
    <g id="xtick_4">
     <g id="line2d_4">
      <g>
       <use style="stroke:#000000;stroke-width:0.8;" x="565.343182" xlink:href="#m109194f67e" y="661.5"/>
      </g>
     </g>
     <g id="text_4">
      <!-- 75 -->
      <defs>
       <path d="M 8.203125 72.90625 
L 55.078125 72.90625 
L 55.078125 68.703125 
L 28.609375 0 
L 18.3125 0 
L 43.21875 64.59375 
L 8.203125 64.59375 
z
" id="DejaVuSans-37"/>
      </defs>
      <g transform="translate(558.980682 676.098438)scale(0.1 -0.1)">
       <use xlink:href="#DejaVuSans-37"/>
       <use x="63.623047" xlink:href="#DejaVuSans-35"/>
      </g>
     </g>
    </g>
    <g id="xtick_5">
     <g id="line2d_5">
      <g>
       <use style="stroke:#000000;stroke-width:0.8;" x="682.65" xlink:href="#m109194f67e" y="661.5"/>
      </g>
     </g>
     <g id="text_5">
      <!-- 100 -->
      <defs>
       <path d="M 12.40625 8.296875 
L 28.515625 8.296875 
L 28.515625 63.921875 
L 10.984375 60.40625 
L 10.984375 69.390625 
L 28.421875 72.90625 
L 38.28125 72.90625 
L 38.28125 8.296875 
L 54.390625 8.296875 
L 54.390625 0 
L 12.40625 0 
z
" id="DejaVuSans-31"/>
      </defs>
      <g transform="translate(673.10625 676.098438)scale(0.1 -0.1)">
       <use xlink:href="#DejaVuSans-31"/>
       <use x="63.623047" xlink:href="#DejaVuSans-30"/>
       <use x="127.246094" xlink:href="#DejaVuSans-30"/>
      </g>
     </g>
    </g>
    <g id="xtick_6">
     <g id="line2d_6">
      <g>
       <use style="stroke:#000000;stroke-width:0.8;" x="799.956818" xlink:href="#m109194f67e" y="661.5"/>
      </g>
     </g>
     <g id="text_6">
      <!-- 125 -->
      <g transform="translate(790.413068 676.098438)scale(0.1 -0.1)">
       <use xlink:href="#DejaVuSans-31"/>
       <use x="63.623047" xlink:href="#DejaVuSans-32"/>
       <use x="127.246094" xlink:href="#DejaVuSans-35"/>
      </g>
     </g>
    </g>
    <g id="xtick_7">
     <g id="line2d_7">
      <g>
       <use style="stroke:#000000;stroke-width:0.8;" x="917.263636" xlink:href="#m109194f67e" y="661.5"/>
      </g>
     </g>
     <g id="text_7">
      <!-- 150 -->
      <g transform="translate(907.719886 676.098438)scale(0.1 -0.1)">
       <use xlink:href="#DejaVuSans-31"/>
       <use x="63.623047" xlink:href="#DejaVuSans-35"/>
       <use x="127.246094" xlink:href="#DejaVuSans-30"/>
      </g>
     </g>
    </g>
    <g id="xtick_8">
     <g id="line2d_8">
      <g>
       <use style="stroke:#000000;stroke-width:0.8;" x="1034.570455" xlink:href="#m109194f67e" y="661.5"/>
      </g>
     </g>
     <g id="text_8">
      <!-- 175 -->
      <g transform="translate(1025.026705 676.098438)scale(0.1 -0.1)">
       <use xlink:href="#DejaVuSans-31"/>
       <use x="63.623047" xlink:href="#DejaVuSans-37"/>
       <use x="127.246094" xlink:href="#DejaVuSans-35"/>
      </g>
     </g>
    </g>
    <g id="xtick_9">
     <g id="line2d_9">
      <g>
       <use style="stroke:#000000;stroke-width:0.8;" x="1151.877273" xlink:href="#m109194f67e" y="661.5"/>
      </g>
     </g>
     <g id="text_9">
      <!-- 200 -->
      <g transform="translate(1142.333523 676.098438)scale(0.1 -0.1)">
       <use xlink:href="#DejaVuSans-32"/>
       <use x="63.623047" xlink:href="#DejaVuSans-30"/>
       <use x="127.246094" xlink:href="#DejaVuSans-30"/>
      </g>
     </g>
    </g>
   </g>
   <g id="matplotlib.axis_2">
    <g id="ytick_1">
     <g id="line2d_10">
      <defs>
       <path d="M 0 0 
L -3.5 0 
" id="mc821697e05" style="stroke:#000000;stroke-width:0.8;"/>
      </defs>
      <g>
       <use style="stroke:#000000;stroke-width:0.8;" x="166.5" xlink:href="#mc821697e05" y="637.08643"/>
      </g>
     </g>
     <g id="text_10">
      <!-- 0 -->
      <g transform="translate(153.1375 640.885648)scale(0.1 -0.1)">
       <use xlink:href="#DejaVuSans-30"/>
      </g>
     </g>
    </g>
    <g id="ytick_2">
     <g id="line2d_11">
      <g>
       <use style="stroke:#000000;stroke-width:0.8;" x="166.5" xlink:href="#mc821697e05" y="527.137731"/>
      </g>
     </g>
     <g id="text_11">
      <!-- 2000 -->
      <g transform="translate(134.05 530.93695)scale(0.1 -0.1)">
       <use xlink:href="#DejaVuSans-32"/>
       <use x="63.623047" xlink:href="#DejaVuSans-30"/>
       <use x="127.246094" xlink:href="#DejaVuSans-30"/>
       <use x="190.869141" xlink:href="#DejaVuSans-30"/>
      </g>
     </g>
    </g>
    <g id="ytick_3">
     <g id="line2d_12">
      <g>
       <use style="stroke:#000000;stroke-width:0.8;" x="166.5" xlink:href="#mc821697e05" y="417.189033"/>
      </g>
     </g>
     <g id="text_12">
      <!-- 4000 -->
      <defs>
       <path d="M 37.796875 64.3125 
L 12.890625 25.390625 
L 37.796875 25.390625 
z
M 35.203125 72.90625 
L 47.609375 72.90625 
L 47.609375 25.390625 
L 58.015625 25.390625 
L 58.015625 17.1875 
L 47.609375 17.1875 
L 47.609375 0 
L 37.796875 0 
L 37.796875 17.1875 
L 4.890625 17.1875 
L 4.890625 26.703125 
z
" id="DejaVuSans-34"/>
      </defs>
      <g transform="translate(134.05 420.988251)scale(0.1 -0.1)">
       <use xlink:href="#DejaVuSans-34"/>
       <use x="63.623047" xlink:href="#DejaVuSans-30"/>
       <use x="127.246094" xlink:href="#DejaVuSans-30"/>
       <use x="190.869141" xlink:href="#DejaVuSans-30"/>
      </g>
     </g>
    </g>
    <g id="ytick_4">
     <g id="line2d_13">
      <g>
       <use style="stroke:#000000;stroke-width:0.8;" x="166.5" xlink:href="#mc821697e05" y="307.240334"/>
      </g>
     </g>
     <g id="text_13">
      <!-- 6000 -->
      <defs>
       <path d="M 33.015625 40.375 
Q 26.375 40.375 22.484375 35.828125 
Q 18.609375 31.296875 18.609375 23.390625 
Q 18.609375 15.53125 22.484375 10.953125 
Q 26.375 6.390625 33.015625 6.390625 
Q 39.65625 6.390625 43.53125 10.953125 
Q 47.40625 15.53125 47.40625 23.390625 
Q 47.40625 31.296875 43.53125 35.828125 
Q 39.65625 40.375 33.015625 40.375 
z
M 52.59375 71.296875 
L 52.59375 62.3125 
Q 48.875 64.0625 45.09375 64.984375 
Q 41.3125 65.921875 37.59375 65.921875 
Q 27.828125 65.921875 22.671875 59.328125 
Q 17.53125 52.734375 16.796875 39.40625 
Q 19.671875 43.65625 24.015625 45.921875 
Q 28.375 48.1875 33.59375 48.1875 
Q 44.578125 48.1875 50.953125 41.515625 
Q 57.328125 34.859375 57.328125 23.390625 
Q 57.328125 12.15625 50.6875 5.359375 
Q 44.046875 -1.421875 33.015625 -1.421875 
Q 20.359375 -1.421875 13.671875 8.265625 
Q 6.984375 17.96875 6.984375 36.375 
Q 6.984375 53.65625 15.1875 63.9375 
Q 23.390625 74.21875 37.203125 74.21875 
Q 40.921875 74.21875 44.703125 73.484375 
Q 48.484375 72.75 52.59375 71.296875 
z
" id="DejaVuSans-36"/>
      </defs>
      <g transform="translate(134.05 311.039553)scale(0.1 -0.1)">
       <use xlink:href="#DejaVuSans-36"/>
       <use x="63.623047" xlink:href="#DejaVuSans-30"/>
       <use x="127.246094" xlink:href="#DejaVuSans-30"/>
       <use x="190.869141" xlink:href="#DejaVuSans-30"/>
      </g>
     </g>
    </g>
    <g id="ytick_5">
     <g id="line2d_14">
      <g>
       <use style="stroke:#000000;stroke-width:0.8;" x="166.5" xlink:href="#mc821697e05" y="197.291636"/>
      </g>
     </g>
     <g id="text_14">
      <!-- 8000 -->
      <defs>
       <path d="M 31.78125 34.625 
Q 24.75 34.625 20.71875 30.859375 
Q 16.703125 27.09375 16.703125 20.515625 
Q 16.703125 13.921875 20.71875 10.15625 
Q 24.75 6.390625 31.78125 6.390625 
Q 38.8125 6.390625 42.859375 10.171875 
Q 46.921875 13.96875 46.921875 20.515625 
Q 46.921875 27.09375 42.890625 30.859375 
Q 38.875 34.625 31.78125 34.625 
z
M 21.921875 38.8125 
Q 15.578125 40.375 12.03125 44.71875 
Q 8.5 49.078125 8.5 55.328125 
Q 8.5 64.0625 14.71875 69.140625 
Q 20.953125 74.21875 31.78125 74.21875 
Q 42.671875 74.21875 48.875 69.140625 
Q 55.078125 64.0625 55.078125 55.328125 
Q 55.078125 49.078125 51.53125 44.71875 
Q 48 40.375 41.703125 38.8125 
Q 48.828125 37.15625 52.796875 32.3125 
Q 56.78125 27.484375 56.78125 20.515625 
Q 56.78125 9.90625 50.3125 4.234375 
Q 43.84375 -1.421875 31.78125 -1.421875 
Q 19.734375 -1.421875 13.25 4.234375 
Q 6.78125 9.90625 6.78125 20.515625 
Q 6.78125 27.484375 10.78125 32.3125 
Q 14.796875 37.15625 21.921875 38.8125 
z
M 18.3125 54.390625 
Q 18.3125 48.734375 21.84375 45.5625 
Q 25.390625 42.390625 31.78125 42.390625 
Q 38.140625 42.390625 41.71875 45.5625 
Q 45.3125 48.734375 45.3125 54.390625 
Q 45.3125 60.0625 41.71875 63.234375 
Q 38.140625 66.40625 31.78125 66.40625 
Q 25.390625 66.40625 21.84375 63.234375 
Q 18.3125 60.0625 18.3125 54.390625 
z
" id="DejaVuSans-38"/>
      </defs>
      <g transform="translate(134.05 201.090855)scale(0.1 -0.1)">
       <use xlink:href="#DejaVuSans-38"/>
       <use x="63.623047" xlink:href="#DejaVuSans-30"/>
       <use x="127.246094" xlink:href="#DejaVuSans-30"/>
       <use x="190.869141" xlink:href="#DejaVuSans-30"/>
      </g>
     </g>
    </g>
   </g>
   <g id="LineCollection_1">
    <path clip-path="url(#pb1da089ea3)" d="M 213.422727 583.195617 
L 1151.877273 583.195617 
" style="fill:none;stroke:#000000;stroke-width:1.5;"/>
   </g>
   <g id="LineCollection_2">
    <path clip-path="url(#pb1da089ea3)" d="M 213.422727 567.132933 
L 1151.877273 567.132933 
" style="fill:none;stroke:#008000;stroke-width:1.5;"/>
   </g>
   <g id="line2d_15">
    <path clip-path="url(#pb1da089ea3)" d="M 213.422727 589.948734 
L 218.115 591.053109 
L 222.807273 627.994893 
L 227.499545 601.680019 
L 232.191818 586.658091 
L 236.884091 583.63377 
L 241.576364 580.24491 
L 246.268636 583.588323 
L 250.960909 584.464004 
L 255.653182 582.083252 
L 260.345455 524.388035 
L 265.037727 489.542604 
L 269.73 480.280037 
L 274.422273 530.664396 
L 279.114545 553.770236 
L 283.806818 528.088667 
L 288.499091 541.706176 
L 293.191364 627.85318 
L 297.883636 631.943271 
L 302.575909 622.135848 
L 307.268182 630.973282 
L 311.960455 628.871552 
L 316.652727 627.84976 
L 321.345 631.767843 
L 326.037273 630.957158 
L 330.729545 551.005884 
L 335.421818 515.882893 
L 340.114091 471.084906 
L 344.806364 540.341839 
L 349.498636 632.568269 
L 354.190909 568.032781 
L 358.883182 515.873608 
L 363.575455 564.808112 
L 368.267727 627.311259 
L 372.96 631.08079 
L 377.652273 518.406826 
L 382.344545 628.337933 
L 387.036818 630.206571 
L 391.729091 629.361192 
L 396.421364 426.88504 
L 401.113636 509.276197 
L 405.805909 508.851553 
L 410.498182 574.589632 
L 415.190455 546.408071 
L 419.882727 606.654587 
L 424.575 628.768932 
L 429.267273 371.196761 
L 433.959545 554.050242 
L 438.651818 631.951584 
L 443.344091 625.136227 
L 448.036364 588.288267 
L 452.728636 632.932326 
L 457.420909 634.819529 
L 462.113182 631.531821 
L 471.497727 631.696013 
L 476.19 632.029768 
L 480.882273 630.091735 
L 485.574545 633.526049 
L 490.266818 629.333337 
L 494.959091 598.814997 
L 499.651364 614.455568 
L 504.343636 626.292887 
L 509.035909 607.901647 
L 513.728182 595.407566 
L 518.420455 621.993162 
L 523.112727 622.780884 
L 527.805 560.74929 
L 532.497273 512.35476 
L 537.189545 567.098954 
L 541.881818 556.220382 
L 546.574091 628.669736 
L 551.266364 561.19544 
L 555.958636 523.477171 
L 560.650909 627.945053 
L 565.343182 567.335465 
L 570.035455 499.831851 
L 574.727727 574.525131 
L 579.42 571.731945 
L 584.112273 568.655828 
L 588.804545 565.37056 
L 593.496818 631.565537 
L 598.189091 630.892162 
L 602.881364 630.858446 
L 607.573636 566.151438 
L 612.265909 465.61288 
L 616.958182 518.701978 
L 621.650455 577.318806 
L 626.342727 579.081894 
L 631.035 631.06515 
L 635.727273 577.891029 
L 640.419545 520.018921 
L 645.111818 593.636172 
L 649.804091 549.189531 
L 654.496364 632.672847 
L 659.188636 631.441422 
L 663.880909 611.102375 
L 668.573182 598.615622 
L 673.265455 573.063061 
L 677.957727 583.528709 
L 682.65 581.953754 
L 687.342273 584.040823 
L 692.034545 580.552766 
L 696.726818 634.309857 
L 701.419091 629.56838 
L 706.111364 623.911645 
L 710.803636 507.23164 
L 715.495909 632.557522 
L 720.188182 627.861003 
L 724.880455 632.412879 
L 729.572727 629.5806 
L 734.265 630.409366 
L 738.957273 595.641636 
L 743.649545 633.098959 
L 748.341818 116.664545 
L 753.034091 616.908645 
L 757.726364 466.176796 
L 762.418636 574.861821 
L 767.110909 631.000159 
L 771.803182 631.876818 
L 776.495455 573.148573 
L 781.187727 622.368939 
L 785.88 515.321424 
L 790.572273 557.254389 
L 795.264545 566.182224 
L 799.956818 629.011797 
L 804.649091 630.895587 
L 809.341364 627.508188 
L 814.033636 619.615823 
L 818.725909 633.019796 
L 823.418182 631.622711 
L 828.110455 578.660181 
L 832.802727 517.21352 
L 837.495 512.827298 
L 842.187273 541.046483 
L 846.879545 504.171647 
L 851.571818 572.225004 
L 856.264091 574.271029 
L 860.956364 570.842097 
L 865.648636 633.385798 
L 870.340909 579.450833 
L 875.033182 631.359323 
L 879.725455 633.149777 
L 884.417727 631.559677 
L 889.11 632.221321 
L 893.802273 634.724732 
L 898.494545 632.527226 
L 903.186818 576.878522 
L 907.879091 633.959489 
L 912.571364 633.131696 
L 917.263636 578.83805 
L 921.955909 634.313282 
L 926.648182 523.730789 
L 931.340455 635.555455 
L 936.032727 578.724193 
L 940.725 564.286219 
L 945.417273 572.100883 
L 950.109545 632.497413 
L 954.801818 607.482864 
L 959.494091 476.943462 
L 968.878636 493.08442 
L 973.570909 393.389779 
L 978.263182 577.242574 
L 982.955455 632.213993 
L 987.647727 633.358927 
L 992.34 630.387866 
L 997.032273 516.199545 
L 1001.724545 564.077564 
L 1006.416818 486.896508 
L 1011.109091 532.38986 
L 1015.801364 632.350329 
L 1020.493636 633.720042 
L 1025.185909 623.324272 
L 1029.878182 587.034852 
L 1034.570455 449.723584 
L 1039.262727 627.960688 
L 1043.955 570.152592 
L 1048.647273 630.537885 
L 1053.339545 570.359296 
L 1058.031818 569.989868 
L 1062.724091 571.019966 
L 1067.416364 630.99625 
L 1072.108636 633.452257 
L 1076.800909 575.671528 
L 1081.493182 575.481932 
L 1086.185455 529.269268 
L 1090.877727 632.241848 
L 1095.57 629.032808 
L 1100.262273 631.283096 
L 1104.954545 631.670115 
L 1109.646818 575.162833 
L 1114.339091 634.424203 
L 1119.031364 629.627999 
L 1123.723636 631.47025 
L 1128.415909 584.640411 
L 1133.108182 564.862839 
L 1137.800455 581.645409 
L 1142.492727 633.455682 
L 1147.185 578.297592 
L 1147.185 578.297592 
" style="fill:none;stroke:#1f77b4;stroke-linecap:square;stroke-width:1.5;"/>
   </g>
   <g id="line2d_16">
    <path clip-path="url(#pb1da089ea3)" d="M 213.422727 565.700566 
L 218.115 566.55193 
L 222.807273 597.486001 
L 227.499545 574.975387 
L 232.191818 563.191274 
L 236.884091 560.921804 
L 241.576364 558.421075 
L 246.268636 560.887975 
L 250.960909 561.541299 
L 255.653182 559.77206 
L 260.345455 523.910391 
L 265.037727 508.703353 
L 269.73 505.41583 
L 274.422273 527.152622 
L 279.114545 540.471561 
L 283.806818 525.802858 
L 288.499091 533.244286 
L 293.191364 597.359134 
L 297.883636 601.04253 
L 302.575909 592.287939 
L 307.268182 600.164964 
L 311.960455 598.272043 
L 316.652727 597.356074 
L 321.345 600.883633 
L 326.037273 600.150401 
L 330.729545 538.762571 
L 335.421818 519.767733 
L 340.114091 502.444276 
L 344.806364 532.464626 
L 349.498636 601.609275 
L 354.190909 549.787881 
L 358.883182 519.763357 
L 363.575455 547.608664 
L 368.267727 596.874492 
L 372.96 600.262105 
L 377.652273 520.967236 
L 382.344545 597.793332 
L 387.036818 599.47306 
L 391.729091 598.711982 
L 396.421364 491.827664 
L 401.113636 516.74562 
L 405.805909 516.557129 
L 410.498182 554.348887 
L 415.190455 535.989836 
L 419.882727 579.057689 
L 424.575 598.179918 
L 429.267273 485.487159 
L 433.959545 540.646443 
L 438.651818 601.050063 
L 443.344091 594.937609 
L 448.036364 564.429197 
L 452.728636 601.939863 
L 457.420909 603.658962 
L 462.113182 600.66998 
L 471.497727 600.818599 
L 476.19 601.120905 
L 480.882273 599.369563 
L 485.574545 602.479728 
L 490.266818 598.686931 
L 494.959091 572.663854 
L 499.651364 585.628577 
L 504.343636 595.965969 
L 509.035909 580.094464 
L 513.728182 569.953368 
L 518.420455 592.162585 
L 523.112727 592.855365 
L 527.805 544.926101 
L 532.497273 518.132769 
L 537.189545 549.152442 
L 541.881818 542.012601 
L 546.574091 598.0909 
L 551.266364 545.217669 
L 555.958636 523.453014 
L 560.650909 597.441378 
L 565.343182 549.313036 
L 570.035455 512.715903 
L 574.727727 554.303166 
L 579.42 552.339726 
L 588.804545 547.98572 
L 593.496818 600.700497 
L 598.189091 600.091686 
L 602.881364 600.061236 
L 607.573636 548.511331 
L 612.265909 500.809004 
L 616.958182 521.109142 
L 621.650455 556.298214 
L 626.342727 557.573268 
L 631.035 600.247979 
L 635.727273 556.710683 
L 640.419545 521.746527 
L 645.111818 568.561138 
L 649.804091 537.65679 
L 654.496364 601.704205 
L 659.188636 600.588193 
L 663.880909 582.779456 
L 668.573182 572.504112 
L 673.265455 553.271511 
L 677.957727 560.843604 
L 682.65 559.676446 
L 687.342273 561.225197 
L 692.034545 558.646408 
L 696.726818 603.193801 
L 701.419091 598.898329 
L 706.111364 593.85302 
L 710.803636 515.844529 
L 715.495909 601.599521 
L 720.188182 597.366134 
L 724.880455 601.468272 
L 729.572727 598.909321 
L 734.265 599.655917 
L 738.957273 570.138208 
L 743.649545 602.091294 
L 748.341818 504.530335 
L 753.034091 587.735731 
L 757.726364 500.973028 
L 762.418636 554.541941 
L 767.110909 600.189246 
L 771.803182 600.982335 
L 776.495455 553.331599 
L 781.187727 592.492844 
L 785.88 519.504282 
L 790.572273 542.670367 
L 795.264545 548.532108 
L 799.956818 598.39798 
L 804.649091 600.094779 
L 809.341364 597.050514 
L 814.033636 590.082969 
L 818.725909 602.019338 
L 823.418182 600.752247 
L 828.110455 557.267144 
L 832.802727 520.396985 
L 837.495 518.348949 
L 842.187273 532.866358 
L 846.879545 514.525695 
L 851.571818 552.68402 
L 856.264091 554.123251 
L 860.956364 551.720801 
L 865.648636 602.35212 
L 870.340909 557.84163 
L 875.033182 600.513922 
L 879.725455 602.13748 
L 884.417727 600.695196 
L 889.11 601.294541 
L 893.802273 603.572393 
L 898.494545 601.572027 
L 903.186818 555.981729 
L 907.879091 602.874416 
L 912.571364 602.121049 
L 917.263636 557.396178 
L 921.955909 603.196931 
L 926.648182 523.580008 
L 931.340455 604.331747 
L 936.032727 557.313569 
L 940.725 547.25996 
L 945.417273 552.597264 
L 950.109545 601.544973 
L 954.801818 579.745714 
L 959.494091 504.304559 
L 964.186364 507.084146 
L 968.878636 510.041004 
L 973.570909 487.220072 
L 978.263182 556.243341 
L 982.955455 601.287894 
L 987.647727 602.327679 
L 992.34 599.636523 
L 997.032273 519.916845 
L 1001.724545 547.120853 
L 1006.416818 507.733356 
L 1011.109091 528.071805 
L 1015.801364 601.411533 
L 1020.493636 602.656318 
L 1025.185909 593.334323 
L 1029.878182 563.476487 
L 1034.570455 496.595642 
L 1039.262727 597.455373 
L 1043.955 551.243426 
L 1048.647273 599.771862 
L 1053.339545 551.386345 
L 1058.031818 551.131055 
L 1062.724091 551.844265 
L 1067.416364 600.185713 
L 1072.108636 602.41258 
L 1076.800909 555.118064 
L 1081.493182 554.98293 
L 1086.185455 526.41822 
L 1090.877727 601.313154 
L 1095.57 598.416854 
L 1100.262273 600.444989 
L 1104.954545 600.795155 
L 1109.646818 554.755826 
L 1114.339091 603.298109 
L 1119.031364 598.951975 
L 1123.723636 600.614274 
L 1128.415909 561.673252 
L 1133.108182 547.645284 
L 1137.800455 559.449079 
L 1142.492727 602.415694 
L 1147.185 557.004526 
L 1147.185 557.004526 
" style="fill:none;stroke:#ff0000;stroke-linecap:square;stroke-width:1.5;"/>
   </g>
   <g id="patch_3">
    <path d="M 166.5 661.5 
L 166.5 90.72 
" style="fill:none;stroke:#000000;stroke-linecap:square;stroke-linejoin:miter;stroke-width:0.8;"/>
   </g>
   <g id="patch_4">
    <path d="M 1198.8 661.5 
L 1198.8 90.72 
" style="fill:none;stroke:#000000;stroke-linecap:square;stroke-linejoin:miter;stroke-width:0.8;"/>
   </g>
   <g id="patch_5">
    <path d="M 166.5 661.5 
L 1198.8 661.5 
" style="fill:none;stroke:#000000;stroke-linecap:square;stroke-linejoin:miter;stroke-width:0.8;"/>
   </g>
   <g id="patch_6">
    <path d="M 166.5 90.72 
L 1198.8 90.72 
" style="fill:none;stroke:#000000;stroke-linecap:square;stroke-linejoin:miter;stroke-width:0.8;"/>
   </g>
  </g>
 </g>
 <defs>
  <clipPath id="pb1da089ea3">
   <rect height="570.78" width="1032.3" x="166.5" y="90.72"/>
  </clipPath>
 </defs>
</svg>
