<?xml version="1.0" encoding="utf-8" standalone="no"?>
<!DOCTYPE svg PUBLIC "-//W3C//DTD SVG 1.1//EN"
  "http://www.w3.org/Graphics/SVG/1.1/DTD/svg11.dtd">
<!-- Created with matplotlib (http://matplotlib.org/) -->
<svg height="756pt" version="1.1" viewBox="0 0 1332 756" width="1332pt" xmlns="http://www.w3.org/2000/svg" xmlns:xlink="http://www.w3.org/1999/xlink">
 <defs>
  <style type="text/css">
*{stroke-linecap:butt;stroke-linejoin:round;}
  </style>
 </defs>
 <g id="figure_1">
  <g id="patch_1">
   <path d="M 0 756 
L 1332 756 
L 1332 0 
L 0 0 
z
" style="fill:#ffffff;"/>
  </g>
  <g id="axes_1">
   <g id="patch_2">
    <path d="M 166.5 661.5 
L 1198.8 661.5 
L 1198.8 90.72 
L 166.5 90.72 
z
" style="fill:#ffffff;"/>
   </g>
   <g id="matplotlib.axis_1">
    <g id="xtick_1">
     <g id="line2d_1">
      <defs>
       <path d="M 0 0 
L 0 3.5 
" id="mc26a0fe566" style="stroke:#000000;stroke-width:0.8;"/>
      </defs>
      <g>
       <use style="stroke:#000000;stroke-width:0.8;" x="213.422727" xlink:href="#mc26a0fe566" y="661.5"/>
      </g>
     </g>
     <g id="text_1">
      <!-- 0 -->
      <defs>
       <path d="M 31.78125 66.40625 
Q 24.171875 66.40625 20.328125 58.90625 
Q 16.5 51.421875 16.5 36.375 
Q 16.5 21.390625 20.328125 13.890625 
Q 24.171875 6.390625 31.78125 6.390625 
Q 39.453125 6.390625 43.28125 13.890625 
Q 47.125 21.390625 47.125 36.375 
Q 47.125 51.421875 43.28125 58.90625 
Q 39.453125 66.40625 31.78125 66.40625 
z
M 31.78125 74.21875 
Q 44.046875 74.21875 50.515625 64.515625 
Q 56.984375 54.828125 56.984375 36.375 
Q 56.984375 17.96875 50.515625 8.265625 
Q 44.046875 -1.421875 31.78125 -1.421875 
Q 19.53125 -1.421875 13.0625 8.265625 
Q 6.59375 17.96875 6.59375 36.375 
Q 6.59375 54.828125 13.0625 64.515625 
Q 19.53125 74.21875 31.78125 74.21875 
z
" id="DejaVuSans-30"/>
      </defs>
      <g transform="translate(210.241477 676.098438)scale(0.1 -0.1)">
       <use xlink:href="#DejaVuSans-30"/>
      </g>
     </g>
    </g>
    <g id="xtick_2">
     <g id="line2d_2">
      <g>
       <use style="stroke:#000000;stroke-width:0.8;" x="330.729545" xlink:href="#mc26a0fe566" y="661.5"/>
      </g>
     </g>
     <g id="text_2">
      <!-- 25 -->
      <defs>
       <path d="M 19.1875 8.296875 
L 53.609375 8.296875 
L 53.609375 0 
L 7.328125 0 
L 7.328125 8.296875 
Q 12.9375 14.109375 22.625 23.890625 
Q 32.328125 33.6875 34.8125 36.53125 
Q 39.546875 41.84375 41.421875 45.53125 
Q 43.3125 49.21875 43.3125 52.78125 
Q 43.3125 58.59375 39.234375 62.25 
Q 35.15625 65.921875 28.609375 65.921875 
Q 23.96875 65.921875 18.8125 64.3125 
Q 13.671875 62.703125 7.8125 59.421875 
L 7.8125 69.390625 
Q 13.765625 71.78125 18.9375 73 
Q 24.125 74.21875 28.421875 74.21875 
Q 39.75 74.21875 46.484375 68.546875 
Q 53.21875 62.890625 53.21875 53.421875 
Q 53.21875 48.921875 51.53125 44.890625 
Q 49.859375 40.875 45.40625 35.40625 
Q 44.1875 33.984375 37.640625 27.21875 
Q 31.109375 20.453125 19.1875 8.296875 
z
" id="DejaVuSans-32"/>
       <path d="M 10.796875 72.90625 
L 49.515625 72.90625 
L 49.515625 64.59375 
L 19.828125 64.59375 
L 19.828125 46.734375 
Q 21.96875 47.46875 24.109375 47.828125 
Q 26.265625 48.1875 28.421875 48.1875 
Q 40.625 48.1875 47.75 41.5 
Q 54.890625 34.8125 54.890625 23.390625 
Q 54.890625 11.625 47.5625 5.09375 
Q 40.234375 -1.421875 26.90625 -1.421875 
Q 22.3125 -1.421875 17.546875 -0.640625 
Q 12.796875 0.140625 7.71875 1.703125 
L 7.71875 11.625 
Q 12.109375 9.234375 16.796875 8.0625 
Q 21.484375 6.890625 26.703125 6.890625 
Q 35.15625 6.890625 40.078125 11.328125 
Q 45.015625 15.765625 45.015625 23.390625 
Q 45.015625 31 40.078125 35.4375 
Q 35.15625 39.890625 26.703125 39.890625 
Q 22.75 39.890625 18.8125 39.015625 
Q 14.890625 38.140625 10.796875 36.28125 
z
" id="DejaVuSans-35"/>
      </defs>
      <g transform="translate(324.367045 676.098438)scale(0.1 -0.1)">
       <use xlink:href="#DejaVuSans-32"/>
       <use x="63.623047" xlink:href="#DejaVuSans-35"/>
      </g>
     </g>
    </g>
    <g id="xtick_3">
     <g id="line2d_3">
      <g>
       <use style="stroke:#000000;stroke-width:0.8;" x="448.036364" xlink:href="#mc26a0fe566" y="661.5"/>
      </g>
     </g>
     <g id="text_3">
      <!-- 50 -->
      <g transform="translate(441.673864 676.098438)scale(0.1 -0.1)">
       <use xlink:href="#DejaVuSans-35"/>
       <use x="63.623047" xlink:href="#DejaVuSans-30"/>
      </g>
     </g>
    </g>
    <g id="xtick_4">
     <g id="line2d_4">
      <g>
       <use style="stroke:#000000;stroke-width:0.8;" x="565.343182" xlink:href="#mc26a0fe566" y="661.5"/>
      </g>
     </g>
     <g id="text_4">
      <!-- 75 -->
      <defs>
       <path d="M 8.203125 72.90625 
L 55.078125 72.90625 
L 55.078125 68.703125 
L 28.609375 0 
L 18.3125 0 
L 43.21875 64.59375 
L 8.203125 64.59375 
z
" id="DejaVuSans-37"/>
      </defs>
      <g transform="translate(558.980682 676.098438)scale(0.1 -0.1)">
       <use xlink:href="#DejaVuSans-37"/>
       <use x="63.623047" xlink:href="#DejaVuSans-35"/>
      </g>
     </g>
    </g>
    <g id="xtick_5">
     <g id="line2d_5">
      <g>
       <use style="stroke:#000000;stroke-width:0.8;" x="682.65" xlink:href="#mc26a0fe566" y="661.5"/>
      </g>
     </g>
     <g id="text_5">
      <!-- 100 -->
      <defs>
       <path d="M 12.40625 8.296875 
L 28.515625 8.296875 
L 28.515625 63.921875 
L 10.984375 60.40625 
L 10.984375 69.390625 
L 28.421875 72.90625 
L 38.28125 72.90625 
L 38.28125 8.296875 
L 54.390625 8.296875 
L 54.390625 0 
L 12.40625 0 
z
" id="DejaVuSans-31"/>
      </defs>
      <g transform="translate(673.10625 676.098438)scale(0.1 -0.1)">
       <use xlink:href="#DejaVuSans-31"/>
       <use x="63.623047" xlink:href="#DejaVuSans-30"/>
       <use x="127.246094" xlink:href="#DejaVuSans-30"/>
      </g>
     </g>
    </g>
    <g id="xtick_6">
     <g id="line2d_6">
      <g>
       <use style="stroke:#000000;stroke-width:0.8;" x="799.956818" xlink:href="#mc26a0fe566" y="661.5"/>
      </g>
     </g>
     <g id="text_6">
      <!-- 125 -->
      <g transform="translate(790.413068 676.098438)scale(0.1 -0.1)">
       <use xlink:href="#DejaVuSans-31"/>
       <use x="63.623047" xlink:href="#DejaVuSans-32"/>
       <use x="127.246094" xlink:href="#DejaVuSans-35"/>
      </g>
     </g>
    </g>
    <g id="xtick_7">
     <g id="line2d_7">
      <g>
       <use style="stroke:#000000;stroke-width:0.8;" x="917.263636" xlink:href="#mc26a0fe566" y="661.5"/>
      </g>
     </g>
     <g id="text_7">
      <!-- 150 -->
      <g transform="translate(907.719886 676.098438)scale(0.1 -0.1)">
       <use xlink:href="#DejaVuSans-31"/>
       <use x="63.623047" xlink:href="#DejaVuSans-35"/>
       <use x="127.246094" xlink:href="#DejaVuSans-30"/>
      </g>
     </g>
    </g>
    <g id="xtick_8">
     <g id="line2d_8">
      <g>
       <use style="stroke:#000000;stroke-width:0.8;" x="1034.570455" xlink:href="#mc26a0fe566" y="661.5"/>
      </g>
     </g>
     <g id="text_8">
      <!-- 175 -->
      <g transform="translate(1025.026705 676.098438)scale(0.1 -0.1)">
       <use xlink:href="#DejaVuSans-31"/>
       <use x="63.623047" xlink:href="#DejaVuSans-37"/>
       <use x="127.246094" xlink:href="#DejaVuSans-35"/>
      </g>
     </g>
    </g>
    <g id="xtick_9">
     <g id="line2d_9">
      <g>
       <use style="stroke:#000000;stroke-width:0.8;" x="1151.877273" xlink:href="#mc26a0fe566" y="661.5"/>
      </g>
     </g>
     <g id="text_9">
      <!-- 200 -->
      <g transform="translate(1142.333523 676.098438)scale(0.1 -0.1)">
       <use xlink:href="#DejaVuSans-32"/>
       <use x="63.623047" xlink:href="#DejaVuSans-30"/>
       <use x="127.246094" xlink:href="#DejaVuSans-30"/>
      </g>
     </g>
    </g>
   </g>
   <g id="matplotlib.axis_2">
    <g id="ytick_1">
     <g id="line2d_10">
      <defs>
       <path d="M 0 0 
L -3.5 0 
" id="mb35c2209df" style="stroke:#000000;stroke-width:0.8;"/>
      </defs>
      <g>
       <use style="stroke:#000000;stroke-width:0.8;" x="166.5" xlink:href="#mb35c2209df" y="635.588837"/>
      </g>
     </g>
     <g id="text_10">
      <!-- 0 -->
      <g transform="translate(153.1375 639.388056)scale(0.1 -0.1)">
       <use xlink:href="#DejaVuSans-30"/>
      </g>
     </g>
    </g>
    <g id="ytick_2">
     <g id="line2d_11">
      <g>
       <use style="stroke:#000000;stroke-width:0.8;" x="166.5" xlink:href="#mb35c2209df" y="541.71203"/>
      </g>
     </g>
     <g id="text_11">
      <!-- 1000 -->
      <g transform="translate(134.05 545.511249)scale(0.1 -0.1)">
       <use xlink:href="#DejaVuSans-31"/>
       <use x="63.623047" xlink:href="#DejaVuSans-30"/>
       <use x="127.246094" xlink:href="#DejaVuSans-30"/>
       <use x="190.869141" xlink:href="#DejaVuSans-30"/>
      </g>
     </g>
    </g>
    <g id="ytick_3">
     <g id="line2d_12">
      <g>
       <use style="stroke:#000000;stroke-width:0.8;" x="166.5" xlink:href="#mb35c2209df" y="447.835223"/>
      </g>
     </g>
     <g id="text_12">
      <!-- 2000 -->
      <g transform="translate(134.05 451.634441)scale(0.1 -0.1)">
       <use xlink:href="#DejaVuSans-32"/>
       <use x="63.623047" xlink:href="#DejaVuSans-30"/>
       <use x="127.246094" xlink:href="#DejaVuSans-30"/>
       <use x="190.869141" xlink:href="#DejaVuSans-30"/>
      </g>
     </g>
    </g>
    <g id="ytick_4">
     <g id="line2d_13">
      <g>
       <use style="stroke:#000000;stroke-width:0.8;" x="166.5" xlink:href="#mb35c2209df" y="353.958416"/>
      </g>
     </g>
     <g id="text_13">
      <!-- 3000 -->
      <defs>
       <path d="M 40.578125 39.3125 
Q 47.65625 37.796875 51.625 33 
Q 55.609375 28.21875 55.609375 21.1875 
Q 55.609375 10.40625 48.1875 4.484375 
Q 40.765625 -1.421875 27.09375 -1.421875 
Q 22.515625 -1.421875 17.65625 -0.515625 
Q 12.796875 0.390625 7.625 2.203125 
L 7.625 11.71875 
Q 11.71875 9.328125 16.59375 8.109375 
Q 21.484375 6.890625 26.8125 6.890625 
Q 36.078125 6.890625 40.9375 10.546875 
Q 45.796875 14.203125 45.796875 21.1875 
Q 45.796875 27.640625 41.28125 31.265625 
Q 36.765625 34.90625 28.71875 34.90625 
L 20.21875 34.90625 
L 20.21875 43.015625 
L 29.109375 43.015625 
Q 36.375 43.015625 40.234375 45.921875 
Q 44.09375 48.828125 44.09375 54.296875 
Q 44.09375 59.90625 40.109375 62.90625 
Q 36.140625 65.921875 28.71875 65.921875 
Q 24.65625 65.921875 20.015625 65.03125 
Q 15.375 64.15625 9.8125 62.3125 
L 9.8125 71.09375 
Q 15.4375 72.65625 20.34375 73.4375 
Q 25.25 74.21875 29.59375 74.21875 
Q 40.828125 74.21875 47.359375 69.109375 
Q 53.90625 64.015625 53.90625 55.328125 
Q 53.90625 49.265625 50.4375 45.09375 
Q 46.96875 40.921875 40.578125 39.3125 
z
" id="DejaVuSans-33"/>
      </defs>
      <g transform="translate(134.05 357.757634)scale(0.1 -0.1)">
       <use xlink:href="#DejaVuSans-33"/>
       <use x="63.623047" xlink:href="#DejaVuSans-30"/>
       <use x="127.246094" xlink:href="#DejaVuSans-30"/>
       <use x="190.869141" xlink:href="#DejaVuSans-30"/>
      </g>
     </g>
    </g>
    <g id="ytick_5">
     <g id="line2d_14">
      <g>
       <use style="stroke:#000000;stroke-width:0.8;" x="166.5" xlink:href="#mb35c2209df" y="260.081608"/>
      </g>
     </g>
     <g id="text_14">
      <!-- 4000 -->
      <defs>
       <path d="M 37.796875 64.3125 
L 12.890625 25.390625 
L 37.796875 25.390625 
z
M 35.203125 72.90625 
L 47.609375 72.90625 
L 47.609375 25.390625 
L 58.015625 25.390625 
L 58.015625 17.1875 
L 47.609375 17.1875 
L 47.609375 0 
L 37.796875 0 
L 37.796875 17.1875 
L 4.890625 17.1875 
L 4.890625 26.703125 
z
" id="DejaVuSans-34"/>
      </defs>
      <g transform="translate(134.05 263.880827)scale(0.1 -0.1)">
       <use xlink:href="#DejaVuSans-34"/>
       <use x="63.623047" xlink:href="#DejaVuSans-30"/>
       <use x="127.246094" xlink:href="#DejaVuSans-30"/>
       <use x="190.869141" xlink:href="#DejaVuSans-30"/>
      </g>
     </g>
    </g>
    <g id="ytick_6">
     <g id="line2d_15">
      <g>
       <use style="stroke:#000000;stroke-width:0.8;" x="166.5" xlink:href="#mb35c2209df" y="166.204801"/>
      </g>
     </g>
     <g id="text_15">
      <!-- 5000 -->
      <g transform="translate(134.05 170.00402)scale(0.1 -0.1)">
       <use xlink:href="#DejaVuSans-35"/>
       <use x="63.623047" xlink:href="#DejaVuSans-30"/>
       <use x="127.246094" xlink:href="#DejaVuSans-30"/>
       <use x="190.869141" xlink:href="#DejaVuSans-30"/>
      </g>
     </g>
    </g>
   </g>
   <g id="LineCollection_1">
    <path clip-path="url(#pfeede45c03)" d="M 213.422727 618.650682 
L 1151.877273 618.650682 
" style="fill:none;stroke:#000000;stroke-width:1.5;"/>
   </g>
   <g id="LineCollection_2">
    <path clip-path="url(#pfeede45c03)" d="M 213.422727 622.513075 
L 1151.877273 622.513075 
" style="fill:none;stroke:#008000;stroke-width:1.5;"/>
   </g>
   <g id="line2d_16">
    <path clip-path="url(#pfeede45c03)" d="M 213.422727 634.33715 
L 218.115 630.932548 
L 222.807273 635.522081 
L 227.499545 635.462836 
L 232.191818 633.909907 
L 236.884091 632.7016 
L 241.576364 634.069281 
L 246.268636 631.552547 
L 250.960909 633.359995 
L 255.653182 634.604173 
L 260.345455 635.555455 
L 265.037727 635.522081 
L 269.73 631.833765 
L 274.422273 626.257896 
L 279.114545 621.070057 
L 283.806818 624.462145 
L 288.499091 612.499311 
L 293.191364 615.899745 
L 297.883636 612.067064 
L 302.575909 624.193441 
L 307.268182 627.984403 
L 311.960455 632.889353 
L 316.652727 623.682751 
L 326.037273 634.685113 
L 330.729545 632.297723 
L 335.421818 628.955708 
L 340.114091 627.501247 
L 344.806364 634.310442 
L 349.498636 633.083791 
L 354.190909 634.157742 
L 358.883182 634.206971 
L 363.575455 635.330986 
L 368.267727 630.529506 
L 372.96 632.480473 
L 377.652273 630.825734 
L 382.344545 624.998698 
L 387.036818 630.602101 
L 391.729091 631.49915 
L 396.421364 634.179436 
L 401.113636 631.561729 
L 405.805909 622.244146 
L 410.498182 630.535345 
L 415.190455 631.714438 
L 419.882727 635.112356 
L 424.575 632.495493 
L 429.267273 635.154084 
L 433.959545 627.293469 
L 438.651818 630.418516 
L 443.344091 635.438634 
L 448.036364 629.22107 
L 452.728636 635.555455 
L 457.420909 626.862049 
L 462.113182 621.347932 
L 466.805455 635.113192 
L 471.497727 631.37314 
L 476.19 631.39567 
L 480.882273 634.107668 
L 485.574545 633.852323 
L 490.266818 632.262679 
L 494.959091 632.855145 
L 499.651364 620.247283 
L 504.343636 623.533384 
L 509.035909 634.33715 
L 513.728182 634.233669 
L 518.420455 632.516353 
L 523.112727 631.517503 
L 527.805 635.371878 
L 532.497273 635.386063 
L 537.189545 634.121017 
L 541.881818 635.455326 
L 546.574091 635.54127 
L 551.266364 631.294705 
L 555.958636 634.129363 
L 560.650909 634.626703 
L 565.343182 635.392738 
L 570.035455 634.074294 
L 574.727727 631.65769 
L 579.42 634.203629 
L 584.112273 634.260377 
L 588.804545 630.730609 
L 593.496818 630.473593 
L 598.189091 634.222826 
L 602.881364 633.890709 
L 607.573636 635.220005 
L 612.265909 635.411936 
L 616.958182 632.779208 
L 621.650455 635.417775 
L 626.342727 634.129363 
L 631.035 635.261733 
L 635.727273 634.100993 
L 640.419545 635.481189 
L 649.804091 635.482024 
L 668.573182 635.510394 
L 673.265455 635.24921 
L 677.957727 635.221676 
L 682.65 635.555455 
L 687.342273 635.478691 
L 692.034545 634.303767 
L 696.726818 635.514571 
L 701.419091 634.274562 
L 706.111364 634.33715 
L 710.803636 635.26423 
L 715.495909 632.890189 
L 720.188182 634.134376 
L 724.880455 634.150231 
L 729.572727 635.182454 
L 734.265 630.843261 
L 738.957273 633.807262 
L 743.649545 634.045089 
L 748.341818 630.013803 
L 753.034091 631.427382 
L 757.726364 634.678439 
L 762.418636 632.382005 
L 767.110909 630.515321 
L 771.803182 631.773684 
L 776.495455 630.438549 
L 781.187727 631.893011 
L 785.88 632.024025 
L 790.572273 634.209477 
L 795.264545 634.570799 
L 799.956818 631.444908 
L 804.649091 634.049257 
L 809.341364 631.197074 
L 814.033636 621.402174 
L 818.725909 614.088129 
L 823.418182 628.52012 
L 828.110455 623.120326 
L 832.802727 633.062922 
L 837.495 626.018406 
L 842.187273 619.660656 
L 846.879545 620.867283 
L 851.571818 627.848385 
L 856.264091 626.548294 
L 860.956364 630.133966 
L 865.648636 624.739185 
L 870.340909 623.956459 
L 875.033182 631.866312 
L 879.725455 633.372509 
L 884.417727 633.0162 
L 889.11 634.251196 
L 893.802273 628.824703 
L 898.494545 631.049368 
L 903.186818 625.610362 
L 907.879091 628.355732 
L 912.571364 632.399532 
L 917.263636 632.405371 
L 921.955909 623.184585 
L 926.648182 633.352485 
L 931.340455 631.900521 
L 936.032727 633.085452 
L 940.725 629.092562 
L 945.417273 627.664799 
L 950.109545 622.775695 
L 954.801818 623.668567 
L 959.494091 628.025286 
L 964.186364 629.544842 
L 968.878636 630.712247 
L 973.570909 116.664545 
L 978.263182 168.818331 
L 982.955455 146.259528 
L 987.647727 156.236333 
L 992.34 131.643951 
L 997.032273 472.091319 
L 1001.724545 634.403905 
L 1006.416818 635.462836 
L 1011.109091 634.225333 
L 1015.801364 632.28688 
L 1020.493636 635.267572 
L 1025.185909 635.518739 
L 1034.570455 635.483695 
L 1039.262727 633.992518 
L 1043.955 635.421107 
L 1048.647273 633.839809 
L 1053.339545 634.253702 
L 1058.031818 635.478691 
L 1062.724091 635.467004 
L 1067.416364 633.933263 
L 1072.108636 635.240028 
L 1076.800909 635.01556 
L 1081.493182 632.758348 
L 1086.185455 630.647162 
L 1090.877727 631.509993 
L 1095.57 632.842631 
L 1100.262273 634.303767 
L 1104.954545 635.508732 
L 1114.339091 635.518739 
L 1119.031364 635.219169 
L 1128.415909 635.555455 
L 1133.108182 631.759499 
L 1137.800455 631.706092 
L 1142.492727 634.238682 
L 1147.185 633.069597 
L 1147.185 633.069597 
" style="fill:none;stroke:#1f77b4;stroke-linecap:square;stroke-width:1.5;"/>
   </g>
   <g id="line2d_17">
    <path clip-path="url(#pfeede45c03)" d="M 213.422727 631.40758 
L 218.115 629.343674 
L 222.807273 632.12307 
L 227.499545 632.08733 
L 232.191818 631.149239 
L 236.884091 630.417585 
L 241.576364 631.245631 
L 246.268636 629.720413 
L 250.960909 630.816445 
L 255.653182 631.568944 
L 260.345455 632.1432 
L 265.037727 632.12307 
L 269.73 629.891164 
L 274.422273 626.49069 
L 279.114545 623.299497 
L 283.806818 625.388992 
L 288.499091 617.972872 
L 293.191364 620.094064 
L 297.883636 617.702521 
L 302.575909 625.223873 
L 307.268182 627.54693 
L 311.960455 630.531373 
L 316.652727 624.909863 
L 326.037273 631.617843 
L 330.729545 630.172692 
L 335.421818 628.139855 
L 340.114091 627.251643 
L 344.806364 631.391437 
L 349.498636 630.649174 
L 354.190909 631.29912 
L 358.883182 631.328886 
L 363.575455 632.007784 
L 368.267727 629.098558 
L 372.96 630.283525 
L 377.652273 629.27873 
L 382.344545 625.718496 
L 387.036818 629.142719 
L 391.729091 629.687981 
L 396.421364 631.312239 
L 401.113636 629.725989 
L 405.805909 624.02396 
L 410.498182 629.10211 
L 415.190455 629.818719 
L 419.882727 631.875834 
L 424.575 630.292632 
L 429.267273 631.901023 
L 433.959545 627.124584 
L 438.651818 629.031027 
L 443.344091 632.072732 
L 448.036364 628.301679 
L 452.728636 632.1432 
L 457.420909 626.860633 
L 462.113182 623.471075 
L 466.805455 631.87634 
L 471.497727 629.611436 
L 476.19 629.625124 
L 480.882273 631.268842 
L 485.574545 631.114405 
L 490.266818 630.151436 
L 494.959091 630.510644 
L 499.651364 622.791043 
L 504.343636 624.817972 
L 509.035909 631.40758 
L 513.728182 631.345026 
L 518.420455 630.30528 
L 523.112727 629.699129 
L 527.805 632.032456 
L 532.497273 632.041014 
L 537.189545 631.276914 
L 541.881818 632.082801 
L 546.574091 632.134644 
L 551.266364 629.563783 
L 555.958636 631.281961 
L 560.650909 631.582556 
L 565.343182 632.045042 
L 570.035455 631.248662 
L 574.727727 629.784263 
L 579.42 631.326865 
L 584.112273 631.361172 
L 588.804545 629.220882 
L 593.496818 629.064541 
L 598.189091 631.338471 
L 602.881364 631.137627 
L 607.573636 631.940809 
L 612.265909 632.056624 
L 616.958182 630.464623 
L 621.650455 632.060146 
L 626.342727 631.281961 
L 631.035 631.965991 
L 635.727273 631.264808 
L 640.419545 632.098402 
L 659.188636 632.12307 
L 677.957727 631.941818 
L 682.65 632.1432 
L 687.342273 632.096898 
L 692.034545 631.387402 
L 696.726818 632.11854 
L 701.419091 631.369747 
L 706.111364 631.40758 
L 710.803636 631.967499 
L 715.495909 630.531881 
L 720.188182 631.284993 
L 724.880455 631.29458 
L 729.572727 631.918146 
L 734.265 629.289387 
L 738.957273 631.087143 
L 743.649545 631.231001 
L 748.341818 628.784685 
L 753.034091 629.644388 
L 757.726364 631.61381 
L 762.418636 630.223811 
L 767.110909 629.089928 
L 771.803182 629.85469 
L 776.495455 629.043218 
L 781.187727 629.927126 
L 785.88 630.006639 
L 790.572273 631.3304 
L 795.264545 631.548781 
L 799.956818 629.655034 
L 804.649091 631.233522 
L 809.341364 629.504459 
L 814.033636 623.504559 
L 818.725909 618.965237 
L 823.418182 627.874071 
L 828.110455 624.563751 
L 832.802727 630.636533 
L 837.495 626.343944 
L 842.187273 622.42814 
L 846.879545 623.174247 
L 851.571818 627.463824 
L 856.264091 626.668554 
L 860.956364 628.857845 
L 865.648636 625.55916 
L 870.340909 625.078189 
L 875.033182 629.91092 
L 879.725455 630.824021 
L 884.417727 630.608227 
L 889.11 631.355622 
L 893.802273 628.05994 
L 898.494545 629.414689 
L 903.186818 626.093788 
L 907.879091 627.773715 
L 912.571364 630.234443 
L 917.263636 630.237982 
L 921.955909 624.603311 
L 926.648182 630.811896 
L 931.340455 629.931684 
L 936.032727 630.65018 
L 940.725 628.223322 
L 945.417273 627.351625 
L 950.109545 624.35152 
L 954.801818 624.901137 
L 959.494091 627.571907 
L 964.186364 628.499027 
L 968.878636 629.209714 
L 973.570909 351.119696 
L 978.263182 369.24773 
L 982.955455 361.139968 
L 987.647727 364.673619 
L 992.34 356.107223 
L 997.032273 526.157541 
L 1001.724545 631.447929 
L 1006.416818 632.08733 
L 1011.109091 631.339987 
L 1015.801364 630.166115 
L 1020.493636 631.969517 
L 1025.185909 632.121055 
L 1034.570455 632.099913 
L 1039.262727 631.199207 
L 1043.955 632.062159 
L 1048.647273 631.106836 
L 1053.339545 631.357138 
L 1058.031818 632.096898 
L 1062.724091 632.089845 
L 1067.416364 631.163366 
L 1072.108636 631.952893 
L 1076.800909 631.817402 
L 1086.185455 629.170128 
L 1090.877727 629.694566 
L 1104.954545 632.115018 
L 1114.339091 632.121055 
L 1119.031364 631.940304 
L 1128.415909 632.1432 
L 1133.108182 629.846078 
L 1137.800455 629.813653 
L 1142.492727 631.348056 
L 1147.185 630.640575 
L 1147.185 630.640575 
" style="fill:none;stroke:#ff0000;stroke-linecap:square;stroke-width:1.5;"/>
   </g>
   <g id="patch_3">
    <path d="M 166.5 661.5 
L 166.5 90.72 
" style="fill:none;stroke:#000000;stroke-linecap:square;stroke-linejoin:miter;stroke-width:0.8;"/>
   </g>
   <g id="patch_4">
    <path d="M 1198.8 661.5 
L 1198.8 90.72 
" style="fill:none;stroke:#000000;stroke-linecap:square;stroke-linejoin:miter;stroke-width:0.8;"/>
   </g>
   <g id="patch_5">
    <path d="M 166.5 661.5 
L 1198.8 661.5 
" style="fill:none;stroke:#000000;stroke-linecap:square;stroke-linejoin:miter;stroke-width:0.8;"/>
   </g>
   <g id="patch_6">
    <path d="M 166.5 90.72 
L 1198.8 90.72 
" style="fill:none;stroke:#000000;stroke-linecap:square;stroke-linejoin:miter;stroke-width:0.8;"/>
   </g>
  </g>
 </g>
 <defs>
  <clipPath id="pfeede45c03">
   <rect height="570.78" width="1032.3" x="166.5" y="90.72"/>
  </clipPath>
 </defs>
</svg>
